<?xml version="1.0" encoding="utf-8"?>
<!-- Generator: Adobe Illustrator 16.0.0, SVG Export Plug-In . SVG Version: 6.00 Build 0)  -->
<!DOCTYPE svg PUBLIC "-//W3C//DTD SVG 1.1//EN" "http://www.w3.org/Graphics/SVG/1.1/DTD/svg11.dtd">
<svg xmlns="http://www.w3.org/2000/svg" xmlns:xlink="http://www.w3.org/1999/xlink" viewBox="0 0 399.46 34.35"><defs><style>.cls-1{fill:url(#linear-gradient);}.cls-2{fill:url(#linear-gradient-2);}.cls-3{fill:url(#linear-gradient-15);}</style><linearGradient id="linear-gradient" x1="412.58" y1="12.85" x2="-8.9" y2="12.85" gradientUnits="userSpaceOnUse"><stop offset="0" stop-color="#47c0b8"/><stop offset="0.35" stop-color="#47d2b1"/><stop offset="0.59" stop-color="#36c99a"/><stop offset="1" stop-color="#12b56a"/></linearGradient><linearGradient id="linear-gradient-2" x1="412.58" y1="15.98" x2="-8.9" y2="15.98" xlink:href="#linear-gradient"/><linearGradient id="linear-gradient-15" x1="412.58" y1="20.13" x2="-8.9" y2="20.13" xlink:href="#linear-gradient"/></defs><title>Asset 55</title><g id="Layer_2" data-name="Layer 2"><g id="Layer_1-2" data-name="Layer 1"><path class="cls-1" d="M11.76,25.7H7.56V3.6H0V0H19.32V3.6H11.76Z"/><path class="cls-2" d="M31.31,26.05a9.43,9.43,0,0,1-7.1-2.64,10.09,10.09,0,0,1-2.55-7.29A11,11,0,0,1,24,8.63a8.18,8.18,0,0,1,6.52-2.72,8,8,0,0,1,6.08,2.33,9,9,0,0,1,2.24,6.44v2.23h-13a6.38,6.38,0,0,0,1.53,4.35,5.33,5.33,0,0,0,4.06,1.52,15.45,15.45,0,0,0,3.21-.32,17.41,17.41,0,0,0,3.19-1.08v3.35a12.8,12.8,0,0,1-3.06,1A18.67,18.67,0,0,1,31.31,26.05ZM30.55,9a4.14,4.14,0,0,0-3.15,1.24A5.92,5.92,0,0,0,26,13.92H34.8a5.39,5.39,0,0,0-1.16-3.65A4,4,0,0,0,30.55,9Z"/><path class="cls-2" d="M47.88,15.77,41.36,6.26h4.71l4.43,6.8L55,6.26h4.67L53.1,15.77,60,25.7H55.3l-4.8-7.28L45.72,25.7H41Z"/><path class="cls-2" d="M67.52,6.26v7.8h9.16V6.26h4.13V25.7H76.68V17.31H67.52V25.7H63.39V6.26Z"/><path class="cls-2" d="M90.67,6.26v10c0,1.16-.1,2.87-.28,5.12l9.75-15.08h5V25.7h-4V15.91c0-.54,0-1.41.1-2.62s.12-2.09.17-2.64L91.76,25.7H86.71V6.26Z"/><path class="cls-2" d="M114.71,6.26v7.1c0,2,1,3,3.1,3a10.31,10.31,0,0,0,2.92-.42,14.42,14.42,0,0,0,3.06-1.32V6.26h4.13V25.7h-4.13V17.46a14.75,14.75,0,0,1-3.3,1.55,11.64,11.64,0,0,1-3.47.5,6.74,6.74,0,0,1-4.75-1.57,5.68,5.68,0,0,1-1.7-4.4V6.26Z"/><path class="cls-2" d="M142.31,26.05a9.41,9.41,0,0,1-7.09-2.64,10,10,0,0,1-2.56-7.29A11,11,0,0,1,135,8.63a8.17,8.17,0,0,1,6.52-2.72,8,8,0,0,1,6.08,2.33,8.94,8.94,0,0,1,2.23,6.44v2.23h-13a6.29,6.29,0,0,0,1.53,4.35,5.33,5.33,0,0,0,4.06,1.52,15.43,15.43,0,0,0,3.2-.32,17.16,17.16,0,0,0,3.19-1.08v3.35a12.58,12.58,0,0,1-3.05,1A18.78,18.78,0,0,1,142.31,26.05Zm-.75-17a4.15,4.15,0,0,0-3.16,1.24A6,6,0,0,0,137,13.92h8.82a5.39,5.39,0,0,0-1.16-3.65A4,4,0,0,0,141.56,9Z"/><path class="cls-2" d="M162.4,26.05q-4.41,0-6.7-2.57t-2.3-7.4q0-4.9,2.4-7.54t6.94-2.63a13.07,13.07,0,0,1,5.54,1.14L167,10.37a12.54,12.54,0,0,0-4.33-1q-5,0-5,6.7A8,8,0,0,0,158.92,21a4.33,4.33,0,0,0,3.68,1.65,10.51,10.51,0,0,0,5.22-1.38v3.61a8.36,8.36,0,0,1-2.37.93A14,14,0,0,1,162.4,26.05Z"/><path class="cls-2" d="M184.45,6.26H189l-8,9.37,8.72,10.07h-4.75l-8.4-9.86V25.7h-4.13V6.26h4.13V15.7Z"/><path class="cls-2" d="M196.82,6.26v10c0,1.16-.09,2.87-.28,5.12L206.3,6.26h5V25.7h-4V15.91c0-.54,0-1.41.1-2.62s.12-2.09.16-2.64L197.91,25.7h-5V6.26Z"/><path class="cls-2" d="M225.72,26.05a9.41,9.41,0,0,1-7.09-2.64,10,10,0,0,1-2.56-7.29,11,11,0,0,1,2.37-7.49A8.2,8.2,0,0,1,225,5.91a8.05,8.05,0,0,1,6.09,2.33,8.94,8.94,0,0,1,2.23,6.44v2.23h-13a6.38,6.38,0,0,0,1.53,4.35,5.35,5.35,0,0,0,4.06,1.52,15.45,15.45,0,0,0,3.21-.32,17.16,17.16,0,0,0,3.19-1.08v3.35a12.65,12.65,0,0,1-3.06,1A18.67,18.67,0,0,1,225.72,26.05ZM225,9a4.14,4.14,0,0,0-3.15,1.24,6,6,0,0,0-1.42,3.64h8.83a5.39,5.39,0,0,0-1.16-3.65A4,4,0,0,0,225,9Z"/><path class="cls-2" d="M264.2,11.23q0,3.45-4,4.17v.14A5.77,5.77,0,0,1,263.62,17a4,4,0,0,1,1.19,3,4.88,4.88,0,0,1-2.1,4.24,10.5,10.5,0,0,1-6.1,1.49h-9.29V6.26h9.25Q264.21,6.26,264.2,11.23Zm-4.13.35a1.76,1.76,0,0,0-.91-1.67,5.49,5.49,0,0,0-2.7-.52h-5v4.67h4.39a7.42,7.42,0,0,0,3.15-.53A2,2,0,0,0,260.07,11.58Zm.51,8.14a2.09,2.09,0,0,0-1.09-2,7,7,0,0,0-3.27-.59h-4.76v5.5h4.86Q260.58,22.64,260.58,19.72Z"/><path class="cls-2" d="M286.31,15.94q0,4.77-2.44,7.44a8.76,8.76,0,0,1-6.8,2.67,9.32,9.32,0,0,1-4.82-1.23A8.18,8.18,0,0,1,269,21.29a12.07,12.07,0,0,1-1.12-5.35,10.57,10.57,0,0,1,2.42-7.38,8.8,8.8,0,0,1,6.84-2.65,8.57,8.57,0,0,1,6.68,2.71A10.49,10.49,0,0,1,286.31,15.94Zm-14.15,0q0,6.74,5,6.74t4.92-6.74q0-6.66-5-6.66A4.25,4.25,0,0,0,273.33,11,8.78,8.78,0,0,0,272.16,15.94Z"/><path class="cls-2" d="M308.06,6.26V25.7h-4.15V9.53h-8.72V25.7h-4.13V6.26Z"/><path class="cls-3" d="M323.82,26.05a6.81,6.81,0,0,1-5.73-2.65h-.24c.16,1.64.24,2.63.24,3v8H314V6.26h3.34c.1.36.29,1.23.58,2.6h.21a6.48,6.48,0,0,1,5.8-2.95,6.76,6.76,0,0,1,5.67,2.63c1.36,1.76,2,4.23,2,7.4s-.68,5.66-2.06,7.44A6.82,6.82,0,0,1,323.82,26.05Zm-1-16.77a4.28,4.28,0,0,0-3.59,1.44,7.45,7.45,0,0,0-1.14,4.61v.61q0,3.55,1.13,5.14a4.16,4.16,0,0,0,3.67,1.6,3.75,3.75,0,0,0,3.31-1.76,9.1,9.1,0,0,0,1.16-5A8.83,8.83,0,0,0,326.21,11,3.85,3.85,0,0,0,322.82,9.28Z"/><path class="cls-2" d="M353.64,15.94q0,4.77-2.45,7.44a8.75,8.75,0,0,1-6.8,2.67,9.34,9.34,0,0,1-4.82-1.23,8.15,8.15,0,0,1-3.21-3.53,12.07,12.07,0,0,1-1.13-5.35,10.53,10.53,0,0,1,2.43-7.38,8.79,8.79,0,0,1,6.84-2.65,8.57,8.57,0,0,1,6.68,2.71A10.49,10.49,0,0,1,353.64,15.94Zm-14.15,0c0,4.49,1.65,6.74,5,6.74s4.92-2.25,4.92-6.74-1.65-6.66-4.95-6.66A4.23,4.23,0,0,0,340.66,11,8.78,8.78,0,0,0,339.49,15.94Z"/><path class="cls-2" d="M366.22,26.05q-4.41,0-6.7-2.57t-2.3-7.4q0-4.9,2.4-7.54t6.94-2.63a13,13,0,0,1,5.53,1.14l-1.24,3.32a12.54,12.54,0,0,0-4.33-1q-5,0-5,6.7A8.05,8.05,0,0,0,362.73,21a4.36,4.36,0,0,0,3.69,1.65,10.51,10.51,0,0,0,5.22-1.38v3.61a8.36,8.36,0,0,1-2.37.93A14,14,0,0,1,366.22,26.05Z"/><path class="cls-2" d="M380.34,14h3.94q4.07,0,6,1.4a4.86,4.86,0,0,1,2,4.22,5.3,5.3,0,0,1-2,4.53,9.87,9.87,0,0,1-6,1.52h-8.07V6.26h4.13Zm7.82,5.73a2.12,2.12,0,0,0-1.08-2,6.65,6.65,0,0,0-3.1-.58h-3.64v5.5h3.11a7,7,0,0,0,3.6-.7A2.4,2.4,0,0,0,388.16,19.76Zm11.3,5.94h-4.15V6.26h4.15Z"/></g></g></svg>
