<?xml version="1.0" encoding="UTF-8" standalone="no"?>
<!-- Created with Inkscape (http://www.inkscape.org/) -->

<svg
   xmlns:dc="http://purl.org/dc/elements/1.1/"
   xmlns:cc="http://creativecommons.org/ns#"
   xmlns:rdf="http://www.w3.org/1999/02/22-rdf-syntax-ns#"
   xmlns:svg="http://www.w3.org/2000/svg"
   xmlns="http://www.w3.org/2000/svg"
   xmlns:xlink="http://www.w3.org/1999/xlink"
   xmlns:sodipodi="http://sodipodi.sourceforge.net/DTD/sodipodi-0.dtd"
   xmlns:inkscape="http://www.inkscape.org/namespaces/inkscape"
   width="223.4819mm"
   height="24.030518mm"
   viewBox="0 0 791.86501 85.147503"
   id="svg18774"
   version="1.1"
   inkscape:version="0.91 r13725"
   sodipodi:docname="title.svg">
  <defs
     id="defs18776">
    <clipPath
       clipPathUnits="userSpaceOnUse"
       id="clipPath9514">
      <path
         d="m 435.824,3011.64 4.148,0 0,19.443 -4.148,0 0,-19.443 z m -19.107,19.443 0,-19.443 8.068,0 c 2.613,0 4.596,0.508 5.951,1.52 l 0,0 c 1.353,1.016 2.03,2.523 2.03,4.528 l 0,0 c 0,1.873 -0.65,3.281 -1.952,4.219 l 0,0 c -1.301,0.937 -3.311,1.405 -6.029,1.405 l 0,0 -3.938,0 0,7.771 -4.13,0 z m 4.13,-10.882 3.638,0 c 1.348,0 2.383,-0.192 3.103,-0.58 l 0,0 c 0.723,-0.387 1.083,-1.067 1.083,-2.04 l 0,0 c 0,-0.983 -0.37,-1.71 -1.108,-2.178 l 0,0 c -0.74,-0.47 -1.94,-0.705 -3.603,-0.705 l 0,0 -3.113,0 0,5.503 z"
         id="path9516"
         inkscape:connector-curvature="0" />
    </clipPath>
    <linearGradient
       x1="0"
       y1="0"
       x2="1"
       y2="0"
       gradientUnits="userSpaceOnUse"
       gradientTransform="matrix(-421.47891,0,0,421.47891,453.08578,3021.3613)"
       spreadMethod="pad"
       id="linearGradient9522">
      <stop
         style="stop-opacity:1;stop-color:#47c0b8"
         offset="0"
         id="stop9524" />
      <stop
         style="stop-opacity:1;stop-color:#47c0b8"
         offset="0.0393917"
         id="stop9526" />
      <stop
         style="stop-opacity:1;stop-color:#47d2b1"
         offset="0.348613"
         id="stop9528" />
      <stop
         style="stop-opacity:1;stop-color:#47d2b1"
         offset="0.4222168"
         id="stop9530" />
      <stop
         style="stop-opacity:1;stop-color:#12b56a"
         offset="1"
         id="stop9532" />
    </linearGradient>
    <clipPath
       clipPathUnits="userSpaceOnUse"
       id="clipPath9488">
      <path
         d="m 400.131,3028.798 c -1.6,-1.758 -2.397,-4.273 -2.397,-7.541 l 0,0 c 0,-3.213 0.762,-5.676 2.292,-7.394 l 0,0 c 1.531,-1.715 3.766,-2.573 6.706,-2.573 l 0,0 c 1.196,0 2.213,0.093 3.051,0.28 l 0,0 c 0.838,0.188 1.625,0.498 2.363,0.933 l 0,0 0,3.603 c -1.64,-0.915 -3.381,-1.373 -5.221,-1.373 l 0,0 c -1.615,0 -2.843,0.55 -3.683,1.645 l 0,0 c -0.838,1.096 -1.255,2.733 -1.255,4.914 l 0,0 c 0,4.463 1.68,6.696 5.043,6.696 l 0,0 c 1.138,0 2.58,-0.34 4.326,-1.02 l 0,0 1.247,3.323 c -1.64,0.762 -3.485,1.142 -5.535,1.142 l 0,0 c -3.026,0 -5.336,-0.878 -6.937,-2.635"
         id="path9490"
         inkscape:connector-curvature="0" />
    </clipPath>
    <clipPath
       clipPathUnits="userSpaceOnUse"
       id="clipPath9462">
      <path
         d="m 378.168,3028.78 c -1.618,-1.77 -2.425,-4.23 -2.425,-7.383 l 0,0 c 0,-2.028 0.375,-3.808 1.125,-5.344 l 0,0 c 0.75,-1.535 1.823,-2.713 3.215,-3.533 l 0,0 c 1.396,-0.82 3.001,-1.23 4.816,-1.23 l 0,0 c 2.908,0 5.176,0.89 6.804,2.67 l 0,0 c 1.63,1.783 2.443,4.261 2.443,7.437 l 0,0 c 0,3.07 -0.821,5.51 -2.461,7.321 l 0,0 c -1.64,1.81 -3.865,2.715 -6.678,2.715 l 0,0 c -2.943,0 -5.221,-0.885 -6.839,-2.653 m 1.828,-7.383 c 0,2.145 0.39,3.79 1.17,4.938 l 0,0 c 0.778,1.15 2.035,1.723 3.771,1.723 l 0,0 c 3.303,0 4.955,-2.221 4.955,-6.661 l 0,0 c 0,-4.489 -1.64,-6.734 -4.92,-6.734 l 0,0 c -3.318,0 -4.976,2.245 -4.976,6.734"
         id="path9464"
         inkscape:connector-curvature="0" />
    </clipPath>
    <clipPath
       clipPathUnits="userSpaceOnUse"
       id="clipPath9436">
      <path
         d="m 358.603,3028.48 -0.21,0 c -0.293,1.37 -0.486,2.238 -0.581,2.603 l 0,0 -3.34,0 0,-28.092 4.131,0 0,7.964 c 0,0.353 -0.08,1.348 -0.245,2.988 l 0,0 0.245,0 c 1.36,-1.77 3.27,-2.653 5.73,-2.653 l 0,0 c 2.426,0 4.329,0.89 5.704,2.67 l 0,0 c 1.378,1.783 2.068,4.261 2.068,7.437 l 0,0 c 0,3.175 -0.678,5.643 -2.031,7.401 l 0,0 c -1.355,1.757 -3.245,2.635 -5.671,2.635 l 0,0 c -2.577,0 -4.51,-0.985 -5.8,-2.953 m 1.125,-12.224 c -0.75,1.06 -1.125,2.773 -1.125,5.141 l 0,0 0,0.615 c 0,2.11 0.38,3.645 1.135,4.605 l 0,0 c 0.755,0.961 1.953,1.441 3.593,1.441 l 0,0 c 1.49,0 2.618,-0.558 3.385,-1.678 l 0,0 c 0.768,-1.12 1.151,-2.768 1.151,-4.948 l 0,0 c 0,-2.168 -0.386,-3.838 -1.161,-5.011 l 0,0 c -0.772,-1.17 -1.875,-1.758 -3.303,-1.758 l 0,0 c -1.7,0 -2.925,0.53 -3.675,1.593"
         id="path9438"
         inkscape:connector-curvature="0" />
    </clipPath>
    <linearGradient
       x1="0"
       y1="0"
       x2="1"
       y2="0"
       gradientUnits="userSpaceOnUse"
       gradientTransform="matrix(-421.47891,0,0,421.47891,453.08578,3017.2129)"
       spreadMethod="pad"
       id="linearGradient9444">
      <stop
         style="stop-opacity:1;stop-color:#47c0b8"
         offset="0"
         id="stop9446" />
      <stop
         style="stop-opacity:1;stop-color:#47c0b8"
         offset="0.0393917"
         id="stop9448" />
      <stop
         style="stop-opacity:1;stop-color:#47d2b1"
         offset="0.348613"
         id="stop9450" />
      <stop
         style="stop-opacity:1;stop-color:#47d2b1"
         offset="0.4222168"
         id="stop9452" />
      <stop
         style="stop-opacity:1;stop-color:#12b56a"
         offset="1"
         id="stop9454" />
    </linearGradient>
    <clipPath
       clipPathUnits="userSpaceOnUse"
       id="clipPath9410">
      <path
         d="m 331.568,3031.083 0,-19.443 4.131,0 0,16.173 8.719,0 0,-16.173 4.148,0 0,19.443 -16.998,0 z"
         id="path9412"
         inkscape:connector-curvature="0" />
    </clipPath>
    <clipPath
       clipPathUnits="userSpaceOnUse"
       id="clipPath9384">
      <path
         d="m 310.843,3028.78 c -1.615,-1.77 -2.426,-4.23 -2.426,-7.383 l 0,0 c 0,-2.028 0.375,-3.808 1.126,-5.344 l 0,0 c 0.75,-1.535 1.822,-2.713 3.218,-3.533 l 0,0 c 1.392,-0.82 2.998,-1.23 4.815,-1.23 l 0,0 c 2.906,0 5.174,0.89 6.804,2.67 l 0,0 c 1.628,1.783 2.443,4.261 2.443,7.437 l 0,0 c 0,3.07 -0.82,5.51 -2.461,7.321 l 0,0 c -1.642,1.81 -3.868,2.715 -6.681,2.715 l 0,0 c -2.94,0 -5.22,-0.885 -6.838,-2.653 m 1.83,-7.383 c 0,2.145 0.388,3.79 1.168,4.938 l 0,0 c 0.78,1.15 2.035,1.723 3.77,1.723 l 0,0 c 3.306,0 4.959,-2.221 4.959,-6.661 l 0,0 c 0,-4.489 -1.643,-6.734 -4.924,-6.734 l 0,0 c -3.315,0 -4.973,2.245 -4.973,6.734"
         id="path9386"
         inkscape:connector-curvature="0" />
    </clipPath>
    <clipPath
       clipPathUnits="userSpaceOnUse"
       id="clipPath9358">
      <path
         d="m 287.834,3031.083 0,-19.443 9.282,0 c 2.67,0 4.708,0.495 6.108,1.485 l 0,0 c 1.4,0.99 2.1,2.406 2.1,4.246 l 0,0 c 0,1.23 -0.397,2.233 -1.195,3.005 l 0,0 c -0.797,0.773 -1.945,1.248 -3.445,1.426 l 0,0 0,0.14 c 2.683,0.48 4.025,1.868 4.025,4.165 l 0,0 c 0,3.316 -2.543,4.976 -7.628,4.976 l 0,0 -9.247,0 z m 4.131,-3.13 5.011,0 c 1.195,0 2.092,-0.173 2.698,-0.518 l 0,0 c 0.602,-0.348 0.905,-0.905 0.905,-1.68 l 0,0 c 0,-0.938 -0.358,-1.585 -1.073,-1.941 l 0,0 c -0.715,-0.357 -1.763,-0.537 -3.145,-0.537 l 0,0 -4.396,0 0,4.676 z m 0,-7.752 4.763,0 c 1.453,0 2.543,-0.197 3.271,-0.59 l 0,0 c 0.725,-0.392 1.09,-1.057 1.09,-1.995 l 0,0 c 0,-1.945 -1.418,-2.918 -4.256,-2.918 l 0,0 -4.868,0 0,5.503 z"
         id="path9360"
         inkscape:connector-curvature="0" />
    </clipPath>
    <clipPath
       clipPathUnits="userSpaceOnUse"
       id="clipPath9332">
      <path
         d="m 258.952,3028.708 c -1.58,-1.815 -2.373,-4.311 -2.373,-7.486 l 0,0 c 0,-3.096 0.853,-5.524 2.558,-7.286 l 0,0 c 1.706,-1.766 4.071,-2.646 7.094,-2.646 l 0,0 c 1.323,0 2.5,0.098 3.533,0.298 l 0,0 c 1.03,0.2 2.05,0.54 3.058,1.02 l 0,0 0,3.358 c -1.135,-0.505 -2.2,-0.865 -3.191,-1.083 l 0,0 c -0.99,-0.215 -2.06,-0.325 -3.208,-0.325 l 0,0 c -1.745,0 -3.098,0.508 -4.06,1.52 l 0,0 c -0.96,1.016 -1.47,2.466 -1.528,4.351 l 0,0 12.955,0 0,2.233 c 0,2.73 -0.746,4.876 -2.233,6.433 l 0,0 c -1.488,1.558 -3.516,2.338 -6.081,2.338 l 0,0 c -2.768,0 -4.941,-0.907 -6.524,-2.725 m 3.368,-1.65 c 0.79,0.83 1.843,1.247 3.156,1.247 l 0,0 c 1.31,0 2.343,-0.412 3.093,-1.24 l 0,0 c 0.75,-0.825 1.135,-2.043 1.16,-3.648 l 0,0 -8.824,0 c 0.153,1.595 0.623,2.808 1.415,3.641"
         id="path9334"
         inkscape:connector-curvature="0" />
    </clipPath>
    <clipPath
       clipPathUnits="userSpaceOnUse"
       id="clipPath9306">
      <path
         d="m 246.805,3031.083 -9.754,-15.082 c 0.188,2.248 0.28,3.953 0.28,5.113 l 0,0 0,9.969 -3.955,0 0,-19.443 5.046,0 9.721,15.048 c -0.047,-0.551 -0.102,-1.431 -0.167,-2.638 l 0,0 c -0.065,-1.206 -0.098,-2.078 -0.098,-2.618 l 0,0 0,-9.792 3.973,0 0,19.443 -5.046,0 z"
         id="path9308"
         inkscape:connector-curvature="0" />
    </clipPath>
    <clipPath
       clipPathUnits="userSpaceOnUse"
       id="clipPath9280">
      <path
         d="m 224.957,3031.083 -7.929,-9.441 0,9.441 -4.13,0 0,-19.443 4.13,0 0,9.862 8.404,-9.862 4.746,0 -8.719,10.072 8.034,9.371 -4.536,0 z"
         id="path9282"
         inkscape:connector-curvature="0" />
    </clipPath>
    <clipPath
       clipPathUnits="userSpaceOnUse"
       id="clipPath9254">
      <path
         d="m 196.313,3028.798 c -1.598,-1.758 -2.398,-4.273 -2.398,-7.541 l 0,0 c 0,-3.213 0.765,-5.676 2.293,-7.394 l 0,0 c 1.53,-1.715 3.765,-2.573 6.706,-2.573 l 0,0 c 1.195,0 2.213,0.093 3.05,0.28 l 0,0 c 0.838,0.188 1.625,0.498 2.363,0.933 l 0,0 0,3.603 c -1.64,-0.915 -3.381,-1.373 -5.221,-1.373 l 0,0 c -1.615,0 -2.843,0.55 -3.68,1.645 l 0,0 c -0.838,1.096 -1.258,2.733 -1.258,4.914 l 0,0 c 0,4.463 1.683,6.696 5.046,6.696 l 0,0 c 1.135,0 2.578,-0.34 4.323,-1.02 l 0,0 1.248,3.323 c -1.641,0.762 -3.486,1.142 -5.536,1.142 l 0,0 c -3.023,0 -5.336,-0.878 -6.936,-2.635"
         id="path9256"
         inkscape:connector-curvature="0" />
    </clipPath>
    <clipPath
       clipPathUnits="userSpaceOnUse"
       id="clipPath9228">
      <path
         d="m 175.544,3028.708 c -1.582,-1.815 -2.372,-4.311 -2.372,-7.486 l 0,0 c 0,-3.096 0.852,-5.524 2.557,-7.286 l 0,0 c 1.706,-1.766 4.069,-2.646 7.094,-2.646 l 0,0 c 1.323,0 2.5,0.098 3.533,0.298 l 0,0 c 1.03,0.2 2.05,0.54 3.058,1.02 l 0,0 0,3.358 c -1.138,-0.505 -2.2,-0.865 -3.19,-1.083 l 0,0 c -0.991,-0.215 -2.061,-0.325 -3.208,-0.325 l 0,0 c -1.746,0 -3.101,0.508 -4.061,1.52 l 0,0 c -0.96,1.016 -1.47,2.466 -1.53,4.351 l 0,0 12.957,0 0,2.233 c 0,2.73 -0.745,4.876 -2.233,6.433 l 0,0 c -1.488,1.558 -3.516,2.338 -6.084,2.338 l 0,0 c -2.765,0 -4.938,-0.907 -6.521,-2.725 m 3.366,-1.65 c 0.793,0.83 1.843,1.247 3.155,1.247 l 0,0 c 1.313,0 2.346,-0.412 3.096,-1.24 l 0,0 c 0.75,-0.825 1.135,-2.043 1.16,-3.648 l 0,0 -8.824,0 c 0.15,1.595 0.623,2.808 1.413,3.641"
         id="path9230"
         inkscape:connector-curvature="0" />
    </clipPath>
    <clipPath
       clipPathUnits="userSpaceOnUse"
       id="clipPath9202">
      <path
         d="m 164.295,3031.083 0,-8.351 c -1.09,-0.61 -2.11,-1.05 -3.058,-1.328 l 0,0 c -0.95,-0.275 -1.923,-0.413 -2.918,-0.413 l 0,0 c -2.062,0 -3.095,0.998 -3.095,2.988 l 0,0 0,7.104 -4.148,0 0,-7.279 c 0,-1.887 0.567,-3.355 1.705,-4.403 l 0,0 c 1.138,-1.047 2.718,-1.572 4.746,-1.572 l 0,0 c 1.255,0 2.413,0.167 3.473,0.5 l 0,0 c 1.06,0.335 2.158,0.852 3.295,1.555 l 0,0 0,-8.244 4.131,0 0,19.443 -4.131,0 z"
         id="path9204"
         inkscape:connector-curvature="0" />
    </clipPath>
    <clipPath
       clipPathUnits="userSpaceOnUse"
       id="clipPath9176">
      <path
         d="m 140.652,3031.083 -9.754,-15.082 c 0.187,2.248 0.28,3.953 0.28,5.113 l 0,0 0,9.969 -3.956,0 0,-19.443 5.046,0 9.721,15.048 c -0.047,-0.551 -0.102,-1.431 -0.167,-2.638 l 0,0 c -0.065,-1.206 -0.098,-2.078 -0.098,-2.618 l 0,0 0,-9.792 3.973,0 0,19.443 -5.045,0 z"
         id="path9178"
         inkscape:connector-curvature="0" />
    </clipPath>
    <clipPath
       clipPathUnits="userSpaceOnUse"
       id="clipPath9150">
      <path
         d="m 117.186,3031.083 0,-7.806 -9.159,0 0,7.806 -4.131,0 0,-19.443 4.131,0 0,8.386 9.159,0 0,-8.386 4.13,0 0,19.443 -4.13,0 z"
         id="path9152"
         inkscape:connector-curvature="0" />
    </clipPath>
    <clipPath
       clipPathUnits="userSpaceOnUse"
       id="clipPath9124">
      <path
         d="m 95.477,3031.083 -4.466,-6.803 -4.43,6.803 -4.711,0 6.524,-9.511 -6.839,-9.932 4.676,0 4.78,7.279 4.799,-7.279 4.675,0 -6.871,9.932 6.539,9.511 -4.676,0 z"
         id="path9126"
         inkscape:connector-curvature="0" />
    </clipPath>
    <clipPath
       clipPathUnits="userSpaceOnUse"
       id="clipPath9098">
      <path
         d="m 64.54,3028.708 c -1.583,-1.815 -2.373,-4.311 -2.373,-7.486 l 0,0 c 0,-3.096 0.853,-5.524 2.555,-7.286 l 0,0 c 1.706,-1.766 4.071,-2.646 7.094,-2.646 l 0,0 c 1.325,0 2.503,0.098 3.533,0.298 l 0,0 c 1.033,0.2 2.05,0.54 3.058,1.02 l 0,0 0,3.358 c -1.135,-0.505 -2.198,-0.865 -3.19,-1.083 l 0,0 c -0.991,-0.215 -2.058,-0.325 -3.208,-0.325 l 0,0 c -1.746,0 -3.098,0.508 -4.059,1.52 l 0,0 c -0.962,1.016 -1.472,2.466 -1.53,4.351 l 0,0 12.955,0 0,2.233 c 0,2.73 -0.743,4.876 -2.233,6.433 l 0,0 c -1.488,1.558 -3.516,2.338 -6.081,2.338 l 0,0 c -2.766,0 -4.941,-0.907 -6.521,-2.725 m 3.365,-1.65 c 0.791,0.83 1.843,1.247 3.156,1.247 l 0,0 c 1.313,0 2.343,-0.412 3.093,-1.24 l 0,0 c 0.75,-0.825 1.138,-2.043 1.16,-3.648 l 0,0 -8.824,0 c 0.153,1.595 0.625,2.808 1.415,3.641"
         id="path9100"
         inkscape:connector-curvature="0" />
    </clipPath>
    <clipPath
       clipPathUnits="userSpaceOnUse"
       id="clipPath9072">
      <path
         d="m 40.509,3037.339 0,-3.603 7.558,0 0,-22.096 4.204,0 0,22.096 7.558,0 0,3.603 -19.32,0 z"
         id="path9074"
         inkscape:connector-curvature="0" />
    </clipPath>
    <linearGradient
       x1="0"
       y1="0"
       x2="1"
       y2="0"
       gradientUnits="userSpaceOnUse"
       gradientTransform="matrix(-421.47891,0,0,421.47891,453.08578,3024.4902)"
       spreadMethod="pad"
       id="linearGradient9080">
      <stop
         style="stop-opacity:1;stop-color:#47c0b8"
         offset="0"
         id="stop9082" />
      <stop
         style="stop-opacity:1;stop-color:#47c0b8"
         offset="0.0393917"
         id="stop9084" />
      <stop
         style="stop-opacity:1;stop-color:#47d2b1"
         offset="0.348613"
         id="stop9086" />
      <stop
         style="stop-opacity:1;stop-color:#47d2b1"
         offset="0.4222168"
         id="stop9088" />
      <stop
         style="stop-opacity:1;stop-color:#12b56a"
         offset="1"
         id="stop9090" />
    </linearGradient>
    <clipPath
       clipPathUnits="userSpaceOnUse"
       id="clipPath4968">
      <path
         d="m 651.443,2980.5 c 0,-6.228 5.05,-11.279 11.279,-11.279 l 0,0 c 6.228,0 11.279,5.051 11.279,11.279 l 0,0 c 0,6.229 -5.051,11.28 -11.279,11.28 l 0,0 c -6.229,0 -11.279,-5.051 -11.279,-11.28"
         id="path4970"
         inkscape:connector-curvature="0" />
    </clipPath>
    <linearGradient
       x1="0"
       y1="0"
       x2="1"
       y2="0"
       gradientUnits="userSpaceOnUse"
       gradientTransform="matrix(-632,0,0,632,673.99994,2980.5)"
       spreadMethod="pad"
       id="linearGradient4976">
      <stop
         style="stop-opacity:1;stop-color:#47c0b8"
         offset="0"
         id="stop4978" />
      <stop
         style="stop-opacity:1;stop-color:#47c0b8"
         offset="0.0393917"
         id="stop4980" />
      <stop
         style="stop-opacity:1;stop-color:#47d2b1"
         offset="0.348613"
         id="stop4982" />
      <stop
         style="stop-opacity:1;stop-color:#47d2b1"
         offset="0.4222168"
         id="stop4984" />
      <stop
         style="stop-opacity:1;stop-color:#12b56a"
         offset="1"
         id="stop4986" />
    </linearGradient>
    <clipPath
       clipPathUnits="userSpaceOnUse"
       id="clipPath4944">
      <path
         d="m 0,9963 720,0 L 720,0 0,0 0,9963 Z"
         id="path4946"
         inkscape:connector-curvature="0" />
    </clipPath>
    <linearGradient
       x1="0"
       y1="0"
       x2="1"
       y2="0"
       gradientUnits="userSpaceOnUse"
       gradientTransform="matrix(-632,0,0,-632,632,9963)"
       spreadMethod="pad"
       id="linearGradient4950">
      <stop
         style="stop-opacity:1;stop-color:#47c0b8"
         offset="0"
         id="stop4952" />
      <stop
         style="stop-opacity:1;stop-color:#47c0b8"
         offset="0.0393917"
         id="stop4954" />
      <stop
         style="stop-opacity:1;stop-color:#47d2b1"
         offset="0.348613"
         id="stop4956" />
      <stop
         style="stop-opacity:1;stop-color:#47d2b1"
         offset="0.4222168"
         id="stop4958" />
      <stop
         style="stop-opacity:1;stop-color:#12b56a"
         offset="1"
         id="stop4960" />
    </linearGradient>
    <linearGradient
       inkscape:collect="always"
       xlink:href="#linearGradient9522"
       id="linearGradient19214"
       gradientUnits="userSpaceOnUse"
       gradientTransform="matrix(-421.47891,0,0,421.47891,453.08578,3021.3613)"
       spreadMethod="pad"
       x1="0"
       y1="0"
       x2="1"
       y2="0" />
    <linearGradient
       inkscape:collect="always"
       xlink:href="#linearGradient9522"
       id="linearGradient19216"
       gradientUnits="userSpaceOnUse"
       gradientTransform="matrix(-421.47891,0,0,421.47891,453.08578,3021.3613)"
       spreadMethod="pad"
       x1="0"
       y1="0"
       x2="1"
       y2="0" />
    <linearGradient
       inkscape:collect="always"
       xlink:href="#linearGradient9522"
       id="linearGradient19218"
       gradientUnits="userSpaceOnUse"
       gradientTransform="matrix(-421.47891,0,0,421.47891,453.08578,3021.3613)"
       spreadMethod="pad"
       x1="0"
       y1="0"
       x2="1"
       y2="0" />
    <linearGradient
       inkscape:collect="always"
       xlink:href="#linearGradient9522"
       id="linearGradient19220"
       gradientUnits="userSpaceOnUse"
       gradientTransform="matrix(-421.47891,0,0,421.47891,453.08578,3021.3613)"
       spreadMethod="pad"
       x1="0"
       y1="0"
       x2="1"
       y2="0" />
    <linearGradient
       inkscape:collect="always"
       xlink:href="#linearGradient9522"
       id="linearGradient19222"
       gradientUnits="userSpaceOnUse"
       gradientTransform="matrix(-421.47891,0,0,421.47891,453.08578,3021.3613)"
       spreadMethod="pad"
       x1="0"
       y1="0"
       x2="1"
       y2="0" />
    <linearGradient
       inkscape:collect="always"
       xlink:href="#linearGradient9522"
       id="linearGradient19224"
       gradientUnits="userSpaceOnUse"
       gradientTransform="matrix(-421.47891,0,0,421.47891,453.08578,3021.3613)"
       spreadMethod="pad"
       x1="0"
       y1="0"
       x2="1"
       y2="0" />
    <linearGradient
       inkscape:collect="always"
       xlink:href="#linearGradient9522"
       id="linearGradient19226"
       gradientUnits="userSpaceOnUse"
       gradientTransform="matrix(-421.47891,0,0,421.47891,453.08578,3021.3613)"
       spreadMethod="pad"
       x1="0"
       y1="0"
       x2="1"
       y2="0" />
    <linearGradient
       inkscape:collect="always"
       xlink:href="#linearGradient9522"
       id="linearGradient19228"
       gradientUnits="userSpaceOnUse"
       gradientTransform="matrix(-421.47891,0,0,421.47891,453.08578,3021.3613)"
       spreadMethod="pad"
       x1="0"
       y1="0"
       x2="1"
       y2="0" />
    <linearGradient
       inkscape:collect="always"
       xlink:href="#linearGradient9522"
       id="linearGradient19230"
       gradientUnits="userSpaceOnUse"
       gradientTransform="matrix(-421.47891,0,0,421.47891,453.08578,3021.3613)"
       spreadMethod="pad"
       x1="0"
       y1="0"
       x2="1"
       y2="0" />
    <linearGradient
       inkscape:collect="always"
       xlink:href="#linearGradient9522"
       id="linearGradient19232"
       gradientUnits="userSpaceOnUse"
       gradientTransform="matrix(-421.47891,0,0,421.47891,453.08578,3021.3613)"
       spreadMethod="pad"
       x1="0"
       y1="0"
       x2="1"
       y2="0" />
    <linearGradient
       inkscape:collect="always"
       xlink:href="#linearGradient9522"
       id="linearGradient19234"
       gradientUnits="userSpaceOnUse"
       gradientTransform="matrix(-421.47891,0,0,421.47891,453.08578,3021.3613)"
       spreadMethod="pad"
       x1="0"
       y1="0"
       x2="1"
       y2="0" />
    <linearGradient
       inkscape:collect="always"
       xlink:href="#linearGradient9522"
       id="linearGradient19236"
       gradientUnits="userSpaceOnUse"
       gradientTransform="matrix(-421.47891,0,0,421.47891,453.08578,3021.3613)"
       spreadMethod="pad"
       x1="0"
       y1="0"
       x2="1"
       y2="0" />
    <linearGradient
       inkscape:collect="always"
       xlink:href="#linearGradient9522"
       id="linearGradient19238"
       gradientUnits="userSpaceOnUse"
       gradientTransform="matrix(-421.47891,0,0,421.47891,453.08578,3021.3613)"
       spreadMethod="pad"
       x1="0"
       y1="0"
       x2="1"
       y2="0" />
    <linearGradient
       inkscape:collect="always"
       xlink:href="#linearGradient9522"
       id="linearGradient19240"
       gradientUnits="userSpaceOnUse"
       gradientTransform="matrix(-421.47891,0,0,421.47891,453.08578,3021.3613)"
       spreadMethod="pad"
       x1="0"
       y1="0"
       x2="1"
       y2="0" />
    <linearGradient
       inkscape:collect="always"
       xlink:href="#linearGradient9522"
       id="linearGradient19242"
       gradientUnits="userSpaceOnUse"
       gradientTransform="matrix(-421.47891,0,0,421.47891,453.08578,3021.3613)"
       spreadMethod="pad"
       x1="0"
       y1="0"
       x2="1"
       y2="0" />
    <linearGradient
       inkscape:collect="always"
       xlink:href="#linearGradient9522"
       id="linearGradient19244"
       gradientUnits="userSpaceOnUse"
       gradientTransform="matrix(-421.47891,0,0,421.47891,453.08578,3021.3613)"
       spreadMethod="pad"
       x1="0"
       y1="0"
       x2="1"
       y2="0" />
  </defs>
  <sodipodi:namedview
     id="base"
     pagecolor="#ffffff"
     bordercolor="#666666"
     borderopacity="1.0"
     inkscape:pageopacity="0.0"
     inkscape:pageshadow="2"
     inkscape:zoom="0.35"
     inkscape:cx="445.21821"
     inkscape:cy="-68.854855"
     inkscape:document-units="px"
     inkscape:current-layer="layer1"
     showgrid="false"
     fit-margin-top="0"
     fit-margin-left="0"
     fit-margin-right="0"
     fit-margin-bottom="0"
     inkscape:window-width="1366"
     inkscape:window-height="718"
     inkscape:window-x="0"
     inkscape:window-y="24"
     inkscape:window-maximized="1" />
  <metadata
     id="metadata18779">
    <rdf:RDF>
      <cc:Work
         rdf:about="">
        <dc:format>image/svg+xml</dc:format>
        <dc:type
           rdf:resource="http://purl.org/dc/dcmitype/StillImage" />
        <dc:title></dc:title>
      </cc:Work>
    </rdf:RDF>
  </metadata>
  <g
     inkscape:label="Layer 1"
     inkscape:groupmode="layer"
     id="layer1"
     transform="translate(70.21821,-378.35985)">
    <g
       transform="matrix(1.25,0,0,-1.25,-120.85446,4175.0336)"
       id="g4940">
      <g
         id="g4942"
         clip-path="url(#clipPath4944)">
        <g
           id="g4948"
           transform="translate(42,2980.5)">
          <path
             d="M 0,0 621.284,0"
             style="fill:none;stroke:url(#linearGradient4950);stroke-width:3;stroke-linecap:butt;stroke-linejoin:miter;stroke-miterlimit:10;stroke-dasharray:none;stroke-opacity:1"
             id="path4962"
             inkscape:connector-curvature="0" />
        </g>
      </g>
    </g>
    <g
       transform="matrix(1.25,0,0,-1.25,-120.85446,4175.0336)"
       id="g4964">
      <g
         id="g4966"
         clip-path="url(#clipPath4968)">
        <g
           id="g4972">
          <g
             id="g4974">
            <path
               d="m 651.443,2980.5 c 0,-6.228 5.05,-11.279 11.279,-11.279 l 0,0 c 6.228,0 11.279,5.051 11.279,11.279 l 0,0 c 0,6.229 -5.051,11.28 -11.279,11.28 l 0,0 c -6.229,0 -11.279,-5.051 -11.279,-11.28"
               style="fill:url(#linearGradient4976);stroke:none"
               id="path4988"
               inkscape:connector-curvature="0" />
          </g>
        </g>
      </g>
    </g>
    <g
       transform="matrix(1.25,0,0,-1.25,-120.85446,4175.0336)"
       id="g9068">
      <g
         id="g9070"
         clip-path="url(#clipPath9072)">
        <g
           id="g9076">
          <g
             id="g9078">
            <path
               d="m 40.509,3037.339 0,-3.603 7.558,0 0,-22.096 4.204,0 0,22.096 7.558,0 0,3.603 -19.32,0 z"
               style="fill:url(#linearGradient9080);stroke:none"
               id="path9092"
               inkscape:connector-curvature="0" />
          </g>
        </g>
      </g>
    </g>
    <g
       transform="matrix(1.25,0,0,-1.25,-120.85446,4175.0336)"
       id="g9094">
      <g
         id="g9096"
         clip-path="url(#clipPath9098)">
        <g
           id="g9102">
          <g
             id="g9104">
            <path
               d="m 64.54,3028.708 c -1.583,-1.815 -2.373,-4.311 -2.373,-7.486 l 0,0 c 0,-3.096 0.853,-5.524 2.555,-7.286 l 0,0 c 1.706,-1.766 4.071,-2.646 7.094,-2.646 l 0,0 c 1.325,0 2.503,0.098 3.533,0.298 l 0,0 c 1.033,0.2 2.05,0.54 3.058,1.02 l 0,0 0,3.358 c -1.135,-0.505 -2.198,-0.865 -3.19,-1.083 l 0,0 c -0.991,-0.215 -2.058,-0.325 -3.208,-0.325 l 0,0 c -1.746,0 -3.098,0.508 -4.059,1.52 l 0,0 c -0.962,1.016 -1.472,2.466 -1.53,4.351 l 0,0 12.955,0 0,2.233 c 0,2.73 -0.743,4.876 -2.233,6.433 l 0,0 c -1.488,1.558 -3.516,2.338 -6.081,2.338 l 0,0 c -2.766,0 -4.941,-0.907 -6.521,-2.725 m 3.365,-1.65 c 0.791,0.83 1.843,1.247 3.156,1.247 l 0,0 c 1.313,0 2.343,-0.412 3.093,-1.24 l 0,0 c 0.75,-0.825 1.138,-2.043 1.16,-3.648 l 0,0 -8.824,0 c 0.153,1.595 0.625,2.808 1.415,3.641"
               style="fill:url(#linearGradient19214);stroke:none"
               id="path9118"
               inkscape:connector-curvature="0" />
          </g>
        </g>
      </g>
    </g>
    <g
       transform="matrix(1.25,0,0,-1.25,-120.85446,4175.0336)"
       id="g9120">
      <g
         id="g9122"
         clip-path="url(#clipPath9124)">
        <g
           id="g9128">
          <g
             id="g9130">
            <path
               d="m 95.477,3031.083 -4.466,-6.803 -4.43,6.803 -4.711,0 6.524,-9.511 -6.839,-9.932 4.676,0 4.78,7.279 4.799,-7.279 4.675,0 -6.871,9.932 6.539,9.511 -4.676,0 z"
               style="fill:url(#linearGradient19216);stroke:none"
               id="path9144"
               inkscape:connector-curvature="0" />
          </g>
        </g>
      </g>
    </g>
    <g
       transform="matrix(1.25,0,0,-1.25,-120.85446,4175.0336)"
       id="g9146">
      <g
         id="g9148"
         clip-path="url(#clipPath9150)">
        <g
           id="g9154">
          <g
             id="g9156">
            <path
               d="m 117.186,3031.083 0,-7.806 -9.159,0 0,7.806 -4.131,0 0,-19.443 4.131,0 0,8.386 9.159,0 0,-8.386 4.13,0 0,19.443 -4.13,0 z"
               style="fill:url(#linearGradient19218);stroke:none"
               id="path9170"
               inkscape:connector-curvature="0" />
          </g>
        </g>
      </g>
    </g>
    <g
       transform="matrix(1.25,0,0,-1.25,-120.85446,4175.0336)"
       id="g9172">
      <g
         id="g9174"
         clip-path="url(#clipPath9176)">
        <g
           id="g9180">
          <g
             id="g9182">
            <path
               d="m 140.652,3031.083 -9.754,-15.082 c 0.187,2.248 0.28,3.953 0.28,5.113 l 0,0 0,9.969 -3.956,0 0,-19.443 5.046,0 9.721,15.048 c -0.047,-0.551 -0.102,-1.431 -0.167,-2.638 l 0,0 c -0.065,-1.206 -0.098,-2.078 -0.098,-2.618 l 0,0 0,-9.792 3.973,0 0,19.443 -5.045,0 z"
               style="fill:url(#linearGradient19220);stroke:none"
               id="path9196"
               inkscape:connector-curvature="0" />
          </g>
        </g>
      </g>
    </g>
    <g
       transform="matrix(1.25,0,0,-1.25,-120.85446,4175.0336)"
       id="g9198">
      <g
         id="g9200"
         clip-path="url(#clipPath9202)">
        <g
           id="g9206">
          <g
             id="g9208">
            <path
               d="m 164.295,3031.083 0,-8.351 c -1.09,-0.61 -2.11,-1.05 -3.058,-1.328 l 0,0 c -0.95,-0.275 -1.923,-0.413 -2.918,-0.413 l 0,0 c -2.062,0 -3.095,0.998 -3.095,2.988 l 0,0 0,7.104 -4.148,0 0,-7.279 c 0,-1.887 0.567,-3.355 1.705,-4.403 l 0,0 c 1.138,-1.047 2.718,-1.572 4.746,-1.572 l 0,0 c 1.255,0 2.413,0.167 3.473,0.5 l 0,0 c 1.06,0.335 2.158,0.852 3.295,1.555 l 0,0 0,-8.244 4.131,0 0,19.443 -4.131,0 z"
               style="fill:url(#linearGradient19222);stroke:none"
               id="path9222"
               inkscape:connector-curvature="0" />
          </g>
        </g>
      </g>
    </g>
    <g
       transform="matrix(1.25,0,0,-1.25,-120.85446,4175.0336)"
       id="g9224">
      <g
         id="g9226"
         clip-path="url(#clipPath9228)">
        <g
           id="g9232">
          <g
             id="g9234">
            <path
               d="m 175.544,3028.708 c -1.582,-1.815 -2.372,-4.311 -2.372,-7.486 l 0,0 c 0,-3.096 0.852,-5.524 2.557,-7.286 l 0,0 c 1.706,-1.766 4.069,-2.646 7.094,-2.646 l 0,0 c 1.323,0 2.5,0.098 3.533,0.298 l 0,0 c 1.03,0.2 2.05,0.54 3.058,1.02 l 0,0 0,3.358 c -1.138,-0.505 -2.2,-0.865 -3.19,-1.083 l 0,0 c -0.991,-0.215 -2.061,-0.325 -3.208,-0.325 l 0,0 c -1.746,0 -3.101,0.508 -4.061,1.52 l 0,0 c -0.96,1.016 -1.47,2.466 -1.53,4.351 l 0,0 12.957,0 0,2.233 c 0,2.73 -0.745,4.876 -2.233,6.433 l 0,0 c -1.488,1.558 -3.516,2.338 -6.084,2.338 l 0,0 c -2.765,0 -4.938,-0.907 -6.521,-2.725 m 3.366,-1.65 c 0.793,0.83 1.843,1.247 3.155,1.247 l 0,0 c 1.313,0 2.346,-0.412 3.096,-1.24 l 0,0 c 0.75,-0.825 1.135,-2.043 1.16,-3.648 l 0,0 -8.824,0 c 0.15,1.595 0.623,2.808 1.413,3.641"
               style="fill:url(#linearGradient19224);stroke:none"
               id="path9248"
               inkscape:connector-curvature="0" />
          </g>
        </g>
      </g>
    </g>
    <g
       transform="matrix(1.25,0,0,-1.25,-120.85446,4175.0336)"
       id="g9250">
      <g
         id="g9252"
         clip-path="url(#clipPath9254)">
        <g
           id="g9258">
          <g
             id="g9260">
            <path
               d="m 196.313,3028.798 c -1.598,-1.758 -2.398,-4.273 -2.398,-7.541 l 0,0 c 0,-3.213 0.765,-5.676 2.293,-7.394 l 0,0 c 1.53,-1.715 3.765,-2.573 6.706,-2.573 l 0,0 c 1.195,0 2.213,0.093 3.05,0.28 l 0,0 c 0.838,0.188 1.625,0.498 2.363,0.933 l 0,0 0,3.603 c -1.64,-0.915 -3.381,-1.373 -5.221,-1.373 l 0,0 c -1.615,0 -2.843,0.55 -3.68,1.645 l 0,0 c -0.838,1.096 -1.258,2.733 -1.258,4.914 l 0,0 c 0,4.463 1.683,6.696 5.046,6.696 l 0,0 c 1.135,0 2.578,-0.34 4.323,-1.02 l 0,0 1.248,3.323 c -1.641,0.762 -3.486,1.142 -5.536,1.142 l 0,0 c -3.023,0 -5.336,-0.878 -6.936,-2.635"
               style="fill:url(#linearGradient19226);stroke:none"
               id="path9274"
               inkscape:connector-curvature="0" />
          </g>
        </g>
      </g>
    </g>
    <g
       transform="matrix(1.25,0,0,-1.25,-120.85446,4175.0336)"
       id="g9276">
      <g
         id="g9278"
         clip-path="url(#clipPath9280)">
        <g
           id="g9284">
          <g
             id="g9286">
            <path
               d="m 224.957,3031.083 -7.929,-9.441 0,9.441 -4.13,0 0,-19.443 4.13,0 0,9.862 8.404,-9.862 4.746,0 -8.719,10.072 8.034,9.371 -4.536,0 z"
               style="fill:url(#linearGradient19228);stroke:none"
               id="path9300"
               inkscape:connector-curvature="0" />
          </g>
        </g>
      </g>
    </g>
    <g
       transform="matrix(1.25,0,0,-1.25,-120.85446,4175.0336)"
       id="g9302">
      <g
         id="g9304"
         clip-path="url(#clipPath9306)">
        <g
           id="g9310">
          <g
             id="g9312">
            <path
               d="m 246.805,3031.083 -9.754,-15.082 c 0.188,2.248 0.28,3.953 0.28,5.113 l 0,0 0,9.969 -3.955,0 0,-19.443 5.046,0 9.721,15.048 c -0.047,-0.551 -0.102,-1.431 -0.167,-2.638 l 0,0 c -0.065,-1.206 -0.098,-2.078 -0.098,-2.618 l 0,0 0,-9.792 3.973,0 0,19.443 -5.046,0 z"
               style="fill:url(#linearGradient19230);stroke:none"
               id="path9326"
               inkscape:connector-curvature="0" />
          </g>
        </g>
      </g>
    </g>
    <g
       transform="matrix(1.25,0,0,-1.25,-120.85446,4175.0336)"
       id="g9328">
      <g
         id="g9330"
         clip-path="url(#clipPath9332)">
        <g
           id="g9336">
          <g
             id="g9338">
            <path
               d="m 258.952,3028.708 c -1.58,-1.815 -2.373,-4.311 -2.373,-7.486 l 0,0 c 0,-3.096 0.853,-5.524 2.558,-7.286 l 0,0 c 1.706,-1.766 4.071,-2.646 7.094,-2.646 l 0,0 c 1.323,0 2.5,0.098 3.533,0.298 l 0,0 c 1.03,0.2 2.05,0.54 3.058,1.02 l 0,0 0,3.358 c -1.135,-0.505 -2.2,-0.865 -3.191,-1.083 l 0,0 c -0.99,-0.215 -2.06,-0.325 -3.208,-0.325 l 0,0 c -1.745,0 -3.098,0.508 -4.06,1.52 l 0,0 c -0.96,1.016 -1.47,2.466 -1.528,4.351 l 0,0 12.955,0 0,2.233 c 0,2.73 -0.746,4.876 -2.233,6.433 l 0,0 c -1.488,1.558 -3.516,2.338 -6.081,2.338 l 0,0 c -2.768,0 -4.941,-0.907 -6.524,-2.725 m 3.368,-1.65 c 0.79,0.83 1.843,1.247 3.156,1.247 l 0,0 c 1.31,0 2.343,-0.412 3.093,-1.24 l 0,0 c 0.75,-0.825 1.135,-2.043 1.16,-3.648 l 0,0 -8.824,0 c 0.153,1.595 0.623,2.808 1.415,3.641"
               style="fill:url(#linearGradient19232);stroke:none"
               id="path9352"
               inkscape:connector-curvature="0" />
          </g>
        </g>
      </g>
    </g>
    <g
       transform="matrix(1.25,0,0,-1.25,-120.85446,4175.0336)"
       id="g9354">
      <g
         id="g9356"
         clip-path="url(#clipPath9358)">
        <g
           id="g9362">
          <g
             id="g9364">
            <path
               d="m 287.834,3031.083 0,-19.443 9.282,0 c 2.67,0 4.708,0.495 6.108,1.485 l 0,0 c 1.4,0.99 2.1,2.406 2.1,4.246 l 0,0 c 0,1.23 -0.397,2.233 -1.195,3.005 l 0,0 c -0.797,0.773 -1.945,1.248 -3.445,1.426 l 0,0 0,0.14 c 2.683,0.48 4.025,1.868 4.025,4.165 l 0,0 c 0,3.316 -2.543,4.976 -7.628,4.976 l 0,0 -9.247,0 z m 4.131,-3.13 5.011,0 c 1.195,0 2.092,-0.173 2.698,-0.518 l 0,0 c 0.602,-0.348 0.905,-0.905 0.905,-1.68 l 0,0 c 0,-0.938 -0.358,-1.585 -1.073,-1.941 l 0,0 c -0.715,-0.357 -1.763,-0.537 -3.145,-0.537 l 0,0 -4.396,0 0,4.676 z m 0,-7.752 4.763,0 c 1.453,0 2.543,-0.197 3.271,-0.59 l 0,0 c 0.725,-0.392 1.09,-1.057 1.09,-1.995 l 0,0 c 0,-1.945 -1.418,-2.918 -4.256,-2.918 l 0,0 -4.868,0 0,5.503 z"
               style="fill:url(#linearGradient19234);stroke:none"
               id="path9378"
               inkscape:connector-curvature="0" />
          </g>
        </g>
      </g>
    </g>
    <g
       transform="matrix(1.25,0,0,-1.25,-120.85446,4175.0336)"
       id="g9380">
      <g
         id="g9382"
         clip-path="url(#clipPath9384)">
        <g
           id="g9388">
          <g
             id="g9390">
            <path
               d="m 310.843,3028.78 c -1.615,-1.77 -2.426,-4.23 -2.426,-7.383 l 0,0 c 0,-2.028 0.375,-3.808 1.126,-5.344 l 0,0 c 0.75,-1.535 1.822,-2.713 3.218,-3.533 l 0,0 c 1.392,-0.82 2.998,-1.23 4.815,-1.23 l 0,0 c 2.906,0 5.174,0.89 6.804,2.67 l 0,0 c 1.628,1.783 2.443,4.261 2.443,7.437 l 0,0 c 0,3.07 -0.82,5.51 -2.461,7.321 l 0,0 c -1.642,1.81 -3.868,2.715 -6.681,2.715 l 0,0 c -2.94,0 -5.22,-0.885 -6.838,-2.653 m 1.83,-7.383 c 0,2.145 0.388,3.79 1.168,4.938 l 0,0 c 0.78,1.15 2.035,1.723 3.77,1.723 l 0,0 c 3.306,0 4.959,-2.221 4.959,-6.661 l 0,0 c 0,-4.489 -1.643,-6.734 -4.924,-6.734 l 0,0 c -3.315,0 -4.973,2.245 -4.973,6.734"
               style="fill:url(#linearGradient19236);stroke:none"
               id="path9404"
               inkscape:connector-curvature="0" />
          </g>
        </g>
      </g>
    </g>
    <g
       transform="matrix(1.25,0,0,-1.25,-120.85446,4175.0336)"
       id="g9406">
      <g
         id="g9408"
         clip-path="url(#clipPath9410)">
        <g
           id="g9414">
          <g
             id="g9416">
            <path
               d="m 331.568,3031.083 0,-19.443 4.131,0 0,16.173 8.719,0 0,-16.173 4.148,0 0,19.443 -16.998,0 z"
               style="fill:url(#linearGradient19238);stroke:none"
               id="path9430"
               inkscape:connector-curvature="0" />
          </g>
        </g>
      </g>
    </g>
    <g
       transform="matrix(1.25,0,0,-1.25,-120.85446,4175.0336)"
       id="g9432">
      <g
         id="g9434"
         clip-path="url(#clipPath9436)">
        <g
           id="g9440">
          <g
             id="g9442">
            <path
               d="m 358.603,3028.48 -0.21,0 c -0.293,1.37 -0.486,2.238 -0.581,2.603 l 0,0 -3.34,0 0,-28.092 4.131,0 0,7.964 c 0,0.353 -0.08,1.348 -0.245,2.988 l 0,0 0.245,0 c 1.36,-1.77 3.27,-2.653 5.73,-2.653 l 0,0 c 2.426,0 4.329,0.89 5.704,2.67 l 0,0 c 1.378,1.783 2.068,4.261 2.068,7.437 l 0,0 c 0,3.175 -0.678,5.643 -2.031,7.401 l 0,0 c -1.355,1.757 -3.245,2.635 -5.671,2.635 l 0,0 c -2.577,0 -4.51,-0.985 -5.8,-2.953 m 1.125,-12.224 c -0.75,1.06 -1.125,2.773 -1.125,5.141 l 0,0 0,0.615 c 0,2.11 0.38,3.645 1.135,4.605 l 0,0 c 0.755,0.961 1.953,1.441 3.593,1.441 l 0,0 c 1.49,0 2.618,-0.558 3.385,-1.678 l 0,0 c 0.768,-1.12 1.151,-2.768 1.151,-4.948 l 0,0 c 0,-2.168 -0.386,-3.838 -1.161,-5.011 l 0,0 c -0.772,-1.17 -1.875,-1.758 -3.303,-1.758 l 0,0 c -1.7,0 -2.925,0.53 -3.675,1.593"
               style="fill:url(#linearGradient9444);stroke:none"
               id="path9456"
               inkscape:connector-curvature="0" />
          </g>
        </g>
      </g>
    </g>
    <g
       transform="matrix(1.25,0,0,-1.25,-120.85446,4175.0336)"
       id="g9458">
      <g
         id="g9460"
         clip-path="url(#clipPath9462)">
        <g
           id="g9466">
          <g
             id="g9468">
            <path
               d="m 378.168,3028.78 c -1.618,-1.77 -2.425,-4.23 -2.425,-7.383 l 0,0 c 0,-2.028 0.375,-3.808 1.125,-5.344 l 0,0 c 0.75,-1.535 1.823,-2.713 3.215,-3.533 l 0,0 c 1.396,-0.82 3.001,-1.23 4.816,-1.23 l 0,0 c 2.908,0 5.176,0.89 6.804,2.67 l 0,0 c 1.63,1.783 2.443,4.261 2.443,7.437 l 0,0 c 0,3.07 -0.821,5.51 -2.461,7.321 l 0,0 c -1.64,1.81 -3.865,2.715 -6.678,2.715 l 0,0 c -2.943,0 -5.221,-0.885 -6.839,-2.653 m 1.828,-7.383 c 0,2.145 0.39,3.79 1.17,4.938 l 0,0 c 0.778,1.15 2.035,1.723 3.771,1.723 l 0,0 c 3.303,0 4.955,-2.221 4.955,-6.661 l 0,0 c 0,-4.489 -1.64,-6.734 -4.92,-6.734 l 0,0 c -3.318,0 -4.976,2.245 -4.976,6.734"
               style="fill:url(#linearGradient19240);stroke:none"
               id="path9482"
               inkscape:connector-curvature="0" />
          </g>
        </g>
      </g>
    </g>
    <g
       transform="matrix(1.25,0,0,-1.25,-120.85446,4175.0336)"
       id="g9484">
      <g
         id="g9486"
         clip-path="url(#clipPath9488)">
        <g
           id="g9492">
          <g
             id="g9494">
            <path
               d="m 400.131,3028.798 c -1.6,-1.758 -2.397,-4.273 -2.397,-7.541 l 0,0 c 0,-3.213 0.762,-5.676 2.292,-7.394 l 0,0 c 1.531,-1.715 3.766,-2.573 6.706,-2.573 l 0,0 c 1.196,0 2.213,0.093 3.051,0.28 l 0,0 c 0.838,0.188 1.625,0.498 2.363,0.933 l 0,0 0,3.603 c -1.64,-0.915 -3.381,-1.373 -5.221,-1.373 l 0,0 c -1.615,0 -2.843,0.55 -3.683,1.645 l 0,0 c -0.838,1.096 -1.255,2.733 -1.255,4.914 l 0,0 c 0,4.463 1.68,6.696 5.043,6.696 l 0,0 c 1.138,0 2.58,-0.34 4.326,-1.02 l 0,0 1.247,3.323 c -1.64,0.762 -3.485,1.142 -5.535,1.142 l 0,0 c -3.026,0 -5.336,-0.878 -6.937,-2.635"
               style="fill:url(#linearGradient19242);stroke:none"
               id="path9508"
               inkscape:connector-curvature="0" />
          </g>
        </g>
      </g>
    </g>
    <g
       transform="matrix(1.25,0,0,-1.25,-120.85446,4175.0336)"
       id="g9510">
      <g
         id="g9512"
         clip-path="url(#clipPath9514)">
        <g
           id="g9518">
          <g
             id="g9520">
            <path
               d="m 435.824,3011.64 4.148,0 0,19.443 -4.148,0 0,-19.443 z m -19.107,19.443 0,-19.443 8.068,0 c 2.613,0 4.596,0.508 5.951,1.52 l 0,0 c 1.353,1.016 2.03,2.523 2.03,4.528 l 0,0 c 0,1.873 -0.65,3.281 -1.952,4.219 l 0,0 c -1.301,0.937 -3.311,1.405 -6.029,1.405 l 0,0 -3.938,0 0,7.771 -4.13,0 z m 4.13,-10.882 3.638,0 c 1.348,0 2.383,-0.192 3.103,-0.58 l 0,0 c 0.723,-0.387 1.083,-1.067 1.083,-2.04 l 0,0 c 0,-0.983 -0.37,-1.71 -1.108,-2.178 l 0,0 c -0.74,-0.47 -1.94,-0.705 -3.603,-0.705 l 0,0 -3.113,0 0,5.503 z"
               style="fill:url(#linearGradient19244);stroke:none"
               id="path9534"
               inkscape:connector-curvature="0" />
          </g>
        </g>
      </g>
    </g>
  </g>
</svg>
