<?xml version="1.0" encoding="UTF-8" standalone="no"?>
<!-- Created with Inkscape (http://www.inkscape.org/) -->

<svg
   xmlns:dc="http://purl.org/dc/elements/1.1/"
   xmlns:cc="http://creativecommons.org/ns#"
   xmlns:rdf="http://www.w3.org/1999/02/22-rdf-syntax-ns#"
   xmlns:svg="http://www.w3.org/2000/svg"
   xmlns="http://www.w3.org/2000/svg"
   xmlns:xlink="http://www.w3.org/1999/xlink"
   xmlns:sodipodi="http://sodipodi.sourceforge.net/DTD/sodipodi-0.dtd"
   xmlns:inkscape="http://www.inkscape.org/namespaces/inkscape"
   width="293.86353mm"
   height="19.012959mm"
   viewBox="0 0 1041.2487 67.36875"
   id="svg15443"
   version="1.1"
   inkscape:version="0.91 r13725"
   sodipodi:docname="title__desktop.svg">
  <defs
     id="defs15445">
    <clipPath
       clipPathUnits="userSpaceOnUse"
       id="clipPath11292">
      <path
         d="m 1500.441,1160.5 c 0,-6.228 5.051,-11.279 11.279,-11.279 l 0,0 c 6.23,0 11.279,5.051 11.279,11.279 l 0,0 c 0,6.228 -5.049,11.279 -11.279,11.279 l 0,0 c -6.228,0 -11.279,-5.051 -11.279,-11.279"
         id="path11294"
         inkscape:connector-curvature="0" />
    </clipPath>
    <linearGradient
       x1="0"
       y1="0"
       x2="1"
       y2="0"
       gradientUnits="userSpaceOnUse"
       gradientTransform="matrix(-833,0,0,833,1523,1160.5)"
       spreadMethod="pad"
       id="linearGradient11300">
      <stop
         style="stop-opacity:1;stop-color:#47c0b8"
         offset="0"
         id="stop11302" />
      <stop
         style="stop-opacity:1;stop-color:#47c0b8"
         offset="0.0393917"
         id="stop11304" />
      <stop
         style="stop-opacity:1;stop-color:#47d2b1"
         offset="0.348613"
         id="stop11306" />
      <stop
         style="stop-opacity:1;stop-color:#47d2b1"
         offset="0.4222168"
         id="stop11308" />
      <stop
         style="stop-opacity:1;stop-color:#12b56a"
         offset="1"
         id="stop11310" />
    </linearGradient>
    <clipPath
       clipPathUnits="userSpaceOnUse"
       id="clipPath11268">
      <path
         d="m 0,6075 1920,0 L 1920,0 0,0 0,6075 Z"
         id="path11270"
         inkscape:connector-curvature="0" />
    </clipPath>
    <linearGradient
       x1="0"
       y1="0"
       x2="1"
       y2="0"
       gradientUnits="userSpaceOnUse"
       gradientTransform="matrix(-833,0,0,-833,833,6075)"
       spreadMethod="pad"
       id="linearGradient11274">
      <stop
         style="stop-opacity:1;stop-color:#47c0b8"
         offset="0"
         id="stop11276" />
      <stop
         style="stop-opacity:1;stop-color:#47c0b8"
         offset="0.0393917"
         id="stop11278" />
      <stop
         style="stop-opacity:1;stop-color:#47d2b1"
         offset="0.348613"
         id="stop11280" />
      <stop
         style="stop-opacity:1;stop-color:#47d2b1"
         offset="0.4222168"
         id="stop11282" />
      <stop
         style="stop-opacity:1;stop-color:#12b56a"
         offset="1"
         id="stop11284" />
    </linearGradient>
    <clipPath
       clipPathUnits="userSpaceOnUse"
       id="clipPath9524">
      <path
         d="m 1019.853,1181.7 3.458,0 0,16.202 -3.458,0 0,-16.202 z m -15.923,16.202 0,-16.202 6.724,0 c 2.178,0 3.831,0.422 4.958,1.268 l 0,0 c 1.13,0.844 1.692,2.101 1.692,3.771 l 0,0 c 0,1.563 -0.541,2.735 -1.625,3.516 l 0,0 c -1.084,0.782 -2.76,1.172 -5.025,1.172 l 0,0 -3.281,0 0,6.475 -3.443,0 z m 3.443,-9.068 3.032,0 c 1.124,0 1.985,-0.161 2.586,-0.484 l 0,0 c 0.599,-0.321 0.901,-0.889 0.901,-1.698 l 0,0 c 0,-0.82 -0.308,-1.427 -0.924,-1.818 l 0,0 c -0.614,-0.39 -1.616,-0.585 -3.002,-0.585 l 0,0 -2.593,0 0,4.585 z"
         id="path9526"
         inkscape:connector-curvature="0" />
    </clipPath>
    <linearGradient
       x1="0"
       y1="0"
       x2="1"
       y2="0"
       gradientUnits="userSpaceOnUse"
       gradientTransform="matrix(-337.00455,0,0,337.00455,1025.75,1189.8008)"
       spreadMethod="pad"
       id="linearGradient9532">
      <stop
         style="stop-opacity:1;stop-color:#47c0b8"
         offset="0"
         id="stop9534" />
      <stop
         style="stop-opacity:1;stop-color:#47c0b8"
         offset="0.0393917"
         id="stop9536" />
      <stop
         style="stop-opacity:1;stop-color:#47d2b1"
         offset="0.348613"
         id="stop9538" />
      <stop
         style="stop-opacity:1;stop-color:#47d2b1"
         offset="0.4222168"
         id="stop9540" />
      <stop
         style="stop-opacity:1;stop-color:#12b56a"
         offset="1"
         id="stop9542" />
    </linearGradient>
    <clipPath
       clipPathUnits="userSpaceOnUse"
       id="clipPath9498">
      <path
         d="m 990.111,1195.996 c -1.334,-1.463 -2,-3.558 -2,-6.283 l 0,0 c 0,-2.675 0.635,-4.729 1.912,-6.159 l 0,0 c 1.273,-1.432 3.136,-2.147 5.587,-2.147 l 0,0 c 0.996,0 1.844,0.078 2.542,0.235 l 0,0 c 0.698,0.155 1.355,0.415 1.97,0.776 l 0,0 0,3.004 c -1.368,-0.763 -2.818,-1.144 -4.35,-1.144 l 0,0 c -1.348,0 -2.372,0.456 -3.069,1.369 l 0,0 c -0.698,0.913 -1.048,2.279 -1.048,4.095 l 0,0 c 0,3.72 1.402,5.582 4.204,5.582 l 0,0 c 0.948,0 2.148,-0.284 3.604,-0.851 l 0,0 1.04,2.769 c -1.368,0.634 -2.906,0.953 -4.614,0.953 l 0,0 c -2.52,0 -4.447,-0.734 -5.778,-2.199"
         id="path9500"
         inkscape:connector-curvature="0" />
    </clipPath>
    <clipPath
       clipPathUnits="userSpaceOnUse"
       id="clipPath9472">
      <path
         d="m 971.806,1195.983 c -1.347,-1.475 -2.021,-3.525 -2.021,-6.152 l 0,0 c 0,-1.691 0.312,-3.175 0.937,-4.454 l 0,0 c 0.625,-1.279 1.519,-2.261 2.681,-2.944 l 0,0 c 1.163,-0.684 2.5,-1.026 4.014,-1.026 l 0,0 c 2.421,0 4.312,0.743 5.669,2.226 l 0,0 c 1.358,1.485 2.036,3.551 2.036,6.198 l 0,0 c 0,2.558 -0.684,4.592 -2.05,6.1 l 0,0 c -1.368,1.509 -3.223,2.264 -5.567,2.264 l 0,0 c -2.451,0 -4.351,-0.738 -5.699,-2.212 m 1.523,-6.152 c 0,1.787 0.325,3.159 0.976,4.115 l 0,0 c 0.648,0.957 1.696,1.436 3.141,1.436 l 0,0 c 2.753,0 4.132,-1.851 4.132,-5.551 l 0,0 c 0,-3.742 -1.368,-5.611 -4.103,-5.611 l 0,0 c -2.763,0 -4.146,1.869 -4.146,5.611"
         id="path9474"
         inkscape:connector-curvature="0" />
    </clipPath>
    <clipPath
       clipPathUnits="userSpaceOnUse"
       id="clipPath9446">
      <path
         d="m 955.504,1195.734 -0.177,0 c -0.244,1.142 -0.406,1.865 -0.484,2.168 l 0,0 -2.782,0 0,-23.409 3.443,0 0,6.635 c 0,0.294 -0.069,1.124 -0.206,2.491 l 0,0 0.206,0 c 1.132,-1.474 2.724,-2.212 4.775,-2.212 l 0,0 c 2.021,0 3.605,0.743 4.752,2.226 l 0,0 c 1.148,1.485 1.721,3.551 1.721,6.198 l 0,0 c 0,2.645 -0.562,4.702 -1.692,6.165 l 0,0 c -1.127,1.465 -2.702,2.199 -4.723,2.199 l 0,0 c -2.149,0 -3.76,-0.82 -4.833,-2.461 m 0.936,-10.187 c -0.624,0.882 -0.936,2.311 -0.936,4.284 l 0,0 0,0.512 c 0,1.758 0.314,3.037 0.943,3.837 l 0,0 c 0.631,0.801 1.629,1.202 2.996,1.202 l 0,0 c 1.241,0 2.18,-0.467 2.821,-1.398 l 0,0 c 0.639,-0.935 0.959,-2.308 0.959,-4.124 l 0,0 c 0,-1.807 -0.322,-3.199 -0.967,-4.175 l 0,0 c -0.645,-0.977 -1.563,-1.465 -2.753,-1.465 l 0,0 c -1.417,0 -2.438,0.441 -3.063,1.327"
         id="path9448"
         inkscape:connector-curvature="0" />
    </clipPath>
    <linearGradient
       x1="0"
       y1="0"
       x2="1"
       y2="0"
       gradientUnits="userSpaceOnUse"
       gradientTransform="matrix(-337.00455,0,0,337.00455,1025.75,1186.3438)"
       spreadMethod="pad"
       id="linearGradient9454">
      <stop
         style="stop-opacity:1;stop-color:#47c0b8"
         offset="0"
         id="stop9456" />
      <stop
         style="stop-opacity:1;stop-color:#47c0b8"
         offset="0.0393917"
         id="stop9458" />
      <stop
         style="stop-opacity:1;stop-color:#47d2b1"
         offset="0.348613"
         id="stop9460" />
      <stop
         style="stop-opacity:1;stop-color:#47d2b1"
         offset="0.4222168"
         id="stop9462" />
      <stop
         style="stop-opacity:1;stop-color:#12b56a"
         offset="1"
         id="stop9464" />
    </linearGradient>
    <clipPath
       clipPathUnits="userSpaceOnUse"
       id="clipPath9420">
      <path
         d="m 932.974,1197.902 0,-16.202 3.441,0 0,13.476 7.267,0 0,-13.476 3.456,0 0,16.202 -14.164,0 z"
         id="path9422"
         inkscape:connector-curvature="0" />
    </clipPath>
    <clipPath
       clipPathUnits="userSpaceOnUse"
       id="clipPath9394">
      <path
         d="m 915.703,1195.983 c -1.348,-1.475 -2.021,-3.525 -2.021,-6.152 l 0,0 c 0,-1.691 0.312,-3.175 0.937,-4.454 l 0,0 c 0.625,-1.279 1.519,-2.261 2.68,-2.944 l 0,0 c 1.162,-0.684 2.501,-1.026 4.015,-1.026 l 0,0 c 2.421,0 4.311,0.743 5.668,2.226 l 0,0 c 1.357,1.485 2.036,3.551 2.036,6.198 l 0,0 c 0,2.558 -0.683,4.592 -2.051,6.1 l 0,0 c -1.366,1.509 -3.221,2.264 -5.566,2.264 l 0,0 c -2.45,0 -4.35,-0.738 -5.698,-2.212 m 1.523,-6.152 c 0,1.787 0.325,3.159 0.975,4.115 l 0,0 c 0.649,0.957 1.696,1.436 3.142,1.436 l 0,0 c 2.753,0 4.13,-1.851 4.13,-5.551 l 0,0 c 0,-3.742 -1.366,-5.611 -4.101,-5.611 l 0,0 c -2.764,0 -4.146,1.869 -4.146,5.611"
         id="path9396"
         inkscape:connector-curvature="0" />
    </clipPath>
    <clipPath
       clipPathUnits="userSpaceOnUse"
       id="clipPath9368">
      <path
         d="m 896.528,1197.902 0,-16.202 7.734,0 c 2.228,0 3.923,0.412 5.091,1.238 l 0,0 c 1.166,0.825 1.75,2.005 1.75,3.537 l 0,0 c 0,1.026 -0.332,1.862 -0.995,2.505 l 0,0 c -0.665,0.645 -1.622,1.04 -2.871,1.188 l 0,0 0,0.115 c 2.235,0.401 3.354,1.559 3.354,3.472 l 0,0 c 0,2.764 -2.119,4.147 -6.358,4.147 l 0,0 -7.705,0 z m 3.443,-2.609 4.174,0 c 0.997,0 1.746,-0.143 2.249,-0.431 l 0,0 c 0.503,-0.288 0.755,-0.755 0.755,-1.4 l 0,0 c 0,-0.78 -0.298,-1.32 -0.894,-1.617 l 0,0 c -0.596,-0.299 -1.47,-0.447 -2.622,-0.447 l 0,0 -3.662,0 0,3.895 z m 0,-6.459 3.97,0 c 1.21,0 2.119,-0.164 2.724,-0.491 l 0,0 c 0.606,-0.328 0.909,-0.882 0.909,-1.662 l 0,0 c 0,-1.621 -1.183,-2.432 -3.546,-2.432 l 0,0 -4.057,0 0,4.585 z"
         id="path9370"
         inkscape:connector-curvature="0" />
    </clipPath>
    <clipPath
       clipPathUnits="userSpaceOnUse"
       id="clipPath9342">
      <path
         d="m 872.46,1195.923 c -1.317,-1.512 -1.977,-3.593 -1.977,-6.24 l 0,0 c 0,-2.578 0.712,-4.602 2.131,-6.071 l 0,0 c 1.423,-1.47 3.393,-2.205 5.911,-2.205 l 0,0 c 1.104,0 2.086,0.083 2.944,0.249 l 0,0 c 0.86,0.166 1.709,0.449 2.549,0.85 l 0,0 0,2.798 c -0.946,-0.421 -1.834,-0.721 -2.657,-0.901 l 0,0 c -0.826,-0.181 -1.718,-0.271 -2.674,-0.271 l 0,0 c -1.456,0 -2.583,0.422 -3.385,1.267 l 0,0 c -0.8,0.844 -1.226,2.053 -1.274,3.625 l 0,0 10.795,0 0,1.86 c 0,2.277 -0.619,4.063 -1.86,5.362 l 0,0 c -1.239,1.299 -2.928,1.949 -5.067,1.949 l 0,0 c -2.306,0 -4.117,-0.758 -5.436,-2.272 m 2.807,-1.377 c 0.657,0.694 1.535,1.04 2.629,1.04 l 0,0 c 1.093,0 1.953,-0.343 2.578,-1.032 l 0,0 c 0.625,-0.688 0.947,-1.701 0.966,-3.04 l 0,0 -7.353,0 c 0.127,1.329 0.52,2.34 1.18,3.032"
         id="path9344"
         inkscape:connector-curvature="0" />
    </clipPath>
    <clipPath
       clipPathUnits="userSpaceOnUse"
       id="clipPath9316">
      <path
         d="m 862.338,1197.902 -8.129,-12.569 c 0.156,1.875 0.235,3.296 0.235,4.263 l 0,0 0,8.306 -3.296,0 0,-16.202 4.203,0 8.102,12.54 c -0.04,-0.461 -0.087,-1.192 -0.139,-2.199 l 0,0 c -0.055,-1.004 -0.082,-1.733 -0.082,-2.181 l 0,0 0,-8.16 3.311,0 0,16.202 -4.205,0 z"
         id="path9318"
         inkscape:connector-curvature="0" />
    </clipPath>
    <clipPath
       clipPathUnits="userSpaceOnUse"
       id="clipPath9290">
      <path
         d="m 844.131,1197.902 -6.606,-7.867 0,7.867 -3.443,0 0,-16.202 3.443,0 0,8.218 7.001,-8.218 3.955,0 -7.265,8.394 6.695,7.808 -3.78,0 z"
         id="path9292"
         inkscape:connector-curvature="0" />
    </clipPath>
    <clipPath
       clipPathUnits="userSpaceOnUse"
       id="clipPath9264">
      <path
         d="m 820.262,1195.996 c -1.334,-1.463 -2.001,-3.558 -2.001,-6.283 l 0,0 c 0,-2.675 0.638,-4.729 1.912,-6.159 l 0,0 c 1.275,-1.432 3.138,-2.147 5.588,-2.147 l 0,0 c 0.997,0 1.843,0.078 2.542,0.235 l 0,0 c 0.698,0.155 1.355,0.415 1.971,0.776 l 0,0 0,3.004 c -1.368,-0.763 -2.818,-1.144 -4.351,-1.144 l 0,0 c -1.348,0 -2.371,0.456 -3.069,1.369 l 0,0 c -0.699,0.913 -1.048,2.279 -1.048,4.095 l 0,0 c 0,3.72 1.401,5.582 4.205,5.582 l 0,0 c 0.947,0 2.148,-0.284 3.603,-0.851 l 0,0 1.04,2.769 c -1.367,0.634 -2.905,0.953 -4.614,0.953 l 0,0 c -2.52,0 -4.446,-0.734 -5.778,-2.199"
         id="path9266"
         inkscape:connector-curvature="0" />
    </clipPath>
    <clipPath
       clipPathUnits="userSpaceOnUse"
       id="clipPath9238">
      <path
         d="m 802.954,1195.923 c -1.319,-1.512 -1.977,-3.593 -1.977,-6.24 l 0,0 c 0,-2.578 0.71,-4.602 2.13,-6.071 l 0,0 c 1.422,-1.47 3.392,-2.205 5.912,-2.205 l 0,0 c 1.102,0 2.084,0.083 2.944,0.249 l 0,0 c 0.859,0.166 1.709,0.449 2.549,0.85 l 0,0 0,2.798 c -0.948,-0.421 -1.834,-0.721 -2.659,-0.901 l 0,0 c -0.826,-0.181 -1.716,-0.271 -2.674,-0.271 l 0,0 c -1.454,0 -2.583,0.422 -3.383,1.267 l 0,0 c -0.8,0.844 -1.226,2.053 -1.275,3.625 l 0,0 10.796,0 0,1.86 c 0,2.277 -0.62,4.063 -1.86,5.362 l 0,0 c -1.241,1.299 -2.93,1.949 -5.069,1.949 l 0,0 c -2.304,0 -4.115,-0.758 -5.434,-2.272 m 2.805,-1.377 c 0.659,0.694 1.536,1.04 2.629,1.04 l 0,0 c 1.095,0 1.955,-0.343 2.578,-1.032 l 0,0 c 0.625,-0.688 0.948,-1.701 0.968,-3.04 l 0,0 -7.355,0 c 0.129,1.329 0.52,2.34 1.18,3.032"
         id="path9240"
         inkscape:connector-curvature="0" />
    </clipPath>
    <clipPath
       clipPathUnits="userSpaceOnUse"
       id="clipPath9212">
      <path
         d="m 793.579,1197.902 0,-6.958 c -0.908,-0.508 -1.758,-0.877 -2.549,-1.107 l 0,0 c -0.791,-0.229 -1.601,-0.343 -2.432,-0.343 l 0,0 c -1.718,0 -2.578,0.829 -2.578,2.489 l 0,0 0,5.919 -3.456,0 0,-6.065 c 0,-1.572 0.472,-2.796 1.421,-3.67 l 0,0 c 0.947,-0.875 2.265,-1.311 3.955,-1.311 l 0,0 c 1.044,0 2.008,0.139 2.892,0.418 l 0,0 c 0.884,0.277 1.8,0.71 2.747,1.296 l 0,0 0,-6.87 3.443,0 0,16.202 -3.443,0 z"
         id="path9214"
         inkscape:connector-curvature="0" />
    </clipPath>
    <clipPath
       clipPathUnits="userSpaceOnUse"
       id="clipPath9186">
      <path
         d="m 773.877,1197.902 -8.13,-12.569 c 0.156,1.875 0.235,3.296 0.235,4.263 l 0,0 0,8.306 -3.296,0 0,-16.202 4.203,0 8.101,12.54 c -0.039,-0.461 -0.086,-1.192 -0.139,-2.199 l 0,0 c -0.054,-1.004 -0.081,-1.733 -0.081,-2.181 l 0,0 0,-8.16 3.311,0 0,16.202 -4.204,0 z"
         id="path9188"
         inkscape:connector-curvature="0" />
    </clipPath>
    <clipPath
       clipPathUnits="userSpaceOnUse"
       id="clipPath9160">
      <path
         d="m 754.322,1197.902 0,-6.504 -7.633,0 0,6.504 -3.442,0 0,-16.202 3.442,0 0,6.987 7.633,0 0,-6.987 3.442,0 0,16.202 -3.442,0 z"
         id="path9162"
         inkscape:connector-curvature="0" />
    </clipPath>
    <clipPath
       clipPathUnits="userSpaceOnUse"
       id="clipPath9134">
      <path
         d="m 736.231,1197.902 -3.721,-5.67 -3.692,5.67 -3.926,0 5.435,-7.925 -5.699,-8.277 3.897,0 3.985,6.065 4,-6.065 3.895,0 -5.727,8.277 5.449,7.925 -3.896,0 z"
         id="path9136"
         inkscape:connector-curvature="0" />
    </clipPath>
    <clipPath
       clipPathUnits="userSpaceOnUse"
       id="clipPath9108">
      <path
         d="m 710.449,1195.923 c -1.319,-1.512 -1.977,-3.593 -1.977,-6.24 l 0,0 c 0,-2.578 0.71,-4.602 2.131,-6.071 l 0,0 c 1.421,-1.47 3.391,-2.205 5.911,-2.205 l 0,0 c 1.104,0 2.084,0.083 2.944,0.249 l 0,0 c 0.86,0.166 1.709,0.449 2.549,0.85 l 0,0 0,2.798 c -0.948,-0.421 -1.834,-0.721 -2.659,-0.901 l 0,0 c -0.826,-0.181 -1.716,-0.271 -2.674,-0.271 l 0,0 c -1.454,0 -2.583,0.422 -3.383,1.267 l 0,0 c -0.8,0.844 -1.226,2.053 -1.275,3.625 l 0,0 10.796,0 0,1.86 c 0,2.277 -0.62,4.063 -1.86,5.362 l 0,0 c -1.241,1.299 -2.93,1.949 -5.068,1.949 l 0,0 c -2.305,0 -4.116,-0.758 -5.435,-2.272 m 2.805,-1.377 c 0.659,0.694 1.536,1.04 2.63,1.04 l 0,0 c 1.094,0 1.953,-0.343 2.579,-1.032 l 0,0 c 0.625,-0.688 0.946,-1.701 0.966,-3.04 l 0,0 -7.353,0 c 0.126,1.329 0.518,2.34 1.178,3.032"
         id="path9110"
         inkscape:connector-curvature="0" />
    </clipPath>
    <linearGradient
       x1="0"
       y1="0"
       x2="1"
       y2="0"
       gradientUnits="userSpaceOnUse"
       gradientTransform="matrix(-337.00412,0,0,337.00412,1025.7496,1189.8008)"
       spreadMethod="pad"
       id="linearGradient9116">
      <stop
         style="stop-opacity:1;stop-color:#47c0b8"
         offset="0"
         id="stop9118" />
      <stop
         style="stop-opacity:1;stop-color:#47c0b8"
         offset="0.0393917"
         id="stop9120" />
      <stop
         style="stop-opacity:1;stop-color:#47d2b1"
         offset="0.348613"
         id="stop9122" />
      <stop
         style="stop-opacity:1;stop-color:#47d2b1"
         offset="0.4222168"
         id="stop9124" />
      <stop
         style="stop-opacity:1;stop-color:#12b56a"
         offset="1"
         id="stop9126" />
    </linearGradient>
    <clipPath
       clipPathUnits="userSpaceOnUse"
       id="clipPath9082">
      <path
         d="m 690.425,1203.116 0,-3.003 6.298,0 0,-18.413 3.502,0 0,18.413 6.298,0 0,3.003 -16.098,0 z"
         id="path9084"
         inkscape:connector-curvature="0" />
    </clipPath>
    <linearGradient
       x1="0"
       y1="0"
       x2="1"
       y2="0"
       gradientUnits="userSpaceOnUse"
       gradientTransform="matrix(-337.00455,0,0,337.00455,1025.75,1192.4082)"
       spreadMethod="pad"
       id="linearGradient9090">
      <stop
         style="stop-opacity:1;stop-color:#47c0b8"
         offset="0"
         id="stop9092" />
      <stop
         style="stop-opacity:1;stop-color:#47c0b8"
         offset="0.0393917"
         id="stop9094" />
      <stop
         style="stop-opacity:1;stop-color:#47d2b1"
         offset="0.348613"
         id="stop9096" />
      <stop
         style="stop-opacity:1;stop-color:#47d2b1"
         offset="0.4222168"
         id="stop9098" />
      <stop
         style="stop-opacity:1;stop-color:#12b56a"
         offset="1"
         id="stop9100" />
    </linearGradient>
    <linearGradient
       inkscape:collect="always"
       xlink:href="#linearGradient9532"
       id="linearGradient15889"
       gradientUnits="userSpaceOnUse"
       gradientTransform="matrix(-337.00455,0,0,337.00455,1025.75,1189.8008)"
       spreadMethod="pad"
       x1="0"
       y1="0"
       x2="1"
       y2="0" />
    <linearGradient
       inkscape:collect="always"
       xlink:href="#linearGradient9532"
       id="linearGradient15891"
       gradientUnits="userSpaceOnUse"
       gradientTransform="matrix(-337.00455,0,0,337.00455,1025.75,1189.8008)"
       spreadMethod="pad"
       x1="0"
       y1="0"
       x2="1"
       y2="0" />
    <linearGradient
       inkscape:collect="always"
       xlink:href="#linearGradient9532"
       id="linearGradient15893"
       gradientUnits="userSpaceOnUse"
       gradientTransform="matrix(-337.00455,0,0,337.00455,1025.75,1189.8008)"
       spreadMethod="pad"
       x1="0"
       y1="0"
       x2="1"
       y2="0" />
    <linearGradient
       inkscape:collect="always"
       xlink:href="#linearGradient9532"
       id="linearGradient15895"
       gradientUnits="userSpaceOnUse"
       gradientTransform="matrix(-337.00455,0,0,337.00455,1025.75,1189.8008)"
       spreadMethod="pad"
       x1="0"
       y1="0"
       x2="1"
       y2="0" />
    <linearGradient
       inkscape:collect="always"
       xlink:href="#linearGradient9532"
       id="linearGradient15897"
       gradientUnits="userSpaceOnUse"
       gradientTransform="matrix(-337.00455,0,0,337.00455,1025.75,1189.8008)"
       spreadMethod="pad"
       x1="0"
       y1="0"
       x2="1"
       y2="0" />
    <linearGradient
       inkscape:collect="always"
       xlink:href="#linearGradient9532"
       id="linearGradient15899"
       gradientUnits="userSpaceOnUse"
       gradientTransform="matrix(-337.00455,0,0,337.00455,1025.75,1189.8008)"
       spreadMethod="pad"
       x1="0"
       y1="0"
       x2="1"
       y2="0" />
    <linearGradient
       inkscape:collect="always"
       xlink:href="#linearGradient9532"
       id="linearGradient15901"
       gradientUnits="userSpaceOnUse"
       gradientTransform="matrix(-337.00455,0,0,337.00455,1025.75,1189.8008)"
       spreadMethod="pad"
       x1="0"
       y1="0"
       x2="1"
       y2="0" />
    <linearGradient
       inkscape:collect="always"
       xlink:href="#linearGradient9532"
       id="linearGradient15903"
       gradientUnits="userSpaceOnUse"
       gradientTransform="matrix(-337.00455,0,0,337.00455,1025.75,1189.8008)"
       spreadMethod="pad"
       x1="0"
       y1="0"
       x2="1"
       y2="0" />
    <linearGradient
       inkscape:collect="always"
       xlink:href="#linearGradient9532"
       id="linearGradient15905"
       gradientUnits="userSpaceOnUse"
       gradientTransform="matrix(-337.00455,0,0,337.00455,1025.75,1189.8008)"
       spreadMethod="pad"
       x1="0"
       y1="0"
       x2="1"
       y2="0" />
    <linearGradient
       inkscape:collect="always"
       xlink:href="#linearGradient9532"
       id="linearGradient15907"
       gradientUnits="userSpaceOnUse"
       gradientTransform="matrix(-337.00455,0,0,337.00455,1025.75,1189.8008)"
       spreadMethod="pad"
       x1="0"
       y1="0"
       x2="1"
       y2="0" />
    <linearGradient
       inkscape:collect="always"
       xlink:href="#linearGradient9532"
       id="linearGradient15909"
       gradientUnits="userSpaceOnUse"
       gradientTransform="matrix(-337.00455,0,0,337.00455,1025.75,1189.8008)"
       spreadMethod="pad"
       x1="0"
       y1="0"
       x2="1"
       y2="0" />
    <linearGradient
       inkscape:collect="always"
       xlink:href="#linearGradient9532"
       id="linearGradient15911"
       gradientUnits="userSpaceOnUse"
       gradientTransform="matrix(-337.00455,0,0,337.00455,1025.75,1189.8008)"
       spreadMethod="pad"
       x1="0"
       y1="0"
       x2="1"
       y2="0" />
    <linearGradient
       inkscape:collect="always"
       xlink:href="#linearGradient9532"
       id="linearGradient15913"
       gradientUnits="userSpaceOnUse"
       gradientTransform="matrix(-337.00455,0,0,337.00455,1025.75,1189.8008)"
       spreadMethod="pad"
       x1="0"
       y1="0"
       x2="1"
       y2="0" />
    <linearGradient
       inkscape:collect="always"
       xlink:href="#linearGradient9532"
       id="linearGradient15915"
       gradientUnits="userSpaceOnUse"
       gradientTransform="matrix(-337.00455,0,0,337.00455,1025.75,1189.8008)"
       spreadMethod="pad"
       x1="0"
       y1="0"
       x2="1"
       y2="0" />
    <linearGradient
       inkscape:collect="always"
       xlink:href="#linearGradient9532"
       id="linearGradient15917"
       gradientUnits="userSpaceOnUse"
       gradientTransform="matrix(-337.00455,0,0,337.00455,1025.75,1189.8008)"
       spreadMethod="pad"
       x1="0"
       y1="0"
       x2="1"
       y2="0" />
  </defs>
  <sodipodi:namedview
     id="base"
     pagecolor="#ffffff"
     bordercolor="#666666"
     borderopacity="1.0"
     inkscape:pageopacity="0.0"
     inkscape:pageshadow="2"
     inkscape:zoom="0.35"
     inkscape:cx="178.48149"
     inkscape:cy="13.684345"
     inkscape:document-units="px"
     inkscape:current-layer="layer1"
     showgrid="false"
     fit-margin-top="0"
     fit-margin-left="0"
     fit-margin-right="0"
     fit-margin-bottom="0"
     inkscape:window-width="1366"
     inkscape:window-height="718"
     inkscape:window-x="0"
     inkscape:window-y="24"
     inkscape:window-maximized="1" />
  <metadata
     id="metadata15448">
    <rdf:RDF>
      <cc:Work
         rdf:about="">
        <dc:format>image/svg+xml</dc:format>
        <dc:type
           rdf:resource="http://purl.org/dc/dcmitype/StillImage" />
        <dc:title></dc:title>
      </cc:Work>
    </rdf:RDF>
  </metadata>
  <g
     inkscape:label="Layer 1"
     inkscape:groupmode="layer"
     id="layer1"
     transform="translate(237.7672,-478.6778)">
    <g
       transform="matrix(1.25,0,0,-1.25,-1100.2672,1982.5728)"
       id="g9078">
      <g
         id="g9080"
         clip-path="url(#clipPath9082)">
        <g
           id="g9086">
          <g
             id="g9088">
            <path
               d="m 690.425,1203.116 0,-3.003 6.298,0 0,-18.413 3.502,0 0,18.413 6.298,0 0,3.003 -16.098,0 z"
               style="fill:url(#linearGradient9090);stroke:none"
               id="path9102"
               inkscape:connector-curvature="0" />
          </g>
        </g>
      </g>
    </g>
    <g
       transform="matrix(1.25,0,0,-1.25,-1100.2672,1982.5728)"
       id="g9104">
      <g
         id="g9106"
         clip-path="url(#clipPath9108)">
        <g
           id="g9112">
          <g
             id="g9114">
            <path
               d="m 710.449,1195.923 c -1.319,-1.512 -1.977,-3.593 -1.977,-6.24 l 0,0 c 0,-2.578 0.71,-4.602 2.131,-6.071 l 0,0 c 1.421,-1.47 3.391,-2.205 5.911,-2.205 l 0,0 c 1.104,0 2.084,0.083 2.944,0.249 l 0,0 c 0.86,0.166 1.709,0.449 2.549,0.85 l 0,0 0,2.798 c -0.948,-0.421 -1.834,-0.721 -2.659,-0.901 l 0,0 c -0.826,-0.181 -1.716,-0.271 -2.674,-0.271 l 0,0 c -1.454,0 -2.583,0.422 -3.383,1.267 l 0,0 c -0.8,0.844 -1.226,2.053 -1.275,3.625 l 0,0 10.796,0 0,1.86 c 0,2.277 -0.62,4.063 -1.86,5.362 l 0,0 c -1.241,1.299 -2.93,1.949 -5.068,1.949 l 0,0 c -2.305,0 -4.116,-0.758 -5.435,-2.272 m 2.805,-1.377 c 0.659,0.694 1.536,1.04 2.63,1.04 l 0,0 c 1.094,0 1.953,-0.343 2.579,-1.032 l 0,0 c 0.625,-0.688 0.946,-1.701 0.966,-3.04 l 0,0 -7.353,0 c 0.126,1.329 0.518,2.34 1.178,3.032"
               style="fill:url(#linearGradient9116);stroke:none"
               id="path9128"
               inkscape:connector-curvature="0" />
          </g>
        </g>
      </g>
    </g>
    <g
       transform="matrix(1.25,0,0,-1.25,-1100.2672,1982.5728)"
       id="g9130">
      <g
         id="g9132"
         clip-path="url(#clipPath9134)">
        <g
           id="g9138">
          <g
             id="g9140">
            <path
               d="m 736.231,1197.902 -3.721,-5.67 -3.692,5.67 -3.926,0 5.435,-7.925 -5.699,-8.277 3.897,0 3.985,6.065 4,-6.065 3.895,0 -5.727,8.277 5.449,7.925 -3.896,0 z"
               style="fill:url(#linearGradient15889);stroke:none"
               id="path9154"
               inkscape:connector-curvature="0" />
          </g>
        </g>
      </g>
    </g>
    <g
       transform="matrix(1.25,0,0,-1.25,-1100.2672,1982.5728)"
       id="g9156">
      <g
         id="g9158"
         clip-path="url(#clipPath9160)">
        <g
           id="g9164">
          <g
             id="g9166">
            <path
               d="m 754.322,1197.902 0,-6.504 -7.633,0 0,6.504 -3.442,0 0,-16.202 3.442,0 0,6.987 7.633,0 0,-6.987 3.442,0 0,16.202 -3.442,0 z"
               style="fill:url(#linearGradient15891);stroke:none"
               id="path9180"
               inkscape:connector-curvature="0" />
          </g>
        </g>
      </g>
    </g>
    <g
       transform="matrix(1.25,0,0,-1.25,-1100.2672,1982.5728)"
       id="g9182">
      <g
         id="g9184"
         clip-path="url(#clipPath9186)">
        <g
           id="g9190">
          <g
             id="g9192">
            <path
               d="m 773.877,1197.902 -8.13,-12.569 c 0.156,1.875 0.235,3.296 0.235,4.263 l 0,0 0,8.306 -3.296,0 0,-16.202 4.203,0 8.101,12.54 c -0.039,-0.461 -0.086,-1.192 -0.139,-2.199 l 0,0 c -0.054,-1.004 -0.081,-1.733 -0.081,-2.181 l 0,0 0,-8.16 3.311,0 0,16.202 -4.204,0 z"
               style="fill:url(#linearGradient15893);stroke:none"
               id="path9206"
               inkscape:connector-curvature="0" />
          </g>
        </g>
      </g>
    </g>
    <g
       transform="matrix(1.25,0,0,-1.25,-1100.2672,1982.5728)"
       id="g9208">
      <g
         id="g9210"
         clip-path="url(#clipPath9212)">
        <g
           id="g9216">
          <g
             id="g9218">
            <path
               d="m 793.579,1197.902 0,-6.958 c -0.908,-0.508 -1.758,-0.877 -2.549,-1.107 l 0,0 c -0.791,-0.229 -1.601,-0.343 -2.432,-0.343 l 0,0 c -1.718,0 -2.578,0.829 -2.578,2.489 l 0,0 0,5.919 -3.456,0 0,-6.065 c 0,-1.572 0.472,-2.796 1.421,-3.67 l 0,0 c 0.947,-0.875 2.265,-1.311 3.955,-1.311 l 0,0 c 1.044,0 2.008,0.139 2.892,0.418 l 0,0 c 0.884,0.277 1.8,0.71 2.747,1.296 l 0,0 0,-6.87 3.443,0 0,16.202 -3.443,0 z"
               style="fill:url(#linearGradient15895);stroke:none"
               id="path9232"
               inkscape:connector-curvature="0" />
          </g>
        </g>
      </g>
    </g>
    <g
       transform="matrix(1.25,0,0,-1.25,-1100.2672,1982.5728)"
       id="g9234">
      <g
         id="g9236"
         clip-path="url(#clipPath9238)">
        <g
           id="g9242">
          <g
             id="g9244">
            <path
               d="m 802.954,1195.923 c -1.319,-1.512 -1.977,-3.593 -1.977,-6.24 l 0,0 c 0,-2.578 0.71,-4.602 2.13,-6.071 l 0,0 c 1.422,-1.47 3.392,-2.205 5.912,-2.205 l 0,0 c 1.102,0 2.084,0.083 2.944,0.249 l 0,0 c 0.859,0.166 1.709,0.449 2.549,0.85 l 0,0 0,2.798 c -0.948,-0.421 -1.834,-0.721 -2.659,-0.901 l 0,0 c -0.826,-0.181 -1.716,-0.271 -2.674,-0.271 l 0,0 c -1.454,0 -2.583,0.422 -3.383,1.267 l 0,0 c -0.8,0.844 -1.226,2.053 -1.275,3.625 l 0,0 10.796,0 0,1.86 c 0,2.277 -0.62,4.063 -1.86,5.362 l 0,0 c -1.241,1.299 -2.93,1.949 -5.069,1.949 l 0,0 c -2.304,0 -4.115,-0.758 -5.434,-2.272 m 2.805,-1.377 c 0.659,0.694 1.536,1.04 2.629,1.04 l 0,0 c 1.095,0 1.955,-0.343 2.578,-1.032 l 0,0 c 0.625,-0.688 0.948,-1.701 0.968,-3.04 l 0,0 -7.355,0 c 0.129,1.329 0.52,2.34 1.18,3.032"
               style="fill:url(#linearGradient15897);stroke:none"
               id="path9258"
               inkscape:connector-curvature="0" />
          </g>
        </g>
      </g>
    </g>
    <g
       transform="matrix(1.25,0,0,-1.25,-1100.2672,1982.5728)"
       id="g9260">
      <g
         id="g9262"
         clip-path="url(#clipPath9264)">
        <g
           id="g9268">
          <g
             id="g9270">
            <path
               d="m 820.262,1195.996 c -1.334,-1.463 -2.001,-3.558 -2.001,-6.283 l 0,0 c 0,-2.675 0.638,-4.729 1.912,-6.159 l 0,0 c 1.275,-1.432 3.138,-2.147 5.588,-2.147 l 0,0 c 0.997,0 1.843,0.078 2.542,0.235 l 0,0 c 0.698,0.155 1.355,0.415 1.971,0.776 l 0,0 0,3.004 c -1.368,-0.763 -2.818,-1.144 -4.351,-1.144 l 0,0 c -1.348,0 -2.371,0.456 -3.069,1.369 l 0,0 c -0.699,0.913 -1.048,2.279 -1.048,4.095 l 0,0 c 0,3.72 1.401,5.582 4.205,5.582 l 0,0 c 0.947,0 2.148,-0.284 3.603,-0.851 l 0,0 1.04,2.769 c -1.367,0.634 -2.905,0.953 -4.614,0.953 l 0,0 c -2.52,0 -4.446,-0.734 -5.778,-2.199"
               style="fill:url(#linearGradient15899);stroke:none"
               id="path9284"
               inkscape:connector-curvature="0" />
          </g>
        </g>
      </g>
    </g>
    <g
       transform="matrix(1.25,0,0,-1.25,-1100.2672,1982.5728)"
       id="g9286">
      <g
         id="g9288"
         clip-path="url(#clipPath9290)">
        <g
           id="g9294">
          <g
             id="g9296">
            <path
               d="m 844.131,1197.902 -6.606,-7.867 0,7.867 -3.443,0 0,-16.202 3.443,0 0,8.218 7.001,-8.218 3.955,0 -7.265,8.394 6.695,7.808 -3.78,0 z"
               style="fill:url(#linearGradient15901);stroke:none"
               id="path9310"
               inkscape:connector-curvature="0" />
          </g>
        </g>
      </g>
    </g>
    <g
       transform="matrix(1.25,0,0,-1.25,-1100.2672,1982.5728)"
       id="g9312">
      <g
         id="g9314"
         clip-path="url(#clipPath9316)">
        <g
           id="g9320">
          <g
             id="g9322">
            <path
               d="m 862.338,1197.902 -8.129,-12.569 c 0.156,1.875 0.235,3.296 0.235,4.263 l 0,0 0,8.306 -3.296,0 0,-16.202 4.203,0 8.102,12.54 c -0.04,-0.461 -0.087,-1.192 -0.139,-2.199 l 0,0 c -0.055,-1.004 -0.082,-1.733 -0.082,-2.181 l 0,0 0,-8.16 3.311,0 0,16.202 -4.205,0 z"
               style="fill:url(#linearGradient15903);stroke:none"
               id="path9336"
               inkscape:connector-curvature="0" />
          </g>
        </g>
      </g>
    </g>
    <g
       transform="matrix(1.25,0,0,-1.25,-1100.2672,1982.5728)"
       id="g9338">
      <g
         id="g9340"
         clip-path="url(#clipPath9342)">
        <g
           id="g9346">
          <g
             id="g9348">
            <path
               d="m 872.46,1195.923 c -1.317,-1.512 -1.977,-3.593 -1.977,-6.24 l 0,0 c 0,-2.578 0.712,-4.602 2.131,-6.071 l 0,0 c 1.423,-1.47 3.393,-2.205 5.911,-2.205 l 0,0 c 1.104,0 2.086,0.083 2.944,0.249 l 0,0 c 0.86,0.166 1.709,0.449 2.549,0.85 l 0,0 0,2.798 c -0.946,-0.421 -1.834,-0.721 -2.657,-0.901 l 0,0 c -0.826,-0.181 -1.718,-0.271 -2.674,-0.271 l 0,0 c -1.456,0 -2.583,0.422 -3.385,1.267 l 0,0 c -0.8,0.844 -1.226,2.053 -1.274,3.625 l 0,0 10.795,0 0,1.86 c 0,2.277 -0.619,4.063 -1.86,5.362 l 0,0 c -1.239,1.299 -2.928,1.949 -5.067,1.949 l 0,0 c -2.306,0 -4.117,-0.758 -5.436,-2.272 m 2.807,-1.377 c 0.657,0.694 1.535,1.04 2.629,1.04 l 0,0 c 1.093,0 1.953,-0.343 2.578,-1.032 l 0,0 c 0.625,-0.688 0.947,-1.701 0.966,-3.04 l 0,0 -7.353,0 c 0.127,1.329 0.52,2.34 1.18,3.032"
               style="fill:url(#linearGradient15905);stroke:none"
               id="path9362"
               inkscape:connector-curvature="0" />
          </g>
        </g>
      </g>
    </g>
    <g
       transform="matrix(1.25,0,0,-1.25,-1100.2672,1982.5728)"
       id="g9364">
      <g
         id="g9366"
         clip-path="url(#clipPath9368)">
        <g
           id="g9372">
          <g
             id="g9374">
            <path
               d="m 896.528,1197.902 0,-16.202 7.734,0 c 2.228,0 3.923,0.412 5.091,1.238 l 0,0 c 1.166,0.825 1.75,2.005 1.75,3.537 l 0,0 c 0,1.026 -0.332,1.862 -0.995,2.505 l 0,0 c -0.665,0.645 -1.622,1.04 -2.871,1.188 l 0,0 0,0.115 c 2.235,0.401 3.354,1.559 3.354,3.472 l 0,0 c 0,2.764 -2.119,4.147 -6.358,4.147 l 0,0 -7.705,0 z m 3.443,-2.609 4.174,0 c 0.997,0 1.746,-0.143 2.249,-0.431 l 0,0 c 0.503,-0.288 0.755,-0.755 0.755,-1.4 l 0,0 c 0,-0.78 -0.298,-1.32 -0.894,-1.617 l 0,0 c -0.596,-0.299 -1.47,-0.447 -2.622,-0.447 l 0,0 -3.662,0 0,3.895 z m 0,-6.459 3.97,0 c 1.21,0 2.119,-0.164 2.724,-0.491 l 0,0 c 0.606,-0.328 0.909,-0.882 0.909,-1.662 l 0,0 c 0,-1.621 -1.183,-2.432 -3.546,-2.432 l 0,0 -4.057,0 0,4.585 z"
               style="fill:url(#linearGradient15907);stroke:none"
               id="path9388"
               inkscape:connector-curvature="0" />
          </g>
        </g>
      </g>
    </g>
    <g
       transform="matrix(1.25,0,0,-1.25,-1100.2672,1982.5728)"
       id="g9390">
      <g
         id="g9392"
         clip-path="url(#clipPath9394)">
        <g
           id="g9398">
          <g
             id="g9400">
            <path
               d="m 915.703,1195.983 c -1.348,-1.475 -2.021,-3.525 -2.021,-6.152 l 0,0 c 0,-1.691 0.312,-3.175 0.937,-4.454 l 0,0 c 0.625,-1.279 1.519,-2.261 2.68,-2.944 l 0,0 c 1.162,-0.684 2.501,-1.026 4.015,-1.026 l 0,0 c 2.421,0 4.311,0.743 5.668,2.226 l 0,0 c 1.357,1.485 2.036,3.551 2.036,6.198 l 0,0 c 0,2.558 -0.683,4.592 -2.051,6.1 l 0,0 c -1.366,1.509 -3.221,2.264 -5.566,2.264 l 0,0 c -2.45,0 -4.35,-0.738 -5.698,-2.212 m 1.523,-6.152 c 0,1.787 0.325,3.159 0.975,4.115 l 0,0 c 0.649,0.957 1.696,1.436 3.142,1.436 l 0,0 c 2.753,0 4.13,-1.851 4.13,-5.551 l 0,0 c 0,-3.742 -1.366,-5.611 -4.101,-5.611 l 0,0 c -2.764,0 -4.146,1.869 -4.146,5.611"
               style="fill:url(#linearGradient15909);stroke:none"
               id="path9414"
               inkscape:connector-curvature="0" />
          </g>
        </g>
      </g>
    </g>
    <g
       transform="matrix(1.25,0,0,-1.25,-1100.2672,1982.5728)"
       id="g9416">
      <g
         id="g9418"
         clip-path="url(#clipPath9420)">
        <g
           id="g9424">
          <g
             id="g9426">
            <path
               d="m 932.974,1197.902 0,-16.202 3.441,0 0,13.476 7.267,0 0,-13.476 3.456,0 0,16.202 -14.164,0 z"
               style="fill:url(#linearGradient15911);stroke:none"
               id="path9440"
               inkscape:connector-curvature="0" />
          </g>
        </g>
      </g>
    </g>
    <g
       transform="matrix(1.25,0,0,-1.25,-1100.2672,1982.5728)"
       id="g9442">
      <g
         id="g9444"
         clip-path="url(#clipPath9446)">
        <g
           id="g9450">
          <g
             id="g9452">
            <path
               d="m 955.504,1195.734 -0.177,0 c -0.244,1.142 -0.406,1.865 -0.484,2.168 l 0,0 -2.782,0 0,-23.409 3.443,0 0,6.635 c 0,0.294 -0.069,1.124 -0.206,2.491 l 0,0 0.206,0 c 1.132,-1.474 2.724,-2.212 4.775,-2.212 l 0,0 c 2.021,0 3.605,0.743 4.752,2.226 l 0,0 c 1.148,1.485 1.721,3.551 1.721,6.198 l 0,0 c 0,2.645 -0.562,4.702 -1.692,6.165 l 0,0 c -1.127,1.465 -2.702,2.199 -4.723,2.199 l 0,0 c -2.149,0 -3.76,-0.82 -4.833,-2.461 m 0.936,-10.187 c -0.624,0.882 -0.936,2.311 -0.936,4.284 l 0,0 0,0.512 c 0,1.758 0.314,3.037 0.943,3.837 l 0,0 c 0.631,0.801 1.629,1.202 2.996,1.202 l 0,0 c 1.241,0 2.18,-0.467 2.821,-1.398 l 0,0 c 0.639,-0.935 0.959,-2.308 0.959,-4.124 l 0,0 c 0,-1.807 -0.322,-3.199 -0.967,-4.175 l 0,0 c -0.645,-0.977 -1.563,-1.465 -2.753,-1.465 l 0,0 c -1.417,0 -2.438,0.441 -3.063,1.327"
               style="fill:url(#linearGradient9454);stroke:none"
               id="path9466"
               inkscape:connector-curvature="0" />
          </g>
        </g>
      </g>
    </g>
    <g
       transform="matrix(1.25,0,0,-1.25,-1100.2672,1982.5728)"
       id="g9468">
      <g
         id="g9470"
         clip-path="url(#clipPath9472)">
        <g
           id="g9476">
          <g
             id="g9478">
            <path
               d="m 971.806,1195.983 c -1.347,-1.475 -2.021,-3.525 -2.021,-6.152 l 0,0 c 0,-1.691 0.312,-3.175 0.937,-4.454 l 0,0 c 0.625,-1.279 1.519,-2.261 2.681,-2.944 l 0,0 c 1.163,-0.684 2.5,-1.026 4.014,-1.026 l 0,0 c 2.421,0 4.312,0.743 5.669,2.226 l 0,0 c 1.358,1.485 2.036,3.551 2.036,6.198 l 0,0 c 0,2.558 -0.684,4.592 -2.05,6.1 l 0,0 c -1.368,1.509 -3.223,2.264 -5.567,2.264 l 0,0 c -2.451,0 -4.351,-0.738 -5.699,-2.212 m 1.523,-6.152 c 0,1.787 0.325,3.159 0.976,4.115 l 0,0 c 0.648,0.957 1.696,1.436 3.141,1.436 l 0,0 c 2.753,0 4.132,-1.851 4.132,-5.551 l 0,0 c 0,-3.742 -1.368,-5.611 -4.103,-5.611 l 0,0 c -2.763,0 -4.146,1.869 -4.146,5.611"
               style="fill:url(#linearGradient15913);stroke:none"
               id="path9492"
               inkscape:connector-curvature="0" />
          </g>
        </g>
      </g>
    </g>
    <g
       transform="matrix(1.25,0,0,-1.25,-1100.2672,1982.5728)"
       id="g9494">
      <g
         id="g9496"
         clip-path="url(#clipPath9498)">
        <g
           id="g9502">
          <g
             id="g9504">
            <path
               d="m 990.111,1195.996 c -1.334,-1.463 -2,-3.558 -2,-6.283 l 0,0 c 0,-2.675 0.635,-4.729 1.912,-6.159 l 0,0 c 1.273,-1.432 3.136,-2.147 5.587,-2.147 l 0,0 c 0.996,0 1.844,0.078 2.542,0.235 l 0,0 c 0.698,0.155 1.355,0.415 1.97,0.776 l 0,0 0,3.004 c -1.368,-0.763 -2.818,-1.144 -4.35,-1.144 l 0,0 c -1.348,0 -2.372,0.456 -3.069,1.369 l 0,0 c -0.698,0.913 -1.048,2.279 -1.048,4.095 l 0,0 c 0,3.72 1.402,5.582 4.204,5.582 l 0,0 c 0.948,0 2.148,-0.284 3.604,-0.851 l 0,0 1.04,2.769 c -1.368,0.634 -2.906,0.953 -4.614,0.953 l 0,0 c -2.52,0 -4.447,-0.734 -5.778,-2.199"
               style="fill:url(#linearGradient15915);stroke:none"
               id="path9518"
               inkscape:connector-curvature="0" />
          </g>
        </g>
      </g>
    </g>
    <g
       transform="matrix(1.25,0,0,-1.25,-1100.2672,1982.5728)"
       id="g9520">
      <g
         id="g9522"
         clip-path="url(#clipPath9524)">
        <g
           id="g9528">
          <g
             id="g9530">
            <path
               d="m 1019.853,1181.7 3.458,0 0,16.202 -3.458,0 0,-16.202 z m -15.923,16.202 0,-16.202 6.724,0 c 2.178,0 3.831,0.422 4.958,1.268 l 0,0 c 1.13,0.844 1.692,2.101 1.692,3.771 l 0,0 c 0,1.563 -0.541,2.735 -1.625,3.516 l 0,0 c -1.084,0.782 -2.76,1.172 -5.025,1.172 l 0,0 -3.281,0 0,6.475 -3.443,0 z m 3.443,-9.068 3.032,0 c 1.124,0 1.985,-0.161 2.586,-0.484 l 0,0 c 0.599,-0.321 0.901,-0.889 0.901,-1.698 l 0,0 c 0,-0.82 -0.308,-1.427 -0.924,-1.818 l 0,0 c -0.614,-0.39 -1.616,-0.585 -3.002,-0.585 l 0,0 -2.593,0 0,4.585 z"
               style="fill:url(#linearGradient15917);stroke:none"
               id="path9544"
               inkscape:connector-curvature="0" />
          </g>
        </g>
      </g>
    </g>
    <g
       transform="matrix(1.25,0,0,-1.25,-1100.2672,1982.5728)"
       id="g11264">
      <g
         id="g11266"
         clip-path="url(#clipPath11268)">
        <g
           id="g11272"
           transform="translate(690,1160.5)">
          <path
             d="M 0,0 822.284,0"
             style="fill:none;stroke:url(#linearGradient11274);stroke-width:3;stroke-linecap:butt;stroke-linejoin:miter;stroke-miterlimit:10;stroke-dasharray:none;stroke-opacity:1"
             id="path11286"
             inkscape:connector-curvature="0" />
        </g>
      </g>
    </g>
    <g
       transform="matrix(1.25,0,0,-1.25,-1100.2672,1982.5728)"
       id="g11288">
      <g
         id="g11290"
         clip-path="url(#clipPath11292)">
        <g
           id="g11296">
          <g
             id="g11298">
            <path
               d="m 1500.441,1160.5 c 0,-6.228 5.051,-11.279 11.279,-11.279 l 0,0 c 6.23,0 11.279,5.051 11.279,11.279 l 0,0 c 0,6.228 -5.049,11.279 -11.279,11.279 l 0,0 c -6.228,0 -11.279,-5.051 -11.279,-11.279"
               style="fill:url(#linearGradient11300);stroke:none"
               id="path11312"
               inkscape:connector-curvature="0" />
          </g>
        </g>
      </g>
    </g>
  </g>
</svg>
