<?xml version="1.0" encoding="utf-8"?>
<!-- Generator: Adobe Illustrator 16.0.0, SVG Export Plug-In . SVG Version: 6.00 Build 0)  -->
<!DOCTYPE svg PUBLIC "-//W3C//DTD SVG 1.1//EN" "http://www.w3.org/Graphics/SVG/1.1/DTD/svg11.dtd">
<svg version="1.1" id="Layer_1" xmlns="http://www.w3.org/2000/svg" xmlns:xlink="http://www.w3.org/1999/xlink" x="0px" y="0px"
	 width="52.717px" height="49.391px" viewBox="0 0 52.717 49.391" enable-background="new 0 0 52.717 49.391" xml:space="preserve">
<g>
	<g>
		<path fill="#F37935" d="M20.722,19.074C18.133,9.194-5.844,27.16,1.336,37.843c5.243,7.801,16.238-0.246,21.709-3.049
			c2.636-1.35,6.363-3.33,9.018-1.08c2.928,2.484,1.383,6.213-0.709,8.518c-2.369,2.609-7.149,3.789-9.047,6.588
			c-0.571,0.844,1.622,0.658,2.027,0.059c0.539-0.795,2.408-1.471,3.213-1.971c1.718-1.068,3.334-2.273,4.851-3.613
			c2.769-2.443,4.359-5.541,2.681-9.055c-2.97-6.217-12.046-0.863-15.876,1.201c-4.294,2.314-9.055,5.881-13.923,3.254
			c-3.646-1.967-3.396-6.172-2.124-9.498c1.286-3.367,13.21-17.873,15.393-9.541C18.752,20.434,20.926,19.854,20.722,19.074
			L20.722,19.074z"/>
	</g>
	<g>
		<path fill="#F37935" d="M24.561,3.344c0.813,0,2.313-1.236,0.844-1.236C24.591,2.107,23.091,3.344,24.561,3.344L24.561,3.344z"/>
	</g>
	<g>
		<path fill="#F37935" d="M32.55,0.829c-4.043-1.786-8.003-0.659-10.336,3.12c-2.323,3.766,1.005,8.571,3.483,11.163
			c3.563,3.724,8.246,6.394,12.648,8.979c4,2.346,9.162,4.442,12.234,8.036c0.633,0.742,2.7-0.121,1.99-0.951
			c-3.864-4.521-10.472-7.044-15.465-10.066c-3.34-2.021-6.601-4.229-9.416-6.948c-1.103-1.063-2.015-2.28-2.808-3.585
			c-2.207-3.631-1.201-11.662,6.408-8.3C32.186,2.672,33.813,1.387,32.55,0.829L32.55,0.829z"/>
	</g>
	<g>
		<path fill="#F37935" d="M29.112,23.867c2.534-2.669,4.685-5.823,6.895-8.761c0.614-0.815-1.587-0.673-2.033-0.08
			c-2.122,2.821-4.184,5.872-6.617,8.437C26.463,24.403,28.589,24.42,29.112,23.867L29.112,23.867z"/>
	</g>
</g>
</svg>
