<?xml version="1.0" encoding="utf-8"?>
<!-- Generator: Adobe Illustrator 16.0.0, SVG Export Plug-In . SVG Version: 6.00 Build 0)  -->
<!DOCTYPE svg PUBLIC "-//W3C//DTD SVG 1.1//EN" "http://www.w3.org/Graphics/SVG/1.1/DTD/svg11.dtd">
<svg version="1.1" id="Layer_1" xmlns="http://www.w3.org/2000/svg" xmlns:xlink="http://www.w3.org/1999/xlink" x="0px" y="0px"
	 width="82.663px" height="70.231px" viewBox="0 0 82.663 70.231" enable-background="new 0 0 82.663 70.231" xml:space="preserve">
<g>
	<g>
		<path fill="#F37935" d="M41.271,9.02c8.341,0.351,8.735,9.523,10.367,15.811c0.717,2.758,1.814,5.342,3.701,7.496
			c1.202,1.373,2.269,0.98,0.362,2.35c-2.051,1.472-4.089,2.907-6.305,4.121c-0.282,0.154-0.54,0.496-0.321,0.8
			c0.384,0.533,2.634,3.221,2.16,3.854c-1.988,2.655-4.603,3.993-8.017,4.162c-0.412,0.021-1.836,0.731-0.995,1.194
			c3.636,2,7.024,4.732,10.031,7.588c0.282-0.342,0.565-0.685,0.848-1.027c-1.877,0.432-3.404,1.67-5.279,2.1
			c-0.364,0.084-1.232,0.537-0.848,1.027c8.867,11.293-9.414,12.551-16.333,8.112c-0.643-0.413-2.637,0.508-1.717,1.098
			c7.869,5.049,30.292,2.944,20.062-10.085c-0.282,0.342-0.565,0.685-0.848,1.027c1.877-0.432,3.404-1.67,5.279-2.1
			c0.292-0.067,1.311-0.587,0.848-1.027c-3.074-2.92-6.604-5.764-10.326-7.811c-0.332,0.398-0.663,0.797-0.995,1.194
			c5.06-0.251,7.975-2.222,10.952-6.198c0.092-0.123,0.127-0.373-0.012-0.483c-1.954-1.563-2.984-2.692-0.598-4.178
			c2.028-1.263,3.912-2.763,5.876-4.122c0.331-0.229,0.614-0.629,0.174-0.91c-9.394-6.001-3.376-24.721-17.243-25.303
			C41.221,7.672,39.798,8.958,41.271,9.02L41.271,9.02z"/>
	</g>
	<g>
		<path fill="#F37935" d="M55.171,48.967c9.819-3.09,17.443-10.221,26.878-14.1c1.384-0.569,0.15-1.662-0.943-1.213
			c-9.235,3.797-16.721,10.877-26.313,13.895C53.483,47.961,53.845,49.384,55.171,48.967L55.171,48.967z"/>
	</g>
	<g>
		<path fill="#F37935" d="M60.565,51.464c4.841,0.001,9.715-0.044,14.512,0.688c0.486,0.073,2.317-0.71,1.801-0.789
			c-4.92-0.749-9.919-0.71-14.883-0.711C61.585,50.652,59.536,51.464,60.565,51.464L60.565,51.464z"/>
	</g>
	<g>
		<path fill="#F37935" d="M59.04,56.577c6.099,3.298,12.925,5.507,18.041,10.354c0.7,0.664,2.754-0.228,1.992-0.949
			c-5.253-4.975-12.095-7.259-18.354-10.643C59.902,54.896,57.985,56.006,59.04,56.577L59.04,56.577z"/>
	</g>
	<g>
		<path fill="#F37935" d="M37.158,33.379c0.646-2.287,1.756-4.347,3.002-6.357c1.224-1.974,2.21-3.897,3.911-5.424
			c0.503-0.45-1.572-0.234-1.977,0.129c-0.639,0.572-1.294,1.058-1.806,1.755c-0.555,0.753-0.788,1.714-1.344,2.499
			c-1.674,2.367-3.145,4.962-3.936,7.762C34.865,34.256,36.996,33.955,37.158,33.379L37.158,33.379z"/>
	</g>
	<g>
		<path fill="#F37935" d="M39.885,28.051c0.049,1.436,0.651,2.772,0.7,4.199c0.4-0.286,0.802-0.572,1.202-0.859
			c-0.233,0-0.467,0-0.7,0c-0.411,0-1.202,0.354-1.202,0.859c0,0.038,0,0.076,0,0.113c0,1.114,2.197,0.761,2.197-0.18
			c0-0.542,0-1.084,0-1.626c0-1.114-2.197-0.761-2.197,0.18c0,0.038,0,0.075,0,0.113c0,0.565,0.528,0.679,0.995,0.68
			c0.474,0.001,0.72-0.049,0.468,0.519c0.379-0.219,0.759-0.438,1.139-0.658c-0.233,0-0.466,0-0.699,0
			c0.332,0.227,0.664,0.453,0.995,0.68c0.01-0.56,0.019-1.068,0.339-1.538c0.26-0.382,0.349-0.805,0.36-1.262
			c-0.732,0.06-1.465,0.12-2.197,0.18c-0.002,0.784,0.04,1.782-0.505,2.408c0.664,0.004,1.327,0.007,1.991,0.011
			c-0.182-0.542-0.379-1.077-0.64-1.586c-0.457-0.896-2.19-0.362-2.246,0.567c-0.024,0.396,0.338,0.67,0.716,0.677
			c0.195,0.004,0.436-0.017,0.63,0.025c-0.403-0.088-0.038-0.608-0.278-0.208c-0.172,0.287-0.335,0.563-0.367,0.905
			c-0.104,1.094,2.108,0.77,2.197-0.18c0.038-0.404,0.464-0.672,0.454-1.108c-0.022-0.907-1.203-0.956-1.87-0.968
			c0.238,0.226,0.478,0.451,0.716,0.677c-0.004-0.046,0.003-0.089,0.02-0.131c-0.208,0.234-0.416,0.47-0.624,0.704
			c0.008-0.004,0.015-0.008,0.022-0.012c-0.438,0-0.877,0-1.315-0.001c-0.144-0.091-0.092-0.098-0.041,0.011
			c0.077,0.168,0.142,0.342,0.207,0.515c0.087,0.229,0.168,0.462,0.246,0.694c0.271,0.806,1.572,0.492,1.991,0.011
			c0.779-0.896,0.893-2.05,0.894-3.191c0.002-1.111-2.173-0.765-2.197,0.18c-0.012,0.447-0.106,0.655-0.339,1.019
			c-0.327,0.515-0.351,1.195-0.36,1.781c-0.01,0.564,0.536,0.68,0.995,0.68c0.233,0,0.466,0,0.699,0
			c0.406,0,0.967-0.271,1.139-0.658c0.812-1.831-0.844-2.277-2.331-2.28c0.332,0.227,0.663,0.453,0.995,0.68
			c0-0.038,0-0.075,0-0.113c0-1.114-2.197-0.761-2.197,0.18c0,0.542,0,1.084,0,1.626c0,1.114,2.197,0.761,2.197-0.18
			c0-0.038,0-0.076,0-0.113c-0.4,0.286-0.801,0.572-1.202,0.859c0.233,0,0.467,0,0.7,0c0.397,0,1.22-0.356,1.202-0.859
			c-0.049-1.436-0.651-2.772-0.7-4.199C42.045,26.755,39.853,27.118,39.885,28.051L39.885,28.051z"/>
	</g>
	<g>
		<path fill="#F37935" d="M42.02,7.51c2.723-14.67-22.139-3.824-27.363-0.982C7.172,10.597,2.817,16.774,0.735,25.144
			c-3.116,12.531,4.203,24.794,11.905,34.021c0.435,0.521,2.515-0.231,2.027-0.814C8.361,50.793,3.208,42.355,2.322,32.37
			c-0.751-8.457,3.16-18.194,10.135-23.153c4.731-3.363,30.017-15.503,27.398-1.397C39.718,8.561,41.896,8.18,42.02,7.51L42.02,7.51
			z"/>
	</g>
	<g>
		<path fill="#F37935" d="M27.303,40.624c-1.294-1.29-3.234-3.454-5.301-3.243c-1.614,0.165-2.353,1.329-2.442,2.854
			c-0.228,3.876,1.644,9.032,4.043,12.053c0.583,0.733,2.659-0.1,1.996-0.934c-1.868-2.353-2.866-5.563-3.511-8.453
			c-0.266-1.191-0.613-2.752-0.151-3.939c0.128-0.33,0.119-0.058-0.244-0.068c0.337,0.01,0.683,0.256,0.96,0.418
			c0.998,0.586,1.842,1.438,2.654,2.246C25.97,42.218,28.029,41.347,27.303,40.624L27.303,40.624z"/>
	</g>
</g>
</svg>
