<?xml version="1.0" encoding="utf-8"?>
<!-- Generator: Adobe Illustrator 16.0.0, SVG Export Plug-In . SVG Version: 6.00 Build 0)  -->
<!DOCTYPE svg PUBLIC "-//W3C//DTD SVG 1.1//EN" "http://www.w3.org/Graphics/SVG/1.1/DTD/svg11.dtd">
<svg version="1.1" id="Layer_1" xmlns="http://www.w3.org/2000/svg" xmlns:xlink="http://www.w3.org/1999/xlink" x="0px" y="0px"
	 width="56.757px" height="41.717px" viewBox="0 0 56.757 41.717" enable-background="new 0 0 56.757 41.717" xml:space="preserve">
<g>
	<g>
		<path fill="#F37935" d="M25.611,11.996c-0.26,5.606-4.041,13.729-11.604,9.75c-3.621-1.905-4.911-6.433-5.084-10.185
			c-0.269-5.809,4.646-13.41,11.604-9.749C24.147,3.717,25.438,8.245,25.611,11.996c0.011,0.24,1.642-0.017,1.622-0.435
			C26.975,5.977,23.071-1.27,16.358,0.19C10.56,1.451,7.57,6.188,7.301,11.996c-0.263,5.664,4.509,12.757,10.876,11.372
			c5.798-1.261,8.788-5.998,9.057-11.807C27.243,11.366,25.632,11.549,25.611,11.996z"/>
	</g>
	<g>
		<path fill="#F37935" d="M48.487,13.767c-0.22,4.724-3.503,11.415-9.676,8.188c-3.08-1.61-4.184-5.436-4.332-8.623
			c-0.229-4.887,4.013-11.15,9.678-8.189C47.236,6.753,48.338,10.58,48.487,13.767c0.014,0.284,1.644,0.015,1.623-0.435
			c-0.226-4.825-3.629-10.923-9.387-9.68c-5.015,1.083-7.632,5.08-7.867,10.114c-0.228,4.894,3.936,10.857,9.388,9.68
			c5.016-1.083,7.631-5.08,7.866-10.114C50.121,13.093,48.509,13.292,48.487,13.767z"/>
	</g>
	<g>
		<path fill="#F37935" d="M34.252,40.953c0-5.142,1.194-11.551-2.383-15.721c-3.407-3.972-12.021-2.391-16.504-2.391
			c-4.633,0-8.918-0.493-12.671,2.728c-3.912,3.355-2.412,11.327-2.412,15.819c0,0.1,0.238,0.113,0.285,0.113
			c10.782,0,21.565,0,32.347,0c0.34,0,1.849-0.662,1.053-0.662c-6.539,0-13.078,0-19.617,0c-3.646,0-7.293,0-10.939,0
			c-0.752,0-1.507-0.001-1.507,0.001c0-1.945,0-3.89,0-5.835c0-5.369,0.297-11.502,7.761-11.502c4.299,0,8.598,0,12.896,0
			c5.062,0,10.068,2.05,10.068,7.972c0,3.304,0,6.608,0,9.913C32.629,41.653,34.252,41.418,34.252,40.953z"/>
	</g>
	<g>
		<path fill="#F37935" d="M49.014,22.625c-4.712,0-9.425,0-14.138,0c-0.334,0-1.495,0.333-1.038,0.891
			c3.777,4.61,2.438,12.119,2.438,17.729c0,0.288,0.239,0.472,0.526,0.472c6.221,0,12.442,0,18.664,0c0.334,0,1.11-0.143,1.11-0.622
			C56.578,34.279,58.611,23.4,49.014,22.625c-0.736-0.06-1.684,1.005-0.584,1.094c8.564,0.691,6.511,11.526,6.511,17.526
			c0.37-0.208,0.74-0.415,1.11-0.622c-6.084,0-12.169,0-18.254,0c-0.758,0,0.116-0.07,0.116,0.396c0-0.52,0-1.038,0-1.558
			c0-2.025,0-4.05,0-6.075c0-3.89,0.044-7.353-2.583-10.559c-0.346,0.297-0.692,0.594-1.038,0.891c4.712,0,9.425,0,14.138,0
			C49.15,23.719,50.111,22.625,49.014,22.625z"/>
	</g>
</g>
</svg>
