<?xml version="1.0" encoding="utf-8"?>
<!-- Generator: Adobe Illustrator 16.0.0, SVG Export Plug-In . SVG Version: 6.00 Build 0)  -->
<!DOCTYPE svg PUBLIC "-//W3C//DTD SVG 1.1//EN" "http://www.w3.org/Graphics/SVG/1.1/DTD/svg11.dtd">
<svg version="1.1" id="Layer_1" xmlns="http://www.w3.org/2000/svg" xmlns:xlink="http://www.w3.org/1999/xlink" x="0px" y="0px"
	 width="71.357px" height="77.748px" viewBox="0 0 71.357 77.748" enable-background="new 0 0 71.357 77.748" xml:space="preserve">
<g>
	<g>
		<path fill="#F37935" d="M20.071,25.393C33.39,19.814,45.514,11.775,58.865,6.285c1.392-0.572,0.14-1.525-0.912-1.094
			c-13.352,5.49-25.476,13.53-38.794,19.107C17.771,24.88,19.021,25.832,20.071,25.393L20.071,25.393z"/>
	</g>
	<g>
		<path fill="#F37935" d="M57.697,4.213c-9.491-6.785-20.685-4.273-30.729-0.154c-5.967,2.447-11.746,5.692-17.246,9.043
			c-3.888,2.369-7.904,5.432-9.201,9.984C-0.79,27.692,2.641,32.43,5.266,35.82c4.191,5.415,9.651,9.895,14.569,14.623
			c5.517,5.305,11.454,11.22,14.333,18.437c0.893,2.237,1.094,4.843-0.15,6.966c-1.982,3.383-4.824-1.012-5.209-2.651
			c-0.109-0.464-2.29,0.086-2.174,0.582c1.107,4.721,6.688,5.172,9.525,1.682c2.898-3.567-0.74-9.515-2.668-12.483
			c-3.777-5.819-8.916-10.716-13.91-15.469C12.065,40.354-4.565,27.818,6.257,16.988c5.355-5.359,13.679-8.898,20.458-12.006
			c9.429-4.319,20.005-6.418,28.934-0.035C56.139,5.299,57.994,4.425,57.697,4.213L57.697,4.213z"/>
	</g>
	<g>
		<path fill="#F37935" d="M2.171,26.441c0.275-4.041,1.745-8.859,6.768-7.945c3.747,0.682,6.809,3.966,8.432,7.221
			c0.363,0.728,2.475,0.021,2.174-0.582c-2.166-4.344-6.206-7.799-11.208-8.002c-5.548-0.223-8.008,4.783-8.335,9.594
			C-0.058,27.586,2.123,27.143,2.171,26.441L2.171,26.441z"/>
	</g>
	<g>
		<path fill="#F37935" d="M44.074,12.5c5.837,5.881,11.343,12.025,16.229,18.726c3.897,5.345,9.607,12.913,8.578,20.009
			c-0.831,5.723-8.416,8.625-12.559,11.415C48.8,67.719,41.57,73.093,33.415,77.148c-1.3,0.646,0.703,0.722,1.291,0.43
			c7.82-3.89,14.89-8.918,22.049-13.882c4.741-3.288,11.051-5.735,13.771-11.177c3.041-6.086-3.002-14.309-6.077-19.024
			c-5.19-7.962-11.661-15.053-18.339-21.78C45.66,11.262,43.633,12.055,44.074,12.5L44.074,12.5z"/>
	</g>
	<g>
		<path fill="#F37935" d="M27.454,73.156c1.864-1.774,4.33-2.984,6.467-4.396c1.232-0.813-0.606-1.343-1.396-0.82
			c-2.286,1.51-4.855,2.814-6.852,4.715c-0.354,0.338-0.206,0.787,0.245,0.914C26.442,73.716,27.065,73.525,27.454,73.156
			L27.454,73.156z"/>
	</g>
	<g>
		<path fill="#F37935" d="M21.48,36.906c8.497-2.622,15.938-7.514,24.024-11.096c1.393-0.617,0.1-1.18-0.826-0.77
			c-7.883,3.493-15.175,8.352-23.454,10.906C19.956,36.339,20.195,37.303,21.48,36.906L21.48,36.906z"/>
	</g>
	<g>
		<path fill="#F37935" d="M26.117,40.977c2.164-0.709,4.381-1.297,6.321-2.53c1.239-0.787-0.677-0.978-1.326-0.564
			c-1.618,1.027-3.458,1.51-5.261,2.101c-0.276,0.09-1.072,0.348-0.954,0.788C25.011,41.191,25.843,41.066,26.117,40.977
			L26.117,40.977z"/>
	</g>
	<g>
		<path fill="#F37935" d="M29.01,46.723c8.551-5.126,17.117-10.109,26.691-13.076c1.309-0.406,0.953-1.799-0.373-1.389
			c-9.942,3.081-18.856,8.236-27.736,13.561C26.33,46.574,28.162,47.231,29.01,46.723L29.01,46.723z"/>
	</g>
	<g>
		<path fill="#F37935" d="M35.149,47.635c1.234,0,1.675-1.57,0.199-1.57C34.114,46.064,33.674,47.635,35.149,47.635L35.149,47.635z"
			/>
	</g>
	<g>
		<path fill="#F37935" d="M36.257,47.297c3.849-1.725,7.334-4.396,11.582-5.057c1.038-0.162,1.799-1.438,0.297-1.205
			c-4.733,0.738-8.456,3.449-12.738,5.367C34.015,47.021,35.283,47.732,36.257,47.297L36.257,47.297z"/>
	</g>
	<g>
		<path fill="#F37935" d="M34.769,52.461c2.931-0.176,6.05-1.915,8.624-3.188c1.282-0.634-0.76-0.446-1.232-0.213
			c-1.117,0.552-2.25,1.066-3.397,1.554c-0.914,0.388-2.024,0.986-3.033,1.047C35.202,51.691,33.341,52.547,34.769,52.461
			L34.769,52.461z"/>
	</g>
	<g>
		<path fill="#F37935" d="M61.99,51.883c-4.702,0.439-9.397-0.424-12.426-4.343c-0.27,0.391-0.54,0.781-0.81,1.172
			c2.331-0.569,3.555-1.546,5.917-0.097c0.514,0.314,2.271-0.007,1.93-0.898c-0.33-0.858-0.767-1.909-0.448-2.836
			c0.177-0.515,1.521,0.586,1.775,0.82c1.903,1.755,2.364,4.581,2.278,7.032c-0.039,1.093,2.163,0.741,2.195-0.188
			c0.122-3.462-1.025-8.305-4.966-9.246c-3.427-0.818-3.938,2.579-3.009,4.999C55.071,48,55.715,47.7,56.357,47.4
			c-3.15-1.933-4.712-0.896-7.979-0.097c-0.438,0.106-1.219,0.642-0.81,1.172c3.42,4.427,8.9,5.417,14.209,4.921
			C62.964,53.285,63.479,51.744,61.99,51.883L61.99,51.883z"/>
	</g>
</g>
</svg>
