<?xml version="1.0" encoding="utf-8"?>
<!-- Generator: Adobe Illustrator 16.0.0, SVG Export Plug-In . SVG Version: 6.00 Build 0)  -->
<!DOCTYPE svg PUBLIC "-//W3C//DTD SVG 1.1//EN" "http://www.w3.org/Graphics/SVG/1.1/DTD/svg11.dtd">
<svg version="1.1" id="Layer_1" xmlns="http://www.w3.org/2000/svg" xmlns:xlink="http://www.w3.org/1999/xlink" x="0px" y="0px"
	 width="47.646px" height="58.031px" viewBox="0 0 47.646 58.031" enable-background="new 0 0 47.646 58.031" xml:space="preserve">
<g>
	<g>
		<path fill="#F37935" d="M7.093,14.099c-0.143-0.704-0.313-2.162-1.116-2.488c-0.779-0.316-2.08,0.148-2.628,0.748
			c-1.572,1.721-1.83,5.038-2.133,7.229c-0.281,2.035-0.992,5.776,0.427,7.563c1.588,2.002,4.656-1.498,5.433-2.624
			c0.116-0.167-1.785-0.111-2.139,0.403c-0.341,0.494-0.692,0.98-1.099,1.426c-0.86,0.941-0.619,0.066,0.23,0.385
			c-0.517-0.193-0.672-0.982-0.774-1.445c-0.428-1.937-0.18-4.083,0.061-6.027c0.254-2.058,0.644-4.173,1.425-6.103
			c0.114-0.283,0.252-0.557,0.409-0.818c0.568-0.946-1.351-0.125-1.063,0.107c0.544,0.437,0.668,1.607,0.793,2.227
			C5.003,15.093,7.19,14.579,7.093,14.099L7.093,14.099z"/>
	</g>
	<g>
		<path fill="#F37935" d="M9.315,12.802c2.88-12.213,22.432-12.693,23.296,0.771c0.054,0.837,2.233,0.352,2.174-0.582
			C33.78-2.657,10.28-0.337,7.129,13.024C6.91,13.956,9.118,13.64,9.315,12.802L9.315,12.802z"/>
	</g>
	<g>
		<path fill="#F37935" d="M35.508,13.831c0.413-0.416,0.825-0.833,1.237-1.25c-0.64,0.085-1.279,0.17-1.92,0.254
			c0.981,1.729,1.261,3.791,1.411,5.742c0.111,1.453,0.232,6.864-1.97,7.217c0.295,0.041,0.591,0.08,0.887,0.119
			c-0.286-0.486-0.452-0.99-0.738-1.477c-0.322-0.548-2.357,0.27-2.174,0.583c0.286,0.486,0.452,0.99,0.738,1.477
			c0.153,0.262,0.653,0.156,0.887,0.117c6.008-0.963,5.429-10.317,3.133-14.36c-0.285-0.501-1.591,0.053-1.92,0.254
			c-0.795,0.483-1.232,0.909-1.716,1.703C33.195,14.487,35.177,14.374,35.508,13.831L35.508,13.831z"/>
	</g>
	<g>
		<path fill="#F37935" d="M5.658,13.942c0.99,4.18,0.043,8.389-1.78,12.202c-0.487,1.02,1.698,0.84,2.043,0.121
			c1.931-4.038,2.959-8.479,1.911-12.905C7.63,12.509,5.453,13.077,5.658,13.942L5.658,13.942z"/>
	</g>
	<g>
		<path fill="#F37935" d="M32.294,14.282c-1.151,3.35-1.207,7.008-0.053,10.367c0.328,0.956,2.493,0.348,2.174-0.581
			c-1.058-3.075-1.113-6.487-0.053-9.571C34.763,13.332,32.592,13.415,32.294,14.282L32.294,14.282z"/>
	</g>
	<g>
		<path fill="#F37935" d="M6.397,22.435c-0.122,7.319,4.469,15.932,12.671,16.303c7.867,0.355,12.15-5.629,13.502-12.824
			c0.026-0.141-2.057-0.043-2.174,0.582c-1.376,7.33-6.449,14.348-14.578,9.828c-5.141-2.857-7.341-8.887-7.247-14.471
			C8.575,21.594,6.407,21.863,6.397,22.435L6.397,22.435z"/>
	</g>
	<g>
		<path fill="#F37935" d="M2.335,27.603c1.197,4.01,3.984,6.959,7.051,9.666c0.685-0.238,1.37-0.475,2.055-0.713
			c-2.818-1.203-4.011-3.943-5.824-6.211c-0.324-0.404-2.325,0.291-2.174,0.582c1.172,2.25,2.719,4.17,4.49,5.973
			c0.363,0.369,2.322-0.439,2.055-0.713c-2.108-2.16-3.871-4.561-5.109-7.32c-0.197-0.438-2.293,0.207-2.174,0.582
			c0.9,2.822,2.813,5.01,4.859,7.08c0.362,0.369,2.322-0.436,2.055-0.713c-2.249-2.324-3.933-5.051-5.109-8.057
			c-0.17-0.434-2.285,0.188-2.174,0.582c0.792,2.816,2.466,5.025,4.49,7.08c0.364,0.371,2.322-0.441,2.055-0.713
			c-1.992-2.021-3.596-4.188-4.371-6.949c-0.725,0.195-1.449,0.389-2.174,0.582c1.201,3.068,2.938,5.822,5.229,8.188
			c0.685-0.236,1.37-0.475,2.055-0.713c-2.012-2.037-3.857-4.18-4.74-6.949c-0.725,0.195-1.449,0.389-2.174,0.582
			c1.263,2.814,3.081,5.252,5.229,7.451c0.685-0.238,1.37-0.475,2.055-0.713c-1.734-1.766-3.227-3.645-4.371-5.842
			c-0.725,0.193-1.449,0.389-2.174,0.582c1.854,2.316,3.066,5.115,5.943,6.342c0.395,0.168,2.381-0.426,2.055-0.713
			c-3.028-2.674-5.752-5.584-6.932-9.535C4.38,26.589,2.216,27.203,2.335,27.603L2.335,27.603z"/>
	</g>
	<g>
		<path fill="#F37935" d="M6.355,12.622c-0.136-17.354,33.9-14.311,28.488,0.859c-0.127,0.354,1.948,0.135,2.139-0.398
			C42.837-3.329,4.037-5.407,4.181,13.204C4.184,13.518,6.359,13.21,6.355,12.622L6.355,12.622z"/>
	</g>
	<g>
		<path fill="#F37935" d="M12.197,18.138c0.938-1.371,2.423-2.789,3.937-1.494c0.409,0.352,0.718,0.854,0.578,1.363
			c-0.031,0.113-0.137,0.133-0.09,0.118c-0.33,0.104-0.902,0.067-1.346,0.024c0.228,0.184,0.455,0.367,0.683,0.552
			c0.043-0.755,0.326-1.461,0.369-2.215c0.057-0.976-2.136-0.567-2.182,0.238c-0.043,0.755-0.326,1.461-0.369,2.215
			c-0.023,0.403,0.344,0.519,0.683,0.552c1.404,0.141,3.249,0.031,4.177-1.205c0.604-0.803,0.227-1.814-0.42-2.458
			c-0.916-0.912-2.319-1.188-3.562-0.987c-1.943,0.314-3.417,1.605-4.499,3.186c-0.302,0.441,0.255,0.707,0.612,0.727
			C11.285,18.782,11.895,18.578,12.197,18.138L12.197,18.138z"/>
	</g>
	<g>
		<path fill="#F37935" d="M24.488,16.896c0.106,0.626,0.303,1.21,0.369,1.846c0.042,0.396,0.698,0.388,0.956,0.378
			c1.34-0.052,2.676-0.348,3.901-0.894c0.287-0.128,0.734-0.423,0.64-0.805c-1.199-4.798-8.076-3.286-10.23-0.136
			c-0.606,0.889,1.6,0.764,2.043,0.115c1.537-2.249,5.276-2.348,6.014,0.603c0.214-0.269,0.427-0.536,0.64-0.805
			c-0.873,0.389-1.795,0.547-2.745,0.583c0.318,0.127,0.637,0.252,0.956,0.378c-0.067-0.636-0.264-1.22-0.369-1.846
			C26.52,15.478,24.338,16.011,24.488,16.896L24.488,16.896z"/>
	</g>
	<g>
		<path fill="#F37935" d="M15.147,27.056c3.672-0.002,7.313-0.084,10.816-1.293c-0.487-0.041-0.976-0.08-1.464-0.119
			c-0.578,2.1-1.879,4.43-3.982,5.328c-2.477,1.057-3.59-3.148-3.824-4.689c-0.079-0.516-2.268-0.037-2.174,0.582
			c0.489,3.211,2.291,5.975,5.886,4.982c3.153-0.873,5.389-3.447,6.245-6.559c0.157-0.569-1.282-0.182-1.464-0.119
			c-2.911,1.006-6.081,0.922-9.121,0.924C15.428,26.093,13.697,27.056,15.147,27.056L15.147,27.056z"/>
	</g>
	<g>
		<path fill="#F37935" d="M9.775,8.018c-0.569,1.657-1.018,3.233-1.173,4.993c-0.097,1.094,1.791,0.594,2.128-0.002
			c0.748-1.283,1.747-2.273,3-2.973c-0.599-0.051-1.196-0.104-1.795-0.155c0.272,1.037,0.166,0.87,0.826,1.649
			c0.439,0.52,1.51,0.293,1.897-0.183c0.773-0.95,1.782-1.657,2.584-2.585c-0.661,0.004-1.323,0.008-1.985,0.011
			c0.282,1.479,0.03,2.233,1.35,2.893c0.565,0.282,1.307,0.139,1.744-0.318c1.056-1.102,1.126-1.196,1.979-2.4
			c-0.706,0.065-1.412,0.13-2.118,0.195c0.369,0.862,0.738,1.724,1.107,2.585c0.296,0.69,1.301,0.484,1.794,0.156
			c0.739-0.492,1.479-0.984,2.217-1.479c-0.569,0.006-1.138,0.012-1.707,0.018c0.89,1.025,1.39,1.576,2.748,1.447
			c0.574-0.055,1.078-0.443,1.558-0.72c1.296-0.747,4.769,0.755,5.816,1.254c0.786,0.374,2.725-0.706,1.691-1.197
			c-2.085-0.991-4.272-1.323-6.485-1.94c-1.57-0.438-1.911,1.864-3.33,0.229c-0.418-0.481-1.25-0.288-1.707,0.018
			c-0.738,0.492-1.477,0.984-2.215,1.477c0.598,0.053,1.195,0.104,1.794,0.156c-0.369-0.861-0.738-1.724-1.107-2.585
			c-0.376-0.876-1.711-0.38-2.118,0.195c-0.571,0.677-1.143,1.354-1.713,2.031c0.581-0.106,1.162-0.212,1.744-0.318
			c-0.771-0.385-0.72-1.503-0.867-2.277c-0.158-0.829-1.639-0.391-1.985,0.011c-0.813,0.939-1.807,1.631-2.584,2.585
			c0.632-0.062,1.265-0.122,1.897-0.183c-0.217-0.436-0.434-0.871-0.65-1.306c-0.195-0.741-1.371-0.43-1.795-0.155
			c-1.635,1.059-2.688,1.979-3.646,3.675c0.709,0,1.419-0.003,2.128-0.003c0.146-1.661,0.495-3.015,1.042-4.606
			C12.231,7.062,10.063,7.179,9.775,8.018L9.775,8.018z"/>
	</g>
	<g>
		<path fill="#F37935" d="M14.987,38.273c-6.277,3.08-16.283,9.533-14.848,17.732c0.041,0.072,0.104,0.109,0.19,0.115
			c8.155,2.316,17.618,1.938,25.992,1.801c6.515-0.105,15.305,0.211,21.063-3.447c0.893-0.566-1.287-0.252-1.652-0.02
			c-4.182,2.654-10.872,2.369-15.65,2.559c-5.41,0.217-10.838,0.092-16.242-0.215c-1.96-0.111-11.252,0.197-11.713-2.432
			c-1.215-6.939,9.036-13.377,14.098-15.861C17.511,37.875,15.47,38.035,14.987,38.273L14.987,38.273z"/>
	</g>
	<g>
		<path fill="#F37935" d="M26.459,35.365c9.054,1.439,19.035,9.559,19.013,19.391c-0.001,0.379,2.172,0.061,2.174-0.582
			c0.022-9.998-10.221-18.205-19.405-19.666C27.718,34.423,25.844,35.267,26.459,35.365L26.459,35.365z"/>
	</g>
	<g>
		<path fill="#F37935" d="M17.473,22.065c0.717,2.444,3.847,1.242,5.271,0.219c0.373-0.268,0.231-0.625-0.186-0.693
			c-0.533-0.086-1.107,0.104-1.537,0.412c-0.147,0.106-0.302,0.213-0.468,0.29c-0.074,0.044-0.154,0.071-0.238,0.085
			c0.098-0.012,0.104-0.019,0.019-0.021c-0.402-0.05-0.593-0.55-0.688-0.873C19.443,20.786,17.274,21.386,17.473,22.065
			L17.473,22.065z"/>
	</g>
</g>
</svg>
