<?xml version="1.0" encoding="utf-8"?>
<!-- Generator: Adobe Illustrator 16.0.0, SVG Export Plug-In . SVG Version: 6.00 Build 0)  -->
<!DOCTYPE svg PUBLIC "-//W3C//DTD SVG 1.1//EN" "http://www.w3.org/Graphics/SVG/1.1/DTD/svg11.dtd">
<svg version="1.1" id="Layer_1" xmlns="http://www.w3.org/2000/svg" xmlns:xlink="http://www.w3.org/1999/xlink" x="0px" y="0px"
	 width="72.575px" height="63.262px" viewBox="0 0 72.575 63.262" enable-background="new 0 0 72.575 63.262" xml:space="preserve">
<g>
	<g>
		<path fill="#F37935" d="M4.088,25.692c-5.207-7.319,8.766-6.315,12.316-4.738c4.783,2.124,8.741,9.876,4.958,14.493
			c-3.041,3.71-9.484,3.008-13.292,1.136c-5.335-2.621-5.771-8.145-3.287-13.014c0.531-1.042-1.666-0.935-2.057-0.17
			c-3.326,6.519-1.278,12.711,5.708,15.234c5.125,1.852,12.52,1.097,15.612-3.902c1.811-2.927,0.781-6.667-0.539-9.538
			c-1.815-3.949-5.516-5.934-9.642-6.779c-4.859-0.996-17.068,0.76-11.778,8.194C2.603,27.332,4.691,26.539,4.088,25.692
			L4.088,25.692z"/>
	</g>
	<g>
		<path fill="#F37935" d="M32.629,38.337c8.516-7.958,28.219-4.079,20.789,10.014c-3.484,6.608-11.357,8.548-17.777,5.237
			c-5.61-2.892-6.913-9.251-5.465-14.904c0.209-0.813-1.982-0.482-2.174,0.268C23.638,55.987,45.51,62.088,54.77,49.513
			c4.316-5.864,3.027-13.587-4.258-15.946c-6.793-2.2-14.426-0.466-19.629,4.398C29.952,38.834,32.102,38.83,32.629,38.337
			L32.629,38.337z"/>
	</g>
	<g>
		<path fill="#F37935" d="M11.716,15.635c7.227-3.145,35.768-24.038,38.952-9.193c0.104,0.48,2.287-0.051,2.174-0.582
			C49.33-10.512,17.433,12.3,10.46,15.334C9.145,15.906,11.197,15.861,11.716,15.635L11.716,15.635z"/>
	</g>
	<g>
		<path fill="#F37935" d="M35.145,34.654c4.631-3.072,8.66-7.066,12.934-10.604c4.512-3.734,12.797-11.455,19.088-8.117
			c10.838,5.753-7.381,23.072-11.656,27.89c-0.916,1.032,1.164,1.396,1.822,0.654c5.383-6.064,23.742-23.313,10.592-30.292
			c-5.021-2.666-11.49,1.684-15.467,4.394c-6.639,4.525-12.074,10.633-18.758,15.067C32.471,34.462,34.254,35.246,35.145,34.654
			L35.145,34.654z"/>
	</g>
	<g>
		<path fill="#F37935" d="M39.359,23.529c0.973,0.054,2.029,0.779,2.879,1.203c0.488,0.244,1.109,0.139,1.551-0.164
			c0.311-0.213,0.635-0.758,0.148-1c-1.156-0.578-2.461-1.391-3.785-1.463c-0.506-0.028-1.16,0.159-1.424,0.633
			C38.473,23.197,38.947,23.508,39.359,23.529L39.359,23.529z"/>
	</g>
	<g>
		<path fill="#F37935" d="M41.563,16.698c1.797,1.198,3.633,2.378,5.188,3.89c0.582,0.564,2.639-0.266,2.012-0.875
			c-1.641-1.594-3.586-2.846-5.48-4.11C42.646,15.18,40.652,16.09,41.563,16.698L41.563,16.698z"/>
	</g>
	<g>
		<path fill="#F37935" d="M48.742,9.455c-5.486,7.899-13.313,13.451-20.999,19.027c-1.192,0.865,0.664,1.171,1.355,0.67
			c7.928-5.754,16.012-11.49,21.67-19.639C51.348,8.68,49.154,8.861,48.742,9.455L48.742,9.455z"/>
	</g>
	<g>
		<path fill="#F37935" d="M8.012,24.991c-1.378,2.62-1.87,5.855,0.322,8.181c2.143,2.272,5.916,1.579,8.479,0.622
			c1.444-0.539,0.089-0.946-0.785-0.619c-2.412,0.899-5.034,0.564-6.419-1.79c-1.237-2.105-0.496-4.742,0.555-6.741
			C10.383,24.229,8.321,24.404,8.012,24.991L8.012,24.991z"/>
	</g>
	<g>
		<path fill="#F37935" d="M35.227,42.001c4.191-1.024,13.123-2.705,12.109,4.293c-0.117,0.82,2.068,0.421,2.17-0.287
			c1.186-8.192-9.738-6.217-14.557-5.039C33.639,41.288,33.926,42.318,35.227,42.001L35.227,42.001z"/>
	</g>
	<g>
		<path fill="#F37935" d="M40.928,42.382c-0.764,1.374-2.5,1.812-2.602,3.573c-0.029,0.507,0.559,0.701,0.982,0.632
			c1.363-0.226,3.475-0.161,4.598-1.114c1.002-0.85,1.162-2.592,1.619-3.755c0.449-1.14-1.461-0.831-1.926-0.364
			c-1.16,1.158-2.305,2.334-3.479,3.477c0.598,0.183,1.195,0.365,1.793,0.548c0.51-0.569,1.061-1.104,1.574-1.669
			c0.531-0.583,1.465-1.389,1.604-2.207c0.223-1.302-2.051-0.443-2.455-0.033c-0.834,0.847-1.682,1.717-2.361,2.695
			c-0.238,0.342-0.568,0.829-0.289,1.239c0.434,0.64,1.588,0.315,2.023-0.12c0.717-0.718,1.412-1.46,2.053-2.246
			c0.588-0.723,1.465-2.305-0.301-2.142c-2.248,0.206-3.08,3.302-4.391,4.685c-0.34,0.358-0.211,0.817,0.256,0.96
			c0.516,0.157,1.168-0.022,1.537-0.411c0.607-0.641,1.098-1.344,1.537-2.105c0.381-0.659,0.717-1.432,1.412-1.82
			c-0.285,0.053-0.57,0.104-0.855,0.156c-0.734-0.092-0.465-0.688-0.617-0.396c-0.074,0.141-0.172,0.27-0.268,0.395
			c-0.295,0.385-0.621,0.746-0.945,1.105c-0.393,0.434-0.799,0.857-1.211,1.271c0.428-0.152,0.857-0.306,1.287-0.459
			c0.865,0.109,0.396,0.771,0.678,0.296c0.092-0.15,0.203-0.288,0.313-0.425c0.34-0.432,0.715-0.838,1.088-1.241
			c0.277-0.301,0.563-0.597,0.85-0.889c0.197-0.202,0.166-0.041-0.23,0.146c-1.023,0.152-1.451-0.017-1.283-0.506
			c-0.035,0.073-0.082,0.142-0.127,0.209c-0.717,1.098-1.795,1.988-2.67,2.965c-0.326,0.363-0.221,0.814,0.256,0.959
			c0.531,0.162,1.148-0.033,1.537-0.411c1.176-1.143,2.32-2.318,3.479-3.478c-0.643-0.121-1.285-0.242-1.928-0.364
			c-0.285,0.724-0.539,1.458-0.766,2.203c-0.064,0.213-0.127,0.427-0.193,0.638c-0.02,0.063-0.205,0.415-0.104,0.275
			c-0.084,0.117,0.146-0.056-0.002,0.01c0.244-0.107-0.291,0.059-0.355,0.07c-0.834,0.145-1.674,0.253-2.51,0.391
			c0.328,0.211,0.656,0.42,0.984,0.631c0.041-0.723,0.383-1.014,0.924-1.438c0.633-0.496,1.152-1.047,1.545-1.753
			C43.557,41.541,41.352,41.619,40.928,42.382L40.928,42.382z"/>
	</g>
	<g>
		<path fill="#F37935" d="M0.001,53.108c1.254,13.358,17.445,11.829,25.275,5.161c-0.623,0.095-1.247,0.189-1.87,0.284
			c1.012,1.204,1.836,2.515,2.595,3.888c0.365,0.66,2.444-0.092,2.174-0.582c-0.809-1.463-1.662-2.832-2.739-4.112
			c-0.367-0.437-1.539,0.002-1.87,0.284c-7.405,6.306-20.314,5.967-21.391-5.505C2.119,51.928-0.067,52.377,0.001,53.108
			L0.001,53.108z"/>
	</g>
</g>
</svg>
