<?xml version="1.0" encoding="utf-8"?>
<!-- Generator: Adobe Illustrator 16.0.0, SVG Export Plug-In . SVG Version: 6.00 Build 0)  -->
<!DOCTYPE svg PUBLIC "-//W3C//DTD SVG 1.1//EN" "http://www.w3.org/Graphics/SVG/1.1/DTD/svg11.dtd">
<svg version="1.1" id="Layer_1" xmlns="http://www.w3.org/2000/svg" xmlns:xlink="http://www.w3.org/1999/xlink" x="0px" y="0px"
	 width="66.289px" height="67.087px" viewBox="0 0 66.289 67.087" enable-background="new 0 0 66.289 67.087" xml:space="preserve">
<g>
	<g>
		<path fill="#F37935" d="M36.604,32.041c0.458,4.628,1.505,9.17,1.964,13.798c0.056,0.563,1.757-0.049,1.945-0.315
			c1.631-2.295,4.146-4.238,5.328-6.816c0.065-0.142-0.073-0.226-0.181-0.267c-2.588-0.972-4.021-3.658-6.619-4.645
			c-0.501-0.19-2.35,0.59-1.652,0.855c1.482,0.563,2.583,1.718,3.733,2.763c0.778,0.707,2.897,1.451,2.234,2.417
			c-1.407,2.047-3.263,3.754-4.701,5.778c0.648-0.105,1.297-0.21,1.945-0.315c-0.459-4.628-1.506-9.17-1.964-13.798
			C38.588,31.007,36.542,31.416,36.604,32.041L36.604,32.041z"/>
	</g>
	<g>
		<path fill="#F37935" d="M38.634,31.631c1.565-8.589,4.193-16.854,7.057-25.086c-0.609,0.203-1.219,0.407-1.827,0.61
			c6.033,2.309,3.231,9.787,2.729,14.643c-0.556,5.373-1.308,10.618-2.625,15.866c-0.175,0.696,1.863,0.379,2.027-0.275
			c1.547-6.16,2.231-12.332,2.919-18.628c0.567-5.201,2.886-10.136-3.424-12.551c-0.523-0.2-1.618,0.008-1.827,0.61
			c-2.863,8.233-5.491,16.498-7.057,25.086C36.473,32.638,38.515,32.283,38.634,31.631L38.634,31.631z"/>
	</g>
	<g>
		<path fill="#F37935" d="M36.544,65.979C21.401,62.741,12.062,49.791,6.47,36.217c-1.339-3.249-2.384-6.613-3.329-9.995
			c-0.644-2.305-1.353-3.896,0.972-5.334c1.373-0.849,2.664-1.832,3.955-2.797C14.732,13.113,20.51,6.891,25.958,0.64
			c-0.631,0.126-1.263,0.253-1.895,0.379c4.376,6.021,7.431,12.932,12.204,18.669c0.445,0.535,2.401-0.184,1.895-0.794
			c-4.773-5.736-7.828-12.647-12.205-18.669c-0.395-0.543-1.582,0.021-1.895,0.379C17.164,8.519,9.601,16.518,0.396,21.756
			c-0.186,0.106-0.446,0.321-0.389,0.569C4.36,41.217,14.507,62.63,35.294,67.075C35.933,67.211,37.7,66.225,36.544,65.979
			L36.544,65.979z"/>
	</g>
	<g>
		<path fill="#F37935" d="M48.431,36.734c4.78,4.053,10.441,6.215,16.729,5.549c-0.182-0.352-0.362-0.703-0.544-1.054
			c-10.438,6.525-18.836,15.554-27.508,24.17c-0.884,0.879,1.108,1.042,1.674,0.48c8.56-8.507,16.841-17.426,27.146-23.869
			c0.773-0.483,0.161-1.128-0.544-1.054c-5.673,0.601-10.794-1.445-15.075-5.074C49.681,35.349,47.767,36.17,48.431,36.734
			L48.431,36.734z"/>
	</g>
	<g>
		<path fill="#F37935" d="M19.412,50.792c3.553,1.702,6.736,3.823,9.774,6.326c0.304,0.25,2.131-0.158,1.979-0.622
			c-1.666-5.084-2.654-10.27-3.406-15.56c-0.282-1.983-1.31-4.366,0.373-5.704c0.802-0.637,1.603-1.274,2.405-1.912
			c-0.647,0.116-1.295,0.232-1.942,0.348c-0.586,6.912-1.135,14.687,0.963,21.379c0.15,0.478,2.176-0.107,2.038-0.547
			c-2.098-6.691-1.549-14.467-0.963-21.378c0.041-0.48-1.776,0.216-1.942,0.348c-2.076,1.651-3.738,1.992-3.403,4.694
			c0.794,6.406,1.826,12.731,3.84,18.879c0.66-0.207,1.319-0.414,1.979-0.622c-3.039-2.502-6.221-4.623-9.774-6.326
			C20.79,49.835,19.172,50.676,19.412,50.792L19.412,50.792z"/>
	</g>
	<g>
		<path fill="#F37935" d="M8.803,30.614c5.914-5.409,12.003-11.027,18.69-15.475c1.149-0.764-0.507-1.571-1.37-0.997
			c-6.687,4.447-12.776,10.065-18.69,15.475C6.414,30.549,8.013,31.336,8.803,30.614L8.803,30.614z"/>
	</g>
	<g>
		<path fill="#F37935" d="M13.29,34.865c3.452-3.518,7.184-6.745,10.637-10.263c0.401-0.409-1.509-0.153-1.838,0.182
			c-3.453,3.517-7.185,6.745-10.637,10.263C11.05,35.456,12.961,35.2,13.29,34.865L13.29,34.865z"/>
	</g>
	<g>
		<path fill="#F37935" d="M14.598,41.2c1.928-1.654,3.906-3.308,5.496-5.302c0.815-1.023-1.112-1.415-1.72-0.652
			c-1.491,1.87-3.336,3.411-5.145,4.962C12.18,41.108,13.792,41.89,14.598,41.2L14.598,41.2z"/>
	</g>
</g>
</svg>
