<?xml version="1.0" encoding="utf-8"?>
<!-- Generator: Adobe Illustrator 16.0.0, SVG Export Plug-In . SVG Version: 6.00 Build 0)  -->
<!DOCTYPE svg PUBLIC "-//W3C//DTD SVG 1.1//EN" "http://www.w3.org/Graphics/SVG/1.1/DTD/svg11.dtd">
<svg version="1.1" id="Layer_1" xmlns="http://www.w3.org/2000/svg" xmlns:xlink="http://www.w3.org/1999/xlink" x="0px" y="0px"
	 width="70.907px" height="47.263px" viewBox="0 0 70.907 47.263" enable-background="new 0 0 70.907 47.263" xml:space="preserve">
<g>
	<g>
		<path fill="#F37935" d="M9.701,41.74c8.918,7.574,23.468,7.261,32.26-0.342c8.988-7.772,7.381-23.068-1.431-30.056
			c-7.071-5.608-17.635-6.02-25.488-1.935c-4.084,2.124-6.936,5.783-8.458,10.072c-1.407,3.963-0.343,7.195,0.453,11.188
			c1.031,5.171-4.37,9.149-7,12.973c-0.313,0.455,1.437,0.147,1.548,0.1c3.119-1.326,6.007-2.566,9.423-3.093
			c0.955-0.147,2.033-1.168,0.412-0.918c-3.773,0.582-7.144,1.932-10.651,3.423c0.516,0.033,1.032,0.066,1.548,0.1
			c4.035-5.865,8.279-8.574,6.348-16.202c-1.319-5.212,0.32-10.269,3.84-14.236c6.213-7,17.24-6.129,24.566-1.572
			c7.986,4.969,9.807,14.271,7.396,22.843C40.53,48.096,21.659,49.25,11.871,40.936C11.374,40.514,9.303,41.402,9.701,41.74
			L9.701,41.74z"/>
	</g>
	<g>
		<path fill="#F37935" d="M36.441,28.717c0.004,0.712-0.039,1.436-0.265,2.115c-0.071,0.214,0.063-0.134-0.022,0.063
			c-0.024,0.057-0.053,0.11-0.081,0.165c-0.036,0.067-0.254,0.368-0.068,0.138c-0.063,0.078-0.329,0.291-0.035,0.065
			c-0.256,0.196,0.218-0.085-0.005,0.009c0.236-0.078,0.297-0.101,0.183-0.065c-0.184,0.055,0.341-0.055,0.152-0.026
			c-0.243,0.037,0.318,0.021,0.004-0.003c-0.176-0.014,0.268,0.047,0.094,0.014c-0.042-0.009-0.084-0.02-0.125-0.031
			c-0.271-0.074,0.126,0.064-0.074-0.026c-0.083-0.038-0.163-0.084-0.241-0.132c-0.053-0.032-0.304-0.223-0.11-0.067
			c-0.149-0.119-0.284-0.257-0.406-0.402c-0.051-0.061-0.098-0.125-0.144-0.189c-0.032-0.044-0.186-0.309-0.083-0.117
			c-0.084-0.157-0.147-0.324-0.19-0.497c-0.02-0.082-0.031-0.165-0.038-0.249c-0.013-0.149-0.002,0.168,0.003,0.02
			c0.001-0.04,0.006-0.08,0.012-0.12c0.01-0.079,0.033-0.156,0.06-0.23c-0.087,0.243,0.015-0.001,0.06-0.065
			c-0.169,0.244-0.036,0.047,0.031-0.014c0.137-0.125-0.214,0.157-0.056,0.049c0.07-0.049,0.247-0.134-0.08,0.035
			c0.05-0.025,0.102-0.047,0.153-0.068c0.213-0.089-0.302,0.097-0.071,0.027c0.063-0.02,0.128-0.034,0.192-0.049
			c-0.363,0.083-0.111,0.021-0.028,0.009c0.081-0.012,0.57-0.043,0.286-0.035c0.194-0.006,0.388,0.002,0.581,0.012
			c0.466,0.024,0.846,0.082,1.29,0.165c0.561,0.104,1.212-0.028,1.632-0.438c0.342-0.333,0.262-0.819-0.245-0.914
			c-1.667-0.311-3.727-0.548-5.214,0.479c-0.839,0.579-1.162,1.531-0.706,2.462c0.411,0.838,1.167,1.504,2.083,1.729
			c1.289,0.317,2.788-0.294,3.354-1.52c0.369-0.799,0.442-1.679,0.438-2.548c-0.003-0.536-0.579-0.628-1.02-0.579
			C37.37,27.926,36.438,28.202,36.441,28.717L36.441,28.717z"/>
	</g>
	<g>
		<path fill="#F37935" d="M25.105,27.437c0.279,0.235,0.626,0.35,0.933,0.538c0.5,0.308,0.629,0.832,0.682,1.386
			c0.154-0.187,0.309-0.373,0.463-0.56c0.122-0.057-0.227,0.091-0.265,0.106c-0.065,0.025-0.131,0.049-0.198,0.072
			c0.142-0.046,0.148-0.05,0.019-0.011c-0.337,0.099,0.064,0-0.125,0.034c-0.327,0.06,0.133,0.009-0.176,0.019
			c-0.18,0.005,0.187,0.024-0.086-0.008c-0.237-0.028,0.066,0.034-0.146-0.036c-0.07-0.023-0.137-0.055-0.203-0.088
			c0.135,0.067-0.076-0.065-0.109-0.093c-0.411-0.342-0.483-0.999-0.345-1.515c0.041-0.152,0.104-0.299,0.176-0.438
			c0.048-0.094-0.049,0.065,0.051-0.08c0.049-0.072,0.106-0.139,0.165-0.203c0.154-0.171-0.074,0.056,0.036-0.034
			c0.027-0.021,0.055-0.042,0.083-0.063c0.159-0.116-0.209,0.122-0.036,0.026c0.102-0.051,0.062-0.033-0.12,0.055
			c0.115-0.044,0.065-0.028-0.151,0.046c0.12-0.031,0.069-0.022-0.151,0.027c0.083-0.016,0.282-0.018-0.063,0.002
			c0.163-0.009-0.227-0.027,0.047,0.003c0.22,0.024-0.043-0.027,0.18,0.041c0.203,0.063,0.383,0.153,0.554,0.261
			c0.553,0.349,1.008,0.842,1.418,1.344c0.428,0.524,2.636-0.262,2.159-0.846c-1.003-1.229-2.182-2.043-3.813-1.892
			c-1.185,0.11-2.396,0.841-2.795,1.997c-0.264,0.764-0.122,1.718,0.569,2.208c1.344,0.954,3.404,0.174,4.711-0.436
			c0.207-0.097,0.488-0.299,0.463-0.56c-0.056-0.58-0.229-1.121-0.687-1.509c-0.326-0.277-0.763-0.377-1.077-0.642
			c-0.372-0.313-1.12-0.101-1.508,0.052C25.572,26.715,24.733,27.123,25.105,27.437L25.105,27.437z"/>
	</g>
	<g>
		<path fill="#F37935" d="M18.203,25.27c0.035,0.517,0.052,1.038-0.136,1.531c-0.08,0.208,0.04-0.03-0.045,0.093
			c-0.136,0.197,0.129-0.089-0.007,0.016c0.228-0.176,0.521-0.263,0.815-0.315c-0.073,0.013,0.534,0.031,0.261-0.017
			c-0.141-0.025,0.214,0.06,0.074,0.018c-0.035-0.011-0.069-0.023-0.104-0.037c-0.073-0.028-0.143-0.063-0.212-0.101
			c-0.13-0.07,0.133,0.083,0.004,0.002c-0.037-0.023-0.073-0.049-0.109-0.074c-0.089-0.062-0.173-0.13-0.256-0.199
			c-0.33-0.274-0.617-0.602-0.875-0.942c-0.264-0.349-0.414-0.591-0.608-1.028c-0.073-0.165-0.133-0.334-0.179-0.508
			c-0.021-0.078-0.035-0.156-0.047-0.235c-0.008-0.052-0.011-0.317-0.019-0.142c0.003-0.064,0.015-0.127,0.031-0.189
			c0.042-0.165,0.007-0.049,0-0.037c0.116-0.185-0.15,0.108-0.014,0.003c-0.244,0.188-0.434,0.242-0.746,0.297
			c0.177-0.031-0.312,0.017-0.125,0.009c0.046-0.002,0.092,0,0.138,0.001c-0.351-0.012,0.031,0.017,0.119,0.033
			c0.035,0.006,0.236,0.055,0.04,0.005c0.067,0.017,0.135,0.038,0.202,0.058c0.179,0.054,0.354,0.121,0.528,0.189
			c0.488,0.193,0.958,0.432,1.419,0.68c0.449,0.242,1.227-0.02,1.627-0.244c0.319-0.178,0.689-0.546,0.231-0.793
			c-1.304-0.702-2.738-1.358-4.244-0.976c-1.047,0.266-1.731,0.958-1.425,2.042c0.233,0.825,0.783,1.603,1.359,2.225
			c0.687,0.742,1.485,1.186,2.516,1.095c0.769-0.068,1.53-0.454,1.898-1.143c0.299-0.559,0.241-1.328,0.2-1.933
			C20.468,24.014,18.148,24.471,18.203,25.27L18.203,25.27z"/>
	</g>
	<g>
		<path fill="#F37935" d="M39.094,8.918c3.362-7.88,17.152-9.831,23.043-3.81c0.679,0.693,2.87-0.217,2.123-0.98
			c-6.925-7.077-23.373-4.736-27.355,4.595C36.406,9.892,38.727,9.778,39.094,8.918L39.094,8.918z"/>
	</g>
	<g>
		<path fill="#F37935" d="M46.023,33.169c5.001,1.841,10.179,0.448,14.12-2.97c-0.712,0.155-1.425,0.311-2.137,0.467
			c3.383,2.2,7.147,3.698,10.631,5.727c0.365,0.212,2.554-0.188,2.238-0.718c-1.51-2.536-2.998-5.08-4.403-7.678
			c-1.74-3.217-0.196-5.568,0.769-8.684c1.656-5.35,0.075-10.466-2.889-15.004c-0.405-0.62-2.543,0.259-2.309,0.618
			c3.411,5.224,4.339,10.155,2.47,16.194c-0.773,2.496-2.308,3.527-1.132,5.971c1.524,3.169,3.389,6.184,5.186,9.202
			c0.746-0.239,1.492-0.479,2.238-0.718c-3.484-2.027-7.248-3.525-10.631-5.727c-0.58-0.376-1.679,0.07-2.137,0.467
			c-3.31,2.871-6.457,3.256-10.134,1.903C47.35,32.015,45.259,32.889,46.023,33.169L46.023,33.169z"/>
	</g>
	<g>
		<path fill="#F37935" d="M45.753,14.508c5.041,0.973,9.842-0.375,14.826-1.032c1.254-0.166,1.793-1.845,0.219-1.638
			c-4.777,0.63-9.396,1.972-14.232,1.039C45.459,12.664,44.215,14.211,45.753,14.508L45.753,14.508z"/>
	</g>
	<g>
		<path fill="#F37935" d="M47.827,18.47c2.488,1.146,5.495,1.081,8.039,0.175c0.31-0.11,0.959-0.58,0.604-0.967
			c-0.37-0.404-1.106-0.198-1.534-0.046c-1.628,0.579-3.721,0.406-5.281-0.313C48.94,16.99,46.833,18.012,47.827,18.47L47.827,18.47
			z"/>
	</g>
</g>
</svg>
