<?xml version="1.0" encoding="UTF-8" standalone="no"?>
<!-- Created with Inkscape (http://www.inkscape.org/) -->

<svg
   xmlns:dc="http://purl.org/dc/elements/1.1/"
   xmlns:cc="http://creativecommons.org/ns#"
   xmlns:rdf="http://www.w3.org/1999/02/22-rdf-syntax-ns#"
   xmlns:svg="http://www.w3.org/2000/svg"
   xmlns="http://www.w3.org/2000/svg"
   xmlns:sodipodi="http://sodipodi.sourceforge.net/DTD/sodipodi-0.dtd"
   xmlns:inkscape="http://www.inkscape.org/namespaces/inkscape"
   width="223.0755mm"
   height="39.834961mm"
   viewBox="0 0 790.425 141.1475"
   id="svg25067"
   version="1.1"
   inkscape:version="0.91 r13725"
   sodipodi:docname="2.svg">
  <defs
     id="defs25069">
    <linearGradient
       x1="0"
       y1="0"
       x2="1"
       y2="0"
       gradientUnits="userSpaceOnUse"
       gradientTransform="matrix(-790.425,0,0,790.425,696.23763,-11641.182)"
       spreadMethod="pad"
       id="linearGradient5092">
      <stop
         style="stop-opacity:1;stop-color:#47c0b8"
         offset="0"
         id="stop5094" />
      <stop
         style="stop-opacity:1;stop-color:#47c0b8"
         offset="0.0393917"
         id="stop5096" />
      <stop
         style="stop-opacity:1;stop-color:#47d2b1"
         offset="0.348613"
         id="stop5098" />
      <stop
         style="stop-opacity:1;stop-color:#47d2b1"
         offset="0.4222168"
         id="stop5100" />
      <stop
         style="stop-opacity:1;stop-color:#12b56a"
         offset="1"
         id="stop5102" />
    </linearGradient>
  </defs>
  <sodipodi:namedview
     id="base"
     pagecolor="#ffffff"
     bordercolor="#666666"
     borderopacity="1.0"
     inkscape:pageopacity="0.0"
     inkscape:pageshadow="2"
     inkscape:zoom="0.35"
     inkscape:cx="470.2125"
     inkscape:cy="413.4309"
     inkscape:document-units="px"
     inkscape:current-layer="layer1"
     showgrid="false"
     fit-margin-top="0"
     fit-margin-left="0"
     fit-margin-right="0"
     fit-margin-bottom="0"
     inkscape:window-width="1366"
     inkscape:window-height="718"
     inkscape:window-x="0"
     inkscape:window-y="24"
     inkscape:window-maximized="1" />
  <metadata
     id="metadata25072">
    <rdf:RDF>
      <cc:Work
         rdf:about="">
        <dc:format>image/svg+xml</dc:format>
        <dc:type
           rdf:resource="http://purl.org/dc/dcmitype/StillImage" />
        <dc:title></dc:title>
      </cc:Work>
    </rdf:RDF>
  </metadata>
  <g
     inkscape:label="Layer 1"
     inkscape:groupmode="layer"
     id="layer1"
     transform="translate(95.2125,-804.6456)">
    <path
       d="m -95.2125,943.9181 21.795,0 41.61,-49.7175 c 3.68125,-4.3825 7.11375,-8.5225 10.29875,-12.41875 3.185,-3.89 5.94375,-7.675 8.28,-11.35875 2.33625,-3.67875 4.17125,-7.28625 5.52,-10.8275 1.34375,-3.53375 2.01625,-7.21625 2.01625,-11.03875 0,-7.5025 -2.4075,-13.2325 -7.22,-17.1975 -4.8125,-3.96 -11.675,-5.94375 -20.5925,-5.94375 -6.79375,0 -12.52625,0.77875 -17.19875,2.33625 -4.6675,1.55625 -9.19875,3.32625 -13.585,5.30625 l -5.31,-17.835 c 4.955,-2.12125 10.43625,-4.10125 16.45375,-5.9425 6.015,-1.84 13.0575,-2.76 21.12625,-2.76 7.21875,0 13.8,0.81375 19.745,2.44125 5.9425,1.6275 11.0725,4.07 15.3925,7.325 4.31625,3.25625 7.6425,7.39625 9.9775,12.42 2.33625,5.02375 3.5025,10.9325 3.5025,17.72625 0,9.48375 -2.62,18.68375 -7.8525,27.60125 -5.24,8.91625 -12.67,18.82375 -22.2925,29.7225 l -20.3825,23.14125 57.3375,-0.41 0,17.43 671.80375,0"
       style="fill:none;stroke:url(#linearGradient5092);stroke-width:3.75;stroke-linecap:butt;stroke-linejoin:miter;stroke-miterlimit:10;stroke-dasharray:none;stroke-opacity:1"
       id="path5104"
       inkscape:connector-curvature="0" />
  </g>
</svg>
