<?xml version="1.0" encoding="UTF-8" standalone="no"?>
<!-- Created with Inkscape (http://www.inkscape.org/) -->

<svg
   xmlns:dc="http://purl.org/dc/elements/1.1/"
   xmlns:cc="http://creativecommons.org/ns#"
   xmlns:rdf="http://www.w3.org/1999/02/22-rdf-syntax-ns#"
   xmlns:svg="http://www.w3.org/2000/svg"
   xmlns="http://www.w3.org/2000/svg"
   xmlns:sodipodi="http://sodipodi.sourceforge.net/DTD/sodipodi-0.dtd"
   xmlns:inkscape="http://www.inkscape.org/namespaces/inkscape"
   width="223.23213mm"
   height="43.51902mm"
   viewBox="0 0 790.98 154.20125"
   id="svg25127"
   version="1.1"
   inkscape:version="0.91 r13725"
   sodipodi:docname="3.svg">
  <defs
     id="defs25129">
    <linearGradient
       x1="0"
       y1="0"
       x2="1"
       y2="0"
       gradientUnits="userSpaceOnUse"
       gradientTransform="matrix(-790.98125,0,0,790.98125,807.3887,-12166.182)"
       spreadMethod="pad"
       id="linearGradient5108">
      <stop
         style="stop-opacity:1;stop-color:#47c0b8"
         offset="0"
         id="stop5110" />
      <stop
         style="stop-opacity:1;stop-color:#47c0b8"
         offset="0.0393917"
         id="stop5112" />
      <stop
         style="stop-opacity:1;stop-color:#47d2b1"
         offset="0.348613"
         id="stop5114" />
      <stop
         style="stop-opacity:1;stop-color:#47d2b1"
         offset="0.4222168"
         id="stop5116" />
      <stop
         style="stop-opacity:1;stop-color:#12b56a"
         offset="1"
         id="stop5118" />
    </linearGradient>
  </defs>
  <sodipodi:namedview
     id="base"
     pagecolor="#ffffff"
     bordercolor="#666666"
     borderopacity="1.0"
     inkscape:pageopacity="0.0"
     inkscape:pageshadow="2"
     inkscape:zoom="0.35"
     inkscape:cx="359.06143"
     inkscape:cy="94.243485"
     inkscape:document-units="px"
     inkscape:current-layer="layer1"
     showgrid="false"
     fit-margin-top="0"
     fit-margin-left="0"
     fit-margin-right="0"
     fit-margin-bottom="0"
     inkscape:window-width="1366"
     inkscape:window-height="718"
     inkscape:window-x="0"
     inkscape:window-y="24"
     inkscape:window-maximized="1" />
  <metadata
     id="metadata25132">
    <rdf:RDF>
      <cc:Work
         rdf:about="">
        <dc:format>image/svg+xml</dc:format>
        <dc:type
           rdf:resource="http://purl.org/dc/dcmitype/StillImage" />
        <dc:title></dc:title>
      </cc:Work>
    </rdf:RDF>
  </metadata>
  <g
     inkscape:label="Layer 1"
     inkscape:groupmode="layer"
     id="layer1"
     transform="translate(-15.938571,-472.40444)">
    <path
       d="m 15.938571,624.73069 39.52125,0 c -6.22875,-1.135 -12.3875,-2.61375 -18.4725,-5.02 l 6.58125,-17.83125 c 4.53125,1.83875 9.27125,3.32625 14.2275,4.4575 4.95125,1.13375 10.61625,1.69875 16.9825,1.69875 5.38,0 10.43625,-0.565 15.18125,-1.69875 4.74,-1.13125 8.84375,-2.97375 12.314999,-5.52125 3.46625,-2.5475 6.225,-5.83875 8.27875,-9.8725 2.05125,-4.03375 3.08,-8.94875 3.08,-14.755 0,-8.77375 -2.90375,-15.285 -8.70625,-19.53 -5.806249,-4.24875 -13.373749,-6.37125 -22.717499,-6.37125 -2.83375,0 -5.6975,0.10625 -8.5975,0.3175 -2.90375,0.21125 -5.7675,0.67375 -8.59625,1.38125 l -1.7025,-2.97375 35.45875,-55.83625 -54.565,0 0,-18.89625 85.986249,0 1.48625,2.5475 -38.639999,58.81125 c 0.42375,-0.14125 0.91625,-0.21125 1.48375,-0.21125 l 1.70125,0 c 6.648749,0 12.419999,1.165 17.302499,3.50125 4.88375,2.33625 9.02625,5.28875 12.1,9.12875 16.02375,20.02625 8.0475,43.1 4.67125,49.6825 -8.25625,16.0975 -25.68625,24.8125 -30.0425,26.99125 l 706.6625,0"
       style="fill:none;stroke:url(#linearGradient5108);stroke-width:3.75;stroke-linecap:butt;stroke-linejoin:miter;stroke-miterlimit:10;stroke-dasharray:none;stroke-opacity:1"
       id="path5120"
       inkscape:connector-curvature="0" />
  </g>
</svg>
