<?xml version="1.0" encoding="UTF-8" standalone="no"?>
<!-- Created with Inkscape (http://www.inkscape.org/) -->

<svg
   xmlns:dc="http://purl.org/dc/elements/1.1/"
   xmlns:cc="http://creativecommons.org/ns#"
   xmlns:rdf="http://www.w3.org/1999/02/22-rdf-syntax-ns#"
   xmlns:svg="http://www.w3.org/2000/svg"
   xmlns="http://www.w3.org/2000/svg"
   xmlns:sodipodi="http://sodipodi.sourceforge.net/DTD/sodipodi-0.dtd"
   xmlns:inkscape="http://www.inkscape.org/namespaces/inkscape"
   width="223.31892mm"
   height="42.367199mm"
   viewBox="0 0 791.28753 150.12"
   id="svg25247"
   version="1.1"
   inkscape:version="0.91 r13725"
   sodipodi:docname="5.svg">
  <defs
     id="defs25249">
    <linearGradient
       x1="0"
       y1="0"
       x2="1"
       y2="0"
       gradientUnits="userSpaceOnUse"
       gradientTransform="matrix(-791.2875,0,0,791.2875,930.09209,-12613.153)"
       spreadMethod="pad"
       id="linearGradient5140">
      <stop
         style="stop-opacity:1;stop-color:#47c0b8"
         offset="0"
         id="stop5142" />
      <stop
         style="stop-opacity:1;stop-color:#47c0b8"
         offset="0.0393917"
         id="stop5144" />
      <stop
         style="stop-opacity:1;stop-color:#47d2b1"
         offset="0.348613"
         id="stop5146" />
      <stop
         style="stop-opacity:1;stop-color:#47d2b1"
         offset="0.4222168"
         id="stop5148" />
      <stop
         style="stop-opacity:1;stop-color:#12b56a"
         offset="1"
         id="stop5150" />
    </linearGradient>
  </defs>
  <sodipodi:namedview
     id="base"
     pagecolor="#ffffff"
     bordercolor="#666666"
     borderopacity="1.0"
     inkscape:pageopacity="0.0"
     inkscape:pageshadow="2"
     inkscape:zoom="0.35"
     inkscape:cx="236.35804"
     inkscape:cy="75.059995"
     inkscape:document-units="px"
     inkscape:current-layer="layer1"
     showgrid="false"
     fit-margin-top="0"
     fit-margin-left="0"
     fit-margin-right="0"
     fit-margin-bottom="0"
     inkscape:window-width="1366"
     inkscape:window-height="718"
     inkscape:window-x="0"
     inkscape:window-y="24"
     inkscape:window-maximized="1" />
  <metadata
     id="metadata25252">
    <rdf:RDF>
      <cc:Work
         rdf:about="">
        <dc:format>image/svg+xml</dc:format>
        <dc:type
           rdf:resource="http://purl.org/dc/dcmitype/StillImage" />
        <dc:title></dc:title>
      </cc:Work>
    </rdf:RDF>
  </metadata>
  <g
     inkscape:label="Layer 1"
     inkscape:groupmode="layer"
     id="layer1"
     transform="translate(-138.64196,-457.3022)">
    <path
       d="m 138.64196,605.5472 46.3275,0 c -2.445,-0.24 -4.95625,-0.5675 -7.5375,-0.98125 -6.15875,-0.99375 -11.785,-2.55 -16.88,-4.67125 l 5.9475,-17.835 c 4.38375,1.5575 8.64625,3.11 12.94875,3.71375 45.295,6.3525 53.9275,-13.99875 53.9275,-24.9 0,-3.96 -0.6025,-7.7125 -1.80375,-11.2525 -1.205,-3.535 -3.15375,-6.61375 -5.83875,-9.235 -2.69125,-2.61875 -6.19375,-4.6725 -10.51,-6.155 -4.31875,-1.4875 -9.59,-2.23 -15.81625,-2.23 -4.39,0 -8.70625,0.355 -12.95125,1.06 -4.24625,0.71125 -7.9975,1.63125 -11.2525,2.7625 l -2.1225,-1.91375 c 0.42375,-12.45125 0.88125,-24.87125 1.37875,-37.25875 0.4925,-12.38375 1.025,-24.875 1.5925,-37.47375 l 72.185,0 0,18.89625 -53.07875,0 -1.2725,37.79 c 2.68625,-0.56375 5.4125,-0.91625 8.175,-1.06 2.75875,-0.13875 4.915,-0.2125 6.47625,-0.2125 7.07375,0 13.51125,0.99125 19.3175,2.97125 5.8025,1.98375 10.7575,4.92125 14.86125,8.81125 4.105,3.89625 7.29,8.635 9.555,14.22375 2.2625,5.595 3.39625,11.9975 3.39625,19.21625 0,8.9175 -1.55625,16.6325 -4.67125,23.14125 -3.11375,6.51 -7.395,11.8875 -12.8425,16.13625 -3.2275,2.5125 -6.8025,4.64125 -10.72375,6.3875 l 702.5,0"
       style="fill:none;stroke:url(#linearGradient5140);stroke-width:3.75;stroke-linecap:butt;stroke-linejoin:miter;stroke-miterlimit:10;stroke-dasharray:none;stroke-opacity:1"
       id="path5152"
       inkscape:connector-curvature="0" />
  </g>
</svg>
