<?xml version="1.0" encoding="UTF-8" standalone="no"?>
<!-- Generator: Adobe Illustrator 22.1.0, SVG Export Plug-In . SVG Version: 6.00 Build 0)  -->

<svg
   xmlns:dc="http://purl.org/dc/elements/1.1/"
   xmlns:cc="http://creativecommons.org/ns#"
   xmlns:rdf="http://www.w3.org/1999/02/22-rdf-syntax-ns#"
   xmlns:svg="http://www.w3.org/2000/svg"
   xmlns="http://www.w3.org/2000/svg"
   xmlns:sodipodi="http://sodipodi.sourceforge.net/DTD/sodipodi-0.dtd"
   xmlns:inkscape="http://www.inkscape.org/namespaces/inkscape"
   version="1.1"
   id="Layer_1"
   x="0px"
   y="0px"
   viewBox="0 0 18.931963 20.407757"
   xml:space="preserve"
   inkscape:version="0.91 r13725"
   sodipodi:docname="01.svg"
   width="18.931963"
   height="20.407757"><metadata
     id="metadata21"><rdf:RDF><cc:Work
         rdf:about=""><dc:format>image/svg+xml</dc:format><dc:type
           rdf:resource="http://purl.org/dc/dcmitype/StillImage" /><dc:title></dc:title></cc:Work></rdf:RDF></metadata><defs
     id="defs19" /><sodipodi:namedview
     pagecolor="#ffffff"
     bordercolor="#666666"
     borderopacity="1"
     objecttolerance="10"
     gridtolerance="10"
     guidetolerance="10"
     inkscape:pageopacity="0"
     inkscape:pageshadow="2"
     inkscape:window-width="640"
     inkscape:window-height="480"
     id="namedview17"
     showgrid="false"
     fit-margin-top="0"
     fit-margin-left="0"
     fit-margin-right="0"
     fit-margin-bottom="0"
     inkscape:zoom="0.21285714"
     inkscape:cx="9.2"
     inkscape:cy="9.0013452"
     inkscape:window-x="10"
     inkscape:window-y="34"
     inkscape:window-maximized="0"
     inkscape:current-layer="Layer_1" /><style
     type="text/css"
     id="style3">
	.st0{fill:#2C9942;}
</style><g
     id="g5"
     transform="translate(-690.8,-308.09359)"><g
       id="g7"><g
         id="g9"><path
           class="st0"
           d="m 704.4,320.3 c -1.9,-6.8 -13.8,-1.4 -10.2,5 1.2,2.2 3.9,3.6 6.4,3.1 1.2,-0.2 2.3,-0.9 3,-1.9 1.3,-2 0.6,-3.9 0.7,-6.1 0,-0.8 -1.4,-0.9 -1.4,-0.1 -0.1,2.3 0.9,5.8 -2.1,6.8 -1.7,0.5 -3.7,-0.4 -4.8,-1.6 -1.4,-1.6 -1.3,-3.9 0.2,-5.5 1.7,-1.9 6,-2.4 6.8,0.6 0.2,0.7 1.6,0.5 1.4,-0.3 l 0,0 z"
           id="path11"
           inkscape:connector-curvature="0"
           style="fill:#2c9942" /></g><g
         id="g13"><path
           class="st0"
           d="m 691.4,317.7 c 1.4,1.1 2.7,2 3.9,3.3 0.7,0.8 1.3,1.8 2.2,2.5 1.3,1 1.3,0.9 2.5,-0.5 3.6,-4.3 6,-9.5 9.7,-13.7 0.2,-0.2 -0.6,-1.3 -0.7,-1.2 -3.7,4.1 -6.1,8.8 -9.3,13.2 -1.5,2 -2,2 -3.7,0.1 -1.7,-1.9 -3.2,-3.3 -5.2,-4.8 0.2,-0.1 0.3,0.8 0.6,1.1 l 0,0 z"
           id="path15"
           inkscape:connector-curvature="0"
           style="fill:#2c9942" /></g></g></g></svg>