<?xml version="1.0" encoding="UTF-8" standalone="no"?>
<!-- Generator: Adobe Illustrator 22.1.0, SVG Export Plug-In . SVG Version: 6.00 Build 0)  -->

<svg
   xmlns:dc="http://purl.org/dc/elements/1.1/"
   xmlns:cc="http://creativecommons.org/ns#"
   xmlns:rdf="http://www.w3.org/1999/02/22-rdf-syntax-ns#"
   xmlns:svg="http://www.w3.org/2000/svg"
   xmlns="http://www.w3.org/2000/svg"
   xmlns:sodipodi="http://sodipodi.sourceforge.net/DTD/sodipodi-0.dtd"
   xmlns:inkscape="http://www.inkscape.org/namespaces/inkscape"
   version="1.1"
   id="Layer_1"
   x="0px"
   y="0px"
   viewBox="0 0 32.672222 9.0146523"
   xml:space="preserve"
   inkscape:version="0.91 r13725"
   sodipodi:docname="02.svg"
   width="32.672222"
   height="9.0146523"><metadata
     id="metadata19"><rdf:RDF><cc:Work
         rdf:about=""><dc:format>image/svg+xml</dc:format><dc:type
           rdf:resource="http://purl.org/dc/dcmitype/StillImage" /><dc:title></dc:title></cc:Work></rdf:RDF></metadata><defs
     id="defs17" /><sodipodi:namedview
     pagecolor="#ffffff"
     bordercolor="#666666"
     borderopacity="1"
     objecttolerance="10"
     gridtolerance="10"
     guidetolerance="10"
     inkscape:pageopacity="0"
     inkscape:pageshadow="2"
     inkscape:window-width="640"
     inkscape:window-height="480"
     id="namedview15"
     showgrid="false"
     fit-margin-top="0"
     fit-margin-left="0"
     fit-margin-right="0"
     fit-margin-bottom="0"
     inkscape:zoom="0.21285714"
     inkscape:cx="16"
     inkscape:cy="5.7557083"
     inkscape:window-x="10"
     inkscape:window-y="34"
     inkscape:window-maximized="0"
     inkscape:current-layer="Layer_1" /><style
     type="text/css"
     id="style3">
	.st0{fill:#2C9942;}
</style><g
     id="g5"
     transform="translate(-684,-316.24106)"><g
       id="g7"><path
         class="st0"
         d="m 685.3,321.9 c 10.3,0.8 20.5,-0.6 30.8,-0.7 -0.2,0 -0.9,-0.5 -1.4,-0.5 -10.2,0.1 -20.4,1.5 -30.7,0.7 0,0 1,0.5 1.3,0.5 l 0,0 z"
         id="path9"
         inkscape:connector-curvature="0"
         style="fill:#2c9942" /></g><g
       id="g11"><path
         class="st0"
         d="m 716,320.2 c -2.7,-1.6 -6.5,-4.4 -9.8,-3.9 -0.4,0.1 0.2,0.8 0.3,1 1.6,1.8 2.2,4.8 2.8,7 0.1,0.2 0.6,1.2 0.9,0.9 1.9,-1.5 4.1,-2.4 6.4,-3.2 0.3,-0.1 -0.4,-1.4 -0.9,-1.2 -2.3,0.8 -4.5,1.7 -6.4,3.2 0.3,0.3 0.6,0.6 0.9,0.9 -0.9,-2.8 -1.6,-6.1 -3.6,-8.3 0.1,0.3 0.2,0.6 0.3,1 3.1,-0.5 6.8,2.3 9.3,3.8 0.8,0.3 0.1,-1 -0.2,-1.2 l 0,0 z"
         id="path13"
         inkscape:connector-curvature="0"
         style="fill:#2c9942" /></g></g></svg>