<?xml version="1.0" encoding="UTF-8" standalone="no"?>
<!-- Generator: Adobe Illustrator 22.1.0, SVG Export Plug-In . SVG Version: 6.00 Build 0)  -->

<svg
   xmlns:dc="http://purl.org/dc/elements/1.1/"
   xmlns:cc="http://creativecommons.org/ns#"
   xmlns:rdf="http://www.w3.org/1999/02/22-rdf-syntax-ns#"
   xmlns:svg="http://www.w3.org/2000/svg"
   xmlns="http://www.w3.org/2000/svg"
   xmlns:sodipodi="http://sodipodi.sourceforge.net/DTD/sodipodi-0.dtd"
   xmlns:inkscape="http://www.inkscape.org/namespaces/inkscape"
   version="1.1"
   id="Layer_1"
   x="0px"
   y="0px"
   viewBox="0 0 16.064438 15.565835"
   xml:space="preserve"
   inkscape:version="0.91 r13725"
   sodipodi:docname="04.svg"
   width="16.064438"
   height="15.565835"><metadata
     id="metadata13"><rdf:RDF><cc:Work
         rdf:about=""><dc:format>image/svg+xml</dc:format><dc:type
           rdf:resource="http://purl.org/dc/dcmitype/StillImage" /><dc:title></dc:title></cc:Work></rdf:RDF></metadata><defs
     id="defs11" /><sodipodi:namedview
     pagecolor="#ffffff"
     bordercolor="#666666"
     borderopacity="1"
     objecttolerance="10"
     gridtolerance="10"
     guidetolerance="10"
     inkscape:pageopacity="0"
     inkscape:pageshadow="2"
     inkscape:window-width="640"
     inkscape:window-height="480"
     id="namedview9"
     showgrid="false"
     fit-margin-top="0"
     fit-margin-left="0"
     fit-margin-right="0"
     fit-margin-bottom="0"
     inkscape:zoom="0.21285714"
     inkscape:cx="7.2420204"
     inkscape:cy="8.7273966"
     inkscape:window-x="0"
     inkscape:window-y="24"
     inkscape:window-maximized="0"
     inkscape:current-layer="Layer_1" /><style
     type="text/css"
     id="style3">
	.st0{fill:#2C9942;}
</style><g
     id="g5"
     transform="translate(-692.75798,-312.66156)"><path
       class="st0"
       d="m 697.4,322.5 c -2.9,-0.4 -4.2,-3.7 -3.2,-6.2 1.7,-4 7.4,-4.5 10.5,-2 5.6,4.6 1.3,11.4 -4.4,12.9 -2.6,0.7 -4.2,0.6 -5.4,-1.8 -0.5,-1 -0.8,-2.1 -0.8,-3.3 -0.1,-3.6 2.4,-6.7 6.2,-6 2,0.4 3,1.1 3.5,3.1 0.3,1.1 0.3,2.3 -0.2,3.4 -1.8,3.9 -10.5,3.8 -9.8,-1.4 0.4,-2.8 6.5,-6.4 7,-2.1 0.1,0.9 -0.3,2.1 -0.8,2.8 -1.2,2 -4.7,2.7 -4.4,-0.5 0.2,-1.7 5.6,-6.7 6,-3.9 0.1,0.4 -0.1,1.2 -0.3,1.6 -0.5,0.9 -2,1.5 -2.6,0.3 -0.9,-1.7 2.5,-2.4 2.1,-0.3 -0.4,2 -2.8,0.5 -2.2,-1.1 0.3,-0.7 2.5,-1.7 3.1,-0.7 0.2,0.3 -0.1,1.1 -0.2,1.5 -1.4,3.5 -8.6,3.4 -6.4,-0.8 1.3,-2.6 5.2,-3.7 7.4,-1.6 1.6,1.6 1.8,4.2 0.9,6.2 -1.9,4.2 -7.6,2.9 -8.7,-1.2 -0.7,-2.8 1.4,-5.8 4,-6.8 6.1,-2.4 7.8,4.5 3.5,7 -4.3,2.6 -3.5,-3.4 -0.9,-2.6 0.4,0.1 0.9,1.1 1,1.5 0.1,0.4 -0.5,2.2 -0.9,1.1 -0.1,-0.2 -1.2,-0.2 -1.2,0 -0.3,0.6 -0.7,1.2 -1,1.9 0,0 1.1,0.3 1.2,0 0.3,-0.6 0.7,-1.2 1,-1.9 -0.4,0 -0.8,0 -1.2,0 1,3.2 6.2,-1.4 1.7,-2.8 -2.9,-0.9 -6,3.5 -2.5,3.9 2.3,0.3 5.1,-1 6.1,-3.1 1.3,-2.7 -0.4,-5 -3,-5.5 -4.6,-0.9 -11.2,3.1 -8.6,8.4 1.6,3.3 6.9,4.7 9.6,1.9 3.6,-3.6 1,-9.1 -3.8,-9.3 -1.9,-0.1 -3.8,0.5 -5.1,1.9 -1.8,1.9 -1.4,4.2 1.2,4.9 1.2,0.3 2.7,0.3 3.9,-0.1 1.7,-0.6 5.2,-4.1 2.2,-5.2 -3.1,-1.2 -6.8,3.5 -2.6,4.2 3.7,0.6 3.3,-4.3 0,-3.7 -2,0.3 -2.5,2.8 -0.5,3.6 1,0.4 2.5,0.2 3.3,-0.6 1.3,-1.3 1.3,-3.9 -0.7,-4 -1.9,-0.2 -4.1,1.7 -5.3,3 -1.8,1.9 -2.5,4.7 0.6,5.3 1.6,0.3 3.1,-0.3 4.1,-1.5 1.4,-1.7 2.1,-4.9 -0.5,-5.7 -1.6,-0.5 -3.8,0 -5.1,0.9 -2.6,1.6 -3.6,5.1 -0.6,6.9 1.4,0.9 3.4,1 5,0.9 2.6,-0.2 5.2,-1.2 5.8,-4 0.5,-2.6 -1.1,-5.1 -3.6,-5.8 -4.9,-1.4 -9.6,2.5 -8.6,7.6 1.1,5.8 6.7,5.1 10.8,3 3,-1.5 5.4,-4.2 4.7,-7.8 -0.5,-3 -2.8,-5.1 -5.7,-5.9 -4,-1.1 -10.7,0.4 -10.2,5.7 0.2,2.4 1.9,3.9 4.2,4.2 0,-0.2 1.1,-0.3 0.4,-0.4 l 0,0 z"
       id="path7"
       inkscape:connector-curvature="0"
       style="fill:#2c9942" /></g></svg>