<?xml version="1.0" encoding="UTF-8" standalone="no"?>
<!-- Generator: Adobe Illustrator 22.1.0, SVG Export Plug-In . SVG Version: 6.00 Build 0)  -->

<svg
   xmlns:dc="http://purl.org/dc/elements/1.1/"
   xmlns:cc="http://creativecommons.org/ns#"
   xmlns:rdf="http://www.w3.org/1999/02/22-rdf-syntax-ns#"
   xmlns:svg="http://www.w3.org/2000/svg"
   xmlns="http://www.w3.org/2000/svg"
   xmlns:sodipodi="http://sodipodi.sourceforge.net/DTD/sodipodi-0.dtd"
   xmlns:inkscape="http://www.inkscape.org/namespaces/inkscape"
   version="1.1"
   id="Layer_1"
   x="0px"
   y="0px"
   viewBox="0 0 25.457747 16.845776"
   xml:space="preserve"
   inkscape:version="0.91 r13725"
   sodipodi:docname="05.svg"
   width="25.457747"
   height="16.845776"><metadata
     id="metadata23"><rdf:RDF><cc:Work
         rdf:about=""><dc:format>image/svg+xml</dc:format><dc:type
           rdf:resource="http://purl.org/dc/dcmitype/StillImage" /><dc:title></dc:title></cc:Work></rdf:RDF></metadata><defs
     id="defs21" /><sodipodi:namedview
     pagecolor="#ffffff"
     bordercolor="#666666"
     borderopacity="1"
     objecttolerance="10"
     gridtolerance="10"
     guidetolerance="10"
     inkscape:pageopacity="0"
     inkscape:pageshadow="2"
     inkscape:window-width="640"
     inkscape:window-height="480"
     id="namedview19"
     showgrid="false"
     fit-margin-top="0"
     fit-margin-left="0"
     fit-margin-right="0"
     fit-margin-bottom="0"
     inkscape:zoom="0.21285714"
     inkscape:cx="12.146504"
     inkscape:cy="8.1359375"
     inkscape:window-x="10"
     inkscape:window-y="34"
     inkscape:window-maximized="0"
     inkscape:current-layer="Layer_1" /><style
     type="text/css"
     id="style3">
	.st0{fill:#2C9942;}
</style><g
     id="g5"
     transform="translate(-687.8535,-310.79016)"><g
       id="g7"><path
         class="st0"
         d="m 688.4,314.7 c 2.7,2.6 5.6,4.7 8.9,6.5 0,-0.3 0,-0.7 0,-1 -3.5,1.1 -6.6,2.8 -9.3,5.3 -0.5,0.4 0.4,1.3 0.9,0.8 2.6,-2.3 5.5,-4 8.8,-5 0.5,-0.2 0.4,-0.8 0,-1 -3.2,-1.7 -6,-3.8 -8.6,-6.3 -0.6,-0.5 -1.3,0.2 -0.7,0.7 l 0,0 z"
         id="path9"
         inkscape:connector-curvature="0"
         style="fill:#2c9942" /></g><g
       id="g11"><path
         class="st0"
         d="m 695.2,312.3 c 2.8,3.4 6.1,6.1 10.1,8.1 -0.2,-0.3 -0.5,-0.6 -0.7,-0.8 -1.7,3.1 -4.2,5.4 -7.4,6.8 0.3,0.3 0.6,0.5 0.9,0.8 0.1,-0.4 0.3,-0.8 0.4,-1.3 0.2,-0.3 -0.8,-1 -0.9,-0.9 -0.5,0.8 -0.4,0.4 -0.5,1.4 0,0.3 0.6,0.9 0.9,0.8 3.3,-1.4 5.7,-3.7 7.4,-6.8 0.1,-0.3 -0.5,-0.7 -0.7,-0.8 -3.5,-1.8 -6.5,-4.1 -8.9,-7.1 -0.2,-0.3 -1.1,-0.8 -0.6,-0.2 l 0,0 z"
         id="path13"
         inkscape:connector-curvature="0"
         style="fill:#2c9942" /></g><g
       id="g15"><path
         class="st0"
         d="m 701.8,310.8 c -2.2,2.4 6.5,5.8 7.6,6.4 1.1,0.6 2.4,0.6 2.1,2.1 -0.2,0.8 -2.5,2.3 -3.2,2.9 -2.2,1.8 -4.5,3.5 -7,4.9 0.1,0 0.8,0.7 1.1,0.5 4,-2.4 7.6,-5.2 10.9,-8.6 0.1,-0.1 -0.5,-0.4 -0.5,-0.4 -1.7,-0.8 -11.9,-5.2 -9.9,-7.4 0.1,0.2 -0.9,-0.5 -1.1,-0.4 l 0,0 z"
         id="path17"
         inkscape:connector-curvature="0"
         style="fill:#2c9942" /></g></g></svg>