<svg xmlns="http://www.w3.org/2000/svg" xmlns:xlink="http://www.w3.org/1999/xlink" viewBox="0 0 511.19 34.35"><defs><style>.cls-1{fill:url(#linear-gradient);}.cls-2{fill:url(#linear-gradient-2);}.cls-3{fill:url(#linear-gradient-3);}.cls-4{fill:url(#linear-gradient-4);}.cls-5{fill:url(#linear-gradient-7);}.cls-6{fill:url(#linear-gradient-16);}.cls-7{fill:url(#linear-gradient-19);}</style><linearGradient id="linear-gradient" x1="522.19" y1="12.85" x2="-26.99" y2="12.85" gradientUnits="userSpaceOnUse"><stop offset="0" stop-color="#47c0b8"/><stop offset="0.35" stop-color="#47d2b1"/><stop offset="0.59" stop-color="#36c99a"/><stop offset="1" stop-color="#12b56a"/></linearGradient><linearGradient id="linear-gradient-2" x1="522.19" y1="15.98" x2="-26.99" y2="15.98" xlink:href="#linear-gradient"/><linearGradient id="linear-gradient-3" x1="522.19" y1="16.14" x2="-26.99" y2="16.14" xlink:href="#linear-gradient"/><linearGradient id="linear-gradient-4" x1="522.19" y1="20.3" x2="-26.99" y2="20.3" xlink:href="#linear-gradient"/><linearGradient id="linear-gradient-7" x1="522.19" y1="15.98" x2="-26.99" y2="15.98" xlink:href="#linear-gradient"/><linearGradient id="linear-gradient-16" x1="522.19" y1="20.13" x2="-26.99" y2="20.13" xlink:href="#linear-gradient"/><linearGradient id="linear-gradient-19" x1="522.19" y1="19.42" x2="-26.99" y2="19.42" xlink:href="#linear-gradient"/></defs><title>Asset 56</title><g id="Layer_2" data-name="Layer 2"><g id="Layer_1-2" data-name="Layer 1"><path class="cls-1" d="M19.76,25.7H15.54V3.6H4.2V25.7H0V0H19.76Z"/><path class="cls-2" d="M43.33,15.94q0,4.77-2.44,7.44a8.77,8.77,0,0,1-6.81,2.67,9.3,9.3,0,0,1-4.81-1.23,8.12,8.12,0,0,1-3.22-3.53,12.07,12.07,0,0,1-1.12-5.35c0-3.15.8-5.61,2.42-7.38a8.8,8.8,0,0,1,6.84-2.65,8.57,8.57,0,0,1,6.68,2.71A10.49,10.49,0,0,1,43.33,15.94Zm-14.15,0q0,6.74,5,6.74t4.93-6.74c0-4.44-1.66-6.66-5-6.66A4.24,4.24,0,0,0,30.35,11,8.78,8.78,0,0,0,29.18,15.94Z"/><path class="cls-3" d="M64.05,25.7H59.89V9.49H54.53a67.48,67.48,0,0,1-1.33,9.78A12.77,12.77,0,0,1,51,24.4,4.33,4.33,0,0,1,47.53,26a5.81,5.81,0,0,1-2.27-.39V22.39a3.57,3.57,0,0,0,1.3.25q1.8,0,2.83-4A75.83,75.83,0,0,0,51,6.26H64.05Z"/><path class="cls-4" d="M67,6.26h4.5l3.95,11a20.89,20.89,0,0,1,1.2,4.43h.14a17.61,17.61,0,0,1,.58-2.35Q77.8,18,81.84,6.26h4.47L78,28.28q-2.26,6.07-7.55,6.07a11.9,11.9,0,0,1-2.68-.3V30.78a9.72,9.72,0,0,0,2.13.21q3,0,4.2-3.46l.72-1.83Z"/><path class="cls-2" d="M92.9,6.26v7.1q0,3,3.09,3a10.26,10.26,0,0,0,2.92-.42A14.42,14.42,0,0,0,102,14.61V6.26h4.13V25.7H102V17.46A14.55,14.55,0,0,1,98.67,19a11.59,11.59,0,0,1-3.47.5,6.71,6.71,0,0,1-4.74-1.57,5.69,5.69,0,0,1-1.71-4.4V6.26Z"/><path class="cls-2" d="M120.5,26.05a9.39,9.39,0,0,1-7.09-2.64,10,10,0,0,1-2.56-7.29,11,11,0,0,1,2.37-7.49,8.18,8.18,0,0,1,6.52-2.72,8,8,0,0,1,6.08,2.33,9,9,0,0,1,2.24,6.44v2.23h-13a6.38,6.38,0,0,0,1.53,4.35,5.35,5.35,0,0,0,4.06,1.52,15.45,15.45,0,0,0,3.21-.32,17.41,17.41,0,0,0,3.19-1.08v3.35a12.8,12.8,0,0,1-3.06,1A18.67,18.67,0,0,1,120.5,26.05Zm-.76-17a4.14,4.14,0,0,0-3.15,1.24,6,6,0,0,0-1.42,3.64H124a5.44,5.44,0,0,0-1.16-3.65A4,4,0,0,0,119.74,9Z"/><path class="cls-5" d="M136.88,6.26v7.8H146V6.26h4.13V25.7H146V17.31h-9.16V25.7h-4.13V6.26Z"/><path class="cls-2" d="M160,6.26v10c0,1.16-.09,2.87-.28,5.12l9.76-15.08h5V25.7h-4V15.91c0-.54,0-1.41.09-2.62s.12-2.09.17-2.64L161.12,25.7h-5V6.26Z"/><path class="cls-2" d="M188.93,26.05a9.41,9.41,0,0,1-7.09-2.64,10,10,0,0,1-2.56-7.29,11,11,0,0,1,2.37-7.49,8.18,8.18,0,0,1,6.52-2.72,8.05,8.05,0,0,1,6.09,2.33,9,9,0,0,1,2.23,6.44v2.23h-13a6.38,6.38,0,0,0,1.53,4.35,5.35,5.35,0,0,0,4.06,1.52,15.45,15.45,0,0,0,3.21-.32,17.41,17.41,0,0,0,3.19-1.08v3.35a12.8,12.8,0,0,1-3.06,1A18.67,18.67,0,0,1,188.93,26.05Zm-.76-17A4.14,4.14,0,0,0,185,10.28a6,6,0,0,0-1.42,3.64h8.83a5.44,5.44,0,0,0-1.16-3.65A4,4,0,0,0,188.17,9Z"/><path class="cls-2" d="M227.41,11.23q0,3.45-4,4.17v.14A5.77,5.77,0,0,1,226.83,17,4,4,0,0,1,228,20a4.88,4.88,0,0,1-2.1,4.24,10.51,10.51,0,0,1-6.11,1.49h-9.28V6.26h9.25Q227.42,6.26,227.41,11.23Zm-4.13.35a1.76,1.76,0,0,0-.91-1.67,5.49,5.49,0,0,0-2.7-.52h-5v4.67h4.4a7.42,7.42,0,0,0,3.15-.53A2,2,0,0,0,223.28,11.58Zm.51,8.14a2.09,2.09,0,0,0-1.09-2,7,7,0,0,0-3.27-.59h-4.77v5.5h4.87Q223.79,22.64,223.79,19.72Z"/><path class="cls-2" d="M249.52,15.94q0,4.77-2.44,7.44a8.76,8.76,0,0,1-6.8,2.67,9.32,9.32,0,0,1-4.82-1.23,8.12,8.12,0,0,1-3.22-3.53,12.07,12.07,0,0,1-1.12-5.35,10.57,10.57,0,0,1,2.42-7.38,8.8,8.8,0,0,1,6.84-2.65,8.57,8.57,0,0,1,6.68,2.71A10.49,10.49,0,0,1,249.52,15.94Zm-14.15,0q0,6.74,5,6.74t4.92-6.74q0-6.66-5-6.66A4.25,4.25,0,0,0,236.54,11,8.78,8.78,0,0,0,235.37,15.94Z"/><path class="cls-2" d="M258.56,14a10.3,10.3,0,0,0,4.16-.63,2,2,0,0,0,1.34-1.92q0-2.37-4.22-2.37a14.51,14.51,0,0,0-5.75,1.26l-1.33-3.08a19.65,19.65,0,0,1,7.48-1.38,10.19,10.19,0,0,1,5.63,1.32,4.3,4.3,0,0,1,2,3.81q0,3.27-3.74,4.29v.14a6.55,6.55,0,0,1,3.35,1.81,4.34,4.34,0,0,1,1,2.92,4.9,4.9,0,0,1-2.35,4.26,11.57,11.57,0,0,1-6.55,1.59,16.11,16.11,0,0,1-7-1.21V21.27a15.46,15.46,0,0,0,6.66,1.51,8.59,8.59,0,0,0,3.83-.69,2.37,2.37,0,0,0,0-4.27,9.86,9.86,0,0,0-4.19-.68H256.5V14Z"/><path class="cls-2" d="M277.08,6.26v7.8h9.16V6.26h4.13V25.7h-4.13V17.31h-9.16V25.7H273V6.26Z"/><path class="cls-2" d="M308.44,25.7,307.62,23h-.14a8,8,0,0,1-2.83,2.42,8.93,8.93,0,0,1-3.66.64,6.14,6.14,0,0,1-4.47-1.55,5.75,5.75,0,0,1-1.61-4.37,5.14,5.14,0,0,1,2.23-4.54c1.49-1,3.76-1.57,6.8-1.67l3.36-.1v-1a4,4,0,0,0-.87-2.79,3.57,3.57,0,0,0-2.7-.92,9.4,9.4,0,0,0-2.86.44,20.41,20.41,0,0,0-2.64,1l-1.34-3a14.15,14.15,0,0,1,3.47-1.25,15.69,15.69,0,0,1,3.55-.43,8.46,8.46,0,0,1,5.6,1.61q1.89,1.62,1.89,5.08V25.7Zm-6.15-2.81a5.09,5.09,0,0,0,3.61-1.26,4.55,4.55,0,0,0,1.37-3.52V16.42l-2.5.1a8.56,8.56,0,0,0-4.25,1,3,3,0,0,0-1.32,2.66,2.6,2.6,0,0,0,.77,2A3.31,3.31,0,0,0,302.29,22.89Z"/><path class="cls-2" d="M329.73,6.26V9.49h-8.44V25.7h-4.13V6.26Z"/><path class="cls-6" d="M343.34,26.05a6.79,6.79,0,0,1-5.73-2.65h-.25c.16,1.64.25,2.63.25,3v8h-4.14V6.26h3.34c.1.36.29,1.23.58,2.6h.22a6.45,6.45,0,0,1,5.8-2.95,6.78,6.78,0,0,1,5.67,2.63q2,2.64,2,7.4T349,23.38A6.81,6.81,0,0,1,343.34,26.05Zm-1-16.77a4.29,4.29,0,0,0-3.59,1.44,7.46,7.46,0,0,0-1.13,4.61v.61q0,3.55,1.12,5.14a4.17,4.17,0,0,0,3.67,1.6,3.74,3.74,0,0,0,3.31-1.76,9.1,9.1,0,0,0,1.16-5A8.75,8.75,0,0,0,345.72,11,3.85,3.85,0,0,0,342.33,9.28Z"/><path class="cls-2" d="M368.07,25.7,367.24,23h-.14a8,8,0,0,1-2.83,2.42,8.91,8.91,0,0,1-3.65.64,6.16,6.16,0,0,1-4.48-1.55,5.79,5.79,0,0,1-1.61-4.37,5.14,5.14,0,0,1,2.24-4.54c1.48-1,3.75-1.57,6.8-1.67l3.36-.1v-1a4,4,0,0,0-.87-2.79,3.57,3.57,0,0,0-2.7-.92,9.46,9.46,0,0,0-2.87.44,20.85,20.85,0,0,0-2.63,1l-1.34-3A14.07,14.07,0,0,1,360,6.34a15.82,15.82,0,0,1,3.55-.43,8.45,8.45,0,0,1,5.6,1.61Q371,9.14,371,12.6V25.7Zm-6.15-2.81a5.11,5.11,0,0,0,3.61-1.26,4.54,4.54,0,0,0,1.36-3.52V16.42l-2.5.1a8.51,8.51,0,0,0-4.24,1,3,3,0,0,0-1.33,2.66,2.57,2.57,0,0,0,.78,2A3.27,3.27,0,0,0,361.92,22.89Z"/><path class="cls-2" d="M386.37,15.7V6.26h3.85V15.7l7.49-9.44h4.35l-7.64,9.4,8.33,10H398.2l-8-9.86V25.7h-3.85V15.84l-8,9.86h-4.53l8.31-10-7.63-9.4h4.36Z"/><path class="cls-7" d="M424.39,32.57h-3.85V25.7H407.21v6.87H403.4V22.5H405a24.18,24.18,0,0,0,3.3-7.18,39.19,39.19,0,0,0,1.45-9.06h11.81V22.5h2.85ZM417.48,22.5V9.42H413.3a36.51,36.51,0,0,1-1.4,7.14,24.49,24.49,0,0,1-2.59,5.94Z"/><path class="cls-2" d="M436.48,26.05a9.41,9.41,0,0,1-7.09-2.64,10,10,0,0,1-2.56-7.29,11,11,0,0,1,2.38-7.49,8.17,8.17,0,0,1,6.52-2.72,8,8,0,0,1,6.08,2.33A8.94,8.94,0,0,1,444,14.68v2.23h-13a6.29,6.29,0,0,0,1.53,4.35,5.33,5.33,0,0,0,4.06,1.52,15.43,15.43,0,0,0,3.2-.32,17.16,17.16,0,0,0,3.19-1.08v3.35a12.58,12.58,0,0,1-3.05,1A18.78,18.78,0,0,1,436.48,26.05Zm-.75-17a4.15,4.15,0,0,0-3.16,1.24,6,6,0,0,0-1.41,3.64H440a5.39,5.39,0,0,0-1.16-3.65A4,4,0,0,0,435.73,9Z"/><path class="cls-2" d="M452.87,6.26v7.8H462V6.26h4.13V25.7H462V17.31h-9.15V25.7h-4.14V6.26Z"/><path class="cls-2" d="M476,6.26v10c0,1.16-.1,2.87-.29,5.12l9.76-15.08h5.05V25.7h-4V15.91c0-.54,0-1.41.1-2.62s.12-2.09.17-2.64L477.11,25.7h-5.05V6.26Z"/><path class="cls-2" d="M498.41,25.7h-4.62l5.41-8a5.82,5.82,0,0,1-3.09-2A5.66,5.66,0,0,1,495,12.13a5.21,5.21,0,0,1,2-4.32,8.5,8.5,0,0,1,5.38-1.55h8.86V25.7H507V18.21h-3.92Zm.6-13.54a2.53,2.53,0,0,0,1.13,2.25,5.55,5.55,0,0,0,3.05.74H507V9.39h-4.5a4.18,4.18,0,0,0-2.61.72A2.46,2.46,0,0,0,499,12.16Z"/></g></g></svg>