<?xml version="1.0" encoding="utf-8"?>
<!-- Generator: Adobe Illustrator 16.0.0, SVG Export Plug-In . SVG Version: 6.00 Build 0)  -->
<!DOCTYPE svg PUBLIC "-//W3C//DTD SVG 1.1//EN" "http://www.w3.org/Graphics/SVG/1.1/DTD/svg11.dtd">
<svg version="1.1" id="Layer_1" xmlns="http://www.w3.org/2000/svg" xmlns:xlink="http://www.w3.org/1999/xlink" x="0px" y="0px"
	 width="555.498px" height="279.881px" viewBox="0 0 555.498 279.881" enable-background="new 0 0 555.498 279.881"
	 xml:space="preserve">
<g>
	<g>
		<g>
			<path fill="#FFFFFF" d="M142.416,264.672c-0.886,0.984-2.135,2.683-3.567,2.832c-0.161,0.017-0.746,0.296-0.301,0.25
				c1.965-0.205,3.297-1.831,4.537-3.209C143.106,264.521,142.548,264.525,142.416,264.672L142.416,264.672z"/>
		</g>
		<g>
			<path fill="#FFFFFF" d="M128.818,269.338c-1.786,0.674-3.407,0.747-5.251,0.264c-0.296-0.078-0.805,0.354-0.392,0.463
				c2.104,0.552,3.911,0.448,5.946-0.318C129.558,269.582,129.171,269.206,128.818,269.338L128.818,269.338z"/>
		</g>
		<g>
			<path fill="#FFFFFF" d="M112.746,263.878c-1.714-0.455-3.5-0.585-4.901-1.781c-0.205-0.175-0.844,0.097-0.628,0.281
				c1.484,1.269,3.3,1.426,5.123,1.91C112.59,264.355,113.146,263.985,112.746,263.878L112.746,263.878z"/>
		</g>
		<g>
			<path fill="#FFFFFF" d="M100.261,251.265c-0.769-0.755-0.776-1.97-1.548-2.727c-0.188-0.185-0.833,0.078-0.629,0.277
				c0.769,0.755,0.776,1.969,1.548,2.727C99.819,251.727,100.464,251.464,100.261,251.265L100.261,251.265z"/>
		</g>
		<g>
			<path fill="#FFFFFF" d="M102.366,223.894c-0.019-1.273,0.974-2.551,2.28-2.671c0.382-0.035,0.523-0.545,0.06-0.502
				c-1.604,0.148-3.054,1.573-3.029,3.224C101.682,224.304,102.371,224.202,102.366,223.894L102.366,223.894z"/>
		</g>
		<g>
			<path fill="#FFFFFF" d="M115.385,212.167c1.217-0.094,2.257-0.783,3.466-0.881c0.328-0.026,0.57-0.397,0.098-0.359
				c-1.216,0.098-2.257,0.786-3.466,0.881C115.154,211.833,114.912,212.205,115.385,212.167L115.385,212.167z"/>
		</g>
		<g>
			<path fill="#FFFFFF" d="M98.099,234.167c0.378-1.276,0.896-2.491,1.522-3.665c0.152-0.284-0.53-0.205-0.633-0.012
				c-0.643,1.205-1.182,2.452-1.569,3.763C97.348,234.493,98.031,234.395,98.099,234.167L98.099,234.167z"/>
		</g>
		<g>
			<path fill="#FFFFFF" d="M98.224,241.718c-0.675-1.355-0.744-3.044-0.67-4.519c0.004-0.081-0.671-0.006-0.681,0.182
				c-0.074,1.476-0.005,3.163,0.67,4.519C97.621,242.055,98.271,241.811,98.224,241.718L98.224,241.718z"/>
		</g>
	</g>
	<g>
		<g>
			<path fill="#FFFFFF" d="M135.933,258.679c-0.577,0.641-1.43,1.837-2.36,1.936c-0.179,0.019-0.74,0.329-0.293,0.281
				c1.42-0.15,2.369-1.263,3.271-2.264C136.695,258.471,136.043,258.556,135.933,258.679L135.933,258.679z"/>
		</g>
		<g>
			<path fill="#FFFFFF" d="M126.533,261.95c-1.217,0.458-2.295,0.483-3.546,0.155c-0.209-0.055-0.801,0.261-0.419,0.361
				c1.488,0.39,2.796,0.292,4.231-0.249C127.246,262.049,126.835,261.835,126.533,261.95L126.533,261.95z"/>
		</g>
		<g>
			<path fill="#FFFFFF" d="M115.447,258.057c-1.199-0.318-2.436-0.413-3.414-1.249c-0.236-0.201-0.826,0.14-0.523,0.398
				c1.025,0.875,2.291,0.983,3.547,1.317C115.355,258.603,115.862,258.167,115.447,258.057L115.447,258.057z"/>
		</g>
		<g>
			<path fill="#FFFFFF" d="M106.813,249.338c-0.526-0.53-0.544-1.361-1.073-1.894c-0.194-0.196-0.84,0.069-0.627,0.283
				c0.526,0.531,0.544,1.361,1.073,1.894C106.38,249.818,107.026,249.552,106.813,249.338L106.813,249.338z"/>
		</g>
		<g>
			<path fill="#FFFFFF" d="M108.283,230.294c-0.005-0.73,0.538-1.753,1.354-1.833c0.161-0.016,0.747-0.292,0.302-0.248
				c-1.185,0.116-2.345,0.985-2.336,2.263C107.603,230.565,108.284,230.471,108.283,230.294L108.283,230.294z"/>
		</g>
		<g>
			<path fill="#FFFFFF" d="M117.215,222.277c0.845-0.069,1.569-0.545,2.407-0.613c0.329-0.027,0.569-0.401,0.097-0.363
				c-0.845,0.069-1.57,0.545-2.407,0.613C116.983,221.941,116.743,222.315,117.215,222.277L117.215,222.277z"/>
		</g>
		<g>
			<path fill="#FFFFFF" d="M105.306,237.576c0.268-0.898,0.633-1.754,1.074-2.58c0.183-0.343-0.508-0.35-0.651-0.082
				c-0.441,0.826-0.807,1.683-1.074,2.58C104.541,237.875,105.219,237.869,105.306,237.576L105.306,237.576z"/>
		</g>
		<g>
			<path fill="#FFFFFF" d="M105.407,242.723c-0.461-0.927-0.517-2.087-0.466-3.096c0.013-0.26-0.668-0.115-0.679,0.094
				c-0.052,1.041-0.012,2.228,0.464,3.184C104.835,243.125,105.496,242.902,105.407,242.723L105.407,242.723z"/>
		</g>
	</g>
	<g>
		<g>
			<path fill="#FFFFFF" d="M52.193,68.388c0.306,3.494,0.366,7.102-0.858,10.433c-1.229,3.342-5.019,5.782-6.639,9.092
				c0.613-0.2,1.226-0.4,1.839-0.6c-2.859-0.729-5.077,0.134-8.027,0.295c-0.419,0.022-1.434,0.201-1.439,0.772
				c-0.043,4.21-2.119,8.495,0.475,12.321c1.582,2.333,6.923,0.397,7.832,2.456c1.44,3.259,5.964,5.431,8.745,7.366
				c4.028,2.802,0.103,8.002,0.239,11.831c0.008,0.227,0.476,0.221,0.603,0.225c3.714,0.124,7.39,0.395,11.106,0.251
				c0.381-0.015,1.479-0.212,1.439-0.772c-0.157-2.185,1.866-3.729,2.676-5.564c-0.552,0.214-1.104,0.428-1.657,0.642
				c2.628,0.234,5.092-0.169,7.726-0.358c1.818-0.131,4.378,5.141,4.67,6.147c0.174,0.6,2.211,0.038,2.042-0.547
				c-0.709-2.442-2.671-4.062-3.771-6.338c-0.108-0.224-0.389-0.22-0.603-0.225c-2.925-0.067-5.856,0.604-8.779,0.344
				c-0.506-0.045-1.421,0.106-1.657,0.642c-0.981,2.224-2.872,3.272-2.689,5.806c0.48-0.257,0.96-0.515,1.439-0.772
				c-2.033,0.079-10.937,1.607-10.387-2.335c0.326-2.345,1.613-4.294,1.563-6.724c-0.042-2.002-2.438-3.278-3.849-4.232
				c-2.713-1.834-5.854-3.757-7.229-6.869c-0.101-0.228-0.396-0.217-0.603-0.225c-4.25-0.174-7.385-0.105-8.165-5.006
				c-0.433-2.72,0.846-5.822,0.875-8.608c-0.48,0.257-0.96,0.515-1.439,0.772c2.292-0.125,5.006-0.961,7.213-0.398
				c0.557,0.142,1.557-0.023,1.839-0.6c1.832-3.744,5.574-6.197,7.005-10.091c1.073-2.917,0.77-6.657,0.505-9.676
				C54.188,67.304,52.134,67.715,52.193,68.388L52.193,68.388z"/>
		</g>
		<g>
			<path fill="#FFFFFF" d="M52.688,68.288c2.526,1.205,3.815,3.852,5.475,5.967c0.255,0.325,0.757,0.313,1.116,0.225
				c1.65-0.408,3.339-0.049,5.009-0.33c1.085-0.182,1.585-1.663,0.198-1.43c-1.867,0.313-3.706-0.032-5.565,0.427
				c0.372,0.075,0.744,0.15,1.116,0.225c-1.744-2.222-3.11-4.963-5.766-6.23C53.512,66.781,51.702,67.817,52.688,68.288
				L52.688,68.288z"/>
		</g>
		<g>
			<path fill="#FFFFFF" d="M63.975,80.731c5.515-4.25,14.225-4.154,19.42,0.577c0.601,0.547,2.527-0.26,1.884-0.846
				c-6.02-5.481-16.247-5.393-22.611-0.489C61.568,80.82,63.265,81.278,63.975,80.731L63.975,80.731z"/>
		</g>
		<g>
			<path fill="#FFFFFF" d="M41.026,92.478c-0.296,1.184-0.523,2.353-0.54,3.577c-0.006,0.481,2.033,0.149,2.042-0.547
				c0.015-1.142,0.25-2.235,0.525-3.338C43.206,91.561,41.176,91.879,41.026,92.478L41.026,92.478z"/>
		</g>
		<g>
			<path fill="#FFFFFF" d="M83.457,73.662c18.889,1.775,22.376,29.355,6.01,37.461c-0.436,0.216-0.706,0.614-0.476,1.076
				c1.639,3.29,1.374,6.908,1.775,10.46c0.369-0.347,0.738-0.693,1.106-1.04c-3.212-0.073-6.38-0.42-9.578,0
				c-1.141,0.15-1.557,1.714-0.171,1.532c3.185-0.418,6.378-0.072,9.578,0c0.562,0.013,1.172-0.455,1.106-1.04
				c-0.426-3.759-0.23-7.369-1.951-10.823c-0.159,0.359-0.317,0.717-0.476,1.076c17.752-8.792,14.464-38.275-6.227-40.221
				C83.133,72.048,82.077,73.532,83.457,73.662L83.457,73.662z"/>
		</g>
		<g>
			<path fill="#FFFFFF" d="M100.941,94.025c3.148,2.545,9.029-0.331,8.893-4.37c-0.017-0.496-2.064-0.13-2.042,0.547
				c0.085,2.519-2.684,4.902-4.939,3.079C102.361,92.884,100.508,93.675,100.941,94.025L100.941,94.025z"/>
		</g>
		<g>
			<path fill="#FFFFFF" d="M68.262,76.504c-4.748-4.551-1.814-12.612,4.865-12.877c3.352-0.133,6.653,1.879,8.281,4.748
				c1.76,3.102,0.255,6.427-2.139,8.643c-0.857,0.793,1.167,0.707,1.623,0.284c2.958-2.737,4.365-6.289,2.254-10.01
				c-1.956-3.445-6.194-4.88-9.945-4.731c-7.335,0.292-12.791,9.02-6.841,14.723C66.854,77.757,68.772,76.993,68.262,76.504
				L68.262,76.504z"/>
		</g>
		<g>
			<path fill="#FFFFFF" d="M71.607,37.632c-0.208,3.726,0.207,7.448,0,11.173c-0.051,0.925,2.008,0.545,2.051-0.221
				c0.207-3.726-0.208-7.448,0-11.173C73.71,36.486,71.65,36.866,71.607,37.632L71.607,37.632z"/>
		</g>
		<g>
			<path fill="#FFFFFF" d="M71.612,51.895c0,0.798,0,1.596,0,2.394c0,0.451,2.042,0.121,2.042-0.547c0-0.798,0-1.596,0-2.394
				C73.654,50.897,71.612,51.228,71.612,51.895L71.612,51.895z"/>
		</g>
		<g>
			<path fill="#FFFFFF" d="M76.667,45.9c-0.303,2.549-0.773,5.576-0.268,8.123c0.137,0.688,2.187,0.182,2.042-0.547
				c-0.488-2.454-0.027-5.376,0.266-7.839C78.802,44.837,76.748,45.223,76.667,45.9L76.667,45.9z"/>
		</g>
		<g>
			<path fill="#FFFFFF" d="M76.134,56.949c-0.014,0.895-0.251,1.764-0.266,2.661c-0.007,0.458,2.031,0.134,2.042-0.547
				c0.014-0.895,0.251-1.764,0.266-2.661C78.183,55.944,76.145,56.268,76.134,56.949L76.134,56.949z"/>
		</g>
		<g>
			<path fill="#FFFFFF" d="M68.153,44.18c-0.189,2.585,0.455,5.13,0.268,7.715c-0.023,0.329,1.996,0.086,2.042-0.547
				c0.187-2.586-0.457-5.13-0.268-7.715C70.219,43.304,68.199,43.546,68.153,44.18L68.153,44.18z"/>
		</g>
		<g>
			<path fill="#FFFFFF" d="M68.153,55.087c0,1.297-0.024,2.582-0.261,3.861c-0.129,0.698,1.917,0.339,2.032-0.289
				c0.252-1.362,0.27-2.738,0.271-4.119C70.195,53.999,68.153,54.357,68.153,55.087L68.153,55.087z"/>
		</g>
	</g>
	<g>
		<g>
			<path fill="#FFFFFF" d="M507.201,160.889c13.563-14.623,25.265-31.182,37.527-46.889c0.176-0.226-0.547-1.048-0.559-1.033
				c-12.263,15.708-23.964,32.266-37.527,46.889C506.462,160.05,507.167,160.926,507.201,160.889L507.201,160.889z"/>
		</g>
		<g>
			<path fill="#FFFFFF" d="M544.454,112.247c-2.944,1.161-7.624,2.432-9.269,5.404c-0.144,0.26,0.17,1.033,0.515,1.009
				c2.811-0.2,5.683,1.226,8.248,2.212c0.18,0.069,0.248-0.065,0.245-0.228c-0.031-2.48,0.629-4.824,1.385-7.164
				c0.104-0.324-0.544-1.262-0.699-0.781c-0.493,1.526-0.929,3.052-1.213,4.632c-0.125,0.693-0.161,1.393-0.192,2.094
				c-0.025,0.572-1.129-0.11-1.418-0.22c-2.087-0.796-4.469-1.78-6.744-1.618c0.172,0.336,0.343,0.673,0.515,1.009
				c1.601-2.892,6.283-4.167,9.161-5.302C545.317,113.163,544.819,112.103,544.454,112.247L544.454,112.247z"/>
		</g>
	</g>
	<g>
		<g>
			<path fill="#FFFFFF" d="M414.593,218.153c-0.254-0.772-0.763-1.422-1.017-2.195c-0.144-0.436-1.296-0.282-1.123,0.244
				c0.254,0.772,0.763,1.422,1.017,2.195C413.613,218.833,414.766,218.679,414.593,218.153L414.593,218.153z"/>
		</g>
		<g>
			<path fill="#FFFFFF" d="M410.255,208.472c-0.758-1.356-1.45-2.696-1.451-4.285c-0.001-0.45-1.15-0.262-1.15,0.238
				c0.002,1.647,0.746,3.056,1.531,4.459C409.404,209.279,410.519,208.944,410.255,208.472L410.255,208.472z"/>
		</g>
		<g>
			<path fill="#FFFFFF" d="M406.688,192.832c0.047-0.762,0.258-1.458,0.064-2.221c-0.081-0.316-1.154-0.571-1.092-0.322
				c0.185,0.726-0.018,1.383-0.063,2.105C405.575,192.75,406.675,193.031,406.688,192.832L406.688,192.832z"/>
		</g>
		<g>
			<path fill="#FFFFFF" d="M408.13,180.262c0.323-0.879,0.588-1.749,0.348-2.685c-0.168-0.649-1.236-0.177-1.082,0.424
				c0.193,0.752-0.08,1.46-0.338,2.161C406.802,180.859,407.917,180.844,408.13,180.262L408.13,180.262z"/>
		</g>
		<g>
			<path fill="#FFFFFF" d="M414.665,165.707c0.878-0.83,1.73-1.678,2.323-2.743c0.346-0.623-0.744-0.556-0.98-0.131
				c-0.55,0.99-1.343,1.763-2.159,2.534c-0.167,0.158-0.221,0.454,0.031,0.56C414.149,166.038,414.469,165.892,414.665,165.707
				L414.665,165.707z"/>
		</g>
		<g>
			<path fill="#FFFFFF" d="M425.338,154.837c0.821-1.281,1.658-2.561,2.999-3.352c0.491-0.29-0.358-1.092-0.793-0.836
				c-1.4,0.827-2.295,2.154-3.155,3.496C424.1,154.596,425.055,155.279,425.338,154.837L425.338,154.837z"/>
		</g>
		<g>
			<path fill="#FFFFFF" d="M436.719,146.161c1.462-0.907,2.941-1.734,4.59-2.252c0.468-0.146-0.53-0.705-0.865-0.6
				c-1.703,0.535-3.234,1.4-4.744,2.338C435.392,145.837,436.389,146.366,436.719,146.161L436.719,146.161z"/>
		</g>
		<g>
			<path fill="#FFFFFF" d="M450.439,138.813c2.138,0.321,4.096-0.321,5.694-1.76c0.468-0.421-0.665-0.287-0.908-0.068
				c-1.206,1.086-2.54,1.435-4.132,1.196C450.763,138.131,449.803,138.717,450.439,138.813L450.439,138.813z"/>
		</g>
		<g>
			<path fill="#FFFFFF" d="M463.376,135.583c1.878,0.015,3.595-0.593,5.192-1.553c0.641-0.385-0.138-1.172-0.688-0.842
				c-1.441,0.866-2.939,1.411-4.636,1.397C462.479,134.58,462.677,135.577,463.376,135.583L463.376,135.583z"/>
		</g>
		<g>
			<path fill="#FFFFFF" d="M478.189,131.752c1.684,0.014,3.275-0.456,4.751-1.25c0.529-0.286-0.018-1.325-0.547-1.04
				c-1.413,0.762-2.908,1.19-4.519,1.176C477.255,130.633,477.619,131.748,478.189,131.752L478.189,131.752z"/>
		</g>
		<g>
			<path fill="#FFFFFF" d="M496.047,121.307c1.382-0.264,2.61-0.926,3.871-1.517c0.044-0.021-0.6-0.917-0.867-0.791
				c-1.236,0.579-2.44,1.236-3.795,1.495C495.154,120.514,495.775,121.358,496.047,121.307L496.047,121.307z"/>
		</g>
		<g>
			<path fill="#FFFFFF" d="M505.757,113.131c2.678-1.311,4.461-3.638,5.658-6.317c0.149-0.333-0.829,0.162-0.943,0.419
				c-0.948,2.119-2.271,4.227-4.424,5.28C505.772,112.648,505.083,113.46,505.757,113.131L505.757,113.131z"/>
		</g>
		<g>
			<path fill="#FFFFFF" d="M514.95,100.772c1.952-1.957,2.584-4.597,3.191-7.207c0.032-0.139-1.11-0.41-1.141-0.278
				c-0.607,2.61-1.239,5.25-3.191,7.207C513.854,100.45,514.738,100.985,514.95,100.772L514.95,100.772z"/>
		</g>
		<g>
			<path fill="#FFFFFF" d="M518.673,88.04c0.357-2.418-0.265-4.744-0.938-7.051c-0.092-0.315-0.816-0.707-0.834-0.768
				c0.672,2.307,1.295,4.633,0.938,7.051C517.8,87.538,518.663,88.106,518.673,88.04L518.673,88.04z"/>
		</g>
		<g>
			<path fill="#FFFFFF" d="M511.313,83.463c0.729-3.351,1.265-6.753,0.649-10.164c-0.348,0.121-0.696,0.242-1.044,0.363
				c3.104,1.835,6.571,1.515,10.034,1.354c0.562-0.026,0.982-0.671,0.193-0.634c-3.206,0.15-6.408,0.488-9.292-1.217
				c-0.236-0.14-1.119-0.055-1.044,0.363c0.605,3.356,0.077,6.702-0.64,9.997C510.072,83.979,511.229,83.854,511.313,83.463
				L511.313,83.463z"/>
		</g>
		<g>
			<path fill="#FFFFFF" d="M505.467,75.822c0.267-2.775-0.072-5.532-0.623-8.252c-0.091,0.09-0.182,0.18-0.271,0.27
				c2.799,0.295,5.588,0.218,8.383-0.085c0.522-0.057-0.326-0.833-0.705-0.792c-2.723,0.296-5.437,0.362-8.162,0.075
				c-0.185-0.02-0.309,0.085-0.271,0.27c0.539,2.662,0.859,5.352,0.598,8.065C504.375,75.779,505.422,76.281,505.467,75.822
				L505.467,75.822z"/>
		</g>
	</g>
	<g>
		<g>
			<path fill="#FFFFFF" d="M245.401,73.753c1.435,2.094,3.259,3.882,5.047,5.67c0.422,0.422,1.326,0.016,0.783-0.527
				c-1.726-1.726-3.475-3.452-4.859-5.473C246.062,72.97,244.988,73.15,245.401,73.753L245.401,73.753z"/>
		</g>
		<g>
			<path fill="#FFFFFF" d="M258.517,88.052c1.945,1.332,3.627,3.002,5.573,4.334c0.424,0.29,1.379-0.012,0.743-0.447
				c-1.946-1.331-3.627-3.002-5.573-4.334C258.836,87.314,257.881,87.616,258.517,88.052L258.517,88.052z"/>
		</g>
		<g>
			<path fill="#FFFFFF" d="M248.028,87.964c-1.926,1.329-3.537,3.246-5.028,5.032c-0.326,0.391,0.439,1.266,0.82,0.81
				c1.451-1.737,3.004-3.583,4.876-4.875C249.143,88.622,248.475,87.656,248.028,87.964L248.028,87.964z"/>
		</g>
		<g>
			<path fill="#FFFFFF" d="M264.53,73.728c-1.982,1.955-4.248,3.685-5.572,6.191c-0.019,0.036,0.96-0.016,1.1-0.279
				c1.324-2.507,3.589-4.237,5.572-6.191C265.591,73.487,264.766,73.496,264.53,73.728L264.53,73.728z"/>
		</g>
	</g>
	<g>
		<g>
			<path fill="#FFFFFF" d="M431.021,68.841c-1.056-0.208-2.075,0.085-2.855,0.826c-1.082,1.028-0.877,2.604-0.391,3.854
				c0.718,1.845,2.858,2.633,4.632,2.003c1.59-0.564,2.838-2.234,2.879-3.923c0.06-2.461-2.182-3.774-4.265-4.404
				c-0.527-0.159-1.213,0.531-0.477,0.754c1.601,0.483,3.231,1.404,3.549,3.181c0.215,1.202-0.404,2.419-1.282,3.201
				c-0.975,0.869-2.174,0.807-3.121-0.051c-1.29-1.167-1.868-5.222,0.854-4.687C431.073,69.699,431.777,68.99,431.021,68.841
				L431.021,68.841z"/>
		</g>
	</g>
	<g>
		<g>
			<path fill="#FFFFFF" d="M499.738,196.768c3.689,15.986-0.598,32.048,1.414,48.121c0.168,1.341,3.402,2.462,3.172,0.619
				c-2.012-16.077,2.28-32.115-1.414-48.121C502.607,196.077,499.329,194.996,499.738,196.768L499.738,196.768z"/>
		</g>
		<g>
			<path fill="#FFFFFF" d="M502.278,198.415c6.789-1.619,16.27-0.054,19.346,7.024c2.276,5.24-1.829,10.199-6.293,12.174
				c-7.358,3.256-15.986,2.19-23.793,2.125c-2.153-0.019-0.377,2.788,1.178,2.801c9.737,0.082,23.905,1.971,30.687-6.832
				c3.774-4.899,1.671-11.666-2.367-15.546c-5.205-5-13.938-6.024-20.665-4.42C498.488,196.189,500.798,198.768,502.278,198.415
				L502.278,198.415z"/>
		</g>
		<g>
			<path fill="#FFFFFF" d="M491.93,233.971c6.584-0.677,13.2-0.709,19.813-0.71c1.953,0,2.691-3.019,0.395-3.018
				c-6.612,0.001-13.229,0.033-19.813,0.71C490.411,231.15,489.641,234.207,491.93,233.971L491.93,233.971z"/>
		</g>
	</g>
	<g>
		<g>
			<path fill="#FFFFFF" d="M445.107,226.2c0.767,0,0.53-0.979-0.162-0.979C444.179,225.221,444.415,226.2,445.107,226.2
				L445.107,226.2z"/>
		</g>
		<g>
			<path fill="#FFFFFF" d="M448.049,221.482c-0.758-9.131-0.544-18.63,2.023-27.48c0.141-0.483-0.641-1.339-0.82-0.727
				c-2.675,9.095-5.396,17.949-11.021,25.724c-0.267,0.367,0.096,1.195,0.606,0.987c3.169-1.293,6.181-1.604,9.239,0.218
				c0.619,0.369,0.608-0.734,0.158-1.002c-3.205-1.91-6.537-1.647-9.915-0.271c0.202,0.329,0.404,0.658,0.606,0.987
				c5.662-7.826,8.449-16.75,11.146-25.917c-0.273-0.242-0.547-0.484-0.82-0.727c-2.615,9.014-2.876,18.684-2.104,27.988
				C447.195,221.833,448.113,222.25,448.049,221.482L448.049,221.482z"/>
		</g>
		<g>
			<g>
				<path fill="#FFFFFF" d="M445.176,207.921c-1.511,17.688-13.997,31.814-28.281,41.214c-16.138,10.618-39.056,17.279-57.628,9.38
					c-0.198-0.084-1.287-0.321-0.615-0.035c16.81,7.149,35.887,3.314,51.729-4.579c17.608-8.773,34.155-25.104,35.906-45.599
					C446.306,208.08,445.181,207.867,445.176,207.921L445.176,207.921z"/>
			</g>
			<g>
				<path fill="#FFFFFF" d="M395.979,268.004c-6.797,1.928-13.834,2.221-20.844,2.689c-0.447,0.03,0.445,0.726,0.777,0.703
					c7.01-0.47,14.047-0.763,20.844-2.689C397.232,268.572,396.302,267.913,395.979,268.004L395.979,268.004z"/>
			</g>
		</g>
	</g>
	<g>
		<g>
			<path fill="#FFFFFF" d="M19.081,137.522c-5.587-4.204-11.28-8.253-17.136-12.075c-0.147,0.292-0.295,0.583-0.442,0.874
				c4.742,1.9,9.393,4.015,14.248,5.619c0.048-0.323,0.097-0.646,0.145-0.968c-5.628-0.669-10.576-3.674-15.039-7.001
				c-0.49-0.365-1.163,0.24-0.705,0.719c3.25,3.401,6.105,7.152,7.819,11.567c0.185,0.477,1.135,0.623,1.138-0.035
				c0.016-3.401,3.159-4.488,6.063-4.257c0.763,0.061,0.692-0.943-0.009-0.999c-3.515-0.279-7.194,1.19-7.212,5.162
				c0.379-0.012,0.758-0.023,1.138-0.035c-1.78-4.585-4.736-8.498-8.113-12.031c-0.235,0.24-0.47,0.479-0.705,0.719
				c4.643,3.461,9.791,6.496,15.633,7.19c0.673,0.08,0.729-0.775,0.145-0.968c-4.855-1.604-9.506-3.719-14.248-5.619
				c-0.604-0.242-0.98,0.522-0.442,0.874c5.855,3.821,11.549,7.871,17.136,12.075C19.062,138.758,19.684,137.977,19.081,137.522
				L19.081,137.522z"/>
		</g>
		<g>
			<path fill="#FFFFFF" d="M34.338,149.62c-2.881-2.379-5.787-4.727-8.721-7.041c-0.232-0.183-1.211,0.297-1.056,0.42
				c2.934,2.313,5.84,4.661,8.721,7.041C33.508,150.225,34.496,149.75,34.338,149.62L34.338,149.62z"/>
		</g>
		<g>
			<path fill="#FFFFFF" d="M55.65,158.768c-2.583-1.904-5.229-3.545-8.207-4.761c-0.352-0.144-0.842,0.019-0.775,0.473
				c0.4,2.705,0.998,5.373,1.397,8.077c0.303-0.13,0.606-0.261,0.91-0.392c-3.12-2.76-6.264-5.492-9.435-8.194
				c-0.542-0.461-1.266,0.254-0.687,0.748c3.17,2.701,6.314,5.434,9.435,8.194c0.333,0.294,0.984,0.11,0.91-0.392
				c-0.4-2.705-0.998-5.373-1.397-8.077c-0.259,0.157-0.517,0.315-0.775,0.473c2.87,1.172,5.448,2.762,7.938,4.599
				C55.531,159.935,56.266,159.222,55.65,158.768L55.65,158.768z"/>
		</g>
		<g>
			<path fill="#FFFFFF" d="M73.509,174.743c-5.301-3.85-9.814-8.655-14.72-12.974c-0.097-0.085,0.349,0.716,0.525,0.871
				c4.938,4.346,9.482,9.174,14.817,13.05C73.994,175.59,73.784,174.942,73.509,174.743L73.509,174.743z"/>
		</g>
	</g>
	<g>
		<g>
			<path fill="#FFFFFF" d="M544.657,174.485c0.002,7.01,0.033,14.033,1.232,20.961c0.064,0.372,1.211,0.125,1.143-0.27
				c-1.199-6.927-1.23-13.95-1.232-20.961C545.8,173.878,544.657,174.063,544.657,174.485L544.657,174.485z"/>
		</g>
		<g>
			<path fill="#FFFFFF" d="M535.771,184.638c6.586-0.644,13.164,0.61,19.728-0.411c-0.09,0.015-0.505-0.896-0.813-0.848
				c-6.56,1.02-13.146-0.232-19.728,0.411C535.068,183.78,535.449,184.67,535.771,184.638L535.771,184.638z"/>
		</g>
	</g>
	<g>
		<g>
			<path fill="#FFFFFF" d="M33.291,183.984c0.002,7.01,0.033,14.033,1.233,20.961c0.018,0.104,1.089-0.257,1.039-0.547
				c-1.2-6.927-1.231-13.95-1.233-20.961C34.33,183.394,33.291,183.655,33.291,183.984L33.291,183.984z"/>
		</g>
		<g>
			<path fill="#FFFFFF" d="M24.094,194.137c6.585-0.644,13.163,0.61,19.728-0.411c0.688-0.106,0.355-1.228-0.293-1.127
				c-6.557,1.02-13.146-0.232-19.728,0.411C23.111,193.078,23.444,194.201,24.094,194.137L24.094,194.137z"/>
		</g>
	</g>
	<g>
		<path fill="#FFFFFF" d="M463.296,109.256c0.381,0,0.529-0.476,0.066-0.476C462.981,108.781,462.833,109.256,463.296,109.256
			L463.296,109.256z"/>
	</g>
	<g>
		<path fill="#FFFFFF" d="M86.182,138.636c0.241,0,0.729-0.367,0.27-0.367C86.21,138.269,85.722,138.636,86.182,138.636
			L86.182,138.636z"/>
	</g>
	<g>
		<g>
			<path fill="#FFFFFF" d="M263.937,61.269c1.536-11.967,18.596-14.196,28.061-14.142c9.581,0.055,25.537,3.658,23.771,16.328
				c-0.094,0.67,1.914,0.269,2.027-0.308c3.862-19.576,33.353-22.901,49.447-21.715c13.403,0.987,24.324,5.598,34.14,14.766
				c8.769,8.191,14.07,19.186,14.582,31.174c0.02,0.46,1.222,0.114,1.398,0.053c9.784-3.373,19.893,4.522,26.506,10.869
				c6.296,6.041,12.191,13.803,14.681,22.271c0.175,0.596,2.211,0.031,2.041-0.547c-2.979-10.135-10.66-19.156-18.566-25.863
				c-6.992-5.932-16.228-10.551-25.417-7.383c0.466,0.018,0.933,0.036,1.398,0.053c-0.589-13.831-7.528-25.409-17.921-34.23
				c-10.454-8.875-22.787-12.031-36.305-12.393c-15.884-0.426-44.262,4.245-48.012,23.253c0.676-0.103,1.352-0.205,2.027-0.308
				c1.925-13.803-15.691-16.958-25.862-17.017c-9.932-0.057-28.422,2.963-30.023,15.446
				C261.823,62.248,263.862,61.852,263.937,61.269L263.937,61.269z"/>
		</g>
		<g>
			<path fill="#FFFFFF" d="M470.027,148.956c23.213,9.403,17.475,52.513-5.579,58.524c-0.386,0.101-1.469,0.892-0.498,1.027
				c18.821,2.629,18.895,22.147,13.017,36.308c-3.933,9.473-10.96,15.854-19.902,20.726c-6.966,3.795-15.374,6.13-23.267,4.604
				c-6.025-1.164-11.402-4.51-17.438-5.725c-0.622-0.125-2.406,0.847-1.258,1.078c7.087,1.426,13.335,5.306,20.566,6.225
				c5.498,0.697,11.38-0.994,16.491-2.827c10.45-3.746,19.813-10.876,25.103-20.686c8.003-14.841,8.802-37.866-12.054-40.78
				c-0.166,0.343-0.332,0.685-0.498,1.027c23.997-6.259,31.877-50.368,6.948-60.466C471.066,147.751,469.2,148.621,470.027,148.956
				L470.027,148.956z"/>
		</g>
		<g>
			<path fill="#FFFFFF" d="M230.535,80.94c-11.017-5.073-30.672-1.697-35.648,10.655c-0.296,0.735,1.759,0.495,2.05-0.226
				c4.447-11.04,22.193-13.896,31.989-9.385C229.585,82.289,231.44,81.356,230.535,80.94L230.535,80.94z"/>
		</g>
		<g>
			<path fill="#FFFFFF" d="M91.905,226.661c-9.742-5.139-13.96-15.598-10.63-26.071c3.491-10.983,14.394-15.976,25.127-12.566
				c0.307-0.502,0.615-1.003,0.922-1.505c-28.391-4.108-15.954-50.539,10.977-42.334c0.934,0.284,2.407-1.063,1.16-1.443
				c-13.588-4.14-25.537,4.008-29.477,17.167c-3.945,13.175,2.645,26.149,16.655,28.177c0.808,0.117,2.116-1.126,0.922-1.505
				c-11.44-3.634-22.63,0.966-27.604,12.029c-5.132,11.415,0.056,23.835,10.786,29.495C91.633,228.572,93.07,227.275,91.905,226.661
				L91.905,226.661z"/>
		</g>
		<g>
			<path fill="#FFFFFF" d="M160.019,267.294c11.76,6.279,44.254,8.228,46.929-9.999c-0.656,0.176-1.313,0.352-1.969,0.527
				c7.444,6.194,17.616,5.85,24.44-1.021c-0.654,0.096-1.308,0.192-1.962,0.288c-0.378,15.658,17.496,20.104,30.043,20.128
				c12.161,0.024,30.448-4.083,34.621-17.417c-0.656,0.176-1.313,0.352-1.969,0.527c5.571,3.423,11.76,2.332,17.227-0.767
				c-0.544-0.031-1.088-0.062-1.632-0.093c-1.251,10.489,11.449,16.915,19.809,19.438c10.582,3.194,20.723-1.851,27.864-9.58
				c0.54-0.584-1.484-0.4-1.881,0.029c-4.914,5.318-10.858,9.204-18.31,9.542c-3.944,0.179-7.951-1.38-11.497-2.932
				c-6.513-2.849-14.921-8.688-13.954-16.793c0.083-0.695-1.363-0.245-1.632-0.093c-4.563,2.586-9.49,3.312-14.088,0.487
				c-0.484-0.298-1.772-0.1-1.969,0.527c-4.104,13.111-21.84,16.293-33.64,16.07c-11.874-0.225-27.293-5.402-26.95-19.623
				c0.016-0.68-1.765,0.09-1.962,0.288c-6.059,6.101-14.426,5.411-20.652,0.231c-0.396-0.33-1.881-0.068-1.969,0.527
				c-2.477,16.879-32.163,14.711-43.253,8.79C161.144,266.103,159.252,266.885,160.019,267.294L160.019,267.294z"/>
		</g>
		<g>
			<path fill="#FFFFFF" d="M190.03,81.278c1.537-3.623,7.338-5.926,10.854-5.674c0.417,0.03,2.336-0.735,1.331-0.807
				c-2.998-0.215-5.865,0.64-8.52,1.984c-2.009,1.017-4.751,2.684-5.676,4.866C187.887,81.958,189.813,81.788,190.03,81.278
				L190.03,81.278z"/>
		</g>
		<g>
			<path fill="#FFFFFF" d="M310.482,42.416c0.417,0,2.322-0.816,1.328-0.816C311.394,41.6,309.488,42.416,310.482,42.416
				L310.482,42.416z"/>
		</g>
		<g>
			<path fill="#FFFFFF" d="M311.151,42.578c3.41,0.615,5.833,2.456,6.49,5.965c0.137,0.732,2.187,0.229,2.041-0.547
				c-0.722-3.857-3.573-5.889-7.289-6.559c-0.49-0.088-1.071,0.044-1.444,0.387C310.64,42.109,310.716,42.5,311.151,42.578
				L311.151,42.578z"/>
		</g>
		<g>
			<path fill="#FFFFFF" d="M402.246,74.299c3.92,2.78,5.359,7.084,4.337,11.723c-0.106,0.484,1.901,0.165,2.016-0.352
				c1.052-4.77-0.402-9.218-4.431-12.075C403.692,73.258,401.932,74.076,402.246,74.299L402.246,74.299z"/>
		</g>
		<g>
			<path fill="#FFFFFF" d="M462.999,110.014c2.693,2.773,4.822,6.091,5.571,9.924c0.106,0.549,2.159,0.058,2.041-0.547
				c-0.761-3.899-2.963-7.297-5.7-10.116C464.492,108.844,462.581,109.583,462.999,110.014L462.999,110.014z"/>
		</g>
		<g>
			<path fill="#FFFFFF" d="M473.57,188.645c-1.351,6.07-6.063,9.225-11.308,11.879c-1.249,0.632-0.122,1.618,0.879,1.111
				c5.79-2.929,11.002-6.483,12.491-13.172C475.844,187.515,473.761,187.792,473.57,188.645L473.57,188.645z"/>
		</g>
		<g>
			<path fill="#FFFFFF" d="M460.034,219.093c6.851-0.936,9.564,5.842,8.542,11.571c-0.117,0.659,1.922,0.296,2.029-0.303
				c0.573-3.214,0.224-6.445-1.614-9.202c-1.922-2.882-5.442-3.459-8.631-3.023C459.448,218.26,458.608,219.289,460.034,219.093
				L460.034,219.093z"/>
		</g>
		<g>
			<path fill="#FFFFFF" d="M330.344,271.601c4.567,1.383,9.541,0.292,13.035-2.978c0.402-0.376-1.497-0.136-1.84,0.186
				c-2.73,2.555-6.015,3.091-9.51,2.032C331.583,270.707,329.791,271.434,330.344,271.601L330.344,271.601z"/>
		</g>
		<g>
			<path fill="#FFFFFF" d="M168.197,261.164c4.764,4.296,12.166,3.765,17.884,1.99c1.239-0.384,0.877-1.792-0.376-1.402
				c-5.172,1.604-11.629,2.114-15.935-1.768C169.095,259.375,167.316,260.371,168.197,261.164L168.197,261.164z"/>
		</g>
		<g>
			<path fill="#FFFFFF" d="M95.242,193.691c-7.816,1.104-10.869,11.229-6.12,17.165c0.391,0.489,2.352-0.206,1.905-0.764
				c-3.46-4.325-2.809-14.452,3.901-15.401C95.856,194.56,96.664,193.49,95.242,193.691L95.242,193.691z"/>
		</g>
		<g>
			<path fill="#FFFFFF" d="M99.233,138.477c-6.567,0.228-9.371,5.911-11.433,11.369c-0.27,0.712,1.78,0.459,2.045-0.242
				c1.481-3.92,3.623-9.75,8.606-9.923C99.233,139.654,100.608,138.429,99.233,138.477L99.233,138.477z"/>
		</g>
		<g>
			<path fill="#FFFFFF" d="M84.146,139.179c-2.991,2.472-5.013,5.609-5.113,9.567c-0.006,0.243,2.028-0.003,2.042-0.547
				c0.096-3.826,2.015-6.83,4.907-9.221C86.371,138.658,84.503,138.884,84.146,139.179L84.146,139.179z"/>
		</g>
	</g>
	<g>
		<path fill="#FFFFFF" d="M274.2,103.996c11.531-17.36,33.913-13.841,46.323,0.523c0.56,0.647,3.157-0.307,2.539-1.022
			c-13.681-15.836-39.049-18.033-51.375,0.523C271.042,104.992,273.756,104.664,274.2,103.996L274.2,103.996z"/>
	</g>
	<g>
		<path fill="#FFFFFF" d="M283.818,86.29c8.116-6.199,17.849-2.967,26.249,0.865c0.851,0.388,3.333-0.825,2.154-1.363
			c-9.711-4.43-20.889-7.434-30.114-0.388C280.641,86.524,282.937,86.963,283.818,86.29L283.818,86.29z"/>
	</g>
	<g>
		<path fill="#FFFFFF" d="M389.946,113.141c1.293,13.962,3.028,27.911,2.504,41.959c-0.017,0.445,2.691,0.089,2.723-0.729
			c0.524-14.049-1.211-27.998-2.504-41.96C392.618,111.869,389.877,112.386,389.946,113.141L389.946,113.141z"/>
	</g>
	<g>
		<path fill="#FFFFFF" d="M399.538,118.797c0.123-0.621,0.49-1.158,0.566-1.784c0.055-0.445-1.703,0.022-1.829,0.064
			c-1.932,0.643-1.447,2.045-1.292,3.819c0.286,3.281,1.039,6.474,1.104,9.781c0.009,0.446,2.737,0.033,2.723-0.729
			c-0.021-1.097-1.496-12.302-1.598-12.269c-0.609,0.021-1.22,0.042-1.829,0.064c-0.064,0.522-0.424,1.012-0.528,1.539
			C396.733,119.892,399.408,119.455,399.538,118.797L399.538,118.797z"/>
	</g>
	<g>
		<path fill="#FFFFFF" d="M451.329,159.59c-3.023,0.123-6.065,1.363-7.259,4.368c-1.35,3.396-0.592,7.454,1.707,10.258
			c3.088,3.766,7.955,4.913,12.123,2.189c3.356-2.193,5.386-6.592,4.611-10.555c-1.076-5.498-7.653-6.092-12.153-5.617
			c-1.336,0.141-2.252,1.729-0.365,1.529c3.646-0.385,8.069,0.081,9.56,3.987c1.075,2.816-0.043,6.1-1.806,8.369
			c-2.054,2.645-4.931,2.831-7.559,0.863c-2.077-1.555-3.339-3.722-3.877-6.238c-0.628-2.936,0.286-7.441,3.965-7.59
			C451.29,161.114,453.162,159.516,451.329,159.59L451.329,159.59z"/>
	</g>
	<g>
		<path fill="#FFFFFF" d="M191.612,48.459c8.184,6.184,18.756,8.719,27.756,13.485c0.437,0.231-1.435-1.912-2.071-2.249
			c-8.568-4.537-18.892-6.94-26.664-12.813C188.883,45.559,191.087,48.062,191.612,48.459L191.612,48.459z"/>
	</g>
	<g>
		<path fill="#FFFFFF" d="M233.4,52.049c-10.748-19.305-28.69-33.567-41.031-51.769c-0.256-0.378-1.353-0.419-0.959,0.162
			c12.293,18.131,30.209,32.338,40.915,51.566C232.537,52.391,233.683,52.556,233.4,52.049L233.4,52.049z"/>
	</g>
	<g>
		<path fill="#FFFFFF" d="M245.967,47.739c-1.348-11.894-3.208-23.718-6.899-35.135c-0.102-0.315-1.244-0.389-1.138-0.061
			c3.678,11.373,5.535,23.158,6.878,35.007C244.851,47.927,245.996,47.994,245.967,47.739L245.967,47.739z"/>
	</g>
	<g>
		<path fill="#FFFFFF" d="M259.072,47.223c3.653-6.179,6.195-12.625,10.633-18.345c0.267-0.344-0.833-0.71-1.066-0.409
			c-4.456,5.743-6.963,12.137-10.633,18.345C257.773,47.208,258.887,47.537,259.072,47.223L259.072,47.223z"/>
	</g>
	<g>
		<g>
			<path fill="#FFFFFF" d="M45.776,230.579c7.845-5.651,14.511-12.755,22.392-18.353c0.401-0.285-0.182-0.578-0.488-0.361
				c-7.881,5.599-14.547,12.702-22.392,18.353C44.889,230.504,45.471,230.798,45.776,230.579L45.776,230.579z"/>
		</g>
		<g>
			<path fill="#FFFFFF" d="M66.941,211.284c-6.175-3.049-11.909-1.278-17.509,2.174c-5.667,3.492-13.34,9.422-15.798,15.812
				c-2.729,7.094,7.782,13.318,12.289,16.516c3.821,2.711,7.587,5.434,11.008,8.646c1.91,1.795,3.563,3.826,4.75,6.168
				c0.316,0.712,0.515,1.455,0.596,2.229c0.531,2.983-3.408,3.418-4.54,0.995c-0.099-0.211-0.802,0.028-0.725,0.193
				c0.803,1.719,3.344,3.534,5.027,1.563c4.426-5.181-5.886-12.882-9.177-15.495c-6.02-4.78-19.583-10.757-18.752-19.915
				c0.425-4.686,6.161-8.796,9.344-11.612c6.239-5.521,14.355-11.182,22.901-6.963C66.53,211.681,67.199,211.411,66.941,211.284
				L66.941,211.284z"/>
		</g>
		<g>
			<path fill="#FFFFFF" d="M34.197,233.823c-0.368-2.814-0.059-6.576,3.503-6.824c2.767-0.192,5.359,2.015,6.837,4.118
				c0.202,0.287,0.888-0.005,0.661-0.328c-1.803-2.566-4.829-4.75-8.114-4.282c-3.628,0.516-3.992,4.602-3.612,7.51
				C33.52,234.374,34.245,234.19,34.197,233.823L34.197,233.823z"/>
		</g>
		<g>
			<path fill="#FFFFFF" d="M59.927,218.398c4.672,3.55,9.104,7.306,13.202,11.508c3.462,3.55,8.045,8.213,8.018,13.5
				c-0.021,4.194-5.311,7.775-7.844,10.603c-3.702,4.13-7.344,8.238-11.61,11.805c-0.33,0.276,0.389,0.322,0.59,0.154
				c4.648-3.885,8.576-8.42,12.607-12.917c2.698-3.01,6.301-5.484,6.985-9.722c0.731-4.528-4.237-9.453-6.85-12.402
				c-4.3-4.854-9.379-8.991-14.527-12.903C60.285,217.862,59.625,218.168,59.927,218.398L59.927,218.398z"/>
		</g>
		<g>
			<path fill="#FFFFFF" d="M56.887,263.657c0.962-1.501,2.412-2.707,3.624-4.004c0.291-0.311-0.418-0.292-0.581-0.117
				c-1.24,1.327-2.73,2.567-3.716,4.107C56.031,263.926,56.76,263.856,56.887,263.657L56.887,263.657z"/>
		</g>
		<g>
			<path fill="#FFFFFF" d="M48.459,238.529c5.113-2.885,9.122-7.249,13.795-10.74c0.394-0.295-0.215-0.432-0.459-0.25
				c-4.671,3.49-8.686,7.858-13.795,10.74C47.573,238.52,48.204,238.672,48.459,238.529L48.459,238.529z"/>
		</g>
		<g>
			<path fill="#FFFFFF" d="M51.986,240.802c1.242-0.736,2.516-1.402,3.529-2.453c0.202-0.21-0.521-0.156-0.671,0
				c-0.938,0.973-2.152,1.582-3.301,2.264C51.123,240.863,51.767,240.932,51.986,240.802L51.986,240.802z"/>
		</g>
		<g>
			<path fill="#FFFFFF" d="M54.347,244.638c4.821-4.706,9.683-9.357,15.577-12.706c0.428-0.243,0.039-0.632-0.32-0.428
				c-6.002,3.411-10.955,8.13-15.863,12.921C53.416,244.742,54.117,244.863,54.347,244.638L54.347,244.638z"/>
		</g>
		<g>
			<path fill="#FFFFFF" d="M58.458,244.287c0.268,0,0.772-0.406,0.283-0.406C58.473,243.88,57.969,244.287,58.458,244.287
				L58.458,244.287z"/>
		</g>
		<g>
			<path fill="#FFFFFF" d="M59.256,244.059c2.318-1.742,4.189-4.09,6.979-5.117c0.479-0.176,0.036-0.375-0.276-0.26
				c-2.911,1.072-4.855,3.467-7.275,5.285C58.362,244.208,59.09,244.184,59.256,244.059L59.256,244.059z"/>
		</g>
		<g>
			<path fill="#FFFFFF" d="M59.36,247.976c0.757-0.191,1.445-0.704,2.081-1.135c0.903-0.611,1.773-1.279,2.615-1.973
				c0.327-0.27-0.395-0.294-0.586-0.137c-0.737,0.607-1.498,1.183-2.279,1.731c-0.573,0.403-1.243,0.95-1.934,1.126
				C58.817,247.701,58.923,248.087,59.36,247.976L59.36,247.976z"/>
		</g>
		<g>
			<path fill="#FFFFFF" d="M76.495,244.726c-2.404,0.719-4.817,0.835-7.113-0.294c-0.631-0.31-1.972-0.932-1.049-1.478
				c1.136-0.673,1.814-0.966,3.19-0.376c0.118,0.05,0.784-0.043,0.651-0.271c-0.33-0.569-0.606-1.128-0.708-1.783
				c-0.211-1.349,1.346-0.719,1.916-0.303c1.515,1.105,2.149,3.087,2.428,4.852c0.039,0.245,0.767,0.073,0.725-0.193
				c-0.319-2.014-1.581-5.638-4.191-5.676c-2.115-0.03-1.648,1.997-0.894,3.297c0.217-0.09,0.434-0.181,0.651-0.271
				c-2.263-0.969-2.912-0.085-4.91,0.887c-0.077,0.037-0.316,0.171-0.194,0.289c2.665,2.567,6.202,2.694,9.595,1.681
				C77.02,244.958,76.928,244.596,76.495,244.726L76.495,244.726z"/>
		</g>
	</g>
</g>
</svg>
