<?xml version="1.0" encoding="utf-8"?>
<!-- Generator: Adobe Illustrator 22.1.0, SVG Export Plug-In . SVG Version: 6.00 Build 0)  -->
<svg version="1.1" id="Layer_1" xmlns="http://www.w3.org/2000/svg" xmlns:xlink="http://www.w3.org/1999/xlink" x="0px" y="0px"
	 viewBox="0 0 555.6 279.7" style="enable-background:new 0 0 555.6 279.7;" xml:space="preserve">
<style type="text/css">
	.st0{fill:#039447;}
	.st1{fill:#118933;}
	.st2{fill:#046938;}
	.st3{fill:#2C9942;}
	.st4{fill:#FFFFFF;}
	.st5{opacity:0.8;}
	.st6{fill:#BBBDBF;}
	.st7{fill:#693516;}
	.st8{fill:#2A2641;}
	.st9{fill:#F47934;}
	.st10{fill:#F8BC82;}
	.st11{fill:#3B2416;}
	.st12{fill:#C0873D;}
	.st13{fill:#413E55;}
	.st14{fill:#E9AD77;}
</style>
<g>
	<g>
		<g>
			<g>
				<g>
					<path class="st0" d="M195.8,211.5c0.8,4.6-0.3,13,0.1,16.6c2.2-4.8,4.8-10.3,6.4-14.2c0.3-0.8,1.1-2.1,1.6-2.3
						c0.3-0.1,0.9-0.1,1.5-0.1c0.6,0.1,1.3,0.1,1.3,0.7c0,0.6-0.4,1.8-0.6,2.2c-1.2,2-5.8,11.8-7.9,15.1c0.5,1.1,1.3,2.1,2,3.1
						c3.3,4.7,4,6.6,6.7,11c0.3,0.4,1,1.7,0.8,2.5c-0.2,0.8-1.9,0.7-2.5,0.7c-1,0-1.6-0.9-2.2-2.1l-1.4-2.7
						c-1.6-3.2-3.6-6.1-5.7-8.9c-0.3,0.1-0.4,0.5-0.4,1c-0.2,3.3-0.3,8.7-0.3,10.7c0,1.9-0.8,2-1.9,2c-0.4,0-1.1-0.2-1.6-0.3
						c-0.2-0.1-0.3-0.7-0.3-1.4c0.3-6.9,0.8-25.9,0.8-30.4c0-0.6-0.2-2.6,0.3-2.9c0.5-0.4,0.8-0.6,1.5-0.6
						C194.3,211.3,194.9,211.4,195.8,211.5z"/>
				</g>
				<g>
					<g>
						<path class="st1" d="M191.8,212.6c0.7,5.1-0.4,10.4,0,15.5c0.3,3.7,5.8,6.1,7.7,2.1c1.4-3,2.7-5.9,4.1-8.9
							c0.6-1.3,1.2-2.7,1.8-4.1c0.1-0.3,0.3-0.7,0.4-1c1.1-1.5,0.5-1.9-2-1c-0.4-1.3-0.7-2.7-1.1-4c-0.5,2.7-2.4,5.3-3.6,7.7
							c-1.5,2.9-2.9,5.8-4.5,8.6c-0.7,1.3-0.8,2.9,0,4.1c1.7,2.8,3.6,5.3,5.3,8.1c0.9,1.5,3.6,4.8,3.7,6.4c0.4-1,0.8-1.9,1.2-2.9
							c1.7-1.4,2.2,0.2,1.3-1.5c-0.3-0.6-0.6-1.1-0.9-1.7c-1.7-3.1-3.6-6-5.7-8.9c-2.2-3-6.2-2.5-7.5,1c-0.9,2.2-0.7,4.8-0.7,7.2
							c0,1.3-0.1,5.3-0.1,5.2c0.8-0.6,1.6-1.3,2.5-1.9c-0.3,0-0.5,0-0.8,0c0.8,0.6,1.6,1.3,2.5,1.9c0.7,1.6,0.4-1.3,0.4-1.8
							c0.1-1.4,0.1-2.8,0.1-4.2c0.1-3.8,0.2-7.5,0.3-11.3c0.1-3,0.1-5.9,0.2-8.9c0-1,0-2,0-3c0-0.4,0-0.8,0-1.1
							c-0.1-2.2-3,1.1-0.4,1.4c5.3,0.7,5.2-7.6,0-8.2c-6.7-0.8-7.7,3.7-7.8,9.2c-0.1,6.9-0.3,13.8-0.5,20.7
							c-0.2,5.7-2,14.1,6.4,13.6c8.2-0.5,3.9-11.8,5.8-16.6c-2.5,0.3-5,0.7-7.5,1c2.6,3.6,4.9,7.3,7,11.2c2.1,3.8,4.7,4.7,8.8,4.1
							c10.3-1.6-4.5-20-6.4-23.1c0,1.4,0,2.8,0,4.1c2.2-3.8,4.1-7.8,6.1-11.7c1.6-3.3,4.5-7.1,1.8-10.5c-2.4-3.1-7.7-2.3-9.8,0.7
							c-3.2,4.7-5,10.8-7.4,16c2.6,0.7,5.1,1.4,7.7,2.1c-0.5-5.9,0.5-11.8-0.3-17.7C199,205.2,191.1,207.5,191.8,212.6z"/>
					</g>
				</g>
			</g>
			<g>
				<g>
					<path class="st0" d="M232.2,244.8c0,1.3-1,1.7-2.8,1.7c-0.7,0-0.9-0.6-1-1l-1.9-11.5l-7.5,0.1c0,0.2-0.1,0.4-0.1,0.6
						c-0.3,0.8-1.6,9.3-2.4,10.9c-0.4,0.3-2.3,0.9-3,0.9c-0.4,0-0.8-0.2-0.8-1.1c0-0.3,0-0.7,0.1-1.1c2-9.1,3.9-18.5,6.4-28
						c0.6-2,0.8-4.8,4.7-4.8c2.6,0,3.1,2.7,3.4,4.6c1.6,9.3,3.1,17.7,4.9,28.1C232.2,244.4,232.2,244.6,232.2,244.8z M226.1,231.5
						l-2.7-16.6c-0.9,2.4-2,8.3-3.9,16.6l6.4,0H226.1z"/>
				</g>
				<g>
					<g>
						<path class="st1" d="M228.2,243.7c0.8-0.4,1.6-0.7,2.5-1.1c0.6,0.8,1.3,1.6,1.9,2.5c-1.5-3.6-1.5-8.3-2.2-12.1
							c-0.3-1.8-2.3-3-4-3c-2.5,0-5,0-7.5,0.1c-1.7,0-3.6,1.2-4,3c-0.8,3.8-1.1,7.9-2.5,11.5c0.6-0.8,1.3-1.6,1.9-2.5
							c-1.2,0.5-1.7-0.3-0.4,0.2c1,1,1.9,1.9,2.9,2.9c-0.5-1.6,1.1-5.4,1.5-7c0.7-3.1,1.4-6.2,2.1-9.3c0.6-2.5,1.2-5,1.8-7.5
							c0.3-1.3,0.6-2.5,1-3.8c0.4-1.6,0.2-1-0.3-2.2c1.7,4.1,1.7,9.6,2.5,13.9c0.9,5.2,2.2,10.5,2.8,15.7c0.6,5.2,8.8,5.3,8.2,0
							c-0.6-6-2-12-3.1-17.9c-0.5-2.8-1-5.6-1.5-8.5c-0.4-2.2-0.5-5.5-1.9-7.4c-2.3-3.1-6.8-5.1-10.4-2.6c-4.1,2.9-4.6,7.9-5.7,12.4
							c-1.7,6.8-3.1,13.7-4.6,20.5c-0.8,3.6-1,9.1,4.3,9.1c8.4,0,8.1-9.2,9.4-15.3c-1.3,1-2.6,2-4,3c2.5,0,5,0,7.5-0.1
							c-1.3-1-2.6-2-4-3c0.6,3.8,1.2,7.6,1.9,11.4c1,6.3,10.5,4.7,11.8-0.6C237.3,240.7,229.4,238.5,228.2,243.7z"/>
					</g>
					<g>
						<path class="st1" d="M230,230.4c-0.9-5.5-1.8-11.1-2.7-16.6c-0.7-4.4-6.7-3.4-7.9,0c-1.9,5.3-2.7,11.2-3.9,16.6
							c-0.6,2.6,1.2,5.2,4,5.2c2.2,0,4.4,0,6.6,0c5.3,0,5.3-8.2,0-8.2c-2.2,0-4.4,0-6.6,0c1.3,1.7,2.6,3.5,4,5.2
							c1.2-5.5,2-11.3,3.9-16.6c-2.6,0-5.3,0-7.9,0c0.9,5.5,1.8,11.1,2.7,16.6C222.9,237.8,230.9,235.6,230,230.4z"/>
					</g>
				</g>
			</g>
			<g>
				<g>
					<path class="st0" d="M254.2,218.7c0,11-0.3,25.2-0.4,27.1c-0.7,0.5-1.8,0.7-2.6,0.7c-0.6,0-1.3-0.1-1.3-0.5l0.1-13.4
						c-1.6,0-6.9,0.1-8.4,0.1v3.4v4.9c0,2.4,0,5.2-1.5,5.5h-0.9c-0.9,0-1.5-0.4-1.5-1.4c0-6,0.1-10.7,0.1-14.5
						c0-14.8-0.1-16.6,0-17.8c0.1-0.9,1.1-0.9,2-0.9c0.8,0,2,0.4,2,0.9c-0.1,7.8-0.2,13.3-0.2,17.3c0.9-0.1,2.3-0.1,3.6-0.1
						c1.8,0,3.5,0,4.8,0.1l0.3-17.6c0-0.5,0.8-0.9,1.7-0.9c0.7,0,1.3,0.2,2.1,0.8C254.2,214.2,254.2,216.3,254.2,218.7z"/>
				</g>
				<g>
					<g>
						<path class="st1" d="M250.1,218.7c0,9-0.1,18-0.4,27.1c1-1.3,2-2.6,3-4c-0.8,0.5-1.6,0.6-2.4,0.4c1,0.4,1.9,0.8,2.9,1.2
							c-0.1-0.1-0.3-0.2-0.4-0.4c0.4,1,0.8,1.9,1.2,2.9c0-4.5,0-8.9,0.1-13.4c0-2.2-1.9-4.2-4.1-4.1c-2.8,0.1-5.6,0.1-8.4,0.1
							c-2.2,0-4.1,1.9-4.1,4.1c0,2.5,0,5,0,7.5c0,0.7,0,1.5,0,2.2c0.7,0,1.4,0,2.2-0.1c2,1.5,2.7,1.2,2.2-1c0-3.1,0-6.3,0.1-9.4
							c0-5,0-10,0-15c0-0.9,0-1.9,0-2.8c0-1.3,0.6-1.2-0.2,0.2c-0.8,0.6-1.6,1.3-2.5,1.9c-0.1-0.2-0.2-0.3-0.3-0.5
							c-0.4-1-0.8-1.9-1.2-2.9c-0.1,5.8-0.2,11.5-0.2,17.3c0,2.2,1.9,4.2,4.1,4.1c2.8-0.1,5.6-0.1,8.4,0c2.3,0.1,4.1-1.9,4.1-4.1
							c0.1-5.9,0.2-11.8,0.3-17.6c-0.4,1-0.8,1.9-1.2,2.9c-0.4,0.2-0.8,0.4-1.2,0.5c-0.7-1.2-1.4-2.4-2-3.5
							C250.1,214.4,250.1,216.5,250.1,218.7c0,5.3,8.2,5.3,8.2,0c0-4.8,0.8-10.1-5.2-11.2c-3.7-0.6-6.8,1.7-6.9,5.5
							c-0.1,5.7-0.2,11.4-0.3,17c1.4-1.4,2.7-2.7,4.1-4.1c-2.8-0.1-5.6-0.1-8.4,0c1.4,1.4,2.7,2.7,4.1,4.1c0-5.8,0.1-11.5,0.2-17.3
							c0.1-4.6-6.6-6.1-9.9-4.1c-4.1,2.4-2.4,11.7-2.4,15.4c0,6.4,0,12.8-0.1,19.2c0,4.5,1.7,7.4,6.5,7.4c7.6,0,5.6-12.8,5.6-17.8
							c-1.4,1.4-2.7,2.7-4.1,4.1c2.8,0,5.6,0,8.4-0.1c-1.4-1.4-2.7-2.7-4.1-4.1c0,3.8,0,7.6-0.1,11.5c0,5.4,3.9,7.7,9.1,5.7
							c1.8-0.7,3-2,3-4c0.3-9,0.4-18,0.4-27.1C258.3,213.4,250.1,213.4,250.1,218.7z"/>
					</g>
				</g>
			</g>
			<g>
				<g>
					<path class="st0" d="M286,246.7c0,1.4-0.2,2.7-0.2,2.7c0,0.6-1.1,0.7-1.6,0.7c-0.8,0-1.4-0.2-1.4-0.6l-0.1-3.2h-20.2l-0.1,3.2
						c0,0.4-0.7,0.6-1.4,0.6c-0.4,0-1.6-0.1-1.6-0.7c0,0-0.2-1.4-0.2-2.7c0-1.2,0.1-2.3,0.6-2.6c0.5-0.4,2.5-0.4,4.2-0.4h0.9
						c1.6-6.9,3.1-21.6,3.1-29v-0.6c0-1.1,0.8-2.1,2.5-2.1c2.5,0,8.3,0,8.8,0.2c1.1,0.4,1.4,0.9,1.4,2.6c0,10.9-0.2,23.9-0.2,27.3
						v1.6h0.8c1.7,0,3.6,0,4.2,0.4C285.8,244.5,286,245.5,286,246.7z M268.6,243.8h8.2V243c0.1-3.7,0.2-26.2,0.2-28.1
						c-1.1,0-2.3,0-5.3,0v0.5C271.7,226.7,269.8,238.1,268.6,243.8z"/>
				</g>
				<g>
					<g>
						<path class="st1" d="M281.8,246.7c0,0.9-0.1,1.8-0.2,2.7c0.4-1,0.8-1.9,1.2-2.9c-0.2,0.2-0.4,0.4-0.6,0.5
							c1-0.4,1.9-0.8,2.9-1.2c0.2,0.2,0.3,0.5,0.5,0.7c0.4,1,0.8,1.9,1.2,2.9c0-1.1-0.1-2.1-0.1-3.2c-0.1-2.2-1.8-4.1-4.1-4.1
							c-6.7,0-13.5,0-20.2,0c-2.3,0-4,1.9-4.1,4.1c0,1.1-0.1,2.1-0.1,3.2c0.4-1,0.8-1.9,1.2-2.9c0.2-0.2,0.3-0.5,0.5-0.7
							c1,0.4,1.9,0.8,2.9,1.2c-0.2-0.2-0.4-0.4-0.6-0.5c0.4,1,0.8,1.9,1.2,2.9c-0.1-0.9-0.5-2.4-0.1-3.2c-0.8,0.6-1.6,1.3-2.5,1.9
							c1.3-0.3,2.6-0.2,3.9-0.2c1.8,0,3.6-1.2,4-3c1.3-5.8,2-11.7,2.5-17.5c0.3-3.1,0.5-6.2,0.7-9.3c0-1.1,0.1-2.2,0.1-3.2
							c0-0.9-0.2-0.4-0.7,1.5c0.8,0,1.6,0,2.3,0c1.2,0,2.4,0,3.6,0.1c1.6,0.3,1.3-0.2-0.7-1.4c0,1.1,0,2.2,0,3.3
							c0,3.9,0,7.7-0.1,11.6c0,4.6-0.1,9.3-0.1,13.9c0,2.2,1.9,4.1,4.1,4.1c1.3,0,2.6-0.1,3.8,0.2c-0.8-0.6-1.6-1.3-2.5-1.9
							C281.8,246.4,281.8,246.6,281.8,246.7c0.4,5.2,8.6,5.3,8.2,0c-0.5-6.2-4-7-9.6-7c1.4,1.4,2.7,2.7,4.1,4.1
							c0-7.4,0.1-14.8,0.2-22.2c0-3.3,1.1-8.7-1.5-11.4c-2.3-2.4-5.3-2.1-8.3-2.2c-3,0-6.9-0.6-9.3,1.8c-2.2,2.2-1.8,5.4-1.9,8.2
							c-0.3,8.2-1.1,16.6-2.9,24.7c1.3-1,2.6-2,4-3c-2.7,0-7-0.5-8.6,2.4c-1.3,2.5-2,6.8-0.4,9.4c1.5,2.6,5.6,3.5,8.2,2
							c2.7-1.6,2.5-4.4,2.6-7.2c-1.4,1.4-2.7,2.7-4.1,4.1c6.7,0,13.5,0,20.2,0c-1.4-1.4-2.7-2.7-4.1-4.1c0.1,3.5,0.3,7.1,4.6,7.7
							c5.1,0.8,6.8-3,7-7.3C290.3,241.4,282,241.4,281.8,246.7z"/>
					</g>
					<g>
						<path class="st1" d="M268.6,247.9c2.7,0,5.5,0,8.2,0c2.2,0,4.1-1.9,4.1-4.1c0-9.6,0.2-19.3,0.2-28.9c0-2.2-1.9-4.1-4.1-4.1
							c-1.8,0-3.5,0-5.3,0c-2.2,0-4.1,1.9-4.1,4.1c0,9.3-1.1,18.6-2.9,27.8c-1.1,5.2,6.9,7.4,7.9,2.2c2-9.8,3.2-19.9,3.2-29.9
							c-1.4,1.4-2.7,2.7-4.1,4.1c1.8,0,3.5,0,5.3,0c-1.4-1.4-2.7-2.7-4.1-4.1c0,9.6-0.2,19.3-0.2,28.9c1.4-1.4,2.7-2.7,4.1-4.1
							c-2.7,0-5.5,0-8.2,0C263.3,239.7,263.3,247.9,268.6,247.9z"/>
					</g>
				</g>
			</g>
			<g>
				<g>
					<path class="st0" d="M310.3,213.7c0.1,1.6,0.1,7.9,0.1,14.8v5.6c0,6.4,0.2,12.2-1.1,12.2c-1.3,0-1.9-0.2-3.1-1
						c0,0,0.1-7.3,0.1-13.8c0-1.8,0.6-8.7,0.5-10.1l-9.5,23.9c-0.3,0.5-0.9,0.7-1.8,0.7c-1.7,0-3.9-0.9-3.9-1.8
						c-0.2-0.6-0.3-2.4-0.3-5.4c0-8.4,0.4-22.3,0.4-25.6c0.1-0.5,0.1-1.1,1.2-1.4c2.3-0.6,2.7,0.9,2.7,1.8v4.3
						c0,3.9-0.3,10.4-0.3,15.5c0,2.1-0.6,7-0.4,8.4c3.1-6.8,7.5-18.8,10.4-26.6c0.4-1.1,0.6-2.7,1.8-3.3
						C309,212.1,310.2,212.8,310.3,213.7z"/>
				</g>
				<g>
					<g>
						<path class="st1" d="M306.2,213.7c0.2,5.2,0.1,10.4,0.1,15.5c0,1.6,0,3.3,0,4.9c0,1.8,0,3.6,0,5.5c0,1,0,2-0.1,3
							c-0.4,2,0.3,1.8,2-0.8c0.7,1.2,1.4,2.4,2,3.5c0.1-7.9,0.7-16,0.6-23.9c0-4.9-6.4-5.2-8.1-1.1c-2.8,7.1-5.6,14.2-8.5,21.3
							c-0.3,0.6-0.5,1.3-0.8,1.9c-0.9,2.2,1.8-2.7,2-0.5c-0.3-3.6-0.1-7.2,0-10.8c0-3.8,0.1-7.6,0.2-11.4c0-2.1-0.4-5.1,0.2-7.1
							c-0.6,0.8-1.3,1.6-1.9,2.5c-2.6,1.6-2.5-4.3-2.5-1.5c0,0.9,0,1.7,0,2.6c0,2.7-0.1,5.4-0.2,8.1c-0.2,5.4-0.8,11.2-0.5,16.6
							c0.2,3.7,5.9,6.1,7.7,2.1c2-4.6,3.9-9.2,5.7-13.9c1.1-2.9,2.2-5.7,3.2-8.6c0.6-1.7,1.2-5.4,2.7-6.6c-1,0.4-1.9,0.8-2.9,1.2
							c-0.1-0.2-0.3-0.3-0.4-0.5c2.2,4.8,9.3,0.6,7.1-4.1c-1.2-2.6-5-4.2-7.8-3.4c-3.3,0.9-4.1,4.5-5.1,7.3
							c-3,8.2-5.9,16.4-9.5,24.4c2.6,0.7,5.1,1.4,7.7,2.1c-0.4-6.5,0.4-13.3,0.6-19.8c0.1-4,1.1-9.8-1.9-13
							c-2.1-2.2-5.7-1.6-7.9-0.1c-2.2,1.4-2.2,3.9-2.3,6.3c-0.1,7-0.3,14-0.3,21.1c0,6-0.8,11.3,5.8,13.4c4.8,1.5,7.4-1.6,9-5.5
							c2.9-7.3,5.8-14.6,8.7-21.9c-2.7-0.4-5.4-0.7-8.1-1.1c0,6.2-0.5,12.5-0.6,18.7c0,2.1-0.6,5.3,0.5,7.3c1.6,2.7,6,3.8,8.7,2.5
							c5-2.4,3.2-12.9,3.2-17.2c0-6.3,0.1-12.7-0.1-19C314.2,208.4,306,208.4,306.2,213.7z"/>
					</g>
				</g>
			</g>
			<g>
				<g>
					<path class="st0" d="M343,246.7c0,1.4-0.2,2.7-0.2,2.7c0,0.6-1.1,0.7-1.6,0.7c-0.8,0-1.4-0.2-1.4-0.6l-0.1-3.2h-20.2l-0.1,3.2
						c0,0.4-0.7,0.6-1.4,0.6c-0.4,0-1.6-0.1-1.6-0.7c0,0-0.2-1.4-0.2-2.7c0-1.2,0.1-2.3,0.6-2.6c0.5-0.4,2.5-0.4,4.2-0.4h0.9
						c1.6-6.9,3.1-21.6,3.1-29v-0.6c0-1.1,0.8-2.1,2.5-2.1c2.5,0,8.3,0,8.8,0.2c1.1,0.4,1.4,0.9,1.4,2.6c0,10.9-0.2,23.9-0.2,27.3
						v1.6h0.8c1.7,0,3.6,0,4.1,0.4C342.9,244.5,343,245.5,343,246.7z M325.6,243.8h8.2V243c0.1-3.7,0.2-26.2,0.2-28.1
						c-1.1,0-2.3,0-5.3,0v0.5C328.7,226.7,326.8,238.1,325.6,243.8z"/>
				</g>
				<g>
					<g>
						<path class="st1" d="M338.9,246.7c0,0.9-0.1,1.8-0.2,2.7c0.4-1,0.8-1.9,1.2-2.9c-0.2,0.2-0.4,0.4-0.6,0.5
							c1-0.4,1.9-0.8,2.9-1.2c0.2,0.2,0.3,0.5,0.5,0.7c0.4,1,0.8,1.9,1.2,2.9c0-1.1-0.1-2.1-0.1-3.2c-0.1-2.2-1.8-4.1-4.1-4.1
							c-6.7,0-13.5,0-20.2,0c-2.3,0-4,1.9-4.1,4.1c0,1.1-0.1,2.1-0.1,3.2c0.4-1,0.8-1.9,1.2-2.9c0.2-0.2,0.3-0.5,0.5-0.7
							c1,0.4,1.9,0.8,2.9,1.2c-0.2-0.2-0.4-0.4-0.6-0.5c0.4,1,0.8,1.9,1.2,2.9c-0.1-0.9-0.5-2.4-0.1-3.2c-0.8,0.6-1.6,1.3-2.5,1.9
							c1.3-0.3,2.6-0.2,3.9-0.2c1.8,0,3.6-1.2,4-3c1.3-5.8,2-11.7,2.5-17.5c0.3-3.1,0.5-6.2,0.7-9.3c0-1.1,0.1-2.2,0.1-3.2
							c0-0.9-0.2-0.4-0.7,1.5c0.8,0,1.6,0,2.3,0c1.2,0,2.4,0,3.6,0.1c1.6,0.3,1.3-0.2-0.7-1.4c0,1.1,0,2.2,0,3.3
							c0,3.9,0,7.7-0.1,11.6c0,4.6-0.1,9.3-0.1,13.9c0,2.2,1.9,4.1,4.1,4.1c1.3,0,2.6-0.1,3.8,0.2c-0.8-0.6-1.6-1.3-2.5-1.9
							C338.8,246.4,338.8,246.6,338.9,246.7c0.4,5.2,8.6,5.3,8.2,0c-0.5-6.2-4-7-9.6-7c1.4,1.4,2.7,2.7,4.1,4.1
							c0-7.4,0.1-14.8,0.2-22.2c0-3.3,1.1-8.7-1.5-11.4c-2.3-2.4-5.3-2.1-8.3-2.2c-3,0-6.9-0.6-9.3,1.8c-2.2,2.2-1.8,5.4-1.9,8.2
							c-0.3,8.2-1.1,16.6-2.9,24.7c1.3-1,2.6-2,4-3c-2.7,0-7-0.5-8.6,2.4c-1.3,2.5-2,6.8-0.4,9.4c1.5,2.6,5.6,3.5,8.2,2
							c2.7-1.6,2.5-4.4,2.6-7.2c-1.4,1.4-2.7,2.7-4.1,4.1c6.7,0,13.5,0,20.2,0c-1.4-1.4-2.7-2.7-4.1-4.1c0.1,3.5,0.3,7.1,4.6,7.7
							c5.1,0.8,6.8-3,7-7.3C347.3,241.4,339.1,241.4,338.9,246.7z"/>
					</g>
					<g>
						<path class="st1" d="M325.6,247.9c2.7,0,5.5,0,8.2,0c2.2,0,4.1-1.9,4.1-4.1c0-9.6,0.2-19.3,0.2-28.9c0-2.2-1.9-4.1-4.1-4.1
							c-1.8,0-3.5,0-5.3,0c-2.2,0-4.1,1.9-4.1,4.1c0,9.3-1.1,18.6-2.9,27.8c-1.1,5.2,6.9,7.4,7.9,2.2c2-9.8,3.2-19.9,3.2-29.9
							c-1.4,1.4-2.7,2.7-4.1,4.1c1.8,0,3.5,0,5.3,0c-1.4-1.4-2.7-2.7-4.1-4.1c0,9.6-0.2,19.3-0.2,28.9c1.4-1.4,2.7-2.7,4.1-4.1
							c-2.7,0-5.5,0-8.2,0C320.3,239.7,320.3,247.9,325.6,247.9z"/>
					</g>
				</g>
			</g>
			<g>
				<g>
					<path class="st0" d="M367.7,244.8c0,1.3-1,1.7-2.8,1.7c-0.7,0-0.9-0.6-1-1L362,234l-7.5,0.1c0,0.2-0.1,0.4-0.1,0.6
						c-0.3,0.8-1.6,9.3-2.4,10.9c-0.4,0.3-2.3,0.9-3,0.9c-0.4,0-0.8-0.2-0.8-1.1c0-0.3,0-0.7,0.1-1.1c2-9.1,3.9-18.5,6.4-28
						c0.6-2,0.8-4.8,4.7-4.8c2.6,0,3.1,2.7,3.4,4.6c1.6,9.3,3.1,17.7,4.9,28.1C367.7,244.4,367.7,244.6,367.7,244.8z M361.6,231.5
						l-2.7-16.6c-0.9,2.4-2,8.3-3.9,16.6l6.4,0H361.6z"/>
				</g>
				<g>
					<g>
						<path class="st1" d="M363.7,243.7c0.8-0.4,1.6-0.7,2.5-1.1c0.6,0.8,1.3,1.6,1.9,2.5c-1.5-3.6-1.5-8.3-2.2-12.1
							c-0.3-1.8-2.3-3-4-3c-2.5,0-5,0-7.5,0.1c-1.7,0-3.6,1.2-4,3c-0.8,3.8-1.1,7.9-2.5,11.5c0.6-0.8,1.3-1.6,1.9-2.5
							c-1.2,0.5-1.7-0.3-0.4,0.2c1,1,1.9,1.9,2.9,2.9c-0.5-1.6,1.1-5.4,1.5-7c0.7-3.1,1.4-6.2,2.1-9.3c0.6-2.5,1.2-5,1.8-7.5
							c0.3-1.3,0.6-2.5,1-3.8c0.4-1.6,0.2-1-0.3-2.2c1.7,4.1,1.7,9.6,2.5,13.9c0.9,5.2,2.2,10.5,2.8,15.7c0.5,5.2,8.8,5.3,8.2,0
							c-0.6-6-2-12-3.1-17.9c-0.5-2.8-1-5.6-1.5-8.5c-0.4-2.2-0.5-5.5-1.9-7.4c-2.3-3.1-6.8-5.1-10.4-2.6c-4.1,2.9-4.6,7.9-5.7,12.4
							c-1.7,6.8-3.1,13.7-4.6,20.5c-0.8,3.6-1,9.1,4.3,9.1c8.4,0,8.2-9.2,9.4-15.3c-1.3,1-2.6,2-4,3c2.5,0,5,0,7.5-0.1
							c-1.3-1-2.6-2-4-3c0.6,3.8,1.2,7.6,1.9,11.4c1,6.3,10.5,4.7,11.8-0.6C372.9,240.7,365,238.5,363.7,243.7z"/>
					</g>
					<g>
						<path class="st1" d="M365.6,230.4c-0.9-5.5-1.8-11.1-2.7-16.6c-0.7-4.4-6.7-3.4-7.9,0c-1.9,5.3-2.7,11.2-3.9,16.6
							c-0.6,2.6,1.2,5.2,4,5.2c2.2,0,4.4,0,6.6,0c5.3,0,5.3-8.2,0-8.2c-2.2,0-4.4,0-6.6,0c1.3,1.7,2.6,3.5,4,5.2
							c1.2-5.5,2-11.3,3.9-16.6c-2.6,0-5.3,0-7.9,0c0.9,5.5,1.8,11.1,2.7,16.6C358.5,237.8,366.4,235.6,365.6,230.4z"/>
					</g>
				</g>
			</g>
			<g>
				<g>
					<path class="st0" d="M387,212.9c0,0.3-0.5,1.5-0.9,1.5l-5.9,0.1c0,10.8-0.2,24.4-0.2,27.8v3.2c0,0.2-0.7,1.1-2.4,1.1
						c-1.8,0-2-0.7-2-1.6c0-0.6,0.1-1.3,0.1-2c0.1-3.6,0.2-25.3,0.2-28.5c-2.8,0.1-5.3,0.1-5.7-0.1c-0.7-0.1-0.8-1-0.8-1.8
						c0.1-0.5,0.6-1,1.3-1.2c2.5,0,14.9,0,15.4,0.2C386.4,211.9,387,212.6,387,212.9z"/>
				</g>
				<g>
					<g>
						<path class="st1" d="M383.1,211.9c0.1-0.1,0.1-0.2,0.2-0.3c1-0.4,1.9-0.8,2.9-1.2c-2,0-3.9,0.1-5.9,0.1
							c-2.2,0-4.1,1.8-4.1,4.1c0,7.6-0.1,15.1-0.2,22.7c0,1.8,0,3.6,0,5.4c0,0.6,0,1.2,0,1.7c-0.3,1.8,1,2,3.8,0.7
							c-0.1-0.9,0.1-1.9,0.1-2.9c0.1-9.2,0.2-18.4,0.2-27.7c0-2.2-1.9-4.1-4.1-4.1c-1.9,0-3.8,0.1-5.7-0.1c1,0.4,1.9,0.8,2.9,1.2
							c-0.2-0.2-0.4-0.4-0.7-0.6c0.4,1,0.8,1.9,1.2,2.9c-2.9,1.3-3.5,1.9-1.9,1.8c0.5,0,1.1,0,1.6,0c1.7,0,3.5,0,5.2,0
							c1.4,0,2.8,0,4.2,0c0.6,0,1.1,0,1.7,0c2.4,0.1-0.2,0.4-0.8-0.8c2.6,4.6,9.7,0.5,7.1-4.1c-3.1-5.5-13.6-3.4-18.9-3.4
							c-3.7,0-6.8,2.5-6.3,6.4c0.7,5.5,6.3,4.9,10.5,4.8c-1.4-1.4-2.7-2.7-4.1-4.1c0,6-0.1,12-0.1,18.1c0,4-1.7,13.4,1.4,16.5
							c2.5,2.4,7.3,2,9.6-0.3c1.9-1.9,1.4-4.6,1.4-7c0-9.1,0.2-18.2,0.2-27.3c-1.4,1.4-2.7,2.7-4.1,4.1c4.7-0.1,8.9,0.6,10.8-4.6
							C392.7,209,384.8,206.9,383.1,211.9z"/>
					</g>
				</g>
			</g>
		</g>
		<g>
			<g>
				<g>
					<path class="st0" d="M256.1,115.9c3.1,0,4.4,2,4.4,5.1c0.5,24.3,1.1,48.4,1.1,73.2c0,4.6,0,8.8-8,8.8c-1.4,0-2.5-0.5-2.7-2.1
						c0-67.6,0.5-70.7,0.3-72.2c-7.2,27.4-9.9,31.9-17,60.8c-1.6,3.5-5.8,4.3-9.6,4.3c-3.1,0-5.2-1.9-6.1-4.3
						c-5-12.2-13.4-36-18.4-51.4c-1.1-3.3-2-5.8-2-6.9c0,20.3,0.6,47.7,0.6,68.4c-0.5,2.4-3.8,2.9-6.3,2.9c-3.3,0-3.8-3.3-3.8-5.4
						c-0.3-3.8-0.3-61.9-0.5-78.2c1.3-2.5,4.6-3.3,7.7-3.3c3,0,4.9,0.6,6,1.1c15.4,45.1,24.1,69.9,24.1,69.9s15.3-55.4,17.8-61.6
						c1.3-3.1,1.7-6.3,6.1-7.9C252.5,116.4,253.2,115.9,256.1,115.9z"/>
				</g>
				<g>
					<g>
						<path class="st1" d="M256.1,120c1.1,0.1,0.9,30.6,1,33.6c0.2,12.2,0.4,24.5,0.4,36.7c0,2.7,1.3,8-2.3,8.5
							c-2.1,0.1-2.1,0.1-0.2,0.1c0-1.3,0-2.6,0-3.8c0-3,0-6,0-9c0-8.8,0-17.7,0.1-26.5c0-8.4,0.1-16.9,0.2-25.3c0-1.8,0.2-3.7,0-5.6
							c-0.4-4.4-6.8-5.8-8.1-1.1c-2.7,10.2-5.7,20.3-8.7,30.4c-1.3,4.3-2.5,8.6-3.7,12.9c-0.8,2.9-1.6,5.8-2.3,8.7
							c-0.7,2.7-1,8.5-3.9,9.5c-6.3,2.3-7.5-4-9.2-8.5c-2.1-5.5-4.1-11.1-6.1-16.7c-2.1-5.9-4.1-11.8-6.1-17.7
							c-1.6-4.7-4.4-10.2-5-15c-0.6-5.1-8.2-5.4-8.2,0c0,18.7,0.4,37.3,0.6,55.9c0,1.1,0.5,10.9,0.2,11c-2.3,0.8-2-1-2-2.5
							c-0.1-3.9-0.1-7.8-0.1-11.8c-0.1-12.9-0.1-25.8-0.2-38.6c0-5.8,0-11.7-0.1-17.5c0-2.3,0-4.6,0-6.9c0-1.7,0.4-0.7,2.2-0.9
							c2.2-0.3,4.3,0.1,6.2,0.9c-1-1-1.9-1.9-2.9-2.9c8,23.3,16,46.6,24.1,69.9c1.3,3.7,6.8,4.1,7.9,0c3-11,6.1-22,9.2-33
							c2-7.2,4.1-14.4,6.2-21.5c0.6-2.1,1.3-4.2,2-6.3C249,122.4,251,120.2,256.1,120c5.3-0.2,5.3-8.4,0-8.2
							c-4.9,0.2-11.1,1.7-13.8,6.2c-1.5,2.6-2.5,5.5-3.4,8.4c-2.3,7-4.3,14.1-6.3,21.2c-3.6,12.7-7.2,25.3-10.7,38
							c2.6,0,5.3,0,7.9,0c-4-11.4-7.9-22.9-11.9-34.4c-2.1-6-4.1-11.9-6.2-17.9c-1.2-3.4-2.3-6.9-3.5-10.3c-1-2.8-1.6-8.1-4.4-9.8
							c-4-2.4-10.1-2.2-14.3-0.6c-4.6,1.7-5.6,5.1-5.6,9.5c0.1,17.6,0.1,35.3,0.2,52.9c0,6.6,0,13.2,0.2,19.8c0,2.2,0.1,4.3,0.7,6.4
							c1.5,5.4,7.2,5.8,11.8,4.9c5.7-1.2,5.9-6.3,5.9-11c0-7.1-0.1-14.2-0.2-21.3c-0.2-14.2-0.4-28.4-0.4-42.6c-2.7,0-5.5,0-8.2,0
							c0.6,5.8,3.4,11.7,5.3,17.2c2.3,6.9,4.7,13.8,7.2,20.6c2.2,6.2,4.5,12.3,6.9,18.4c2.4,6.1,5.4,10.5,12.6,10.3
							c6.1-0.1,11.2-3,12.8-9.1c1.8-7.3,3.7-14.5,5.8-21.8c3.6-12.4,7.4-24.7,10.7-37.1c-2.7-0.4-5.4-0.7-8.1-1.1
							c0.3,2.7,0,5.6-0.1,8.3c-0.2,14.7-0.2,29.4-0.2,44.2c0,6.6,0,13.1,0,19.7c0,5.5,5.5,6.6,9.8,6c11.3-1.5,9.2-14,9.1-22.4
							c-0.1-14.8-0.4-29.5-0.7-44.3c-0.1-6.8,0-13.6-0.5-20.4c-0.3-4.9-3.8-7.5-8.4-8C250.9,111.3,250.9,119.5,256.1,120z"/>
					</g>
				</g>
			</g>
			<g>
				<g>
					<path class="st0" d="M321.3,155.1c0,28.1-4.6,48-21.2,48c-9.1,0-17.1-2.3-20.8-16.2c-1.7-6.8-2.8-16.7-2.8-25.9
						c0-6.1,0.2-12,0.2-16.5c0-10.5,4.1-30.3,24.7-30.3c11.5,0,18.9,11.7,19.5,21.7C320.8,142.6,321.3,149.1,321.3,155.1z
						 M311.1,157c0-9.1-0.3-20.4-1.4-25.9c-0.6-3.8-4.7-10.3-10.2-10.3c-6.8,0-12.9,6.1-12.9,38.3c0,11,1.3,37.8,12.6,37.8
						C308.2,197,311.1,176,311.1,157z"/>
				</g>
				<g>
					<g>
						<path class="st1" d="M317.2,155.1c0,9.5-0.4,19.1-2.6,28.4c-1.4,5.7-4,12.5-10,14.7c-5.6,2.1-14,0.6-17.7-4.3
							c-6.2-8-6.1-21.7-6.3-31.3c-0.3-12.9-2.6-33.2,10-41.6c7.4-4.9,17-3.4,22.1,3.8C318.7,133.1,317.1,145.5,317.2,155.1
							c0,5.3,8.3,5.3,8.2,0c-0.1-12,1.1-25.2-6.3-35.5c-6.5-9-17.4-11.5-27.7-8c-19.9,6.7-19,30.7-19.1,47.5
							c-0.1,12.3,0.3,27,6.7,38c4.7,8.1,14.2,10.6,23,10c21.5-1.6,22.9-31,23.3-46.9c0-1.7,0-3.4,0.1-5.1
							C325.4,149.8,317.2,149.8,317.2,155.1z"/>
					</g>
					<g>
						<path class="st1" d="M315.2,157c0-6.1-0.1-12.2-0.5-18.3c-0.3-4.2-0.5-8.9-2.4-12.6c-3.2-6.3-9.8-11.3-17.1-8.7
							c-13.7,4.9-12.6,28.7-12.7,39.8c-0.1,8.3,0.4,16.7,2,24.9c1.3,6.7,3.9,15.3,10.8,18.1C314.9,208.4,315.1,166.6,315.2,157
							c0-5.3-8.2-5.3-8.2,0c0,8.5-0.4,17-2.3,25.4c-0.5,2.3-3.1,13.3-7.4,9.8c-4.1-3.3-4.9-10.8-5.6-15.6
							c-0.9-5.7-1.1-11.6-1.1-17.4c0-8.2,0.2-16.5,2-24.5c0.7-3,2-7.4,4.2-9c0.5-0.4,1.8-0.7,1.8-0.7c3.5-0.4,5.9,3.4,6.9,6.3
							c1.1,3.3,1,7.2,1.1,10.6c0.3,5,0.3,10.1,0.3,15.1C307,162.3,315.2,162.3,315.2,157z"/>
					</g>
				</g>
			</g>
			<g>
				<g>
					<path class="st0" d="M382.9,120.5c0.2,3.9,0.2,19.8,0.2,37.1v14c0,16,0.5,30.6-2.8,30.6c-3.1,0-4.9-0.4-7.7-2.5
						c0,0,0.3-18.2,0.3-34.5c0-4.4,1.4-21.7,1.3-25.3l-23.8,59.9c-0.6,1.3-2.4,1.8-4.4,1.8c-4.2,0-9.8-2.3-9.8-4.4
						c-0.5-1.4-0.6-6-0.6-13.4c0-20.9,0.9-55.7,0.9-64c0.3-1.1,0.2-2.6,3-3.4c5.8-1.5,6.8,2.3,6.8,4.5v10.6c0,9.8-0.8,25.9-0.8,38.8
						c0,5.1-1.4,17.4-0.9,20.9c7.7-16.9,18.7-47,26-66.5c0.9-2.6,1.6-6.8,4.6-8.1C379.7,116.7,382.6,118.4,382.9,120.5z
						 M375.6,107.8c-0.8-1.4-2.2-2-3.9-2c-0.6,0-1.6,0-2,0.5c-2.2,2.4-5.3,3.6-9,3.6c-6.8,0-7.2-3.9-11.2-4.5c-2,0.1-3.3,0.5-3.3,2
						c0,4.5,5.2,8.3,14.9,8.3C372.3,115.7,375.6,107.8,375.6,107.8z"/>
				</g>
				<g>
					<g>
						<path class="st1" d="M378.8,120.5c0.5,14,0.2,28.1,0.2,42.2c0,6.1,0,12.2,0,18.2c0,4.6,0,9.3-0.3,13.9
							c-0.1,1.3-0.3,2.6-0.6,3.9c-0.2,0.7,0.1,0.4,0.7-0.7c-1.6,0-2.9-1-4.2-1.9c0.7,1.2,1.4,2.4,2,3.5c0.2-10.9,0.3-21.8,0.3-32.7
							c0-9,1.5-18,1.3-27.1c-0.1-4.9-6.4-5.3-8.1-1.1c-4.1,10.4-8.3,20.9-12.4,31.3c-2.7,6.9-5.5,13.8-8.2,20.7
							c-0.8,2-1.6,4-2.4,6.1c-0.2,0.5-0.4,1-0.6,1.5c0,0.1-0.1,0.2-0.1,0.3c0.6-1.6-4.5-1.9-5.5-2.4c-2.1-0.9-0.7,0-0.9-0.7
							c-0.2-0.6-0.1-1.3-0.2-1.9c-0.2-2.7-0.2-5.5-0.2-8.2c0-5.9,0-11.8,0.1-17.7c0.1-11.5,0.4-23,0.6-34.5
							c0.1-3.8,0.1-7.6,0.2-11.3c0-1.7-0.6-2.2,1.6-1.9c-0.1,0,0,1.7,0,2.4c0,9.4-0.1,18.7-0.4,28.1c-0.2,7.5-0.1,15.1-0.5,22.7
							c-0.3,5.9-1.4,12.1-0.9,18c0.3,3.6,5.8,6.2,7.7,2.1c5.5-12.1,10.3-24.5,15-37c2.6-6.7,5.1-13.5,7.6-20.2
							c1.1-3,2.2-6.1,3.4-9.1c0.6-1.5,1-3,1.5-4.6c0.3-1,2.8-3,3.4-0.9c1.5,5.1,9.5,2.9,7.9-2.2c-2-6.7-11.7-9.2-16.6-4.2
							c-2.5,2.5-3.1,6.5-4.2,9.7c-1.6,4.4-3.3,8.9-4.9,13.3c-6.4,17.1-12.6,34.4-20.2,51.1c2.6,0.7,5.1,1.4,7.7,2.1
							c-0.4-4.3,0.2-8.8,0.5-13.1c0.4-5.8,0.4-11.7,0.5-17.5c0.2-10.8,0.7-21.7,0.7-32.5c0-5.9,0.9-16.6-8.2-16.2
							c-10.8,0.5-9.8,8.9-9.9,17.1c-0.2,11-0.4,22.1-0.6,33.1c-0.2,11-0.9,22.4,0.1,33.4c0.4,4.2,2.3,6.7,6.3,8.4
							c4.6,2,11.6,3,15.2-1.3c2.2-2.7,3.2-7.2,4.4-10.3c6.8-17.1,13.6-34.3,20.4-51.4c-2.7-0.4-5.4-0.7-8.1-1.1
							c0.1,5.9-0.5,11.8-0.9,17.6c-0.5,7.8-0.4,15.5-0.4,23.3c-0.1,6.3-0.1,12.5-0.2,18.8c-0.1,6,12.1,8.8,15.8,4.9
							c4.2-4.5,3-14.5,3-20c0-6.6,0-13.2,0-19.8c0-14.7,0.4-29.4-0.2-44.1C386.8,115.3,378.6,115.2,378.8,120.5z"/>
					</g>
					<g>
						<path class="st1" d="M378.5,104.9c-2.3-2.9-6.6-4.1-10-2.6c-2.2,1-3.5,2.7-6,3.4c-2.7,0.7-5.1-0.3-7.2-1.8
							c-6.4-4.8-16.8-0.9-12.3,8c6.3,12.2,30.6,10.4,36-1.9c2.1-4.8-5-9-7.1-4.1c-3.1,7.1-15.8,7.9-21,3.2c-0.1-0.2-0.3-0.3-0.4-0.5
							c-0.3-1.1-0.8-0.7-1.3,1.2c0.6,0.2,1.4,0.9,1.9,1.3c2,1.6,4.2,2.5,6.8,2.9c2.7,0.4,5.4,0.1,8.1-0.6c1.9-0.5,5.3-4.1,6.6-2.5
							C376,114.8,381.8,109,378.5,104.9z"/>
					</g>
				</g>
			</g>
		</g>
		<g>
			<g>
				<g>
					<path class="st2" d="M191.6,209.1c0.8,4.6-0.3,13,0.1,16.6c2.2-4.8,4.8-10.3,6.4-14.2c0.3-0.8,1.1-2.1,1.6-2.3
						c0.3-0.1,0.9-0.2,1.5-0.1c0.6,0.1,1.3,0.1,1.3,0.7c0,0.6-0.4,1.8-0.6,2.2c-1.2,2-5.8,11.8-7.9,15.1c0.5,1.1,1.3,2.1,2,3.1
						c3.3,4.7,4,6.6,6.7,11c0.3,0.4,1,1.7,0.8,2.5c-0.3,0.8-1.9,0.7-2.5,0.7c-1,0-1.6-0.9-2.2-2.1l-1.4-2.7
						c-1.6-3.2-3.6-6.1-5.7-8.9c-0.3,0.1-0.4,0.5-0.4,1c-0.2,3.3-0.3,8.7-0.3,10.7c0,1.9-0.8,2-1.9,2c-0.4,0-1.1-0.2-1.6-0.2
						c-0.2-0.1-0.3-0.7-0.3-1.4c0.3-6.9,0.8-25.9,0.8-30.4c0-0.6-0.2-2.6,0.3-2.9c0.5-0.4,0.8-0.6,1.5-0.6
						C190.2,208.9,190.8,209,191.6,209.1z"/>
				</g>
				<g>
					<g>
						<path class="st2" d="M189.7,209.6c0.7,5.3-0.4,10.7,0.1,16.1c0.2,1.8,2.9,3.1,3.8,1c1.4-3,2.7-5.9,4.1-8.9
							c0.2-0.4,3.1-6.9,3.4-6.5c-0.2-0.7-0.4-1.3-0.5-2c-0.5,2.8-2.5,5.6-3.8,8.2c-1.5,2.9-2.9,5.8-4.5,8.6c-0.4,0.6-0.4,1.4,0,2.1
							c2.8,4.7,5.9,9.4,8.7,14.1c-2.6-4.1-4.6-8.5-7.5-12.5c-1.1-1.5-3.1-1.2-3.8,0.5c-1.4,3.5-0.7,8.4-0.8,12.2
							c0-1.6,0.7-7.1,0.7-10.1c0.1-4.5,0.2-9,0.3-13.6c0-1.8,0.1-3.6,0.1-5.3c0-2-0.7-2.7,1.6-2.4c2.6,0.3,2.6-3.8,0-4.1
							c-5.6-0.7-5.7,2.7-5.7,7.2c-0.1,6.9-0.3,13.8-0.5,20.7c-0.1,4.5-2.3,12,4.4,11.6c5.7-0.3,2.5-11.8,3.8-15.1
							c-1.3,0.2-2.5,0.3-3.8,0.5c2.6,3.6,4.9,7.3,7,11.2c1.6,2.9,3.2,3.6,6.5,3.1c6.9-1.1-6.4-18.1-7.6-20.1c0,0.7,0,1.4,0,2.1
							c2.2-3.8,4.1-7.8,6.1-11.7c1.1-2.1,3.9-5.7,2.1-8c-6-7.8-12.7,13.6-13.9,16.2c1.3,0.3,2.6,0.7,3.8,1
							c-0.5-5.7,0.6-11.4-0.2-17.2C193.3,205.9,189.3,207,189.7,209.6z"/>
					</g>
				</g>
			</g>
			<g>
				<g>
					<path class="st2" d="M228,242.3c0,1.3-1,1.7-2.8,1.7c-0.7,0-0.9-0.6-1-1l-1.9-11.5l-7.5,0c0,0.2-0.1,0.4-0.1,0.6
						c-0.3,0.8-1.6,9.3-2.4,10.9c-0.4,0.3-2.3,0.9-3,0.9c-0.4,0-0.8-0.3-0.8-1.1c0-0.3,0-0.7,0.1-1.1c2-9.1,3.9-18.5,6.4-28
						c0.6-2,0.8-4.8,4.7-4.8c2.6,0,3.1,2.7,3.4,4.6c1.6,9.3,3.1,17.7,4.9,28.1C228,241.9,228,242.1,228,242.3z M221.9,229l-2.7-16.6
						c-0.9,2.4-2,8.3-3.9,16.6l6.4,0H221.9z"/>
				</g>
				<g>
					<g>
						<path class="st2" d="M226.1,241.7c-0.2,0.8,0.1,0.8,0-0.1c-0.2-1.3-0.4-2.6-0.6-3.9c-0.4-2.2-0.7-4.5-1.1-6.7
							c-0.1-0.9-1.1-1.5-2-1.5c-2.5,0-5,0-7.5,0c-0.9,0-1.8,0.6-2,1.5c-0.4,2.1-0.8,4.2-1.2,6.3c-0.4,2-0.3,5.2-2.3,4.4
							c0.5,0.5,1,1,1.4,1.4c-0.6-2,1-6.1,1.5-8.1c0.7-3.1,1.4-6.2,2.1-9.3c0.6-2.5,1.2-5,1.8-7.5c0.3-1.3,0.6-2.5,1-3.8
							c0.1-0.4,1.8-6.6,3.6-2.2c1.7,4.1,1.7,9.6,2.5,13.9c0.9,5.4,2.3,10.8,2.8,16.2c0.3,2.6,4.4,2.6,4.1,0c-0.6-5.8-2-11.6-3-17.3
							c-0.5-2.8-1-5.6-1.5-8.5c-0.3-2-0.4-5.1-1.6-6.9c-1.7-2.3-5-3.7-7.6-1.9c-3.5,2.4-3.8,7.4-4.8,11.2
							c-1.7,6.8-3.1,13.7-4.6,20.5c-0.5,2.2-1.4,6.5,2.3,6.5c7,0,6.4-8.8,7.5-13.8c-0.7,0.5-1.3,1-2,1.5c2.5,0,5,0,7.5,0
							c-0.7-0.5-1.3-1-2-1.5c0.6,3.8,1.2,7.6,1.9,11.4c0.7,4.2,7,2.8,7.8-0.6C230.6,240.3,226.7,239.2,226.1,241.7z"/>
					</g>
					<g>
						<path class="st2" d="M223.9,228.5c-0.9-5.5-1.8-11.1-2.7-16.6c-0.4-2.2-3.3-1.7-4,0c-1.9,5.3-2.7,11.2-3.9,16.6
							c-0.3,1.3,0.6,2.6,2,2.6c2.2,0,4.4,0,6.6,0c2.7,0,2.7-4.1,0-4.1c-2.2,0-4.4,0-6.6,0c0.7,0.9,1.3,1.7,2,2.6
							c1.2-5.5,2-11.3,3.9-16.6c-1.3,0-2.6,0-4,0c0.9,5.5,1.8,11.1,2.7,16.6C220.4,232.2,224.3,231.1,223.9,228.5z"/>
					</g>
				</g>
			</g>
			<g>
				<g>
					<path class="st2" d="M250.1,216.2c0,11-0.3,25.2-0.4,27.1c-0.7,0.5-1.8,0.7-2.6,0.7c-0.6,0-1.3-0.1-1.3-0.5l0.1-13.4
						c-1.6,0-6.9,0.1-8.4,0.1v3.4v4.9c0,2.4,0,5.2-1.5,5.5h-0.9c-0.9,0-1.5-0.4-1.5-1.4c0-6,0.1-10.7,0.1-14.5
						c0-14.8-0.1-16.6,0-17.8c0.1-0.9,1.1-0.9,2-0.9c0.8,0,2,0.4,2,0.9c-0.1,7.8-0.2,13.3-0.2,17.3c0.9-0.1,2.3-0.1,3.6-0.1
						c1.8,0,3.5,0,4.8,0.1l0.3-17.6c0-0.5,0.8-0.9,1.7-0.9c0.7,0,1.3,0.2,2.1,0.8C250.1,211.7,250.1,213.8,250.1,216.2z"/>
				</g>
				<g>
					<g>
						<path class="st2" d="M248,216.2c0,9-0.1,18-0.4,27.1c0.5-0.7,1-1.3,1.5-2c-2.3-0.1-2.7,0.6-1.3,2.1c0-0.4,0-0.8,0-1.2
							c0-1.6,0-3.3,0-4.9c0-2.4,0-4.8,0-7.2c0-1.1-0.9-2.1-2.1-2.1c-2.8,0.1-5.6,0.1-8.4,0.1c-1.1,0-2.1,0.9-2.1,2.1
							c0,2.7,0,5.5,0,8.2c0,0.5,0.2,5.8,0.2,2.2c0-2.3,0-4.6,0-6.9c0-4.1,0-8.2,0-12.3c0-3.5-0.1-7,0-10.4c0-0.2,0-0.4,0-0.6
							c-0.2,2.3-0.1,4.6-0.2,6.9c0,3.4-0.1,6.8-0.1,10.2c0,1.1,0.9,2.1,2.1,2.1c2.8-0.1,5.6-0.1,8.4,0c1.1,0,2-1,2.1-2.1
							c0-2.8,0.1-5.6,0.1-8.3c0-2.1,0.1-4.2,0.1-6.4c0-0.6,0-1.3,0-1.9c0-1.9-0.3,0.1,0.7,0.6c-0.3-0.6-0.7-1.2-1-1.8
							C248,211.9,248,214.1,248,216.2c0,2.7,4.1,2.7,4.1,0c0-3.9,1.2-8.4-3.6-9.2c-2.4-0.4-4.3,1.2-4.3,3.5
							c-0.1,5.7-0.2,11.4-0.3,17c0.7-0.7,1.4-1.4,2.1-2.1c-2.8-0.1-5.6-0.1-8.4,0c0.7,0.7,1.4,1.4,2.1,2.1c0-5.8,0.1-11.5,0.2-17.3
							c0-3-4.8-3.5-6.8-2.4c-3,1.8-1.4,11.2-1.4,13.6c0,6.4,0,12.8-0.1,19.2c0,3.4,0.8,5.3,4.4,5.3c5.4,0,3.6-12.2,3.6-15.8
							c-0.7,0.7-1.4,1.4-2.1,2.1c2.8,0,5.6,0,8.4-0.1c-0.7-0.7-1.4-1.4-2.1-2.1c0,3.8,0,7.6-0.1,11.5c0,4.1,2.5,5.3,6.5,3.7
							c0.9-0.4,1.5-1,1.5-2c0.3-9,0.4-18,0.4-27.1C252.1,213.5,248,213.5,248,216.2z"/>
					</g>
				</g>
			</g>
			<g>
				<g>
					<path class="st2" d="M281.8,244.2c0,1.4-0.2,2.7-0.2,2.7c0,0.6-1.1,0.7-1.6,0.7c-0.8,0-1.4-0.2-1.4-0.6l-0.1-3.2h-20.2
						l-0.1,3.2c0,0.4-0.7,0.6-1.4,0.6c-0.4,0-1.6-0.1-1.6-0.7c0,0-0.2-1.4-0.2-2.7c0-1.2,0.1-2.3,0.6-2.6c0.5-0.4,2.5-0.4,4.2-0.4
						h0.9c1.6-6.9,3.1-21.6,3.1-29v-0.6c0-1.1,0.8-2.1,2.5-2.1c2.5,0,8.3,0,8.8,0.2c1.1,0.4,1.4,0.9,1.4,2.6
						c0,10.9-0.2,23.9-0.2,27.3v1.6h0.8c1.7,0,3.6,0,4.2,0.4C281.7,242,281.8,243,281.8,244.2z M264.5,241.3h8.2v-0.9
						c0.1-3.7,0.2-26.2,0.2-28.1c-1.1,0-2.3,0-5.3,0v0.5C267.6,224.2,265.7,235.6,264.5,241.3z"/>
				</g>
				<g>
					<g>
						<path class="st2" d="M279.8,244.2c0,0.4,0,0.9,0,1.3c-0.4,1-0.1,1.3,0.9,1.1c0-0.9-0.1-1.9-0.1-2.8c0-1.1-0.9-2.1-2.1-2.1
							c-6.7,0-13.5,0-20.2,0c-1.2,0-2,0.9-2.1,2.1c0,0.4,0,0.7,0,1.1c0,0.3,0,0.6,0,0.9c-0.3,0.9,0,1.1,1,0.7
							c-0.4-3,0.7-3.2,3.5-3.2c0.9,0,1.8-0.6,2-1.5c1.3-5.6,1.9-11.3,2.5-17c0.3-3.1,0.5-6.2,0.7-9.3c0.2-3.6-0.1-3.9,3.7-3.8
							c4.2,0,4.9-0.5,4.9,4.1c0,3.9,0,7.7-0.1,11.6c0,4.6-0.1,9.3-0.1,13.9c0,1.1,0.9,2.1,2.1,2.1
							C277.2,243.4,279.7,242.9,279.8,244.2c0.2,2.6,4.3,2.6,4.1,0c-0.4-5-3.1-5-7.6-5c0.7,0.7,1.4,1.4,2.1,2.1
							c0-7.4,0.1-14.8,0.2-22.2c0-2.6,1.1-7.8-0.9-9.9c-1.8-1.9-4.5-1.5-6.9-1.6c-2.3,0-6-0.7-7.8,1.2c-1.7,1.7-1.2,4.6-1.3,6.7
							c-0.3,8.4-1.1,17-3,25.2c0.7-0.5,1.3-1,2-1.5c-1.7,0-5.7-0.6-6.8,1.4c-1,1.9-1.6,5.3-0.4,7.3c1,1.7,3.7,2.2,5.4,1.2
							c1.9-1.1,1.5-3.5,1.6-5.4c-0.7,0.7-1.4,1.4-2.1,2.1c6.7,0,13.5,0,20.2,0c-0.7-0.7-1.4-1.4-2.1-2.1c0.1,2.7-0.2,5.3,3.1,5.7
							c3.7,0.6,4.3-2.5,4.4-5.3C284,241.6,279.9,241.6,279.8,244.2z"/>
					</g>
					<g>
						<path class="st2" d="M264.5,243.4c2.7,0,5.5,0,8.2,0c1.1,0,2.1-0.9,2.1-2.1c0-9.6,0.2-19.3,0.2-28.9c0-1.1-0.9-2.1-2.1-2.1
							c-1.8,0-3.5,0-5.3,0c-1.1,0-2.1,0.9-2.1,2.1c0,9.5-1.1,19-3,28.3c-0.5,2.6,3.4,3.7,4,1.1c2-9.7,3.2-19.5,3.2-29.4
							c-0.7,0.7-1.4,1.4-2.1,2.1c1.8,0,3.5,0,5.3,0c-0.7-0.7-1.4-1.4-2.1-2.1c0,9.6-0.2,19.3-0.2,28.9c0.7-0.7,1.4-1.4,2.1-2.1
							c-2.7,0-5.5,0-8.2,0C261.8,239.3,261.8,243.4,264.5,243.4z"/>
					</g>
				</g>
			</g>
			<g>
				<g>
					<path class="st2" d="M306.2,211.2c0.1,1.6,0.1,7.9,0.1,14.8v5.6c0,6.4,0.2,12.2-1.1,12.2c-1.3,0-1.9-0.2-3.1-1
						c0,0,0.1-7.3,0.1-13.8c0-1.8,0.6-8.7,0.5-10.1l-9.5,23.9c-0.3,0.5-0.9,0.7-1.8,0.7c-1.7,0-3.9-0.9-3.9-1.8
						c-0.2-0.6-0.3-2.4-0.3-5.4c0-8.4,0.4-22.3,0.4-25.6c0.1-0.5,0.1-1.1,1.2-1.4c2.3-0.6,2.7,0.9,2.7,1.8v4.3
						c0,3.9-0.3,10.4-0.3,15.5c0,2.1-0.6,7-0.4,8.4c3.1-6.8,7.5-18.8,10.4-26.6c0.4-1.1,0.6-2.7,1.8-3.3
						C304.9,209.7,306,210.4,306.2,211.2z"/>
				</g>
				<g>
					<g>
						<path class="st2" d="M304.1,211.2c0.2,5.2,0.1,10.4,0.1,15.5c0,1.6,0,3.3,0,4.9c0,1.8,0,3.6,0,5.5c0,1,0,2-0.1,3
							c0.3,1.9-0.1,2.3-1.1,0.9c0.3,0.6,0.7,1.2,1,1.8c0.1-7.9,0.7-16,0.6-23.9c0-2.5-3.2-2.6-4-0.5c-1.9,4.8-3.8,9.5-5.7,14.3
							c-1.1,2.7-2.2,5.4-3.2,8.2c-0.2,0.5-0.4,1-0.6,1.5c-1,2.4-1.9-4.5-1.9-4.2c0-1.4,0-2.8,0-4.2c0-5.2,0.1-10.4,0.2-15.6
							c0-1.8,0.1-3.7,0.1-5.5c0-2-0.2-1.7-0.2,0.1c0,8.8-1.2,17.8-0.7,26.5c0.1,1.9,2.9,3,3.8,1c2-4.4,3.7-8.9,5.5-13.4
							c1.1-2.9,2.2-5.7,3.2-8.6c0.5-1.3,1-2.6,1.4-3.9c-0.1,0.3,1.1-3.5,1.7-2.4c1.1,2.4,4.7,0.3,3.5-2.1c-0.9-1.8-3.5-3-5.5-2.5
							c-2.4,0.7-3,3.9-3.7,5.9c-3.1,8.4-6.1,16.8-9.7,24.9c1.3,0.3,2.6,0.7,3.8,1c-0.4-6.5,0.4-13.3,0.6-19.8
							c0.1-3.3,1.2-8.9-1.3-11.5c-1.5-1.5-3.9-0.8-5.4,0.2c-1.5,0.9-1.2,3-1.3,4.5c-0.1,7-0.3,14-0.3,21.1c0,4.9-1.1,9.7,4.3,11.5
							c3.7,1.2,5.3-1.2,6.4-4c2.9-7.3,5.8-14.6,8.7-21.9c-1.3-0.2-2.7-0.4-4-0.5c0,6.2-0.5,12.5-0.6,18.7c0,1.6-0.7,4.7,0.2,6.2
							c1,1.7,4.2,2.5,5.9,1.7c4-1.9,2.2-12.1,2.2-15.5c0-6.3,0.1-12.7-0.1-19C308.1,208.6,304,208.6,304.1,211.2z"/>
					</g>
				</g>
			</g>
			<g>
				<g>
					<path class="st2" d="M338.9,244.2c0,1.4-0.2,2.7-0.2,2.7c0,0.6-1.1,0.7-1.6,0.7c-0.8,0-1.4-0.2-1.4-0.6l-0.1-3.2h-20.2
						l-0.1,3.2c0,0.4-0.7,0.6-1.4,0.6c-0.4,0-1.6-0.1-1.6-0.7c0,0-0.2-1.4-0.2-2.7c0-1.2,0.1-2.3,0.6-2.6c0.5-0.4,2.5-0.4,4.2-0.4
						h0.9c1.6-6.9,3.1-21.6,3.1-29v-0.6c0-1.1,0.8-2.1,2.5-2.1c2.5,0,8.3,0,8.8,0.2c1.1,0.4,1.4,0.9,1.4,2.6
						c0,10.9-0.2,23.9-0.2,27.3v1.6h0.8c1.7,0,3.6,0,4.2,0.4C338.7,242,338.9,243,338.9,244.2z M321.5,241.3h8.2v-0.9
						c0.1-3.7,0.2-26.2,0.2-28.1c-1.1,0-2.3,0-5.3,0v0.5C324.6,224.2,322.7,235.6,321.5,241.3z"/>
				</g>
				<g>
					<g>
						<path class="st2" d="M336.8,244.2c0,0.4,0,0.9,0,1.3c-0.4,1-0.1,1.3,0.9,1.1c0-0.9-0.1-1.9-0.1-2.8c0-1.1-0.9-2.1-2.1-2.1
							c-6.7,0-13.5,0-20.2,0c-1.2,0-2,0.9-2.1,2.1c0,0.4,0,0.7,0,1.1c0,0.3,0,0.6,0,0.9c-0.3,0.9,0,1.1,1,0.7
							c-0.4-3,0.7-3.2,3.5-3.2c0.9,0,1.8-0.6,2-1.5c1.3-5.6,1.9-11.3,2.5-17c0.3-3.1,0.5-6.2,0.7-9.3c0.2-3.6-0.1-3.9,3.7-3.8
							c4.2,0,4.9-0.5,4.9,4.1c0,3.9,0,7.7-0.1,11.6c0,4.6-0.1,9.3-0.1,13.9c0,1.1,0.9,2.1,2.1,2.1
							C334.2,243.4,336.7,242.9,336.8,244.2c0.2,2.6,4.3,2.6,4.1,0c-0.4-5-3.1-5-7.6-5c0.7,0.7,1.4,1.4,2.1,2.1
							c0-7.4,0.1-14.8,0.2-22.2c0-2.6,1.1-7.8-0.9-9.9c-1.8-1.9-4.5-1.5-6.9-1.6c-2.3,0-6-0.7-7.8,1.2c-1.7,1.7-1.2,4.6-1.3,6.7
							c-0.3,8.4-1.1,17-3,25.2c0.7-0.5,1.3-1,2-1.5c-1.7,0-5.7-0.6-6.8,1.4c-1,1.9-1.6,5.3-0.4,7.3c1,1.7,3.8,2.2,5.4,1.2
							c1.9-1.1,1.5-3.5,1.6-5.4c-0.7,0.7-1.4,1.4-2.1,2.1c6.7,0,13.5,0,20.2,0c-0.7-0.7-1.4-1.4-2.1-2.1c0.1,2.7-0.2,5.3,3.1,5.7
							c3.7,0.6,4.3-2.5,4.4-5.3C341,241.6,336.9,241.6,336.8,244.2z"/>
					</g>
					<g>
						<path class="st2" d="M321.5,243.4c2.7,0,5.5,0,8.2,0c1.1,0,2.1-0.9,2.1-2.1c0-9.6,0.2-19.3,0.2-28.9c0-1.1-0.9-2.1-2.1-2.1
							c-1.8,0-3.5,0-5.3,0c-1.1,0-2.1,0.9-2.1,2.1c0,9.5-1.1,19-3,28.3c-0.5,2.6,3.4,3.7,4,1.1c2-9.7,3.2-19.5,3.2-29.4
							c-0.7,0.7-1.4,1.4-2.1,2.1c1.8,0,3.5,0,5.3,0c-0.7-0.7-1.4-1.4-2.1-2.1c0,9.6-0.2,19.3-0.2,28.9c0.7-0.7,1.4-1.4,2.1-2.1
							c-2.7,0-5.5,0-8.2,0C318.9,239.3,318.9,243.4,321.5,243.4z"/>
					</g>
				</g>
			</g>
			<g>
				<g>
					<path class="st2" d="M363.6,242.3c0,1.3-1,1.7-2.8,1.7c-0.7,0-0.9-0.6-1-1l-1.9-11.5l-7.5,0c0,0.2-0.1,0.4-0.1,0.6
						c-0.3,0.8-1.6,9.3-2.4,10.9c-0.4,0.3-2.3,0.9-3,0.9c-0.4,0-0.8-0.3-0.8-1.1c0-0.3,0-0.7,0.1-1.1c2-9.1,3.9-18.5,6.4-28
						c0.6-2,0.8-4.8,4.7-4.8c2.6,0,3.1,2.7,3.4,4.6c1.6,9.3,3.1,17.7,4.9,28.1C363.6,241.9,363.6,242.1,363.6,242.3z M357.5,229
						l-2.7-16.6c-0.9,2.4-2,8.3-3.9,16.6l6.4,0H357.5z"/>
				</g>
				<g>
					<g>
						<path class="st2" d="M361.6,241.7c-0.2,0.8,0.1,0.8,0-0.1c-0.2-1.3-0.4-2.6-0.6-3.9c-0.4-2.2-0.7-4.5-1.1-6.7
							c-0.1-0.9-1.1-1.5-2-1.5c-2.5,0-5,0-7.5,0c-0.9,0-1.8,0.6-2,1.5c-0.4,2.1-0.8,4.2-1.2,6.3c-0.4,2-0.3,5.2-2.3,4.4
							c0.5,0.5,1,1,1.4,1.4c-0.6-2,1-6.1,1.5-8.1c0.7-3.1,1.4-6.2,2.1-9.3c0.6-2.5,1.2-5,1.8-7.5c0.3-1.3,0.6-2.5,1-3.8
							c0.1-0.4,1.8-6.6,3.6-2.2c1.7,4.1,1.7,9.6,2.5,13.9c0.9,5.4,2.3,10.8,2.8,16.2c0.3,2.6,4.4,2.6,4.1,0c-0.6-5.8-2-11.6-3-17.3
							c-0.5-2.8-1-5.6-1.5-8.5c-0.3-2-0.4-5.1-1.6-6.9c-1.7-2.3-5-3.7-7.6-1.9c-3.5,2.4-3.8,7.4-4.8,11.2
							c-1.7,6.8-3.1,13.7-4.6,20.5c-0.5,2.2-1.4,6.5,2.3,6.5c7,0,6.4-8.8,7.5-13.8c-0.7,0.5-1.3,1-2,1.5c2.5,0,5,0,7.5,0
							c-0.7-0.5-1.3-1-2-1.5c0.6,3.8,1.2,7.6,1.9,11.4c0.7,4.2,7,2.8,7.8-0.6C366.2,240.3,362.2,239.2,361.6,241.7z"/>
					</g>
					<g>
						<path class="st2" d="M359.5,228.5c-0.9-5.5-1.8-11.1-2.7-16.6c-0.4-2.2-3.3-1.7-4,0c-1.9,5.3-2.7,11.2-3.9,16.6
							c-0.3,1.3,0.6,2.6,2,2.6c2.2,0,4.4,0,6.6,0c2.7,0,2.7-4.1,0-4.1c-2.2,0-4.4,0-6.6,0c0.7,0.9,1.3,1.7,2,2.6
							c1.2-5.5,2-11.3,3.9-16.6c-1.3,0-2.6,0-4,0c0.9,5.5,1.8,11.1,2.7,16.6C355.9,232.2,359.9,231.1,359.5,228.5z"/>
					</g>
				</g>
			</g>
			<g>
				<g>
					<path class="st2" d="M382.9,210.5c0,0.3-0.5,1.5-0.9,1.5l-5.9,0.1c0,10.8-0.2,24.4-0.2,27.8v3.2c0,0.1-0.7,1.1-2.4,1.1
						c-1.8,0-2-0.7-2-1.6c0-0.6,0.1-1.3,0.1-2c0.1-3.6,0.2-25.3,0.2-28.5c-2.8,0.1-5.3,0.1-5.7,0c-0.7-0.1-0.8-1-0.8-1.8
						c0.1-0.5,0.6-1,1.3-1.2c2.5,0,14.9,0,15.4,0.2C382.3,209.5,382.9,210.1,382.9,210.5z"/>
				</g>
				<g>
					<g>
						<path class="st2" d="M380.9,209.9c1.1,0,1.2,0,0.4,0c-0.6,0-1.1,0-1.7,0c-1.1,0-2.3,0-3.4,0.1c-1.1,0-2.1,0.9-2.1,2.1
							c0,7.6-0.1,15.1-0.2,22.7c0,1.8,0,3.6,0,5.4c0,3.5-0.3,2.2-0.2-0.4c0.1-9.2,0.2-18.4,0.2-27.7c0-1.1-0.9-2.1-2.1-2.1
							c-1,0-2.1,0-3.1,0c-0.4,0-0.8,0-1.2,0c-1.1-0.3-1.3,0-0.5,1.1c1.7,0,3.5,0,5.2,0c1.7,0,8.5-0.5,9,0.3c1.3,2.3,4.8,0.2,3.5-2.1
							c-1.2-2.2-3-2.2-5.3-2.3c-3.9-0.1-7.9-0.1-11.8-0.1c-2.7,0-4.6,1.5-4.2,4.4c0.5,3.8,5.9,2.8,8.4,2.7c-0.7-0.7-1.4-1.4-2.1-2.1
							c0,6-0.1,12-0.1,18.1c0,3,0,6-0.1,9c0,1.9-0.6,4.5,0.8,6c1.7,1.7,5.2,1.3,6.7-0.3c1.4-1.4,0.8-3.8,0.8-5.6
							c0-9.1,0.2-18.2,0.2-27.3c-0.7,0.7-1.4,1.4-2.1,2.1c3.6-0.1,7.4,0.9,8.8-3.1C385.8,208.5,381.8,207.4,380.9,209.9z"/>
					</g>
				</g>
			</g>
		</g>
		<g>
			<g>
				<g>
					<path class="st2" d="M252,113.4c3.1,0,4.4,2,4.4,5.1c0.5,24.3,1.1,48.4,1.1,73.2c0,4.6,0,8.8-8,8.8c-1.4,0-2.5-0.5-2.7-2.1
						c0-67.6,0.5-70.7,0.3-72.2c-7.2,27.4-9.9,31.9-17,60.8c-1.6,3.5-5.8,4.3-9.6,4.3c-3.1,0-5.2-1.9-6.1-4.3
						c-5-12.2-13.4-36-18.4-51.4c-1.1-3.3-2-5.8-2-6.9c0,20.3,0.6,47.7,0.6,68.4c-0.5,2.4-3.8,2.9-6.3,2.9c-3.3,0-3.8-3.3-3.8-5.4
						c-0.3-3.8-0.3-61.9-0.5-78.2c1.3-2.5,4.6-3.3,7.7-3.3c3,0,4.9,0.6,6,1.1c15.4,45.1,24.1,69.9,24.1,69.9s15.3-55.4,17.8-61.6
						c1.3-3.1,1.7-6.3,6.1-7.9C248.4,113.9,249,113.4,252,113.4z"/>
				</g>
				<g>
					<g>
						<path class="st2" d="M252,115.5c4,0.4,2.6,15.6,2.7,18.4c0.1,5.7,0.2,11.5,0.3,17.2c0.2,12.2,0.4,24.5,0.4,36.7
							c0,4.3,1.3,9.8-4.4,10.6c-3.2,0.4-2.2-3.6-2.2-5.8c0-3,0-6,0-9c0-8.8,0-17.7,0.1-26.5c0-8.4,0.1-16.9,0.2-25.3
							c0-1.8,0.2-3.7,0-5.6c-0.2-2.2-3.4-2.9-4-0.5c-2.7,10.2-5.7,20.3-8.7,30.4c-1.3,4.3-2.5,8.6-3.7,12.9
							c-0.8,2.9-1.6,5.8-2.3,8.7c-1,3.7-1.3,9.5-5.3,11c-3.4,1.2-7.5,0.5-9-3.2c-0.9-2.3-1.8-4.5-2.7-6.8
							c-2.1-5.5-4.1-11.1-6.1-16.7c-2.1-5.9-4.1-11.8-6.1-17.7c-1.7-4.9-4.5-10.5-5-15.6c-0.3-2.6-4.1-2.7-4.1,0
							c0,18.7,0.4,37.3,0.6,55.9c0,2.3,1.4,12-1.3,13c-3.4,1.2-4.5-1.9-4.6-4.5c-0.1-3.9-0.1-7.8-0.1-11.8
							c-0.1-12.9-0.1-25.8-0.2-38.6c0-5.8,0-11.7-0.1-17.5c0-2.3,0-4.6,0-6.9c0-4.5,8.4-3,11.1-2c-0.5-0.5-1-1-1.4-1.4
							c8,23.3,16,46.6,24.1,69.9c0.6,1.9,3.4,2.1,4,0c3-11,6.1-22,9.2-33c2-7.2,4.1-14.4,6.2-21.5c0.6-2.1,1.3-4.2,2-6.3
							c0.5-1.5,1.1-3,1.7-4.4C244.5,116.4,248.9,115.6,252,115.5c2.6-0.1,2.7-4.2,0-4.1c-4.2,0.2-9.7,1.3-12,5.2
							c-1.5,2.4-2.3,5.2-3.2,7.9c-2.3,7-4.3,14.1-6.3,21.2c-3.6,12.7-7.2,25.3-10.7,38c1.3,0,2.6,0,4,0c-4-11.4-7.9-22.9-11.9-34.4
							c-2.1-6-4.1-11.9-6.2-17.9c-1.2-3.4-2.3-6.9-3.5-10.3c-0.7-2.1-1.3-7.3-3.5-8.6c-3.6-2.1-9-1.8-12.7-0.4
							c-3.7,1.4-4.1,4.1-4.1,7.5c0.1,17.6,0.1,35.3,0.2,52.9c0,6.6,0,13.2,0.2,19.8c0.1,6.7,2.3,10.8,9.8,9.3c4.7-1,4.4-5.2,4.4-9
							c0-7.1-0.1-14.2-0.2-21.3c-0.2-14.2-0.4-28.4-0.4-42.6c-1.4,0-2.7,0-4.1,0c0.6,5.6,3.4,11.4,5.2,16.7
							c2.3,6.9,4.7,13.8,7.2,20.6c2.2,6.2,4.5,12.3,6.9,18.4c2.1,5.3,4.4,9,10.6,8.8c5.3-0.1,9.5-2.4,10.8-7.6
							c1.8-7.3,3.7-14.5,5.8-21.8c3.6-12.4,7.4-24.7,10.7-37.1c-1.3-0.2-2.7-0.4-4-0.5c0.3,2.7,0,5.6-0.1,8.3
							c-0.2,14.7-0.2,29.4-0.2,44.2c0,6.6,0,13.1,0,19.7c0,4.3,4.7,4.3,7.7,3.9c9.6-1.3,7.1-13.6,7.1-20.3
							c-0.1-14.8-0.4-29.5-0.7-44.3c-0.1-6.8,0-13.6-0.5-20.4c-0.2-3.7-2.9-5.6-6.4-5.9C249.4,111.1,249.4,115.2,252,115.5z"/>
					</g>
				</g>
			</g>
			<g>
				<g>
					<path class="st2" d="M317.2,152.7c0,28.1-4.6,48-21.2,48c-9.1,0-17.1-2.3-20.8-16.2c-1.7-6.8-2.8-16.7-2.8-25.9
						c0-6.1,0.2-12,0.2-16.5c0-10.5,4.1-30.3,24.7-30.3c11.5,0,18.9,11.7,19.5,21.7C316.7,140.1,317.2,146.6,317.2,152.7z
						 M307,154.5c0-9.1-0.3-20.4-1.4-25.9c-0.6-3.8-4.7-10.3-10.2-10.3c-6.8,0-12.9,6.1-12.9,38.3c0,11,1.3,37.8,12.6,37.8
						C304.1,194.5,307,173.6,307,154.5z"/>
				</g>
				<g>
					<g>
						<path class="st2" d="M315.1,152.7c0,9.7-0.4,19.5-2.7,28.9c-1.6,6.5-4.7,13.7-11.4,16.2c-6.6,2.5-15.7,0.4-20-5.2
							c-6.4-8.3-6.3-22.3-6.5-32.3c-0.3-13.9-2.4-34.4,11-43.4c8.3-5.6,19.2-3.5,24.9,4.5C316.6,129.9,315.1,142.6,315.1,152.7
							c0,2.6,4.1,2.7,4.1,0c-0.1-11.7,1.1-24.5-6-34.4c-6-8.3-16-10.2-25.3-7.1c-18.8,6.3-17.5,29.8-17.6,45.6
							c-0.1,11.9,0.2,26.3,6.4,36.9c4.4,7.5,13.1,9.6,21.2,9c20-1.5,20.9-30.4,21.3-44.9c0-1.7,0-3.4,0.1-5.1
							C319.2,150,315.1,150,315.1,152.7z"/>
					</g>
					<g>
						<path class="st2" d="M309,154.5c0-6.1-0.1-12.2-0.5-18.3c-0.2-3.8-0.4-8.2-2.1-11.6c-2.8-5.5-8.4-10-14.8-7.7
							c-4.1,1.5-6.3,5.5-7.8,9.4c-3.3,8.8-3.3,19.2-3.4,28.5c-0.1,8.2,0.4,16.4,1.9,24.4c1.1,5.8,3.2,14.2,9.4,16.7
							C309.1,203,309,162.7,309,154.5c0-2.7-4.1-2.6-4.1,0c0,4.5-1.7,46-13.1,36.6c-4.4-3.6-5.3-11.3-6.1-16.5
							c-0.9-5.9-1.1-12-1.2-18c0-8.3,0.2-16.8,2.1-25c0.8-3.5,2-8,5.1-10.2c5-3.5,10.2,2.2,11.7,6.8c1.1,3.4,1,7.6,1.2,11.2
							c0.3,5,0.3,10.1,0.3,15.1C304.9,157.2,309,157.2,309,154.5z"/>
					</g>
				</g>
			</g>
			<g>
				<g>
					<path class="st2" d="M378.8,118.1c0.2,3.9,0.2,19.8,0.2,37.1v14c0,16,0.5,30.6-2.8,30.6c-3.1,0-4.9-0.4-7.7-2.5
						c0,0,0.3-18.2,0.3-34.5c0-4.4,1.4-21.7,1.3-25.3l-23.8,59.9c-0.6,1.3-2.4,1.8-4.4,1.8c-4.2,0-9.8-2.3-9.8-4.4
						c-0.5-1.4-0.6-6-0.6-13.4c0-20.9,0.9-55.7,0.9-64c0.3-1.1,0.2-2.6,3-3.4c5.8-1.5,6.8,2.3,6.8,4.5v10.6c0,9.8-0.8,25.9-0.8,38.8
						c0,5.1-1.4,17.4-0.9,20.9c7.7-16.9,18.7-47,26-66.5c0.9-2.6,1.6-6.8,4.6-8.1C375.6,114.2,378.4,115.9,378.8,118.1z
						 M371.5,105.3c-0.8-1.4-2.2-2-3.9-2c-0.6,0-1.6,0-2,0.5c-2.2,2.4-5.3,3.6-9,3.6c-6.8,0-7.2-3.9-11.2-4.5c-2,0.1-3.3,0.5-3.3,2
						c0,4.5,5.2,8.3,14.9,8.3C368.2,113.2,371.5,105.3,371.5,105.3z"/>
				</g>
				<g>
					<g>
						<path class="st2" d="M376.7,118.1c0.5,14,0.2,28.1,0.2,42.2c0,6.1,0,12.2,0,18.2c0,4.6,0,9.3-0.3,13.9c-0.1,1.5-0.3,3-0.7,4.5
							c-0.6,2.5-5.3-0.6-6.5-1.4c0.3,0.6,0.7,1.2,1,1.8c0.2-10.9,0.3-21.8,0.3-32.7c0-9,1.5-18,1.3-27.1c-0.1-2.4-3.2-2.6-4-0.5
							c-4.1,10.4-8.3,20.9-12.4,31.3c-2.7,6.9-5.5,13.8-8.2,20.7c-0.8,2-1.6,4-2.4,6.1c-1.5,3.7-6.1,2-9.2,0.6
							c-3.6-1.6-2.3-9.4-2.3-12.5c0-5.9,0-11.8,0.1-17.7c0.1-11.5,0.4-23,0.6-34.5c0.1-3.8,0.1-7.6,0.2-11.3c0-2.7,0.6-4.4,4.2-3.9
							c1.9,0.3,1.5,3.1,1.5,4.4c0,9.4-0.1,18.7-0.4,28.1c-0.2,7.5-0.1,15.1-0.5,22.7c-0.3,5.9-1.4,12.1-0.8,18
							c0.2,1.8,2.9,3.1,3.8,1c5.4-11.9,10.1-24.2,14.8-36.5c2.6-6.7,5.1-13.5,7.6-20.2c1.1-3,2.2-6.1,3.4-9.1c0.6-1.5,1-3,1.5-4.6
							c0.9-2.9,6.2-4.7,7.4-0.9c0.8,2.5,4.7,1.5,4-1.1c-1.6-5.2-9.4-7.1-13.1-3.3c-2.2,2.2-2.7,6-3.7,8.8c-1.6,4.4-3.3,8.9-4.9,13.3
							c-6.4,17.3-12.8,34.7-20.4,51.5c1.3,0.3,2.6,0.7,3.8,1c-0.4-4.3,0.2-8.8,0.5-13.1c0.4-5.8,0.4-11.7,0.5-17.5
							c0.2-10.8,0.7-21.7,0.7-32.5c0-4.6,1.3-14.5-6.1-14.2c-9.3,0.4-7.8,8-7.9,15c-0.2,11-0.4,22.1-0.6,33.1
							c-0.2,11-0.9,22.4,0.1,33.4c0.7,7.2,13.2,11.4,18,5.7c2-2.4,2.8-6.6,3.9-9.4c6.8-17.1,13.6-34.3,20.4-51.4
							c-1.3-0.2-2.7-0.4-4-0.5c0.1,5.8-0.5,11.8-0.9,17.6c-0.5,7.8-0.4,15.5-0.4,23.3c-0.1,6.3-0.1,12.5-0.2,18.8
							c-0.1,4.1,9.8,6.1,12.2,3.4c3.7-4,2.4-13.8,2.4-18.6c0-6.6,0-13.2,0-19.8c0-14.7,0.4-29.4-0.2-44.1
							C380.7,115.4,376.6,115.4,376.7,118.1z"/>
					</g>
					<g>
						<path class="st2" d="M373,103.8c-1.6-2.1-4.9-3.5-7.5-2.3c-2.3,1.1-3.9,2.8-6.5,3.6c-3.2,0.9-6.2-0.1-8.7-2
							c-2.4-1.8-5.4-3.2-8.3-1.5c-2.3,1.4-2.3,4.5-1.1,6.6c5.7,10.9,27.6,9.1,32.5-1.9c1.1-2.4-2.5-4.5-3.5-2.1
							c-3.7,8.3-18.1,9.1-24.3,3.6c-0.4-0.4-2.6-3.4,0.3-2.7c0.9,0.2,1.7,1,2.4,1.5c1.9,1.5,3.9,2.3,6.3,2.7c2.4,0.4,4.7,0,7-0.6
							c2.8-0.8,6-5.3,8.6-2C371.7,108.8,374.6,105.9,373,103.8z"/>
					</g>
				</g>
			</g>
		</g>
		<g>
			<g>
				<g>
					<path class="st3" d="M192.5,207.4c0.8,4.6-0.3,13,0.1,16.6c2.2-4.8,4.8-10.3,6.4-14.2c0.3-0.8,1.1-2.1,1.6-2.3
						c0.3-0.1,0.9-0.1,1.5-0.1c0.6,0.1,1.3,0.1,1.3,0.7c0,0.6-0.4,1.8-0.6,2.2c-1.2,2-5.8,11.8-7.9,15.1c0.5,1.1,1.3,2.1,2,3.1
						c3.3,4.7,4,6.6,6.7,11c0.3,0.4,1,1.7,0.8,2.5c-0.3,0.8-1.9,0.7-2.5,0.7c-1,0-1.6-0.9-2.2-2.1l-1.4-2.7
						c-1.6-3.2-3.6-6.1-5.7-8.9c-0.3,0.1-0.4,0.5-0.4,1c-0.2,3.3-0.3,8.7-0.3,10.7c0,1.9-0.8,2-1.9,2c-0.4,0-1.1-0.2-1.6-0.3
						c-0.2-0.1-0.3-0.7-0.3-1.4c0.3-6.9,0.8-25.9,0.8-30.4c0-0.6-0.2-2.6,0.3-2.9c0.5-0.4,0.8-0.6,1.5-0.6
						C191,207.2,191.6,207.3,192.5,207.4z"/>
				</g>
				<g>
					<g>
						<path class="st1" d="M191.5,207.7c0.8,5.4-0.4,10.9,0.1,16.4c0.1,0.9,1.4,1.5,1.9,0.5c1.6-3.4,3.2-6.9,4.7-10.3
							c0.4-1,0.8-1.9,1.3-2.9c0.8-2,3.5-3.6,1.8-0.5c-2.5,4.7-4.6,9.5-7.3,14.1c-0.2,0.3-0.2,0.7,0,1c2.8,4.7,5.9,9.4,8.7,14.1
							c-0.9-1.4-1.8,0.8-2.6-0.9c-0.3-0.6-0.6-1.1-0.9-1.7c-1.7-3.1-3.6-6-5.7-8.9c-0.5-0.7-1.5-0.6-1.9,0.2
							c-1.4,3.4-0.7,8.3-0.7,11.9c-1.4,0.8-1.9,0.7-1.6-0.5c0-0.9,0.1-1.8,0.1-2.7c0.1-2.3,0.1-4.6,0.2-6.9c0.1-4.5,0.2-9,0.3-13.6
							c0-1.8,0.1-3.6,0.1-5.3c0-2.1-0.3-3.8,2.6-3.4c1.3,0.2,1.3-1.9,0-2c-4.9-0.6-4.6,2.1-4.7,6.1c-0.1,6.9-0.3,13.8-0.5,20.7
							c-0.1,3.9-2.4,10.9,3.3,10.6c4.2-0.2,1.8-11.7,2.8-14.3c-0.6,0.1-1.2,0.2-1.9,0.2c2.7,3.7,5,7.5,7.2,11.5
							c1,1.9,3.1,3.6,5.4,2.3c2.4-1.4,0.4-4.1-0.6-5.8c-1.4-2.3-2.6-4.6-4-6.9c-1.6-2.5-4.1-4.2-2.6-7.1c2-3.7,3.8-7.4,5.7-11.1
							c0.9-1.8,2.4-3.7,1-5.6c-4.1-5.4-11.2,15.1-11.9,16.6c0.6,0.2,1.3,0.3,1.9,0.5c-0.5-5.6,0.6-11.3-0.2-16.9
							C193.3,205.9,191.3,206.4,191.5,207.7z"/>
					</g>
				</g>
			</g>
			<g>
				<g>
					<path class="st3" d="M228.9,240.6c0,1.3-1,1.7-2.8,1.7c-0.7,0-0.9-0.6-1-1l-1.9-11.5l-7.5,0.1c0,0.2-0.1,0.4-0.1,0.6
						c-0.3,0.8-1.6,9.3-2.4,10.9c-0.4,0.3-2.3,0.9-3,0.9c-0.4,0-0.8-0.2-0.8-1.1c0-0.3,0-0.7,0.1-1.1c2-9.1,3.9-18.5,6.4-28
						c0.6-2,0.8-4.8,4.7-4.8c2.6,0,3.1,2.7,3.4,4.6c1.6,9.3,3.1,17.7,4.9,28.1C228.9,240.3,228.9,240.5,228.9,240.6z M222.8,227.4
						l-2.7-16.6c-0.9,2.4-2,8.3-3.9,16.6l6.4,0H222.8z"/>
				</g>
				<g>
					<g>
						<path class="st1" d="M227.9,240.4c-1.1,4.6-2-0.1-2-0.1c-0.2-1.3-0.4-2.6-0.6-3.9c-0.4-2.2-0.7-4.5-1.1-6.7
							c-0.1-0.4-0.6-0.8-1-0.7c-2.5,0-5,0-7.5,0.1c-0.4,0-0.9,0.3-1,0.7c-0.7,3.4-1.2,6.9-2.1,10.3c-0.3,1.1-1,1-2,1.2
							c-0.1,0,1-5.7,1.1-6.2c0.9-4.4,1.9-8.7,2.9-13.1c0.8-3.4,1.6-6.8,2.5-10.2c0.7-2.5,5-3,5.7-0.4c0.5,2,0.7,4.1,1.1,6.1
							c1.3,7.7,3.2,15.5,4.1,23.3c0.1,1.3,2.2,1.3,2,0c-0.9-8.5-3-17.1-4.4-25.5c-0.5-3.2-2-12.1-7.7-8.1c-1.6,1.1-2.2,2.3-2.7,4.1
							c-1.4,5.2-2.6,10.6-3.8,15.9c-0.4,2-5.6,16.3-1.1,16.3c4.8,0,4.7-4.1,5.5-7.9c0.2-1.2,0.5-2.5,0.7-3.7
							c0.2-1.2-0.6-0.7-0.1-0.7c2.3,0,4.6,0,6.8,0c-1,0-0.9-1.1-0.6,0.7c0.2,1.1,0.4,2.2,0.5,3.3c0.4,2.2,0.7,4.4,1.1,6.6
							c0.5,3.2,5.2,1.9,5.8-0.6C230.1,239.6,228.2,239.1,227.9,240.4z"/>
					</g>
					<g>
						<path class="st1" d="M223.7,227.1c-0.9-5.5-1.8-11.1-2.7-16.6c-0.2-1.1-1.7-0.8-2,0c-1.9,5.3-2.7,11.2-3.9,16.6
							c-0.1,0.6,0.3,1.3,1,1.3c2.2,0,4.4,0,6.6,0c1.3,0,1.3-2,0-2c-2.2,0-4.4,0-6.6,0c0.3,0.4,0.7,0.9,1,1.3
							c1.2-5.5,2-11.3,3.9-16.6c-0.7,0-1.3,0-2,0c0.9,5.5,1.8,11.1,2.7,16.6C222,228.9,224,228.4,223.7,227.1z"/>
					</g>
				</g>
			</g>
			<g>
				<g>
					<path class="st3" d="M250.9,214.6c0,11-0.3,25.2-0.4,27.1c-0.7,0.5-1.8,0.7-2.6,0.7c-0.6,0-1.3-0.1-1.3-0.5l0.1-13.4
						c-1.6,0.1-6.9,0.1-8.4,0.1v3.4v4.9c0,2.4,0,5.2-1.5,5.5h-0.9c-0.9,0-1.5-0.4-1.5-1.4c0-6,0.1-10.7,0.1-14.5
						c0-14.8-0.1-16.6,0-17.8c0.1-0.9,1.1-0.9,2-0.9c0.8,0,2,0.4,2,0.9c-0.1,7.8-0.2,13.3-0.2,17.3c0.9-0.1,2.3-0.1,3.6-0.1
						c1.8,0,3.5,0,4.8,0.1l0.3-17.6c0-0.5,0.8-0.9,1.7-0.9c0.7,0,1.3,0.2,2.1,0.8C250.9,210,250.9,212.2,250.9,214.6z"/>
				</g>
				<g>
					<g>
						<path class="st1" d="M249.9,214.6c0,8.9-0.1,17.8-0.4,26.7c0-0.7-1.9,1.3-1.9-0.7c0-1.6,0-3.3,0-4.9c0-2.4,0-4.8,0-7.2
							c0-0.5-0.5-1-1-1c-2.8,0.1-5.6,0.1-8.4,0.1c-0.6,0-1,0.5-1,1c0,2.7,0,5.5,0,8.2c0,1.7-1.9,7.8-1.9,2.2c0-2.3,0-4.6,0-6.9
							c0-4.1,0-8.2,0-12.3c0-3.5-0.1-7,0-10.4c0-0.2,0-0.4,0-0.6c1.8,0.7,2.4,1.8,1.9,3.5c0,1.1,0,2.2,0,3.4c0,3.4-0.1,6.8-0.1,10.2
							c0,0.5,0.5,1,1,1c2.8-0.1,5.6-0.1,8.4,0c0.6,0,1-0.5,1-1c0.1-3.4,0.1-6.9,0.2-10.3c0-1.9,0.1-3.8,0.1-5.8c0-0.5,0-1,0-1.5
							c1.6,0.4,2.2,1.4,1.8,2.9C249.9,212.3,249.9,213.4,249.9,214.6c0,1.3,2,1.3,2,0c0-3.5,1.4-7.5-2.9-8.2c-1.7-0.3-3,0.9-3,2.5
							c-0.1,5.7-0.2,11.4-0.3,17c0.3-0.3,0.7-0.7,1-1c-2.8-0.1-5.6-0.1-8.4,0c0.3,0.3,0.7,0.7,1,1c0-5.8,0.1-11.5,0.2-17.3
							c0-2.1-4-2.2-5.2-1.5c-2.4,1.4-0.9,10.9-0.9,12.7c0,6.4,0,12.8-0.1,19.2c0,2.9,0.3,4.3,3.4,4.3c4.1,0,2.5-11.9,2.5-14.7
							c-0.3,0.3-0.7,0.7-1,1c2.8,0,5.6,0,8.4-0.1c-0.3-0.3-0.7-0.7-1-1c0,3.8,0,7.6-0.1,11.5c0,3.4,1.7,4.1,5.2,2.7
							c0.4-0.2,0.7-0.5,0.7-1c0.3-9,0.4-18,0.4-27.1C251.9,213.2,249.9,213.2,249.9,214.6z"/>
					</g>
				</g>
			</g>
			<g>
				<g>
					<path class="st3" d="M282.7,242.6c0,1.4-0.2,2.7-0.2,2.7c0,0.6-1.1,0.7-1.6,0.7c-0.8,0-1.4-0.2-1.4-0.6l-0.1-3.2h-20.2
						l-0.1,3.2c0,0.4-0.7,0.6-1.4,0.6c-0.4,0-1.6-0.1-1.6-0.7c0,0-0.2-1.4-0.2-2.7c0-1.2,0.1-2.3,0.6-2.6c0.5-0.4,2.5-0.4,4.2-0.4
						h0.9c1.6-6.9,3.1-21.6,3.1-29v-0.6c0-1.1,0.8-2.1,2.5-2.1c2.5,0,8.3,0,8.8,0.2c1.1,0.4,1.4,0.9,1.4,2.6
						c0,10.9-0.2,23.9-0.2,27.3v1.6h0.8c1.7,0,3.6,0,4.2,0.4C282.5,240.3,282.7,241.4,282.7,242.6z M265.3,239.7h8.2v-0.9
						c0.1-3.7,0.2-26.2,0.2-28.1c-1.1,0-2.3,0-5.3,0v0.5C268.4,222.6,266.5,234,265.3,239.7z"/>
				</g>
				<g>
					<g>
						<path class="st1" d="M281.6,242.6c0,0.4,0,0.9,0,1.3c0.2,1-0.1,1.4-1.1,1.1c0-0.9-0.1-1.9-0.1-2.8c0-0.6-0.4-1-1-1
							c-6.7,0-13.5,0-20.2,0c-0.6,0-1,0.5-1,1c0,0.4,0,0.7,0,1.1c0,0-0.9,3.4-1.1,1.6c-0.4-3.4,1.4-4.2,4.5-4.2c0.4,0,0.9-0.3,1-0.7
							c1.2-5.5,1.9-11.1,2.4-16.7c0.3-3.1,0.5-6.2,0.7-9.3c0-1.1,0.1-2.2,0.1-3.2c0-2,3.4-1.6,4.7-1.6c1.2,0,2.4,0,3.6,0.1
							c2.9,0.1,2.4,3,2.4,5c0,3.9,0,7.7-0.1,11.6c0,4.6-0.1,9.3-0.1,13.9c0,0.6,0.5,1,1,1C278.5,240.7,281.5,240.2,281.6,242.6
							c0.1,1.3,2.1,1.3,2,0c-0.3-4.3-2.6-3.9-6.6-3.9c0.3,0.3,0.7,0.7,1,1c0-4.6,0.1-9.3,0.1-13.9c0-3.9,0.1-7.7,0.1-11.6
							c0-1.5,0.6-4.6-0.6-5.8c-2.3-2.4-7.7-1.3-10.7-1.3c-3.6,0-3.4,3.1-3.5,5.8c-0.2,6.7-0.9,13.3-1.8,19.9c-0.2,1.2-0.7,6-1.1,6
							c-1,0-4.3-0.4-5,0.9c-0.9,1.7-1.9,7,1.1,7.3c3.7,0.5,3.4-1.7,3.5-4.7c-0.3,0.3-0.7,0.7-1,1c6.7,0,13.5,0,20.2,0
							c-0.3-0.3-0.7-0.7-1-1c0.1,2.3-0.4,4.3,2.3,4.7c2.9,0.4,3-2.2,3.1-4.3C283.7,241.3,281.7,241.3,281.6,242.6z"/>
					</g>
					<g>
						<path class="st1" d="M265.3,240.7c2.7,0,5.5,0,8.2,0c0.6,0,1-0.5,1-1c0-9.6,0.2-19.3,0.2-28.9c0-0.6-0.5-1-1-1
							c-1.8,0-3.5,0-5.3,0c-0.6,0-1,0.5-1,1c0,9.6-1.1,19.2-3,28.6c-0.3,1.3,1.7,1.8,2,0.5c2-9.6,3.1-19.4,3.1-29.1
							c-0.3,0.3-0.7,0.7-1,1c1.8,0,3.5,0,5.3,0c-0.3-0.3-0.7-0.7-1-1c0,9.6-0.2,19.3-0.2,28.9c0.3-0.3,0.7-0.7,1-1
							c-2.7,0-5.5,0-8.2,0C264,238.7,264,240.7,265.3,240.7z"/>
					</g>
				</g>
			</g>
			<g>
				<g>
					<path class="st3" d="M307,209.6c0.1,1.6,0.1,7.9,0.1,14.8v5.6c0,6.4,0.2,12.2-1.1,12.2c-1.3,0-1.9-0.2-3.1-1
						c0,0,0.1-7.3,0.1-13.8c0-1.8,0.6-8.7,0.5-10.1l-9.5,23.9c-0.3,0.5-0.9,0.7-1.8,0.7c-1.7,0-3.9-0.9-3.9-1.8
						c-0.2-0.6-0.3-2.4-0.3-5.4c0-8.4,0.4-22.3,0.4-25.6c0.1-0.5,0.1-1.1,1.2-1.4c2.3-0.6,2.7,0.9,2.7,1.8v4.3
						c0,3.9-0.3,10.4-0.3,15.5c0,2.1-0.6,7-0.4,8.4c3.1-6.8,7.5-18.8,10.4-26.6c0.4-1.1,0.6-2.7,1.8-3.3
						C305.7,208,306.9,208.7,307,209.6z"/>
				</g>
				<g>
					<g>
						<path class="st1" d="M306,209.6c0.3,9.1,0.2,18.4,0,27.5c0,0.5,0,1-0.1,1.4c0.5,1.8-0.2,2.7-2.1,2.5c0-0.8,0-1.5,0-2.3
							c0-3.2,0.1-6.3,0.1-9.5c0-4,0.5-7.9,0.5-11.9c0-1.2-1.6-1.3-2-0.3c-1.9,4.8-3.8,9.5-5.7,14.3c-1.1,2.7-2.2,5.4-3.2,8.2
							c-0.2,0.5-0.4,1-0.6,1.5c-1.3-0.7-2.6-1.3-3.8-2c0-0.8-0.1-1.6-0.1-2.4c0-1.4,0-2.8,0-4.2c0-5.2,0.1-10.4,0.2-15.6
							c0-1.8,0.1-3.7,0.1-5.5c0-2.3,1.9-2.2,1.9,0.1c0,8.8-1.2,17.8-0.7,26.5c0.1,0.9,1.5,1.5,1.9,0.5c1.9-4.3,3.7-8.7,5.4-13.1
							c1.1-2.9,2.2-5.7,3.2-8.6c0.5-1.3,1-2.6,1.4-3.9c0.1-0.2,1.9-6.2,3.5-2.7c0.6,1.2,2.3,0.2,1.8-1c-0.7-1.4-2.7-2.5-4.3-2
							c-2,0.5-2.4,3.6-3,5.2c-3.1,8.4-6.1,16.9-9.8,25.2c0.6,0.2,1.3,0.3,1.9,0.5c-0.4-6.5,0.4-13.3,0.6-19.8
							c0.1-2.9,1.2-8.5-1-10.8c-1.1-1.2-3.1-0.3-4.2,0.3c-1,0.7-0.7,2.6-0.7,3.6c-0.1,7-0.3,14-0.3,21.1c0,4.4-1.3,8.9,3.6,10.5
							c3.2,1,4.2-0.9,5.1-3.3c2.9-7.3,5.8-14.6,8.7-21.9c-0.7-0.1-1.3-0.2-2-0.3c0,6.2-0.5,12.5-0.6,18.7c0,2.3-0.6,9.6,4.5,7.1
							c3.4-1.6,1.6-11.7,1.6-14.6c0-6.3,0.1-12.7-0.1-19C308,208.3,305.9,208.3,306,209.6z"/>
					</g>
				</g>
			</g>
			<g>
				<g>
					<path class="st3" d="M339.7,242.6c0,1.4-0.2,2.7-0.2,2.7c0,0.6-1.1,0.7-1.6,0.7c-0.8,0-1.4-0.2-1.4-0.6l-0.1-3.2h-20.2
						l-0.1,3.2c0,0.4-0.7,0.6-1.4,0.6c-0.4,0-1.6-0.1-1.6-0.7c0,0-0.2-1.4-0.2-2.7c0-1.2,0.1-2.3,0.6-2.6c0.5-0.4,2.5-0.4,4.2-0.4
						h0.9c1.6-6.9,3.1-21.6,3.1-29v-0.6c0-1.1,0.8-2.1,2.5-2.1c2.5,0,8.3,0,8.8,0.2c1.1,0.4,1.4,0.9,1.4,2.6
						c0,10.9-0.2,23.9-0.2,27.3v1.6h0.8c1.7,0,3.6,0,4.2,0.4C339.6,240.3,339.7,241.4,339.7,242.6z M322.3,239.7h8.2v-0.9
						c0.1-3.7,0.2-26.2,0.2-28.1c-1.1,0-2.3,0-5.3,0v0.5C325.4,222.6,323.5,234,322.3,239.7z"/>
				</g>
				<g>
					<g>
						<path class="st1" d="M338.7,242.6c0,0.4,0,0.9,0,1.3c0.2,1-0.1,1.4-1.1,1.1c0-0.9-0.1-1.9-0.1-2.8c0-0.6-0.4-1-1-1
							c-6.7,0-13.5,0-20.2,0c-0.6,0-1,0.5-1,1c0,0.4,0,0.7,0,1.1c0,0-0.9,3.4-1.1,1.6c-0.4-3.4,1.4-4.2,4.5-4.2c0.4,0,0.9-0.3,1-0.7
							c1.2-5.5,1.9-11.1,2.4-16.7c0.3-3.1,0.5-6.2,0.7-9.3c0-1.1,0.1-2.2,0.1-3.2c0-2,3.4-1.6,4.7-1.6c1.2,0,2.4,0,3.6,0.1
							c2.9,0.1,2.4,3,2.4,5c0,3.9,0,7.7-0.1,11.6c0,4.6-0.1,9.3-0.1,13.9c0,0.6,0.5,1,1,1C335.6,240.7,338.5,240.2,338.7,242.6
							c0.1,1.3,2.1,1.3,2,0c-0.3-4.3-2.6-3.9-6.6-3.9c0.3,0.3,0.7,0.7,1,1c0-4.6,0.1-9.3,0.1-13.9c0-3.9,0.1-7.7,0.1-11.6
							c0-1.5,0.6-4.6-0.6-5.8c-2.3-2.4-7.7-1.3-10.7-1.3c-3.6,0-3.4,3.1-3.5,5.8c-0.2,6.7-0.9,13.3-1.8,19.9c-0.2,1.2-0.7,6-1.1,6
							c-1,0-4.3-0.4-5,0.9c-0.9,1.7-1.9,7,1.1,7.3c3.7,0.5,3.4-1.7,3.5-4.7c-0.3,0.3-0.7,0.7-1,1c6.7,0,13.5,0,20.2,0
							c-0.3-0.3-0.7-0.7-1-1c0.1,2.3-0.4,4.3,2.3,4.7c2.9,0.4,3-2.2,3.1-4.3C340.8,241.3,338.7,241.3,338.7,242.6z"/>
					</g>
					<g>
						<path class="st1" d="M322.3,240.7c2.7,0,5.5,0,8.2,0c0.6,0,1-0.5,1-1c0-9.6,0.2-19.3,0.2-28.9c0-0.6-0.5-1-1-1
							c-1.8,0-3.5,0-5.3,0c-0.6,0-1,0.5-1,1c0,9.6-1.1,19.2-3,28.6c-0.3,1.3,1.7,1.8,2,0.5c2-9.6,3.1-19.4,3.1-29.1
							c-0.3,0.3-0.7,0.7-1,1c1.8,0,3.5,0,5.3,0c-0.3-0.3-0.7-0.7-1-1c0,9.6-0.2,19.3-0.2,28.9c0.3-0.3,0.7-0.7,1-1
							c-2.7,0-5.5,0-8.2,0C321,238.7,321,240.7,322.3,240.7z"/>
					</g>
				</g>
			</g>
			<g>
				<g>
					<path class="st3" d="M364.4,240.6c0,1.3-1,1.7-2.8,1.7c-0.7,0-0.9-0.6-1-1l-1.9-11.5l-7.5,0.1c0,0.2-0.1,0.4-0.1,0.6
						c-0.3,0.8-1.6,9.3-2.4,10.9c-0.4,0.3-2.3,0.9-3,0.9c-0.4,0-0.8-0.2-0.8-1.1c0-0.3,0-0.7,0.1-1.1c2-9.1,3.9-18.5,6.4-28
						c0.6-2,0.8-4.8,4.7-4.8c2.6,0,3.1,2.7,3.4,4.6c1.6,9.3,3.1,17.7,4.9,28.1C364.4,240.3,364.4,240.5,364.4,240.6z M358.3,227.4
						l-2.7-16.6c-0.9,2.4-2,8.3-3.9,16.6l6.4,0H358.3z"/>
				</g>
				<g>
					<g>
						<path class="st1" d="M363.4,240.4c-1.1,4.6-2-0.1-2-0.1c-0.2-1.3-0.4-2.6-0.6-3.9c-0.4-2.2-0.7-4.5-1.1-6.7
							c-0.1-0.4-0.6-0.8-1-0.7c-2.5,0-5,0-7.5,0.1c-0.4,0-0.9,0.3-1,0.7c-0.7,3.4-1.2,6.9-2.1,10.3c-0.3,1.1-1,1-2,1.2
							c-0.1,0,1-5.7,1.1-6.2c0.9-4.4,1.9-8.7,2.9-13.1c0.8-3.4,1.6-6.8,2.5-10.2c0.7-2.5,5-3,5.7-0.4c0.5,2,0.7,4.1,1.1,6.1
							c1.3,7.7,3.2,15.5,4.1,23.3c0.1,1.3,2.2,1.3,2,0c-0.9-8.5-3-17.1-4.4-25.5c-0.5-3.2-2-12.1-7.7-8.1c-1.6,1.1-2.2,2.3-2.7,4.1
							c-1.4,5.2-2.6,10.6-3.8,15.9c-0.4,2-5.6,16.3-1.1,16.3c4.8,0,4.7-4.1,5.5-7.9c0.2-1.2,0.5-2.5,0.7-3.7
							c0.2-1.2-0.6-0.7-0.1-0.7c2.3,0,4.6,0,6.8,0c-1,0-0.9-1.1-0.6,0.7c0.2,1.1,0.4,2.2,0.5,3.3c0.4,2.2,0.7,4.4,1.1,6.6
							c0.5,3.2,5.2,1.9,5.8-0.6C365.7,239.6,363.7,239.1,363.4,240.4z"/>
					</g>
					<g>
						<path class="st1" d="M359.3,227.1c-0.9-5.5-1.8-11.1-2.7-16.6c-0.2-1.1-1.7-0.8-2,0c-1.9,5.3-2.7,11.2-3.9,16.6
							c-0.1,0.6,0.3,1.3,1,1.3c2.2,0,4.4,0,6.6,0c1.3,0,1.3-2,0-2c-2.2,0-4.4,0-6.6,0c0.3,0.4,0.7,0.9,1,1.3
							c1.2-5.5,2-11.3,3.9-16.6c-0.7,0-1.3,0-2,0c0.9,5.5,1.8,11.1,2.7,16.6C357.5,228.9,359.5,228.4,359.3,227.1z"/>
					</g>
				</g>
			</g>
			<g>
				<g>
					<path class="st3" d="M383.7,208.8c0,0.3-0.5,1.5-0.9,1.5l-5.9,0.1c0,10.8-0.2,24.4-0.2,27.8v3.2c0,0.1-0.7,1.1-2.4,1.1
						c-1.8,0-2-0.7-2-1.6c0-0.6,0.1-1.3,0.1-2c0.1-3.6,0.2-25.3,0.2-28.5c-2.8,0.1-5.3,0.1-5.7,0c-0.7-0.1-0.8-1-0.8-1.8
						c0.1-0.5,0.6-1,1.3-1.2c2.5,0,14.9,0,15.4,0.2C383.1,207.8,383.7,208.5,383.7,208.8z"/>
				</g>
				<g>
					<g>
						<path class="st1" d="M382.8,208.6c-0.5,1.5-4.1,0.8-5.8,0.9c-0.6,0-1,0.5-1,1c0,7.6-0.1,15.1-0.2,22.7c0,1.8,0,3.6,0,5.4
							c0,0.6,0,1.2,0,1.7c0.3,1.3-0.5,1.6-2.4,0.7c-0.1-0.9,0.1-1.9,0.1-2.9c0.1-9.2,0.2-18.4,0.2-27.7c0-0.5-0.5-1-1-1
							c-1,0-2.1,0-3.1,0c-0.4,0-0.8,0-1.2,0c-1.1,0.2-1.2-0.1-0.5-1c1.7,0,3.5,0,5.2,0c1.8,0,8.8-1,9.8,0.8c0.6,1.2,2.4,0.1,1.8-1
							c-1.1-1.9-2.4-1.7-4.4-1.8c-3.9-0.1-7.9-0.1-11.8-0.1c-2.2,0-3.5,1-3.2,3.3c0.4,2.8,5.8,1.7,7.4,1.7c-0.3-0.3-0.7-0.7-1-1
							c0,6-0.1,12-0.1,18.1c0,3,0,6-0.1,9c0,1.5-0.7,4,0.5,5.2c1.3,1.3,4.1,0.9,5.3-0.3c1.1-1.1,0.5-3.4,0.5-4.8
							c0-9.1,0.2-18.2,0.2-27.3c-0.3,0.3-0.7,0.7-1,1c3-0.1,6.6,1,7.8-2.4C385.2,207.9,383.2,207.3,382.8,208.6z"/>
					</g>
				</g>
			</g>
		</g>
		<g>
			<g>
				<g>
					<path class="st3" d="M252.9,111.8c3.1,0,4.4,2,4.4,5.1c0.5,24.3,1.1,48.4,1.1,73.2c0,4.6,0,8.8-8,8.8c-1.4,0-2.5-0.5-2.7-2.1
						c0-67.6,0.5-70.7,0.3-72.2c-7.2,27.4-9.9,31.9-17,60.8c-1.6,3.5-5.8,4.3-9.6,4.3c-3.1,0-5.2-1.9-6.1-4.3
						c-5-12.2-13.4-36-18.4-51.4c-1.1-3.3-2-5.8-2-6.9c0,20.3,0.6,47.7,0.6,68.4c-0.5,2.4-3.8,2.9-6.3,2.9c-3.3,0-3.8-3.3-3.8-5.4
						c-0.3-3.8-0.3-61.9-0.5-78.2c1.3-2.5,4.6-3.3,7.7-3.3c3,0,4.9,0.6,6,1.1c15.4,45.1,24.1,69.9,24.1,69.9s15.3-55.4,17.8-61.6
						c1.3-3.1,1.7-6.3,6.1-7.9C249.2,112.3,249.9,111.8,252.9,111.8z"/>
				</g>
				<g>
					<g>
						<path class="st1" d="M252.9,112.8c5.3,0.5,3.6,15.9,3.7,19.4c0.1,5.7,0.2,11.5,0.3,17.2c0.2,12.2,0.4,24.5,0.4,36.7
							c0,5,1.1,10.7-5.4,11.6c-4.9,0.6-3.2-12.5-3.2-15.8c0-8.8,0-17.7,0.1-26.5c0-8.4,0.1-16.9,0.2-25.3c0-1.8,0.2-3.7,0-5.6
							c-0.1-1.1-1.7-1.5-2-0.3c-2.7,10.2-5.7,20.3-8.7,30.4c-1.3,4.3-2.5,8.6-3.7,12.9c-1.5,5.6-2.6,18.3-8.4,20.4
							c-4,1.4-8.6,0.3-10.3-3.9c-0.9-2.3-1.8-4.5-2.7-6.8c-2.1-5.5-4.1-11.1-6.1-16.7c-2.1-5.9-4.1-11.8-6.1-17.7
							c-1.7-5-4.5-10.6-5.1-15.9c-0.1-1.3-2-1.3-2,0c0,13.6,0.2,27.3,0.4,40.9c0.1,6.6,0.2,13.2,0.2,19.9c0,3.8,1,8.9-4.1,9.5
							c-4.1,0.4-3.9-3.3-3.9-5.5c-0.5-15.4-0.2-30.8-0.3-46.1c0-8.5,0-17-0.1-25.5c0-1.4,0-2.8,0-4.2c0-4.4,8.1-3.5,10.7-2.9
							c2.4,0.5,3.4,6.9,4.1,9c1.3,3.9,2.7,7.8,4,11.7c5.5,15.9,10.9,31.8,16.4,47.6c0.2,0.5,0.3,0.9,0.5,1.4c0.3,0.9,1.7,1,2,0
							c3-11,6.1-22,9.2-33c2-7.2,4.1-14.4,6.2-21.5c0.6-2.1,1.3-4.2,2-6.3c0.5-1.6,1.1-3.1,1.8-4.6
							C244.6,113.9,249.4,113,252.9,112.8c1.3,0,1.3-2.1,0-2c-3.8,0.1-9,1.1-11.1,4.7c-1.4,2.3-2.3,5-3.1,7.6
							c-2.3,7-4.3,14.1-6.3,21.2c-3.6,12.7-7.2,25.3-10.7,38c0.7,0,1.3,0,2,0c-4-11.4-7.9-22.9-11.9-34.4c-2.1-6-4.1-11.9-6.2-17.9
							c-1.2-3.4-2.3-6.9-3.5-10.3c-0.6-1.7-1.4-7-3-7.9c-3.4-2-8.4-1.6-11.9-0.3c-3.3,1.2-3.3,3.6-3.3,6.5
							c0.1,17.6,0.1,35.3,0.2,52.9c0,6.6,0,13.2,0.2,19.8c0.1,6,1.7,9.7,8.5,8.3c4.2-0.9,3.7-4.6,3.6-8c0-7.1-0.1-14.2-0.2-21.3
							c-0.2-14.2-0.4-28.4-0.4-42.6c-0.7,0-1.4,0-2,0c0.6,5.5,3.4,11.2,5.2,16.4c2.3,6.9,4.7,13.8,7.2,20.6
							c2.2,6.2,4.5,12.3,6.9,18.4c1.9,4.9,3.9,8.2,9.6,8.1c4.8-0.1,8.6-2.1,9.8-6.9c1.8-7.3,3.7-14.5,5.8-21.8
							c3.6-12.4,7.4-24.7,10.7-37.1c-0.7-0.1-1.3-0.2-2-0.3c0.3,2.7,0,5.6-0.1,8.3c-0.2,14.7-0.2,29.4-0.2,44.2c0,6.6,0,13.1,0,19.7
							c0,3.6,4.3,3.2,6.7,2.9c8.6-1.1,6.1-13.5,6-19.3c-0.1-14.8-0.4-29.5-0.7-44.3c-0.1-6.8,0-13.6-0.5-20.4
							c-0.2-3.2-2.5-4.6-5.3-4.9C251.5,110.7,251.6,112.7,252.9,112.8z"/>
					</g>
				</g>
			</g>
			<g>
				<g>
					<path class="st3" d="M318,151c0,28.1-4.6,48-21.2,48c-9.1,0-17.1-2.3-20.8-16.2c-1.7-6.8-2.8-16.7-2.8-25.9
						c0-6.1,0.2-12,0.2-16.5c0-10.5,4.1-30.3,24.7-30.3c11.5,0,18.9,11.7,19.5,21.7C317.5,138.5,318,145,318,151z M307.8,152.9
						c0-9.1-0.3-20.4-1.4-25.9c-0.6-3.8-4.7-10.3-10.2-10.3c-6.8,0-12.9,6.1-12.9,38.3c0,11,1.3,37.8,12.6,37.8
						C304.9,192.9,307.8,171.9,307.8,152.9z"/>
				</g>
				<g>
					<g>
						<path class="st1" d="M317,151c0,9.8-0.4,19.7-2.8,29.2c-1.7,6.9-5,14.3-12.1,16.9c-7.1,2.6-16.6,0.3-21.2-5.7
							c-6.5-8.5-6.5-22.7-6.7-32.8c-0.3-14.4-2.3-35,11.6-44.3c8.8-5.9,20.3-3.6,26.4,4.9C318.4,127.9,316.9,140.8,317,151
							c0,1.3,2,1.3,2,0c-0.1-11.5,1.2-24.1-5.9-33.9c-5.7-7.9-15.3-9.6-24.2-6.6c-18.2,6.1-16.7,29.4-16.8,44.6
							c-0.1,11.7,0.2,26,6.3,36.4c4.2,7.1,12.6,9,20.3,8.4c19.2-1.5,19.9-30.1,20.2-43.8c0-1.7,0-3.4,0.1-5.1
							C319,149.7,317,149.7,317,151z"/>
					</g>
					<g>
						<path class="st1" d="M308.8,152.9c0-6.1-0.1-12.2-0.5-18.3c-0.2-3.6-0.3-7.8-2-11.1c-2.6-5.1-7.6-9.4-13.6-7.3
							c-3.8,1.3-5.8,5.2-7.1,8.7c-3.3,8.8-3.3,19-3.4,28.2c-0.1,8.1,0.4,16.2,1.8,24.1c1,5.3,3,13.7,8.6,16
							C309.1,199.9,308.8,160.3,308.8,152.9c0-1.3-2-1.3-2,0c0,5.3-1.6,48.2-14.9,37.4c-4.5-3.7-5.6-11.6-6.4-17
							c-0.9-6-1.2-12.2-1.2-18.3c0-8.4,0.3-17,2.1-25.3c0.8-3.8,2.2-8.4,5.6-10.8c5.5-3.9,11.5,2.3,13.2,7.4c1.2,3.5,1,7.8,1.2,11.4
							c0.3,5,0.3,10.1,0.3,15.1C306.8,154.2,308.8,154.2,308.8,152.9z"/>
					</g>
				</g>
			</g>
			<g>
				<g>
					<path class="st3" d="M379.6,116.4c0.2,3.9,0.2,19.8,0.2,37.1v14c0,16,0.5,30.6-2.8,30.6c-3.1,0-4.9-0.4-7.7-2.5
						c0,0,0.3-18.2,0.3-34.5c0-4.4,1.4-21.7,1.3-25.3L347,195.7c-0.6,1.3-2.4,1.8-4.4,1.8c-4.2,0-9.8-2.3-9.8-4.4
						c-0.5-1.4-0.6-6-0.6-13.4c0-20.9,0.9-55.7,0.9-64c0.3-1.1,0.2-2.6,3-3.4c5.8-1.5,6.8,2.3,6.8,4.5v10.6c0,9.8-0.8,25.9-0.8,38.8
						c0,5.1-1.4,17.4-0.9,20.9c7.7-16.9,18.7-47,26-66.5c0.9-2.6,1.6-6.8,4.6-8.1C376.4,112.5,379.3,114.3,379.6,116.4z
						 M372.3,103.7c-0.8-1.4-2.2-2-3.9-2c-0.6,0-1.6,0-2,0.5c-2.2,2.4-5.3,3.6-9,3.6c-6.8,0-7.2-3.9-11.2-4.5c-2,0.1-3.3,0.5-3.3,2
						c0,4.5,5.2,8.3,14.9,8.3C369,111.5,372.3,103.7,372.3,103.7z"/>
				</g>
				<g>
					<g>
						<path class="st1" d="M378.6,116.4c0.5,13,0.2,26,0.2,38.9c0,11.8,0.5,23.7-0.3,35.4c-0.3,3.9-0.3,7-5.2,5.9
							c-3.4-0.8-3-1.4-2.9-4.2c0.1-7.5,0.2-15,0.2-22.6c0.1-11.3,1.6-22.8,1.3-34.1c0-1.2-1.6-1.3-2-0.3
							c-4.1,10.4-8.3,20.9-12.4,31.3c-2.7,6.9-5.5,13.8-8.2,20.7c-0.8,2-1.6,4-2.4,6.1c-1.7,4.3-7.2,2.8-10.7,1.2
							c-4.1-1.8-2.8-9.9-2.8-13.4c0-5.9,0-11.8,0.1-17.7c0.1-11.5,0.4-23,0.6-34.5c0.1-3.8,0.1-7.6,0.2-11.3c0-3.3,1.4-5.5,5.5-4.9
							c2.6,0.4,2.3,3.6,2.3,5.4c0,9.4-0.1,18.7-0.4,28.1c-0.2,7.5-0.1,15.1-0.5,22.7c-0.3,5.9-1.4,12.1-0.9,18
							c0.1,0.9,1.4,1.5,1.9,0.5c5.4-11.9,10-24.1,14.7-36.2c2.6-6.7,5.1-13.5,7.6-20.2c1.1-3,2.2-6.1,3.4-9.1c0.6-1.5,1-3,1.5-4.6
							c1.2-3.8,7.9-5.7,9.4-0.9c0.4,1.3,2.3,0.7,2-0.5c-1.4-4.5-8.2-6.1-11.4-2.9c-2,2.1-2.5,5.7-3.4,8.3c-1.6,4.4-3.3,8.9-4.9,13.3
							c-6.5,17.4-12.8,34.9-20.5,51.8c0.6,0.2,1.3,0.3,1.9,0.5c-0.4-4.3,0.2-8.8,0.5-13.1c0.4-5.8,0.4-11.7,0.5-17.5
							c0.2-10.8,0.7-21.7,0.7-32.5c0-3.9,1.5-13.4-5.1-13.1c-8.5,0.4-6.7,7.6-6.8,14c-0.2,11-0.4,22.1-0.6,33.1
							c-0.2,11-0.9,22.4,0.1,33.4c0.6,6.4,12.1,9.9,16.2,5c1.8-2.2,2.6-6.4,3.6-9c6.8-17.1,13.6-34.3,20.4-51.4
							c-0.7-0.1-1.3-0.2-2-0.3c0.1,5.8-0.5,11.8-0.9,17.6c-0.5,7.8-0.4,15.5-0.4,23.3c-0.1,6.3-0.1,12.5-0.2,18.8
							c-0.1,3.1,8.6,4.7,10.5,2.7c1.2-1.2,1.4-3.6,1.6-5.2c0.5-4.2,0.5-8.5,0.6-12.7c0-6.6,0-13.2,0-19.8c0-14.7,0.4-29.4-0.2-44.1
							C380.6,115.1,378.5,115.1,378.6,116.4z"/>
					</g>
					<g>
						<path class="st1" d="M373.1,102.9c-1.3-1.7-4-3.1-6.2-2.1c-2.4,1.1-4,2.9-6.7,3.7c-3.5,0.9-6.8-0.1-9.5-2.1
							c-2.1-1.5-4.7-3-7.3-1.5c-1.8,1.1-1.6,3.6-0.8,5.2c5.3,10.3,26.1,8.4,30.7-1.9c0.5-1.2-1.2-2.2-1.8-1c-4,9-19.3,9.7-25.9,3.8
							c-0.8-0.7-3.7-5.6,1.3-4.4c1,0.2,1.9,1.1,2.7,1.6c1.9,1.4,3.7,2.2,6,2.6c2.2,0.3,4.4,0,6.5-0.6c3.2-0.9,6.4-5.8,9.6-1.7
							C372.4,105.4,373.9,104,373.1,102.9z"/>
					</g>
				</g>
			</g>
		</g>
		<g>
			<g>
				<path class="st4" d="M193.6,205.8c0.8,4.6-0.3,13,0.1,16.6c2.2-4.8,4.8-10.3,6.4-14.2c0.3-0.8,1.1-2.1,1.6-2.3
					c0.3-0.1,0.9-0.2,1.5-0.1c0.6,0.1,1.3,0.1,1.3,0.7c0,0.6-0.4,1.8-0.6,2.2c-1.2,2-5.8,11.8-7.9,15.1c0.5,1.1,1.3,2.1,2,3.1
					c3.3,4.7,4,6.6,6.7,11c0.3,0.4,1,1.7,0.8,2.5c-0.3,0.8-1.9,0.7-2.5,0.7c-1,0-1.6-0.9-2.2-2.1l-1.4-2.7c-1.6-3.2-3.6-6.1-5.7-8.9
					c-0.3,0.1-0.4,0.5-0.4,1c-0.2,3.3-0.3,8.7-0.3,10.7c0,1.9-0.8,2-1.9,2c-0.4,0-1.1-0.2-1.6-0.3c-0.2-0.1-0.3-0.7-0.3-1.4
					c0.3-6.9,0.8-25.9,0.8-30.4c0-0.6-0.2-2.6,0.3-2.9c0.5-0.4,0.8-0.6,1.5-0.6C192.2,205.6,192.8,205.7,193.6,205.8z"/>
			</g>
			<g>
				<path class="st4" d="M230.2,239c0,1.3-1,1.7-2.8,1.7c-0.7,0-0.9-0.6-1-1l-1.9-11.5l-7.5,0.1c0,0.2-0.1,0.4-0.1,0.6
					c-0.3,0.8-1.6,9.3-2.4,10.9c-0.4,0.3-2.3,0.9-3,0.9c-0.4,0-0.8-0.3-0.8-1.1c0-0.3,0-0.7,0.1-1.1c2-9.1,3.9-18.5,6.4-28
					c0.6-2,0.8-4.8,4.7-4.8c2.6,0,3.1,2.7,3.4,4.6c1.6,9.3,3.1,17.7,4.9,28.1C230.2,238.7,230.2,238.9,230.2,239z M224.1,225.7
					l-2.7-16.6c-0.9,2.4-2,8.3-3.9,16.6l6.4,0H224.1z"/>
			</g>
			<g>
				<path class="st4" d="M252.3,212.9c0,11-0.3,25.2-0.4,27.1c-0.7,0.5-1.8,0.7-2.6,0.7c-0.6,0-1.3-0.1-1.3-0.5l0.1-13.4
					c-1.6,0.1-6.9,0.1-8.4,0.1v3.4v4.9c0,2.4,0,5.2-1.5,5.5h-0.9c-0.9,0-1.5-0.4-1.5-1.4c0-6,0.1-10.7,0.1-14.5
					c0-14.8-0.1-16.6,0-17.8c0.1-0.9,1.1-0.9,2-0.9c0.8,0,2,0.4,2,0.9c-0.1,7.8-0.2,13.3-0.2,17.3c0.9-0.1,2.3-0.1,3.6-0.1
					c1.8,0,3.5,0,4.8,0.1l0.3-17.6c0-0.5,0.8-0.9,1.7-0.9c0.7,0,1.3,0.2,2.1,0.8C252.3,208.4,252.3,210.6,252.3,212.9z"/>
			</g>
			<g>
				<path class="st4" d="M284.2,241c0,1.4-0.2,2.7-0.2,2.7c0,0.6-1.1,0.7-1.6,0.7c-0.8,0-1.4-0.2-1.4-0.6l-0.1-3.2h-20.2l-0.1,3.2
					c0,0.4-0.7,0.6-1.4,0.6c-0.4,0-1.6-0.1-1.6-0.7c0,0-0.2-1.4-0.2-2.7c0-1.2,0.1-2.3,0.6-2.6c0.5-0.4,2.5-0.4,4.2-0.4h0.9
					c1.6-6.9,3.1-21.6,3.1-29v-0.6c0-1.1,0.8-2.1,2.5-2.1c2.5,0,8.3,0,8.8,0.2c1.1,0.4,1.4,0.9,1.4,2.6c0,10.9-0.2,23.9-0.2,27.3
					v1.6h0.8c1.7,0,3.6,0,4.2,0.4C284.1,238.7,284.2,239.8,284.2,241z M266.9,238.1h8.2v-0.9c0.1-3.7,0.2-26.2,0.2-28.1
					c-1.1,0-2.3,0.1-5.3,0.1v0.5C270,220.9,268.1,232.3,266.9,238.1z"/>
			</g>
			<g>
				<path class="st4" d="M308.7,207.9c0.1,1.6,0.1,7.9,0.1,14.8v5.6c0,6.4,0.2,12.2-1.1,12.2c-1.3,0-2-0.2-3.1-1
					c0,0,0.1-7.3,0.1-13.8c0-1.8,0.6-8.7,0.5-10.1l-9.5,23.9c-0.3,0.5-0.9,0.7-1.8,0.7c-1.7,0-3.9-0.9-3.9-1.8
					c-0.2-0.6-0.3-2.4-0.3-5.4c0-8.4,0.4-22.3,0.4-25.6c0.1-0.5,0.1-1.1,1.2-1.4c2.3-0.6,2.7,0.9,2.7,1.8v4.3
					c0,3.9-0.3,10.4-0.3,15.5c0,2.1-0.6,7-0.4,8.4c3.1-6.8,7.5-18.8,10.4-26.6c0.4-1.1,0.6-2.7,1.8-3.3
					C307.4,206.4,308.6,207.1,308.7,207.9z"/>
			</g>
			<g>
				<path class="st4" d="M341.5,241c0,1.4-0.2,2.7-0.2,2.7c0,0.6-1.1,0.7-1.6,0.7c-0.8,0-1.4-0.2-1.4-0.6l-0.1-3.2H318l-0.1,3.2
					c0,0.4-0.7,0.6-1.4,0.6c-0.4,0-1.6-0.1-1.6-0.7c0,0-0.2-1.4-0.2-2.7c0-1.2,0.1-2.3,0.6-2.6c0.5-0.4,2.5-0.4,4.2-0.4h0.9
					c1.6-6.9,3.1-21.6,3.1-29v-0.6c0-1.1,0.8-2.1,2.5-2.1c2.5,0,8.3,0,8.8,0.2c1.1,0.4,1.4,0.9,1.4,2.6c0,10.9-0.2,23.9-0.2,27.3
					v1.6h0.8c1.7,0,3.6,0,4.2,0.4C341.4,238.7,341.5,239.8,341.5,241z M324.2,238.1h8.2v-0.9c0.1-3.7,0.2-26.2,0.2-28.1
					c-1.1,0-2.3,0.1-5.3,0.1v0.5C327.3,220.9,325.4,232.3,324.2,238.1z"/>
			</g>
			<g>
				<path class="st4" d="M366.4,239c0,1.3-1,1.7-2.8,1.7c-0.7,0-0.9-0.6-1-1l-1.9-11.5l-7.5,0.1c0,0.2-0.1,0.4-0.1,0.6
					c-0.3,0.8-1.6,9.3-2.4,10.9c-0.4,0.3-2.3,0.9-3,0.9c-0.4,0-0.8-0.3-0.8-1.1c0-0.3,0-0.7,0.1-1.1c2-9.1,3.9-18.5,6.4-28
					c0.6-2,0.8-4.8,4.7-4.8c2.6,0,3.1,2.7,3.4,4.6c1.6,9.3,3.1,17.7,4.9,28.1C366.4,238.7,366.4,238.9,366.4,239z M360.3,225.7
					l-2.7-16.6c-0.9,2.4-2,8.3-3.9,16.6l6.4,0H360.3z"/>
			</g>
			<g>
				<path class="st4" d="M385.9,207.2c0,0.3-0.5,1.5-0.9,1.5l-5.9,0.1c0,10.8-0.2,24.4-0.2,27.8v3.2c0,0.1-0.7,1.1-2.4,1.1
					c-1.8,0-2-0.7-2-1.6c0-0.6,0.1-1.3,0.1-2c0.1-3.6,0.2-25.3,0.2-28.5c-2.8,0-5.3,0-5.7-0.1c-0.7-0.1-0.8-1-0.8-1.8
					c0.1-0.5,0.6-1,1.3-1.2c2.5,0,14.9,0,15.4,0.2C385.2,206.2,385.9,206.8,385.9,207.2z"/>
			</g>
		</g>
		<g>
			<g>
				<path class="st4" d="M254.5,109.3c3.1,0,4.4,2,4.4,5.1c0.5,24.3,1.1,48.4,1.1,73.2c0,4.6,0,8.8-8,8.8c-1.4,0-2.5-0.5-2.7-2.1
					c0-67.6,0.5-70.7,0.3-72.2c-7.2,27.4-9.9,31.9-17,60.8c-1.6,3.5-5.8,4.3-9.6,4.3c-3.1,0-5.2-1.9-6.1-4.3
					c-5-12.2-13.4-36-18.4-51.4c-1.1-3.3-2-5.8-2-6.9c0,20.3,0.6,47.7,0.6,68.4c-0.5,2.4-3.8,2.9-6.3,2.9c-3.3,0-3.8-3.3-3.8-5.4
					c-0.3-3.8-0.3-61.9-0.5-78.2c1.3-2.5,4.6-3.3,7.7-3.3c3,0,4.9,0.6,6,1.1c15.4,45.1,24.1,69.9,24.1,69.9s15.3-55.4,17.8-61.6
					c1.3-3.1,1.7-6.3,6.1-7.9C250.9,109.8,251.5,109.3,254.5,109.3z"/>
			</g>
			<g>
				<path class="st4" d="M319.6,148.5c0,28.1-4.6,48-21.2,48c-9.1,0-17.1-2.3-20.8-16.2c-1.7-6.8-2.8-16.7-2.8-25.9
					c0-6.1,0.2-12,0.2-16.5c0-10.5,4.1-30.3,24.7-30.3c11.5,0,18.9,11.7,19.5,21.7C319.2,136,319.6,142.5,319.6,148.5z M309.4,150.4
					c0-9.1-0.3-20.4-1.4-25.9c-0.6-3.8-4.7-10.3-10.2-10.3c-6.8,0-12.9,6.1-12.9,38.3c0,11,1.3,37.8,12.6,37.8
					C306.6,190.4,309.4,169.5,309.4,150.4z"/>
			</g>
			<g>
				<path class="st4" d="M381.2,114c0.2,3.9,0.2,19.8,0.2,37.1v14c0,16,0.5,30.6-2.8,30.6c-3.1,0-4.9-0.4-7.7-2.5
					c0,0,0.3-18.2,0.3-34.5c0-4.4,1.4-21.7,1.3-25.3l-23.8,59.9c-0.6,1.3-2.4,1.8-4.4,1.8c-4.2,0-9.8-2.3-9.8-4.4
					c-0.5-1.4-0.6-6-0.6-13.4c0-20.9,0.9-55.7,0.9-64c0.3-1.1,0.2-2.6,3-3.4c5.8-1.5,6.8,2.3,6.8,4.5V125c0,9.8-0.8,25.9-0.8,38.8
					c0,5.1-1.4,17.4-0.9,20.9c7.7-16.9,18.7-47,26-66.5c0.9-2.6,1.6-6.8,4.6-8.1C378.1,110.1,380.9,111.8,381.2,114z M374,101.2
					c-0.8-1.4-2.2-2-3.9-2c-0.6,0-1.6,0-2,0.5c-2.2,2.4-5.3,3.6-9,3.6c-6.8,0-7.2-3.9-11.2-4.5c-2,0.1-3.3,0.5-3.3,2
					c0,4.5,5.2,8.3,14.9,8.3C370.7,109.1,374,101.2,374,101.2z"/>
			</g>
		</g>
	</g>
	<g>
		<g class="st5">
			<path class="st1" d="M179.4,242.8c0,4.5-15.1,8.1-33.7,8.1c-18.6,0-33.7-3.6-33.7-8.1c0-4.5,15.1-8.1,33.7-8.1
				C164.4,234.7,179.4,238.3,179.4,242.8z"/>
		</g>
		<g>
			<g>
				<path class="st6" d="M127.3,116.7c0,0-2.3-5.3-2.7-6.7c-0.3-1.4,3.1-8,3.1-8C126.4,105.9,127.3,116.7,127.3,116.7z M112.4,112.2
					c-0.2,3.9,4.3,12.8,6.9,16.6c0,0,5.7,13,7.5,12.3c1.8-0.7,6.4-4.6,6.4-4.6l28.7-6.3l1.9-15.9c0,0,19.8-1.3,25.8-2.3
					c6.1-1,4.1-5,3-7.9c-1.1-3-9.1-16-11.7-20.2c-2.6-4.3-4.4-9.7-10.1-12.1c-5.6-2.5-18.4-4.6-18.4-4.6c-5.2-1-19.5-4.8-24.4,2.1
					C123.1,76.1,112.6,108.2,112.4,112.2z M165.4,106.4c0,0,3.9-11.1,5.7-15.7c0,0,8.7,11.4,8.4,12.4
					C179.2,104.1,165.4,106.4,165.4,106.4z"/>
			</g>
		</g>
		<g>
			<path class="st7" d="M158.8,243.5c0,0,1.2,0.6,1.1,1.1c-0.1,0.5-20.2-0.3-21-1.1c-0.8-0.8,0.2-1.2,0.2-1.2
				C139.9,241.9,158.8,243.5,158.8,243.5z"/>
		</g>
		<g>
			<path class="st7" d="M176.5,239.3c0,0,1.2,0.7,1.1,1.2c-0.1,0.5-20.5-1.3-21.3-2.1c-0.8-0.8,0.3-1.2,0.3-1.2
				C157.4,236.8,176.5,239.3,176.5,239.3z"/>
		</g>
		<g>
			<path class="st8" d="M162,130.2c0,0,17,43.8,17.9,45.7c0.8,1.9-11,44.8-18,56.4h-4.6c0,0,8.7-52.6,7.7-54.1
				c-1-1.5-14.3-29.3-14.3-29.3s-4.8,34.7-5,42.7c-0.2,8-0.6,44.7-0.6,44.7l-5.1-0.1c0,0-3.7-15.4-5.1-22.1
				c-1.4-6.7-1.2-28.4,0-34.1c1.2-5.7-4.5-9.5-3.9-39.7c0,0,0.5-10.3,8.4-11.1C147,128.4,157.9,129.2,162,130.2z"/>
		</g>
		<g>
			<g>
				<g>
					<path class="st9" d="M128,69.2c-4.9,6.9-15.4,39-15.6,43c-0.2,3.9,4.3,12.8,6.9,16.6c0,0,5.7,13,7.5,12.3
						c1.8-0.7,6.4-4.6,6.4-4.6s3.7,1.9,6.5-1.4c-3.2-13.4,3.6-64.1,3.6-64.1c-1.6-2.2,0.7-5.4,0.7-5.4C138,64.8,131.1,64.9,128,69.2
						z M127.3,116.7c0,0-2.3-5.3-2.7-6.7c-0.3-1.4,3.1-8,3.1-8C126.4,105.9,127.3,116.7,127.3,116.7z"/>
				</g>
			</g>
			<g>
				<g>
					<path class="st9" d="M192.7,104.1c-1.1-3-9.1-16-11.7-20.2c-2.6-4.3-4.4-9.7-10.1-12.1c-1.8-0.8-5.9-1.9-8.5-2.6
						c0,0-12.5,49.7-10.4,63.2l9.9-2.2l1.9-15.9c0,0,19.8-1.3,25.8-2.3C195.8,111,193.8,107,192.7,104.1z M179.5,103.1
						c-0.3,1-14.1,3.3-14.1,3.3s3.9-11.1,5.7-15.7C171.1,90.7,179.8,102.1,179.5,103.1z"/>
				</g>
			</g>
		</g>
		<g>
			<path class="st7" d="M167.5,36.9c0,0,3.4-5.6,1.5-10.8c-1.8-5.2-7.3-7.2-11.5-7.3c-4.2-0.1-11.4,1.8-12.6,6.9
				c-1.2,5.2,1.1,10.6,1.1,10.6L167.5,36.9z"/>
		</g>
		<g>
			<path class="st10" d="M166.9,28.1c0,0,1.1,6.4,1,8.2c0,0,3.1-0.1,2.9,2.7c-0.2,2.8-3,3.3-3.9,2.9c0,0-1.1,8.7-2.2,12.1
				c-1.1,3.3-5.2,7.5-5.2,7.5l-0.6,6.7c0,0-0.7,6-8.2,4.7c-7.5-1.3-6.9-7-6.9-7l2.5-8.6c0,0-1.5-1-1.5-8.8c0-7.8,0.1-8.5,0.1-8.5
				s-3.4-0.6-3.5-3.1c-0.2-2.5,3-3.1,3.9-2.8c0,0,0.4-5.7,3-8c0,0,3.4,1.6,9,2.2C163,28.9,166.9,28.1,166.9,28.1z"/>
		</g>
		<g>
			<path class="st7" d="M154,31.8c0,0-4.8,0-5.9,0.5v1c0,0,4.6-0.3,5.9,0V31.8z"/>
		</g>
		<g>
			<path class="st7" d="M159.7,32.6c2.2,0,4.4,0.4,5.3,1v0.9c-1-0.5-4.2-0.6-5.5-0.6L159.7,32.6z"/>
		</g>
		<g>
			<path class="st4" d="M148.5,37.9c0,1.2,1,2.2,2.3,2.2c1.3,0,2.3-1,2.3-2.2c0-1.2-1-2.2-2.3-2.2C149.5,35.7,148.5,36.7,148.5,37.9
				z"/>
		</g>
		<g>
			<path class="st4" d="M159.5,38.8c0,1.2,1,2.2,2.3,2.2c1.3,0,2.3-1,2.3-2.2c0-1.2-1-2.2-2.3-2.2C160.6,36.6,159.5,37.6,159.5,38.8
				z"/>
		</g>
		<g>
			<path class="st7" d="M160.7,38.4c0,0.9,0.6,1.6,1.3,1.6c0.7,0,1.3-0.7,1.3-1.6s-0.6-1.6-1.3-1.6
				C161.3,36.7,160.7,37.5,160.7,38.4z"/>
		</g>
		<g>
			<path class="st7" d="M149.5,37.3c0,0.9,0.6,1.6,1.3,1.6c0.7,0,1.3-0.7,1.3-1.6c0-0.9-0.6-1.6-1.3-1.6
				C150.1,35.7,149.5,36.4,149.5,37.3z"/>
		</g>
		<g>
			<path class="st11" d="M164.6,38.5c-0.1,0-0.3-0.1-0.3-0.2c0-0.1-0.6-1.2-2.2-1.3c-1.6-0.1-2.3,0.6-2.3,0.6
				c-0.1,0.1-0.4,0.1-0.5,0c-0.1-0.1-0.2-0.4,0-0.5c0,0,1-1,2.9-0.9c2,0.1,2.8,1.6,2.8,1.7c0.1,0.2,0,0.4-0.2,0.5
				C164.8,38.5,164.7,38.5,164.6,38.5z"/>
		</g>
		<g>
			<path class="st11" d="M153.4,37.3c-0.1,0-0.3-0.1-0.3-0.2c0,0-0.5-1-2.1-1c-1.7,0-2.3,0.5-2.3,0.5c-0.2,0.1-0.4,0.1-0.5-0.1
				c-0.1-0.2-0.1-0.4,0-0.5c0.1-0.1,0.9-0.7,2.8-0.7c2.1,0,2.7,1.4,2.7,1.4c0.1,0.2,0,0.4-0.2,0.5C153.5,37.3,153.5,37.3,153.4,37.3
				z"/>
		</g>
		<g>
			<path class="st12" d="M156.4,48.3c-1.1,0-2.4-0.3-2.9-0.7c-0.2-0.2-0.4-0.4-0.4-0.6c0-0.8,1.5-6.5,1.9-7.6c0-0.1,0.2-0.2,0.3-0.2
				c0.1,0,0.2,0.2,0.2,0.3c-0.5,1.3-1.9,6.8-1.9,7.4c0,0,0,0.1,0.2,0.2c0.6,0.5,2.5,0.8,3.6,0.5c0.8-0.2,0.6-4.4,0.1-8.2
				c0-0.1,0.1-0.3,0.2-0.3c0.1,0,0.3,0.1,0.3,0.2c0.3,1.9,1.2,8.3-0.4,8.8C157.2,48.2,156.8,48.3,156.4,48.3z"/>
		</g>
		<g>
			<path class="st7" d="M156.5,54.4c-0.3,0-0.6,0-0.9,0c-2.5-0.2-3.1-1-3.7-1.5c-0.2-0.2-0.4-0.4-0.6-0.5c-0.1-0.1-0.2-0.2-0.1-0.3
				c0.1-0.1,0.2-0.2,0.3-0.1c0.3,0.2,0.5,0.4,0.7,0.6c0.5,0.5,1,1.2,3.3,1.4c3.1,0.3,4.1-1.1,4.1-1.2c0.1-0.1,0.2-0.1,0.3-0.1
				c0.1,0.1,0.1,0.2,0.1,0.3C160.2,53,159.3,54.4,156.5,54.4z"/>
		</g>
		<g>
			<path class="st13" d="M148.2,136c0,0-10.5,0.9-12.7,3.4c0,0,0.5,30.4,7.1,37.5C142.6,176.8,145.9,174.5,148.2,136z"/>
		</g>
		<g>
			<path class="st13" d="M167.8,187.4c-3.2,4-4.9,36.3-4.9,36.3s14.6-39.1,14.6-42.4C177.5,177.9,171.1,183.3,167.8,187.4z"/>
		</g>
		<g>
			<path class="st9" d="M157.2,232.2c0,0-1.4,4.1-0.5,5c0.9,0.9,19.6,2.3,19.6,2.3s-2.3-3.6-8.2-5.4c-5.9-1.9-6.4-3-6.4-3
				L157.2,232.2z"/>
		</g>
		<g>
			<path class="st9" d="M144.9,236.4c0,0,12,4.8,14.1,7.4c0,0-13.4,0.3-19.9-1.2c0,0-0.9-3.1,0.7-6.2L144.9,236.4z"/>
		</g>
		<g>
			<path class="st10" d="M133.2,136.4c0,0,6.4,2.8,7.8,5.7c0,0-3.3-0.1-4.7,0.9c-1.4,1-6,4.8-6.1,6c0,0-1.7-2.4-2-8.8L133.2,136.4z"
				/>
		</g>
		<g>
			<path class="st7" d="M147.8,240.3c-0.1,0-0.2-0.1-0.2-0.2c0-0.1,0.1-0.3,0.2-0.3l3.9-0.7c0.1,0,0.3,0.1,0.3,0.2
				c0,0.1-0.1,0.3-0.2,0.3L147.8,240.3C147.8,240.3,147.8,240.3,147.8,240.3z"/>
		</g>
		<g>
			<path class="st7" d="M145.8,238.8c-0.1,0-0.2-0.1-0.2-0.2c0-0.1,0-0.3,0.2-0.3l2.8-0.7c0.1,0,0.3,0,0.3,0.2c0,0.1,0,0.3-0.2,0.3
				L145.8,238.8C145.8,238.8,145.8,238.8,145.8,238.8z"/>
		</g>
		<g>
			<path class="st7" d="M164.1,235.5c-0.1,0-0.2-0.1-0.2-0.2c0-0.1,0-0.3,0.2-0.3l3.7-0.9c0.1,0,0.3,0.1,0.3,0.2
				c0,0.1,0,0.3-0.2,0.3L164.1,235.5C164.1,235.5,164.1,235.5,164.1,235.5z"/>
		</g>
		<g>
			<path class="st7" d="M161.6,234.1c-0.1,0-0.2-0.1-0.2-0.2c0-0.1,0-0.3,0.2-0.3l2.6-0.8c0.1,0,0.3,0,0.3,0.2c0,0.1,0,0.3-0.2,0.3
				L161.6,234.1C161.7,234.1,161.7,234.1,161.6,234.1z"/>
		</g>
		<g>
			<path class="st4" d="M160.5,68.7c0,0-6.8,20.9-7.8,24l6.8-24.2L160.5,68.7z"/>
		</g>
		<g>
			<path class="st4" d="M143.9,67c0,0-0.6,0.8-0.6,1.5l3.3,24.5C146.6,93,144.5,71.6,143.9,67z"/>
		</g>
		<g>
			<polygon class="st4" points="154.4,92.6 142.4,93.2 140.9,109.7 152.9,108.3 			"/>
		</g>
		<g>
			<g>
				<path class="st3" d="M151.9,97.9c-0.1-0.1-0.2-0.3-0.3-0.4l-5.9,3.4l-2.8-1.6c-0.1,0.2-0.1,0.4-0.1,0.6l3,1.7L151.9,97.9z"/>
			</g>
			<g>
				<path class="st3" d="M145.7,102.1l-3.1-1.8c0,0.1,0,0.2,0,0.3c0,2.8,2.3,5.1,5.1,5.1c2.8,0,5.1-2.3,5.1-5.1
					c0-0.8-0.2-1.6-0.6-2.3L145.7,102.1z"/>
			</g>
			<g>
				<path class="st3" d="M151.2,97c-0.1-0.1-0.3-0.3-0.4-0.4l-5,2.9l-2.4-1.4c-0.1,0.1-0.2,0.3-0.3,0.5l2.7,1.5L151.2,97z"/>
			</g>
			<g>
				<path class="st3" d="M150.2,96.3c-0.2-0.1-0.4-0.2-0.6-0.3l-3.9,2.3l-1.8-1c-0.1,0.1-0.2,0.3-0.4,0.4l2.1,1.2L150.2,96.3z"/>
			</g>
		</g>
		<g>
			<g>
				<path class="st11" d="M168,42.1l-10.7-0.9l0.5-6.2l10.7,0.9L168,42.1z M158.2,40.5l9.1,0.7l0.4-4.7l-9.1-0.7L158.2,40.5z"/>
			</g>
			<g>
				<path class="st11" d="M155.3,41l-10.7-0.9l0.5-6.2l10.7,0.9L155.3,41z M145.4,39.5l9.1,0.7l0.4-4.7l-9.1-0.7L145.4,39.5z"/>
			</g>
			<g>
				
					<rect x="156.2" y="36.4" transform="matrix(5.838809e-02 -0.9983 0.9983 5.838809e-02 109.785 191.923)" class="st11" width="0.8" height="2.7"/>
			</g>
		</g>
		<g>
			<path class="st7" d="M171.8,20.6c0,0,1.5,8.9-12.2,7.8c-14.7-1.1-10-6.6-10-6.6s9-3.7,14.6-1.4C169.7,22.9,170.9,22.2,171.8,20.6
				z"/>
		</g>
		<g>
			<path class="st7" d="M169.7,18.8c0,0,2.5,8.7-10.1,9.2c-13.5,0.6-9.9-5.4-9.9-5.4s7.7-4.8,13.1-3C168.1,21.3,169,20.4,169.7,18.8
				z"/>
		</g>
		<g>
			<g>
				<path class="st14" d="M130.2,79.4c0,0-2.6,11.7-5.7,19.5c-3.1,7.9-8.7,13.9-6.7,13.4c2.8-0.7,16.8,19.2,12.9,24
					c0,0,3.8-0.8,2.4-4.9c-1.5-4.1-7.1-15.5-9.2-18.7c-2.1-3.1,5.2-12.8,6.8-18.7C132.4,88.1,130.2,79.4,130.2,79.4z"/>
			</g>
			<g>
				<g>
					<path class="st14" d="M134.7,127.6c-4.6-10.7-3.4-28-1.3-34.9c2.1-6.9-4.1-23-4.1-23c2.1-3.3,11.5-1.8,11.5-1.8l0.7,3.2
						c0,0-5.7,38.1-3.7,56C135.3,127.4,134.7,127.6,134.7,127.6z"/>
				</g>
				<g>
					<path class="st14" d="M162.7,73.5c5.8,1.4,9.1,3.4,9.1,3.4c-2.8,2.8-7.9,29.5-7.9,29.5s-6.4,2.2-7.6,3.3
						c-0.4,2.5-2.7,16.1-2.7,16.1c-0.4-0.1-1-0.2-1.7-0.3C152.9,110.7,160,83.7,162.7,73.5z"/>
				</g>
			</g>
			<g>
				<path class="st14" d="M191.7,107.5c0,0,0.5-3-5.3-2.6l-22.6,6.2c0,0-0.2-0.7,0.9,1.2C164.7,112.3,194,112.1,191.7,107.5z"/>
			</g>
		</g>
		<g>
			<g>
				<path class="st10" d="M163.9,114.3c0,0-2.9-5-7.6-4.6c0,0-3.5,11.7-3.6,13.3c0,0,0.5,1.3,2.2,0.2c1.7-1.1,2.1,0.7,3.8-0.3
					c2.4,0.5,1.2-2.4,2.5-3.2C162.6,118.9,163.9,114.3,163.9,114.3z"/>
			</g>
			<g>
				<path class="st10" d="M152.7,123.1v1.2c0,0,0.5,6.2,1.5,6c1-0.3-0.8-6.3,0.5-6.8c-0.1,1.6-0.1,8.7,1.4,8.1c0,0-0.3-3.7,0.3-6.9
					c0,0-0.4,7.5,1,6.6c0,0,0-5.9,0.8-7.9c0,0-0.6,5.9,1.5,6.1c0,0,0.3-6.2,0.7-8.9C160.5,120.4,155.4,119.6,152.7,123.1z"/>
			</g>
		</g>
		<g>
			<polygon class="st9" points="145,76.6 137.8,79.1 137.8,65.7 144.7,62.2 			"/>
		</g>
		<g>
			<polygon class="st9" points="164.6,84.2 159.5,79.7 159.5,66 164.1,69.5 			"/>
		</g>
	</g>
</g>
</svg>
