<?xml version="1.0" encoding="utf-8"?>
<!-- Generator: Adobe Illustrator 16.0.0, SVG Export Plug-In . SVG Version: 6.00 Build 0)  -->
<!DOCTYPE svg PUBLIC "-//W3C//DTD SVG 1.1//EN" "http://www.w3.org/Graphics/SVG/1.1/DTD/svg11.dtd">
<svg version="1.1" id="Layer_1" xmlns="http://www.w3.org/2000/svg" xmlns:xlink="http://www.w3.org/1999/xlink" x="0px" y="0px"
	 width="22.68px" height="39.067px" viewBox="0 0 22.68 39.067" enable-background="new 0 0 22.68 39.067" xml:space="preserve">
<g>
	<path fill="#929497" d="M1.444,1.374c6.154,6.153,12.308,12.307,18.462,18.46c-0.302-0.302,0.073-0.463-0.7,0.31
		c-0.698,0.698-1.396,1.396-2.095,2.095c-2.12,2.12-4.239,4.239-6.359,6.358c-3.083,3.083-6.166,6.165-9.248,9.248
		c-0.64,0.64,0.765,0.849,1.207,0.406c6.166-6.165,12.332-12.331,18.497-18.496c0.12-0.12,0.2-0.378,0.061-0.518
		C15.104,13.073,8.938,6.908,2.772,0.744C2.32,0.292,0.948,0.878,1.444,1.374L1.444,1.374z"/>
</g>
</svg>
