<?xml version="1.0" encoding="utf-8"?>
<!-- Generator: Adobe Illustrator 16.0.0, SVG Export Plug-In . SVG Version: 6.00 Build 0)  -->
<!DOCTYPE svg PUBLIC "-//W3C//DTD SVG 1.1//EN" "http://www.w3.org/Graphics/SVG/1.1/DTD/svg11.dtd">
<svg version="1.1" id="Layer_1" xmlns="http://www.w3.org/2000/svg" xmlns:xlink="http://www.w3.org/1999/xlink" x="0px" y="0px"
	 width="18.884px" height="17.723px" viewBox="0 0 18.884 17.723" enable-background="new 0 0 18.884 17.723" xml:space="preserve">
<g>
	<path fill="#F37935" d="M9.731,10.202L0.097,0.568c-0.13-0.13-0.13-0.341,0-0.471c0.129-0.129,0.34-0.129,0.47,0l9.149,9.149
		l8.593-9.142c0.126-0.134,0.335-0.141,0.47-0.015c0.134,0.125,0.141,0.336,0.015,0.47L9.731,10.202z"/>
</g>
<g>
	<path fill="#F37935" d="M9.731,17.723L0.097,8.089c-0.13-0.13-0.13-0.341,0-0.47c0.13-0.13,0.341-0.129,0.47,0l9.149,9.149
		l8.593-9.141c0.126-0.134,0.335-0.141,0.47-0.015c0.134,0.125,0.141,0.336,0.015,0.47L9.731,17.723z"/>
</g>
</svg>
