<?xml version="1.0" encoding="UTF-8" standalone="no"?>
<!-- Generator: Adobe Illustrator 16.0.0, SVG Export Plug-In . SVG Version: 6.00 Build 0)  -->

<svg
   xmlns:dc="http://purl.org/dc/elements/1.1/"
   xmlns:cc="http://creativecommons.org/ns#"
   xmlns:rdf="http://www.w3.org/1999/02/22-rdf-syntax-ns#"
   xmlns:svg="http://www.w3.org/2000/svg"
   xmlns="http://www.w3.org/2000/svg"
   xmlns:sodipodi="http://sodipodi.sourceforge.net/DTD/sodipodi-0.dtd"
   xmlns:inkscape="http://www.inkscape.org/namespaces/inkscape"
   version="1.1"
   id="Layer_1"
   x="0px"
   y="0px"
   width="18.884px"
   height="17.723px"
   viewBox="0 0 18.884 17.723"
   enable-background="new 0 0 18.884 17.723"
   xml:space="preserve"
   inkscape:version="0.91 r13725"
   sodipodi:docname="arrow-double-up.svg"><metadata
     id="metadata15"><rdf:RDF><cc:Work
         rdf:about=""><dc:format>image/svg+xml</dc:format><dc:type
           rdf:resource="http://purl.org/dc/dcmitype/StillImage" /><dc:title></dc:title></cc:Work></rdf:RDF></metadata><defs
     id="defs13" /><sodipodi:namedview
     pagecolor="#ffffff"
     bordercolor="#666666"
     borderopacity="1"
     objecttolerance="10"
     gridtolerance="10"
     guidetolerance="10"
     inkscape:pageopacity="0"
     inkscape:pageshadow="2"
     inkscape:window-width="640"
     inkscape:window-height="480"
     id="namedview11"
     showgrid="false"
     inkscape:zoom="13.31603"
     inkscape:cx="9.4420004"
     inkscape:cy="8.8614998"
     inkscape:window-x="0"
     inkscape:window-y="24"
     inkscape:window-maximized="0"
     inkscape:current-layer="Layer_1" /><g
     id="g3"
     transform="matrix(-1,0,0,-1,18.883674,10.200826)"><path
       d="M 9.731,10.202 0.097,0.568 c -0.13,-0.13 -0.13,-0.341 0,-0.471 0.129,-0.129 0.34,-0.129 0.47,0 l 9.149,9.149 8.593,-9.142 c 0.126,-0.134 0.335,-0.141 0.47,-0.015 0.134,0.125 0.141,0.336 0.015,0.47 l -9.063,9.643 z"
       id="path5"
       inkscape:connector-curvature="0"
       style="fill:#f37935" /></g><g
     id="g7"
     transform="matrix(-1,0,0,-1,18.883674,25.244826)"><path
       d="M 9.731,17.723 0.097,8.089 c -0.13,-0.13 -0.13,-0.341 0,-0.47 0.13,-0.13 0.341,-0.129 0.47,0 l 9.149,9.149 8.593,-9.141 c 0.126,-0.134 0.335,-0.141 0.47,-0.015 0.134,0.125 0.141,0.336 0.015,0.47 l -9.063,9.641 z"
       id="path9"
       inkscape:connector-curvature="0"
       style="fill:#f37935" /></g></svg>