<?xml version="1.0" encoding="utf-8"?>
<!-- Generator: Adobe Illustrator 16.0.0, SVG Export Plug-In . SVG Version: 6.00 Build 0)  -->
<!DOCTYPE svg PUBLIC "-//W3C//DTD SVG 1.1//EN" "http://www.w3.org/Graphics/SVG/1.1/DTD/svg11.dtd">
<svg version="1.1" id="Layer_1" xmlns="http://www.w3.org/2000/svg" xmlns:xlink="http://www.w3.org/1999/xlink" x="0px" y="0px"
	 width="215.754px" height="121.608px" viewBox="0 0 215.754 121.608" enable-background="new 0 0 215.754 121.608"
	 xml:space="preserve">
<g>
	<g>
		<g opacity="0.8">
			<path fill="#999999" d="M176.792,103.625l-5.207-4.203l-16.271-13.139l-14.696-11.867H27.829
				c-10.12,0-18.353-8.232-18.353-18.353V28.452c0-10.119,8.232-18.352,18.353-18.352h155.915c10.12,0,18.354,8.232,18.354,18.352
				v27.611c0,10.121-8.234,18.353-18.354,18.353h-2.366l-0.304,1.938l-3.243,20.66L176.792,103.625L176.792,103.625z"/>
		</g>
		<path fill="#FFFFFF" d="M182.302,109.852l-5.537-4.471l-17.303-13.973l-15.628-12.621H26.425
			c-10.763,0-19.518-8.754-19.518-19.517v-31.9c0-10.764,8.755-19.518,19.518-19.518h163.271c10.761,0,19.518,8.754,19.518,19.518
			v31.9c0,10.763-8.757,19.517-19.518,19.517h-2.517l-0.324,2.064l-3.449,21.969L182.302,109.852L182.302,109.852z"/>
		<path fill="#FFFFFF" d="M189.696,11.961H26.425c-8.51,0-15.408,6.898-15.408,15.408v31.9c0,8.509,6.898,15.41,15.408,15.41
			h118.859l16.758,13.531l17.304,13.973l3.448-21.973l0.869-5.531h6.032c8.51,0,15.408-6.9,15.408-15.41v-31.9
			C205.104,18.86,198.206,11.961,189.696,11.961z"/>
		
			<linearGradient id="SVGID_1_" gradientUnits="userSpaceOnUse" x1="88.376" y1="-16.3677" x2="213.1389" y2="108.3952" gradientTransform="matrix(1 0 0 1 -40.0039 0)">
			<stop  offset="0.1015" style="stop-color:#DEDEDE"/>
			<stop  offset="0.1072" style="stop-color:#DFDFDF"/>
			<stop  offset="0.2143" style="stop-color:#EDEDED"/>
			<stop  offset="0.3046" style="stop-color:#F2F2F2"/>
			<stop  offset="0.3312" style="stop-color:#F3F3F3"/>
			<stop  offset="0.6701" style="stop-color:#FFFFFF"/>
			<stop  offset="0.841" style="stop-color:#FCFCFC"/>
			<stop  offset="0.9391" style="stop-color:#F5F5F5"/>
		</linearGradient>
		<path fill="url(#SVGID_1_)" d="M189.696,11.961H26.425c-8.51,0-15.408,6.898-15.408,15.408v31.9c0,8.509,6.898,15.41,15.408,15.41
			h118.859l16.758,13.531l17.304,13.973l3.448-21.973l0.869-5.531h6.032c8.51,0,15.408-6.9,15.408-15.41v-31.9
			C205.104,18.86,198.206,11.961,189.696,11.961z"/>
		<path fill="#F37935" d="M182.302,109.852l-5.537-4.471l-17.303-13.973l-15.628-12.621H26.425
			c-10.763,0-19.518-8.754-19.518-19.517v-31.9c0-10.764,8.755-19.518,19.518-19.518h163.271c10.761,0,19.518,8.754,19.518,19.518
			v31.9c0,10.763-8.757,19.517-19.518,19.517h-2.517l-0.324,2.064l-3.449,21.969L182.302,109.852L182.302,109.852z"/>
	</g>
	<g>
		<path fill="#F37935" d="M1.83,59.362c0-11.25,0-22.499,0-33.749c0-12.857,10.115-24.611,23.386-24.611c1.806,0,3.611,0,5.417,0
			c26.722,0,53.443,0,80.164,0c25.422,0,50.844,0,76.265,0c3.376,0,6.517,0.043,9.865,0.928
			c10.963,2.895,17.363,13.871,17.363,24.669c0,6.807,0,13.614,0,20.42c0,5.926,0.521,12.188-0.602,18.039
			c-2.003,10.435-11.205,18.063-21.583,18.952c-0.304,0.025-0.753,0.209-0.807,0.557c-1.855,12.197-3.712,24.396-5.568,36.594
			c0.432-0.154,0.863-0.31,1.296-0.464c-9.085-7.566-18.17-15.134-27.255-22.701c-4.888-4.07-9.774-8.142-14.662-12.212
			c-2.031-1.692-2.367-1.735-5.02-1.735c-24.167,0-48.334,0-72.501,0c-0.271,0-0.543,0-0.814,0c-0.646,0-1.5,0.982-0.521,0.982
			c23.957,0,47.913,0,71.87,0c3.469,0,3.537-0.386,5.858,1.547c4.888,4.071,9.774,8.142,14.662,12.213
			c9.085,7.567,18.17,15.134,27.254,22.701c0.353,0.293,1.226-0.003,1.296-0.464c1.796-11.808,3.593-23.615,5.39-35.423
			c0.266-1.744,4.247-1.238,6.32-2.041c4.726-1.83,8.568-4.711,11.697-8.695c4.508-5.74,5.152-12.567,5.152-19.546
			c0-7.571,0-15.143,0-22.714c0-6.682,0.139-12.844-2.911-19.067c-5.32-10.856-16.054-13.522-26.973-13.522
			c-52.165,0-104.33,0-156.494,0c-2.686,0-5.494-0.15-8.129,0.388C11.008,2.497,3.476,10.03,0.969,20.128
			c-1.746,7.035-0.601,15.45-0.601,22.608c0,5.586,0,11.172,0,16.758C0.368,60.211,1.83,59.958,1.83,59.362L1.83,59.362z"/>
	</g>
</g>
</svg>
