<?xml version="1.0" encoding="utf-8"?>
<!-- Generator: Adobe Illustrator 16.0.0, SVG Export Plug-In . SVG Version: 6.00 Build 0)  -->
<!DOCTYPE svg PUBLIC "-//W3C//DTD SVG 1.1//EN" "http://www.w3.org/Graphics/SVG/1.1/DTD/svg11.dtd">
<svg version="1.1" id="Layer_1" xmlns="http://www.w3.org/2000/svg" xmlns:xlink="http://www.w3.org/1999/xlink" x="0px" y="0px"
	 width="201.766px" height="161.445px" viewBox="0 0 201.766 161.445" enable-background="new 0 0 201.766 161.445"
	 xml:space="preserve">
<g>
	<g>
		<g>
			<path fill="#999999" d="M41.451,145.477l5.257-2.949l15.771-8.861l12.436-6.986c8.221,1.473,16.745,2.223,25.354,2.223
				c26.396,0,46.459-3.49,61.338-10.662c18.553-7.299,30.527-24.041,30.527-42.693c0-25.573-22.496-46.376-50.146-46.376
				c-1.449,0-2.91,0.058-4.365,0.176c-3.082-6.065-7.822-11.256-13.824-15.118c-6.926-4.456-15.063-6.811-23.529-6.811
				c-10.952,0-21.268,3.927-29.047,11.057c-6.833,6.268-11.014,14.363-11.995,23.102c-0.968-0.062-1.935-0.094-2.894-0.094
				c-22.758,0-41.272,17.12-41.272,38.17c0,15.143,9.659,28.826,24.632,34.93c0.338,0.189,0.682,0.379,1.029,0.568l0.183,7.582
				l0.411,17.061L41.451,145.477L41.451,145.477z"/>
		</g>
		<path fill="#FFFFFF" d="M34.324,152.059l5.638-3.156l16.914-9.473l13.337-7.469c8.818,1.576,17.959,2.375,27.196,2.375
			c28.311,0,49.832-3.725,65.789-11.398c19.898-7.803,32.744-25.705,32.744-45.646c0-27.342-24.129-49.586-53.787-49.586
			c-1.555,0-3.121,0.064-4.686,0.189c-3.305-6.484-8.387-12.033-14.824-16.164c-7.43-4.762-16.156-7.28-25.236-7.28
			c-11.749,0-22.813,4.197-31.158,11.819c-7.329,6.7-11.812,15.357-12.861,24.701c-1.041-0.066-2.078-0.102-3.106-0.102
			c-24.41,0-44.269,18.307-44.269,40.811c0,16.186,10.362,30.82,26.424,37.348c0.361,0.201,0.728,0.404,1.098,0.604l0.2,8.109
			l0.439,18.244L34.324,152.059L34.324,152.059z"/>
		<path fill="#FFFFFF" d="M50.283,44.382c2.273,0,4.503,0.181,6.677,0.513C57.17,24.463,75.195,7.959,97.409,7.959
			c17.145,0,31.789,9.836,37.682,23.719c2.307-0.303,4.666-0.464,7.064-0.464c27.604,0,49.98,20.631,49.98,46.078
			c0,19.102-12.609,35.484-30.572,42.473c-16.143,7.799-38.008,11.064-64.154,11.064c-9.919,0-19.281-0.941-27.905-2.576
			l-14.604,8.178l-16.916,9.475l-0.442-18.242l-0.242-10.094c-1.062-0.545-2.096-1.096-3.095-1.658
			C19.86,110.176,9.823,97.012,9.823,81.68C9.823,61.08,27.939,44.382,50.283,44.382z"/>
		
			<linearGradient id="SVGID_1_" gradientUnits="userSpaceOnUse" x1="4580.8032" y1="24.6685" x2="4701.1855" y2="145.0506" gradientTransform="matrix(-1 0 0 1 4738.3135 0)">
			<stop  offset="0.1015" style="stop-color:#DEDEDE"/>
			<stop  offset="0.1072" style="stop-color:#DFDFDF"/>
			<stop  offset="0.2143" style="stop-color:#EDEDED"/>
			<stop  offset="0.3046" style="stop-color:#F2F2F2"/>
			<stop  offset="0.3312" style="stop-color:#F3F3F3"/>
			<stop  offset="0.6701" style="stop-color:#FFFFFF"/>
			<stop  offset="0.841" style="stop-color:#FCFCFC"/>
			<stop  offset="0.9391" style="stop-color:#F5F5F5"/>
		</linearGradient>
		<path fill="url(#SVGID_1_)" d="M50.283,44.382c2.273,0,4.503,0.181,6.677,0.513C57.17,24.463,75.195,7.959,97.409,7.959
			c17.145,0,31.789,9.836,37.682,23.719c2.307-0.303,4.666-0.464,7.064-0.464c27.604,0,49.98,20.631,49.98,46.078
			c0,19.102-12.609,35.484-30.572,42.473c-16.143,7.799-38.008,11.064-64.154,11.064c-9.919,0-19.281-0.941-27.905-2.576
			l-14.604,8.178l-16.916,9.475l-0.442-18.242l-0.242-10.094c-1.062-0.545-2.096-1.096-3.095-1.658
			C19.86,110.176,9.823,97.012,9.823,81.68C9.823,61.08,27.939,44.382,50.283,44.382z"/>
		<path fill="#2F9A41" d="M34.324,152.059l5.638-3.156l16.914-9.473l13.337-7.469c8.818,1.576,17.959,2.375,27.196,2.375
			c28.311,0,49.832-3.725,65.789-11.398c19.898-7.803,32.744-25.705,32.744-45.646c0-27.342-24.129-49.586-53.787-49.586
			c-1.555,0-3.121,0.064-4.686,0.189c-3.305-6.484-8.387-12.033-14.824-16.164c-7.43-4.762-16.156-7.28-25.236-7.28
			c-11.749,0-22.813,4.197-31.158,11.819c-7.329,6.7-11.812,15.357-12.861,24.701c-1.041-0.066-2.078-0.102-3.106-0.102
			c-24.41,0-44.269,18.307-44.269,40.811c0,16.186,10.362,30.82,26.424,37.348c0.361,0.201,0.728,0.404,1.098,0.604l0.2,8.109
			l0.439,18.244L34.324,152.059L34.324,152.059z"/>
	</g>
	<g>
		<g>
			<path fill="#2F9A41" d="M178.538,34.866c21.762,16.674,28.485,46.021,14.163,69.788c-13.327,22.115-41.757,29.93-65.766,32.907
				c-15.273,1.894-30.965,2.229-46.278,0.713c-2.587-0.257-7.83-2.247-10.156-0.944c-1.799,1.007-3.598,2.015-5.397,3.021
				c-11.783,6.598-23.567,13.196-35.351,19.794c-0.268,0.149-0.535,0.3-0.803,0.449c0.333,0.103,0.667,0.205,1.001,0.307
				c-0.307-12.649-0.615-25.299-0.922-37.949c-0.003-0.127-0.03-0.255-0.16-0.317C9.7,113.482-1.91,93.55,2.438,72.322
				c4.424-21.602,25.315-35.45,46.438-36.256c0.314-0.012,0.695-0.211,0.776-0.534C54.07,17.833,68.211,5.157,85.726,0.904
				c0.861-0.209,0.621-1.08-0.233-0.872C73.989,2.825,63.967,8.942,56.558,18.221c-3.404,4.263-5.79,9.216-7.486,14.373
				c-1.147,3.484-3.989,2.718-7.194,3.19c-2.372,0.349-4.702,0.941-7.002,1.604C15.571,42.943,0.989,60.201,0.042,80.385
				c-0.49,10.431,3.33,20.575,9.583,28.792c3.209,4.216,7.299,7.701,11.675,10.646c0.654,0.44,6.323,3.21,6.327,3.395
				c0.015,0.632,0.031,1.264,0.046,1.896c0.291,11.973,0.582,23.944,0.873,35.917c0.012,0.479,0.68,0.486,1.001,0.307
				c10.685-5.982,21.369-11.965,32.054-17.948c2.431-1.36,4.861-2.722,7.292-4.083c2.999-1.679,3.733-1.039,7.543-0.524
				c14.499,1.957,29.358,1.6,43.906,0.386c21.651-1.808,45.729-7.137,62.703-21.55c17.276-14.669,23.311-38.827,15.091-59.873
				c-3.708-9.492-10.491-17.495-18.512-23.641C179.176,33.76,177.928,34.398,178.538,34.866L178.538,34.866z"/>
		</g>
	</g>
</g>
</svg>
