<?xml version="1.0" encoding="utf-8"?>
<!-- Generator: Adobe Illustrator 16.0.0, SVG Export Plug-In . SVG Version: 6.00 Build 0)  -->
<!DOCTYPE svg PUBLIC "-//W3C//DTD SVG 1.1//EN" "http://www.w3.org/Graphics/SVG/1.1/DTD/svg11.dtd">
<svg version="1.1" id="Layer_1" xmlns="http://www.w3.org/2000/svg" xmlns:xlink="http://www.w3.org/1999/xlink" x="0px" y="0px"
	 width="25.51px" height="23.146px" viewBox="0 0 25.51 23.146" enable-background="new 0 0 25.51 23.146" xml:space="preserve">
<g>
	<g>
		<path fill="#046938" d="M2.714,1.369c1.501,2.19,3.403,4.06,5.272,5.932c0.355,0.355,2.256-1.101,2.234-1.123
			c-1.87-1.871-3.772-3.74-5.272-5.932C4.734-0.066,2.614,1.222,2.714,1.369L2.714,1.369z"/>
	</g>
	<g>
		<path fill="#046938" d="M16.998,16.976c2.069,1.418,3.859,3.197,5.932,4.613c1.162,0.795,2.623-1.148,1.35-2.02
			c-2.07-1.416-3.861-3.195-5.934-4.613C17.186,14.161,15.724,16.104,16.998,16.976L16.998,16.976z"/>
	</g>
	<g>
		<path fill="#046938" d="M5.988,15.817c-2.209,1.523-4.038,3.656-5.749,5.705c-0.357,0.428-0.277,1.119,0.27,1.334
			c0.614,0.24,1.256-0.119,1.643-0.582c1.422-1.703,2.961-3.576,4.796-4.842C8.215,16.558,7.281,14.925,5.988,15.817L5.988,15.817z"
			/>
	</g>
	<g>
		<path fill="#046938" d="M23.07,0.997c-2.11,2.081-4.522,3.923-5.932,6.591c-0.093,0.176,2.097,0.166,2.385-0.379
			c1.409-2.669,3.821-4.51,5.932-6.591c0.236-0.233-0.888-0.148-0.926-0.143C24.069,0.549,23.419,0.653,23.07,0.997L23.07,0.997z"/>
	</g>
</g>
</svg>
