<?xml version="1.0" encoding="utf-8"?>
<!-- Generator: Adobe Illustrator 16.0.0, SVG Export Plug-In . SVG Version: 6.00 Build 0)  -->
<!DOCTYPE svg PUBLIC "-//W3C//DTD SVG 1.1//EN" "http://www.w3.org/Graphics/SVG/1.1/DTD/svg11.dtd">
<svg version="1.1" id="Layer_1" xmlns="http://www.w3.org/2000/svg" xmlns:xlink="http://www.w3.org/1999/xlink" x="0px" y="0px"
	 width="36.563px" height="26.438px" viewBox="0 0 36.563 26.438" enable-background="new 0 0 36.563 26.438" xml:space="preserve">
<g>
	<g>
		<path fill="#FFFFFF" d="M34.413,3.695H2.149c-0.858,0-1.555-0.696-1.555-1.555s0.696-1.555,1.555-1.555h32.264
			c0.858,0,1.555,0.696,1.555,1.555S35.271,3.695,34.413,3.695z"/>
	</g>
	<g>
		<path fill="#FFFFFF" d="M34.413,14.773H2.149c-0.858,0-1.555-0.697-1.555-1.555c0-0.859,0.696-1.556,1.555-1.556h32.264
			c0.858,0,1.555,0.696,1.555,1.556C35.968,14.076,35.271,14.773,34.413,14.773z"/>
	</g>
	<g>
		<path fill="#FFFFFF" d="M34.413,25.854H2.149c-0.858,0-1.555-0.697-1.555-1.555c0-0.859,0.696-1.555,1.555-1.555h32.264
			c0.858,0,1.555,0.695,1.555,1.555C35.968,25.156,35.271,25.854,34.413,25.854z"/>
	</g>
</g>
</svg>
