<?xml version="1.0" encoding="utf-8"?>
<!-- Generator: Adobe Illustrator 16.0.0, SVG Export Plug-In . SVG Version: 6.00 Build 0)  -->
<!DOCTYPE svg PUBLIC "-//W3C//DTD SVG 1.1//EN" "http://www.w3.org/Graphics/SVG/1.1/DTD/svg11.dtd">
<svg version="1.1" id="Layer_1" xmlns="http://www.w3.org/2000/svg" xmlns:xlink="http://www.w3.org/1999/xlink" x="0px" y="0px"
	 width="45.014px" height="34.213px" viewBox="0 0 45.014 34.213" enable-background="new 0 0 45.014 34.213" xml:space="preserve">
<g>
	<g>
		<path fill="#046938" d="M44.548,33.294c-12.368,0-24.737,0-37.105,0c-1.992,0-3.984,0-5.976,0c-0.788,0-0.003,0.558-0.003,0.03
			c0-1.039,0-2.078,0-3.117c0-7.547,0-15.094,0-22.641c0-2.282,0-4.564,0-6.847c0-0.743-1.606,0.186-0.538,0.186
			c0.921,0,1.843,0,2.765,0c7.169,0,14.337,0,21.506,0c6.032,0,12.065,0,18.098,0c1.028,0,0.255-0.048,0.255-0.22
			c0,0.709,0,1.419,0,2.129c0,3.467,0,6.935,0,10.401c0,6.87,0,13.739,0,20.609c0,0.666,1.455,0.381,1.455-0.156
			c0-11.098,0-22.196,0-33.294C45.005,0.122,44.789,0,44.548,0C30.034,0,15.521,0,1.007,0C0.734,0,0.008,0.13,0.008,0.531
			c0,11.098,0,22.196,0,33.294c0,0.253,0.216,0.375,0.458,0.375c14.514,0,29.027,0,43.541,0
			C44.604,34.201,45.528,33.294,44.548,33.294z"/>
	</g>
	<g>
		<path fill="#046938" d="M0.061,0.728c7.257,5.549,14.513,11.099,21.77,16.648c0.342,0.262,0.948,0.052,1.25-0.179
			c7.257-5.55,14.514-11.099,21.772-16.648c0.642-0.491-0.813-0.45-1.15-0.192c-7.244,5.54-14.489,11.081-21.735,16.621
			c0.93-0.711,1.58,0.129,0.361-0.803c-0.754-0.577-1.508-1.153-2.262-1.73c-2.59-1.981-5.18-3.961-7.77-5.942
			C8.668,5.728,5.04,2.953,1.412,0.178C1.025-0.117-0.298,0.454,0.061,0.728L0.061,0.728z"/>
	</g>
</g>
</svg>
