<?xml version="1.0" encoding="utf-8"?>
<!-- Generator: Adobe Illustrator 16.0.0, SVG Export Plug-In . SVG Version: 6.00 Build 0)  -->
<!DOCTYPE svg PUBLIC "-//W3C//DTD SVG 1.1//EN" "http://www.w3.org/Graphics/SVG/1.1/DTD/svg11.dtd">
<svg version="1.1" id="Layer_1" xmlns="http://www.w3.org/2000/svg" xmlns:xlink="http://www.w3.org/1999/xlink" x="0px" y="0px"
	 width="32.333px" height="32.333px" viewBox="0 0 32.333 32.333" enable-background="new 0 0 32.333 32.333" xml:space="preserve">
<circle fill="#FFFFFF" cx="16.167" cy="16.165" r="15.167"/>
<g>
	<path fill="#A6A8AC" d="M16.166,0C7.252,0,0,7.252,0,16.165c0,8.914,7.252,16.166,16.166,16.166
		c8.915,0,16.167-7.252,16.167-16.166C32.333,7.252,25.081,0,16.166,0z M16.166,30.331C8.355,30.331,2,23.976,2,16.165
		C2,8.355,8.355,2,16.166,2c7.812,0,14.167,6.355,14.167,14.165C30.333,23.976,23.978,30.331,16.166,30.331z"/>
	<path fill="#A6A8AC" d="M17.167,17.165h7.75c0.553,0,1-0.447,1-1c0-0.553-0.447-1-1-1h-7.75h-2h-7.75c-0.552,0-1,0.447-1,1
		s0.448,1,1,1h7.75H17.167z"/>
</g>
</svg>
