<?xml version="1.0" encoding="utf-8"?>
<!-- Generator: Adobe Illustrator 16.0.0, SVG Export Plug-In . SVG Version: 6.00 Build 0)  -->
<!DOCTYPE svg PUBLIC "-//W3C//DTD SVG 1.1//EN" "http://www.w3.org/Graphics/SVG/1.1/DTD/svg11.dtd">
<svg version="1.1" id="Layer_1" xmlns="http://www.w3.org/2000/svg" xmlns:xlink="http://www.w3.org/1999/xlink" x="0px" y="0px"
	 width="45.146px" height="45.35px" viewBox="0 0 45.146 45.35" enable-background="new 0 0 45.146 45.35" xml:space="preserve">
<g>
	<path fill="#FFFFFF" d="M22.513,20c5.678-0.306,9.944-4.303,10.253-10.054C32.065-3.082,13.074-2.806,12.381,10.05
		C12.094,15.387,17.236,20.284,22.513,20z M23.377,1.028c4.712,0.254,7.795,4.683,8.028,9.022c-0.285,5.296-4.14,9.214-9.635,8.918
		c-4.713-0.253-7.794-4.683-8.028-9.023C13.457,4.625,18.37,0.759,23.377,1.028z"/>
	<path fill="#FFFFFF" d="M37.914,22.474c-4.947-1.358-10.923-0.462-15.987-0.462c-4.026,0-10.672-1.264-14.525,0.565
		c-5.495,2.607-5.526,9.088-6.793,14.398c-0.019,0.099,0.005,0.187,0.071,0.264c6.318,5.02,13.504,7.615,21.563,7.82
		c8.278-0.211,15.642-2.845,22.128-7.997c0.117-0.094,0.2-0.27,0.165-0.42C43.475,32.194,43.286,23.949,37.914,22.474z
		 M36.589,40.798c-4.222,2.183-8.977,3.045-13.684,3.165c-6.634-0.169-12.607-2.015-18.168-5.616
		c-2.882-1.867-2.317-1.718-1.688-4.351c0.356-1.492,0.712-2.983,1.068-4.475c0.741-3.106,0.882-6.414,5.929-6.414
		c0.878,0,1.757,0,2.635,0c3.188,0,6.375,0,9.563,0c5.561,0,15.423-1.923,18.326,4.188c1.122,2.362,1.313,6.101,1.924,8.661
		C43.012,38.132,38.232,39.948,36.589,40.798z"/>
</g>
</svg>
