<?xml version="1.0" encoding="utf-8"?>
<!-- Generator: Adobe Illustrator 16.0.0, SVG Export Plug-In . SVG Version: 6.00 Build 0)  -->
<!DOCTYPE svg PUBLIC "-//W3C//DTD SVG 1.1//EN" "http://www.w3.org/Graphics/SVG/1.1/DTD/svg11.dtd">
<svg version="1.1" id="Layer_1" xmlns="http://www.w3.org/2000/svg" xmlns:xlink="http://www.w3.org/1999/xlink" x="0px" y="0px"
	 width="32.333px" height="32.333px" viewBox="0 0 32.333 32.333" enable-background="new 0 0 32.333 32.333" xml:space="preserve">
<circle fill="#FFFFFF" cx="16.167" cy="16.165" r="15.167"/>
<g>
	<path fill="#A6A8AC" d="M16.166,0C7.252,0,0,7.252,0,16.165c0,8.914,7.252,16.166,16.166,16.166s16.167-7.252,16.167-16.166
		C32.333,7.252,25.08,0,16.166,0z M16.166,30.331C8.355,30.331,2,23.976,2,16.165C2,8.355,8.355,2,16.166,2
		c7.812,0,14.167,6.355,14.167,14.165C30.333,23.976,23.978,30.331,16.166,30.331z"/>
	<path fill="#A6A8AC" d="M24.916,15.165h-7.75V7.416c0-0.552-0.447-1-1-1s-1,0.448-1,1v7.749h-7.75c-0.552,0-1,0.447-1,1
		s0.448,1,1,1h7.75v7.75c0,0.553,0.447,1,1,1s1-0.447,1-1v-7.75h7.75c0.553,0,1-0.447,1-1S25.469,15.165,24.916,15.165z"/>
</g>
</svg>
