<?xml version="1.0" encoding="utf-8"?>
<!-- Generator: Adobe Illustrator 16.0.0, SVG Export Plug-In . SVG Version: 6.00 Build 0)  -->
<!DOCTYPE svg PUBLIC "-//W3C//DTD SVG 1.1//EN" "http://www.w3.org/Graphics/SVG/1.1/DTD/svg11.dtd">
<svg version="1.1" id="Layer_1" xmlns="http://www.w3.org/2000/svg" xmlns:xlink="http://www.w3.org/1999/xlink" x="0px" y="0px"
	 width="70.87px" height="127.56px" viewBox="0 0 70.87 127.56" enable-background="new 0 0 70.87 127.56" xml:space="preserve">
<g>
	<g>
		<path fill="#5B1B0F" d="M8.818,52.855c0,0-5.871-6.974-6.476-12.891C1.735,34.042,2.04,27.592,7.651,27.098
			c0,0-0.897-17.035,12.225-22.196c13.128-5.159,26.026-4.857,34.225,0c8.196,4.855,15.632,20.033,9.864,27.927
			c0,0,3.49,1.213,3.49,6.072c0,4.855,0.453,13.812-4.401,16.543L8.818,52.855z"/>
		<path fill="#FECC81" d="M8.617,32.376c0.252-3.007,17.269-5.422,25.313-5.271c8.048,0.151,25.027,1.928,27.759,8.303l1.365,20.035
			c0,0,6.831,0.605,6.376,5.464c-0.456,4.857-2.281,7.439-5.619,8.195c0,0-1.668,19.58-5.614,27.93
			c-3.943,8.346-7.892,10.016-7.892,10.016s1.875,19.666-13.193,19.363c-15.08-0.303-13.519-21.791-13.519-21.791
			S11.146,92.155,9.327,70.534c0,0-7.487,0.693-7.894-9.425c-0.405-10.117,7.385-8.254,7.385-8.254S8.412,34.751,8.617,32.376z"/>
		<path fill="#783718" d="M29.206,27.238c0,0,16.998-10.601,13.857-25.839l3.831,0.67c0,0,6.917,14.724-14.537,25.029L29.206,27.238
			z"/>
		<path fill="#783718" d="M37.555,27.258l3.035,0.218c0,0,14.574-6.157,15.481-20.944l-2.769-2.081
			C53.303,4.451,51.516,19.973,37.555,27.258z"/>
		<path fill="#783718" d="M45.511,28.118l2.248,0.382c0,0,12.46-1.023,14.683-14.54l-2.25-3.391
			C60.191,10.569,58.967,22.583,45.511,28.118z"/>
	</g>
	<g>
		<path fill="#FFFFFF" d="M31.563,80.302v-2.007c0-2.897,0.56-5.281,1.679-7.151c1.12-1.87,3.203-3.845,6.251-5.926
			c4.229-2.848,6.896-4.99,7.999-6.427s1.656-3.17,1.656-5.201c0-2.526-1.019-4.477-3.056-5.852s-4.967-2.062-8.792-2.062
			c-2.457,0-4.852,0.229-7.184,0.687c-2.332,0.459-5.007,1.295-8.022,2.508l-2.752-5.016c5.877-2.451,12.018-3.678,18.424-3.678
			c5.939,0,10.558,1.165,13.854,3.492c3.296,2.328,4.944,5.61,4.944,9.846c0,1.808-0.303,3.399-0.909,4.773
			c-0.606,1.375-1.501,2.675-2.682,3.901c-1.183,1.226-3.732,3.201-7.65,5.926c-3.141,2.13-5.217,3.9-6.227,5.313
			c-1.011,1.411-1.517,3.294-1.517,5.646v1.227H31.563z M29.276,91.335c0-3.367,1.866-5.052,5.598-5.052
			c1.803,0,3.195,0.434,4.175,1.3c0.979,0.867,1.47,2.118,1.47,3.752c0,1.586-0.498,2.818-1.493,3.697s-2.379,1.318-4.151,1.318
			c-1.617,0-2.954-0.39-4.012-1.17S29.276,93.119,29.276,91.335z"/>
	</g>
</g>
</svg>
