<?xml version="1.0" encoding="utf-8"?>
<!-- Generator: Adobe Illustrator 16.0.0, SVG Export Plug-In . SVG Version: 6.00 Build 0)  -->
<!DOCTYPE svg PUBLIC "-//W3C//DTD SVG 1.1//EN" "http://www.w3.org/Graphics/SVG/1.1/DTD/svg11.dtd">
<svg version="1.1" id="Layer_1" xmlns="http://www.w3.org/2000/svg" xmlns:xlink="http://www.w3.org/1999/xlink" x="0px" y="0px"
	 width="116.886px" height="128.729px" viewBox="0 0 116.886 128.729" enable-background="new 0 0 116.886 128.729"
	 xml:space="preserve">
<g>
	<path fill="#F15927" d="M98.484,64.826l-9.367-2.72l-6.369,27.951c-0.209,0.914-0.24,1.862-0.096,2.789l4.693,30.022l5.184,0.302
		l-2.738-30.993L98.484,64.826z"/>
	<rect x="25.148" y="75.917" fill="#F15927" width="26.043" height="18.412"/>
	<path fill="#F15927" d="M34.072,72.131v4.861h8.176v-4.861H34.072z M41.265,76.407h-6.209v-3.691h6.209V76.407z"/>
	<path fill="#413E56" d="M34.138,90.058l-6.371-27.952l-9.363,2.72l8.691,27.352l-2.738,30.992l5.182-0.302l4.695-30.021
		C34.378,91.92,34.347,90.972,34.138,90.058z"/>
	<polygon fill="#FED7A8" points="38.113,66.526 40.074,69.339 40.886,73.032 37.539,74.562 35.732,73.707 35.705,69.526 
		35.435,67.112 	"/>
	<polygon fill="#2F9A41" points="29.255,29.295 32.335,48.069 38.113,66.526 35.503,67.691 28.83,54.034 24.689,31.637 26,28.596 
		27.478,27.274 	"/>
	<polygon fill="#FED7A8" points="57.224,46.916 54.226,45.443 50.638,45.333 49.882,49.103 51.033,50.806 54.917,50.003 
		57.208,49.806 	"/>
	<path fill="#2A2641" d="M84.365,29.357l-8.604,17.509l-18.535-0.438l-0.02,4.009l17.447,2.626c2.439,0.401,4.873-0.766,6.193-2.969
		L89.63,32.99l2.244-2.547l-1.91-3.448L84.365,29.357z"/>
	<path fill="#672612" d="M3.625,120.404l-1.537,4.193l12.496,3.069c0.746,0.184,1.23-0.805,0.66-1.342
		c-1.494-1.406-3.873-3.306-7.061-4.802C3.828,120.453,3.625,120.404,3.625,120.404z"/>
	<path fill="#413E56" d="M21.431,62.368l-9.713,0.13l1.865,28.784L3.519,120.535l5.086,1.093l11.727-27.792
		c0.361-0.858,0.559-1.784,0.574-2.723L21.431,62.368z"/>
	<polygon fill="#FECC81" points="25.781,28.562 20.132,28.275 20.474,20.752 26.123,21.041 	"/>
	<path fill="#2F9A41" d="M10.261,68.493l20.154,0.766l-0.564-38.265c-0.033-2.333-1.742-4.256-3.943-4.441l-6.813-0.575
		c-4.42-0.371-8.217,3.274-8.293,7.956L10.261,68.493z"/>
	<path fill="#672612" d="M24.427,123.014l-0.482,4.468l12.977-0.026c0.754-0.002,1.021-1.055,0.371-1.455
		c-1.771-1.09-4.609-2.501-8.186-3.121C24.638,123.008,24.427,123.014,24.427,123.014z"/>
	<path fill="#FECC81" d="M29.353,22.778l-8.951-0.454L21.08,7.446l10.404,0.529l-0.139,4.604l1.48,4.397l-1.773,0.063l-0.154,4.277
		C30.847,22.169,30.16,22.82,29.353,22.778z"/>
	<polygon fill="#FED7A8" points="52.88,45.755 50.953,46.157 51.9,50.181 52.634,50.159 	"/>
	<polygon fill="#FED7A8" points="46.212,46.916 49.21,45.443 52.796,45.333 53.552,49.103 52.402,50.806 48.519,50.003 
		46.226,49.806 	"/>
	<path fill="#2F9A41" d="M16.66,29.18l11.016,17.686l18.535-0.438l0.02,4.009l-16.086,2.645c-2.406,0.396-4.824-0.631-6.301-2.675
		l-11.945-16.51l0.32-2.468l3.006-2.81L16.66,29.18z"/>
	<polygon fill="#F15927" points="95.455,62.368 96.007,92.593 103.109,94.253 105.167,62.498 	"/>
	<path fill="#672612" d="M113.261,120.404l1.537,4.193l-12.496,3.068c-0.746,0.185-1.232-0.804-0.66-1.341
		c1.494-1.406,3.875-3.306,7.061-4.802C113.058,120.453,113.261,120.404,113.261,120.404z"/>
	<polygon fill="#F15927" points="95.982,92.48 108.281,121.628 113.367,120.535 103.111,90.727 	"/>
	<polygon fill="#FECC81" points="91.105,28.562 96.753,28.275 96.412,20.752 90.763,21.041 	"/>
	<path fill="#2A2641" d="M106.625,68.493L86.47,69.259l-2.402-37.921c-0.143-2.274,1.449-4.259,3.598-4.478l11.17-1.134
		c3-0.296,5.633,2.103,5.801,5.28L106.625,68.493z"/>
	<path fill="#672612" d="M92.458,123.014l0.48,4.468l-12.975-0.026c-0.754-0.002-1.023-1.055-0.371-1.455
		c1.771-1.09,4.609-2.501,8.186-3.121C92.248,123.008,92.458,123.014,92.458,123.014z"/>
	<path fill="#FECC81" d="M88.695,22.719l7.789-0.396L95.806,7.446L85.402,7.975l0.139,4.604l-1.629,4.397l1.922,0.063l0.08,3.051
		C86.007,21.623,87.246,22.792,88.695,22.719z"/>
	<polygon fill="#FED7A8" points="50.552,45.755 52.482,46.157 51.537,50.181 50.802,50.159 	"/>
	<rect x="84.06" y="73.874" fill="#672612" width="25.297" height="18.414"/>
	<path fill="#672612" d="M92.535,70.09v4.862h8.176V70.09H92.535z M99.726,74.366h-6.207v-3.691h6.207V74.366z"/>
	<polygon fill="#FED7A8" points="98.312,65.938 95.539,67.842 93.55,70.997 96.173,73.673 98.148,73.546 99.566,69.643 
		100.623,67.482 	"/>
	<path fill="#2A2641" d="M98.619,32.312l9.484,16.99L97.921,65.676l3.205,2.145l10.975-14.624c1.389-1.848,1.67-4.367,0.73-6.508
		l-8.871-18.128l-2.695-1.566l-1.572-0.954L98.619,32.312z"/>
	<path fill="#672612" d="M20.58,18.432c0,0-2.686-5.421-2.65-9.48c0.039-4.057,2.715-5.773,5.197-5.813
		c2.484-0.04,5.402,0.857,6.881,0.468c1.477-0.391,2.453-2.38,2.453-2.38s1.977,3.162,0.365,5.774
		C31.017,9.93,26.72,8.835,26.72,8.835s0,5.269-1.479,5.853C23.765,15.274,20.58,18.432,20.58,18.432z"/>
	<ellipse fill="#FED7A8" cx="24.641" cy="14.534" rx="1.515" ry="1.6"/>
	<path fill="#672612" d="M96.22,16.563c0,0,3.555-8.677,0.934-12.345c-2.623-3.668-9.299-3.732-11.67-2.341
		c-2.658,1.562-2.709,5.566,0.541,6.191c3.25,0.623,3.965-0.118,5.221,1.404C92.501,10.997,91.875,16.289,96.22,16.563z"/>
	<ellipse fill="#FED7A8" cx="92.502" cy="12.322" rx="1.257" ry="1.328"/>
</g>
</svg>
