<?xml version="1.0" encoding="utf-8"?>
<!-- Generator: Adobe Illustrator 16.0.0, SVG Export Plug-In . SVG Version: 6.00 Build 0)  -->
<!DOCTYPE svg PUBLIC "-//W3C//DTD SVG 1.1//EN" "http://www.w3.org/Graphics/SVG/1.1/DTD/svg11.dtd">
<svg version="1.1" id="Layer_1" xmlns="http://www.w3.org/2000/svg" xmlns:xlink="http://www.w3.org/1999/xlink" x="0px" y="0px"
	 width="83.367px" height="112.439px" viewBox="0 0 83.367 112.439" enable-background="new 0 0 83.367 112.439"
	 xml:space="preserve">
<g>
	<g>
		<path fill="#2F9A41" d="M32.064,34.123L18.437,11.952c0,0,0-5.365,6.815-4.65c6.813,0.72,4.826-8.585,11.922-7.151
			c7.096,1.432,10.22,7.151,10.22,7.151s5.111-4.646,8.518-4.646c3.405,0,3.977,4.646,3.977,4.646l-15.05,26.821H32.064z"/>
		<path fill="#046938" d="M27.235,31.976c0,0-23.846,16.454-26.4,33.975C-1.72,83.472-0.3,112.439,32.914,112.439
			c33.217,0,36.341-3.932,43.155-10.012c6.813-6.082,11.071-31.824,2.555-47.56C70.106,39.13,53.926,28.403,53.926,28.403
			s0.851-12.518,5.962-21.102c0,0-7.102,9.655-13.345,11.446c-6.244,1.788-8.801-5.366-8.801-5.366s-5.111,5.363-8.517,5.722
			c-3.407,0.359-10.789-7.151-10.789-7.151S26.594,25.734,27.235,31.976z"/>
		<path fill="#046938" d="M53.926,28.403c0,0,14.19,2.5,16.46,9.298C70.386,37.701,78.622,20.362,53.926,28.403z"/>
		<path fill="#046938" d="M53.926,28.403c0,0,5.39-12.314,13.197-11.341l2.412,4.571C69.535,21.634,60.031,24.659,53.926,28.403z"/>
		<path fill="#2F9A41" d="M28.086,31.989c0,0,2.839,3.747,12.635,2.137c9.795-1.608,12.492-4.469,12.492-4.469
			s-3.833,7.509-12.563,8.044C31.922,38.238,28.086,31.989,28.086,31.989z"/>
	</g>
	<g>
		<path fill="#FFFFFF" d="M35.902,78.523v3.844h16.36v3.684h-16.36v9.848h-5.407V86.05h-2.787v-3.684h2.787v-3.844h-2.787v-4.484
			h2.787V56.771h12.793c3.66,0,6.429,0.356,8.306,1.068c1.896,0.694,3.41,1.93,4.544,3.709c1.133,1.779,1.699,3.746,1.699,5.898
			c0,2.172-0.418,3.969-1.254,5.391c-0.836,1.424-1.946,2.559-3.33,3.404c-1.385,0.846-2.974,1.438-4.767,1.775
			s-3.646,0.506-5.561,0.506H35.902z M42.926,74.039c1.245,0,2.435-0.092,3.567-0.279c1.134-0.188,2.128-0.529,2.982-1.027
			s1.533-1.17,2.035-2.016s0.752-1.936,0.752-3.27c0-1.156-0.228-2.135-0.683-2.936s-1.078-1.455-1.867-1.961
			c-0.79-0.508-1.714-0.877-2.773-1.109c-1.059-0.23-2.202-0.346-3.428-0.346h-7.609v12.943H42.926z"/>
	</g>
</g>
</svg>
