<svg xmlns="http://www.w3.org/2000/svg" xmlns:xlink="http://www.w3.org/1999/xlink" viewBox="0 0 499.62 34.35"><defs><style>.cls-1{fill:url(#linear-gradient);}.cls-2{fill:url(#linear-gradient-2);}.cls-3{fill:url(#linear-gradient-4);}.cls-4{fill:url(#linear-gradient-10);}.cls-5{fill:url(#linear-gradient-14);}</style><linearGradient id="linear-gradient" x1="507.19" y1="12.85" x2="-6.16" y2="12.85" gradientUnits="userSpaceOnUse"><stop offset="0" stop-color="#47c0b8"/><stop offset="0.35" stop-color="#47d2b1"/><stop offset="0.59" stop-color="#36c99a"/><stop offset="1" stop-color="#12b56a"/></linearGradient><linearGradient id="linear-gradient-2" x1="507.19" y1="15.98" x2="-6.16" y2="15.98" xlink:href="#linear-gradient"/><linearGradient id="linear-gradient-4" x1="507.19" y1="16.14" x2="-6.16" y2="16.14" xlink:href="#linear-gradient"/><linearGradient id="linear-gradient-10" x1="507.19" y1="15.98" x2="-6.16" y2="15.98" xlink:href="#linear-gradient"/><linearGradient id="linear-gradient-14" x1="507.19" y1="20.13" x2="-6.16" y2="20.13" xlink:href="#linear-gradient"/></defs><title>Asset 33</title><g id="Layer_2" data-name="Layer 2"><g id="Layer_1-2" data-name="Layer 1"><path class="cls-1" d="M0,0H3.85V13.36c0,1.39,0,2.8-.11,4.23S3.62,20,3.59,20.48h.15L16.88,0h4.9V25.7H17.91V12.45q0-3,.34-7.39h-.14L4.92,25.7H0Z"/><path class="cls-2" d="M35.91,26.05q-4.41,0-6.7-2.57t-2.3-7.4q0-4.9,2.4-7.54t6.94-2.63a13,13,0,0,1,5.53,1.14l-1.24,3.32a12.54,12.54,0,0,0-4.33-1q-5,0-5,6.7A8,8,0,0,0,32.42,21a4.36,4.36,0,0,0,3.69,1.65,10.51,10.51,0,0,0,5.22-1.38v3.61a8.36,8.36,0,0,1-2.37.93A14,14,0,0,1,35.91,26.05Z"/><path class="cls-2" d="M58,6.26h4.53l-8,9.37L63.18,25.7H58.43L50,15.84V25.7H45.9V6.26H50V15.7Z"/><path class="cls-3" d="M82.35,25.7H78.19V9.49H72.83a67.48,67.48,0,0,1-1.33,9.78,12.77,12.77,0,0,1-2.18,5.13A4.33,4.33,0,0,1,65.83,26a5.81,5.81,0,0,1-2.27-.39V22.39a3.57,3.57,0,0,0,1.3.25q1.8,0,2.82-4A74.49,74.49,0,0,0,69.29,6.26H82.35Z"/><path class="cls-2" d="M114.22,15.94c0,3.19-.77,5.67-2.33,7.45a9.29,9.29,0,0,1-12.58.4,10.05,10.05,0,0,1-2.63-6.48H92.39V25.7H88.26V6.26h4.13v7.8h4.32a9.41,9.41,0,0,1,2.72-6,8.45,8.45,0,0,1,6-2.14,8,8,0,0,1,6.4,2.71A10.78,10.78,0,0,1,114.22,15.94Zm-13.32,0A9.61,9.61,0,0,0,102,21a4.38,4.38,0,0,0,6.94,0,9.6,9.6,0,0,0,1.07-5,9.39,9.39,0,0,0-1.07-5A4.41,4.41,0,0,0,102,11,9.39,9.39,0,0,0,100.9,15.94Z"/><path class="cls-2" d="M122.64,6.26v7.1q0,3,3.1,3a10.19,10.19,0,0,0,2.91-.42,14.42,14.42,0,0,0,3.06-1.32V6.26h4.13V25.7h-4.13V17.46A14.49,14.49,0,0,1,128.42,19a11.64,11.64,0,0,1-3.47.5,6.74,6.74,0,0,1-4.75-1.57,5.69,5.69,0,0,1-1.71-4.4V6.26Z"/><path class="cls-2" d="M150.24,26.05a9.41,9.41,0,0,1-7.09-2.64,10,10,0,0,1-2.56-7.29A11,11,0,0,1,143,8.63a8.18,8.18,0,0,1,6.52-2.72,8.05,8.05,0,0,1,6.09,2.33,9,9,0,0,1,2.23,6.44v2.23h-13a6.38,6.38,0,0,0,1.53,4.35,5.35,5.35,0,0,0,4.06,1.52,15.45,15.45,0,0,0,3.21-.32,17.16,17.16,0,0,0,3.19-1.08v3.35a12.8,12.8,0,0,1-3.06,1A18.67,18.67,0,0,1,150.24,26.05Zm-.76-17a4.14,4.14,0,0,0-3.15,1.24,6,6,0,0,0-1.42,3.64h8.83a5.44,5.44,0,0,0-1.16-3.65A4,4,0,0,0,149.48,9Z"/><path class="cls-2" d="M166.62,6.26v7.8h9.16V6.26h4.13V25.7h-4.13V17.31h-9.16V25.7h-4.13V6.26Z"/><path class="cls-2" d="M189.77,6.26v10c0,1.16-.09,2.87-.28,5.12l9.76-15.08h5V25.7h-4V15.91c0-.54,0-1.41.1-2.62s.12-2.09.16-2.64L190.86,25.7h-5V6.26Z"/><path class="cls-4" d="M212.17,25.7h-4.63l5.42-8a5.82,5.82,0,0,1-3.09-2,5.66,5.66,0,0,1-1.13-3.59,5.21,5.21,0,0,1,2-4.32,8.48,8.48,0,0,1,5.38-1.55H225V25.7H220.8V18.21h-3.92Zm.6-13.54a2.51,2.51,0,0,0,1.13,2.25,5.55,5.55,0,0,0,3,.74h3.85V9.39h-4.5a4.14,4.14,0,0,0-2.61.72A2.43,2.43,0,0,0,212.77,12.16Z"/><path class="cls-2" d="M244.16,6.26v10c0,1.16-.09,2.87-.28,5.12l9.75-15.08h5.05V25.7h-4V15.91c0-.54,0-1.41.09-2.62s.12-2.09.17-2.64L245.25,25.7h-5V6.26Z"/><path class="cls-2" d="M268.86,14A10.3,10.3,0,0,0,273,13.4a2,2,0,0,0,1.34-1.92q0-2.37-4.22-2.37a14.55,14.55,0,0,0-5.75,1.26l-1.33-3.08a19.65,19.65,0,0,1,7.48-1.38,10.19,10.19,0,0,1,5.63,1.32,4.3,4.3,0,0,1,2,3.81c0,2.18-1.24,3.61-3.74,4.29v.14a6.55,6.55,0,0,1,3.35,1.81,4.34,4.34,0,0,1,1,2.92,4.9,4.9,0,0,1-2.35,4.26,11.55,11.55,0,0,1-6.55,1.59,16.11,16.11,0,0,1-7-1.21V21.27a15.49,15.49,0,0,0,6.66,1.51,8.57,8.57,0,0,0,3.83-.69,2.37,2.37,0,0,0,0-4.27,9.83,9.83,0,0,0-4.19-.68H266.8V14Z"/><path class="cls-2" d="M309.6,6.26V25.7h-4.14V9.53h-8.72V25.7h-4.13V6.26Z"/><path class="cls-5" d="M325.37,26.05a6.81,6.81,0,0,1-5.73-2.65h-.25c.17,1.64.25,2.63.25,3v8h-4.13V6.26h3.34c.09.36.29,1.23.58,2.6h.21a6.46,6.46,0,0,1,5.8-2.95,6.76,6.76,0,0,1,5.67,2.63q2,2.64,2,7.4t-2.06,7.44A6.82,6.82,0,0,1,325.37,26.05Zm-1-16.77a4.31,4.31,0,0,0-3.6,1.44,7.52,7.52,0,0,0-1.13,4.61v.61q0,3.55,1.13,5.14a4.16,4.16,0,0,0,3.67,1.6,3.72,3.72,0,0,0,3.3-1.76,9,9,0,0,0,1.16-5A8.75,8.75,0,0,0,327.75,11,3.82,3.82,0,0,0,324.37,9.28Z"/><path class="cls-2" d="M355.18,15.94q0,4.77-2.44,7.44a8.76,8.76,0,0,1-6.8,2.67,9.34,9.34,0,0,1-4.82-1.23,8.18,8.18,0,0,1-3.22-3.53,12.07,12.07,0,0,1-1.12-5.35,10.53,10.53,0,0,1,2.43-7.38A8.77,8.77,0,0,1,346,5.91a8.55,8.55,0,0,1,6.68,2.71A10.49,10.49,0,0,1,355.18,15.94Zm-14.15,0q0,6.74,5,6.74t4.92-6.74q0-6.66-5-6.66A4.25,4.25,0,0,0,342.2,11,8.78,8.78,0,0,0,341,15.94Z"/><path class="cls-2" d="M372.5,6.26V9.49h-8.44V25.7h-4.13V6.26Z"/><path class="cls-5" d="M386.1,26.05a6.81,6.81,0,0,1-5.73-2.65h-.24c.16,1.64.24,2.63.24,3v8h-4.13V6.26h3.34c.1.36.29,1.23.58,2.6h.21a6.48,6.48,0,0,1,5.8-2.95,6.76,6.76,0,0,1,5.67,2.63c1.36,1.76,2,4.23,2,7.4s-.69,5.66-2.06,7.44A6.82,6.82,0,0,1,386.1,26.05Zm-1-16.77a4.28,4.28,0,0,0-3.59,1.44,7.45,7.45,0,0,0-1.14,4.61v.61q0,3.55,1.13,5.14a4.16,4.16,0,0,0,3.67,1.6,3.75,3.75,0,0,0,3.31-1.76,9.1,9.1,0,0,0,1.16-5A8.83,8.83,0,0,0,388.49,11,3.85,3.85,0,0,0,385.1,9.28Z"/><path class="cls-2" d="M410.84,25.7,410,23h-.14A8,8,0,0,1,407,25.41a8.93,8.93,0,0,1-3.66.64,6.14,6.14,0,0,1-4.47-1.55,5.79,5.79,0,0,1-1.61-4.37,5.14,5.14,0,0,1,2.23-4.54c1.49-1,3.76-1.57,6.81-1.67l3.35-.1v-1a4,4,0,0,0-.87-2.79,3.57,3.57,0,0,0-2.7-.92,9.4,9.4,0,0,0-2.86.44,21.61,21.61,0,0,0-2.64,1l-1.33-3a14.07,14.07,0,0,1,3.46-1.25,15.76,15.76,0,0,1,3.55-.43,8.46,8.46,0,0,1,5.6,1.61q1.89,1.62,1.89,5.08V25.7Zm-6.16-2.81a5.13,5.13,0,0,0,3.62-1.26,4.58,4.58,0,0,0,1.36-3.52V16.42l-2.5.1a8.51,8.51,0,0,0-4.24,1,3,3,0,0,0-1.33,2.66,2.6,2.6,0,0,0,.77,2A3.31,3.31,0,0,0,404.68,22.89Z"/><path class="cls-2" d="M430.72,21.74l.23-.84c.48-1.75.89-3.09,1.24-4l4.36-10.62h5.5V25.7h-3.81V10l-.32,1.06a41.44,41.44,0,0,1-1.33,4.16L432.33,25.7h-3.12L425,15.15A50.17,50.17,0,0,1,423.33,10V25.7h-3.78V6.26H425l4.22,10.3A45.1,45.1,0,0,1,430.72,21.74Z"/><path class="cls-2" d="M459.12,21.74l.23-.84c.48-1.75.9-3.09,1.25-4L465,6.26h5.5V25.7h-3.81V10l-.32,1.06A40.91,40.91,0,0,1,465,15.22L460.74,25.7h-3.13l-4.25-10.55A45.68,45.68,0,0,1,451.74,10V25.7H448V6.26h5.47l4.22,10.3A47.94,47.94,0,0,1,459.12,21.74Z"/><path class="cls-2" d="M480.5,14h3.94q4.06,0,6,1.4a4.86,4.86,0,0,1,2,4.22,5.3,5.3,0,0,1-2,4.53,9.87,9.87,0,0,1-5.95,1.52h-8.07V6.26h4.13Zm7.82,5.73a2.12,2.12,0,0,0-1.08-2,6.65,6.65,0,0,0-3.1-.58H480.5v5.5h3.11a7,7,0,0,0,3.6-.7A2.4,2.4,0,0,0,488.32,19.76Zm11.3,5.94h-4.15V6.26h4.15Z"/></g></g></svg>