<?xml version="1.0" encoding="UTF-8" standalone="no"?>
<!-- Created with Inkscape (http://www.inkscape.org/) -->

<svg
   xmlns:dc="http://purl.org/dc/elements/1.1/"
   xmlns:cc="http://creativecommons.org/ns#"
   xmlns:rdf="http://www.w3.org/1999/02/22-rdf-syntax-ns#"
   xmlns:svg="http://www.w3.org/2000/svg"
   xmlns="http://www.w3.org/2000/svg"
   xmlns:xlink="http://www.w3.org/1999/xlink"
   xmlns:sodipodi="http://sodipodi.sourceforge.net/DTD/sodipodi-0.dtd"
   xmlns:inkscape="http://www.inkscape.org/namespaces/inkscape"
   width="293.86353mm"
   height="19.366089mm"
   viewBox="0 0 1041.2487 68.62"
   id="svg21511"
   version="1.1"
   inkscape:version="0.91 r13725"
   sodipodi:docname="title__desktop.svg">
  <defs
     id="defs21513">
    <clipPath
       clipPathUnits="userSpaceOnUse"
       id="clipPath11192">
      <path
         d="m 1500.441,2515.499 c 0,-6.228 5.051,-11.279 11.279,-11.279 l 0,0 c 6.23,0 11.279,5.051 11.279,11.279 l 0,0 c 0,6.23 -5.049,11.28 -11.279,11.28 l 0,0 c -6.228,0 -11.279,-5.05 -11.279,-11.28"
         id="path11194"
         inkscape:connector-curvature="0" />
    </clipPath>
    <linearGradient
       x1="0"
       y1="0"
       x2="1"
       y2="0"
       gradientUnits="userSpaceOnUse"
       gradientTransform="matrix(-833,0,0,833,1523,2515.5)"
       spreadMethod="pad"
       id="linearGradient11200">
      <stop
         style="stop-opacity:1;stop-color:#47c0b8"
         offset="0"
         id="stop11202" />
      <stop
         style="stop-opacity:1;stop-color:#47c0b8"
         offset="0.0393917"
         id="stop11204" />
      <stop
         style="stop-opacity:1;stop-color:#47d2b1"
         offset="0.348613"
         id="stop11206" />
      <stop
         style="stop-opacity:1;stop-color:#47d2b1"
         offset="0.4222168"
         id="stop11208" />
      <stop
         style="stop-opacity:1;stop-color:#12b56a"
         offset="1"
         id="stop11210" />
    </linearGradient>
    <clipPath
       clipPathUnits="userSpaceOnUse"
       id="clipPath11168">
      <path
         d="m 0,6075 1920,0 L 1920,0 0,0 0,6075 Z"
         id="path11170"
         inkscape:connector-curvature="0" />
    </clipPath>
    <linearGradient
       x1="0"
       y1="0"
       x2="1"
       y2="0"
       gradientUnits="userSpaceOnUse"
       gradientTransform="matrix(-833,0,0,-833,833,6075)"
       spreadMethod="pad"
       id="linearGradient11174">
      <stop
         style="stop-opacity:1;stop-color:#47c0b8"
         offset="0"
         id="stop11176" />
      <stop
         style="stop-opacity:1;stop-color:#47c0b8"
         offset="0.0393917"
         id="stop11178" />
      <stop
         style="stop-opacity:1;stop-color:#47d2b1"
         offset="0.348613"
         id="stop11180" />
      <stop
         style="stop-opacity:1;stop-color:#47d2b1"
         offset="0.4222168"
         id="stop11182" />
      <stop
         style="stop-opacity:1;stop-color:#12b56a"
         offset="1"
         id="stop11184" />
    </linearGradient>
    <clipPath
       clipPathUnits="userSpaceOnUse"
       id="clipPath8276">
      <path
         d="m 1103.723,2537.699 3.456,0 0,16.202 -3.456,0 0,-16.202 z m -15.923,16.203 0,-16.203 6.723,0 c 2.178,0 3.832,0.423 4.958,1.269 l 0,0 c 1.129,0.843 1.693,2.101 1.693,3.772 l 0,0 c 0,1.561 -0.541,2.733 -1.626,3.514 l 0,0 c -1.084,0.782 -2.759,1.173 -5.025,1.173 l 0,0 -3.281,0 0,6.475 -3.442,0 z m 3.442,-9.069 3.033,0 c 1.122,0 1.983,-0.16 2.586,-0.483 l 0,0 c 0.599,-0.322 0.899,-0.888 0.899,-1.699 l 0,0 c 0,-0.82 -0.306,-1.425 -0.922,-1.816 l 0,0 c -0.615,-0.391 -1.616,-0.586 -3.004,-0.586 l 0,0 -2.592,0 0,4.584 z"
         id="path8278"
         inkscape:connector-curvature="0" />
    </clipPath>
    <linearGradient
       x1="0"
       y1="0"
       x2="1"
       y2="0"
       gradientUnits="userSpaceOnUse"
       gradientTransform="matrix(-432.01852,0,0,432.01852,1112,2545.8008)"
       spreadMethod="pad"
       id="linearGradient8284">
      <stop
         style="stop-opacity:1;stop-color:#47c0b8"
         offset="0"
         id="stop8286" />
      <stop
         style="stop-opacity:1;stop-color:#47c0b8"
         offset="0.0393917"
         id="stop8288" />
      <stop
         style="stop-opacity:1;stop-color:#47d2b1"
         offset="0.348613"
         id="stop8290" />
      <stop
         style="stop-opacity:1;stop-color:#47d2b1"
         offset="0.4222168"
         id="stop8292" />
      <stop
         style="stop-opacity:1;stop-color:#12b56a"
         offset="1"
         id="stop8294" />
    </linearGradient>
    <clipPath
       clipPathUnits="userSpaceOnUse"
       id="clipPath8250">
      <path
         d="m 1078.292,2553.902 -3.631,-8.848 c -0.293,-0.782 -0.641,-1.899 -1.04,-3.356 l 0,0 -0.191,-0.702 c -0.508,2.09 -0.918,3.531 -1.23,4.322 l 0,0 -3.516,8.584 -4.556,0 0,-16.203 3.149,0 0,13.082 c 0.41,-1.592 0.86,-3.022 1.348,-4.292 l 0,0 3.544,-8.79 2.609,0 3.545,8.732 c 0.302,0.742 0.674,1.9 1.113,3.472 l 0,0 0.263,0.878 0,-13.082 3.179,0 0,16.203 -4.586,0 z"
         id="path8252"
         inkscape:connector-curvature="0" />
    </clipPath>
    <clipPath
       clipPathUnits="userSpaceOnUse"
       id="clipPath8224">
      <path
         d="m 1054.621,2553.902 -3.633,-8.848 c -0.293,-0.782 -0.639,-1.899 -1.04,-3.356 l 0,0 -0.191,-0.702 c -0.507,2.09 -0.918,3.531 -1.23,4.322 l 0,0 -3.516,8.584 -4.555,0 0,-16.203 3.149,0 0,13.082 c 0.411,-1.592 0.86,-3.022 1.348,-4.292 l 0,0 3.545,-8.79 2.607,0 3.545,8.732 c 0.303,0.742 0.674,1.9 1.114,3.472 l 0,0 0.263,0.878 0,-13.082 3.178,0 0,16.203 -4.584,0 z"
         id="path8226"
         inkscape:connector-curvature="0" />
    </clipPath>
    <clipPath
       clipPathUnits="userSpaceOnUse"
       id="clipPath8198">
      <path
         d="m 1026.452,2553.834 c -1.044,-0.239 -2.006,-0.586 -2.886,-1.045 l 0,0 1.114,-2.463 c 0.703,0.333 1.435,0.621 2.197,0.865 l 0,0 c 0.761,0.244 1.557,0.367 2.388,0.367 l 0,0 c 1.015,0 1.765,-0.256 2.247,-0.77 l 0,0 c 0.485,-0.512 0.726,-1.287 0.726,-2.322 l 0,0 0,-0.864 -2.798,-0.087 c -2.538,-0.078 -4.429,-0.543 -5.668,-1.392 l 0,0 c -1.241,-0.849 -1.86,-2.11 -1.86,-3.779 l 0,0 c 0,-1.573 0.446,-2.789 1.338,-3.647 l 0,0 c 0.895,-0.86 2.138,-1.29 3.729,-1.29 l 0,0 c 1.24,0 2.257,0.18 3.047,0.535 l 0,0 c 0.791,0.355 1.578,1.027 2.358,2.014 l 0,0 0.118,0 0.689,-2.257 2.46,0 0,10.914 c 0,1.924 -0.526,3.335 -1.574,4.233 l 0,0 c -1.051,0.899 -2.606,1.348 -4.666,1.348 l 0,0 c -0.928,0 -1.915,-0.12 -2.959,-0.36 m -0.322,-13.197 c -0.43,0.395 -0.645,0.955 -0.645,1.677 l 0,0 c 0,0.996 0.368,1.736 1.106,2.22 l 0,0 c 0.738,0.482 1.916,0.753 3.538,0.813 l 0,0 2.08,0.087 0,-1.406 c 0,-1.259 -0.38,-2.24 -1.136,-2.938 l 0,0 c -0.756,-0.698 -1.759,-1.046 -3.01,-1.046 l 0,0 c -0.859,0 -1.503,0.197 -1.933,0.593"
         id="path8200"
         inkscape:connector-curvature="0" />
    </clipPath>
    <clipPath
       clipPathUnits="userSpaceOnUse"
       id="clipPath8172">
      <path
         d="m 1007.804,2551.734 -0.175,0 c -0.244,1.141 -0.406,1.864 -0.483,2.168 l 0,0 -2.784,0 0,-23.41 3.442,0 0,6.637 c 0,0.293 -0.068,1.122 -0.204,2.49 l 0,0 0.204,0 c 1.133,-1.474 2.725,-2.212 4.775,-2.212 l 0,0 c 2.022,0 3.606,0.742 4.754,2.227 l 0,0 c 1.147,1.484 1.721,3.549 1.721,6.196 l 0,0 c 0,2.647 -0.562,4.702 -1.692,6.167 l 0,0 c -1.127,1.465 -2.701,2.197 -4.723,2.197 l 0,0 c -2.148,0 -3.76,-0.82 -4.835,-2.46 m 0.938,-10.188 c -0.625,0.883 -0.938,2.311 -0.938,4.284 l 0,0 0,0.513 c 0,1.757 0.316,3.037 0.946,3.837 l 0,0 c 0.629,0.802 1.628,1.201 2.995,1.201 l 0,0 c 1.24,0 2.179,-0.466 2.821,-1.398 l 0,0 c 0.639,-0.933 0.959,-2.308 0.959,-4.124 l 0,0 c 0,-1.807 -0.323,-3.199 -0.968,-4.174 l 0,0 c -0.644,-0.977 -1.561,-1.466 -2.754,-1.466 l 0,0 c -1.416,0 -2.436,0.443 -3.061,1.327"
         id="path8174"
         inkscape:connector-curvature="0" />
    </clipPath>
    <linearGradient
       x1="0"
       y1="0"
       x2="1"
       y2="0"
       gradientUnits="userSpaceOnUse"
       gradientTransform="matrix(-432.01852,0,0,432.01852,1112,2542.3438)"
       spreadMethod="pad"
       id="linearGradient8180">
      <stop
         style="stop-opacity:1;stop-color:#47c0b8"
         offset="0"
         id="stop8182" />
      <stop
         style="stop-opacity:1;stop-color:#47c0b8"
         offset="0.0393917"
         id="stop8184" />
      <stop
         style="stop-opacity:1;stop-color:#47d2b1"
         offset="0.348613"
         id="stop8186" />
      <stop
         style="stop-opacity:1;stop-color:#47d2b1"
         offset="0.4222168"
         id="stop8188" />
      <stop
         style="stop-opacity:1;stop-color:#12b56a"
         offset="1"
         id="stop8190" />
    </linearGradient>
    <clipPath
       clipPathUnits="userSpaceOnUse"
       id="clipPath8146">
      <path
         d="m 990.768,2553.902 0,-16.203 3.443,0 0,13.507 7.031,0 0,2.696 -10.474,0 z"
         id="path8148"
         inkscape:connector-curvature="0" />
    </clipPath>
    <clipPath
       clipPathUnits="userSpaceOnUse"
       id="clipPath8120">
      <path
         d="m 973.499,2551.982 c -1.348,-1.474 -2.022,-3.525 -2.022,-6.152 l 0,0 c 0,-1.689 0.313,-3.174 0.938,-4.453 l 0,0 c 0.625,-1.279 1.518,-2.261 2.68,-2.944 l 0,0 c 1.162,-0.685 2.5,-1.026 4.013,-1.026 l 0,0 c 2.422,0 4.311,0.742 5.67,2.227 l 0,0 c 1.357,1.484 2.035,3.549 2.035,6.196 l 0,0 c 0,2.558 -0.683,4.592 -2.05,6.1 l 0,0 c -1.368,1.51 -3.223,2.264 -5.567,2.264 l 0,0 c -2.451,0 -4.351,-0.738 -5.697,-2.212 m 1.523,-6.152 c 0,1.787 0.323,3.159 0.974,4.117 l 0,0 c 0.648,0.956 1.697,1.434 3.142,1.434 l 0,0 c 2.754,0 4.13,-1.85 4.13,-5.551 l 0,0 c 0,-3.74 -1.367,-5.611 -4.101,-5.611 l 0,0 c -2.764,0 -4.145,1.871 -4.145,5.611"
         id="path8122"
         inkscape:connector-curvature="0" />
    </clipPath>
    <clipPath
       clipPathUnits="userSpaceOnUse"
       id="clipPath8094">
      <path
         d="m 957.194,2551.734 -0.175,0 c -0.244,1.141 -0.406,1.864 -0.483,2.168 l 0,0 -2.784,0 0,-23.41 3.442,0 0,6.637 c 0,0.293 -0.068,1.122 -0.205,2.49 l 0,0 0.205,0 c 1.133,-1.474 2.725,-2.212 4.775,-2.212 l 0,0 c 2.022,0 3.606,0.742 4.754,2.227 l 0,0 c 1.147,1.484 1.722,3.549 1.722,6.196 l 0,0 c 0,2.647 -0.565,4.702 -1.693,6.167 l 0,0 c -1.126,1.465 -2.703,2.197 -4.723,2.197 l 0,0 c -2.15,0 -3.76,-0.82 -4.835,-2.46 m 0.938,-10.188 c -0.625,0.883 -0.938,2.311 -0.938,4.284 l 0,0 0,0.513 c 0,1.757 0.316,3.037 0.944,3.837 l 0,0 c 0.631,0.802 1.63,1.201 2.996,1.201 l 0,0 c 1.241,0 2.18,-0.466 2.821,-1.398 l 0,0 c 0.638,-0.933 0.959,-2.308 0.959,-4.124 l 0,0 c 0,-1.807 -0.322,-3.199 -0.967,-4.174 l 0,0 c -0.645,-0.977 -1.563,-1.466 -2.754,-1.466 l 0,0 c -1.416,0 -2.436,0.443 -3.061,1.327"
         id="path8096"
         inkscape:connector-curvature="0" />
    </clipPath>
    <clipPath
       clipPathUnits="userSpaceOnUse"
       id="clipPath8068">
      <path
         d="m 934.665,2553.902 0,-16.203 3.443,0 0,13.478 7.264,0 0,-13.478 3.458,0 0,16.203 -14.165,0 z"
         id="path8070"
         inkscape:connector-curvature="0" />
    </clipPath>
    <clipPath
       clipPathUnits="userSpaceOnUse"
       id="clipPath8042">
      <path
         d="m 910.041,2553.037 1.113,-2.563 c 1.631,0.703 3.227,1.054 4.79,1.054 l 0,0 c 2.343,0 3.516,-0.659 3.516,-1.978 l 0,0 c 0,-0.722 -0.371,-1.258 -1.113,-1.604 l 0,0 c -0.743,-0.347 -1.9,-0.519 -3.472,-0.519 l 0,0 -1.713,0 0,-2.594 1.977,0 c 1.572,0 2.734,-0.189 3.485,-0.57 l 0,0 c 0.754,-0.381 1.129,-0.977 1.129,-1.787 l 0,0 c 0,-0.791 -0.374,-1.38 -1.121,-1.766 l 0,0 c -0.747,-0.385 -1.808,-0.579 -3.186,-0.579 l 0,0 c -1.914,0 -3.765,0.421 -5.552,1.261 l 0,0 0,-2.975 c 1.348,-0.673 3.297,-1.01 5.846,-1.01 l 0,0 c 2.333,0 4.153,0.442 5.455,1.326 l 0,0 c 1.305,0.883 1.956,2.068 1.956,3.552 l 0,0 c 0,0.967 -0.281,1.777 -0.843,2.432 l 0,0 c -0.561,0.654 -1.491,1.158 -2.79,1.508 l 0,0 0,0.118 c 2.081,0.567 3.121,1.757 3.121,3.573 l 0,0 c 0,1.378 -0.557,2.435 -1.67,3.173 l 0,0 c -1.114,0.736 -2.675,1.105 -4.688,1.105 l 0,0 c -2.275,0 -4.356,-0.385 -6.24,-1.157"
         id="path8044"
         inkscape:connector-curvature="0" />
    </clipPath>
    <clipPath
       clipPathUnits="userSpaceOnUse"
       id="clipPath8016">
      <path
         d="m 902.189,2553.902 -8.129,-12.569 c 0.155,1.875 0.234,3.296 0.234,4.262 l 0,0 0,8.307 -3.296,0 0,-16.203 4.204,0 8.101,12.541 c -0.039,-0.459 -0.086,-1.193 -0.138,-2.198 l 0,0 c -0.055,-1.006 -0.083,-1.733 -0.083,-2.183 l 0,0 0,-8.16 3.312,0 0,16.203 -4.205,0 z"
         id="path8018"
         inkscape:connector-curvature="0" />
    </clipPath>
    <clipPath
       clipPathUnits="userSpaceOnUse"
       id="clipPath7990">
      <path
         d="m 870.901,2553.902 c -1.896,0 -3.39,-0.432 -4.483,-1.298 l 0,0 c -1.094,-0.863 -1.64,-2.063 -1.64,-3.595 l 0,0 c 0,-1.192 0.312,-2.189 0.937,-2.996 l 0,0 c 0.625,-0.805 1.484,-1.364 2.579,-1.677 l 0,0 -4.513,-6.637 3.852,0 3.926,6.241 3.267,0 0,-6.241 3.457,0 0,16.203 -7.382,0 z m -1.825,-6.79 c -0.629,0.414 -0.944,1.037 -0.944,1.868 l 0,0 c 0,0.741 0.256,1.313 0.768,1.714 l 0,0 c 0.514,0.399 1.238,0.6 2.176,0.6 l 0,0 3.75,0 0,-4.805 -3.207,0 c -1.066,0 -1.912,0.207 -2.543,0.623"
         id="path7992"
         inkscape:connector-curvature="0" />
    </clipPath>
    <clipPath
       clipPathUnits="userSpaceOnUse"
       id="clipPath7964">
      <path
         d="m 856.866,2553.902 -8.129,-12.569 c 0.157,1.875 0.235,3.296 0.235,4.262 l 0,0 0,8.307 -3.296,0 0,-16.203 4.205,0 8.1,12.541 c -0.04,-0.459 -0.087,-1.193 -0.139,-2.198 l 0,0 c -0.055,-1.006 -0.081,-1.733 -0.081,-2.183 l 0,0 0,-8.16 3.31,0 0,16.203 -4.205,0 z"
         id="path7966"
         inkscape:connector-curvature="0" />
    </clipPath>
    <clipPath
       clipPathUnits="userSpaceOnUse"
       id="clipPath7938">
      <path
         d="m 837.312,2553.902 0,-6.505 -7.633,0 0,6.505 -3.442,0 0,-16.203 3.442,0 0,6.988 7.633,0 0,-6.988 3.442,0 0,16.203 -3.442,0 z"
         id="path7940"
         inkscape:connector-curvature="0" />
    </clipPath>
    <clipPath
       clipPathUnits="userSpaceOnUse"
       id="clipPath7912">
      <path
         d="m 809.963,2551.924 c -1.319,-1.514 -1.978,-3.593 -1.978,-6.24 l 0,0 c 0,-2.578 0.711,-4.603 2.132,-6.071 l 0,0 c 1.421,-1.471 3.391,-2.206 5.911,-2.206 l 0,0 c 1.102,0 2.084,0.083 2.944,0.25 l 0,0 c 0.86,0.166 1.709,0.448 2.549,0.849 l 0,0 0,2.798 c -0.948,-0.42 -1.834,-0.721 -2.659,-0.901 l 0,0 c -0.826,-0.182 -1.717,-0.272 -2.674,-0.272 l 0,0 c -1.455,0 -2.583,0.422 -3.383,1.269 l 0,0 c -0.801,0.843 -1.226,2.052 -1.275,3.624 l 0,0 10.796,0 0,1.861 c 0,2.275 -0.62,4.062 -1.86,5.361 l 0,0 c -1.241,1.299 -2.93,1.948 -5.068,1.948 l 0,0 c -2.305,0 -4.116,-0.756 -5.435,-2.27 m 2.805,-1.377 c 0.659,0.693 1.535,1.04 2.63,1.04 l 0,0 c 1.093,0 1.953,-0.344 2.578,-1.034 l 0,0 c 0.624,-0.687 0.947,-1.701 0.967,-3.038 l 0,0 -7.355,0 c 0.128,1.328 0.52,2.339 1.18,3.032"
         id="path7914"
         inkscape:connector-curvature="0" />
    </clipPath>
    <clipPath
       clipPathUnits="userSpaceOnUse"
       id="clipPath7886">
      <path
         d="m 800.588,2553.902 0,-6.959 c -0.909,-0.507 -1.758,-0.877 -2.549,-1.107 l 0,0 c -0.792,-0.228 -1.601,-0.343 -2.432,-0.343 l 0,0 c -1.718,0 -2.578,0.83 -2.578,2.49 l 0,0 0,5.919 -3.456,0 0,-6.065 c 0,-1.572 0.472,-2.796 1.421,-3.67 l 0,0 c 0.946,-0.874 2.265,-1.311 3.954,-1.311 l 0,0 c 1.045,0 2.008,0.138 2.893,0.419 l 0,0 c 0.884,0.276 1.8,0.709 2.747,1.296 l 0,0 0,-6.872 3.443,0 0,16.203 -3.443,0 z"
         id="path7888"
         inkscape:connector-curvature="0" />
    </clipPath>
    <clipPath
       clipPathUnits="userSpaceOnUse"
       id="clipPath7860">
      <path
         d="m 773.686,2552.407 c -1.265,-1.192 -2.019,-2.861 -2.263,-5.01 l 0,0 -3.604,0 0,6.505 -3.442,0 0,-16.203 3.442,0 0,6.988 3.574,0 c 0.206,-2.343 0.935,-4.143 2.191,-5.397 l 0,0 c 1.255,-1.255 2.947,-1.883 5.075,-1.883 l 0,0 c 2.315,0 4.118,0.741 5.413,2.219 l 0,0 c 1.293,1.481 1.941,3.548 1.941,6.204 l 0,0 c 0,2.558 -0.655,4.592 -1.963,6.1 l 0,0 c -1.309,1.51 -3.085,2.264 -5.333,2.264 l 0,0 c -2.089,0 -3.767,-0.596 -5.031,-1.787 m 2.108,-10.766 c -0.59,0.946 -0.885,2.343 -0.885,4.189 l 0,0 c 0,1.827 0.295,3.208 0.885,4.146 l 0,0 c 0.592,0.937 1.557,1.405 2.894,1.405 l 0,0 c 1.328,0 2.29,-0.468 2.886,-1.405 l 0,0 c 0.596,-0.938 0.894,-2.319 0.894,-4.146 l 0,0 c 0,-1.846 -0.298,-3.243 -0.894,-4.189 l 0,0 c -0.596,-0.947 -1.558,-1.422 -2.886,-1.422 l 0,0 c -1.337,0 -2.302,0.475 -2.894,1.422"
         id="path7862"
         inkscape:connector-curvature="0" />
    </clipPath>
    <clipPath
       clipPathUnits="userSpaceOnUse"
       id="clipPath7834">
      <path
         d="m 748.571,2553.902 c -0.322,-4.62 -0.769,-8.049 -1.34,-10.292 l 0,0 c -0.572,-2.239 -1.356,-3.361 -2.351,-3.361 l 0,0 c -0.362,0 -0.723,0.068 -1.084,0.205 l 0,0 0,-2.695 c 0.507,-0.215 1.137,-0.322 1.89,-0.322 l 0,0 c 1.191,0 2.161,0.448 2.906,1.346 l 0,0 c 0.749,0.9 1.354,2.325 1.818,4.279 l 0,0 c 0.463,1.953 0.832,4.668 1.105,8.144 l 0,0 4.469,0 0,-13.507 3.471,0 0,16.203 -10.884,0 z"
         id="path7836"
         inkscape:connector-curvature="0" />
    </clipPath>
    <linearGradient
       x1="0"
       y1="0"
       x2="1"
       y2="0"
       gradientUnits="userSpaceOnUse"
       gradientTransform="matrix(-432.01852,0,0,432.01852,1112,2545.6689)"
       spreadMethod="pad"
       id="linearGradient7842">
      <stop
         style="stop-opacity:1;stop-color:#47c0b8"
         offset="0"
         id="stop7844" />
      <stop
         style="stop-opacity:1;stop-color:#47c0b8"
         offset="0.0393917"
         id="stop7846" />
      <stop
         style="stop-opacity:1;stop-color:#47d2b1"
         offset="0.348613"
         id="stop7848" />
      <stop
         style="stop-opacity:1;stop-color:#47d2b1"
         offset="0.4222168"
         id="stop7850" />
      <stop
         style="stop-opacity:1;stop-color:#12b56a"
         offset="1"
         id="stop7852" />
    </linearGradient>
    <clipPath
       clipPathUnits="userSpaceOnUse"
       id="clipPath7808">
      <path
         d="m 739.123,2553.902 -6.606,-7.868 0,7.868 -3.443,0 0,-16.203 3.443,0 0,8.218 7.002,-8.218 3.955,0 -7.266,8.395 6.694,7.808 -3.779,0 z"
         id="path7810"
         inkscape:connector-curvature="0" />
    </clipPath>
    <clipPath
       clipPathUnits="userSpaceOnUse"
       id="clipPath7782">
      <path
         d="m 715.253,2551.997 c -1.334,-1.465 -1.999,-3.56 -1.999,-6.284 l 0,0 c 0,-2.676 0.636,-4.73 1.912,-6.16 l 0,0 c 1.273,-1.431 3.136,-2.146 5.588,-2.146 l 0,0 c 0.996,0 1.843,0.079 2.542,0.234 l 0,0 c 0.698,0.158 1.355,0.415 1.969,0.776 l 0,0 0,3.004 c -1.367,-0.762 -2.817,-1.143 -4.349,-1.143 l 0,0 c -1.348,0 -2.373,0.457 -3.071,1.369 l 0,0 c -0.698,0.913 -1.046,2.279 -1.046,4.095 l 0,0 c 0,3.721 1.401,5.581 4.204,5.581 l 0,0 c 0.948,0 2.148,-0.283 3.604,-0.849 l 0,0 1.04,2.767 c -1.368,0.636 -2.906,0.953 -4.615,0.953 l 0,0 c -2.519,0 -4.446,-0.732 -5.779,-2.197"
         id="path7784"
         inkscape:connector-curvature="0" />
    </clipPath>
    <clipPath
       clipPathUnits="userSpaceOnUse"
       id="clipPath7756">
      <path
         d="m 704.89,2559.116 -10.943,-17.065 -0.132,0 c 0.029,0.419 0.074,1.224 0.132,2.408 l 0,0 c 0.059,1.188 0.088,2.362 0.088,3.524 l 0,0 0,11.133 -3.208,0 0,-21.417 4.101,0 10.987,17.198 0.117,0 c -0.186,-2.412 -0.279,-4.462 -0.279,-6.152 l 0,0 0,-11.046 3.223,0 0,21.417 -4.086,0 z"
         id="path7758"
         inkscape:connector-curvature="0" />
    </clipPath>
    <linearGradient
       x1="0"
       y1="0"
       x2="1"
       y2="0"
       gradientUnits="userSpaceOnUse"
       gradientTransform="matrix(-432.01852,0,0,432.01852,1112,2548.4082)"
       spreadMethod="pad"
       id="linearGradient7764">
      <stop
         style="stop-opacity:1;stop-color:#47c0b8"
         offset="0"
         id="stop7766" />
      <stop
         style="stop-opacity:1;stop-color:#47c0b8"
         offset="0.0393917"
         id="stop7768" />
      <stop
         style="stop-opacity:1;stop-color:#47d2b1"
         offset="0.348613"
         id="stop7770" />
      <stop
         style="stop-opacity:1;stop-color:#47d2b1"
         offset="0.4222168"
         id="stop7772" />
      <stop
         style="stop-opacity:1;stop-color:#12b56a"
         offset="1"
         id="stop7774" />
    </linearGradient>
    <linearGradient
       inkscape:collect="always"
       xlink:href="#linearGradient8284"
       id="linearGradient22017"
       gradientUnits="userSpaceOnUse"
       gradientTransform="matrix(-432.01852,0,0,432.01852,1112,2545.8008)"
       spreadMethod="pad"
       x1="0"
       y1="0"
       x2="1"
       y2="0" />
    <linearGradient
       inkscape:collect="always"
       xlink:href="#linearGradient8284"
       id="linearGradient22019"
       gradientUnits="userSpaceOnUse"
       gradientTransform="matrix(-432.01852,0,0,432.01852,1112,2545.8008)"
       spreadMethod="pad"
       x1="0"
       y1="0"
       x2="1"
       y2="0" />
    <linearGradient
       inkscape:collect="always"
       xlink:href="#linearGradient8284"
       id="linearGradient22021"
       gradientUnits="userSpaceOnUse"
       gradientTransform="matrix(-432.01852,0,0,432.01852,1112,2545.8008)"
       spreadMethod="pad"
       x1="0"
       y1="0"
       x2="1"
       y2="0" />
    <linearGradient
       inkscape:collect="always"
       xlink:href="#linearGradient8284"
       id="linearGradient22023"
       gradientUnits="userSpaceOnUse"
       gradientTransform="matrix(-432.01852,0,0,432.01852,1112,2545.8008)"
       spreadMethod="pad"
       x1="0"
       y1="0"
       x2="1"
       y2="0" />
    <linearGradient
       inkscape:collect="always"
       xlink:href="#linearGradient8284"
       id="linearGradient22025"
       gradientUnits="userSpaceOnUse"
       gradientTransform="matrix(-432.01852,0,0,432.01852,1112,2545.8008)"
       spreadMethod="pad"
       x1="0"
       y1="0"
       x2="1"
       y2="0" />
    <linearGradient
       inkscape:collect="always"
       xlink:href="#linearGradient8284"
       id="linearGradient22027"
       gradientUnits="userSpaceOnUse"
       gradientTransform="matrix(-432.01852,0,0,432.01852,1112,2545.8008)"
       spreadMethod="pad"
       x1="0"
       y1="0"
       x2="1"
       y2="0" />
    <linearGradient
       inkscape:collect="always"
       xlink:href="#linearGradient8284"
       id="linearGradient22029"
       gradientUnits="userSpaceOnUse"
       gradientTransform="matrix(-432.01852,0,0,432.01852,1112,2545.8008)"
       spreadMethod="pad"
       x1="0"
       y1="0"
       x2="1"
       y2="0" />
    <linearGradient
       inkscape:collect="always"
       xlink:href="#linearGradient8284"
       id="linearGradient22031"
       gradientUnits="userSpaceOnUse"
       gradientTransform="matrix(-432.01852,0,0,432.01852,1112,2545.8008)"
       spreadMethod="pad"
       x1="0"
       y1="0"
       x2="1"
       y2="0" />
    <linearGradient
       inkscape:collect="always"
       xlink:href="#linearGradient8284"
       id="linearGradient22033"
       gradientUnits="userSpaceOnUse"
       gradientTransform="matrix(-432.01852,0,0,432.01852,1112,2545.8008)"
       spreadMethod="pad"
       x1="0"
       y1="0"
       x2="1"
       y2="0" />
    <linearGradient
       inkscape:collect="always"
       xlink:href="#linearGradient8284"
       id="linearGradient22035"
       gradientUnits="userSpaceOnUse"
       gradientTransform="matrix(-432.01852,0,0,432.01852,1112,2545.8008)"
       spreadMethod="pad"
       x1="0"
       y1="0"
       x2="1"
       y2="0" />
    <linearGradient
       inkscape:collect="always"
       xlink:href="#linearGradient8284"
       id="linearGradient22037"
       gradientUnits="userSpaceOnUse"
       gradientTransform="matrix(-432.01852,0,0,432.01852,1112,2545.8008)"
       spreadMethod="pad"
       x1="0"
       y1="0"
       x2="1"
       y2="0" />
    <linearGradient
       inkscape:collect="always"
       xlink:href="#linearGradient8180"
       id="linearGradient22039"
       gradientUnits="userSpaceOnUse"
       gradientTransform="matrix(-432.01852,0,0,432.01852,1112,2542.3438)"
       spreadMethod="pad"
       x1="0"
       y1="0"
       x2="1"
       y2="0" />
    <linearGradient
       inkscape:collect="always"
       xlink:href="#linearGradient8284"
       id="linearGradient22041"
       gradientUnits="userSpaceOnUse"
       gradientTransform="matrix(-432.01852,0,0,432.01852,1112,2545.8008)"
       spreadMethod="pad"
       x1="0"
       y1="0"
       x2="1"
       y2="0" />
    <linearGradient
       inkscape:collect="always"
       xlink:href="#linearGradient8284"
       id="linearGradient22043"
       gradientUnits="userSpaceOnUse"
       gradientTransform="matrix(-432.01852,0,0,432.01852,1112,2545.8008)"
       spreadMethod="pad"
       x1="0"
       y1="0"
       x2="1"
       y2="0" />
    <linearGradient
       inkscape:collect="always"
       xlink:href="#linearGradient8180"
       id="linearGradient22045"
       gradientUnits="userSpaceOnUse"
       gradientTransform="matrix(-432.01852,0,0,432.01852,1112,2542.3438)"
       spreadMethod="pad"
       x1="0"
       y1="0"
       x2="1"
       y2="0" />
    <linearGradient
       inkscape:collect="always"
       xlink:href="#linearGradient8284"
       id="linearGradient22047"
       gradientUnits="userSpaceOnUse"
       gradientTransform="matrix(-432.01852,0,0,432.01852,1112,2545.8008)"
       spreadMethod="pad"
       x1="0"
       y1="0"
       x2="1"
       y2="0" />
    <linearGradient
       inkscape:collect="always"
       xlink:href="#linearGradient8284"
       id="linearGradient22049"
       gradientUnits="userSpaceOnUse"
       gradientTransform="matrix(-432.01852,0,0,432.01852,1112,2545.8008)"
       spreadMethod="pad"
       x1="0"
       y1="0"
       x2="1"
       y2="0" />
    <linearGradient
       inkscape:collect="always"
       xlink:href="#linearGradient8284"
       id="linearGradient22051"
       gradientUnits="userSpaceOnUse"
       gradientTransform="matrix(-432.01852,0,0,432.01852,1112,2545.8008)"
       spreadMethod="pad"
       x1="0"
       y1="0"
       x2="1"
       y2="0" />
    <linearGradient
       inkscape:collect="always"
       xlink:href="#linearGradient8284"
       id="linearGradient22053"
       gradientUnits="userSpaceOnUse"
       gradientTransform="matrix(-432.01852,0,0,432.01852,1112,2545.8008)"
       spreadMethod="pad"
       x1="0"
       y1="0"
       x2="1"
       y2="0" />
  </defs>
  <sodipodi:namedview
     id="base"
     pagecolor="#ffffff"
     bordercolor="#666666"
     borderopacity="1.0"
     inkscape:pageopacity="0.0"
     inkscape:pageshadow="2"
     inkscape:zoom="0.35"
     inkscape:cx="278.48149"
     inkscape:cy="-51.404305"
     inkscape:document-units="px"
     inkscape:current-layer="layer1"
     showgrid="false"
     fit-margin-top="0"
     fit-margin-left="0"
     fit-margin-right="0"
     fit-margin-bottom="0"
     inkscape:window-width="1366"
     inkscape:window-height="718"
     inkscape:window-x="0"
     inkscape:window-y="24"
     inkscape:window-maximized="1" />
  <metadata
     id="metadata21516">
    <rdf:RDF>
      <cc:Work
         rdf:about="">
        <dc:format>image/svg+xml</dc:format>
        <dc:type
           rdf:resource="http://purl.org/dc/dcmitype/StillImage" />
        <dc:title></dc:title>
      </cc:Work>
    </rdf:RDF>
  </metadata>
  <g
     inkscape:label="Layer 1"
     inkscape:groupmode="layer"
     id="layer1"
     transform="translate(337.7672,-412.3379)">
    <g
       transform="matrix(1.25,0,0,-1.25,-1200.2672,3611.2329)"
       id="g7752">
      <g
         id="g7754"
         clip-path="url(#clipPath7756)">
        <g
           id="g7760">
          <g
             id="g7762">
            <path
               d="m 704.89,2559.116 -10.943,-17.065 -0.132,0 c 0.029,0.419 0.074,1.224 0.132,2.408 l 0,0 c 0.059,1.188 0.088,2.362 0.088,3.524 l 0,0 0,11.133 -3.208,0 0,-21.417 4.101,0 10.987,17.198 0.117,0 c -0.186,-2.412 -0.279,-4.462 -0.279,-6.152 l 0,0 0,-11.046 3.223,0 0,21.417 -4.086,0 z"
               style="fill:url(#linearGradient7764);stroke:none"
               id="path7776"
               inkscape:connector-curvature="0" />
          </g>
        </g>
      </g>
    </g>
    <g
       transform="matrix(1.25,0,0,-1.25,-1200.2672,3611.2329)"
       id="g7778">
      <g
         id="g7780"
         clip-path="url(#clipPath7782)">
        <g
           id="g7786">
          <g
             id="g7788">
            <path
               d="m 715.253,2551.997 c -1.334,-1.465 -1.999,-3.56 -1.999,-6.284 l 0,0 c 0,-2.676 0.636,-4.73 1.912,-6.16 l 0,0 c 1.273,-1.431 3.136,-2.146 5.588,-2.146 l 0,0 c 0.996,0 1.843,0.079 2.542,0.234 l 0,0 c 0.698,0.158 1.355,0.415 1.969,0.776 l 0,0 0,3.004 c -1.367,-0.762 -2.817,-1.143 -4.349,-1.143 l 0,0 c -1.348,0 -2.373,0.457 -3.071,1.369 l 0,0 c -0.698,0.913 -1.046,2.279 -1.046,4.095 l 0,0 c 0,3.721 1.401,5.581 4.204,5.581 l 0,0 c 0.948,0 2.148,-0.283 3.604,-0.849 l 0,0 1.04,2.767 c -1.368,0.636 -2.906,0.953 -4.615,0.953 l 0,0 c -2.519,0 -4.446,-0.732 -5.779,-2.197"
               style="fill:url(#linearGradient22017);stroke:none"
               id="path7802"
               inkscape:connector-curvature="0" />
          </g>
        </g>
      </g>
    </g>
    <g
       transform="matrix(1.25,0,0,-1.25,-1200.2672,3611.2329)"
       id="g7804">
      <g
         id="g7806"
         clip-path="url(#clipPath7808)">
        <g
           id="g7812">
          <g
             id="g7814">
            <path
               d="m 739.123,2553.902 -6.606,-7.868 0,7.868 -3.443,0 0,-16.203 3.443,0 0,8.218 7.002,-8.218 3.955,0 -7.266,8.395 6.694,7.808 -3.779,0 z"
               style="fill:url(#linearGradient22019);stroke:none"
               id="path7828"
               inkscape:connector-curvature="0" />
          </g>
        </g>
      </g>
    </g>
    <g
       transform="matrix(1.25,0,0,-1.25,-1200.2672,3611.2329)"
       id="g7830">
      <g
         id="g7832"
         clip-path="url(#clipPath7834)">
        <g
           id="g7838">
          <g
             id="g7840">
            <path
               d="m 748.571,2553.902 c -0.322,-4.62 -0.769,-8.049 -1.34,-10.292 l 0,0 c -0.572,-2.239 -1.356,-3.361 -2.351,-3.361 l 0,0 c -0.362,0 -0.723,0.068 -1.084,0.205 l 0,0 0,-2.695 c 0.507,-0.215 1.137,-0.322 1.89,-0.322 l 0,0 c 1.191,0 2.161,0.448 2.906,1.346 l 0,0 c 0.749,0.9 1.354,2.325 1.818,4.279 l 0,0 c 0.463,1.953 0.832,4.668 1.105,8.144 l 0,0 4.469,0 0,-13.507 3.471,0 0,16.203 -10.884,0 z"
               style="fill:url(#linearGradient7842);stroke:none"
               id="path7854"
               inkscape:connector-curvature="0" />
          </g>
        </g>
      </g>
    </g>
    <g
       transform="matrix(1.25,0,0,-1.25,-1200.2672,3611.2329)"
       id="g7856">
      <g
         id="g7858"
         clip-path="url(#clipPath7860)">
        <g
           id="g7864">
          <g
             id="g7866">
            <path
               d="m 773.686,2552.407 c -1.265,-1.192 -2.019,-2.861 -2.263,-5.01 l 0,0 -3.604,0 0,6.505 -3.442,0 0,-16.203 3.442,0 0,6.988 3.574,0 c 0.206,-2.343 0.935,-4.143 2.191,-5.397 l 0,0 c 1.255,-1.255 2.947,-1.883 5.075,-1.883 l 0,0 c 2.315,0 4.118,0.741 5.413,2.219 l 0,0 c 1.293,1.481 1.941,3.548 1.941,6.204 l 0,0 c 0,2.558 -0.655,4.592 -1.963,6.1 l 0,0 c -1.309,1.51 -3.085,2.264 -5.333,2.264 l 0,0 c -2.089,0 -3.767,-0.596 -5.031,-1.787 m 2.108,-10.766 c -0.59,0.946 -0.885,2.343 -0.885,4.189 l 0,0 c 0,1.827 0.295,3.208 0.885,4.146 l 0,0 c 0.592,0.937 1.557,1.405 2.894,1.405 l 0,0 c 1.328,0 2.29,-0.468 2.886,-1.405 l 0,0 c 0.596,-0.938 0.894,-2.319 0.894,-4.146 l 0,0 c 0,-1.846 -0.298,-3.243 -0.894,-4.189 l 0,0 c -0.596,-0.947 -1.558,-1.422 -2.886,-1.422 l 0,0 c -1.337,0 -2.302,0.475 -2.894,1.422"
               style="fill:url(#linearGradient22021);stroke:none"
               id="path7880"
               inkscape:connector-curvature="0" />
          </g>
        </g>
      </g>
    </g>
    <g
       transform="matrix(1.25,0,0,-1.25,-1200.2672,3611.2329)"
       id="g7882">
      <g
         id="g7884"
         clip-path="url(#clipPath7886)">
        <g
           id="g7890">
          <g
             id="g7892">
            <path
               d="m 800.588,2553.902 0,-6.959 c -0.909,-0.507 -1.758,-0.877 -2.549,-1.107 l 0,0 c -0.792,-0.228 -1.601,-0.343 -2.432,-0.343 l 0,0 c -1.718,0 -2.578,0.83 -2.578,2.49 l 0,0 0,5.919 -3.456,0 0,-6.065 c 0,-1.572 0.472,-2.796 1.421,-3.67 l 0,0 c 0.946,-0.874 2.265,-1.311 3.954,-1.311 l 0,0 c 1.045,0 2.008,0.138 2.893,0.419 l 0,0 c 0.884,0.276 1.8,0.709 2.747,1.296 l 0,0 0,-6.872 3.443,0 0,16.203 -3.443,0 z"
               style="fill:url(#linearGradient22023);stroke:none"
               id="path7906"
               inkscape:connector-curvature="0" />
          </g>
        </g>
      </g>
    </g>
    <g
       transform="matrix(1.25,0,0,-1.25,-1200.2672,3611.2329)"
       id="g7908">
      <g
         id="g7910"
         clip-path="url(#clipPath7912)">
        <g
           id="g7916">
          <g
             id="g7918">
            <path
               d="m 809.963,2551.924 c -1.319,-1.514 -1.978,-3.593 -1.978,-6.24 l 0,0 c 0,-2.578 0.711,-4.603 2.132,-6.071 l 0,0 c 1.421,-1.471 3.391,-2.206 5.911,-2.206 l 0,0 c 1.102,0 2.084,0.083 2.944,0.25 l 0,0 c 0.86,0.166 1.709,0.448 2.549,0.849 l 0,0 0,2.798 c -0.948,-0.42 -1.834,-0.721 -2.659,-0.901 l 0,0 c -0.826,-0.182 -1.717,-0.272 -2.674,-0.272 l 0,0 c -1.455,0 -2.583,0.422 -3.383,1.269 l 0,0 c -0.801,0.843 -1.226,2.052 -1.275,3.624 l 0,0 10.796,0 0,1.861 c 0,2.275 -0.62,4.062 -1.86,5.361 l 0,0 c -1.241,1.299 -2.93,1.948 -5.068,1.948 l 0,0 c -2.305,0 -4.116,-0.756 -5.435,-2.27 m 2.805,-1.377 c 0.659,0.693 1.535,1.04 2.63,1.04 l 0,0 c 1.093,0 1.953,-0.344 2.578,-1.034 l 0,0 c 0.624,-0.687 0.947,-1.701 0.967,-3.038 l 0,0 -7.355,0 c 0.128,1.328 0.52,2.339 1.18,3.032"
               style="fill:url(#linearGradient22025);stroke:none"
               id="path7932"
               inkscape:connector-curvature="0" />
          </g>
        </g>
      </g>
    </g>
    <g
       transform="matrix(1.25,0,0,-1.25,-1200.2672,3611.2329)"
       id="g7934">
      <g
         id="g7936"
         clip-path="url(#clipPath7938)">
        <g
           id="g7942">
          <g
             id="g7944">
            <path
               d="m 837.312,2553.902 0,-6.505 -7.633,0 0,6.505 -3.442,0 0,-16.203 3.442,0 0,6.988 7.633,0 0,-6.988 3.442,0 0,16.203 -3.442,0 z"
               style="fill:url(#linearGradient22027);stroke:none"
               id="path7958"
               inkscape:connector-curvature="0" />
          </g>
        </g>
      </g>
    </g>
    <g
       transform="matrix(1.25,0,0,-1.25,-1200.2672,3611.2329)"
       id="g7960">
      <g
         id="g7962"
         clip-path="url(#clipPath7964)">
        <g
           id="g7968">
          <g
             id="g7970">
            <path
               d="m 856.866,2553.902 -8.129,-12.569 c 0.157,1.875 0.235,3.296 0.235,4.262 l 0,0 0,8.307 -3.296,0 0,-16.203 4.205,0 8.1,12.541 c -0.04,-0.459 -0.087,-1.193 -0.139,-2.198 l 0,0 c -0.055,-1.006 -0.081,-1.733 -0.081,-2.183 l 0,0 0,-8.16 3.31,0 0,16.203 -4.205,0 z"
               style="fill:url(#linearGradient22029);stroke:none"
               id="path7984"
               inkscape:connector-curvature="0" />
          </g>
        </g>
      </g>
    </g>
    <g
       transform="matrix(1.25,0,0,-1.25,-1200.2672,3611.2329)"
       id="g7986">
      <g
         id="g7988"
         clip-path="url(#clipPath7990)">
        <g
           id="g7994">
          <g
             id="g7996">
            <path
               d="m 870.901,2553.902 c -1.896,0 -3.39,-0.432 -4.483,-1.298 l 0,0 c -1.094,-0.863 -1.64,-2.063 -1.64,-3.595 l 0,0 c 0,-1.192 0.312,-2.189 0.937,-2.996 l 0,0 c 0.625,-0.805 1.484,-1.364 2.579,-1.677 l 0,0 -4.513,-6.637 3.852,0 3.926,6.241 3.267,0 0,-6.241 3.457,0 0,16.203 -7.382,0 z m -1.825,-6.79 c -0.629,0.414 -0.944,1.037 -0.944,1.868 l 0,0 c 0,0.741 0.256,1.313 0.768,1.714 l 0,0 c 0.514,0.399 1.238,0.6 2.176,0.6 l 0,0 3.75,0 0,-4.805 -3.207,0 c -1.066,0 -1.912,0.207 -2.543,0.623"
               style="fill:url(#linearGradient22031);stroke:none"
               id="path8010"
               inkscape:connector-curvature="0" />
          </g>
        </g>
      </g>
    </g>
    <g
       transform="matrix(1.25,0,0,-1.25,-1200.2672,3611.2329)"
       id="g8012">
      <g
         id="g8014"
         clip-path="url(#clipPath8016)">
        <g
           id="g8020">
          <g
             id="g8022">
            <path
               d="m 902.189,2553.902 -8.129,-12.569 c 0.155,1.875 0.234,3.296 0.234,4.262 l 0,0 0,8.307 -3.296,0 0,-16.203 4.204,0 8.101,12.541 c -0.039,-0.459 -0.086,-1.193 -0.138,-2.198 l 0,0 c -0.055,-1.006 -0.083,-1.733 -0.083,-2.183 l 0,0 0,-8.16 3.312,0 0,16.203 -4.205,0 z"
               style="fill:url(#linearGradient22033);stroke:none"
               id="path8036"
               inkscape:connector-curvature="0" />
          </g>
        </g>
      </g>
    </g>
    <g
       transform="matrix(1.25,0,0,-1.25,-1200.2672,3611.2329)"
       id="g8038">
      <g
         id="g8040"
         clip-path="url(#clipPath8042)">
        <g
           id="g8046">
          <g
             id="g8048">
            <path
               d="m 910.041,2553.037 1.113,-2.563 c 1.631,0.703 3.227,1.054 4.79,1.054 l 0,0 c 2.343,0 3.516,-0.659 3.516,-1.978 l 0,0 c 0,-0.722 -0.371,-1.258 -1.113,-1.604 l 0,0 c -0.743,-0.347 -1.9,-0.519 -3.472,-0.519 l 0,0 -1.713,0 0,-2.594 1.977,0 c 1.572,0 2.734,-0.189 3.485,-0.57 l 0,0 c 0.754,-0.381 1.129,-0.977 1.129,-1.787 l 0,0 c 0,-0.791 -0.374,-1.38 -1.121,-1.766 l 0,0 c -0.747,-0.385 -1.808,-0.579 -3.186,-0.579 l 0,0 c -1.914,0 -3.765,0.421 -5.552,1.261 l 0,0 0,-2.975 c 1.348,-0.673 3.297,-1.01 5.846,-1.01 l 0,0 c 2.333,0 4.153,0.442 5.455,1.326 l 0,0 c 1.305,0.883 1.956,2.068 1.956,3.552 l 0,0 c 0,0.967 -0.281,1.777 -0.843,2.432 l 0,0 c -0.561,0.654 -1.491,1.158 -2.79,1.508 l 0,0 0,0.118 c 2.081,0.567 3.121,1.757 3.121,3.573 l 0,0 c 0,1.378 -0.557,2.435 -1.67,3.173 l 0,0 c -1.114,0.736 -2.675,1.105 -4.688,1.105 l 0,0 c -2.275,0 -4.356,-0.385 -6.24,-1.157"
               style="fill:url(#linearGradient22035);stroke:none"
               id="path8062"
               inkscape:connector-curvature="0" />
          </g>
        </g>
      </g>
    </g>
    <g
       transform="matrix(1.25,0,0,-1.25,-1200.2672,3611.2329)"
       id="g8064">
      <g
         id="g8066"
         clip-path="url(#clipPath8068)">
        <g
           id="g8072">
          <g
             id="g8074">
            <path
               d="m 934.665,2553.902 0,-16.203 3.443,0 0,13.478 7.264,0 0,-13.478 3.458,0 0,16.203 -14.165,0 z"
               style="fill:url(#linearGradient22037);stroke:none"
               id="path8088"
               inkscape:connector-curvature="0" />
          </g>
        </g>
      </g>
    </g>
    <g
       transform="matrix(1.25,0,0,-1.25,-1200.2672,3611.2329)"
       id="g8090">
      <g
         id="g8092"
         clip-path="url(#clipPath8094)">
        <g
           id="g8098">
          <g
             id="g8100">
            <path
               d="m 957.194,2551.734 -0.175,0 c -0.244,1.141 -0.406,1.864 -0.483,2.168 l 0,0 -2.784,0 0,-23.41 3.442,0 0,6.637 c 0,0.293 -0.068,1.122 -0.205,2.49 l 0,0 0.205,0 c 1.133,-1.474 2.725,-2.212 4.775,-2.212 l 0,0 c 2.022,0 3.606,0.742 4.754,2.227 l 0,0 c 1.147,1.484 1.722,3.549 1.722,6.196 l 0,0 c 0,2.647 -0.565,4.702 -1.693,6.167 l 0,0 c -1.126,1.465 -2.703,2.197 -4.723,2.197 l 0,0 c -2.15,0 -3.76,-0.82 -4.835,-2.46 m 0.938,-10.188 c -0.625,0.883 -0.938,2.311 -0.938,4.284 l 0,0 0,0.513 c 0,1.757 0.316,3.037 0.944,3.837 l 0,0 c 0.631,0.802 1.63,1.201 2.996,1.201 l 0,0 c 1.241,0 2.18,-0.466 2.821,-1.398 l 0,0 c 0.638,-0.933 0.959,-2.308 0.959,-4.124 l 0,0 c 0,-1.807 -0.322,-3.199 -0.967,-4.174 l 0,0 c -0.645,-0.977 -1.563,-1.466 -2.754,-1.466 l 0,0 c -1.416,0 -2.436,0.443 -3.061,1.327"
               style="fill:url(#linearGradient22039);stroke:none"
               id="path8114"
               inkscape:connector-curvature="0" />
          </g>
        </g>
      </g>
    </g>
    <g
       transform="matrix(1.25,0,0,-1.25,-1200.2672,3611.2329)"
       id="g8116">
      <g
         id="g8118"
         clip-path="url(#clipPath8120)">
        <g
           id="g8124">
          <g
             id="g8126">
            <path
               d="m 973.499,2551.982 c -1.348,-1.474 -2.022,-3.525 -2.022,-6.152 l 0,0 c 0,-1.689 0.313,-3.174 0.938,-4.453 l 0,0 c 0.625,-1.279 1.518,-2.261 2.68,-2.944 l 0,0 c 1.162,-0.685 2.5,-1.026 4.013,-1.026 l 0,0 c 2.422,0 4.311,0.742 5.67,2.227 l 0,0 c 1.357,1.484 2.035,3.549 2.035,6.196 l 0,0 c 0,2.558 -0.683,4.592 -2.05,6.1 l 0,0 c -1.368,1.51 -3.223,2.264 -5.567,2.264 l 0,0 c -2.451,0 -4.351,-0.738 -5.697,-2.212 m 1.523,-6.152 c 0,1.787 0.323,3.159 0.974,4.117 l 0,0 c 0.648,0.956 1.697,1.434 3.142,1.434 l 0,0 c 2.754,0 4.13,-1.85 4.13,-5.551 l 0,0 c 0,-3.74 -1.367,-5.611 -4.101,-5.611 l 0,0 c -2.764,0 -4.145,1.871 -4.145,5.611"
               style="fill:url(#linearGradient22041);stroke:none"
               id="path8140"
               inkscape:connector-curvature="0" />
          </g>
        </g>
      </g>
    </g>
    <g
       transform="matrix(1.25,0,0,-1.25,-1200.2672,3611.2329)"
       id="g8142">
      <g
         id="g8144"
         clip-path="url(#clipPath8146)">
        <g
           id="g8150">
          <g
             id="g8152">
            <path
               d="m 990.768,2553.902 0,-16.203 3.443,0 0,13.507 7.031,0 0,2.696 -10.474,0 z"
               style="fill:url(#linearGradient22043);stroke:none"
               id="path8166"
               inkscape:connector-curvature="0" />
          </g>
        </g>
      </g>
    </g>
    <g
       transform="matrix(1.25,0,0,-1.25,-1200.2672,3611.2329)"
       id="g8168">
      <g
         id="g8170"
         clip-path="url(#clipPath8172)">
        <g
           id="g8176">
          <g
             id="g8178">
            <path
               d="m 1007.804,2551.734 -0.175,0 c -0.244,1.141 -0.406,1.864 -0.483,2.168 l 0,0 -2.784,0 0,-23.41 3.442,0 0,6.637 c 0,0.293 -0.068,1.122 -0.204,2.49 l 0,0 0.204,0 c 1.133,-1.474 2.725,-2.212 4.775,-2.212 l 0,0 c 2.022,0 3.606,0.742 4.754,2.227 l 0,0 c 1.147,1.484 1.721,3.549 1.721,6.196 l 0,0 c 0,2.647 -0.562,4.702 -1.692,6.167 l 0,0 c -1.127,1.465 -2.701,2.197 -4.723,2.197 l 0,0 c -2.148,0 -3.76,-0.82 -4.835,-2.46 m 0.938,-10.188 c -0.625,0.883 -0.938,2.311 -0.938,4.284 l 0,0 0,0.513 c 0,1.757 0.316,3.037 0.946,3.837 l 0,0 c 0.629,0.802 1.628,1.201 2.995,1.201 l 0,0 c 1.24,0 2.179,-0.466 2.821,-1.398 l 0,0 c 0.639,-0.933 0.959,-2.308 0.959,-4.124 l 0,0 c 0,-1.807 -0.323,-3.199 -0.968,-4.174 l 0,0 c -0.644,-0.977 -1.561,-1.466 -2.754,-1.466 l 0,0 c -1.416,0 -2.436,0.443 -3.061,1.327"
               style="fill:url(#linearGradient22045);stroke:none"
               id="path8192"
               inkscape:connector-curvature="0" />
          </g>
        </g>
      </g>
    </g>
    <g
       transform="matrix(1.25,0,0,-1.25,-1200.2672,3611.2329)"
       id="g8194">
      <g
         id="g8196"
         clip-path="url(#clipPath8198)">
        <g
           id="g8202">
          <g
             id="g8204">
            <path
               d="m 1026.452,2553.834 c -1.044,-0.239 -2.006,-0.586 -2.886,-1.045 l 0,0 1.114,-2.463 c 0.703,0.333 1.435,0.621 2.197,0.865 l 0,0 c 0.761,0.244 1.557,0.367 2.388,0.367 l 0,0 c 1.015,0 1.765,-0.256 2.247,-0.77 l 0,0 c 0.485,-0.512 0.726,-1.287 0.726,-2.322 l 0,0 0,-0.864 -2.798,-0.087 c -2.538,-0.078 -4.429,-0.543 -5.668,-1.392 l 0,0 c -1.241,-0.849 -1.86,-2.11 -1.86,-3.779 l 0,0 c 0,-1.573 0.446,-2.789 1.338,-3.647 l 0,0 c 0.895,-0.86 2.138,-1.29 3.729,-1.29 l 0,0 c 1.24,0 2.257,0.18 3.047,0.535 l 0,0 c 0.791,0.355 1.578,1.027 2.358,2.014 l 0,0 0.118,0 0.689,-2.257 2.46,0 0,10.914 c 0,1.924 -0.526,3.335 -1.574,4.233 l 0,0 c -1.051,0.899 -2.606,1.348 -4.666,1.348 l 0,0 c -0.928,0 -1.915,-0.12 -2.959,-0.36 m -0.322,-13.197 c -0.43,0.395 -0.645,0.955 -0.645,1.677 l 0,0 c 0,0.996 0.368,1.736 1.106,2.22 l 0,0 c 0.738,0.482 1.916,0.753 3.538,0.813 l 0,0 2.08,0.087 0,-1.406 c 0,-1.259 -0.38,-2.24 -1.136,-2.938 l 0,0 c -0.756,-0.698 -1.759,-1.046 -3.01,-1.046 l 0,0 c -0.859,0 -1.503,0.197 -1.933,0.593"
               style="fill:url(#linearGradient22047);stroke:none"
               id="path8218"
               inkscape:connector-curvature="0" />
          </g>
        </g>
      </g>
    </g>
    <g
       transform="matrix(1.25,0,0,-1.25,-1200.2672,3611.2329)"
       id="g8220">
      <g
         id="g8222"
         clip-path="url(#clipPath8224)">
        <g
           id="g8228">
          <g
             id="g8230">
            <path
               d="m 1054.621,2553.902 -3.633,-8.848 c -0.293,-0.782 -0.639,-1.899 -1.04,-3.356 l 0,0 -0.191,-0.702 c -0.507,2.09 -0.918,3.531 -1.23,4.322 l 0,0 -3.516,8.584 -4.555,0 0,-16.203 3.149,0 0,13.082 c 0.411,-1.592 0.86,-3.022 1.348,-4.292 l 0,0 3.545,-8.79 2.607,0 3.545,8.732 c 0.303,0.742 0.674,1.9 1.114,3.472 l 0,0 0.263,0.878 0,-13.082 3.178,0 0,16.203 -4.584,0 z"
               style="fill:url(#linearGradient22049);stroke:none"
               id="path8244"
               inkscape:connector-curvature="0" />
          </g>
        </g>
      </g>
    </g>
    <g
       transform="matrix(1.25,0,0,-1.25,-1200.2672,3611.2329)"
       id="g8246">
      <g
         id="g8248"
         clip-path="url(#clipPath8250)">
        <g
           id="g8254">
          <g
             id="g8256">
            <path
               d="m 1078.292,2553.902 -3.631,-8.848 c -0.293,-0.782 -0.641,-1.899 -1.04,-3.356 l 0,0 -0.191,-0.702 c -0.508,2.09 -0.918,3.531 -1.23,4.322 l 0,0 -3.516,8.584 -4.556,0 0,-16.203 3.149,0 0,13.082 c 0.41,-1.592 0.86,-3.022 1.348,-4.292 l 0,0 3.544,-8.79 2.609,0 3.545,8.732 c 0.302,0.742 0.674,1.9 1.113,3.472 l 0,0 0.263,0.878 0,-13.082 3.179,0 0,16.203 -4.586,0 z"
               style="fill:url(#linearGradient22051);stroke:none"
               id="path8270"
               inkscape:connector-curvature="0" />
          </g>
        </g>
      </g>
    </g>
    <g
       transform="matrix(1.25,0,0,-1.25,-1200.2672,3611.2329)"
       id="g8272">
      <g
         id="g8274"
         clip-path="url(#clipPath8276)">
        <g
           id="g8280">
          <g
             id="g8282">
            <path
               d="m 1103.723,2537.699 3.456,0 0,16.202 -3.456,0 0,-16.202 z m -15.923,16.203 0,-16.203 6.723,0 c 2.178,0 3.832,0.423 4.958,1.269 l 0,0 c 1.129,0.843 1.693,2.101 1.693,3.772 l 0,0 c 0,1.561 -0.541,2.733 -1.626,3.514 l 0,0 c -1.084,0.782 -2.759,1.173 -5.025,1.173 l 0,0 -3.281,0 0,6.475 -3.442,0 z m 3.442,-9.069 3.033,0 c 1.122,0 1.983,-0.16 2.586,-0.483 l 0,0 c 0.599,-0.322 0.899,-0.888 0.899,-1.699 l 0,0 c 0,-0.82 -0.306,-1.425 -0.922,-1.816 l 0,0 c -0.615,-0.391 -1.616,-0.586 -3.004,-0.586 l 0,0 -2.592,0 0,4.584 z"
               style="fill:url(#linearGradient22053);stroke:none"
               id="path8296"
               inkscape:connector-curvature="0" />
          </g>
        </g>
      </g>
    </g>
    <g
       transform="matrix(1.25,0,0,-1.25,-1200.2672,3611.2329)"
       id="g11164">
      <g
         id="g11166"
         clip-path="url(#clipPath11168)">
        <g
           id="g11172"
           transform="translate(690,2515.5)">
          <path
             d="M 0,0 822.284,0"
             style="fill:none;stroke:url(#linearGradient11174);stroke-width:3;stroke-linecap:butt;stroke-linejoin:miter;stroke-miterlimit:10;stroke-dasharray:none;stroke-opacity:1"
             id="path11186"
             inkscape:connector-curvature="0" />
        </g>
      </g>
    </g>
    <g
       transform="matrix(1.25,0,0,-1.25,-1200.2672,3611.2329)"
       id="g11188">
      <g
         id="g11190"
         clip-path="url(#clipPath11192)">
        <g
           id="g11196">
          <g
             id="g11198">
            <path
               d="m 1500.441,2515.499 c 0,-6.228 5.051,-11.279 11.279,-11.279 l 0,0 c 6.23,0 11.279,5.051 11.279,11.279 l 0,0 c 0,6.23 -5.049,11.28 -11.279,11.28 l 0,0 c -6.228,0 -11.279,-5.05 -11.279,-11.28"
               style="fill:url(#linearGradient11200);stroke:none"
               id="path11212"
               inkscape:connector-curvature="0" />
          </g>
        </g>
      </g>
    </g>
  </g>
</svg>
