<?xml version="1.0" encoding="UTF-8" standalone="no"?>
<!-- Created with Inkscape (http://www.inkscape.org/) -->

<svg
   xmlns:dc="http://purl.org/dc/elements/1.1/"
   xmlns:cc="http://creativecommons.org/ns#"
   xmlns:rdf="http://www.w3.org/1999/02/22-rdf-syntax-ns#"
   xmlns:svg="http://www.w3.org/2000/svg"
   xmlns="http://www.w3.org/2000/svg"
   xmlns:xlink="http://www.w3.org/1999/xlink"
   xmlns:sodipodi="http://sodipodi.sourceforge.net/DTD/sodipodi-0.dtd"
   xmlns:inkscape="http://www.inkscape.org/namespaces/inkscape"
   width="223.30869mm"
   height="24.737131mm"
   viewBox="0 0 791.25125 87.651252"
   id="svg20329"
   version="1.1"
   inkscape:version="0.91 r13725"
   sodipodi:docname="title.svg">
  <defs
     id="defs20331">
    <clipPath
       clipPathUnits="userSpaceOnUse"
       id="clipPath8890">
      <path
         d="m 538.868,5560.639 4.148,0 0,19.443 -4.148,0 0,-19.443 z m -19.108,19.443 0,-19.443 8.069,0 c 2.612,0 4.595,0.508 5.95,1.523 l 0,0 c 1.353,1.013 2.031,2.52 2.031,4.526 l 0,0 c 0,1.875 -0.653,3.28 -1.953,4.218 l 0,0 c -1.3,0.937 -3.31,1.407 -6.028,1.407 l 0,0 -3.939,0 0,7.769 -4.13,0 z m 4.13,-10.881 3.639,0 c 1.347,0 2.382,-0.193 3.103,-0.58 l 0,0 c 0.72,-0.386 1.08,-1.066 1.08,-2.038 l 0,0 c 0,-0.985 -0.368,-1.713 -1.105,-2.181 l 0,0 c -0.741,-0.47 -1.941,-0.702 -3.606,-0.702 l 0,0 -3.111,0 0,5.501 z"
         id="path8892"
         inkscape:connector-curvature="0" />
    </clipPath>
    <linearGradient
       x1="0"
       y1="0"
       x2="1"
       y2="0"
       gradientUnits="userSpaceOnUse"
       gradientTransform="matrix(-513.34479,0,0,513.34479,550.58093,5570.3613)"
       spreadMethod="pad"
       id="linearGradient8898">
      <stop
         style="stop-opacity:1;stop-color:#47c0b8"
         offset="0"
         id="stop8900" />
      <stop
         style="stop-opacity:1;stop-color:#47c0b8"
         offset="0.0393917"
         id="stop8902" />
      <stop
         style="stop-opacity:1;stop-color:#47d2b1"
         offset="0.348613"
         id="stop8904" />
      <stop
         style="stop-opacity:1;stop-color:#47d2b1"
         offset="0.4222168"
         id="stop8906" />
      <stop
         style="stop-opacity:1;stop-color:#12b56a"
         offset="1"
         id="stop8908" />
    </linearGradient>
    <clipPath
       clipPathUnits="userSpaceOnUse"
       id="clipPath8864">
      <path
         d="m 508.351,5580.082 -4.359,-10.617 c -0.352,-0.937 -0.767,-2.28 -1.247,-4.025 l 0,0 -0.23,-0.845 c -0.608,2.508 -1.1,4.238 -1.476,5.186 l 0,0 -4.218,10.301 -5.468,0 0,-19.443 3.781,0 0,15.697 c 0.492,-1.91 1.03,-3.625 1.615,-5.148 l 0,0 4.255,-10.549 3.128,0 4.254,10.477 c 0.365,0.892 0.81,2.28 1.337,4.168 l 0,0 0.315,1.052 0,-15.697 3.816,0 0,19.443 -5.503,0 z"
         id="path8866"
         inkscape:connector-curvature="0" />
    </clipPath>
    <clipPath
       clipPathUnits="userSpaceOnUse"
       id="clipPath8838">
      <path
         d="m 479.946,5580.082 -4.36,-10.617 c -0.35,-0.937 -0.768,-2.28 -1.248,-4.025 l 0,0 -0.228,-0.845 c -0.61,2.508 -1.102,4.238 -1.477,5.186 l 0,0 -4.219,10.301 -5.468,0 0,-19.443 3.781,0 0,15.697 c 0.492,-1.91 1.03,-3.625 1.617,-5.148 l 0,0 4.254,-10.549 3.128,0 4.255,10.477 c 0.363,0.892 0.808,2.28 1.335,4.168 l 0,0 0.318,1.052 0,-15.697 3.813,0 0,19.443 -5.501,0 z"
         id="path8840"
         inkscape:connector-curvature="0" />
    </clipPath>
    <clipPath
       clipPathUnits="userSpaceOnUse"
       id="clipPath8812">
      <path
         d="m 446.144,5580.002 c -1.256,-0.287 -2.411,-0.705 -3.463,-1.255 l 0,0 1.335,-2.955 c 0.842,0.399 1.722,0.745 2.635,1.037 l 0,0 c 0.915,0.293 1.87,0.44 2.866,0.44 l 0,0 c 1.22,0 2.12,-0.307 2.7,-0.922 l 0,0 c 0.58,-0.616 0.87,-1.546 0.87,-2.786 l 0,0 0,-1.038 -3.358,-0.105 c -3.048,-0.095 -5.316,-0.649 -6.803,-1.67 l 0,0 c -1.488,-1.02 -2.233,-2.533 -2.233,-4.536 l 0,0 c 0,-1.887 0.537,-3.345 1.61,-4.375 l 0,0 c 1.07,-1.033 2.563,-1.548 4.473,-1.548 l 0,0 c 1.488,0 2.706,0.212 3.656,0.64 l 0,0 c 0.95,0.43 1.892,1.236 2.83,2.418 l 0,0 0.14,0 0.825,-2.708 2.956,0 0,13.097 c 0,2.308 -0.63,4.001 -1.891,5.081 l 0,0 c -1.26,1.078 -3.125,1.615 -5.598,1.615 l 0,0 c -1.115,0 -2.298,-0.142 -3.55,-0.43 m -0.388,-15.837 c -0.515,0.475 -0.773,1.145 -0.773,2.013 l 0,0 c 0,1.195 0.443,2.082 1.326,2.662 l 0,0 c 0.885,0.58 2.3,0.906 4.245,0.975 l 0,0 2.496,0.105 0,-1.685 c 0,-1.512 -0.453,-2.688 -1.361,-3.525 l 0,0 c -0.91,-0.838 -2.112,-1.258 -3.613,-1.258 l 0,0 c -1.032,0 -1.805,0.237 -2.32,0.713"
         id="path8814"
         inkscape:connector-curvature="0" />
    </clipPath>
    <clipPath
       clipPathUnits="userSpaceOnUse"
       id="clipPath8786">
      <path
         d="m 423.765,5577.479 -0.21,0 c -0.292,1.373 -0.487,2.241 -0.58,2.603 l 0,0 -3.341,0 0,-28.089 4.131,0 0,7.961 c 0,0.353 -0.082,1.348 -0.245,2.988 l 0,0 0.245,0 c 1.36,-1.768 3.271,-2.653 5.731,-2.653 l 0,0 c 2.425,0 4.328,0.89 5.703,2.67 l 0,0 c 1.378,1.783 2.066,4.261 2.066,7.437 l 0,0 c 0,3.175 -0.675,5.643 -2.031,7.401 l 0,0 c -1.352,1.758 -3.243,2.635 -5.668,2.635 l 0,0 c -2.578,0 -4.511,-0.982 -5.801,-2.953 m 1.125,-12.224 c -0.75,1.06 -1.125,2.773 -1.125,5.141 l 0,0 0,0.615 c 0,2.11 0.378,3.645 1.135,4.606 l 0,0 c 0.755,0.962 1.953,1.442 3.593,1.442 l 0,0 c 1.491,0 2.618,-0.56 3.386,-1.68 l 0,0 c 0.767,-1.118 1.15,-2.768 1.15,-4.948 l 0,0 c 0,-2.168 -0.388,-3.838 -1.16,-5.009 l 0,0 c -0.773,-1.172 -1.875,-1.757 -3.306,-1.757 l 0,0 c -1.697,0 -2.923,0.53 -3.673,1.59"
         id="path8788"
         inkscape:connector-curvature="0" />
    </clipPath>
    <linearGradient
       x1="0"
       y1="0"
       x2="1"
       y2="0"
       gradientUnits="userSpaceOnUse"
       gradientTransform="matrix(-513.34479,0,0,513.34479,550.58093,5566.2129)"
       spreadMethod="pad"
       id="linearGradient8794">
      <stop
         style="stop-opacity:1;stop-color:#47c0b8"
         offset="0"
         id="stop8796" />
      <stop
         style="stop-opacity:1;stop-color:#47c0b8"
         offset="0.0393917"
         id="stop8798" />
      <stop
         style="stop-opacity:1;stop-color:#47d2b1"
         offset="0.348613"
         id="stop8800" />
      <stop
         style="stop-opacity:1;stop-color:#47d2b1"
         offset="0.4222168"
         id="stop8802" />
      <stop
         style="stop-opacity:1;stop-color:#12b56a"
         offset="1"
         id="stop8804" />
    </linearGradient>
    <clipPath
       clipPathUnits="userSpaceOnUse"
       id="clipPath8760">
      <path
         d="m 403.322,5580.082 0,-19.443 4.131,0 0,16.208 8.438,0 0,3.235 -12.569,0 z"
         id="path8762"
         inkscape:connector-curvature="0" />
    </clipPath>
    <clipPath
       clipPathUnits="userSpaceOnUse"
       id="clipPath8734">
      <path
         d="m 382.599,5577.779 c -1.618,-1.77 -2.428,-4.23 -2.428,-7.383 l 0,0 c 0,-2.028 0.375,-3.809 1.125,-5.344 l 0,0 c 0.75,-1.535 1.823,-2.713 3.218,-3.532 l 0,0 c 1.395,-0.821 3.001,-1.231 4.816,-1.231 l 0,0 c 2.905,0 5.173,0.89 6.803,2.67 l 0,0 c 1.628,1.783 2.443,4.261 2.443,7.437 l 0,0 c 0,3.07 -0.82,5.511 -2.46,7.321 l 0,0 c -1.64,1.81 -3.868,2.715 -6.681,2.715 l 0,0 c -2.941,0 -5.221,-0.882 -6.836,-2.653 m 1.828,-7.383 c 0,2.145 0.39,3.79 1.167,4.94 l 0,0 c 0.78,1.148 2.038,1.723 3.771,1.723 l 0,0 c 3.305,0 4.958,-2.22 4.958,-6.663 l 0,0 c 0,-4.488 -1.64,-6.731 -4.923,-6.731 l 0,0 c -3.316,0 -4.973,2.243 -4.973,6.731"
         id="path8736"
         inkscape:connector-curvature="0" />
    </clipPath>
    <clipPath
       clipPathUnits="userSpaceOnUse"
       id="clipPath8708">
      <path
         d="m 363.033,5577.479 -0.21,0 c -0.295,1.373 -0.487,2.241 -0.58,2.603 l 0,0 -3.34,0 0,-28.089 4.13,0 0,7.961 c 0,0.353 -0.082,1.348 -0.245,2.988 l 0,0 0.245,0 c 1.36,-1.768 3.271,-2.653 5.731,-2.653 l 0,0 c 2.426,0 4.326,0.89 5.704,2.67 l 0,0 c 1.377,1.783 2.065,4.261 2.065,7.437 l 0,0 c 0,3.175 -0.678,5.643 -2.03,7.401 l 0,0 c -1.353,1.758 -3.243,2.635 -5.669,2.635 l 0,0 c -2.578,0 -4.511,-0.982 -5.801,-2.953 m 1.125,-12.224 c -0.75,1.06 -1.125,2.773 -1.125,5.141 l 0,0 0,0.615 c 0,2.11 0.378,3.645 1.133,4.606 l 0,0 c 0.758,0.962 1.955,1.442 3.596,1.442 l 0,0 c 1.487,0 2.615,-0.56 3.383,-1.68 l 0,0 c 0.767,-1.118 1.152,-2.768 1.152,-4.948 l 0,0 c 0,-2.168 -0.387,-3.838 -1.16,-5.009 l 0,0 c -0.773,-1.172 -1.875,-1.757 -3.305,-1.757 l 0,0 c -1.698,0 -2.923,0.53 -3.674,1.59"
         id="path8710"
         inkscape:connector-curvature="0" />
    </clipPath>
    <clipPath
       clipPathUnits="userSpaceOnUse"
       id="clipPath8682">
      <path
         d="m 335.999,5580.082 0,-19.443 4.131,0 0,16.173 8.719,0 0,-16.173 4.148,0 0,19.443 -16.998,0 z"
         id="path8684"
         inkscape:connector-curvature="0" />
    </clipPath>
    <clipPath
       clipPathUnits="userSpaceOnUse"
       id="clipPath8656">
      <path
         d="m 306.45,5579.044 1.335,-3.075 c 1.958,0.843 3.873,1.265 5.748,1.265 l 0,0 c 2.813,0 4.218,-0.79 4.218,-2.373 l 0,0 c 0,-0.867 -0.445,-1.51 -1.335,-1.925 l 0,0 c -0.89,-0.415 -2.28,-0.623 -4.166,-0.623 l 0,0 -2.057,0 0,-3.112 2.373,0 c 1.887,0 3.283,-0.228 4.185,-0.685 l 0,0 c 0.9,-0.458 1.353,-1.173 1.353,-2.146 l 0,0 c 0,-0.948 -0.448,-1.655 -1.345,-2.118 l 0,0 c -0.895,-0.462 -2.171,-0.695 -3.823,-0.695 l 0,0 c -2.298,0 -4.519,0.505 -6.661,1.513 l 0,0 0,-3.568 c 1.615,-0.808 3.953,-1.213 7.013,-1.213 l 0,0 c 2.801,0 4.983,0.53 6.546,1.59 l 0,0 c 1.565,1.06 2.348,2.483 2.348,4.264 l 0,0 c 0,1.16 -0.338,2.132 -1.01,2.918 l 0,0 c -0.675,0.785 -1.79,1.387 -3.351,1.81 l 0,0 0,0.14 c 2.498,0.68 3.746,2.11 3.746,4.29 l 0,0 c 0,1.651 -0.668,2.921 -2.005,3.806 l 0,0 c -1.336,0.885 -3.211,1.325 -5.624,1.325 l 0,0 c -2.73,0 -5.228,-0.462 -7.488,-1.388"
         id="path8658"
         inkscape:connector-curvature="0" />
    </clipPath>
    <clipPath
       clipPathUnits="userSpaceOnUse"
       id="clipPath8630">
      <path
         d="M 297.028,5580.082 287.272,5565 c 0.187,2.25 0.28,3.956 0.28,5.116 l 0,0 0,9.966 -3.953,0 0,-19.443 5.043,0 9.721,15.048 c -0.047,-0.551 -0.102,-1.428 -0.167,-2.636 l 0,0 c -0.065,-1.208 -0.095,-2.08 -0.095,-2.62 l 0,0 0,-9.792 3.97,0 0,19.443 -5.043,0 z"
         id="path8632"
         inkscape:connector-curvature="0" />
    </clipPath>
    <clipPath
       clipPathUnits="userSpaceOnUse"
       id="clipPath8604">
      <path
         d="m 259.48,5580.082 c -2.273,0 -4.066,-0.52 -5.378,-1.555 l 0,0 c -1.313,-1.038 -1.968,-2.475 -1.968,-4.316 l 0,0 c 0,-1.43 0.375,-2.628 1.125,-3.595 l 0,0 c 0.75,-0.968 1.78,-1.638 3.093,-2.013 l 0,0 -5.413,-7.964 4.623,0 4.71,7.489 3.919,0 0,-7.489 4.148,0 0,19.443 -8.859,0 z m -2.188,-8.148 c -0.755,0.5 -1.133,1.245 -1.133,2.242 l 0,0 c 0,0.89 0.308,1.575 0.923,2.055 l 0,0 c 0.615,0.48 1.485,0.721 2.61,0.721 l 0,0 4.499,0 0,-5.764 -3.849,0 c -1.277,0 -2.295,0.248 -3.05,0.746"
         id="path8606"
         inkscape:connector-curvature="0" />
    </clipPath>
    <linearGradient
       x1="0"
       y1="0"
       x2="1"
       y2="0"
       gradientUnits="userSpaceOnUse"
       gradientTransform="matrix(-513.34497,0,0,513.34497,550.58099,5570.3613)"
       spreadMethod="pad"
       id="linearGradient8612">
      <stop
         style="stop-opacity:1;stop-color:#47c0b8"
         offset="0"
         id="stop8614" />
      <stop
         style="stop-opacity:1;stop-color:#47c0b8"
         offset="0.0393917"
         id="stop8616" />
      <stop
         style="stop-opacity:1;stop-color:#47d2b1"
         offset="0.348613"
         id="stop8618" />
      <stop
         style="stop-opacity:1;stop-color:#47d2b1"
         offset="0.4222168"
         id="stop8620" />
      <stop
         style="stop-opacity:1;stop-color:#12b56a"
         offset="1"
         id="stop8622" />
    </linearGradient>
    <clipPath
       clipPathUnits="userSpaceOnUse"
       id="clipPath8578">
      <path
         d="M 242.64,5580.082 232.886,5565 c 0.187,2.25 0.28,3.956 0.28,5.116 l 0,0 0,9.966 -3.956,0 0,-19.443 5.046,0 9.721,15.048 c -0.047,-0.551 -0.102,-1.428 -0.167,-2.636 l 0,0 c -0.065,-1.208 -0.098,-2.08 -0.098,-2.62 l 0,0 0,-9.792 3.974,0 0,19.443 -5.046,0 z"
         id="path8580"
         inkscape:connector-curvature="0" />
    </clipPath>
    <clipPath
       clipPathUnits="userSpaceOnUse"
       id="clipPath8552">
      <path
         d="m 219.174,5580.082 0,-7.806 -9.159,0 0,7.806 -4.131,0 0,-19.443 4.131,0 0,8.386 9.159,0 0,-8.386 4.13,0 0,19.443 -4.13,0 z"
         id="path8554"
         inkscape:connector-curvature="0" />
    </clipPath>
    <clipPath
       clipPathUnits="userSpaceOnUse"
       id="clipPath8526">
      <path
         d="m 186.356,5577.709 c -1.583,-1.817 -2.373,-4.313 -2.373,-7.488 l 0,0 c 0,-3.094 0.853,-5.524 2.558,-7.286 l 0,0 c 1.703,-1.763 4.068,-2.646 7.091,-2.646 l 0,0 c 1.325,0 2.503,0.1 3.533,0.298 l 0,0 c 1.033,0.2 2.051,0.54 3.061,1.02 l 0,0 0,3.358 c -1.138,-0.505 -2.201,-0.865 -3.191,-1.08 l 0,0 c -0.99,-0.218 -2.06,-0.328 -3.208,-0.328 l 0,0 c -1.747,0 -3.1,0.508 -4.06,1.523 l 0,0 c -0.963,1.012 -1.473,2.463 -1.531,4.351 l 0,0 12.955,0 0,2.23 c 0,2.73 -0.743,4.876 -2.233,6.433 l 0,0 c -1.488,1.561 -3.515,2.338 -6.081,2.338 l 0,0 c -2.765,0 -4.941,-0.908 -6.521,-2.723 m 3.366,-1.652 c 0.79,0.832 1.842,1.247 3.155,1.247 l 0,0 c 1.313,0 2.343,-0.412 3.093,-1.24 l 0,0 c 0.75,-0.825 1.138,-2.04 1.16,-3.646 l 0,0 -8.824,0 c 0.153,1.593 0.626,2.806 1.416,3.639"
         id="path8528"
         inkscape:connector-curvature="0" />
    </clipPath>
    <clipPath
       clipPathUnits="userSpaceOnUse"
       id="clipPath8500">
      <path
         d="m 175.104,5580.082 0,-8.349 c -1.087,-0.609 -2.107,-1.052 -3.058,-1.327 l 0,0 c -0.947,-0.275 -1.92,-0.413 -2.918,-0.413 l 0,0 c -2.062,0 -3.092,0.995 -3.092,2.988 l 0,0 0,7.101 -4.149,0 0,-7.278 c 0,-1.886 0.568,-3.353 1.706,-4.404 l 0,0 c 1.135,-1.047 2.718,-1.572 4.745,-1.572 l 0,0 c 1.253,0 2.411,0.167 3.471,0.5 l 0,0 c 1.06,0.335 2.16,0.852 3.295,1.557 l 0,0 0,-8.246 4.134,0 0,19.443 -4.134,0 z"
         id="path8502"
         inkscape:connector-curvature="0" />
    </clipPath>
    <clipPath
       clipPathUnits="userSpaceOnUse"
       id="clipPath8474">
      <path
         d="m 142.824,5578.29 c -1.517,-1.431 -2.422,-3.434 -2.717,-6.014 l 0,0 -4.324,0 0,7.806 -4.13,0 0,-19.443 4.13,0 0,8.386 4.289,0 c 0.247,-2.813 1.122,-4.97 2.627,-6.478 l 0,0 c 1.508,-1.505 3.538,-2.258 6.091,-2.258 l 0,0 c 2.778,0 4.944,0.888 6.496,2.663 l 0,0 c 1.553,1.776 2.328,4.256 2.328,7.444 l 0,0 c 0,3.07 -0.785,5.511 -2.355,7.321 l 0,0 c -1.57,1.81 -3.703,2.715 -6.399,2.715 l 0,0 c -2.508,0 -4.52,-0.712 -6.036,-2.142 m 2.531,-12.92 c -0.71,1.135 -1.063,2.81 -1.063,5.026 l 0,0 c 0,2.192 0.353,3.85 1.063,4.976 l 0,0 c 0.707,1.125 1.865,1.687 3.47,1.687 l 0,0 c 1.596,0 2.748,-0.562 3.463,-1.687 l 0,0 c 0.716,-1.126 1.073,-2.784 1.073,-4.976 l 0,0 c 0,-2.216 -0.357,-3.891 -1.073,-5.026 l 0,0 c -0.715,-1.138 -1.867,-1.705 -3.463,-1.705 l 0,0 c -1.605,0 -2.763,0.567 -3.47,1.705"
         id="path8476"
         inkscape:connector-curvature="0" />
    </clipPath>
    <clipPath
       clipPathUnits="userSpaceOnUse"
       id="clipPath8448">
      <path
         d="m 112.685,5580.082 c -0.385,-5.543 -0.923,-9.659 -1.608,-12.349 l 0,0 c -0.685,-2.688 -1.625,-4.033 -2.82,-4.033 l 0,0 c -0.435,0 -0.868,0.082 -1.303,0.245 l 0,0 0,-3.233 c 0.61,-0.26 1.365,-0.388 2.268,-0.388 l 0,0 c 1.43,0 2.593,0.54 3.49,1.618 l 0,0 c 0.895,1.078 1.623,2.788 2.181,5.133 l 0,0 c 0.555,2.343 0.997,5.601 1.325,9.772 l 0,0 5.363,0 0,-16.208 4.166,0 0,19.443 -13.062,0 z"
         id="path8450"
         inkscape:connector-curvature="0" />
    </clipPath>
    <linearGradient
       x1="0"
       y1="0"
       x2="1"
       y2="0"
       gradientUnits="userSpaceOnUse"
       gradientTransform="matrix(-513.34479,0,0,513.34479,550.58093,5570.2031)"
       spreadMethod="pad"
       id="linearGradient8456">
      <stop
         style="stop-opacity:1;stop-color:#47c0b8"
         offset="0"
         id="stop8458" />
      <stop
         style="stop-opacity:1;stop-color:#47c0b8"
         offset="0.0393917"
         id="stop8460" />
      <stop
         style="stop-opacity:1;stop-color:#47d2b1"
         offset="0.348613"
         id="stop8462" />
      <stop
         style="stop-opacity:1;stop-color:#47d2b1"
         offset="0.4222168"
         id="stop8464" />
      <stop
         style="stop-opacity:1;stop-color:#12b56a"
         offset="1"
         id="stop8466" />
    </linearGradient>
    <clipPath
       clipPathUnits="userSpaceOnUse"
       id="clipPath8422">
      <path
         d="m 101.348,5580.082 -7.929,-9.439 0,9.439 -4.13,0 0,-19.443 4.13,0 0,9.861 8.404,-9.861 4.746,0 -8.719,10.074 8.034,9.369 -4.536,0 z"
         id="path8424"
         inkscape:connector-curvature="0" />
    </clipPath>
    <clipPath
       clipPathUnits="userSpaceOnUse"
       id="clipPath8396">
      <path
         d="m 72.704,5577.797 c -1.601,-1.758 -2.398,-4.271 -2.398,-7.541 l 0,0 c 0,-3.211 0.762,-5.676 2.293,-7.391 l 0,0 c 1.53,-1.718 3.765,-2.576 6.706,-2.576 l 0,0 c 1.195,0 2.213,0.093 3.05,0.28 l 0,0 c 0.838,0.188 1.625,0.5 2.363,0.933 l 0,0 0,3.603 c -1.64,-0.913 -3.381,-1.37 -5.221,-1.37 l 0,0 c -1.615,0 -2.843,0.547 -3.68,1.642 l 0,0 c -0.84,1.096 -1.258,2.733 -1.258,4.914 l 0,0 c 0,4.465 1.68,6.698 5.046,6.698 l 0,0 c 1.135,0 2.578,-0.34 4.323,-1.02 l 0,0 1.248,3.321 c -1.641,0.762 -3.486,1.142 -5.536,1.142 l 0,0 c -3.026,0 -5.336,-0.877 -6.936,-2.635"
         id="path8398"
         inkscape:connector-curvature="0" />
    </clipPath>
    <clipPath
       clipPathUnits="userSpaceOnUse"
       id="clipPath8370">
      <path
         d="m 60.267,5586.341 -13.13,-20.481 -0.157,0 c 0.035,0.505 0.087,1.468 0.157,2.893 l 0,0 c 0.07,1.423 0.105,2.833 0.105,4.228 l 0,0 0,13.36 -3.85,0 0,-25.702 4.923,0 13.182,20.638 0.142,0 c -0.222,-2.895 -0.335,-5.356 -0.335,-7.383 l 0,0 0,-13.255 3.869,0 0,25.702 -4.906,0 z"
         id="path8372"
         inkscape:connector-curvature="0" />
    </clipPath>
    <linearGradient
       x1="0"
       y1="0"
       x2="1"
       y2="0"
       gradientUnits="userSpaceOnUse"
       gradientTransform="matrix(-513.34479,0,0,513.34479,550.58093,5573.4902)"
       spreadMethod="pad"
       id="linearGradient8378">
      <stop
         style="stop-opacity:1;stop-color:#47c0b8"
         offset="0"
         id="stop8380" />
      <stop
         style="stop-opacity:1;stop-color:#47c0b8"
         offset="0.0393917"
         id="stop8382" />
      <stop
         style="stop-opacity:1;stop-color:#47d2b1"
         offset="0.348613"
         id="stop8384" />
      <stop
         style="stop-opacity:1;stop-color:#47d2b1"
         offset="0.4222168"
         id="stop8386" />
      <stop
         style="stop-opacity:1;stop-color:#12b56a"
         offset="1"
         id="stop8388" />
    </linearGradient>
    <clipPath
       clipPathUnits="userSpaceOnUse"
       id="clipPath8344">
      <path
         d="m 652.44,5527.499 c 0,-6.228 5.051,-11.279 11.279,-11.279 l 0,0 c 6.231,0 11.282,5.051 11.282,11.279 l 0,0 c 0,6.229 -5.051,11.279 -11.282,11.279 l 0,0 c -6.228,0 -11.279,-5.05 -11.279,-11.279"
         id="path8346"
         inkscape:connector-curvature="0" />
    </clipPath>
    <linearGradient
       x1="0"
       y1="0"
       x2="1"
       y2="0"
       gradientUnits="userSpaceOnUse"
       gradientTransform="matrix(-633,0,0,633,674.99988,5527.5)"
       spreadMethod="pad"
       id="linearGradient8352">
      <stop
         style="stop-opacity:1;stop-color:#47c0b8"
         offset="0"
         id="stop8354" />
      <stop
         style="stop-opacity:1;stop-color:#47c0b8"
         offset="0.0393917"
         id="stop8356" />
      <stop
         style="stop-opacity:1;stop-color:#47d2b1"
         offset="0.348613"
         id="stop8358" />
      <stop
         style="stop-opacity:1;stop-color:#47d2b1"
         offset="0.4222168"
         id="stop8360" />
      <stop
         style="stop-opacity:1;stop-color:#12b56a"
         offset="1"
         id="stop8362" />
    </linearGradient>
    <linearGradient
       x1="0"
       y1="0"
       x2="1"
       y2="0"
       gradientUnits="userSpaceOnUse"
       gradientTransform="matrix(-791.25,0,0,791.25,742.2653,-10168.329)"
       spreadMethod="pad"
       id="linearGradient8326">
      <stop
         style="stop-opacity:1;stop-color:#47c0b8"
         offset="0"
         id="stop8328" />
      <stop
         style="stop-opacity:1;stop-color:#47c0b8"
         offset="0.0393917"
         id="stop8330" />
      <stop
         style="stop-opacity:1;stop-color:#47d2b1"
         offset="0.348613"
         id="stop8332" />
      <stop
         style="stop-opacity:1;stop-color:#47d2b1"
         offset="0.4222168"
         id="stop8334" />
      <stop
         style="stop-opacity:1;stop-color:#12b56a"
         offset="1"
         id="stop8336" />
    </linearGradient>
    <linearGradient
       inkscape:collect="always"
       xlink:href="#linearGradient8898"
       id="linearGradient20831"
       gradientUnits="userSpaceOnUse"
       gradientTransform="matrix(-513.34479,0,0,513.34479,550.58093,5570.3613)"
       spreadMethod="pad"
       x1="0"
       y1="0"
       x2="1"
       y2="0" />
    <linearGradient
       inkscape:collect="always"
       xlink:href="#linearGradient8898"
       id="linearGradient20833"
       gradientUnits="userSpaceOnUse"
       gradientTransform="matrix(-513.34479,0,0,513.34479,550.58093,5570.3613)"
       spreadMethod="pad"
       x1="0"
       y1="0"
       x2="1"
       y2="0" />
    <linearGradient
       inkscape:collect="always"
       xlink:href="#linearGradient8898"
       id="linearGradient20835"
       gradientUnits="userSpaceOnUse"
       gradientTransform="matrix(-513.34479,0,0,513.34479,550.58093,5570.3613)"
       spreadMethod="pad"
       x1="0"
       y1="0"
       x2="1"
       y2="0" />
    <linearGradient
       inkscape:collect="always"
       xlink:href="#linearGradient8898"
       id="linearGradient20837"
       gradientUnits="userSpaceOnUse"
       gradientTransform="matrix(-513.34479,0,0,513.34479,550.58093,5570.3613)"
       spreadMethod="pad"
       x1="0"
       y1="0"
       x2="1"
       y2="0" />
    <linearGradient
       inkscape:collect="always"
       xlink:href="#linearGradient8898"
       id="linearGradient20839"
       gradientUnits="userSpaceOnUse"
       gradientTransform="matrix(-513.34479,0,0,513.34479,550.58093,5570.3613)"
       spreadMethod="pad"
       x1="0"
       y1="0"
       x2="1"
       y2="0" />
    <linearGradient
       inkscape:collect="always"
       xlink:href="#linearGradient8898"
       id="linearGradient20841"
       gradientUnits="userSpaceOnUse"
       gradientTransform="matrix(-513.34479,0,0,513.34479,550.58093,5570.3613)"
       spreadMethod="pad"
       x1="0"
       y1="0"
       x2="1"
       y2="0" />
    <linearGradient
       inkscape:collect="always"
       xlink:href="#linearGradient8898"
       id="linearGradient20843"
       gradientUnits="userSpaceOnUse"
       gradientTransform="matrix(-513.34479,0,0,513.34479,550.58093,5570.3613)"
       spreadMethod="pad"
       x1="0"
       y1="0"
       x2="1"
       y2="0" />
    <linearGradient
       inkscape:collect="always"
       xlink:href="#linearGradient8898"
       id="linearGradient20845"
       gradientUnits="userSpaceOnUse"
       gradientTransform="matrix(-513.34479,0,0,513.34479,550.58093,5570.3613)"
       spreadMethod="pad"
       x1="0"
       y1="0"
       x2="1"
       y2="0" />
    <linearGradient
       inkscape:collect="always"
       xlink:href="#linearGradient8898"
       id="linearGradient20847"
       gradientUnits="userSpaceOnUse"
       gradientTransform="matrix(-513.34479,0,0,513.34479,550.58093,5570.3613)"
       spreadMethod="pad"
       x1="0"
       y1="0"
       x2="1"
       y2="0" />
    <linearGradient
       inkscape:collect="always"
       xlink:href="#linearGradient8898"
       id="linearGradient20849"
       gradientUnits="userSpaceOnUse"
       gradientTransform="matrix(-513.34479,0,0,513.34479,550.58093,5570.3613)"
       spreadMethod="pad"
       x1="0"
       y1="0"
       x2="1"
       y2="0" />
    <linearGradient
       inkscape:collect="always"
       xlink:href="#linearGradient8794"
       id="linearGradient20851"
       gradientUnits="userSpaceOnUse"
       gradientTransform="matrix(-513.34479,0,0,513.34479,550.58093,5566.2129)"
       spreadMethod="pad"
       x1="0"
       y1="0"
       x2="1"
       y2="0" />
    <linearGradient
       inkscape:collect="always"
       xlink:href="#linearGradient8898"
       id="linearGradient20853"
       gradientUnits="userSpaceOnUse"
       gradientTransform="matrix(-513.34479,0,0,513.34479,550.58093,5570.3613)"
       spreadMethod="pad"
       x1="0"
       y1="0"
       x2="1"
       y2="0" />
    <linearGradient
       inkscape:collect="always"
       xlink:href="#linearGradient8898"
       id="linearGradient20855"
       gradientUnits="userSpaceOnUse"
       gradientTransform="matrix(-513.34479,0,0,513.34479,550.58093,5570.3613)"
       spreadMethod="pad"
       x1="0"
       y1="0"
       x2="1"
       y2="0" />
    <linearGradient
       inkscape:collect="always"
       xlink:href="#linearGradient8794"
       id="linearGradient20857"
       gradientUnits="userSpaceOnUse"
       gradientTransform="matrix(-513.34479,0,0,513.34479,550.58093,5566.2129)"
       spreadMethod="pad"
       x1="0"
       y1="0"
       x2="1"
       y2="0" />
    <linearGradient
       inkscape:collect="always"
       xlink:href="#linearGradient8898"
       id="linearGradient20859"
       gradientUnits="userSpaceOnUse"
       gradientTransform="matrix(-513.34479,0,0,513.34479,550.58093,5570.3613)"
       spreadMethod="pad"
       x1="0"
       y1="0"
       x2="1"
       y2="0" />
    <linearGradient
       inkscape:collect="always"
       xlink:href="#linearGradient8898"
       id="linearGradient20861"
       gradientUnits="userSpaceOnUse"
       gradientTransform="matrix(-513.34479,0,0,513.34479,550.58093,5570.3613)"
       spreadMethod="pad"
       x1="0"
       y1="0"
       x2="1"
       y2="0" />
    <linearGradient
       inkscape:collect="always"
       xlink:href="#linearGradient8898"
       id="linearGradient20863"
       gradientUnits="userSpaceOnUse"
       gradientTransform="matrix(-513.34479,0,0,513.34479,550.58093,5570.3613)"
       spreadMethod="pad"
       x1="0"
       y1="0"
       x2="1"
       y2="0" />
    <linearGradient
       inkscape:collect="always"
       xlink:href="#linearGradient8898"
       id="linearGradient20865"
       gradientUnits="userSpaceOnUse"
       gradientTransform="matrix(-513.34479,0,0,513.34479,550.58093,5570.3613)"
       spreadMethod="pad"
       x1="0"
       y1="0"
       x2="1"
       y2="0" />
  </defs>
  <sodipodi:namedview
     id="base"
     pagecolor="#ffffff"
     bordercolor="#666666"
     borderopacity="1.0"
     inkscape:pageopacity="0.0"
     inkscape:pageshadow="2"
     inkscape:zoom="0.35"
     inkscape:cx="422.0542"
     inkscape:cy="86.682795"
     inkscape:document-units="px"
     inkscape:current-layer="layer1"
     showgrid="false"
     fit-margin-top="0"
     fit-margin-left="0"
     fit-margin-right="0"
     fit-margin-bottom="0"
     inkscape:window-width="1366"
     inkscape:window-height="718"
     inkscape:window-x="0"
     inkscape:window-y="24"
     inkscape:window-maximized="1" />
  <metadata
     id="metadata20334">
    <rdf:RDF>
      <cc:Work
         rdf:about="">
        <dc:format>image/svg+xml</dc:format>
        <dc:type
           rdf:resource="http://purl.org/dc/dcmitype/StillImage" />
        <dc:title></dc:title>
      </cc:Work>
    </rdf:RDF>
  </metadata>
  <g
     inkscape:label="Layer 1"
     inkscape:groupmode="layer"
     id="layer1"
     transform="translate(47.054196,-531.39375)">
    <path
       d="m -47.054196,604.94492 777.854996,0"
       style="fill:none;stroke:url(#linearGradient8326);stroke-width:3.75;stroke-linecap:butt;stroke-linejoin:miter;stroke-miterlimit:10;stroke-dasharray:none;stroke-opacity:1"
       id="path8338"
       inkscape:connector-curvature="0" />
    <g
       transform="matrix(1.25,0,0,-1.25,-99.554196,7514.32)"
       id="g8340">
      <g
         id="g8342"
         clip-path="url(#clipPath8344)">
        <g
           id="g8348">
          <g
             id="g8350">
            <path
               d="m 652.44,5527.499 c 0,-6.228 5.051,-11.279 11.279,-11.279 l 0,0 c 6.231,0 11.282,5.051 11.282,11.279 l 0,0 c 0,6.229 -5.051,11.279 -11.282,11.279 l 0,0 c -6.228,0 -11.279,-5.05 -11.279,-11.279"
               style="fill:url(#linearGradient8352);stroke:none"
               id="path8364"
               inkscape:connector-curvature="0" />
          </g>
        </g>
      </g>
    </g>
    <g
       transform="matrix(1.25,0,0,-1.25,-99.554196,7514.32)"
       id="g8366">
      <g
         id="g8368"
         clip-path="url(#clipPath8370)">
        <g
           id="g8374">
          <g
             id="g8376">
            <path
               d="m 60.267,5586.341 -13.13,-20.481 -0.157,0 c 0.035,0.505 0.087,1.468 0.157,2.893 l 0,0 c 0.07,1.423 0.105,2.833 0.105,4.228 l 0,0 0,13.36 -3.85,0 0,-25.702 4.923,0 13.182,20.638 0.142,0 c -0.222,-2.895 -0.335,-5.356 -0.335,-7.383 l 0,0 0,-13.255 3.869,0 0,25.702 -4.906,0 z"
               style="fill:url(#linearGradient8378);stroke:none"
               id="path8390"
               inkscape:connector-curvature="0" />
          </g>
        </g>
      </g>
    </g>
    <g
       transform="matrix(1.25,0,0,-1.25,-99.554196,7514.32)"
       id="g8392">
      <g
         id="g8394"
         clip-path="url(#clipPath8396)">
        <g
           id="g8400">
          <g
             id="g8402">
            <path
               d="m 72.704,5577.797 c -1.601,-1.758 -2.398,-4.271 -2.398,-7.541 l 0,0 c 0,-3.211 0.762,-5.676 2.293,-7.391 l 0,0 c 1.53,-1.718 3.765,-2.576 6.706,-2.576 l 0,0 c 1.195,0 2.213,0.093 3.05,0.28 l 0,0 c 0.838,0.188 1.625,0.5 2.363,0.933 l 0,0 0,3.603 c -1.64,-0.913 -3.381,-1.37 -5.221,-1.37 l 0,0 c -1.615,0 -2.843,0.547 -3.68,1.642 l 0,0 c -0.84,1.096 -1.258,2.733 -1.258,4.914 l 0,0 c 0,4.465 1.68,6.698 5.046,6.698 l 0,0 c 1.135,0 2.578,-0.34 4.323,-1.02 l 0,0 1.248,3.321 c -1.641,0.762 -3.486,1.142 -5.536,1.142 l 0,0 c -3.026,0 -5.336,-0.877 -6.936,-2.635"
               style="fill:url(#linearGradient20831);stroke:none"
               id="path8416"
               inkscape:connector-curvature="0" />
          </g>
        </g>
      </g>
    </g>
    <g
       transform="matrix(1.25,0,0,-1.25,-99.554196,7514.32)"
       id="g8418">
      <g
         id="g8420"
         clip-path="url(#clipPath8422)">
        <g
           id="g8426">
          <g
             id="g8428">
            <path
               d="m 101.348,5580.082 -7.929,-9.439 0,9.439 -4.13,0 0,-19.443 4.13,0 0,9.861 8.404,-9.861 4.746,0 -8.719,10.074 8.034,9.369 -4.536,0 z"
               style="fill:url(#linearGradient20833);stroke:none"
               id="path8442"
               inkscape:connector-curvature="0" />
          </g>
        </g>
      </g>
    </g>
    <g
       transform="matrix(1.25,0,0,-1.25,-99.554196,7514.32)"
       id="g8444">
      <g
         id="g8446"
         clip-path="url(#clipPath8448)">
        <g
           id="g8452">
          <g
             id="g8454">
            <path
               d="m 112.685,5580.082 c -0.385,-5.543 -0.923,-9.659 -1.608,-12.349 l 0,0 c -0.685,-2.688 -1.625,-4.033 -2.82,-4.033 l 0,0 c -0.435,0 -0.868,0.082 -1.303,0.245 l 0,0 0,-3.233 c 0.61,-0.26 1.365,-0.388 2.268,-0.388 l 0,0 c 1.43,0 2.593,0.54 3.49,1.618 l 0,0 c 0.895,1.078 1.623,2.788 2.181,5.133 l 0,0 c 0.555,2.343 0.997,5.601 1.325,9.772 l 0,0 5.363,0 0,-16.208 4.166,0 0,19.443 -13.062,0 z"
               style="fill:url(#linearGradient8456);stroke:none"
               id="path8468"
               inkscape:connector-curvature="0" />
          </g>
        </g>
      </g>
    </g>
    <g
       transform="matrix(1.25,0,0,-1.25,-99.554196,7514.32)"
       id="g8470">
      <g
         id="g8472"
         clip-path="url(#clipPath8474)">
        <g
           id="g8478">
          <g
             id="g8480">
            <path
               d="m 142.824,5578.29 c -1.517,-1.431 -2.422,-3.434 -2.717,-6.014 l 0,0 -4.324,0 0,7.806 -4.13,0 0,-19.443 4.13,0 0,8.386 4.289,0 c 0.247,-2.813 1.122,-4.97 2.627,-6.478 l 0,0 c 1.508,-1.505 3.538,-2.258 6.091,-2.258 l 0,0 c 2.778,0 4.944,0.888 6.496,2.663 l 0,0 c 1.553,1.776 2.328,4.256 2.328,7.444 l 0,0 c 0,3.07 -0.785,5.511 -2.355,7.321 l 0,0 c -1.57,1.81 -3.703,2.715 -6.399,2.715 l 0,0 c -2.508,0 -4.52,-0.712 -6.036,-2.142 m 2.531,-12.92 c -0.71,1.135 -1.063,2.81 -1.063,5.026 l 0,0 c 0,2.192 0.353,3.85 1.063,4.976 l 0,0 c 0.707,1.125 1.865,1.687 3.47,1.687 l 0,0 c 1.596,0 2.748,-0.562 3.463,-1.687 l 0,0 c 0.716,-1.126 1.073,-2.784 1.073,-4.976 l 0,0 c 0,-2.216 -0.357,-3.891 -1.073,-5.026 l 0,0 c -0.715,-1.138 -1.867,-1.705 -3.463,-1.705 l 0,0 c -1.605,0 -2.763,0.567 -3.47,1.705"
               style="fill:url(#linearGradient20835);stroke:none"
               id="path8494"
               inkscape:connector-curvature="0" />
          </g>
        </g>
      </g>
    </g>
    <g
       transform="matrix(1.25,0,0,-1.25,-99.554196,7514.32)"
       id="g8496">
      <g
         id="g8498"
         clip-path="url(#clipPath8500)">
        <g
           id="g8504">
          <g
             id="g8506">
            <path
               d="m 175.104,5580.082 0,-8.349 c -1.087,-0.609 -2.107,-1.052 -3.058,-1.327 l 0,0 c -0.947,-0.275 -1.92,-0.413 -2.918,-0.413 l 0,0 c -2.062,0 -3.092,0.995 -3.092,2.988 l 0,0 0,7.101 -4.149,0 0,-7.278 c 0,-1.886 0.568,-3.353 1.706,-4.404 l 0,0 c 1.135,-1.047 2.718,-1.572 4.745,-1.572 l 0,0 c 1.253,0 2.411,0.167 3.471,0.5 l 0,0 c 1.06,0.335 2.16,0.852 3.295,1.557 l 0,0 0,-8.246 4.134,0 0,19.443 -4.134,0 z"
               style="fill:url(#linearGradient20837);stroke:none"
               id="path8520"
               inkscape:connector-curvature="0" />
          </g>
        </g>
      </g>
    </g>
    <g
       transform="matrix(1.25,0,0,-1.25,-99.554196,7514.32)"
       id="g8522">
      <g
         id="g8524"
         clip-path="url(#clipPath8526)">
        <g
           id="g8530">
          <g
             id="g8532">
            <path
               d="m 186.356,5577.709 c -1.583,-1.817 -2.373,-4.313 -2.373,-7.488 l 0,0 c 0,-3.094 0.853,-5.524 2.558,-7.286 l 0,0 c 1.703,-1.763 4.068,-2.646 7.091,-2.646 l 0,0 c 1.325,0 2.503,0.1 3.533,0.298 l 0,0 c 1.033,0.2 2.051,0.54 3.061,1.02 l 0,0 0,3.358 c -1.138,-0.505 -2.201,-0.865 -3.191,-1.08 l 0,0 c -0.99,-0.218 -2.06,-0.328 -3.208,-0.328 l 0,0 c -1.747,0 -3.1,0.508 -4.06,1.523 l 0,0 c -0.963,1.012 -1.473,2.463 -1.531,4.351 l 0,0 12.955,0 0,2.23 c 0,2.73 -0.743,4.876 -2.233,6.433 l 0,0 c -1.488,1.561 -3.515,2.338 -6.081,2.338 l 0,0 c -2.765,0 -4.941,-0.908 -6.521,-2.723 m 3.366,-1.652 c 0.79,0.832 1.842,1.247 3.155,1.247 l 0,0 c 1.313,0 2.343,-0.412 3.093,-1.24 l 0,0 c 0.75,-0.825 1.138,-2.04 1.16,-3.646 l 0,0 -8.824,0 c 0.153,1.593 0.626,2.806 1.416,3.639"
               style="fill:url(#linearGradient20839);stroke:none"
               id="path8546"
               inkscape:connector-curvature="0" />
          </g>
        </g>
      </g>
    </g>
    <g
       transform="matrix(1.25,0,0,-1.25,-99.554196,7514.32)"
       id="g8548">
      <g
         id="g8550"
         clip-path="url(#clipPath8552)">
        <g
           id="g8556">
          <g
             id="g8558">
            <path
               d="m 219.174,5580.082 0,-7.806 -9.159,0 0,7.806 -4.131,0 0,-19.443 4.131,0 0,8.386 9.159,0 0,-8.386 4.13,0 0,19.443 -4.13,0 z"
               style="fill:url(#linearGradient20841);stroke:none"
               id="path8572"
               inkscape:connector-curvature="0" />
          </g>
        </g>
      </g>
    </g>
    <g
       transform="matrix(1.25,0,0,-1.25,-99.554196,7514.32)"
       id="g8574">
      <g
         id="g8576"
         clip-path="url(#clipPath8578)">
        <g
           id="g8582">
          <g
             id="g8584">
            <path
               d="M 242.64,5580.082 232.886,5565 c 0.187,2.25 0.28,3.956 0.28,5.116 l 0,0 0,9.966 -3.956,0 0,-19.443 5.046,0 9.721,15.048 c -0.047,-0.551 -0.102,-1.428 -0.167,-2.636 l 0,0 c -0.065,-1.208 -0.098,-2.08 -0.098,-2.62 l 0,0 0,-9.792 3.974,0 0,19.443 -5.046,0 z"
               style="fill:url(#linearGradient20843);stroke:none"
               id="path8598"
               inkscape:connector-curvature="0" />
          </g>
        </g>
      </g>
    </g>
    <g
       transform="matrix(1.25,0,0,-1.25,-99.554196,7514.32)"
       id="g8600">
      <g
         id="g8602"
         clip-path="url(#clipPath8604)">
        <g
           id="g8608">
          <g
             id="g8610">
            <path
               d="m 259.48,5580.082 c -2.273,0 -4.066,-0.52 -5.378,-1.555 l 0,0 c -1.313,-1.038 -1.968,-2.475 -1.968,-4.316 l 0,0 c 0,-1.43 0.375,-2.628 1.125,-3.595 l 0,0 c 0.75,-0.968 1.78,-1.638 3.093,-2.013 l 0,0 -5.413,-7.964 4.623,0 4.71,7.489 3.919,0 0,-7.489 4.148,0 0,19.443 -8.859,0 z m -2.188,-8.148 c -0.755,0.5 -1.133,1.245 -1.133,2.242 l 0,0 c 0,0.89 0.308,1.575 0.923,2.055 l 0,0 c 0.615,0.48 1.485,0.721 2.61,0.721 l 0,0 4.499,0 0,-5.764 -3.849,0 c -1.277,0 -2.295,0.248 -3.05,0.746"
               style="fill:url(#linearGradient8612);stroke:none"
               id="path8624"
               inkscape:connector-curvature="0" />
          </g>
        </g>
      </g>
    </g>
    <g
       transform="matrix(1.25,0,0,-1.25,-99.554196,7514.32)"
       id="g8626">
      <g
         id="g8628"
         clip-path="url(#clipPath8630)">
        <g
           id="g8634">
          <g
             id="g8636">
            <path
               d="M 297.028,5580.082 287.272,5565 c 0.187,2.25 0.28,3.956 0.28,5.116 l 0,0 0,9.966 -3.953,0 0,-19.443 5.043,0 9.721,15.048 c -0.047,-0.551 -0.102,-1.428 -0.167,-2.636 l 0,0 c -0.065,-1.208 -0.095,-2.08 -0.095,-2.62 l 0,0 0,-9.792 3.97,0 0,19.443 -5.043,0 z"
               style="fill:url(#linearGradient20845);stroke:none"
               id="path8650"
               inkscape:connector-curvature="0" />
          </g>
        </g>
      </g>
    </g>
    <g
       transform="matrix(1.25,0,0,-1.25,-99.554196,7514.32)"
       id="g8652">
      <g
         id="g8654"
         clip-path="url(#clipPath8656)">
        <g
           id="g8660">
          <g
             id="g8662">
            <path
               d="m 306.45,5579.044 1.335,-3.075 c 1.958,0.843 3.873,1.265 5.748,1.265 l 0,0 c 2.813,0 4.218,-0.79 4.218,-2.373 l 0,0 c 0,-0.867 -0.445,-1.51 -1.335,-1.925 l 0,0 c -0.89,-0.415 -2.28,-0.623 -4.166,-0.623 l 0,0 -2.057,0 0,-3.112 2.373,0 c 1.887,0 3.283,-0.228 4.185,-0.685 l 0,0 c 0.9,-0.458 1.353,-1.173 1.353,-2.146 l 0,0 c 0,-0.948 -0.448,-1.655 -1.345,-2.118 l 0,0 c -0.895,-0.462 -2.171,-0.695 -3.823,-0.695 l 0,0 c -2.298,0 -4.519,0.505 -6.661,1.513 l 0,0 0,-3.568 c 1.615,-0.808 3.953,-1.213 7.013,-1.213 l 0,0 c 2.801,0 4.983,0.53 6.546,1.59 l 0,0 c 1.565,1.06 2.348,2.483 2.348,4.264 l 0,0 c 0,1.16 -0.338,2.132 -1.01,2.918 l 0,0 c -0.675,0.785 -1.79,1.387 -3.351,1.81 l 0,0 0,0.14 c 2.498,0.68 3.746,2.11 3.746,4.29 l 0,0 c 0,1.651 -0.668,2.921 -2.005,3.806 l 0,0 c -1.336,0.885 -3.211,1.325 -5.624,1.325 l 0,0 c -2.73,0 -5.228,-0.462 -7.488,-1.388"
               style="fill:url(#linearGradient20847);stroke:none"
               id="path8676"
               inkscape:connector-curvature="0" />
          </g>
        </g>
      </g>
    </g>
    <g
       transform="matrix(1.25,0,0,-1.25,-99.554196,7514.32)"
       id="g8678">
      <g
         id="g8680"
         clip-path="url(#clipPath8682)">
        <g
           id="g8686">
          <g
             id="g8688">
            <path
               d="m 335.999,5580.082 0,-19.443 4.131,0 0,16.173 8.719,0 0,-16.173 4.148,0 0,19.443 -16.998,0 z"
               style="fill:url(#linearGradient20849);stroke:none"
               id="path8702"
               inkscape:connector-curvature="0" />
          </g>
        </g>
      </g>
    </g>
    <g
       transform="matrix(1.25,0,0,-1.25,-99.554196,7514.32)"
       id="g8704">
      <g
         id="g8706"
         clip-path="url(#clipPath8708)">
        <g
           id="g8712">
          <g
             id="g8714">
            <path
               d="m 363.033,5577.479 -0.21,0 c -0.295,1.373 -0.487,2.241 -0.58,2.603 l 0,0 -3.34,0 0,-28.089 4.13,0 0,7.961 c 0,0.353 -0.082,1.348 -0.245,2.988 l 0,0 0.245,0 c 1.36,-1.768 3.271,-2.653 5.731,-2.653 l 0,0 c 2.426,0 4.326,0.89 5.704,2.67 l 0,0 c 1.377,1.783 2.065,4.261 2.065,7.437 l 0,0 c 0,3.175 -0.678,5.643 -2.03,7.401 l 0,0 c -1.353,1.758 -3.243,2.635 -5.669,2.635 l 0,0 c -2.578,0 -4.511,-0.982 -5.801,-2.953 m 1.125,-12.224 c -0.75,1.06 -1.125,2.773 -1.125,5.141 l 0,0 0,0.615 c 0,2.11 0.378,3.645 1.133,4.606 l 0,0 c 0.758,0.962 1.955,1.442 3.596,1.442 l 0,0 c 1.487,0 2.615,-0.56 3.383,-1.68 l 0,0 c 0.767,-1.118 1.152,-2.768 1.152,-4.948 l 0,0 c 0,-2.168 -0.387,-3.838 -1.16,-5.009 l 0,0 c -0.773,-1.172 -1.875,-1.757 -3.305,-1.757 l 0,0 c -1.698,0 -2.923,0.53 -3.674,1.59"
               style="fill:url(#linearGradient20851);stroke:none"
               id="path8728"
               inkscape:connector-curvature="0" />
          </g>
        </g>
      </g>
    </g>
    <g
       transform="matrix(1.25,0,0,-1.25,-99.554196,7514.32)"
       id="g8730">
      <g
         id="g8732"
         clip-path="url(#clipPath8734)">
        <g
           id="g8738">
          <g
             id="g8740">
            <path
               d="m 382.599,5577.779 c -1.618,-1.77 -2.428,-4.23 -2.428,-7.383 l 0,0 c 0,-2.028 0.375,-3.809 1.125,-5.344 l 0,0 c 0.75,-1.535 1.823,-2.713 3.218,-3.532 l 0,0 c 1.395,-0.821 3.001,-1.231 4.816,-1.231 l 0,0 c 2.905,0 5.173,0.89 6.803,2.67 l 0,0 c 1.628,1.783 2.443,4.261 2.443,7.437 l 0,0 c 0,3.07 -0.82,5.511 -2.46,7.321 l 0,0 c -1.64,1.81 -3.868,2.715 -6.681,2.715 l 0,0 c -2.941,0 -5.221,-0.882 -6.836,-2.653 m 1.828,-7.383 c 0,2.145 0.39,3.79 1.167,4.94 l 0,0 c 0.78,1.148 2.038,1.723 3.771,1.723 l 0,0 c 3.305,0 4.958,-2.22 4.958,-6.663 l 0,0 c 0,-4.488 -1.64,-6.731 -4.923,-6.731 l 0,0 c -3.316,0 -4.973,2.243 -4.973,6.731"
               style="fill:url(#linearGradient20853);stroke:none"
               id="path8754"
               inkscape:connector-curvature="0" />
          </g>
        </g>
      </g>
    </g>
    <g
       transform="matrix(1.25,0,0,-1.25,-99.554196,7514.32)"
       id="g8756">
      <g
         id="g8758"
         clip-path="url(#clipPath8760)">
        <g
           id="g8764">
          <g
             id="g8766">
            <path
               d="m 403.322,5580.082 0,-19.443 4.131,0 0,16.208 8.438,0 0,3.235 -12.569,0 z"
               style="fill:url(#linearGradient20855);stroke:none"
               id="path8780"
               inkscape:connector-curvature="0" />
          </g>
        </g>
      </g>
    </g>
    <g
       transform="matrix(1.25,0,0,-1.25,-99.554196,7514.32)"
       id="g8782">
      <g
         id="g8784"
         clip-path="url(#clipPath8786)">
        <g
           id="g8790">
          <g
             id="g8792">
            <path
               d="m 423.765,5577.479 -0.21,0 c -0.292,1.373 -0.487,2.241 -0.58,2.603 l 0,0 -3.341,0 0,-28.089 4.131,0 0,7.961 c 0,0.353 -0.082,1.348 -0.245,2.988 l 0,0 0.245,0 c 1.36,-1.768 3.271,-2.653 5.731,-2.653 l 0,0 c 2.425,0 4.328,0.89 5.703,2.67 l 0,0 c 1.378,1.783 2.066,4.261 2.066,7.437 l 0,0 c 0,3.175 -0.675,5.643 -2.031,7.401 l 0,0 c -1.352,1.758 -3.243,2.635 -5.668,2.635 l 0,0 c -2.578,0 -4.511,-0.982 -5.801,-2.953 m 1.125,-12.224 c -0.75,1.06 -1.125,2.773 -1.125,5.141 l 0,0 0,0.615 c 0,2.11 0.378,3.645 1.135,4.606 l 0,0 c 0.755,0.962 1.953,1.442 3.593,1.442 l 0,0 c 1.491,0 2.618,-0.56 3.386,-1.68 l 0,0 c 0.767,-1.118 1.15,-2.768 1.15,-4.948 l 0,0 c 0,-2.168 -0.388,-3.838 -1.16,-5.009 l 0,0 c -0.773,-1.172 -1.875,-1.757 -3.306,-1.757 l 0,0 c -1.697,0 -2.923,0.53 -3.673,1.59"
               style="fill:url(#linearGradient20857);stroke:none"
               id="path8806"
               inkscape:connector-curvature="0" />
          </g>
        </g>
      </g>
    </g>
    <g
       transform="matrix(1.25,0,0,-1.25,-99.554196,7514.32)"
       id="g8808">
      <g
         id="g8810"
         clip-path="url(#clipPath8812)">
        <g
           id="g8816">
          <g
             id="g8818">
            <path
               d="m 446.144,5580.002 c -1.256,-0.287 -2.411,-0.705 -3.463,-1.255 l 0,0 1.335,-2.955 c 0.842,0.399 1.722,0.745 2.635,1.037 l 0,0 c 0.915,0.293 1.87,0.44 2.866,0.44 l 0,0 c 1.22,0 2.12,-0.307 2.7,-0.922 l 0,0 c 0.58,-0.616 0.87,-1.546 0.87,-2.786 l 0,0 0,-1.038 -3.358,-0.105 c -3.048,-0.095 -5.316,-0.649 -6.803,-1.67 l 0,0 c -1.488,-1.02 -2.233,-2.533 -2.233,-4.536 l 0,0 c 0,-1.887 0.537,-3.345 1.61,-4.375 l 0,0 c 1.07,-1.033 2.563,-1.548 4.473,-1.548 l 0,0 c 1.488,0 2.706,0.212 3.656,0.64 l 0,0 c 0.95,0.43 1.892,1.236 2.83,2.418 l 0,0 0.14,0 0.825,-2.708 2.956,0 0,13.097 c 0,2.308 -0.63,4.001 -1.891,5.081 l 0,0 c -1.26,1.078 -3.125,1.615 -5.598,1.615 l 0,0 c -1.115,0 -2.298,-0.142 -3.55,-0.43 m -0.388,-15.837 c -0.515,0.475 -0.773,1.145 -0.773,2.013 l 0,0 c 0,1.195 0.443,2.082 1.326,2.662 l 0,0 c 0.885,0.58 2.3,0.906 4.245,0.975 l 0,0 2.496,0.105 0,-1.685 c 0,-1.512 -0.453,-2.688 -1.361,-3.525 l 0,0 c -0.91,-0.838 -2.112,-1.258 -3.613,-1.258 l 0,0 c -1.032,0 -1.805,0.237 -2.32,0.713"
               style="fill:url(#linearGradient20859);stroke:none"
               id="path8832"
               inkscape:connector-curvature="0" />
          </g>
        </g>
      </g>
    </g>
    <g
       transform="matrix(1.25,0,0,-1.25,-99.554196,7514.32)"
       id="g8834">
      <g
         id="g8836"
         clip-path="url(#clipPath8838)">
        <g
           id="g8842">
          <g
             id="g8844">
            <path
               d="m 479.946,5580.082 -4.36,-10.617 c -0.35,-0.937 -0.768,-2.28 -1.248,-4.025 l 0,0 -0.228,-0.845 c -0.61,2.508 -1.102,4.238 -1.477,5.186 l 0,0 -4.219,10.301 -5.468,0 0,-19.443 3.781,0 0,15.697 c 0.492,-1.91 1.03,-3.625 1.617,-5.148 l 0,0 4.254,-10.549 3.128,0 4.255,10.477 c 0.363,0.892 0.808,2.28 1.335,4.168 l 0,0 0.318,1.052 0,-15.697 3.813,0 0,19.443 -5.501,0 z"
               style="fill:url(#linearGradient20861);stroke:none"
               id="path8858"
               inkscape:connector-curvature="0" />
          </g>
        </g>
      </g>
    </g>
    <g
       transform="matrix(1.25,0,0,-1.25,-99.554196,7514.32)"
       id="g8860">
      <g
         id="g8862"
         clip-path="url(#clipPath8864)">
        <g
           id="g8868">
          <g
             id="g8870">
            <path
               d="m 508.351,5580.082 -4.359,-10.617 c -0.352,-0.937 -0.767,-2.28 -1.247,-4.025 l 0,0 -0.23,-0.845 c -0.608,2.508 -1.1,4.238 -1.476,5.186 l 0,0 -4.218,10.301 -5.468,0 0,-19.443 3.781,0 0,15.697 c 0.492,-1.91 1.03,-3.625 1.615,-5.148 l 0,0 4.255,-10.549 3.128,0 4.254,10.477 c 0.365,0.892 0.81,2.28 1.337,4.168 l 0,0 0.315,1.052 0,-15.697 3.816,0 0,19.443 -5.503,0 z"
               style="fill:url(#linearGradient20863);stroke:none"
               id="path8884"
               inkscape:connector-curvature="0" />
          </g>
        </g>
      </g>
    </g>
    <g
       transform="matrix(1.25,0,0,-1.25,-99.554196,7514.32)"
       id="g8886">
      <g
         id="g8888"
         clip-path="url(#clipPath8890)">
        <g
           id="g8894">
          <g
             id="g8896">
            <path
               d="m 538.868,5560.639 4.148,0 0,19.443 -4.148,0 0,-19.443 z m -19.108,19.443 0,-19.443 8.069,0 c 2.612,0 4.595,0.508 5.95,1.523 l 0,0 c 1.353,1.013 2.031,2.52 2.031,4.526 l 0,0 c 0,1.875 -0.653,3.28 -1.953,4.218 l 0,0 c -1.3,0.937 -3.31,1.407 -6.028,1.407 l 0,0 -3.939,0 0,7.769 -4.13,0 z m 4.13,-10.881 3.639,0 c 1.347,0 2.382,-0.193 3.103,-0.58 l 0,0 c 0.72,-0.386 1.08,-1.066 1.08,-2.038 l 0,0 c 0,-0.985 -0.368,-1.713 -1.105,-2.181 l 0,0 c -0.741,-0.47 -1.941,-0.702 -3.606,-0.702 l 0,0 -3.111,0 0,5.501 z"
               style="fill:url(#linearGradient20865);stroke:none"
               id="path8910"
               inkscape:connector-curvature="0" />
          </g>
        </g>
      </g>
    </g>
  </g>
</svg>
