<svg xmlns="http://www.w3.org/2000/svg" xmlns:xlink="http://www.w3.org/1999/xlink" viewBox="0 0 100.54 100.54"><defs><style>.cls-1{fill:#fff;}.cls-2{fill:none;stroke-miterlimit:10;stroke-width:4px;stroke:url(#linear-gradient);}.cls-3{fill:url(#linear-gradient-2);}</style><linearGradient id="linear-gradient" x1="100.54" y1="50.27" x2="0" y2="50.27" gradientUnits="userSpaceOnUse"><stop offset="0" stop-color="#47c0b8"/><stop offset="0.35" stop-color="#47d2b1"/><stop offset="0.59" stop-color="#36c99a"/><stop offset="1" stop-color="#12b56a"/></linearGradient><linearGradient id="linear-gradient-2" x1="98.54" y1="50.27" x2="2" y2="50.27" xlink:href="#linear-gradient"/></defs><title>Asset 32</title><g id="Layer_2" data-name="Layer 2"><g id="Layer_1-2" data-name="Layer 1"><circle class="cls-1" cx="50.27" cy="50.27" r="48.27"/><circle class="cls-2" cx="50.27" cy="50.27" r="48.27"/><circle class="cls-3" cx="50.27" cy="50.27" r="48.27"/><path class="cls-1" d="M49.88,73.8a2,2,0,0,0-2,2v3.93a2,2,0,0,0,3.93,0V75.75a2,2,0,0,0-2-2Z"/><path class="cls-1" d="M50.1,18.89h-.23a15.7,15.7,0,0,0-15.69,15.7,2,2,0,0,0,3.93,0,11.67,11.67,0,0,1,3.51-8.38A11.54,11.54,0,0,1,50,22.82,12,12,0,0,1,61.63,34.41a11.7,11.7,0,0,1-5.39,10.07,18.69,18.69,0,0,0-8.33,15.9V66a2,2,0,0,0,3.93,0V60.38a15,15,0,0,1,6.53-12.61,15.62,15.62,0,0,0,7.19-13.41A15.81,15.81,0,0,0,50.1,18.89Z"/></g></g></svg>