<?xml version="1.0" encoding="UTF-8" standalone="no"?>
<!-- Created with Inkscape (http://www.inkscape.org/) -->

<svg
   xmlns:dc="http://purl.org/dc/elements/1.1/"
   xmlns:cc="http://creativecommons.org/ns#"
   xmlns:rdf="http://www.w3.org/1999/02/22-rdf-syntax-ns#"
   xmlns:svg="http://www.w3.org/2000/svg"
   xmlns="http://www.w3.org/2000/svg"
   xmlns:xlink="http://www.w3.org/1999/xlink"
   xmlns:sodipodi="http://sodipodi.sourceforge.net/DTD/sodipodi-0.dtd"
   xmlns:inkscape="http://www.inkscape.org/namespaces/inkscape"
   width="240.46785mm"
   height="29.624672mm"
   viewBox="0 0 852.05144 104.96931"
   id="svg20294"
   version="1.1"
   inkscape:version="0.91 r13725"
   sodipodi:docname="title__desktop.svg">
  <defs
     id="defs20296">
    <clipPath
       clipPathUnits="userSpaceOnUse"
       id="clipPath11682">
      <path
         d="m 704.146,2833.646 c -16.373,-14.83 -17.623,-40.125 -2.793,-56.498 l 0,0 c 14.83,-16.373 40.127,-17.625 56.5,-2.795 l 0,0 c 16.373,14.832 17.623,40.127 2.793,56.5 l 0,0 c -7.896,8.718 -18.755,13.148 -29.658,13.147 l 0,0 c -9.576,0 -19.186,-3.419 -26.842,-10.354"
         id="path11684"
         inkscape:connector-curvature="0" />
    </clipPath>
    <linearGradient
       x1="0"
       y1="0"
       x2="1"
       y2="0"
       gradientUnits="userSpaceOnUse"
       gradientTransform="matrix(-80.000488,0,0,80.000488,771,2804.0002)"
       spreadMethod="pad"
       id="linearGradient11690">
      <stop
         style="stop-opacity:1;stop-color:#47c0b8"
         offset="0"
         id="stop11692" />
      <stop
         style="stop-opacity:1;stop-color:#47c0b8"
         offset="0.0393917"
         id="stop11694" />
      <stop
         style="stop-opacity:1;stop-color:#47d2b1"
         offset="0.348613"
         id="stop11696" />
      <stop
         style="stop-opacity:1;stop-color:#47d2b1"
         offset="0.4222168"
         id="stop11698" />
      <stop
         style="stop-opacity:1;stop-color:#12b56a"
         offset="1"
         id="stop11700" />
    </linearGradient>
    <clipPath
       clipPathUnits="userSpaceOnUse"
       id="clipPath11654">
      <path
         d="m 0,6075 1920,0 L 1920,0 0,0 0,6075 Z"
         id="path11656"
         inkscape:connector-curvature="0" />
    </clipPath>
    <linearGradient
       x1="0"
       y1="0"
       x2="1"
       y2="0"
       gradientUnits="userSpaceOnUse"
       gradientTransform="matrix(-84.0005,0,0,-84.0005,12.3535,6101.8535)"
       spreadMethod="pad"
       id="linearGradient11664">
      <stop
         style="stop-opacity:1;stop-color:#47c0b8"
         offset="0"
         id="stop11666" />
      <stop
         style="stop-opacity:1;stop-color:#47c0b8"
         offset="0.0393917"
         id="stop11668" />
      <stop
         style="stop-opacity:1;stop-color:#47d2b1"
         offset="0.348613"
         id="stop11670" />
      <stop
         style="stop-opacity:1;stop-color:#47d2b1"
         offset="0.4222168"
         id="stop11672" />
      <stop
         style="stop-opacity:1;stop-color:#12b56a"
         offset="1"
         id="stop11674" />
    </linearGradient>
    <clipPath
       clipPathUnits="userSpaceOnUse"
       id="clipPath11628">
      <path
         d="m 702,2804.5 c 0,-6.229 5.051,-11.28 11.279,-11.28 l 0,0 c 6.229,0 11.279,5.051 11.279,11.28 l 0,0 c 0,6.229 -5.05,11.279 -11.279,11.279 l 0,0 c -6.228,0 -11.279,-5.05 -11.279,-11.279"
         id="path11630"
         inkscape:connector-curvature="0" />
    </clipPath>
    <linearGradient
       x1="0"
       y1="0"
       x2="1"
       y2="0"
       gradientUnits="userSpaceOnUse"
       gradientTransform="matrix(233,0,0,-233,702,2804.5)"
       spreadMethod="pad"
       id="linearGradient11636">
      <stop
         style="stop-opacity:1;stop-color:#47c0b8"
         offset="0"
         id="stop11638" />
      <stop
         style="stop-opacity:1;stop-color:#47c0b8"
         offset="0.0393917"
         id="stop11640" />
      <stop
         style="stop-opacity:1;stop-color:#47d2b1"
         offset="0.348613"
         id="stop11642" />
      <stop
         style="stop-opacity:1;stop-color:#47d2b1"
         offset="0.4222168"
         id="stop11644" />
      <stop
         style="stop-opacity:1;stop-color:#12b56a"
         offset="1"
         id="stop11646" />
    </linearGradient>
    <clipPath
       clipPathUnits="userSpaceOnUse"
       id="clipPath11604">
      <path
         d="m 0,6075 1920,0 L 1920,0 0,0 0,6075 Z"
         id="path11606"
         inkscape:connector-curvature="0" />
    </clipPath>
    <linearGradient
       x1="0"
       y1="0"
       x2="1"
       y2="0"
       gradientUnits="userSpaceOnUse"
       gradientTransform="matrix(233,0,0,233,-233,6075)"
       spreadMethod="pad"
       id="linearGradient11610">
      <stop
         style="stop-opacity:1;stop-color:#47c0b8"
         offset="0"
         id="stop11612" />
      <stop
         style="stop-opacity:1;stop-color:#47c0b8"
         offset="0.0393917"
         id="stop11614" />
      <stop
         style="stop-opacity:1;stop-color:#47d2b1"
         offset="0.348613"
         id="stop11616" />
      <stop
         style="stop-opacity:1;stop-color:#47d2b1"
         offset="0.4222168"
         id="stop11618" />
      <stop
         style="stop-opacity:1;stop-color:#12b56a"
         offset="1"
         id="stop11620" />
    </linearGradient>
    <clipPath
       clipPathUnits="userSpaceOnUse"
       id="clipPath6434">
      <path
         d="m 1358.041,2815.268 1.23,-2.578 c 0.752,0.372 1.523,0.689 2.315,0.953 l 0,0 c 0.791,0.263 1.651,0.395 2.578,0.395 l 0,0 c 1.026,0 1.811,-0.22 2.358,-0.659 l 0,0 c 0.548,-0.439 0.821,-1.069 0.821,-1.89 l 0,0 c 0,-0.703 -0.17,-1.309 -0.505,-1.816 l 0,0 c -0.338,-0.508 -1.087,-1.222 -2.249,-2.14 l 0,0 c -0.977,-0.76 -1.66,-1.498 -2.05,-2.21 l 0,0 c -0.392,-0.714 -0.587,-1.607 -0.587,-2.682 l 0,0 0,-0.938 2.871,0 0,0.661 c 0,0.791 0.154,1.42 0.461,1.888 l 0,0 c 0.308,0.47 0.917,1.06 1.824,1.774 l 0,0 c 1.064,0.829 1.814,1.503 2.249,2.021 l 0,0 c 0.434,0.517 0.759,1.061 0.974,1.633 l 0,0 c 0.215,0.57 0.322,1.223 0.322,1.956 l 0,0 c 0,1.65 -0.561,2.944 -1.685,3.882 l 0,0 c -1.122,0.938 -2.641,1.406 -4.556,1.406 l 0,0 c -2.265,0 -4.389,-0.552 -6.371,-1.656 m 3.31,-18.237 c 0,-0.713 0.186,-1.266 0.556,-1.662 l 0,0 c 0.372,-0.395 0.905,-0.594 1.598,-0.594 l 0,0 c 0.692,0 1.228,0.203 1.604,0.609 l 0,0 c 0.375,0.404 0.564,0.954 0.564,1.647 l 0,0 c 0,0.704 -0.186,1.247 -0.556,1.634 l 0,0 c -0.372,0.384 -0.909,0.578 -1.612,0.578 l 0,0 c -1.436,0 -2.154,-0.737 -2.154,-2.212"
         id="path6436"
         inkscape:connector-curvature="0" />
    </clipPath>
    <linearGradient
       x1="0"
       y1="0"
       x2="1"
       y2="0"
       gradientUnits="userSpaceOnUse"
       gradientTransform="matrix(-417.0108,0,0,417.0108,1373,2805.8496)"
       spreadMethod="pad"
       id="linearGradient6442">
      <stop
         style="stop-opacity:1;stop-color:#47c0b8"
         offset="0"
         id="stop6444" />
      <stop
         style="stop-opacity:1;stop-color:#47c0b8"
         offset="0.0393917"
         id="stop6446" />
      <stop
         style="stop-opacity:1;stop-color:#47d2b1"
         offset="0.348613"
         id="stop6448" />
      <stop
         style="stop-opacity:1;stop-color:#47d2b1"
         offset="0.4222168"
         id="stop6450" />
      <stop
         style="stop-opacity:1;stop-color:#12b56a"
         offset="1"
         id="stop6452" />
    </linearGradient>
    <clipPath
       clipPathUnits="userSpaceOnUse"
       id="clipPath6408">
      <path
         d="m 1342.478,2811.402 0,-16.203 7.499,0 c 2.217,0 3.902,0.427 5.054,1.282 l 0,0 c 1.153,0.854 1.729,2.108 1.729,3.759 l 0,0 c 0,3.124 -2.261,4.687 -6.783,4.687 l 0,0 -4.057,0 0,6.475 -3.442,0 z m 3.442,-9.068 3.853,0 c 1.122,0 1.991,-0.161 2.607,-0.484 l 0,0 c 0.615,-0.322 0.922,-0.888 0.922,-1.699 l 0,0 c 0,-0.78 -0.295,-1.376 -0.885,-1.786 l 0,0 c -0.592,-0.411 -1.453,-0.616 -2.586,-0.616 l 0,0 -3.911,0 0,4.585 z"
         id="path6410"
         inkscape:connector-curvature="0" />
    </clipPath>
    <linearGradient
       x1="0"
       y1="0"
       x2="1"
       y2="0"
       gradientUnits="userSpaceOnUse"
       gradientTransform="matrix(-417.0108,0,0,417.0108,1373,2803.3008)"
       spreadMethod="pad"
       id="linearGradient6416">
      <stop
         style="stop-opacity:1;stop-color:#47c0b8"
         offset="0"
         id="stop6418" />
      <stop
         style="stop-opacity:1;stop-color:#47c0b8"
         offset="0.0393917"
         id="stop6420" />
      <stop
         style="stop-opacity:1;stop-color:#47d2b1"
         offset="0.348613"
         id="stop6422" />
      <stop
         style="stop-opacity:1;stop-color:#47d2b1"
         offset="0.4222168"
         id="stop6424" />
      <stop
         style="stop-opacity:1;stop-color:#12b56a"
         offset="1"
         id="stop6426" />
    </linearGradient>
    <clipPath
       clipPathUnits="userSpaceOnUse"
       id="clipPath6382">
      <path
         d="m 1325.653,2811.402 0,-2.696 5.274,0 0,-13.507 3.456,0 0,13.507 5.274,0 0,2.696 -14.004,0 z"
         id="path6384"
         inkscape:connector-curvature="0" />
    </clipPath>
    <clipPath
       clipPathUnits="userSpaceOnUse"
       id="clipPath6356">
      <path
         d="m 1313.78,2811.334 c -1.045,-0.239 -2.007,-0.586 -2.885,-1.045 l 0,0 1.113,-2.463 c 0.703,0.333 1.435,0.621 2.197,0.865 l 0,0 c 0.762,0.244 1.558,0.367 2.388,0.367 l 0,0 c 1.015,0 1.765,-0.256 2.248,-0.77 l 0,0 c 0.484,-0.512 0.726,-1.287 0.726,-2.322 l 0,0 0,-0.864 -2.799,-0.087 c -2.539,-0.078 -4.428,-0.543 -5.669,-1.392 l 0,0 c -1.239,-0.849 -1.86,-2.11 -1.86,-3.78 l 0,0 c 0,-1.572 0.447,-2.788 1.34,-3.646 l 0,0 c 0.894,-0.861 2.136,-1.291 3.728,-1.291 l 0,0 c 1.241,0 2.257,0.18 3.048,0.536 l 0,0 c 0.791,0.355 1.576,1.027 2.359,2.014 l 0,0 0.115,0 0.689,-2.257 2.461,0 0,10.914 c 0,1.924 -0.524,3.335 -1.573,4.233 l 0,0 c -1.052,0.898 -2.606,1.348 -4.667,1.348 l 0,0 c -0.927,0 -1.913,-0.12 -2.959,-0.36 m -0.322,-13.197 c -0.43,0.395 -0.645,0.955 -0.645,1.677 l 0,0 c 0,0.996 0.369,1.735 1.105,2.22 l 0,0 c 0.738,0.482 1.918,0.753 3.539,0.813 l 0,0 2.08,0.087 0,-1.406 c 0,-1.259 -0.379,-2.24 -1.136,-2.938 l 0,0 c -0.756,-0.698 -1.76,-1.046 -3.01,-1.046 l 0,0 c -0.858,0 -1.503,0.197 -1.933,0.593"
         id="path6358"
         inkscape:connector-curvature="0" />
    </clipPath>
    <clipPath
       clipPathUnits="userSpaceOnUse"
       id="clipPath6330">
      <path
         d="m 1292.561,2811.402 0,-16.203 7.735,0 c 2.226,0 3.923,0.414 5.089,1.24 l 0,0 c 1.168,0.823 1.752,2.003 1.752,3.537 l 0,0 c 0,1.024 -0.333,1.86 -0.996,2.505 l 0,0 c -0.664,0.643 -1.622,1.04 -2.872,1.186 l 0,0 0,0.117 c 2.236,0.4 3.356,1.557 3.356,3.472 l 0,0 c 0,2.763 -2.12,4.146 -6.358,4.146 l 0,0 -7.706,0 z m 3.443,-2.608 4.174,0 c 0.996,0 1.746,-0.144 2.249,-0.431 l 0,0 c 0.503,-0.29 0.755,-0.756 0.755,-1.4 l 0,0 c 0,-0.782 -0.299,-1.321 -0.893,-1.619 l 0,0 c -0.597,-0.299 -1.47,-0.447 -2.623,-0.447 l 0,0 -3.662,0 0,3.897 z m 0,-6.46 3.97,0 c 1.211,0 2.119,-0.164 2.725,-0.492 l 0,0 c 0.605,-0.326 0.907,-0.88 0.907,-1.662 l 0,0 c 0,-1.62 -1.182,-2.431 -3.545,-2.431 l 0,0 -4.057,0 0,4.585 z"
         id="path6332"
         inkscape:connector-curvature="0" />
    </clipPath>
    <clipPath
       clipPathUnits="userSpaceOnUse"
       id="clipPath6304">
      <path
         d="m 1275.591,2809.482 c -1.348,-1.474 -2.022,-3.525 -2.022,-6.152 l 0,0 c 0,-1.689 0.313,-3.174 0.938,-4.453 l 0,0 c 0.625,-1.279 1.518,-2.261 2.68,-2.944 l 0,0 c 1.162,-0.683 2.501,-1.027 4.014,-1.027 l 0,0 c 2.422,0 4.312,0.743 5.669,2.228 l 0,0 c 1.357,1.483 2.037,3.549 2.037,6.196 l 0,0 c 0,2.558 -0.685,4.592 -2.052,6.1 l 0,0 c -1.366,1.509 -3.222,2.264 -5.567,2.264 l 0,0 c -2.45,0 -4.349,-0.738 -5.697,-2.212 m 1.523,-6.152 c 0,1.787 0.325,3.159 0.974,4.117 l 0,0 c 0.65,0.956 1.697,1.434 3.142,1.434 l 0,0 c 2.754,0 4.131,-1.85 4.131,-5.551 l 0,0 c 0,-3.74 -1.366,-5.611 -4.102,-5.611 l 0,0 c -2.762,0 -4.145,1.871 -4.145,5.611"
         id="path6306"
         inkscape:connector-curvature="0" />
    </clipPath>
    <clipPath
       clipPathUnits="userSpaceOnUse"
       id="clipPath6278">
      <path
         d="m 1259.617,2811.402 c -0.126,-2.696 -0.53,-5.213 -1.207,-7.552 l 0,0 c -0.68,-2.339 -1.595,-4.333 -2.748,-5.984 l 0,0 -1.318,0 0,-8.393 3.178,0 0,5.726 11.104,0 0,-5.726 3.208,0 0,8.393 -2.374,0 0,13.536 -9.843,0 z m 1.81,-8.584 c 0.59,1.953 0.979,3.935 1.163,5.946 l 0,0 3.487,0 0,-10.898 -6.812,0 c 0.851,1.348 1.57,2.999 2.162,4.952"
         id="path6280"
         inkscape:connector-curvature="0" />
    </clipPath>
    <linearGradient
       x1="0"
       y1="0"
       x2="1"
       y2="0"
       gradientUnits="userSpaceOnUse"
       gradientTransform="matrix(-417.0108,0,0,417.0108,1373,2800.437)"
       spreadMethod="pad"
       id="linearGradient6286">
      <stop
         style="stop-opacity:1;stop-color:#47c0b8"
         offset="0"
         id="stop6288" />
      <stop
         style="stop-opacity:1;stop-color:#47c0b8"
         offset="0.0393917"
         id="stop6290" />
      <stop
         style="stop-opacity:1;stop-color:#47d2b1"
         offset="0.348613"
         id="stop6292" />
      <stop
         style="stop-opacity:1;stop-color:#47d2b1"
         offset="0.4222168"
         id="stop6294" />
      <stop
         style="stop-opacity:1;stop-color:#12b56a"
         offset="1"
         id="stop6296" />
    </linearGradient>
    <clipPath
       clipPathUnits="userSpaceOnUse"
       id="clipPath6252">
      <path
         d="m 1248.227,2811.402 0,-6.505 -7.631,0 0,6.505 -3.442,0 0,-16.203 3.442,0 0,6.988 7.631,0 0,-6.988 3.442,0 0,16.203 -3.442,0 z"
         id="path6254"
         inkscape:connector-curvature="0" />
    </clipPath>
    <clipPath
       clipPathUnits="userSpaceOnUse"
       id="clipPath6226">
      <path
         d="m 1221.178,2809.424 c -1.318,-1.514 -1.977,-3.593 -1.977,-6.24 l 0,0 c 0,-2.578 0.71,-4.603 2.132,-6.071 l 0,0 c 1.42,-1.472 3.39,-2.207 5.91,-2.207 l 0,0 c 1.104,0 2.085,0.084 2.945,0.251 l 0,0 c 0.859,0.166 1.709,0.448 2.549,0.849 l 0,0 0,2.797 c -0.949,-0.419 -1.834,-0.721 -2.659,-0.9 l 0,0 c -0.827,-0.182 -1.717,-0.272 -2.674,-0.272 l 0,0 c -1.455,0 -2.583,0.422 -3.384,1.269 l 0,0 c -0.8,0.843 -1.225,2.052 -1.274,3.624 l 0,0 10.796,0 0,1.861 c 0,2.275 -0.621,4.062 -1.86,5.361 l 0,0 c -1.241,1.299 -2.931,1.948 -5.068,1.948 l 0,0 c -2.305,0 -4.117,-0.756 -5.436,-2.27 m 2.806,-1.377 c 0.658,0.693 1.535,1.04 2.63,1.04 l 0,0 c 1.093,0 1.953,-0.344 2.578,-1.034 l 0,0 c 0.625,-0.687 0.947,-1.701 0.967,-3.038 l 0,0 -7.354,0 c 0.127,1.328 0.519,2.339 1.179,3.032"
         id="path6228"
         inkscape:connector-curvature="0" />
    </clipPath>
    <clipPath
       clipPathUnits="userSpaceOnUse"
       id="clipPath6200">
      <path
         d="m 1210.96,2811.402 -3.631,-8.848 c -0.294,-0.782 -0.641,-1.899 -1.042,-3.356 l 0,0 -0.19,-0.702 c -0.508,2.09 -0.918,3.531 -1.23,4.322 l 0,0 -3.516,8.584 -4.556,0 0,-16.203 3.15,0 0,13.082 c 0.41,-1.592 0.86,-3.022 1.348,-4.292 l 0,0 3.545,-8.79 2.607,0 3.544,8.732 c 0.304,0.742 0.674,1.9 1.115,3.471 l 0,0 0.264,0.879 0,-13.082 3.179,0 0,16.203 -4.587,0 z"
         id="path6202"
         inkscape:connector-curvature="0" />
    </clipPath>
    <clipPath
       clipPathUnits="userSpaceOnUse"
       id="clipPath6174">
      <path
         d="m 1179.825,2809.482 c -1.348,-1.474 -2.022,-3.525 -2.022,-6.152 l 0,0 c 0,-1.689 0.312,-3.174 0.938,-4.453 l 0,0 c 0.625,-1.279 1.518,-2.261 2.681,-2.944 l 0,0 c 1.162,-0.683 2.499,-1.027 4.013,-1.027 l 0,0 c 2.423,0 4.312,0.743 5.669,2.228 l 0,0 c 1.358,1.483 2.037,3.549 2.037,6.196 l 0,0 c 0,2.558 -0.683,4.592 -2.051,6.1 l 0,0 c -1.368,1.509 -3.223,2.264 -5.566,2.264 l 0,0 c -2.452,0 -4.352,-0.738 -5.699,-2.212 m 1.524,-6.152 c 0,1.787 0.323,3.159 0.974,4.117 l 0,0 c 0.648,0.956 1.696,1.434 3.141,1.434 l 0,0 c 2.755,0 4.132,-1.85 4.132,-5.551 l 0,0 c 0,-3.74 -1.368,-5.611 -4.101,-5.611 l 0,0 c -2.765,0 -4.146,1.871 -4.146,5.611"
         id="path6176"
         inkscape:connector-curvature="0" />
    </clipPath>
    <clipPath
       clipPathUnits="userSpaceOnUse"
       id="clipPath6148">
      <path
         d="m 1172.055,2811.402 -6.606,-7.868 0,7.868 -3.443,0 0,-16.203 3.443,0 0,8.22 7.001,-8.22 3.955,0 -7.265,8.395 6.695,7.808 -3.78,0 z"
         id="path6150"
         inkscape:connector-curvature="0" />
    </clipPath>
    <clipPath
       clipPathUnits="userSpaceOnUse"
       id="clipPath6122">
      <path
         d="m 1146.031,2809.424 c -1.318,-1.514 -1.977,-3.593 -1.977,-6.24 l 0,0 c 0,-2.578 0.71,-4.603 2.131,-6.071 l 0,0 c 1.421,-1.472 3.391,-2.207 5.911,-2.207 l 0,0 c 1.102,0 2.084,0.084 2.944,0.251 l 0,0 c 0.859,0.166 1.709,0.448 2.549,0.849 l 0,0 0,2.797 c -0.948,-0.419 -1.834,-0.721 -2.658,-0.9 l 0,0 c -0.827,-0.182 -1.717,-0.272 -2.675,-0.272 l 0,0 c -1.454,0 -2.582,0.422 -3.383,1.269 l 0,0 c -0.8,0.843 -1.226,2.052 -1.274,3.624 l 0,0 10.795,0 0,1.861 c 0,2.275 -0.62,4.062 -1.86,5.361 l 0,0 c -1.241,1.299 -2.93,1.948 -5.069,1.948 l 0,0 c -2.304,0 -4.115,-0.756 -5.434,-2.27 m 2.806,-1.377 c 0.658,0.693 1.535,1.04 2.628,1.04 l 0,0 c 1.095,0 1.955,-0.344 2.578,-1.034 l 0,0 c 0.625,-0.687 0.948,-1.701 0.968,-3.038 l 0,0 -7.355,0 c 0.129,1.328 0.52,2.339 1.181,3.032"
         id="path6124"
         inkscape:connector-curvature="0" />
    </clipPath>
    <clipPath
       clipPathUnits="userSpaceOnUse"
       id="clipPath6096">
      <path
         d="m 1130.072,2809.233 -0.176,0 c -0.245,1.142 -0.405,1.865 -0.485,2.169 l 0,0 -2.782,0 0,-23.41 3.443,0 0,6.637 c 0,0.293 -0.069,1.122 -0.206,2.49 l 0,0 0.206,0 c 1.132,-1.474 2.724,-2.213 4.775,-2.213 l 0,0 c 2.021,0 3.605,0.743 4.752,2.228 l 0,0 c 1.148,1.483 1.723,3.549 1.723,6.196 l 0,0 c 0,2.647 -0.564,4.702 -1.693,6.167 l 0,0 c -1.128,1.465 -2.703,2.197 -4.724,2.197 l 0,0 c -2.149,0 -3.76,-0.82 -4.833,-2.461 m 0.937,-10.187 c -0.625,0.883 -0.937,2.311 -0.937,4.284 l 0,0 0,0.513 c 0,1.757 0.315,3.036 0.943,3.837 l 0,0 c 0.631,0.802 1.63,1.201 2.996,1.201 l 0,0 c 1.241,0 2.18,-0.466 2.821,-1.398 l 0,0 c 0.638,-0.933 0.959,-2.308 0.959,-4.124 l 0,0 c 0,-1.807 -0.322,-3.199 -0.967,-4.174 l 0,0 c -0.645,-0.977 -1.563,-1.466 -2.753,-1.466 l 0,0 c -1.417,0 -2.437,0.443 -3.062,1.327"
         id="path6098"
         inkscape:connector-curvature="0" />
    </clipPath>
    <linearGradient
       x1="0"
       y1="0"
       x2="1"
       y2="0"
       gradientUnits="userSpaceOnUse"
       gradientTransform="matrix(-417.0108,0,0,417.0108,1373,2799.8438)"
       spreadMethod="pad"
       id="linearGradient6104">
      <stop
         style="stop-opacity:1;stop-color:#47c0b8"
         offset="0"
         id="stop6106" />
      <stop
         style="stop-opacity:1;stop-color:#47c0b8"
         offset="0.0393917"
         id="stop6108" />
      <stop
         style="stop-opacity:1;stop-color:#47d2b1"
         offset="0.348613"
         id="stop6110" />
      <stop
         style="stop-opacity:1;stop-color:#47d2b1"
         offset="0.4222168"
         id="stop6112" />
      <stop
         style="stop-opacity:1;stop-color:#12b56a"
         offset="1"
         id="stop6114" />
    </linearGradient>
    <clipPath
       clipPathUnits="userSpaceOnUse"
       id="clipPath6070">
      <path
         d="m 1102.311,2811.402 0,-2.696 5.274,0 0,-13.507 3.458,0 0,13.507 5.272,0 0,2.696 -14.004,0 z"
         id="path6072"
         inkscape:connector-curvature="0" />
    </clipPath>
    <clipPath
       clipPathUnits="userSpaceOnUse"
       id="clipPath6044">
      <path
         d="m 1088.169,2809.424 c -1.319,-1.514 -1.978,-3.593 -1.978,-6.24 l 0,0 c 0,-2.578 0.711,-4.603 2.132,-6.071 l 0,0 c 1.421,-1.472 3.391,-2.207 5.911,-2.207 l 0,0 c 1.104,0 2.084,0.084 2.944,0.251 l 0,0 c 0.86,0.166 1.709,0.448 2.549,0.849 l 0,0 0,2.797 c -0.948,-0.419 -1.834,-0.721 -2.659,-0.9 l 0,0 c -0.826,-0.182 -1.717,-0.272 -2.674,-0.272 l 0,0 c -1.455,0 -2.583,0.422 -3.383,1.269 l 0,0 c -0.801,0.843 -1.226,2.052 -1.275,3.624 l 0,0 10.796,0 0,1.861 c 0,2.275 -0.621,4.062 -1.86,5.361 l 0,0 c -1.24,1.299 -2.93,1.948 -5.068,1.948 l 0,0 c -2.305,0 -4.116,-0.756 -5.435,-2.27 m 2.805,-1.377 c 0.659,0.693 1.535,1.04 2.63,1.04 l 0,0 c 1.093,0 1.953,-0.344 2.578,-1.034 l 0,0 c 0.625,-0.687 0.947,-1.701 0.967,-3.038 l 0,0 -7.353,0 c 0.126,1.328 0.518,2.339 1.178,3.032"
         id="path6046"
         inkscape:connector-curvature="0" />
    </clipPath>
    <linearGradient
       x1="0"
       y1="0"
       x2="1"
       y2="0"
       gradientUnits="userSpaceOnUse"
       gradientTransform="matrix(-417.0108,0,0,417.0108,1373.0078,2803.3008)"
       spreadMethod="pad"
       id="linearGradient6052">
      <stop
         style="stop-opacity:1;stop-color:#47c0b8"
         offset="0"
         id="stop6054" />
      <stop
         style="stop-opacity:1;stop-color:#47c0b8"
         offset="0.0393917"
         id="stop6056" />
      <stop
         style="stop-opacity:1;stop-color:#47d2b1"
         offset="0.348613"
         id="stop6058" />
      <stop
         style="stop-opacity:1;stop-color:#47d2b1"
         offset="0.4222168"
         id="stop6060" />
      <stop
         style="stop-opacity:1;stop-color:#12b56a"
         offset="1"
         id="stop6062" />
    </linearGradient>
    <clipPath
       clipPathUnits="userSpaceOnUse"
       id="clipPath6018">
      <path
         d="m 1080.764,2811.402 -6.241,-7.868 0,7.868 -3.207,0 0,-7.868 -6.212,7.868 -3.633,0 6.358,-7.837 -6.928,-8.366 3.779,0 6.636,8.22 0,-8.22 3.207,0 0,8.22 6.651,-8.22 3.793,0 -6.943,8.366 6.373,7.837 -3.633,0 z"
         id="path6020"
         inkscape:connector-curvature="0" />
    </clipPath>
    <clipPath
       clipPathUnits="userSpaceOnUse"
       id="clipPath5992">
      <path
         d="m 1046.362,2809.482 c -1.348,-1.474 -2.022,-3.525 -2.022,-6.152 l 0,0 c 0,-1.689 0.313,-3.174 0.938,-4.453 l 0,0 c 0.624,-1.279 1.519,-2.261 2.68,-2.944 l 0,0 c 1.162,-0.683 2.501,-1.027 4.013,-1.027 l 0,0 c 2.423,0 4.312,0.743 5.67,2.228 l 0,0 c 1.357,1.483 2.036,3.549 2.036,6.196 l 0,0 c 0,2.558 -0.683,4.592 -2.051,6.1 l 0,0 c -1.368,1.509 -3.223,2.264 -5.566,2.264 l 0,0 c -2.452,0 -4.352,-0.738 -5.698,-2.212 m 1.523,-6.152 c 0,1.787 0.323,3.159 0.974,4.117 l 0,0 c 0.648,0.956 1.697,1.434 3.143,1.434 l 0,0 c 2.753,0 4.13,-1.85 4.13,-5.551 l 0,0 c 0,-3.74 -1.368,-5.611 -4.101,-5.611 l 0,0 c -2.765,0 -4.146,1.871 -4.146,5.611"
         id="path5994"
         inkscape:connector-curvature="0" />
    </clipPath>
    <clipPath
       clipPathUnits="userSpaceOnUse"
       id="clipPath5966">
      <path
         d="m 1036.1,2811.402 -3.633,-8.848 c -0.293,-0.782 -0.639,-1.899 -1.04,-3.356 l 0,0 -0.191,-0.702 c -0.507,2.09 -0.918,3.531 -1.23,4.322 l 0,0 -3.516,8.584 -4.555,0 0,-16.203 3.149,0 0,13.082 c 0.411,-1.592 0.859,-3.022 1.348,-4.292 l 0,0 3.545,-8.79 2.607,0 3.545,8.732 c 0.303,0.742 0.674,1.9 1.113,3.471 l 0,0 0.263,0.879 0,-13.082 3.179,0 0,16.203 -4.584,0 z"
         id="path5968"
         inkscape:connector-curvature="0" />
    </clipPath>
    <clipPath
       clipPathUnits="userSpaceOnUse"
       id="clipPath5940">
      <path
         d="m 997.472,2809.482 c -1.348,-1.474 -2.022,-3.525 -2.022,-6.152 l 0,0 c 0,-1.689 0.313,-3.174 0.938,-4.453 l 0,0 c 0.625,-1.279 1.518,-2.261 2.68,-2.944 l 0,0 c 1.162,-0.683 2.501,-1.027 4.015,-1.027 l 0,0 c 2.421,0 4.311,0.743 5.668,2.228 l 0,0 c 1.357,1.483 2.035,3.549 2.035,6.196 l 0,0 c 0,2.558 -0.683,4.592 -2.05,6.1 l 0,0 c -1.366,1.509 -3.222,2.264 -5.567,2.264 l 0,0 c -2.45,0 -4.349,-0.738 -5.697,-2.212 m 1.523,-6.152 c 0,1.787 0.325,3.159 0.974,4.117 l 0,0 c 0.65,0.956 1.697,1.434 3.142,1.434 l 0,0 c 2.754,0 4.131,-1.85 4.131,-5.551 l 0,0 c 0,-3.74 -1.366,-5.611 -4.102,-5.611 l 0,0 c -2.764,0 -4.145,1.871 -4.145,5.611"
         id="path5942"
         inkscape:connector-curvature="0" />
    </clipPath>
    <clipPath
       clipPathUnits="userSpaceOnUse"
       id="clipPath5914">
      <path
         d="m 979.593,2811.402 0,-2.696 5.273,0 0,-13.507 3.457,0 0,13.507 5.273,0 0,2.696 -14.003,0 z"
         id="path5916"
         inkscape:connector-curvature="0" />
    </clipPath>
    <clipPath
       clipPathUnits="userSpaceOnUse"
       id="clipPath5888">
      <path
         d="m 975,2816.616 -8.672,-10.371 0,10.371 -3.5,0 0,-21.417 3.5,0 0,10.856 8.819,-10.856 4.116,0 -9.068,11.075 8.643,10.342 -3.838,0 z"
         id="path5890"
         inkscape:connector-curvature="0" />
    </clipPath>
    <linearGradient
       x1="0"
       y1="0"
       x2="1"
       y2="0"
       gradientUnits="userSpaceOnUse"
       gradientTransform="matrix(-417.0108,0,0,417.0108,1373,2805.9082)"
       spreadMethod="pad"
       id="linearGradient5896">
      <stop
         style="stop-opacity:1;stop-color:#47c0b8"
         offset="0"
         id="stop5898" />
      <stop
         style="stop-opacity:1;stop-color:#47c0b8"
         offset="0.0393917"
         id="stop5900" />
      <stop
         style="stop-opacity:1;stop-color:#47d2b1"
         offset="0.348613"
         id="stop5902" />
      <stop
         style="stop-opacity:1;stop-color:#47d2b1"
         offset="0.4222168"
         id="stop5904" />
      <stop
         style="stop-opacity:1;stop-color:#12b56a"
         offset="1"
         id="stop5906" />
    </linearGradient>
    <linearGradient
       inkscape:collect="always"
       xlink:href="#linearGradient6416"
       id="linearGradient20888"
       gradientUnits="userSpaceOnUse"
       gradientTransform="matrix(-417.0108,0,0,417.0108,1373,2803.3008)"
       spreadMethod="pad"
       x1="0"
       y1="0"
       x2="1"
       y2="0" />
    <linearGradient
       inkscape:collect="always"
       xlink:href="#linearGradient6416"
       id="linearGradient20890"
       gradientUnits="userSpaceOnUse"
       gradientTransform="matrix(-417.0108,0,0,417.0108,1373,2803.3008)"
       spreadMethod="pad"
       x1="0"
       y1="0"
       x2="1"
       y2="0" />
    <linearGradient
       inkscape:collect="always"
       xlink:href="#linearGradient6416"
       id="linearGradient20892"
       gradientUnits="userSpaceOnUse"
       gradientTransform="matrix(-417.0108,0,0,417.0108,1373,2803.3008)"
       spreadMethod="pad"
       x1="0"
       y1="0"
       x2="1"
       y2="0" />
    <linearGradient
       inkscape:collect="always"
       xlink:href="#linearGradient6416"
       id="linearGradient20894"
       gradientUnits="userSpaceOnUse"
       gradientTransform="matrix(-417.0108,0,0,417.0108,1373,2803.3008)"
       spreadMethod="pad"
       x1="0"
       y1="0"
       x2="1"
       y2="0" />
    <linearGradient
       inkscape:collect="always"
       xlink:href="#linearGradient6416"
       id="linearGradient20896"
       gradientUnits="userSpaceOnUse"
       gradientTransform="matrix(-417.0108,0,0,417.0108,1373,2803.3008)"
       spreadMethod="pad"
       x1="0"
       y1="0"
       x2="1"
       y2="0" />
    <linearGradient
       inkscape:collect="always"
       xlink:href="#linearGradient6416"
       id="linearGradient20898"
       gradientUnits="userSpaceOnUse"
       gradientTransform="matrix(-417.0108,0,0,417.0108,1373,2803.3008)"
       spreadMethod="pad"
       x1="0"
       y1="0"
       x2="1"
       y2="0" />
    <linearGradient
       inkscape:collect="always"
       xlink:href="#linearGradient6416"
       id="linearGradient20900"
       gradientUnits="userSpaceOnUse"
       gradientTransform="matrix(-417.0108,0,0,417.0108,1373,2803.3008)"
       spreadMethod="pad"
       x1="0"
       y1="0"
       x2="1"
       y2="0" />
    <linearGradient
       inkscape:collect="always"
       xlink:href="#linearGradient6416"
       id="linearGradient20902"
       gradientUnits="userSpaceOnUse"
       gradientTransform="matrix(-417.0108,0,0,417.0108,1373,2803.3008)"
       spreadMethod="pad"
       x1="0"
       y1="0"
       x2="1"
       y2="0" />
    <linearGradient
       inkscape:collect="always"
       xlink:href="#linearGradient6416"
       id="linearGradient20904"
       gradientUnits="userSpaceOnUse"
       gradientTransform="matrix(-417.0108,0,0,417.0108,1373,2803.3008)"
       spreadMethod="pad"
       x1="0"
       y1="0"
       x2="1"
       y2="0" />
    <linearGradient
       inkscape:collect="always"
       xlink:href="#linearGradient6416"
       id="linearGradient20906"
       gradientUnits="userSpaceOnUse"
       gradientTransform="matrix(-417.0108,0,0,417.0108,1373,2803.3008)"
       spreadMethod="pad"
       x1="0"
       y1="0"
       x2="1"
       y2="0" />
    <linearGradient
       inkscape:collect="always"
       xlink:href="#linearGradient6416"
       id="linearGradient20908"
       gradientUnits="userSpaceOnUse"
       gradientTransform="matrix(-417.0108,0,0,417.0108,1373,2803.3008)"
       spreadMethod="pad"
       x1="0"
       y1="0"
       x2="1"
       y2="0" />
    <linearGradient
       inkscape:collect="always"
       xlink:href="#linearGradient6416"
       id="linearGradient20910"
       gradientUnits="userSpaceOnUse"
       gradientTransform="matrix(-417.0108,0,0,417.0108,1373,2803.3008)"
       spreadMethod="pad"
       x1="0"
       y1="0"
       x2="1"
       y2="0" />
    <linearGradient
       inkscape:collect="always"
       xlink:href="#linearGradient6416"
       id="linearGradient20912"
       gradientUnits="userSpaceOnUse"
       gradientTransform="matrix(-417.0108,0,0,417.0108,1373,2803.3008)"
       spreadMethod="pad"
       x1="0"
       y1="0"
       x2="1"
       y2="0" />
    <linearGradient
       inkscape:collect="always"
       xlink:href="#linearGradient6416"
       id="linearGradient20914"
       gradientUnits="userSpaceOnUse"
       gradientTransform="matrix(-417.0108,0,0,417.0108,1373,2803.3008)"
       spreadMethod="pad"
       x1="0"
       y1="0"
       x2="1"
       y2="0" />
    <linearGradient
       inkscape:collect="always"
       xlink:href="#linearGradient6416"
       id="linearGradient20916"
       gradientUnits="userSpaceOnUse"
       gradientTransform="matrix(-417.0108,0,0,417.0108,1373,2803.3008)"
       spreadMethod="pad"
       x1="0"
       y1="0"
       x2="1"
       y2="0" />
    <linearGradient
       inkscape:collect="always"
       xlink:href="#linearGradient6416"
       id="linearGradient20918"
       gradientUnits="userSpaceOnUse"
       gradientTransform="matrix(-417.0108,0,0,417.0108,1373,2803.3008)"
       spreadMethod="pad"
       x1="0"
       y1="0"
       x2="1"
       y2="0" />
    <linearGradient
       inkscape:collect="always"
       xlink:href="#linearGradient6416"
       id="linearGradient20920"
       gradientUnits="userSpaceOnUse"
       gradientTransform="matrix(-417.0108,0,0,417.0108,1373,2803.3008)"
       spreadMethod="pad"
       x1="0"
       y1="0"
       x2="1"
       y2="0" />
  </defs>
  <sodipodi:namedview
     id="base"
     pagecolor="#ffffff"
     bordercolor="#666666"
     borderopacity="1.0"
     inkscape:pageopacity="0.0"
     inkscape:pageshadow="2"
     inkscape:zoom="0.35"
     inkscape:cx="63.882864"
     inkscape:cy="18.198948"
     inkscape:document-units="px"
     inkscape:current-layer="layer1"
     showgrid="false"
     fit-margin-top="0"
     fit-margin-left="0"
     fit-margin-right="0"
     fit-margin-bottom="0"
     inkscape:window-width="1366"
     inkscape:window-height="718"
     inkscape:window-x="0"
     inkscape:window-y="24"
     inkscape:window-maximized="1" />
  <metadata
     id="metadata20299">
    <rdf:RDF>
      <cc:Work
         rdf:about="">
        <dc:format>image/svg+xml</dc:format>
        <dc:type
           rdf:resource="http://purl.org/dc/dcmitype/StillImage" />
        <dc:title></dc:title>
      </cc:Work>
    </rdf:RDF>
  </metadata>
  <g
     inkscape:label="Layer 1"
     inkscape:groupmode="layer"
     id="layer1"
     transform="translate(123.16858,-445.59184)">
    <g
       transform="matrix(1.25,0,0,-1.25,-984.43338,4003.077)"
       id="g5884">
      <g
         id="g5886"
         clip-path="url(#clipPath5888)">
        <g
           id="g5892">
          <g
             id="g5894">
            <path
               d="m 975,2816.616 -8.672,-10.371 0,10.371 -3.5,0 0,-21.417 3.5,0 0,10.856 8.819,-10.856 4.116,0 -9.068,11.075 8.643,10.342 -3.838,0 z"
               style="fill:url(#linearGradient5896);stroke:none"
               id="path5908"
               inkscape:connector-curvature="0" />
          </g>
        </g>
      </g>
    </g>
    <g
       transform="matrix(1.25,0,0,-1.25,-984.43338,4003.077)"
       id="g5910">
      <g
         id="g5912"
         clip-path="url(#clipPath5914)">
        <g
           id="g5918">
          <g
             id="g5920">
            <path
               d="m 979.593,2811.402 0,-2.696 5.273,0 0,-13.507 3.457,0 0,13.507 5.273,0 0,2.696 -14.003,0 z"
               style="fill:url(#linearGradient20888);stroke:none"
               id="path5934"
               inkscape:connector-curvature="0" />
          </g>
        </g>
      </g>
    </g>
    <g
       transform="matrix(1.25,0,0,-1.25,-984.43338,4003.077)"
       id="g5936">
      <g
         id="g5938"
         clip-path="url(#clipPath5940)">
        <g
           id="g5944">
          <g
             id="g5946">
            <path
               d="m 997.472,2809.482 c -1.348,-1.474 -2.022,-3.525 -2.022,-6.152 l 0,0 c 0,-1.689 0.313,-3.174 0.938,-4.453 l 0,0 c 0.625,-1.279 1.518,-2.261 2.68,-2.944 l 0,0 c 1.162,-0.683 2.501,-1.027 4.015,-1.027 l 0,0 c 2.421,0 4.311,0.743 5.668,2.228 l 0,0 c 1.357,1.483 2.035,3.549 2.035,6.196 l 0,0 c 0,2.558 -0.683,4.592 -2.05,6.1 l 0,0 c -1.366,1.509 -3.222,2.264 -5.567,2.264 l 0,0 c -2.45,0 -4.349,-0.738 -5.697,-2.212 m 1.523,-6.152 c 0,1.787 0.325,3.159 0.974,4.117 l 0,0 c 0.65,0.956 1.697,1.434 3.142,1.434 l 0,0 c 2.754,0 4.131,-1.85 4.131,-5.551 l 0,0 c 0,-3.74 -1.366,-5.611 -4.102,-5.611 l 0,0 c -2.764,0 -4.145,1.871 -4.145,5.611"
               style="fill:url(#linearGradient20890);stroke:none"
               id="path5960"
               inkscape:connector-curvature="0" />
          </g>
        </g>
      </g>
    </g>
    <g
       transform="matrix(1.25,0,0,-1.25,-984.43338,4003.077)"
       id="g5962">
      <g
         id="g5964"
         clip-path="url(#clipPath5966)">
        <g
           id="g5970">
          <g
             id="g5972">
            <path
               d="m 1036.1,2811.402 -3.633,-8.848 c -0.293,-0.782 -0.639,-1.899 -1.04,-3.356 l 0,0 -0.191,-0.702 c -0.507,2.09 -0.918,3.531 -1.23,4.322 l 0,0 -3.516,8.584 -4.555,0 0,-16.203 3.149,0 0,13.082 c 0.411,-1.592 0.859,-3.022 1.348,-4.292 l 0,0 3.545,-8.79 2.607,0 3.545,8.732 c 0.303,0.742 0.674,1.9 1.113,3.471 l 0,0 0.263,0.879 0,-13.082 3.179,0 0,16.203 -4.584,0 z"
               style="fill:url(#linearGradient20892);stroke:none"
               id="path5986"
               inkscape:connector-curvature="0" />
          </g>
        </g>
      </g>
    </g>
    <g
       transform="matrix(1.25,0,0,-1.25,-984.43338,4003.077)"
       id="g5988">
      <g
         id="g5990"
         clip-path="url(#clipPath5992)">
        <g
           id="g5996">
          <g
             id="g5998">
            <path
               d="m 1046.362,2809.482 c -1.348,-1.474 -2.022,-3.525 -2.022,-6.152 l 0,0 c 0,-1.689 0.313,-3.174 0.938,-4.453 l 0,0 c 0.624,-1.279 1.519,-2.261 2.68,-2.944 l 0,0 c 1.162,-0.683 2.501,-1.027 4.013,-1.027 l 0,0 c 2.423,0 4.312,0.743 5.67,2.228 l 0,0 c 1.357,1.483 2.036,3.549 2.036,6.196 l 0,0 c 0,2.558 -0.683,4.592 -2.051,6.1 l 0,0 c -1.368,1.509 -3.223,2.264 -5.566,2.264 l 0,0 c -2.452,0 -4.352,-0.738 -5.698,-2.212 m 1.523,-6.152 c 0,1.787 0.323,3.159 0.974,4.117 l 0,0 c 0.648,0.956 1.697,1.434 3.143,1.434 l 0,0 c 2.753,0 4.13,-1.85 4.13,-5.551 l 0,0 c 0,-3.74 -1.368,-5.611 -4.101,-5.611 l 0,0 c -2.765,0 -4.146,1.871 -4.146,5.611"
               style="fill:url(#linearGradient20894);stroke:none"
               id="path6012"
               inkscape:connector-curvature="0" />
          </g>
        </g>
      </g>
    </g>
    <g
       transform="matrix(1.25,0,0,-1.25,-984.43338,4003.077)"
       id="g6014">
      <g
         id="g6016"
         clip-path="url(#clipPath6018)">
        <g
           id="g6022">
          <g
             id="g6024">
            <path
               d="m 1080.764,2811.402 -6.241,-7.868 0,7.868 -3.207,0 0,-7.868 -6.212,7.868 -3.633,0 6.358,-7.837 -6.928,-8.366 3.779,0 6.636,8.22 0,-8.22 3.207,0 0,8.22 6.651,-8.22 3.793,0 -6.943,8.366 6.373,7.837 -3.633,0 z"
               style="fill:url(#linearGradient20896);stroke:none"
               id="path6038"
               inkscape:connector-curvature="0" />
          </g>
        </g>
      </g>
    </g>
    <g
       transform="matrix(1.25,0,0,-1.25,-984.43338,4003.077)"
       id="g6040">
      <g
         id="g6042"
         clip-path="url(#clipPath6044)">
        <g
           id="g6048">
          <g
             id="g6050">
            <path
               d="m 1088.169,2809.424 c -1.319,-1.514 -1.978,-3.593 -1.978,-6.24 l 0,0 c 0,-2.578 0.711,-4.603 2.132,-6.071 l 0,0 c 1.421,-1.472 3.391,-2.207 5.911,-2.207 l 0,0 c 1.104,0 2.084,0.084 2.944,0.251 l 0,0 c 0.86,0.166 1.709,0.448 2.549,0.849 l 0,0 0,2.797 c -0.948,-0.419 -1.834,-0.721 -2.659,-0.9 l 0,0 c -0.826,-0.182 -1.717,-0.272 -2.674,-0.272 l 0,0 c -1.455,0 -2.583,0.422 -3.383,1.269 l 0,0 c -0.801,0.843 -1.226,2.052 -1.275,3.624 l 0,0 10.796,0 0,1.861 c 0,2.275 -0.621,4.062 -1.86,5.361 l 0,0 c -1.24,1.299 -2.93,1.948 -5.068,1.948 l 0,0 c -2.305,0 -4.116,-0.756 -5.435,-2.27 m 2.805,-1.377 c 0.659,0.693 1.535,1.04 2.63,1.04 l 0,0 c 1.093,0 1.953,-0.344 2.578,-1.034 l 0,0 c 0.625,-0.687 0.947,-1.701 0.967,-3.038 l 0,0 -7.353,0 c 0.126,1.328 0.518,2.339 1.178,3.032"
               style="fill:url(#linearGradient6052);stroke:none"
               id="path6064"
               inkscape:connector-curvature="0" />
          </g>
        </g>
      </g>
    </g>
    <g
       transform="matrix(1.25,0,0,-1.25,-984.43338,4003.077)"
       id="g6066">
      <g
         id="g6068"
         clip-path="url(#clipPath6070)">
        <g
           id="g6074">
          <g
             id="g6076">
            <path
               d="m 1102.311,2811.402 0,-2.696 5.274,0 0,-13.507 3.458,0 0,13.507 5.272,0 0,2.696 -14.004,0 z"
               style="fill:url(#linearGradient20898);stroke:none"
               id="path6090"
               inkscape:connector-curvature="0" />
          </g>
        </g>
      </g>
    </g>
    <g
       transform="matrix(1.25,0,0,-1.25,-984.43338,4003.077)"
       id="g6092">
      <g
         id="g6094"
         clip-path="url(#clipPath6096)">
        <g
           id="g6100">
          <g
             id="g6102">
            <path
               d="m 1130.072,2809.233 -0.176,0 c -0.245,1.142 -0.405,1.865 -0.485,2.169 l 0,0 -2.782,0 0,-23.41 3.443,0 0,6.637 c 0,0.293 -0.069,1.122 -0.206,2.49 l 0,0 0.206,0 c 1.132,-1.474 2.724,-2.213 4.775,-2.213 l 0,0 c 2.021,0 3.605,0.743 4.752,2.228 l 0,0 c 1.148,1.483 1.723,3.549 1.723,6.196 l 0,0 c 0,2.647 -0.564,4.702 -1.693,6.167 l 0,0 c -1.128,1.465 -2.703,2.197 -4.724,2.197 l 0,0 c -2.149,0 -3.76,-0.82 -4.833,-2.461 m 0.937,-10.187 c -0.625,0.883 -0.937,2.311 -0.937,4.284 l 0,0 0,0.513 c 0,1.757 0.315,3.036 0.943,3.837 l 0,0 c 0.631,0.802 1.63,1.201 2.996,1.201 l 0,0 c 1.241,0 2.18,-0.466 2.821,-1.398 l 0,0 c 0.638,-0.933 0.959,-2.308 0.959,-4.124 l 0,0 c 0,-1.807 -0.322,-3.199 -0.967,-4.174 l 0,0 c -0.645,-0.977 -1.563,-1.466 -2.753,-1.466 l 0,0 c -1.417,0 -2.437,0.443 -3.062,1.327"
               style="fill:url(#linearGradient6104);stroke:none"
               id="path6116"
               inkscape:connector-curvature="0" />
          </g>
        </g>
      </g>
    </g>
    <g
       transform="matrix(1.25,0,0,-1.25,-984.43338,4003.077)"
       id="g6118">
      <g
         id="g6120"
         clip-path="url(#clipPath6122)">
        <g
           id="g6126">
          <g
             id="g6128">
            <path
               d="m 1146.031,2809.424 c -1.318,-1.514 -1.977,-3.593 -1.977,-6.24 l 0,0 c 0,-2.578 0.71,-4.603 2.131,-6.071 l 0,0 c 1.421,-1.472 3.391,-2.207 5.911,-2.207 l 0,0 c 1.102,0 2.084,0.084 2.944,0.251 l 0,0 c 0.859,0.166 1.709,0.448 2.549,0.849 l 0,0 0,2.797 c -0.948,-0.419 -1.834,-0.721 -2.658,-0.9 l 0,0 c -0.827,-0.182 -1.717,-0.272 -2.675,-0.272 l 0,0 c -1.454,0 -2.582,0.422 -3.383,1.269 l 0,0 c -0.8,0.843 -1.226,2.052 -1.274,3.624 l 0,0 10.795,0 0,1.861 c 0,2.275 -0.62,4.062 -1.86,5.361 l 0,0 c -1.241,1.299 -2.93,1.948 -5.069,1.948 l 0,0 c -2.304,0 -4.115,-0.756 -5.434,-2.27 m 2.806,-1.377 c 0.658,0.693 1.535,1.04 2.628,1.04 l 0,0 c 1.095,0 1.955,-0.344 2.578,-1.034 l 0,0 c 0.625,-0.687 0.948,-1.701 0.968,-3.038 l 0,0 -7.355,0 c 0.129,1.328 0.52,2.339 1.181,3.032"
               style="fill:url(#linearGradient20900);stroke:none"
               id="path6142"
               inkscape:connector-curvature="0" />
          </g>
        </g>
      </g>
    </g>
    <g
       transform="matrix(1.25,0,0,-1.25,-984.43338,4003.077)"
       id="g6144">
      <g
         id="g6146"
         clip-path="url(#clipPath6148)">
        <g
           id="g6152">
          <g
             id="g6154">
            <path
               d="m 1172.055,2811.402 -6.606,-7.868 0,7.868 -3.443,0 0,-16.203 3.443,0 0,8.22 7.001,-8.22 3.955,0 -7.265,8.395 6.695,7.808 -3.78,0 z"
               style="fill:url(#linearGradient20902);stroke:none"
               id="path6168"
               inkscape:connector-curvature="0" />
          </g>
        </g>
      </g>
    </g>
    <g
       transform="matrix(1.25,0,0,-1.25,-984.43338,4003.077)"
       id="g6170">
      <g
         id="g6172"
         clip-path="url(#clipPath6174)">
        <g
           id="g6178">
          <g
             id="g6180">
            <path
               d="m 1179.825,2809.482 c -1.348,-1.474 -2.022,-3.525 -2.022,-6.152 l 0,0 c 0,-1.689 0.312,-3.174 0.938,-4.453 l 0,0 c 0.625,-1.279 1.518,-2.261 2.681,-2.944 l 0,0 c 1.162,-0.683 2.499,-1.027 4.013,-1.027 l 0,0 c 2.423,0 4.312,0.743 5.669,2.228 l 0,0 c 1.358,1.483 2.037,3.549 2.037,6.196 l 0,0 c 0,2.558 -0.683,4.592 -2.051,6.1 l 0,0 c -1.368,1.509 -3.223,2.264 -5.566,2.264 l 0,0 c -2.452,0 -4.352,-0.738 -5.699,-2.212 m 1.524,-6.152 c 0,1.787 0.323,3.159 0.974,4.117 l 0,0 c 0.648,0.956 1.696,1.434 3.141,1.434 l 0,0 c 2.755,0 4.132,-1.85 4.132,-5.551 l 0,0 c 0,-3.74 -1.368,-5.611 -4.101,-5.611 l 0,0 c -2.765,0 -4.146,1.871 -4.146,5.611"
               style="fill:url(#linearGradient20904);stroke:none"
               id="path6194"
               inkscape:connector-curvature="0" />
          </g>
        </g>
      </g>
    </g>
    <g
       transform="matrix(1.25,0,0,-1.25,-984.43338,4003.077)"
       id="g6196">
      <g
         id="g6198"
         clip-path="url(#clipPath6200)">
        <g
           id="g6204">
          <g
             id="g6206">
            <path
               d="m 1210.96,2811.402 -3.631,-8.848 c -0.294,-0.782 -0.641,-1.899 -1.042,-3.356 l 0,0 -0.19,-0.702 c -0.508,2.09 -0.918,3.531 -1.23,4.322 l 0,0 -3.516,8.584 -4.556,0 0,-16.203 3.15,0 0,13.082 c 0.41,-1.592 0.86,-3.022 1.348,-4.292 l 0,0 3.545,-8.79 2.607,0 3.544,8.732 c 0.304,0.742 0.674,1.9 1.115,3.471 l 0,0 0.264,0.879 0,-13.082 3.179,0 0,16.203 -4.587,0 z"
               style="fill:url(#linearGradient20906);stroke:none"
               id="path6220"
               inkscape:connector-curvature="0" />
          </g>
        </g>
      </g>
    </g>
    <g
       transform="matrix(1.25,0,0,-1.25,-984.43338,4003.077)"
       id="g6222">
      <g
         id="g6224"
         clip-path="url(#clipPath6226)">
        <g
           id="g6230">
          <g
             id="g6232">
            <path
               d="m 1221.178,2809.424 c -1.318,-1.514 -1.977,-3.593 -1.977,-6.24 l 0,0 c 0,-2.578 0.71,-4.603 2.132,-6.071 l 0,0 c 1.42,-1.472 3.39,-2.207 5.91,-2.207 l 0,0 c 1.104,0 2.085,0.084 2.945,0.251 l 0,0 c 0.859,0.166 1.709,0.448 2.549,0.849 l 0,0 0,2.797 c -0.949,-0.419 -1.834,-0.721 -2.659,-0.9 l 0,0 c -0.827,-0.182 -1.717,-0.272 -2.674,-0.272 l 0,0 c -1.455,0 -2.583,0.422 -3.384,1.269 l 0,0 c -0.8,0.843 -1.225,2.052 -1.274,3.624 l 0,0 10.796,0 0,1.861 c 0,2.275 -0.621,4.062 -1.86,5.361 l 0,0 c -1.241,1.299 -2.931,1.948 -5.068,1.948 l 0,0 c -2.305,0 -4.117,-0.756 -5.436,-2.27 m 2.806,-1.377 c 0.658,0.693 1.535,1.04 2.63,1.04 l 0,0 c 1.093,0 1.953,-0.344 2.578,-1.034 l 0,0 c 0.625,-0.687 0.947,-1.701 0.967,-3.038 l 0,0 -7.354,0 c 0.127,1.328 0.519,2.339 1.179,3.032"
               style="fill:url(#linearGradient20908);stroke:none"
               id="path6246"
               inkscape:connector-curvature="0" />
          </g>
        </g>
      </g>
    </g>
    <g
       transform="matrix(1.25,0,0,-1.25,-984.43338,4003.077)"
       id="g6248">
      <g
         id="g6250"
         clip-path="url(#clipPath6252)">
        <g
           id="g6256">
          <g
             id="g6258">
            <path
               d="m 1248.227,2811.402 0,-6.505 -7.631,0 0,6.505 -3.442,0 0,-16.203 3.442,0 0,6.988 7.631,0 0,-6.988 3.442,0 0,16.203 -3.442,0 z"
               style="fill:url(#linearGradient20910);stroke:none"
               id="path6272"
               inkscape:connector-curvature="0" />
          </g>
        </g>
      </g>
    </g>
    <g
       transform="matrix(1.25,0,0,-1.25,-984.43338,4003.077)"
       id="g6274">
      <g
         id="g6276"
         clip-path="url(#clipPath6278)">
        <g
           id="g6282">
          <g
             id="g6284">
            <path
               d="m 1259.617,2811.402 c -0.126,-2.696 -0.53,-5.213 -1.207,-7.552 l 0,0 c -0.68,-2.339 -1.595,-4.333 -2.748,-5.984 l 0,0 -1.318,0 0,-8.393 3.178,0 0,5.726 11.104,0 0,-5.726 3.208,0 0,8.393 -2.374,0 0,13.536 -9.843,0 z m 1.81,-8.584 c 0.59,1.953 0.979,3.935 1.163,5.946 l 0,0 3.487,0 0,-10.898 -6.812,0 c 0.851,1.348 1.57,2.999 2.162,4.952"
               style="fill:url(#linearGradient6286);stroke:none"
               id="path6298"
               inkscape:connector-curvature="0" />
          </g>
        </g>
      </g>
    </g>
    <g
       transform="matrix(1.25,0,0,-1.25,-984.43338,4003.077)"
       id="g6300">
      <g
         id="g6302"
         clip-path="url(#clipPath6304)">
        <g
           id="g6308">
          <g
             id="g6310">
            <path
               d="m 1275.591,2809.482 c -1.348,-1.474 -2.022,-3.525 -2.022,-6.152 l 0,0 c 0,-1.689 0.313,-3.174 0.938,-4.453 l 0,0 c 0.625,-1.279 1.518,-2.261 2.68,-2.944 l 0,0 c 1.162,-0.683 2.501,-1.027 4.014,-1.027 l 0,0 c 2.422,0 4.312,0.743 5.669,2.228 l 0,0 c 1.357,1.483 2.037,3.549 2.037,6.196 l 0,0 c 0,2.558 -0.685,4.592 -2.052,6.1 l 0,0 c -1.366,1.509 -3.222,2.264 -5.567,2.264 l 0,0 c -2.45,0 -4.349,-0.738 -5.697,-2.212 m 1.523,-6.152 c 0,1.787 0.325,3.159 0.974,4.117 l 0,0 c 0.65,0.956 1.697,1.434 3.142,1.434 l 0,0 c 2.754,0 4.131,-1.85 4.131,-5.551 l 0,0 c 0,-3.74 -1.366,-5.611 -4.102,-5.611 l 0,0 c -2.762,0 -4.145,1.871 -4.145,5.611"
               style="fill:url(#linearGradient20912);stroke:none"
               id="path6324"
               inkscape:connector-curvature="0" />
          </g>
        </g>
      </g>
    </g>
    <g
       transform="matrix(1.25,0,0,-1.25,-984.43338,4003.077)"
       id="g6326">
      <g
         id="g6328"
         clip-path="url(#clipPath6330)">
        <g
           id="g6334">
          <g
             id="g6336">
            <path
               d="m 1292.561,2811.402 0,-16.203 7.735,0 c 2.226,0 3.923,0.414 5.089,1.24 l 0,0 c 1.168,0.823 1.752,2.003 1.752,3.537 l 0,0 c 0,1.024 -0.333,1.86 -0.996,2.505 l 0,0 c -0.664,0.643 -1.622,1.04 -2.872,1.186 l 0,0 0,0.117 c 2.236,0.4 3.356,1.557 3.356,3.472 l 0,0 c 0,2.763 -2.12,4.146 -6.358,4.146 l 0,0 -7.706,0 z m 3.443,-2.608 4.174,0 c 0.996,0 1.746,-0.144 2.249,-0.431 l 0,0 c 0.503,-0.29 0.755,-0.756 0.755,-1.4 l 0,0 c 0,-0.782 -0.299,-1.321 -0.893,-1.619 l 0,0 c -0.597,-0.299 -1.47,-0.447 -2.623,-0.447 l 0,0 -3.662,0 0,3.897 z m 0,-6.46 3.97,0 c 1.211,0 2.119,-0.164 2.725,-0.492 l 0,0 c 0.605,-0.326 0.907,-0.88 0.907,-1.662 l 0,0 c 0,-1.62 -1.182,-2.431 -3.545,-2.431 l 0,0 -4.057,0 0,4.585 z"
               style="fill:url(#linearGradient20914);stroke:none"
               id="path6350"
               inkscape:connector-curvature="0" />
          </g>
        </g>
      </g>
    </g>
    <g
       transform="matrix(1.25,0,0,-1.25,-984.43338,4003.077)"
       id="g6352">
      <g
         id="g6354"
         clip-path="url(#clipPath6356)">
        <g
           id="g6360">
          <g
             id="g6362">
            <path
               d="m 1313.78,2811.334 c -1.045,-0.239 -2.007,-0.586 -2.885,-1.045 l 0,0 1.113,-2.463 c 0.703,0.333 1.435,0.621 2.197,0.865 l 0,0 c 0.762,0.244 1.558,0.367 2.388,0.367 l 0,0 c 1.015,0 1.765,-0.256 2.248,-0.77 l 0,0 c 0.484,-0.512 0.726,-1.287 0.726,-2.322 l 0,0 0,-0.864 -2.799,-0.087 c -2.539,-0.078 -4.428,-0.543 -5.669,-1.392 l 0,0 c -1.239,-0.849 -1.86,-2.11 -1.86,-3.78 l 0,0 c 0,-1.572 0.447,-2.788 1.34,-3.646 l 0,0 c 0.894,-0.861 2.136,-1.291 3.728,-1.291 l 0,0 c 1.241,0 2.257,0.18 3.048,0.536 l 0,0 c 0.791,0.355 1.576,1.027 2.359,2.014 l 0,0 0.115,0 0.689,-2.257 2.461,0 0,10.914 c 0,1.924 -0.524,3.335 -1.573,4.233 l 0,0 c -1.052,0.898 -2.606,1.348 -4.667,1.348 l 0,0 c -0.927,0 -1.913,-0.12 -2.959,-0.36 m -0.322,-13.197 c -0.43,0.395 -0.645,0.955 -0.645,1.677 l 0,0 c 0,0.996 0.369,1.735 1.105,2.22 l 0,0 c 0.738,0.482 1.918,0.753 3.539,0.813 l 0,0 2.08,0.087 0,-1.406 c 0,-1.259 -0.379,-2.24 -1.136,-2.938 l 0,0 c -0.756,-0.698 -1.76,-1.046 -3.01,-1.046 l 0,0 c -0.858,0 -1.503,0.197 -1.933,0.593"
               style="fill:url(#linearGradient20916);stroke:none"
               id="path6376"
               inkscape:connector-curvature="0" />
          </g>
        </g>
      </g>
    </g>
    <g
       transform="matrix(1.25,0,0,-1.25,-984.43338,4003.077)"
       id="g6378">
      <g
         id="g6380"
         clip-path="url(#clipPath6382)">
        <g
           id="g6386">
          <g
             id="g6388">
            <path
               d="m 1325.653,2811.402 0,-2.696 5.274,0 0,-13.507 3.456,0 0,13.507 5.274,0 0,2.696 -14.004,0 z"
               style="fill:url(#linearGradient20918);stroke:none"
               id="path6402"
               inkscape:connector-curvature="0" />
          </g>
        </g>
      </g>
    </g>
    <g
       transform="matrix(1.25,0,0,-1.25,-984.43338,4003.077)"
       id="g6404">
      <g
         id="g6406"
         clip-path="url(#clipPath6408)">
        <g
           id="g6412">
          <g
             id="g6414">
            <path
               d="m 1342.478,2811.402 0,-16.203 7.499,0 c 2.217,0 3.902,0.427 5.054,1.282 l 0,0 c 1.153,0.854 1.729,2.108 1.729,3.759 l 0,0 c 0,3.124 -2.261,4.687 -6.783,4.687 l 0,0 -4.057,0 0,6.475 -3.442,0 z m 3.442,-9.068 3.853,0 c 1.122,0 1.991,-0.161 2.607,-0.484 l 0,0 c 0.615,-0.322 0.922,-0.888 0.922,-1.699 l 0,0 c 0,-0.78 -0.295,-1.376 -0.885,-1.786 l 0,0 c -0.592,-0.411 -1.453,-0.616 -2.586,-0.616 l 0,0 -3.911,0 0,4.585 z"
               style="fill:url(#linearGradient20920);stroke:none"
               id="path6428"
               inkscape:connector-curvature="0" />
          </g>
        </g>
      </g>
    </g>
    <g
       transform="matrix(1.25,0,0,-1.25,-984.43338,4003.077)"
       id="g6430">
      <g
         id="g6432"
         clip-path="url(#clipPath6434)">
        <g
           id="g6438">
          <g
             id="g6440">
            <path
               d="m 1358.041,2815.268 1.23,-2.578 c 0.752,0.372 1.523,0.689 2.315,0.953 l 0,0 c 0.791,0.263 1.651,0.395 2.578,0.395 l 0,0 c 1.026,0 1.811,-0.22 2.358,-0.659 l 0,0 c 0.548,-0.439 0.821,-1.069 0.821,-1.89 l 0,0 c 0,-0.703 -0.17,-1.309 -0.505,-1.816 l 0,0 c -0.338,-0.508 -1.087,-1.222 -2.249,-2.14 l 0,0 c -0.977,-0.76 -1.66,-1.498 -2.05,-2.21 l 0,0 c -0.392,-0.714 -0.587,-1.607 -0.587,-2.682 l 0,0 0,-0.938 2.871,0 0,0.661 c 0,0.791 0.154,1.42 0.461,1.888 l 0,0 c 0.308,0.47 0.917,1.06 1.824,1.774 l 0,0 c 1.064,0.829 1.814,1.503 2.249,2.021 l 0,0 c 0.434,0.517 0.759,1.061 0.974,1.633 l 0,0 c 0.215,0.57 0.322,1.223 0.322,1.956 l 0,0 c 0,1.65 -0.561,2.944 -1.685,3.882 l 0,0 c -1.122,0.938 -2.641,1.406 -4.556,1.406 l 0,0 c -2.265,0 -4.389,-0.552 -6.371,-1.656 m 3.31,-18.237 c 0,-0.713 0.186,-1.266 0.556,-1.662 l 0,0 c 0.372,-0.395 0.905,-0.594 1.598,-0.594 l 0,0 c 0.692,0 1.228,0.203 1.604,0.609 l 0,0 c 0.375,0.404 0.564,0.954 0.564,1.647 l 0,0 c 0,0.704 -0.186,1.247 -0.556,1.634 l 0,0 c -0.372,0.384 -0.909,0.578 -1.612,0.578 l 0,0 c -1.436,0 -2.154,-0.737 -2.154,-2.212"
               style="fill:url(#linearGradient6442);stroke:none"
               id="path6454"
               inkscape:connector-curvature="0" />
          </g>
        </g>
      </g>
    </g>
    <g
       transform="matrix(1.25,0,0,-1.25,-984.43338,4003.077)"
       id="g11600">
      <g
         id="g11602"
         clip-path="url(#clipPath11604)">
        <g
           id="g11608"
           transform="translate(935,2804.5)">
          <path
             d="M 0,0 -222.285,0"
             style="fill:none;stroke:url(#linearGradient11610);stroke-width:3;stroke-linecap:butt;stroke-linejoin:miter;stroke-miterlimit:10;stroke-dasharray:none;stroke-opacity:1"
             id="path11622"
             inkscape:connector-curvature="0" />
        </g>
      </g>
    </g>
    <g
       transform="matrix(1.25,0,0,-1.25,-984.43338,4003.077)"
       id="g11624">
      <g
         id="g11626"
         clip-path="url(#clipPath11628)">
        <g
           id="g11632">
          <g
             id="g11634">
            <path
               d="m 702,2804.5 c 0,-6.229 5.051,-11.28 11.279,-11.28 l 0,0 c 6.229,0 11.279,5.051 11.279,11.28 l 0,0 c 0,6.229 -5.05,11.279 -11.279,11.279 l 0,0 c -6.228,0 -11.279,-5.05 -11.279,-11.279"
               style="fill:url(#linearGradient11636);stroke:none"
               id="path11648"
               inkscape:connector-curvature="0" />
          </g>
        </g>
      </g>
    </g>
    <g
       transform="matrix(1.25,0,0,-1.25,-984.43338,4003.077)"
       id="g11650">
      <g
         id="g11652"
         clip-path="url(#clipPath11654)">
        <g
           id="g11658"
           transform="translate(760.6465,2830.8535)">
          <path
             d="m 0,0 c 14.83,-16.374 13.58,-41.669 -2.794,-56.5 -16.373,-14.83 -41.669,-13.579 -56.499,2.794 -14.831,16.373 -13.58,41.669 2.793,56.499 C -40.126,17.624 -14.831,16.373 0,0"
             style="fill:#ffffff;fill-opacity:1;fill-rule:nonzero;stroke:none"
             id="path11660"
             inkscape:connector-curvature="0" />
        </g>
        <g
           id="g11662"
           transform="translate(760.6465,2830.8535)">
          <path
             d="m 0,0 c 14.83,-16.374 13.58,-41.669 -2.794,-56.5 -16.373,-14.83 -41.669,-13.579 -56.499,2.794 -14.831,16.373 -13.58,41.669 2.793,56.499 C -40.126,17.624 -14.831,16.373 0,0 Z"
             style="fill:none;stroke:url(#linearGradient11664);stroke-width:4;stroke-linecap:butt;stroke-linejoin:miter;stroke-miterlimit:10;stroke-dasharray:none;stroke-opacity:1"
             id="path11676"
             inkscape:connector-curvature="0" />
        </g>
      </g>
    </g>
    <g
       transform="matrix(1.25,0,0,-1.25,-984.43338,4003.077)"
       id="g11678">
      <g
         id="g11680"
         clip-path="url(#clipPath11682)">
        <g
           id="g11686">
          <g
             id="g11688">
            <path
               d="m 704.146,2833.646 c -16.373,-14.83 -17.623,-40.125 -2.793,-56.498 l 0,0 c 14.83,-16.373 40.127,-17.625 56.5,-2.795 l 0,0 c 16.373,14.832 17.623,40.127 2.793,56.5 l 0,0 c -7.896,8.718 -18.755,13.148 -29.658,13.147 l 0,0 c -9.576,0 -19.186,-3.419 -26.842,-10.354"
               style="fill:url(#linearGradient11690);stroke:none"
               id="path11702"
               inkscape:connector-curvature="0" />
          </g>
        </g>
      </g>
    </g>
    <path
       d="m -70.859765,465.57695 -0.23875,0 c -4.295,0 -8.34,1.6575 -11.40375,4.68125 -3.11625,3.075 -4.8425,7.19 -4.8425,11.575 0,1.12 0.91375,2.02125 2.03375,2.02125 1.1225,0 2.03375,-0.90125 2.03375,-2.02125 0,-3.2925 1.29,-6.3775 3.63,-8.67875 2.34125,-2.31125 5.45375,-3.59 8.72625,-3.51 6.42625,0.0888 11.92,5.59375 12.0125,12.00875 0.0575,4.235 -2.025,8.13125 -5.58625,10.42375 -5.4025,3.48125 -8.6275,9.64125 -8.6275,16.47375 l 0,5.77 c 0,1.1325 0.91125,2.03375 2.03375,2.03375 1.12,0 2.03375,-0.90125 2.03375,-2.03375 l 0,-5.77 c 0,-5.365 2.5875,-10.36375 6.76375,-13.0625 4.74,-3.055 7.525,-8.2525 7.44625,-13.89375 -0.11875,-8.7075 -7.30875,-15.8875 -16.015,-16.0175"
       style="fill:#ffffff;fill-opacity:1;fill-rule:nonzero;stroke:none"
       id="path11718"
       inkscape:connector-curvature="0" />
  </g>
</svg>
