<?xml version="1.0" encoding="UTF-8" standalone="no"?>
<!-- Created with Inkscape (http://www.inkscape.org/) -->

<svg
   xmlns:dc="http://purl.org/dc/elements/1.1/"
   xmlns:cc="http://creativecommons.org/ns#"
   xmlns:rdf="http://www.w3.org/1999/02/22-rdf-syntax-ns#"
   xmlns:svg="http://www.w3.org/2000/svg"
   xmlns="http://www.w3.org/2000/svg"
   xmlns:xlink="http://www.w3.org/1999/xlink"
   xmlns:sodipodi="http://sodipodi.sourceforge.net/DTD/sodipodi-0.dtd"
   xmlns:inkscape="http://www.inkscape.org/namespaces/inkscape"
   width="221.73904mm"
   height="35.458427mm"
   viewBox="0 0 785.68953 125.6401"
   id="svg21303"
   version="1.1"
   inkscape:version="0.91 r13725"
   sodipodi:docname="title.svg">
  <defs
     id="defs21305">
    <clipPath
       clipPathUnits="userSpaceOnUse"
       id="clipPath7676">
      <path
         d="m 654.931,5958.723 1.475,-3.093 c 0.902,0.445 1.828,0.825 2.778,1.14 l 0,0 c 0.95,0.317 1.98,0.475 3.093,0.475 l 0,0 c 1.23,0 2.175,-0.263 2.83,-0.79 l 0,0 c 0.658,-0.528 0.985,-1.283 0.985,-2.268 l 0,0 c 0,-0.842 -0.202,-1.57 -0.607,-2.18 l 0,0 c -0.403,-0.608 -1.303,-1.465 -2.698,-2.566 l 0,0 c -1.173,-0.915 -1.993,-1.8 -2.461,-2.655 l 0,0 c -0.47,-0.855 -0.702,-1.928 -0.702,-3.216 l 0,0 0,-1.125 3.445,0 0,0.79 c 0,0.951 0.183,1.706 0.553,2.268 l 0,0 c 0.37,0.563 1.098,1.273 2.188,2.128 l 0,0 c 1.277,0.995 2.178,1.806 2.698,2.426 l 0,0 c 0.522,0.62 0.912,1.275 1.17,1.96 l 0,0 c 0.257,0.685 0.387,1.467 0.387,2.345 l 0,0 c 0,1.98 -0.675,3.533 -2.022,4.659 l 0,0 c -1.348,1.125 -3.171,1.687 -5.466,1.687 l 0,0 c -2.721,0 -5.269,-0.663 -7.646,-1.985 m 3.97,-21.886 c 0,-0.855 0.223,-1.52 0.67,-1.995 l 0,0 c 0.445,-0.473 1.083,-0.711 1.916,-0.711 l 0,0 c 0.832,0 1.472,0.243 1.925,0.728 l 0,0 c 0.45,0.488 0.675,1.148 0.675,1.978 l 0,0 c 0,0.845 -0.222,1.497 -0.668,1.96 l 0,0 c -0.445,0.463 -1.09,0.695 -1.932,0.695 l 0,0 c -1.723,0 -2.586,-0.885 -2.586,-2.655"
         id="path7678"
         inkscape:connector-curvature="0" />
    </clipPath>
    <linearGradient
       x1="0"
       y1="0"
       x2="1"
       y2="0"
       gradientUnits="userSpaceOnUse"
       gradientTransform="matrix(-525.0509,0,0,525.0509,687.0741,5947.4199)"
       spreadMethod="pad"
       id="linearGradient7684">
      <stop
         style="stop-opacity:1;stop-color:#47c0b8"
         offset="0"
         id="stop7686" />
      <stop
         style="stop-opacity:1;stop-color:#47c0b8"
         offset="0.0393917"
         id="stop7688" />
      <stop
         style="stop-opacity:1;stop-color:#47d2b1"
         offset="0.348613"
         id="stop7690" />
      <stop
         style="stop-opacity:1;stop-color:#47d2b1"
         offset="0.4222168"
         id="stop7692" />
      <stop
         style="stop-opacity:1;stop-color:#12b56a"
         offset="1"
         id="stop7694" />
    </linearGradient>
    <clipPath
       clipPathUnits="userSpaceOnUse"
       id="clipPath7650">
      <path
         d="m 635.893,5954.082 0,-19.443 8.999,0 c 2.66,0 4.683,0.515 6.066,1.54 l 0,0 c 1.382,1.026 2.072,2.528 2.072,4.509 l 0,0 c 0,3.75 -2.713,5.625 -8.138,5.625 l 0,0 -4.869,0 0,7.769 -4.13,0 z m 4.13,-10.881 4.624,0 c 1.347,0 2.39,-0.193 3.127,-0.58 l 0,0 c 0.741,-0.386 1.108,-1.066 1.108,-2.038 l 0,0 c 0,-0.938 -0.355,-1.653 -1.062,-2.146 l 0,0 c -0.711,-0.492 -1.743,-0.737 -3.103,-0.737 l 0,0 -4.694,0 0,5.501 z"
         id="path7652"
         inkscape:connector-curvature="0" />
    </clipPath>
    <linearGradient
       x1="0"
       y1="0"
       x2="1"
       y2="0"
       gradientUnits="userSpaceOnUse"
       gradientTransform="matrix(-525.0509,0,0,525.0509,687.0741,5944.3613)"
       spreadMethod="pad"
       id="linearGradient7658">
      <stop
         style="stop-opacity:1;stop-color:#47c0b8"
         offset="0"
         id="stop7660" />
      <stop
         style="stop-opacity:1;stop-color:#47c0b8"
         offset="0.0393917"
         id="stop7662" />
      <stop
         style="stop-opacity:1;stop-color:#47d2b1"
         offset="0.348613"
         id="stop7664" />
      <stop
         style="stop-opacity:1;stop-color:#47d2b1"
         offset="0.4222168"
         id="stop7666" />
      <stop
         style="stop-opacity:1;stop-color:#12b56a"
         offset="1"
         id="stop7668" />
    </linearGradient>
    <clipPath
       clipPathUnits="userSpaceOnUse"
       id="clipPath7624">
      <path
         d="m 615.345,5954.082 0,-3.235 6.328,0 0,-16.208 4.148,0 0,16.208 6.329,0 0,3.235 -16.805,0 z"
         id="path7626"
         inkscape:connector-curvature="0" />
    </clipPath>
    <clipPath
       clipPathUnits="userSpaceOnUse"
       id="clipPath7598">
      <path
         d="m 600.737,5954.002 c -1.255,-0.288 -2.41,-0.705 -3.463,-1.255 l 0,0 1.335,-2.955 c 0.843,0.399 1.723,0.745 2.636,1.037 l 0,0 c 0.915,0.293 1.87,0.44 2.865,0.44 l 0,0 c 1.221,0 2.121,-0.308 2.701,-0.922 l 0,0 c 0.58,-0.616 0.87,-1.546 0.87,-2.786 l 0,0 0,-1.038 -3.358,-0.105 c -3.048,-0.095 -5.316,-0.649 -6.804,-1.67 l 0,0 c -1.487,-1.02 -2.233,-2.533 -2.233,-4.536 l 0,0 c 0,-1.887 0.538,-3.345 1.611,-4.375 l 0,0 c 1.07,-1.033 2.563,-1.548 4.473,-1.548 l 0,0 c 1.488,0 2.705,0.212 3.655,0.64 l 0,0 c 0.951,0.43 1.893,1.236 2.831,2.418 l 0,0 0.14,0 0.825,-2.708 2.955,0 0,13.097 c 0,2.308 -0.63,4.003 -1.89,5.081 l 0,0 c -1.26,1.078 -3.125,1.615 -5.598,1.615 l 0,0 c -1.115,0 -2.298,-0.142 -3.551,-0.43 m -0.387,-15.837 c -0.515,0.475 -0.773,1.145 -0.773,2.013 l 0,0 c 0,1.195 0.443,2.082 1.325,2.662 l 0,0 c 0.885,0.58 2.301,0.906 4.246,0.975 l 0,0 2.495,0.105 0,-1.685 c 0,-1.512 -0.452,-2.688 -1.36,-3.525 l 0,0 c -0.91,-0.838 -2.113,-1.258 -3.613,-1.258 l 0,0 c -1.033,0 -1.805,0.237 -2.32,0.713"
         id="path7600"
         inkscape:connector-curvature="0" />
    </clipPath>
    <clipPath
       clipPathUnits="userSpaceOnUse"
       id="clipPath7572">
      <path
         d="m 574.913,5954.082 0,-19.443 9.282,0 c 2.673,0 4.708,0.498 6.108,1.488 l 0,0 c 1.4,0.99 2.101,2.405 2.101,4.243 l 0,0 c 0,1.23 -0.398,2.233 -1.196,3.005 l 0,0 c -0.795,0.775 -1.945,1.25 -3.445,1.426 l 0,0 0,0.14 c 2.685,0.48 4.025,1.87 4.025,4.165 l 0,0 c 0,3.318 -2.543,4.976 -7.628,4.976 l 0,0 -9.247,0 z m 4.131,-3.13 5.011,0 c 1.195,0 2.095,-0.173 2.698,-0.518 l 0,0 c 0.602,-0.345 0.905,-0.905 0.905,-1.678 l 0,0 c 0,-0.937 -0.358,-1.585 -1.073,-1.943 l 0,0 c -0.715,-0.357 -1.763,-0.537 -3.145,-0.537 l 0,0 -4.396,0 0,4.676 z m 0,-7.751 4.766,0 c 1.452,0 2.543,-0.196 3.268,-0.588 l 0,0 c 0.727,-0.393 1.09,-1.058 1.09,-1.995 l 0,0 c 0,-1.946 -1.418,-2.918 -4.253,-2.918 l 0,0 -4.871,0 0,5.501 z"
         id="path7574"
         inkscape:connector-curvature="0" />
    </clipPath>
    <clipPath
       clipPathUnits="userSpaceOnUse"
       id="clipPath7546">
      <path
         d="m 554.19,5951.779 c -1.618,-1.77 -2.425,-4.23 -2.425,-7.383 l 0,0 c 0,-2.028 0.375,-3.809 1.122,-5.344 l 0,0 c 0.751,-1.535 1.823,-2.713 3.218,-3.533 l 0,0 c 1.396,-0.82 3.001,-1.23 4.816,-1.23 l 0,0 c 2.908,0 5.173,0.89 6.804,2.67 l 0,0 c 1.627,1.783 2.443,4.261 2.443,7.437 l 0,0 c 0,3.07 -0.821,5.511 -2.461,7.321 l 0,0 c -1.64,1.81 -3.868,2.715 -6.681,2.715 l 0,0 c -2.94,0 -5.221,-0.883 -6.836,-2.653 m 1.828,-7.383 c 0,2.145 0.39,3.79 1.168,4.94 l 0,0 c 0.78,1.148 2.037,1.723 3.77,1.723 l 0,0 c 3.306,0 4.958,-2.22 4.958,-6.663 l 0,0 c 0,-4.489 -1.64,-6.731 -4.923,-6.731 l 0,0 c -3.315,0 -4.973,2.242 -4.973,6.731"
         id="path7548"
         inkscape:connector-curvature="0" />
    </clipPath>
    <clipPath
       clipPathUnits="userSpaceOnUse"
       id="clipPath7520">
      <path
         d="m 534.66,5954.082 c -0.153,-3.235 -0.635,-6.256 -1.451,-9.061 l 0,0 c -0.815,-2.808 -1.912,-5.201 -3.295,-7.181 l 0,0 -1.583,0 0,-10.072 3.816,0 0,6.871 13.324,0 0,-6.871 3.848,0 0,10.072 -2.848,0 0,16.242 -11.811,0 z m 2.17,-10.301 c 0.71,2.345 1.175,4.723 1.398,7.136 l 0,0 4.185,0 0,-13.077 -8.176,0 c 1.02,1.618 1.885,3.598 2.593,5.941"
         id="path7522"
         inkscape:connector-curvature="0" />
    </clipPath>
    <linearGradient
       x1="0"
       y1="0"
       x2="1"
       y2="0"
       gradientUnits="userSpaceOnUse"
       gradientTransform="matrix(-525.0509,0,0,525.0509,687.0741,5940.9248)"
       spreadMethod="pad"
       id="linearGradient7528">
      <stop
         style="stop-opacity:1;stop-color:#47c0b8"
         offset="0"
         id="stop7530" />
      <stop
         style="stop-opacity:1;stop-color:#47c0b8"
         offset="0.0393917"
         id="stop7532" />
      <stop
         style="stop-opacity:1;stop-color:#47d2b1"
         offset="0.348613"
         id="stop7534" />
      <stop
         style="stop-opacity:1;stop-color:#47d2b1"
         offset="0.4222168"
         id="stop7536" />
      <stop
         style="stop-opacity:1;stop-color:#12b56a"
         offset="1"
         id="stop7538" />
    </linearGradient>
    <clipPath
       clipPathUnits="userSpaceOnUse"
       id="clipPath7494">
      <path
         d="m 520.632,5954.082 0,-7.806 -9.158,0 0,7.806 -4.131,0 0,-19.443 4.131,0 0,8.386 9.158,0 0,-8.386 4.131,0 0,19.443 -4.131,0 z"
         id="path7496"
         inkscape:connector-curvature="0" />
    </clipPath>
    <clipPath
       clipPathUnits="userSpaceOnUse"
       id="clipPath7468">
      <path
         d="m 487.815,5951.709 c -1.583,-1.817 -2.373,-4.313 -2.373,-7.488 l 0,0 c 0,-3.094 0.853,-5.524 2.558,-7.286 l 0,0 c 1.705,-1.763 4.068,-2.646 7.091,-2.646 l 0,0 c 1.325,0 2.503,0.1 3.533,0.297 l 0,0 c 1.033,0.201 2.053,0.541 3.061,1.021 l 0,0 0,3.358 c -1.138,-0.505 -2.201,-0.865 -3.191,-1.08 l 0,0 c -0.99,-0.218 -2.06,-0.325 -3.208,-0.325 l 0,0 c -1.748,0 -3.1,0.504 -4.061,1.52 l 0,0 c -0.962,1.012 -1.472,2.462 -1.53,4.351 l 0,0 12.955,0 0,2.23 c 0,2.73 -0.743,4.876 -2.233,6.433 l 0,0 c -1.488,1.561 -3.516,2.338 -6.081,2.338 l 0,0 c -2.765,0 -4.938,-0.908 -6.521,-2.723 m 3.365,-1.652 c 0.791,0.832 1.843,1.247 3.156,1.247 l 0,0 c 1.313,0 2.343,-0.412 3.093,-1.24 l 0,0 c 0.75,-0.825 1.138,-2.04 1.16,-3.646 l 0,0 -8.824,0 c 0.153,1.593 0.625,2.806 1.415,3.639"
         id="path7470"
         inkscape:connector-curvature="0" />
    </clipPath>
    <clipPath
       clipPathUnits="userSpaceOnUse"
       id="clipPath7442">
      <path
         d="m 475.193,5954.082 -4.358,-10.617 c -0.353,-0.937 -0.768,-2.28 -1.248,-4.025 l 0,0 -0.23,-0.845 c -0.61,2.508 -1.1,4.238 -1.475,5.186 l 0,0 -4.221,10.301 -5.466,0 0,-19.443 3.778,0 0,15.697 c 0.493,-1.91 1.033,-3.625 1.618,-5.148 l 0,0 4.256,-10.549 3.128,0 4.253,10.477 c 0.363,0.892 0.81,2.28 1.335,4.168 l 0,0 0.318,1.052 0,-15.697 3.815,0 0,19.443 -5.503,0 z"
         id="path7444"
         inkscape:connector-curvature="0" />
    </clipPath>
    <clipPath
       clipPathUnits="userSpaceOnUse"
       id="clipPath7416">
      <path
         d="m 437.47,5951.779 c -1.616,-1.77 -2.426,-4.23 -2.426,-7.383 l 0,0 c 0,-2.028 0.375,-3.809 1.125,-5.344 l 0,0 c 0.751,-1.535 1.823,-2.713 3.219,-3.533 l 0,0 c 1.392,-0.82 2.997,-1.23 4.815,-1.23 l 0,0 c 2.906,0 5.174,0.89 6.804,2.67 l 0,0 c 1.628,1.783 2.443,4.261 2.443,7.437 l 0,0 c 0,3.07 -0.82,5.511 -2.461,7.321 l 0,0 c -1.642,1.81 -3.868,2.715 -6.681,2.715 l 0,0 c -2.94,0 -5.221,-0.883 -6.838,-2.653 m 1.83,-7.383 c 0,2.145 0.388,3.79 1.168,4.94 l 0,0 c 0.78,1.148 2.035,1.723 3.77,1.723 l 0,0 c 3.306,0 4.959,-2.22 4.959,-6.663 l 0,0 c 0,-4.489 -1.643,-6.731 -4.924,-6.731 l 0,0 c -3.315,0 -4.973,2.242 -4.973,6.731"
         id="path7418"
         inkscape:connector-curvature="0" />
    </clipPath>
    <clipPath
       clipPathUnits="userSpaceOnUse"
       id="clipPath7390">
      <path
         d="m 427.786,5954.082 -7.929,-9.439 0,9.439 -4.131,0 0,-19.443 4.131,0 0,9.861 8.404,-9.861 4.746,0 -8.719,10.074 8.033,9.369 -4.535,0 z"
         id="path7392"
         inkscape:connector-curvature="0" />
    </clipPath>
    <clipPath
       clipPathUnits="userSpaceOnUse"
       id="clipPath7364">
      <path
         d="m 396.198,5951.709 c -1.582,-1.817 -2.375,-4.313 -2.375,-7.488 l 0,0 c 0,-3.094 0.853,-5.524 2.558,-7.286 l 0,0 c 1.705,-1.763 4.071,-2.646 7.093,-2.646 l 0,0 c 1.326,0 2.503,0.1 3.534,0.297 l 0,0 c 1.032,0.201 2.05,0.541 3.057,1.021 l 0,0 0,3.358 c -1.135,-0.505 -2.2,-0.865 -3.19,-1.08 l 0,0 c -0.99,-0.218 -2.058,-0.325 -3.208,-0.325 l 0,0 c -1.745,0 -3.098,0.504 -4.061,1.52 l 0,0 c -0.96,1.012 -1.47,2.462 -1.527,4.351 l 0,0 12.954,0 0,2.23 c 0,2.73 -0.745,4.876 -2.233,6.433 l 0,0 c -1.487,1.561 -3.515,2.338 -6.081,2.338 l 0,0 c -2.765,0 -4.94,-0.908 -6.521,-2.723 m 3.366,-1.652 c 0.79,0.832 1.843,1.247 3.155,1.247 l 0,0 c 1.313,0 2.343,-0.412 3.093,-1.24 l 0,0 c 0.75,-0.825 1.138,-2.04 1.161,-3.646 l 0,0 -8.824,0 c 0.152,1.593 0.622,2.806 1.415,3.639"
         id="path7366"
         inkscape:connector-curvature="0" />
    </clipPath>
    <clipPath
       clipPathUnits="userSpaceOnUse"
       id="clipPath7338">
      <path
         d="m 376.685,5951.479 -0.21,0 c -0.292,1.373 -0.487,2.241 -0.58,2.603 l 0,0 -3.34,0 0,-28.089 4.13,0 0,7.961 c 0,0.353 -0.082,1.348 -0.245,2.988 l 0,0 0.245,0 c 1.361,-1.768 3.271,-2.653 5.731,-2.653 l 0,0 c 2.426,0 4.326,0.89 5.704,2.67 l 0,0 c 1.377,1.783 2.065,4.261 2.065,7.437 l 0,0 c 0,3.175 -0.675,5.643 -2.03,7.401 l 0,0 c -1.353,1.758 -3.243,2.635 -5.669,2.635 l 0,0 c -2.578,0 -4.51,-0.982 -5.801,-2.953 m 1.126,-12.224 c -0.751,1.06 -1.126,2.775 -1.126,5.141 l 0,0 0,0.615 c 0,2.11 0.378,3.645 1.136,4.605 l 0,0 c 0.755,0.963 1.952,1.443 3.593,1.443 l 0,0 c 1.487,0 2.617,-0.56 3.383,-1.68 l 0,0 c 0.767,-1.118 1.152,-2.768 1.152,-4.948 l 0,0 c 0,-2.168 -0.387,-3.838 -1.16,-5.009 l 0,0 c -0.773,-1.172 -1.875,-1.757 -3.305,-1.757 l 0,0 c -1.698,0 -2.923,0.53 -3.673,1.59"
         id="path7340"
         inkscape:connector-curvature="0" />
    </clipPath>
    <linearGradient
       x1="0"
       y1="0"
       x2="1"
       y2="0"
       gradientUnits="userSpaceOnUse"
       gradientTransform="matrix(-525.0509,0,0,525.0509,687.0741,5940.2129)"
       spreadMethod="pad"
       id="linearGradient7346">
      <stop
         style="stop-opacity:1;stop-color:#47c0b8"
         offset="0"
         id="stop7348" />
      <stop
         style="stop-opacity:1;stop-color:#47c0b8"
         offset="0.0393917"
         id="stop7350" />
      <stop
         style="stop-opacity:1;stop-color:#47d2b1"
         offset="0.348613"
         id="stop7352" />
      <stop
         style="stop-opacity:1;stop-color:#47d2b1"
         offset="0.4222168"
         id="stop7354" />
      <stop
         style="stop-opacity:1;stop-color:#12b56a"
         offset="1"
         id="stop7356" />
    </linearGradient>
    <clipPath
       clipPathUnits="userSpaceOnUse"
       id="clipPath7312">
      <path
         d="m 342.655,5954.082 0,-3.235 6.329,0 0,-16.208 4.148,0 0,16.208 6.328,0 0,3.235 -16.805,0 z"
         id="path7314"
         inkscape:connector-curvature="0" />
    </clipPath>
    <clipPath
       clipPathUnits="userSpaceOnUse"
       id="clipPath7286">
      <path
         d="m 325.322,5951.709 c -1.582,-1.817 -2.372,-4.313 -2.372,-7.488 l 0,0 c 0,-3.094 0.852,-5.524 2.558,-7.286 l 0,0 c 1.705,-1.763 4.068,-2.646 7.091,-2.646 l 0,0 c 1.325,0 2.502,0.1 3.533,0.297 l 0,0 c 1.032,0.201 2.052,0.541 3.06,1.021 l 0,0 0,3.358 c -1.138,-0.505 -2.2,-0.865 -3.19,-1.08 l 0,0 c -0.991,-0.218 -2.061,-0.325 -3.208,-0.325 l 0,0 c -1.748,0 -3.101,0.504 -4.061,1.52 l 0,0 c -0.963,1.012 -1.47,2.462 -1.53,4.351 l 0,0 12.954,0 0,2.23 c 0,2.73 -0.742,4.876 -2.23,6.433 l 0,0 c -1.49,1.561 -3.516,2.338 -6.084,2.338 l 0,0 c -2.765,0 -4.938,-0.908 -6.521,-2.723 m 3.366,-1.652 c 0.793,0.832 1.843,1.247 3.155,1.247 l 0,0 c 1.313,0 2.343,-0.412 3.093,-1.24 l 0,0 c 0.751,-0.825 1.138,-2.04 1.161,-3.646 l 0,0 -8.824,0 c 0.152,1.593 0.625,2.806 1.415,3.639"
         id="path7288"
         inkscape:connector-curvature="0" />
    </clipPath>
    <clipPath
       clipPathUnits="userSpaceOnUse"
       id="clipPath7260">
      <path
         d="m 316.076,5954.082 -7.489,-9.439 0,9.439 -3.848,0 0,-9.439 -7.453,9.439 -4.361,0 7.629,-9.404 -8.314,-10.039 4.536,0 7.963,9.861 0,-9.861 3.848,0 0,9.861 7.982,-9.861 4.553,0 -8.334,10.039 7.649,9.404 -4.361,0 z"
         id="path7262"
         inkscape:connector-curvature="0" />
    </clipPath>
    <clipPath
       clipPathUnits="userSpaceOnUse"
       id="clipPath7234">
      <path
         d="m 274.435,5951.779 c -1.618,-1.77 -2.428,-4.23 -2.428,-7.383 l 0,0 c 0,-2.028 0.375,-3.809 1.125,-5.344 l 0,0 c 0.75,-1.535 1.823,-2.713 3.218,-3.533 l 0,0 c 1.395,-0.82 3,-1.23 4.816,-1.23 l 0,0 c 2.905,0 5.173,0.89 6.803,2.67 l 0,0 c 1.628,1.783 2.443,4.261 2.443,7.437 l 0,0 c 0,3.07 -0.82,5.511 -2.46,7.321 l 0,0 c -1.641,1.81 -3.868,2.715 -6.681,2.715 l 0,0 c -2.941,0 -5.221,-0.883 -6.836,-2.653 m 1.827,-7.383 c 0,2.145 0.39,3.79 1.168,4.94 l 0,0 c 0.78,1.148 2.038,1.723 3.771,1.723 l 0,0 c 3.305,0 4.958,-2.22 4.958,-6.663 l 0,0 c 0,-4.489 -1.64,-6.731 -4.923,-6.731 l 0,0 c -3.316,0 -4.974,2.242 -4.974,6.731"
         id="path7236"
         inkscape:connector-curvature="0" />
    </clipPath>
    <clipPath
       clipPathUnits="userSpaceOnUse"
       id="clipPath7208">
      <path
         d="m 261.76,5954.082 -4.36,-10.617 c -0.351,-0.937 -0.768,-2.28 -1.248,-4.025 l 0,0 -0.228,-0.845 c -0.61,2.508 -1.102,4.238 -1.477,5.186 l 0,0 -4.219,10.301 -5.465,0 0,-19.443 3.778,0 0,15.697 c 0.492,-1.91 1.032,-3.625 1.617,-5.148 l 0,0 4.254,-10.549 3.13,0 4.253,10.477 c 0.363,0.892 0.808,2.28 1.335,4.168 l 0,0 0.318,1.052 0,-15.697 3.813,0 0,19.443 -5.501,0 z"
         id="path7210"
         inkscape:connector-curvature="0" />
    </clipPath>
    <clipPath
       clipPathUnits="userSpaceOnUse"
       id="clipPath7182">
      <path
         d="m 214.685,5951.779 c -1.617,-1.77 -2.425,-4.23 -2.425,-7.383 l 0,0 c 0,-2.028 0.375,-3.809 1.125,-5.344 l 0,0 c 0.75,-1.535 1.823,-2.713 3.216,-3.533 l 0,0 c 1.395,-0.82 3,-1.23 4.818,-1.23 l 0,0 c 2.905,0 5.173,0.89 6.801,2.67 l 0,0 c 1.63,1.783 2.443,4.261 2.443,7.437 l 0,0 c 0,3.07 -0.82,5.511 -2.46,7.321 l 0,0 c -1.641,1.81 -3.866,2.715 -6.679,2.715 l 0,0 c -2.943,0 -5.221,-0.883 -6.839,-2.653 m 1.828,-7.383 c 0,2.145 0.39,3.79 1.17,4.94 l 0,0 c 0.778,1.148 2.036,1.723 3.771,1.723 l 0,0 c 3.303,0 4.956,-2.22 4.956,-6.663 l 0,0 c 0,-4.489 -1.64,-6.731 -4.921,-6.731 l 0,0 c -3.318,0 -4.976,2.242 -4.976,6.731"
         id="path7184"
         inkscape:connector-curvature="0" />
    </clipPath>
    <clipPath
       clipPathUnits="userSpaceOnUse"
       id="clipPath7156">
      <path
         d="m 192.872,5954.082 0,-3.235 6.326,0 0,-16.208 4.151,0 0,16.208 6.326,0 0,3.235 -16.803,0 z"
         id="path7158"
         inkscape:connector-curvature="0" />
    </clipPath>
    <clipPath
       clipPathUnits="userSpaceOnUse"
       id="clipPath7130">
      <path
         d="m 187.001,5960.341 -10.406,-12.447 0,12.447 -4.204,0 0,-25.702 4.204,0 0,13.027 10.581,-13.027 4.939,0 -10.88,13.29 10.369,12.412 -4.603,0 z"
         id="path7132"
         inkscape:connector-curvature="0" />
    </clipPath>
    <linearGradient
       x1="0"
       y1="0"
       x2="1"
       y2="0"
       gradientUnits="userSpaceOnUse"
       gradientTransform="matrix(-525.0509,0,0,525.0509,687.0741,5947.4902)"
       spreadMethod="pad"
       id="linearGradient7138">
      <stop
         style="stop-opacity:1;stop-color:#47c0b8"
         offset="0"
         id="stop7140" />
      <stop
         style="stop-opacity:1;stop-color:#47c0b8"
         offset="0.0393917"
         id="stop7142" />
      <stop
         style="stop-opacity:1;stop-color:#47d2b1"
         offset="0.348613"
         id="stop7144" />
      <stop
         style="stop-opacity:1;stop-color:#47d2b1"
         offset="0.4222168"
         id="stop7146" />
      <stop
         style="stop-opacity:1;stop-color:#12b56a"
         offset="1"
         id="stop7148" />
    </linearGradient>
    <clipPath
       clipPathUnits="userSpaceOnUse"
       id="clipPath5234">
      <path
         d="m 0,9963 720,0 L 720,0 0,0 0,9963 Z"
         id="path5236"
         inkscape:connector-curvature="0" />
    </clipPath>
    <clipPath
       clipPathUnits="userSpaceOnUse"
       id="clipPath5208">
      <path
         d="m 59.367,5981.774 c -19.758,-17.896 -21.269,-48.42 -3.373,-68.178 l 0,0 c 17.897,-19.758 48.422,-21.266 68.18,-3.37 l 0,0 c 19.756,17.895 21.266,48.42 3.371,68.177 l 0,0 c -9.529,10.52 -22.634,15.867 -35.79,15.866 l 0,0 c -11.555,0 -23.15,-4.126 -32.388,-12.495"
         id="path5210"
         inkscape:connector-curvature="0" />
    </clipPath>
    <linearGradient
       x1="0"
       y1="0"
       x2="1"
       y2="0"
       gradientUnits="userSpaceOnUse"
       gradientTransform="matrix(-96.53672,0,0,96.53672,140.0376,5946)"
       spreadMethod="pad"
       id="linearGradient5216">
      <stop
         style="stop-opacity:1;stop-color:#47c0b8"
         offset="0"
         id="stop5218" />
      <stop
         style="stop-opacity:1;stop-color:#47c0b8"
         offset="0.0393917"
         id="stop5220" />
      <stop
         style="stop-opacity:1;stop-color:#47d2b1"
         offset="0.348613"
         id="stop5222" />
      <stop
         style="stop-opacity:1;stop-color:#47d2b1"
         offset="0.4222168"
         id="stop5224" />
      <stop
         style="stop-opacity:1;stop-color:#12b56a"
         offset="1"
         id="stop5226" />
    </linearGradient>
    <clipPath
       clipPathUnits="userSpaceOnUse"
       id="clipPath5180">
      <path
         d="m 0,9963 720,0 L 720,0 0,0 0,9963 Z"
         id="path5182"
         inkscape:connector-curvature="0" />
    </clipPath>
    <linearGradient
       x1="0"
       y1="0"
       x2="1"
       y2="0"
       gradientUnits="userSpaceOnUse"
       gradientTransform="matrix(-100.537,0,0,-100.537,14.4941,9995.4038)"
       spreadMethod="pad"
       id="linearGradient5190">
      <stop
         style="stop-opacity:1;stop-color:#47c0b8"
         offset="0"
         id="stop5192" />
      <stop
         style="stop-opacity:1;stop-color:#47c0b8"
         offset="0.0393917"
         id="stop5194" />
      <stop
         style="stop-opacity:1;stop-color:#47d2b1"
         offset="0.348613"
         id="stop5196" />
      <stop
         style="stop-opacity:1;stop-color:#47d2b1"
         offset="0.4222168"
         id="stop5198" />
      <stop
         style="stop-opacity:1;stop-color:#12b56a"
         offset="1"
         id="stop5200" />
    </linearGradient>
    <linearGradient
       inkscape:collect="always"
       xlink:href="#linearGradient7658"
       id="linearGradient21855"
       gradientUnits="userSpaceOnUse"
       gradientTransform="matrix(-525.0509,0,0,525.0509,687.0741,5944.3613)"
       spreadMethod="pad"
       x1="0"
       y1="0"
       x2="1"
       y2="0" />
    <linearGradient
       inkscape:collect="always"
       xlink:href="#linearGradient7658"
       id="linearGradient21857"
       gradientUnits="userSpaceOnUse"
       gradientTransform="matrix(-525.0509,0,0,525.0509,687.0741,5944.3613)"
       spreadMethod="pad"
       x1="0"
       y1="0"
       x2="1"
       y2="0" />
    <linearGradient
       inkscape:collect="always"
       xlink:href="#linearGradient7658"
       id="linearGradient21859"
       gradientUnits="userSpaceOnUse"
       gradientTransform="matrix(-525.0509,0,0,525.0509,687.0741,5944.3613)"
       spreadMethod="pad"
       x1="0"
       y1="0"
       x2="1"
       y2="0" />
    <linearGradient
       inkscape:collect="always"
       xlink:href="#linearGradient7658"
       id="linearGradient21861"
       gradientUnits="userSpaceOnUse"
       gradientTransform="matrix(-525.0509,0,0,525.0509,687.0741,5944.3613)"
       spreadMethod="pad"
       x1="0"
       y1="0"
       x2="1"
       y2="0" />
    <linearGradient
       inkscape:collect="always"
       xlink:href="#linearGradient7658"
       id="linearGradient21863"
       gradientUnits="userSpaceOnUse"
       gradientTransform="matrix(-525.0509,0,0,525.0509,687.0741,5944.3613)"
       spreadMethod="pad"
       x1="0"
       y1="0"
       x2="1"
       y2="0" />
    <linearGradient
       inkscape:collect="always"
       xlink:href="#linearGradient7658"
       id="linearGradient21865"
       gradientUnits="userSpaceOnUse"
       gradientTransform="matrix(-525.0509,0,0,525.0509,687.0741,5944.3613)"
       spreadMethod="pad"
       x1="0"
       y1="0"
       x2="1"
       y2="0" />
    <linearGradient
       inkscape:collect="always"
       xlink:href="#linearGradient7658"
       id="linearGradient21867"
       gradientUnits="userSpaceOnUse"
       gradientTransform="matrix(-525.0509,0,0,525.0509,687.0741,5944.3613)"
       spreadMethod="pad"
       x1="0"
       y1="0"
       x2="1"
       y2="0" />
    <linearGradient
       inkscape:collect="always"
       xlink:href="#linearGradient7658"
       id="linearGradient21869"
       gradientUnits="userSpaceOnUse"
       gradientTransform="matrix(-525.0509,0,0,525.0509,687.0741,5944.3613)"
       spreadMethod="pad"
       x1="0"
       y1="0"
       x2="1"
       y2="0" />
    <linearGradient
       inkscape:collect="always"
       xlink:href="#linearGradient7658"
       id="linearGradient21871"
       gradientUnits="userSpaceOnUse"
       gradientTransform="matrix(-525.0509,0,0,525.0509,687.0741,5944.3613)"
       spreadMethod="pad"
       x1="0"
       y1="0"
       x2="1"
       y2="0" />
    <linearGradient
       inkscape:collect="always"
       xlink:href="#linearGradient7658"
       id="linearGradient21873"
       gradientUnits="userSpaceOnUse"
       gradientTransform="matrix(-525.0509,0,0,525.0509,687.0741,5944.3613)"
       spreadMethod="pad"
       x1="0"
       y1="0"
       x2="1"
       y2="0" />
    <linearGradient
       inkscape:collect="always"
       xlink:href="#linearGradient7658"
       id="linearGradient21875"
       gradientUnits="userSpaceOnUse"
       gradientTransform="matrix(-525.0509,0,0,525.0509,687.0741,5944.3613)"
       spreadMethod="pad"
       x1="0"
       y1="0"
       x2="1"
       y2="0" />
    <linearGradient
       inkscape:collect="always"
       xlink:href="#linearGradient7658"
       id="linearGradient21877"
       gradientUnits="userSpaceOnUse"
       gradientTransform="matrix(-525.0509,0,0,525.0509,687.0741,5944.3613)"
       spreadMethod="pad"
       x1="0"
       y1="0"
       x2="1"
       y2="0" />
    <linearGradient
       inkscape:collect="always"
       xlink:href="#linearGradient7658"
       id="linearGradient21879"
       gradientUnits="userSpaceOnUse"
       gradientTransform="matrix(-525.0509,0,0,525.0509,687.0741,5944.3613)"
       spreadMethod="pad"
       x1="0"
       y1="0"
       x2="1"
       y2="0" />
    <linearGradient
       inkscape:collect="always"
       xlink:href="#linearGradient7658"
       id="linearGradient21881"
       gradientUnits="userSpaceOnUse"
       gradientTransform="matrix(-525.0509,0,0,525.0509,687.0741,5944.3613)"
       spreadMethod="pad"
       x1="0"
       y1="0"
       x2="1"
       y2="0" />
    <linearGradient
       inkscape:collect="always"
       xlink:href="#linearGradient7658"
       id="linearGradient21883"
       gradientUnits="userSpaceOnUse"
       gradientTransform="matrix(-525.0509,0,0,525.0509,687.0741,5944.3613)"
       spreadMethod="pad"
       x1="0"
       y1="0"
       x2="1"
       y2="0" />
    <linearGradient
       inkscape:collect="always"
       xlink:href="#linearGradient7658"
       id="linearGradient21885"
       gradientUnits="userSpaceOnUse"
       gradientTransform="matrix(-525.0509,0,0,525.0509,687.0741,5944.3613)"
       spreadMethod="pad"
       x1="0"
       y1="0"
       x2="1"
       y2="0" />
    <linearGradient
       inkscape:collect="always"
       xlink:href="#linearGradient7658"
       id="linearGradient21887"
       gradientUnits="userSpaceOnUse"
       gradientTransform="matrix(-525.0509,0,0,525.0509,687.0741,5944.3613)"
       spreadMethod="pad"
       x1="0"
       y1="0"
       x2="1"
       y2="0" />
    <linearGradient
       inkscape:collect="always"
       xlink:href="#linearGradient7658"
       id="linearGradient21889"
       gradientUnits="userSpaceOnUse"
       gradientTransform="matrix(-525.0509,0,0,525.0509,687.0741,5944.3613)"
       spreadMethod="pad"
       x1="0"
       y1="0"
       x2="1"
       y2="0" />
  </defs>
  <sodipodi:namedview
     id="base"
     pagecolor="#ffffff"
     bordercolor="#666666"
     borderopacity="1.0"
     inkscape:pageopacity="0.0"
     inkscape:pageshadow="2"
     inkscape:zoom="0.35"
     inkscape:cx="522.13049"
     inkscape:cy="5.6771666"
     inkscape:document-units="px"
     inkscape:current-layer="layer1"
     showgrid="false"
     fit-margin-top="0"
     fit-margin-left="0"
     fit-margin-right="0"
     fit-margin-bottom="0"
     inkscape:window-width="1366"
     inkscape:window-height="718"
     inkscape:window-x="0"
     inkscape:window-y="24"
     inkscape:window-maximized="1" />
  <metadata
     id="metadata21308">
    <rdf:RDF>
      <cc:Work
         rdf:about="">
        <dc:format>image/svg+xml</dc:format>
        <dc:type
           rdf:resource="http://purl.org/dc/dcmitype/StillImage" />
        <dc:title></dc:title>
      </cc:Work>
    </rdf:RDF>
  </metadata>
  <g
     inkscape:label="Layer 1"
     inkscape:groupmode="layer"
     id="layer1"
     transform="translate(147.13049,-412.39928)">
    <g
       transform="matrix(1.25,0,0,-1.25,-199.02219,7907.7197)"
       id="g5176">
      <g
         id="g5178"
         clip-path="url(#clipPath5180)">
        <g
           id="g5184"
           transform="translate(127.5439,5978.4038)">
          <path
             d="m 0,0 c 17.896,-19.758 16.386,-50.282 -3.371,-68.178 -19.758,-17.896 -50.282,-16.387 -68.178,3.371 -17.896,19.758 -16.387,50.282 3.371,68.178 C -48.42,21.267 -17.896,19.758 0,0"
             style="fill:#ffffff;fill-opacity:1;fill-rule:nonzero;stroke:none"
             id="path5186"
             inkscape:connector-curvature="0" />
        </g>
        <g
           id="g5188"
           transform="translate(127.5439,5978.4038)">
          <path
             d="m 0,0 c 17.896,-19.758 16.386,-50.282 -3.371,-68.178 -19.758,-17.896 -50.282,-16.387 -68.178,3.371 -17.896,19.758 -16.387,50.282 3.371,68.178 C -48.42,21.267 -17.896,19.758 0,0 Z"
             style="fill:none;stroke:url(#linearGradient5190);stroke-width:4;stroke-linecap:butt;stroke-linejoin:miter;stroke-miterlimit:10;stroke-dasharray:none;stroke-opacity:1"
             id="path5202"
             inkscape:connector-curvature="0" />
        </g>
      </g>
    </g>
    <g
       transform="matrix(1.25,0,0,-1.25,-199.02219,7907.7197)"
       id="g5204">
      <g
         id="g5206"
         clip-path="url(#clipPath5208)">
        <g
           id="g5212">
          <g
             id="g5214">
            <path
               d="m 59.367,5981.774 c -19.758,-17.896 -21.269,-48.42 -3.373,-68.178 l 0,0 c 17.897,-19.758 48.422,-21.266 68.18,-3.37 l 0,0 c 19.756,17.895 21.266,48.42 3.371,68.177 l 0,0 c -9.529,10.52 -22.634,15.867 -35.79,15.866 l 0,0 c -11.555,0 -23.15,-4.126 -32.388,-12.495"
               style="fill:url(#linearGradient5216);stroke:none"
               id="path5228"
               inkscape:connector-curvature="0" />
          </g>
        </g>
      </g>
    </g>
    <g
       transform="matrix(1.25,0,0,-1.25,-199.02219,7907.7197)"
       id="g5230">
      <g
         id="g5232"
         clip-path="url(#clipPath5234)">
        <g
           id="g5238"
           transform="translate(91.3784,5922.4658)">
          <path
             d="m 0,0 c -1.083,0 -1.963,-0.87 -1.963,-1.951 l 0,-3.926 c 0,-1.081 0.88,-1.963 1.963,-1.963 1.081,0 1.963,0.882 1.963,1.963 l 0,3.926 C 1.963,-0.87 1.081,0 0,0"
             style="fill:#ffffff;fill-opacity:1;fill-rule:nonzero;stroke:none"
             id="path5240"
             inkscape:connector-curvature="0" />
        </g>
        <g
           id="g5242"
           transform="translate(91.5991,5977.374)">
          <path
             d="m 0,0 -0.23,0 c -4.147,0 -8.052,-1.6 -11.01,-4.52 -3.007,-2.967 -4.674,-6.94 -4.674,-11.173 0,-1.081 0.883,-1.951 1.963,-1.951 1.084,0 1.964,0.87 1.964,1.951 0,3.179 1.245,6.156 3.505,8.377 2.259,2.233 5.264,3.466 8.423,3.39 6.204,-0.086 11.507,-5.4 11.596,-11.593 0.056,-4.088 -1.954,-7.851 -5.392,-10.064 -5.216,-3.36 -8.329,-9.306 -8.329,-15.901 l 0,-5.571 c 0,-1.093 0.88,-1.964 1.963,-1.964 1.081,0 1.964,0.871 1.964,1.964 l 0,5.571 c 0,5.178 2.497,10.005 6.529,12.609 4.576,2.949 7.265,7.966 7.188,13.412 C 15.345,-7.056 8.404,-0.125 0,0"
             style="fill:#ffffff;fill-opacity:1;fill-rule:nonzero;stroke:none"
             id="path5244"
             inkscape:connector-curvature="0" />
        </g>
      </g>
    </g>
    <g
       transform="matrix(1.25,0,0,-1.25,-199.02219,7907.7197)"
       id="g7126">
      <g
         id="g7128"
         clip-path="url(#clipPath7130)">
        <g
           id="g7134">
          <g
             id="g7136">
            <path
               d="m 187.001,5960.341 -10.406,-12.447 0,12.447 -4.204,0 0,-25.702 4.204,0 0,13.027 10.581,-13.027 4.939,0 -10.88,13.29 10.369,12.412 -4.603,0 z"
               style="fill:url(#linearGradient7138);stroke:none"
               id="path7150"
               inkscape:connector-curvature="0" />
          </g>
        </g>
      </g>
    </g>
    <g
       transform="matrix(1.25,0,0,-1.25,-199.02219,7907.7197)"
       id="g7152">
      <g
         id="g7154"
         clip-path="url(#clipPath7156)">
        <g
           id="g7160">
          <g
             id="g7162">
            <path
               d="m 192.872,5954.082 0,-3.235 6.326,0 0,-16.208 4.151,0 0,16.208 6.326,0 0,3.235 -16.803,0 z"
               style="fill:url(#linearGradient21855);stroke:none"
               id="path7176"
               inkscape:connector-curvature="0" />
          </g>
        </g>
      </g>
    </g>
    <g
       transform="matrix(1.25,0,0,-1.25,-199.02219,7907.7197)"
       id="g7178">
      <g
         id="g7180"
         clip-path="url(#clipPath7182)">
        <g
           id="g7186">
          <g
             id="g7188">
            <path
               d="m 214.685,5951.779 c -1.617,-1.77 -2.425,-4.23 -2.425,-7.383 l 0,0 c 0,-2.028 0.375,-3.809 1.125,-5.344 l 0,0 c 0.75,-1.535 1.823,-2.713 3.216,-3.533 l 0,0 c 1.395,-0.82 3,-1.23 4.818,-1.23 l 0,0 c 2.905,0 5.173,0.89 6.801,2.67 l 0,0 c 1.63,1.783 2.443,4.261 2.443,7.437 l 0,0 c 0,3.07 -0.82,5.511 -2.46,7.321 l 0,0 c -1.641,1.81 -3.866,2.715 -6.679,2.715 l 0,0 c -2.943,0 -5.221,-0.883 -6.839,-2.653 m 1.828,-7.383 c 0,2.145 0.39,3.79 1.17,4.94 l 0,0 c 0.778,1.148 2.036,1.723 3.771,1.723 l 0,0 c 3.303,0 4.956,-2.22 4.956,-6.663 l 0,0 c 0,-4.489 -1.64,-6.731 -4.921,-6.731 l 0,0 c -3.318,0 -4.976,2.242 -4.976,6.731"
               style="fill:url(#linearGradient21857);stroke:none"
               id="path7202"
               inkscape:connector-curvature="0" />
          </g>
        </g>
      </g>
    </g>
    <g
       transform="matrix(1.25,0,0,-1.25,-199.02219,7907.7197)"
       id="g7204">
      <g
         id="g7206"
         clip-path="url(#clipPath7208)">
        <g
           id="g7212">
          <g
             id="g7214">
            <path
               d="m 261.76,5954.082 -4.36,-10.617 c -0.351,-0.937 -0.768,-2.28 -1.248,-4.025 l 0,0 -0.228,-0.845 c -0.61,2.508 -1.102,4.238 -1.477,5.186 l 0,0 -4.219,10.301 -5.465,0 0,-19.443 3.778,0 0,15.697 c 0.492,-1.91 1.032,-3.625 1.617,-5.148 l 0,0 4.254,-10.549 3.13,0 4.253,10.477 c 0.363,0.892 0.808,2.28 1.335,4.168 l 0,0 0.318,1.052 0,-15.697 3.813,0 0,19.443 -5.501,0 z"
               style="fill:url(#linearGradient21859);stroke:none"
               id="path7228"
               inkscape:connector-curvature="0" />
          </g>
        </g>
      </g>
    </g>
    <g
       transform="matrix(1.25,0,0,-1.25,-199.02219,7907.7197)"
       id="g7230">
      <g
         id="g7232"
         clip-path="url(#clipPath7234)">
        <g
           id="g7238">
          <g
             id="g7240">
            <path
               d="m 274.435,5951.779 c -1.618,-1.77 -2.428,-4.23 -2.428,-7.383 l 0,0 c 0,-2.028 0.375,-3.809 1.125,-5.344 l 0,0 c 0.75,-1.535 1.823,-2.713 3.218,-3.533 l 0,0 c 1.395,-0.82 3,-1.23 4.816,-1.23 l 0,0 c 2.905,0 5.173,0.89 6.803,2.67 l 0,0 c 1.628,1.783 2.443,4.261 2.443,7.437 l 0,0 c 0,3.07 -0.82,5.511 -2.46,7.321 l 0,0 c -1.641,1.81 -3.868,2.715 -6.681,2.715 l 0,0 c -2.941,0 -5.221,-0.883 -6.836,-2.653 m 1.827,-7.383 c 0,2.145 0.39,3.79 1.168,4.94 l 0,0 c 0.78,1.148 2.038,1.723 3.771,1.723 l 0,0 c 3.305,0 4.958,-2.22 4.958,-6.663 l 0,0 c 0,-4.489 -1.64,-6.731 -4.923,-6.731 l 0,0 c -3.316,0 -4.974,2.242 -4.974,6.731"
               style="fill:url(#linearGradient21861);stroke:none"
               id="path7254"
               inkscape:connector-curvature="0" />
          </g>
        </g>
      </g>
    </g>
    <g
       transform="matrix(1.25,0,0,-1.25,-199.02219,7907.7197)"
       id="g7256">
      <g
         id="g7258"
         clip-path="url(#clipPath7260)">
        <g
           id="g7264">
          <g
             id="g7266">
            <path
               d="m 316.076,5954.082 -7.489,-9.439 0,9.439 -3.848,0 0,-9.439 -7.453,9.439 -4.361,0 7.629,-9.404 -8.314,-10.039 4.536,0 7.963,9.861 0,-9.861 3.848,0 0,9.861 7.982,-9.861 4.553,0 -8.334,10.039 7.649,9.404 -4.361,0 z"
               style="fill:url(#linearGradient21863);stroke:none"
               id="path7280"
               inkscape:connector-curvature="0" />
          </g>
        </g>
      </g>
    </g>
    <g
       transform="matrix(1.25,0,0,-1.25,-199.02219,7907.7197)"
       id="g7282">
      <g
         id="g7284"
         clip-path="url(#clipPath7286)">
        <g
           id="g7290">
          <g
             id="g7292">
            <path
               d="m 325.322,5951.709 c -1.582,-1.817 -2.372,-4.313 -2.372,-7.488 l 0,0 c 0,-3.094 0.852,-5.524 2.558,-7.286 l 0,0 c 1.705,-1.763 4.068,-2.646 7.091,-2.646 l 0,0 c 1.325,0 2.502,0.1 3.533,0.297 l 0,0 c 1.032,0.201 2.052,0.541 3.06,1.021 l 0,0 0,3.358 c -1.138,-0.505 -2.2,-0.865 -3.19,-1.08 l 0,0 c -0.991,-0.218 -2.061,-0.325 -3.208,-0.325 l 0,0 c -1.748,0 -3.101,0.504 -4.061,1.52 l 0,0 c -0.963,1.012 -1.47,2.462 -1.53,4.351 l 0,0 12.954,0 0,2.23 c 0,2.73 -0.742,4.876 -2.23,6.433 l 0,0 c -1.49,1.561 -3.516,2.338 -6.084,2.338 l 0,0 c -2.765,0 -4.938,-0.908 -6.521,-2.723 m 3.366,-1.652 c 0.793,0.832 1.843,1.247 3.155,1.247 l 0,0 c 1.313,0 2.343,-0.412 3.093,-1.24 l 0,0 c 0.751,-0.825 1.138,-2.04 1.161,-3.646 l 0,0 -8.824,0 c 0.152,1.593 0.625,2.806 1.415,3.639"
               style="fill:url(#linearGradient21865);stroke:none"
               id="path7306"
               inkscape:connector-curvature="0" />
          </g>
        </g>
      </g>
    </g>
    <g
       transform="matrix(1.25,0,0,-1.25,-199.02219,7907.7197)"
       id="g7308">
      <g
         id="g7310"
         clip-path="url(#clipPath7312)">
        <g
           id="g7316">
          <g
             id="g7318">
            <path
               d="m 342.655,5954.082 0,-3.235 6.329,0 0,-16.208 4.148,0 0,16.208 6.328,0 0,3.235 -16.805,0 z"
               style="fill:url(#linearGradient21867);stroke:none"
               id="path7332"
               inkscape:connector-curvature="0" />
          </g>
        </g>
      </g>
    </g>
    <g
       transform="matrix(1.25,0,0,-1.25,-199.02219,7907.7197)"
       id="g7334">
      <g
         id="g7336"
         clip-path="url(#clipPath7338)">
        <g
           id="g7342">
          <g
             id="g7344">
            <path
               d="m 376.685,5951.479 -0.21,0 c -0.292,1.373 -0.487,2.241 -0.58,2.603 l 0,0 -3.34,0 0,-28.089 4.13,0 0,7.961 c 0,0.353 -0.082,1.348 -0.245,2.988 l 0,0 0.245,0 c 1.361,-1.768 3.271,-2.653 5.731,-2.653 l 0,0 c 2.426,0 4.326,0.89 5.704,2.67 l 0,0 c 1.377,1.783 2.065,4.261 2.065,7.437 l 0,0 c 0,3.175 -0.675,5.643 -2.03,7.401 l 0,0 c -1.353,1.758 -3.243,2.635 -5.669,2.635 l 0,0 c -2.578,0 -4.51,-0.982 -5.801,-2.953 m 1.126,-12.224 c -0.751,1.06 -1.126,2.775 -1.126,5.141 l 0,0 0,0.615 c 0,2.11 0.378,3.645 1.136,4.605 l 0,0 c 0.755,0.963 1.952,1.443 3.593,1.443 l 0,0 c 1.487,0 2.617,-0.56 3.383,-1.68 l 0,0 c 0.767,-1.118 1.152,-2.768 1.152,-4.948 l 0,0 c 0,-2.168 -0.387,-3.838 -1.16,-5.009 l 0,0 c -0.773,-1.172 -1.875,-1.757 -3.305,-1.757 l 0,0 c -1.698,0 -2.923,0.53 -3.673,1.59"
               style="fill:url(#linearGradient7346);stroke:none"
               id="path7358"
               inkscape:connector-curvature="0" />
          </g>
        </g>
      </g>
    </g>
    <g
       transform="matrix(1.25,0,0,-1.25,-199.02219,7907.7197)"
       id="g7360">
      <g
         id="g7362"
         clip-path="url(#clipPath7364)">
        <g
           id="g7368">
          <g
             id="g7370">
            <path
               d="m 396.198,5951.709 c -1.582,-1.817 -2.375,-4.313 -2.375,-7.488 l 0,0 c 0,-3.094 0.853,-5.524 2.558,-7.286 l 0,0 c 1.705,-1.763 4.071,-2.646 7.093,-2.646 l 0,0 c 1.326,0 2.503,0.1 3.534,0.297 l 0,0 c 1.032,0.201 2.05,0.541 3.057,1.021 l 0,0 0,3.358 c -1.135,-0.505 -2.2,-0.865 -3.19,-1.08 l 0,0 c -0.99,-0.218 -2.058,-0.325 -3.208,-0.325 l 0,0 c -1.745,0 -3.098,0.504 -4.061,1.52 l 0,0 c -0.96,1.012 -1.47,2.462 -1.527,4.351 l 0,0 12.954,0 0,2.23 c 0,2.73 -0.745,4.876 -2.233,6.433 l 0,0 c -1.487,1.561 -3.515,2.338 -6.081,2.338 l 0,0 c -2.765,0 -4.94,-0.908 -6.521,-2.723 m 3.366,-1.652 c 0.79,0.832 1.843,1.247 3.155,1.247 l 0,0 c 1.313,0 2.343,-0.412 3.093,-1.24 l 0,0 c 0.75,-0.825 1.138,-2.04 1.161,-3.646 l 0,0 -8.824,0 c 0.152,1.593 0.622,2.806 1.415,3.639"
               style="fill:url(#linearGradient21869);stroke:none"
               id="path7384"
               inkscape:connector-curvature="0" />
          </g>
        </g>
      </g>
    </g>
    <g
       transform="matrix(1.25,0,0,-1.25,-199.02219,7907.7197)"
       id="g7386">
      <g
         id="g7388"
         clip-path="url(#clipPath7390)">
        <g
           id="g7394">
          <g
             id="g7396">
            <path
               d="m 427.786,5954.082 -7.929,-9.439 0,9.439 -4.131,0 0,-19.443 4.131,0 0,9.861 8.404,-9.861 4.746,0 -8.719,10.074 8.033,9.369 -4.535,0 z"
               style="fill:url(#linearGradient21871);stroke:none"
               id="path7410"
               inkscape:connector-curvature="0" />
          </g>
        </g>
      </g>
    </g>
    <g
       transform="matrix(1.25,0,0,-1.25,-199.02219,7907.7197)"
       id="g7412">
      <g
         id="g7414"
         clip-path="url(#clipPath7416)">
        <g
           id="g7420">
          <g
             id="g7422">
            <path
               d="m 437.47,5951.779 c -1.616,-1.77 -2.426,-4.23 -2.426,-7.383 l 0,0 c 0,-2.028 0.375,-3.809 1.125,-5.344 l 0,0 c 0.751,-1.535 1.823,-2.713 3.219,-3.533 l 0,0 c 1.392,-0.82 2.997,-1.23 4.815,-1.23 l 0,0 c 2.906,0 5.174,0.89 6.804,2.67 l 0,0 c 1.628,1.783 2.443,4.261 2.443,7.437 l 0,0 c 0,3.07 -0.82,5.511 -2.461,7.321 l 0,0 c -1.642,1.81 -3.868,2.715 -6.681,2.715 l 0,0 c -2.94,0 -5.221,-0.883 -6.838,-2.653 m 1.83,-7.383 c 0,2.145 0.388,3.79 1.168,4.94 l 0,0 c 0.78,1.148 2.035,1.723 3.77,1.723 l 0,0 c 3.306,0 4.959,-2.22 4.959,-6.663 l 0,0 c 0,-4.489 -1.643,-6.731 -4.924,-6.731 l 0,0 c -3.315,0 -4.973,2.242 -4.973,6.731"
               style="fill:url(#linearGradient21873);stroke:none"
               id="path7436"
               inkscape:connector-curvature="0" />
          </g>
        </g>
      </g>
    </g>
    <g
       transform="matrix(1.25,0,0,-1.25,-199.02219,7907.7197)"
       id="g7438">
      <g
         id="g7440"
         clip-path="url(#clipPath7442)">
        <g
           id="g7446">
          <g
             id="g7448">
            <path
               d="m 475.193,5954.082 -4.358,-10.617 c -0.353,-0.937 -0.768,-2.28 -1.248,-4.025 l 0,0 -0.23,-0.845 c -0.61,2.508 -1.1,4.238 -1.475,5.186 l 0,0 -4.221,10.301 -5.466,0 0,-19.443 3.778,0 0,15.697 c 0.493,-1.91 1.033,-3.625 1.618,-5.148 l 0,0 4.256,-10.549 3.128,0 4.253,10.477 c 0.363,0.892 0.81,2.28 1.335,4.168 l 0,0 0.318,1.052 0,-15.697 3.815,0 0,19.443 -5.503,0 z"
               style="fill:url(#linearGradient21875);stroke:none"
               id="path7462"
               inkscape:connector-curvature="0" />
          </g>
        </g>
      </g>
    </g>
    <g
       transform="matrix(1.25,0,0,-1.25,-199.02219,7907.7197)"
       id="g7464">
      <g
         id="g7466"
         clip-path="url(#clipPath7468)">
        <g
           id="g7472">
          <g
             id="g7474">
            <path
               d="m 487.815,5951.709 c -1.583,-1.817 -2.373,-4.313 -2.373,-7.488 l 0,0 c 0,-3.094 0.853,-5.524 2.558,-7.286 l 0,0 c 1.705,-1.763 4.068,-2.646 7.091,-2.646 l 0,0 c 1.325,0 2.503,0.1 3.533,0.297 l 0,0 c 1.033,0.201 2.053,0.541 3.061,1.021 l 0,0 0,3.358 c -1.138,-0.505 -2.201,-0.865 -3.191,-1.08 l 0,0 c -0.99,-0.218 -2.06,-0.325 -3.208,-0.325 l 0,0 c -1.748,0 -3.1,0.504 -4.061,1.52 l 0,0 c -0.962,1.012 -1.472,2.462 -1.53,4.351 l 0,0 12.955,0 0,2.23 c 0,2.73 -0.743,4.876 -2.233,6.433 l 0,0 c -1.488,1.561 -3.516,2.338 -6.081,2.338 l 0,0 c -2.765,0 -4.938,-0.908 -6.521,-2.723 m 3.365,-1.652 c 0.791,0.832 1.843,1.247 3.156,1.247 l 0,0 c 1.313,0 2.343,-0.412 3.093,-1.24 l 0,0 c 0.75,-0.825 1.138,-2.04 1.16,-3.646 l 0,0 -8.824,0 c 0.153,1.593 0.625,2.806 1.415,3.639"
               style="fill:url(#linearGradient21877);stroke:none"
               id="path7488"
               inkscape:connector-curvature="0" />
          </g>
        </g>
      </g>
    </g>
    <g
       transform="matrix(1.25,0,0,-1.25,-199.02219,7907.7197)"
       id="g7490">
      <g
         id="g7492"
         clip-path="url(#clipPath7494)">
        <g
           id="g7498">
          <g
             id="g7500">
            <path
               d="m 520.632,5954.082 0,-7.806 -9.158,0 0,7.806 -4.131,0 0,-19.443 4.131,0 0,8.386 9.158,0 0,-8.386 4.131,0 0,19.443 -4.131,0 z"
               style="fill:url(#linearGradient21879);stroke:none"
               id="path7514"
               inkscape:connector-curvature="0" />
          </g>
        </g>
      </g>
    </g>
    <g
       transform="matrix(1.25,0,0,-1.25,-199.02219,7907.7197)"
       id="g7516">
      <g
         id="g7518"
         clip-path="url(#clipPath7520)">
        <g
           id="g7524">
          <g
             id="g7526">
            <path
               d="m 534.66,5954.082 c -0.153,-3.235 -0.635,-6.256 -1.451,-9.061 l 0,0 c -0.815,-2.808 -1.912,-5.201 -3.295,-7.181 l 0,0 -1.583,0 0,-10.072 3.816,0 0,6.871 13.324,0 0,-6.871 3.848,0 0,10.072 -2.848,0 0,16.242 -11.811,0 z m 2.17,-10.301 c 0.71,2.345 1.175,4.723 1.398,7.136 l 0,0 4.185,0 0,-13.077 -8.176,0 c 1.02,1.618 1.885,3.598 2.593,5.941"
               style="fill:url(#linearGradient7528);stroke:none"
               id="path7540"
               inkscape:connector-curvature="0" />
          </g>
        </g>
      </g>
    </g>
    <g
       transform="matrix(1.25,0,0,-1.25,-199.02219,7907.7197)"
       id="g7542">
      <g
         id="g7544"
         clip-path="url(#clipPath7546)">
        <g
           id="g7550">
          <g
             id="g7552">
            <path
               d="m 554.19,5951.779 c -1.618,-1.77 -2.425,-4.23 -2.425,-7.383 l 0,0 c 0,-2.028 0.375,-3.809 1.122,-5.344 l 0,0 c 0.751,-1.535 1.823,-2.713 3.218,-3.533 l 0,0 c 1.396,-0.82 3.001,-1.23 4.816,-1.23 l 0,0 c 2.908,0 5.173,0.89 6.804,2.67 l 0,0 c 1.627,1.783 2.443,4.261 2.443,7.437 l 0,0 c 0,3.07 -0.821,5.511 -2.461,7.321 l 0,0 c -1.64,1.81 -3.868,2.715 -6.681,2.715 l 0,0 c -2.94,0 -5.221,-0.883 -6.836,-2.653 m 1.828,-7.383 c 0,2.145 0.39,3.79 1.168,4.94 l 0,0 c 0.78,1.148 2.037,1.723 3.77,1.723 l 0,0 c 3.306,0 4.958,-2.22 4.958,-6.663 l 0,0 c 0,-4.489 -1.64,-6.731 -4.923,-6.731 l 0,0 c -3.315,0 -4.973,2.242 -4.973,6.731"
               style="fill:url(#linearGradient21881);stroke:none"
               id="path7566"
               inkscape:connector-curvature="0" />
          </g>
        </g>
      </g>
    </g>
    <g
       transform="matrix(1.25,0,0,-1.25,-199.02219,7907.7197)"
       id="g7568">
      <g
         id="g7570"
         clip-path="url(#clipPath7572)">
        <g
           id="g7576">
          <g
             id="g7578">
            <path
               d="m 574.913,5954.082 0,-19.443 9.282,0 c 2.673,0 4.708,0.498 6.108,1.488 l 0,0 c 1.4,0.99 2.101,2.405 2.101,4.243 l 0,0 c 0,1.23 -0.398,2.233 -1.196,3.005 l 0,0 c -0.795,0.775 -1.945,1.25 -3.445,1.426 l 0,0 0,0.14 c 2.685,0.48 4.025,1.87 4.025,4.165 l 0,0 c 0,3.318 -2.543,4.976 -7.628,4.976 l 0,0 -9.247,0 z m 4.131,-3.13 5.011,0 c 1.195,0 2.095,-0.173 2.698,-0.518 l 0,0 c 0.602,-0.345 0.905,-0.905 0.905,-1.678 l 0,0 c 0,-0.937 -0.358,-1.585 -1.073,-1.943 l 0,0 c -0.715,-0.357 -1.763,-0.537 -3.145,-0.537 l 0,0 -4.396,0 0,4.676 z m 0,-7.751 4.766,0 c 1.452,0 2.543,-0.196 3.268,-0.588 l 0,0 c 0.727,-0.393 1.09,-1.058 1.09,-1.995 l 0,0 c 0,-1.946 -1.418,-2.918 -4.253,-2.918 l 0,0 -4.871,0 0,5.501 z"
               style="fill:url(#linearGradient21883);stroke:none"
               id="path7592"
               inkscape:connector-curvature="0" />
          </g>
        </g>
      </g>
    </g>
    <g
       transform="matrix(1.25,0,0,-1.25,-199.02219,7907.7197)"
       id="g7594">
      <g
         id="g7596"
         clip-path="url(#clipPath7598)">
        <g
           id="g7602">
          <g
             id="g7604">
            <path
               d="m 600.737,5954.002 c -1.255,-0.288 -2.41,-0.705 -3.463,-1.255 l 0,0 1.335,-2.955 c 0.843,0.399 1.723,0.745 2.636,1.037 l 0,0 c 0.915,0.293 1.87,0.44 2.865,0.44 l 0,0 c 1.221,0 2.121,-0.308 2.701,-0.922 l 0,0 c 0.58,-0.616 0.87,-1.546 0.87,-2.786 l 0,0 0,-1.038 -3.358,-0.105 c -3.048,-0.095 -5.316,-0.649 -6.804,-1.67 l 0,0 c -1.487,-1.02 -2.233,-2.533 -2.233,-4.536 l 0,0 c 0,-1.887 0.538,-3.345 1.611,-4.375 l 0,0 c 1.07,-1.033 2.563,-1.548 4.473,-1.548 l 0,0 c 1.488,0 2.705,0.212 3.655,0.64 l 0,0 c 0.951,0.43 1.893,1.236 2.831,2.418 l 0,0 0.14,0 0.825,-2.708 2.955,0 0,13.097 c 0,2.308 -0.63,4.003 -1.89,5.081 l 0,0 c -1.26,1.078 -3.125,1.615 -5.598,1.615 l 0,0 c -1.115,0 -2.298,-0.142 -3.551,-0.43 m -0.387,-15.837 c -0.515,0.475 -0.773,1.145 -0.773,2.013 l 0,0 c 0,1.195 0.443,2.082 1.325,2.662 l 0,0 c 0.885,0.58 2.301,0.906 4.246,0.975 l 0,0 2.495,0.105 0,-1.685 c 0,-1.512 -0.452,-2.688 -1.36,-3.525 l 0,0 c -0.91,-0.838 -2.113,-1.258 -3.613,-1.258 l 0,0 c -1.033,0 -1.805,0.237 -2.32,0.713"
               style="fill:url(#linearGradient21885);stroke:none"
               id="path7618"
               inkscape:connector-curvature="0" />
          </g>
        </g>
      </g>
    </g>
    <g
       transform="matrix(1.25,0,0,-1.25,-199.02219,7907.7197)"
       id="g7620">
      <g
         id="g7622"
         clip-path="url(#clipPath7624)">
        <g
           id="g7628">
          <g
             id="g7630">
            <path
               d="m 615.345,5954.082 0,-3.235 6.328,0 0,-16.208 4.148,0 0,16.208 6.329,0 0,3.235 -16.805,0 z"
               style="fill:url(#linearGradient21887);stroke:none"
               id="path7644"
               inkscape:connector-curvature="0" />
          </g>
        </g>
      </g>
    </g>
    <g
       transform="matrix(1.25,0,0,-1.25,-199.02219,7907.7197)"
       id="g7646">
      <g
         id="g7648"
         clip-path="url(#clipPath7650)">
        <g
           id="g7654">
          <g
             id="g7656">
            <path
               d="m 635.893,5954.082 0,-19.443 8.999,0 c 2.66,0 4.683,0.515 6.066,1.54 l 0,0 c 1.382,1.026 2.072,2.528 2.072,4.509 l 0,0 c 0,3.75 -2.713,5.625 -8.138,5.625 l 0,0 -4.869,0 0,7.769 -4.13,0 z m 4.13,-10.881 4.624,0 c 1.347,0 2.39,-0.193 3.127,-0.58 l 0,0 c 0.741,-0.386 1.108,-1.066 1.108,-2.038 l 0,0 c 0,-0.938 -0.355,-1.653 -1.062,-2.146 l 0,0 c -0.711,-0.492 -1.743,-0.737 -3.103,-0.737 l 0,0 -4.694,0 0,5.501 z"
               style="fill:url(#linearGradient21889);stroke:none"
               id="path7670"
               inkscape:connector-curvature="0" />
          </g>
        </g>
      </g>
    </g>
    <g
       transform="matrix(1.25,0,0,-1.25,-199.02219,7907.7197)"
       id="g7672">
      <g
         id="g7674"
         clip-path="url(#clipPath7676)">
        <g
           id="g7680">
          <g
             id="g7682">
            <path
               d="m 654.931,5958.723 1.475,-3.093 c 0.902,0.445 1.828,0.825 2.778,1.14 l 0,0 c 0.95,0.317 1.98,0.475 3.093,0.475 l 0,0 c 1.23,0 2.175,-0.263 2.83,-0.79 l 0,0 c 0.658,-0.528 0.985,-1.283 0.985,-2.268 l 0,0 c 0,-0.842 -0.202,-1.57 -0.607,-2.18 l 0,0 c -0.403,-0.608 -1.303,-1.465 -2.698,-2.566 l 0,0 c -1.173,-0.915 -1.993,-1.8 -2.461,-2.655 l 0,0 c -0.47,-0.855 -0.702,-1.928 -0.702,-3.216 l 0,0 0,-1.125 3.445,0 0,0.79 c 0,0.951 0.183,1.706 0.553,2.268 l 0,0 c 0.37,0.563 1.098,1.273 2.188,2.128 l 0,0 c 1.277,0.995 2.178,1.806 2.698,2.426 l 0,0 c 0.522,0.62 0.912,1.275 1.17,1.96 l 0,0 c 0.257,0.685 0.387,1.467 0.387,2.345 l 0,0 c 0,1.98 -0.675,3.533 -2.022,4.659 l 0,0 c -1.348,1.125 -3.171,1.687 -5.466,1.687 l 0,0 c -2.721,0 -5.269,-0.663 -7.646,-1.985 m 3.97,-21.886 c 0,-0.855 0.223,-1.52 0.67,-1.995 l 0,0 c 0.445,-0.473 1.083,-0.711 1.916,-0.711 l 0,0 c 0.832,0 1.472,0.243 1.925,0.728 l 0,0 c 0.45,0.488 0.675,1.148 0.675,1.978 l 0,0 c 0,0.845 -0.222,1.497 -0.668,1.96 l 0,0 c -0.445,0.463 -1.09,0.695 -1.932,0.695 l 0,0 c -1.723,0 -2.586,-0.885 -2.586,-2.655"
               style="fill:url(#linearGradient7684);stroke:none"
               id="path7696"
               inkscape:connector-curvature="0" />
          </g>
        </g>
      </g>
    </g>
  </g>
</svg>
