<?xml version="1.0" encoding="utf-8"?>
<!-- Generator: Adobe Illustrator 22.1.0, SVG Export Plug-In . SVG Version: 6.00 Build 0)  -->
<svg version="1.1" id="Layer_1" xmlns="http://www.w3.org/2000/svg" xmlns:xlink="http://www.w3.org/1999/xlink" x="0px" y="0px"
	 viewBox="0 0 937.2 434" style="enable-background:new 0 0 937.2 434;" xml:space="preserve">
<style type="text/css">
	.st0{fill:#FFFFFF;}
</style>
<g>
	<g>
		<g>
			<g>
				<g>
					<path class="st0" d="M441,325c-0.1,4.5-1.6,8.4-4.1,12.2c-0.3,0.5,0.5,1.7,0.9,1.1c2.5-3.9,4.2-8.1,4.3-12.7
						C442.1,325,441,324.1,441,325L441,325z"/>
				</g>
				<g>
					<path class="st0" d="M427,341.5c-2.9,2.8-6.8,4.1-9.7,6.9c0,0,1.1,0.9,1.3,0.7c2.9-2.8,6.8-4.1,9.7-6.9
						C428.3,342.2,427.2,341.3,427,341.5L427,341.5z"/>
				</g>
				<g>
					<path class="st0" d="M407.7,351.3c-0.9,0.8-2.2,1-3.3,1.4c-1.1,0.3-2.2,0.7-3.3,1.2c-0.9,0.4-0.1,1.2,0.6,0.9
						c2.3-1.1,5.3-1.2,7.2-3C409.5,351.2,408.1,350.9,407.7,351.3L407.7,351.3z"/>
				</g>
				<g>
					<path class="st0" d="M388.8,355.2c-2.8,0-5.5,0-8.3,0c-0.9,0-0.9,1,0.1,1c2.8,0,5.5,0,8.3,0
						C389.8,356.2,389.7,355.2,388.8,355.2L388.8,355.2z"/>
				</g>
				<g>
					<path class="st0" d="M367.2,356.7c-3.2,0-6.5,0.1-9.5-1.3c-0.4-0.2-1.6,0.4-1.4,0.5c3.1,1.5,6.5,1.4,9.9,1.4
						C366.6,357.4,367.9,356.7,367.2,356.7L367.2,356.7z"/>
				</g>
				<g>
					<path class="st0" d="M341.6,352.3c-2.1,0-3.4-1.1-4.8-2.5c-0.6-0.5-1.8-0.1-1.1,0.6c1.8,1.8,3.6,3,6.2,3.1
						C342.9,353.5,342.4,352.3,341.6,352.3L341.6,352.3z"/>
				</g>
				<g>
					<path class="st0" d="M320.6,341.2c-2.1-0.1-3.6-1-5-2.5c-0.7-0.7-0.9,0.2-0.4,0.8c1.8,1.7,3.5,3,6.1,3
						C321.8,342.5,321.2,341.2,320.6,341.2L320.6,341.2z"/>
				</g>
				<g>
					<path class="st0" d="M306.3,326.5c-1.4-1.4-2.8-2.8-4.2-4.1c-0.2-0.2-0.6-0.5-1-0.4c-0.3,0.1-0.3,0.5-0.1,0.7
						c1.4,1.4,2.8,2.8,4.2,4.1c0.2,0.2,0.6,0.5,1,0.4C306.5,327.1,306.5,326.7,306.3,326.5L306.3,326.5z"/>
				</g>
			</g>
			<g>
				<g>
					<path class="st0" d="M518,63.1c-1.5-4.3-1.6-8.6-0.6-13c0.1-0.4-1.2-1-1.3-0.8c-0.9,4.5-1,8.8,0.6,13.2
						C516.8,62.8,518,63.3,518,63.1L518,63.1z"/>
				</g>
				<g>
					<path class="st0" d="M524.8,42.8c1.7-3.6,4.8-6.3,6.5-9.9c0.1-0.2-1.1-1-1.1-1c-1.7,3.6-4.8,6.3-6.5,9.9
						C523.6,42,524.8,42.8,524.8,42.8L524.8,42.8z"/>
				</g>
				<g>
					<path class="st0" d="M539.5,26.7c0.5-1,1.4-1.7,2.2-2.3c1.1-0.9,2.2-1.7,3.2-2.7c0.2-0.2-1-1.1-1.3-0.8c-1,1-2.1,1.9-3.2,2.7
						c-0.9,0.7-1.8,1.3-2.2,2.3C538,26.2,539.3,27,539.5,26.7L539.5,26.7z"/>
				</g>
				<g>
					<path class="st0" d="M555.2,15.8c2.6-1,5.2-2,7.8-3c0.3-0.1,1.3-1,0.5-0.7c-2.6,1-5.2,2-7.8,3
						C555.3,15.3,554.3,16.2,555.2,15.8L555.2,15.8z"/>
				</g>
				<g>
					<path class="st0" d="M576.1,6.7c3-1.2,6-2.4,9.3-2.2c0.9,0.1,0-1-0.5-1.1c-3.5-0.2-6.6,1-9.8,2.2
						C574.5,5.9,575.6,6.9,576.1,6.7L576.1,6.7z"/>
				</g>
				<g>
					<path class="st0" d="M600.7,1.8c2.1-0.7,3.8-0.3,5.7,0.6c0.9,0.4,0.8-1,0.2-1.3c-2.2-1-4.2-1.4-6.6-0.6
						C599.3,0.7,600,2,600.7,1.8L600.7,1.8z"/>
				</g>
				<g>
					<path class="st0" d="M624,4.4c2-0.7,3.6-0.2,5.4,0.6c0.6,0.3,1.7-0.5,0.9-0.9c-2.3-1-4.4-1.4-6.9-0.6
						C622.5,3.8,623.3,4.6,624,4.4L624,4.4z"/>
				</g>
				<g>
					<path class="st0" d="M643.3,13.1c1.8,0.8,3.6,1.6,5.4,2.4c0.9,0.4,0.9-0.6,0.2-0.9c-1.8-0.8-3.6-1.6-5.4-2.4
						C642.6,11.7,642.6,12.8,643.3,13.1L643.3,13.1z"/>
				</g>
			</g>
			<g>
				<path class="st0" d="M460.2,326.8c-0.9,2.5-2.3,4.9-4.1,6.8c-0.4,0.4,1,0.3,1.3,0c1.9-1.9,3.3-4.4,4.2-7
					C461.8,326.2,460.3,326.3,460.2,326.8L460.2,326.8z"/>
			</g>
			<g>
				<path class="st0" d="M449.1,343.3c-0.1,3.6-3.8,5.8-6.8,6.8c-0.2,0.1,1,0.2,1.3,0c3.1-1.1,6.9-3.3,7-7
					C450.6,343.1,449.1,343.1,449.1,343.3L449.1,343.3z"/>
			</g>
			<g>
				<path class="st0" d="M434,354.6c0.4,0.2,0.7,0.4,0.3,0.8c-0.4,0.4-1.2,0.7-1.8,1c-1.4,0.6-2.7,1.1-4.1,1.7c-0.8,0.4,0.5,1,1,0.7
					c1.8-0.9,3.8-1.4,5.4-2.4c1.2-0.7,1.5-1.7,0.1-2.4c-0.3-0.2-0.8-0.3-1.1,0C433.8,354.1,433.7,354.4,434,354.6L434,354.6z"/>
			</g>
			<g>
				<path class="st0" d="M414.8,364.8c-2.1,1.1-4.1,2.6-6.6,2.7c-0.9,0-0.9,1.3,0,1.3c2.8-0.1,4.9-1.6,7.3-2.9
					C416.4,365.4,415.5,364.4,414.8,364.8L414.8,364.8z"/>
			</g>
			<g>
				<path class="st0" d="M395.3,371.7c-1.5,1.5-3.5,1.4-5.5,1.4c0.2,0,0.6,1.1,1,1.1c2,0,4,0.1,5.5-1.4
					C396.4,372.7,395.4,371.6,395.3,371.7L395.3,371.7z"/>
			</g>
			<g>
				<path class="st0" d="M377.4,374.4c-2.2,1-4.4,1.3-6.8,1.3c-0.6,0,0,1.3,0.6,1.3c2.5,0,4.8-0.4,7-1.4
					C378.7,375.4,377.9,374.1,377.4,374.4L377.4,374.4z"/>
			</g>
			<g>
				<path class="st0" d="M359.1,376.3c-1.7,0.4-3.3,0.3-4.8-0.7c-0.6-0.4-1.9,0.2-1.1,0.7c1.9,1.4,4,1.7,6.3,1.1
					C360.4,377.2,360,376.1,359.1,376.3L359.1,376.3z"/>
			</g>
			<g>
				<path class="st0" d="M349.4,379.6c-1-1.8-2.2-3.4-3.6-4.9c-0.6-0.6-4.4-3.5-4-4.3c0.2-0.5,5-1.5,5.6-1.7c1.6-0.7,3-1.6,4.3-2.7
					c0.1-0.1-1.1-0.5-1.4-0.2c-2.9,2.7-6.8,3.6-10.5,4.6c0,0-0.2,0.1-0.1,0.1c3.2,2.7,6.3,5.5,8.3,9.2
					C348.1,379.9,349.5,379.8,349.4,379.6L349.4,379.6z"/>
			</g>
			<g>
				<path class="st0" d="M337.9,377.1c-1.5-1.6-3.2-3-5-4.3c-1-0.7-2-1.3-3.1-2c-1-0.7-3-1.2-1.8-2.6c0.7-0.8,2.7-1.2,3.7-1.5
					c1.1-0.4,2.2-0.8,3.2-1.2c1.7-0.7,3.2-1.5,4.7-2.5c0.2-0.1-1,0-1.3,0.2c-3.9,2.8-8.8,3.6-12.9,6c-0.1,0-0.1,0.1,0,0.1
					c3.7,2.7,7.9,4.8,11,8.3C336.7,377.8,337.9,377.1,337.9,377.1L337.9,377.1z"/>
			</g>
			<g>
				<path class="st0" d="M318.8,371.8c-2.3-2.3-4.4-4.9-6.2-7.6c-0.3,0.3-0.5,0.6-0.8,0.9c3.5-1.4,7-2.8,10-5
					c0.7-0.5,0.4-1.1-0.4-0.6c-2.9,2.1-6.1,3.4-9.4,4.7c-0.2,0.1-1,0.5-0.8,0.9c1.8,2.7,3.9,5.3,6.2,7.6
					C317.9,373,319.1,372.1,318.8,371.8L318.8,371.8z"/>
			</g>
		</g>
		<g>
			<g>
				<path class="st0" d="M299.9,20.9c0.1,3.9,0.7,7.7,0.8,11.6c0.2,4.2-0.4,8.4-0.4,12.6c-0.1,8.2,1.5,16.3,1.5,24.5
					c0,0.3,1.5,0.2,1.5-0.1c-0.1-8.2-1.6-16.3-1.5-24.5c0.1-4.2,0.6-8.4,0.4-12.6c-0.1-3.9-0.7-7.7-0.8-11.6
					C301.4,20.4,299.9,20.5,299.9,20.9L299.9,20.9z"/>
			</g>
			<g>
				<path class="st0" d="M290.3,60.1c9.2-0.1,18.4-1.4,27.6-2.2c9.4-0.9,18-0.4,27.4,0.6c9.3,1,18.8,0.3,28.2,0.3
					c9.1,0,18.2,0.3,27.2,0.3c-0.1,0-0.8-0.8-1.2-0.8c-0.1,0-0.2,0-0.3,0c0.1,0,0.8,0.8,1.2,0.8c0.1,0,0.2,0,0.3,0
					c-0.1,0-0.8-0.8-1.2-0.8c-9.1,0-18.2-0.2-27.2-0.3c-9.4,0-18.8,0.7-28.2-0.3c-9.3-1-18-1.5-27.4-0.6c-9.2,0.8-18.3,2.1-27.6,2.2
					C289.3,59.3,289.9,60.1,290.3,60.1L290.3,60.1z"/>
			</g>
			<g>
				<path class="st0" d="M318.4,55.5c-0.4,2.1-0.2,4.3,0,6.4c0,0.2,1.4-0.2,1.4-0.6c-0.2-2.1-0.4-4.2,0-6.3
					C319.9,54.7,318.5,55.1,318.4,55.5L318.4,55.5z"/>
			</g>
			<g>
				<path class="st0" d="M337,56.2c0,2,0.5,4.1,0.5,6.1c0-0.1,1.3-0.4,1.3-0.8c0-2-0.5-4.1-0.5-6.1C338.2,55.5,337,55.8,337,56.2
					L337,56.2z"/>
			</g>
			<g>
				<path class="st0" d="M356.2,55.8c0.2,1.7,0.7,3.4,0.5,5.1c-0.1,0.6,1.1,1.5,1.2,0.7c0.2-1.9-0.2-3.6-0.5-5.5
					C357.3,55.6,356,54.9,356.2,55.8L356.2,55.8z"/>
			</g>
			<g>
				<path class="st0" d="M372.1,54.8c0.3,1.9,0.7,3.9,0.7,5.8c0,0.3,1,1.4,0.9,0.9c0-2-0.5-3.9-0.7-5.8
					C373,55.3,372.1,54.4,372.1,54.8L372.1,54.8z"/>
			</g>
			<g>
				<path class="st0" d="M391.8,55c0,1.9-0.3,4,0.5,5.8c0.2,0.4,1.4,0.7,1.3,0.5c-0.8-1.8-0.5-3.9-0.5-5.8
					C393.2,55.2,391.8,54.7,391.8,55L391.8,55z"/>
			</g>
			<g>
				<path class="st0" d="M297.7,40.1c2.4,0.8,5,0.9,7.5,0.3c0.9-0.2-0.4-0.5-0.8-0.4c-1.9,0.5-3.8,0.4-5.6-0.3
					C298.4,39.5,297,39.8,297.7,40.1L297.7,40.1z"/>
			</g>
			<g>
				<path class="st0" d="M298.1,25.7c2.2,0.5,4.4,0.1,6.7,0.1c1,0,0-0.9-0.5-0.9c-2,0-4,0.5-5.9,0.1
					C297.5,24.7,297.2,25.5,298.1,25.7L298.1,25.7z"/>
			</g>
			<g>
				<path class="st0" d="M300.6,58.7c9.3-3.3,18-8,26.7-12.7c2.1-1.1,4.2-2.3,6.3-3.4c1.8-1,5-3.6,7-3.6c4-0.1,7.8,9,8.7,11.9
					c0.1,0.4,0.5,0.5,0.9,0.4c15.7-3.3,31.3-7.3,47.1-9.8c0.8-0.1,0.7-1.2-0.1-1.2c-4,0-7.9,0.2-11.9,0c-0.7,0-1.1,1-0.3,1.2
					c4.6,1.1,9,0.1,13.5-1.1c-0.2-0.4-0.3-0.7-0.5-1.1c-4.6,2-8.8,4.7-13.1,7.2c-0.9,0.5-0.1,1.4,0.7,1c4.4-2.4,8.6-5.1,13.1-7.2
					c0.8-0.4,0.3-1.3-0.5-1.1c-4.2,1.1-8.4,2.1-12.7,1c-0.1,0.4-0.2,0.8-0.3,1.2c4,0.2,7.9,0,11.9,0c0-0.4-0.1-0.8-0.1-1.2
					c-11.8,1.9-23.3,4.6-34.9,7.2c-2.8,0.6-5.6,1.5-8.5,1.9c-2.7,0.4-3,0.3-4.2-2.1c-1.8-3.7-4.3-7-7.1-10c-0.2-0.2-0.6-0.2-0.9-0.1
					c-13.8,6.7-26.6,15.3-41.1,20.3C299.4,57.9,299.7,59,300.6,58.7L300.6,58.7z"/>
			</g>
			<g>
				<path class="st0" d="M302.6,58.6c4.4-4.4,8.1-9.3,11.9-14.2c3-3.9,6.6-7.5,9.3-11.6c1-1.6,2.2-4.4,4-5.3c3.4-1.8,4.3,3.1,5,5.5
					c1.1,4.2,1.6,8.5,2.3,12.8c1,6.1,4.2,8.2,10.2,7.8c5.6-0.3,11.2-1.3,16.8-1.6c6.9-0.4,13.8-0.5,20.6-0.5c0.3,0-0.9-0.5-1.1-0.5
					c-0.4,0-5.7-2.5-3.2-0.9c0.5,0.3,3.3,1,2.9,2c-0.1,0.4-4.7,1.4-5.5,1.9c-0.1,0,1.1,0.7,1.4,0.5c2-1.3,4.3-1.6,6.6-2.1
					c0.2,0-0.3-0.3-0.3-0.3c-2.4-1.1-4.7-2.1-7.2-3c-0.3-0.1-1.5-0.3-0.6,0.1c1.6,0.7,3.5,1.3,5.1,2.1c0.9,0.4-3.6-0.2-4.8-0.2
					c-7.5,0.1-15,0.3-22.5,1c-2.8,0.3-5.7,1.1-8.5,1c-2.3,0-6-0.7-7.2-2.8c-0.7-1.2-0.9-3.3-1.1-4.7c-0.7-4.8-1.3-10-2.9-14.6
					c-1.9-5.5-5.8-6.4-9.2-1.6c-7,9.9-14.6,20.1-23.1,28.8C301.2,58.2,302.3,58.9,302.6,58.6L302.6,58.6z"/>
			</g>
		</g>
		<g>
			<g>
				<path class="st0" d="M260.7,291c4.6,0.2,8.7,3,12.9,4.5c0.2,0.1,0.5,0.1,0.6-0.2c0.6-1.9,0.7-4,1.3-6c0.8-2.5,1.6-5,2-7.6
					c0.1-0.5-0.4-1.1-1-1c-2.3,0.5-4.6-0.5-7,0.1c-1.5,0.4-2.8,1.1-4,2.1c-2,1.6-5.3,4.2-5.2,7c0,0.6,1.4,1.3,1.3,0.5
					c-0.1-2.5,3.2-5.1,5-6.5s4-2.2,6.4-2.1c1.5,0.1,2.7,0.5,4.2,0.2c-0.3-0.3-0.6-0.7-1-1c-0.4,2.6-1.2,5.1-2,7.6
					c-0.3,1-0.7,4.9-1.7,5.4c-0.5,0.3-6.2-2.7-6.9-2.9c-1.7-0.6-3.4-1.2-5.3-1.3C259.4,289.7,260,291,260.7,291L260.7,291z"/>
			</g>
			<g>
				<path class="st0" d="M277.4,282.4c-0.8,2.1-1.1,4.2-1.6,6.3c-0.6,2.6-1.4,5-1.6,7.7c0,0.5,1,1,1.3,0.6c3.2-3.5,7.4-5.9,10.9-9.1
					c0.4-0.3-0.3-0.8-0.6-0.9c-1.5-0.6-6.5-5.7-8.1-3.9c-0.3,0.4,0.9,1.2,1.3,0.7c0.6-0.7,5.7,3.6,6.8,4c-0.2-0.3-0.4-0.6-0.6-0.9
					c-3.6,3.2-7.8,5.7-11,9.3c0.4,0.2,0.9,0.4,1.3,0.6c0.2-2.3,0.8-4.5,1.4-6.7c0.6-2.4,0.9-4.8,1.8-7.1
					C279,282.7,277.6,282,277.4,282.4L277.4,282.4z"/>
			</g>
			<g>
				<path class="st0" d="M285.2,287.9c2.8,4.6,4.7,10,1.6,15.1c-3.6,5.9-11.8,8.2-18,5.2c-3.4-1.6-5-4-5.8-7.6
					c-0.2-1.2-0.9-5.2,0-6.3c1.3-1.6,9.9,1.8,11.7,3.1c0.3,0.2,1.7,0,1.3-0.3c-0.8-0.6-1.8-0.7-2.8-1.1c-2.5-0.8-5-2-7.5-2.9
					c-0.9-0.3-2.1-1-3.1-0.5c-2.2,1.1-1.6,5.2-1.3,7.2c0.5,3.2,1.9,6.6,4.9,8.2c5.4,2.8,11.3,3.2,16.5,0.1
					c8.1-4.8,8.5-12.9,3.9-20.4C286.4,287.3,285,287.5,285.2,287.9L285.2,287.9z"/>
			</g>
			<g>
				<path class="st0" d="M274.3,296.8c0.1,2.5,1.3,4.8,2,7.2c0.6,1.8,0.8,4,2.1,5.4c0.6,0.6,1.9,0,1.3-0.7c-1.2-1.3-1.5-3.4-2-5.1
					c-0.7-2.3-1.9-4.4-2-6.8C275.8,295.9,274.3,295.9,274.3,296.8L274.3,296.8z"/>
			</g>
			<g>
				<path class="st0" d="M274.2,297.3c2.4,0,4.6,0.9,6.9,1.4c2.2,0.4,4.4,0.7,6.4,1.7c0.4,0.2,1.5-0.6,1.3-0.7
					c-1.8-0.9-3.8-1.2-5.8-1.6c-2.6-0.5-5-1.4-7.6-1.5C275,296.5,273.8,297.2,274.2,297.3L274.2,297.3z"/>
			</g>
		</g>
		<g>
			<g>
				<path class="st0" d="M198,92.4c-1.4-4.8-7.3-5.2-11.1-3.1c-3.7,2-5.4,6.6-3.3,10.3c1.7,3.1,5.5,5.2,9.1,4.7
					c1.7-0.3,3.2-1.2,4.2-2.7c1.9-2.9,0.9-5.7,1-8.8c0-0.8-1.4-1.3-1.4-0.4c-0.1,2.5,0.7,4.8-0.3,7.2c-0.6,1.4-1.6,2.6-3.1,3.1
					c-2.7,0.9-5.9-0.4-7.6-2.5c-6.3-7.5,8.9-15.6,11.2-7.4C196.9,93.6,198.3,93.3,198,92.4L198,92.4z"/>
			</g>
			<g>
				<path class="st0" d="M178.2,88.1c2.1,1.7,4.2,3.1,5.9,5.1c1.1,1.2,2.3,3.5,3.8,4.2c1.3,0.7,1.6,0.6,2.9-0.5
					c2.5-2,4.1-5.6,5.7-8.3c2.9-4.7,6.2-9.3,9.9-13.4c0.7-0.7-0.6-0.6-1-0.2c-4.9,5.5-8.6,11.6-12.6,17.7c-0.4,0.6-2.3,4.1-3.3,4.1
					c-0.7,0-2.7-2.9-3.1-3.3c-2.2-2.5-4.5-4.3-7.1-6.4C178.9,86.8,177.7,87.7,178.2,88.1L178.2,88.1z"/>
			</g>
		</g>
		<g>
			<g>
				<path class="st0" d="M520.7,226c2.5,11.8-0.1,23.7-0.3,35.6c0,0.7,1.5,0.9,1.5,0.1c0.1-11.9,2.7-23.8,0.3-35.6
					C522.1,225.4,520.6,225.2,520.7,226L520.7,226z"/>
			</g>
			<g>
				<path class="st0" d="M517,238.2c2.7-3.1,4.3-7,4.7-11.1c-0.5,0-1,0-1.5,0c1.2,3.9,3.7,7.2,6.5,10.1c0.4,0.4,1.8,0.2,1.3-0.3
					c-2.8-2.8-5.2-6.1-6.4-9.9c-0.1-0.4-1.4-0.5-1.5,0c-0.3,4.1-1.9,7.8-4.6,10.9C515.3,238.3,516.7,238.6,517,238.2L517,238.2z"/>
			</g>
			<g>
				<path class="st0" d="M521,260.8c-4.1,3.3-7.5,7.4-11.7,10.6c-4.5,3.4-9.4,6.2-14,9.6c-0.4,0.3-0.2,0.9,0.1,1.1
					c10.1,7.2,18.9,15.9,25.8,26.2c0.3,0.4,0.9,0.4,1.1-0.1c1.5-4.8,7.5-7.9,11-11.3c4.5-4.5,7.4-10.2,12-14.6
					c0.4-0.4,0.1-1-0.3-1.2c-8.9-5.5-15.3-14.2-24.2-19.7c-0.8-0.5-1,0.8-0.3,1.2c8.9,5.5,15.2,14.2,24.2,19.7
					c-0.1-0.4-0.2-0.8-0.3-1.2c-5.1,4.8-8.3,11.3-13.6,16c-3.3,2.9-8.3,5.9-9.7,10.4c0.4,0,0.7,0,1.1-0.1c-3.3-5-7-9.6-11.2-13.8
					c-3.8-3.9-8.6-6.9-12.2-10.8c-1.2-1.3-1.6-0.8-0.5-2.3c0.7-1,2.4-1.7,3.5-2.4c2.4-1.6,4.8-3.1,7-4.7c4.8-3.5,8.5-8,13.1-11.7
					C522.6,261.4,521.6,260.3,521,260.8L521,260.8z"/>
			</g>
			<g>
				<path class="st0" d="M543.6,282.9c4.4,2.5,11,0.8,15.7,0.4c7.1-0.6,14.5-0.9,21.7-0.6c0.2,0-0.4-1.2-0.8-1.2
					c-6.9-0.2-13.9,0.2-20.8,0.6c-4.9,0.3-11.9,2.3-16.4-0.3C542.7,281.6,543.3,282.8,543.6,282.9L543.6,282.9z"/>
			</g>
			<g>
				<path class="st0" d="M568.5,279c3.3,3.3,8.5,3.5,12.8,4.1c-0.3-0.3-0.7-0.7-1-1c-4.3,1.2-8.1,4.1-12.6,4.9c-0.1,0,0.7,1.1,1,1
					c4.5-0.8,8.2-3.7,12.6-4.9c0.2-0.1-0.8-1-1-1c-3.4-0.5-8.7-0.5-11.3-3.1C568.6,278.7,567.8,278.3,568.5,279L568.5,279z"/>
			</g>
			<g>
				<path class="st0" d="M496.1,280.9c-5.1,1.8-12.1,0.9-17.5,0.8c-6.6,0-13.2-0.6-19.7,0.9c0.2,0.4,0.5,0.9,0.7,1.3
					c3.7-1.4,7.3-3.3,11.2-4.3c0.6-0.2-0.1-1.5-0.6-1.3c-3.9,1.1-7.6,3-11.4,4.4c-0.5,0.2,0.2,1.4,0.7,1.3
					c7.1-1.7,14.2-0.8,21.4-0.9c5.1-0.1,11.1,0.9,16-0.9C497.4,282,496.7,280.7,496.1,280.9L496.1,280.9z"/>
			</g>
			<g>
				<path class="st0" d="M459.4,284c3.6-0.2,7.3,1,10.3,3c0.4,0.3,1.8-0.2,1.2-0.6c-3.3-2.2-7.3-3.3-11.3-3.2
					C459,283.3,458.4,284,459.4,284L459.4,284z"/>
			</g>
			<g>
				<path class="st0" d="M520.7,306.6c1.3,11.3,0.6,22.8,2.1,34.1c0.4,0,0.7,0,1.1,0c-1.1-3.6-3-6.6-6-8.9c-0.1,0.4-0.2,0.7-0.3,1.1
					c2.7,1.8,3.9,4.6,5.1,7.5c0.1,0.3,0.9,1,1.1,0.3c1.1-4.1,3.3-7.3,5.8-10.6c0.4-0.5-0.5-1.7-1-1.1c-2.6,3.4-4.8,6.7-6,10.9
					c0.4,0.1,0.7,0.2,1.1,0.3c-1.3-3.3-2.7-6.4-5.7-8.4c-0.8-0.6-0.9,0.7-0.3,1.1c2.7,2.1,4.3,4.7,5.3,8c0.2,0.6,1.2,0.9,1.1,0
					c-1.5-11.3-0.8-22.7-2.1-34.1C521.7,306.1,520.5,305.6,520.7,306.6L520.7,306.6z"/>
			</g>
			<g>
				<path class="st0" d="M488.2,292.7c-2.2-2.8-6.4-1.9-9.1-0.5c-1.8,1-5,3.4-1.7,4.9c3.7,1.7,8.2,0.4,11.8,2.5
					c3.3,1.9-0.4,4.7-2.9,5.1c-3.3,0.5-6.7-0.9-9.6-2.5c-0.3-0.2-1.2,0.9-1.3,0.8c4.4,2.4,9.5,3.8,13.9,0.6c1-0.7,2.8-1.9,2.5-3.3
					c-0.3-1.6-2.7-2.1-4-2.4c-1.7-0.4-3.5-0.6-5.3-0.8c-1.4-0.1-4.7-0.2-5.3-2c-0.7-2.1,2.9-3.1,4.4-3.3c2-0.3,4.1,0,5.4,1.7
					C487,293.7,488.2,292.8,488.2,292.7L488.2,292.7z"/>
			</g>
			<g>
				<path class="st0" d="M480.4,288.8c-0.2,7.1,0,14.2,0,21.3c0,0.7,1.4,1.2,1.4,0.4c0-7.1-0.2-14.2,0-21.3
					C481.8,288.5,480.4,288,480.4,288.8L480.4,288.8z"/>
			</g>
			<g>
				<path class="st0" d="M484.1,288.3c-0.5,2.9-0.1,5.8,0,8.8c0.2,4.4-0.6,8.7,0.2,13.1c0.1,0.4,1.3,0.8,1.2,0.7
					c-0.7-3.9-0.3-7.6-0.2-11.5c0-3.4-0.7-6.8,0-10.2C485.4,288.8,484.1,288.3,484.1,288.3L484.1,288.3z"/>
			</g>
			<g>
				<path class="st0" d="M473.7,258.2c2.4,2.8,7.4,5.1,8.7,8.6c0.3,0.9,0,2.2,0,3.2c0,2.4,0,4.8-0.3,7.2c0,0.3,1.4,0.2,1.5-0.1
					c0.1-0.5,0.2-0.6,0.3-1.1c0-0.2-1.4-0.3-1.5,0.2c-0.1,0.3-0.2,0.6-0.2,1c0.5,0,1-0.1,1.5-0.1c0.2-2.4,0.2-4.8,0.3-7.2
					c0-1.2,0.3-2.4-0.2-3.5c-1.5-3.4-6.2-5.6-8.6-8.3C474.9,257.6,473.5,257.9,473.7,258.2L473.7,258.2z"/>
			</g>
			<g>
				<path class="st0" d="M483.8,266.5c2.2-3,5-5.5,7.7-7.9c0.4-0.3-0.9-1-1.3-0.7c-2.7,2.5-5.5,5-7.7,7.9
					C482.2,266.3,483.5,266.9,483.8,266.5L483.8,266.5z"/>
			</g>
			<g>
				<path class="st0" d="M475.3,267.4c4.5,0,9.1-0.5,13.6-0.5c0.9,0,0.6-1.4-0.2-1.4c-4.5,0-9.1,0.5-13.6,0.5
					C474.2,266,474.5,267.4,475.3,267.4L475.3,267.4z"/>
			</g>
			<g>
				<path class="st0" d="M477.1,270.1c4.3-0.1,8.6-0.7,12.8-0.8c0.3,0-0.8-0.6-1.1-0.6c-4.3,0.1-8.6,0.7-12.8,0.8
					C475.7,269.5,476.7,270.1,477.1,270.1L477.1,270.1z"/>
			</g>
			<g>
				<path class="st0" d="M566,293.4c-5.4-7.2-19.4-1.8-16.7,7.5c2.3,7.7,13.9,5.8,17.9,0.7c0.3-0.4-0.6-1.6-1-1
					c-3,3.8-12.5,6.8-15.4,1.3c-4.1-7.8,9.7-14.4,14.6-7.9C565.9,294.6,566.6,294.1,566,293.4L566,293.4z"/>
			</g>
			<g>
				<path class="st0" d="M543.4,297.3c5.6,1.6,11.8-1.5,17.2,0.8c0.6,0.3,1.6-0.8,0.8-1.1c-5.5-2.3-11.6,0.8-17.2-0.8
					C543.6,295.9,542.6,297,543.4,297.3L543.4,297.3z"/>
			</g>
			<g>
				<path class="st0" d="M544.8,300.6c5.6,0.7,11.2,0.5,16.7,0.3c-0.1,0-0.5-1.2-0.9-1.2c-5.6,0.2-11.1,0.4-16.7-0.3
					C543.9,299.4,544.4,300.6,544.8,300.6L544.8,300.6z"/>
			</g>
			<g>
				<path class="st0" d="M561.8,263.5c0.5-3.8-1.5-8.5-5.9-8.5c-3.9,0-4.2,3.5-3.5,6.6c0.4,1.9,1.1,3.6,1.8,5.4
					c0.5,1.4,1.4,2.9,1.3,4.4c0.1,0.8-0.1,1.5-0.7,2.2c-0.4,2.4-1.7,2.4-3.7,0c0.1-1.2,2.6-1.6,3.5-1.5c4.6,0.5,7.3,5.1,11.9,2
					c0.8-0.5-0.2-1.4-0.8-0.9c-4.7,3.1-8.9-4.2-13.9-1.9c-3,1.4-3.9,6.5,0.5,6.1c5.7-0.5,4.9-6.9,3.4-10.6c-0.9-2.3-1.9-4.6-2.2-7
					c-0.2-2.5,0.6-4,3.5-3.1c2.7,0.9,3.5,4,3.2,6.6C560.2,264.1,561.7,264.2,561.8,263.5L561.8,263.5z"/>
			</g>
			<g>
				<path class="st0" d="M549.3,268.3c4.6,0,9.2-0.5,13.8-0.3c0.3,0,1.5-0.6,1.1-0.7c-4.7-0.2-9.3,0.2-14,0.3
					C549.9,267.7,548.6,268.3,549.3,268.3L549.3,268.3z"/>
			</g>
			<g>
				<path class="st0" d="M524.8,276c-4.6-1.2-10.2,0.5-12.6,4.9c-2.8,5,2,9.3,6.5,10.8c3.4,1.1,7.1,0.7,9.4-2.3
					c2-2.6,2.7-6.5,1.3-9.6c-0.7-1.6-1.9-2.7-3.5-3.4c-1.3-0.5-3.8-1.1-5-0.2c-0.3,0.2,1,0.6,1.4,0.4c1.5-1.1,4.2,0.8,5,2
					s1.2,2.6,1.2,4c0.1,2.9-1.1,6.1-3.5,7.8c-4.1,2.9-11.2-0.6-12.2-5.3c-1.3-5.8,6.4-10,11.3-8.8
					C524.9,276.6,525.8,276.2,524.8,276L524.8,276z"/>
			</g>
			<g>
				<path class="st0" d="M526.9,277.3c1.2-1.1,2.6-2.3,3.3-3.8c0.3-0.7-1.2-0.8-1.5-0.2c-0.6,1.3-1.9,2.4-2.9,3.3
					C525.1,277.3,526.4,277.8,526.9,277.3L526.9,277.3z"/>
			</g>
			<g>
				<path class="st0" d="M511.4,275c1.8,0.8,3.3,2,4.9,3.1c0.8,0.5,1.4-0.6,0.6-1.1c-1.6-1.1-3.1-2.3-4.9-3.1
					C511.2,273.5,510.5,274.6,511.4,275L511.4,275z"/>
			</g>
			<g>
				<path class="st0" d="M512.8,294.2c0.8-1.3,2-2.3,3-3.5c0.6-0.8-0.6-1-1.1-0.4c-1,1.3-2.3,2.3-3.2,3.7
					C511.1,294.8,512.5,294.8,512.8,294.2L512.8,294.2z"/>
			</g>
			<g>
				<path class="st0" d="M528.3,291.8c1.3,0.6,2.5,1.3,3.9,1.8c0.3,0.1,0-0.3,0-0.3c-0.2-0.2-0.5-0.6-0.8-0.7
					c-1.3-0.5-2.6-1.2-3.9-1.8c-0.3-0.1,0,0.3,0,0.3C527.7,291.4,528,291.7,528.3,291.8L528.3,291.8z"/>
			</g>
		</g>
		<g>
			<g>
				<path class="st0" d="M49.5,76.4c13-0.8,25.8,0.8,38.8,0.9c0.4,0-0.1-1.4-0.5-1.4C74.9,75.9,62,74.2,49,75
					C48.6,75.1,49.1,76.4,49.5,76.4L49.5,76.4z"/>
			</g>
			<g>
				<path class="st0" d="M71,83.7c4.9,0,9.9,0,14.8,0.9c-0.2,0-0.4-1.2-0.8-1.2c-4.9-0.9-9.8-0.9-14.8-0.9
					C70.3,82.5,70.6,83.7,71,83.7L71,83.7z"/>
			</g>
		</g>
		<g>
			<g>
				<path class="st0" d="M26,274.2c12.9-0.8,25.8,0.8,38.8,0.9c0.9,0,0.6-1.4-0.2-1.4c-12.9-0.1-25.8-1.7-38.8-0.9
					C24.9,272.8,25.2,274.2,26,274.2L26,274.2z"/>
			</g>
			<g>
				<path class="st0" d="M47,281.1c4.8,0,9.7,0,14.4,0.9c0.3,0.1,1.7-0.3,1-0.4c-5-0.9-10.1-0.9-15.1-0.9
					C46.8,280.6,45.9,281.1,47,281.1L47,281.1z"/>
			</g>
		</g>
		<g>
			<g>
				<path class="st0" d="M442.6,85.7c2.4-0.4,4.9-0.5,7.4-0.5c0.9,0,0.4-1.3-0.4-1.3c-2.5,0-4.9,0-7.4,0.5
					C441.2,84.6,441.8,85.8,442.6,85.7L442.6,85.7z"/>
			</g>
			<g>
				<path class="st0" d="M456,84.3c2.1-0.1,4-1.1,5.6-2.3c0.4-0.3-0.3-1.6-0.8-1.3c-1.6,1.2-3.4,2.2-5.4,2.3
					C454.9,83,455.5,84.3,456,84.3L456,84.3z"/>
			</g>
			<g>
				<path class="st0" d="M469.1,78.2c1.5-0.5,3.1-1.3,4.3-2.4c0.6-0.5-0.6-1.4-1.1-1c-1.1,1.1-2.6,1.7-4,2.2
					C467.5,77.4,468.5,78.4,469.1,78.2L469.1,78.2z"/>
			</g>
			<g>
				<path class="st0" d="M479.5,70.1c1.3-1.7,2.4-3.4,3.7-5.1c0.4-0.6-1-1.1-1.4-0.6c-1.3,1.7-2.4,3.4-3.7,5.1
					C477.7,70.2,479.1,70.7,479.5,70.1L479.5,70.1z"/>
			</g>
			<g>
				<path class="st0" d="M488.2,59.2c0.9-1.9,1.4-4,2.3-6c0.3-0.6-0.9-1.5-1.2-0.9c-0.9,1.9-1.4,4-2.3,6
					C486.8,58.9,487.9,59.9,488.2,59.2L488.2,59.2z"/>
			</g>
			<g>
				<path class="st0" d="M492.8,46.4c2.4-5.7,2.8-12,3.7-18.1c0.1-0.6-1-1.5-1.1-0.6c-0.9,6-1.3,12.2-3.7,17.8
					C491.5,46,492.5,47.1,492.8,46.4L492.8,46.4z"/>
			</g>
			<g>
				<path class="st0" d="M489.9,36.2c4.9-3.1,7.5-8.4,9.1-13.8c-0.5,0.1-0.9,0.1-1.4,0.2c0,4.8-1,10.2,1.9,14.4
					c0.4,0.6,1.8,0,1.4-0.6c-2.8-4.1-1.9-9.4-1.8-14.1c0-0.8-1.3-0.3-1.4,0.2c-1.5,5.1-3.9,10-8.5,12.9
					C488.2,35.9,489.2,36.6,489.9,36.2L489.9,36.2z"/>
			</g>
			<g>
				<path class="st0" d="M464.9,55.4c-5.6-0.7-8.8-6.8-8.5-12c0.4-6.3,7-9.7,12.7-7.2c3.7,1.7,6,5.9,6,9.8c-0.1,5.6-4.5,8.3-9.7,8.3
					c-0.9,0-0.9,1.3,0,1.3c5.8,0,10.9-3.3,11.1-9.5c0.2-5.3-3.3-10.6-8.6-11.8c-6-1.4-12.1,2.1-12.9,8.3s2.9,13.3,9.5,14.1
					C465.5,56.8,465.9,55.5,464.9,55.4L464.9,55.4z"/>
			</g>
			<g>
				<path class="st0" d="M462.4,40.2c0,3.6-0.3,7.6,0.7,11c0.1,0.4,1.4,0.9,1.3,0.6c-1-3.5-0.7-7.5-0.7-11
					C463.7,40.4,462.4,39.8,462.4,40.2L462.4,40.2z"/>
			</g>
			<g>
				<path class="st0" d="M463.1,41.1c1.9-0.3,5.7-0.2,6,2.3c0.2,1.5-1.4,2.1-2.6,2.3c-2.4,0.5-5.1,0-7.4,0.8c-0.6,0.2,0.5,1.2,1,1.1
					c2.7-0.9,8.6,0.7,10.1-2.4c0.7-1.5-0.2-3.1-1.4-4c-1.8-1.3-4.3-1.6-6.4-1.3C461.6,40,462.5,41.1,463.1,41.1L463.1,41.1z"/>
			</g>
			<g>
				<path class="st0" d="M460.8,50.5c2.3-0.3,4.5-0.3,6.8,0c0.8,0.1,0.4-1.3-0.2-1.4c-2.4-0.3-4.7-0.3-7.1,0
					C459.6,49.2,460.2,50.6,460.8,50.5L460.8,50.5z"/>
			</g>
			<g>
				<path class="st0" d="M473.9,33c2.2,1,3.6,3.1,4.5,5.2c0.2,0.4,1.5,1.1,1.1,0.3c-1.2-2.7-3.1-5.2-5.8-6.5
					C472.8,31.7,473.4,32.8,473.9,33L473.9,33z"/>
			</g>
			<g>
				<path class="st0" d="M454.1,57.3c3.3,3.1,8,4.2,12.4,3.9c0.9-0.1,0.8-0.8-0.1-0.8c-4,0.2-8.1-0.9-11.1-3.7
					C455,56.5,453.6,56.9,454.1,57.3L454.1,57.3z"/>
			</g>
		</g>
		<g>
			<g>
				<path class="st0" d="M200.9,294.4c-8.5,3.8-17.5,6.2-25.7,10.6c-7.3,3.9-14.8,8-21.6,12.7c-7.1,4.9-12.4,11.2-18.7,17
					c-6.4,5.8-13.1,11.2-18.2,18.2c0,0,1.2,0.7,1.4,0.5c4.2-3.8,9.4-6,13.8-9.6c0,0-1.2-0.5-1.4-0.5c-5,0.2-11.4,3.4-13.1,8.3
					c0,0.1,1.3,0.6,1.4,0.5c4.1-4.5,8.7-9.3,10-15.4c0-0.2-1.4-0.6-1.4-0.5c-1.2,6.1-5.8,11-10,15.4c0.5,0.2,0.9,0.3,1.4,0.5
					c1.7-4.9,8.1-8.1,13.1-8.3c-0.5-0.2-0.9-0.4-1.4-0.5c-4.4,3.6-9.6,5.8-13.8,9.6c0.5,0.2,0.9,0.3,1.4,0.5
					c5.2-7,11.9-12.4,18.2-18.2c6.3-5.8,11.6-12.2,18.7-17c6.9-4.7,14.3-8.8,21.6-12.7c8.2-4.4,17.3-6.8,25.7-10.6
					C202,295,201.2,294.2,200.9,294.4L200.9,294.4z"/>
			</g>
			<g>
				<path class="st0" d="M203.3,284.1c-8.9,1.7-17.3,6.4-25.3,10.5c-9.7,4.9-19.5,9.3-29.3,14c-23.4,11.4-45.2,23.7-63.8,42.2
					c-0.3,0.3,0.7,1.4,1,1.1c4.1-3.6,8.7-6.3,13.8-8.1c-0.3-0.4-0.6-0.8-0.8-1.2c-4.9,2-9.5,3.2-13.3,7.2c-0.3,0.3,0.7,1.4,1,1.1
					c3.5-3.3,6.8-6.9,8.3-11.5c0.1-0.4-0.9-1.4-1.1-1c-1.6,4.5-4.8,8.1-8.3,11.3c0.3,0.4,0.7,0.7,1,1.1c3.6-3.8,8.3-5.1,13.1-7.1
					c0.5-0.2-0.4-1.3-0.8-1.2c-5.2,1.8-9.9,4.5-14,8.1c0.3,0.4,0.7,0.7,1,1.1c18.1-18.1,39.2-30.2,62.1-41.3
					c9.7-4.7,19.6-9,29.1-13.9c8.6-4.4,17.5-9.6,27-11.4C204.5,285.2,203.7,284,203.3,284.1L203.3,284.1z"/>
			</g>
		</g>
	</g>
	<g>
		<g>
			<path class="st0" d="M133.9,77.3c-2.2-2.2-6.2-3.6-8.9-1.4c-2.6,2.1-2.4,6.9-0.2,9.2c1.9,1.9,4.9,2,7,0.5c2.9-2,2.6-5.5,1.1-8.3
				c-0.3-0.7-1.7-0.5-1.3,0.4c1.1,2.1,1.5,4.7-0.3,6.5c-1.4,1.3-3.7,1.8-5.2,0.5c-2-1.6-2.2-5.5-0.5-7.3c2-2.2,5.4-1.1,7.2,0.7
				C133.4,78.5,134.6,78,133.9,77.3L133.9,77.3z"/>
		</g>
		<g>
			<path class="st0" d="M119.5,62c0.6,2.7-0.7,3.5-3.8,2.3c-0.4-0.3-1-0.3-1.3,0.1c-0.8,1-1.7,1.8-2.8,2.4c-0.3,0.2-0.2,0.5,0,0.7
				c2.8,2.3,2.3,3.7-1.6,4.3c-0.4-0.1-1.1,0-1.1,0.5c0,1.3-0.3,2.5-0.8,3.6c-0.1,0.3,0.2,0.5,0.4,0.5c3.6,1.3,0.2,4.4,0.6,6.6
				c0.1,0.4,0.5,0.5,0.8,0.4c3.7,1.1,4.3,2.9,1.7,5.4c-0.2,0.1-0.2,0.3-0.2,0.5c0.3,0.7,0.6,1.4,0.8,2.1c0.2,0.4,0.8,0.4,1.1,0.2
				c1,1.4,2,2.9,3.1,4.3c-0.2,0.2-0.1,0.4,0.2,0.6c0.9,0.6,1.8,1.2,2.7,1.9c0.3,0.2,0.9,0.1,1.2-0.2c3.6-1.6,5.6-0.8,5.8,2.3
				c0.1,0.4,0.6,0.5,1,0.4c1.3-0.2,2.5-0.1,3.7,0.2c0.4,0.1,1-0.2,0.9-0.7c-1.2-2-0.6-2.9,1.8-2.7c1.6-1.2,2.5-1.1,2.6,0.4
				c0.1,0.4,1,0.4,1.3,0.1c0.7-0.7,1.6-1.4,2.5-1.9c0.2-0.1,0.2-0.3,0.2-0.5c-0.7-1.4-1.2-1.8-0.6-3.5c0.8-2,1.9-1.6,4.1-1
				c0.3,0.1,1,0,1.1-0.4c0.7-2.7-1.6-6.4,2.8-7.5c0.2,0,0.6-0.2,0.5-0.5c-0.4-1.1-0.4-2.2-0.2-3.3c0-0.4-0.7-0.5-1-0.4
				c-4.4,1.1,0-5.6,0.6-6c0.2-0.1,0.2-0.3,0.2-0.5c-0.3-0.7-0.6-1.4-0.8-2.1c-0.1-0.4-0.8-0.4-1.1-0.2c-4.5-0.2-5.4-1.5-2.9-3.9
				c0.1-0.2,0.1-0.3,0-0.5c-2.9-3.5-10.3,2.4-8-4.8c0.1-0.3-0.3-0.5-0.6-0.6c-0.9-0.1-2.5-0.6-3.5-0.1c-0.4,0.2-0.6,0.7-0.9,0.8
				c-0.2,0.3-0.3,0.6-0.5,0.9c-2.9,0.6-4.2-0.1-3.8-2.1c0-0.3-0.5-0.5-0.8-0.4c-1.8,0.2-3.5,0.7-5.2,1.3c-0.9,0.3-0.3,1.2,0.5,0.9
				c1.2-0.4,2.8-1.3,4-0.4c-0.2-0.1,1,2.3,1,2.3c1,1,2.6,1.4,3.9,0.8c1.2-0.6,3.4-4.6,4-2.2c0.3,1.2-0.9,2.5,0.4,3.6
				c2.1,1.7,6.7-2.1,7.2,1.4c0.2,1.9-1.8,3.1,0.5,4.7c1.2,0.8,2.2,0.1,3.4,0.2c1,0.1,1.4-1.1,1.5,0.7c0,0.2-1.3,1.7-1.5,2
				c-0.6,1-1.5,2.9-1,4.1s0.9,0.7,1.7,1.4c1.4,1.1,0.9-1.4,1.2,0.9c0.2,2.1-0.9,1.1-1.9,2c-1.4,1.2-2,1.6-1.9,3.6
				c0.3,3.7,2.6,2.9-1.4,2.9c-1.1,0-2.6-0.1-3.4,0.9c-0.7,0.8-0.6,1.3-0.4,2.3c0.3,2.5,1.5,2.4-0.8,4.5c0.4,0,0.8,0.1,1.3,0.1
				c-2-6-9.2-2.9-7.2,3c0.3-0.2,0.6-0.4,0.9-0.7c-1.4-0.3-2.8-0.1-3.9-1c-0.7-0.6-0.9-2-1.7-2.7c-1.4-1.2-2.6-1.3-4.3-0.8
				c-1.4,0.4-2.5,2.4-3-0.4c-0.1-0.7,0.5-1.7,0.4-2.6c-0.4-1.9-1.8-2.6-3.6-2.7c-1.5-0.2-2,1-1.7-1.2c0.1-0.6,0.9-1.3,1.1-2.1
				c0.4-2.7-1.4-2.7-2.8-4.1c-0.9-0.8-1.2-0.2-0.9-1.9c0.2-1.1,1.3-1.9,1-3.1c-0.3-1.4-0.8-0.4-1.3-1.5c-0.7-1.3-0.3-2.3-0.2-3.9
				c-0.4,0.2-0.7,0.3-1.1,0.5c1.7,0.6,3.6,0.9,4.9-0.7c0.6-0.7,0.8-1.6,0.6-2.5c-0.1-0.6-1.3-1.9-1.3-2.2c0.2-2.9,3.4-0.5,4.7-0.7
				c2.4-0.3,2.8-2.7,2.8-4.7C121,61.3,119.5,61.4,119.5,62L119.5,62z"/>
		</g>
	</g>
	<g>
		<path class="st0" d="M143.9,56.9c-0.3,1.1-0.5,2-0.9,3c-0.1,0.3,0.8,0.4,0.9,0.4c4.3,0.2,4.5,4.9,1.4,6.7
			c-0.5,0.3,0.9,0.6,1.1,0.5c0.6,0.2,1.3,0.5,1.9,0.7c0.3,0.2,1,0.4,1.3,0.2c2.3-0.6,3.2,0.2,2.9,2.4c0,0.4,0.8,0.5,1.1,0.4
			c0.9-0.1,1.7-0.2,2.6-0.2c0.2,0,0.4,0,0.4-0.3c-0.6-3,2.5-2.3,3.8-0.9c0.2,0.2,1.2,0.5,1.4,0.2c1.7-2.6,0.7-5.7,5.3-5.5
			c0.1,0,0.6,0,0.6-0.2c-0.1-0.7-0.2-1.4-0.2-2.1c0-0.4-0.8-0.4-1.1-0.4c-4.7,0.2-0.4-5.5,0.8-6.5c0.1-0.1,0-0.2,0-0.2
			c-0.8-0.9-1.6-1.4-2.8-1.5c-2.9-0.4-4,0.5-3.9-3.7c0-0.3-0.5-0.4-0.7-0.4c-0.9-0.1-2.3-0.8-3.2-0.4c-1,0.4-1.8,7.7-5,1.9
			c-0.2-0.4-1-0.4-1.3-0.3c-0.9,0.3-1.7,0.7-2.4,1.2c0,0-0.1,0.1,0,0.2c1.2,2.2,1.5,5.2-2.9,5.1c-1,0-0.3,0.6,0.3,0.6
			c1.5,0,3,0.1,4.1-1.1c1.5-1.7-0.3-4.5,2.2-5.5c-0.4-0.1-0.9-0.2-1.3-0.3c1.1,2,3.6,3.2,5.8,1.9c1.8-1.1,1.9-5,3.1-1.7
			c0.5,1.3-0.1,2.5,1.4,3.2c0.8,0.4,1.5,0.1,2.3,0.1c1,0.1,0.5-0.6,1.8,0.4c1.6,1.2,0.6,0.2,0.2,1.4c-0.2,0.7-1,1.4-1.3,2.1
			c-1.4,3.3,0.8,4.3,3.8,4.1c-0.4-0.1-0.7-0.3-1.1-0.4c0.3,2.9-1.7,1.2-3.3,2.5c-1.4,1.1-1.3,3.7-2.3,5.2c0.5,0.1,0.9,0.1,1.4,0.2
			c-1.1-1.2-3.2-2.3-4.9-2c-1.1,0.2-1,0.4-1.7,1.1c-1.1,1,0.4,1.6-2.1,1.8c0.4,0.1,0.7,0.3,1.1,0.4c-0.1-3.2-1.4-3.8-4.1-3.9
			c-1.3-0.1-2.9-0.5-4.4-0.2c0.4,0.2,0.7,0.4,1.1,0.5c4.8-2.8,1.7-7.6-2.9-7.8c0.3,0.1,0.6,0.3,0.9,0.4c0.4-1,0.7-2,0.9-3
			C145.5,56.8,144,56.5,143.9,56.9L143.9,56.9z"/>
	</g>
	<g>
		<g>
			<path class="st0" d="M791.7,70c0.1-4.5,1.6-8.4,4.1-12.1c0.4-0.7-0.9-1.4-1.3-0.7c-2.5,3.9-4.2,8.1-4.3,12.7
				C790.3,70.6,791.7,70.8,791.7,70L791.7,70z"/>
		</g>
		<g>
			<path class="st0" d="M805.4,53.8c2.9-2.8,6.8-4.1,9.7-6.9c0.5-0.4-0.6-1.5-1.1-1c-2.9,2.8-6.8,4.1-9.7,6.9
				C803.8,53.3,804.9,54.3,805.4,53.8L805.4,53.8z"/>
		</g>
		<g>
			<path class="st0" d="M824.8,44c0.9-0.8,2.2-1,3.3-1.4c1.1-0.3,2.2-0.7,3.3-1.2c0.8-0.4,0.4-1.4-0.4-1c-2.3,1.1-5.3,1.2-7.2,3
				C823,44,824.2,44.5,824.8,44L824.8,44z"/>
		</g>
		<g>
			<path class="st0" d="M844.1,40.1c2.8,0,5.5,0,8.3,0c0.3,0-0.4-1.2-0.9-1.2c-2.8,0-5.5,0-8.3,0C842.9,38.9,843.6,40.1,844.1,40.1
				L844.1,40.1z"/>
		</g>
		<g>
			<path class="st0" d="M865.8,38.7c3.2,0,6.4-0.1,9.3,1.3c0.7,0.3,1.7-0.6,0.8-1c-3.2-1.5-6.6-1.4-10.1-1.5
				C865,37.5,864.8,38.7,865.8,38.7L865.8,38.7z"/>
		</g>
		<g>
			<path class="st0" d="M891,43c2.1,0,3.5,1.1,4.9,2.5c0.7,0.7,1.6-0.2,0.9-0.8c-1.8-1.8-3.6-3-6.2-3C889.7,41.6,890.2,43,891,43
				L891,43z"/>
		</g>
		<g>
			<path class="st0" d="M911.4,53.8c2.2,0.1,3.6,1.1,5.1,2.6c0.5,0.5,1.8-0.1,1.2-0.7c-1.7-1.7-3.5-2.9-6-2.9
				C910.9,52.8,910.4,53.8,911.4,53.8L911.4,53.8z"/>
		</g>
		<g>
			<path class="st0" d="M926.2,69c1.4,1.4,2.8,2.8,4.2,4.1c0.6,0.6,1.8-0.2,1.1-0.9c-1.4-1.4-2.8-2.8-4.2-4.1
				C926.8,67.5,925.6,68.3,926.2,69L926.2,69z"/>
		</g>
		<g>
			<path class="st0" d="M772.3,68.9c0.9-2.5,2.3-5,4.2-6.9c0.3-0.3-0.9-1.1-1.3-0.8c-1.9,1.9-3.3,4.4-4.2,6.9
				C770.8,68.6,772.1,69.3,772.3,68.9L772.3,68.9z"/>
		</g>
		<g>
			<path class="st0" d="M783.3,52.3c0.1-3.5,3.8-5.6,6.7-6.6c0.6-0.2-0.2-1.5-0.7-1.3c-3.2,1.1-7,3.4-7.1,7.2
				C782.1,52.1,783.2,53,783.3,52.3L783.3,52.3z"/>
		</g>
		<g>
			<path class="st0" d="M798.3,40.4c-0.5-0.3-0.5-0.3-0.1-0.7c0.5-0.3,1.1-0.6,1.6-0.8c1.3-0.6,2.6-1,3.9-1.6c0.9-0.4,0.1-1.4-0.7-1
				c-1.8,0.9-3.9,1.4-5.6,2.5c-1.3,0.8-1.4,1.9,0,2.7C798.2,41.8,799.2,40.8,798.3,40.4L798.3,40.4z"/>
		</g>
		<g>
			<path class="st0" d="M817.9,30.2c2.2-1.1,4.1-2.6,6.6-2.7c1,0,0-0.8-0.6-0.8c-2.8,0.1-4.8,1.6-7.2,2.8
				C816.2,29.8,817.5,30.4,817.9,30.2L817.9,30.2z"/>
		</g>
		<g>
			<path class="st0" d="M837.1,23.6c1.5-1.5,3.5-1.4,5.5-1.4c-0.1,0-0.4-1.3-0.8-1.3c-2,0-4-0.1-5.5,1.4
				C836.1,22.5,837.1,23.6,837.1,23.6L837.1,23.6z"/>
		</g>
		<g>
			<path class="st0" d="M855.2,20.7c2.2-1,4.4-1.3,6.8-1.3c0.9,0-0.1-1-0.7-1c-2.5,0-4.8,0.4-7.1,1.4
				C853.6,20,854.7,20.9,855.2,20.7L855.2,20.7z"/>
		</g>
		<g>
			<path class="st0" d="M873.4,18.8c1.8-0.4,3.3-0.2,4.8,0.8c0.5,0.4,1.8-0.2,1-0.7c-1.9-1.3-4-1.5-6.3-1
				C872,18.1,872.6,19,873.4,18.8L873.4,18.8z"/>
		</g>
		<g>
			<path class="st0" d="M883.2,15.4c1,1.9,2.3,3.5,3.7,5.1c0.5,0.5,4.2,3.4,4.1,3.8c-0.2,0.8-3.4,1.2-4.3,1.5
				c-2.2,0.7-4.1,1.7-5.8,3.3c-0.3,0.3,1,1,1.3,0.7c2.9-2.7,6.7-3.6,10.5-4.6c0.3-0.1,0.1-0.3-0.1-0.5c-3.1-2.7-6.2-5.4-8.1-9
				C884.3,15.4,882.9,15,883.2,15.4L883.2,15.4z"/>
		</g>
		<g>
			<path class="st0" d="M894.7,17.7c1.4,1.5,2.8,2.7,4.4,3.9c1,0.7,6.1,3.2,6,4.3s-4.9,2.3-5.9,2.7c-2.3,0.9-4.5,1.8-6.5,3.2
				c-0.3,0.2,0.9,0.9,1.3,0.7c3.9-2.8,8.8-3.6,12.9-6c0.2-0.1-0.1-0.3-0.2-0.4c-3.7-2.7-7.8-4.7-10.9-8.1
				C895.8,17.8,894.5,17.4,894.7,17.7L894.7,17.7z"/>
		</g>
		<g>
			<path class="st0" d="M914.2,23.1c1.3,1.3,2.5,2.7,3.6,4.1c0.4,0.6,0.9,1.1,1.3,1.7c0.6,0.8,0.9,0.8,0.1,1.4
				c-1.1,0.9-3.3,1.4-4.7,2c-1.5,0.7-2.9,1.5-4.2,2.5c-0.2,0.1,0.8,1.3,1.1,1c3-2.1,6.3-3.5,9.7-4.8c0.1,0-0.1-0.4-0.1-0.4
				c-1.9-2.8-4.1-5.5-6.5-7.9C913.9,22.2,913.5,22.5,914.2,23.1L914.2,23.1z"/>
		</g>
	</g>
	<g>
		<g>
			<path class="st0" d="M581.1,24.7c-1,4.9-0.5,10.4-0.5,15.4c0,0.9,1.5,0.9,1.5,0c0-4.9-0.5-10.2,0.5-15
				C582.8,24.2,581.3,23.9,581.1,24.7L581.1,24.7z"/>
		</g>
		<g>
			<path class="st0" d="M573.2,33.4c5.1,1.4,10.2,0.6,15.4,0.5c1,0,0.5-1.4-0.3-1.4c-5.1,0.1-10.1,0.8-15.1-0.5
				C572.3,31.8,572.4,33.2,573.2,33.4L573.2,33.4z"/>
		</g>
	</g>
	<g>
		<g>
			<path class="st0" d="M825.8,83.9c0.1,5,1.8,9.9,4.7,14c0.3,0.5,1.7-0.2,1.2-0.8c-2.8-3.9-4.4-8.7-4.5-13.6
				C827.2,82.9,825.8,83.3,825.8,83.9L825.8,83.9z"/>
		</g>
		<g>
			<path class="st0" d="M821.2,94.9c1.1,3.1,2.5,6.2,4.8,8.6c0.6,0.6,1.8-0.1,1.2-0.7c-2.1-2.2-3.5-5.1-4.5-8
				C822.4,94,820.9,94.1,821.2,94.9L821.2,94.9z"/>
		</g>
	</g>
	<g>
		<g>
			<path class="st0" d="M273.3,418.2c0,1,0.1,2,0.5,3c0.1,0.3,0.5,0.6,0.8,0.7c0.3,0,0.5-0.1,0.3-0.4c-0.4-0.8-0.4-1.6-0.4-2.5
				c0-0.3-0.3-0.6-0.5-0.8C273.8,418.1,273.3,417.9,273.3,418.2L273.3,418.2z"/>
		</g>
		<g>
			<path class="st0" d="M266.7,426.5c0.6,0,1.4-1,0.4-1C266.5,425.5,265.7,426.5,266.7,426.5L266.7,426.5z"/>
		</g>
		<g>
			<path class="st0" d="M266.8,426.4c1,0,2,0,2.9,0.4c0.3,0.1,0.8,0.1,1.1-0.1c0.2-0.2,0.2-0.5-0.1-0.7c-1.1-0.5-2.4-0.5-3.6-0.5
				c-0.3,0-0.8,0.1-0.9,0.4C266.1,426.2,266.5,426.4,266.8,426.4L266.8,426.4z"/>
		</g>
		<g>
			<path class="st0" d="M278.4,426.6c0.9,0,1.8,0,2.8,0c0.4,0,0.3-0.4,0.2-0.6c-0.2-0.3-0.5-0.6-0.9-0.6c-0.9,0-1.8,0-2.8,0
				c-0.4,0-0.3,0.4-0.2,0.6C277.7,426.3,278,426.6,278.4,426.6L278.4,426.6z"/>
		</g>
		<g>
			<path class="st0" d="M274.2,429.8c0,0.9,0.1,1.6,0.5,2.4c0.1,0.3,0.5,0.5,0.8,0.6c0.1,0.1,0.5,0.2,0.4-0.1
				c-0.4-0.7-0.4-1.4-0.4-2.2C275.4,430.1,274.2,429.5,274.2,429.8L274.2,429.8z"/>
		</g>
	</g>
	<g>
		<g>
			<path class="st0" d="M610.9,55.1c-0.6,0.6-1,1.5-1.4,2.3c-0.2,0.4,1,1.2,1.1,1c0.4-0.8,0.8-1.7,1.4-2.3
				C612.2,55.9,611.1,54.9,610.9,55.1L610.9,55.1z"/>
		</g>
		<g>
			<path class="st0" d="M607,62.2c-0.4,0.9-0.5,1.9-0.9,2.8c-0.1,0.2,0.5,0.2,0.6,0.1c0.3-0.1,0.7-0.2,0.8-0.4
				c0.4-0.9,0.5-1.9,0.9-2.8c0.1-0.2-0.5-0.2-0.6-0.1C607.6,61.8,607.2,62,607,62.2L607,62.2z"/>
		</g>
		<g>
			<path class="st0" d="M608.5,69.2c0.5,0.5,0.9,0.9,1.4,1.4c0.2,0.2,0.7,0.4,1,0.2c0.3-0.1,0.4-0.4,0.1-0.6
				c-0.5-0.5-0.9-0.9-1.4-1.4c-0.2-0.2-0.7-0.4-1-0.2C608.4,68.7,608.3,68.9,608.5,69.2L608.5,69.2z"/>
		</g>
		<g>
			<path class="st0" d="M615.4,71c1.1,0,2.1-0.1,3.1-0.5c0.3-0.1,0.6-0.4,0.5-0.8c-0.1-0.3-0.6-0.4-0.9-0.2
				c-0.8,0.4-1.6,0.4-2.4,0.4c-0.4,0-0.8,0.2-0.9,0.6C614.8,70.7,615.1,71,615.4,71L615.4,71z"/>
		</g>
		<g>
			<path class="st0" d="M622,67.6c0.6-0.1,0.8-0.6,1.2-1s-1-1-1.3-0.6c-0.2,0.2-0.4,0.8-0.7,0.8s-0.4,0.3-0.2,0.5
				C621.3,67.5,621.7,67.6,622,67.6L622,67.6z"/>
		</g>
		<g>
			<path class="st0" d="M623.4,62.6c0-1.2,0-2.5,0-3.7c0-0.3-0.2-0.7-0.4-0.9c-0.1-0.1-0.5-0.4-0.5,0c0,1.2,0,2.5,0,3.7
				c0,0.3,0.2,0.7,0.4,0.9C623.1,62.6,623.4,62.9,623.4,62.6L623.4,62.6z"/>
		</g>
		<g>
			<path class="st0" d="M615.2,55.6c0.9,0.5,1.8,0.9,2.8,1.4c0.3,0.2,0.8,0.1,1-0.1c0.2-0.3,0.1-0.6-0.2-0.7
				c-0.9-0.5-1.8-0.9-2.8-1.4c-0.3-0.2-0.8-0.1-1,0.1C614.7,55.1,614.9,55.5,615.2,55.6L615.2,55.6z"/>
		</g>
	</g>
</g>
</svg>
