<?xml version="1.0" encoding="utf-8"?>
<!-- Generator: Adobe Illustrator 22.1.0, SVG Export Plug-In . SVG Version: 6.00 Build 0)  -->
<svg version="1.1" id="Layer_1" xmlns="http://www.w3.org/2000/svg" xmlns:xlink="http://www.w3.org/1999/xlink" x="0px" y="0px"
	 viewBox="0 0 937.2 434" style="enable-background:new 0 0 937.2 434;" xml:space="preserve">
<style type="text/css">
	.st0{fill:#FCBD82;}
	.st1{fill:#FFFFFF;}
	.st2{fill:#2B2741;}
	.st3{fill:#383966;}
	.st4{fill:#EB5753;}
	.st5{fill:#F27178;}
	.st6{fill:#683618;}
	.st7{fill:none;stroke:#231F20;stroke-width:0.872;stroke-linecap:round;stroke-miterlimit:10;}
	.st8{fill:none;stroke:#C0873D;stroke-width:0.725;stroke-linecap:round;stroke-miterlimit:10;}
	.st9{fill:#834B1F;}
	.st10{fill:none;stroke:#C93331;stroke-width:0.872;stroke-linecap:round;stroke-miterlimit:10;}
	.st11{fill:none;stroke:#4F4F85;stroke-width:0.872;stroke-linecap:round;stroke-miterlimit:10;}
	.st12{fill:none;stroke:#C93331;stroke-width:0.5813;stroke-linecap:round;stroke-miterlimit:10;}
	.st13{fill:#4F5086;}
	.st14{fill:none;stroke:#231F20;stroke-width:0.2907;stroke-miterlimit:10;}
	.st15{fill:#C93331;}
	.st16{fill:none;stroke:#C93331;stroke-width:1.1626;stroke-miterlimit:10;}
	.st17{fill:#511F14;}
	.st18{fill:#FECC82;}
	.st19{fill:#262943;}
	.st20{fill:#632C14;}
	.st21{fill:none;stroke:#C0873D;stroke-width:0.6693;stroke-linecap:round;stroke-miterlimit:10;}
	.st22{fill:#D0D2D3;}
	.st23{fill:#F47A34;}
	.st24{fill:#404B69;}
	.st25{fill:#F9A46A;}
	.st26{fill:#054D3B;}
	.st27{fill:none;stroke:#D0D2D3;stroke-width:0.6466;stroke-linecap:round;stroke-miterlimit:10;}
	.st28{fill:none;stroke:#632C14;stroke-width:1.3385;stroke-linecap:round;stroke-miterlimit:10;}
	.st29{fill:none;stroke:#632C14;stroke-width:1.2793;stroke-linecap:round;stroke-miterlimit:10;}
	.st30{fill:none;stroke:#FFFFFF;stroke-width:0.6693;stroke-miterlimit:10;}
	.st31{fill:#693618;}
	.st32{fill:#643218;}
	.st33{fill:none;stroke:#643218;stroke-width:1.2736;stroke-miterlimit:10;}
	.st34{fill:#44444C;}
	.st35{fill:#AE5526;}
	.st36{fill:#EBAC48;}
	.st37{fill:#056B54;}
	.st38{fill:#5B1D11;}
	.st39{fill:#FECD82;}
	.st40{fill:#783819;}
	.st41{fill:none;stroke:#C0873D;stroke-width:0.6368;stroke-linecap:round;stroke-miterlimit:10;}
	.st42{fill:#383738;}
	.st43{fill:#2A2842;}
	.st44{fill:#48496D;}
	.st45{fill:#6A6A6E;}
	.st46{fill:#8E4822;}
	.st47{fill:none;stroke:#8E4822;stroke-width:1.2736;stroke-miterlimit:10;}
	.st48{fill:none;stroke:#8E4822;stroke-width:1.2736;stroke-linecap:round;stroke-miterlimit:10;}
	.st49{fill:none;stroke:#44444C;stroke-width:0.6368;stroke-miterlimit:10;}
	.st50{fill:none;stroke:#5B1D11;stroke-width:1.2736;stroke-linecap:round;stroke-miterlimit:10;}
	.st51{fill:#2B2641;}
	.st52{fill:#F7BC82;}
	.st53{fill:none;stroke:#3B2518;stroke-width:0.9017;stroke-linecap:round;stroke-miterlimit:10;}
	.st54{fill:none;stroke:#C0873D;stroke-width:0.3005;stroke-linecap:round;stroke-miterlimit:10;}
	.st55{fill:none;stroke:#693618;stroke-width:0.6012;stroke-linecap:round;stroke-miterlimit:10;}
	.st56{fill:#929497;}
	.st57{fill:#423F56;}
</style>
<g>
	<g>
		<path class="st0" d="M709.8,64.5c0.5,0.4,1,0.6,1.4,0.5c1.2-0.3-0.8-6.6-0.4-8.5s3.1,1,4.3,1.8c1.1,0.8,0-6.7,0.8-9.3
			c0.7-2.6,8.2-5.4,16.6-1.7c0,0,4.4,11.7,4,19.7c-0.3,8-7.8,9.8-10.2,10c0,0,1,7.1,1.5,8.3c0,0-1.5,4.6-8.7,4.5s-7.8-4.4-7.8-4.4
			s0.8-5.8,0.7-8.5C711.6,68,709.8,64.5,709.8,64.5z"/>
		<path class="st1" d="M731.3,56.1c0,0.7,0.7,1.2,1.7,1.2s1.8-0.5,1.8-1.2s-0.8-1.2-1.7-1.2C732.1,54.9,731.3,55.5,731.3,56.1z"/>
		<path class="st1" d="M720.8,56.8c0,0.8,0.9,1.4,2,1.4s2.1-0.6,2.1-1.4c0-0.8-0.9-1.4-2-1.4C721.7,55.4,720.8,56,720.8,56.8z"/>
		<path class="st2" d="M743,162.7c0,0,17.1,44,19,60.2s-3,70.6-4,75.3h-6.7c0,0,0.1-64.9,0.6-71.1L728.5,181l-1.9-0.2
			c0,0-2.1,33.8-5.8,45.5c0,0,3.2,67.4,2.5,70.3l-7.4,1.5c0,0-8.7-49.8-8-75.3c0,0-10-44.3-6.3-61.7
			C701.4,161,741.6,158.9,743,162.7z"/>
		<path class="st3" d="M743.3,167.6c0,0-7.6-0.2-11.2-1.4c0.2,3.3,18.9,49.3,25,55.4c0,0,2,1.4,2.4,1.2
			C760,222.4,749.1,179.4,743.3,167.6z"/>
		<path class="st3" d="M721.9,166.2c-3.2-0.2-12.1-3.5-12.1-3.5s3.7,52.2,6.7,57.5c3,5.2,4.7-7.8,5-20.2
			C721.8,187.6,721.9,166.2,721.9,166.2z"/>
		<path class="st4" d="M711.2,85.4c0,0,0.6,4.3,7.8,4.4s8.7-4.5,8.7-4.5s13.5,2.2,14.4,4.5s11.1,32,11.2,40.7
			c0.1,8.7-5.1,7.7-7.6,7.7c0,0-1.3,3.3-1.5,5.2c-0.3,1.9,0,17.1-0.7,18.8c0,0-38.6-0.6-42.2-1.2c0,0-4-22.3-4.7-25.2
			c0,0-4.3-3.3-5.9-24.8c-1.6-21.5,2.2-23.6,2.2-23.6s5-4.1,18.5-3.4C711.4,84.1,711.1,84.8,711.2,85.4z"/>
		<path class="st5" d="M744.3,138.9c0,0-3.9,13.5-2.5,17.3c0,0-27.3,0.7-33.9-5.2c-6.4-5.9-4.7-10.9-4.7-10.9s7.7-1.6,9.4-3.3
			C712.6,136.7,718.3,139.9,744.3,138.9z"/>
		<path class="st5" d="M727.3,87.6c0,0,11.3,2.7,11.9,5.9c0.6,3.2-1.6,10.1-1.3,13.8c0.3,3.3,2.1,10.8,2.4,12.3c0,0.2-4.1,1-6.5,1.6
			c-2.3,0.5-23.8,2.4-23.8,2.4s-4.7-18.7-6.7-23.3c-2-4.6-3.7-10.8,0.4-12.7c4.1-1.9,6.8-1.5,6.8-1.5
			C710.7,88.2,716.9,95.8,727.3,87.6z"/>
		<path class="st0" d="M733.7,121.2l5.8-1.3l1.3,5.5c0,0-2.6,0.7-2.9,1.4c-0.3,0.7-3,0.3-3.4,0C733.9,126.6,733.4,124.4,733.7,121.2
			z"/>
		<path class="st0" d="M709.9,123.6c0,0-3.9-4.1-6.4-4.4c-2.4-0.3-5.7,2.9-5.8,4.4s3.8,2.1,5.1,2.3c1.3,0.1,2.2-1.9,3.7-1.4
			C708,124.8,709.9,123.6,709.9,123.6z"/>
		<path class="st6" d="M736.8,52c0,0-3.7-1.3-6-0.7l-1.1-2.1c0,0,6.2,0.2,7.2,1C737,50.2,737.1,51.6,736.8,52z"/>
		<path class="st6" d="M725.3,49.2l0.2,2.6c0,0-5.3,0-5.8,1.6l-1.4-1.7C718.2,51.6,720.6,49.6,725.3,49.2z"/>
		<g>
			<path class="st7" d="M725.4,56.6c0,0-2.7-3.4-4.8,0"/>
			<path class="st7" d="M735.9,55.8c0,0-0.8-1.4-2.5-1.2s-2.2,1.2-2.2,1.2"/>
		</g>
		<path class="st6" d="M731.7,56.1c0,0.8,0.4,1.4,0.9,1.4s1-0.6,1-1.4c0-0.8-0.4-1.4-0.9-1.4C732.2,54.7,731.7,55.3,731.7,56.1z"/>
		<path class="st6" d="M721.2,56.7c0,0.8,0.4,1.5,0.9,1.5s1-0.7,1-1.5s-0.4-1.5-0.9-1.5S721.3,55.9,721.2,56.7z"/>
		<path class="st8" d="M728,55.6c0.2,0.2,0.3,0.5,0.4,1c0.3,1.1,4,3.9,3.8,5c-0.2,1-2.7,2.6-4.9,1.3"/>
		<path class="st4" d="M733.7,68.2c0,0-9.1-0.8-10.7-1.6c0,0,1.6,6.2,5.1,6C731.8,72.4,733.8,69.3,733.7,68.2z"/>
		<path class="st1" d="M732.9,68.9c0,0-7.5-0.5-8.9-1.3c0,0,0.5,0.3,1.2,1.1c0.7,0.8,6.4,1.1,6.4,1.1S732.6,69.6,732.9,68.9z"/>
		<path class="st6" d="M732.4,47.2c0,0,7.8-5.4,4.6-9.2c-3.3-3.8-6.8-1.2-6.8-1.2s4.9-4.6,2.3-6.7c-2.5-2.1-7.6,0.1-8.7,1.2
			c0,0,0.8-2.5-1.3-3.3c-2.2-0.8-7.6,1.3-11.4,5.2c-3.7,3.9-5.2,5.6-6,5.1c-0.8-0.4-3.2-0.9-3.7,0.4c-0.5,1.3,0.5,11.6,4.8,19.3
			c2.4,5.5,3.7,7,5,6.7c1.2-0.3-0.8-6.6-0.4-8.5c0.4-1.9,3.1,1,4.3,1.8c1.1,0.8,0-6.7,0.8-9.3C716.5,46.3,724.1,43.5,732.4,47.2z"/>
		<path class="st9" d="M732,45.9c0,0,6.1-4.7,3.3-6.9s-7.1-0.4-7.1-0.4s5.1-6.4,3-7.3c-2.1-0.9-6.9,0.9-8.6,2.5c0,0,1-3.2-0.7-3.9
			c-1.6-0.7-5.3,0.7-7.4,2.5c-2.1,1.8-6.7,7.7-7.7,7.8s-3.2-0.9-3.5-0.1c-0.3,0.8,0.6,8.4,4.8,12.1s5.7-4.1,8.5-6.2
			C719,43.8,725.9,42.1,732,45.9z"/>
		<path class="st10" d="M700.2,96.5c0,0,1.7,16.2,5,21.9"/>
		<path class="st10" d="M733.5,127.3c0,0-17.6,6.9-19.8,8.2"/>
		<path class="st10" d="M729.7,87c0,0-2.6,5.7-10.8,5.5c-8.1-0.2-10.4-7.4-10.4-7.4"/>
		<g>
			<path class="st11" d="M728.8,162.3c0,0,3.4,6.8-2.1,12.2l-2.7-11.4"/>
			<path class="st11" d="M715.9,162.7c0,0,0.6,7.5-10.1,7"/>
			<path class="st11" d="M739.5,163.8c0,0,1.1,8.4,6.4,9.7"/>
			<path class="st11" d="M735.2,192c0,0,17.4,29.9,18.6,33c1.2,3-0.7,1.1-0.8,1.7c-0.1,0.7,0.9,1.5,1.3,1.9s-0.7,0.2-0.4,5
				c0.2,4.8-0.9,59.8-0.9,59.8"/>
			<path class="st11" d="M717.2,292.5c0,0-7-45.7-7.2-53.2c-0.2-7.4,0.6-15.9,0.6-15.9l0.8-0.6l-1.5-1.5c0,0-4-38.7-4.3-44.1
				c-0.4-5.4-0.9-13,0.5-14.9"/>
		</g>
		<path class="st10" d="M700.9,139.9c0,0,3,16.6,2.8,19.3"/>
		<path class="st12" d="M743.1,159.2c0,0-32.2-4.8-42.1-2.3"/>
		<g>
			<path class="st13" d="M714.9,293.2c0.5,3.1,0.8,4.9,0.8,4.9l7.4-1.5c0.1-0.4,0.1-2,0.1-4.4L714.9,293.2z"/>
			<path class="st13" d="M758.5,293.9c-0.2,2.1-0.4,3.5-0.5,4.1h-6.8c0,0,0-1.6,0-4.2L758.5,293.9z"/>
		</g>
		<line class="st14" x1="752.1" y1="294.3" x2="752.9" y2="297.4"/>
		<line class="st14" x1="716.7" y1="293.4" x2="717.1" y2="297.1"/>
		<path class="st5" d="M723.2,297.1c0,0,13.6,2.5,15,6.6l-23.6-0.5c0,0,0-2.4,1.2-5.1C715.7,298.1,721.1,296.7,723.2,297.1z"/>
		<path class="st15" d="M738.1,303.7c0,0,0.8,0.9,0.7,1.4h-24.9c0,0-0.5-1.1,0.6-2L738.1,303.7z"/>
		<path class="st5" d="M738.9,305.1c0,0,0.3,0.9,0.2,1.3s-25.7,0-25.7,0s-0.2-0.9,0.5-1.3H738.9z"/>
		<path class="st14" d="M738.9,305.1"/>
		<path class="st5" d="M751.2,298.1c0,0-1.1,4.6-0.7,5.8l24.4-2.2c0,0-1.5-2.7-17-3.6C757.9,298.1,752.3,297.9,751.2,298.1z"/>
		<path class="st15" d="M750.5,303.9c0,0-0.5,0.7-0.2,1.2l25.8-2.3c0,0-0.3-1.2-1.1-1.2L750.5,303.9z"/>
		<path class="st5" d="M750.3,305.1c0,0-0.4,0.7-0.1,1.3l26.7-2.4c0,0-0.3-1-0.8-1.2C775.6,302.6,750.3,305.1,750.3,305.1z"/>
		<path class="st16" d="M752,299.7"/>
		<path class="st12" d="M756.3,298.2c0,0,5.1,4.1,12.6,1.6"/>
		<path class="st12" d="M751,299.4c0,0,4.6-0.1,6.6,3.4"/>
		<path class="st12" d="M720.9,297.1c0,0,8.9,7.1,13.8,3.9"/>
		<path class="st12" d="M715.5,298.4c0,0,4.9,0.2,5.5,4.4"/>
	</g>
	<g>
		<path class="st4" d="M841.2,185.4c0,0-6,13.7-2.9,38.6c3.1,24.8,9.3,60.7,9.3,70.1c0,9.3,0.9,55.8,0.9,55.8h8.4l5.4-130.6l0,0
			l6.4,130.6h8.7c0,0,1.6-57.1,2.2-68.5c0.7-11.4,6-55.4,6.7-66.2c0.7-11-0.8-19.6-3.6-29.1C882.9,186,843.1,184.8,841.2,185.4z"/>
		<path class="st5" d="M880.4,191c0,0-10.6,1.1-12,4.9c0,0-0.4,68.7,6,85.4c0,0,7.2-38.4,8-62.7C883.2,194.4,880.4,191,880.4,191z"
			/>
		<rect x="854.1" y="121.4" class="st1" width="18.9" height="22.5"/>
		<path class="st17" d="M878.5,79.3c0,0,2.7-8.6-5.7-12.2c-4.4-1.9-9.5-2.9-13-2.8c-15.8,0.8-16.3,8.4-16.5,10.3
			c-1.8,18,0,37.4,0,37.4s5.8,2.7,15.9,2.3c0,0-2.2-25.3,2.9-28.4C867.2,82.8,875.2,77.1,878.5,79.3z"/>
		<path class="st18" d="M872.8,73.6c0,0,10.1,4.3,9.2,22.3c-0.9,18-12,15.2-12,15.2l-0.6,10.8c0,0-4,0.7-5.3,2.7
			c0,0-5.3-4.3-6.4-3.9c0,0-1.1-13.3-1.2-19.3c-0.1-5.9-0.6-15.2-0.6-15.2v-1.1c0,0,3.7,0,9.4-3.2C871.1,78.8,872.8,73.6,872.8,73.6
			z"/>
		<path class="st19" d="M847.4,122.4c0,0-3.6-0.6-6.1,0.8c-2.6,1.3-24.1,34.9-28.2,45.3c-4.1,10.3-9.8,48.8-9.8,48.8s6.6,1.9,7,3.1
			c0,0,9.8-40.4,10.9-45.6c1-5.2,19.3-29,19.3-29s5.3,10.1,5.2,16.1s-4.3,23.5-4.3,23.5s13.3,5.4,22.2,5.5s19.5-5,19.5-5
			s-5.3-15-4.1-24s6-19.9,6-19.9s4.1,23,6.8,25.9s26,9.2,26,9.2s-1.4-2-0.8-4.3c0.7-2.3,3.6-4.8,3.6-4.8s-18.6-6.3-20.4-8
			c-1.8-1.7-5.9-17.8-7.5-25.5c-1.7-7.8-4.9-11.8-6.9-12.3c-2-0.6-7.5,0-7.5,0l-14.7,24.1L847.4,122.4z"/>
		<path class="st1" d="M868.5,86.2c0,1.8-1.6,3.3-3.7,3.3c-2,0-3.7-1.5-3.7-3.3s1.6-3.3,3.7-3.3C866.9,82.9,868.5,84.4,868.5,86.2z"
			/>
		<path class="st1" d="M880,86.2c0,1.8-1.5,3.3-3.4,3.3s-3.4-1.5-3.4-3.3s1.5-3.3,3.4-3.3C878.5,82.9,880,84.4,880,86.2z"/>
		<path class="st20" d="M866.2,85.9c0,1.3-0.9,2.4-2.1,2.4c-1.1,0-2.1-1.1-2.1-2.4s0.9-2.4,2.1-2.4
			C865.3,83.6,866.2,84.6,866.2,85.9z"/>
		<path class="st20" d="M878.1,85.9c0,1.3-0.9,2.4-2.1,2.4c-1.1,0-2.1-1.1-2.1-2.4s0.9-2.4,2.1-2.4
			C877.2,83.6,878.1,84.6,878.1,85.9z"/>
		<path class="st20" d="M872.5,78.9l-0.3,2.2c0,0,5.6-0.7,7.4,0.2C879.6,81.3,880.6,77.7,872.5,78.9z"/>
		<path class="st21" d="M872,87.6c0.1,1.9,1.8,4.4,3.3,5.7c1.6,1.3-1.8,3.3-3.3,2.2"/>
		<path class="st4" d="M867.1,98.9c2.3,0.9,8.6,1.6,11.3-0.1c0,0-1,5.3-5.6,5.1S867.1,98.9,867.1,98.9z"/>
		<path class="st1" d="M868.5,99.9c0,0,4.3,1.4,8.6,0l-0.5,1.1c0,0-2.6,1.7-7.6,0L868.5,99.9z"/>
		<g>
			<path class="st22" d="M857.7,119.7l-3.6,1.6l7.2,9.2l2.9-6.1C864.2,124.5,859.6,120,857.7,119.7z"/>
			<path class="st22" d="M864.2,124.5l1.7,5.4l6.2-8.5l-2.5-1.2C869.6,120.2,865.1,122.4,864.2,124.5z"/>
		</g>
		<path class="st23" d="M847.4,121.4l2.7,10.8l3.7,0.8l-2.7,3l11.8,13.9l-0.8,40.9c0,0,1.3,0.8,2.9,0v-40.9l11.4-14.4l-3.3-1.6
			l4.2-1.1l0.8-11.3h-5.7l-8.7,21.2l-9.3-21.2L847.4,121.4L847.4,121.4z"/>
		<path class="st24" d="M846.7,125.1c0,0,1,10,3.6,13.4c2.6,3.3,10.3,12.6,10.3,12.6v35.2c0,0-14.3-0.7-15.5-2.9s5.3-21.1,4.4-26
			c-0.9-4.9-6.3-11.3-6.7-16C842.5,136.6,841.8,125.8,846.7,125.1z"/>
		<path class="st24" d="M880,125.2c0,0-1.4,11.5-4.2,15.1s-8.5,11.1-8.5,11.1v34.4c0,0,11-1.1,11.3-4s-4.5-22-3.6-27.3
			s6.8-7.7,8.1-14.3C884.3,133.4,884.4,124.3,880,125.2z"/>
		<path class="st24" d="M840,127c0,0-20.6,31.8-23.4,38.1c0,0,12.1-11.4,15.9-16.9C836.3,142.7,840,127,840,127z"/>
		<path class="st24" d="M887.3,126.3c0,0,4.6,13.6,8.4,29.9c0,0-6.3-7.9-7.3-13.8C887.4,136.6,887.3,126.3,887.3,126.3z"/>
		<path class="st24" d="M899.6,161.9c0,0-0.7,1.8-3.6,2.3c0,0,17.9,5.2,20.4,5.2L899.6,161.9z"/>
		<path class="st25" d="M920,168.5c0,0,4.5-0.4,6.7-1.7s4.5-4.8,6.3-6s-0.1,3.8-1.1,4.9s-1.7,1.9-1.7,1.9s5.6,1.7,5.8,3.7
			c0.2,1.9-4.6,9.2-7.2,9.2c-2.7,0-8-4.4-11.7-3.9C917.2,176.5,914.3,172.4,920,168.5z"/>
		<path class="st18" d="M936.1,171.2c0-0.3-0.3-0.7-0.6-1c-2.8-0.3-7.3-0.7-8.7,0.3c-2.2,1.5-1.3,6.7-0.5,8.1
			c0.4,0.6,1.1,1.2,1.9,1.7c0.2,0,0.5,0.1,0.7,0.1C931.6,180.4,936.3,173.1,936.1,171.2z"/>
		<path class="st18" d="M809.9,220c0,0,0,6-1.3,9c-1.3,3.1-9.8-0.9-11.3-2.9c0,0,1.8-3,4.4-5.2s2.4-3.4,2.4-3.4
			S809.2,218.9,809.9,220z"/>
		<path class="st26" d="M868.9,349.8c0,0-0.7,6.4,0.4,6.9c1,0.4,20.5,0.1,26,0c0.9,0,0.9-0.4,0-1c-2.2-1.5-3.9-3.4-10.4-4.6
			c-2.9-0.5-6.8-0.7-7.2-1.4L868.9,349.8L868.9,349.8z"/>
		<path class="st26" d="M857.3,349.8c0,0,0.7,6.4-0.4,6.9c-1,0.4-20.5,0.1-26,0c-0.9,0-0.9-0.4,0-1c2.2-1.5,6.5-4.1,8.6-4.4
			c2.9-0.3,8.7-0.9,9-1.6L857.3,349.8L857.3,349.8z"/>
		<line class="st27" x1="864.2" y1="124.5" x2="863.4" y2="141.5"/>
		<path class="st28" d="M860.3,85.1c0,0,2-2.1,4.3-2c2.2,0.1,4.2,1.5,4.2,1.5"/>
		<path class="st29" d="M872.4,85.1c0,0,1.9-2.1,3.9-2s3.8,1.5,3.8,1.5"/>
		<path class="st30" d="M857.2,83.6H872c0,0-1.2,8-7.3,8C858.4,91.6,857.2,83.6,857.2,83.6z"/>
		<path class="st30" d="M872,83.6h14.8c0,0-1.2,8-7.3,8C873.1,91.6,872,83.6,872,83.6z"/>
		<path class="st31" d="M870.6,71.2c0,0-4.3,11.2-18.3,9.3C852.3,80.5,864.5,78.7,870.6,71.2z"/>
		<path class="st31" d="M866.2,70.6c0,0-4.5,6.8-14,6.8C859.1,75.2,866.2,70.6,866.2,70.6z"/>
		<path class="st31" d="M852.3,85.1c0.4,0.2-0.9,13.1,2.4,29.1c0,0-5.5-0.7-7.3-1c-1.9-0.4-1.8-33.1-0.9-36.8
			C847.4,72.7,846.8,83,852.3,85.1z"/>
	</g>
	<g>
		<polygon class="st32" points="697.8,338 700.6,257 696.5,256.8 693.7,337.7 		"/>
		<line class="st33" x1="764.7" y1="337.5" x2="731.9" y2="315.2"/>
		<path class="st32" d="M790.6,306l13.2,67.8L786,307C786,306.9,788.4,303.4,790.6,306z"/>
		<path class="st32" d="M756.6,308.8l12,63.4l-16.2-63.8C752.5,308.5,755.4,307,756.6,308.8z"/>
		<path class="st34" d="M723.2,359.3c0,0,0.3,5.6,1.2,7.2c0.9,1.7-1.1,2.7-4,2.5c-2.8-0.2-6.8-0.6-9.1,0.1c-2.2,0.7-9,3-13.6,2
			c-4.5-0.9,4.2-3.3,7.5-4.9c3.2-1.6,8.7-6.2,9.6-7.7C714.8,358.5,723.1,358.3,723.2,359.3z"/>
		<path class="st34" d="M691.9,359.5c0,0,0.7,6.4,0.1,9.4c0,0-23.8-0.4-27.2-1.9c0,0,0.2-1.3,1.5-1.6c1.4-0.2,7.7-1.4,10.1-2.7
			c2.5-1.3,9-3.7,9-3.7S690.8,357.9,691.9,359.5z"/>
		<path class="st23" d="M808.4,206.9c0,0,17.7,3.9,21.1,33.3c3.4,29.3-0.6,47.2-13.1,55.7c-12.4,8.4-56.2,24.3-106.5,0.8l3.2-15
			l53.7-13.5l13.1-47L808.4,206.9z"/>
		<path class="st35" d="M710,296.7l3.2-15l53.7-13.5l13.1-47l28.5-14.3c0,0,4.8,1.1,9.8,6.2c-0.7,11.6-2.5,37.5-5.2,40.1
			c-3.5,3.3-4.1,21.1-5.2,27.4c-1.2,6.3-7,11-17.9,11.9c-10.9,0.8-53.7,5.8-54.1,8c-0.2,1-0.3,3.1-0.3,5.1
			C727.3,303.6,718.7,300.8,710,296.7z"/>
		<path class="st36" d="M807.8,280.6c1.2-6.3,1.8-24.1,5.2-27.4c2.1-1.9,3.6-17.8,4.5-30.2c2.7,3.7,8.4,13.9,9.1,32.9
			c0.8,24.9-10.6,36.3-30.2,35.6l0,0C803.1,289.4,806.9,285.4,807.8,280.6z"/>
		<path class="st37" d="M790,188.9c0,0,19.9-0.5,22.5,1.6c2.7,2.1,2.6,8.2,1.8,19.2s-2.9,37.6-3.8,39.3c-1.2,2.2-3.9,2.1-3.9,2.1
			l-1.9,27.3L761.8,267l2.7-25.6c0,0,3.5-0.5,4.4-9.9c0.8-9.4,0.4-11.2,0.4-11.2l-5.5,6.9l-6.4-10.9c0,0,7.9-21.8,11.3-26.3
			c0,0,3.5-1,6.5-1.1C778.1,188.5,790,188.9,790,188.9z"/>
		<path class="st38" d="M806.5,150.3c0,0,3.2-3.4,3.6-6.5s0.4-6.4-2.5-6.9c0,0,0.8-8.9-6-12.1c-6.7-3.2-13.6-3.5-17.9-1.2
			c-4.4,2.2-8.5,9.9-5.6,14.3c0,0-1.8,0.5-1.9,3c-0.1,2.5-0.5,7.2,2,8.8L806.5,150.3z"/>
		<path class="st39" d="M806.9,139.6c-0.1-1.6-8.9-3.4-13.2-3.7c-4.2-0.2-13.2,0.1-14.7,3.3l-1.1,10.4c0,0-3.6,0.1-3.4,2.6
			c0.2,2.6,1.1,4,2.8,4.5c0,0,0.5,10.3,2.4,14.9c1.9,4.5,3.9,5.5,3.9,5.5l-1.3,10.8c0,0-1.1,7.6,6.7,8c7.9,0.4,7.5-7.3,7.5-7.3
			l1.1-11.8c0,0,6.7-6.1,8-17.4c0,0,3.9,0.6,4.3-4.6c0.4-5.3-3.7-4.6-3.7-4.6S807,140.9,806.9,139.6z"/>
		<polygon class="st40" points="795,143.2 795.5,140.4 803.8,143.4 803.3,145.2 		"/>
		<polygon class="st40" points="789.3,139.9 789.2,143.4 781.3,144.2 780.8,142.2 		"/>
		<path class="st1" d="M795.3,152.2c0,1.6,1.5,3,3.5,3.2c2,0.1,3.6-1.1,3.7-2.7c0.1-1.6-1.5-3-3.5-3.2
			C797,149.4,795.3,150.6,795.3,152.2z"/>
		<path class="st1" d="M782.3,151.1c-0.1,1.6,1.4,3,3.3,3.1c1.9,0.1,3.4-1.1,3.5-2.7c0.1-1.6-1.4-3-3.3-3.1
			C784,148.3,782.3,149.5,782.3,151.1z"/>
		<path class="st38" d="M784.1,150.8c0,1.2,0.7,2.3,1.6,2.3c0.9,0.1,1.7-0.9,1.7-2.1c0-1.2-0.7-2.3-1.6-2.3S784.1,149.6,784.1,150.8
			z"/>
		<path class="st38" d="M797.2,151.7c0,1.2,0.7,2.3,1.6,2.3c0.9,0.1,1.7-0.9,1.7-2.1c0-1.2-0.7-2.3-1.6-2.3S797.3,150.5,797.2,151.7
			z"/>
		<path class="st41" d="M790.6,154.8c-0.2,2.5-1.3,3.2-3,4.6c-1.6,1.4,1.6,3.9,5,3"/>
		<path class="st4" d="M796.7,168.1c-0.9,0.5-9.6,0.6-12.8-0.7c0,0,1.1,6.2,6.5,6C795.9,173.2,796.3,169.6,796.7,168.1z"/>
		<path class="st1" d="M794.7,168.9c0,0-3.2,0.6-9.3-0.4l0.8,1.4c0,0,4.7,1.4,8,0.2L794.7,168.9z"/>
		<path class="st40" d="M796.2,136.1c0,0-8.7-6.1-6.8-14.1l-2,0.2c0,0-3.9,7.4,7.1,13.7L796.2,136.1z"/>
		<path class="st40" d="M791.9,135.9h-1.6c0,0-7.5-3.7-7.7-11.6l1.5-1C784.1,123.4,784.7,131.5,791.9,135.9z"/>
		<path class="st40" d="M787.7,136l-1.2,0.1c0,0-6.5-1-7.4-8.1l1.2-1.7C780.3,126.3,780.7,132.6,787.7,136z"/>
		<polygon class="st42" points="775.7,258 775.6,262.2 704,257.3 703.6,254.3 		"/>
		<path class="st43" d="M804.7,278.3c0,0-1,10.6-22.8,11.9c-21.9,1.2-48.3,6.8-48.3,6.8s-1.1,7.3-0.4,11.7
			c0.7,4.3-1.8,16.3-4.2,24.6c-2.4,8.3-5.5,22.3-5.6,25.9c0,0-1.6,0.5-8.3-0.8l4.8-73.5c0,0-2.7,1.7-3,4.3
			c-0.3,2.6-1.8,14.4-4.9,21.8c0,0-18.9,44.9-19.8,48.3l-6.4-0.4c0,0,12.8-59.2,15.3-67.2c2.5-7.9,4.1-13.3,5.1-15.6
			c1-2.3,4.1-3.5,20.9-5.4s35.1-3.9,35.1-3.9L804.7,278.3z"/>
		<path class="st44" d="M794.6,280.4l-24.2-7.9l-45.6,11.4C724.7,283.9,750.6,294.8,794.6,280.4z"/>
		<path class="st44" d="M760.1,268.4l-46.7,5.8C713.4,274.2,742.4,285.5,760.1,268.4z"/>
		<path class="st44" d="M724.4,294.9l-6.7,62.7l4.6,0.3c0,0,4.7-25,7.2-35.1C731.8,312.9,733,301,724.4,294.9z"/>
		<path class="st44" d="M705.5,296.4c0,0,5.6,8.4,3.7,15.6c-1.9,7.1-18.3,45.5-18.3,45.5l-3.4-0.2L705.5,296.4z"/>
		<path class="st45" d="M721.4,361.3c0,0,0.7,5.7,0.5,6.3c-0.2,0.6-3,0-6-0.1s-9.7,1.2-12.2,1.5c-2.4,0.2,1.7-1,6.5-4
			c4.8-2.9,6.3-4.1,6.3-4.1L721.4,361.3z"/>
		<path class="st45" d="M690.6,360.9c0,0,0.9,5.6,0.3,6.3c-0.6,0.7-16.7-0.3-18.8-0.7c-2.1-0.4,11.5-4.8,13.8-5.4
			C686,361.1,689.1,359.6,690.6,360.9z"/>
		<polygon class="st46" points="696.3,260.8 819,269.4 819.1,265.2 696.5,256.8 		"/>
		<polygon class="st46" points="819.2,371.4 819.1,265.2 813.9,264.8 815.2,372.1 		"/>
		<line class="st47" x1="800.6" y1="319.5" x2="762.7" y2="344.6"/>
		<line class="st48" x1="805.7" y1="339.2" x2="756.9" y2="314.8"/>
		<line class="st33" x1="774.1" y1="315.8" x2="728.8" y2="333.3"/>
		<g>
			<polygon class="st49" points="789.3,152.4 789.2,156.2 778.5,155.5 778.6,152.1 			"/>
			<line class="st49" x1="789.2" y1="154.5" x2="792.3" y2="154.5"/>
			<polygon class="st49" points="803.4,153.2 803.3,156.8 792.3,156.4 792.4,152.7 			"/>
		</g>
		<path class="st50" d="M802.6,150.6c0,0-1.7-1.3-3.8-1.4c-2.1-0.1-3.4,0.9-3.4,0.9"/>
		<path class="st50" d="M788.9,149.7c0,0-0.7-1.2-3-1.3c-2.4-0.1-4,0.8-4,0.8"/>
		<path class="st26" d="M802.1,202.9l-6.6,30.1l-29.4,11.4v1.5c0,0,31-9.1,31.2-9S802.1,202.9,802.1,202.9z"/>
		<polygon class="st26" points="805.7,251 765.7,253.9 766.2,254.9 805.7,252.2 		"/>
		<polygon class="st34" points="764.7,215 703.2,212.1 703.6,254.3 765.6,258 		"/>
		<path class="st45" d="M761,217.3l1.1,36.3c0,0-47.3-10.2-56.9-39.3L761,217.3z"/>
		<path class="st46" d="M801.2,303l12.7,69.7l-13.8-52.6l-4.1-15.6C796,304.6,799.9,301.5,801.2,303z"/>
		<path class="st46" d="M781,307.7l-28.7,59.5l23.7-58.9C776,308.4,780,305.3,781,307.7z"/>
	</g>
	<g>
		<path class="st31" d="M637,304.1c0,0-1.5,0.8-1.3,1.4c0.1,0.6,24.7-0.4,25.7-1.4s-0.1-1.5-0.1-1.5
			C660.1,302.2,637,304.1,637,304.1z"/>
		<path class="st31" d="M621.5,304.7c0,0-1.2,1.2-1,1.7s24.2-7.7,24.9-8.8c0.7-1.2-0.7-1.4-0.7-1.4
			C643.7,296,621.5,304.7,621.5,304.7z"/>
		<path class="st51" d="M638,165.7c0,0-12.5,43.4-14.2,56.2c-1.1,2.4,5.2,54.5,13.4,68.7h5.6c0,0-5.8-59.3-4.9-61.3
			c3-6.6,15.5-39.2,15.5-39.2s2.2,41,2.1,50.7c-0.1,9.8-1.1,54.6-1.1,54.6l6.2-0.1c0,0,5.2-18.8,7.1-27c2-8.2,2.7-34.7,1.4-41.7
			s9.5-34.6,6.4-48.5c0,0-0.2-12.7-9.7-13.7C656.3,163.5,642.9,164.4,638,165.7z"/>
		<path class="st45" d="M623.9,141.5c-0.4-1.2,4.6-24,4.6-24c2,5.6,6.3,19.2,6.3,19.2l1.4,9.6l1.7,19.4l34.8,7.6
			c0,0,5.4,4.8,7.6,5.6c2.2,0.8,9.7-15.1,9.7-15.1c3.4-4.6,9.1-15.5,9.1-20.2c-0.1-4.8-11.6-44.1-17.3-52.6s-23.4-3.8-29.7-2.6
			c0,0-15.8,2.6-22.7,5.6c-7,3-9.7,8.4-11.8,14.3c-2,5.9-6.2,25.6-6.9,29.9c-0.7,4.4-0.7,8.4,2.8,11.6l19.4,21.2l6.5-5.5
			L623.9,141.5z"/>
		<path class="st31" d="M635.1,51.6c0,0-3.9-6.8-1.4-13.2c2.4-6.3,9.2-8.7,14.4-8.9c5.1-0.2,13.9,2.2,15.1,8.5
			c1.2,6.3-1.7,12.9-1.7,12.9L635.1,51.6z"/>
		<path class="st52" d="M636.1,40.9c0,0-1.7,7.8-1.5,10c0,0-3.8-0.1-3.7,3.3c0.1,3.4,3.6,4,4.7,3.5c0,0,0.9,10.7,2.2,14.8
			c1.2,4.1,6,9.2,6,9.2l0.4,8.2c0,0,0.6,7.3,9.8,5.7c9.2-1.6,8.6-8.5,8.6-8.5l-2.7-10.6c0,0,1.8-1.2,2.2-10.8
			c0.3-9.5,0.3-10.3,0.3-10.3s4.1-0.7,4.4-3.8c0.3-3.1-3.5-3.8-4.7-3.4c0,0-0.3-6.9-3.4-9.8c0,0-4.2,2-11.1,2.7
			C641,41.9,636.1,40.9,636.1,40.9z"/>
		<path class="st31" d="M651.9,45.5c0,0,5.9,0,7.2,0.6v1.2c0,0-5.6-0.4-7.2,0V45.5z"/>
		<path class="st31" d="M644.8,46.4c-2.7,0-5.3,0.5-6.5,1.2v1.1c1.2-0.6,5-0.7,6.7-0.7L644.8,46.4z"/>
		<path class="st1" d="M658.4,52.9c-0.1,1.5-1.3,2.7-2.9,2.7c-1.5,0-2.8-1.2-2.7-2.7s1.3-2.7,2.9-2.7
			C657.1,50.1,658.5,51.4,658.4,52.9z"/>
		<path class="st1" d="M644.8,53.9c-0.1,1.5-1.3,2.7-2.9,2.7c-1.5,0-2.8-1.2-2.7-2.7s1.4-2.7,2.9-2.7
			C643.7,51.2,644.8,52.4,644.8,53.9z"/>
		<path class="st31" d="M643.4,53.4c0,1.1-0.8,2-1.6,2s-1.5-0.9-1.4-2c0-1.1,0.8-2,1.6-2S643.4,52.3,643.4,53.4z"/>
		<path class="st31" d="M657,52.1c0,1.1-0.8,2-1.6,2s-1.5-0.9-1.4-2c0-1.1,0.8-2,1.6-2S657.1,51,657,52.1z"/>
		<path class="st53" d="M638.6,53.1c0,0,1-1.7,3.1-1.8c2.2-0.1,3.2,0.9,3.2,0.9"/>
		<path class="st53" d="M652.3,51.6c0,0,0.8-1.5,3-1.5c2.3,0,3.1,0.7,3.1,0.7"/>
		<path class="st54" d="M646.2,54.6c0,0-2.1,9.7-0.4,10.2c1.8,0.5,5.3-0.3,5.3-1.2c0-0.9-0.8-7.6-1.3-9"/>
		<path class="st55" d="M643.6,71c0,0,1.2,2,5.2,1.6c4.1-0.4,4-1.8,5.2-2.5"/>
		<path class="st56" d="M678.9,103.5c0,0,2.7,14.3,6.1,23.9c3.5,9.6,10,17,7.6,16.4c-3.4-0.8-21.3,23.5-16.8,29.3c0,0-4.7-1-2.7-6
			s9.4-19,12.1-22.8c2.6-3.8-5.8-15.7-7.5-22.8C675.9,114.2,678.9,103.5,678.9,103.5z"/>
		<path class="st57" d="M654.4,172.7c0,0,12.8,1.1,15.5,4.1c0,0-1.9,37.2-10.3,45.8C659.6,222.6,655.7,219.8,654.4,172.7z"/>
		<path class="st57" d="M632.8,230c3.7,4.9,3.3,49.9,3.3,49.9S625.4,231,625.5,227S628.9,225.1,632.8,230z"/>
		<path class="st23" d="M642.8,290.6c0,0,2.7,4.4,1.9,5.8s-22.8,8.6-22.8,8.6s1.9-4.9,8.4-8.9s6.9-5.5,6.9-5.5H642.8L642.8,290.6z"
			/>
		<path class="st23" d="M654.2,295.4c0,0-14.9,5.8-17.6,9c0,0,16.5,0.4,24.4-1.5c0,0,1.2-3.8-0.5-7.6L654.2,295.4z"/>
		<path class="st56" d="M636.6,136.6c0,0-5.1-32.7-8.3-36.1c0,0,5.1-3.1,14.3-4.8c0,0,4.8,6.4,13.8,3.6c8.9-2.8,10-9,10-9
			s11.9-2.6,14.4,1.4c0,0-8.3,19.6-6,28s3.1,29.6-3,42.7c0,0-18.6-3.7-23-2.1c0,0-7.8-5.4-8.2-8.5
			C638.7,150.4,636.6,136.6,636.6,136.6z"/>
		<path class="st56" d="M614.4,142.8c0,0,1.9-2.9,6.2,1.6l13.9,21.4c0,0,0.6-0.4-1.6,0.3C632.9,166.2,609.1,145,614.4,142.8z"/>
		<path class="st52" d="M672.7,173.3c0,0-7.9,3.4-9.7,6.9c0,0,4-0.1,5.7,1.1c1.7,1.2,7.1,5.9,7.1,7.3c0,0,2.1-2.9,2.8-10.7
			L672.7,173.3z"/>
		<path class="st52" d="M631.3,168.6c0,0,1-3.9,5.8-4.5c0,0,0.7,0.8,1.7,2.1c2.6,3.3-3.6,11.2-4.2,9.8
			C634.1,174.8,631.3,168.6,631.3,168.6z"/>
		<line class="st55" x1="645.7" y1="299" x2="650.5" y2="299.9"/>
		<line class="st55" x1="649.7" y1="297.3" x2="653.1" y2="298.1"/>
		<line class="st55" x1="630.6" y1="296.2" x2="635.3" y2="296.1"/>
		<line class="st55" x1="634.5" y1="293.6" x2="637.9" y2="293.9"/>
	</g>
</g>
</svg>
