<?xml version="1.0" encoding="UTF-8" standalone="no"?>
<!-- Created with Inkscape (http://www.inkscape.org/) -->

<svg
   xmlns:dc="http://purl.org/dc/elements/1.1/"
   xmlns:cc="http://creativecommons.org/ns#"
   xmlns:rdf="http://www.w3.org/1999/02/22-rdf-syntax-ns#"
   xmlns:svg="http://www.w3.org/2000/svg"
   xmlns="http://www.w3.org/2000/svg"
   xmlns:xlink="http://www.w3.org/1999/xlink"
   xmlns:sodipodi="http://sodipodi.sourceforge.net/DTD/sodipodi-0.dtd"
   xmlns:inkscape="http://www.inkscape.org/namespaces/inkscape"
   width="223.30869mm"
   height="39.199608mm"
   viewBox="0 0 791.25125 138.89625"
   id="svg15816"
   version="1.1"
   inkscape:version="0.91 r13725"
   sodipodi:docname="title.svg">
  <defs
     id="defs15818">
    <clipPath
       clipPathUnits="userSpaceOnUse"
       id="clipPath10736">
      <path
         d="m 351.186,1358.881 0,-19.44 8.999,0 c 2.661,0 4.681,0.512 6.064,1.538 l 0,0 c 1.385,1.025 2.075,2.527 2.075,4.508 l 0,0 c 0,3.75 -2.713,5.626 -8.139,5.626 l 0,0 -4.868,0 0,7.768 -4.131,0 z m 4.131,-10.879 4.623,0 c 1.348,0 2.391,-0.195 3.128,-0.58 l 0,0 c 0.738,-0.388 1.108,-1.068 1.108,-2.04 l 0,0 c 0,-0.938 -0.355,-1.653 -1.063,-2.146 l 0,0 c -0.71,-0.49 -1.745,-0.737 -3.103,-0.737 l 0,0 -4.693,0 0,5.503 z"
         id="path10738"
         inkscape:connector-curvature="0" />
    </clipPath>
    <linearGradient
       x1="0"
       y1="0"
       x2="1"
       y2="0"
       gradientUnits="userSpaceOnUse"
       gradientTransform="matrix(-351.52368,0,0,351.52368,369.09,1349.1611)"
       spreadMethod="pad"
       id="linearGradient10744">
      <stop
         style="stop-opacity:1;stop-color:#47c0b8"
         offset="0"
         id="stop10746" />
      <stop
         style="stop-opacity:1;stop-color:#47c0b8"
         offset="0.0393917"
         id="stop10748" />
      <stop
         style="stop-opacity:1;stop-color:#47d2b1"
         offset="0.348613"
         id="stop10750" />
      <stop
         style="stop-opacity:1;stop-color:#47d2b1"
         offset="0.4222168"
         id="stop10752" />
      <stop
         style="stop-opacity:1;stop-color:#12b56a"
         offset="1"
         id="stop10754" />
    </linearGradient>
    <clipPath
       clipPathUnits="userSpaceOnUse"
       id="clipPath10710">
      <path
         d="m 330.636,1358.881 0,-3.233 6.328,0 0,-16.207 4.148,0 0,16.207 6.329,0 0,3.233 -16.805,0 z"
         id="path10712"
         inkscape:connector-curvature="0" />
    </clipPath>
    <clipPath
       clipPathUnits="userSpaceOnUse"
       id="clipPath10684">
      <path
         d="m 316.029,1358.804 c -1.253,-0.288 -2.408,-0.708 -3.463,-1.258 l 0,0 1.337,-2.953 c 0.843,0.398 1.723,0.743 2.636,1.038 l 0,0 c 0.915,0.292 1.87,0.437 2.865,0.437 l 0,0 c 1.22,0 2.118,-0.307 2.698,-0.922 l 0,0 c 0.58,-0.615 0.87,-1.543 0.87,-2.786 l 0,0 0,-1.037 -3.358,-0.105 c -3.045,-0.093 -5.313,-0.65 -6.801,-1.671 l 0,0 c -1.488,-1.02 -2.233,-2.53 -2.233,-4.535 l 0,0 c 0,-1.886 0.535,-3.346 1.608,-4.376 l 0,0 c 1.073,-1.033 2.563,-1.548 4.473,-1.548 l 0,0 c 1.49,0 2.708,0.215 3.658,0.643 l 0,0 c 0.948,0.427 1.893,1.233 2.831,2.415 l 0,0 0.14,0 0.825,-2.705 2.953,0 0,13.094 c 0,2.311 -0.63,4.003 -1.891,5.081 l 0,0 c -1.257,1.078 -3.125,1.618 -5.598,1.618 l 0,0 c -1.113,0 -2.295,-0.145 -3.55,-0.43 m -0.386,-15.84 c -0.517,0.475 -0.775,1.147 -0.775,2.013 l 0,0 c 0,1.195 0.443,2.082 1.328,2.663 l 0,0 c 0.885,0.58 2.3,0.905 4.246,0.977 l 0,0 2.495,0.105 0,-1.688 c 0,-1.512 -0.452,-2.687 -1.363,-3.525 l 0,0 c -0.907,-0.838 -2.11,-1.255 -3.61,-1.255 l 0,0 c -1.033,0 -1.805,0.237 -2.321,0.71"
         id="path10686"
         inkscape:connector-curvature="0" />
    </clipPath>
    <clipPath
       clipPathUnits="userSpaceOnUse"
       id="clipPath10658">
      <path
         d="m 290.207,1358.881 0,-19.44 9.281,0 c 2.671,0 4.709,0.495 6.109,1.485 l 0,0 c 1.4,0.99 2.1,2.405 2.1,4.246 l 0,0 c 0,1.23 -0.397,2.232 -1.195,3.005 l 0,0 c -0.798,0.773 -1.945,1.248 -3.445,1.423 l 0,0 0,0.142 c 2.682,0.48 4.025,1.868 4.025,4.166 l 0,0 c 0,3.316 -2.543,4.973 -7.629,4.973 l 0,0 -9.246,0 z m 4.131,-3.128 5.01,0 c 1.196,0 2.093,-0.172 2.698,-0.52 l 0,0 c 0.603,-0.345 0.906,-0.905 0.906,-1.678 l 0,0 c 0,-0.937 -0.358,-1.585 -1.073,-1.942 l 0,0 c -0.715,-0.358 -1.763,-0.535 -3.146,-0.535 l 0,0 -4.395,0 0,4.675 z m 0,-7.751 4.763,0 c 1.453,0 2.543,-0.197 3.27,-0.59 l 0,0 c 0.726,-0.393 1.091,-1.058 1.091,-1.995 l 0,0 c 0,-1.946 -1.418,-2.918 -4.256,-2.918 l 0,0 -4.868,0 0,5.503 z"
         id="path10660"
         inkscape:connector-curvature="0" />
    </clipPath>
    <clipPath
       clipPathUnits="userSpaceOnUse"
       id="clipPath10632">
      <path
         d="m 269.481,1356.578 c -1.615,-1.767 -2.425,-4.23 -2.425,-7.381 l 0,0 c 0,-2.028 0.375,-3.81 1.125,-5.346 l 0,0 c 0.75,-1.535 1.823,-2.712 3.218,-3.533 l 0,0 c 1.393,-0.82 3.001,-1.23 4.816,-1.23 l 0,0 c 2.905,0 5.173,0.89 6.803,2.673 l 0,0 c 1.628,1.78 2.443,4.258 2.443,7.436 l 0,0 c 0,3.071 -0.82,5.511 -2.46,7.321 l 0,0 c -1.643,1.811 -3.868,2.716 -6.681,2.716 l 0,0 c -2.941,0 -5.221,-0.885 -6.839,-2.656 m 1.831,-7.381 c 0,2.143 0.387,3.791 1.167,4.938 l 0,0 c 0.78,1.148 2.036,1.723 3.771,1.723 l 0,0 c 3.305,0 4.958,-2.22 4.958,-6.661 l 0,0 c 0,-4.488 -1.643,-6.733 -4.923,-6.733 l 0,0 c -3.316,0 -4.973,2.245 -4.973,6.733"
         id="path10634"
         inkscape:connector-curvature="0" />
    </clipPath>
    <clipPath
       clipPathUnits="userSpaceOnUse"
       id="clipPath5422">
      <path
         d="m 652.44,1308.501 c 0,-6.228 5.051,-11.279 11.279,-11.279 l 0,0 c 6.231,0 11.282,5.051 11.282,11.279 l 0,0 c 0,6.228 -5.051,11.279 -11.282,11.279 l 0,0 c -6.228,0 -11.279,-5.051 -11.279,-11.279"
         id="path5424"
         inkscape:connector-curvature="0" />
    </clipPath>
    <linearGradient
       x1="0"
       y1="0"
       x2="1"
       y2="0"
       gradientUnits="userSpaceOnUse"
       gradientTransform="matrix(-633.00006,0,0,633.00006,675.00006,1308.5)"
       spreadMethod="pad"
       id="linearGradient5430">
      <stop
         style="stop-opacity:1;stop-color:#47c0b8"
         offset="0"
         id="stop5432" />
      <stop
         style="stop-opacity:1;stop-color:#47c0b8"
         offset="0.0393917"
         id="stop5434" />
      <stop
         style="stop-opacity:1;stop-color:#47d2b1"
         offset="0.348613"
         id="stop5436" />
      <stop
         style="stop-opacity:1;stop-color:#47d2b1"
         offset="0.4222168"
         id="stop5438" />
      <stop
         style="stop-opacity:1;stop-color:#12b56a"
         offset="1"
         id="stop5440" />
    </linearGradient>
    <clipPath
       clipPathUnits="userSpaceOnUse"
       id="clipPath10606">
      <path
         d="m 249.953,1358.881 c -0.152,-3.233 -0.635,-6.253 -1.45,-9.061 l 0,0 c -0.815,-2.806 -1.913,-5.201 -3.295,-7.181 l 0,0 -1.583,0 0,-10.072 3.816,0 0,6.874 13.322,0 0,-6.874 3.85,0 0,10.072 -2.848,0 0,16.242 -11.812,0 z m 2.171,-10.299 c 0.71,2.343 1.175,4.721 1.397,7.136 l 0,0 4.184,0 0,-13.079 -8.174,0 c 1.02,1.617 1.885,3.598 2.593,5.943"
         id="path10608"
         inkscape:connector-curvature="0" />
    </clipPath>
    <linearGradient
       x1="0"
       y1="0"
       x2="1"
       y2="0"
       gradientUnits="userSpaceOnUse"
       gradientTransform="matrix(-351.52368,0,0,351.52368,369.09,1345.7246)"
       spreadMethod="pad"
       id="linearGradient10614">
      <stop
         style="stop-opacity:1;stop-color:#47c0b8"
         offset="0"
         id="stop10616" />
      <stop
         style="stop-opacity:1;stop-color:#47c0b8"
         offset="0.0393917"
         id="stop10618" />
      <stop
         style="stop-opacity:1;stop-color:#47d2b1"
         offset="0.348613"
         id="stop10620" />
      <stop
         style="stop-opacity:1;stop-color:#47d2b1"
         offset="0.4222168"
         id="stop10622" />
      <stop
         style="stop-opacity:1;stop-color:#12b56a"
         offset="1"
         id="stop10624" />
    </linearGradient>
    <clipPath
       clipPathUnits="userSpaceOnUse"
       id="clipPath10580">
      <path
         d="m 235.926,1358.881 0,-7.803 -9.159,0 0,7.803 -4.13,0 0,-19.44 4.13,0 0,8.384 9.159,0 0,-8.384 4.131,0 0,19.44 -4.131,0 z"
         id="path10582"
         inkscape:connector-curvature="0" />
    </clipPath>
    <clipPath
       clipPathUnits="userSpaceOnUse"
       id="clipPath10554">
      <path
         d="m 203.106,1356.508 c -1.58,-1.815 -2.373,-4.313 -2.373,-7.488 l 0,0 c 0,-3.093 0.853,-5.521 2.558,-7.286 l 0,0 c 1.705,-1.763 4.071,-2.646 7.094,-2.646 l 0,0 c 1.325,0 2.503,0.1 3.533,0.3 l 0,0 c 1.03,0.198 2.05,0.538 3.058,1.02 l 0,0 0,3.356 c -1.135,-0.503 -2.201,-0.863 -3.191,-1.08 l 0,0 c -0.99,-0.218 -2.057,-0.325 -3.208,-0.325 l 0,0 c -1.745,0 -3.098,0.507 -4.06,1.52 l 0,0 c -0.96,1.013 -1.471,2.463 -1.528,4.351 l 0,0 12.954,0 0,2.232 c 0,2.731 -0.745,4.874 -2.232,6.434 l 0,0 c -1.488,1.558 -3.516,2.338 -6.081,2.338 l 0,0 c -2.766,0 -4.941,-0.908 -6.524,-2.726 m 3.368,-1.652 c 0.79,0.832 1.843,1.247 3.156,1.247 l 0,0 c 1.312,0 2.343,-0.412 3.093,-1.237 l 0,0 c 0.75,-0.828 1.137,-2.043 1.16,-3.648 l 0,0 -8.824,0 c 0.153,1.592 0.623,2.808 1.415,3.638"
         id="path10556"
         inkscape:connector-curvature="0" />
    </clipPath>
    <clipPath
       clipPathUnits="userSpaceOnUse"
       id="clipPath10528">
      <path
         d="m 190.487,1358.881 -4.361,-10.616 c -0.35,-0.938 -0.768,-2.281 -1.248,-4.026 l 0,0 -0.227,-0.843 c -0.61,2.508 -1.103,4.236 -1.478,5.186 l 0,0 -4.218,10.299 -5.466,0 0,-19.44 3.778,0 0,15.697 c 0.493,-1.91 1.033,-3.628 1.618,-5.151 l 0,0 4.253,-10.546 3.131,0 4.253,10.476 c 0.362,0.89 0.807,2.278 1.335,4.166 l 0,0 0.318,1.055 0,-15.697 3.813,0 0,19.44 -5.501,0 z"
         id="path10530"
         inkscape:connector-curvature="0" />
    </clipPath>
    <clipPath
       clipPathUnits="userSpaceOnUse"
       id="clipPath10502">
      <path
         d="m 152.763,1356.578 c -1.617,-1.767 -2.425,-4.23 -2.425,-7.381 l 0,0 c 0,-2.028 0.375,-3.81 1.125,-5.346 l 0,0 c 0.75,-1.535 1.823,-2.712 3.216,-3.533 l 0,0 c 1.395,-0.82 3,-1.23 4.818,-1.23 l 0,0 c 2.905,0 5.173,0.89 6.801,2.673 l 0,0 c 1.63,1.78 2.445,4.258 2.445,7.436 l 0,0 c 0,3.071 -0.822,5.511 -2.462,7.321 l 0,0 c -1.641,1.811 -3.866,2.716 -6.679,2.716 l 0,0 c -2.943,0 -5.221,-0.885 -6.839,-2.656 m 1.828,-7.381 c 0,2.143 0.39,3.791 1.17,4.938 l 0,0 c 0.778,1.148 2.036,1.723 3.771,1.723 l 0,0 c 3.303,0 4.956,-2.22 4.956,-6.661 l 0,0 c 0,-4.488 -1.64,-6.733 -4.921,-6.733 l 0,0 c -3.318,0 -4.976,2.245 -4.976,6.733"
         id="path10504"
         inkscape:connector-curvature="0" />
    </clipPath>
    <clipPath
       clipPathUnits="userSpaceOnUse"
       id="clipPath10476">
      <path
         d="m 143.077,1358.881 -7.926,-9.439 0,9.439 -4.131,0 0,-19.44 4.131,0 0,9.861 8.401,-9.861 4.746,0 -8.719,10.071 8.034,9.369 -4.536,0 z"
         id="path10478"
         inkscape:connector-curvature="0" />
    </clipPath>
    <clipPath
       clipPathUnits="userSpaceOnUse"
       id="clipPath10450">
      <path
         d="m 111.49,1356.508 c -1.581,-1.815 -2.373,-4.313 -2.373,-7.488 l 0,0 c 0,-3.093 0.852,-5.521 2.558,-7.286 l 0,0 c 1.705,-1.763 4.07,-2.646 7.093,-2.646 l 0,0 c 1.323,0 2.501,0.1 3.533,0.3 l 0,0 c 1.03,0.198 2.051,0.538 3.058,1.02 l 0,0 0,3.356 c -1.137,-0.503 -2.2,-0.863 -3.19,-1.08 l 0,0 c -0.99,-0.218 -2.061,-0.325 -3.208,-0.325 l 0,0 c -1.745,0 -3.101,0.507 -4.061,1.52 l 0,0 c -0.96,1.013 -1.47,2.463 -1.53,4.351 l 0,0 12.957,0 0,2.232 c 0,2.731 -0.745,4.874 -2.233,6.434 l 0,0 c -1.488,1.558 -3.515,2.338 -6.083,2.338 l 0,0 c -2.766,0 -4.939,-0.908 -6.521,-2.726 m 3.368,-1.652 c 0.79,0.832 1.842,1.247 3.153,1.247 l 0,0 c 1.312,0 2.345,-0.412 3.095,-1.237 l 0,0 c 0.75,-0.828 1.135,-2.043 1.16,-3.648 l 0,0 -8.824,0 c 0.153,1.592 0.623,2.808 1.416,3.638"
         id="path10452"
         inkscape:connector-curvature="0" />
    </clipPath>
    <clipPath
       clipPathUnits="userSpaceOnUse"
       id="clipPath10424">
      <path
         d="m 91.979,1356.281 -0.212,0 c -0.293,1.37 -0.485,2.238 -0.58,2.6 l 0,0 -3.339,0 0,-28.089 4.131,0 0,7.964 c 0,0.35 -0.082,1.347 -0.247,2.988 l 0,0 0.247,0 c 1.358,-1.771 3.268,-2.656 5.731,-2.656 l 0,0 c 2.425,0 4.326,0.89 5.703,2.673 l 0,0 c 1.378,1.78 2.066,4.258 2.066,7.436 l 0,0 c 0,3.176 -0.678,5.641 -2.031,7.399 l 0,0 c -1.352,1.758 -3.243,2.638 -5.668,2.638 l 0,0 c -2.578,0 -4.513,-0.985 -5.801,-2.953 m 1.125,-12.227 c -0.75,1.06 -1.125,2.775 -1.125,5.143 l 0,0 0,0.615 c 0,2.108 0.378,3.643 1.133,4.606 l 0,0 c 0.755,0.96 1.955,1.44 3.595,1.44 l 0,0 c 1.488,0 2.616,-0.56 3.383,-1.677 l 0,0 c 0.768,-1.121 1.153,-2.771 1.153,-4.949 l 0,0 c 0,-2.168 -0.388,-3.838 -1.16,-5.011 l 0,0 c -0.775,-1.172 -1.875,-1.757 -3.306,-1.757 l 0,0 c -1.7,0 -2.923,0.53 -3.673,1.59"
         id="path10426"
         inkscape:connector-curvature="0" />
    </clipPath>
    <linearGradient
       x1="0"
       y1="0"
       x2="1"
       y2="0"
       gradientUnits="userSpaceOnUse"
       gradientTransform="matrix(-351.52368,0,0,351.52368,369.09,1345.0127)"
       spreadMethod="pad"
       id="linearGradient10432">
      <stop
         style="stop-opacity:1;stop-color:#47c0b8"
         offset="0"
         id="stop10434" />
      <stop
         style="stop-opacity:1;stop-color:#47c0b8"
         offset="0.0393917"
         id="stop10436" />
      <stop
         style="stop-opacity:1;stop-color:#47d2b1"
         offset="0.348613"
         id="stop10438" />
      <stop
         style="stop-opacity:1;stop-color:#47d2b1"
         offset="0.4222168"
         id="stop10440" />
      <stop
         style="stop-opacity:1;stop-color:#12b56a"
         offset="1"
         id="stop10442" />
    </linearGradient>
    <clipPath
       clipPathUnits="userSpaceOnUse"
       id="clipPath10398">
      <path
         d="m 67.123,1356.578 c -1.618,-1.767 -2.426,-4.23 -2.426,-7.381 l 0,0 c 0,-2.028 0.375,-3.81 1.126,-5.346 l 0,0 c 0.75,-1.535 1.822,-2.712 3.215,-3.533 l 0,0 c 1.395,-0.82 3.001,-1.23 4.818,-1.23 l 0,0 c 2.906,0 5.174,0.89 6.801,2.673 l 0,0 c 1.631,1.78 2.446,4.258 2.446,7.436 l 0,0 c 0,3.071 -0.823,5.511 -2.463,7.321 l 0,0 c -1.64,1.811 -3.866,2.716 -6.679,2.716 l 0,0 c -2.943,0 -5.22,-0.885 -6.838,-2.656 m 1.828,-7.381 c 0,2.143 0.39,3.791 1.17,4.938 l 0,0 c 0.777,1.148 2.035,1.723 3.77,1.723 l 0,0 c 3.303,0 4.956,-2.22 4.956,-6.661 l 0,0 c 0,-4.488 -1.64,-6.733 -4.921,-6.733 l 0,0 c -3.318,0 -4.975,2.245 -4.975,6.733"
         id="path10400"
         inkscape:connector-curvature="0" />
    </clipPath>
    <clipPath
       clipPathUnits="userSpaceOnUse"
       id="clipPath10372">
      <path
         d="m 42.954,1358.881 0,-19.44 4.131,0 0,16.172 8.719,0 0,-16.172 4.148,0 0,19.44 -16.998,0 z"
         id="path10374"
         inkscape:connector-curvature="0" />
    </clipPath>
    <clipPath
       clipPathUnits="userSpaceOnUse"
       id="clipPath10346">
      <path
         d="m 244.328,1402.083 c -2.696,-7.816 -4.184,-12.184 -4.464,-13.105 l 0,0 c -0.282,-0.92 -0.475,-1.702 -0.58,-2.348 l 0,0 -0.142,0 c -0.198,1.383 -0.598,2.861 -1.195,4.431 l 0,0 -3.956,11.022 -4.498,0 7.803,-19.443 -0.72,-1.828 c -0.807,-2.308 -2.21,-3.463 -4.2,-3.463 l 0,0 c -0.798,0 -1.508,0.07 -2.128,0.213 l 0,0 0,-3.271 c 0.868,-0.2 1.758,-0.3 2.673,-0.3 l 0,0 c 3.525,0 6.046,2.023 7.558,6.066 l 0,0 8.314,22.026 -4.465,0 z"
         id="path10348"
         inkscape:connector-curvature="0" />
    </clipPath>
    <linearGradient
       x1="0"
       y1="0"
       x2="1"
       y2="0"
       gradientUnits="userSpaceOnUse"
       gradientTransform="matrix(-351.52368,0,0,351.52368,369.09,1388.0371)"
       spreadMethod="pad"
       id="linearGradient10354">
      <stop
         style="stop-opacity:1;stop-color:#47c0b8"
         offset="0"
         id="stop10356" />
      <stop
         style="stop-opacity:1;stop-color:#47c0b8"
         offset="0.0393917"
         id="stop10358" />
      <stop
         style="stop-opacity:1;stop-color:#47d2b1"
         offset="0.348613"
         id="stop10360" />
      <stop
         style="stop-opacity:1;stop-color:#47d2b1"
         offset="0.4222168"
         id="stop10362" />
      <stop
         style="stop-opacity:1;stop-color:#12b56a"
         offset="1"
         id="stop10364" />
    </linearGradient>
    <clipPath
       clipPathUnits="userSpaceOnUse"
       id="clipPath10320">
      <path
         d="m 216.133,1402.083 0,-19.443 4.131,0 0,16.207 8.436,0 0,3.236 -12.567,0 z"
         id="path10322"
         inkscape:connector-curvature="0" />
    </clipPath>
    <linearGradient
       x1="0"
       y1="0"
       x2="1"
       y2="0"
       gradientUnits="userSpaceOnUse"
       gradientTransform="matrix(-351.52368,0,0,351.52368,369.09,1392.3613)"
       spreadMethod="pad"
       id="linearGradient10328">
      <stop
         style="stop-opacity:1;stop-color:#47c0b8"
         offset="0"
         id="stop10330" />
      <stop
         style="stop-opacity:1;stop-color:#47c0b8"
         offset="0.0393917"
         id="stop10332" />
      <stop
         style="stop-opacity:1;stop-color:#47d2b1"
         offset="0.348613"
         id="stop10334" />
      <stop
         style="stop-opacity:1;stop-color:#47d2b1"
         offset="0.4222168"
         id="stop10336" />
      <stop
         style="stop-opacity:1;stop-color:#12b56a"
         offset="1"
         id="stop10338" />
    </linearGradient>
    <clipPath
       clipPathUnits="userSpaceOnUse"
       id="clipPath10294">
      <path
         d="m 195.408,1399.78 c -1.618,-1.77 -2.426,-4.231 -2.426,-7.384 l 0,0 c 0,-2.027 0.375,-3.808 1.125,-5.343 l 0,0 c 0.75,-1.535 1.823,-2.713 3.218,-3.533 l 0,0 c 1.393,-0.82 2.998,-1.23 4.816,-1.23 l 0,0 c 2.905,0 5.173,0.89 6.804,2.67 l 0,0 c 1.627,1.783 2.442,4.261 2.442,7.436 l 0,0 c 0,3.071 -0.82,5.511 -2.462,7.322 l 0,0 c -1.641,1.81 -3.866,2.715 -6.679,2.715 l 0,0 c -2.94,0 -5.221,-0.885 -6.838,-2.653 m 1.827,-7.384 c 0,2.146 0.39,3.791 1.17,4.939 l 0,0 c 0.781,1.15 2.036,1.722 3.771,1.722 l 0,0 c 3.306,0 4.956,-2.22 4.956,-6.661 l 0,0 c 0,-4.488 -1.64,-6.733 -4.921,-6.733 l 0,0 c -3.315,0 -4.976,2.245 -4.976,6.733"
         id="path10296"
         inkscape:connector-curvature="0" />
    </clipPath>
    <clipPath
       clipPathUnits="userSpaceOnUse"
       id="clipPath10268">
      <path
         d="m 182.736,1402.083 -4.361,-10.619 c -0.353,-0.938 -0.768,-2.278 -1.248,-4.023 l 0,0 -0.227,-0.846 c -0.61,2.508 -1.103,4.236 -1.478,5.186 l 0,0 -4.218,10.302 -5.469,0 0,-19.443 3.781,0 0,15.697 c 0.493,-1.91 1.03,-3.625 1.618,-5.15 l 0,0 4.253,-10.547 3.128,0 4.256,10.476 c 0.362,0.891 0.807,2.281 1.335,4.166 l 0,0 0.315,1.055 0,-15.697 3.815,0 0,19.443 -5.5,0 z"
         id="path10270"
         inkscape:connector-curvature="0" />
    </clipPath>
    <clipPath
       clipPathUnits="userSpaceOnUse"
       id="clipPath10242">
      <path
         d="m 141.619,1402.083 c -2.273,0 -4.065,-0.52 -5.378,-1.558 l 0,0 c -1.313,-1.035 -1.97,-2.475 -1.97,-4.313 l 0,0 c 0,-1.43 0.375,-2.628 1.125,-3.596 l 0,0 c 0.75,-0.967 1.783,-1.637 3.095,-2.012 l 0,0 -5.416,-7.964 4.624,0 4.71,7.489 3.921,0 0,-7.489 4.148,0 0,19.443 -8.859,0 z m -2.188,-8.149 c -0.757,0.498 -1.135,1.245 -1.135,2.243 l 0,0 c 0,0.89 0.308,1.575 0.923,2.055 l 0,0 c 0.615,0.48 1.485,0.72 2.61,0.72 l 0,0 4.501,0 0,-5.765 -3.851,0 c -1.275,0 -2.292,0.25 -3.048,0.747"
         id="path10244"
         inkscape:connector-curvature="0" />
    </clipPath>
    <clipPath
       clipPathUnits="userSpaceOnUse"
       id="clipPath10216">
      <path
         d="m 105.636,1399.78 c -1.618,-1.77 -2.425,-4.231 -2.425,-7.384 l 0,0 c 0,-2.027 0.375,-3.808 1.125,-5.343 l 0,0 c 0.75,-1.535 1.823,-2.713 3.216,-3.533 l 0,0 c 1.395,-0.82 3,-1.23 4.818,-1.23 l 0,0 c 2.905,0 5.173,0.89 6.801,2.67 l 0,0 c 1.63,1.783 2.445,4.261 2.445,7.436 l 0,0 c 0,3.071 -0.82,5.511 -2.463,7.322 l 0,0 c -1.64,1.81 -3.865,2.715 -6.678,2.715 l 0,0 c -2.941,0 -5.221,-0.885 -6.839,-2.653 m 1.828,-7.384 c 0,2.146 0.39,3.791 1.17,4.939 l 0,0 c 0.78,1.15 2.036,1.722 3.771,1.722 l 0,0 c 3.303,0 4.956,-2.22 4.956,-6.661 l 0,0 c 0,-4.488 -1.641,-6.733 -4.921,-6.733 l 0,0 c -3.316,0 -4.976,2.245 -4.976,6.733"
         id="path10218"
         inkscape:connector-curvature="0" />
    </clipPath>
    <clipPath
       clipPathUnits="userSpaceOnUse"
       id="clipPath10190">
      <path
         d="m 88.059,1402.083 0,-19.443 4.13,0 0,16.207 8.439,0 0,3.236 -12.569,0 z"
         id="path10192"
         inkscape:connector-curvature="0" />
    </clipPath>
    <clipPath
       clipPathUnits="userSpaceOnUse"
       id="clipPath10164">
      <path
         d="m 67.333,1399.78 c -1.615,-1.77 -2.426,-4.231 -2.426,-7.384 l 0,0 c 0,-2.027 0.376,-3.808 1.126,-5.343 l 0,0 c 0.75,-1.535 1.822,-2.713 3.218,-3.533 l 0,0 c 1.392,-0.82 3,-1.23 4.815,-1.23 l 0,0 c 2.906,0 5.174,0.89 6.804,2.67 l 0,0 c 1.628,1.783 2.443,4.261 2.443,7.436 l 0,0 c 0,3.071 -0.82,5.511 -2.461,7.322 l 0,0 c -1.64,1.81 -3.868,2.715 -6.681,2.715 l 0,0 c -2.94,0 -5.22,-0.885 -6.838,-2.653 m 1.83,-7.384 c 0,2.146 0.388,3.791 1.168,4.939 l 0,0 c 0.78,1.15 2.035,1.722 3.77,1.722 l 0,0 c 3.306,0 4.959,-2.22 4.959,-6.661 l 0,0 c 0,-4.488 -1.643,-6.733 -4.924,-6.733 l 0,0 c -3.315,0 -4.973,2.245 -4.973,6.733"
         id="path10166"
         inkscape:connector-curvature="0" />
    </clipPath>
    <clipPath
       clipPathUnits="userSpaceOnUse"
       id="clipPath10138">
      <path
         d="m 57.999,1408.339 -10.404,-12.445 0,12.445 -4.203,0 0,-25.699 4.203,0 0,13.027 10.581,-13.027 4.939,0 -10.879,13.289 10.369,12.41 -4.606,0 z"
         id="path10140"
         inkscape:connector-curvature="0" />
    </clipPath>
    <linearGradient
       x1="0"
       y1="0"
       x2="1"
       y2="0"
       gradientUnits="userSpaceOnUse"
       gradientTransform="matrix(-351.52368,0,0,351.52368,369.09,1395.4902)"
       spreadMethod="pad"
       id="linearGradient10146">
      <stop
         style="stop-opacity:1;stop-color:#47c0b8"
         offset="0"
         id="stop10148" />
      <stop
         style="stop-opacity:1;stop-color:#47c0b8"
         offset="0.0393917"
         id="stop10150" />
      <stop
         style="stop-opacity:1;stop-color:#47d2b1"
         offset="0.348613"
         id="stop10152" />
      <stop
         style="stop-opacity:1;stop-color:#47d2b1"
         offset="0.4222168"
         id="stop10154" />
      <stop
         style="stop-opacity:1;stop-color:#12b56a"
         offset="1"
         id="stop10156" />
    </linearGradient>
    <linearGradient
       x1="0"
       y1="0"
       x2="1"
       y2="0"
       gradientUnits="userSpaceOnUse"
       gradientTransform="matrix(-791.25,0,0,791.25,-0.93326786,-22315.787)"
       spreadMethod="pad"
       id="linearGradient5404">
      <stop
         style="stop-opacity:1;stop-color:#47c0b8"
         offset="0"
         id="stop5406" />
      <stop
         style="stop-opacity:1;stop-color:#47c0b8"
         offset="0.0393917"
         id="stop5408" />
      <stop
         style="stop-opacity:1;stop-color:#47d2b1"
         offset="0.348613"
         id="stop5410" />
      <stop
         style="stop-opacity:1;stop-color:#47d2b1"
         offset="0.4222168"
         id="stop5412" />
      <stop
         style="stop-opacity:1;stop-color:#12b56a"
         offset="1"
         id="stop5414" />
    </linearGradient>
    <linearGradient
       inkscape:collect="always"
       xlink:href="#linearGradient10328"
       id="linearGradient17310"
       gradientUnits="userSpaceOnUse"
       gradientTransform="matrix(-351.52368,0,0,351.52368,369.09,1392.3613)"
       spreadMethod="pad"
       x1="0"
       y1="0"
       x2="1"
       y2="0" />
    <linearGradient
       inkscape:collect="always"
       xlink:href="#linearGradient10328"
       id="linearGradient17312"
       gradientUnits="userSpaceOnUse"
       gradientTransform="matrix(-351.52368,0,0,351.52368,369.09,1392.3613)"
       spreadMethod="pad"
       x1="0"
       y1="0"
       x2="1"
       y2="0" />
    <linearGradient
       inkscape:collect="always"
       xlink:href="#linearGradient10328"
       id="linearGradient17314"
       gradientUnits="userSpaceOnUse"
       gradientTransform="matrix(-351.52368,0,0,351.52368,369.09,1392.3613)"
       spreadMethod="pad"
       x1="0"
       y1="0"
       x2="1"
       y2="0" />
    <linearGradient
       inkscape:collect="always"
       xlink:href="#linearGradient10328"
       id="linearGradient17316"
       gradientUnits="userSpaceOnUse"
       gradientTransform="matrix(-351.52368,0,0,351.52368,369.09,1392.3613)"
       spreadMethod="pad"
       x1="0"
       y1="0"
       x2="1"
       y2="0" />
    <linearGradient
       inkscape:collect="always"
       xlink:href="#linearGradient10328"
       id="linearGradient17318"
       gradientUnits="userSpaceOnUse"
       gradientTransform="matrix(-351.52368,0,0,351.52368,369.09,1392.3613)"
       spreadMethod="pad"
       x1="0"
       y1="0"
       x2="1"
       y2="0" />
    <linearGradient
       inkscape:collect="always"
       xlink:href="#linearGradient10328"
       id="linearGradient17320"
       gradientUnits="userSpaceOnUse"
       gradientTransform="matrix(-351.52368,0,0,351.52368,369.09,1392.3613)"
       spreadMethod="pad"
       x1="0"
       y1="0"
       x2="1"
       y2="0" />
    <linearGradient
       inkscape:collect="always"
       xlink:href="#linearGradient10328"
       id="linearGradient17322"
       gradientUnits="userSpaceOnUse"
       gradientTransform="matrix(-351.52368,0,0,351.52368,369.09,1392.3613)"
       spreadMethod="pad"
       x1="0"
       y1="0"
       x2="1"
       y2="0" />
    <linearGradient
       inkscape:collect="always"
       xlink:href="#linearGradient10744"
       id="linearGradient17324"
       gradientUnits="userSpaceOnUse"
       gradientTransform="matrix(-351.52368,0,0,351.52368,369.09,1349.1611)"
       spreadMethod="pad"
       x1="0"
       y1="0"
       x2="1"
       y2="0" />
    <linearGradient
       inkscape:collect="always"
       xlink:href="#linearGradient10744"
       id="linearGradient17326"
       gradientUnits="userSpaceOnUse"
       gradientTransform="matrix(-351.52368,0,0,351.52368,369.09,1349.1611)"
       spreadMethod="pad"
       x1="0"
       y1="0"
       x2="1"
       y2="0" />
    <linearGradient
       inkscape:collect="always"
       xlink:href="#linearGradient10744"
       id="linearGradient17328"
       gradientUnits="userSpaceOnUse"
       gradientTransform="matrix(-351.52368,0,0,351.52368,369.09,1349.1611)"
       spreadMethod="pad"
       x1="0"
       y1="0"
       x2="1"
       y2="0" />
    <linearGradient
       inkscape:collect="always"
       xlink:href="#linearGradient10744"
       id="linearGradient17330"
       gradientUnits="userSpaceOnUse"
       gradientTransform="matrix(-351.52368,0,0,351.52368,369.09,1349.1611)"
       spreadMethod="pad"
       x1="0"
       y1="0"
       x2="1"
       y2="0" />
    <linearGradient
       inkscape:collect="always"
       xlink:href="#linearGradient10744"
       id="linearGradient17332"
       gradientUnits="userSpaceOnUse"
       gradientTransform="matrix(-351.52368,0,0,351.52368,369.09,1349.1611)"
       spreadMethod="pad"
       x1="0"
       y1="0"
       x2="1"
       y2="0" />
    <linearGradient
       inkscape:collect="always"
       xlink:href="#linearGradient10744"
       id="linearGradient17334"
       gradientUnits="userSpaceOnUse"
       gradientTransform="matrix(-351.52368,0,0,351.52368,369.09,1349.1611)"
       spreadMethod="pad"
       x1="0"
       y1="0"
       x2="1"
       y2="0" />
    <linearGradient
       inkscape:collect="always"
       xlink:href="#linearGradient10744"
       id="linearGradient17336"
       gradientUnits="userSpaceOnUse"
       gradientTransform="matrix(-351.52368,0,0,351.52368,369.09,1349.1611)"
       spreadMethod="pad"
       x1="0"
       y1="0"
       x2="1"
       y2="0" />
    <linearGradient
       inkscape:collect="always"
       xlink:href="#linearGradient10744"
       id="linearGradient17338"
       gradientUnits="userSpaceOnUse"
       gradientTransform="matrix(-351.52368,0,0,351.52368,369.09,1349.1611)"
       spreadMethod="pad"
       x1="0"
       y1="0"
       x2="1"
       y2="0" />
    <linearGradient
       inkscape:collect="always"
       xlink:href="#linearGradient10744"
       id="linearGradient17340"
       gradientUnits="userSpaceOnUse"
       gradientTransform="matrix(-351.52368,0,0,351.52368,369.09,1349.1611)"
       spreadMethod="pad"
       x1="0"
       y1="0"
       x2="1"
       y2="0" />
    <linearGradient
       inkscape:collect="always"
       xlink:href="#linearGradient10744"
       id="linearGradient17342"
       gradientUnits="userSpaceOnUse"
       gradientTransform="matrix(-351.52368,0,0,351.52368,369.09,1349.1611)"
       spreadMethod="pad"
       x1="0"
       y1="0"
       x2="1"
       y2="0" />
    <linearGradient
       inkscape:collect="always"
       xlink:href="#linearGradient10744"
       id="linearGradient17344"
       gradientUnits="userSpaceOnUse"
       gradientTransform="matrix(-351.52368,0,0,351.52368,369.09,1349.1611)"
       spreadMethod="pad"
       x1="0"
       y1="0"
       x2="1"
       y2="0" />
    <linearGradient
       inkscape:collect="always"
       xlink:href="#linearGradient10744"
       id="linearGradient17346"
       gradientUnits="userSpaceOnUse"
       gradientTransform="matrix(-351.52368,0,0,351.52368,369.09,1349.1611)"
       spreadMethod="pad"
       x1="0"
       y1="0"
       x2="1"
       y2="0" />
    <linearGradient
       inkscape:collect="always"
       xlink:href="#linearGradient10744"
       id="linearGradient17348"
       gradientUnits="userSpaceOnUse"
       gradientTransform="matrix(-351.52368,0,0,351.52368,369.09,1349.1611)"
       spreadMethod="pad"
       x1="0"
       y1="0"
       x2="1"
       y2="0" />
  </defs>
  <sodipodi:namedview
     id="base"
     pagecolor="#ffffff"
     bordercolor="#666666"
     borderopacity="1.0"
     inkscape:pageopacity="0.0"
     inkscape:pageshadow="2"
     inkscape:zoom="0.35"
     inkscape:cx="793.48277"
     inkscape:cy="-24.837605"
     inkscape:document-units="px"
     inkscape:current-layer="layer1"
     showgrid="false"
     inkscape:window-width="1366"
     inkscape:window-height="718"
     inkscape:window-x="0"
     inkscape:window-y="24"
     inkscape:window-maximized="1"
     fit-margin-top="0"
     fit-margin-left="0"
     fit-margin-right="0"
     fit-margin-bottom="0" />
  <metadata
     id="metadata15821">
    <rdf:RDF>
      <cc:Work
         rdf:about="">
        <dc:format>image/svg+xml</dc:format>
        <dc:type
           rdf:resource="http://purl.org/dc/dcmitype/StillImage" />
        <dc:title></dc:title>
      </cc:Work>
    </rdf:RDF>
  </metadata>
  <g
     inkscape:label="Layer 1"
     inkscape:groupmode="layer"
     id="layer1"
     transform="translate(418.48277,-368.62835)">
    <path
       d="m -418.48277,493.42707 777.855,0"
       style="fill:none;stroke:url(#linearGradient5404);stroke-width:3.75;stroke-linecap:butt;stroke-linejoin:miter;stroke-miterlimit:10;stroke-dasharray:none;stroke-opacity:1"
       id="path5416"
       inkscape:connector-curvature="0" />
    <g
       transform="matrix(1.25,0,0,-1.25,-470.98277,2129.0521)"
       id="g5418">
      <g
         id="g5420"
         clip-path="url(#clipPath5422)">
        <g
           id="g5426">
          <g
             id="g5428">
            <path
               d="m 652.44,1308.501 c 0,-6.228 5.051,-11.279 11.279,-11.279 l 0,0 c 6.231,0 11.282,5.051 11.282,11.279 l 0,0 c 0,6.228 -5.051,11.279 -11.282,11.279 l 0,0 c -6.228,0 -11.279,-5.051 -11.279,-11.279"
               style="fill:url(#linearGradient5430);stroke:none"
               id="path5442"
               inkscape:connector-curvature="0" />
          </g>
        </g>
      </g>
    </g>
    <g
       transform="matrix(1.25,0,0,-1.25,-470.98277,2129.0521)"
       id="g10134">
      <g
         id="g10136"
         clip-path="url(#clipPath10138)">
        <g
           id="g10142">
          <g
             id="g10144">
            <path
               d="m 57.999,1408.339 -10.404,-12.445 0,12.445 -4.203,0 0,-25.699 4.203,0 0,13.027 10.581,-13.027 4.939,0 -10.879,13.289 10.369,12.41 -4.606,0 z"
               style="fill:url(#linearGradient10146);stroke:none"
               id="path10158"
               inkscape:connector-curvature="0" />
          </g>
        </g>
      </g>
    </g>
    <g
       transform="matrix(1.25,0,0,-1.25,-470.98277,2129.0521)"
       id="g10160">
      <g
         id="g10162"
         clip-path="url(#clipPath10164)">
        <g
           id="g10168">
          <g
             id="g10170">
            <path
               d="m 67.333,1399.78 c -1.615,-1.77 -2.426,-4.231 -2.426,-7.384 l 0,0 c 0,-2.027 0.376,-3.808 1.126,-5.343 l 0,0 c 0.75,-1.535 1.822,-2.713 3.218,-3.533 l 0,0 c 1.392,-0.82 3,-1.23 4.815,-1.23 l 0,0 c 2.906,0 5.174,0.89 6.804,2.67 l 0,0 c 1.628,1.783 2.443,4.261 2.443,7.436 l 0,0 c 0,3.071 -0.82,5.511 -2.461,7.322 l 0,0 c -1.64,1.81 -3.868,2.715 -6.681,2.715 l 0,0 c -2.94,0 -5.22,-0.885 -6.838,-2.653 m 1.83,-7.384 c 0,2.146 0.388,3.791 1.168,4.939 l 0,0 c 0.78,1.15 2.035,1.722 3.77,1.722 l 0,0 c 3.306,0 4.959,-2.22 4.959,-6.661 l 0,0 c 0,-4.488 -1.643,-6.733 -4.924,-6.733 l 0,0 c -3.315,0 -4.973,2.245 -4.973,6.733"
               style="fill:url(#linearGradient17310);stroke:none"
               id="path10184"
               inkscape:connector-curvature="0" />
          </g>
        </g>
      </g>
    </g>
    <g
       transform="matrix(1.25,0,0,-1.25,-470.98277,2129.0521)"
       id="g10186">
      <g
         id="g10188"
         clip-path="url(#clipPath10190)">
        <g
           id="g10194">
          <g
             id="g10196">
            <path
               d="m 88.059,1402.083 0,-19.443 4.13,0 0,16.207 8.439,0 0,3.236 -12.569,0 z"
               style="fill:url(#linearGradient17312);stroke:none"
               id="path10210"
               inkscape:connector-curvature="0" />
          </g>
        </g>
      </g>
    </g>
    <g
       transform="matrix(1.25,0,0,-1.25,-470.98277,2129.0521)"
       id="g10212">
      <g
         id="g10214"
         clip-path="url(#clipPath10216)">
        <g
           id="g10220">
          <g
             id="g10222">
            <path
               d="m 105.636,1399.78 c -1.618,-1.77 -2.425,-4.231 -2.425,-7.384 l 0,0 c 0,-2.027 0.375,-3.808 1.125,-5.343 l 0,0 c 0.75,-1.535 1.823,-2.713 3.216,-3.533 l 0,0 c 1.395,-0.82 3,-1.23 4.818,-1.23 l 0,0 c 2.905,0 5.173,0.89 6.801,2.67 l 0,0 c 1.63,1.783 2.445,4.261 2.445,7.436 l 0,0 c 0,3.071 -0.82,5.511 -2.463,7.322 l 0,0 c -1.64,1.81 -3.865,2.715 -6.678,2.715 l 0,0 c -2.941,0 -5.221,-0.885 -6.839,-2.653 m 1.828,-7.384 c 0,2.146 0.39,3.791 1.17,4.939 l 0,0 c 0.78,1.15 2.036,1.722 3.771,1.722 l 0,0 c 3.303,0 4.956,-2.22 4.956,-6.661 l 0,0 c 0,-4.488 -1.641,-6.733 -4.921,-6.733 l 0,0 c -3.316,0 -4.976,2.245 -4.976,6.733"
               style="fill:url(#linearGradient17314);stroke:none"
               id="path10236"
               inkscape:connector-curvature="0" />
          </g>
        </g>
      </g>
    </g>
    <g
       transform="matrix(1.25,0,0,-1.25,-470.98277,2129.0521)"
       id="g10238">
      <g
         id="g10240"
         clip-path="url(#clipPath10242)">
        <g
           id="g10246">
          <g
             id="g10248">
            <path
               d="m 141.619,1402.083 c -2.273,0 -4.065,-0.52 -5.378,-1.558 l 0,0 c -1.313,-1.035 -1.97,-2.475 -1.97,-4.313 l 0,0 c 0,-1.43 0.375,-2.628 1.125,-3.596 l 0,0 c 0.75,-0.967 1.783,-1.637 3.095,-2.012 l 0,0 -5.416,-7.964 4.624,0 4.71,7.489 3.921,0 0,-7.489 4.148,0 0,19.443 -8.859,0 z m -2.188,-8.149 c -0.757,0.498 -1.135,1.245 -1.135,2.243 l 0,0 c 0,0.89 0.308,1.575 0.923,2.055 l 0,0 c 0.615,0.48 1.485,0.72 2.61,0.72 l 0,0 4.501,0 0,-5.765 -3.851,0 c -1.275,0 -2.292,0.25 -3.048,0.747"
               style="fill:url(#linearGradient17316);stroke:none"
               id="path10262"
               inkscape:connector-curvature="0" />
          </g>
        </g>
      </g>
    </g>
    <g
       transform="matrix(1.25,0,0,-1.25,-470.98277,2129.0521)"
       id="g10264">
      <g
         id="g10266"
         clip-path="url(#clipPath10268)">
        <g
           id="g10272">
          <g
             id="g10274">
            <path
               d="m 182.736,1402.083 -4.361,-10.619 c -0.353,-0.938 -0.768,-2.278 -1.248,-4.023 l 0,0 -0.227,-0.846 c -0.61,2.508 -1.103,4.236 -1.478,5.186 l 0,0 -4.218,10.302 -5.469,0 0,-19.443 3.781,0 0,15.697 c 0.493,-1.91 1.03,-3.625 1.618,-5.15 l 0,0 4.253,-10.547 3.128,0 4.256,10.476 c 0.362,0.891 0.807,2.281 1.335,4.166 l 0,0 0.315,1.055 0,-15.697 3.815,0 0,19.443 -5.5,0 z"
               style="fill:url(#linearGradient17318);stroke:none"
               id="path10288"
               inkscape:connector-curvature="0" />
          </g>
        </g>
      </g>
    </g>
    <g
       transform="matrix(1.25,0,0,-1.25,-470.98277,2129.0521)"
       id="g10290">
      <g
         id="g10292"
         clip-path="url(#clipPath10294)">
        <g
           id="g10298">
          <g
             id="g10300">
            <path
               d="m 195.408,1399.78 c -1.618,-1.77 -2.426,-4.231 -2.426,-7.384 l 0,0 c 0,-2.027 0.375,-3.808 1.125,-5.343 l 0,0 c 0.75,-1.535 1.823,-2.713 3.218,-3.533 l 0,0 c 1.393,-0.82 2.998,-1.23 4.816,-1.23 l 0,0 c 2.905,0 5.173,0.89 6.804,2.67 l 0,0 c 1.627,1.783 2.442,4.261 2.442,7.436 l 0,0 c 0,3.071 -0.82,5.511 -2.462,7.322 l 0,0 c -1.641,1.81 -3.866,2.715 -6.679,2.715 l 0,0 c -2.94,0 -5.221,-0.885 -6.838,-2.653 m 1.827,-7.384 c 0,2.146 0.39,3.791 1.17,4.939 l 0,0 c 0.781,1.15 2.036,1.722 3.771,1.722 l 0,0 c 3.306,0 4.956,-2.22 4.956,-6.661 l 0,0 c 0,-4.488 -1.64,-6.733 -4.921,-6.733 l 0,0 c -3.315,0 -4.976,2.245 -4.976,6.733"
               style="fill:url(#linearGradient17320);stroke:none"
               id="path10314"
               inkscape:connector-curvature="0" />
          </g>
        </g>
      </g>
    </g>
    <g
       transform="matrix(1.25,0,0,-1.25,-470.98277,2129.0521)"
       id="g10316">
      <g
         id="g10318"
         clip-path="url(#clipPath10320)">
        <g
           id="g10324">
          <g
             id="g10326">
            <path
               d="m 216.133,1402.083 0,-19.443 4.131,0 0,16.207 8.436,0 0,3.236 -12.567,0 z"
               style="fill:url(#linearGradient17322);stroke:none"
               id="path10340"
               inkscape:connector-curvature="0" />
          </g>
        </g>
      </g>
    </g>
    <g
       transform="matrix(1.25,0,0,-1.25,-470.98277,2129.0521)"
       id="g10342">
      <g
         id="g10344"
         clip-path="url(#clipPath10346)">
        <g
           id="g10350">
          <g
             id="g10352">
            <path
               d="m 244.328,1402.083 c -2.696,-7.816 -4.184,-12.184 -4.464,-13.105 l 0,0 c -0.282,-0.92 -0.475,-1.702 -0.58,-2.348 l 0,0 -0.142,0 c -0.198,1.383 -0.598,2.861 -1.195,4.431 l 0,0 -3.956,11.022 -4.498,0 7.803,-19.443 -0.72,-1.828 c -0.807,-2.308 -2.21,-3.463 -4.2,-3.463 l 0,0 c -0.798,0 -1.508,0.07 -2.128,0.213 l 0,0 0,-3.271 c 0.868,-0.2 1.758,-0.3 2.673,-0.3 l 0,0 c 3.525,0 6.046,2.023 7.558,6.066 l 0,0 8.314,22.026 -4.465,0 z"
               style="fill:url(#linearGradient10354);stroke:none"
               id="path10366"
               inkscape:connector-curvature="0" />
          </g>
        </g>
      </g>
    </g>
    <g
       transform="matrix(1.25,0,0,-1.25,-470.98277,2129.0521)"
       id="g10368">
      <g
         id="g10370"
         clip-path="url(#clipPath10372)">
        <g
           id="g10376">
          <g
             id="g10378">
            <path
               d="m 42.954,1358.881 0,-19.44 4.131,0 0,16.172 8.719,0 0,-16.172 4.148,0 0,19.44 -16.998,0 z"
               style="fill:url(#linearGradient17324);stroke:none"
               id="path10392"
               inkscape:connector-curvature="0" />
          </g>
        </g>
      </g>
    </g>
    <g
       transform="matrix(1.25,0,0,-1.25,-470.98277,2129.0521)"
       id="g10394">
      <g
         id="g10396"
         clip-path="url(#clipPath10398)">
        <g
           id="g10402">
          <g
             id="g10404">
            <path
               d="m 67.123,1356.578 c -1.618,-1.767 -2.426,-4.23 -2.426,-7.381 l 0,0 c 0,-2.028 0.375,-3.81 1.126,-5.346 l 0,0 c 0.75,-1.535 1.822,-2.712 3.215,-3.533 l 0,0 c 1.395,-0.82 3.001,-1.23 4.818,-1.23 l 0,0 c 2.906,0 5.174,0.89 6.801,2.673 l 0,0 c 1.631,1.78 2.446,4.258 2.446,7.436 l 0,0 c 0,3.071 -0.823,5.511 -2.463,7.321 l 0,0 c -1.64,1.811 -3.866,2.716 -6.679,2.716 l 0,0 c -2.943,0 -5.22,-0.885 -6.838,-2.656 m 1.828,-7.381 c 0,2.143 0.39,3.791 1.17,4.938 l 0,0 c 0.777,1.148 2.035,1.723 3.77,1.723 l 0,0 c 3.303,0 4.956,-2.22 4.956,-6.661 l 0,0 c 0,-4.488 -1.64,-6.733 -4.921,-6.733 l 0,0 c -3.318,0 -4.975,2.245 -4.975,6.733"
               style="fill:url(#linearGradient17326);stroke:none"
               id="path10418"
               inkscape:connector-curvature="0" />
          </g>
        </g>
      </g>
    </g>
    <g
       transform="matrix(1.25,0,0,-1.25,-470.98277,2129.0521)"
       id="g10420">
      <g
         id="g10422"
         clip-path="url(#clipPath10424)">
        <g
           id="g10428">
          <g
             id="g10430">
            <path
               d="m 91.979,1356.281 -0.212,0 c -0.293,1.37 -0.485,2.238 -0.58,2.6 l 0,0 -3.339,0 0,-28.089 4.131,0 0,7.964 c 0,0.35 -0.082,1.347 -0.247,2.988 l 0,0 0.247,0 c 1.358,-1.771 3.268,-2.656 5.731,-2.656 l 0,0 c 2.425,0 4.326,0.89 5.703,2.673 l 0,0 c 1.378,1.78 2.066,4.258 2.066,7.436 l 0,0 c 0,3.176 -0.678,5.641 -2.031,7.399 l 0,0 c -1.352,1.758 -3.243,2.638 -5.668,2.638 l 0,0 c -2.578,0 -4.513,-0.985 -5.801,-2.953 m 1.125,-12.227 c -0.75,1.06 -1.125,2.775 -1.125,5.143 l 0,0 0,0.615 c 0,2.108 0.378,3.643 1.133,4.606 l 0,0 c 0.755,0.96 1.955,1.44 3.595,1.44 l 0,0 c 1.488,0 2.616,-0.56 3.383,-1.677 l 0,0 c 0.768,-1.121 1.153,-2.771 1.153,-4.949 l 0,0 c 0,-2.168 -0.388,-3.838 -1.16,-5.011 l 0,0 c -0.775,-1.172 -1.875,-1.757 -3.306,-1.757 l 0,0 c -1.7,0 -2.923,0.53 -3.673,1.59"
               style="fill:url(#linearGradient10432);stroke:none"
               id="path10444"
               inkscape:connector-curvature="0" />
          </g>
        </g>
      </g>
    </g>
    <g
       transform="matrix(1.25,0,0,-1.25,-470.98277,2129.0521)"
       id="g10446">
      <g
         id="g10448"
         clip-path="url(#clipPath10450)">
        <g
           id="g10454">
          <g
             id="g10456">
            <path
               d="m 111.49,1356.508 c -1.581,-1.815 -2.373,-4.313 -2.373,-7.488 l 0,0 c 0,-3.093 0.852,-5.521 2.558,-7.286 l 0,0 c 1.705,-1.763 4.07,-2.646 7.093,-2.646 l 0,0 c 1.323,0 2.501,0.1 3.533,0.3 l 0,0 c 1.03,0.198 2.051,0.538 3.058,1.02 l 0,0 0,3.356 c -1.137,-0.503 -2.2,-0.863 -3.19,-1.08 l 0,0 c -0.99,-0.218 -2.061,-0.325 -3.208,-0.325 l 0,0 c -1.745,0 -3.101,0.507 -4.061,1.52 l 0,0 c -0.96,1.013 -1.47,2.463 -1.53,4.351 l 0,0 12.957,0 0,2.232 c 0,2.731 -0.745,4.874 -2.233,6.434 l 0,0 c -1.488,1.558 -3.515,2.338 -6.083,2.338 l 0,0 c -2.766,0 -4.939,-0.908 -6.521,-2.726 m 3.368,-1.652 c 0.79,0.832 1.842,1.247 3.153,1.247 l 0,0 c 1.312,0 2.345,-0.412 3.095,-1.237 l 0,0 c 0.75,-0.828 1.135,-2.043 1.16,-3.648 l 0,0 -8.824,0 c 0.153,1.592 0.623,2.808 1.416,3.638"
               style="fill:url(#linearGradient17328);stroke:none"
               id="path10470"
               inkscape:connector-curvature="0" />
          </g>
        </g>
      </g>
    </g>
    <g
       transform="matrix(1.25,0,0,-1.25,-470.98277,2129.0521)"
       id="g10472">
      <g
         id="g10474"
         clip-path="url(#clipPath10476)">
        <g
           id="g10480">
          <g
             id="g10482">
            <path
               d="m 143.077,1358.881 -7.926,-9.439 0,9.439 -4.131,0 0,-19.44 4.131,0 0,9.861 8.401,-9.861 4.746,0 -8.719,10.071 8.034,9.369 -4.536,0 z"
               style="fill:url(#linearGradient17330);stroke:none"
               id="path10496"
               inkscape:connector-curvature="0" />
          </g>
        </g>
      </g>
    </g>
    <g
       transform="matrix(1.25,0,0,-1.25,-470.98277,2129.0521)"
       id="g10498">
      <g
         id="g10500"
         clip-path="url(#clipPath10502)">
        <g
           id="g10506">
          <g
             id="g10508">
            <path
               d="m 152.763,1356.578 c -1.617,-1.767 -2.425,-4.23 -2.425,-7.381 l 0,0 c 0,-2.028 0.375,-3.81 1.125,-5.346 l 0,0 c 0.75,-1.535 1.823,-2.712 3.216,-3.533 l 0,0 c 1.395,-0.82 3,-1.23 4.818,-1.23 l 0,0 c 2.905,0 5.173,0.89 6.801,2.673 l 0,0 c 1.63,1.78 2.445,4.258 2.445,7.436 l 0,0 c 0,3.071 -0.822,5.511 -2.462,7.321 l 0,0 c -1.641,1.811 -3.866,2.716 -6.679,2.716 l 0,0 c -2.943,0 -5.221,-0.885 -6.839,-2.656 m 1.828,-7.381 c 0,2.143 0.39,3.791 1.17,4.938 l 0,0 c 0.778,1.148 2.036,1.723 3.771,1.723 l 0,0 c 3.303,0 4.956,-2.22 4.956,-6.661 l 0,0 c 0,-4.488 -1.64,-6.733 -4.921,-6.733 l 0,0 c -3.318,0 -4.976,2.245 -4.976,6.733"
               style="fill:url(#linearGradient17332);stroke:none"
               id="path10522"
               inkscape:connector-curvature="0" />
          </g>
        </g>
      </g>
    </g>
    <g
       transform="matrix(1.25,0,0,-1.25,-470.98277,2129.0521)"
       id="g10524">
      <g
         id="g10526"
         clip-path="url(#clipPath10528)">
        <g
           id="g10532">
          <g
             id="g10534">
            <path
               d="m 190.487,1358.881 -4.361,-10.616 c -0.35,-0.938 -0.768,-2.281 -1.248,-4.026 l 0,0 -0.227,-0.843 c -0.61,2.508 -1.103,4.236 -1.478,5.186 l 0,0 -4.218,10.299 -5.466,0 0,-19.44 3.778,0 0,15.697 c 0.493,-1.91 1.033,-3.628 1.618,-5.151 l 0,0 4.253,-10.546 3.131,0 4.253,10.476 c 0.362,0.89 0.807,2.278 1.335,4.166 l 0,0 0.318,1.055 0,-15.697 3.813,0 0,19.44 -5.501,0 z"
               style="fill:url(#linearGradient17334);stroke:none"
               id="path10548"
               inkscape:connector-curvature="0" />
          </g>
        </g>
      </g>
    </g>
    <g
       transform="matrix(1.25,0,0,-1.25,-470.98277,2129.0521)"
       id="g10550">
      <g
         id="g10552"
         clip-path="url(#clipPath10554)">
        <g
           id="g10558">
          <g
             id="g10560">
            <path
               d="m 203.106,1356.508 c -1.58,-1.815 -2.373,-4.313 -2.373,-7.488 l 0,0 c 0,-3.093 0.853,-5.521 2.558,-7.286 l 0,0 c 1.705,-1.763 4.071,-2.646 7.094,-2.646 l 0,0 c 1.325,0 2.503,0.1 3.533,0.3 l 0,0 c 1.03,0.198 2.05,0.538 3.058,1.02 l 0,0 0,3.356 c -1.135,-0.503 -2.201,-0.863 -3.191,-1.08 l 0,0 c -0.99,-0.218 -2.057,-0.325 -3.208,-0.325 l 0,0 c -1.745,0 -3.098,0.507 -4.06,1.52 l 0,0 c -0.96,1.013 -1.471,2.463 -1.528,4.351 l 0,0 12.954,0 0,2.232 c 0,2.731 -0.745,4.874 -2.232,6.434 l 0,0 c -1.488,1.558 -3.516,2.338 -6.081,2.338 l 0,0 c -2.766,0 -4.941,-0.908 -6.524,-2.726 m 3.368,-1.652 c 0.79,0.832 1.843,1.247 3.156,1.247 l 0,0 c 1.312,0 2.343,-0.412 3.093,-1.237 l 0,0 c 0.75,-0.828 1.137,-2.043 1.16,-3.648 l 0,0 -8.824,0 c 0.153,1.592 0.623,2.808 1.415,3.638"
               style="fill:url(#linearGradient17336);stroke:none"
               id="path10574"
               inkscape:connector-curvature="0" />
          </g>
        </g>
      </g>
    </g>
    <g
       transform="matrix(1.25,0,0,-1.25,-470.98277,2129.0521)"
       id="g10576">
      <g
         id="g10578"
         clip-path="url(#clipPath10580)">
        <g
           id="g10584">
          <g
             id="g10586">
            <path
               d="m 235.926,1358.881 0,-7.803 -9.159,0 0,7.803 -4.13,0 0,-19.44 4.13,0 0,8.384 9.159,0 0,-8.384 4.131,0 0,19.44 -4.131,0 z"
               style="fill:url(#linearGradient17338);stroke:none"
               id="path10600"
               inkscape:connector-curvature="0" />
          </g>
        </g>
      </g>
    </g>
    <g
       transform="matrix(1.25,0,0,-1.25,-470.98277,2129.0521)"
       id="g10602">
      <g
         id="g10604"
         clip-path="url(#clipPath10606)">
        <g
           id="g10610">
          <g
             id="g10612">
            <path
               d="m 249.953,1358.881 c -0.152,-3.233 -0.635,-6.253 -1.45,-9.061 l 0,0 c -0.815,-2.806 -1.913,-5.201 -3.295,-7.181 l 0,0 -1.583,0 0,-10.072 3.816,0 0,6.874 13.322,0 0,-6.874 3.85,0 0,10.072 -2.848,0 0,16.242 -11.812,0 z m 2.171,-10.299 c 0.71,2.343 1.175,4.721 1.397,7.136 l 0,0 4.184,0 0,-13.079 -8.174,0 c 1.02,1.617 1.885,3.598 2.593,5.943"
               style="fill:url(#linearGradient10614);stroke:none"
               id="path10626"
               inkscape:connector-curvature="0" />
          </g>
        </g>
      </g>
    </g>
    <g
       transform="matrix(1.25,0,0,-1.25,-470.98277,2129.0521)"
       id="g10628">
      <g
         id="g10630"
         clip-path="url(#clipPath10632)">
        <g
           id="g10636">
          <g
             id="g10638">
            <path
               d="m 269.481,1356.578 c -1.615,-1.767 -2.425,-4.23 -2.425,-7.381 l 0,0 c 0,-2.028 0.375,-3.81 1.125,-5.346 l 0,0 c 0.75,-1.535 1.823,-2.712 3.218,-3.533 l 0,0 c 1.393,-0.82 3.001,-1.23 4.816,-1.23 l 0,0 c 2.905,0 5.173,0.89 6.803,2.673 l 0,0 c 1.628,1.78 2.443,4.258 2.443,7.436 l 0,0 c 0,3.071 -0.82,5.511 -2.46,7.321 l 0,0 c -1.643,1.811 -3.868,2.716 -6.681,2.716 l 0,0 c -2.941,0 -5.221,-0.885 -6.839,-2.656 m 1.831,-7.381 c 0,2.143 0.387,3.791 1.167,4.938 l 0,0 c 0.78,1.148 2.036,1.723 3.771,1.723 l 0,0 c 3.305,0 4.958,-2.22 4.958,-6.661 l 0,0 c 0,-4.488 -1.643,-6.733 -4.923,-6.733 l 0,0 c -3.316,0 -4.973,2.245 -4.973,6.733"
               style="fill:url(#linearGradient17340);stroke:none"
               id="path10652"
               inkscape:connector-curvature="0" />
          </g>
        </g>
      </g>
    </g>
    <g
       transform="matrix(1.25,0,0,-1.25,-470.98277,2129.0521)"
       id="g10654">
      <g
         id="g10656"
         clip-path="url(#clipPath10658)">
        <g
           id="g10662">
          <g
             id="g10664">
            <path
               d="m 290.207,1358.881 0,-19.44 9.281,0 c 2.671,0 4.709,0.495 6.109,1.485 l 0,0 c 1.4,0.99 2.1,2.405 2.1,4.246 l 0,0 c 0,1.23 -0.397,2.232 -1.195,3.005 l 0,0 c -0.798,0.773 -1.945,1.248 -3.445,1.423 l 0,0 0,0.142 c 2.682,0.48 4.025,1.868 4.025,4.166 l 0,0 c 0,3.316 -2.543,4.973 -7.629,4.973 l 0,0 -9.246,0 z m 4.131,-3.128 5.01,0 c 1.196,0 2.093,-0.172 2.698,-0.52 l 0,0 c 0.603,-0.345 0.906,-0.905 0.906,-1.678 l 0,0 c 0,-0.937 -0.358,-1.585 -1.073,-1.942 l 0,0 c -0.715,-0.358 -1.763,-0.535 -3.146,-0.535 l 0,0 -4.395,0 0,4.675 z m 0,-7.751 4.763,0 c 1.453,0 2.543,-0.197 3.27,-0.59 l 0,0 c 0.726,-0.393 1.091,-1.058 1.091,-1.995 l 0,0 c 0,-1.946 -1.418,-2.918 -4.256,-2.918 l 0,0 -4.868,0 0,5.503 z"
               style="fill:url(#linearGradient17342);stroke:none"
               id="path10678"
               inkscape:connector-curvature="0" />
          </g>
        </g>
      </g>
    </g>
    <g
       transform="matrix(1.25,0,0,-1.25,-470.98277,2129.0521)"
       id="g10680">
      <g
         id="g10682"
         clip-path="url(#clipPath10684)">
        <g
           id="g10688">
          <g
             id="g10690">
            <path
               d="m 316.029,1358.804 c -1.253,-0.288 -2.408,-0.708 -3.463,-1.258 l 0,0 1.337,-2.953 c 0.843,0.398 1.723,0.743 2.636,1.038 l 0,0 c 0.915,0.292 1.87,0.437 2.865,0.437 l 0,0 c 1.22,0 2.118,-0.307 2.698,-0.922 l 0,0 c 0.58,-0.615 0.87,-1.543 0.87,-2.786 l 0,0 0,-1.037 -3.358,-0.105 c -3.045,-0.093 -5.313,-0.65 -6.801,-1.671 l 0,0 c -1.488,-1.02 -2.233,-2.53 -2.233,-4.535 l 0,0 c 0,-1.886 0.535,-3.346 1.608,-4.376 l 0,0 c 1.073,-1.033 2.563,-1.548 4.473,-1.548 l 0,0 c 1.49,0 2.708,0.215 3.658,0.643 l 0,0 c 0.948,0.427 1.893,1.233 2.831,2.415 l 0,0 0.14,0 0.825,-2.705 2.953,0 0,13.094 c 0,2.311 -0.63,4.003 -1.891,5.081 l 0,0 c -1.257,1.078 -3.125,1.618 -5.598,1.618 l 0,0 c -1.113,0 -2.295,-0.145 -3.55,-0.43 m -0.386,-15.84 c -0.517,0.475 -0.775,1.147 -0.775,2.013 l 0,0 c 0,1.195 0.443,2.082 1.328,2.663 l 0,0 c 0.885,0.58 2.3,0.905 4.246,0.977 l 0,0 2.495,0.105 0,-1.688 c 0,-1.512 -0.452,-2.687 -1.363,-3.525 l 0,0 c -0.907,-0.838 -2.11,-1.255 -3.61,-1.255 l 0,0 c -1.033,0 -1.805,0.237 -2.321,0.71"
               style="fill:url(#linearGradient17344);stroke:none"
               id="path10704"
               inkscape:connector-curvature="0" />
          </g>
        </g>
      </g>
    </g>
    <g
       transform="matrix(1.25,0,0,-1.25,-470.98277,2129.0521)"
       id="g10706">
      <g
         id="g10708"
         clip-path="url(#clipPath10710)">
        <g
           id="g10714">
          <g
             id="g10716">
            <path
               d="m 330.636,1358.881 0,-3.233 6.328,0 0,-16.207 4.148,0 0,16.207 6.329,0 0,3.233 -16.805,0 z"
               style="fill:url(#linearGradient17346);stroke:none"
               id="path10730"
               inkscape:connector-curvature="0" />
          </g>
        </g>
      </g>
    </g>
    <g
       transform="matrix(1.25,0,0,-1.25,-470.98277,2129.0521)"
       id="g10732">
      <g
         id="g10734"
         clip-path="url(#clipPath10736)">
        <g
           id="g10740">
          <g
             id="g10742">
            <path
               d="m 351.186,1358.881 0,-19.44 8.999,0 c 2.661,0 4.681,0.512 6.064,1.538 l 0,0 c 1.385,1.025 2.075,2.527 2.075,4.508 l 0,0 c 0,3.75 -2.713,5.626 -8.139,5.626 l 0,0 -4.868,0 0,7.768 -4.131,0 z m 4.131,-10.879 4.623,0 c 1.348,0 2.391,-0.195 3.128,-0.58 l 0,0 c 0.738,-0.388 1.108,-1.068 1.108,-2.04 l 0,0 c 0,-0.938 -0.355,-1.653 -1.063,-2.146 l 0,0 c -0.71,-0.49 -1.745,-0.737 -3.103,-0.737 l 0,0 -4.693,0 0,5.503 z"
               style="fill:url(#linearGradient17348);stroke:none"
               id="path10756"
               inkscape:connector-curvature="0" />
          </g>
        </g>
      </g>
    </g>
  </g>
</svg>
