<svg xmlns="http://www.w3.org/2000/svg" xmlns:xlink="http://www.w3.org/1999/xlink" viewBox="0 0 325.37 77.55"><defs><style>.cls-1{fill:url(#linear-gradient);}.cls-2{fill:url(#linear-gradient-2);}.cls-3{fill:url(#linear-gradient-9);}.cls-4{fill:url(#linear-gradient-10);}.cls-5{fill:url(#linear-gradient-12);}.cls-6{fill:url(#linear-gradient-19);}</style><linearGradient id="linear-gradient" x1="326.14" y1="12.85" x2="-25.39" y2="12.85" gradientUnits="userSpaceOnUse"><stop offset="0" stop-color="#47c0b8"/><stop offset="0.35" stop-color="#47d2b1"/><stop offset="0.59" stop-color="#36c99a"/><stop offset="1" stop-color="#12b56a"/></linearGradient><linearGradient id="linear-gradient-2" x1="326.14" y1="15.98" x2="-25.39" y2="15.98" xlink:href="#linear-gradient"/><linearGradient id="linear-gradient-9" x1="326.14" y1="20.3" x2="-25.39" y2="20.3" xlink:href="#linear-gradient"/><linearGradient id="linear-gradient-10" x1="326.14" y1="59.18" x2="-25.39" y2="59.18" xlink:href="#linear-gradient"/><linearGradient id="linear-gradient-12" x1="326.14" y1="63.33" x2="-25.39" y2="63.33" xlink:href="#linear-gradient"/><linearGradient id="linear-gradient-19" x1="326.14" y1="62.62" x2="-25.39" y2="62.62" xlink:href="#linear-gradient"/></defs><title>Asset 57</title><g id="Layer_2" data-name="Layer 2"><g id="Layer_1-2" data-name="Layer 1"><path class="cls-1" d="M20.16,25.7H15.22l-10.58-13v13H.44V0h4.2V12.45L15.05,0h4.6L9.28,12.41Z"/><path class="cls-2" d="M40.36,15.94a10.65,10.65,0,0,1-2.44,7.44,8.77,8.77,0,0,1-6.81,2.67,9.3,9.3,0,0,1-4.81-1.23,8.12,8.12,0,0,1-3.22-3.53A12.07,12.07,0,0,1,22,15.94c0-3.15.8-5.61,2.42-7.38a8.8,8.8,0,0,1,6.84-2.65A8.57,8.57,0,0,1,37.9,8.62,10.49,10.49,0,0,1,40.36,15.94Zm-14.15,0q0,6.74,5,6.74c3.28,0,4.93-2.25,4.93-6.74s-1.66-6.66-5-6.66A4.24,4.24,0,0,0,27.38,11,8.78,8.78,0,0,0,26.21,15.94Z"/><path class="cls-2" d="M57.67,6.26V9.49H49.24V25.7H45.11V6.26Z"/><path class="cls-2" d="M78.66,15.94q0,4.77-2.44,7.44a8.76,8.76,0,0,1-6.8,2.67,9.32,9.32,0,0,1-4.82-1.23,8.18,8.18,0,0,1-3.22-3.53,12.07,12.07,0,0,1-1.12-5.35,10.57,10.57,0,0,1,2.42-7.38,8.8,8.8,0,0,1,6.84-2.65A8.57,8.57,0,0,1,76.2,8.62,10.49,10.49,0,0,1,78.66,15.94Zm-14.15,0q0,6.74,5,6.74t4.92-6.74q0-6.66-5-6.66A4.25,4.25,0,0,0,65.68,11,8.78,8.78,0,0,0,64.51,15.94Z"/><path class="cls-2" d="M94.75,25.7H90.12l5.42-8a5.81,5.81,0,0,1-3.1-2,5.66,5.66,0,0,1-1.12-3.59,5.19,5.19,0,0,1,2-4.32,8.48,8.48,0,0,1,5.38-1.55h8.86V25.7h-4.15V18.21H99.46Zm.59-13.54a2.51,2.51,0,0,0,1.14,2.25,5.53,5.53,0,0,0,3,.74h3.85V9.39h-4.5a4.14,4.14,0,0,0-2.61.72A2.44,2.44,0,0,0,95.34,12.16Z"/><path class="cls-2" d="M134,21.74l.22-.84c.48-1.75.9-3.09,1.25-4l4.36-10.62h5.5V25.7h-3.81V10l-.32,1.06c-.53,1.88-1,3.27-1.33,4.16L135.56,25.7h-3.13l-4.25-10.55A45.68,45.68,0,0,1,126.56,10V25.7h-3.78V6.26h5.47l4.22,10.3A47.31,47.31,0,0,1,134,21.74Z"/><path class="cls-2" d="M168.43,15.94q0,4.77-2.44,7.44a8.76,8.76,0,0,1-6.8,2.67,9.34,9.34,0,0,1-4.82-1.23,8.18,8.18,0,0,1-3.22-3.53A12.07,12.07,0,0,1,150,15.94a10.53,10.53,0,0,1,2.43-7.38,8.77,8.77,0,0,1,6.83-2.65A8.55,8.55,0,0,1,166,8.62,10.49,10.49,0,0,1,168.43,15.94Zm-14.15,0q0,6.74,5,6.74t4.92-6.74q0-6.66-5-6.66A4.25,4.25,0,0,0,155.45,11,8.78,8.78,0,0,0,154.28,15.94Z"/><path class="cls-2" d="M185.75,6.26V9.49h-8.44V25.7h-4.13V6.26Z"/><path class="cls-3" d="M186.54,6.26H191l4,11a20.89,20.89,0,0,1,1.2,4.43h.14a19.31,19.31,0,0,1,.58-2.35q.42-1.38,4.47-13.1h4.46l-8.31,22q-2.28,6.07-7.56,6.07a11.9,11.9,0,0,1-2.68-.3V30.78a9.79,9.79,0,0,0,2.13.21q3,0,4.2-3.46l.72-1.83Z"/><path class="cls-4" d="M17,49.46V68.9H12.85V52.73H4.13V68.9H0V49.46Z"/><path class="cls-4" d="M40.15,59.14a10.65,10.65,0,0,1-2.44,7.44,8.77,8.77,0,0,1-6.81,2.67A9.3,9.3,0,0,1,26.09,68a8.12,8.12,0,0,1-3.22-3.53,12.07,12.07,0,0,1-1.13-5.35,10.53,10.53,0,0,1,2.43-7.38A8.8,8.8,0,0,1,31,49.11a8.57,8.57,0,0,1,6.68,2.71A10.49,10.49,0,0,1,40.15,59.14ZM26,59.14q0,6.74,5,6.74t4.92-6.74q0-6.66-4.95-6.66a4.24,4.24,0,0,0-3.77,1.72A8.78,8.78,0,0,0,26,59.14Z"/><path class="cls-5" d="M54.76,69.25A6.78,6.78,0,0,1,49,66.6h-.25c.16,1.64.25,2.63.25,3v8H44.89V49.46h3.34c.1.36.29,1.23.58,2.6H49a6.45,6.45,0,0,1,5.8-3,6.78,6.78,0,0,1,5.67,2.63q2,2.64,2,7.4t-2.07,7.44A6.81,6.81,0,0,1,54.76,69.25Zm-1-16.77a4.29,4.29,0,0,0-3.59,1.44A7.46,7.46,0,0,0,49,58.53v.61c0,2.37.37,4.08,1.12,5.15a4.18,4.18,0,0,0,3.67,1.59,3.74,3.74,0,0,0,3.31-1.76,9.1,9.1,0,0,0,1.16-5,8.75,8.75,0,0,0-1.15-5A3.85,3.85,0,0,0,53.75,52.48Z"/><path class="cls-4" d="M75.81,69.25a9.42,9.42,0,0,1-7.09-2.64,10.09,10.09,0,0,1-2.56-7.29,11,11,0,0,1,2.38-7.49,8.17,8.17,0,0,1,6.52-2.72,8,8,0,0,1,6.08,2.33,8.94,8.94,0,0,1,2.23,6.44v2.23h-13A6.38,6.38,0,0,0,72,64.46,5.33,5.33,0,0,0,76,66a15.45,15.45,0,0,0,3.21-.32,17.41,17.41,0,0,0,3.19-1.08v3.35a12.8,12.8,0,0,1-3.06,1A18.71,18.71,0,0,1,75.81,69.25Zm-.75-17a4.17,4.17,0,0,0-3.16,1.24,6,6,0,0,0-1.41,3.64h8.82a5.39,5.39,0,0,0-1.16-3.65A4,4,0,0,0,75.06,52.24Z"/><path class="cls-4" d="M100.12,49.46h4.54l-8,9.37,8.72,10.07H100.6L92.2,59V68.9H88.07V49.46H92.2V58.9Z"/><path class="cls-4" d="M125.79,59.14a10.65,10.65,0,0,1-2.44,7.44,8.77,8.77,0,0,1-6.81,2.67A9.3,9.3,0,0,1,111.73,68a8.12,8.12,0,0,1-3.22-3.53,12.07,12.07,0,0,1-1.13-5.35,10.53,10.53,0,0,1,2.43-7.38,8.8,8.8,0,0,1,6.84-2.65,8.57,8.57,0,0,1,6.68,2.71A10.49,10.49,0,0,1,125.79,59.14Zm-14.15,0q0,6.74,5,6.74c3.28,0,4.93-2.25,4.93-6.74s-1.66-6.66-5-6.66a4.24,4.24,0,0,0-3.77,1.72A8.78,8.78,0,0,0,111.64,59.14Z"/><path class="cls-4" d="M141.7,64.94l.23-.84c.48-1.75.89-3.09,1.24-4l4.36-10.62H153V68.9h-3.82V53.2l-.32,1.06a41.44,41.44,0,0,1-1.33,4.16L143.31,68.9h-3.12l-4.26-10.55a50.17,50.17,0,0,1-1.62-5.15V68.9h-3.77V49.46H136l4.22,10.3A45.1,45.1,0,0,1,141.7,64.94Z"/><path class="cls-4" d="M167.43,69.25a9.41,9.41,0,0,1-7.09-2.64,10,10,0,0,1-2.56-7.29,11,11,0,0,1,2.37-7.49,8.2,8.2,0,0,1,6.53-2.72,8,8,0,0,1,6.08,2.33A8.94,8.94,0,0,1,175,57.88v2.23H162a6.33,6.33,0,0,0,1.52,4.35A5.36,5.36,0,0,0,167.62,66a15.45,15.45,0,0,0,3.21-.32A17.16,17.16,0,0,0,174,64.58v3.35A12.51,12.51,0,0,1,171,69,18.6,18.6,0,0,1,167.43,69.25Zm-.75-17a4.15,4.15,0,0,0-3.16,1.24,6,6,0,0,0-1.41,3.64h8.82a5.39,5.39,0,0,0-1.16-3.65A4,4,0,0,0,166.68,52.24Z"/><path class="cls-4" d="M183.81,49.46v7.8H193v-7.8h4.13V68.9H193V60.51h-9.16V68.9h-4.13V49.46Z"/><path class="cls-6" d="M221.66,75.77h-3.85V68.9H204.49v6.87h-3.82V65.7h1.58a23.93,23.93,0,0,0,3.3-7.18A39.19,39.19,0,0,0,207,49.46h11.81V65.7h2.85ZM214.75,65.7V52.62h-4.18a35.65,35.65,0,0,1-1.4,7.14,24.49,24.49,0,0,1-2.59,5.94Z"/><path class="cls-4" d="M242.51,59.14q0,4.77-2.45,7.44a8.73,8.73,0,0,1-6.8,2.67A9.3,9.3,0,0,1,228.45,68a8.12,8.12,0,0,1-3.22-3.53,12.07,12.07,0,0,1-1.13-5.35,10.53,10.53,0,0,1,2.43-7.38,8.8,8.8,0,0,1,6.84-2.65,8.57,8.57,0,0,1,6.68,2.71A10.49,10.49,0,0,1,242.51,59.14Zm-14.15,0q0,6.74,5,6.74t4.92-6.74q0-6.66-4.95-6.66a4.24,4.24,0,0,0-3.77,1.72A8.78,8.78,0,0,0,228.36,59.14Z"/><path class="cls-4" d="M264.13,54.43q0,3.45-4,4.17v.14a5.83,5.83,0,0,1,3.45,1.42,4,4,0,0,1,1.19,3,4.88,4.88,0,0,1-2.1,4.24,10.5,10.5,0,0,1-6.1,1.49h-9.29V49.46h9.25Q264.14,49.46,264.13,54.43Zm-4.13.35a1.76,1.76,0,0,0-.91-1.67,5.49,5.49,0,0,0-2.7-.52h-5v4.67h4.4a7.42,7.42,0,0,0,3.15-.53A2,2,0,0,0,260,54.78Zm.51,8.14a2.09,2.09,0,0,0-1.09-2,7.14,7.14,0,0,0-3.27-.59h-4.77v5.5h4.87Q260.51,65.84,260.51,62.92Z"/><path class="cls-4" d="M281.16,68.9l-.82-2.71h-.14a8,8,0,0,1-2.83,2.42,8.93,8.93,0,0,1-3.66.64,6.14,6.14,0,0,1-4.47-1.55,5.75,5.75,0,0,1-1.61-4.37,5.14,5.14,0,0,1,2.23-4.54c1.49-1,3.76-1.57,6.8-1.67L280,57V56a4,4,0,0,0-.87-2.79,3.57,3.57,0,0,0-2.7-.92,9.4,9.4,0,0,0-2.86.44,20.41,20.41,0,0,0-2.64,1l-1.34-3a14.15,14.15,0,0,1,3.47-1.25,15.69,15.69,0,0,1,3.55-.43,8.46,8.46,0,0,1,5.6,1.61c1.26,1.08,1.89,2.78,1.89,5.08V68.9ZM275,66.09a5.11,5.11,0,0,0,3.61-1.26A4.54,4.54,0,0,0,280,61.31V59.62l-2.49.1a8.56,8.56,0,0,0-4.25,1,3,3,0,0,0-1.32,2.66,2.6,2.6,0,0,0,.77,2A3.35,3.35,0,0,0,275,66.09Z"/><path class="cls-4" d="M304.49,49.46v3.23h-6.33V68.9H294V52.69h-6.33V49.46Z"/><path class="cls-4" d="M312.36,57.23h4.87q8.14,0,8.14,5.62a5.26,5.26,0,0,1-2.07,4.51,10.09,10.09,0,0,1-6.07,1.54h-9V49.46h4.13ZM321.22,63a2.12,2.12,0,0,0-1.1-2,6.85,6.85,0,0,0-3.13-.58h-4.63v5.5h4.7a5.44,5.44,0,0,0,3.1-.74A2.43,2.43,0,0,0,321.22,63Z"/></g></g></svg>