<svg xmlns="http://www.w3.org/2000/svg" xmlns:xlink="http://www.w3.org/1999/xlink" viewBox="0 0 169.31 26.05"><defs><style>.cls-1{fill:url(#linear-gradient);}.cls-2{fill:url(#linear-gradient-2);}.cls-3{fill:url(#linear-gradient-4);}</style><linearGradient id="linear-gradient" x1="189.2" y1="12.85" x2="-38.79" y2="12.85" gradientUnits="userSpaceOnUse"><stop offset="0" stop-color="#47c0b8"/><stop offset="0.35" stop-color="#47d2b1"/><stop offset="0.59" stop-color="#36c99a"/><stop offset="1" stop-color="#12b56a"/></linearGradient><linearGradient id="linear-gradient-2" x1="189.2" y1="15.98" x2="-38.79" y2="15.98" xlink:href="#linear-gradient"/><linearGradient id="linear-gradient-4" x1="189.2" y1="15.98" x2="-38.79" y2="15.98" xlink:href="#linear-gradient"/></defs><title>Asset 58</title><g id="Layer_2" data-name="Layer 2"><g id="Layer_1-2" data-name="Layer 1"><path class="cls-1" d="M19.72,25.7H14.78L4.2,12.67v13H0V0H4.2V12.45L14.61,0h4.6L8.84,12.41Z"/><path class="cls-2" d="M39.92,15.94q0,4.77-2.44,7.44a8.77,8.77,0,0,1-6.81,2.67,9.3,9.3,0,0,1-4.81-1.23,8.12,8.12,0,0,1-3.22-3.53,12.07,12.07,0,0,1-1.12-5.35c0-3.15.8-5.61,2.42-7.38a8.8,8.8,0,0,1,6.84-2.65,8.57,8.57,0,0,1,6.68,2.71A10.49,10.49,0,0,1,39.92,15.94Zm-14.15,0q0,6.74,5,6.74t4.93-6.74c0-4.44-1.66-6.66-5-6.66A4.24,4.24,0,0,0,26.94,11,8.78,8.78,0,0,0,25.77,15.94Z"/><path class="cls-2" d="M48.8,6.26v7.8H58V6.26h4.13V25.7H58V17.31H48.8V25.7H44.67V6.26Z"/><path class="cls-3" d="M82.6,6.26V9.49H76.27V25.7H72.12V9.49H65.79V6.26Z"/><path class="cls-2" d="M98.51,25.7,97.68,23h-.14a8,8,0,0,1-2.83,2.42,8.93,8.93,0,0,1-3.66.64,6.14,6.14,0,0,1-4.47-1.55A5.79,5.79,0,0,1,85,20.13a5.14,5.14,0,0,1,2.24-4.54c1.48-1,3.75-1.57,6.8-1.67l3.36-.1v-1A4,4,0,0,0,96.5,10a3.57,3.57,0,0,0-2.7-.92,9.46,9.46,0,0,0-2.87.44,21.61,21.61,0,0,0-2.64,1L87,7.59a14.07,14.07,0,0,1,3.46-1.25A15.82,15.82,0,0,1,94,5.91a8.45,8.45,0,0,1,5.6,1.61q1.89,1.62,1.89,5.08V25.7Zm-6.15-2.81A5.11,5.11,0,0,0,96,21.63a4.54,4.54,0,0,0,1.36-3.52V16.42l-2.5.1a8.51,8.51,0,0,0-4.24,1,3,3,0,0,0-1.33,2.66,2.57,2.57,0,0,0,.78,2A3.27,3.27,0,0,0,92.36,22.89Z"/><path class="cls-2" d="M119.29,6.26h4.53l-8,9.37,8.72,10.07h-4.75l-8.4-9.86V25.7h-4.13V6.26h4.13V15.7Z"/><path class="cls-2" d="M142.31,6.26V9.49H136V25.7h-4.14V9.49h-6.33V6.26Z"/><path class="cls-2" d="M150.19,14h3.93q4.08,0,6,1.4a4.86,4.86,0,0,1,2,4.22,5.3,5.3,0,0,1-2,4.53,9.89,9.89,0,0,1-6,1.52h-8.06V6.26h4.13ZM158,19.76a2.12,2.12,0,0,0-1.08-2,6.65,6.65,0,0,0-3.1-.58h-3.64v5.5h3.11a7,7,0,0,0,3.6-.7A2.4,2.4,0,0,0,158,19.76Zm11.3,5.94h-4.15V6.26h4.15Z"/></g></g></svg>