<svg xmlns="http://www.w3.org/2000/svg" xmlns:xlink="http://www.w3.org/1999/xlink" viewBox="0 0 633.77 163.84"><defs><style>.cls-1{fill:none;stroke-miterlimit:10;stroke-width:3px;stroke:url(#linear-gradient);}</style><linearGradient id="linear-gradient" x1="633.77" y1="81.92" x2="0" y2="81.92" gradientUnits="userSpaceOnUse"><stop offset="0" stop-color="#47c0b8"/><stop offset="0.35" stop-color="#47d2b1"/><stop offset="0.59" stop-color="#36c99a"/><stop offset="1" stop-color="#12b56a"/></linearGradient></defs><title>Asset 49</title><g id="Layer_2" data-name="Layer 2"><g id="Layer_1-2" data-name="Layer 1"><path class="cls-1" d="M0,162.34H43.25A102.82,102.82,0,0,1,23.5,157l7-19.06a98.32,98.32,0,0,0,15.21,4.77,81.9,81.9,0,0,0,18.15,1.81,69.7,69.7,0,0,0,16.23-1.81,36.07,36.07,0,0,0,13.17-5.91,29.52,29.52,0,0,0,8.85-10.55q3.28-6.47,3.29-15.77,0-14.07-9.31-20.88T71.85,82.76q-4.55,0-9.19.34a53.81,53.81,0,0,0-9.19,1.47l-1.82-3.18L89.55,21.7H31.22V1.5h91.92l1.59,2.72L83.43,67.1A4.74,4.74,0,0,1,85,66.87h1.82a42.59,42.59,0,0,1,18.5,3.74,36.2,36.2,0,0,1,12.93,9.76c17.13,21.41,8.61,46.08,5,53.12-8.83,17.2-27.46,26.52-32.12,28.85H633.77"/></g></g></svg>