<svg xmlns="http://www.w3.org/2000/svg" xmlns:xlink="http://www.w3.org/1999/xlink" viewBox="0 0 633.98 167.64"><defs><style>.cls-1,.cls-2{fill:none;stroke-miterlimit:10;stroke-width:3px;}.cls-1{stroke:url(#linear-gradient);}.cls-2{stroke:url(#linear-gradient-2);}</style><linearGradient id="linear-gradient" x1="125.96" y1="84.56" x2="58.52" y2="84.56" gradientUnits="userSpaceOnUse"><stop offset="0" stop-color="#47c0b8"/><stop offset="0.35" stop-color="#47d2b1"/><stop offset="0.59" stop-color="#36c99a"/><stop offset="1" stop-color="#12b56a"/></linearGradient><linearGradient id="linear-gradient-2" x1="633.98" y1="83.82" x2="0" y2="83.82" xlink:href="#linear-gradient"/></defs><title>Asset 50</title><g id="Layer_2" data-name="Layer 2"><g id="Layer_1-2" data-name="Layer 1"><path class="cls-1" d="M92.24,88.33a73.94,73.94,0,0,0-12.79,5.15,42.12,42.12,0,0,0-10.17,7.19A32.5,32.5,0,0,0,62.54,110,26.64,26.64,0,0,0,60,121.7q0,12.79,8.23,20.11t24,7.31q16,0,24.11-7.31t8.11-20.11A26.63,26.63,0,0,0,122,110a31.63,31.63,0,0,0-6.86-9.37,45.68,45.68,0,0,0-10.16-7.19A70.72,70.72,0,0,0,92.24,88.33Zm0-18.28a60.75,60.75,0,0,0,10.29-4A39.86,39.86,0,0,0,111,60.46a24.07,24.07,0,0,0,5.83-7.66A22.89,22.89,0,0,0,119,42.63q0-10.27-6.74-16.45T92.24,20q-13.24,0-20,6.17T65.51,42.63A22.89,22.89,0,0,0,67.68,52.8a24,24,0,0,0,5.82,7.66,39,39,0,0,0,8.57,5.59A68.39,68.39,0,0,0,92.24,70.05Z"/><path class="cls-2" d="M634,166.14H112.92a54.88,54.88,0,0,0,18.17-7.77,40.15,40.15,0,0,0,12.8-13.94q4.8-8.56,4.79-20.68a43.16,43.16,0,0,0-3.08-16.91,45.2,45.2,0,0,0-8-12.79,48,48,0,0,0-11-9.14,92.94,92.94,0,0,0-12-6.17,54.59,54.59,0,0,0,18.85-14.4q7.65-9.14,7.65-23.31a34.91,34.91,0,0,0-3.76-16.22,37.85,37.85,0,0,0-10.29-12.46,48.55,48.55,0,0,0-15.42-8A63.49,63.49,0,0,0,92.24,1.5,63.42,63.42,0,0,0,72.82,4.36a48.71,48.71,0,0,0-15.43,8A37.7,37.7,0,0,0,47.11,24.81,34.92,34.92,0,0,0,43.34,41Q43.34,55,51,64.23A54.38,54.38,0,0,0,69.62,78.74,81.15,81.15,0,0,0,57.74,85a51.57,51.57,0,0,0-10.86,9.26,45.81,45.81,0,0,0-8,12.68,42.28,42.28,0,0,0-3.09,16.79q0,12.12,4.8,20.68a40.05,40.05,0,0,0,12.8,13.94,54.87,54.87,0,0,0,18.05,7.77H0"/></g></g></svg>