<svg xmlns="http://www.w3.org/2000/svg" xmlns:xlink="http://www.w3.org/1999/xlink" viewBox="0 0 634 159.48"><defs><style>.cls-1{fill:none;stroke-miterlimit:10;stroke-width:3px;stroke:url(#linear-gradient);}</style><linearGradient id="linear-gradient" x1="634" y1="79.74" x2="0" y2="79.74" gradientUnits="userSpaceOnUse"><stop offset="0" stop-color="#47c0b8"/><stop offset="0.35" stop-color="#47d2b1"/><stop offset="0.59" stop-color="#36c99a"/><stop offset="1" stop-color="#12b56a"/></linearGradient></defs><title>Asset 53</title><g id="Layer_2" data-name="Layer 2"><g id="Layer_1-2" data-name="Layer 1"><path class="cls-1" d="M0,158H58.7q-3.91-.39-8.06-1a79.78,79.78,0,0,1-18-5L39,132.87c4.68,1.66,9.24,3.32,13.84,4,48.42,6.79,57.65-15,57.65-26.62a37,37,0,0,0-1.93-12,24.8,24.8,0,0,0-6.24-9.87,29.59,29.59,0,0,0-11.23-6.58,52.34,52.34,0,0,0-16.91-2.39,83.68,83.68,0,0,0-13.85,1.14,74.07,74.07,0,0,0-12,3l-2.27-2q.67-20,1.48-39.83T49.17,1.5h77.17V21.7H69.59L68.23,62.1A56.79,56.79,0,0,1,77,61q4.43-.22,6.93-.23a63.59,63.59,0,0,1,20.65,3.18,41.75,41.75,0,0,1,26.1,24.62,54.44,54.44,0,0,1,3.63,20.55q0,14.3-5,24.73a47.57,47.57,0,0,1-13.73,17.26,54.75,54.75,0,0,1-11.47,6.82H634"/></g></g></svg>