<svg xmlns="http://www.w3.org/2000/svg" xmlns:xlink="http://www.w3.org/1999/xlink" viewBox="0 0 634.45 149.89"><defs><style>.cls-1{fill:none;stroke-miterlimit:10;stroke-width:3px;stroke:url(#linear-gradient);}</style><linearGradient id="linear-gradient" x1="634.45" y1="74.94" x2="0" y2="74.94" gradientUnits="userSpaceOnUse"><stop offset="0" stop-color="#47c0b8"/><stop offset="0.35" stop-color="#47d2b1"/><stop offset="0.59" stop-color="#36c99a"/><stop offset="1" stop-color="#12b56a"/></linearGradient></defs><title>Asset 48</title><g id="Layer_2" data-name="Layer 2"><g id="Layer_1-2" data-name="Layer 1"><path class="cls-1" d="M0,148.39H24.3L68.78,95.24q5.91-7,11-13.28a123.7,123.7,0,0,0,8.85-12.14,65.06,65.06,0,0,0,5.91-11.58,33.07,33.07,0,0,0,2.15-11.8q0-12-7.72-18.39T67,21.7a58.59,58.59,0,0,0-18.39,2.5,150.75,150.75,0,0,0-14.52,5.67L28.38,10.8A177.44,177.44,0,0,1,46,4.45,77.4,77.4,0,0,1,68.56,1.5,79.87,79.87,0,0,1,89.67,4.11a48.18,48.18,0,0,1,16.45,7.83,34.64,34.64,0,0,1,10.67,13.28,44.53,44.53,0,0,1,3.74,19,57.63,57.63,0,0,1-8.39,29.51Q103.74,88,88.31,105.45L66.52,130.19l61.29-.44v18.64H634.45"/></g></g></svg>