<svg xmlns="http://www.w3.org/2000/svg" xmlns:xlink="http://www.w3.org/1999/xlink" viewBox="0 0 634.17 168.49"><defs><style>.cls-1,.cls-2{fill:none;stroke-miterlimit:10;stroke-width:3px;}.cls-1{stroke:url(#linear-gradient);}.cls-2{stroke:url(#linear-gradient-2);}</style><linearGradient id="linear-gradient" x1="125.62" y1="116.79" x2="59.78" y2="116.79" gradientUnits="userSpaceOnUse"><stop offset="0" stop-color="#47c0b8"/><stop offset="0.35" stop-color="#47d2b1"/><stop offset="0.59" stop-color="#36c99a"/><stop offset="1" stop-color="#12b56a"/></linearGradient><linearGradient id="linear-gradient-2" x1="634.17" y1="84.24" x2="0" y2="84.24" xlink:href="#linear-gradient"/></defs><title>Asset 52</title><g id="Layer_2" data-name="Layer 2"><g id="Layer_1-2" data-name="Layer 1"><path class="cls-1" d="M93.5,82.51A34.78,34.78,0,0,0,80.93,84.8a28.33,28.33,0,0,0-10.28,6.74,32.23,32.23,0,0,0-6.86,10.85A39.71,39.71,0,0,0,61.28,117q0,17.13,8.11,25.59t22.51,8.46a34.48,34.48,0,0,0,12.68-2.29,29.18,29.18,0,0,0,10.17-6.63,31.07,31.07,0,0,0,6.86-10.73,40.62,40.62,0,0,0,2.51-14.86,44.44,44.44,0,0,0-2.4-15.54,29.07,29.07,0,0,0-6.51-10.51,25.2,25.2,0,0,0-9.71-6.05A36.3,36.3,0,0,0,93.5,82.51Z"/><path class="cls-2" d="M634.17,167H114.23c12-6,22.47-13.48,29-27.35,3.2-6.82,4.69-14.77,4.69-23.76s-1.38-17-4.12-23.66a46,46,0,0,0-11-16.33,44.12,44.12,0,0,0-15.65-9.49,54.06,54.06,0,0,0-17.94-3.08q-14.62,0-24.34,6.28a44.51,44.51,0,0,0-14.73,15,96.33,96.33,0,0,1,7-23.65A68.42,68.42,0,0,1,80,41.38,65,65,0,0,1,99.1,27.56a74.06,74.06,0,0,1,25.48-6.74l-.92-19.2Q101,3.45,84.59,12.25A82.19,82.19,0,0,0,57.51,35,95.71,95.71,0,0,0,41.74,66.74a136.23,136.23,0,0,0-5.14,37.94q0,17.59,3.88,30t11.09,20.45A43.08,43.08,0,0,0,69.16,167H0"/></g></g></svg>