<svg xmlns="http://www.w3.org/2000/svg" xmlns:xlink="http://www.w3.org/1999/xlink" viewBox="0 0 129.73 26.42"><defs><style>.cls-1{fill:url(#linear-gradient);}.cls-2{fill:url(#linear-gradient-2);}</style><linearGradient id="linear-gradient" x1="143.97" y1="13.21" x2="-31.53" y2="13.21" gradientUnits="userSpaceOnUse"><stop offset="0" stop-color="#47c0b8"/><stop offset="0.35" stop-color="#47d2b1"/><stop offset="0.59" stop-color="#36c99a"/><stop offset="1" stop-color="#12b56a"/></linearGradient><linearGradient id="linear-gradient-2" x1="143.97" y1="16.35" x2="-31.53" y2="16.35" xlink:href="#linear-gradient"/></defs><title>Asset 38</title><g id="Layer_2" data-name="Layer 2"><g id="Layer_1-2" data-name="Layer 1"><path class="cls-1" d="M12.2,3.6A7,7,0,0,0,6.5,6.17a11,11,0,0,0-2.07,7.08c0,3.16.66,5.54,2,7.16a7,7,0,0,0,5.78,2.42,14.92,14.92,0,0,0,3.16-.32q1.53-.33,3.18-.84v3.61a19.29,19.29,0,0,1-6.85,1.14Q6.05,26.42,3,23T0,13.22a15.76,15.76,0,0,1,1.47-7A10.48,10.48,0,0,1,5.71,1.6,12.81,12.81,0,0,1,12.23,0a16.18,16.18,0,0,1,7.28,1.65L18,5.15a22.46,22.46,0,0,0-2.75-1.08A9.93,9.93,0,0,0,12.2,3.6Z"/><path class="cls-2" d="M40.89,16.31q0,4.77-2.45,7.44a8.75,8.75,0,0,1-6.8,2.67,9.34,9.34,0,0,1-4.82-1.23,8.15,8.15,0,0,1-3.21-3.53,12.07,12.07,0,0,1-1.13-5.35,10.53,10.53,0,0,1,2.43-7.38,8.79,8.79,0,0,1,6.84-2.65A8.57,8.57,0,0,1,38.43,9,10.49,10.49,0,0,1,40.89,16.31Zm-14.15,0c0,4.49,1.65,6.73,5,6.73s4.92-2.24,4.92-6.73-1.65-6.66-5-6.66a4.2,4.2,0,0,0-3.77,1.72A8.78,8.78,0,0,0,26.74,16.31Z"/><path class="cls-2" d="M62.51,11.6q0,3.45-4,4.17v.14a5.77,5.77,0,0,1,3.45,1.42,4,4,0,0,1,1.19,3A4.88,4.88,0,0,1,61,24.58a10.51,10.51,0,0,1-6.11,1.49H45.63V6.63h9.25Q62.5,6.63,62.51,11.6ZM58.38,12a1.79,1.79,0,0,0-.91-1.68,5.62,5.62,0,0,0-2.7-.51h-5v4.67h4.4a7.34,7.34,0,0,0,3.14-.53A2,2,0,0,0,58.38,12Zm.51,8.14a2.08,2.08,0,0,0-1.09-2,7,7,0,0,0-3.27-.59H49.76V23h4.87Q58.89,23,58.89,20.09Z"/><path class="cls-2" d="M75.87,26.42a9.4,9.4,0,0,1-7.1-2.65,10,10,0,0,1-2.55-7.28A11,11,0,0,1,68.59,9a8.18,8.18,0,0,1,6.52-2.72,8,8,0,0,1,6.08,2.33,9,9,0,0,1,2.24,6.44v2.23h-13A6.38,6.38,0,0,0,72,21.63a5.33,5.33,0,0,0,4.06,1.52,15.45,15.45,0,0,0,3.21-.32,16.76,16.76,0,0,0,3.19-1.09V25.1a12.8,12.8,0,0,1-3.06,1A18.67,18.67,0,0,1,75.87,26.42Zm-.76-17A4.15,4.15,0,0,0,72,10.65a6,6,0,0,0-1.42,3.64h8.83a5.44,5.44,0,0,0-1.16-3.65A4,4,0,0,0,75.11,9.4Z"/><path class="cls-2" d="M102.73,6.63V9.86H96.4V26.07H92.25V9.86H85.92V6.63Z"/><path class="cls-2" d="M110.6,14.4h3.94q4.08,0,6,1.4a4.87,4.87,0,0,1,2,4.22,5.31,5.31,0,0,1-2,4.53,9.85,9.85,0,0,1-5.95,1.52h-8.07V6.63h4.13Zm7.82,5.73a2.1,2.1,0,0,0-1.08-2,6.63,6.63,0,0,0-3.1-.58H110.6V23h3.11a7,7,0,0,0,3.61-.7A2.42,2.42,0,0,0,118.42,20.13Zm11.31,5.94h-4.15V6.63h4.15Z"/></g></g></svg>