<?xml version="1.0" encoding="UTF-8" standalone="no"?>
<!-- Created with Inkscape (http://www.inkscape.org/) -->

<svg
   xmlns:dc="http://purl.org/dc/elements/1.1/"
   xmlns:cc="http://creativecommons.org/ns#"
   xmlns:rdf="http://www.w3.org/1999/02/22-rdf-syntax-ns#"
   xmlns:svg="http://www.w3.org/2000/svg"
   xmlns="http://www.w3.org/2000/svg"
   xmlns:xlink="http://www.w3.org/1999/xlink"
   xmlns:sodipodi="http://sodipodi.sourceforge.net/DTD/sodipodi-0.dtd"
   xmlns:inkscape="http://www.inkscape.org/namespaces/inkscape"
   width="294.29675mm"
   height="19.474392mm"
   viewBox="0 0 1042.7838 69.003751"
   id="svg22424"
   version="1.1"
   inkscape:version="0.91 r13725"
   sodipodi:docname="title__desktop.svg">
  <defs
     id="defs22426">
    <clipPath
       clipPathUnits="userSpaceOnUse"
       id="clipPath11242">
      <path
         d="m 1500.441,1596.5 c 0,-6.228 5.051,-11.279 11.279,-11.279 l 0,0 c 6.23,0 11.279,5.051 11.279,11.279 l 0,0 c 0,6.228 -5.049,11.279 -11.279,11.279 l 0,0 c -6.228,0 -11.279,-5.051 -11.279,-11.279"
         id="path11244"
         inkscape:connector-curvature="0" />
    </clipPath>
    <linearGradient
       x1="0"
       y1="0"
       x2="1"
       y2="0"
       gradientUnits="userSpaceOnUse"
       gradientTransform="matrix(-833,0,0,833,1523,1596.5)"
       spreadMethod="pad"
       id="linearGradient11250">
      <stop
         style="stop-opacity:1;stop-color:#47c0b8"
         offset="0"
         id="stop11252" />
      <stop
         style="stop-opacity:1;stop-color:#47c0b8"
         offset="0.0393917"
         id="stop11254" />
      <stop
         style="stop-opacity:1;stop-color:#47d2b1"
         offset="0.348613"
         id="stop11256" />
      <stop
         style="stop-opacity:1;stop-color:#47d2b1"
         offset="0.4222168"
         id="stop11258" />
      <stop
         style="stop-opacity:1;stop-color:#12b56a"
         offset="1"
         id="stop11260" />
    </linearGradient>
    <clipPath
       clipPathUnits="userSpaceOnUse"
       id="clipPath11218">
      <path
         d="m 0,6075 1920,0 L 1920,0 0,0 0,6075 Z"
         id="path11220"
         inkscape:connector-curvature="0" />
    </clipPath>
    <linearGradient
       x1="0"
       y1="0"
       x2="1"
       y2="0"
       gradientUnits="userSpaceOnUse"
       gradientTransform="matrix(-833,0,0,-833,833,6075)"
       spreadMethod="pad"
       id="linearGradient11224">
      <stop
         style="stop-opacity:1;stop-color:#47c0b8"
         offset="0"
         id="stop11226" />
      <stop
         style="stop-opacity:1;stop-color:#47c0b8"
         offset="0.0393917"
         id="stop11228" />
      <stop
         style="stop-opacity:1;stop-color:#47d2b1"
         offset="0.348613"
         id="stop11230" />
      <stop
         style="stop-opacity:1;stop-color:#47d2b1"
         offset="0.4222168"
         id="stop11232" />
      <stop
         style="stop-opacity:1;stop-color:#12b56a"
         offset="1"
         id="stop11234" />
    </linearGradient>
    <clipPath
       clipPathUnits="userSpaceOnUse"
       id="clipPath9040">
      <path
         d="m 793.421,1618.7 3.458,0 0,16.201 -3.458,0 0,-16.201 z m -15.924,16.201 0,-16.201 6.724,0 c 2.179,0 3.831,0.422 4.958,1.269 l 0,0 c 1.13,0.843 1.693,2.1 1.693,3.77 l 0,0 c 0,1.563 -0.542,2.735 -1.626,3.516 l 0,0 c -1.084,0.782 -2.759,1.172 -5.025,1.172 l 0,0 -3.281,0 0,6.474 -3.443,0 z m 3.443,-9.067 3.033,0 c 1.123,0 1.985,-0.162 2.585,-0.484 l 0,0 c 0.6,-0.321 0.901,-0.888 0.901,-1.698 l 0,0 c 0,-0.82 -0.308,-1.427 -0.923,-1.817 l 0,0 c -0.615,-0.391 -1.617,-0.586 -3.002,-0.586 l 0,0 -2.594,0 0,4.585 z"
         id="path9042"
         inkscape:connector-curvature="0" />
    </clipPath>
    <linearGradient
       x1="0"
       y1="0"
       x2="1"
       y2="0"
       gradientUnits="userSpaceOnUse"
       gradientTransform="matrix(-118.33755,0,0,118.33755,806,1626.8008)"
       spreadMethod="pad"
       id="linearGradient9048">
      <stop
         style="stop-opacity:1;stop-color:#47c0b8"
         offset="0"
         id="stop9050" />
      <stop
         style="stop-opacity:1;stop-color:#47c0b8"
         offset="0.0393917"
         id="stop9052" />
      <stop
         style="stop-opacity:1;stop-color:#47d2b1"
         offset="0.348613"
         id="stop9054" />
      <stop
         style="stop-opacity:1;stop-color:#47d2b1"
         offset="0.4222168"
         id="stop9056" />
      <stop
         style="stop-opacity:1;stop-color:#12b56a"
         offset="1"
         id="stop9058" />
    </linearGradient>
    <clipPath
       clipPathUnits="userSpaceOnUse"
       id="clipPath9014">
      <path
         d="m 760.374,1634.901 0,-2.694 5.274,0 0,-13.507 3.456,0 0,13.507 5.274,0 0,2.694 -14.004,0 z"
         id="path9016"
         inkscape:connector-curvature="0" />
    </clipPath>
    <clipPath
       clipPathUnits="userSpaceOnUse"
       id="clipPath8988">
      <path
         d="m 745.93,1632.923 c -1.317,-1.512 -1.977,-3.593 -1.977,-6.24 l 0,0 c 0,-2.578 0.712,-4.601 2.131,-6.071 l 0,0 c 1.421,-1.47 3.391,-2.205 5.911,-2.205 l 0,0 c 1.104,0 2.084,0.083 2.944,0.249 l 0,0 c 0.86,0.166 1.709,0.449 2.549,0.85 l 0,0 0,2.798 c -0.946,-0.421 -1.834,-0.721 -2.659,-0.901 l 0,0 c -0.824,-0.181 -1.716,-0.271 -2.672,-0.271 l 0,0 c -1.456,0 -2.584,0.422 -3.385,1.267 l 0,0 c -0.8,0.844 -1.226,2.053 -1.275,3.625 l 0,0 10.796,0 0,1.86 c 0,2.277 -0.619,4.063 -1.86,5.362 l 0,0 c -1.239,1.299 -2.928,1.949 -5.068,1.949 l 0,0 c -2.305,0 -4.116,-0.758 -5.435,-2.272 m 2.807,-1.377 c 0.657,0.694 1.534,1.04 2.628,1.04 l 0,0 c 1.094,0 1.953,-0.343 2.579,-1.032 l 0,0 c 0.625,-0.688 0.946,-1.701 0.966,-3.04 l 0,0 -7.353,0 c 0.126,1.329 0.52,2.339 1.18,3.032"
         id="path8990"
         inkscape:connector-curvature="0" />
    </clipPath>
    <clipPath
       clipPathUnits="userSpaceOnUse"
       id="clipPath8962">
      <path
         d="m 726.799,1634.901 0,-16.201 7.735,0 c 2.227,0 3.922,0.412 5.09,1.238 l 0,0 c 1.167,0.825 1.751,2.005 1.751,3.537 l 0,0 c 0,1.026 -0.333,1.86 -0.996,2.505 l 0,0 c -0.665,0.645 -1.621,1.04 -2.871,1.186 l 0,0 0,0.118 c 2.237,0.401 3.354,1.558 3.354,3.471 l 0,0 c 0,2.764 -2.119,4.146 -6.357,4.146 l 0,0 -7.706,0 z m 3.443,-2.608 4.174,0 c 0.997,0 1.746,-0.144 2.249,-0.431 l 0,0 c 0.503,-0.288 0.755,-0.755 0.755,-1.4 l 0,0 c 0,-0.78 -0.298,-1.32 -0.894,-1.617 l 0,0 c -0.596,-0.299 -1.469,-0.447 -2.622,-0.447 l 0,0 -3.662,0 0,3.895 z m 0,-6.459 3.97,0 c 1.21,0 2.119,-0.163 2.724,-0.491 l 0,0 c 0.606,-0.328 0.909,-0.881 0.909,-1.662 l 0,0 c 0,-1.621 -1.181,-2.432 -3.545,-2.432 l 0,0 -4.058,0 0,4.585 z"
         id="path8964"
         inkscape:connector-curvature="0" />
    </clipPath>
    <clipPath
       clipPathUnits="userSpaceOnUse"
       id="clipPath8936">
      <path
         d="m 709.53,1632.983 c -1.348,-1.475 -2.022,-3.525 -2.022,-6.154 l 0,0 c 0,-1.689 0.313,-3.173 0.938,-4.452 l 0,0 c 0.625,-1.279 1.518,-2.261 2.68,-2.944 l 0,0 c 1.162,-0.684 2.5,-1.026 4.014,-1.026 l 0,0 c 2.421,0 4.311,0.743 5.669,2.226 l 0,0 c 1.357,1.485 2.035,3.551 2.035,6.196 l 0,0 c 0,2.56 -0.683,4.594 -2.05,6.102 l 0,0 c -1.368,1.509 -3.223,2.264 -5.567,2.264 l 0,0 c -2.451,0 -4.349,-0.738 -5.697,-2.212 m 1.523,-6.154 c 0,1.789 0.325,3.161 0.974,4.117 l 0,0 c 0.648,0.957 1.697,1.436 3.142,1.436 l 0,0 c 2.754,0 4.131,-1.851 4.131,-5.553 l 0,0 c 0,-3.74 -1.368,-5.609 -4.102,-5.609 l 0,0 c -2.764,0 -4.145,1.869 -4.145,5.609"
         id="path8938"
         inkscape:connector-curvature="0" />
    </clipPath>
    <clipPath
       clipPathUnits="userSpaceOnUse"
       id="clipPath8910">
      <path
         d="m 693.533,1639.09 c -1.543,-0.889 -2.723,-2.168 -3.537,-3.837 l 0,0 c -0.817,-1.67 -1.224,-3.618 -1.224,-5.846 l 0,0 c 0,-3.534 0.84,-6.252 2.52,-8.15 l 0,0 c 1.68,-1.9 4.086,-2.85 7.222,-2.85 l 0,0 c 2.129,0 4.033,0.317 5.713,0.952 l 0,0 0,3.003 c -0.918,-0.284 -1.802,-0.515 -2.651,-0.695 l 0,0 c -0.851,-0.182 -1.729,-0.271 -2.638,-0.271 l 0,0 c -2.099,0 -3.703,0.673 -4.812,2.021 l 0,0 c -1.108,1.348 -1.663,3.334 -1.663,5.961 l 0,0 c 0,2.51 0.576,4.478 1.729,5.904 l 0,0 c 1.153,1.425 2.735,2.139 4.746,2.139 l 0,0 c 0.889,0 1.735,-0.13 2.542,-0.389 l 0,0 c 0.805,-0.259 1.57,-0.558 2.293,-0.899 l 0,0 1.259,2.913 c -1.855,0.919 -3.877,1.378 -6.065,1.378 l 0,0 c -2.079,0 -3.891,-0.445 -5.434,-1.334"
         id="path8912"
         inkscape:connector-curvature="0" />
    </clipPath>
    <linearGradient
       x1="0"
       y1="0"
       x2="1"
       y2="0"
       gradientUnits="userSpaceOnUse"
       gradientTransform="matrix(-118.33755,0,0,118.33755,806,1629.4155)"
       spreadMethod="pad"
       id="linearGradient8918">
      <stop
         style="stop-opacity:1;stop-color:#47c0b8"
         offset="0"
         id="stop8920" />
      <stop
         style="stop-opacity:1;stop-color:#47c0b8"
         offset="0.0393917"
         id="stop8922" />
      <stop
         style="stop-opacity:1;stop-color:#47d2b1"
         offset="0.348613"
         id="stop8924" />
      <stop
         style="stop-opacity:1;stop-color:#47d2b1"
         offset="0.4222168"
         id="stop8926" />
      <stop
         style="stop-opacity:1;stop-color:#12b56a"
         offset="1"
         id="stop8928" />
    </linearGradient>
    <linearGradient
       inkscape:collect="always"
       xlink:href="#linearGradient9048"
       id="linearGradient22618"
       gradientUnits="userSpaceOnUse"
       gradientTransform="matrix(-118.33755,0,0,118.33755,806,1626.8008)"
       spreadMethod="pad"
       x1="0"
       y1="0"
       x2="1"
       y2="0" />
    <linearGradient
       inkscape:collect="always"
       xlink:href="#linearGradient9048"
       id="linearGradient22620"
       gradientUnits="userSpaceOnUse"
       gradientTransform="matrix(-118.33755,0,0,118.33755,806,1626.8008)"
       spreadMethod="pad"
       x1="0"
       y1="0"
       x2="1"
       y2="0" />
    <linearGradient
       inkscape:collect="always"
       xlink:href="#linearGradient9048"
       id="linearGradient22622"
       gradientUnits="userSpaceOnUse"
       gradientTransform="matrix(-118.33755,0,0,118.33755,806,1626.8008)"
       spreadMethod="pad"
       x1="0"
       y1="0"
       x2="1"
       y2="0" />
    <linearGradient
       inkscape:collect="always"
       xlink:href="#linearGradient9048"
       id="linearGradient22624"
       gradientUnits="userSpaceOnUse"
       gradientTransform="matrix(-118.33755,0,0,118.33755,806,1626.8008)"
       spreadMethod="pad"
       x1="0"
       y1="0"
       x2="1"
       y2="0" />
    <linearGradient
       inkscape:collect="always"
       xlink:href="#linearGradient9048"
       id="linearGradient22626"
       gradientUnits="userSpaceOnUse"
       gradientTransform="matrix(-118.33755,0,0,118.33755,806,1626.8008)"
       spreadMethod="pad"
       x1="0"
       y1="0"
       x2="1"
       y2="0" />
  </defs>
  <sodipodi:namedview
     id="base"
     pagecolor="#ffffff"
     bordercolor="#666666"
     borderopacity="1.0"
     inkscape:pageopacity="0.0"
     inkscape:pageshadow="2"
     inkscape:zoom="0.35"
     inkscape:cx="-140.75098"
     inkscape:cy="-99.783855"
     inkscape:document-units="px"
     inkscape:current-layer="layer1"
     showgrid="false"
     fit-margin-top="0"
     fit-margin-left="0"
     fit-margin-right="0"
     fit-margin-bottom="0"
     inkscape:window-width="1366"
     inkscape:window-height="718"
     inkscape:window-x="0"
     inkscape:window-y="24"
     inkscape:window-maximized="1" />
  <metadata
     id="metadata22429">
    <rdf:RDF>
      <cc:Work
         rdf:about="">
        <dc:format>image/svg+xml</dc:format>
        <dc:type
           rdf:resource="http://purl.org/dc/dcmitype/StillImage" />
        <dc:title></dc:title>
      </cc:Work>
    </rdf:RDF>
  </metadata>
  <g
     inkscape:label="Layer 1"
     inkscape:groupmode="layer"
     id="layer1"
     transform="translate(-81.46527,-363.5746)">
    <g
       transform="matrix(1.25,0,0,-1.25,-779.49973,2414.1046)"
       id="g8906">
      <g
         id="g8908"
         clip-path="url(#clipPath8910)">
        <g
           id="g8914">
          <g
             id="g8916">
            <path
               d="m 693.533,1639.09 c -1.543,-0.889 -2.723,-2.168 -3.537,-3.837 l 0,0 c -0.817,-1.67 -1.224,-3.618 -1.224,-5.846 l 0,0 c 0,-3.534 0.84,-6.252 2.52,-8.15 l 0,0 c 1.68,-1.9 4.086,-2.85 7.222,-2.85 l 0,0 c 2.129,0 4.033,0.317 5.713,0.952 l 0,0 0,3.003 c -0.918,-0.284 -1.802,-0.515 -2.651,-0.695 l 0,0 c -0.851,-0.182 -1.729,-0.271 -2.638,-0.271 l 0,0 c -2.099,0 -3.703,0.673 -4.812,2.021 l 0,0 c -1.108,1.348 -1.663,3.334 -1.663,5.961 l 0,0 c 0,2.51 0.576,4.478 1.729,5.904 l 0,0 c 1.153,1.425 2.735,2.139 4.746,2.139 l 0,0 c 0.889,0 1.735,-0.13 2.542,-0.389 l 0,0 c 0.805,-0.259 1.57,-0.558 2.293,-0.899 l 0,0 1.259,2.913 c -1.855,0.919 -3.877,1.378 -6.065,1.378 l 0,0 c -2.079,0 -3.891,-0.445 -5.434,-1.334"
               style="fill:url(#linearGradient8918);stroke:none"
               id="path8930"
               inkscape:connector-curvature="0" />
          </g>
        </g>
      </g>
    </g>
    <g
       transform="matrix(1.25,0,0,-1.25,-779.49973,2414.1046)"
       id="g8932">
      <g
         id="g8934"
         clip-path="url(#clipPath8936)">
        <g
           id="g8940">
          <g
             id="g8942">
            <path
               d="m 709.53,1632.983 c -1.348,-1.475 -2.022,-3.525 -2.022,-6.154 l 0,0 c 0,-1.689 0.313,-3.173 0.938,-4.452 l 0,0 c 0.625,-1.279 1.518,-2.261 2.68,-2.944 l 0,0 c 1.162,-0.684 2.5,-1.026 4.014,-1.026 l 0,0 c 2.421,0 4.311,0.743 5.669,2.226 l 0,0 c 1.357,1.485 2.035,3.551 2.035,6.196 l 0,0 c 0,2.56 -0.683,4.594 -2.05,6.102 l 0,0 c -1.368,1.509 -3.223,2.264 -5.567,2.264 l 0,0 c -2.451,0 -4.349,-0.738 -5.697,-2.212 m 1.523,-6.154 c 0,1.789 0.325,3.161 0.974,4.117 l 0,0 c 0.648,0.957 1.697,1.436 3.142,1.436 l 0,0 c 2.754,0 4.131,-1.851 4.131,-5.553 l 0,0 c 0,-3.74 -1.368,-5.609 -4.102,-5.609 l 0,0 c -2.764,0 -4.145,1.869 -4.145,5.609"
               style="fill:url(#linearGradient22618);stroke:none"
               id="path8956"
               inkscape:connector-curvature="0" />
          </g>
        </g>
      </g>
    </g>
    <g
       transform="matrix(1.25,0,0,-1.25,-779.49973,2414.1046)"
       id="g8958">
      <g
         id="g8960"
         clip-path="url(#clipPath8962)">
        <g
           id="g8966">
          <g
             id="g8968">
            <path
               d="m 726.799,1634.901 0,-16.201 7.735,0 c 2.227,0 3.922,0.412 5.09,1.238 l 0,0 c 1.167,0.825 1.751,2.005 1.751,3.537 l 0,0 c 0,1.026 -0.333,1.86 -0.996,2.505 l 0,0 c -0.665,0.645 -1.621,1.04 -2.871,1.186 l 0,0 0,0.118 c 2.237,0.401 3.354,1.558 3.354,3.471 l 0,0 c 0,2.764 -2.119,4.146 -6.357,4.146 l 0,0 -7.706,0 z m 3.443,-2.608 4.174,0 c 0.997,0 1.746,-0.144 2.249,-0.431 l 0,0 c 0.503,-0.288 0.755,-0.755 0.755,-1.4 l 0,0 c 0,-0.78 -0.298,-1.32 -0.894,-1.617 l 0,0 c -0.596,-0.299 -1.469,-0.447 -2.622,-0.447 l 0,0 -3.662,0 0,3.895 z m 0,-6.459 3.97,0 c 1.21,0 2.119,-0.163 2.724,-0.491 l 0,0 c 0.606,-0.328 0.909,-0.881 0.909,-1.662 l 0,0 c 0,-1.621 -1.181,-2.432 -3.545,-2.432 l 0,0 -4.058,0 0,4.585 z"
               style="fill:url(#linearGradient22620);stroke:none"
               id="path8982"
               inkscape:connector-curvature="0" />
          </g>
        </g>
      </g>
    </g>
    <g
       transform="matrix(1.25,0,0,-1.25,-779.49973,2414.1046)"
       id="g8984">
      <g
         id="g8986"
         clip-path="url(#clipPath8988)">
        <g
           id="g8992">
          <g
             id="g8994">
            <path
               d="m 745.93,1632.923 c -1.317,-1.512 -1.977,-3.593 -1.977,-6.24 l 0,0 c 0,-2.578 0.712,-4.601 2.131,-6.071 l 0,0 c 1.421,-1.47 3.391,-2.205 5.911,-2.205 l 0,0 c 1.104,0 2.084,0.083 2.944,0.249 l 0,0 c 0.86,0.166 1.709,0.449 2.549,0.85 l 0,0 0,2.798 c -0.946,-0.421 -1.834,-0.721 -2.659,-0.901 l 0,0 c -0.824,-0.181 -1.716,-0.271 -2.672,-0.271 l 0,0 c -1.456,0 -2.584,0.422 -3.385,1.267 l 0,0 c -0.8,0.844 -1.226,2.053 -1.275,3.625 l 0,0 10.796,0 0,1.86 c 0,2.277 -0.619,4.063 -1.86,5.362 l 0,0 c -1.239,1.299 -2.928,1.949 -5.068,1.949 l 0,0 c -2.305,0 -4.116,-0.758 -5.435,-2.272 m 2.807,-1.377 c 0.657,0.694 1.534,1.04 2.628,1.04 l 0,0 c 1.094,0 1.953,-0.343 2.579,-1.032 l 0,0 c 0.625,-0.688 0.946,-1.701 0.966,-3.04 l 0,0 -7.353,0 c 0.126,1.329 0.52,2.339 1.18,3.032"
               style="fill:url(#linearGradient22622);stroke:none"
               id="path9008"
               inkscape:connector-curvature="0" />
          </g>
        </g>
      </g>
    </g>
    <g
       transform="matrix(1.25,0,0,-1.25,-779.49973,2414.1046)"
       id="g9010">
      <g
         id="g9012"
         clip-path="url(#clipPath9014)">
        <g
           id="g9018">
          <g
             id="g9020">
            <path
               d="m 760.374,1634.901 0,-2.694 5.274,0 0,-13.507 3.456,0 0,13.507 5.274,0 0,2.694 -14.004,0 z"
               style="fill:url(#linearGradient22624);stroke:none"
               id="path9034"
               inkscape:connector-curvature="0" />
          </g>
        </g>
      </g>
    </g>
    <g
       transform="matrix(1.25,0,0,-1.25,-779.49973,2414.1046)"
       id="g9036">
      <g
         id="g9038"
         clip-path="url(#clipPath9040)">
        <g
           id="g9044">
          <g
             id="g9046">
            <path
               d="m 793.421,1618.7 3.458,0 0,16.201 -3.458,0 0,-16.201 z m -15.924,16.201 0,-16.201 6.724,0 c 2.179,0 3.831,0.422 4.958,1.269 l 0,0 c 1.13,0.843 1.693,2.1 1.693,3.77 l 0,0 c 0,1.563 -0.542,2.735 -1.626,3.516 l 0,0 c -1.084,0.782 -2.759,1.172 -5.025,1.172 l 0,0 -3.281,0 0,6.474 -3.443,0 z m 3.443,-9.067 3.033,0 c 1.123,0 1.985,-0.162 2.585,-0.484 l 0,0 c 0.6,-0.321 0.901,-0.888 0.901,-1.698 l 0,0 c 0,-0.82 -0.308,-1.427 -0.923,-1.817 l 0,0 c -0.615,-0.391 -1.617,-0.586 -3.002,-0.586 l 0,0 -2.594,0 0,4.585 z"
               style="fill:url(#linearGradient22626);stroke:none"
               id="path9060"
               inkscape:connector-curvature="0" />
          </g>
        </g>
      </g>
    </g>
    <g
       transform="matrix(1.25,0,0,-1.25,-779.49973,2414.1046)"
       id="g11214">
      <g
         id="g11216"
         clip-path="url(#clipPath11218)">
        <g
           id="g11222"
           transform="translate(690,1596.5)">
          <path
             d="M 0,0 822.284,0"
             style="fill:none;stroke:url(#linearGradient11224);stroke-width:3;stroke-linecap:butt;stroke-linejoin:miter;stroke-miterlimit:10;stroke-dasharray:none;stroke-opacity:1"
             id="path11236"
             inkscape:connector-curvature="0" />
        </g>
      </g>
    </g>
    <g
       transform="matrix(1.25,0,0,-1.25,-779.49973,2414.1046)"
       id="g11238">
      <g
         id="g11240"
         clip-path="url(#clipPath11242)">
        <g
           id="g11246">
          <g
             id="g11248">
            <path
               d="m 1500.441,1596.5 c 0,-6.228 5.051,-11.279 11.279,-11.279 l 0,0 c 6.23,0 11.279,5.051 11.279,11.279 l 0,0 c 0,6.228 -5.049,11.279 -11.279,11.279 l 0,0 c -6.228,0 -11.279,-5.051 -11.279,-11.279"
               style="fill:url(#linearGradient11250);stroke:none"
               id="path11262"
               inkscape:connector-curvature="0" />
          </g>
        </g>
      </g>
    </g>
  </g>
</svg>
