<?xml version="1.0" encoding="utf-8"?>
<!-- Generator: Adobe Illustrator 22.1.0, SVG Export Plug-In . SVG Version: 6.00 Build 0)  -->
<svg version="1.1" id="Layer_1" xmlns="http://www.w3.org/2000/svg" xmlns:xlink="http://www.w3.org/1999/xlink" x="0px" y="0px"
	 viewBox="0 0 1400 639" style="enable-background:new 0 0 1400 639;" xml:space="preserve">
<style type="text/css">
	.st0{fill:#2C9942;}
</style>
<g>
	<g>
		<g>
			<g>
				<g>
					<path class="st0" d="M34.1,559.1c-3.4-7.3-12.3-14.7-20.7-10.2c-7.1,3.7-9.6,14.6-6.1,21.5c2.8,5.4,9,8,14.8,6.6
						c8.6-2.2,10.8-11,9.7-18.8c0-0.3-0.8-1.5-0.7-0.8c0.9,6.4-0.3,13.6-6.5,17c-4.4,2.5-10.2,2.2-14.2-0.8
						c-7-5.3-4.1-17.9,2.3-22.5c7.7-5.5,17.5,1,20.9,8.3C34.1,560,34.5,559.9,34.1,559.1L34.1,559.1z"/>
				</g>
			</g>
			<g>
				<g>
					<path class="st0" d="M3.4,613.7c1.3,0.8,2.6,1.6,3.9,2.3c0.2,0.1,1.2,0.5,1.2-0.1c-0.1-3.6,0.6-7.8,3.5-10.3
						c6.6-6,12.6,2,12.1,8.5c0,0.5,0.9,0.7,1.3,0.6c3.5-1.4,8.4-0.7,8-4.9c-0.2-2.4-1.8-5.9-0.6-8.3c0.3-2.2,1.9-2.7,4.8-1.7
						c2.6-1.2,5-0.9,7,0.9c1.3,0.8,2.6,1.6,3.9,2.4c0.2,0.1,1,0.4,1.2,0c1-3-4.6-3.4-1.3-0.1c0.3,0.3,1,0.5,1.3,0.1
						c0.9-1.4,2-2.7,2.2-4.3c0.2-2.1-0.8-4-0.5-6.1c1-6.7,7.6-7.1,13.1-6.2c0.1,0,0.6,0.1,0.6-0.2c0.2-3.1,1-5.8,2.5-8.5
						c0.2-0.4-0.8-0.6-1-0.6c-9.1,0.4-5.5-6.7-3.2-9.5c1.5-1.9,3.6-3.4,5.5-4.8c4.1-3,6-3.3,4.1-8.6c-0.2-0.4-0.9-0.6-1.3-0.5
						c-0.7,0.2-1.9,0.3-2.1,1.1c-0.1,0.3,0.6,0.6,0.8,0.6c1,0.2,2.2-0.1,2.6-1.1c0.2-0.4-0.9-0.7-1.1-0.6c-3.7,1-9.2,1.7-11.5-2.1
						c-2.3-3.9,0.5-7.9,3.7-10.1c2.9-2,3.8-3.7,0.5-6.3c-2.4-1.9-5.4-2.2-8.3-2.4c-3.9-0.4-11.1-0.9-9.5-6.6c0.7-2.7,2.9-5,4.7-7.2
						c0.2-0.2-0.2-0.5-0.4-0.6c-4.4-2.2-7.5-4.9-11.8-1.3c-2.4,2-4.8,6.1-9.1,2.6c-1.1-0.9-1.6-2.4-2-3.6c-0.7-2.7-0.3-5.7,0.8-8.3
						c0.1-0.3-0.4-0.5-0.6-0.6c-4.6-1.3-9.3-1.4-14-1.4c-1,0,0,0.8,0.5,0.8c2.3,0,4.6,0,6.9,0.2c2-0.1,3.8,0.3,5.4,1.4
						c-0.2,0.4-0.3,0.9-0.4,1.3c0.2,2.2-0.6,4.1-0.1,6.3c0.7,2.7,2.4,4.9,5.2,5.6c6.5,1.5,9.2-8.3,15.9-3.9c2.8,1.8,0.5,2.7-0.9,5
						c-1.1,1.6-2.3,3.7-1.9,5.8c0.7,3.5,5,4.6,8.1,4.9c3.1,0.4,10.9-0.2,11.8,3.7c0.7,3-4.4,5.2-5.7,7.5c-5.4,9.6,7.1,11.7,13.5,10
						c-0.4-0.2-0.8-0.4-1.1-0.6c-0.4,1.3,0.1,1.4,1.3,0.6c-0.4-0.2-0.9-0.3-1.3-0.5c1,2.7,0.9,4.1-1.3,6.2c-1.3,1.2-2.9,2.1-4.3,3.2
						c-2.5,2-5.1,4.3-6.2,7.4c-1.7,4.8,3,7.4,7.3,7.2c-0.3-0.2-0.7-0.4-1-0.6c-1,1.8-1.5,3.6-2.1,5.6c-0.7,2.3,0,2.1-2.2,2.5
						c-2.6,0.4-5-0.4-7.5,0.7c-2.7,1.1-4.2,3.3-4.5,6.2c-0.2,1.7,0.3,3.1,0.4,4.7c0.2,2.6-0.7,3.7-2,5.7c0.4,0,0.9,0.1,1.3,0.1
						c-0.4,0-0.9-0.1-1.3-0.1c0.4,0,0.8,0,1.2,0c-4.1-2.5-10.6-7.7-15.7-4.8c-2.6,1.5-2.7,4.6-2.4,7.4c0.2,2.1,1.5,4.9-0.4,6.5
						c-1.3,1.2-4.9,1.5-6.6,2.2c0.4,0.2,0.9,0.4,1.3,0.6c0.4-5.6-2.4-11.3-8.6-11.7c-7.2-0.4-10.1,6.7-9.9,12.9c0.4,0,0.8,0,1.2-0.1
						c-1.3-0.7-2.6-1.5-3.9-2.3C3.9,613,2.6,613.2,3.4,613.7L3.4,613.7z"/>
				</g>
			</g>
			<g>
				<g>
					<path class="st0" d="M14.5,507.6c-1.1,4.4-5.2,11.2-10.4,7.2c-0.4-0.3-1.8-0.1-1.1,0.4c6.1,4.7,11.5-1.4,13.1-7.4
						C16.1,507.3,14.7,507,14.5,507.6L14.5,507.6z"/>
				</g>
			</g>
		</g>
		<g>
			<g>
				<path class="st0" d="M80.8,516.5c-1.6,2.4-3.1,4.7-5.1,6.8c-0.3,0.3,0.3,1.2,0.6,1.3c5.4,1.8,9.3,7.6,7.1,13.3
					c-1.5,3.8-5.2,5.2-9,5.7c-0.2,0,0.3,1.3,0.6,1.3c3.3,0.4,4.9,1.5,6.4,4.6c0.1,0.1,0.3,0.6,0.5,0.6c3.5-1,5.1-1.1,7.1,2.1
					c1.8,2.9,1.6,4.5,0.3,7.6c-0.1,0.3,0.3,1.2,0.7,1.3c2.2,0.7,4.5,1.1,6.7,1.7c0.1,0,0.1-0.1,0.1-0.1c1-9.5,10.9-4.7,13.2,1.5
					c0,0.1,0.4,1.1,0.7,0.9c3.4-2.3,4.9-5.3,7.3-8.4c3.4-4.4,8.2-2.4,12.6-0.5c0.1,0,0.1,0,0.1-0.1c0.5-1.8,0.8-3.7,1.3-5.6
					c0.1-0.3-0.3-1.2-0.7-1.3c-3.2-0.8-6.9-2.4-5.8-6.3c0.5-1.9,2.1-3.5,3.5-4.8c2.5-2.4,5.5-4.4,8.7-5.6c0.1,0,0-0.4,0-0.4
					c-1.2-3.6-3.3-6-7.1-6.8c-1.8-0.4-4-0.2-5.7-1c-4.2-2-0.8-8.6,0.5-11.7c0.1-0.4-0.4-1.1-0.7-1.3c-1.5-0.7-4.1-3.3-5.8-3.4
					c-1.6-0.1-1.3,0.9-2.2,2.2c-3.7,5.8-14.2,6.1-15-2.8c0-0.3-0.3-1.2-0.7-1.2c-2.4,0-4.8,0-7.1,0.8c-0.1,0,0,0.2,0,0.3
					c2.1,9.4-5.5,14-13.7,10.2c-0.1-0.1,0.2,1.2,0.6,1.3c5.3,2.5,12.6,2,14.1-4.8c0.7-3.2-1.2-6,3.1-6.4c3.9-0.4,2.7,0.7,4.2,3.5
					c1.8,3.3,5.3,5.1,9,4.5c2.7-0.4,4.7-2,6.2-4.2c1.5-2.1,1.6-2.2,4.1-0.9c1.2,0.7,2.4,1.5,3.7,2.1c-0.2-0.4-0.4-0.9-0.7-1.3
					c-1.4,3.4-4.4,9.5-1.2,12.9c2.6,2.8,7.3,1.3,10.3,3.1c1.2,0.7,3.8,1.9,2.5,3.9c-0.2,0.4-1.5,0.7-1.9,0.9c-1.6,0.8-3.1,1.9-4.5,3
					c-2.2,1.8-4.7,4.2-5.4,7c-1.1,4.8,3.5,7.1,7.4,8.1c-0.2-0.4-0.4-0.9-0.7-1.3c-0.3,1.1-0.3,2.8-0.8,3.7c-0.7,1.1-0.3,1.2-2,1.1
					c-0.8,0-1.9-0.7-2.7-1c-2.1-0.6-4.4-1.1-6.3,0.1c-1.4,0.8-2.3,2.4-3.1,3.8c-1.8,2.7-3.5,4.9-6.2,6.7c0.2,0.3,0.5,0.6,0.7,0.9
					c-1.4-3.8-4.7-7.8-8.8-8.8c-2-0.5-3.8,0-4.9,1.9c-0.8,1.4-0.4,3-2,3.4c-1.2,0.3-4.4-1.1-5.6-1.4c0.2,0.4,0.4,0.9,0.7,1.3
					c1.6-3.8,1.9-9.6-2.2-12.1c-1.3-0.8-2.6-0.8-4-0.8c-2.2,0-1.7,0.5-3.2-0.9c-2.2-2.2-2.7-3.2-6.3-3.6c0.2,0.4,0.4,0.9,0.6,1.3
					c13.4-1.6,11.6-17.9,0.6-21.7c0.2,0.4,0.4,0.9,0.6,1.3c2-2.1,3.6-4.5,5.2-6.9C81.8,517.4,81,516.3,80.8,516.5L80.8,516.5z"/>
			</g>
		</g>
	</g>
	<g>
		<g>
			<g>
				<path class="st0" d="M104.1,309.3c13.2-9.1,24-21.1,36.4-31.3c0.4-0.4-0.4-1.6-0.8-1.3c-12.3,10.2-23.2,22.2-36.4,31.3
					C102.9,308.3,103.7,309.6,104.1,309.3L104.1,309.3z"/>
			</g>
		</g>
		<g>
			<g>
				<path class="st0" d="M140.7,275.8c-4.9,0.8-12.2,1.1-15.8,5.1c-0.3,0.3-0.2,0.9,0.3,0.9c4.1,0.7,7.9,3.7,11.3,6
					c0.4,0.3,1.1-0.1,1.2-0.6c0.8-3.6,2.5-6.9,4.4-10.1c0.5-0.8-0.9-1-1.3-0.3c-2,3.3-3.7,6.6-4.5,10.4c0.4-0.2,0.8-0.4,1.2-0.6
					c-3.5-2.4-7.3-5.4-11.6-6.1c0.1,0.3,0.2,0.6,0.3,0.9c3.2-3.5,10.4-3.8,14.8-4.5C141.7,276.9,141.6,275.6,140.7,275.8
					L140.7,275.8z"/>
			</g>
		</g>
	</g>
	<g>
		<g>
			<g>
				<path class="st0" d="M1149.4,381.3c0.4-1,1-1.9,1.1-3.1c0-0.3-1.3-0.6-1.3-0.7c-0.1,1.2-0.7,2-1.1,3.1
					C1148,380.7,1149.4,381.4,1149.4,381.3L1149.4,381.3z"/>
			</g>
		</g>
		<g>
			<g>
				<path class="st0" d="M1157,364c0.8-1.1,1.7-2.2,1.7-3.6c0-0.9-1.4-0.6-1.4,0.1c0,1.2-0.7,2.1-1.5,3
					C1155.3,364.3,1156.5,364.7,1157,364L1157,364z"/>
			</g>
		</g>
		<g>
			<g>
				<path class="st0" d="M1173.1,346.3c1.6-0.8,3.1-1.6,4.4-2.8c0.1-0.1-0.8-1.3-0.9-1.2c-1.3,1.2-2.8,2-4.4,2.8
					C1172.2,345.1,1172.9,346.4,1173.1,346.3L1173.1,346.3z"/>
			</g>
		</g>
		<g>
			<g>
				<path class="st0" d="M1193.5,335c1.7-1.4,3.5-2.9,5.7-3.4c0.8-0.2-0.3-1-0.8-0.9c-2.4,0.6-4.3,2.1-6.2,3.6
					C1191.8,334.7,1193.1,335.3,1193.5,335L1193.5,335z"/>
			</g>
		</g>
		<g>
			<g>
				<path class="st0" d="M1213.4,327.9c2.5-0.6,5-1.1,7.6-1.2c1,0,0.5-1.1-0.3-1.1c-2.7,0-5.3,0.6-7.9,1.2
					C1211.8,327.2,1212.7,328.1,1213.4,327.9L1213.4,327.9z"/>
			</g>
		</g>
		<g>
			<g>
				<path class="st0" d="M1237.7,323.9c2.6,1.3,5.2,1.3,7.9,0.1c0.1,0-0.7-1.2-1-1.1c-2.6,1.2-5.1,1.1-7.6-0.1
					C1236.7,322.7,1237.4,323.8,1237.7,323.9L1237.7,323.9z"/>
			</g>
		</g>
		<g>
			<g>
				<path class="st0" d="M1257.3,324.7c2.6,0.8,5.2,0.7,7.8,0.1c0.1,0-0.6-1.2-1-1.1c-2.6,0.6-5.1,0.7-7.7-0.1
					C1256.4,323.5,1256.9,324.6,1257.3,324.7L1257.3,324.7z"/>
			</g>
		</g>
		<g>
			<g>
				<path class="st0" d="M1280,325.6c2.4,0.8,5,0.9,7.5,0.4c0.6-0.1-0.5-1-1-0.9c-2.3,0.4-4.6,0.4-6.9-0.3
					C1278.7,324.5,1279.5,325.5,1280,325.6L1280,325.6z"/>
			</g>
		</g>
		<g>
			<g>
				<path class="st0" d="M1309.5,318.8c2.1,0.2,4.2-0.1,6.4-0.4c0.7-0.1,1.2-1,0.2-0.9c-2,0.3-4,0.7-6,0.4
					C1309.4,317.9,1308.5,318.7,1309.5,318.8L1309.5,318.8z"/>
			</g>
		</g>
		<g>
			<g>
				<path class="st0" d="M1328.1,311.8c4.3-0.7,7.7-3.3,10.5-6.4c0.6-0.6-0.9-0.5-1.2-0.1c-2.5,2.8-5.4,5.1-9.2,5.7
					C1327.4,311.1,1327.1,312,1328.1,311.8L1328.1,311.8z"/>
			</g>
		</g>
		<g>
			<g>
				<path class="st0" d="M1346.4,298.1c3.7-1.9,5.9-5.5,7.9-9c0.3-0.4-1.1-1.1-1.4-0.6c-2,3.4-4.1,6.9-7.8,8.8
					C1344.7,297.6,1345.9,298.4,1346.4,298.1L1346.4,298.1z"/>
			</g>
		</g>
		<g>
			<g>
				<path class="st0" d="M1358,281c1.6-3.3,1.8-7,1.9-10.7c0-0.6-1.5-0.7-1.5,0c-0.1,3.6-0.2,7.2-1.8,10.4
					C1356.2,281.3,1357.7,281.5,1358,281L1358,281z"/>
			</g>
		</g>
		<g>
			<g>
				<path class="st0" d="M1349,271.8c2.6-4.5,4.8-9.1,5.5-14.3c-0.4-0.1-0.8-0.2-1.2-0.4c3.7,4.1,8.9,5.3,14.1,6.7
					c0.9,0.2,0-0.7-0.4-0.8c-4.5-1.2-9.2-2.1-12.5-5.7c-0.1-0.2-1.2-0.9-1.2-0.4c-0.7,5.1-2.9,9.7-5.5,14.1
					C1347.5,271.4,1348.8,272.2,1349,271.8L1349,271.8z"/>
			</g>
		</g>
		<g>
			<g>
				<path class="st0" d="M1344.2,257.9c0.8-1.9,1.4-3.8,1.8-5.8c0.3-1.2,0.2-5.1,1.3-5.7c0.5-0.3,4.1,1.5,4.9,1.7
					c2.1,0.6,4.2,1.1,6.3,1.5c0.8,0.2,0.1-1-0.4-1.1c-4-0.8-8-1.9-11.8-3.6c-0.2-0.1-0.5-0.1-0.6,0.1c-0.4,4.1-1.2,8.2-2.8,12
					C1342.7,257.6,1343.9,258.5,1344.2,257.9L1344.2,257.9z"/>
			</g>
		</g>
	</g>
	<g>
		<g>
			<g>
				<path class="st0" d="M176.3,71.8c1.4,2.1,3.3,3.9,5.1,5.7c0.5,0.5,1.8,0,1.2-0.7c-1.7-1.7-3.5-3.4-4.8-5.4
					C177.2,70.9,175.8,71.1,176.3,71.8L176.3,71.8z"/>
			</g>
		</g>
		<g>
			<g>
				<path class="st0" d="M189.3,86.1c1.9,1.3,3.6,3,5.6,4.3c0.4,0.3,1.8-0.1,1.3-0.4c-1.9-1.3-3.6-3-5.6-4.3
					C190.2,85.4,188.8,85.7,189.3,86.1L189.3,86.1z"/>
			</g>
		</g>
		<g>
			<g>
				<path class="st0" d="M179,85.9c-1.9,1.3-3.5,3.2-5,5c-0.4,0.4,0.5,1.6,1,1.1c1.4-1.7,3-3.6,4.9-4.9
					C180.3,86.8,179.5,85.5,179,85.9L179,85.9z"/>
			</g>
		</g>
		<g>
			<g>
				<path class="st0" d="M195.5,71.3c-2,2-4.3,3.8-5.7,6.3c-0.4,0.7,1.1,1.1,1.4,0.5c1.3-2.5,3.5-4.1,5.5-6.1
					C197.4,71.4,196.1,70.8,195.5,71.3L195.5,71.3z"/>
			</g>
		</g>
	</g>
	<g>
		<g>
			<g>
				<path class="st0" d="M612.7,90.4c-2.4-0.5-5,0.5-5.4,3.2c-0.3,2.6,1.5,5.5,4.1,6.2c3.8,1,7.9-2.2,7.5-6.2
					c-0.3-3.2-3.4-4.8-6.1-5.6c-0.2-0.1-1.7,0-1.1,0.2c2.5,0.7,5.1,2.2,5.6,5c0.3,1.8-0.4,3.7-1.7,5c-1.6,1.6-3.6,2-5.2,0.2
					c-1.1-1.2-1.8-2.8-1.7-4.5c0.1-1.4,1.4-3.6,3.1-3.2C612.2,90.7,613.6,90.6,612.7,90.4L612.7,90.4z"/>
			</g>
		</g>
	</g>
	<g>
		<g>
			<g>
				<path class="st0" d="M67.1,149.9c-2.5-0.5-5,1.2-5.3,3.8c-0.4,2.6,1.4,5.7,4,6.4c3.9,1.1,7.8-3.1,7.5-6.9
					c-0.3-3.3-3.3-5-6.2-5.8c-0.6-0.2-1.6,0.9-0.8,1.1c2.4,0.7,5,2.1,5.6,4.7c0.4,1.8-0.4,3.8-1.8,5s-3.3,1.3-4.8,0.1
					c-1.2-0.9-2-2.4-2.1-3.9c-0.2-1.9,1-3.8,3.2-3.4C66.8,151.1,67.8,150,67.1,149.9L67.1,149.9z"/>
			</g>
		</g>
	</g>
	<g>
		<g>
			<g>
				<path class="st0" d="M1225.4,85.1c5.4,22.7,0.7,45.9,3.7,68.8c0.1,0.6,1.6,0.4,1.5-0.2c-3-22.9,1.7-46.1-3.7-68.8
					C1226.8,84.3,1225.3,84.5,1225.4,85.1L1225.4,85.1z"/>
			</g>
		</g>
		<g>
			<g>
				<path class="st0" d="M1227.7,90.9c9-2.1,19.1,1.7,23.3,10.2c2.7,5.5,2.4,13-2.6,17.1c-8.4,7-22,3.8-32,3.7
					c-0.3,0-1.4,0.6-1.2,0.6c10.8,0.1,24.3,2.9,33.7-4.1c6-4.5,6.4-12.9,2.8-19c-4.8-8.1-14.7-11.1-23.5-9
					C1228,90.4,1226.8,91.1,1227.7,90.9L1227.7,90.9z"/>
			</g>
		</g>
		<g>
			<g>
				<path class="st0" d="M1216.3,137.7c8.7-0.9,17.4-0.9,26-0.9c0.5,0-0.2-1.3-0.7-1.3c-8.7,0-17.4,0-26,0.9
					C1215.1,136.5,1215.8,137.8,1216.3,137.7L1216.3,137.7z"/>
			</g>
		</g>
	</g>
	<g>
		<g>
			<g>
				<path class="st0" d="M247.1,513.9c-0.7,1.6-1.5,3.7-3.1,4.5c-0.4,0.2,0.7,1.2,1,1c1.8-0.9,2.5-2.9,3.3-4.6
					C248.4,514.4,247.2,513.5,247.1,513.9L247.1,513.9z"/>
			</g>
		</g>
		<g>
			<g>
				<path class="st0" d="M234.3,524.5c-1.6,1.3-3.1,2-5.1,2.2c-0.9,0.1-0.8,0.7,0.1,0.6c2.5-0.3,4.5-1.2,6.4-2.7
					C236,524.3,234.6,524.3,234.3,524.5L234.3,524.5z"/>
			</g>
		</g>
		<g>
			<g>
				<path class="st0" d="M215.7,525.1c-1.8,0.2-3.7,0.8-5.5,0.2c-0.9-0.3-1.4,0.9-0.5,1.2c2.1,0.7,4.1,0.1,6.3-0.1
					C217,526.3,216.6,525,215.7,525.1L215.7,525.1z"/>
			</g>
		</g>
		<g>
			<g>
				<path class="st0" d="M198.9,517.9c-1-0.4-1.5-1.6-2.6-2c-0.3-0.1-0.7,0.1-0.9,0.3c-0.1,0.1-0.5,0.6-0.2,0.7c1,0.4,1.5,1.6,2.6,2
					c0.3,0.1,0.7-0.1,0.9-0.3C198.9,518.5,199.2,518,198.9,517.9L198.9,517.9z"/>
			</g>
		</g>
		<g>
			<g>
				<path class="st0" d="M190.4,493.3c-0.2-2.4,1.2-5.2,3-6.7c0.5-0.4-0.8,0.2-1,0.4c-2,1.6-3.4,4.5-3.2,7.1
					C189.1,494.1,190.4,493.7,190.4,493.3L190.4,493.3z"/>
			</g>
		</g>
		<g>
			<g>
				<path class="st0" d="M201.5,474.4c1.2-0.6,2.1-1.7,3.3-2.2c0.6-0.3-0.4-1.4-0.9-1.1c-1.2,0.6-2.1,1.7-3.3,2.2
					C200,473.5,201,474.6,201.5,474.4L201.5,474.4z"/>
			</g>
		</g>
		<g>
			<g>
				<path class="st0" d="M193.3,510c-0.2-2.6-1.7-4.8-1.9-7.5c0-0.6-1.5-0.3-1.5,0.4c0.2,2.6,1.7,4.8,1.9,7.5
					C191.9,511,193.4,510.7,193.3,510L193.3,510z"/>
			</g>
		</g>
	</g>
	<g>
		<g>
			<g>
				<path class="st0" d="M539.3,510.3c12.6-9.5,25.4-18.6,38.6-27.2c0.8-0.5-0.5-1-0.9-0.8c-10.6,4.2-21,9-31.9,12.6
					c-0.8,0.3-0.6,1.1,0.3,1c13-1.4,24.8-8.4,35-16.2c-0.4-0.2-0.8-0.4-1.2-0.6c-7.5,7.7-14.2,16.5-18,26.7c0.5,0,1,0,1.5,0.1
					c0.3-8.5-8.4-11.8-15.7-11.1c-0.9,0.1-0.9,1.2,0.1,1.1c6.7-0.7,14.4,2.3,14.2,10.1c0,0.7,1.3,0.6,1.5,0.1
					c3.8-10.1,10.5-18.8,17.9-26.4c0.6-0.6-0.8-0.9-1.2-0.6c-9.9,7.5-21.4,14.5-34,15.8c0.1,0.3,0.2,0.7,0.3,1
					c11-3.6,21.5-8.4,32.3-12.7c-0.3-0.3-0.6-0.5-0.9-0.8c-13.2,8.6-26,17.7-38.6,27.2C537.5,510.1,538.8,510.7,539.3,510.3
					L539.3,510.3z"/>
			</g>
		</g>
		<g>
			<g>
				<path class="st0" d="M505.5,537.3c6.5-5.4,13-10.6,19.6-15.9c0.5-0.4-0.5-1.5-1.1-1c-6.6,5.2-13.1,10.5-19.6,15.9
					C503.9,536.7,504.9,537.7,505.5,537.3L505.5,537.3z"/>
			</g>
		</g>
		<g>
			<g>
				<path class="st0" d="M457,557.6c2.8-2.1,5.6-4.1,8.6-5.8c1.6-0.9,4-2.8,5.8-3c2.7-0.4,2.5,0.7,2.1,2.8
					c-0.8,4.7-1.8,9.4-2.5,14.1c0,0.2,1.1-0.4,1.1-0.5c7-6.2,14.1-12.4,21.2-18.4c0.5-0.4-0.8,0.2-1,0.4c-6,5.1-11.9,10.2-17.8,15.4
					c-1.7,1.5-1.8,2.6-1.9,0.1c-0.1-1.6,0.6-3.4,0.9-5c0.7-3.6,1.4-7.2,1.9-10.8c0-0.1-0.2,0-0.2,0c-6.9,2.7-13,6.6-19,11
					C455.4,558.3,456.7,557.8,457,557.6L457,557.6z"/>
			</g>
		</g>
		<g>
			<g>
				<path class="st0" d="M415.5,594.3c12-8.7,22.2-19.6,33.3-29.4c0.4-0.4-0.9-1-1.3-0.6c-11.1,9.7-21.2,20.6-33.1,29.2
					C413.7,593.9,415,594.6,415.5,594.3L415.5,594.3z"/>
			</g>
		</g>
	</g>
	<g>
		<g>
			<g>
				<path class="st0" d="M1157,212.2c0,10.6,0,21.3,1.9,31.7c0.1,0.7,1.3,1,1.1,0.1c-1.8-10.4-1.8-20.9-1.8-31.4
					C1158.2,212,1157,211.3,1157,212.2L1157,212.2z"/>
			</g>
		</g>
		<g>
			<g>
				<path class="st0" d="M1143,228c9.9-1,19.8,1,29.7-0.6c0.9-0.1,0.5-1.6-0.4-1.4c-9.9,1.6-19.8-0.4-29.7,0.6
					C1141.7,226.6,1142.1,228.1,1143,228L1143,228z"/>
			</g>
		</g>
	</g>
	<g>
		<g>
			<g>
				<path class="st0" d="M1217.3,487c-0.9,18.7,0.8,37.5,4.7,55.8c3.1,14.7,7.5,30.4,18.1,41.6c4,4.2,9.7,9,16,8.5
					c5.3-0.4,9.3-4.7,12.2-8.9c9.3-13.2,14.8-29.8,18.7-45.3c4.7-19.1,6.7-38.7,6.8-58.4c0-0.7-1.2-1.3-1.2-0.4
					c-0.1,31.1-4.8,63.4-18.8,91.5c-2.8,5.7-5.8,11.8-10.4,16.2c-6.6,6.3-14.3,3.4-20.4-2.2c-11.3-10.4-16.1-26.4-19.2-41
					c-4-18.7-5.9-38-5-57.2C1218.6,486.7,1217.4,486.1,1217.3,487L1217.3,487z"/>
			</g>
		</g>
		<g>
			<g>
				<path class="st0" d="M1252.7,494.4c0,3.5,0,7,0,10.5c0,0.2,1.4,0,1.4-0.4c0-3.5,0-7,0-10.5
					C1254.2,493.8,1252.7,494,1252.7,494.4L1252.7,494.4z"/>
			</g>
		</g>
		<g>
			<g>
				<path class="st0" d="M1253.9,516.8c0,4.2,0,8.5-0.6,12.7c-0.1,0.7,1.3,1.3,1.4,0.5c0.6-4.3,0.6-8.6,0.6-13
					C1255.3,516.3,1253.9,515.9,1253.9,516.8L1253.9,516.8z"/>
			</g>
		</g>
		<g>
			<g>
				<path class="st0" d="M1253,544.4c0.2,0,1.6-0.4,1-0.4C1253.7,544,1252.3,544.4,1253,544.4L1253,544.4z"/>
			</g>
		</g>
		<g>
			<g>
				<path class="st0" d="M1252.7,544.1c0.6,3.4,1.2,7,0,10.4c-0.1,0.4,1.3,0.8,1.5,0.4c1.2-3.4,0.6-7.1,0-10.6
					C1254.1,543.9,1252.6,543.6,1252.7,544.1L1252.7,544.1z"/>
			</g>
		</g>
		<g>
			<g>
				<path class="st0" d="M1252.7,567.4c0,3.1,0,6.2,0,9.3c0,0.6,1.5,0.9,1.5,0.3c0-3.1,0-6.2,0-9.3
					C1254.2,567,1252.7,566.8,1252.7,567.4L1252.7,567.4z"/>
			</g>
		</g>
		<g>
			<g>
				<path class="st0" d="M1253.3,586.8c0,5,0,10.1,0,15.1c0,0.6,1.5,0.3,1.5-0.2c0-5,0-10.1,0-15.1
					C1254.8,586,1253.3,586.3,1253.3,586.8L1253.3,586.8z"/>
			</g>
		</g>
		<g>
			<g>
				<path class="st0" d="M1188.6,589.7c42.6-2.2,85.8,8.2,128.1-0.6c0,0-0.5-1.2-0.8-1.3c-6.7-1.2-13.4-2.3-19.8-4.6
					c0.2,0.4,0.5,0.9,0.7,1.3c7.4,1.2,14.7,2.2,22.1,2.3c-0.3-0.4-0.5-0.9-0.8-1.3c-5.8,4.1-11.6,8.2-17.5,12.2
					c-0.1,0.1,0.7,1.3,0.8,1.3c5.8-4.1,11.6-8.2,17.5-12.2c0.1-0.1-0.6-1.3-0.8-1.3c-7.5-0.1-14.8-1.1-22.1-2.3
					c0.2,0,0.4,1.2,0.7,1.3c6.4,2.4,13.1,3.5,19.8,4.7c-0.3-0.4-0.5-0.9-0.8-1.3c-42.3,8.8-85.4-1.6-128.1,0.6
					C1188,588.4,1188.3,589.7,1188.6,589.7L1188.6,589.7z"/>
			</g>
		</g>
	</g>
</g>
</svg>
