<?xml version="1.0" encoding="utf-8"?>
<!-- Generator: Adobe Illustrator 22.1.0, SVG Export Plug-In . SVG Version: 6.00 Build 0)  -->
<svg version="1.1" id="Layer_1" xmlns="http://www.w3.org/2000/svg" xmlns:xlink="http://www.w3.org/1999/xlink" x="0px" y="0px"
	 viewBox="0 0 1400 639" style="enable-background:new 0 0 1400 639;" xml:space="preserve">
<style type="text/css">
	.st0{fill:#2C9942;}
</style>
<g>
	<g>
		<g>
			<g>
				<path class="st0" d="M34.6,526.9c-3.6-7.7-12.8-14-21.2-9.6c-7.2,3.8-10.6,15.5-6,22.4c3.4,5.1,10.3,6.5,15.8,4.4
					c7.9-2.9,10-11.1,8.9-18.7c-0.1-0.4-1.5,0.1-1.4,0.6c0.9,6.8-0.5,14.8-7.7,17.5c-5,1.9-11.2,0.1-14.3-4.4
					c-3.7-5.5-2-14.5,2.3-19.1c7.5-8,18.4-0.2,22.1,7.5C33.4,527.9,34.7,527.3,34.6,526.9L34.6,526.9z"/>
			</g>
			<g>
				<path class="st0" d="M73,522c0-0.4-0.8-0.3-1-0.2c-4.4,1.1-12,1.4-12.5-4.8c-0.4-4.6,4-7.9,7.5-9.8c0.1,0,0.2-0.2,0.2-0.3
					c-1.4-5.3-7.6-5.8-12.1-6.5c-2.4-0.4-6.5-0.4-8.1-2.7c-2.3-3.4,2.6-8.7,4.4-11c0.2-0.2,0-0.3-0.2-0.4c-3.2-1.4-6.4-4.4-9.9-2.4
					c-1,0.6-1.7,1.5-2.6,2.2c-3.2,2.4-7.6,3.3-9.9-0.3c-2-3.1-1.1-7.1,0.1-10.2c0.1-0.2-0.1-0.3-0.2-0.3c-4.5-1.4-9.4-1.3-14-1.4
					c-0.7,0-1.3,0.7-0.3,0.7c3.2,0.1,8-0.6,10.9,0.7c2.5,1.1,1.2,2.5,0.9,4.7c-0.2,1.6-0.1,3.2,0.5,4.8c1.6,4.2,6.6,5.9,10.5,3.7
					c1.2-0.7,2.1-1.9,3.3-2.7c2.5-1.7,5.8-2,8.1,0.3c1.4,1.4,0.6,1.4-0.8,3.5c-0.7,1.1-1.5,2.2-2,3.4c-1.3,2.9-0.9,5.3,2.1,6.7
					c3.9,1.7,8.4,1.3,12.4,2.6c1.4,0.4,5.5,2.1,5.3,4.3c-0.1,1.2-2.8,2.3-3.7,3c-1.2,1.1-2.4,2.3-3.1,3.8c-2.2,4.6,0.6,8.7,5.4,9.7
					c1.5,0.3,6-0.8,6.9-0.3c0.6,0.4,1.1,3.6,0.6,4.6c-0.4,0.9-0.7,0.6-1.7,1.3c-3.9,2.7-11,7-10.9,12.6c0,2.3,1.6,3.4,3.7,4.1
					c2,0.6,2.2-0.4,2.6,1.5c0.1,0.6-1.1,2.6-1.2,3.3c-0.3,1.1-0.4,2.2-0.5,3.3c-4-0.5-8.8-0.7-11.8,2.3c-1.5,1.5-2.1,3.5-2.1,5.6
					c-0.1,2.1,1.1,4.6,0.4,6.7c-0.3,0.7-0.8,1.3-1.3,2c-3.6-2.7-10.4-6.3-14.5-4.4c-3,1.4-3.3,4.8-3.1,7.7c0.2,2.1,1.5,5-0.1,6.4
					c-0.9,0.8-3.6,1.3-5.5,1.8c0.3-5.6-2.8-11-9.1-10.8c-6.5,0.3-9.3,6.1-9.5,11.9c-1.6-1-3.3-2.1-5.1-2.8c-0.4-0.2-0.9-0.3-1.3-0.3
					c0,0.3,0.1,0.7,0.1,1c2.3,0.8,4.4,2.4,6.4,3.5c0.3,0.2,1.4,0.2,1.4-0.4c-0.2-5.3,2.2-13.1,9.1-12.1c5.3,0.8,6.9,6.2,6.5,10.7
					c0,0.4,1,0.2,1.2,0.2c2.5-1.1,5.1-1.8,7.8-2.4c0.2,0,0.5-0.2,0.5-0.4c-0.2-1.8-0.5-3.6-0.7-5.4c-0.1-1.1-0.3-2.3-0.2-3.5
					c0.2-2.7,0.5-2.9,3.3-3.8c4.3-1.4,9,1.2,12.5,4c0.3,0.3,1.1,0.1,1.3-0.3c0.6-1.1,2.1-2.3,2.4-3.6c0.4-1.5-0.8-3.8-0.9-5.5
					c-0.1-7.4,6.9-8.3,12.9-7.4c0.3,0,1.1,0,1.1-0.5c0.2-3.2,1-5.7,2.5-8.5c0.2-0.3-0.4-0.4-0.6-0.4c-14-0.7-0.6-14.7,5.8-16.7
					c0.2-0.1,0.5-0.2,0.5-0.4C73.1,526,73.1,524,73,522z"/>
				<path class="st0" d="M-1,478.8c0.1-0.1,0.2-0.1,0.3-0.2c5.2,9.2,13.8,7.2,16.6-2.9c0.1-0.5-1.3-0.5-1.5,0
					c-0.7,2.5-1.9,6.6-4.5,7.6c-4.8,2-7.7-2.1-9.5-5.7c-0.2-0.4-1-0.2-1.3,0c0,0-0.1,0.1-0.1,0.1V478.8z"/>
			</g>
		</g>
		<g>
			<path class="st0" d="M80.5,484.8c-1.6,2.4-3.1,4.7-5,6.7c-0.2,0.2-0.5,0.8,0,1c10,3.4,11.2,17.7-0.8,19.1
				c-0.6,0.1-1.3,1.2-0.3,1.3c3.5,0.4,5,1.8,6.5,4.9c0.1,0.3,0.5,0.3,0.8,0.3c7.7-2.3,9.8,4.3,7.3,10.2c-0.1,0.4,0.1,0.7,0.4,0.8
				c2.2,0.7,4.5,1.1,6.7,1.7c0.4,0.1,0.9-0.3,1-0.7c1-9.9,10.7-2.3,12.5,2.7c0.1,0.3,0.7,0.3,1,0.2c2.8-1.9,4.7-4.2,6.6-7.1
				c0.8-1.3,1.6-2.9,3.1-3.6c2.9-1.5,7,0.7,9.6,1.8c0.4,0.2,1,0,1.1-0.5c0.5-1.8,0.8-3.7,1.3-5.6c0.1-0.4,0-0.7-0.4-0.8
				c-5.8-1.5-8.2-5.1-4-10.1c2.5-2.9,6-5.4,9.6-6.7c0.3-0.1,0.7-0.4,0.6-0.8c-1.4-4.2-4.2-5.9-8.4-6.6c-1.7-0.3-4.2-0.2-5.5-1.5
				c-2.7-2.6,0.5-8.8,1.6-11.4c0.1-0.3,0-0.6-0.3-0.7c-2.5-1.2-5.4-4.8-8-2.8c-1.1,0.9-1.5,2.9-2.8,4c-1.7,1.4-4,2-6.2,1.7
				c-4.1-0.6-6.1-3.8-6.4-7.7c0-0.3-0.4-0.4-0.6-0.4c-2.4,0-4.9,0.1-7.2,0.9c-0.3,0.1-0.7,0.4-0.6,0.8c1.9,8.7-4.7,13.3-12.7,9.7
				c-0.7-0.3-1.7,0.8-0.8,1.2c7.3,3.4,15.5,0.6,15.4-8.3c0-0.5-0.5-2-0.1-2.4c0.2-0.3,4.3-0.8,4.8-0.5c1.1,0.8,1.3,3.6,2.2,4.8
				c1.9,2.6,5.3,3.7,8.5,3.2c3-0.5,5.2-2.2,7-4.6c0.5-0.7,0.5-1.5,1.3-1.6c0.7-0.1,2.3,1.4,2.9,1.8c1.3,0.8,1.7,0.7,1.7,2.2
				c0,1.1-1,2.8-1.3,3.9c-1.6,5.8,0.2,8.1,5.8,8.9c2.2,0.3,8.5,1.4,8.1,4.8c-0.1,1.1-7,4.8-8.5,6.3c-1.9,1.9-4,4.5-3.8,7.3
				c0.1,1.3,0.7,2.4,1.6,3.3c1.1,1.1,4,1.3,4.7,2.2c0.4,0.6,0.3,0.5,0.1,1.7c-0.4,2.1-0.8,2.1-2.7,1.7c-1.8-0.3-3.3-1.1-5.2-1.1
				c-2.6,0.1-4.2,1.4-5.6,3.5c-1,1.4-1.7,2.8-2.8,4.1c-0.2,0.3-2.5,3.3-3.4,3.1c-0.2-0.1-1.2-2.1-1.4-2.3c-1.8-2.4-4.9-5-8.1-5.2
				c-2.9-0.2-4.2,1.6-5.2,4c-0.7,1.7,0.4,1.4-1.6,1.1c-0.6-0.1-3.6-0.5-3.8-0.9c-0.3-0.5,1-4.6,0.9-5.6c-0.3-3.5-2.5-6.1-6.1-6.3
				c-1,0-2.2,0.5-3.1,0.1c-0.9-0.4-1-1.2-1.6-2c-1.5-1.9-3.4-2.3-5.7-2.6c-0.1,0.4-0.2,0.9-0.3,1.3c6-0.7,11.1-4.5,10.4-11.1
				c-0.3-3.1-1.9-6-4.3-8c-0.7-0.6-3.2-1.7-3.4-2.2c-0.2-0.7,3.9-5.5,4.3-6.1C82.2,484.6,81,484.1,80.5,484.8L80.5,484.8z"/>
		</g>
	</g>
	<g>
		<g>
			<path class="st0" d="M103.9,307.1c13.3-9.1,24.2-21.2,36.5-31.4c0.8-0.6-0.2-1.2-0.8-0.6c-12.3,10.1-23.1,22.1-36.2,31.2
				C102.6,306.7,103.1,307.6,103.9,307.1L103.9,307.1z"/>
		</g>
		<g>
			<path class="st0" d="M140.1,274.2c-4.7,0.7-12.1,1.1-15.5,4.9c-0.2,0.2,0.4,0.3,0.5,0.3c4,0.6,7.7,3.7,11.1,5.9
				c0.2,0.1,1.3,0.4,1.4,0c0.8-3.7,2.5-6.9,4.4-10.2c0.2-0.3-1.2-0.6-1.4-0.3c-1.9,3.3-3.7,6.5-4.5,10.3c0.5,0,0.9,0,1.4,0
				c-2.4-1.6-4.7-3.2-7.2-4.5c-0.8-0.4-1.6-0.8-2.5-1.1c-1.1-0.4-1.6-0.1-1.2-0.8c1-1.8,5.7-2.5,7.4-2.9c2.4-0.5,4.8-0.9,7.2-1.3
				C141.9,274.5,140.4,274.1,140.1,274.2L140.1,274.2z"/>
		</g>
	</g>
	<g>
		<g>
			<path class="st0" d="M1149.4,378.9c0.4-1,1-1.9,1.1-3.1c0-0.7-1.4-0.5-1.5,0c-0.1,1.2-0.7,2-1.1,3.1
				C1147.7,379.5,1149.2,379.4,1149.4,378.9L1149.4,378.9z"/>
		</g>
		<g>
			<path class="st0" d="M1156.9,362.3c0.8-1.1,1.7-2.2,1.7-3.6c0-0.8-1.3-1.3-1.4-0.4c0,1.2-0.7,2.1-1.5,3
				C1155.3,361.9,1156.4,362.9,1156.9,362.3L1156.9,362.3z"/>
		</g>
		<g>
			<path class="st0" d="M1173.1,344.2c1.6-0.8,3.2-1.6,4.5-2.9c0.4-0.4-0.8-1.3-1.2-0.9c-1.3,1.2-2.8,1.9-4.3,2.7
				C1171.5,343.5,1172.6,344.5,1173.1,344.2L1173.1,344.2z"/>
		</g>
		<g>
			<path class="st0" d="M1193.4,332.7c1.7-1.4,3.4-2.8,5.5-3.3c1-0.2,0.2-0.7-0.5-0.6c-2.5,0.6-4.5,2.1-6.4,3.7
				C1191.7,332.9,1193.1,333,1193.4,332.7L1193.4,332.7z"/>
		</g>
		<g>
			<path class="st0" d="M1213.2,325.9c2.5-0.6,5-1.2,7.5-1.2c0.9,0,0.9-1,0-1c-2.7,0-5.3,0.5-7.9,1.2
				C1211.8,325.2,1212.4,326.1,1213.2,325.9L1213.2,325.9z"/>
		</g>
		<g>
			<path class="st0" d="M1236.9,321.9c2.8,1.4,5.6,1.3,8.5,0.1c0.9-0.4-0.2-1.4-0.9-1c-2.4,1.1-4.7,1-7-0.1
				C1236.7,320.4,1236.1,321.5,1236.9,321.9L1236.9,321.9z"/>
		</g>
		<g>
			<path class="st0" d="M1256.6,322.7c2.7,0.9,5.5,0.8,8.3,0.1c0.9-0.2,0.1-1.4-0.7-1.3c-2.4,0.6-4.8,0.7-7.2-0.1
				C1256.1,321.2,1255.8,322.5,1256.6,322.7L1256.6,322.7z"/>
		</g>
		<g>
			<path class="st0" d="M1279.8,323.8c2.5,0.8,5,0.9,7.5,0.4c0.8-0.1-0.2-1.3-0.8-1.1c-2.3,0.4-4.6,0.4-6.9-0.3
				C1278.7,322.4,1279.1,323.6,1279.8,323.8L1279.8,323.8z"/>
		</g>
		<g>
			<path class="st0" d="M1309.9,316.7c2.2,0.3,4.3-0.1,6.5-0.4c0.4-0.1-0.8-0.7-1.1-0.7c-2,0.3-3.9,0.7-5.9,0.4
				C1308.4,315.9,1309.5,316.7,1309.9,316.7L1309.9,316.7z"/>
		</g>
		<g>
			<path class="st0" d="M1328.1,309.7c4.3-0.7,7.7-3.1,10.5-6.3c0.4-0.5-1-0.5-1.3-0.2c-2.5,2.8-5.5,5.2-9.2,5.8
				C1327.1,309.2,1327.2,309.9,1328.1,309.7L1328.1,309.7z"/>
		</g>
		<g>
			<path class="st0" d="M1346.1,296.2c3.8-2,6-5.6,8.1-9.1c0.4-0.8-1-1.1-1.3-0.5c-2,3.4-4,6.8-7.6,8.7
				C1344.4,295.7,1345.4,296.6,1346.1,296.2L1346.1,296.2z"/>
		</g>
		<g>
			<path class="st0" d="M1357.8,279.2c1.6-3.3,1.8-7,1.8-10.6c0-0.3-1.4-0.8-1.4-0.5c-0.1,3.6-0.2,7.2-1.8,10.5
				C1356.3,278.8,1357.7,279.5,1357.8,279.2L1357.8,279.2z"/>
		</g>
		<g>
			<path class="st0" d="M1348.9,269.8c2.5-4.5,4.8-9,5.5-14.2c-0.4-0.2-0.9-0.3-1.3-0.5c3.8,4.2,9,5.3,14.2,6.7
				c0.9,0.2-0.2-0.6-0.5-0.7c-4.5-1.2-9.1-2.1-12.4-5.7c-0.1-0.1-1.3-0.8-1.3-0.5c-0.7,5.1-2.9,9.7-5.5,14.2
				C1347.4,269.4,1348.7,270.1,1348.9,269.8L1348.9,269.8z"/>
		</g>
		<g>
			<path class="st0" d="M1344.1,255.9c0.8-1.9,1.4-3.8,1.8-5.8c0.3-1.2,0.2-5.1,1.3-5.6c0.6-0.3,4.9,1.8,5.7,2
				c1.8,0.5,3.6,0.9,5.5,1.3c0.9,0.2,0.1-1-0.4-1.2c-4-0.8-8-1.9-11.8-3.6c-0.2-0.1-0.6-0.1-0.6,0.2c-0.4,4.1-1.2,8.2-2.8,12
				C1342.6,255.6,1343.8,256.5,1344.1,255.9L1344.1,255.9z"/>
		</g>
	</g>
	<g>
		<g>
			<path class="st0" d="M176.2,70c1.4,2.1,3.3,3.9,5.1,5.7c0.6,0.6,1.8-0.3,1.1-1c-1.7-1.7-3.5-3.4-4.8-5.4
				C177,68.6,175.7,69.3,176.2,70L176.2,70z"/>
		</g>
		<g>
			<path class="st0" d="M189.2,84.1c1.9,1.3,3.6,3,5.6,4.3c0.4,0.3,1.7-0.3,1.4-0.5c-1.9-1.3-3.6-3-5.6-4.3
				C190.2,83.4,188.9,83.9,189.2,84.1L189.2,84.1z"/>
		</g>
		<g>
			<path class="st0" d="M178.8,83.9c-1.9,1.3-3.5,3.2-5,5c-0.3,0.3,0.8,1.4,1,1.1c1.5-1.8,3.1-3.6,5-5
				C180.1,84.8,179.2,83.7,178.8,83.9L178.8,83.9z"/>
		</g>
		<g>
			<path class="st0" d="M195.5,69.2c-2,2-4.3,3.7-5.6,6.3c-0.2,0.4,1.1,1.1,1.3,0.7c1.3-2.5,3.5-4.2,5.5-6.1
				C197,69.7,195.8,68.9,195.5,69.2L195.5,69.2z"/>
		</g>
	</g>
	<g>
		<g>
			<path class="st0" d="M671,51.3c-3.1-0.6-4.8,2.3-4.3,5c0.4,2.2,2,4.9,4.3,5.5c4.1,1.1,7.3-3.8,6.3-7.4c-0.9-3-3.5-4.7-6.3-5.5
				c-0.2-0.1,0.1,1.2,0.5,1.4c2.5,0.7,5.6,2.2,5.3,5.2c-0.2,1.8-1.4,3.6-3,4.5c-1.7,0.9-3.6,0.8-5-0.5c-2.6-2.5-1.2-7.5,2.7-6.8
				C671.7,52.8,671.4,51.4,671,51.3L671,51.3z"/>
		</g>
	</g>
	<g>
		<g>
			<path class="st0" d="M66.8,147.8c-2.7-0.5-5.1,1.6-5.2,4.2c-0.1,2.6,1.6,5.5,4.2,6.1c3.9,1,7.8-3.2,7.4-7
				c-0.3-3.2-3.4-4.9-6.2-5.8c-0.6-0.2-1.6,0.9-0.8,1.1c2.3,0.7,5,2,5.5,4.7c0.4,1.8-0.5,3.8-1.9,5c-1.5,1.2-3.4,1.2-4.9-0.1
				c-2.2-2-2.9-7.9,1.4-7C67,149.2,67.7,148,66.8,147.8L66.8,147.8z"/>
		</g>
	</g>
	<g>
		<g>
			<path class="st0" d="M1225.4,82.7c5.4,22.7,0.7,45.9,3.7,68.8c0,0.3,1.4,0.7,1.3,0.5c-3-22.9,1.7-46.1-3.7-68.8
				C1226.7,82.9,1225.4,82.6,1225.4,82.7L1225.4,82.7z"/>
		</g>
		<g>
			<path class="st0" d="M1228.3,89.2c10.4-2.5,23.1,3.1,24.3,14.8c0.7,6.3-2.3,11.4-8,13.9c-9.1,3.9-19.5,1.9-29.1,1.8
				c-0.8,0,0.1,1.2,0.7,1.2c10.7,0.1,27.1,3.7,35-5.9c4.3-5.3,3.3-13.3-0.4-18.6c-5.1-7.4-14.6-10.4-23.2-8.3
				C1226.8,88.2,1227.7,89.3,1228.3,89.2L1228.3,89.2z"/>
		</g>
		<g>
			<path class="st0" d="M1215.7,135.3c8.5-0.9,17.1-0.9,25.7-0.9c0.2,0,1.6-0.4,1-0.4c-8.8,0-17.6,0-26.4,0.9
				C1215.5,135,1214.6,135.4,1215.7,135.3L1215.7,135.3z"/>
		</g>
	</g>
	<g>
		<g>
			<g>
				<path class="st0" d="M868.7,9.1c-0.3,2.6,0.3,4.8,1.5,7.1c0.7,1.3,1.6,2.5,2.1,3.8c1.7,3.9-1.4,5.1-4.7,6.2
					c-0.3,0.1-0.3,0.3-0.3,0.6c0.8,4.4,2.7,8.2,5.7,11.6c0.2,0.2,0.5,0.4,0.8,0.1c2.1-2.1,4.6-3.9,6.9-5.8c1.9-1.6,1.3-1.7,3,0.2
					c2.8,3.1,6.5,4.9,10.3,6.3c-0.2-0.4-0.3-0.8-0.5-1.2c-1.9,2.8-2.4,6.3-4.3,9.1c-0.3,0.4,0.1,1,0.5,1.2c4,1.9,8.2,3.4,12.4,4.6
					c0.2,0.1,0.5-0.2,0.4-0.4c-0.1-2,0.5-5,1.8-6.7c0-1.1,0.6-1.6,1.6-1.3c1,0.5,2,0.9,3.1,1.3c3.3,1.1,6.5,1.3,9.9,0.9
					c-0.3-0.4-0.5-0.7-0.8-1.1c-0.8,3.4,0.5,6.7-0.8,10c-0.2,0.5,0.3,1.1,0.8,1.1c4.6,0,9.2-0.5,13.6-1.3c0.4-0.1,0.3-0.5,0.2-0.8
					c-0.4-1.5-0.9-6.5,0.1-8c1.1-1.7,2.2-1.3,3.9-1.8c2.4-0.7,4.6-2.1,6.2-3.9c0.6-0.7,2.7-5.3,3.2-5.4c-0.3,0.1,2.4,1.5,2.3,1.4
					c2,1.1,3.9,1.5,5.7,3.1c0.2,0.1,0.5,0.2,0.7,0c2.2-3.5,4.1-7.2,6.3-10.7c0.3-0.4-0.1-1.2-0.6-1.2c-2.9-0.4-5.1-2.3-7.9-2.7
					c0.2,0.4,0.4,0.8,0.6,1.2c2.7-3.1,4.3-6.3,5.9-10c0.9-2.2,0-2.2,2.5-2.6c1.8-0.3,4.1,0.2,5.8,0.6c0.3,0.1,0.4-0.2,0.4-0.4
					c0.5-3.7,2.1-7.1,2.7-10.8c0.1-0.6-1-1.4-1.1-0.5c-0.3,1.7-1.2,8.2-2.5,9.3c-1.6,1.4-5.9,0.6-7.8,0c-0.3-0.1-0.4,0.2-0.4,0.4
					c-0.7,5-3.1,9.2-6.4,13c-0.3,0.4,0.2,1.2,0.6,1.2c2.9,0.4,5,2.4,7.9,2.7c-0.2-0.4-0.4-0.8-0.6-1.2c-1.2,2-3.9,8.9-6,9.6
					c-1.7,0.5-7.1-2.8-8.1-4c-0.2-0.2-0.7-0.4-0.9,0c-1.8,6.4-6.6,10.1-13.2,10.3c-0.2,0-0.3,0.2-0.3,0.4c0.2,2.3,0.6,8.9-1.4,10
					c-2.7,1.5-8.7,1-11.8,1c0.3,0.4,0.5,0.7,0.8,1.1c1.4-3.6,0-6.4,0.8-10c0.1-0.5-0.3-1.2-0.8-1.1c-5,0.6-9.5-0.4-13.9-2.9
					c-0.2-0.1-0.5,0-0.6,0.2c-0.4,1.8-1.3,3.2-1.9,4.9c-0.4,1.1-0.4,2.5-1.1,3.3c-1.3,1.3-9.4-2.9-11.3-3.8c0.2,0.4,0.3,0.8,0.5,1.2
					c1.9-2.8,2.4-6.2,4.3-9.1c0.3-0.4-0.1-1-0.5-1.2c-4.7-1.7-8.9-4-11.5-8.4c-0.2-0.3-0.6-0.7-0.9-0.3c-1.7,2.3-4,4.2-6.3,5.9
					c-0.7,0.5-1,1.3-1.9,1.2c-1.6,0-3.1-3.6-3.6-4.9c-2.4-5.7,2.4-3.5,4.2-7.3c0.7-1.5,0.2-3-0.5-4.5c-1.6-3.4-4-6-3.5-10.1
					C870,9,868.8,8.2,868.7,9.1L868.7,9.1z"/>
			</g>
			<g>
				<path class="st0" d="M871.7,8.9c-3.5,0.8-7.2-0.2-10.6-0.3c0.3,0.2,0.6,0.5,0.9,0.7c0.1-2.5-0.3-5,0.6-7.4
					c0.3-0.7-1.1-1.3-1.4-0.6c-0.9,2.5-0.5,5-0.6,7.7c0,0.4,0.5,0.7,0.9,0.7c3.6,0.2,7.4,1.1,11,0.3C873.2,9.8,872.4,8.7,871.7,8.9
					L871.7,8.9z"/>
			</g>
			<g>
				<path class="st0" d="M882.4,4.1c1.6,16.6,12.2,29.5,29.4,30.6c13.3,0.8,29.5-5.1,35.9-17.5c3.5-6.8,2.5-14.2-1.2-20.6
					c-0.4-0.8-1.7-0.1-1.2,0.7c9.9,16.8-6,31.2-21.7,35c-8.4,2-17.6,1.5-25.2-2.7c-9.4-5.2-13.5-15.2-14.5-25.5
					C883.8,3.3,882.4,3.2,882.4,4.1L882.4,4.1z"/>
			</g>
		</g>
		<g>
			<g>
				<path class="st0" d="M968.6,67.5c0.7,0-0.2-1.2-0.7-1.2C967.2,66.3,968.1,67.5,968.6,67.5L968.6,67.5z"/>
			</g>
			<g>
				<path class="st0" d="M975.4,64.2c6.5-11.3,14.6-22.4,24.8-30.6c-0.4-0.2-0.8-0.5-1.3-0.7c-10.5,8.4-20.9,16.6-33.7,21
					c-0.6,0.2,0.6,0.7,0.8,0.8c4.4,0.9,8.3,3.3,10,7.5c0.2,0.4,1.5,0.7,1.4,0.4c-1.1-2.8-3-4.8-5.6-6.4c-0.3-0.2-4.6-1.9-4.6-1.9
					c0,0.1,4.2-1.5,4.8-1.8c10.5-4.6,19.3-11.8,28.1-18.9c0.3-0.3-0.9-1-1.3-0.7c-10.3,8.2-18.4,19.3-24.9,30.7
					C973.8,64,975.2,64.6,975.4,64.2L975.4,64.2z"/>
			</g>
			<g>
				<g>
					<path class="st0" d="M982.8,46.5c-26.9,32.7-82.2,30.7-116.2,11.4c-9.8-5.6-18.6-13.1-24.6-22.8c-0.5-0.7-1.6-0.3-1.1,0.5
						c11,17.6,30.4,28.2,50,33.3c20.9,5.5,44,5.6,64.4-1.8c11-4,21-10.5,28.5-19.6C984.3,46.9,983.3,45.9,982.8,46.5L982.8,46.5z"/>
				</g>
				<g>
					<path class="st0" d="M876.5,76.8c-9.3-3.2-17.5-8.5-25.9-13.5c-0.7-0.4-0.9-0.2-0.1,0.2c8.7,5.2,17.3,10.7,27,14
						C877.7,77.6,876.8,76.9,876.5,76.8L876.5,76.8z"/>
				</g>
			</g>
		</g>
	</g>
	<g>
		<g>
			<path class="st0" d="M248.9,393.6c-0.7,1.6-1.5,3.9-3.2,4.7c-0.8,0.4-0.4,1.1,0.4,0.7c2.2-1.1,3.2-3.6,4.1-5.7
				C250.5,392.8,249.1,393.2,248.9,393.6L248.9,393.6z"/>
		</g>
		<g>
			<path class="st0" d="M234.6,404.7c-1.9,1.6-3.9,2.5-6.4,2.8c-0.8,0.1,0.1,1.3,0.7,1.2c2.6-0.3,4.7-1.2,6.7-2.9
				C236.1,405.3,235.1,404.3,234.6,404.7L234.6,404.7z"/>
		</g>
		<g>
			<path class="st0" d="M212.9,406c-2.2,0.3-4.4,0.9-6.6,0.2c0.2,0.1,0.6,1,0.9,1.1c2.3,0.7,4.4,0.1,6.7-0.2
				C213.7,407.1,213.3,405.9,212.9,406L212.9,406z"/>
		</g>
		<g>
			<path class="st0" d="M193.2,397.6c-0.5-0.2-0.9-0.8-1.3-1.2c-0.5-0.5-1-0.9-1.6-1.1c-0.3-0.1-0.4,0.1-0.3,0.3
				c0.1,0.3,0.5,0.6,0.8,0.7c0.5,0.2,0.9,0.8,1.3,1.2c0.5,0.5,1,0.9,1.6,1.1c0.3,0.1,0.4-0.1,0.3-0.3
				C193.9,398,193.5,397.7,193.2,397.6L193.2,397.6z"/>
		</g>
		<g>
			<path class="st0" d="M184.1,370.6c-0.2-2.8,1.4-6,3.5-7.8c0.1-0.1-0.8-1.3-0.9-1.2c-2.2,1.8-3.7,5.1-3.5,7.9
				C183.2,369.9,184.1,370.5,184.1,370.6L184.1,370.6z"/>
		</g>
		<g>
			<path class="st0" d="M196.8,347.8c1.4-0.6,2.4-1.9,3.8-2.5c0.3-0.1,0.5-0.5,0.3-0.8c-0.2-0.3-0.7-0.2-1-0.1
				c-1.4,0.6-2.4,1.9-3.8,2.5c-0.3,0.1-0.5,0.5-0.3,0.8C196.1,348.1,196.5,348,196.8,347.8L196.8,347.8z"/>
		</g>
		<g>
			<path class="st0" d="M187.6,388.6c-0.2-3-2-5.5-2.2-8.5c0-0.3-1.5,0-1.4,0.5c0.2,3,2,5.5,2.2,8.5
				C186.2,389.3,187.6,389,187.6,388.6L187.6,388.6z"/>
		</g>
	</g>
	<g>
		<g>
			<path class="st0" d="M539.3,508.1c12.5-9.4,25.3-18.5,38.5-27.1c0.7-0.5-0.6-0.6-0.9-0.5c-10.7,4.3-21.1,9.1-32.1,12.6
				c-0.8,0.2,0,0.7,0.4,0.7c13.1-1.4,24.9-8.4,35.2-16.2c-0.4-0.1-0.9-0.2-1.3-0.3c-7.5,7.7-14.2,16.5-18,26.7c0.5,0,1,0,1.5,0
				c0.3-8.5-8.5-11.6-15.7-10.9c-0.9,0.1-0.9,0.8,0,0.7c6.9-0.7,14.4,2.5,14.2,10.3c0,0.5,1.3,0.4,1.5,0
				c3.8-10.1,10.4-18.8,17.9-26.5c0.5-0.5-1-0.5-1.3-0.3c-7.6,5.7-15.9,10.9-25,13.9c-2,0.7-4.6,1.5-6.7,2c2.4-0.5,4.8-1.7,7.1-2.6
				c4.5-1.7,8.9-3.6,13.4-5.5c2-0.8,4.4-1.5,6.2-2.6c4.1-2.5-1,0.4-2,1.1c-3.9,2.6-7.7,5.2-11.6,7.9c-7.6,5.3-15.1,10.8-22.5,16.4
				C537.5,508.2,539,508.4,539.3,508.1L539.3,508.1z"/>
		</g>
		<g>
			<path class="st0" d="M505.4,535.2c6.4-5.3,12.9-10.6,19.5-15.7c0.7-0.5-0.2-1.7-0.8-1.2c-6.6,5.2-13.2,10.6-19.8,16
				C503.7,534.7,504.8,535.8,505.4,535.2L505.4,535.2z"/>
		</g>
		<g>
			<path class="st0" d="M457,556.1c5.6-4.2,11.5-7.8,18-10.4c-0.4-0.2-0.7-0.3-1.1-0.5c-0.9,6.1-2.3,12.1-3.1,18.2
				c-0.1,0.7,0.9,0.7,1.2,0.4c7-6.2,14.1-12.4,21.2-18.4c0.7-0.6-0.4-1.4-1-0.8c-7.1,6.1-14.2,12.2-21.2,18.4
				c0.4,0.1,0.8,0.3,1.2,0.4c0.9-6.1,2.3-12.1,3.1-18.2c0.1-0.6-0.7-0.7-1.1-0.5c-6.6,2.6-12.6,6.4-18.3,10.6
				C455.2,555.9,456.3,556.6,457,556.1L457,556.1z"/>
		</g>
		<g>
			<path class="st0" d="M415.4,591.6c12-8.7,22.2-19.6,33.2-29.3c0.1-0.1-1,0.3-1.2,0.5c-11.1,9.7-21.2,20.6-33.2,29.3
				C414.1,592.2,415.1,591.8,415.4,591.6L415.4,591.6z"/>
		</g>
	</g>
	<g>
		<g>
			<path class="st0" d="M1156.8,210.6c0,10.5,0,21.1,1.9,31.6c0.1,0.5,1.5,0.1,1.5-0.3c-1.8-10.4-1.9-21-1.9-31.6
				C1158.3,209.9,1156.8,210.1,1156.8,210.6L1156.8,210.6z"/>
		</g>
		<g>
			<path class="st0" d="M1142.9,226c9.9-1,19.8,1,29.7-0.6c0.9-0.1,0.5-1.6-0.4-1.4c-9.9,1.6-19.8-0.4-29.7,0.6
				C1141.6,224.6,1142,226.1,1142.9,226L1142.9,226z"/>
		</g>
	</g>
	<g>
		<g>
			<path class="st0" d="M1217.1,485.2c-0.9,18.7,0.8,37.5,4.7,55.8c3.1,15,7.8,31.3,19,42.5c3.9,3.9,9.3,8,15.2,7.4
				c5.4-0.5,9.3-4.8,12.2-9c9.3-13.2,14.8-29.8,18.7-45.3c4.7-19.1,6.7-38.8,6.8-58.4c0-0.9-1.5-0.9-1.5,0
				c-0.1,31.1-4.8,63.4-18.8,91.5c-2.8,5.7-5.8,11.8-10.4,16.2c-7.1,6.6-15.2,2.6-21.2-3.3c-10.7-10.5-15.2-25.9-18.3-40.1
				c-4-18.7-5.9-38-5-57.2C1218.6,484.3,1217.2,484.3,1217.1,485.2L1217.1,485.2z"/>
		</g>
		<g>
			<path class="st0" d="M1252.6,492.1c0,3.5,0,7,0,10.5c0,0.5,1.5,0.5,1.5,0.1c0-3.5,0-7,0-10.5
				C1254.1,491.7,1252.6,491.7,1252.6,492.1L1252.6,492.1z"/>
		</g>
		<g>
			<path class="st0" d="M1254,514.4c0,4.3,0,8.6-0.6,12.8c-0.1,0.4,0.9,1.5,1,0.9c0.6-4.2,0.6-8.5,0.6-12.8
				C1255,514.9,1254,513.9,1254,514.4L1254,514.4z"/>
		</g>
		<g>
			<path class="st0" d="M1252.8,542.5c0.3,0,1.4-0.6,1.2-0.6C1253.6,541.9,1252.5,542.5,1252.8,542.5L1252.8,542.5z"/>
		</g>
		<g>
			<path class="st0" d="M1252.7,542.5c0.5,3.3,1.2,6.9,0,10.1c-0.3,0.9,1.1,0.9,1.4,0.1c1.2-3.5,0.6-7.3,0-10.8
				C1253.9,541.1,1252.5,541.7,1252.7,542.5L1252.7,542.5z"/>
		</g>
		<g>
			<path class="st0" d="M1252.6,565.6c0,3.1,0,6.2,0,9.3c0,0.6,1.4,0.3,1.4-0.3c0-3.1,0-6.2,0-9.3
				C1254.1,564.8,1252.6,565.1,1252.6,565.6L1252.6,565.6z"/>
		</g>
		<g>
			<path class="st0" d="M1253.3,584.6c0,5,0,10.1,0,15.1c0,0.8,1.3,1.3,1.3,0.3c0-5,0-10.1,0-15.1
				C1254.6,584.1,1253.3,583.6,1253.3,584.6L1253.3,584.6z"/>
		</g>
		<g>
			<path class="st0" d="M1188.5,587.7c42.6-2.2,85.8,8.2,128.1-0.6c0,0-0.5-1.2-0.8-1.3c-6.7-1.2-13.4-2.3-19.8-4.6
				c0.2,0.4,0.5,0.9,0.7,1.3c7.4,1.2,14.7,2.2,22.1,2.3c-0.3-0.4-0.5-0.9-0.8-1.3c-5.8,4.1-11.6,8.2-17.5,12.2
				c-0.1,0.1,0.7,1.3,0.8,1.3c5.8-4.1,11.6-8.2,17.5-12.2c0.1-0.1-0.6-1.3-0.8-1.3c-7.5-0.1-14.8-1.1-22.1-2.3
				c0.2,0,0.4,1.2,0.7,1.3c6.4,2.4,13.1,3.5,19.8,4.7c-0.3-0.4-0.5-0.9-0.8-1.3c-42.3,8.8-85.4-1.6-128.1,0.6
				C1187.9,586.4,1188.2,587.7,1188.5,587.7L1188.5,587.7z"/>
		</g>
	</g>
</g>
</svg>
