<?xml version="1.0" encoding="utf-8"?>
<!-- Generator: Adobe Illustrator 22.1.0, SVG Export Plug-In . SVG Version: 6.00 Build 0)  -->
<svg version="1.1" id="Layer_1" xmlns="http://www.w3.org/2000/svg" xmlns:xlink="http://www.w3.org/1999/xlink" x="0px" y="0px"
	 viewBox="0 0 1400 639" style="enable-background:new 0 0 1400 639;" xml:space="preserve">
<style type="text/css">
	.st0{fill:#2C9942;}
</style>
<g>
	<g>
		<g>
			<path class="st0" d="M35.7,362.1c13.2-9.1,24-21.1,36.4-31.3c0.6-0.5-0.3-1.3-0.8-0.8c-12.3,10.2-23.2,22.2-36.4,31.3
				C34.2,361.7,35.1,362.5,35.7,362.1L35.7,362.1z"/>
		</g>
		<g>
			<path class="st0" d="M72.1,328.9c-4.7,0.7-12.1,1.1-15.5,4.9c-0.3,0.3,0,1,0.4,1.1c4.1,0.7,7.9,3.7,11.2,5.9
				c0.3,0.2,0.6,0.2,0.7-0.2c0.8-3.7,2.5-6.9,4.4-10.1c0.3-0.5-0.5-1.4-0.9-0.7c-1.9,3.3-3.7,6.6-4.5,10.3c0.2-0.1,0.5-0.1,0.7-0.2
				c-3.6-2.4-7.4-5.5-11.7-6.2c0.1,0.4,0.3,0.7,0.4,1.1c3.3-3.7,10.5-4,15.1-4.7C73.1,329.9,72.7,328.8,72.1,328.9L72.1,328.9z"/>
		</g>
	</g>
	<g>
		<g>
			<path class="st0" d="M504.4,534.9c2.4,3.5,5.4,6.5,8.4,9.5c0.4,0.4,1.1,0.5,0.5-0.1c-2.9-2.9-5.8-5.7-8.1-9.1
				C505.1,534.9,504.1,534.4,504.4,534.9L504.4,534.9z"/>
		</g>
		<g>
			<path class="st0" d="M526,559.1c3.2,2.2,6,5,9.3,7.2c0.3,0.2,1.4-0.4,1.1-0.6c-3.2-2.2-6-5-9.3-7.2
				C526.7,558.2,525.7,558.8,526,559.1L526,559.1z"/>
		</g>
		<g>
			<path class="st0" d="M508.7,559.2c-3.2,2.2-5.8,5.3-8.3,8.3c-0.2,0.2,0.4,1.3,0.7,1c2.4-2.9,5.1-6,8.2-8.2
				C509.6,560.2,508.9,559.1,508.7,559.2L508.7,559.2z"/>
		</g>
		<g>
			<path class="st0" d="M536.3,534.8c-3.3,3.3-7.1,6.2-9.3,10.4c-0.1,0.1,1.1,0.5,1.2,0.3c2.2-4.2,6-7,9.3-10.3
				C537.6,535,536.5,534.6,536.3,534.8L536.3,534.8z"/>
		</g>
	</g>
	<g>
		<g>
			<path class="st0" d="M1146.4,272.9c1.8-0.8,4-2,6.1-1.4c0.3,0.1-0.4-0.8-0.7-0.9c-2.1-0.6-4.3,0.5-6.3,1.4
				C1145.3,272.2,1146.1,273.1,1146.4,272.9L1146.4,272.9z"/>
		</g>
		<g>
			<path class="st0" d="M1164.7,274.2c2.4,0.1,4.4,0.7,6.3,2.1c0.6,0.4,1.3-0.3,0.7-0.8c-2.2-1.6-4.5-2.4-7.2-2.5
				C1163.7,273,1164,274.1,1164.7,274.2L1164.7,274.2z"/>
		</g>
		<g>
			<path class="st0" d="M1181.2,287.4c1.8,1.3,3.8,2.2,4.9,4.1c0.2,0.4,1.4,0.6,1-0.1c-1.2-2.1-3.4-3.2-5.3-4.5
				C1181.3,286.6,1180.5,286.9,1181.2,287.4L1181.2,287.4z"/>
		</g>
		<g>
			<path class="st0" d="M1190.4,306.8c0.3,0.7,0.2,1.5,0.2,2.2c0,0.5,0.2,1,0.4,1.5c0.1,0.1,0.3,0.6,0.5,0.6c0.2,0,0-0.4,0-0.5
				c-0.3-0.7-0.2-1.5-0.2-2.2c0-0.5-0.2-1-0.4-1.5c-0.1-0.1-0.3-0.6-0.5-0.6C1190.1,306.3,1190.3,306.7,1190.4,306.8L1190.4,306.8z"
				/>
		</g>
		<g>
			<path class="st0" d="M1178.4,334.1c-1.6,1.9-4.6,3.2-7.1,3.1c-0.5,0-1.3,0.7-0.5,0.8c3.1,0.1,6.7-1.3,8.7-3.7
				C1179.9,333.8,1178.7,333.8,1178.4,334.1L1178.4,334.1z"/>
		</g>
		<g>
			<path class="st0" d="M1154,341.9c-1.5-0.5-3-0.2-4.5-0.7c-0.6-0.2,0.1,0.8,0.4,0.9c1.5,0.5,3,0.2,4.5,0.7
				C1155.1,343,1154.4,342,1154,341.9L1154,341.9z"/>
		</g>
		<g>
			<path class="st0" d="M1188.7,318.5c-1.9,2.4-2.3,5.4-4.1,7.8c0.1-0.2,0.8-0.3,1-0.6c1.9-2.4,2.3-5.4,4.1-7.8
				C1189.6,318,1188.9,318.2,1188.7,318.5L1188.7,318.5z"/>
		</g>
	</g>
	<g>
		<g>
			<path class="st0" d="M132.8,436.7c0,10.6,0,21.2,1.9,31.7c0.1,0.6,1.4,0.6,1.2-0.1c-1.8-10.4-1.9-20.9-1.9-31.4
				C134,436.2,132.8,436,132.8,436.7L132.8,436.7z"/>
		</g>
		<g>
			<path class="st0" d="M118.8,452.2c9.9-1,19.8,1,29.7-0.6c0,0-0.3-1.1-0.6-1.1c-9.9,1.6-19.8-0.4-29.7,0.6
				C118.3,451.1,118.6,452.2,118.8,452.2L118.8,452.2z"/>
		</g>
	</g>
	<g>
		<g>
			<path class="st0" d="M1178.1,534.6c1.4-0.7,2.8-0.7,3.9,0.5c0.7,0.7,1.2,1.7,1.3,2.7c0.2,2.2-2.1,4.5-4.4,3.9
				c-1.7-0.4-2.5-3-2.4-4.6c0.1-2,1.4-3.4,3.4-3.1c0.5,0.1-0.6-0.3-0.8-0.4c-4.6-0.7-4.9,5.6-1.7,7.6c1.6,1,3.7,1.1,5.3,0.2
				c2.2-1.3,2.1-4.2,0.5-6c-1.5-1.7-4.3-2.3-6.3-1.3C1177,534.2,1177.8,534.7,1178.1,534.6L1178.1,534.6z"/>
		</g>
		<g>
			<path class="st0" d="M1174.1,536.9c-3.9-0.1-7.9-1-11.8,0c-0.3,0.1,0.3,1.1,0.7,1c3.9-1,7.8-0.1,11.8,0
				C1175.1,538,1174.5,536.9,1174.1,536.9L1174.1,536.9z"/>
		</g>
		<g>
			<path class="st0" d="M1161.8,536.9c-2.5,2.9-5.7,5.3-7.7,8.7c-0.2,0.3,0.7,1.1,0.7,1c2-3.4,5.2-5.7,7.7-8.7
				C1162.8,537.7,1162,536.8,1161.8,536.9L1161.8,536.9z"/>
		</g>
		<g>
			<path class="st0" d="M1153.9,546.1c0,19.8-0.8,39.6-1.5,59.4c0,0.1,1.2,0.2,1.2,0.1c0.7-19.8,1.5-39.6,1.5-59.4
				C1155.2,546,1153.9,546,1153.9,546.1L1153.9,546.1z"/>
		</g>
	</g>
	<g>
		<g>
			<path class="st0" d="M1164.9,549.4c1.3,3.2,0.9,7.6,1,10.9c0.1,5.8,0,11.6-0.2,17.5c-0.2,9.1-0.8,18.2-0.9,27.3
				c0,0.3,0.7,0.9,0.7,1c0-9.8,0.7-19.7,0.9-29.5c0.1-5.8,0.2-11.6,0.1-17.4c-0.1-2.9,0.1-6.3-1-9
				C1165.5,549.8,1164.8,548.9,1164.9,549.4L1164.9,549.4z"/>
		</g>
		<g>
			<path class="st0" d="M1165.7,551.2c11.2,1.1,22.5,0.7,33.7,1.1c8.4,0.3,17.3,1.5,25.4-1.2c0.8-0.3,0.3-1.1-0.4-0.9
				c-8.8,2.9-18.4,1.2-27.5,1c-10.3-0.2-20.6-0.1-30.9-1C1165.2,550.2,1164.8,551.1,1165.7,551.2L1165.7,551.2z"/>
		</g>
		<g>
			<path class="st0" d="M1225.4,552.3c4.7,2.7,7.7,7.7,12,11c0.2,0.2,1.1,0.5,1,0.4c-4.4-3.6-7.6-8.6-12.6-11.5
				C1225.4,552,1224.6,551.8,1225.4,552.3L1225.4,552.3z"/>
		</g>
		<g>
			<path class="st0" d="M1238.3,564.3c-1.3,13.6-0.1,27.5,0,41.2c0,0.6,1.2,0.9,1.2,0.2c-0.1-13.6-1.3-27.4,0-40.9
				C1239.5,564.2,1238.3,563.7,1238.3,564.3L1238.3,564.3z"/>
		</g>
	</g>
	<g>
		<path class="st0" d="M1195.1,541.4c-1,0.1-2,0.1-2.4-0.9c-0.2-0.4-0.3-1-0.2-1.4c0-1,0.4-1.8,1.1-2.6c2.1-2.4,5.3-1.5,7,0.8
			c1,1.3,0.7,2.7-0.7,3.5c-1.8,1.1-4.3,1.2-6.2,0.6c-0.3-0.1-1.1,0.3-1.2,0.3c2.4,0.7,5.4,0.4,7.7-0.6c0.8-0.4,1.8-0.9,2.2-1.8
			c0.5-1.3-0.7-2.6-1.6-3.4c-2.1-1.8-5.3-1.6-7.5,0c-1.2,0.9-2.1,2.4-1.8,4c0.1,0.4,0.2,1,0.4,1.3c0.4,0.6,0,0.2,0.7,0.4
			c0.7,0.2,1.7,0.1,2.5,0C1195.2,541.6,1195.9,541.3,1195.1,541.4L1195.1,541.4z"/>
	</g>
	<g>
		<path class="st0" d="M1211.3,544.1c-2.2-0.3-3.2-2-2.8-4.1c0.3-1.6,1.5-3.8,3.4-3.6c4.9,0.4,2.4,10.2-2.9,7.8
			c-0.7-0.3-1.4,0.6-0.7,0.9c2.2,1,4.5,0.7,6-1.3c1.3-1.7,1.9-4.4,0.8-6.3c-1-1.8-3.3-2.7-5.2-1.8c-1.8,0.9-2.8,3-2.9,4.9
			c-0.1,2.6,1.6,4.3,4.1,4.6C1212,545.2,1212.1,544.1,1211.3,544.1L1211.3,544.1z"/>
	</g>
	<g>
		<path class="st0" d="M1211.9,534.9c1.1-5.4-0.8-11.1,1.5-16.2c0.3-0.7-0.9-0.8-1.2-0.2c-2.4,5.2-0.5,11-1.6,16.5
			C1210.5,535.6,1211.8,535.5,1211.9,534.9L1211.9,534.9z"/>
	</g>
	<g>
		<path class="st0" d="M1212.7,519c5.3,1.2,11,1.1,16.4,1.3c9.1,0.2,18.1,0.2,27.2,0.2c9,0,18.1,0,27.1,0.2c6.1,0.1,12.6,0,18.6,1.5
			c0.8,0.2,0.9-0.8,0.2-1c-5.3-1.3-11-1.3-16.4-1.5c-9.1-0.3-18.1-0.3-27.2-0.2c-9,0-18,0-27.1-0.1c-6.1-0.1-12.5,0.1-18.5-1.2
			C1212.1,517.9,1212,518.9,1212.7,519L1212.7,519z"/>
	</g>
	<g>
		<path class="st0" d="M1196.5,534.1c0.4-6.8,0.4-13.7,2-20.4c0,0-1,0.2-1.1,0.5c-1.6,6.7-1.7,13.6-2.1,20.5
			C1195.4,534.6,1196.5,534.4,1196.5,534.1L1196.5,534.1z"/>
	</g>
	<g>
		<g>
			<path class="st0" d="M268.6,559.7c-18.7-0.2-37.3-0.6-56-1c-0.1,0,0.4,1,0.7,1c18.7,0.4,37.3,0.8,56,1
				C269.5,560.7,269,559.7,268.6,559.7L268.6,559.7z"/>
		</g>
		<g>
			<path class="st0" d="M200.8,591.7c-11.9-0.2-23.8-0.6-35.7-1c-0.7,0-0.3,1.1,0.3,1.1c11.9,0.4,23.8,0.8,35.7,1
				C201.9,592.8,201.4,591.7,200.8,591.7L200.8,591.7z"/>
		</g>
		<g>
			<path class="st0" d="M152.8,591.8c-36.5-0.1-73-0.5-109.4-0.9c-3.9,0-7.7-0.1-11.6-0.1c-0.7,0-0.1,1,0.4,1
				c30.7,0.3,61.4,0.6,92.1,0.8c9.6,0.1,19.3,0.1,28.9,0.2C153.9,592.7,153.3,591.8,152.8,591.8L152.8,591.8z"/>
		</g>
		<g>
			<path class="st0" d="M268.8,591.9c-18.7-0.2-37.3-0.6-56-1c-0.8,0,0.1,0.6,0.5,0.6c18.7,0.4,37.3,0.8,56,1
				C270,592.6,269.2,591.9,268.8,591.9L268.8,591.9z"/>
		</g>
		<g>
			<path class="st0" d="M197.5,558.9c-11.5-0.7-23.5-1.4-35,0c-0.3,0,0.6,0.6,0.9,0.6c11.5-1.4,23.5-0.7,35,0
				C198.7,559.5,197.8,559,197.5,558.9L197.5,558.9z"/>
		</g>
		<g>
			<path class="st0" d="M148.4,560.1c-6-0.1-12,0.9-18,1c-0.2,0-1.3,0.2-0.9,0.2c6-0.1,12-1.1,18-1
				C147.7,560.3,148.9,560.1,148.4,560.1L148.4,560.1z"/>
		</g>
		<g>
			<path class="st0" d="M223.5,574.9c-11.6-0.8-23.5-1.4-35,0c-0.3,0-1.1,0.6-0.9,0.6c11.5-1.4,23.4-0.8,35,0
				C222.8,575.5,223.7,575,223.5,574.9L223.5,574.9z"/>
		</g>
		<g>
			<path class="st0" d="M172.8,575.7c-6-0.1-12,0.9-18,1c-0.4,0,0,1.2,0.4,1.1c6-0.1,12-1.1,18-1
				C173.6,576.8,173.2,575.7,172.8,575.7L172.8,575.7z"/>
		</g>
		<g>
			<path class="st0" d="M144.2,575.8c-15.8,0.7-31.6-1.4-47.4,0c-0.5,0-1.1,0.9-0.3,0.8c15.8-1.4,31.6,0.7,47.4,0
				C144.3,576.6,145,575.8,144.2,575.8L144.2,575.8z"/>
		</g>
	</g>
	<g>
		<g>
			<g>
				<path class="st0" d="M11.9,126.3c0,5.9,0.5,11.7,0.7,17.6c0.2,4.5-1.1,8.9,0,13.3c0.1,0.5,1.3,0,1.1-0.5
					c-1.2-4.8,0.3-9.9-0.1-14.8c-0.4-5.3-0.6-10.6-0.6-15.9C13.1,125.4,11.9,125.8,11.9,126.3L11.9,126.3z"/>
			</g>
			<g>
				<path class="st0" d="M23.8,140.8c0,7.3-3.4,15.3-0.7,22.4c0.1,0.3,1.3,0.1,1.2,0c-2.7-7,0.7-15.1,0.7-22.4
					C25,140.6,23.8,140.6,23.8,140.8L23.8,140.8z"/>
			</g>
			<g>
				<path class="st0" d="M34.3,154.2c0,5.7-0.7,12,1.4,17.5c0.1,0.4,1.3,0.2,1.2-0.1c-2.1-5.5-1.4-11.8-1.4-17.5
					C35.5,153.7,34.3,153.8,34.3,154.2L34.3,154.2z"/>
			</g>
			<g>
				<path class="st0" d="M44.8,163.8c0,5-1.1,10.6,0.7,15.4c0.1,0.3,1.2,0.2,1.2,0.3c-1.8-4.8-0.7-10.4-0.7-15.4
					C46,163.9,44.8,163.8,44.8,163.8L44.8,163.8z"/>
			</g>
			<g>
				<path class="st0" d="M52.5,113.7c0.1,18.7,2.9,37.6-1.4,56c-0.1,0.5,1.1,0.2,1.2-0.2c4.3-18.4,1.5-37.3,1.4-56
					C53.7,112.9,52.5,113.2,52.5,113.7L52.5,113.7z"/>
			</g>
			<g>
				<path class="st0" d="M62.9,126.8c0.1,10.2,2.4,20.5,1.4,30.8c0,0.3,1.2,0.4,1.2,0.1c1-10.2-1.3-20.5-1.4-30.8
					C64.2,126.6,62.9,126.5,62.9,126.8L62.9,126.8z"/>
			</g>
			<g>
				<path class="st0" d="M71.3,139.3c-1.1,17.1,2,34.3,2.1,51.4c0,0.4,1.2,0.5,1.2,0.1c-0.1-17.1-3.2-34.3-2.1-51.4
					C72.6,139.1,71.4,138.9,71.3,139.3L71.3,139.3z"/>
			</g>
		</g>
		<g>
			<g>
				<path class="st0" d="M80.4,153.5c0,19.7,0,39.4,0,59c0,0.2,1.2,0.2,1.2-0.1c0-19.7,0-39.4,0-59
					C81.7,153.2,80.4,153.2,80.4,153.5L80.4,153.5z"/>
			</g>
			<g>
				<path class="st0" d="M97.4,209.4c-0.1-7-1.5-14-1.4-21c0-0.5-1.1,0-1.1,0.5c-0.1,7,1.3,14,1.4,21
					C96.2,210.4,97.4,209.9,97.4,209.4L97.4,209.4z"/>
			</g>
			<g>
				<path class="st0" d="M103.9,164.9c0,9.1,0.7,18.2,0.7,27.3c0,0.7,1.3,0.7,1.2,0c0-9.1-0.7-18.2-0.7-27.3
					C105.1,164.2,103.9,164.2,103.9,164.9L103.9,164.9z"/>
			</g>
			<g>
				<path class="st0" d="M87.8,176.3c-0.7,7.9,0.6,15.6,1.2,23.4c0.7,8.8,0,17.5,0.2,26.3c0,0.1,1.1-0.2,1.1-0.5
					c-0.2-8.2,0.4-16.4,0-24.6c-0.5-8.4-2.1-16.6-1.4-25C89,175.7,87.9,176,87.8,176.3L87.8,176.3z"/>
			</g>
			<g>
				<path class="st0" d="M113.1,177.2c-0.2,8.8-3.1,18.3,0.1,26.8c0.2,0.5,1.2,0.8,0.9,0c-3.1-8.3-0.1-17.8,0.1-26.3
					C114.1,177.3,113.1,176.6,113.1,177.2L113.1,177.2z"/>
			</g>
			<g>
				<path class="st0" d="M121,190.1c0,11,0,21.9,0,32.9c0,0.6,1.2,0.7,1.2-0.1c0-11,0-21.9,0-32.9C122.3,189.4,121,189.4,121,190.1
					L121,190.1z"/>
			</g>
			<g>
				<path class="st0" d="M131.9,155.4c3.5,8.8,1.6,19.9,1.4,29.1c-0.1,3.8-0.5,7.5-0.7,11.3c-0.1,2.2-1,5.8,0.1,7.9
					c0.2,0.4,1.3-0.1,1.1-0.6c-1.3-2.5,0-7.4,0.2-10.1c0.3-3.6,0.5-7.3,0.6-10.9c0.2-8.8,1.9-18.9-1.5-27.3
					C132.8,154.4,131.7,154.9,131.9,155.4L131.9,155.4z"/>
			</g>
			<g>
				<path class="st0" d="M144.5,176.1c0,5.6,0.3,11.1,0.7,16.7c0.3,4.7-1.1,9.5,0.1,14.2c0.2,0.7,1.3,0.3,1.2-0.4
					c-1.1-4.5,0.3-9.3,0-13.9c-0.3-5.6-0.7-11.1-0.7-16.7C145.7,175.3,144.5,175.5,144.5,176.1L144.5,176.1z"/>
			</g>
			<g>
				<path class="st0" d="M156.5,190.4c0,7.4-3.5,15.5-0.7,22.6c0.2,0.5,1.2,0.9,0.9,0.2c-2.7-6.9,0.8-15,0.7-22.1
					C157.4,190.7,156.5,189.9,156.5,190.4L156.5,190.4z"/>
			</g>
		</g>
	</g>
	<g>
		<g>
			<path class="st0" d="M1277.5,144c0.9-12.2,4.1-31,19.3-32.2c19-1.5,31.5,17.6,28.8,34.7c-0.1,0.7,1.1,0.5,1.2-0.1
				c2.7-17.9-10.6-37.1-30.1-35.6c-16.1,1.2-19.7,20.4-20.6,33.3C1276.3,144.8,1277.5,144.6,1277.5,144L1277.5,144z"/>
		</g>
		<g>
			<path class="st0" d="M1289,143.5c8.7,0.7,17.8-1.3,26.2,1.5c0,0,0.1,0,0.1,0c-3.6-5.5-5.7-16.4-13.4-17.9
				c-6.9-1.3-13.1,10-11.4,15.9c0.1,0.3,1,0.6,1,0.6c-0.9-3.3,1.2-7.9,2.9-10.7c1.1-1.8,2.6-3.7,4.6-4.7c4.7-2.2,8.3,2.8,10.3,6.5
				c1.3,2.3,2.3,4.8,3.5,7.1c0.6,1.2,1.3,1.4,0.3,2.1c-0.4,0.3-2.9-0.6-3.7-0.7c-7.1-1-14.2,0.2-21.3-0.4
				C1288.2,142.8,1288.7,143.5,1289,143.5L1289,143.5z"/>
		</g>
		<g>
			<path class="st0" d="M1276.6,145.3c-12.8-1.8-9.5,14.1-8.7,22c0.5,5.1,0.5,10.3,0.7,15.5c0.1,2.8-0.5,10.5,1.4,12.8
				c1,1.2,4.9,1.6,6.1,1.9c3.8,0.6,7.7,0.7,11.5,0.7c8.9,0,17.4,0.2,26.2,1.2c6.2,0.7,14.5,1.8,20-2c5-3.6,5.4-10.7,5.4-16.3
				c-0.1-6-0.6-11.7-0.2-17.7c0.3-4.5,1.1-10.8-2-14.6c-2.8-3.4-7.3-2.9-11.1-1.8c-0.5,0.1,0.6,0.7,0.9,0.6
				c13.7-3.9,11.2,11.1,10.7,19.5c-0.5,8.7,3.3,20.6-3,27.9c-4.7,5.5-13.9,4.4-20.4,3.7c-5.7-0.6-11.4-1.5-17.2-1.5
				c-6.6,0-13.4,0.6-20-0.3c-2.3-0.3-5.2-0.8-6.4-3.3c-0.7-1.5-0.5-4.2-0.6-5.8c-0.3-4.5-0.4-9.1-0.5-13.7
				c-0.3-7.7-6.4-30.2,7.6-28.3C1277.8,146.1,1277,145.4,1276.6,145.3L1276.6,145.3z"/>
		</g>
		<g>
			<path class="st0" d="M1298,183.2c0.2-4.2,0.3-8.3,0.5-12.5c0-0.2-0.4-0.1-0.5,0c-7.9,2.9-12.1-12.9,1.1-11.2
				c3.1,0.4,6.1,2.2,7.4,5.2c1.6,3.7,0.4,5.6-3.5,5.7c-0.2,0-1,0.2-1,0.5c-0.6,4.4,0.1,8.7,0.6,13c0.3-0.2,0.6-0.4,0.9-0.5
				c-1.7,0.1-3.1,0.1-4.7-0.2c-0.3,0-1.3,0.5-0.9,0.6c1.7,0.3,3.3,0.3,4.9,0.2c0.2,0,1-0.2,0.9-0.5c-0.3-2.7-2.1-8.8-0.8-11.3
				c0.9-1.7,1.9-1.7,4-1.9c0.2,0,0.9-0.2,0.9-0.5c2.3-9.4-10.4-14.4-16.6-8.1c-2.7,2.8-2.1,7.7,1.4,9.6c1.2,0.6,3.4-0.1,4.2,0.4
				c1.6,1,0.1,10.8,0,12.1C1296.9,183.8,1298,183.5,1298,183.2L1298,183.2z"/>
		</g>
	</g>
	<g>
		<g>
			<path class="st0" d="M938.4,24.7c3.3,0.2,7.2-1.5,8.6-4.7c1.4-3.4-1.8-5.6-4.8-6.1c-2.8-0.5-5.8,0.6-6.5,3.7
				c-0.7,3,1.1,5.8,3.6,7.1c0.7,0.4,1-0.7,0.4-1c-4.6-2.5-3.6-9.5,2.2-8.6c2.9,0.4,5.5,2.4,3.4,5.4c-1.6,2.2-4.5,3.3-7.2,3.2
				C937.4,23.4,937.7,24.6,938.4,24.7L938.4,24.7z"/>
		</g>
		<g>
			<path class="st0" d="M941.4,29.3c2,5.7,3.2,11.6,4.3,17.5c0.7,3.5,1.2,7,1.5,10.5c0.1,2,0.7,5.5-0.8,7.1c-0.4,0.5,0.5,1.3,1,0.8
				c2.9-3,0.6-11.4,0-15c-1.1-7-2.6-14.1-4.9-20.9C942.4,28.7,941.2,28.5,941.4,29.3L941.4,29.3z"/>
		</g>
		<g>
			<path class="st0" d="M946.4,66.1c8.5,4.7,14.6,12.7,23.6,16.7c0.3,0.1,1.2-0.5,1.1-0.6c-9-4-15.1-12-23.6-16.7
				C947.2,65.4,946.3,66,946.4,66.1L946.4,66.1z"/>
		</g>
		<g>
			<path class="st0" d="M968.8,85.7c3.9,8.4,3,21.2,0,29.8c-0.2,0.6,0.8,1.3,1,0.7c3.1-8.8,4-22,0-30.7
				C969.6,85,968.5,84.9,968.8,85.7L968.8,85.7z"/>
		</g>
		<g>
			<path class="st0" d="M963.6,31c1.9,9,1.2,19.8,6.8,27.7c6.4,9.1,18.7,11.6,21.1,23.7c1.1,5.5,0.9,11.3,1.3,16.9
				c0.4,6.1,1.6,12.2,1.7,18.3c0,2.1-1.8,20.4,2,20.1c0,0,0-0.1,0-0.1c-0.3-0.5-0.2-1,0-1.5c0.1-0.3-0.7-1.1-0.7-1
				c-0.1,0.3-0.3,0.8-0.1,1.2c-0.5-0.7-0.3-2.2-0.4-3c-0.2-3.4-0.1-6.8-0.1-10.1c0-5.9-0.2-11.6-1.1-17.4
				c-1.3-8.6,0.1-18.1-2.9-26.4c-2.2-6-7.4-9.9-12.4-13.6c-1.8-1.3-3.6-2.7-5.3-4.2c-3.7-3.4-5.8-8.5-6.7-13.4
				c-1.1-5.5-1.4-11.1-2.6-16.5C964.2,31.5,963.6,30.7,963.6,31L963.6,31z"/>
		</g>
		<g>
			<path class="st0" d="M958.4,19c0.8,8,14.7,7,15-0.8c0.1-3.7-2.9-5.1-6.2-4.5c-3.6,0.7-7.1,3.5-7.6,7.3c-0.1,0.5,1.2,0.4,1.2-0.1
				c0.3-2.9,2.6-5.2,5.3-6.2c2.9-1,5.9-0.1,6,3.2c0.3,7.3-11.9,8-12.6,0.8C959.6,18.3,958.3,18.5,958.4,19L958.4,19z"/>
		</g>
		<g>
			<path class="st0" d="M981.6,19.1c0.8,8.1,15,6.5,15-1.2c0-4-3.7-4.7-6.9-3.8c-3.3,1-6.4,3.5-6.8,7.1c0,0,1.1-0.1,1.2-0.4
				c0.4-3.5,3.7-6.6,7.2-6.6c2.5,0,4.1,1.6,4.1,4.1c0,7.3-11.9,7.5-12.6,0.4C982.8,18.5,981.6,18.8,981.6,19.1L981.6,19.1z"/>
		</g>
		<g>
			<path class="st0" d="M989.5,28.9c2.5,6.8,0.5,14.3,0.6,21.3c0,0.4,0.4,0.7,0.8,0.8c8.3,0.5,16.5-0.8,24.8-1.4
				c9.7-0.7,19.5-0.6,29.2-0.2c9.6,0.5,19.3,1.3,28.9,1.1c9.8-0.2,19.2-1.4,28.9,0.6c0.7,0.1,0.2-0.9-0.3-1c-11-2.2-21.9-0.5-33-0.6
				c-12.3-0.1-24.6-1.4-37-1.5c-11.2-0.1-22.2,1.3-33.3,1.9c-1.5,0.1-6.6,0.9-7.7-0.3c-1.2-1.2-0.2-5-0.1-6.7
				c0.3-4.7,0.7-9.3-1-13.8C990.3,28.8,989.2,28.3,989.5,28.9L989.5,28.9z"/>
		</g>
		<g>
			<path class="st0" d="M1112.4,51c4.5-1.5,9.5-1.1,14.2-1.1c0.7,0-0.3-0.7-0.6-0.7c-4.8,0-9.9-0.4-14.5,1.1
				C1111,50.4,1112.1,51.1,1112.4,51L1112.4,51z"/>
		</g>
		<g>
			<path class="st0" d="M1141.3,49.2c6.1,0,12.1,0,18.2,0c0.5,0,1.2-0.8,0.4-0.8c-6.1,0-12.1,0-18.2,0
				C1141.2,48.4,1140.5,49.2,1141.3,49.2L1141.3,49.2z"/>
		</g>
		<g>
			<path class="st0" d="M1172.1,49.8c2-0.7,4-0.7,6.1-0.6c-0.2,0-0.7-0.5-1.1-0.6c-2.1-0.2-4.1-0.1-6.1,0.6
				C1171.1,49.2,1171.9,49.9,1172.1,49.8L1172.1,49.8z"/>
		</g>
		<g>
			<path class="st0" d="M1188.9,48.7c6.8-1.8,13.9-1.6,20.9-1.6c0.3,0,1.2-0.6,0.9-0.6c-7.1,0-14.2-0.1-21.1,1.7
				C1189.4,48.2,1188.4,48.8,1188.9,48.7L1188.9,48.7z"/>
		</g>
	</g>
	<g>
		<g>
			<path class="st0" d="M1258.2,410.7c8.2,8.1,20.1,10.2,29.2,17c0.2,0.2,1,0,1.2-0.2c21.2-10.1,44.6-15,65.5-25.8c0,0,0,0,0,0
				c-3.4-3.1-7.5-5.5-11.5-7.8c-2.2-1.3-6-4.3-8.7-4.6c-0.9-0.1-1.8,0.4-2.6,0.7c-3.5,1.2-7,2.5-10.5,3.7
				c-12.2,4.2-24.8,7.2-37.2,10.6c-8.2,2.3-16.6,4.9-25,6.3c-0.9,0.1-0.1,0.2,0.3,0.1c19.1-3.3,38-9.8,56.7-15.2
				c5.7-1.6,11.6-3.3,17.1-5.7c1.3-0.6,1.1,0.1,0.1-0.2c0.5,0.2,1.1,0.5,1.5,0.8c2.4,1.6,5.1,2.7,7.6,4.1c2.7,1.6,7.8,3.6,9.5,6.2
				c1.2,1.8-0.5,2.2-2.3,3.1c-2.4,1.1-4.8,2.2-7.3,3.2c-17.9,7.4-36.9,12.3-54.4,20.7c0.4-0.1,0.8-0.1,1.2-0.2
				c-9.1-6.8-21-8.8-29.2-17C1259.2,410.3,1258.3,410.8,1258.2,410.7z"/>
		</g>
	</g>
	<g>
		<g>
			<path class="st0" d="M1353.7,402.9c-0.2,1.1-0.3,2.3-0.6,3.3c-0.7,2-1.8,2.3-3.9,3.2c-4.9,2.4-10.1,4.4-15.2,6.3
				c-10.3,3.9-20.7,7.2-31,11.1c-4.5,1.7-9.1,4.4-13.7,5.6c-3.2,0.9-7.3-3-10.2-4.4c-4.6-2.2-9.5-4-13.9-6.7c-1.8-1.1-5.3-3-6-5.1
				c-0.3-1,0-2.7,0-3.8c0-0.5-1.2-0.7-1.2-0.3c0,1.2-0.4,3.3,0,4.4c0.8,1.9,4.8,4.1,6.5,5.2c7.4,4.5,15.9,6.8,22.9,12
				c0.3,0.2,0.6,0.3,1,0.1c13.5-6.4,27.9-10.8,41.9-15.8c6.3-2.3,12.5-4.7,18.6-7.5c1.4-0.7,4.4-1.5,5.2-2.8
				c0.7-1.2,0.6-3.3,0.9-4.7C1355,402.7,1353.8,402.4,1353.7,402.9L1353.7,402.9z"/>
		</g>
	</g>
	<g>
		<path class="st0" d="M1281.5,417.5c-1.6-0.4-3.3-0.7-4.8-1.3c-0.8-0.3-2.7-0.9-2.9-1.8c-0.2-0.8,0.7-0.7,1.4-0.8
			c1.8-0.1,3.8,0.7,5.4,1.6c0.5,0.3,1.8,1,1.9,1.7c0.4,0.5,0.2,0.6-0.6,0.4c-0.5,0-0.9,0-1.3-0.2c-0.4-0.1-0.8-0.2-1.3-0.2
			c-0.8-0.1-0.3,0.9,0.2,0.9c1.5,0.2,2.6,0.9,4.1,0.3c0.2-0.1,0.2-0.2,0.2-0.4c-0.4-2.2-3.1-3.4-4.9-4.1c-1.8-0.7-4.8-1.6-6.5-0.1
			c-0.1,0.1-0.1,0.3,0,0.4c1.3,3.3,6.1,3.6,9.1,4.4C1282.2,418.6,1282.1,417.7,1281.5,417.5L1281.5,417.5z"/>
	</g>
	<g>
		<path class="st0" d="M1342,382.5c3-2.1,5.3-4.8,7.6-7.6c0.4-0.6-0.7-1.1-1.1-0.6c-2.2,2.7-4.5,5.3-7.4,7.4
			C1340.4,382.1,1341.4,382.8,1342,382.5L1342,382.5z"/>
	</g>
	<g>
		<path class="st0" d="M1322.5,380.9c0.7-3.1,0.5-6.3,0.5-9.5c0-0.4-1-1-1-0.6c0,3.2,0.2,6.4-0.5,9.5
			C1321.4,380.6,1322.4,381.3,1322.5,380.9L1322.5,380.9z"/>
	</g>
	<g>
		<path class="st0" d="M1300.8,384.6c-5.6-7.6-11.7-14.8-17.6-22.1c-0.5-0.6-0.8-0.3-0.3,0.3c5.8,7.3,11.9,14.4,17.4,21.9
			C1300.5,385,1301.3,385.3,1300.8,384.6L1300.8,384.6z"/>
	</g>
	<g>
		<path class="st0" d="M1287.5,388.8c-6.7-2.9-12.9-6.1-18-11.5c-0.2-0.2-1.2,0.5-1.1,0.6c5.1,5.4,11.3,8.6,18,11.5
			C1286.8,389.5,1287.6,388.8,1287.5,388.8L1287.5,388.8z"/>
	</g>
	<g>
		<path class="st0" d="M1262.7,397.5c-10.3-2.4-21.4-1.6-31-6.5c0,0,0.2,0.9,0.5,1.1c9.6,4.9,20.7,4.1,31,6.5
			C1263.3,398.6,1263,397.6,1262.7,397.5L1262.7,397.5z"/>
	</g>
	<g>
		<path class="st0" d="M1252.2,408.1c-5.3-0.1-10.5,0.7-15.6,2c-0.4,0.1,0.4,1,0.8,0.9c5.1-1.3,10.2-2.1,15.4-2
			C1253.4,409.1,1252.6,408.1,1252.2,408.1L1252.2,408.1z"/>
	</g>
	<g>
		<path class="st0" d="M1357.3,392.6c5.9-1.7,11.4-4.2,17-6.5c0.4-0.2-0.2-1.3-0.6-1.1c-5.6,2.3-11.1,4.8-17,6.5
			C1356.3,391.6,1356.8,392.8,1357.3,392.6L1357.3,392.6z"/>
	</g>
	<g>
		<path class="st0" d="M1369.4,407.5c2.5,1.2,5,2,7.8,2.1c0.8,0,0.2-1-0.3-1c-2.6-0.1-4.9-0.8-7.2-1.9
			C1368.9,406.3,1368.8,407.2,1369.4,407.5L1369.4,407.5z"/>
	</g>
</g>
</svg>
