<?xml version="1.0" encoding="utf-8"?>
<!-- Generator: Adobe Illustrator 22.1.0, SVG Export Plug-In . SVG Version: 6.00 Build 0)  -->
<svg version="1.1" id="Layer_1" xmlns="http://www.w3.org/2000/svg" xmlns:xlink="http://www.w3.org/1999/xlink" x="0px" y="0px"
	 viewBox="0 0 1400 639" style="enable-background:new 0 0 1400 639;" xml:space="preserve">
<style type="text/css">
	.st0{fill:#2C9942;}
</style>
<g>
	<g>
		<g>
			<path class="st0" d="M504.3,535.4c2.4,3.4,5.3,6.4,8.3,9.3c0.2,0.2,1.2-0.5,1-0.7c-2.9-2.9-5.9-5.9-8.3-9.3
				C505.2,534.4,504.2,535.1,504.3,535.4L504.3,535.4z"/>
		</g>
		<g>
			<path class="st0" d="M526.2,559.2c3.2,2.2,6,5,9.3,7.2c0.6,0.4,1.3-0.4,0.7-0.9c-3.2-2.2-6-5-9.3-7.2
				C526.3,557.9,525.5,558.8,526.2,559.2L526.2,559.2z"/>
		</g>
		<g>
			<path class="st0" d="M508.6,559.3c-3.2,2.2-5.9,5.4-8.4,8.3c-0.5,0.6,0.5,1.3,0.9,0.8c2.4-2.9,5-6,8.1-8.2
				C510,559.8,509.2,558.9,508.6,559.3L508.6,559.3z"/>
		</g>
		<g>
			<path class="st0" d="M536.3,534.7c-3.3,3.3-7.1,6.2-9.3,10.4c-0.2,0.3,1,0.9,1.1,0.5c2.2-4.2,6-7,9.2-10.3
				C537.7,535,536.6,534.5,536.3,534.7L536.3,534.7z"/>
		</g>
	</g>
	<g>
		<g>
			<path class="st0" d="M1146.3,273c1.8-0.8,4-1.9,6-1.4c0.5,0.1,0.1-1-0.3-1.1c-2.2-0.6-4.4,0.6-6.4,1.4
				C1145.3,272.1,1145.9,273.2,1146.3,273L1146.3,273z"/>
		</g>
		<g>
			<path class="st0" d="M1164.5,274.1c2.5,0.1,4.5,0.8,6.5,2.2c0.6,0.4,1.4-0.5,0.8-0.9c-2.2-1.5-4.4-2.3-7-2.4
				C1163.9,273,1163.6,274.1,1164.5,274.1L1164.5,274.1z"/>
		</g>
		<g>
			<path class="st0" d="M1180.9,287.4c1.8,1.3,3.9,2.3,5.1,4.3c0.1,0.2,1.3-0.2,1.2-0.3c-1.2-2.1-3.3-3-5.1-4.4
				C1181.8,286.8,1180.8,287.3,1180.9,287.4L1180.9,287.4z"/>
		</g>
		<g>
			<path class="st0" d="M1190,306.8c0.5,1.2,0,2.5,0.6,3.7c0.2,0.4,1.4,0.7,1.1,0.1c-0.5-1.2,0-2.5-0.6-3.7
				C1191,306.5,1189.8,306.2,1190,306.8L1190,306.8z"/>
		</g>
		<g>
			<path class="st0" d="M1178.4,334c-1.6,2.1-4.7,3.3-7.4,3.2c-0.8,0-0.8,0.8,0,0.9c3,0.1,6.6-1.3,8.4-3.6
				C1179.9,333.9,1178.8,333.5,1178.4,334L1178.4,334z"/>
		</g>
		<g>
			<path class="st0" d="M1154.8,342c-1.5-0.5-3-0.2-4.5-0.7c-0.3-0.1-1.2,0.5-1.1,0.6c1.5,0.5,3,0.2,4.5,0.7
				C1154,342.7,1154.9,342.1,1154.8,342L1154.8,342z"/>
		</g>
		<g>
			<path class="st0" d="M1188.8,317.6c-1.9,2.4-2.3,5.4-4.1,7.8c-0.2,0.3,0.6,1.2,0.7,1c1.9-2.4,2.3-5.4,4.1-7.8
				C1189.8,318.4,1188.9,317.5,1188.8,317.6L1188.8,317.6z"/>
		</g>
	</g>
	<g>
		<g>
			<path class="st0" d="M132.8,436.7c0,10.6,0,21.2,1.9,31.7c0.1,0.6,1.4,0.6,1.2-0.1c-1.8-10.4-1.9-20.9-1.9-31.4
				C134,436.2,132.8,436,132.8,436.7L132.8,436.7z"/>
		</g>
		<g>
			<path class="st0" d="M118.8,452.2c9.9-1,19.8,1,29.7-0.6c0,0-0.3-1.1-0.6-1.1c-9.9,1.6-19.8-0.4-29.7,0.6
				C118.3,451.1,118.6,452.2,118.8,452.2L118.8,452.2z"/>
		</g>
	</g>
	<g>
		<g>
			<path class="st0" d="M1177.6,534.7c2.2-1.1,4.5,0.2,5.4,2.4c0.9,2.4-0.9,5-3.6,4.4c-3.2-0.8-4.4-7.8-0.2-7.2
				c0.4,0.1,1.3-0.6,0.6-0.7c-4.4-0.7-5.9,4.6-3.2,7.5c3.2,3.4,9.5-0.6,7.2-4.9c-1.3-2.5-4.1-3.2-6.6-2
				C1176.8,534.4,1177,535,1177.6,534.7L1177.6,534.7z"/>
		</g>
		<g>
			<path class="st0" d="M1174.4,536.9c-4-0.1-8-1-11.9,0c-0.7,0.2-0.1,1.3,0.5,1.1c3.8-1,7.7-0.1,11.6,0
				C1175.3,538,1175,536.9,1174.4,536.9L1174.4,536.9z"/>
		</g>
		<g>
			<path class="st0" d="M1161.8,536.9c-2.5,3-5.7,5.3-7.7,8.8c-0.2,0.4,0.6,1.3,0.9,0.9c1.9-3.4,5.1-5.7,7.6-8.6
				C1162.9,537.6,1162.1,536.6,1161.8,536.9L1161.8,536.9z"/>
		</g>
		<g>
			<path class="st0" d="M1153.9,546.3c0,19.8-0.8,39.6-1.5,59.4c0,0,1.2-0.1,1.2-0.4c0.7-19.8,1.5-39.6,1.5-59.4
				C1155.1,545.9,1153.9,546.1,1153.9,546.3L1153.9,546.3z"/>
		</g>
	</g>
	<g>
		<g>
			<path class="st0" d="M1164.7,550c1.3,3.1,0.9,7.2,1,10.5c0.1,5.8,0,11.6-0.1,17.4c-0.2,9.3-0.8,18.6-0.9,27.9
				c0,0.6,1.2,0.3,1.2-0.3c0-9.7,0.7-19.3,0.9-29c0.1-5.7,0.2-11.4,0.1-17.1c-0.1-3.1,0.2-6.9-1-9.9
				C1165.6,548.9,1164.5,549.4,1164.7,550L1164.7,550z"/>
		</g>
		<g>
			<path class="st0" d="M1165.7,551.2c11.2,1.1,22.5,0.7,33.7,1.1c8.4,0.3,17.3,1.5,25.4-1.2c0.8-0.3,0.3-1.2-0.4-0.9
				c-8.8,2.9-18.4,1.2-27.5,1c-10.3-0.2-20.6-0.1-30.9-1C1165.2,550.2,1164.9,551.2,1165.7,551.2L1165.7,551.2z"/>
		</g>
		<g>
			<path class="st0" d="M1225.9,552.7c4.8,2.8,7.9,7.7,12.2,11.2c0.4,0.3-0.3-0.7-0.4-0.8c-4.3-3.5-7.4-8.5-12.3-11.3
				C1225.1,551.7,1225.6,552.6,1225.9,552.7L1225.9,552.7z"/>
		</g>
		<g>
			<path class="st0" d="M1238.2,564.6c-1.3,13.6-0.1,27.4,0,41c0,0.6,1.2,0.5,1.2-0.1c-0.1-13.6-1.3-27.5,0-41
				C1239.5,563.9,1238.3,564,1238.2,564.6L1238.2,564.6z"/>
		</g>
	</g>
	<g>
		<path class="st0" d="M1194.8,541.2c-0.7,0.1-1.5,0.2-2-0.3c-0.3-0.4-0.4-1.2-0.4-1.7c0-1.1,0.6-2.1,1.4-2.9c2.2-1.9,5.1-1.3,6.7,1
			c2.6,3.8-5.2,4.5-7.4,3.9c-0.4-0.1-1.4,0.3-0.7,0.5c2.5,0.7,5.6,0.5,7.9-0.7c0.9-0.5,1.8-1.2,1.8-2.2c0.1-1.4-1.3-2.6-2.3-3.3
			c-2.3-1.6-5.7-1.2-7.6,0.8c-1,1-1.4,2.4-1.1,3.8c0.2,0.7,0.3,1.3,1,1.5c0.7,0.3,2,0.2,2.8,0.1
			C1195.9,541.7,1195.3,541.2,1194.8,541.2L1194.8,541.2z"/>
	</g>
	<g>
		<path class="st0" d="M1210.9,544.3c-4.3-0.5-2.7-8.1,1.1-8.2c4.6-0.1,2.5,11-3.1,8.4c-0.4-0.2-1.2-0.2-0.4,0.2
			c2.1,1,4.3,1,5.9-0.9c1.4-1.7,2-4.6,0.6-6.5c-1.1-1.4-3.3-2.2-5-1.5c-1.9,0.8-3,3.3-2.8,5.2c0.2,2.4,2.2,3.6,4.4,3.9
			C1212.2,544.9,1211.1,544.3,1210.9,544.3L1210.9,544.3z"/>
	</g>
	<g>
		<path class="st0" d="M1211.8,534.8c1.1-5.4-0.8-11.1,1.5-16.2c0.3-0.7-0.9-0.7-1.1-0.1c-2.4,5.2-0.5,11-1.6,16.5
			C1210.5,535.7,1211.7,535.4,1211.8,534.8L1211.8,534.8z"/>
	</g>
	<g>
		<path class="st0" d="M1213,518.9c5.3,1.2,11,1.1,16.3,1.2c9.1,0.2,18.1,0.2,27.2,0.2c9,0,18.1,0,27.1,0.2c6.1,0.1,12.6,0,18.6,1.5
			c0.8,0.2,0.1-0.7-0.3-0.8c-5.3-1.3-11-1.3-16.4-1.4c-9.1-0.3-18.1-0.3-27.2-0.2c-9,0-18,0-27.1-0.1c-6.1-0.1-12.5,0.1-18.5-1.3
			C1211.8,518,1212.5,518.8,1213,518.9L1213,518.9z"/>
	</g>
	<g>
		<path class="st0" d="M1196.5,534.1c0.4-6.8,0.4-13.8,2-20.4c0,0.1-1.1,0.1-1.2,0.5c-1.6,6.7-1.7,13.6-2,20.4
			C1195.4,534.6,1196.5,534.4,1196.5,534.1L1196.5,534.1z"/>
	</g>
	<g>
		<g>
			<path class="st0" d="M268.8,559.7c-18.7-0.2-37.3-0.6-56-1c-0.7,0-0.2,1.1,0.4,1.1c18.7,0.4,37.3,0.8,56,1
				C269.9,560.8,269.4,559.7,268.8,559.7L268.8,559.7z"/>
		</g>
		<g>
			<path class="st0" d="M201.1,591.7c-11.9-0.2-23.8-0.6-35.7-1c-0.7,0-1,1-0.2,1c11.9,0.4,23.8,0.8,35.7,1
				C201.6,592.8,201.9,591.7,201.1,591.7L201.1,591.7z"/>
		</g>
		<g>
			<path class="st0" d="M153.2,592.1c-36.5-0.1-73-0.5-109.4-0.9c-3.9,0-7.7-0.1-11.6-0.1c-0.4,0-1.2,0.2-0.3,0.2
				c30.7,0.3,61.4,0.6,92.1,0.8c9.6,0.1,19.3,0.1,28.9,0.2C153.3,592.4,154,592.1,153.2,592.1L153.2,592.1z"/>
		</g>
		<g>
			<path class="st0" d="M268.8,591.6c-18.7-0.2-37.3-0.6-56-1c-0.6,0-0.2,1.2,0.3,1.2c18.7,0.4,37.3,0.8,56,1
				C269.8,592.8,269.4,591.6,268.8,591.6L268.8,591.6z"/>
		</g>
		<g>
			<path class="st0" d="M198,558.7c-11.6-0.7-23.6-1.4-35.2,0c-0.8,0.1-0.4,1.1,0.3,1c11.5-1.4,23.3-0.7,34.8,0
				C198.8,559.8,198.7,558.8,198,558.7L198,558.7z"/>
		</g>
		<g>
			<path class="st0" d="M147.7,559.7c-6-0.1-12,0.9-18,1c0,0,0.3,1.1,0.6,1.1c6-0.1,12-1.1,18-1C148.3,560.8,148,559.7,147.7,559.7
				L147.7,559.7z"/>
		</g>
		<g>
			<path class="st0" d="M222.6,575.1c-11.6-0.8-23.6-1.4-35.2,0c0.2,0,0.8,0.3,1.2,0.3c11.5-1.4,23.3-0.8,34.8,0
				C223.9,575.4,222.8,575.1,222.6,575.1L222.6,575.1z"/>
		</g>
		<g>
			<path class="st0" d="M173.3,576.1c-6.1-0.1-12.1,0.9-18.1,1c-0.4,0-1.2,0.3-0.3,0.3c6-0.1,11.9-1.1,17.9-1
				C173,576.4,174.1,576.1,173.3,576.1L173.3,576.1z"/>
		</g>
		<g>
			<path class="st0" d="M143.7,575.7c-15.8,0.7-31.7-1.4-47.5,0c0,0,0.3,1.1,0.7,1c15.8-1.4,31.6,0.7,47.4,0
				C144.5,576.7,144,575.7,143.7,575.7L143.7,575.7z"/>
		</g>
	</g>
	<g>
		<g>
			<g>
				<path class="st0" d="M12,126.4c0,5.6,0.4,11.2,0.7,16.8c0.3,4.7-1.1,9.4,0,14c0,0,1.1-0.4,1.1-0.6c-1.1-4.6,0.3-9.3,0-14
					c-0.3-5.6-0.7-11.2-0.7-16.8C13.1,125.9,12,126.2,12,126.4L12,126.4z"/>
			</g>
			<g>
				<path class="st0" d="M23.8,140.7c0,7.4-3.4,15.5-0.6,22.7c0.3,0.7,1.4,0.4,1.1-0.4c-2.7-6.9,0.8-15,0.8-22.1
					C25,140.2,23.8,140,23.8,140.7L23.8,140.7z"/>
			</g>
			<g>
				<path class="st0" d="M34.4,153.8c0,5.8-0.7,12.1,1.4,17.6c0.1,0.3,1.2,0.9,1.1,0.4c-2.1-5.4-1.4-11.7-1.4-17.4
					C35.4,154,34.4,153.4,34.4,153.8L34.4,153.8z"/>
			</g>
			<g>
				<path class="st0" d="M44.9,164.3c0,5-1.1,10.6,0.7,15.4c0,0,1.1-0.5,1-0.7c-1.8-4.8-0.7-10.4-0.7-15.4
					C45.9,163.7,44.9,163.9,44.9,164.3L44.9,164.3z"/>
			</g>
			<g>
				<path class="st0" d="M52.5,113.3c0.1,18.7,2.9,37.6-1.4,56c-0.1,0.5,0.9,1.1,1.1,0.4c4.3-18.4,1.5-37.3,1.4-56
					C53.6,113.2,52.5,112.6,52.5,113.3L52.5,113.3z"/>
			</g>
			<g>
				<path class="st0" d="M63,127c0.1,10.2,2.4,20.5,1.4,30.7c0,0.4,1.2,0.2,1.2-0.1c1-10.3-1.3-20.6-1.4-30.9
					C64.2,126.4,63,126.6,63,127L63,127z"/>
			</g>
			<g>
				<path class="st0" d="M71.3,139.3c-1.1,17.1,2,34.3,2.1,51.4c0,0.6,1.3,0.6,1.2,0.1c-0.1-17.1-3.2-34.3-2.1-51.4
					C72.6,138.8,71.4,138.8,71.3,139.3L71.3,139.3z"/>
			</g>
		</g>
		<g>
			<g>
				<path class="st0" d="M80.4,153.4c0,19.7,0,39.4,0,59c0,0.1,1.2,0.1,1.2,0c0-19.7,0-39.4,0-59C81.7,153.3,80.4,153.3,80.4,153.4
					L80.4,153.4z"/>
			</g>
			<g>
				<path class="st0" d="M97.1,210.1c-0.1-7-1.5-14-1.4-21c0-0.3-0.7-1.2-0.7-0.9c-0.1,7,1.3,14,1.4,21
					C96.5,209.5,97.1,210.5,97.1,210.1L97.1,210.1z"/>
			</g>
			<g>
				<path class="st0" d="M104.1,164.4c0,9.1,0.7,18.2,0.7,27.3c0,0.3,0.8,1,0.8,0.9c0-9.1-0.7-18.2-0.7-27.3
					C104.9,165,104.1,164.3,104.1,164.4L104.1,164.4z"/>
			</g>
			<g>
				<path class="st0" d="M87.8,176.3c-0.8,8.1,0.8,16.1,1.3,24.2c0.6,8.5-0.1,17,0.1,25.4c0,0.1,1.2-0.1,1.2-0.4
					c-0.2-8.5,0.5-17-0.1-25.4c-0.5-8.1-2.1-16.1-1.3-24.2C89,175.8,87.9,175.9,87.8,176.3L87.8,176.3z"/>
			</g>
			<g>
				<path class="st0" d="M113,177.4c-0.2,8.7-3.1,18.3,0,26.7c0.2,0.7,1.5,0.5,1.2-0.2c-3.1-8.3-0.1-17.8,0-26.4
					C114.2,176.8,113,176.7,113,177.4L113,177.4z"/>
			</g>
			<g>
				<path class="st0" d="M121.1,189.9c0,11,0,21.9,0,32.9c0,0.6,1.1,1,1.1,0.3c0-11,0-21.9,0-32.9
					C122.2,189.7,121.1,189.2,121.1,189.9L121.1,189.9z"/>
			</g>
			<g>
				<path class="st0" d="M131.9,155.3c3.5,8.9,1.6,19.8,1.4,29.1c-0.1,3.8-0.5,7.5-0.7,11.3c-0.1,2.1-1,5.8,0,7.9
					c0.2,0.4,1.4-0.1,1.2-0.4c-1.3-2.5-0.1-7.4,0.1-10.1c0.3-3.6,0.5-7.3,0.6-10.9c0.2-8.7,1.9-18.9-1.4-27.2
					C132.9,154.5,131.7,154.9,131.9,155.3L131.9,155.3z"/>
			</g>
			<g>
				<path class="st0" d="M144.6,175.6c0,5.6,0.4,11.2,0.7,16.8c0.2,4.7-1.1,9.4,0,14c0.1,0.3,0.8,0.7,0.8,0.9c-1.1-4.6,0.3-9.3,0-14
					c-0.3-5.6-0.7-11.2-0.7-16.8C145.5,176.2,144.6,175.7,144.6,175.6L144.6,175.6z"/>
			</g>
			<g>
				<path class="st0" d="M156.4,190.7c0,7.3-3.5,15.4-0.7,22.5c0.3,0.7,1.3,0.6,1-0.2c-2.7-6.9,0.8-15,0.7-22.2
					C157.5,190.2,156.4,189.9,156.4,190.7L156.4,190.7z"/>
			</g>
		</g>
	</g>
	<g>
		<g>
			<path class="st0" d="M1277.4,144.4c0.8-11.1,3.1-27.2,15.2-31.7c8.2-3,18.5,0.5,24.6,6.2c7.5,6.9,10.2,17.2,8.7,27.1
				c0,0.3,0.9,1,0.9,0.8c2.6-16.8-8.1-33.3-25.3-35.8c-18.9-2.8-23.9,18-25,32.6C1276.4,144,1277.4,144.6,1277.4,144.4L1277.4,144.4
				z"/>
		</g>
		<g>
			<path class="st0" d="M1288.6,143.7c8.7,0.7,17.7-1.3,26.1,1.5c0.5,0.2,0.8-0.4,0.5-0.8c-3.5-5.3-7.1-20.2-16.1-17.5
				c-5.3,1.6-10.1,11-8.6,16.4c0.2,0.7,1.2,0.7,1-0.1c-1.1-3.9,2-9.8,4.5-12.6c5.8-6.3,11.1,0.2,14,5.7c1,2,2.9,4.7,3.4,6.9
				c0.3,1.4,0.7,0.1,0,0.3c-0.8,0.3-3.5-0.7-4.4-0.8c-6.8-0.8-13.7,0.3-20.6-0.3C1287.8,142.5,1288,143.7,1288.6,143.7L1288.6,143.7
				z"/>
		</g>
		<g>
			<path class="st0" d="M1277.2,145.3c-11.6-1.6-10.6,10.9-9.7,18.9c1.1,9.5,0.6,19.2,1.9,28.7c0.5,3.7,1.3,3.7,5,4.5
				c3.9,0.8,8,0.9,11.9,0.9c8.6,0,16.9,0,25.5,1c6.5,0.8,14.2,1.9,20.3-1.1c10.9-5.4,6.1-21.6,6.6-31.1c0.3-5.2,1.5-11.1-0.4-16.2
				c-1.9-5.4-7.1-5.4-11.8-4c-0.4,0.1-1.1,1-0.3,0.8c4.8-1.4,9.5-1.1,11.2,4.2c1.2,3.6,0.8,7.8,0.5,11.5c-0.6,9,1.9,19.1-0.9,27.7
				c-4.6,14-27,6.3-37.9,6.2c-6.6,0-13.3,0.5-20-0.1c-3-0.3-7-0.5-8.4-3.7c-1.4-3.4-0.8-9-0.9-12.6c-0.2-6.7-0.7-13.3-1.4-20
				c-0.6-6.3-1-16,8.1-14.7C1276.8,146.1,1277.7,145.3,1277.2,145.3L1277.2,145.3z"/>
		</g>
		<g>
			<path class="st0" d="M1298,183.5c0.2-4.2,0.3-8.3,0.5-12.5c0-0.4-0.4-0.8-0.8-0.7c-3.6,1.3-7.1-0.9-7-4.8
				c0.1-3.6,3.5-5.5,6.8-5.8c2.9-0.2,6.3,0.9,8.2,3.2c3,3.8,1.1,7-3.3,7.1c-0.2,0-0.4,0.1-0.4,0.3c-0.4,2.6-0.3,5-0.1,7.6
				c0.1,0.5,0.3,2.3,0.3,2.6c-0.1,3-1.2,2.8-4,2.3c-0.8-0.1-0.7,1,0,1.1c1.7,0.3,3.3,0.3,5,0.2c0.2,0,0.4-0.2,0.4-0.5
				c-0.3-2.6-0.9-5.4-0.8-8c0.1-3.7,0.9-4.9,4.6-5.3c0.2,0,0.4-0.1,0.4-0.3c2.3-9.5-12.1-16.7-17.4-7.9c-1.7,2.8-0.8,6.8,1.9,8.7
				c0.6,0.5,1.3,0.8,2.1,1c0.5,0.1,2.6-0.2,2.8-0.1c1.1,0.8-0.2,9.7-0.3,11.4C1296.9,183.9,1298,184.3,1298,183.5L1298,183.5z"/>
		</g>
	</g>
	<g>
		<g>
			<path class="st0" d="M1258.2,410.9c8.2,8.2,20.2,10.2,29.3,17.1c0.2,0.1,0.5,0,0.7-0.1c21.2-10.1,44.6-15,65.5-25.8
				c0.2-0.1,0.5-0.4,0.3-0.6c-3.4-3.1-7.5-5.5-11.6-7.8c-2.3-1.3-5.9-4.3-8.6-4.6c-1.6-0.2-3.6,1-5.1,1.5c-3,1-5.9,2.2-8.9,3.1
				c-12.3,3.9-24.9,7.1-37.4,10.5c-7.8,2.1-15.6,4.5-23.6,5.9c-0.6,0.1-0.9,1-0.1,0.8c10.4-1.8,20.6-5.1,30.7-7.9
				c9.8-2.7,19.7-5.4,29.5-8.3c2.9-0.9,5.8-2,8.7-3c1.5-0.5,4.1-2.1,5.7-2c-0.9,0,0.8,0.6,1.1,0.8c1.3,0.8,2.7,1.4,4,2.1
				c3.2,1.7,6.4,3.6,9.5,5.6c1.1,0.7,4.4,2.4,4.2,3.5c-0.2,1.1-5.6,2.9-6.6,3.3c-9.3,4.1-19,7.4-28.7,10.8
				c-5.2,1.8-10.5,3.7-15.7,5.7c-2.3,0.9-4.6,1.8-6.9,2.8c-1.9,0.8-4.2,2.4-6.2,2.2c-2.2-0.3-5.2-2.9-7.3-4
				c-2.2-1.1-4.5-2.1-6.8-3.1c-5.3-2.4-10.5-4.9-14.7-9.1C1258.9,410,1257.8,410.5,1258.2,410.9z"/>
		</g>
	</g>
	<g>
		<g>
			<path class="st0" d="M1353.8,402.7c-0.2,1.1-0.3,2.3-0.6,3.3c-0.7,2-1.8,2.3-3.9,3.2c-4.5,2.2-9.2,4-13.8,5.8
				c-10,3.8-20.2,7.1-30.2,10.8c-4.7,1.7-9.4,3.5-13.9,5.5c-3,1.3-4.2,1-7-0.7c-1.5-0.9-3.1-1.8-4.8-2.5c-4.8-2.4-9.9-4.2-14.5-7
				c-1.7-1-5.1-2.9-5.8-4.8c-0.3-0.9,0-2.7,0-3.8c0-0.5-1.1-1.1-1.1-0.4c0,1.2-0.4,3.3,0,4.5c0.8,2,4.8,4.2,6.6,5.3
				c7.4,4.5,15.9,6.8,23,12.1c0.1,0.1,0.4,0.2,0.5,0.1c13-6.2,26.9-10.5,40.5-15.3c6.7-2.4,13.5-4.9,20-8c1.4-0.7,4.4-1.5,5.2-2.8
				c0.7-1.2,0.6-3.3,0.9-4.7C1354.9,402.9,1353.9,402.2,1353.8,402.7L1353.8,402.7z"/>
		</g>
	</g>
	<g>
		<path class="st0" d="M1281.4,417.4c-1.6-0.4-3.3-0.7-4.8-1.3c-0.8-0.3-2.6-0.8-2.8-1.7c-0.2-0.6-0.1-0.4,0.5-0.6
			c0.4-0.2,0.9-0.1,1.3-0.1c1.8,0.1,3.7,0.7,5.2,1.6c0.4,0.2,2,1.1,1.9,1.6c-0.1,0.8-2.8-0.2-3.3-0.2c-0.6-0.1-0.1,1,0.4,1.1
			c1.4,0.2,2.5,0.9,3.9,0.4c0.2-0.1,0.2-0.2,0.2-0.4c-0.4-2.1-2.7-3.4-4.5-4.2c-1.8-0.8-5-1.9-6.8-0.3c-0.1,0.1-0.1,0.3-0.1,0.5
			c1.4,3.5,6,3.8,9.1,4.6C1282.2,418.6,1281.9,417.5,1281.4,417.4L1281.4,417.4z"/>
	</g>
	<g>
		<path class="st0" d="M1342,382.5c2.9-2.1,5.3-4.7,7.5-7.5c0.3-0.3-0.7-1.1-1-0.8c-2.2,2.8-4.6,5.4-7.5,7.5
			C1340.7,381.9,1341.6,382.7,1342,382.5L1342,382.5z"/>
	</g>
	<g>
		<path class="st0" d="M1322.6,380.7c0.7-3.1,0.5-6.3,0.5-9.5c0-0.6-1.2-0.9-1.2-0.3c0,3.2,0.2,6.4-0.5,9.5
			C1321.3,381,1322.5,381.3,1322.6,380.7L1322.6,380.7z"/>
	</g>
	<g>
		<path class="st0" d="M1300.9,384.8c-5.5-7.6-11.7-14.7-17.5-22c-0.1-0.1-1-0.9-0.7-0.5c5.8,7.3,12,14.4,17.5,22
			C1300.2,384.5,1301.2,385.2,1300.9,384.8L1300.9,384.8z"/>
	</g>
	<g>
		<path class="st0" d="M1287.4,388.8c-6.6-2.9-12.8-6-17.8-11.4c-0.3-0.3-1.5,0-1.2,0.4c5.1,5.4,11.4,8.7,18.2,11.6
			C1287,389.6,1288.1,389,1287.4,388.8L1287.4,388.8z"/>
	</g>
	<g>
		<path class="st0" d="M1263.1,397.5c-10.2-2.4-21.3-1.6-30.8-6.5c-0.6-0.3-1.3,0.6-0.6,1c9.7,4.9,20.8,4.1,31.2,6.5
			C1263.6,398.8,1263.9,397.7,1263.1,397.5L1263.1,397.5z"/>
	</g>
	<g>
		<path class="st0" d="M1252.3,408.1c-5.3-0.1-10.5,0.7-15.6,2c-0.7,0.2,0.1,1,0.6,0.9c5-1.3,10.1-2.1,15.4-2
			C1253.5,409,1252.9,408.1,1252.3,408.1L1252.3,408.1z"/>
	</g>
	<g>
		<path class="st0" d="M1357.1,392.6c5.9-1.7,11.4-4.2,17-6.5c0.7-0.3,0.5-1.3-0.3-1c-5.6,2.3-11.1,4.8-17,6.5
			C1356.1,391.8,1356.4,392.8,1357.1,392.6L1357.1,392.6z"/>
	</g>
	<g>
		<path class="st0" d="M1369,407.3c2.5,1.2,5,2,7.7,2c0.4,0,1.3-0.5,0.5-0.5c-2.6-0.1-5-0.8-7.3-2
			C1369.7,406.7,1368.6,407.1,1369,407.3L1369,407.3z"/>
	</g>
	<g>
		<g>
			<g>
				<path class="st0" d="M38.6,363.9c6.8,5.1,12.8-3.7,10.7-10.2c-1.1-3.5-3.8-6.5-7.4-7.5c-3.9-1.1-9.2,0.2-10,4.8
					c-0.9,5.4,4,8.8,6.7,12.6c0.5,0.6-0.1-0.4-0.2-0.6c-2.7-3.6-8-7.9-5.1-12.8c1.4-2.4,4.5-3.4,7.2-3.2c4.8,0.3,8.5,3.9,8.7,8.8
					c0.3,6-5.8,11.2-11.2,7.2C38.1,363,38.3,363.7,38.6,363.9L38.6,363.9z"/>
			</g>
			<g>
				<path class="st0" d="M47.2,349.4c8.1-6.5,16.1-12.9,24.2-19.4c0.6-0.5-0.4-1-0.9-0.6c-8.1,6.5-16.1,12.9-24.2,19.4
					C45.7,349.3,46.7,349.8,47.2,349.4L47.2,349.4z"/>
			</g>
		</g>
		<g>
			<path class="st0" d="M67.4,332.6c-1.8-2.3-3-5-4.9-7.3c-0.2-0.2-1.2,0.3-1.2,0.3c1.9,2.2,3.1,4.9,4.9,7.3
				C66.3,333.1,67.4,332.6,67.4,332.6L67.4,332.6z"/>
		</g>
		<g>
			<path class="st0" d="M62.5,335.7c-1.6-2-3.2-4-4.8-6c-0.2-0.3-1.4-0.5-1.1-0.1c1.6,2,3.2,4,4.8,6
				C61.6,335.8,62.8,336.1,62.5,335.7L62.5,335.7z"/>
		</g>
	</g>
</g>
</svg>
