<?xml version="1.0" encoding="utf-8"?>
<!-- Generator: Adobe Illustrator 22.1.0, SVG Export Plug-In . SVG Version: 6.00 Build 0)  -->
<svg version="1.1" id="Layer_1" xmlns="http://www.w3.org/2000/svg" xmlns:xlink="http://www.w3.org/1999/xlink" x="0px" y="0px"
	 viewBox="0 0 1400 639" style="enable-background:new 0 0 1400 639;" xml:space="preserve">
<style type="text/css">
	.st0{fill:#2C9942;}
</style>
<g>
	<g>
		<g>
			<path class="st0" d="M30.8,539.5c2.4,15.2,9.2,29.4,22.5,37.9c12.1,7.8,27,9.9,41.1,9.1c14.5-0.8,30.1-3.3,39.9-15.1
				c10.3-12.4,12-30.1,10.1-45.5c-1.4-11.2-4.1-21.9-11.6-30.5c-5.9-6.8-13.4-12-21.4-16c-16.4-8.2-37.1-12.2-54.7-5.5
				C30.2,484.2,27.3,514.9,30.8,539.5c0.1,0.6,1.3,0.6,1.2,0c-3-21.2-2.1-47.8,17.7-60.8c15.3-10,35.8-8.2,52.3-2.2
				c14.9,5.5,31.3,15.9,37,31.4c5.4,14.5,6.6,32.2,2.3,47.1c-4.7,16.2-16.2,25.7-32.5,28.8c-15.8,3-33.1,3.1-48-3.5
				c-16.8-7.5-26-23.1-28.8-40.8C31.9,538.9,30.7,538.9,30.8,539.5z"/>
		</g>
		<g>
			<path class="st0" d="M77.5,479.3c-10.3,3.6-21.1,6.6-29.9,13.3c-9.6,7.2-14.1,18.1-12.8,29.9c2.3,21.1,14.3,45.5,34.8,54.1
				c17.4,7.4,38.8,4.5,53.8-7c17.4-13.3,22.5-37.8,12.4-57.3c-11.6-22.4-38.9-34-63.3-31.7c-0.8,0.1-0.2,0.9,0.3,0.9
				c21.8-2.1,45.5,7.1,58.4,25.3c12.2,17.3,11.3,41.8-3.5,57.3c-12.8,13.4-33.2,18.6-51,14.1c-22-5.6-34-26.5-39.2-47.3
				c-3.2-13-2-25.9,8.3-35.3c9-8.2,21.2-11.4,32.3-15.4C78.8,479.9,78,479.1,77.5,479.3L77.5,479.3z"/>
		</g>
		<g>
			<path class="st0" d="M93.4,497.5c-2.5,0.3-5,0-7.4,0.1c0.1,0.4,0.3,0.8,0.4,1.2c1.7-1.2,3-2.8,4.7-3.9c0.2-0.1,0.3-0.4,0.2-0.6
				c-0.4-1.3-0.9-3.3-2.4-3.7c-1.1-0.4-2.3,0.3-3.4,0.5c-0.7,0.1-0.4,1.3,0.3,1.2c0.8-0.2,1.5-0.5,2.3-0.6c1.4-0.1,1.8,1.7,2.1,2.8
				c0.1-0.2,0.2-0.4,0.2-0.6c-1.7,1.2-3,2.7-4.7,3.9c-0.5,0.4-0.2,1.2,0.4,1.2c2.5,0,5,0.2,7.4-0.1
				C94.5,498.7,94.1,497.5,93.4,497.5L93.4,497.5z"/>
		</g>
		<g>
			<path class="st0" d="M78.5,489c-0.5,3.5-0.3,7.4,1.3,10.5c0.1,0.2,1.2-0.2,1.2-0.2c-1.7-3.2-1.8-7-1.3-10.5
				C79.7,488.8,78.5,488.8,78.5,489L78.5,489z"/>
		</g>
		<g>
			<path class="st0" d="M95.4,562.3c-5,0.8-8.1,8.6-3.9,12c1.2,1,3,1.4,4.5,0.7c1.9-0.9,2.2-2.9,1.8-4.8c0-0.2-0.2-0.3-0.4-0.3
				c-2.7-0.6-5.2,0.1-6.6,2.6c-0.3,0.6,0.9,0.7,1.2,0.2c0.7-1.4,2.3-2.5,3.9-2.1c1,0.3,1,1.4,0.6,2.4c-0.7,1.6-2.5,1.6-3.8,0.8
				c-3.9-2.7-1.5-10,2.9-10.6C96.3,563.1,96.1,562.2,95.4,562.3L95.4,562.3z"/>
		</g>
		<g>
			<path class="st0" d="M53.3,532.5c1.1-2.4-0.1-4.5-2.9-4.3c-2.9,0.2-5,2.8-4.7,5.7c0,0.3,0.4,0.5,0.6,0.5c3.1,0.5,5.2-1.3,6.3-4
				c-0.4-0.1-0.8-0.1-1.2-0.2c0.5,1.7,0.8,3.6,0.7,5.4c-0.1,0.9-0.2,1.8-0.8,2.5c-0.6,0.8-2.5,1.5-3.3,0.5c-0.1,0.2-0.1,0.4-0.2,0.6
				c0.3-0.1,0.7,0.1,1-0.1c0.6-0.3-0.4-1-0.9-0.7c-0.2,0.1-0.6-0.1-0.8,0c-0.3,0.1-0.4,0.3-0.2,0.6c1.4,1.8,4.8,1.2,5.7-0.7
				c1.2-2.4,0.5-5.6-0.2-8c-0.1-0.4-1-0.6-1.2-0.2c-0.9,2.3-2.6,4-5.2,3.6c0.2,0.2,0.4,0.3,0.6,0.5c-0.2-2.1,0.9-4.1,3-4.8
				c2.3-0.8,3,0.8,2.2,2.8C51.9,532.6,53.1,533,53.3,532.5L53.3,532.5z"/>
		</g>
		<g>
			<path class="st0" d="M127,529.1c-0.2-0.6-0.5-1.6,0.2-2c0.4-0.3,1.1-0.1,1.5,0.2c2,1.3-0.4,3.5-1.5,4.3c0.3,0.2,0.6,0.5,0.8,0.7
				c0.5-0.5,1.6-1.7,2.4-1.2c0.5,0.3,0.6,1.2,0.6,1.8c-0.1,2.1-1.8,3.1-3.7,2.3c-0.6-0.2-1.2,0.8-0.5,1.1c2.8,1.1,5.5-0.7,5.4-3.8
				c0-1-0.4-2.2-1.5-2.5c-1.4-0.5-2.8,0.8-3.7,1.7c-0.5,0.5,0.4,1.1,0.8,0.7c1.2-0.9,2.7-2.2,2.7-3.9c0-1.1-0.6-1.9-1.6-2.3
				c-0.8-0.4-1.9-0.4-2.7,0.2c-1,0.8-0.9,2.1-0.5,3.2C126.1,530.3,127.3,529.8,127,529.1L127,529.1z"/>
		</g>
		<g>
			<path class="st0" d="M103.7,494.1c-0.5,1.1-0.9,2.3-1.2,3.5c-0.2,0.7,1,1.1,1.2,0.4c0.3-1.2,0.7-2.4,1.2-3.5
				C105.1,493.8,103.9,493.4,103.7,494.1L103.7,494.1z"/>
		</g>
		<g>
			<path class="st0" d="M113,498.2c-1.1,1.6-2.5,2.9-4.1,4.1c-0.1,0.1,0.9,0.6,1.1,0.4c1.6-1.1,3-2.5,4.1-4.1
				C114.3,498.5,113.2,497.9,113,498.2L113,498.2z"/>
		</g>
		<g>
			<path class="st0" d="M115.8,509.9c1.2-1.3,2.9-2.1,4.7-2.3c-0.1,0-0.6-0.9-0.9-0.9c-1.8,0.2-3.4,1-4.7,2.3
				C114.8,509.1,115.7,510,115.8,509.9L115.8,509.9z"/>
		</g>
		<g>
			<path class="st0" d="M121.1,516.2c1.4-0.2,2.7-0.4,4.1-0.6c0,0-0.7-0.7-1-0.6c-1.4,0.2-2.7,0.4-4.1,0.6
				C120.2,515.6,120.8,516.3,121.1,516.2L121.1,516.2z"/>
		</g>
		<g>
			<path class="st0" d="M126.2,544.4c1.7-0.8,3.2-0.5,4.4,1c0.4,0.4,1.5,0.1,1.1-0.5c-1.6-2-3.9-2.4-6.1-1.3
				C124.8,544,125.6,544.7,126.2,544.4L126.2,544.4z"/>
		</g>
		<g>
			<path class="st0" d="M120.3,550.7c1.2,1,2.4,2.1,3.3,3.3c0.2,0.2,0.5,0.4,0.8,0.4c0.2,0,0.4-0.2,0.2-0.4
				c-1.1-1.4-2.3-2.6-3.7-3.7C120.4,549.9,119.7,550.1,120.3,550.7L120.3,550.7z"/>
		</g>
		<g>
			<path class="st0" d="M113.7,559.6c0.9,0.8,1.6,1.8,2.3,2.8c0.3,0.5,1.4-0.1,1.1-0.5c-0.7-1.1-1.5-2.1-2.4-3
				C114.3,558.5,113.3,559.1,113.7,559.6L113.7,559.6z"/>
		</g>
		<g>
			<path class="st0" d="M104.9,565.3c1.1,1.5,1.9,3.3,2.3,5.2c0.1,0.5,1.3,0.1,1.2-0.4c-0.4-1.9-1.2-3.8-2.4-5.4
				C105.7,564.4,104.6,565,104.9,565.3L104.9,565.3z"/>
		</g>
		<g>
			<path class="st0" d="M80.9,565.3c-1,1.7-1.4,3.5-1.3,5.5c0,0.6,1.2,1,1.1,0.3c-0.1-1.8,0.2-3.5,1.1-5
				C82.2,565.5,81.3,564.7,80.9,565.3L80.9,565.3z"/>
		</g>
		<g>
			<path class="st0" d="M72.1,564.2c-0.5,0.8-1,1.6-1.7,2.3c-0.3,0.3,0.8,0.9,1,0.7c0.7-0.7,1.3-1.5,1.8-2.4
				C73.4,564.4,72.3,563.9,72.1,564.2L72.1,564.2z"/>
		</g>
		<g>
			<path class="st0" d="M69.2,556.7c-2,1.6-4,3-5.9,4.7c0,0,0.9,0.6,1.2,0.3c1.9-1.7,3.9-3.1,5.8-4.7
				C70.4,557,69.4,556.5,69.2,556.7L69.2,556.7z"/>
		</g>
		<g>
			<path class="st0" d="M50.1,549.2c1.7-0.6,3.5-1.2,5.3-1.8c0.2-0.1-0.3-1.2-0.6-1.1c-1.8,0.6-3.5,1.1-5.3,1.8
				C49.3,548.2,49.8,549.3,50.1,549.2L50.1,549.2z"/>
		</g>
		<g>
			<path class="st0" d="M42.8,523.2c1.7-0.6,3.5-0.8,5.2-0.1c0.7,0.3,0.8-0.1,0.2-0.4c-2.1-0.9-4.3-0.9-6.5-0.1
				C41.5,522.7,42.4,523.3,42.8,523.2L42.8,523.2z"/>
		</g>
		<g>
			<path class="st0" d="M44.2,513.4c1.7,1,3.6,1.6,5.6,1.8c0.8,0.1,0.8-0.8,0.1-0.9c-1.8-0.2-3.4-0.8-5-1.7
				C44.4,512.3,43.5,513,44.2,513.4L44.2,513.4z"/>
		</g>
		<g>
			<path class="st0" d="M58.5,504.5c-1.2-1.5-2.4-3-3.4-4.6c-0.3-0.5-1.4,0.1-1.1,0.5c1.1,1.6,2.3,3.2,3.6,4.8
				C57.8,505.5,58.9,504.9,58.5,504.5L58.5,504.5z"/>
		</g>
		<g>
			<path class="st0" d="M64.6,498.1c0.9,1.4,1.7,2.9,2.3,4.5c0.2,0.7,1.3,0.4,1.1-0.3c-0.6-1.7-1.4-3.3-2.4-4.8
				C65.1,496.8,64.1,497.4,64.6,498.1L64.6,498.1z"/>
		</g>
		<g>
			<path class="st0" d="M46,506.3c2.8,0.5,5.4,2.1,8.2,2.9c0.5,0.2-0.4-0.6-0.6-0.7c-2.8-0.8-5.4-2.4-8.2-2.9
				C44.8,505.5,45.8,506.3,46,506.3L46,506.3z"/>
		</g>
		<g>
			<path class="st0" d="M89.4,532.1c-4.4-2.3-5-8.8-4.9-13.2c0-1.5,1.1-10.7,3.3-10.7c2.8,0.1,1.9,21.1,2.4,23.9
				c0.1,0.4,1.3,0.6,1.2,0.2c-0.7-4.5-0.3-9.1-0.5-13.6c-0.1-3.6,0-8.2-2.5-11.1c-0.2-0.3-0.8-0.5-1.1-0.2c-5.9,5.1-6.1,21.1,1.4,25
				C89,532.7,90.1,532.5,89.4,532.1L89.4,532.1z"/>
		</g>
		<g>
			<path class="st0" d="M87.7,531.7c-6.6-0.5-14.4,0.7-19.8,4.8c-2.4,1.8-6.1,5.8-2.2,8.2c3.1,1.9,7.9-1.3,10.6-2.8
				c5.1-2.7,9.8-6,14.9-8.5c0.5-0.3-0.2-1.3-0.7-1c-6.8,3.4-12.9,8.4-20.1,11c-0.6,0.2-1.2,0.6-1.8,0.6c-1.3,0.1-3.5-0.5-3.4-2.4
				c0.1-2,3.6-4.2,5.2-5.1c5-3.1,12-4,17.7-3.5C88.7,532.9,88.3,531.8,87.7,531.7L87.7,531.7z"/>
		</g>
	</g>
	<g>
		<path class="st0" d="M66.6,452c0.8-14-3.3-27.4-6.6-40.9c-0.1-0.5-1.3-0.1-1.2,0.4c3.2,13.4,7.4,26.7,6.6,40.7
			C65.3,452.7,66.5,452.4,66.6,452L66.6,452z"/>
	</g>
	<g>
		<path class="st0" d="M42.6,465.7c0.7-4.6-0.3-8.9-3-12.7c-0.5-0.6-0.1,0.5,0,0.7c2.3,3.3,2.9,7.1,2.3,11
			C41.9,465,42.6,465.8,42.6,465.7L42.6,465.7z"/>
	</g>
	<g>
		<path class="st0" d="M90.3,458.7C87,447.2,88.9,435,89,423.2c0-0.4-1.2-0.7-1.2-0.3c-0.1,11.9-2,24,1.3,35.6
			C89.2,458.9,90.4,459.1,90.3,458.7L90.3,458.7z"/>
	</g>
	<g>
		<path class="st0" d="M110,468c5.5-6.3,8.9-14,13.2-21.1c0,0-1.1-0.5-1.2-0.2c-4.2,7.1-7.7,14.8-13.2,21.1
			C108.8,467.7,109.8,468.2,110,468L110,468z"/>
	</g>
	<g>
		<path class="st0" d="M137.5,484c14.3-12.7,24.5-30.1,41.5-39.6c0.6-0.3-0.5-0.9-0.9-0.7c-17,9.5-27.2,26.9-41.5,39.6
			C136,483.8,137.1,484.4,137.5,484L137.5,484z"/>
	</g>
	<g>
		<path class="st0" d="M158.7,510c8.4-6.8,18.8-10,28.9-13.1c-0.2,0.1-0.9-0.2-1.2-0.1c-10.2,3.2-20.6,6.3-29,13.2
			C157.7,509.8,158.5,510.2,158.7,510L158.7,510z"/>
	</g>
	<g>
		<path class="st0" d="M167.8,529.8c7.2-1,14.4-1.4,21.6-1.3c0.2,0,1.4-0.1,0.6-0.1c-7.8-0.2-15.5,0.2-23.1,1.4
			C166.4,529.8,167.6,529.8,167.8,529.8L167.8,529.8z"/>
	</g>
	<g>
		<path class="st0" d="M159.8,561.8c22.7,1.1,42.8,12.7,64.4,18.4c0.6,0.2-0.2-0.7-0.5-0.8c-21.7-5.7-41.8-17.4-64.6-18.5
			C158.6,560.9,159.4,561.8,159.8,561.8L159.8,561.8z"/>
	</g>
	<g>
		<path class="st0" d="M147.5,579.8c4.3,2.3,8.8,4.1,13,6.5c0.4,0.2,1.1,0.4,0.4,0c-4.3-2.5-8.9-4.4-13.3-6.7
			C147,579.4,146.9,579.5,147.5,579.8L147.5,579.8z"/>
	</g>
	<g>
		<path class="st0" d="M121.3,596.1c12.6,6.2,24.6,14.1,33.9,24.7c0.5,0.6,1,0.2,0.5-0.4c-9.5-10.9-21.7-19-34.6-25.3
			C120.5,594.8,121,595.9,121.3,596.1L121.3,596.1z"/>
	</g>
	<g>
		<path class="st0" d="M91.7,604.7c1.6,4.7,4.2,8.9,6.6,13.3c0.2,0.4,1.4,0.4,1.1-0.1c-2.4-4.3-4.9-8.4-6.5-13.1
			C92.7,604.4,91.5,604.3,91.7,604.7L91.7,604.7z"/>
	</g>
	<g>
		<path class="st0" d="M62.8,598.5c-1.3,7.7-4.1,14.9-6.6,22.3c-0.1,0.4,0.9-0.2,1-0.4c2.5-7.4,5.3-14.7,6.6-22.5
			C63.9,597.7,62.9,598.1,62.8,598.5L62.8,598.5z"/>
	</g>
	<g>
		<path class="st0" d="M35.1,587.5c-3.4,2.8-7.3,4.1-11.8,3.9c-0.1,0,0.8,0.3,1,0.4c4.5,0.1,8.4-1.2,11.9-4
			C36.2,587.9,35.3,587.3,35.1,587.5L35.1,587.5z"/>
	</g>
	<g>
		<path class="st0" d="M28.3,478.4c-2.2-4.3-4.9-8.2-8-11.9c-0.3-0.3-1.4-0.4-1,0.1c3,3.7,5.7,7.5,7.8,11.8
			C27.4,478.7,28.6,478.9,28.3,478.4L28.3,478.4z"/>
	</g>
	<g>
		<g>
			<path class="st0" d="M1296.8,419.8c13.2-9.1,24-21.1,36.4-31.3c0.5-0.4-0.5-1.1-0.9-0.7c-12.3,10.2-23.2,22.2-36.4,31.3
				C1295.3,419.5,1296.3,420.1,1296.8,419.8L1296.8,419.8z"/>
		</g>
		<g>
			<path class="st0" d="M1332.8,387c-4.7,0.7-12,1-15.4,4.8c-0.1,0.2,0.8,0.5,0.9,0.5c3.8,0.6,7.5,3.6,10.7,5.7c0.1,0.1,1,0.5,1,0.3
				c0.8-3.7,2.5-7,4.5-10.2c0.1-0.2-1-0.7-1.2-0.5c-1.9,3.2-3.7,6.5-4.5,10.2c0.3,0.1,0.7,0.2,1,0.3c-3.7-2.5-7.8-5.7-12.3-6.4
				c0.3,0.2,0.6,0.3,0.9,0.5c3.4-3.7,10.6-4,15.3-4.8C1333.9,387.5,1333.1,386.9,1332.8,387L1332.8,387z"/>
		</g>
	</g>
	<g>
		<g>
			<path class="st0" d="M1259.5,29.1c-0.8,0.8-1.8,1.3-2.4,2.3c-0.2,0.4,0.7,1.3,0.9,0.8c0.5-1,1.5-1.5,2.3-2.2
				C1260.7,29.7,1259.9,28.8,1259.5,29.1L1259.5,29.1z"/>
		</g>
		<g>
			<path class="st0" d="M1245.1,41c-1.3,0.6-2.5,1.3-3.2,2.6c-0.3,0.6,0.9,0.9,1.2,0.3c0.5-1,1.6-1.5,2.6-2
				C1246.4,41.5,1245.7,40.7,1245.1,41L1245.1,41z"/>
		</g>
		<g>
			<path class="st0" d="M1222.7,49.7c-1.8,0-3.6,0-5.3,0.5c-0.7,0.2-0.1,1.3,0.5,1.1c1.6-0.5,3.3-0.5,5-0.5
				C1223.7,50.9,1223.3,49.7,1222.7,49.7L1222.7,49.7z"/>
		</g>
		<g>
			<path class="st0" d="M1199.9,50.7c-2.2,0.5-4.4,1-6.7,0.5c-0.4-0.1-1.3,0.7-0.8,0.8c2.4,0.6,4.8,0.1,7.2-0.5
				C1200.1,51.4,1200.7,50.5,1199.9,50.7L1199.9,50.7z"/>
		</g>
		<g>
			<path class="st0" d="M1178.2,48c-2.6-0.6-5.1-1.2-7.4-2.4c0.1,0.1,0.3,0.9,0.6,1c2.4,1.2,4.9,1.8,7.4,2.4
				C1178.7,49,1178.5,48,1178.2,48L1178.2,48z"/>
		</g>
		<g>
			<path class="st0" d="M1155.5,40.9c-1.8-2.4-4.3-3.7-7.4-3.8c-0.7,0-0.9,1.1-0.1,1.2c2.6,0.1,4.8,1.2,6.4,3.3
				C1154.9,42.1,1155.9,41.5,1155.5,40.9L1155.5,40.9z"/>
		</g>
		<g>
			<path class="st0" d="M1138.1,31.4c-2-2-4.4-3.1-7.1-3.7c-0.8-0.2-0.7,1-0.1,1.1c2.5,0.6,4.8,1.6,6.6,3.4
				C1138.1,32.7,1138.6,31.9,1138.1,31.4L1138.1,31.4z"/>
		</g>
		<g>
			<path class="st0" d="M1118.3,20.3c-1.8-1.8-4.1-3-6.5-3.7c-0.7-0.2-1.2,0.6-0.4,0.8c2.3,0.6,4.3,1.7,6,3.4
				C1117.8,21.2,1118.9,20.8,1118.3,20.3L1118.3,20.3z"/>
		</g>
		<g>
			<path class="st0" d="M1088.2,12.7c-1.8-1.2-3.8-1.8-5.9-2.5c-0.8-0.3-0.8,0.8-0.2,1c1.9,0.7,3.9,1.2,5.6,2.3
				C1088.5,14.1,1088.8,13.1,1088.2,12.7L1088.2,12.7z"/>
		</g>
		<g>
			<path class="st0" d="M1068.3,10.7c-4-1.2-8-0.5-11.8,1c-0.5,0.2,0.4,1.1,0.8,0.9c3.7-1.4,7.5-2.2,11.3-1
				C1069.3,11.8,1068.7,10.8,1068.3,10.7L1068.3,10.7z"/>
		</g>
		<g>
			<path class="st0" d="M1046.3,14.8c-4.2,0.1-7.7,2.3-11.1,4.5c-0.5,0.3,0.1,1.4,0.6,1.1c3.4-2.2,6.8-4.3,10.9-4.4
				C1047.3,16,1046.9,14.8,1046.3,14.8L1046.3,14.8z"/>
		</g>
		<g>
			<path class="st0" d="M1028.2,25.2c-3,2.2-4.7,5.5-6.4,8.7c-0.3,0.5,1,0.7,1.2,0.3c1.7-3.2,3.4-6.3,6.3-8.5
				C1029.7,25.2,1028.6,24.9,1028.2,25.2L1028.2,25.2z"/>
		</g>
		<g>
			<path class="st0" d="M1031.9,37.9c-4.3,2.9-8.4,5.9-11.3,10.3c0.4-0.1,0.8-0.2,1.2-0.3c-1.4-5-5.3-8.2-9.1-11.5
				c-0.2-0.2-1.2,0.4-1.2,0.4c3.8,3.3,7.7,6.5,9.1,11.5c0,0.2,1.1-0.2,1.2-0.3c2.9-4.3,7-7.3,11.2-10.2
				C1033.2,37.6,1032.2,37.7,1031.9,37.9L1031.9,37.9z"/>
		</g>
		<g>
			<path class="st0" d="M1030,52.5c-3.2,2.7-5.7,6-8,9.5c0.4-0.2,0.7-0.3,1.1-0.5c-2.7-3.2-5.7-6-9-8.6c-0.3-0.2-1.2,0.5-1.1,0.6
				c3.3,2.6,6.3,5.4,9,8.6c0.2,0.2,1-0.3,1.1-0.5c2.2-3.5,4.7-6.7,7.8-9.4C1031.3,51.9,1030.2,52.3,1030,52.5L1030,52.5z"/>
		</g>
	</g>
	<g>
		<g>
			<path class="st0" d="M152.1,61.9c1.5,2.1,3.3,4,5.1,5.8c0.4,0.4-0.1-0.7-0.3-0.9c-1.7-1.7-3.4-3.4-4.8-5.4
				C151.7,60.7,151.9,61.5,152.1,61.9L152.1,61.9z"/>
		</g>
		<g>
			<path class="st0" d="M164.8,76.3c1.9,1.3,3.6,3,5.6,4.3c0.5,0.4,1.4-0.4,0.8-0.9c-1.9-1.3-3.6-3-5.6-4.3
				C165.1,75.1,164.2,75.9,164.8,76.3L164.8,76.3z"/>
		</g>
		<g>
			<path class="st0" d="M154.2,76.3c-1.9,1.3-3.5,3.2-5,5c-0.3,0.4,0.9,0.7,1.2,0.4c1.4-1.7,3-3.6,4.9-4.9
				C155.7,76.4,154.5,76,154.2,76.3L154.2,76.3z"/>
		</g>
		<g>
			<path class="st0" d="M170.8,61.5c-2,2-4.3,3.7-5.6,6.2c-0.1,0.2,1,0.6,1.2,0.3c1.3-2.5,3.6-4.2,5.5-6.1
				C172.1,61.7,171,61.2,170.8,61.5L170.8,61.5z"/>
		</g>
	</g>
	<g>
		<g>
			<path class="st0" d="M1330.3,572.9c-3.2-0.6-4.9,2.4-4.2,5.3c0.5,2.1,2.3,4.1,4.5,4.7c4,1.1,7.5-3.8,6.2-7.4
				c-1-2.7-3.9-4.2-6.5-5c-0.3-0.1,0.4,0.7,0.7,0.8c2.7,0.8,5.3,2.5,5,5.7c-0.2,1.8-1.2,3.4-2.7,4.4c-1.9,1.3-4.2,1-5.5-0.9
				c-1.8-2.7-0.7-7.5,3.2-6.7C1331.4,573.7,1330.6,572.9,1330.3,572.9L1330.3,572.9z"/>
		</g>
	</g>
	<g>
		<g>
			<path class="st0" d="M67,147.5c-2.2-0.4-4.5,1-5.1,3.1c-0.7,2.6,1,6,3.7,6.8c3.7,1,7.5-2.9,7.4-6.4c-0.1-3.3-3.2-5.1-6-5.9
				c-0.3-0.1-1.2,0.7-0.9,0.8c2.3,0.7,4.9,1.9,5.6,4.4c0.6,1.9-0.1,4-1.4,5.3c-1.4,1.4-3.5,1.6-5.2,0.3c-1.1-0.9-2-2.2-2.2-3.7
				c-0.4-2.1,0.7-4.5,3.2-4C66.4,148.3,67.2,147.5,67,147.5L67,147.5z"/>
		</g>
	</g>
	<g>
		<g>
			<path class="st0" d="M1334.3,200.6c0.8,0-0.4-0.2-0.6-0.2C1332.9,200.4,1334,200.6,1334.3,200.6L1334.3,200.6z"/>
		</g>
		<g>
			<path class="st0" d="M1336.9,207.5c5.5,3.1,10.7,6.6,15.7,10.5c2.4,1.9,4.7,3.8,7,5.9c0.5,0.5,6,7.1,6.9,7.1s-3.3-5.4-3.8-5.9
				c-2.3-3-4.6-6-6.7-9.1c-3.7-5.6-6.8-11.5-9-17.9c-0.1-0.3-0.8-0.9-1-0.3c-0.9,4.6-3.3,8.8-7.9,10.7c-0.5,0.2,0.2,1.2,0.6,1
				c3.3-1.4,5.7-4,7.1-7.3c0.9-2.1,0.3-3.3,1.3-0.8c0.9,2.1,1.8,4.3,2.9,6.3c4.6,8.9,11,16.7,17.2,24.5c0.5,0.6,1,0.1,0.6-0.5
				c-8.3-10.3-19.4-18.5-30.9-25.1C1336.3,206.2,1336.4,207.2,1336.9,207.5L1336.9,207.5z"/>
		</g>
		<g>
			<g>
				<path class="st0" d="M1354.5,215.4c-32.5-26.7-30.8-81.3-12.2-115.5c5.7-10.5,13.5-19.8,23.6-26.1c0.7-0.4-0.4-0.1-0.7,0
					c-17.2,10.7-27.6,29.5-32.9,48.6c-5.7,20.9-6,44.1,1.3,64.6c4,11.2,10.5,21.3,19.6,28.9C1353.6,216.1,1354.5,215.4,1354.5,215.4
					L1354.5,215.4z"/>
			</g>
			<g>
				<path class="st0" d="M1324.3,109.7c3.2-9.5,8.6-17.9,13.8-26.4c0.2-0.4-0.8-1.1-1-0.7c-5.1,8.5-10.5,17-13.8,26.4
					C1323.1,109.4,1324.1,110,1324.3,109.7L1324.3,109.7z"/>
			</g>
		</g>
	</g>
	<g>
		<g>
			<path class="st0" d="M1137.9,478.5c1.8-0.6,3.9-1.6,5.8-1c0.8,0.3,0.9-0.9,0.3-1.1c-2.2-0.8-4.6,0.3-6.7,1
				C1136.7,477.7,1137.3,478.8,1137.9,478.5L1137.9,478.5z"/>
		</g>
		<g>
			<path class="st0" d="M1156.5,480.5c2.2,0.2,4.1,0.9,5.8,2.3c0.2,0.2,1.3,0.6,0.7,0.1c-2.2-1.8-4.5-2.8-7.4-3.1
				C1155.4,479.8,1156.3,480.5,1156.5,480.5L1156.5,480.5z"/>
		</g>
		<g>
			<path class="st0" d="M1171.7,494.7c1.7,1.4,3.7,2.5,4.8,4.6c0.1,0.3,1.2,0.3,1.2,0.2c-1-2.1-3.1-3.2-4.9-4.7
				c-0.2-0.2-0.6-0.3-0.8-0.3C1171.8,494.6,1171.4,494.6,1171.7,494.7L1171.7,494.7z"/>
		</g>
		<g>
			<path class="st0" d="M1179.5,514.9c0.5,1.2-0.1,2.5,0.4,3.7c0.2,0.4,1.4,0.6,1.1,0c-0.5-1.2,0.1-2.5-0.4-3.7
				C1180.5,514.5,1179.3,514.3,1179.5,514.9L1179.5,514.9z"/>
		</g>
		<g>
			<path class="st0" d="M1166.4,541.4c-1.7,1.9-4.8,3-7.4,2.7c-0.5-0.1-1.3,0.8-0.6,0.9c3,0.3,6.7-0.9,8.8-3.2
				C1167.8,541.1,1166.8,540.9,1166.4,541.4L1166.4,541.4z"/>
		</g>
		<g>
			<path class="st0" d="M1142,547.7c-1.4-0.5-3-0.4-4.5-0.9c-0.7-0.2-1.4,0.7-0.7,1c1.4,0.5,3,0.4,4.5,0.9
				C1142,548.9,1142.7,548,1142,547.7L1142,547.7z"/>
		</g>
		<g>
			<path class="st0" d="M1177.5,525.9c-2,2.2-2.6,5.3-4.6,7.5c-0.5,0.6,0.6,1,1.1,0.5c2-2.2,2.6-5.3,4.6-7.5
				C1179.1,525.9,1177.9,525.4,1177.5,525.9L1177.5,525.9z"/>
		</g>
	</g>
	<g>
		<g>
			<path class="st0" d="M486.5,508.4c12.6-9.5,25.4-18.6,38.6-27.2c0.6-0.4-0.3-1-0.8-0.8c-10.7,4.3-21.1,9.1-32.1,12.6
				c-0.7,0.2,0,0.9,0.5,0.9c12.9-1.3,24.6-8.4,34.8-16c-0.3-0.2-0.6-0.5-1-0.7c-7.5,7.7-14.2,16.5-18,26.7c0.4,0.1,0.8,0.2,1.2,0.3
				c0.3-8.5-8.4-11.9-15.7-11.1c-0.8,0.1-0.3,1,0.3,0.9c6.7-0.7,14.4,2.2,14.2,10.1c0,0.5,1,0.8,1.2,0.3
				c3.8-10.1,10.5-18.8,17.9-26.5c0.4-0.4-0.6-1-1-0.7c-8.8,6.7-18.8,12.9-29.8,15.2c-0.2,0-4.5,1-2.2,1c1.2,0,3.3-1.1,4.5-1.6
				c2.7-1,5.4-2,8-3.1c6-2.4,11.8-5,17.8-7.4c-0.3-0.3-0.5-0.5-0.8-0.8c-13.2,8.6-26,17.7-38.6,27.2
				C485,508.1,486,508.7,486.5,508.4L486.5,508.4z"/>
		</g>
		<g>
			<path class="st0" d="M452.7,535.2c6.5-5.3,13-10.6,19.6-15.8c0.5-0.4-0.5-1.2-0.8-0.9c-6.6,5.2-13.2,10.5-19.7,15.9
				C451.3,534.7,452.3,535.5,452.7,535.2L452.7,535.2z"/>
		</g>
		<g>
			<path class="st0" d="M404.4,555.8c2.2-1.6,14.7-11.6,16.8-8.8c0.7,1-1.1,6.2-1.3,7.5c-0.6,3-1.1,6-1.6,9.1c0,0.2,1.1-0.1,1.2-0.2
				c7-6.2,14.1-12.4,21.2-18.4c0.2-0.2-0.9-0.1-1.1,0.1c-7.1,6.1-14.2,12.2-21.2,18.4c0.4-0.1,0.8-0.1,1.2-0.2
				c0.9-6.1,2.3-12.1,3.1-18.2c0-0.2-0.9,0-0.9,0.1c-6.7,2.7-12.6,6.4-18.4,10.6C403,556,404.1,555.9,404.4,555.8L404.4,555.8z"/>
		</g>
		<g>
			<path class="st0" d="M362.5,592.3c12-8.7,22.2-19.6,33.4-29.4c0.6-0.5-0.4-0.9-0.9-0.5c-11,9.7-21.2,20.6-33.1,29.2
				C361.1,592.1,361.9,592.7,362.5,592.3L362.5,592.3z"/>
		</g>
	</g>
	<g>
		<g>
			<path class="st0" d="M1194.4,249c0,10.6,0,21.2,1.9,31.6c0.1,0.3,1.3,0,1.2-0.4c-1.8-10.4-1.9-21-1.9-31.5
				C1195.6,248.3,1194.4,248.6,1194.4,249L1194.4,249z"/>
		</g>
		<g>
			<path class="st0" d="M1180.3,264.3c9.9-1,19.8,1,29.7-0.6c0.8-0.1,0.3-1.2-0.4-1.1c-9.9,1.6-19.8-0.4-29.7,0.6
				C1179.2,263.2,1179.6,264.3,1180.3,264.3L1180.3,264.3z"/>
		</g>
	</g>
	<g>
		<path class="st0" d="M1139.3,447.2c-0.1,3.8,0.6,6.7,3,9.6c0.1,0.1,0.6,0.6,0.7,0.4c10.7-11.3,15.8-26.1,24.2-38.9
			c-0.3-0.3-0.6-0.5-0.9-0.8c-2.8,15.5-14.4,27.9-16.4,43.7c0,0.2,0.7,1,0.9,0.8c6.3-6.6,13.6-10.7,22.4-12.8
			c-0.3-0.3-0.6-0.6-0.9-0.9c-2.8,3.7-5.5,7.3-8.8,10.4c-0.2,0.2,0.7,1,0.9,0.8c3.4-2.2,7.1-3.5,10.8-5.1c-0.3-0.3-0.6-0.6-0.9-0.9
			c-3.5,3.9-7.4,7.4-10.6,11.6c-0.2,0.3,0.6,0.9,0.9,0.9c17.8-3.7,29.3-20.4,47-24.8c-0.3-0.3-0.6-0.6-0.9-0.9
			c-12.2,10-22.7,22.5-37.1,29.6c-0.3,0.2,0.5,0.9,0.8,0.9c8.3-1.2,16.1-4.5,24.4-5c-0.3-0.3-0.6-0.6-0.9-0.9
			c-4.2,5.4-10.5,7.9-16.3,11c-0.2,0.1,0.6,0.9,0.9,0.9c3.1-0.5,6.3-0.4,9.5-0.8c-0.3-0.3-0.6-0.6-0.9-0.9c-2.6,1.9-4.8,4.3-7.5,6.1
			c-0.3,0.2,0.7,0.9,0.9,0.9c6.3-0.6,12.7-1,19.1-1.1c3.3,0,6.6,0,9.9,0.1c2.1,0.1,4.1,0.2,6.2,0.5c0.7,0.1,1.5,0.2,2.2,0.3
			c1,0.1,1,0.1,0,0.1c-1.5,1.8-7.1,2.8-9.3,3.5c-3.3,1-6.6,1.9-9.9,2.7c-6.6,1.5-13.2,2.8-19.8,4.3c-0.4,0.1,0.6,0.9,0.7,0.9
			c7.2,1.6,14.7,0.8,22,1.8c0.6,0.1,4.4,0.4,4.4,1.2c0,0.2-4.4,1.3-4.7,1.4c-3.5,1.2-6.6,2.7-9.3,5.3c-0.2,0.2,0.6,0.8,0.8,0.9
			c1.4,0.1,10,2,9.5,3.7c-0.1,0.3-6.8,2.1-7.6,2.3c-0.3,0.1,0.3,0.7,0.4,0.7c0.5,0.4,1.4,0.7,1.6,1.4c0.3,1-1.2,1-2.3,1.3
			c-2.4,0.8-4.7,1.5-7.2,1.7c-0.3,0,0.3,0.7,0.4,0.7c7.5,5.8,17.2,8.6,26.3,10.9c10.1,2.5,20.5,4.1,30.9,5.2c2,0.2,6.2,1.5,8.2,0.8
			s-2-0.8-2.7-0.7c-9,0.3-18,0.5-27,0.4c-11.9-0.1-24.4,0.2-36-2.6c-0.4-0.1,0.3,0.7,0.4,0.8c4.6,2.5,8.2,7.5,11.6,11.5
			c0.5,0.6,2.3,2.1,2.2,2.7c-0.1,0.6-4.7,0.5-5.1,0.5c-4.2-0.1-8.3-1-12.3-2c-0.1,0-0.2,0-0.1,0.2c0.9,2.5,1.3,5.1,2.1,7.6
			c1,3.2,1.3,3-2.4,1.7c-5.6-1.9-11.2-2.4-17-1.1c-0.3,0.1,0.2,0.6,0.3,0.6c3.6,3.4,7.4,6.7,10.9,10.2c1.8,1.8,4.2,3.9,5.3,6.2
			c1.2,2.5,0.3,1.5-1.5,0.3c-1-0.7-1.9-1.4-2.9-2.1c-5.4-4.1-10.5-8.1-17.4-9.3c-0.1,0-0.2,0-0.2,0.1c0.4,5.8,1.6,11.5,2.7,17.2
			c0.7,3.5,0.7,7.2,1.5,10.7c0.3,1.4,0.9,2.8,0.2,0.6c-0.3-0.7-0.9-2.1-1.2-2.8c-4-7.9-11.3-13.8-18.5-18.7c-0.1,0-0.6-0.4-0.5,0
			c4.8,15.2,5.3,31.2,5.9,47c0,0.3,0.9,1.1,1,0.7c1.8-8.5,0.4-17.8-1.8-26.1c-1.9-7.4-4.8-15.3-10.2-20.8c-0.1-0.1-0.7-0.6-0.7-0.3
			c-1.3,12.3,0.8,25-2.4,37.1c0.3,0.2,0.6,0.5,1,0.7c2.9-12.3-3.6-24.4-3.9-36.6c0-0.4-1-0.9-1-0.7c0.3,12.3,6.8,24.3,3.9,36.6
			c-0.1,0.3,0.9,1,1,0.7c2.2-8.3,1.9-16.9,1.9-25.4c0-1.5-0.4-11.1,0.4-11.4c1.1-0.3,4.7,7.1,5.1,8c5.2,11,8.4,25.4,5.8,37.5
			c0.3,0.2,0.6,0.5,1,0.7c-0.4-12.2-0.7-24.6-3.1-36.6c-0.3-1.4-2.8-7.8-2.2-8.8c0.7-1.3,0.8-0.5,2.1,0.4c1.4,1,2.8,2.1,4.1,3.2
			c5.6,4.8,10.4,10.5,12.4,17.7c0.1,0.2,1,0.9,1,0.6c-0.1-4.3-0.6-8.5-1.4-12.7c-0.4-2.4-1-4.8-1.4-7.2c-0.4-2.1-2.4-8.1-0.7-9.7
			c3.7-3.6,18.3,10.1,22.5,12.4c0.2,0.1,0.5,0.2,0.3-0.2c-3.4-5.3-7.7-9.8-12.3-14.1c-1.1-1-3-2.1-3.7-3.4c-1.5-0.6-1.6-1.3-0.4-2.1
			c1.2-0.2,2.4-0.4,3.6-0.4c5.4-0.2,10.5,1.4,15.4,3.5c0.2,0.1,0.3,0,0.2-0.2c-1.3-2.1-1.8-4.3-2.4-6.7c-0.7-2.9-1.4-3.7,2.2-3.2
			c5,0.6,9.2,1.4,14.3,0.8c0.2,0,0-0.3-0.1-0.4c-2.6-3.2-5.3-6.4-8.1-9.4c-1.5-1.6-3-3.2-4.7-4.5c-1.4-1.1-2.3-0.9-0.5-0.5
			c7.5,1.9,15.9,1.8,23.6,2.1c13.6,0.4,27.3,0.2,40.9-0.3c0.2,0-0.5-0.9-0.7-0.9c-9.7-0.7-19.3-2-28.9-3.7c-7.9-1.5-15.8-3.3-23.4-6
			c-3.4-1.3-6.8-2.7-10-4.6c-3.5-2.1-2-1.3,0.9-2c2.5-0.6,4.8-1.7,7.4-2.2c0.3-0.1-0.3-0.7-0.4-0.7c-0.4-0.3-0.8-0.6-1.3-0.9
			c-1.1-1-0.9-1.5,0.6-1.6c1.2-1.1,4-1.4,5.5-1.6c0.3,0-0.3-0.7-0.4-0.7c-3.5-2.7-6.5-4.3-11-4.7c0.3,0.3,0.5,0.6,0.8,0.9
			c4.4-4,9.9-5.5,15.6-7c0.3-0.1-0.5-0.8-0.6-0.9c-4.2-1.6-8.5-2-12.9-2.2c-3.5-0.2-7-0.2-10.5-0.5c-1.1-0.1-2.3-0.2-3.4-0.4
			c-1-0.2-0.9-0.1,0.4,0.1c0.8-0.2,1.6-0.4,2.4-0.5c12.4-2.7,25-4.8,36.5-10.3c0.3-0.2-0.5-0.9-0.7-0.9c-13.1-2-26.6-1.4-39.7-0.1
			c0.3,0.3,0.6,0.6,0.9,0.9c2.7-1.8,4.8-4.2,7.5-6.1c0.3-0.2-0.7-0.9-0.9-0.9c-3.2,0.4-6.3,0.3-9.5,0.8c0.3,0.3,0.6,0.6,0.9,0.9
			c5.8-3.2,12.1-5.7,16.3-11c0.2-0.3-0.6-0.9-0.9-0.9c-8.4,0.5-16.2,3.8-24.4,5c0.3,0.3,0.5,0.6,0.8,0.9
			c14.4-7.1,24.9-19.6,37.2-29.6c0.2-0.2-0.6-0.9-0.9-0.9c-17.6,4.3-29.2,21.1-47,24.8c0.3,0.3,0.6,0.6,0.9,0.9
			c3.2-4.2,7.1-7.7,10.6-11.6c0.2-0.2-0.6-1-0.9-0.9c-3.7,1.6-7.5,2.9-10.9,5.1c0.3,0.3,0.6,0.6,0.9,0.8c3.4-3.1,6.1-6.8,8.8-10.4
			c0.2-0.3-0.6-0.9-0.9-0.9c-8.9,2.1-16.2,6.2-22.5,12.8c0.3,0.3,0.6,0.5,0.9,0.8c1.9-15.7,13.6-28.1,16.4-43.7c0-0.2-0.8-1-0.9-0.8
			c-4.6,7.1-8.3,14.8-12.4,22.2c-2,3.6-4.1,7.1-6.5,10.4c-0.6,0.9-3.1,5-4.2,5.1c-3.5,0.3-3-5.2-3-7.2
			C1140.3,447.5,1139.3,446.9,1139.3,447.2L1139.3,447.2z"/>
	</g>
	<g>
		<path class="st0" d="M143,296.9c-17.3,0.2-35.5,1.9-52.5-2.4c0.1,0,0.5,0.8,0.9,0.8c17,4.3,35.2,2.6,52.5,2.4
			C143.8,297.7,143.3,296.9,143,296.9L143,296.9z"/>
	</g>
	<g>
		<path class="st0" d="M42.9,281.8c23.5,0.1,47,2.8,70.5,3c0.3,0,1.2-0.4,1-0.4c-23.5-0.2-47-2.9-70.5-3
			C43.6,281.4,42.7,281.8,42.9,281.8L42.9,281.8z"/>
	</g>
	<g>
		<g>
			<path class="st0" d="M1127.4,545.1c-2.4-0.2-4.2-1.1-6-2.5c-0.1-0.1-0.7-0.2-0.6-0.1c2.2,1.7,4.4,2.6,7.2,2.9
				C1128.2,545.4,1127.5,545.1,1127.4,545.1L1127.4,545.1z"/>
		</g>
		<g>
			<path class="st0" d="M1111.9,530.5c-1.7-1.4-3.8-2.5-4.8-4.6c-0.1-0.2-0.8-0.1-0.7,0.1c1,2.1,3,3.2,4.8,4.7
				C1111.4,530.9,1112,530.7,1111.9,530.5L1111.9,530.5z"/>
		</g>
		<g>
			<path class="st0" d="M1103.8,510.6c-0.5-1.2,0.1-2.5-0.4-3.7c-0.1-0.2-0.5-0.6-0.4-0.2c0.5,1.2-0.1,2.5,0.4,3.7
				C1103.5,510.6,1104,511,1103.8,510.6L1103.8,510.6z"/>
		</g>
		<g>
			<path class="st0" d="M1117.1,484.1c1.9-2.1,5.3-3.2,8.1-3c-0.1,0-0.3-0.5-0.5-0.5c-2.8-0.3-6.2,0.9-8.1,3
				C1116.5,483.7,1117.1,484.2,1117.1,484.1L1117.1,484.1z"/>
		</g>
		<g>
			<path class="st0" d="M1105.9,499.5c2-2.2,2.6-5.3,4.6-7.5c0.3-0.3-0.3-0.8-0.6-0.5c-2,2.2-2.6,5.3-4.6,7.5
				C1105.1,499.4,1105.7,499.8,1105.9,499.5L1105.9,499.5z"/>
		</g>
	</g>
	<g>
		<path class="st0" d="M1137.3,578c0.1-3.5-0.5-6.5-2.8-9.2c-0.1-0.1-0.5-0.2-0.7-0.1c-5.3,5.6-9.3,12.1-13,18.9
			c-1.8,3.4-3.6,6.8-5.4,10.2c-1,1.9-2.1,3.8-3.2,5.7c-0.4,0.6-1.5,4.2-1.5,2.1c0.1-3.3,2.2-7.3,3.5-10.3c1.5-3.4,3.2-6.8,4.9-10.2
			c3.3-6.7,6.6-13.5,7.5-21c0-0.2-0.6-0.3-0.7-0.2c-4.3,4.5-9.2,8.3-15.1,10.6c-3.1,1.2-7.7,3.7-4.1-1.1c1.9-2.5,3.9-4.8,6.2-6.9
			c0.2-0.2-0.5-0.4-0.6-0.3c-1.7,1.2-3.5,2.1-5.5,2.9c-0.9,0.4-1.8,0.9-2.8,1.1c-1.5,0.4-1.3,1-0.5-0.4c2.4-3.6,6.4-6.4,9.1-9.9
			c0.2-0.2-0.5-0.3-0.6-0.3c-15,3.1-25.5,15.7-39.1,22c-0.8,0.4-6.6,2.3-6.6,2.4c0-0.6,3.3-2.9,3.9-3.3c3.2-2.8,6.3-5.7,9.4-8.6
			c7.1-6.5,14.4-12.7,23-17c0.3-0.2-0.4-0.3-0.5-0.3c-2.3,0.3-21.9,6.2-22.6,4.8c-1.6-3,12.6-9.3,15-10.6c0.3-0.2-0.4-0.3-0.5-0.3
			c-0.8,0.1-7.7,0.9-7.8,0.4c-0.2-0.8,6.2-5.3,6.3-5.4c0.3-0.2-0.3-0.3-0.5-0.3c-6.1,0.6-12.1,1-18.2,1.1c-3.6,0.1-7.1,0-10.7-0.1
			c-1.6-0.1-3.2-0.2-4.7-0.3c-1.3-0.1-4.3,0.1-4.1-1.1c0.3-1.2,9.2-3.5,10.1-3.8c3-0.9,6.1-1.7,9.1-2.4c6.6-1.5,13.2-2.8,19.8-4.3
			c0.3-0.1-0.1-0.3-0.2-0.3c-7.3-1.6-14.7-0.8-22.1-1.8c-1.4-0.2-5.8-0.2-4.9-1.8c0.3-0.5,4.1-1.2,4.8-1.4c3.5-1.2,6.6-2.7,9.3-5.3
			c0.2-0.2-0.3-0.3-0.4-0.3c-1-0.1-9.9-1.8-9.2-4.1c0.3-0.8,6.6-2.4,6.8-2.5c0.1,0,0.2-0.1,0-0.2c-2-1.4-3.7-2-0.5-3
			c2.6-0.8,5-1.7,7.8-1.9c0.2,0,0.3-0.1,0.1-0.2c-7.5-5.8-17.2-8.6-26.2-10.8c-9.9-2.4-20-4-30.2-5.1c-2.8-0.3-5.9-1-8.7-0.8
			c-2.2,0.1,0.6,0.2,1.4,0.2c8.8-0.3,17.5-0.5,26.3-0.4c12.2,0,25.2-0.3,37.1,2.6c0.2,0.1,0.6-0.1,0.2-0.3
			c-4.6-2.5-8.2-7.4-11.5-11.3c-0.5-0.6-1.7-1.5-1.9-2.3c-0.5-1.5-0.5-1.1,1.4-1.5c4.7-0.8,10.3,0.8,14.9,1.9c0.1,0,0.5,0,0.4-0.1
			c-0.9-2.5-1.3-5.1-2.1-7.6c-1.4-4.3,0.3-2.2,3.9-1.1c5.2,1.5,10.2,1.7,15.5,0.5c0.1,0,0.2-0.1,0.1-0.2c-3.5-3.2-7.1-6.4-10.4-9.8
			c-1.7-1.7-3.6-3.6-5-5.6c-0.3-0.5-1.6-1.8-1-2.5c0.1-0.1,2.8,1.9,2.9,2.1c5.8,4.3,11.1,8.8,18.4,10.1c0.1,0,0.4,0,0.4-0.1
			c-0.4-5.5-1.5-10.9-2.5-16.3c-0.6-3-1.1-5.9-1.4-9c0-0.2-0.5-4.3-0.7-4.1c-0.3,0.2,1.2,3.1,1.3,3.4c3.9,8.1,11.2,14,18.5,19
			c0.1,0.1,0.7,0.2,0.6,0c-4.8-15.3-5.3-31.2-5.9-47.1c0-0.2-0.7-0.4-0.7-0.1c-1.7,8.1-0.5,16.8,1.5,24.7
			c1.9,7.7,4.7,16.1,10.4,21.8c0.1,0.1,0.7,0.3,0.7,0.1c0.6-6.2,0.5-12.4,0.5-18.7c0-3.2,0.1-6.3,0.4-9.5c0.1-1,1.4-7.8,0.5-7.6
			c-2.1,0.5,0.6,14.3,0.9,15.8c1.3,6.4,3.1,12.7,3.3,19.3c0,0.3,0.7,0.3,0.7,0.1c-0.3-12.3-6.8-24.3-3.9-36.6
			c0.1-0.2-0.7-0.4-0.7-0.1c-1.9,7.2-1.9,14.5-1.9,21.9c0,4,0.1,8-0.2,12c-0.1,1.4,0.5,2.8-0.9,1.9c-0.6-0.4-1.4-1.9-1.8-2.5
			c-6.4-9.6-9.2-22.7-9.4-34c0-2.2,0.2-4.4,0.4-6.6c0.2-2.4-0.2,1.7-0.2,2.6c0.1,2.2,0.2,4.3,0.3,6.5c0.3,7.3,0.8,14.6,2,21.9
			c0.6,3.6,1.6,7.1,2.3,10.6c0.6,2.6,1.1,2.5-0.8,1.7c-1.7-0.6-3.5-2.6-4.9-3.8c-5.7-4.9-10.6-10.7-12.7-18
			c-0.1-0.2-0.7-0.3-0.7-0.1c0.1,4.3,0.6,8.5,1.4,12.7c0.5,2.7,4.3,15.3,2.3,16.9c-4.2,3.2-18-10-22.4-12.5c-0.1,0-0.7-0.1-0.6,0.1
			c3.2,5,7.1,9.2,11.4,13.2c1.4,1.3,6.5,4.5,5.1,6.5c-1.2,1.6-9.1,0.1-10.4-0.2c-2.9-0.6-5.6-1.7-8.4-2.8c-0.1,0-0.7-0.1-0.6,0.1
			c1.2,1.9,1.7,3.9,2.3,6.1c0.8,3,1.9,4.4-1.8,3.9c-5-0.6-9.3-1.4-14.4-0.8c-0.1,0-0.3,0.1-0.2,0.2c2.9,3.5,5.7,7,8.9,10.2
			c1.3,1.4,2.7,2.6,4.2,3.8c1.5,1.3,1.4,0.7-0.5,0.3c-7.8-1.7-16.3-1.7-24.3-1.9c-13.1-0.3-26.2-0.2-39.2,0.4c-0.5,0,0,0.3,0.2,0.4
			c10,0.7,20,2.1,29.9,3.9c7.9,1.5,15.8,3.3,23.3,6.2c3.1,1.2,8.1,2.7,10.4,5.2c1.4,1.5,0.2,1.1-1.9,1.6c-2.5,0.6-4.8,1.7-7.4,2.2
			c-0.1,0-0.2,0.1,0,0.2c0.9,0.7,2.8,1.2,2.3,2.5c-0.4,1.1-5.8,1.9-6.7,2c-0.2,0-0.2,0.1,0,0.2c2.6,2,5,2.8,7.8,4.2
			c0.9,0.4,1.2-0.1,1.6,0.7c0.6,1.2-2.7,2.3-3.7,2.9c-3.3,1.7-7,2.6-10.6,3.5c-0.3,0.1,0,0.3,0.1,0.3c4.4,1.7,9,2.1,13.7,2.3
			c2.8,0.1,5.6,0.1,8.4,0.3c0.6,0,5.5,0.4,5.5,0.6c-0.1,0.5-3.6,1-3.7,1c-12.1,2.6-24.5,4.7-35.7,10.2c-0.2,0.1,0.2,0.3,0.3,0.3
			c7.7,1.2,15.5,1.4,23.3,1.2c4.3-0.1,8.6-0.4,12.9-0.7c2.1-0.2,2.3-0.6,1.2,0.8c-1.3,1.7-3.8,3.4-5.5,4.7c-0.2,0.1,0.4,0.3,0.5,0.3
			c0.8-0.1,7.7-1,7.9-0.5c0.1,0.1-4.2,2.2-4.6,2.4c-4,2.1-7.8,4.4-10.7,8.1c-0.2,0.2,0.4,0.3,0.5,0.3c5.9-0.3,11.4-2.1,17.1-3.5
			c1.5-0.4,3.4-1.2,4.9-1.1c1.6,0.1,0.1,0.1-0.8,0.7c-2.2,1.4-4.5,2.7-6.7,4.3c-10,7.1-18.2,16.2-27.7,24c-0.2,0.2,0.5,0.3,0.6,0.3
			c10.7-2.6,19.3-9.6,28.3-15.7c4.3-3,8.8-5.9,13.8-7.7c1.1-0.4,3.6-1.8,3.4-0.4c-0.2,1-2.5,2.8-3.1,3.5c-2.2,2.3-4.4,4.5-6.5,6.8
			c-0.2,0.2,0.5,0.3,0.6,0.3c1.8-0.8,3.6-1.4,5.4-2.2c0.9-0.4,1.9-0.8,2.8-1.3c1.6-0.5,1.9-0.8,0.9-0.8c-0.1,1-3.4,3.8-4.1,4.7
			c-1.2,1.5-2.4,3.1-3.6,4.7c-0.2,0.2,0.5,0.3,0.6,0.3c5.3-1.2,10.4-3.1,14.9-6.2c1.9-1.3,3.6-3.4,5.6-4.5c2-1.1,0.9-1.2,1,0.6
			c0.1,1.6-0.9,3.6-1.4,5.1c-4,12.2-12.3,22.8-14.6,35.7c0,0.2,0.6,0.3,0.7,0.2c4.8-7.3,8.5-15.3,12.8-22.9c2.1-3.8,4.4-7.6,7.1-11
			c1.3-1.6,2.9-5.3,5.3-2.9c1.5,1.5,1.2,5,1.1,6.8C1136.5,578.1,1137.3,578.2,1137.3,578L1137.3,578z"/>
	</g>
</g>
</svg>
