<?xml version="1.0" encoding="utf-8"?>
<!-- Generator: Adobe Illustrator 22.1.0, SVG Export Plug-In . SVG Version: 6.00 Build 0)  -->
<svg version="1.1" id="Layer_1" xmlns="http://www.w3.org/2000/svg" xmlns:xlink="http://www.w3.org/1999/xlink" x="0px" y="0px"
	 viewBox="0 0 1400 639" style="enable-background:new 0 0 1400 639;" xml:space="preserve">
<style type="text/css">
	.st0{fill:#2C9942;}
</style>
<g>
	<g>
		<g>
			<path class="st0" d="M1137.9,478.5c1.8-0.6,3.9-1.6,5.8-1c0.8,0.3,0.9-0.9,0.3-1.1c-2.2-0.8-4.6,0.3-6.7,1
				C1136.7,477.7,1137.3,478.8,1137.9,478.5L1137.9,478.5z"/>
		</g>
		<g>
			<path class="st0" d="M1156.5,480.5c2.2,0.2,4.1,0.9,5.8,2.3c0.2,0.2,1.3,0.6,0.7,0.1c-2.2-1.8-4.5-2.8-7.4-3.1
				C1155.4,479.8,1156.3,480.5,1156.5,480.5L1156.5,480.5z"/>
		</g>
		<g>
			<path class="st0" d="M1171.7,494.7c1.7,1.4,3.7,2.5,4.8,4.6c0.1,0.3,1.2,0.3,1.2,0.2c-1-2.1-3.1-3.2-4.9-4.7
				c-0.2-0.2-0.6-0.3-0.8-0.3C1171.8,494.6,1171.4,494.6,1171.7,494.7L1171.7,494.7z"/>
		</g>
		<g>
			<path class="st0" d="M1179.5,514.9c0.5,1.2-0.1,2.5,0.4,3.7c0.2,0.4,1.4,0.6,1.1,0c-0.5-1.2,0.1-2.5-0.4-3.7
				C1180.5,514.5,1179.3,514.3,1179.5,514.9L1179.5,514.9z"/>
		</g>
		<g>
			<path class="st0" d="M1166.4,541.4c-1.7,1.9-4.8,3-7.4,2.7c-0.5-0.1-1.3,0.8-0.6,0.9c3,0.3,6.7-0.9,8.8-3.2
				C1167.8,541.1,1166.8,540.9,1166.4,541.4L1166.4,541.4z"/>
		</g>
		<g>
			<path class="st0" d="M1142,547.7c-1.4-0.5-3-0.4-4.5-0.9c-0.7-0.2-1.4,0.7-0.7,1c1.4,0.5,3,0.4,4.5,0.9
				C1142,548.9,1142.7,548,1142,547.7L1142,547.7z"/>
		</g>
		<g>
			<path class="st0" d="M1177.5,525.9c-2,2.2-2.6,5.3-4.6,7.5c-0.5,0.6,0.6,1,1.1,0.5c2-2.2,2.6-5.3,4.6-7.5
				C1179.1,525.9,1177.9,525.4,1177.5,525.9L1177.5,525.9z"/>
		</g>
	</g>
	<g>
		<path class="st0" d="M1139.3,447.2c-0.1,3.8,0.6,6.7,3,9.6c0.1,0.1,0.6,0.6,0.7,0.4c10.7-11.3,15.8-26.1,24.2-38.9
			c-0.3-0.3-0.6-0.5-0.9-0.8c-2.8,15.5-14.4,27.9-16.4,43.7c0,0.2,0.7,1,0.9,0.8c6.3-6.6,13.6-10.7,22.4-12.8
			c-0.3-0.3-0.6-0.6-0.9-0.9c-2.8,3.7-5.5,7.3-8.8,10.4c-0.2,0.2,0.7,1,0.9,0.8c3.4-2.2,7.1-3.5,10.8-5.1c-0.3-0.3-0.6-0.6-0.9-0.9
			c-3.5,3.9-7.4,7.4-10.6,11.6c-0.2,0.3,0.6,0.9,0.9,0.9c17.8-3.7,29.3-20.4,47-24.8c-0.3-0.3-0.6-0.6-0.9-0.9
			c-12.2,10-22.7,22.5-37.1,29.6c-0.3,0.2,0.5,0.9,0.8,0.9c8.3-1.2,16.1-4.5,24.4-5c-0.3-0.3-0.6-0.6-0.9-0.9
			c-4.2,5.4-10.5,7.9-16.3,11c-0.2,0.1,0.6,0.9,0.9,0.9c3.1-0.5,6.3-0.4,9.5-0.8c-0.3-0.3-0.6-0.6-0.9-0.9c-2.6,1.9-4.8,4.3-7.5,6.1
			c-0.3,0.2,0.7,0.9,0.9,0.9c6.3-0.6,12.7-1,19.1-1.1c3.3,0,6.6,0,9.9,0.1c2.1,0.1,4.1,0.2,6.2,0.5c0.7,0.1,1.5,0.2,2.2,0.3
			c1,0.1,1,0.1,0,0.1c-1.5,1.8-7.1,2.8-9.3,3.5c-3.3,1-6.6,1.9-9.9,2.7c-6.6,1.5-13.2,2.8-19.8,4.3c-0.4,0.1,0.6,0.9,0.7,0.9
			c7.2,1.6,14.7,0.8,22,1.8c0.6,0.1,4.4,0.4,4.4,1.2c0,0.2-4.4,1.3-4.7,1.4c-3.5,1.2-6.6,2.7-9.3,5.3c-0.2,0.2,0.6,0.8,0.8,0.9
			c1.4,0.1,10,2,9.5,3.7c-0.1,0.3-6.8,2.1-7.6,2.3c-0.3,0.1,0.3,0.7,0.4,0.7c0.5,0.4,1.4,0.7,1.6,1.4c0.3,1-1.2,1-2.3,1.3
			c-2.4,0.8-4.7,1.5-7.2,1.7c-0.3,0,0.3,0.7,0.4,0.7c7.5,5.8,17.2,8.6,26.3,10.9c10.1,2.5,20.5,4.1,30.9,5.2c2,0.2,6.2,1.5,8.2,0.8
			s-2-0.8-2.7-0.7c-9,0.3-18,0.5-27,0.4c-11.9-0.1-24.4,0.2-36-2.6c-0.4-0.1,0.3,0.7,0.4,0.8c4.6,2.5,8.2,7.5,11.6,11.5
			c0.5,0.6,2.3,2.1,2.2,2.7c-0.1,0.6-4.7,0.5-5.1,0.5c-4.2-0.1-8.3-1-12.3-2c-0.1,0-0.2,0-0.1,0.2c0.9,2.5,1.3,5.1,2.1,7.6
			c1,3.2,1.3,3-2.4,1.7c-5.6-1.9-11.2-2.4-17-1.1c-0.3,0.1,0.2,0.6,0.3,0.6c3.6,3.4,7.4,6.7,10.9,10.2c1.8,1.8,4.2,3.9,5.3,6.2
			c1.2,2.5,0.3,1.5-1.5,0.3c-1-0.7-1.9-1.4-2.9-2.1c-5.4-4.1-10.5-8.1-17.4-9.3c-0.1,0-0.2,0-0.2,0.1c0.4,5.8,1.6,11.5,2.7,17.2
			c0.7,3.5,0.7,7.2,1.5,10.7c0.3,1.4,0.9,2.8,0.2,0.6c-0.3-0.7-0.9-2.1-1.2-2.8c-4-7.9-11.3-13.8-18.5-18.7c-0.1,0-0.6-0.4-0.5,0
			c4.8,15.2,5.3,31.2,5.9,47c0,0.3,0.9,1.1,1,0.7c1.8-8.5,0.4-17.8-1.8-26.1c-1.9-7.4-4.8-15.3-10.2-20.8c-0.1-0.1-0.7-0.6-0.7-0.3
			c-1.3,12.3,0.8,25-2.4,37.1c0.3,0.2,0.6,0.5,1,0.7c2.9-12.3-3.6-24.4-3.9-36.6c0-0.4-1-0.9-1-0.7c0.3,12.3,6.8,24.3,3.9,36.6
			c-0.1,0.3,0.9,1,1,0.7c2.2-8.3,1.9-16.9,1.9-25.4c0-1.5-0.4-11.1,0.4-11.4c1.1-0.3,4.7,7.1,5.1,8c5.2,11,8.4,25.4,5.8,37.5
			c0.3,0.2,0.6,0.5,1,0.7c-0.4-12.2-0.7-24.6-3.1-36.6c-0.3-1.4-2.8-7.8-2.2-8.8c0.7-1.3,0.8-0.5,2.1,0.4c1.4,1,2.8,2.1,4.1,3.2
			c5.6,4.8,10.4,10.5,12.4,17.7c0.1,0.2,1,0.9,1,0.6c-0.1-4.3-0.6-8.5-1.4-12.7c-0.4-2.4-1-4.8-1.4-7.2c-0.4-2.1-2.4-8.1-0.7-9.7
			c3.7-3.6,18.3,10.1,22.5,12.4c0.2,0.1,0.5,0.2,0.3-0.2c-3.4-5.3-7.7-9.8-12.3-14.1c-1.1-1-3-2.1-3.7-3.4c-1.5-0.6-1.6-1.3-0.4-2.1
			c1.2-0.2,2.4-0.4,3.6-0.4c5.4-0.2,10.5,1.4,15.4,3.5c0.2,0.1,0.3,0,0.2-0.2c-1.3-2.1-1.8-4.3-2.4-6.7c-0.7-2.9-1.4-3.7,2.2-3.2
			c5,0.6,9.2,1.4,14.3,0.8c0.2,0,0-0.3-0.1-0.4c-2.6-3.2-5.3-6.4-8.1-9.4c-1.5-1.6-3-3.2-4.7-4.5c-1.4-1.1-2.3-0.9-0.5-0.5
			c7.5,1.9,15.9,1.8,23.6,2.1c13.6,0.4,27.3,0.2,40.9-0.3c0.2,0-0.5-0.9-0.7-0.9c-9.7-0.7-19.3-2-28.9-3.7c-7.9-1.5-15.8-3.3-23.4-6
			c-3.4-1.3-6.8-2.7-10-4.6c-3.5-2.1-2-1.3,0.9-2c2.5-0.6,4.8-1.7,7.4-2.2c0.3-0.1-0.3-0.7-0.4-0.7c-0.4-0.3-0.8-0.6-1.3-0.9
			c-1.1-1-0.9-1.5,0.6-1.6c1.2-1.1,4-1.4,5.5-1.6c0.3,0-0.3-0.7-0.4-0.7c-3.5-2.7-6.5-4.3-11-4.7c0.3,0.3,0.5,0.6,0.8,0.9
			c4.4-4,9.9-5.5,15.6-7c0.3-0.1-0.5-0.8-0.6-0.9c-4.2-1.6-8.5-2-12.9-2.2c-3.5-0.2-7-0.2-10.5-0.5c-1.1-0.1-2.3-0.2-3.4-0.4
			c-1-0.2-0.9-0.1,0.4,0.1c0.8-0.2,1.6-0.4,2.4-0.5c12.4-2.7,25-4.8,36.5-10.3c0.3-0.2-0.5-0.9-0.7-0.9c-13.1-2-26.6-1.4-39.7-0.1
			c0.3,0.3,0.6,0.6,0.9,0.9c2.7-1.8,4.8-4.2,7.5-6.1c0.3-0.2-0.7-0.9-0.9-0.9c-3.2,0.4-6.3,0.3-9.5,0.8c0.3,0.3,0.6,0.6,0.9,0.9
			c5.8-3.2,12.1-5.7,16.3-11c0.2-0.3-0.6-0.9-0.9-0.9c-8.4,0.5-16.2,3.8-24.4,5c0.3,0.3,0.5,0.6,0.8,0.9
			c14.4-7.1,24.9-19.6,37.2-29.6c0.2-0.2-0.6-0.9-0.9-0.9c-17.6,4.3-29.2,21.1-47,24.8c0.3,0.3,0.6,0.6,0.9,0.9
			c3.2-4.2,7.1-7.7,10.6-11.6c0.2-0.2-0.6-1-0.9-0.9c-3.7,1.6-7.5,2.9-10.9,5.1c0.3,0.3,0.6,0.6,0.9,0.8c3.4-3.1,6.1-6.8,8.8-10.4
			c0.2-0.3-0.6-0.9-0.9-0.9c-8.9,2.1-16.2,6.2-22.5,12.8c0.3,0.3,0.6,0.5,0.9,0.8c1.9-15.7,13.6-28.1,16.4-43.7c0-0.2-0.8-1-0.9-0.8
			c-4.6,7.1-8.3,14.8-12.4,22.2c-2,3.6-4.1,7.1-6.5,10.4c-0.6,0.9-3.1,5-4.2,5.1c-3.5,0.3-3-5.2-3-7.2
			C1140.3,447.5,1139.3,446.9,1139.3,447.2L1139.3,447.2z"/>
	</g>
	<g>
		<g>
			<path class="st0" d="M1127.4,545.1c-2.4-0.2-4.2-1.1-6-2.5c-0.1-0.1-0.7-0.2-0.6-0.1c2.2,1.7,4.4,2.6,7.2,2.9
				C1128.2,545.4,1127.5,545.1,1127.4,545.1L1127.4,545.1z"/>
		</g>
		<g>
			<path class="st0" d="M1111.9,530.5c-1.7-1.4-3.8-2.5-4.8-4.6c-0.1-0.2-0.8-0.1-0.7,0.1c1,2.1,3,3.2,4.8,4.7
				C1111.4,530.9,1112,530.7,1111.9,530.5L1111.9,530.5z"/>
		</g>
		<g>
			<path class="st0" d="M1103.8,510.6c-0.5-1.2,0.1-2.5-0.4-3.7c-0.1-0.2-0.5-0.6-0.4-0.2c0.5,1.2-0.1,2.5,0.4,3.7
				C1103.5,510.6,1104,511,1103.8,510.6L1103.8,510.6z"/>
		</g>
		<g>
			<path class="st0" d="M1117.1,484.1c1.9-2.1,5.3-3.2,8.1-3c-0.1,0-0.3-0.5-0.5-0.5c-2.8-0.3-6.2,0.9-8.1,3
				C1116.5,483.7,1117.1,484.2,1117.1,484.1L1117.1,484.1z"/>
		</g>
		<g>
			<path class="st0" d="M1105.9,499.5c2-2.2,2.6-5.3,4.6-7.5c0.3-0.3-0.3-0.8-0.6-0.5c-2,2.2-2.6,5.3-4.6,7.5
				C1105.1,499.4,1105.7,499.8,1105.9,499.5L1105.9,499.5z"/>
		</g>
	</g>
	<g>
		<path class="st0" d="M1137.3,578c0.1-3.5-0.5-6.5-2.8-9.2c-0.1-0.1-0.5-0.2-0.7-0.1c-5.3,5.6-9.3,12.1-13,18.9
			c-1.8,3.4-3.6,6.8-5.4,10.2c-1,1.9-2.1,3.8-3.2,5.7c-0.4,0.6-1.5,4.2-1.5,2.1c0.1-3.3,2.2-7.3,3.5-10.3c1.5-3.4,3.2-6.8,4.9-10.2
			c3.3-6.7,6.6-13.5,7.5-21c0-0.2-0.6-0.3-0.7-0.2c-4.3,4.5-9.2,8.3-15.1,10.6c-3.1,1.2-7.7,3.7-4.1-1.1c1.9-2.5,3.9-4.8,6.2-6.9
			c0.2-0.2-0.5-0.4-0.6-0.3c-1.7,1.2-3.5,2.1-5.5,2.9c-0.9,0.4-1.8,0.9-2.8,1.1c-1.5,0.4-1.3,1-0.5-0.4c2.4-3.6,6.4-6.4,9.1-9.9
			c0.2-0.2-0.5-0.3-0.6-0.3c-15,3.1-25.5,15.7-39.1,22c-0.8,0.4-6.6,2.3-6.6,2.4c0-0.6,3.3-2.9,3.9-3.3c3.2-2.8,6.3-5.7,9.4-8.6
			c7.1-6.5,14.4-12.7,23-17c0.3-0.2-0.4-0.3-0.5-0.3c-2.3,0.3-21.9,6.2-22.6,4.8c-1.6-3,12.6-9.3,15-10.6c0.3-0.2-0.4-0.3-0.5-0.3
			c-0.8,0.1-7.7,0.9-7.8,0.4c-0.2-0.8,6.2-5.3,6.3-5.4c0.3-0.2-0.3-0.3-0.5-0.3c-6.1,0.6-12.1,1-18.2,1.1c-3.6,0.1-7.1,0-10.7-0.1
			c-1.6-0.1-3.2-0.2-4.7-0.3c-1.3-0.1-4.3,0.1-4.1-1.1c0.3-1.2,9.2-3.5,10.1-3.8c3-0.9,6.1-1.7,9.1-2.4c6.6-1.5,13.2-2.8,19.8-4.3
			c0.3-0.1-0.1-0.3-0.2-0.3c-7.3-1.6-14.7-0.8-22.1-1.8c-1.4-0.2-5.8-0.2-4.9-1.8c0.3-0.5,4.1-1.2,4.8-1.4c3.5-1.2,6.6-2.7,9.3-5.3
			c0.2-0.2-0.3-0.3-0.4-0.3c-1-0.1-9.9-1.8-9.2-4.1c0.3-0.8,6.6-2.4,6.8-2.5c0.1,0,0.2-0.1,0-0.2c-2-1.4-3.7-2-0.5-3
			c2.6-0.8,5-1.7,7.8-1.9c0.2,0,0.3-0.1,0.1-0.2c-7.5-5.8-17.2-8.6-26.2-10.8c-9.9-2.4-20-4-30.2-5.1c-2.8-0.3-5.9-1-8.7-0.8
			c-2.2,0.1,0.6,0.2,1.4,0.2c8.8-0.3,17.5-0.5,26.3-0.4c12.2,0,25.2-0.3,37.1,2.6c0.2,0.1,0.6-0.1,0.2-0.3
			c-4.6-2.5-8.2-7.4-11.5-11.3c-0.5-0.6-1.7-1.5-1.9-2.3c-0.5-1.5-0.5-1.1,1.4-1.5c4.7-0.8,10.3,0.8,14.9,1.9c0.1,0,0.5,0,0.4-0.1
			c-0.9-2.5-1.3-5.1-2.1-7.6c-1.4-4.3,0.3-2.2,3.9-1.1c5.2,1.5,10.2,1.7,15.5,0.5c0.1,0,0.2-0.1,0.1-0.2c-3.5-3.2-7.1-6.4-10.4-9.8
			c-1.7-1.7-3.6-3.6-5-5.6c-0.3-0.5-1.6-1.8-1-2.5c0.1-0.1,2.8,1.9,2.9,2.1c5.8,4.3,11.1,8.8,18.4,10.1c0.1,0,0.4,0,0.4-0.1
			c-0.4-5.5-1.5-10.9-2.5-16.3c-0.6-3-1.1-5.9-1.4-9c0-0.2-0.5-4.3-0.7-4.1c-0.3,0.2,1.2,3.1,1.3,3.4c3.9,8.1,11.2,14,18.5,19
			c0.1,0.1,0.7,0.2,0.6,0c-4.8-15.3-5.3-31.2-5.9-47.1c0-0.2-0.7-0.4-0.7-0.1c-1.7,8.1-0.5,16.8,1.5,24.7
			c1.9,7.7,4.7,16.1,10.4,21.8c0.1,0.1,0.7,0.3,0.7,0.1c0.6-6.2,0.5-12.4,0.5-18.7c0-3.2,0.1-6.3,0.4-9.5c0.1-1,1.4-7.8,0.5-7.6
			c-2.1,0.5,0.6,14.3,0.9,15.8c1.3,6.4,3.1,12.7,3.3,19.3c0,0.3,0.7,0.3,0.7,0.1c-0.3-12.3-6.8-24.3-3.9-36.6
			c0.1-0.2-0.7-0.4-0.7-0.1c-1.9,7.2-1.9,14.5-1.9,21.9c0,4,0.1,8-0.2,12c-0.1,1.4,0.5,2.8-0.9,1.9c-0.6-0.4-1.4-1.9-1.8-2.5
			c-6.4-9.6-9.2-22.7-9.4-34c0-2.2,0.2-4.4,0.4-6.6c0.2-2.4-0.2,1.7-0.2,2.6c0.1,2.2,0.2,4.3,0.3,6.5c0.3,7.3,0.8,14.6,2,21.9
			c0.6,3.6,1.6,7.1,2.3,10.6c0.6,2.6,1.1,2.5-0.8,1.7c-1.7-0.6-3.5-2.6-4.9-3.8c-5.7-4.9-10.6-10.7-12.7-18
			c-0.1-0.2-0.7-0.3-0.7-0.1c0.1,4.3,0.6,8.5,1.4,12.7c0.5,2.7,4.3,15.3,2.3,16.9c-4.2,3.2-18-10-22.4-12.5c-0.1,0-0.7-0.1-0.6,0.1
			c3.2,5,7.1,9.2,11.4,13.2c1.4,1.3,6.5,4.5,5.1,6.5c-1.2,1.6-9.1,0.1-10.4-0.2c-2.9-0.6-5.6-1.7-8.4-2.8c-0.1,0-0.7-0.1-0.6,0.1
			c1.2,1.9,1.7,3.9,2.3,6.1c0.8,3,1.9,4.4-1.8,3.9c-5-0.6-9.3-1.4-14.4-0.8c-0.1,0-0.3,0.1-0.2,0.2c2.9,3.5,5.7,7,8.9,10.2
			c1.3,1.4,2.7,2.6,4.2,3.8c1.5,1.3,1.4,0.7-0.5,0.3c-7.8-1.7-16.3-1.7-24.3-1.9c-13.1-0.3-26.2-0.2-39.2,0.4c-0.5,0,0,0.3,0.2,0.4
			c10,0.7,20,2.1,29.9,3.9c7.9,1.5,15.8,3.3,23.3,6.2c3.1,1.2,8.1,2.7,10.4,5.2c1.4,1.5,0.2,1.1-1.9,1.6c-2.5,0.6-4.8,1.7-7.4,2.2
			c-0.1,0-0.2,0.1,0,0.2c0.9,0.7,2.8,1.2,2.3,2.5c-0.4,1.1-5.8,1.9-6.7,2c-0.2,0-0.2,0.1,0,0.2c2.6,2,5,2.8,7.8,4.2
			c0.9,0.4,1.2-0.1,1.6,0.7c0.6,1.2-2.7,2.3-3.7,2.9c-3.3,1.7-7,2.6-10.6,3.5c-0.3,0.1,0,0.3,0.1,0.3c4.4,1.7,9,2.1,13.7,2.3
			c2.8,0.1,5.6,0.1,8.4,0.3c0.6,0,5.5,0.4,5.5,0.6c-0.1,0.5-3.6,1-3.7,1c-12.1,2.6-24.5,4.7-35.7,10.2c-0.2,0.1,0.2,0.3,0.3,0.3
			c7.7,1.2,15.5,1.4,23.3,1.2c4.3-0.1,8.6-0.4,12.9-0.7c2.1-0.2,2.3-0.6,1.2,0.8c-1.3,1.7-3.8,3.4-5.5,4.7c-0.2,0.1,0.4,0.3,0.5,0.3
			c0.8-0.1,7.7-1,7.9-0.5c0.1,0.1-4.2,2.2-4.6,2.4c-4,2.1-7.8,4.4-10.7,8.1c-0.2,0.2,0.4,0.3,0.5,0.3c5.9-0.3,11.4-2.1,17.1-3.5
			c1.5-0.4,3.4-1.2,4.9-1.1c1.6,0.1,0.1,0.1-0.8,0.7c-2.2,1.4-4.5,2.7-6.7,4.3c-10,7.1-18.2,16.2-27.7,24c-0.2,0.2,0.5,0.3,0.6,0.3
			c10.7-2.6,19.3-9.6,28.3-15.7c4.3-3,8.8-5.9,13.8-7.7c1.1-0.4,3.6-1.8,3.4-0.4c-0.2,1-2.5,2.8-3.1,3.5c-2.2,2.3-4.4,4.5-6.5,6.8
			c-0.2,0.2,0.5,0.3,0.6,0.3c1.8-0.8,3.6-1.4,5.4-2.2c0.9-0.4,1.9-0.8,2.8-1.3c1.6-0.5,1.9-0.8,0.9-0.8c-0.1,1-3.4,3.8-4.1,4.7
			c-1.2,1.5-2.4,3.1-3.6,4.7c-0.2,0.2,0.5,0.3,0.6,0.3c5.3-1.2,10.4-3.1,14.9-6.2c1.9-1.3,3.6-3.4,5.6-4.5s0.9-1.2,1,0.6
			c0.1,1.6-0.9,3.6-1.4,5.1c-4,12.2-12.3,22.8-14.6,35.7c0,0.2,0.6,0.3,0.7,0.2c4.8-7.3,8.5-15.3,12.8-22.9c2.1-3.8,4.4-7.6,7.1-11
			c1.3-1.6,2.9-5.3,5.3-2.9c1.5,1.5,1.2,5,1.1,6.8C1136.5,578.1,1137.3,578.2,1137.3,578L1137.3,578z"/>
	</g>
	<g>
		<g>
			<path class="st0" d="M1296.8,419.9c13.2-9.1,24.1-21.1,36.4-31.3c0.2-0.2-0.7-1-1-0.7c-12.3,10.2-23.1,22.1-36.3,31.2
				C1295.5,419.3,1296.5,420.1,1296.8,419.9L1296.8,419.9z"/>
		</g>
		<g>
			<path class="st0" d="M1332.9,386.9c-4.7,0.7-12,1-15.5,4.9c-0.2,0.3,0.5,0.7,0.7,0.7c4,0.6,7.7,3.6,11.1,5.9
				c0.2,0.1,0.8,0.4,0.9,0.1c0.8-3.7,2.5-6.9,4.4-10.1c0.2-0.4-0.9-1-1.1-0.6c-1.9,3.3-3.7,6.6-4.5,10.3c0.3,0,0.6,0,0.9,0.1
				c-3.6-2.4-7.5-5.6-11.9-6.3c0.2,0.2,0.5,0.5,0.7,0.7c3.3-3.7,10.6-4,15.2-4.7C1334.2,387.6,1333.3,386.8,1332.9,386.9
				L1332.9,386.9z"/>
		</g>
	</g>
	<g>
		<g>
			<path class="st0" d="M151.7,92c1.4,2.1,3.2,3.9,5,5.6c0.3,0.3,1.4-0.4,0.9-0.8c-1.7-1.7-3.5-3.5-4.9-5.5
				C152.4,90.9,151.4,91.5,151.7,92L151.7,92z"/>
		</g>
		<g>
			<path class="st0" d="M164.6,105.8c1.9,1.3,3.6,3,5.6,4.3c0.3,0.2,1.1,0.1,1.2,0.1c-1.9-1.3-3.6-3-5.6-4.3
				C165.5,105.8,164.7,105.9,164.6,105.8L164.6,105.8z"/>
		</g>
		<g>
			<path class="st0" d="M154.3,106c-1.9,1.3-3.5,3.2-5,5c-0.2,0.3,0.7,1.1,0.8,0.9c1.5-1.8,3.1-3.6,5-5
				C155.3,106.8,154.5,105.9,154.3,106L154.3,106z"/>
		</g>
		<g>
			<path class="st0" d="M170.8,91.5c-2,2-4.3,3.7-5.6,6.2c-0.1,0.1,1.1,0.5,1.2,0.2c1.3-2.5,3.6-4.2,5.5-6.2
				C172.1,91.7,171,91.3,170.8,91.5L170.8,91.5z"/>
		</g>
	</g>
	<g>
		<g>
			<path class="st0" d="M1330.6,572.8c-2.7-0.5-4.9,1.5-4.8,4.3c0.1,2.5,1.9,5.1,4.4,5.8c4,1.1,7.6-3.3,6.8-7.1
				c-0.7-3-3.7-4.6-6.4-5.5c-0.8-0.2-0.4,0.8,0.1,0.9c2.5,0.7,5.2,2.2,5.3,5.1c0.1,1.9-0.9,3.7-2.4,4.8c-1.6,1.1-3.6,1.3-5-0.2
				c-1.2-1.2-2-3.2-1.5-4.9c0.5-1.6,2-2.6,3.6-2.3C1331.5,573.9,1331.2,572.9,1330.6,572.8L1330.6,572.8z"/>
		</g>
	</g>
	<g>
		<g>
			<path class="st0" d="M66.9,177.5c-2.4-0.5-4.8,1.1-5.2,3.6c-0.4,2.6,1.4,5.6,4,6.3c3.8,1,7.7-2.9,7.3-6.7
				c-0.3-3.2-3.4-4.9-6.1-5.7c-0.4-0.1-1.4,0.5-0.7,0.8c2.4,0.7,5,2.1,5.6,4.8c0.4,1.9-0.5,3.9-1.9,5.1c-1.5,1.3-3.5,1.4-5,0
				c-1.2-1.1-2-2.6-2-4.2c0-1.9,1.3-3.7,3.3-3.3C66.6,178.3,67.6,177.6,66.9,177.5L66.9,177.5z"/>
		</g>
	</g>
	<g>
		<g>
			<path class="st0" d="M1334.2,200.9c0.8,0,0.1-0.8-0.4-0.8C1332.9,200.2,1333.7,200.9,1334.2,200.9L1334.2,200.9z"/>
		</g>
		<g>
			<path class="st0" d="M1337.3,207.5c4.8,2.7,9.3,5.8,13.7,9.1c5.4,4,9.7,9,14.7,13.3c1.4,1.2,0.4,0.2-0.2-0.6
				c-0.8-1.1-1.7-2.2-2.6-3.3c-1.8-2.3-3.7-4.7-5.4-7.1c-4.5-6.3-8.2-13-10.7-20.3c-0.1-0.2-0.8-0.9-0.8-0.9c-1,4.8-3.4,9-8,11
				c0,0,0.6,1.1,0.8,1c4.6-1.9,7.1-6.2,8-11c-0.3-0.3-0.5-0.6-0.8-0.9c4.5,13.1,12.8,23.7,21.4,34.3c0.4,0.5,0.6,0.5,0.1-0.1
				c-8.4-10.4-19.5-18.7-31-25.3C1336.7,206.6,1337,207.4,1337.3,207.5L1337.3,207.5z"/>
		</g>
		<g>
			<g>
				<path class="st0" d="M1354.5,215.4c-32.9-27.1-30.9-82.8-11.4-117c5.6-9.9,13.2-18.8,23-24.8c0.1-0.1-0.8,0.2-1,0.3
					c-17.1,10.7-27.5,29.5-32.7,48.5c-5.7,21-6,44.5,1.5,65.1c4,11,10.4,20.9,19.5,28.3C1353.5,216,1354.4,215.3,1354.5,215.4
					L1354.5,215.4z"/>
			</g>
			<g>
				<path class="st0" d="M1324.3,109.2c3.2-9.5,8.6-17.9,13.7-26.4c0.3-0.4-0.9-0.2-1.1,0.1c-5.1,8.6-10.6,17-13.8,26.5
					C1323,109.8,1324.2,109.6,1324.3,109.2L1324.3,109.2z"/>
			</g>
		</g>
	</g>
	<g>
		<g>
			<path class="st0" d="M486.5,508.4c12.5-9.4,25.3-18.5,38.5-27.1c0.7-0.4-0.2-1-0.8-0.8c-10.6,4.2-21,9.1-31.9,12.6
				c-0.7,0.2-0.3,1,0.3,0.9c13-1.3,24.7-8.4,34.9-16.1c-0.3-0.2-0.7-0.4-1-0.7c-7.5,7.7-14.2,16.5-18,26.7c0.4,0.1,0.8,0.2,1.2,0.3
				c0.3-8.5-8.2-11.9-15.6-11.2c-0.8,0.1-0.6,1,0.2,1c6.7-0.7,14.5,2.2,14.2,10c0,0.5,1,0.9,1.2,0.3c3.8-10.1,10.4-18.8,17.9-26.5
				c0.5-0.5-0.5-1-1-0.7c-4.7,3.6-9.7,6.9-15,9.6c-2.3,1.2-4.6,2.3-7,3.2c-2.9,1.1-6.5,1.4-9.2,2.6c-1.8,0.8,0.2,0.3,1,0.1
				c0.8-0.2,2-0.7,2.8-1c2.7-1,5.4-2,8-3.1c6-2.4,11.8-5,17.8-7.4c-0.3-0.3-0.5-0.5-0.8-0.8c-13.2,8.6-26.1,17.8-38.7,27.3
				C485,508.1,486,508.7,486.5,508.4L486.5,508.4z"/>
		</g>
		<g>
			<path class="st0" d="M452.6,535.2c6.5-5.4,13-10.6,19.6-15.9c0.6-0.5-0.2-1.3-0.7-0.8c-6.6,5.2-13.1,10.5-19.6,15.9
				C451.2,534.9,452,535.7,452.6,535.2L452.6,535.2z"/>
		</g>
		<g>
			<path class="st0" d="M404.2,556.2c2.4-1.8,4.8-3.5,7.4-5.1c1.8-1.1,6.4-4.7,8.6-4.2c1-0.4,1.2-0.2,0.8,0.7
				c-0.1,0.8-0.3,1.6-0.4,2.5c-0.2,1.4-0.5,2.8-0.8,4.2c-0.6,3-1.1,6-1.6,9.1c-0.1,0.5,0.8,0.8,1.1,0.5c7-6.2,14.1-12.4,21.2-18.4
				c0.5-0.4-0.5-1.1-1-0.7c-7.1,6.1-14.2,12.2-21.2,18.4c0.4,0.2,0.7,0.3,1.1,0.5c0.9-6.1,2.3-12.1,3.1-18.2
				c0.1-0.4-0.5-0.7-0.9-0.6c-6.6,2.6-12.6,6.3-18.3,10.6C402.8,555.8,403.7,556.6,404.2,556.2L404.2,556.2z"/>
		</g>
		<g>
			<path class="st0" d="M362.5,592.3c12-8.7,22.2-19.6,33.4-29.4c0.6-0.5-0.5-0.9-1-0.5c-11,9.7-21.2,20.6-33.1,29.2
				C361.1,592.1,362,592.7,362.5,592.3L362.5,592.3z"/>
		</g>
	</g>
	<g>
		<g>
			<path class="st0" d="M1194.5,248.5c0,10.5,0,21.1,1.9,31.6c0.1,0.3,1,0.8,1,0.7c-1.8-10.4-1.9-21-1.9-31.6
				C1195.5,248.9,1194.5,248.4,1194.5,248.5L1194.5,248.5z"/>
		</g>
		<g>
			<path class="st0" d="M1179.6,263.9c9.9-1,19.8,1,29.7-0.6c0.3,0,1.1-0.5,1-0.5c-9.9,1.6-19.8-0.4-29.7,0.6
				C1180.4,263.5,1179.5,263.9,1179.6,263.9L1179.6,263.9z"/>
		</g>
	</g>
	<g>
		<g>
			<path class="st0" d="M30.8,539.3c2.3,14.9,8.9,28.8,21.7,37.4c11.6,7.8,26,10.3,39.8,9.9c15-0.4,31.8-2.8,42-15
				c10.3-12.4,12-30,10.1-45.4c-1.3-11-4-21.5-11.2-30.1c-5.8-6.8-13.3-12.1-21.2-16.2c-16.3-8.3-37-12.6-54.6-6.1
				C30.3,483.6,27.3,514.6,30.8,539.3c0.1,0.5,1.2,0.8,1.2,0.4c-3-21-2.2-47.4,17.3-60.6c15-10.2,35.3-8.8,51.7-3.1
				c15.3,5.3,32.3,15.8,38.2,31.8c5.4,14.5,6.6,32.2,2.3,47.1c-4.3,15.1-15,25.3-30.4,28.5c-16.1,3.4-33.9,3.9-49.4-2.6
				c-17.3-7.3-26.8-23.1-29.7-41.1C31.9,539.2,30.7,538.8,30.8,539.3z"/>
		</g>
		<g>
			<path class="st0" d="M77.3,479.3c-10.9,3.9-22.7,7-31.6,14.7c-10.2,8.7-12.6,21-9.9,33.7c4,19.3,14.6,40,33.3,48.5
				c18.1,8.2,41.1,4.8,56.2-8.1c17.6-15.1,20.2-41.6,7.2-60.5c-13.1-19.1-37.7-29-60.4-26.9c0.2,0,0.6,0.8,1,0.8
				c23.9-2.3,50.7,8.9,61.9,31.1c9,17.8,5.3,40.2-9.4,53.7c-12.7,11.7-31.5,16.1-48.2,12.2c-24.1-5.6-38.1-30.9-41.2-54.1
				c-1.6-11.8,2.2-22.8,11.6-30.3c8.9-7.1,20.2-10.2,30.7-13.9C78.2,480.1,77.6,479.2,77.3,479.3L77.3,479.3z"/>
		</g>
		<g>
			<path class="st0" d="M94.1,497.8c-2.5,0.3-5,0-7.4,0.1c-0.1,0.2-0.3,0.3-0.4,0.5c1.7-1.2,3-2.8,4.7-3.9c0.1-0.1,0.5-0.3,0.4-0.5
				c-0.3-1.2-0.8-3.1-2.2-3.3c-1-0.2-2.1,0.4-3,0.6c-0.3,0.1-1,0.8-0.8,0.7c0.9-0.2,2-0.8,2.9-0.6c1.4,0.3,1.8,2.2,2.2,3.3
				c0.1-0.2,0.3-0.3,0.4-0.5c-1.7,1.2-3,2.7-4.7,3.9c0,0-0.6,0.5-0.4,0.5c2.5,0,5,0.2,7.4-0.1C93.5,498.5,94,497.8,94.1,497.8
				L94.1,497.8z"/>
		</g>
		<g>
			<path class="st0" d="M78.5,488.8c-0.5,3.6-0.3,7.5,1.4,10.8c0.3,0.6,1.5,0.3,1.1-0.4c-1.6-3.1-1.7-6.9-1.3-10.3
				C79.8,488.4,78.6,488.2,78.5,488.8L78.5,488.8z"/>
		</g>
		<g>
			<path class="st0" d="M95.2,562.3c-5.1,0.8-7.9,8.7-3.6,12c1.2,0.9,2.9,1.4,4.4,0.7c1.9-0.8,2.2-2.8,1.8-4.7
				c0-0.2-0.2-0.3-0.4-0.4c-2.7-0.6-5.2-0.1-6.6,2.5c-0.3,0.6,0.9,0.9,1.2,0.4c0.7-1.3,2.4-2.8,4-2.2c0.9,0.3,0.8,1.3,0.6,2.1
				c-0.5,1.8-2.5,2.1-3.9,1.1c-4-2.7-1.2-10.1,3.1-10.7C96.5,563,95.8,562.2,95.2,562.3L95.2,562.3z"/>
		</g>
		<g>
			<path class="st0" d="M53.1,532.8c0.9-1.9,0.2-4.6-2.2-4.7c-3-0.1-5.1,2.6-4.8,5.4c0,0.3,0.3,0.9,0.6,1c2.9,0.5,4.8-1.3,5.9-3.8
				c-0.2-0.3-0.5-0.5-0.7-0.8c0.5,2,1,4.3,0.6,6.3c-0.2,0.9-0.5,1.8-1.3,2.3c-0.7,0.5-2.8,0.9-3.4,0.1c0.1,0.3,0.2,0.5,0.3,0.8
				c0.3-0.1,0.6,0.1,0.9,0c0.2-0.1-0.4-1.2-0.7-1.1c-0.3,0.2-0.6-0.1-0.9,0c-0.2,0.1,0.3,0.7,0.3,0.8c1.4,1.9,4.4,1.1,5.2-0.9
				c0.9-2.3,0.3-5.3-0.4-7.6c0-0.1-0.6-1-0.7-0.8c-1,2.5-2.9,4.3-5.7,3.8c0.2,0.3,0.4,0.6,0.6,1c-0.2-2.2,0.9-4.1,3-4.9
				c0.7-0.3,1.6-0.4,2.3-0.2c1.2,0.4,0.7,1.6,0.3,2.5C52.3,532.1,53,532.9,53.1,532.8L53.1,532.8z"/>
		</g>
		<g>
			<path class="st0" d="M127,529c-0.2-0.5-0.5-1.8,0-2.1c0.4-0.3,1.3,0.1,1.7,0.4c2,1.4-0.1,3.7-1.4,4.7c0.2,0,0.4,0.1,0.6,0.1
				c0.6-0.6,1.5-1.6,2.4-1c0.6,0.4,0.7,1.2,0.7,1.9c0,0.8-0.2,1.7-0.7,2.3c-0.7,0.9-1.9,0.6-2.8,0.2c-0.3-0.1-1.2,0.6-1,0.7
				c2.6,1,5.5-0.7,5.6-3.6c0-0.9-0.2-2.1-1.3-2.4c-1.4-0.4-2.9,1-3.7,1.9c-0.5,0.5,0.4,0.3,0.6,0.1c1.2-0.9,2.7-2.2,2.8-3.8
				c0-1-0.6-1.8-1.6-2.1c-0.9-0.3-1.8-0.1-2.5,0.5c-1,0.8-1,1.9-0.6,3C126,529.9,127.1,529.4,127,529L127,529z"/>
		</g>
		<g>
			<path class="st0" d="M103.7,493.9c-0.5,1.1-0.9,2.3-1.2,3.5c-0.1,0.5,0.9,1.2,1,0.7c0.3-1.2,0.7-2.4,1.2-3.5
				C104.9,494.1,104,493.4,103.7,493.9L103.7,493.9z"/>
		</g>
		<g>
			<path class="st0" d="M113.2,497.9c-1.1,1.5-2.5,2.9-4,4c-0.5,0.4,0.2,1.4,0.7,1c1.6-1.2,3-2.6,4.2-4.2
				C114.4,498.3,113.6,497.4,113.2,497.9L113.2,497.9z"/>
		</g>
		<g>
			<path class="st0" d="M115.8,509.9c1.2-1.3,2.9-2.1,4.6-2.3c0.3,0-0.4-0.9-0.8-0.9c-1.8,0.2-3.5,1.1-4.7,2.4
				C114.6,509.3,115.6,510.2,115.8,509.9L115.8,509.9z"/>
		</g>
		<g>
			<path class="st0" d="M120.8,516c1.4-0.2,2.7-0.4,4.1-0.6c0.9-0.1,0.1-0.2-0.3-0.1c-1.4,0.2-2.7,0.4-4.1,0.6
				C119.6,516,120.4,516,120.8,516L120.8,516z"/>
		</g>
		<g>
			<path class="st0" d="M126.4,544.4c1.7-0.8,3.2-0.6,4.4,0.9c0.3,0.4,1.4,0.4,0.8-0.2c-1.6-2-3.9-2.5-6.2-1.4
				C125,543.8,126,544.6,126.4,544.4L126.4,544.4z"/>
		</g>
		<g>
			<path class="st0" d="M120.4,550.7c1.3,1,2.4,2.1,3.4,3.4c0.4,0.5,1.2,0.4,0.7-0.3c-1-1.4-2.3-2.6-3.6-3.6
				C120.3,549.7,119.8,550.2,120.4,550.7L120.4,550.7z"/>
		</g>
		<g>
			<path class="st0" d="M113.7,559.4c0.9,0.8,1.6,1.8,2.3,2.8c0.2,0.4,1.5,0.3,1.1-0.2c-0.7-1.1-1.5-2.1-2.4-3
				C114.3,558.7,113.2,558.9,113.7,559.4L113.7,559.4z"/>
		</g>
		<g>
			<path class="st0" d="M104.9,565.2c1.1,1.5,1.9,3.3,2.3,5.2c0.1,0.6,1.4,0.5,1.2-0.1c-0.4-1.9-1.2-3.8-2.4-5.4
				C105.6,564.5,104.4,564.7,104.9,565.2L104.9,565.2z"/>
		</g>
		<g>
			<path class="st0" d="M80.9,565.5c-1,1.7-1.4,3.6-1.2,5.5c0.1,0.7,1.3,0.3,1.2-0.3c-0.1-1.8,0.2-3.4,1.1-5
				C82.4,565.1,81.2,565,80.9,565.5L80.9,565.5z"/>
		</g>
		<g>
			<path class="st0" d="M72.1,564.7c-0.5,0.8-1.1,1.6-1.7,2.3c-0.2,0.2,0.2,0.1,0.3,0.1c0.3-0.1,0.6-0.2,0.8-0.4
				c0.7-0.7,1.3-1.5,1.8-2.4c0.1-0.2-0.5,0-0.5,0C72.5,564.3,72.2,564.5,72.1,564.7L72.1,564.7z"/>
		</g>
		<g>
			<path class="st0" d="M69.2,556.9c-2,1.6-4,3-5.9,4.7c-0.3,0.2,0.9,0.2,1.1,0c1.9-1.7,3.9-3.1,5.9-4.7
				C70.5,556.7,69.4,556.7,69.2,556.9L69.2,556.9z"/>
		</g>
		<g>
			<path class="st0" d="M50.1,549.1c1.7-0.6,3.5-1.2,5.3-1.8c0.7-0.2-0.1-1.1-0.6-0.9c-1.8,0.6-3.5,1.1-5.3,1.8
				C48.8,548.5,49.6,549.3,50.1,549.1L50.1,549.1z"/>
		</g>
		<g>
			<path class="st0" d="M42.3,523.4c1.8-0.7,3.6-0.7,5.4,0c0.6,0.2,1.4-0.7,0.7-1c-2.1-0.8-4.2-0.8-6.3,0
				C41.4,522.7,41.6,523.7,42.3,523.4L42.3,523.4z"/>
		</g>
		<g>
			<path class="st0" d="M44.4,513c1.9,1.1,3.8,1.8,6,2.1c-0.2,0-0.7-0.6-1-0.6c-1.6-0.2-3.2-0.6-4.6-1.4
				C44.4,512.8,43.6,512.5,44.4,513L44.4,513z"/>
		</g>
		<g>
			<path class="st0" d="M58.6,504.7c-1.2-1.5-2.4-3.1-3.5-4.7c-0.2-0.3-1.4-0.1-1.2,0.3c1.1,1.6,2.3,3.2,3.5,4.7
				C57.7,505.2,58.9,505,58.6,504.7L58.6,504.7z"/>
		</g>
		<g>
			<path class="st0" d="M64.5,498.1c0.9,1.4,1.7,3,2.3,4.6c0.2,0.6,1.3,0.1,1.1-0.4c-0.6-1.7-1.4-3.3-2.4-4.8
				C65.3,497,64.2,497.6,64.5,498.1L64.5,498.1z"/>
		</g>
		<g>
			<path class="st0" d="M45.5,506.3c2.8,0.5,5.3,2.1,8.1,2.9c0.4,0.1,1.5-0.4,0.8-0.6c-2.8-0.8-5.4-2.4-8.3-3
				C45.5,505.5,44.7,506.2,45.5,506.3L45.5,506.3z"/>
		</g>
		<g>
			<path class="st0" d="M89.6,532.2c-7.2-3.9-6.8-19.6-1.2-24.6c-0.4,0.1-0.8,0.1-1.2,0.2c2.5,3,2.4,8,2.5,11.7
				c0.1,4.3-0.2,8.7,0.5,13c0,0.2,1.3,0,1.2-0.2c-0.7-4.3-0.3-8.7-0.5-13c-0.1-3.7,0.1-8.6-2.5-11.7c-0.2-0.2-1,0-1.2,0.2
				c-5.7,5-6.1,20.8,1.2,24.7C88.7,532.6,89.6,532.2,89.6,532.2L89.6,532.2z"/>
		</g>
		<g>
			<path class="st0" d="M88.4,532.2c-5.5-0.4-11.8,0.3-16.9,2.5c-2.4,1.1-12.1,7.9-5.4,10c2.7,0.8,6.4-1.3,8.6-2.3
				c5.8-2.8,11-6.7,16.8-9.5c-0.2,0.1-0.9-0.1-1.2,0c-6.4,3.1-12,7.5-18.6,10.3c-1.9,0.8-4.8,2.4-6.2,0c-0.8-1.4,0-2.8,0.9-3.9
				c4.5-5.8,14.6-7.5,21-7C87.6,532.4,88.5,532.2,88.4,532.2L88.4,532.2z"/>
		</g>
	</g>
	<g>
		<path class="st0" d="M66.6,452.2c0.8-14-3.3-27.4-6.6-40.9c-0.1-0.3-1.3-0.5-1.2-0.2c3.2,13.4,7.4,26.8,6.6,40.7
			C65.3,452.3,66.5,452.5,66.6,452.2L66.6,452.2z"/>
	</g>
	<g>
		<path class="st0" d="M42.8,465c0.7-4.3-0.1-8.3-2.6-11.9c-0.2-0.3-1.2,0.4-1.1,0.6c2.5,3.6,3.3,7.5,2.6,11.8
			C41.7,465.7,42.8,465.3,42.8,465L42.8,465z"/>
	</g>
	<g>
		<path class="st0" d="M90.3,458.7C87,447.2,88.9,435,89,423.2c0-0.2-1.2-0.3-1.2-0.2c-0.1,11.8-2,24,1.3,35.5
			C89.1,458.9,90.3,458.8,90.3,458.7L90.3,458.7z"/>
	</g>
	<g>
		<path class="st0" d="M109.8,468.3c5.5-6.3,8.9-14,13.2-21.1c0.1-0.2-0.8-1-0.8-0.9c-4.2,7.1-7.7,14.8-13.2,21.1
			C108.9,467.5,109.7,468.4,109.8,468.3L109.8,468.3z"/>
	</g>
	<g>
		<path class="st0" d="M137.5,484c14.2-12.7,24.4-30,41.4-39.5c0.6-0.3-0.3-1.1-0.8-0.9c-17,9.5-27.3,26.9-41.6,39.6
			C136.1,483.7,137.1,484.4,137.5,484L137.5,484z"/>
	</g>
	<g>
		<path class="st0" d="M158.6,510.4c8.3-6.8,18.7-10,28.9-13.1c0.5-0.2-0.3-1.1-0.7-1c-10.2,3.2-20.7,6.4-29,13.2
			C157.3,509.9,158.2,510.8,158.6,510.4L158.6,510.4z"/>
	</g>
	<g>
		<path class="st0" d="M167.2,530.1c7.4-1.1,14.8-1.5,22.2-1.3c0.5,0,1.3-0.7,0.5-0.7c-7.6-0.2-15,0.2-22.5,1.3
			C166.8,529.5,166.4,530.2,167.2,530.1L167.2,530.1z"/>
	</g>
	<g>
		<path class="st0" d="M159.4,561.6c22.7,1.1,42.8,12.7,64.3,18.4c0.5,0.1,1.2-0.3,0.4-0.5c-21.7-5.8-41.9-17.4-64.7-18.5
			C158.7,561,158.7,561.6,159.4,561.6L159.4,561.6z"/>
	</g>
	<g>
		<path class="st0" d="M147,579.8c4.3,2.3,8.9,4.2,13.2,6.6c0.2,0.1,1.3,0,1.1-0.2c-4.3-2.4-8.8-4.3-13.2-6.6
			C147.9,579.6,146.8,579.7,147,579.8L147,579.8z"/>
	</g>
	<g>
		<path class="st0" d="M120.7,595.7c12.7,6.2,24.8,14.2,34.2,25c0.2,0.2,1.2-0.3,1.2-0.3c-9.4-10.8-21.5-18.8-34.3-25
			C121.5,595.2,120.7,595.7,120.7,595.7L120.7,595.7z"/>
	</g>
	<g>
		<path class="st0" d="M91.7,604.9c1.6,4.7,4.2,8.9,6.6,13.2c0.2,0.3,1.4,0.1,1.2-0.3c-2.4-4.3-4.9-8.4-6.6-13.1
			C92.8,604.3,91.6,604.5,91.7,604.9L91.7,604.9z"/>
	</g>
	<g>
		<path class="st0" d="M62.7,598.2c-1.4,7.7-4.1,15-6.6,22.4c-0.2,0.7,1,0.5,1.2,0c2.5-7.4,5.2-14.7,6.6-22.4
			C64,597.5,62.8,597.6,62.7,598.2L62.7,598.2z"/>
	</g>
	<g>
		<path class="st0" d="M35.1,587.6c-3.3,2.6-7,3.9-11.2,3.8c-0.6,0-1.1,0.6-0.3,0.6c4.7,0.1,8.9-1.2,12.5-4.1
			C36.6,587.5,35.4,587.3,35.1,587.6L35.1,587.6z"/>
	</g>
	<g>
		<path class="st0" d="M28.4,478.3c-2.2-4.3-4.9-8.2-7.9-11.8c-0.2-0.3-1.2,0.2-1.2,0.2c3,3.7,5.7,7.6,7.9,11.8
			C27.3,478.7,28.4,478.4,28.4,478.3L28.4,478.3z"/>
	</g>
	<g>
		<path class="st0" d="M143.8,319.1c-17.3,0.2-35.4,1.9-52.4-2.4c-0.3-0.1-1.1,0.3-1.2,0.3c17,4.3,35.3,2.6,52.7,2.4
			C143.2,319.4,144.3,319.1,143.8,319.1L143.8,319.1z"/>
	</g>
	<g>
		<path class="st0" d="M43.1,303.9c23.5,0.1,47,2.8,70.5,3c0.4,0,1.3-0.6,0.5-0.6c-23.5-0.2-47-2.9-70.5-3
			C43.2,303.3,42.3,303.9,43.1,303.9L43.1,303.9z"/>
	</g>
</g>
</svg>
