<?xml version="1.0" encoding="utf-8"?>
<!-- Generator: Adobe Illustrator 22.1.0, SVG Export Plug-In . SVG Version: 6.00 Build 0)  -->
<svg version="1.1" id="Layer_1" xmlns="http://www.w3.org/2000/svg" xmlns:xlink="http://www.w3.org/1999/xlink" x="0px" y="0px"
	 viewBox="0 0 1400 639" style="enable-background:new 0 0 1400 639;" xml:space="preserve">
<style type="text/css">
	.st0{fill:#2C9942;}
</style>
<g>
	<g>
		<g>
			<path class="st0" d="M52.8,489.4c4.3,3.1,9.2,4.8,14.5,5.3c0.5,0-0.7-0.3-0.8-0.3c-4.7-0.4-8.7-2.1-12.5-4.8
				C53.7,489.4,52.9,489.5,52.8,489.4L52.8,489.4z"/>
		</g>
		<g>
			<path class="st0" d="M47.9,494.4c1.2,3.4,2.3,6.8,3.6,10.2c0.6,1.6,1.2,3.8,2.7,4.8c0.5,0.3,1,0.4,1.5,0.6
				c1.8,0.6,4.5,1.1,6.3,1.4c1.4,0.3,2.4,0.2,3.7-0.4c1.8-0.9,2.9-3,4-4.6c2-2.9,4-5.8,6-8.8c0,0-1.1-0.3-1.2,0
				c-2.3,3.3-4.5,6.8-7,10.1c-0.5,0.9-1.2,1.7-1.9,2.4c-1.9,1-3.7,1-5.3-0.2c-0.1,0-0.2-0.1-0.4-0.1c-2.7-0.4-5.1-0.3-6.4-3.2
				c-1.8-3.8-2.9-8.2-4.3-12.2C49.1,494.2,47.9,494.4,47.9,494.4L47.9,494.4z"/>
		</g>
		<g>
			<path class="st0" d="M51.6,511.9c-4.7,27.4-9.7,58.7,7.1,83.2c3.3,4.8,7.5,9,11.9,12.8c3,2.6,6.8,6.8,10.9,7.7
				c2.5,0.5,5-0.4,7.4-0.9c4.2-0.9,8.4-1.5,12.7-1.9c8.6-0.8,17.2-0.5,25.7,0.7c0.6,0.1-0.3-0.7-0.6-0.7
				c-11.7-1.6-23.6-1.5-35.2,0.5c-4.7,0.8-9.1,2.3-13.8,0c-3-1.5-6-4.9-8.5-7.1c-5.2-4.7-9.6-10-12.9-16.2
				c-12.8-23.9-8.2-52-3.8-77.4C52.8,512.2,51.7,511.8,51.6,511.9L51.6,511.9z"/>
		</g>
		<g>
			<path class="st0" d="M128,613.6c-0.5-8.2-1-16.4-1.5-24.6c0-0.3-0.4-0.5-0.7-0.5c-18,2.6-35.3-7.4-45.5-21.9
				c-11-15.6-14.3-35.1-15.5-53.7c0-0.7-1.3-0.6-1.2,0.1c1.5,22.6,6.3,47.2,23.8,63.3c7,6.5,15.8,11.4,25.3,13.1c2,0.4,4,0.6,6,0.6
				c2.9,0.1,6-1.4,6.9,1.9c0.8,3.2,0.4,7.2,0.7,10.4c0.2,3.8,0.5,7.6,0.7,11.4C126.8,614.4,128,614.3,128,613.6L128,613.6z"/>
		</g>
		<g>
			<g>
				<path class="st0" d="M46.8,486.7c-6.7-3.5-13-9.5-15.4-16.9c-3.4-10.3,10.4-7.1,15.9-4.8c3.6,1.5,7.1,3.4,10.6,5.1
					c13.8,6.6,28.7,6.5,43.5,9c8.8,1.5,17.8,4.1,25,9.7c3,2.3,8.2,6.2,4.3,10.1c-3.5,3.5-6.7,2.2-11.1,1.3c-6.7-1.4-5.7-1.4-9.8-4.7
					c-3.2-2.5-6.7-3.3-10.7-3c-7.6,0.6-15.2,3.5-22.5,5.4c-0.1,0,0.3,0.2,0.4,0.2c4.2-1.1,8.4-2.3,12.6-3.4c2.2-0.6,4.3-1.2,6.6-1.6
					c4.7-0.9,10.8,0.5,14.4,3.5c3.8,3.1,6.7,5.4,11.8,5.4c3.3,0,10.6-1.6,10.4-6.1c-0.2-4.7-8.7-9.3-12.3-11.1
					c-11.9-6.1-25.5-6.5-38.5-8.2c-11.2-1.5-20.5-5-30.6-9.9c-4.7-2.3-9.9-4.5-15.2-4.6c-6.4-0.1-6.7,4.7-4.4,9.8
					c3.1,6.6,8.3,11.7,14.6,15C46.5,486.8,47,486.8,46.8,486.7L46.8,486.7z"/>
			</g>
			<g>
				<path class="st0" d="M43.1,489.1c-8.8-5.4-14.1-14.4-14.8-24.6c0-0.1-0.4-0.4-0.4-0.3c0.7,10.6,6.3,19.8,15.3,25.3
					C43.4,489.6,43.2,489.2,43.1,489.1L43.1,489.1z"/>
			</g>
			<g>
				<path class="st0" d="M75.3,502.9c5,0.1,9.9-0.3,14.8-1.4c5.3-1.1,11.3-4.4,16.8-3.4c4.6,0.9,6.6,5.4,10.6,7.3s8.7,1.3,12.9,0.7
					c0.1,0,0.4-0.2,0.4-0.2c-5.4,0.7-10.9,1.2-15.4-2.4c-3.4-2.6-5-5.7-9.7-5.8c-3.4-0.1-6.7,1.2-9.9,2.1c-6.6,1.9-13.2,2.8-20,2.8
					C75.6,502.6,75.4,502.9,75.3,502.9L75.3,502.9z"/>
			</g>
		</g>
	</g>
	<g>
		<g>
			<path class="st0" d="M72.3,305.9c13.2-9.1,24.1-21.1,36.4-31.3c0.1-0.1-0.9-0.8-1.1-0.6c-12.3,10.2-23.1,22.1-36.3,31.2
				C71.1,305.4,72,306,72.3,305.9L72.3,305.9z"/>
		</g>
		<g>
			<path class="st0" d="M108.3,273.2c-4.8,0.7-12,1-15.4,4.8c0,0.1,0.7,0.2,0.8,0.2c3.9,0.6,7.6,3.7,10.7,5.9
				c0.1,0.1,1.2,0.4,1.2,0.2c0.8-3.7,2.5-7,4.5-10.2c0,0-1.1-0.5-1.2-0.2c-1.9,3.2-3.7,6.5-4.5,10.2c0.4,0.1,0.8,0.1,1.2,0.2
				c-3.7-2.5-7.7-5.5-12.2-6.3c0.3,0.1,0.5,0.2,0.8,0.2c3.3-3.7,10.6-4.1,15.2-4.8C109.5,273.4,108.5,273.1,108.3,273.2L108.3,273.2
				z"/>
		</g>
	</g>
	<g>
		<g>
			<path class="st0" d="M157.6,399.8c2,3,4.6,5.5,7.2,8.1c0.6,0.6,1.1-0.3,0.6-0.8c-2.5-2.5-5-4.9-7-7.8
				C158,398.6,157.1,399.1,157.6,399.8L157.6,399.8z"/>
		</g>
		<g>
			<path class="st0" d="M176.6,420.3c2.8,1.9,5.2,4.3,7.9,6.2c0.5,0.4,0-0.7-0.2-0.9c-2.8-1.9-5.2-4.3-7.9-6.2
				C175.9,419,176.4,420.1,176.6,420.3L176.6,420.3z"/>
		</g>
		<g>
			<path class="st0" d="M161,420.6c-2.7,1.9-5,4.6-7.1,7.1c-0.1,0.2,1,0.4,1.2,0.1c2.1-2.5,4.3-5.2,7-7
				C162.4,420.6,161.2,420.4,161,420.6L161,420.6z"/>
		</g>
		<g>
			<path class="st0" d="M184.8,399.7c-2.8,2.8-6.1,5.3-7.9,8.8c0,0,1-0.1,1.2-0.3c1.9-3.6,5.1-6,7.9-8.8
				C185.8,399.4,185,399.4,184.8,399.7L184.8,399.7z"/>
		</g>
	</g>
	<g>
		<g>
			<path class="st0" d="M153.3,81.6c-3.5-0.7-6.3,2.2-6.1,5.6c0.2,3.2,2.4,6.6,5.6,7.4c5.2,1.4,9.7-4.5,8.7-9.3
				c-0.9-3.9-4.7-5.9-8.2-7c-0.7-0.2-0.4,0.9,0.2,1.1c3.3,1,7,3,7.1,6.9c0.1,2.5-1.3,4.9-3.2,6.3c-2.2,1.5-4.9,1.6-6.9-0.3
				c-1.7-1.7-2.8-4.5-1.9-6.9c0.8-2,2.8-3.1,4.8-2.7C154.2,82.8,153.9,81.7,153.3,81.6L153.3,81.6z"/>
		</g>
	</g>
	<g>
		<g>
			<path class="st0" d="M539,508.3c12.6-9.5,25.4-18.6,38.6-27.2c0.6-0.4,0.1-1-0.5-0.7c-10.6,4.2-21,9.1-31.9,12.6
				c-0.5,0.1-0.9,1-0.1,0.9c11.3-1.2,21.8-6.8,31-13.2c0.3-0.2,3.9-2.6,2.1-2.3c-0.9,0.2-2.3,2.6-2.9,3.2c-1.8,2-3.4,4.1-5,6.3
				c-3.7,5-6.8,10.3-9,16.2c0.4,0,0.8-0.1,1.2-0.1c0.3-8.4-8.1-11.7-15.4-10.9c-0.6,0.1-1.1,1-0.3,1c6.8-0.7,14.7,2.3,14.5,10.3
				c0,0.7,1,0.2,1.2-0.1c3.8-10,10.4-18.7,17.8-26.3c0.5-0.5-0.3-0.9-0.8-0.6c-8,6-16.8,11.6-26.5,14.4c-3.1,0.9-9.3,3.1-2.2,0.5
				c4.8-1.7,9.5-3.7,14.3-5.7c2.4-1,4.7-2,7.1-3c1.2-0.5,6-2.9,1.8-0.9c-3.8,1.8-7.3,4.9-10.8,7.3c-8.4,5.8-16.6,11.8-24.7,17.9
				C537.7,508.1,538.4,508.7,539,508.3L539,508.3z"/>
		</g>
		<g>
			<path class="st0" d="M505.3,535.2c6.5-5.4,13-10.6,19.6-15.9c0.3-0.3-0.5-1.2-0.9-0.9c-6.6,5.2-13.1,10.5-19.6,15.9
				C504.1,534.6,504.9,535.5,505.3,535.2L505.3,535.2z"/>
		</g>
		<g>
			<path class="st0" d="M456.8,556.2c5.6-4.2,11.5-7.9,18.1-10.5c-0.2-0.3-0.5-0.6-0.7-0.9c-0.9,6.1-2.3,12.1-3.1,18.2
				c0,0.3,0.4,1.2,0.8,0.9c7-6.2,14.1-12.4,21.2-18.4c0.4-0.4-0.3-1.4-0.7-1c-7.1,6.1-14.2,12.2-21.2,18.4c0.3,0.3,0.5,0.6,0.8,0.9
				c0.9-6.1,2.3-12.1,3.1-18.2c0-0.3-0.3-1.1-0.7-0.9c-6.6,2.6-12.6,6.3-18.3,10.6C455.7,555.5,456.4,556.6,456.8,556.2L456.8,556.2
				z"/>
		</g>
		<g>
			<path class="st0" d="M415.3,592c12-8.7,22.2-19.6,33.2-29.3c0.5-0.5-0.6-0.6-1-0.3c-11.1,9.7-21.3,20.6-33.2,29.3
				C413.7,592.1,414.9,592.3,415.3,592L415.3,592z"/>
		</g>
	</g>
	<g>
		<path class="st0" d="M5.2,109.4c1.3-4.2,5-6.6,9.3-6.5c6.6,0.1,10.3,5.2,9.1,11.5c0.3,0.2,0.7,0.4,1,0.6
			c3.7-24.4,51-2.5,32.6,13.4c-0.3,0.3,0.6,1,1,0.8c10.4-7.6,22.8-2.6,27.9,8.7c4.7,10.6-0.8,19.6-12.3,20.4c-0.6,0,0.3,0.9,0.6,0.9
			c12.4,1,22.5,22.9,9.9,30.3c-8.8,5.1-26.7,1.9-26.6-10.5c-0.3-0.2-0.7-0.4-1-0.5c1,4.4,0.4,9.6-3.7,12.2
			c-5.7,3.6-12.4-2.4-11.8-8.6c-0.3-0.2-0.7-0.4-1-0.5c0.4,3.8-6.7,9.1-9.4,11c-1.7,1.2-3.5,2.3-5.4,2.8c-5.4,1.7-6.6-3.5-6.3-7.7
			c-0.3-0.2-0.7-0.4-1-0.5c2.9,10.4-14.9,11.3-12.8,0.4c0.1-0.4-1-1.1-1-0.6c-2.4,12.2,18,12.2,14.8,0.6c-0.1-0.2-1-1-1-0.5
			c-0.3,5.4,1.4,11,7.8,9.3c3.6-0.9,6.9-3.6,9.6-6.1c2-1.9,6.1-5.3,5.8-8.3c0-0.3-1-1-1-0.5c-0.5,5.1,4,11.3,9.3,11.3
			c7.4,0.1,9.5-8.1,8.2-13.9c-0.1-0.3-1-1-1-0.5c0,10.5,11.9,15,20.8,14.2c4.9-0.4,10.1-2.5,12.4-7.2c2.7-5.6,0.7-12.5-2.4-17.4
			c-2.2-3.6-6.9-9.3-11.6-9.4c-2.6-0.1,0.6,0.5,1.6,0.3c0.9-0.2,1.9-0.4,2.8-0.7c2.2-0.7,4.2-1.9,5.8-3.6c5.7-6.4,2.2-16.5-2.6-22.3
			c-6.8-8.3-17.4-10.3-26.2-3.9c0.3,0.3,0.7,0.5,1,0.8c19.2-16.5-30.8-40.5-34.6-14.8c-0.1,0.4,1,1.1,1,0.6c1-5.6-1.5-10.6-7-12.4
			S6.1,103,4.3,108.8C4.1,109.1,5.1,109.8,5.2,109.4L5.2,109.4z"/>
	</g>
	<g>
		<path class="st0" d="M281.3,563.7c8.3,0.7,16.6,2.2,24.6,4.4c8.6,2.4,21.3,6.3,24.2,15.9c0.1,0.3,1.2,0.7,1.1,0.5
			c-2.5-8.2-12-12.4-19.4-15c-10-3.6-20.7-5.6-31.2-6.5C280.1,563,281,563.7,281.3,563.7L281.3,563.7z"/>
	</g>
	<g>
		<path class="st0" d="M291.6,546.9c9-2.3,18-1.7,25.8,3.8c0.7,0.5,0.9-0.6,0.4-0.9c-8-5.6-17.2-6.5-26.5-4.1
			C290.7,545.9,291.1,547.1,291.6,546.9L291.6,546.9z"/>
	</g>
	<g>
		<path class="st0" d="M600.7,76.2c0.1,14.3,1.6,28.6,4,42.7c0.1,0.4,1.3,0.4,1.2,0.2c-2.4-14.1-3.9-28.4-4-42.7
			C602,76,600.7,75.9,600.7,76.2L600.7,76.2z"/>
	</g>
	<g>
		<path class="st0" d="M585.1,95.5c9.8,3.7,21.6,1.1,31.6,0.1c0.8-0.1,0.5-1.2-0.2-1.1c-9.8,1-21.5,3.7-31,0.1
			C584.8,94.2,584.4,95.2,585.1,95.5L585.1,95.5z"/>
	</g>
	<g>
		<g>
			<path class="st0" d="M1190.4,280.5c1.5,2.1,3.3,4,5.2,5.8c0.6,0.6,0.5-0.2,0.1-0.5c-1.7-1.7-3.4-3.4-4.7-5.3
				C1190.6,280.1,1189.9,279.8,1190.4,280.5L1190.4,280.5z"/>
		</g>
		<g>
			<path class="st0" d="M1203.2,295c1.9,1.3,3.6,3,5.6,4.3c0.5,0.3,1.5-0.1,0.8-0.6c-1.9-1.3-3.6-3-5.6-4.3
				C1203.5,294.1,1202.6,294.6,1203.2,295L1203.2,295z"/>
		</g>
		<g>
			<path class="st0" d="M1192.5,295.2c-1.9,1.3-3.5,3.2-5,5c-0.1,0.1,1,0.6,1.2,0.3c1.5-1.7,3-3.6,4.9-4.9
				C1193.8,295.5,1192.8,295,1192.5,295.2L1192.5,295.2z"/>
		</g>
		<g>
			<path class="st0" d="M1209.4,280.3c-2.1,2-4.4,3.8-5.7,6.4c-0.3,0.6,0.9,0.4,1.2,0c1.3-2.4,3.5-4.1,5.4-6
				C1210.8,280.2,1209.8,279.9,1209.4,280.3L1209.4,280.3z"/>
		</g>
	</g>
	<g>
		<g>
			<path class="st0" d="M1371.1,191.2c-2.4,0.7-5.3,1.9-7.8,0.9c-0.6-0.3-1.4,0.6-0.6,0.9c2.8,1.1,6,0,8.8-0.8
				C1372.3,191.9,1371.8,191,1371.1,191.2L1371.1,191.2z"/>
		</g>
		<g>
			<path class="st0" d="M1347.1,186.9c-3.2-0.5-5.8-1.7-8.3-3.9c-0.6-0.5-0.8,0.5-0.3,0.9c2.6,2.3,5.3,3.6,8.7,4.2
				C1347.9,188.1,1347.6,187,1347.1,186.9L1347.1,186.9z"/>
		</g>
		<g>
			<path class="st0" d="M1327.2,166.7c-2.1-1.9-4.7-3.4-5.8-6.2c-0.3-0.7-1.1-0.3-0.8,0.4c1.3,3,3.9,4.6,6.2,6.7
				C1327.4,168.1,1327.7,167.1,1327.2,166.7L1327.2,166.7z"/>
		</g>
		<g>
			<path class="st0" d="M1318.3,140.4c-0.5-1.6,0.3-3.3-0.2-4.9c-0.1-0.2-0.2-0.6-0.4-0.7c0,0-0.3-0.4-0.2-0.1
				c0.5,1.6-0.3,3.3,0.2,4.9c0.1,0.2,0.2,0.6,0.4,0.7C1318.2,140.4,1318.4,140.7,1318.3,140.4L1318.3,140.4z"/>
		</g>
		<g>
			<path class="st0" d="M1337.9,105.9c2.4-2.4,6.5-3.7,9.8-3.2c0.2,0,1.4-0.2,0.9-0.3c-4-0.6-9,0.6-11.9,3.5
				C1336.6,106,1337.7,106.2,1337.9,105.9L1337.9,105.9z"/>
		</g>
		<g>
			<path class="st0" d="M1371.1,99.2c1.9,0.8,3.9,0.7,5.8,1.5c0.7,0.3-0.1-0.5-0.3-0.6c-1.9-0.8-3.9-0.7-5.8-1.5
				C1370.1,98.3,1370.8,99.1,1371.1,99.2L1371.1,99.2z"/>
		</g>
		<g>
			<path class="st0" d="M1322,125.8c2.8-2.8,3.8-6.7,6.6-9.5c0.1-0.1-0.8-0.9-1-0.7c-2.8,2.8-3.8,6.7-6.6,9.5
				C1320.9,125.2,1321.8,126,1322,125.8L1322,125.8z"/>
		</g>
	</g>
	<g>
		<path class="st0" d="M1232.7,479.6c5.4,2.2,11.2,2.6,16.7,4.7c0.3,0.1,0.9,0.1,1-0.3c5.3-14.4,14.4-27.3,31.8-25
			c14.6,1.9,26.7,19.1,18.1,33c-2.8,4.5-7.9,6.5-12.4,8.8c-4.7,2.4-9.3,5.1-12.6,9.4c-8.1,10.6-4.5,24.6,0.8,35.7
			c0.1,0.3,0.6,0.3,0.8,0.2c6.8-1.7,13.8-4.2,19.5-8.2c0.2-0.1,0.2-0.4,0.1-0.5c-5.5-3.9-10-9.4-4.1-15.2c4-3.9,9.4-6.3,14.2-8.9
			c4.6-2.6,8.9-5.2,11.8-9.7c3.5-5.5,4.6-12.2,4.1-18.6c-1.1-14.8-9.5-27.8-21.7-35.9c-12-8-28.6-12.4-42.4-6.5
			c-12.7,5.5-28,21.7-24.6,36.7c0.1,0.5,1.4,0.4,1.2-0.1c-3.2-14.4,11-29.8,22.9-35.5c16.2-7.7,36.4-0.2,48.8,11.3
			c10.4,9.6,16.9,25.4,13.9,39.6c-2.8,13.3-13.6,16.7-23.8,23.1c-5.5,3.4-11.9,8.8-6.8,15.4c0.9,1.2,2.1,2,3.1,3.1
			c1.8,1.9,1.5,1.8-1.4,3.3c-3.8,2-8.1,4-12.3,4.9c-2.3,0.5-2.4,0.5-3.5-1.5c-0.9-1.7-1.5-3.6-2.1-5.4c-1.3-4.1-2.3-8.3-2.3-12.6
			c0-8.9,4.6-16.3,12.2-21c4.4-2.7,9.5-4.3,13.6-7.4c8.8-6.7,8.2-20.7,2-28.9c-7.6-10-22.4-12.2-33.4-6.8
			c-5.7,2.8-9.8,7.7-12.7,13.3c-1.1,2.1-2.5,8.3-4.8,8.9c-0.9,0.2-4.1-1.1-5.2-1.4c-3.4-0.7-6.6-1.3-9.9-2.7
			C1233.1,478.7,1232,479.3,1232.7,479.6L1232.7,479.6z"/>
	</g>
	<g>
		<path class="st0" d="M1296.6,537.5c2-2.6,3.6-4.8,6.8-6.1c0.2-0.1,0.4-0.3,0.3-0.5c-4.1-10.8,15.1-16.5,21.1-22.1
			c10.9-10.3,8.7-28.6,4.5-41.3c-4.5-13.6-14.4-23.3-28.1-27.6c-15.7-5-29.7-0.7-45.2,2.6c-0.8,0.2-0.3,1,0.4,0.8
			c8.5-1.8,17-4.7,25.7-5.1c9.3-0.5,18.9,1.6,27.1,6.1c14.9,8.2,22.2,25.2,22.4,41.7c0.1,8-2.1,17.5-8.4,23
			c-4.1,3.6-9.2,5.9-13.7,8.9c-3.1,2.1-6.9,4.9-7.5,8.9c-0.3,1.9,0.6,3-0.5,4.5c-0.6,0.8-2.2,1.5-3,2.3c-1,1.1-1.9,2.4-2.8,3.5
			C1295.1,537.7,1296.2,538,1296.6,537.5L1296.6,537.5z"/>
	</g>
	<g>
		<path class="st0" d="M1249,482.3c5.5-0.2,10.5,1.5,15.7,3.2c0.3,0.1,0.5-0.2,0.5-0.5c-1.1-11.3,13.5-25,24.8-19.7
			c0.7,0.3,0.7-0.8,0.2-1.1c-7.6-3.6-16.2,1.2-21.1,7.1c-2.8,3.3-3.8,6.6-4.9,10.6c-0.2,0.9,0.4,1.4-0.6,1.8c-1.1,0.5-3.7-1-4.8-1.3
			c-3.4-1-6.5-1.4-10-1.3C1248,481.1,1248.4,482.3,1249,482.3L1249,482.3z"/>
	</g>
	<g>
		<path class="st0" d="M1288.2,566.6c5.1,5.1,9,11.3,13.3,17.1c0.2,0.2,0.9-0.1,1-0.3c4.9-4.8,12.4-4.3,17.7-8.6
			c0,0,0.2-0.1,0.1-0.2c-5.1-5.6-9.3-11.8-14-17.7c-0.2-0.2-0.9,0.1-1,0.3c-4.1,3.8-8.6,6.2-14,7.7c-0.5,0.1-1,0.7-0.2,0.5
			c5.8-1.6,10.6-4.2,15.1-8.3c-0.3,0.1-0.7,0.2-1,0.3c2.4,2.9,4.6,6,6.9,9c1.2,1.6,2.5,3.2,3.8,4.8c2.4,2.9,4.8,3.7-2.2,6.7
			c-4.4,1.9-8.3,2-11.9,5.6c0.3-0.1,0.7-0.2,1-0.3c-4.3-5.8-8.1-12-13.3-17.1C1289.1,565.9,1288.1,566.5,1288.2,566.6L1288.2,566.6z
			"/>
	</g>
	<g>
		<path class="st0" d="M1306.3,558.1c0.6-5.2,2.3-10.1,2.4-15.3c-0.4-0.1-0.8-0.2-1.2-0.3c4.5,4.5,9.1,8.8,13.2,13.6
			c2.7,3.1,2.8,4.8,1,8.4c-1.4,2.9-2.5,5.8-3.3,9c0,0.1,1.2,0.4,1.2,0.3c1.1-4.8,3.3-9,5.6-13.3l0,0c-5-6.4-10.8-12-16.5-17.7
			c-0.1-0.1-1.2-0.4-1.2-0.3c-0.1,5.2-1.8,10.1-2.4,15.3C1305.1,557.9,1306.3,558.1,1306.3,558.1L1306.3,558.1z"/>
	</g>
	<g>
		<path class="st0" d="M1290.6,563.9c1.4-3.8,1.7-7.5,2.6-11.3c0.7-3,5.6-5.5,8.3-6.9c-0.2,0.1-0.9-0.1-1.2,0
			c-2.9,1.4-5.3,3.7-8.3,5.1l0,0c-0.1,4.5-1.1,8.9-2.6,13.1C1289.4,564,1290.5,564.2,1290.6,563.9L1290.6,563.9z"/>
	</g>
	<g>
		<path class="st0" d="M1266.3,422.3c-12.5-14.1-11.3-35.4-21.8-50.8c-0.3-0.4-1.4-0.5-1,0.1c10.5,15.4,9.2,36.7,21.8,50.8
			C1265.6,422.8,1266.8,422.8,1266.3,422.3L1266.3,422.3z"/>
	</g>
	<g>
		<path class="st0" d="M1225.7,430.4c-7.3-3.5-12.8-9.2-17.8-15.5c-0.5-0.6-0.9-0.2-0.5,0.4c5.2,6.5,10.9,12.4,18.5,16
			C1226.6,431.6,1226.1,430.5,1225.7,430.4L1225.7,430.4z"/>
	</g>
	<g>
		<path class="st0" d="M1220,452.5c-10.5-2.4-20.9-4.7-31.8-4.9c-0.9,0-0.2,0.4,0.3,0.4c10.6,0.2,20.8,2.4,31.1,4.8
			C1220.1,452.9,1220.8,452.7,1220,452.5L1220,452.5z"/>
	</g>
	<g>
		<path class="st0" d="M1222.9,488.6c-7.5,3.3-15.1,6.4-23,8.5c-0.2,0.1,0.6,0.8,1,0.7c7.9-2.1,15.5-5.2,23-8.5
			C1224.2,489.2,1223.3,488.4,1222.9,488.6L1222.9,488.6z"/>
	</g>
	<g>
		<path class="st0" d="M1238.6,504.5c-11.7,13.7-26.3,25-41.1,35.1c-0.5,0.3,0.7,0.6,1.1,0.4c14.9-10.1,29.4-21.4,41.1-35.1
			C1240.1,504.4,1238.9,504.1,1238.6,504.5L1238.6,504.5z"/>
	</g>
	<g>
		<path class="st0" d="M1252,525c-3.9,4.9-8.1,9.5-13.2,13.2c-0.7,0.5,0.2,1.1,0.8,0.7c5.2-3.7,9.5-8.4,13.4-13.4
			C1253.5,524.9,1252.4,524.4,1252,525L1252,525z"/>
	</g>
	<g>
		<path class="st0" d="M1265.4,547.7c-10.7,10.9-19.5,23.6-27.9,36.4c-0.2,0.3,0.6,1.2,0.7,1c8.3-12.7,17.1-25.4,27.8-36.3
			C1266.4,548.5,1265.6,547.5,1265.4,547.7L1265.4,547.7z"/>
	</g>
	<g>
		<path class="st0" d="M1294.1,423.9c3.1-13.2,3.6-26.6,3.6-40.1c0-0.6-1-1.1-1-0.3c-0.1,13.4-0.5,26.7-3.6,39.8
			C1293,423.8,1294,424.6,1294.1,423.9L1294.1,423.9z"/>
	</g>
	<g>
		<path class="st0" d="M1317.2,433.6c8.7-16.7,20.6-31.5,29-48.4c0.3-0.5-0.8-1.1-1.1-0.6c-8.4,16.9-20.3,31.7-29,48.4
			C1315.8,433.5,1316.9,434.1,1317.2,433.6L1317.2,433.6z"/>
	</g>
	<g>
		<path class="st0" d="M1329,450.8c5-3,9.3-7,14.5-9.7c0.6-0.3,0-1.4-0.6-1.1c-5.2,2.7-9.5,6.6-14.5,9.7
			C1327.8,450,1328.4,451.1,1329,450.8L1329,450.8z"/>
	</g>
	<g>
		<path class="st0" d="M1341.1,478.6c8.6-3.3,18.7-1.3,27.7-1.2c0.8,0,0.3-1.1-0.3-1.1c-9.1-0.1-19.2-2.1-28,1.2
			C1339.8,477.8,1340.5,478.8,1341.1,478.6L1341.1,478.6z"/>
	</g>
	<g>
		<path class="st0" d="M1338,500.1c3.9,0.3,8.7,1.3,11.9,3.6c0.3,0.2,1.3-0.4,1.1-0.6c-3.3-2.4-8.2-3.4-12.3-3.7
			C1338.4,499.5,1337.4,500.1,1338,500.1L1338,500.1z"/>
	</g>
	<g>
		<path class="st0" d="M1331.9,528.7c8.3,8.5,21.3,10.6,30.3,18.2c0.2,0.2,1.3,0.6,0.7,0.1c-8.9-7.6-22-9.8-30.2-18.1
			C1332.6,528.8,1331.5,528.3,1331.9,528.7L1331.9,528.7z"/>
	</g>
	<g>
		<path class="st0" d="M1322.6,69.8c-39.5,4.6-58.7,56.6-49.4,90.9c3.2,12.1,10.5,23,18.5,32.4c8.7,10.2,18.7,20.6,30.2,27.5
			c5.9,3.6,12.2,6.4,18.3,9.5c3,1.5,5.9,3,8.8,4.8c0.6,0.4,1.4,0.7,1.9,1.2c1,1,1.6,0.2,0.3,1.3c-2,1.6-8,0-10.3-0.4
			c-8.4-1.5-16.4-4.7-24.4-7.5c-3-1.1-6-2.2-9.1-3.1c-1.6-0.5-3.2-1-4.8-1.4c-0.8-0.2-3.9-0.6-1.5-0.5c8.6,0.4,17.7,3.1,25.9,5.8
			c4.1,1.3,8.1,2.8,12,4.5c3.7,1.5,7.6,4.5,11.3,5.4c1.7,0.4-1.5-1.3-2.1-1.8c-1.7-1.2-3.3-2.5-4.8-3.9c-2.5-2.4-4.7-5.2-6.7-8.1
			c-3.9-5.7-6.8-12-9.9-18.2c-0.1-0.2-1.2-0.3-1.2-0.1c0.9,13.4-18.6,13.9-27.9,13.8c-0.8,0,0.3,0.4,0.6,0.4c9.3,0,29.5-0.4,28.5-14
			c-0.4,0-0.8-0.1-1.2-0.1c6.4,12.9,12.8,26.8,26.6,33.1c0.2,0.1,1.3,0.1,1-0.1c-16.5-9.5-36-15.8-55-17.3c-0.5,0-0.6,0.2,0,0.3
			c18.8,4.2,36.4,15.3,56.2,13.8c0.1,0,0.3-0.1,0.1-0.2c-7-4.9-14.7-8.4-22.3-12.2c-8.6-4.3-16.1-9.3-23.1-15.8
			c-13.2-12.3-25.9-26-32.6-42.9c-9.4-23.7-2.8-54,11.8-74.2c8.5-11.8,20.6-20.7,35.3-22.4C1324,70.1,1322.8,69.8,1322.6,69.8
			L1322.6,69.8z"/>
	</g>
	<g>
		<path class="st0" d="M1258.6,102.5c-12.5,19.8-9.2,45-3,66.3c0.1,0.4,1,1,0.8,0.2c-6.1-21.1-9.4-46.1,3-65.7
			C1259.6,103.1,1258.8,102.2,1258.6,102.5L1258.6,102.5z"/>
	</g>
</g>
</svg>
