<?xml version="1.0" encoding="utf-8"?>
<!-- Generator: Adobe Illustrator 22.1.0, SVG Export Plug-In . SVG Version: 6.00 Build 0)  -->
<svg version="1.1" id="Layer_1" xmlns="http://www.w3.org/2000/svg" xmlns:xlink="http://www.w3.org/1999/xlink" x="0px" y="0px"
	 viewBox="0 0 1400 639" style="enable-background:new 0 0 1400 639;" xml:space="preserve">
<style type="text/css">
	.st0{fill:#2C9942;}
</style>
<g>
	<g>
		<g>
			<path class="st0" d="M72.2,305.9c13.2-9.1,24.1-21.1,36.4-31.3c0.3-0.2-0.7-1-1-0.7c-12.3,10.2-23.1,22.1-36.3,31.2
				C70.9,305.4,71.9,306.2,72.2,305.9L72.2,305.9z"/>
		</g>
		<g>
			<path class="st0" d="M108.4,272.9c-4.7,0.7-12,1-15.4,4.8c-0.3,0.3,0.4,0.7,0.7,0.7c4.1,0.6,7.7,3.6,11,5.9
				c0.1,0.1,0.8,0.4,0.8,0.1c0.8-3.7,2.5-7,4.5-10.2c0.2-0.4-0.9-0.9-1.1-0.6c-1.9,3.2-3.7,6.5-4.5,10.2c0.3,0,0.6,0,0.8,0.1
				c-3.6-2.4-7.5-5.5-11.9-6.2c0.2,0.2,0.4,0.5,0.7,0.7c3.3-3.7,10.6-4,15.2-4.7C109.7,273.6,108.8,272.9,108.4,272.9L108.4,272.9z"
				/>
		</g>
	</g>
	<g>
		<g>
			<path class="st0" d="M1190.1,252.3c1.4,2.1,3.2,3.9,5,5.7c0.2,0.2,1.4,0.5,1,0c-1.7-1.7-3.5-3.5-4.9-5.5
				C1191,252.2,1189.8,251.9,1190.1,252.3L1190.1,252.3z"/>
		</g>
		<g>
			<path class="st0" d="M1203.5,266.9c1.9,1.3,3.6,3,5.6,4.3c0.6,0.4,1-0.1,0.4-0.5c-1.9-1.3-3.6-3-5.6-4.3
				C1203.2,266,1202.8,266.5,1203.5,266.9L1203.5,266.9z"/>
		</g>
		<g>
			<path class="st0" d="M1192.5,267.3c-1.9,1.3-3.5,3.2-5,5c0-0.1,1,0.1,1.2-0.1c1.5-1.8,3.1-3.6,5-5
				C1193.6,267.3,1192.8,267.1,1192.5,267.3L1192.5,267.3z"/>
		</g>
		<g>
			<path class="st0" d="M1209.3,252.1c-2,2-4.3,3.7-5.6,6.2c-0.1,0.2,1,0.8,1.2,0.5c1.3-2.5,3.6-4.2,5.5-6.1
				C1210.6,252.4,1209.5,251.9,1209.3,252.1L1209.3,252.1z"/>
		</g>
	</g>
	<g>
		<g>
			<path class="st0" d="M157.4,399.7c2,3,4.6,5.5,7.1,8c0.4,0.4,1.5-0.1,1-0.6c-2.5-2.5-5-4.9-7-7.8
				C158.3,398.9,157.1,399.2,157.4,399.7L157.4,399.7z"/>
		</g>
		<g>
			<path class="st0" d="M175.9,420c2.8,1.9,5.2,4.3,7.9,6.2c0.3,0.2,1.3-0.3,1.2-0.3c-2.8-1.9-5.2-4.3-7.9-6.2
				C176.8,419.5,175.8,419.9,175.9,420L175.9,420z"/>
		</g>
		<g>
			<path class="st0" d="M161,420.4c-2.7,1.9-5,4.5-7.1,7.1c-0.3,0.4,0.8,0.9,1,0.6c2.1-2.5,4.4-5.2,7.1-7.1
				C162.4,420.8,161.3,420.1,161,420.4L161,420.4z"/>
		</g>
		<g>
			<path class="st0" d="M184.8,399.2c-2.8,2.8-6.1,5.3-8,8.9c-0.2,0.4,0.9,1,1.1,0.6c1.9-3.5,5.1-6,7.9-8.8
				C186.2,399.5,185.1,398.9,184.8,399.2L184.8,399.2z"/>
		</g>
	</g>
	<g>
		<g>
			<path class="st0" d="M153.2,81.7c-3.7-0.7-6.4,2.4-5.9,6c0.4,3,2.6,6.1,5.6,6.9c5.1,1.4,9.7-4.5,8.5-9.2c-0.9-3.9-4.7-5.9-8.2-7
				c-0.7-0.2-0.1,0.8,0.3,0.9c3.4,1,7.1,3.1,7.1,7.1c0,2.4-1.4,4.8-3.3,6.1c-2.2,1.6-5.1,1.7-7-0.4c-1.7-1.7-2.6-4.6-1.7-6.9
				c0.8-2,2.8-3.1,4.9-2.7C154.3,82.8,153.7,81.8,153.2,81.7L153.2,81.7z"/>
		</g>
	</g>
	<g>
		<g>
			<path class="st0" d="M1371,191.2c-2.4,0.7-5.4,1.9-7.9,1c-0.8-0.3-0.9,0.6-0.2,0.9c2.8,1.1,5.9,0,8.7-0.8
				C1372.3,192,1371.6,191,1371,191.2L1371,191.2z"/>
		</g>
		<g>
			<path class="st0" d="M1346.8,187c-3.2-0.5-5.8-1.7-8.3-3.9c-0.6-0.5,0,0.5,0.2,0.6c2.6,2.3,5.3,3.7,8.8,4.2
				C1347.6,187.9,1347.1,187,1346.8,187L1346.8,187z"/>
		</g>
		<g>
			<path class="st0" d="M1326.7,166.6c-1.9-1.7-4.4-3.1-5.4-5.6c-0.1-0.2-0.7-1-0.7-0.8c1.4,3.2,4.1,5.1,6.6,7.3
				C1327.4,167.7,1326.9,166.8,1326.7,166.6L1326.7,166.6z"/>
		</g>
		<g>
			<path class="st0" d="M1318.5,140.3c-0.5-1.6,0.3-3.3-0.2-4.9c-0.1-0.3-1-0.9-0.9-0.6c0.5,1.6-0.3,3.3,0.2,4.9
				C1317.7,140,1318.6,140.6,1318.5,140.3L1318.5,140.3z"/>
		</g>
		<g>
			<path class="st0" d="M1337.9,106.2c2.6-2.6,7.1-3.8,10.6-3.3c0.6,0.1-0.3-0.6-0.6-0.7c-3.7-0.6-8.4,0.7-11.1,3.4
				C1336.6,105.8,1337.6,106.5,1337.9,106.2L1337.9,106.2z"/>
		</g>
		<g>
			<path class="st0" d="M1370.7,99.4c1.9,0.8,3.9,0.7,5.8,1.5c0.7,0.3,1.2-0.7,0.5-1c-1.9-0.8-3.9-0.7-5.8-1.5
				C1370.5,98.1,1370,99.1,1370.7,99.4L1370.7,99.4z"/>
		</g>
		<g>
			<path class="st0" d="M1322,125.7c2.8-2.8,3.8-6.7,6.6-9.5c0.6-0.6-0.5-1-0.9-0.5c-2.8,2.8-3.8,6.7-6.6,9.5
				C1320.5,125.7,1321.5,126.1,1322,125.7L1322,125.7z"/>
		</g>
	</g>
	<g>
		<g>
			<path class="st0" d="M538.9,508c12.5-9.4,25.3-18.5,38.4-27.1c0.1-0.1,0.7-0.6,0.3-0.4c-10.7,4.3-21.1,9.1-32.1,12.6
				c-0.2,0.1-0.8,0.7-0.8,0.7c7.3-0.8,14.2-3.4,20.6-6.9c3.4-1.8,6.7-3.9,9.9-6c1.8-1.2,4.7-3.9,1.8-0.8c-1.4,1.5-2.7,3.1-4,4.7
				c-2.8,3.4-5.3,7-7.5,10.8c-1.1,1.8-2.4,3.8-3,5.9c-0.7,2.3,0,1-0.3-0.7c-1.1-6.4-9.4-8.2-14.8-7.6c-0.3,0-0.9,0.7-1,0.7
				c7-0.7,15.2,2.4,14.9,10.5c0,0.1,1-0.4,1.1-0.6c3.8-10,10.4-18.8,17.8-26.4c0.4-0.4-0.5,0.1-0.6,0.1c-8.8,6.6-18.5,12.4-29.3,15
				c-1.2,0.2-2.4,0.5-3.6,0.8c1.2-0.4,2.4-0.8,3.6-1.2c1.8-0.6,3.6-1.3,5.3-2c4.5-1.8,8.9-3.7,13.4-5.5c0.8-0.3,5.7-2.9,6.2-2.6
				c1.1-0.3,0.7,0-1,0.9c-1,0.7-2.1,1.4-3.1,2c-3.2,2.1-6.3,4.2-9.4,6.4c-7.8,5.5-15.6,11.1-23.2,16.8
				C537.8,508.5,538.5,508.2,538.9,508L538.9,508z"/>
		</g>
		<g>
			<path class="st0" d="M505.4,534.6c6.5-5.3,13-10.6,19.6-15.8c0.2-0.1-0.9,0-1.1,0.2c-6.6,5.2-13.2,10.5-19.7,15.9
				C504.4,534.8,505.2,534.8,505.4,534.6L505.4,534.6z"/>
		</g>
		<g>
			<path class="st0" d="M456.9,556.1c5.7-4.2,11.6-7.9,18.2-10.5c-0.3-0.3-0.6-0.5-0.9-0.8c-0.9,6.1-2.3,12.1-3.1,18.2
				c0,0.2,0.8,0.9,0.9,0.8c7-6.2,14.1-12.4,21.2-18.4c0.1-0.1-0.7-1-0.9-0.8c-7.1,6.1-14.2,12.2-21.2,18.4c0.3,0.3,0.6,0.5,0.9,0.8
				c0.9-6.1,2.3-12.1,3.1-18.2c0-0.2-0.7-0.9-0.9-0.8c-6.6,2.6-12.5,6.3-18.2,10.5C455.9,555.4,456.7,556.3,456.9,556.1L456.9,556.1
				z"/>
		</g>
		<g>
			<path class="st0" d="M415.4,592c12-8.7,22.2-19.6,33.2-29.3c0,0-1-0.4-1.2-0.2c-11.1,9.7-21.3,20.6-33.2,29.3
				C414.2,591.8,415.1,592.2,415.4,592L415.4,592z"/>
		</g>
	</g>
	<g>
		<path class="st0" d="M5.3,109.1c1.5-5,6.7-7.1,11.6-5.8c5.4,1.4,7.7,6,6.7,11.3c0.4,0,0.8,0.1,1.2,0.1
			c3.6-24.1,50.5-1.7,32.6,13.6c-0.6,0.5,0.1,1.3,0.7,0.9c10-7.3,21.8-2.9,27.2,7.6c2,3.9,3.2,8.6,2,12.9c-1.8,5.9-7.6,8-13.3,8.4
			c-0.7,0-0.8,1.1-0.1,1.1c12.4,1,23.2,23.2,10,30.3c-8.9,4.8-26.3,1.2-26.2-11c-0.4,0.1-0.8,0.1-1.2,0.2c1,4.6,0.3,10.5-4.7,12.5
			c-5.5,2.2-11.1-4-10.6-9.5c-0.4,0-0.8,0-1.2,0c0.4,4.1-7.5,9.6-10.4,11.5c-1.9,1.2-4.8,2.9-7.2,2.3c-3.7-0.9-3.5-5.4-3.4-8.4
			c-0.4,0.1-0.8,0.2-1.2,0.3c2.7,9.9-14.7,10.5-12.6-0.3c0.1-0.8-1.1-0.8-1.2-0.1c-2.4,12.4,18.3,11.9,15,0
			c-0.2-0.7-1.2-0.2-1.2,0.3c-0.4,6.8,2.6,11.3,9.6,8.3c3.2-1.4,6.1-3.7,8.6-6.2c1.9-1.8,5.5-5,5.2-7.9c-0.1-0.7-1.2-0.6-1.2,0
			c-0.6,5.6,4.6,12.1,10.6,11.1c6.6-1.2,8.4-8.5,7.1-14.2c-0.2-0.7-1.2-0.6-1.2,0.2c-0.1,13.5,19.9,17.4,29.3,11.1
			c12.6-8.4,1.4-30.7-11.6-31.7c0,0.4,0,0.7-0.1,1.1c5.5-0.4,11.3-2.3,13.8-7.7c2.2-4.9,1-10.7-1.4-15.2c-5.8-11.2-18.6-15.7-29.1-8
			c0.2,0.3,0.5,0.6,0.7,0.9c19.8-17.1-30.7-40.6-34.6-14.6c-0.1,0.8,1.1,0.8,1.2,0.1c2.4-13-16.9-18.2-20.7-5.7
			C3.9,109.7,5.1,109.8,5.3,109.1L5.3,109.1z"/>
	</g>
	<g>
		<path class="st0" d="M1233.5,479.7c5.4,2.2,11.3,2.6,16.7,4.7c0,0,0,0,0,0c4.4-12,10.7-23.2,24.5-25.3c9.6-1.5,20.3,1.9,25.3,10.9
			c3.3,5.9,4,14.2,1,20.4c-4.4,9.1-16.9,10.3-23.7,17.1c-10.5,10.5-6.9,25.8-1.2,37.7c0.1,0.2,0.7,0.9,0.9,0.8
			c6.6-1.7,13.6-4.1,19.3-8.1c0.1-0.1-0.7-0.7-0.7-0.8c-15.5-11.2,2.3-19,11.8-24.3c5.1-2.8,9.3-5.9,12-11.3
			c3.1-6.2,3.5-13.4,2.3-20.2c-4.5-26.2-35.3-49.3-61.9-39.7c-13.4,4.8-29.5,21.7-26.1,37.1c0.1,0.3,0.9,0.7,0.9,0.8
			c-3.1-14,10.2-28.7,21.5-34.9c15.9-8.7,37.1-2.3,49.9,9.3c11.8,10.7,19.7,30.2,12.9,45.6c-4.7,10.6-15.9,13.2-24.7,19.5
			c-3.3,2.3-7.1,5.7-6,10.2c1,3.8,4.8,6.6,7.8,8.7c-0.2-0.3-0.5-0.5-0.7-0.8c-5.7,4-12.6,6.4-19.3,8.1c0.3,0.3,0.6,0.5,0.9,0.8
			c-6-12.6-9.3-28.6,2.6-38.9c7.1-6.2,19.4-7.6,22.9-17.4c7.9-21.8-17.5-37.9-36.1-29.4c-6.2,2.8-10.3,8.1-13.3,14
			c-0.8,1.5-1.5,3.1-2.1,4.7c-1,2.4-1.2,3.7-4.1,3.5c-4.5-0.4-10.1-2.1-14.2-3.8C1232.8,478.9,1233.2,479.5,1233.5,479.7
			L1233.5,479.7z"/>
	</g>
	<g>
		<path class="st0" d="M1296.5,537.5c2-2.5,3.5-4.8,6.7-6c0.2-0.1,0.6-0.3,0.5-0.6c-4.2-11.1,15.7-16.5,21.6-22.6
			c10.2-10.6,8.2-28.1,3.9-40.8c-4.5-13.6-14.4-23.2-28.1-27.6c-15.7-5-29.7-0.6-45.2,2.7c-0.8,0.2-0.5,1,0.2,0.8
			c8.5-1.8,17-4.7,25.7-5.1c9.3-0.5,18.9,1.6,27.1,6.1c15.1,8.3,22.5,25.7,22.4,42.5c0,8.2-2.5,17.4-9.2,22.8
			c-4.3,3.4-9.3,5.7-13.8,8.9c-2.8,2-6.2,4.7-6.7,8.4c-0.1,0.9,0.2,1.7,0.1,2.6c-0.2,1.9,0,1.1-1.5,2.4c-1.9,1.6-3.3,3.3-4.9,5.3
			C1295,537.8,1296.2,537.9,1296.5,537.5L1296.5,537.5z"/>
	</g>
	<g>
		<path class="st0" d="M1248.4,482c5.6-0.2,10.5,1.5,15.7,3.2c0.3,0.1,1.1-0.3,1-0.7c-1.2-11.5,13.1-24.8,24.3-19.5
			c0.3,0.1,1.2-0.6,1-0.7c-11.9-5.7-27.6,8.8-26.4,20.8c0.3-0.2,0.7-0.4,1-0.7c-5.3-1.7-10.3-3.4-15.9-3.2
			C1249,481.3,1248.1,482,1248.4,482L1248.4,482z"/>
	</g>
	<g>
		<path class="st0" d="M1288.2,566.5c5.1,5.1,8.9,11.2,13.2,17c0.2,0.3,0.9,0.4,1.2,0.1c4.9-4.9,12.3-4.3,17.6-8.6
			c0.1-0.1,0.1-0.2,0-0.3c-5.1-5.6-9.3-11.8-14-17.7c-0.2-0.3-0.9-0.3-1.1,0c-4.2,3.8-8.9,6.4-14.3,7.9c-0.6,0.2,0.5,0.6,0.8,0.5
			c4.7-1.3,8.1-3.5,12.2-5.9c2.2-1.3,2.3-1.1,4,1.2c1.8,2.3,3.5,4.7,5.2,7c1.2,1.6,4.4,4.1,4.9,6.1c0.9,3.2-4.1,4-6.3,4.6
			c-3.9,1.1-7.2,2.1-10.2,5c0.4,0,0.8,0.1,1.2,0.1c-4.3-5.8-8.2-12-13.3-17.2C1289.1,566,1287.9,566.1,1288.2,566.5L1288.2,566.5z"
			/>
	</g>
	<g>
		<path class="st0" d="M1306.1,558.4c0.4-3.7,1-8.2,2.2-11.8c-0.4-1.3,0.1-2.1,1.2-2.4c0.8,0.8,1.6,1.6,2.5,2.5
			c1.4,1.4,2.9,2.8,4.3,4.3c3.4,3.5,8.7,7.3,6.1,12.4c-1.6,3.1-2.8,6.3-3.7,9.7c-0.1,0.3,0.7,1,0.7,1c1.1-4.8,3.2-9,5.6-13.3
			c0.1-0.2-0.3-0.6-0.4-0.7c-5-6.5-10.9-12.1-16.7-17.9c0,0-0.2-0.2-0.2-0.1c-0.1,5.2-1.8,10.1-2.4,15.3
			C1305.3,557.7,1306.1,558.4,1306.1,558.4L1306.1,558.4z"/>
	</g>
	<g>
		<path class="st0" d="M1290.6,564.1c1.4-3.8,1.7-7.5,2.6-11.3c0.7-3,5.6-5.5,8.3-6.8c0.1-0.1-0.8-0.6-1.1-0.4
			c-2.9,1.4-5.3,3.7-8.3,5.1c0,0,0,0,0,0c-0.1,4.5-1.1,8.9-2.6,13.1C1289.3,564,1290.5,564.4,1290.6,564.1L1290.6,564.1z"/>
	</g>
	<g>
		<path class="st0" d="M1266.1,422.4c-12.5-14.1-11.3-35.3-21.7-50.7c-0.1-0.2-1.2-0.8-0.9-0.3c10.5,15.5,9.3,36.7,21.9,50.9
			C1265.6,422.5,1266.6,423,1266.1,422.4L1266.1,422.4z"/>
	</g>
	<g>
		<path class="st0" d="M1226.4,430.6c-7.4-3.5-13.1-9.3-18.1-15.7c-0.2-0.3-1.3,0.3-1.2,0.5c5.1,6.4,10.7,12.2,18.2,15.8
			C1225.6,431.3,1226.6,430.6,1226.4,430.6L1226.4,430.6z"/>
	</g>
	<g>
		<path class="st0" d="M1220,452.2c-10.5-2.4-20.8-4.7-31.6-4.8c-0.7,0-1,0.8-0.2,0.8c10.7,0.2,20.9,2.4,31.3,4.8
			C1220.1,453.2,1220.8,452.4,1220,452.2L1220,452.2z"/>
	</g>
	<g>
		<path class="st0" d="M1223,488.7c-7.5,3.3-15,6.4-22.9,8.4c-0.8,0.2,0.1,0.7,0.6,0.6c8-2.1,15.6-5.2,23.1-8.5
			C1224.5,488.9,1223.4,488.5,1223,488.7L1223,488.7z"/>
	</g>
	<g>
		<path class="st0" d="M1238.6,504.7c-11.7,13.7-26.2,25-41.1,35c-0.5,0.3,0.7,0.2,0.9,0c14.9-10.1,29.5-21.4,41.2-35.2
			C1239.9,504.3,1238.8,504.5,1238.6,504.7L1238.6,504.7z"/>
	</g>
	<g>
		<path class="st0" d="M1251.9,524.9c-3.9,5-8.1,9.6-13.3,13.3c-0.3,0.2,0.7,0.9,1,0.7c5.2-3.7,9.5-8.4,13.4-13.4
			C1253.2,525.3,1252.2,524.6,1251.9,524.9L1251.9,524.9z"/>
	</g>
	<g>
		<path class="st0" d="M1265.3,548.1c-10.7,10.9-19.5,23.6-27.8,36.3c-0.4,0.6,0.8,0.6,1,0.2c8.3-12.7,17.1-25.4,27.8-36.3
			C1266.8,547.8,1265.6,547.8,1265.3,548.1L1265.3,548.1z"/>
	</g>
	<g>
		<path class="st0" d="M1294.2,423.4c3.1-13.1,3.5-26.6,3.6-40c0-0.5-1.1,0-1.1,0.5c-0.1,13.4-0.6,26.8-3.6,39.8
			C1292.9,424.3,1294.1,423.9,1294.2,423.4L1294.2,423.4z"/>
	</g>
	<g>
		<path class="st0" d="M1317.2,433.3c8.7-16.7,20.6-31.5,29-48.4c0.3-0.6-0.9-0.5-1.2-0.1c-8.4,16.9-20.3,31.7-29,48.4
			C1315.7,433.8,1316.9,433.7,1317.2,433.3L1317.2,433.3z"/>
	</g>
	<g>
		<path class="st0" d="M1329.1,450.5c5-3,9.3-7,14.5-9.7c0.7-0.3-0.4-0.8-0.8-0.6c-5.2,2.7-9.5,6.6-14.5,9.7
			C1327.7,450.3,1328.7,450.7,1329.1,450.5L1329.1,450.5z"/>
	</g>
	<g>
		<path class="st0" d="M1341,478.4c8.5-3.2,18.6-1.2,27.5-1.2c0.7,0,1.1-0.8,0.2-0.8c-9.2-0.1-19.4-2.1-28.2,1.3
			C1339.8,478,1340.4,478.6,1341,478.4L1341,478.4z"/>
	</g>
	<g>
		<path class="st0" d="M1338.6,500.2c3.8,0.3,8.4,1.2,11.5,3.4c0.3,0.2,1.4,0.2,0.8-0.2c-3.5-2.5-8.5-3.6-12.7-3.8
			C1337.4,499.4,1338.2,500.1,1338.6,500.2L1338.6,500.2z"/>
	</g>
	<g>
		<path class="st0" d="M1331.7,528.8c8.3,8.4,21.3,10.5,30.3,18.2c0.3,0.2,1.1,0.2,1.2,0.2c-9-7.6-22-9.8-30.3-18.2
			C1332.7,528.7,1331.8,528.8,1331.7,528.8L1331.7,528.8z"/>
	</g>
	<g>
		<path class="st0" d="M1015.6,44.8c-15-18,26.1-41.7,37.2-15.6c9.8,23.3-29.8,31.8-38.6,11.1c-0.1-0.3-1-0.5-1.1-0.6
			c6.3,14.8,31.2,19.1,40.3,4.4c4.9-8,0.1-18.8-7-23.8c-7.1-5-16.1-4.4-23.5-0.4c-8.9,4.8-15.7,15.3-8.2,24.3
			C1014.8,44.5,1015.7,44.9,1015.6,44.8L1015.6,44.8z"/>
	</g>
	<g>
		<path class="st0" d="M1029.7,32.3c-2.6,2.7-4.8,7.5,0.1,9c4.5,1.4,9.3-1.6,11.5-5.5c0.1-0.2,0.1-0.3,0-0.5
			c-3.1-5.1-7.9-5.6-13-3.1c-0.7,0.4-0.1,1.1,0.6,0.8c3.6-1.7,7.3-2.1,10.1,1.1c1.3,1.6,0.7,2.5-0.6,3.8c-1,1-2.2,1.8-3.6,2.2
			c-1.8,0.6-4.5,0.8-6-0.7c-2.1-2.1,0.2-5,1.7-6.6C1031.1,32.3,1030.2,31.8,1029.7,32.3L1029.7,32.3z"/>
	</g>
	<g>
		<path class="st0" d="M1049.6,56.1c-12.7,2.9-28.1,0-38.2-8.6c-3.8-3.2-7.1-7.7-6.9-12.9c0.2-8.2,8.2-13.9,14.6-17.5
			c9.5-5.4,21.1-7.3,30.4-0.5c6.3,4.7,10.4,12.4,11.4,20.2c1.1,8.6-2.3,18-12.4,17.6c-0.5,0-1.3,0.9-0.5,0.9c8,0.3,13.2-5,14.1-12.7
			c1.1-9.1-2.9-18.9-9.6-25.1c-8.4-7.7-19.8-7.7-29.8-3.3c-11,4.9-25.7,16.6-16.3,29.5c9.1,12.6,29.1,16.3,43.4,13
			C1050.3,56.8,1050.4,55.9,1049.6,56.1L1049.6,56.1z"/>
	</g>
	<g>
		<path class="st0" d="M1106.3,50c-10.3,0.7-22.8-3.2-22.8-15.7c0-7.4,5-13.9,11.8-16.6c8.9-3.5,22.8-1.9,28.7,6.4
			c5.2,7.3,2.3,17.7-3.5,23.8c-6.9,7.1-16.6,7.2-24.7,2.1c0.1,0,0.3,0.9,0.6,1.1c9.3,5.9,20.4,4.5,26.9-4.8c4.5-6.5,5.6-15.2,1.2-22
			c-11-16.9-47.4-9.4-41,13.6c2.9,10.4,13.5,13.9,23.4,13.2C1107,51.1,1106.6,50,1106.3,50L1106.3,50z"/>
	</g>
	<g>
		<path class="st0" d="M1102.5,40c-1.9-1-3.5-2.4-4.7-4.2c-0.4-0.6-1.1-1.6-1.1-2.3c0-0.5,0.8-1.4,1.1-1.8c1.1-1.6,2.4-3.2,4.1-4.2
			c2.1-1.3,4.3-0.9,5.8,1c1.6,1.9,2.3,4.5,2.5,7c0.1,1.9,0,4.7-1.7,5.9c-2.8,1.9-7.1-2.4-8.9-4.1c-0.4-0.4-1.5,0.1-1,0.6
			c2.3,2.2,6.1,5.8,9.7,4.6c2.5-0.8,3.1-3.7,3.2-6c0.1-5-3.4-13.1-9.6-10.1c-2.1,1-3.7,2.9-5,4.8c-0.4,0.6-1.3,1.4-1.4,2.1
			c-0.2,0.8,0.7,2,1.2,2.7c1.3,2,3.1,3.6,5.2,4.7C1102.2,40.9,1103.2,40.3,1102.5,40L1102.5,40z"/>
	</g>
	<g>
		<path class="st0" d="M1101.8,59.1c-11.7,1.3-21.8-4.5-23.4-16.7c-1.2-9,2.4-18.9,9.6-24.7c9.9-7.9,25.5-5.7,35,1.8
			c9.4,7.4,8.3,19.7,2.3,28.9c-4.9,7.5-17.3,17.9-25.9,9.4c-0.5-0.5-1-0.1-0.5,0.4c7.8,7.7,18.6,1.5,24.5-5.4
			c7-8.2,10.8-20.8,3.6-30.1c-7.6-10-24.8-14.3-36.1-8.5c-10,5.1-15.2,17.3-13.5,28.2c2,12.7,12.7,19,24.9,17.6
			C1102.9,60,1102.2,59,1101.8,59.1L1101.8,59.1z"/>
	</g>
	<g>
		<path class="st0" d="M1166.8,35c-2.8-0.3-4.7-2.2-3.5-5.1c0.9-2.2,3.3-3.4,5.6-3c1.6,0.3,3.4,1.1,3.7,2.9c0.1,1.1-0.3,2.2-1,3
			c-1.9,2.4-5.1,2.5-7.7,1.1c-0.6-0.3,0,0.8,0.3,0.9c2.6,1.3,5.7,1.4,7.9-0.8c1.6-1.7,2-4.1,0.5-6c-3.1-4-10.9-2.6-10.5,3.1
			c0.2,2.8,2.7,4.4,5.3,4.7C1167.8,36.1,1167.1,35,1166.8,35L1166.8,35z"/>
	</g>
	<g>
		<path class="st0" d="M1162.7,47.6c-9.4-4-15.3-13.8-9.1-23.2c5.2-7.9,16.2-9.6,24.4-5.6c9.1,4.4,7.6,14.7,2,21.3
			c-5.6,6.5-14.3,8.9-21.8,4.3c-0.7-0.4-0.4,0.6,0,0.9c6.8,4.1,14.6,3,20.5-2.1c5-4.3,8.8-11.7,6.2-18.3c-2.7-6.9-11.5-9.6-18.4-9.1
			c-7.6,0.6-14.6,5.8-16.2,13.5c-1.9,9,4.7,15.9,12.4,19.3C1163.4,48.8,1163.1,47.8,1162.7,47.6L1162.7,47.6z"/>
	</g>
	<g>
		<path class="st0" d="M1164.9,52.8c-10.6,0.4-18.4-8.4-20.6-18.2c-2.7-12.2,4.3-21.8,16.9-22.9c10.8-1,25.5,3.9,27.6,16.1
			c1.3,7.3-2.9,15.4-8.4,19.9c-6.8,5.5-16,6.6-24.3,5.1c-0.4-0.1-1.3,0.7-0.8,0.8c11.2,2,23.8-0.9,30.5-10.8
			c6.5-9.7,5.6-21.4-4.8-27.7c-8.5-5.2-21.4-6.2-30.1-0.9c-7.4,4.6-9.4,13.7-7.4,21.8c2.5,9.7,10.4,18,20.9,17.6
			C1164.7,53.6,1165.6,52.8,1164.9,52.8L1164.9,52.8z"/>
	</g>
	<g>
		<path class="st0" d="M280.6,563.7c9.3,0.8,18.6,2.5,27.5,5.3c8.1,2.5,19.3,6.5,22,15.5c0.1,0.4,1.3,0,1.2-0.4
			c-2.6-8.7-13.3-12.8-21.1-15.4c-9.3-3.1-19.1-4.9-28.9-5.7C281,563,280,563.6,280.6,563.7L280.6,563.7z"/>
	</g>
	<g>
		<path class="st0" d="M291.1,546.6c9.1-2.3,18.1-1.6,26,3.9c0.3,0.2,1.1-0.6,1.1-0.6c-7.9-5.6-17.2-6.3-26.4-3.9
			C291.6,546.1,290.6,546.8,291.1,546.6L291.1,546.6z"/>
	</g>
	<g>
		<path class="st0" d="M600.7,76.3c0.1,14.3,1.6,28.7,4,42.8c0.1,0.7,1.3,0.4,1.2-0.3c-2.4-14-3.9-28.3-4-42.5
			C601.9,75.6,600.7,75.7,600.7,76.3L600.7,76.3z"/>
	</g>
	<g>
		<path class="st0" d="M584.7,95c10,3.8,22.2,1.2,32.5,0.1c0.1,0-0.8-0.2-1.1-0.2c-9.5,1-21.1,3.6-30.2,0.1
			C585.6,94.9,584.9,95,584.7,95L584.7,95z"/>
	</g>
	<g>
		<path class="st0" d="M1323.3,69.8c-39.5,4.6-59,55.5-50.3,90.2c3.1,12.5,10.5,23.7,18.8,33.4c9.4,11,20.2,22,32.9,29.1
			c6.2,3.5,12.7,6.3,19,9.6c1.8,1,7.7,3.1,8.5,5c0.4,1,1.4,0.1-1.2,0.6c-1,0.2-2.2,0-3.2,0c-2.7-0.2-5.4-0.6-8.1-1.1
			c-7.6-1.6-14.9-4.4-22.2-7c-3.5-1.3-7-2.5-10.6-3.6c-1.6-0.5-3.2-1.1-4.8-1.4c0.5,0.1-2.7-0.2-2.7-0.2c0.7,0.3,2.1,0.2,2.9,0.3
			c8.4,1,16.6,3.1,24.7,5.7c4.1,1.3,8.1,2.8,12.1,4.5c3.6,1.5,7.1,3.8,10.8,5.1c3.2,1.2,1.4,0-0.3-1c-1.6-1-3.1-2.1-4.5-3.3
			c-3-2.6-5.5-5.6-7.8-8.9c-4.1-5.9-7.1-12.4-10.3-18.8c-0.1-0.3-1.2,0-1.2,0.3c0.9,13.1-18,13.6-27.2,13.5c-0.3,0-1.4,0.5-0.8,0.5
			c9.4,0,30.2-0.5,29.2-14.3c-0.4,0.1-0.8,0.2-1.2,0.3c6.3,12.8,12.8,26.7,26.5,33.1c0.3,0.1,1.3-0.3,1.1-0.4
			c-16.3-9.4-35.7-15.7-54.5-17.1c-0.2,0-1.3,0.4-0.9,0.5c18.7,4.2,36.2,15.3,55.8,13.8c0.1,0,1.1-0.3,0.8-0.4
			c-13.8-9.8-30.4-14.3-43.1-25.9c-13.5-12.3-26.6-25.9-34-42.8c-10-22.8-4.9-51.5,7.9-72.2c8.4-13.5,21.2-24.6,37.5-26.5
			C1323.1,70.2,1324,69.7,1323.3,69.8L1323.3,69.8z"/>
	</g>
	<g>
		<path class="st0" d="M1258.5,102.9c-12.5,19.7-9.2,44.9-3.1,66.3c0.2,0.7,1.4,0.3,1.2-0.3c-6.1-21.2-9.5-46.1,2.9-65.7
			C1260,102.5,1258.8,102.4,1258.5,102.9L1258.5,102.9z"/>
	</g>
	<g>
		<g>
			<path class="st0" d="M53.4,489.9c4.1,2.9,8.7,4.7,13.7,5.1c0.6,0.1,0-1-0.4-1c-4.9-0.4-9.3-2.1-13.3-4.9
				C52.7,488.6,53,489.7,53.4,489.9L53.4,489.9z"/>
		</g>
		<g>
			<path class="st0" d="M47.9,494.6c1.5,4.2,2.4,10.2,5.2,13.8c0.7,0.9,1.3,1.4,2.3,1.8c0.5,0.2,1,0,1.5,0.1
				c1.6,0.3,3.7,1.2,5.2,1.4c1.9,0.2,3-0.1,4.5-1.4c3.7-3.2,6.3-8.6,9-12.6c0.4-0.5-0.9-0.6-1.1-0.2c-1.7,2.4-3.4,4.9-5,7.3
				c-1.6,2.4-2,2.9-5,4.2c-5.5,2.3-1.4,0.7-4.5,0.5c-0.4,0-1,0-1.4-0.1c-4.7-1.4-4.5-1.5-5.8-5c-1.3-3.4-2.4-6.8-3.6-10.2
				C49,493.8,47.7,494.1,47.9,494.6L47.9,494.6z"/>
		</g>
		<g>
			<path class="st0" d="M51.6,512.3c-4.6,26.3-9.3,55.5,5,79.8c3.3,5.7,7.7,10.5,12.6,14.8c3.3,2.9,7.4,7.6,11.9,8.6
				c2.5,0.5,5.2-0.4,7.6-0.9c4.2-0.9,8.4-1.5,12.6-1.9c8.5-0.8,17.1-0.5,25.6,0.7c0.3,0,1.4-0.5,0.8-0.6
				c-11.8-1.6-23.7-1.5-35.5,0.6c-5,0.9-10.1,2.6-14.5-0.7c-2.6-1.9-5-4-7.4-6.2c-4.7-4.2-8.9-8.8-12.2-14.1
				c-14.7-24.2-9.9-53.9-5.3-80.2C52.8,511.8,51.6,512,51.6,512.3L51.6,512.3z"/>
		</g>
		<g>
			<path class="st0" d="M127.9,614c-0.5-8.2-1-16.4-1.5-24.6c0-0.2-0.8-0.7-1-0.7c-20.3,3-38.9-9.8-48.6-26.9
				C68.4,547,65.7,530,64.6,513.3c0-0.3-1-0.7-1-0.6c1.5,23.2,6.6,48.3,24.9,64.3c6.6,5.7,14.5,10.2,23.1,12
				c2.2,0.5,4.4,0.8,6.6,0.9c2.2,0.1,6.1-0.9,7.2,0.8c0.5,0.7,0.3,4.8,0.4,5.7c0.1,1.9,0.2,3.8,0.4,5.7c0.2,3.8,0.5,7.6,0.7,11.4
				C126.8,613.6,127.9,614.1,127.9,614L127.9,614z"/>
		</g>
		<g>
			<g>
				<path class="st0" d="M46.8,486.7c-6.7-3.5-13-9.5-15.4-16.9c-3.4-10.3,10.4-7.1,15.9-4.8c3.6,1.5,7.1,3.4,10.6,5.1
					c13.8,6.6,28.7,6.5,43.5,9c8.8,1.5,17.8,4.1,25,9.7c3,2.3,8.2,6.2,4.3,10.1c-3.5,3.5-6.7,2.2-11.1,1.3c-6.7-1.4-5.7-1.4-9.8-4.7
					c-3.2-2.5-6.7-3.3-10.7-3c-7.6,0.6-15.2,3.5-22.5,5.4c-0.1,0,0.3,0.2,0.4,0.2c4.2-1.1,8.4-2.3,12.6-3.4c2.2-0.6,4.3-1.2,6.6-1.6
					c4.7-0.9,10.8,0.5,14.4,3.5c3.8,3.1,6.7,5.4,11.8,5.4c3.3,0,10.6-1.6,10.4-6.1c-0.2-4.7-8.7-9.3-12.3-11.1
					c-11.9-6.1-25.5-6.5-38.5-8.2c-11.2-1.5-20.5-5-30.6-9.9c-4.7-2.3-9.9-4.5-15.2-4.6c-6.4-0.1-6.7,4.7-4.4,9.8
					c3.1,6.6,8.3,11.7,14.6,15C46.5,486.8,47,486.8,46.8,486.7L46.8,486.7z"/>
			</g>
			<g>
				<path class="st0" d="M43.1,489.1c-8.8-5.4-14.1-14.4-14.8-24.6c0-0.1-0.4-0.4-0.4-0.3c0.7,10.6,6.3,19.8,15.3,25.3
					C43.4,489.6,43.2,489.2,43.1,489.1L43.1,489.1z"/>
			</g>
			<g>
				<path class="st0" d="M75.3,502.9c5,0.1,9.9-0.3,14.8-1.4c5.3-1.1,11.3-4.4,16.8-3.4c4.6,0.9,6.6,5.4,10.6,7.3
					c4,1.9,8.7,1.3,12.9,0.7c0.1,0,0.4-0.2,0.4-0.2c-5.4,0.7-10.9,1.2-15.4-2.4c-3.4-2.6-5-5.7-9.7-5.8c-3.4-0.1-6.7,1.2-9.9,2.1
					c-6.6,1.9-13.2,2.8-20,2.8C75.6,502.6,75.4,502.9,75.3,502.9L75.3,502.9z"/>
			</g>
		</g>
	</g>
</g>
</svg>
