<?xml version="1.0" encoding="UTF-8" standalone="no"?>
<!-- Generator: Adobe Illustrator 22.1.0, SVG Export Plug-In . SVG Version: 6.00 Build 0)  -->

<svg
   xmlns:dc="http://purl.org/dc/elements/1.1/"
   xmlns:cc="http://creativecommons.org/ns#"
   xmlns:rdf="http://www.w3.org/1999/02/22-rdf-syntax-ns#"
   xmlns:svg="http://www.w3.org/2000/svg"
   xmlns="http://www.w3.org/2000/svg"
   xmlns:sodipodi="http://sodipodi.sourceforge.net/DTD/sodipodi-0.dtd"
   xmlns:inkscape="http://www.inkscape.org/namespaces/inkscape"
   version="1.1"
   id="Layer_1"
   x="0px"
   y="0px"
   viewBox="0 0 1400 639"
   style="enable-background:new 0 0 1400 639;"
   xml:space="preserve"
   inkscape:version="0.91 r13725"
   sodipodi:docname="05_02.svg"><metadata
     id="metadata267"><rdf:RDF><cc:Work
         rdf:about=""><dc:format>image/svg+xml</dc:format><dc:type
           rdf:resource="http://purl.org/dc/dcmitype/StillImage" /></cc:Work></rdf:RDF></metadata><defs
     id="defs265" /><sodipodi:namedview
     pagecolor="#ffffff"
     bordercolor="#666666"
     borderopacity="1"
     objecttolerance="10"
     gridtolerance="10"
     guidetolerance="10"
     inkscape:pageopacity="0"
     inkscape:pageshadow="2"
     inkscape:window-width="1366"
     inkscape:window-height="718"
     id="namedview263"
     showgrid="false"
     inkscape:zoom="1"
     inkscape:cx="847.91946"
     inkscape:cy="187.41946"
     inkscape:window-x="0"
     inkscape:window-y="24"
     inkscape:window-maximized="1"
     inkscape:current-layer="g5" /><style
     type="text/css"
     id="style3">
	.st0{fill:#2C9942;}
</style><g
     id="g5"><g
       id="g7"><g
         id="g9"><path
           class="st0"
           d="M45.6,384.6c13.2-9.1,24-21.1,36.4-31.3c0.5-0.4-0.5-1.2-0.9-0.8c-12.3,10.2-23.2,22.2-36.4,31.3     C44.1,384.2,45.1,385,45.6,384.6L45.6,384.6z"
           id="path11" /></g><g
         id="g13"><path
           class="st0"
           d="M81.7,351.6c-4.7,0.7-12,1-15.3,4.8c-0.1,0.1,0.8,0.7,1,0.8c4.1,0.7,7.8,3.6,11.1,5.8c0,0,0.4,0.3,0.4,0.2     c0.8-3.7,2.5-7,4.5-10.2c0.1-0.1-1-0.8-1-0.8c-1.3,2.3-2.7,4.6-3.6,7.1c-0.3,0.7-0.5,1.4-0.7,2.1c-0.1,1-0.4,1.2-1,0.5     c-0.5-0.1-1.4-1-1.9-1.2c-2.7-1.7-5.6-3.7-8.8-4.2c0.3,0.3,0.6,0.5,1,0.8c3.4-3.7,10.7-4.1,15.3-4.8     C82.6,352.4,82,351.6,81.7,351.6L81.7,351.6z"
           id="path15" /></g></g><g
       id="g17"><g
         id="g19"><path
           class="st0"
           d="M1168,137c1.2,0.3,2.1,0.7,3.4,0.6c0.7-0.1,0.8-1.2,0-1.1c-1.1,0.1-2-0.4-3-0.6     C1167.6,135.7,1167.2,136.8,1168,137L1168,137z"
           id="path21" /></g><g
         id="g23"><path
           class="st0"
           d="M1186.6,141.8c1.1,0.6,2.3,1.2,3.6,1.1c0,0-0.3-0.5-0.4-0.5c-0.1-0.1-0.3-0.4-0.5-0.4     c-1.3,0.1-2.4-0.4-3.4-1c-0.2-0.1,0,0.2,0.1,0.2C1186.2,141.5,1186.4,141.7,1186.6,141.8L1186.6,141.8z"
           id="path25" /></g><g
         id="g27"><path
           class="st0"
           d="M1206.1,154.8c1.1,1.5,2.1,3,3.6,4.1c0.5,0.4,1.3-0.1,0.6-0.6c-1.3-1-2.3-2.4-3.2-3.7     C1206.8,154.2,1205.7,154.2,1206.1,154.8L1206.1,154.8z"
           id="path29" /></g><g
         id="g31"><path
           class="st0"
           d="M1220.3,173.4c1.7,1.5,3.4,3,4.2,5.1c0.3,0.6,1.2,0.6,0.9-0.2c-0.9-2.3-2.7-4-4.6-5.6     C1220.3,172.1,1219.8,173,1220.3,173.4L1220.3,173.4z"
           id="path33" /></g><g
         id="g35"><path
           class="st0"
           d="M1230.2,192.1c1,2.4,1.9,4.9,2.3,7.5c0,0.2,1.2-0.1,1.2-0.4c-0.4-2.6-1.3-5-2.3-7.5     C1231.2,191.4,1230.1,191.9,1230.2,192.1L1230.2,192.1z"
           id="path37" /></g><g
         id="g39"><path
           class="st0"
           d="M1237.9,215.5c-0.8,2.7-0.5,5.3,1.1,7.7c0.1,0.2,1.2-0.4,1.2-0.4c-1.6-2.4-1.9-4.9-1.1-7.7     C1239,215.2,1238,215.2,1237.9,215.5L1237.9,215.5z"
           id="path41" /></g><g
         id="g43"><path
           class="st0"
           d="M1240,234.6c-0.4,2.7,0,5.3,1.1,7.8c0.2,0.5,1.4,0.5,1.2,0c-1-2.4-1.5-4.9-1.1-7.5     C1241.3,234.3,1240.1,234.1,1240,234.6L1240,234.6z"
           id="path45" /></g><g
         id="g47"><path
           class="st0"
           d="M1242.5,257.6c-0.4,2.5-0.1,5,0.8,7.4c0.2,0.5,1.3-0.1,1.1-0.6c-0.8-2.3-1.1-4.6-0.7-7     C1243.7,256.8,1242.5,257.1,1242.5,257.6L1242.5,257.6z"
           id="path49" /></g><g
         id="g51"><path
           class="st0"
           d="M1253.8,285.9c0.1,2.1,0.8,4.1,1.4,6.2c0.1,0.5,1.2,0.9,1,0.2c-0.6-2-1.3-3.9-1.3-5.9     C1254.8,285.9,1253.7,285.3,1253.8,285.9L1253.8,285.9z"
           id="path53" /></g><g
         id="g55"><path
           class="st0"
           d="M1263.4,303.2c1.3,4.1,4.3,7,7.9,9.3c0.7,0.4,0.9-0.5,0.3-0.9c-3.1-2-5.9-4.7-7.1-8.3     C1264.3,302.7,1263.2,302.5,1263.4,303.2L1263.4,303.2z"
           id="path57" /></g><g
         id="g59"><path
           class="st0"
           d="M1279.6,319c2.5,3.4,6.3,5,10.1,6.5c0.5,0.2,1.4-0.6,0.8-0.8c-3.7-1.5-7.5-3-9.9-6.3     C1280.3,317.9,1279.3,318.5,1279.6,319L1279.6,319z"
           id="path61" /></g><g
         id="g63"><path
           class="st0"
           d="M1298.6,328c3.6,1.1,7.2,0.7,10.8,0.2c0.7-0.1,0.3-1.3-0.3-1.2c-3.5,0.5-7.1,0.9-10.6-0.2     C1297.9,326.6,1298,327.8,1298.6,328L1298.6,328z"
           id="path65" /></g><g
         id="g67"><path
           class="st0"
           d="M1306.9,317.5c4.8,1.9,9.8,3.4,15,3.3c-0.4-0.2-0.7-0.4-1.1-0.6c-3.3,4.1-3.6,9.1-4.1,14.1     c0,0.2,1.1,0.5,1.1,0.6c0.5-5,0.8-10,4.1-14.1c0-0.1-0.9-0.6-1.1-0.6c-5.1,0.1-10-1.4-14.7-3.2     C1305.7,316.8,1306.7,317.4,1306.9,317.5L1306.9,317.5z"
           id="path69" /></g><g
         id="g71"><path
           class="st0"
           d="M1319.1,310.5c4.2,1.1,8.4,1.2,12.7,1c-0.2-0.1-0.4-0.1-0.6-0.2c-1.1,4-1.6,8.2-1.8,12.3     c0,0.2,1.2,0.3,1.2,0c0.2-4.2,0.7-8.3,1.8-12.3c0-0.2-0.6-0.2-0.6-0.2c-4,0.2-8,0.1-11.8-0.9     C1319.8,310.2,1318.6,310.4,1319.1,310.5L1319.1,310.5z"
           id="path73" /></g></g><g
       id="g75"><g
         id="g77"><path
           class="st0"
           d="M1229,474c1.4,2.1,3.2,3.8,5,5.6c0.3,0.3,1.4,0,1.2-0.2c-1.8-1.8-3.5-3.5-5-5.6     C1230,473.4,1228.8,473.6,1229,474L1229,474z"
           id="path79" /></g><g
         id="g81"><path
           class="st0"
           d="M1242.7,488.6c1.9,1.3,3.6,3,5.6,4.3c0.3,0.2,0-0.9-0.3-1.1c-1.9-1.3-3.6-3-5.6-4.3     C1242.1,487.3,1242.5,488.4,1242.7,488.6L1242.7,488.6z"
           id="path83" /></g><g
         id="g85"><path
           class="st0"
           d="M1231.5,488.7c-1.9,1.3-3.5,3.2-5,5c0,0,1,0.2,1.2,0c1.5-1.8,3.1-3.6,5-5     C1232.6,488.8,1231.7,488.5,1231.5,488.7L1231.5,488.7z"
           id="path87" /></g><g
         id="g89"><path
           class="st0"
           d="M1248.3,473.5c-2,2-4.2,3.7-5.6,6.2c-0.1,0.2,1,0.8,1,0.8c1.3-2.5,3.6-4.2,5.6-6.2     C1249.3,474.2,1248.4,473.3,1248.3,473.5L1248.3,473.5z"
           id="path91" /></g></g><g
       id="g99"><g
         id="g101"><path
           class="st0"
           d="M53.4,130.1c-2.9-0.6-5,1.8-4.6,4.6c0.3,2.4,2.1,4.7,4.4,5.3c3.9,1,7.5-3.2,6.7-7c-0.6-3-3.7-4.6-6.4-5.4     c-0.8-0.2-0.6,0.6,0,0.7c2.5,0.8,5.2,2.3,5.3,5.2c0.1,1.9-0.9,3.7-2.4,4.8c-1.7,1.3-3.8,1.3-5.3-0.4c-2-2.4-1.8-7.9,2.5-7.1     C54.5,131.1,53.8,130.2,53.4,130.1L53.4,130.1z"
           id="path103" /></g></g><g
       id="g105"><g
         id="g107"><path
           class="st0"
           d="M1156.9,209.8c0,10.5,0,21.1,1.9,31.6c0.1,0.4,1.3,0.4,1.2,0.1c-1.8-10.4-1.9-21-1.9-31.6     C1158.2,209.5,1156.9,209.4,1156.9,209.8L1156.9,209.8z"
           id="path109" /></g><g
         id="g111"><path
           class="st0"
           d="M1142.8,225c10-1,19.9,1,29.9-0.6c0.8-0.1-0.1-0.7-0.6-0.6c-9.8,1.6-19.7-0.4-29.6,0.6     C1141.7,224.4,1142.2,225.1,1142.8,225L1142.8,225z"
           id="path113" /></g></g><g
       id="g115"><path
         class="st0"
         d="M1394.6,382.6c-7.2,3.5-14.4,7.9-19,14.7c-4.7,6.9-5.9,15.7-5.3,23.9c1.1,15.4,9.7,30.7,26,33    c0.8,0.1,0.1-0.7-0.4-0.8c-18-2.6-25.4-22-24.5-38.2c0.9-15.8,10.4-25.3,24-31.9C1396,383.1,1394.9,382.5,1394.6,382.6    L1394.6,382.6z"
         id="path117" /></g><g
       id="g119"><path
         class="st0"
         d="M1398.7,362.7c-14.9,5.4-29.5,10.2-39.9,22.7c-9.3,11.2-14.5,25.5-13.9,40.1c1.3,28.1,27.2,48.4,52.2,55.7    c0.5,0.2,1.4-0.5,0.6-0.7c-24.8-7.2-50.3-27.3-51.6-55c-0.6-14.2,4.3-28.2,13.2-39.1c10.4-12.7,25.1-17.6,40-23    C1400.1,363,1399.2,362.5,1398.7,362.7L1398.7,362.7z"
         id="path121" /></g><g
       id="g123"><path
         class="st0"
         d="M75,581.4c-3.2-7.3-7.5-14.1-10.9-21.3c-3.3-7-5.6-14.4-8.3-21.6c-1.2-3.2-2.4-6.3-3.8-9.4    c-0.7-1.6-2.1-3.5-2.5-5.2c-0.5-2.2,0.1-1.6,1.8-2.8c2.7-1.8,6.2-2.9,9.1-4.4c4-2.1,7.9-4.2,12.1-5.8c3.7-1.4,6.7-2.9,9.3,1.1    c2.1,3.2,2.4,7.9,3.1,11.6c1.5,7.8,3.3,15.6,5,23.4c1.7,7.8,3.3,15.7,4.3,23.6c0.3,2.2,1.5,5.6-0.5,7.4c-1.1,1-5.4,1.5-6.5,1.7    c-3.5,0.8-6.9,1.5-10.2,2.6c-0.8,0.3-0.2,0.9,0.4,0.7c6-2.1,12.4-2.7,18.4-5c0.2-0.1,0.4-0.2,0.4-0.4c-0.9-11-3.1-21.8-5.4-32.6    c-1.2-5.5-2.4-10.9-3.5-16.4c-1-4.9-1.5-10.1-3.2-14.8c-1.8-4.8-3.6-6.3-8.4-4.8c-9.8,3-18.2,9.3-27.9,12.6    c-0.2,0.1-0.5,0.3-0.4,0.5c5.1,9.3,8.3,19.5,12,29.4c3.9,10.6,10,19.9,14.6,30.2C74,582.2,75.2,581.9,75,581.4L75,581.4z"
         id="path125" /></g><g
       id="g127"><path
         class="st0"
         d="M80.3,509.7c2.3,1.1,4.6,2.3,6.9,3.4c2.2,1.1,5.9,2.1,7.7,3.8c-0.8-0.7,0.5,1.5,0.7,1.9    c0.8,1.7,1.5,3.4,2.2,5.1c1.7,4,3.4,8.1,4.5,12.4c1.1,4.3,1.9,8.7,2.8,13c0.4,1.9,1.7,5.7,1.4,7.2c-0.6,2.8-3.4,6.3-4.7,8.8    c-1.9,3.6-3.8,7.2-5.5,11c-0.2,0.5,0.7,1.3,1,0.7c1.8-4.1,3.9-8.1,6-12c1.2-2.2,3.9-5.6,4.3-8.1c0.3-2.1-1-5.4-1.4-7.4    c-0.9-4.4-1.7-8.9-2.8-13.3c-1.1-4.6-3-9.1-4.9-13.4c-0.8-1.9-1.6-5.2-3.1-6.8c-1.4-1.5-4.8-2.4-6.6-3.3c-2.7-1.4-5.5-2.7-8.2-4.1    C79.7,508.3,79.7,509.4,80.3,509.7L80.3,509.7z"
         id="path129" /></g><g
       id="g131"><path
         class="st0"
         d="M84.9,520.8c3.7,1.4,7.6,2.2,11.2,3.9c0.3,0.1,1.2-0.4,1.1-0.5c-3.6-1.7-7.5-2.5-11.2-3.9    C85.7,520.2,84.8,520.8,84.9,520.8L84.9,520.8z"
         id="path133" /></g><g
       id="g135"><path
         class="st0"
         d="M88.5,528.5c4.7,1,9.2,2.6,13.7,4.4c0.5,0.2,0.1-0.9-0.3-1.1c-4.5-1.8-9-3.4-13.7-4.4    C87.7,527.3,88.1,528.4,88.5,528.5L88.5,528.5z"
         id="path137" /></g><g
       id="g139"><path
         class="st0"
         d="M88.3,536.6c4.1,1.9,8.8,2.5,12.7,4.9c0.2,0.1,1.2-0.6,1-0.6c-4-2.4-8.6-2.9-12.7-4.9    C89.1,535.8,88.2,536.5,88.3,536.6L88.3,536.6z"
         id="path141" /></g><g
       id="g143"><path
         class="st0"
         d="M91.9,546c4.3,2.7,9.1,4.2,13.7,6.4c0.6,0.3,0.1-0.8-0.2-0.9c-4.6-2.1-9.4-3.7-13.7-6.4    C91.1,544.7,91.6,545.8,91.9,546L91.9,546z"
         id="path145" /></g><g
       id="g147"><path
         class="st0"
         d="M94.3,556.3c3.6,1.3,7.6,0.9,11.1,2.4c0.8,0.3,0.8-0.6,0.2-0.8c-3.7-1.5-7.7-1.1-11.4-2.5    C93.4,555.1,93.7,556.1,94.3,556.3L94.3,556.3z"
         id="path149" /></g><g
       id="g151"><path
         class="st0"
         d="M94.1,566.9c1.8,0.7,3.6,1.2,5.4,1.6c0.6,0.1,1.4-0.8,0.6-0.9c-1.9-0.4-3.7-0.9-5.4-1.6    C94.2,565.7,93.4,566.6,94.1,566.9L94.1,566.9z"
         id="path153" /></g><g
       id="g155"><path
         class="st0"
         d="M88.2,602.6c2.2,5.1,1.9,13.6,6.2,17.5c4.2,3.7,13.4,0.1,18.2-0.6v-0.1c-0.2-6.2-3.3-13.9-6.8-18.9    c-4.8-6.9-11.2,0.2-17.1,1.3c-0.1,0,0.3,1.1,0.7,1c6.2-1.1,12.1-8.5,17-0.8c1.7,2.7,2.9,6.1,3.9,9.1c0.6,1.8,2.4,5.6,1.3,7.1    c-0.9,1.2-5.2,1.3-6.8,1.5c-2.4,0.4-6.2,1.3-8.7,0.4c-5.1-1.8-5.5-13-7.3-17.2C88.7,602.7,87.9,601.9,88.2,602.6L88.2,602.6z"
         id="path157" /></g><g
       id="g159"><path
         class="st0"
         d="M90.7,601.5c2.1-2,4.1-4.4,6.6-5.9c2.9-1.8,6.5-3.2,9.7-4.4c0.8-0.3,3.5-1.7,4.5-1.3c0.9,0.4,0.9,1.2,1.3,2.3    c0.9,2.4,2,4.6,3.1,6.9c1.5,3,3.4,4.5,1.8,7.5c-2.1,4-4.3,8-5.8,12.3c-0.1,0.2,1,0.8,1.1,0.6c1.1-3.2,2.6-6.2,4.2-9.2    c0.6-1.1,2.7-3.8,2.7-5.2c0-1.5-2.2-4.2-2.9-5.5c-1.6-3.2-3.2-6.4-4-9.9c-0.1-0.3-0.8-0.6-1-0.6c-8.8,0.9-16,6.1-22.2,11.9    C89.5,600.9,90.4,601.6,90.7,601.5L90.7,601.5z"
         id="path161" /></g><g
       id="g163"><path
         class="st0"
         d="M102.5,597.6c2.7-2.6,5.7-4.8,8.1-7.6c0.5-0.6-0.4-1.2-0.9-0.6c-2.4,2.8-5.5,5-8.1,7.6    C101,597.6,102,598.1,102.5,597.6L102.5,597.6z"
         id="path165" /></g><g
       id="g167"><path
         class="st0"
         d="M105.5,595c2.6,1,5.5,1.1,8.1,2.2c0.5,0.2,1.4-0.5,0.7-0.8c-2.6-1.1-5.5-1.2-8.1-2.2    C105.7,594,104.8,594.8,105.5,595L105.5,595z"
         id="path169" /></g><g
       id="g171"><path
         class="st0"
         d="M105.5,601.6c3.3,0.3,6.4,0.9,9.6,1.6c0.8,0.2,0.5-0.8-0.1-1c-3.3-0.7-6.6-1.4-9.9-1.6    C104.4,600.6,105,601.6,105.5,601.6L105.5,601.6z"
         id="path173" /></g><g
       id="g175"><path
         class="st0"
         d="M110,608.5c1.5-0.1,2.8,0.2,4.2,0.9c0.3,0.2,1.4,0.2,0.7-0.2c-1.7-1-3.6-1.4-5.6-1.3    C108.7,607.9,109.8,608.5,110,608.5L110,608.5z"
         id="path177" /></g><g
       id="g179"><path
         class="st0"
         d="M118.1,272c7.3-10.5,17.7-18.6,26.9-27.4c8-7.7,18.3-13.5,23.5-23.7c0,0-1.1-0.2-1.2,0.1    c-5.4,10.5-16.3,16.6-24.6,24.7c-8.8,8.6-18.7,16.2-25.8,26.4C116.9,272.1,118,272.3,118.1,272L118.1,272z"
         id="path181" /></g><g
       id="g183"><path
         class="st0"
         d="M143.3,260.1c8.1-8.2,16.6-16,25.6-23.4c0.5-0.4-0.7-0.8-1-0.5c-9,7.4-17.6,15.2-25.8,23.5    C141.8,260.1,142.9,260.5,143.3,260.1L143.3,260.1z"
         id="path185" /></g><g
       id="g187"><path
         class="st0"
         d="M1157.8,581.9c36.5,0,73-1.5,109.5-1.5c0.7,0-0.3-0.7-0.6-0.7c-36.5,0-73,1.5-109.5,1.5    C1156.5,581.2,1157.5,581.9,1157.8,581.9L1157.8,581.9z"
         id="path189" /></g><g
       id="g191"><path
         class="st0"
         d="M1194.9,591.6c48.5-0.1,97-4.1,145.5-4.5c0.8,0,0.9-1.1,0.1-1.1c-48.5,0.4-97,4.4-145.5,4.5    C1194.3,590.5,1194.1,591.6,1194.9,591.6L1194.9,591.6z"
         id="path193" /></g><g
       id="g195"><path
         class="st0"
         d="M70.1,495.9c-3.1-12.6-9.5-24-13.2-36.4c-0.1-0.3-1.1-0.6-1.1-0.6c3.7,12.4,10.1,23.8,13.2,36.4    C69.1,495.7,70.1,495.9,70.1,495.9L70.1,495.9z"
         id="path197" /></g><g
       id="g199"><path
         class="st0"
         d="M44.8,503.3c-2.4-4.5-5.1-8.9-7.7-13.2c-0.2-0.3-1.3,0.2-1.2,0.2c2.6,4.4,5.4,8.7,7.7,13.2    C43.7,503.7,44.9,503.3,44.8,503.3L44.8,503.3z"
         id="path201" /></g><g
       id="g203"><path
         class="st0"
         d="M86.5,499.4c2-13.3,3.6-26.8,7.7-39.7c0.1-0.3-0.6-1.3-0.7-0.8c-4.1,12.9-5.7,26.4-7.7,39.7    C85.7,498.9,86.4,499.9,86.5,499.4L86.5,499.4z"
         id="path205" /></g><g
       id="g207"><path
         class="st0"
         d="M104.1,504.9c2.9-1.9,4.9-4.7,5.8-8.1c0.2-0.7-1.1-0.9-1.2-0.2c-0.8,3-2.7,5.6-5.3,7.4    C102.7,504.5,103.5,505.3,104.1,504.9L104.1,504.9z"
         id="path209" /></g><g
       id="g211"><path
         class="st0"
         d="M116.4,513.3c8.4-9.9,19.1-17.8,30.5-24c0.6-0.4,0.4-0.9-0.3-0.5c-11.7,6.4-22.6,14.4-31.2,24.5    C115,513.8,116.1,513.6,116.4,513.3L116.4,513.3z"
         id="path213" /></g><g
       id="g215"><path
         class="st0"
         d="M115,532.2c19.6-1.2,38.5-8.4,56.6-15.5c0.3-0.1-0.8-0.3-1.1-0.2c-17.9,7-36.5,14.2-55.9,15.4    C113.8,531.9,114.5,532.2,115,532.2L115,532.2z"
         id="path217" /></g><g
       id="g219"><path
         class="st0"
         d="M117.3,553.5c7.2-2,14.6-2.2,22.1-2.2c0.4,0-0.1-1.1-0.5-1.1c-7.5,0-14.8,0.2-22.1,2.2    C116.3,552.6,116.9,553.6,117.3,553.5L117.3,553.5z"
         id="path221" /></g><g
       id="g223"><path
         class="st0"
         d="M113.7,570c17.1,4.6,34.6,7.9,51.8,12.1c0.8,0.2,0.7-0.8,0-0.9c-17.2-4.3-34.7-7.5-51.8-12.1    C112.9,568.9,113,569.8,113.7,570L113.7,570z"
         id="path225" /></g><g
       id="g227"><path
         class="st0"
         d="M42.7,540.4c-6.3,0-12.7-0.6-18.8,1.1c0,0,0.5,1,0.9,0.9c6.1-1.7,12.5-1.1,18.7-1.1    C43.5,541.3,43,540.4,42.7,540.4L42.7,540.4z"
         id="path229" /></g><g
       id="g231"><path
         class="st0"
         d="M50.7,555.9c-8.7,1.9-16.7,5.8-24.5,10c-0.7,0.4,0.3,0.9,0.8,0.7c7.7-4.1,15.4-8,24-9.8    C51.8,556.6,51.4,555.7,50.7,555.9L50.7,555.9z"
         id="path233" /></g><g
       id="g235"><path
         class="st0"
         d="M25.7,518.1c4,2,9,3.2,13.4,3.4c0.1,0-0.5-0.8-0.9-0.9c-4.3-0.2-9.2-1.3-13.1-3.3    C24.7,517.1,25.5,518,25.7,518.1L25.7,518.1z"
         id="path237" /></g><g
       id="g239"><path
         class="st0"
         d="M57,572.4c-12.1,8.5-23.9,17.4-36.4,25.4c0,0,0.7,1,0.9,0.8c12.5-7.9,24.3-16.9,36.4-25.4    C57.9,573.2,57.2,572.3,57,572.4L57,572.4z"
         id="path241" /></g><g
       id="g243"><path
         class="st0"
         d="M62.4,589.4c-2.5,2.3-5.1,4.5-7.7,6.6c0,0,0.9,0.1,1.2-0.1c2.6-2.1,5.2-4.4,7.7-6.6    C63.5,589.4,62.6,589.2,62.4,589.4L62.4,589.4z"
         id="path245" /></g><g
       id="g255"><path
         class="st0"
         d="M560.7,86.3c33.2,1.5,66.5,1,99.8-0.3c0.3,0-0.2-1.1-0.6-1.1c-33.2,1.3-66.5,1.8-99.8,0.3    C559.8,85.2,560.4,86.3,560.7,86.3L560.7,86.3z"
         id="path257" /></g><g
       id="g259"><path
         class="st0"
         d="M630.5,97.2c16.4,2.2,32.9-0.4,49.3-0.2c0.8,0,0.2-1-0.4-1c-16.3-0.3-32.8,2.3-49,0.2    C629.6,96.1,629.9,97.1,630.5,97.2L630.5,97.2z"
         id="path261" /></g></g></svg>