<?xml version="1.0" encoding="utf-8"?>
<!-- Generator: Adobe Illustrator 22.1.0, SVG Export Plug-In . SVG Version: 6.00 Build 0)  -->
<svg version="1.1" id="Layer_1" xmlns="http://www.w3.org/2000/svg" xmlns:xlink="http://www.w3.org/1999/xlink" x="0px" y="0px"
	 viewBox="0 0 1400 639" style="enable-background:new 0 0 1400 639;" xml:space="preserve">
<style type="text/css">
	.st0{fill:#2C9942;}
</style>
<g>
	<g>
		<g>
			<path class="st0" d="M45.6,384.6c13.2-9.1,24-21.1,36.4-31.3c0.5-0.4-0.5-1.2-0.9-0.8c-12.3,10.2-23.2,22.2-36.4,31.3
				C44.1,384.2,45.1,385,45.6,384.6L45.6,384.6z"/>
		</g>
		<g>
			<path class="st0" d="M81.7,351.6c-4.7,0.7-12,1-15.3,4.8c-0.1,0.1,0.8,0.7,1,0.8c4.1,0.7,7.8,3.6,11.1,5.8c0,0,0.4,0.3,0.4,0.2
				c0.8-3.7,2.5-7,4.5-10.2c0.1-0.1-1-0.8-1-0.8c-1.3,2.3-2.7,4.6-3.6,7.1c-0.3,0.7-0.5,1.4-0.7,2.1c-0.1,1-0.4,1.2-1,0.5
				c-0.5-0.1-1.4-1-1.9-1.2c-2.7-1.7-5.6-3.7-8.8-4.2c0.3,0.3,0.6,0.5,1,0.8c3.4-3.7,10.7-4.1,15.3-4.8
				C82.6,352.4,82,351.6,81.7,351.6L81.7,351.6z"/>
		</g>
	</g>
	<g>
		<g>
			<path class="st0" d="M1168.5,136.9c1.1,0.2,2.1,0.7,3.3,0.6c0.3,0-0.4-1-0.7-1c-1.1,0.1-2.1-0.4-3.1-0.6
				c-0.3-0.1-0.1,0.3-0.1,0.4C1167.9,136.5,1168.2,136.8,1168.5,136.9L1168.5,136.9z"/>
		</g>
		<g>
			<path class="st0" d="M1185.7,141.6c1.1,0.6,2.3,1.2,3.6,1.1c0.3,0,0.6-0.1,0.8-0.2c0.1,0,0.4-0.2,0.2-0.1
				c-1.3,0.1-2.4-0.5-3.4-1.1c-0.1-0.1-0.5,0.1-0.6,0.1C1186.2,141.4,1185.7,141.6,1185.7,141.6L1185.7,141.6z"/>
		</g>
		<g>
			<path class="st0" d="M1206,154.9c1,1.5,2.1,2.9,3.5,4c0.4,0.3,1.5-0.1,1-0.5c-1.4-1.1-2.4-2.4-3.3-3.9
				C1206.9,154.1,1205.7,154.4,1206,154.9L1206,154.9z"/>
		</g>
		<g>
			<path class="st0" d="M1220.3,173.5c1.7,1.5,3.3,3,4.2,5.1c0.3,0.7,1.2,0.5,0.9-0.3c-0.9-2.3-2.7-4-4.6-5.6
				C1220.3,172.1,1219.8,173,1220.3,173.5L1220.3,173.5z"/>
		</g>
		<g>
			<path class="st0" d="M1230.2,192.1c1,2.4,1.9,4.9,2.3,7.5c0.1,0.6,1.3,0.2,1.2-0.4c-0.4-2.6-1.3-5-2.3-7.5
				C1231.1,191.2,1229.9,191.6,1230.2,192.1L1230.2,192.1z"/>
		</g>
		<g>
			<path class="st0" d="M1237.9,215.1c-0.9,2.9-0.5,5.5,1.1,8c0.3,0.5,1.5,0.3,1.1-0.3c-1.5-2.3-1.8-4.7-1-7.3
				C1239.2,214.9,1238,214.5,1237.9,215.1L1237.9,215.1z"/>
		</g>
		<g>
			<path class="st0" d="M1240.2,234.3c-0.4,2.7,0.1,5.3,1.1,7.8c0.1,0.3,1,1,0.8,0.5c-1-2.4-1.4-4.9-1-7.5
				C1241.1,234.8,1240.2,234.1,1240.2,234.3L1240.2,234.3z"/>
		</g>
		<g>
			<path class="st0" d="M1242.5,257.8c-0.4,2.5-0.1,4.9,0.7,7.2c0.1,0.2,1.2-0.3,1.1-0.6c-0.8-2.3-1.1-4.7-0.7-7.1
				C1243.6,257.1,1242.5,257.4,1242.5,257.8L1242.5,257.8z"/>
		</g>
		<g>
			<path class="st0" d="M1253.7,286.2c0.1,2.1,0.8,4.1,1.4,6c0.2,0.6,1.4,0.4,1.2-0.2c-0.6-2-1.3-4-1.4-6
				C1254.9,285.4,1253.7,285.6,1253.7,286.2L1253.7,286.2z"/>
		</g>
		<g>
			<path class="st0" d="M1263.4,303.3c1.2,3.9,4.2,6.8,7.6,9c0.4,0.2,1.5-0.1,0.9-0.4c-3.3-2.1-6.1-4.9-7.3-8.7
				C1264.4,302.8,1263.2,302.8,1263.4,303.3L1263.4,303.3z"/>
		</g>
		<g>
			<path class="st0" d="M1279.6,319c2.5,3.4,6.4,5,10.2,6.6c0.5,0.2,1.3-0.7,0.6-1c-3.7-1.5-7.4-3-9.8-6.3
				C1280.3,317.8,1279.3,318.5,1279.6,319L1279.6,319z"/>
		</g>
		<g>
			<path class="st0" d="M1298.3,327.9c3.6,1.1,7.3,0.8,11,0.3c0.7-0.1,0.8-1.2,0-1.1c-3.5,0.5-7,0.9-10.4-0.2
				C1298.2,326.7,1297.5,327.7,1298.3,327.9L1298.3,327.9z"/>
		</g>
		<g>
			<path class="st0" d="M1306.5,317.6c4.9,1.9,9.8,3.5,15.1,3.3c-0.2-0.3-0.5-0.6-0.7-0.9c-3.3,4.1-3.6,9.1-4.2,14.2
				c0,0.4,1,1.1,1,0.7c0.5-5,0.8-10,4.1-14c0.3-0.4-0.4-0.9-0.7-0.9c-5.1,0.1-9.9-1.4-14.6-3.2
				C1305.7,316.5,1306.1,317.5,1306.5,317.6L1306.5,317.6z"/>
		</g>
		<g>
			<path class="st0" d="M1319,310.5c2.2,0.5,4.3,0.9,6.6,1c0.9,0.1,4.5-0.5,5.1,0c0.9,0.7-0.3,3.8-0.4,4.9c-0.4,2.4-0.6,4.9-0.7,7.3
				c0,0.1,1.2,0,1.2-0.1c0.2-4.2,0.7-8.3,1.8-12.3c0,0-0.5,0-0.5,0c-4,0.2-8,0-11.8-1C1319.8,310.2,1319.2,310.5,1319,310.5
				L1319,310.5z"/>
		</g>
	</g>
	<g>
		<g>
			<path class="st0" d="M1229.2,473.8c1.4,2.1,3.3,3.9,5,5.7c0.4,0.4,1.2,0.4,0.6-0.2c-1.7-1.7-3.5-3.4-4.9-5.5
				C1229.8,473.5,1228.7,473.2,1229.2,473.8L1229.2,473.8z"/>
		</g>
		<g>
			<path class="st0" d="M1242.4,488.5c1.9,1.3,3.6,3,5.6,4.3c0.7,0.5,1-0.5,0.4-0.9c-1.9-1.3-3.6-3-5.6-4.3
				C1242.1,487.2,1241.8,488.1,1242.4,488.5L1242.4,488.5z"/>
		</g>
		<g>
			<path class="st0" d="M1231.7,488.4c-1.9,1.3-3.6,3.3-5.1,5.1c-0.5,0.6,0.5,0.8,0.9,0.4c1.4-1.7,3-3.6,4.8-4.8
				C1233.1,488.5,1232.3,488,1231.7,488.4L1231.7,488.4z"/>
		</g>
		<g>
			<path class="st0" d="M1248.2,473.8c-2,2-4.2,3.7-5.6,6.2c-0.2,0.3,1,0.5,1.2,0.2c1.3-2.5,3.6-4.2,5.6-6.2
				C1249.6,473.7,1248.4,473.5,1248.2,473.8L1248.2,473.8z"/>
		</g>
	</g>
	<g>
		<g>
			<path class="st0" d="M573.8,453.9c-2.4-0.5-4.8,0.7-5.2,3.3c-0.4,2.6,1.5,5.6,4.1,6.3c3.8,1,7.8-2.6,7.3-6.5
				c-0.4-3.1-3.5-4.7-6.2-5.6c-0.4-0.1-1.4,0.2-0.6,0.4c2.5,0.7,5.1,2.2,5.6,5c0.3,1.8-0.5,3.6-1.7,4.9c-1.5,1.5-3.6,1.9-5.3,0.3
				c-1.1-1.1-1.9-2.6-1.9-4.2c0-1.7,1.3-3.9,3.3-3.5C573.5,454.4,574.6,454.1,573.8,453.9L573.8,453.9z"/>
		</g>
	</g>
	<g>
		<g>
			<path class="st0" d="M53.7,130.1c-2.6-0.5-5,1.3-5.1,4c-0.1,2.5,1.6,5.3,4.2,6c3.8,1,7.6-3,7.2-6.7c-0.3-3.2-3.4-4.9-6.1-5.7
				c-0.5-0.1-1.4,0.5-0.7,0.8c2.4,0.7,5,2.1,5.6,4.7c0.4,1.9-0.5,3.9-1.9,5.1c-1.6,1.3-3.6,1.4-5.1,0c-1.2-1.1-2-2.8-1.8-4.5
				c0.1-1.8,1.6-3.2,3.4-2.9C53.9,131,54.5,130.2,53.7,130.1L53.7,130.1z"/>
		</g>
	</g>
	<g>
		<g>
			<path class="st0" d="M1156.9,209.8c0,10.5,0,21.1,1.9,31.6c0.1,0.4,1.3,0.4,1.2,0.1c-1.8-10.4-1.9-21-1.9-31.6
				C1158.2,209.5,1156.9,209.4,1156.9,209.8L1156.9,209.8z"/>
		</g>
		<g>
			<path class="st0" d="M1142.8,225c10-1,19.9,1,29.9-0.6c0.8-0.1-0.1-0.7-0.6-0.6c-9.8,1.6-19.7-0.4-29.6,0.6
				C1141.7,224.4,1142.2,225.1,1142.8,225L1142.8,225z"/>
		</g>
	</g>
	<g>
		<path class="st0" d="M1394.6,382.6c-7.1,3.5-14.1,7.8-18.8,14.4c-5,7.1-6.1,16.3-5.4,24.7c1.3,16.1,11,31.7,28.3,32.6
			c0.8,0,0.1-0.8-0.4-0.8c-19.2-1.1-27.6-20.7-26.9-37.7c0.7-16.1,10.2-25.8,24-32.6C1396,383.1,1395,382.4,1394.6,382.6
			L1394.6,382.6z"/>
	</g>
	<g>
		<path class="st0" d="M1398.6,362.5c-14.8,5.9-29.5,10.2-39.7,23.3c-9,11.4-14.5,26.5-13.5,41.1c1.7,26.8,28.5,49.1,53.3,54.7
			c0.5,0.1-0.1-0.9-0.4-1c-14-3.2-26.6-11.2-36.7-21.4c-11.9-12-17.5-27.2-14.6-44.1c2.2-12.7,8.6-25.3,18-34.2
			c9.6-9.2,22.4-12.6,34.4-17.4C1399.6,363.4,1399,362.3,1398.6,362.5L1398.6,362.5z"/>
	</g>
	<g>
		<path class="st0" d="M109.9,554.6c-2.9-6.5-6.6-12.7-9.8-19c-3.6-7.2-6.1-14.8-8.8-22.3c-1.4-3.7-2.8-7.4-4.4-11
			c-0.9-2-3.5-5.3-2.2-7.3c0.7-1,4.9-2.1,6.1-2.6c1.5-0.7,3-1.5,4.5-2.3c3.3-1.7,6.5-3.5,9.9-4.9c3.3-1.4,8.4-4.4,11.4-0.7
			c2.6,3.2,2.7,8.9,3.5,12.8c1.5,7.9,3.3,15.7,5,23.5c1.7,7.8,3.2,15.7,4.2,23.6c0.3,2.2,1.3,4.8-0.8,6.5c-1.1,0.9-3.7,1.1-5,1.4
			c-4,0.9-7.9,1.6-11.8,3c-0.6,0.2,0.1,1.2,0.6,1c6-2.1,12.4-2.7,18.4-5c0.2-0.1,0.2-0.2,0.2-0.4c-0.9-11-3.1-21.8-5.4-32.6
			c-1.2-5.5-2.4-10.9-3.5-16.4c-1-4.7-1.5-9.6-3-14.1c-1.6-4.9-3.5-7.4-8.6-5.8c-9.8,3.1-18.2,9.3-27.9,12.6
			c-0.3,0.1-0.2,0.5-0.1,0.7c5.2,9.5,8.4,19.9,12.2,30c3.8,10.3,9.9,19.4,14.3,29.4C109.1,555.1,110.2,555.3,109.9,554.6
			L109.9,554.6z"/>
	</g>
	<g>
		<path class="st0" d="M114.9,482.6c2.3,1.1,4.6,2.3,6.9,3.4c2.2,1.1,6,2.1,7.7,3.8c1.7,1.7,2.6,5.8,3.5,8c1.8,4.2,3.4,8.5,4.5,13
			c1,4.3,1.9,8.7,2.7,13c0.4,1.9,1.4,4.8,1,6.5c-0.8,3-3.4,6.3-4.8,9c-1.8,3.5-3.7,7-5.2,10.6c-0.2,0.4,0.9,0,1.1-0.4
			c1.9-4.4,4.2-8.6,6.5-12.9c1.1-2,3.4-4.8,3.8-7.1c0.4-2.1-1-5.3-1.4-7.4c-0.9-4.4-1.7-8.8-2.8-13.1c-1-4.1-2.6-8-4.3-11.9
			c-0.9-2.2-1.8-6.3-3.5-8.1c-1.5-1.6-4.9-2.5-6.9-3.5c-2.6-1.3-5.2-2.6-7.8-3.9C115.5,481.6,114.5,482.4,114.9,482.6L114.9,482.6z"
			/>
	</g>
	<g>
		<path class="st0" d="M120.8,494c3.7,1.4,7.6,2.2,11.2,3.9c0.2,0.1-0.5-0.7-0.7-0.8c-3.6-1.7-7.6-2.5-11.3-3.9
			C120.1,493.2,120.5,493.9,120.8,494L120.8,494z"/>
	</g>
	<g>
		<path class="st0" d="M123.5,501.1c4.6,1,9,2.6,13.4,4.3c0.4,0.2,1.2,0.1,0.4-0.2c-4.6-1.8-9.2-3.4-14-4.5
			C122.4,500.5,123,501,123.5,501.1L123.5,501.1z"/>
	</g>
	<g>
		<path class="st0" d="M123.4,509.6c4.1,1.9,8.8,2.5,12.7,4.9c0.3,0.2,1.2-0.6,0.9-0.8c-4-2.4-8.6-2.9-12.7-4.9
			C124,508.7,123.1,509.5,123.4,509.6L123.4,509.6z"/>
	</g>
	<g>
		<path class="st0" d="M126.3,518.8c4.3,2.7,9.2,4.2,13.8,6.4c0.4,0.2,1.4-0.4,0.8-0.7c-4.5-2.1-9.3-3.7-13.6-6.3
			C126.9,518,125.8,518.5,126.3,518.8L126.3,518.8z"/>
	</g>
	<g>
		<path class="st0" d="M129.2,528.9c3.6,1.3,7.7,0.9,11.2,2.4c0.7,0.3,0.8,0,0.1-0.3c-3.6-1.5-7.6-1.1-11.2-2.4
			C128.6,528.4,128.5,528.7,129.2,528.9L129.2,528.9z"/>
	</g>
	<g>
		<path class="st0" d="M129.1,539.7c1.8,0.7,3.7,1.3,5.6,1.7c0.6,0.1,1.2-0.4,0.4-0.6c-1.8-0.4-3.6-0.9-5.3-1.6
			C129.3,539,128.4,539.4,129.1,539.7L129.1,539.7z"/>
	</g>
	<g>
		<path class="st0" d="M122.9,575.8c1.5,3.4,2.1,7.2,3.1,10.8c0.7,2.3,1.4,5.5,3.5,6.9c4.6,3.1,13-0.3,17.9-1c0.2,0,0.4-0.2,0.4-0.4
			c-0.2-6.1-3.2-14.4-7.1-19.2c-5-6.1-11.4,0.8-17,1.9c-0.8,0.1-0.2,1.2,0.4,1c6.1-1.1,12-8.4,16.9-0.5c1.5,2.5,2.6,5.4,3.5,8.1
			c0.5,1.4,2.8,6.8,2,7.9c-0.8,1.1-5.5,1.4-6.8,1.6c-3,0.5-8.1,1.7-10.5-0.8c-1.7-1.8-2.2-5.5-2.8-7.9c-0.7-2.8-1.3-5.7-2.5-8.4
			C123.8,575.1,122.6,575.1,122.9,575.8L122.9,575.8z"/>
	</g>
	<g>
		<path class="st0" d="M125.6,573.9c2.8-2.6,5-5.1,8.5-6.8c2.9-1.4,10.8-6,12.8-3.8c0.9,1.1,1.4,4,2,5.4c0.9,2.1,1.9,4.1,3,6.1
			c1.6,3,1.8,2.9,0.2,5.9c-2,3.7-4,7.5-5.4,11.5c0,0,1-0.2,1.1-0.5c1.1-3.2,2.6-6.2,4.2-9.2c0.6-1.1,2.7-3.8,2.7-5.2
			c0-1.5-2.2-4.2-2.9-5.5c-1.6-3.2-3.2-6.4-4-9.9c0,0-0.1,0-0.1,0c-9.1,1-16.7,6.3-23.1,12.3C124.5,574.4,125.4,574.1,125.6,573.9
			L125.6,573.9z"/>
	</g>
	<g>
		<path class="st0" d="M137.7,570.3c2.7-2.6,5.7-4.8,8.2-7.6c-0.2,0.2-1-0.1-1.2,0.2c-2.4,2.8-5.5,5-8.1,7.6
			C136.6,570.3,137.4,570.5,137.7,570.3L137.7,570.3z"/>
	</g>
	<g>
		<path class="st0" d="M140.8,568.2c2.6,1,5.4,1,8,2.1c0.7,0.3,1.2-0.7,0.5-1c-2.7-1.1-5.6-1.2-8.3-2.2
			C140.2,566.8,140.1,567.9,140.8,568.2L140.8,568.2z"/>
	</g>
	<g>
		<path class="st0" d="M140.3,574.7c3.3,0.3,6.5,0.9,9.8,1.6c0.8,0.2,0.7-1,0-1.2c-3.2-0.7-6.5-1.4-9.8-1.6
			C139.5,573.5,139.6,574.7,140.3,574.7L140.3,574.7z"/>
	</g>
	<g>
		<path class="st0" d="M145.2,581.3c1.3-0.1,2.5,0.2,3.7,0.8c0.3,0.2,1,0.1,1.2,0.2c-1.9-1-4-1.4-6.1-1.3
			C144.3,581,144.9,581.4,145.2,581.3L145.2,581.3z"/>
	</g>
	<g>
		<path class="st0" d="M118,272.5c7.4-10.7,18-19,27.4-27.9c8-7.5,17.9-13.3,23.1-23.3c0.3-0.6-0.7-1.3-1.1-0.6
			c-5.4,10.5-16.3,16.6-24.5,24.6c-8.8,8.6-18.7,16.2-25.8,26.4C116.7,272.2,117.6,273.1,118,272.5L118,272.5z"/>
	</g>
	<g>
		<path class="st0" d="M143.2,260.3c8.1-8.3,16.7-16.1,25.7-23.4c0.2-0.2-0.7-1-1-0.7c-9,7.3-17.6,15.2-25.7,23.4
			C142,259.8,142.9,260.6,143.2,260.3L143.2,260.3z"/>
	</g>
	<g>
		<path class="st0" d="M1157.7,582.1c36.5,0,73-1.5,109.5-1.5c0.7,0,0.2-1.1-0.4-1.1c-36.5,0-73,1.5-109.5,1.5
			C1156.6,581,1157.1,582.1,1157.7,582.1L1157.7,582.1z"/>
	</g>
	<g>
		<path class="st0" d="M1195.1,591.3c48.5-0.1,97-4.1,145.5-4.5c0.8,0,0.3-0.6-0.3-0.6c-48.5,0.4-97,4.4-145.5,4.5
			C1194,590.7,1194.6,591.3,1195.1,591.3L1195.1,591.3z"/>
	</g>
	<g>
		<path class="st0" d="M105.2,468.7c-3.1-12.6-9.5-24-13.2-36.4c-0.1-0.3-1.3-0.4-1.2-0.2c3.7,12.4,10.1,23.8,13.2,36.4
			C104,468.8,105.2,469,105.2,468.7L105.2,468.7z"/>
	</g>
	<g>
		<path class="st0" d="M79.8,476.3c-2.4-4.5-5.1-8.9-7.7-13.2c-0.2-0.3-1.3,0.1-1.2,0.2c2.6,4.4,5.4,8.7,7.7,13.2
			C78.7,476.7,79.9,476.3,79.8,476.3L79.8,476.3z"/>
	</g>
	<g>
		<path class="st0" d="M121.7,472.2c2-13.3,3.6-26.8,7.7-39.7c0.1-0.5-0.9-1.1-1.1-0.5c-4.1,12.9-5.7,26.4-7.7,39.7
			C120.5,472.2,121.6,472.8,121.7,472.2L121.7,472.2z"/>
	</g>
	<g>
		<path class="st0" d="M139.2,477.9c2.8-1.9,4.8-4.7,5.7-8c0.2-0.7-1-1.1-1.2-0.4c-0.8,3.1-2.7,5.7-5.3,7.5
			C137.7,477.4,138.6,478.3,139.2,477.9L139.2,477.9z"/>
	</g>
	<g>
		<path class="st0" d="M151.4,486.5c8.5-10,19.2-17.8,30.7-24.1c0.7-0.4-0.1-1.2-0.7-0.8c-11.6,6.4-22.5,14.3-31.1,24.4
			C149.9,486.6,151,487,151.4,486.5L151.4,486.5z"/>
	</g>
	<g>
		<path class="st0" d="M149.8,505.5c19.6-1.2,38.3-8.4,56.4-15.5c0.7-0.3,0.5-1.2-0.3-0.9c-18,7-36.6,14.2-56.1,15.4
			C149.1,504.6,148.9,505.6,149.8,505.5L149.8,505.5z"/>
	</g>
	<g>
		<path class="st0" d="M152.3,526.3c7.2-2,14.5-2.2,21.9-2.2c0.8,0,0.3-0.6-0.3-0.6c-7.5,0-14.9,0.2-22.2,2.2
			C150.9,525.9,151.9,526.4,152.3,526.3L152.3,526.3z"/>
	</g>
	<g>
		<path class="st0" d="M148.1,542.8c17.1,4.6,34.6,7.9,51.8,12.1c0.3,0.1,1.1-0.5,1.1-0.5c-17.2-4.3-34.7-7.5-51.8-12.1
			C148.9,542.2,148.2,542.8,148.1,542.8L148.1,542.8z"/>
	</g>
	<g>
		<path class="st0" d="M77.9,513.3c-6.3,0-12.7-0.6-18.8,1.1c-0.3,0.1,0.2,1.2,0.6,1.1c6.1-1.7,12.4-1.1,18.7-1.1
			C78.7,514.4,78.2,513.3,77.9,513.3L77.9,513.3z"/>
	</g>
	<g>
		<path class="st0" d="M85.4,528.8c-8.7,1.9-16.5,5.8-24.3,9.9c-0.4,0.2,0.5,1.1,0.8,0.9c7.8-4.1,15.6-8,24.3-9.9
			C86.6,529.7,85.8,528.8,85.4,528.8L85.4,528.8z"/>
	</g>
	<g>
		<path class="st0" d="M60.3,491.1c4,2,9,3.2,13.5,3.4c0.8,0,0.2-1-0.4-1c-4.3-0.2-9.1-1.3-12.9-3.2
			C59.8,489.9,59.7,490.8,60.3,491.1L60.3,491.1z"/>
	</g>
	<g>
		<path class="st0" d="M92.1,545.3c-12.1,8.5-23.9,17.4-36.4,25.4c-0.2,0.2,0.4,1.2,0.6,1.1c12.5-7.9,24.3-16.9,36.4-25.4
			C93,546.2,92.3,545.2,92.1,545.3L92.1,545.3z"/>
	</g>
	<g>
		<path class="st0" d="M97.5,562.1c-2.5,2.3-5.1,4.5-7.7,6.6c-0.6,0.5,0.4,1,0.9,0.6c2.6-2.1,5.2-4.4,7.7-6.6
			C99,562.1,98,561.7,97.5,562.1L97.5,562.1z"/>
	</g>
	<g>
		<path class="st0" d="M446.5,459.8c4.1,19.3,24.2,31.9,40.7,39.9c22.5,10.9,46.8,14.9,71.7,13c17.3-1.3,34.2-5.2,50.7-10.3
			c0.1,0-0.7-0.7-1.1-0.6c-32.7,10.2-68.9,15.8-102.2,5.3c-12.7-4-25-9.8-35.9-17.4c-10.2-7.2-20.1-16.7-22.8-29.3
			C447.5,460,446.4,459.7,446.5,459.8L446.5,459.8z"/>
	</g>
	<g>
		<path class="st0" d="M456.6,488.5c-2.9-14.7-9.2-29.5-18.1-41.5c-0.2-0.3-1.4-0.1-1.2,0.3c5.5,12.3,16.1,20.7,26,29.4
			c1.1,1,2.6,1.9,3.5,3.1c1.1,1.5,1.7,0.5-0.3,1.1c-1.4,0.4-2.6,0.3-4,0.9c-3.7,1.5-5.2,4.7-5.5,8.5c0,0.3,1.2,0.3,1.2-0.1
			c0.6-5.8,4-9,10.6-8.6c0.1,0,1.2-0.1,0.9-0.4c-11.2-10.5-24.6-19.6-31.1-34c-0.4,0.1-0.8,0.2-1.2,0.3c8.9,12,15.1,26.7,18.1,41.4
			C455.5,489,456.7,488.8,456.6,488.5L456.6,488.5z"/>
	</g>
	<g>
		<path class="st0" d="M560.2,64.3c33.2,1.5,66.5,1,99.8-0.3c0.5,0,1.2-1,0.4-1c-33.2,1.3-66.5,1.8-99.8,0.3
			C560.2,63.3,559.5,64.2,560.2,64.3L560.2,64.3z"/>
	</g>
	<g>
		<path class="st0" d="M630.5,75.2c16.4,2.2,32.9-0.4,49.3-0.2c0.8,0,0.2-1-0.4-1c-16.3-0.3-32.8,2.3-49,0.2
			C629.6,74.1,629.9,75.1,630.5,75.2L630.5,75.2z"/>
	</g>
	<g>
		<g>
			<path class="st0" d="M1156.5,32.5c21.8-0.6,43.5-1.3,65.3-1.9c0.3,0,0.7-0.1,0.7-0.5c0.6-4.4,0.3-8.4-0.9-12.6
				c-0.1-0.3-0.4-0.4-0.7-0.4c-13.4,0.5-26.8,0.8-40.2,1.1c-6.6,0.1-14.3-1.5-20.6,0.4c-5.8,1.7-4.7,8.5-4.3,13.3
				c0.1,0.7,1.5,0.8,1.4,0.1c-0.3-3.1-1.2-8,0.7-10.7c2.1-3,7.6-2.3,10.7-2.2c6.7,0.1,13.3,0.1,20-0.1c8.3-0.2,16.6-0.4,24.8-0.7
				c1.5,0,5.5-0.9,6.8-0.2c0.9,0.5,1,5.2,1.1,6.5c0.1,1.9,0.3,3.9-1.6,4.9c-1.5,0.8-5.2,0.2-6.9,0.2c-18.8,0.5-37.6,1.1-56.4,1.6
				C1155.7,31.5,1155.6,32.5,1156.5,32.5z"/>
		</g>
		<g>
			<path class="st0" d="M1135.3,3.5c-4.1,12.5-8.1,27.6,2.1,38.3c8.4,8.8,21.8,10.5,33.2,12.6c21.7,3.9,46.5,6.2,63.8-10.2
				c11-10.4,19-25.7,18.8-41c0-0.2-1.2,0.3-1.2,0.7c0.3,17.3-10.3,36.5-25.1,45.6c-13.4,8.3-30,7.8-45.1,5.7
				c-12.7-1.8-28.2-3.2-39-10.6c-14.6-9.9-10.9-27.4-6.3-41.7C1136.5,2.8,1135.4,3.2,1135.3,3.5L1135.3,3.5z"/>
		</g>
		<g>
			<path class="st0" d="M1119.3,5.1c-7.1,13.6-3.1,29,6.5,40.3c9.5,11.1,23.4,17.8,37.4,21.3c28.4,7.1,61.5,1.8,83.8-18.1
				c12.9-11.6,18.8-28.2,21.9-44.8c0.1-0.5-1.2-1.1-1.4-0.4c-2.6,13.9-7,27.9-16.3,38.8c-8.8,10.5-21.4,17.7-34.3,21.9
				c-26.2,8.6-59.5,6-81.9-11.3c-14.3-11-23.4-29.8-14.5-47.1C1120.8,5.2,1119.5,4.5,1119.3,5.1L1119.3,5.1z"/>
		</g>
	</g>
</g>
</svg>
