<?xml version="1.0" encoding="utf-8"?>
<!-- Generator: Adobe Illustrator 22.1.0, SVG Export Plug-In . SVG Version: 6.00 Build 0)  -->
<svg version="1.1" id="Layer_1" xmlns="http://www.w3.org/2000/svg" xmlns:xlink="http://www.w3.org/1999/xlink" x="0px" y="0px"
	 viewBox="0 0 750 1334" style="enable-background:new 0 0 750 1334;" xml:space="preserve">
<style type="text/css">
	.st0{fill:#2C9942;}
</style>
<g>
	<g>
		<g>
			<path class="st0" d="M8.3,1313.1c4,0.6,7.5-0.3,11.1-2.1c2-1,4.1-2.6,6.3-3.2c4.8-1.3,6,3.3,7.2,6.9c0.2,0.6,1.2,0.8,1.7,0.7
				c6.2-1,11.9-3.5,16.8-7.6c0.3-0.3,0.3-0.6,0-0.9c-3-2.9-5.3-6.4-8.2-9.4c-0.3-0.3-2.4-2-2.4-2.2c-0.1-1.2,2-2,2.8-2.7
				c4.4-3.7,7.1-8.9,9.2-14.2c-0.7,0-1.5,0.1-2.2,0.1c4.1,2.9,9.2,3.4,13.3,6.2c0.4,0.3,1.7,0.7,2.1,0c2.9-5.5,5.1-11.3,6.9-17.3
				c0.2-0.8-1.3-1-1.7-0.9c-4.6,0.3-8.4-2.9-12.7-3.7c0.3,0.4,0.7,0.7,1,1.1c3.8-6.2,5.4-13,4.5-20.2c-0.6,0.2-1.1,0.4-1.7,0.6
				c5,1.3,9.9-0.8,14.7,1.3c0.3,0.1,1.7,0.3,1.7-0.4c0.1-6.4-0.5-13-1.7-19.3c-0.1-0.8-1.5-0.8-2-0.7c-4.7,1.5-9.7-0.5-14.5-0.1
				c0.6,0.3,1.2,0.6,1.7,0.9c0-10.1-6.5-17.4-16-19.9c0.2,0.4,0.4,0.8,0.6,1.2c4.1-2.9,4.6-8.5,8-12.1c0.3-0.3-0.2-0.8-0.4-0.9
				c-5.1-3.1-10.5-5.9-15.6-9c-0.4-0.2-1.9-0.5-2,0.3c-0.5,4.1-3.6,7-4.1,11c0.7,0,1.5-0.1,2.2-0.1c-5.8-5-12.5-8.7-20.2-9.7
				c0.4,0.3,0.7,0.6,1.1,0.9c1.4-3.6,0.6-7.6,1.7-11.2c0.1-0.5-0.8-0.9-1.1-0.9c-5.4-0.7-10.4-3.2-15.8-3.9
				c-1.5-0.2-1.8,1.2-0.2,1.4c5.4,0.7,10.4,3.2,15.8,3.9c-0.4-0.3-0.7-0.6-1.1-0.9c-1.1,3.7-0.3,7.7-1.7,11.2
				c-0.2,0.5,0.8,0.9,1.1,0.9c7.1,0.9,13.1,4.4,18.5,8.9c0.4,0.4,2.1,0.7,2.2-0.1c0.5-4,3.7-6.9,4.1-11c-0.7,0.1-1.3,0.2-2,0.3
				c2.3,1.4,4.7,2.7,7.1,4.1c1.6,0.9,6.8,2.8,7.2,4.5c0.2,0.9-2.3,4.4-2.8,5.4c-1.1,2.3-1.9,4.4-4,5.9c-0.6,0.4,0.1,1,0.6,1.2
				c8.8,2.3,14.5,9.1,14.5,18.2c0,0.8,1.1,1,1.7,0.9c5.3-0.5,9.9,1.6,15,0c-0.7-0.2-1.3-0.4-2-0.7c1.2,6.2,1.8,12.6,1.7,18.9
				c0.6-0.1,1.1-0.3,1.7-0.4c-5.1-2.2-9.6,0.1-14.7-1.3c-0.5-0.1-1.8-0.3-1.7,0.6c0.8,6.9-0.7,13.5-4.4,19.5c-0.4,0.6,0.6,1,1,1.1
				c5,0.9,8.7,4.1,14,3.7c-0.6-0.3-1.2-0.6-1.7-0.9c-1.7,5.8-3.9,11.5-6.7,16.9c0.7,0,1.4,0,2.1,0c-4.1-2.9-9.2-3.4-13.3-6.2
				c-0.6-0.4-1.9-0.7-2.2,0.1c-2.6,6.7-6.3,12.6-12.7,16.2c-0.4,0.2-0.2,0.7,0,0.9c2.3,1.5,4.1,3.5,5.8,5.6c0.9,1.1,4.4,4.3,4.7,5.6
				c1,4.2-11.7,7.2-14.5,7.6c0.6,0.2,1.2,0.5,1.7,0.7c-1.4-4.2-3.5-9.4-8.8-8.9c-6.6,0.6-10.8,6.9-18,5.9
				C7.1,1311.5,6.8,1312.9,8.3,1313.1L8.3,1313.1z"/>
		</g>
		<g>
			<path class="st0" d="M7.4,1309.1c1.1,5.1-0.3,10.1-0.6,15.1c0.7-0.3,1.4-0.6,2.1-0.9c-2.7-0.1-5.3,0.1-8-0.2c-0.5,0-2.5,1-1.9,1
				c2.7,0.2,5.3,0,8,0.2c0.5,0,2.1-0.3,2.1-0.9c0.3-5.1,1.7-10.1,0.6-15.1C9.7,1307.9,7.3,1308.5,7.4,1309.1L7.4,1309.1z"/>
		</g>
		<g>
			<path class="st0" d="M1.1,1294c12.6-0.9,25.4-5.4,34.5-14.5c9.1-9,12.5-22.8,11.3-35.2c-0.6-6.6-2.6-13.1-5.9-18.9
				c-1.5-2.7-1.9-5.4-3.5-8c-1.6-2.5-3.5-4.8-5.5-7c-8.3-8.5-19.5-12.4-31.3-10.2c-1.5,0.3-1.3,2.3,0.3,2c12-2.2,23,2.4,30.9,11.6
				c3.5,4,4.7,8.6,7.2,13.1c3,5.5,4.8,11.5,5.4,17.7c1.1,11.9-2.1,25.1-10.8,33.7s-20.9,12.7-32.9,13.6
				C-0.8,1292-0.5,1294.1,1.1,1294L1.1,1294z"/>
		</g>
	</g>
	<g>
		<g>
			<path class="st0" d="M684.3,1156.1c12.4-9.3,25.1-18.4,38.1-26.8c0.8-0.5-0.6-2.3-1.4-2c-10.5,4.2-20.9,9-31.7,12.5
				c-1.2,0.4,0.4,2.2,1.2,2.1c12.7-1.3,24.3-8.3,34.3-15.9c-0.5-0.6-1.1-1.3-1.6-1.9c-7.4,7.6-14.1,16.3-17.8,26.4
				c0.6,0.5,1.3,0.9,1.9,1.4c0.3-9-8.4-12.9-16.3-12.1c-1,0.1,0.2,2.2,1.2,2.1c5.9-0.6,13.4,1.6,13.2,8.8c0,0.6,1.5,2.5,1.9,1.4
				c3.7-9.9,10.3-18.5,17.6-26.1c0.7-0.7-0.7-2.6-1.6-1.9c-9.9,7.5-21.3,14.4-33.9,15.7c0.4,0.7,0.8,1.4,1.2,2.1
				c10.8-3.5,21.1-8.3,31.7-12.5c-0.5-0.7-0.9-1.3-1.4-2c-13,8.5-25.7,17.5-38.1,26.8C681.9,1154.8,683.4,1156.8,684.3,1156.1
				L684.3,1156.1z"/>
		</g>
		<g>
			<path class="st0" d="M651,1182.4c6.4-5.3,12.9-10.5,19.4-15.6c1.2-1-0.7-2.5-1.9-1.6c-6.5,5.1-13,10.4-19.4,15.6
				C648,1181.8,649.9,1183.3,651,1182.4L651,1182.4z"/>
		</g>
		<g>
			<path class="st0" d="M603.2,1203c5.5-4.1,11.3-7.7,17.7-10.3c-0.6-0.3-1.2-0.6-1.9-0.8c-0.9,6-2.2,11.9-3.1,17.9
				c-0.1,1,1.6,1.2,2.1,0.7c6.9-6.1,13.9-12.2,21-18.2c1.2-1-0.8-2.2-1.8-1.4c-7,6-14,12.1-21,18.2c0.7,0.2,1.4,0.5,2.1,0.7
				c0.9-6,2.2-11.9,3.1-17.9c0.1-0.9-1.3-1.1-1.9-0.8c-6.6,2.6-12.5,6.3-18.2,10.5C600.2,1202.6,602.2,1203.7,603.2,1203L603.2,1203
				z"/>
		</g>
		<g>
			<path class="st0" d="M562.4,1238.3c11.8-8.5,21.9-19.3,32.8-28.9c0.2-0.2-1.9-0.9-2.4-0.5c-10.9,9.6-21,20.4-32.8,28.9
				C559.8,1237.9,561.8,1238.7,562.4,1238.3L562.4,1238.3z"/>
		</g>
	</g>
	<g>
		<g>
			<path class="st0" d="M680.8,1014.3c0,12.3,0,24.7,2.2,36.9c0.1,0.6,2.5,0.7,2.4,0.6c-2.2-12.2-2.2-24.6-2.2-36.9
				C683.3,1014.3,680.8,1014,680.8,1014.3L680.8,1014.3z"/>
		</g>
		<g>
			<path class="st0" d="M664.5,1032.9c11.6-1.2,23.2,1.2,34.7-0.7c1.2-0.2,1.9-2.2,0.3-2c-11.5,1.9-23.2-0.5-34.7,0.7
				C663.6,1031.1,662.9,1033.1,664.5,1032.9L664.5,1032.9z"/>
		</g>
	</g>
</g>
</svg>
