<?xml version="1.0" encoding="UTF-8" standalone="no"?>
<!-- Generator: Adobe Illustrator 22.1.0, SVG Export Plug-In . SVG Version: 6.00 Build 0)  -->

<svg
   xmlns:dc="http://purl.org/dc/elements/1.1/"
   xmlns:cc="http://creativecommons.org/ns#"
   xmlns:rdf="http://www.w3.org/1999/02/22-rdf-syntax-ns#"
   xmlns:svg="http://www.w3.org/2000/svg"
   xmlns="http://www.w3.org/2000/svg"
   xmlns:sodipodi="http://sodipodi.sourceforge.net/DTD/sodipodi-0.dtd"
   xmlns:inkscape="http://www.inkscape.org/namespaces/inkscape"
   version="1.1"
   id="Layer_1"
   x="0px"
   y="0px"
   viewBox="0 0 1400 973"
   style="enable-background:new 0 0 1400 973;"
   xml:space="preserve"
   inkscape:version="0.91 r13725"
   sodipodi:docname="resultat.svg"><metadata
     id="metadata185"><rdf:RDF><cc:Work
         rdf:about=""><dc:format>image/svg+xml</dc:format><dc:type
           rdf:resource="http://purl.org/dc/dcmitype/StillImage" /></cc:Work></rdf:RDF></metadata><defs
     id="defs183" /><sodipodi:namedview
     pagecolor="#ffffff"
     bordercolor="#666666"
     borderopacity="1"
     objecttolerance="10"
     gridtolerance="10"
     guidetolerance="10"
     inkscape:pageopacity="0"
     inkscape:pageshadow="2"
     inkscape:window-width="1366"
     inkscape:window-height="718"
     id="namedview181"
     showgrid="false"
     inkscape:zoom="1"
     inkscape:cx="635.83893"
     inkscape:cy="262.33893"
     inkscape:window-x="0"
     inkscape:window-y="24"
     inkscape:window-maximized="1"
     inkscape:current-layer="g5" /><style
     type="text/css"
     id="style3">
	.st0{fill:#2C9942;}
</style><g
     id="g5"><g
       id="g17"><g
         id="g19"><path
           class="st0"
           d="M1370.1,766.7c-8.1,1.2-14.1-3.8-20.9-7.2c-3.2-1.6-6.7-2.6-9.8-0.4c-2.1,1.5-3.4,4.1-4.3,6.4     c-1.3,3.1-1.6,4.1-5.4,3.1c-3.2-0.9-6.2-2.2-9.1-3.8c-1.9-1-5.1-2.6-6.5-4.4c-2.1-2.7,0.8-4.3,2.4-6.3c3.8-4.6,7-9.6,12-13     c0.2-0.1,0.4-0.4,0.1-0.6c-9.2-5.4-14.3-14.5-17.8-24.3c-0.1-0.4-0.7-0.3-1-0.1c-4.6,3.4-10.2,4.3-15.2,6.8     c-0.8,0.4-1.9,1.4-2.8,1.2c-1.2-0.4-1.6-2.9-2.1-4.1c-1.2-2.9-2.4-5.8-3.4-8.8c-0.9-2.6-1.8-5.3-2.6-7.9c-1-3.3,0-2.3,2.8-2.7     c5.1-0.9,9.4-4.4,14.5-5.2c0.3,0,0.7-0.3,0.5-0.6c-5.1-8.8-7.3-18.8-5.9-28.9c0-0.4-0.5-0.4-0.7-0.3c-5.3,1.5-10.5-0.9-15.8,0     c-0.4,0.1-3.2,0.9-3.2,0.9c-1.1-0.5-0.7-2.4-0.8-3.3c-0.1-2.9,0.3-5.9,0.6-8.8c0.3-2.8,0.6-5.5,1-8.3c0.2-1.2,0.2-3,0.6-4.1     c0.8-2,0.4-1.3,2.7-1c5.9,0.7,11.7-1.5,17.6-0.8c0.2,0,0.8-0.1,0.8-0.4c-0.1-13.3,8.1-23.9,21-27.2c0.3-0.1,0.8-0.4,0.4-0.7     c-4.1-3-5.1-8.2-7.2-12.5c-1.1-2.1-3.4-3.9-1.6-5.9c1.9-2,5.8-3.4,8.1-4.7c2.5-1.4,5-2.8,7.5-4.3c3.3-2,2.9-1.9,4,1.6     c1.3,4.2,4.5,7.5,4.9,12c0,0.5,0.9,0.2,1.1,0c7.5-6.6,16.4-12,26.5-13.1c0.2,0,0.8-0.2,0.7-0.5c-1.1-2.7-1-5.5-1.1-8.3     c-0.1-1.6-1.4-6.7-0.2-7.8c1.2-1.1,6.1-1.4,7.6-1.9c4.3-1.3,8.5-2.9,13.1-3.4c0.6-0.1,1-0.9,0.2-0.8c-7.6,0.9-14.6,4.6-22.2,5.5     c-0.2,0-0.8,0.2-0.7,0.5c1.2,4.1,0.9,8.3,1.3,12.5c0.1,1.3,0.8,2.7-0.1,3.6c-0.8,0.8-5.3,1.2-6.5,1.5     c-7.3,2.4-13.8,6.7-19.5,11.8c0.4,0,0.7,0,1.1,0c-0.5-5.9-5.1-10.2-5.6-16.2c0-0.4-0.8-0.2-1-0.1c-7.2,4.5-14.7,8.4-22,12.9     c-0.1,0.1-0.3,0.3-0.2,0.5c2.9,3.1,4.2,6.9,5.9,10.7c0.5,1.2,1.1,2.4,1.8,3.6c0.3,0.5,2.2,2.2,2.2,2.7c0,0.2-10.3,5.6-11.8,6.9     c-4.3,3.9-7.2,9-8.4,14.7c-0.2,1.1,0,4.2-0.5,5c-1,1.3-2.5,0.8-4.1,0.9c-5.4,0.4-10.2,2-15.6,0c-0.3-0.1-0.9,0-1,0.4     c-1.8,9.2-2.8,18.7-2.6,28.1c0,0.3,0.7,0.3,0.9,0.2c5.4-2.5,11.8-1.5,17.6-1c1.5,0.1,1.3-0.6,1.9,0.5c0.3,0.5-0.3,4-0.3,4.6     c0,2.4,0.2,4.8,0.6,7.2c0.5,2.9,1.2,5.8,2.3,8.6c0.5,1.4,3.1,5.2,2.9,6.5c-0.1,0.9-3.9,1.9-5,2.4c-4,1.8-7.7,3.6-12.2,3.1     c-0.3,0-1,0.1-0.8,0.5c2.4,8.6,5.4,17.2,9.4,25.2c0.1,0.3,0.8,0.2,0.9,0c3-2.2,6.4-3.4,9.9-4.6c2.2-0.8,4.4-2.3,6.6-2.8     c0.7-0.9,1.3-1,1.7-0.1c0.4,1,0.8,2,1.2,3c0.4,1,0.9,2,1.3,2.9c1.4,2.9,3,5.7,4.9,8.3c1.6,2.1,3.4,4,5.4,5.7     c2.5,2.1,4.7,2.3,1.7,4.9c-5.2,4.6-8.7,10.9-13.7,15.8c-0.1,0.1-0.2,0.3-0.1,0.4c6.4,5.9,14.4,9.9,23,11.3c0.3,0,0.7-0.1,0.8-0.4     c1.3-4.3,3.6-12.1,9.5-11.3c3.2,0.4,6.2,2.7,9,4.3c5.3,3.1,10.7,5.4,17,4.5C1371,767.3,1370.8,766.6,1370.1,766.7L1370.1,766.7z"
           id="path21" /></g><g
         id="g23"><path
           class="st0"
           d="M1369.5,761.3c-1.7,7.3,0.3,14.9,0.6,22.2c0,0.4,0.6,0.6,0.9,0.6c5.3-0.3,10.4,0.6,15.5-1.3     c0.5-0.2-0.4-0.9-0.8-0.8c-3.9,1.4-7.4,1.3-11.4,1.2c-2.1,0-2.4,0.4-3.1-1.3c-0.4-0.9-0.2-2.4-0.3-3.4     c-0.5-5.5-1.5-11.3-0.2-16.8C1370.7,761.3,1369.5,760.9,1369.5,761.3L1369.5,761.3z"
           id="path25" /></g><g
         id="g27"><path
           class="st0"
           d="M1380.7,738.2c-17.2-1.6-34.3-7.4-45.9-20.6c-9.4-10.6-14-24.6-14.7-38.7c-1.2-25.6,9.9-56.2,33-69.7     c13.5-7.9,28.9-6.7,42.1,1.2c0.6,0.3,1.3-0.2,0.6-0.6c-11.3-6.8-24.6-9.3-37.2-4.5c-12.4,4.7-21.9,15.1-28.4,26.5     c-14.2,24.8-17,59.8,1.4,83.4c11.9,15.3,30.6,22.2,49.4,23.9C1381.8,739.2,1381.3,738.3,1380.7,738.2L1380.7,738.2z"
           id="path29" /></g></g><g
       id="g31"><g
         id="g33"><path
           class="st0"
           d="M1238,568.9c0.8,0,0.4-0.7-0.2-0.7C1236.9,568.2,1237.4,568.9,1238,568.9L1238,568.9z"
           id="path35" /></g><g
         id="g37"><path
           class="st0"
           d="M1244.3,555.6c23.2-13.3,46.3-30,62.9-51.1c0.4-0.5-0.8-0.8-1.1-0.4c-17.2,21.5-34.4,42.9-43.3,69.4     c0.4,0,0.8,0,1.2,0c-1.7-9.6-7.3-19.2-16.8-22.8c-0.6-0.2-1.4,0.5-0.6,0.8c9.2,3.4,14.5,12.8,16.1,22.1c0.1,0.5,1.1,0.5,1.2,0     c8.9-26.4,26-47.8,43.1-69.2c-0.4-0.1-0.7-0.3-1.1-0.4c-16.5,21-39.5,37.6-62.5,50.8C1242.9,555.3,1243.8,555.9,1244.3,555.6     L1244.3,555.6z"
           id="path39" /></g><g
         id="g41"><g
           id="g43"><path
             class="st0"
             d="M1278.1,537.4c-33.6,27.4-48.4,71.2-51.1,113.3c-2.8,44.2,6.5,90.6,29,128.9c11.4,19.5,26.7,36.9,46.1,48.8      c0.4,0.2,1.4,0.1,0.8-0.3c-36.3-22.3-57.6-63.1-67.7-103.3c-10.7-42.5-10.7-89.6,5-130.9c8.2-21.6,21.1-41.3,39.1-56      C1279.6,537.6,1278.5,537.1,1278.1,537.4L1278.1,537.4z"
             id="path45" /></g><g
           id="g47"><path
             class="st0"
             d="M1216.4,755.1c6.4,19.4,17.7,36.7,28.2,54.2c0.2,0.3,1,0.5,1.1,0.6c-10.5-17.5-21.7-34.7-28.2-54.2      C1217.4,755.4,1216.4,755.1,1216.4,755.1L1216.4,755.1z"
             id="path49" /></g></g></g><g
       id="g75" /></g></svg>