<?xml version="1.0" encoding="utf-8"?>
<!-- Generator: Adobe Illustrator 16.0.0, SVG Export Plug-In . SVG Version: 6.00 Build 0)  -->
<!DOCTYPE svg PUBLIC "-//W3C//DTD SVG 1.1//EN" "http://www.w3.org/Graphics/SVG/1.1/DTD/svg11.dtd">
<svg version="1.1" id="Layer_1" xmlns="http://www.w3.org/2000/svg" xmlns:xlink="http://www.w3.org/1999/xlink" x="0px" y="0px"
	 width="51.02px" height="51.02px" viewBox="0 0 51.02 51.02" enable-background="new 0 0 51.02 51.02" xml:space="preserve">
<g>
	<circle fill="#F37935" cx="25.51" cy="25.51" r="25.5"/>
	<g>
		<path fill="#FFFFFF" d="M28.205,15.861c0,6.621-0.396,21.696-0.396,21.696s-1.259,0.973-2.194,0.973s-1.188-0.828-1.188-1.764
			c0-3.705,0.647-17.882,0.684-17.99c-0.144,0.359-2.878,6.045-3.13,6.009l-0.252-0.036c-0.647,0-1.764-0.072-1.764-1.26
			c0-0.323,0.145-0.827,0.324-1.223l4.713-9.355c0,0,0.648-0.863,1.764-0.863c0.252,0,0.791,0.216,1.043,0.359l0.108,0.108
			C28.097,12.695,28.205,13.846,28.205,15.861z"/>
	</g>
</g>
</svg>
