<?xml version="1.0" encoding="utf-8"?>
<!-- Generator: Adobe Illustrator 16.0.0, SVG Export Plug-In . SVG Version: 6.00 Build 0)  -->
<!DOCTYPE svg PUBLIC "-//W3C//DTD SVG 1.1//EN" "http://www.w3.org/Graphics/SVG/1.1/DTD/svg11.dtd">
<svg version="1.1" id="Layer_1" xmlns="http://www.w3.org/2000/svg" xmlns:xlink="http://www.w3.org/1999/xlink" x="0px" y="0px"
	 width="51.02px" height="51.02px" viewBox="0 0 51.02 51.02" enable-background="new 0 0 51.02 51.02" xml:space="preserve">
<g>
	<circle fill="#F37935" cx="25.51" cy="25.51" r="25.5"/>
	<g>
		<path fill="#FFFFFF" d="M21.821,17.805c0-2.23,0.684-5.721,4.749-5.721c1.619,0,4.281,1.008,4.281,5.325
			c0,4.461-2.626,9.75-3.238,11.082c-0.611,1.295-2.95,6.548-2.95,6.548c3.131,0,3.994,0.036,4.426,0.036h0.252
			c1.043,0,1.619,0.072,1.619,1.331c0,1.224-0.792,1.728-1.547,1.728c-0.899,0-2.843,0.036-4.462,0.071
			c-1.043,0.036-2.015,0.036-2.267,0.036c-0.936,0-1.871-0.755-2.051-1.942c0-0.972,0.359-1.655,0.755-2.375
			c0.181-0.288,0.288-0.54,0.433-0.827l0.827-1.764c0.324-0.755,0.827-1.727,1.151-2.41c2.446-4.785,3.706-8.743,3.706-11.37
			c0-1.115-0.252-2.446-1.188-2.446c-0.396,0-1.259,0.504-1.403,3.346c0,0-0.18,1.943-1.655,1.943c-0.396,0-0.791-0.18-1.151-0.576
			C21.785,19.46,21.821,18.345,21.821,17.805z"/>
	</g>
</g>
</svg>
