<?xml version="1.0" encoding="utf-8"?>
<!-- Generator: Adobe Illustrator 16.0.0, SVG Export Plug-In . SVG Version: 6.00 Build 0)  -->
<!DOCTYPE svg PUBLIC "-//W3C//DTD SVG 1.1//EN" "http://www.w3.org/Graphics/SVG/1.1/DTD/svg11.dtd">
<svg version="1.1" id="Layer_1" xmlns="http://www.w3.org/2000/svg" xmlns:xlink="http://www.w3.org/1999/xlink" x="0px" y="0px"
	 width="51.02px" height="51.02px" viewBox="0 0 51.02 51.02" enable-background="new 0 0 51.02 51.02" xml:space="preserve">
<g>
	<circle fill="#F37935" cx="25.51" cy="25.51" r="25.5"/>
	<g>
		<path fill="#FFFFFF" d="M22.127,16.438c0-1.728,0.791-4.569,4.497-4.569c3.454,0,4.065,3.382,4.065,6.152
			c0,2.195-0.396,4.462-1.654,5.541c1.043,0.611,2.087,1.907,2.087,5.073c0,6.081-0.864,9.895-5.038,9.895
			c-3.346,0-4.569-1.547-4.569-6.62c0,0,0.864-1.115,1.835-1.115c0.324,0,0.648,0.107,1.008,0.432
			c0.611,0.504,0.647,1.438,0.647,2.446s0,2.339,1.008,2.339c1.439,0,1.727-3.526,1.727-5.865v-0.719
			c0-2.123-0.468-4.534-2.59-4.534c-0.972,0-1.26-0.323-1.26-1.259c0-1.439,0.827-1.512,1.655-1.512h0.396
			c0.576-0.323,1.476-0.972,1.476-4.857c0-1.259-0.252-2.842-1.008-2.842c-0.936,0-1.188,1.69-1.188,2.519
			c0,0.863-1.439,1.475-1.979,1.475c-0.324,0-0.647-0.144-0.899-0.468l-0.072-0.216C22.271,17.732,22.127,17.121,22.127,16.438z"/>
	</g>
</g>
</svg>
