<?xml version="1.0" encoding="utf-8"?>
<!-- Generator: Adobe Illustrator 16.0.0, SVG Export Plug-In . SVG Version: 6.00 Build 0)  -->
<!DOCTYPE svg PUBLIC "-//W3C//DTD SVG 1.1//EN" "http://www.w3.org/Graphics/SVG/1.1/DTD/svg11.dtd">
<svg version="1.1" id="Layer_1" xmlns="http://www.w3.org/2000/svg" xmlns:xlink="http://www.w3.org/1999/xlink" x="0px" y="0px"
	 width="51.02px" height="51.02px" viewBox="0 0 51.02 51.02" enable-background="new 0 0 51.02 51.02" xml:space="preserve">
<g>
	<circle fill="#F37935" cx="25.51" cy="25.51" r="25.5"/>
	<g>
		<path fill="#FFFFFF" d="M23.674,26.764c0.036-0.036,0.756-0.036,0.792-0.036h2.446v-1.942c0-1.439,0.036-2.843,0.324-4.426
			c0.216-1.224,0.936-1.763,1.871-1.763c0.251,0,0.539,0.107,1.079,0.287v8.096h1.295c0.647,0,1.403,0.036,1.403,1.044
			c0,0.359-0.18,0.684-0.396,0.936c-0.54,0.719-1.008,0.791-1.943,0.791h-0.539c-0.036,2.195-0.145,4.354-0.181,6.549
			c-0.035,1.331-0.144,2.41-1.979,2.41c-0.468,0-0.936,0-1.188-1.079c0-2.807,0.036-4.966,0.108-7.844
			c-0.828,0-1.583-0.036-2.555-0.036H22.45c-1.763,0-2.41,0-2.41-1.835c0-0.107,0.072-0.54,0.144-0.972
			c2.482-7.735,4.569-13.42,4.966-14.464c0.539-0.144,0.684-0.144,0.863-0.144c0.972,0,1.583,0.575,1.727,1.619l-0.575,1.906
			C26.229,18.884,24.825,23.67,23.674,26.764z"/>
	</g>
</g>
</svg>
