<?xml version="1.0" encoding="utf-8"?>
<!-- Generator: Adobe Illustrator 16.0.0, SVG Export Plug-In . SVG Version: 6.00 Build 0)  -->
<!DOCTYPE svg PUBLIC "-//W3C//DTD SVG 1.1//EN" "http://www.w3.org/Graphics/SVG/1.1/DTD/svg11.dtd">
<svg version="1.1" id="Layer_1" xmlns="http://www.w3.org/2000/svg" xmlns:xlink="http://www.w3.org/1999/xlink" x="0px" y="0px"
	 width="51.02px" height="51.02px" viewBox="0 0 51.02 51.02" enable-background="new 0 0 51.02 51.02" xml:space="preserve">
<g>
	<circle fill="#F37935" cx="25.51" cy="25.51" r="25.5"/>
	<g>
		<path fill="#FFFFFF" d="M22.289,14.352c0,0,0-1.115,0.611-1.439c0.504-0.252,2.303-0.359,4.533-0.359
			c1.008,0,3.059,0.072,3.059,1.619c0,0.899-0.863,1.403-1.439,1.403h-1.331c-0.611,0-1.979-0.072-2.41-0.108v4.894h0.287
			c0.468,0,1.439,0.072,2.267,0.504c0.684,0.359,3.167,1.583,3.167,6.692c0,7.231-0.072,10.974-5.073,10.974
			c-4.03,0-4.534-2.95-4.569-6.44c0,0,0.287-1.439,1.619-1.439c1.438,0,1.438,0.324,1.438,2.627c0,1.115,0.288,2.591,1.548,2.591
			c1.583,0,1.727-2.555,1.727-5.146v-2.23c0-3.922-0.18-5.325-3.238-5.325H23.8c-0.72-0.072-1.403-0.252-1.476-1.224L22.289,14.352z
			"/>
	</g>
</g>
</svg>
