<?xml version="1.0" encoding="utf-8"?>
<!-- Generator: Adobe Illustrator 16.0.0, SVG Export Plug-In . SVG Version: 6.00 Build 0)  -->
<!DOCTYPE svg PUBLIC "-//W3C//DTD SVG 1.1//EN" "http://www.w3.org/Graphics/SVG/1.1/DTD/svg11.dtd">
<svg version="1.1" id="Layer_1" xmlns="http://www.w3.org/2000/svg" xmlns:xlink="http://www.w3.org/1999/xlink" x="0px" y="0px"
	 width="51.02px" height="51.02px" viewBox="0 0 51.02 51.02" enable-background="new 0 0 51.02 51.02" xml:space="preserve">
<g>
	<circle fill="#F37935" cx="25.51" cy="25.51" r="25.5"/>
	<g>
		<path fill="#FFFFFF" d="M29.7,18.885c-0.792,0-1.943-1.043-1.943-1.043v-0.756c0-2.194-1.043-2.591-1.043-2.591
			c-1.728,0.504-2.051,6.117-2.051,7.521v0.252c0.684-0.288,1.295-0.396,1.835-0.396c3.059,0,4.929,1.979,4.929,7.376
			c0,4.246-0.251,8.995-5.685,8.995c-3.958,0-4.426-4.713-4.426-9.354v-6.152c0-5.793,0.54-10.65,5.289-10.65
			c3.778,0,4.354,3.059,4.354,4.894C30.959,17.626,30.815,18.885,29.7,18.885z M24.555,25.397c-0.036,0.611-0.036,1.403-0.036,1.943
			c0,5.181,0.576,8.455,1.655,8.455c1.583,0,1.764-4.065,1.764-5.505c0-3.274,0-5.721-1.584-5.865
			C25.742,24.462,25.095,24.857,24.555,25.397z"/>
	</g>
</g>
</svg>
