<?xml version="1.0" encoding="utf-8"?>
<!-- Generator: Adobe Illustrator 16.0.0, SVG Export Plug-In . SVG Version: 6.00 Build 0)  -->
<!DOCTYPE svg PUBLIC "-//W3C//DTD SVG 1.1//EN" "http://www.w3.org/Graphics/SVG/1.1/DTD/svg11.dtd">
<svg version="1.1" id="Layer_1" xmlns="http://www.w3.org/2000/svg" xmlns:xlink="http://www.w3.org/1999/xlink" x="0px" y="0px"
	 width="51px" height="51px" viewBox="0 0 51 51" enable-background="new 0 0 51 51" xml:space="preserve">
<g>
	<circle fill="#F37935" cx="25.5" cy="25.5" r="25.5"/>
	<g>
		<path fill="#FFFFFF" d="M27.945,12.579c0.432,0,0.863-0.036,1.439-0.036c1.439,0,1.835,1.942,1.835,1.942l-5.325,22.74
			c-0.324,1.007-1.188,1.115-1.907,1.115c-1.007,0-1.511-0.216-1.511-1.151c0-0.108,0.036-0.36,0.107-0.576l5.182-20.94h-3.131
			c-0.755,0-1.259,0-1.654-0.071c-0.864-0.181-1.188-0.54-1.188-1.188c0-0.792,0.575-1.583,0.575-1.583l0.504-0.252H27.945z"/>
	</g>
</g>
</svg>
