<?xml version="1.0" encoding="utf-8"?>
<!-- Generator: Adobe Illustrator 16.0.0, SVG Export Plug-In . SVG Version: 6.00 Build 0)  -->
<!DOCTYPE svg PUBLIC "-//W3C//DTD SVG 1.1//EN" "http://www.w3.org/Graphics/SVG/1.1/DTD/svg11.dtd">
<svg version="1.1" id="Layer_1" xmlns="http://www.w3.org/2000/svg" xmlns:xlink="http://www.w3.org/1999/xlink" x="0px" y="0px"
	 width="51px" height="51px" viewBox="0 0 51 51" enable-background="new 0 0 51 51" xml:space="preserve">
<g>
	<circle fill="#F37935" cx="25.5" cy="25.5" r="25.5"/>
	<g>
		<path fill="#FFFFFF" d="M31.399,18.371c0,2.878-0.54,4.641-1.619,5.612c1.079,1.224,1.691,3.059,1.691,4.966
			c0,4.461-0.036,9.354-5.613,9.354c-4.138,0-4.605-4.21-4.605-8.707c0-2.267,0.54-4.39,1.835-5.686
			c-0.972-1.007-1.511-2.734-1.511-5.36c0-4.354,1.979-6.44,5.181-6.44C30.032,12.11,31.399,14.808,31.399,18.371z M28.125,29.596
			c0-1.764-0.287-4.498-1.69-4.498c-0.899,0-1.728,1.151-1.728,4.103c0,2.986,0.108,6.656,1.403,6.656
			C27.406,35.857,28.125,33.734,28.125,29.596z M26.722,14.808c-1.007,0-1.727,0.863-1.727,3.563c0,3.094,0.647,4.281,1.439,4.281
			c1.259-0.036,1.619-2.411,1.655-3.311v-1.188C28.09,16.679,27.873,14.808,26.722,14.808z"/>
	</g>
</g>
</svg>
