<?xml version="1.0" encoding="UTF-8" standalone="no"?>
<!-- Created with Inkscape (http://www.inkscape.org/) -->

<svg
   xmlns:dc="http://purl.org/dc/elements/1.1/"
   xmlns:cc="http://creativecommons.org/ns#"
   xmlns:rdf="http://www.w3.org/1999/02/22-rdf-syntax-ns#"
   xmlns:svg="http://www.w3.org/2000/svg"
   xmlns="http://www.w3.org/2000/svg"
   xmlns:sodipodi="http://sodipodi.sourceforge.net/DTD/sodipodi-0.dtd"
   xmlns:inkscape="http://www.inkscape.org/namespaces/inkscape"
   id="svg2"
   version="1.1"
   inkscape:version="0.91 r13725"
   xml:space="preserve"
   width="900"
   height="439.14557"
   viewBox="0 0 900 439.14557"
   sodipodi:docname="front.svg"><metadata
     id="metadata8"><rdf:RDF><cc:Work
         rdf:about=""><dc:format>image/svg+xml</dc:format><dc:type
           rdf:resource="http://purl.org/dc/dcmitype/StillImage" /><dc:title></dc:title></cc:Work></rdf:RDF></metadata><defs
     id="defs6"><clipPath
       clipPathUnits="userSpaceOnUse"
       id="clipPath16"><path
         d="m 0,1 720,0 0,718.997 -720,0 L 0,1 Z"
         id="path18"
         inkscape:connector-curvature="0" /></clipPath><clipPath
       clipPathUnits="userSpaceOnUse"
       id="clipPath30"><path
         d="M 0,1 720,1 720,721 0,721 0,1 Z"
         id="path32"
         inkscape:connector-curvature="0" /></clipPath><clipPath
       clipPathUnits="userSpaceOnUse"
       id="clipPath38"><path
         d="m -278,720.661 1276,0 0,-720.322285 -1276,0 0,720.322285 z"
         id="path40"
         inkscape:connector-curvature="0" /></clipPath><clipPath
       clipPathUnits="userSpaceOnUse"
       id="clipPath52"><path
         d="M 0,721 720,721 720,0 0,0 0,721 Z"
         id="path54"
         inkscape:connector-curvature="0" /></clipPath><linearGradient
       x1="0"
       y1="0"
       x2="1"
       y2="0"
       gradientUnits="userSpaceOnUse"
       gradientTransform="matrix(78.7033,0,0,78.7033,-77.899,696.524)"
       spreadMethod="pad"
       id="linearGradient58"><stop
         style="stop-opacity:1;stop-color:#47c0b8"
         offset="0"
         id="stop60" /><stop
         style="stop-opacity:1;stop-color:#47c0b8"
         offset="0.0393917"
         id="stop62" /><stop
         style="stop-opacity:1;stop-color:#47d2b1"
         offset="0.348613"
         id="stop64" /><stop
         style="stop-opacity:1;stop-color:#47d2b1"
         offset="0.4222168"
         id="stop66" /><stop
         style="stop-opacity:1;stop-color:#12b56a"
         offset="1"
         id="stop68" /></linearGradient><linearGradient
       x1="0"
       y1="0"
       x2="1"
       y2="0"
       gradientUnits="userSpaceOnUse"
       gradientTransform="matrix(111.769,0,0,111.769,-0.2733,731.3135)"
       spreadMethod="pad"
       id="linearGradient74"><stop
         style="stop-opacity:1;stop-color:#47c0b8"
         offset="0"
         id="stop76" /><stop
         style="stop-opacity:1;stop-color:#47c0b8"
         offset="0.0393917"
         id="stop78" /><stop
         style="stop-opacity:1;stop-color:#47d2b1"
         offset="0.348613"
         id="stop80" /><stop
         style="stop-opacity:1;stop-color:#47d2b1"
         offset="0.4222168"
         id="stop82" /><stop
         style="stop-opacity:1;stop-color:#12b56a"
         offset="1"
         id="stop84" /></linearGradient><linearGradient
       x1="0"
       y1="0"
       x2="1"
       y2="0"
       gradientUnits="userSpaceOnUse"
       gradientTransform="matrix(154.359,0,0,154.359,-0.4367,697.6414)"
       spreadMethod="pad"
       id="linearGradient90"><stop
         style="stop-opacity:1;stop-color:#47c0b8"
         offset="0"
         id="stop92" /><stop
         style="stop-opacity:1;stop-color:#47c0b8"
         offset="0.0393917"
         id="stop94" /><stop
         style="stop-opacity:1;stop-color:#47d2b1"
         offset="0.348613"
         id="stop96" /><stop
         style="stop-opacity:1;stop-color:#47d2b1"
         offset="0.4222168"
         id="stop98" /><stop
         style="stop-opacity:1;stop-color:#12b56a"
         offset="1"
         id="stop100" /></linearGradient><clipPath
       clipPathUnits="userSpaceOnUse"
       id="clipPath108"><path
         d="M 0,721 720,721 720,0 0,0 0,721 Z"
         id="path110"
         inkscape:connector-curvature="0" /></clipPath><linearGradient
       x1="0"
       y1="0"
       x2="1"
       y2="0"
       gradientUnits="userSpaceOnUse"
       gradientTransform="matrix(78.3702,0,0,78.3702,-77.50679,747.9881)"
       spreadMethod="pad"
       id="linearGradient114"><stop
         style="stop-opacity:1;stop-color:#47c0b8"
         offset="0"
         id="stop116" /><stop
         style="stop-opacity:1;stop-color:#47c0b8"
         offset="0.0393917"
         id="stop118" /><stop
         style="stop-opacity:1;stop-color:#47d2b1"
         offset="0.348613"
         id="stop120" /><stop
         style="stop-opacity:1;stop-color:#47d2b1"
         offset="0.4222168"
         id="stop122" /><stop
         style="stop-opacity:1;stop-color:#12b56a"
         offset="1"
         id="stop124" /></linearGradient><linearGradient
       x1="0"
       y1="0"
       x2="1"
       y2="0"
       gradientUnits="userSpaceOnUse"
       gradientTransform="matrix(123.193,0,0,123.193,-77.54125,491.3541)"
       spreadMethod="pad"
       id="linearGradient130"><stop
         style="stop-opacity:1;stop-color:#47c0b8"
         offset="0"
         id="stop132" /><stop
         style="stop-opacity:1;stop-color:#47c0b8"
         offset="0.0393917"
         id="stop134" /><stop
         style="stop-opacity:1;stop-color:#47d2b1"
         offset="0.348613"
         id="stop136" /><stop
         style="stop-opacity:1;stop-color:#47d2b1"
         offset="0.4222168"
         id="stop138" /><stop
         style="stop-opacity:1;stop-color:#12b56a"
         offset="1"
         id="stop140" /></linearGradient><linearGradient
       x1="0"
       y1="0"
       x2="1"
       y2="0"
       gradientUnits="userSpaceOnUse"
       gradientTransform="matrix(47.0706,0,0,47.0706,-1.4589,628.8205)"
       spreadMethod="pad"
       id="linearGradient146"><stop
         style="stop-opacity:1;stop-color:#47c0b8"
         offset="0"
         id="stop148" /><stop
         style="stop-opacity:1;stop-color:#47c0b8"
         offset="0.0393917"
         id="stop150" /><stop
         style="stop-opacity:1;stop-color:#47d2b1"
         offset="0.348613"
         id="stop152" /><stop
         style="stop-opacity:1;stop-color:#47d2b1"
         offset="0.4222168"
         id="stop154" /><stop
         style="stop-opacity:1;stop-color:#12b56a"
         offset="1"
         id="stop156" /></linearGradient><clipPath
       clipPathUnits="userSpaceOnUse"
       id="clipPath164"><path
         d="M 0,721 720,721 720,0 0,0 0,721 Z"
         id="path166"
         inkscape:connector-curvature="0" /></clipPath><linearGradient
       x1="0"
       y1="0"
       x2="1"
       y2="0"
       gradientUnits="userSpaceOnUse"
       gradientTransform="matrix(122.189,0,0,122.189,-121.79269,737.6224)"
       spreadMethod="pad"
       id="linearGradient170"><stop
         style="stop-opacity:1;stop-color:#47c0b8"
         offset="0"
         id="stop172" /><stop
         style="stop-opacity:1;stop-color:#47c0b8"
         offset="0.0393917"
         id="stop174" /><stop
         style="stop-opacity:1;stop-color:#47d2b1"
         offset="0.348613"
         id="stop176" /><stop
         style="stop-opacity:1;stop-color:#47d2b1"
         offset="0.4222168"
         id="stop178" /><stop
         style="stop-opacity:1;stop-color:#12b56a"
         offset="1"
         id="stop180" /></linearGradient><linearGradient
       x1="0"
       y1="0"
       x2="1"
       y2="0"
       gradientUnits="userSpaceOnUse"
       gradientTransform="matrix(152.517,0,0,152.517,-0.602,687.825)"
       spreadMethod="pad"
       id="linearGradient186"><stop
         style="stop-opacity:1;stop-color:#47c0b8"
         offset="0"
         id="stop188" /><stop
         style="stop-opacity:1;stop-color:#47c0b8"
         offset="0.0393917"
         id="stop190" /><stop
         style="stop-opacity:1;stop-color:#47d2b1"
         offset="0.348613"
         id="stop192" /><stop
         style="stop-opacity:1;stop-color:#47d2b1"
         offset="0.4222168"
         id="stop194" /><stop
         style="stop-opacity:1;stop-color:#12b56a"
         offset="1"
         id="stop196" /></linearGradient><linearGradient
       x1="0"
       y1="0"
       x2="1"
       y2="0"
       gradientUnits="userSpaceOnUse"
       gradientTransform="matrix(123.496,0,0,123.496,-122.8692,692.8907)"
       spreadMethod="pad"
       id="linearGradient202"><stop
         style="stop-opacity:1;stop-color:#47c0b8"
         offset="0"
         id="stop204" /><stop
         style="stop-opacity:1;stop-color:#47c0b8"
         offset="0.0393917"
         id="stop206" /><stop
         style="stop-opacity:1;stop-color:#47d2b1"
         offset="0.348613"
         id="stop208" /><stop
         style="stop-opacity:1;stop-color:#47d2b1"
         offset="0.4222168"
         id="stop210" /><stop
         style="stop-opacity:1;stop-color:#12b56a"
         offset="1"
         id="stop212" /></linearGradient><clipPath
       clipPathUnits="userSpaceOnUse"
       id="clipPath220"><path
         d="M 0,721 720,721 720,0 0,0 0,721 Z"
         id="path222"
         inkscape:connector-curvature="0" /></clipPath><linearGradient
       x1="0"
       y1="0"
       x2="1"
       y2="0"
       gradientUnits="userSpaceOnUse"
       gradientTransform="matrix(80.7481,0,0,80.7481,-79.718,758.184)"
       spreadMethod="pad"
       id="linearGradient226"><stop
         style="stop-opacity:1;stop-color:#47c0b8"
         offset="0"
         id="stop228" /><stop
         style="stop-opacity:1;stop-color:#47c0b8"
         offset="0.0393917"
         id="stop230" /><stop
         style="stop-opacity:1;stop-color:#47d2b1"
         offset="0.348613"
         id="stop232" /><stop
         style="stop-opacity:1;stop-color:#47d2b1"
         offset="0.4222168"
         id="stop234" /><stop
         style="stop-opacity:1;stop-color:#12b56a"
         offset="1"
         id="stop236" /></linearGradient><linearGradient
       x1="0"
       y1="0"
       x2="1"
       y2="0"
       gradientUnits="userSpaceOnUse"
       gradientTransform="matrix(41.0354,0,0,41.0354,-1.4822,596.7157)"
       spreadMethod="pad"
       id="linearGradient242"><stop
         style="stop-opacity:1;stop-color:#47c0b8"
         offset="0"
         id="stop244" /><stop
         style="stop-opacity:1;stop-color:#47c0b8"
         offset="0.0393917"
         id="stop246" /><stop
         style="stop-opacity:1;stop-color:#47d2b1"
         offset="0.348613"
         id="stop248" /><stop
         style="stop-opacity:1;stop-color:#47d2b1"
         offset="0.4222168"
         id="stop250" /><stop
         style="stop-opacity:1;stop-color:#12b56a"
         offset="1"
         id="stop252" /></linearGradient><clipPath
       clipPathUnits="userSpaceOnUse"
       id="clipPath260"><path
         d="M 0,721 720,721 720,0 0,0 0,721 Z"
         id="path262"
         inkscape:connector-curvature="0" /></clipPath><linearGradient
       x1="0"
       y1="0"
       x2="1"
       y2="0"
       gradientUnits="userSpaceOnUse"
       gradientTransform="matrix(117.044,0,0,117.044,-0.1432,715.3907)"
       spreadMethod="pad"
       id="linearGradient266"><stop
         style="stop-opacity:1;stop-color:#47c0b8"
         offset="0"
         id="stop268" /><stop
         style="stop-opacity:1;stop-color:#47c0b8"
         offset="0.0393917"
         id="stop270" /><stop
         style="stop-opacity:1;stop-color:#47d2b1"
         offset="0.348613"
         id="stop272" /><stop
         style="stop-opacity:1;stop-color:#47d2b1"
         offset="0.4222168"
         id="stop274" /><stop
         style="stop-opacity:1;stop-color:#12b56a"
         offset="1"
         id="stop276" /></linearGradient><linearGradient
       x1="0"
       y1="0"
       x2="1"
       y2="0"
       gradientUnits="userSpaceOnUse"
       gradientTransform="matrix(32.2089,0,0,32.2089,22.2528,475.5817)"
       spreadMethod="pad"
       id="linearGradient286"><stop
         style="stop-opacity:1;stop-color:#47c0b8"
         offset="0"
         id="stop288" /><stop
         style="stop-opacity:1;stop-color:#47c0b8"
         offset="0.0393917"
         id="stop290" /><stop
         style="stop-opacity:1;stop-color:#47d2b1"
         offset="0.348613"
         id="stop292" /><stop
         style="stop-opacity:1;stop-color:#47d2b1"
         offset="0.4222168"
         id="stop294" /><stop
         style="stop-opacity:1;stop-color:#12b56a"
         offset="1"
         id="stop296" /></linearGradient><linearGradient
       x1="0"
       y1="0"
       x2="1"
       y2="0"
       gradientUnits="userSpaceOnUse"
       gradientTransform="matrix(24.7635,0,0,24.7635,-12.3812,720.9997)"
       spreadMethod="pad"
       id="linearGradient306"><stop
         style="stop-opacity:1;stop-color:#47c0b8"
         offset="0"
         id="stop308" /><stop
         style="stop-opacity:1;stop-color:#47c0b8"
         offset="0.0393917"
         id="stop310" /><stop
         style="stop-opacity:1;stop-color:#47d2b1"
         offset="0.348613"
         id="stop312" /><stop
         style="stop-opacity:1;stop-color:#47d2b1"
         offset="0.4222168"
         id="stop314" /><stop
         style="stop-opacity:1;stop-color:#12b56a"
         offset="1"
         id="stop316" /></linearGradient><linearGradient
       x1="0"
       y1="0"
       x2="1"
       y2="0"
       gradientUnits="userSpaceOnUse"
       gradientTransform="matrix(32.035,0,0,32.035,-500.4812,510.1557)"
       spreadMethod="pad"
       id="linearGradient326"><stop
         style="stop-opacity:1;stop-color:#47c0b8"
         offset="0"
         id="stop328" /><stop
         style="stop-opacity:1;stop-color:#47c0b8"
         offset="0.0393917"
         id="stop330" /><stop
         style="stop-opacity:1;stop-color:#47d2b1"
         offset="0.348613"
         id="stop332" /><stop
         style="stop-opacity:1;stop-color:#47d2b1"
         offset="0.4222168"
         id="stop334" /><stop
         style="stop-opacity:1;stop-color:#12b56a"
         offset="1"
         id="stop336" /></linearGradient><linearGradient
       x1="0"
       y1="0"
       x2="1"
       y2="0"
       gradientUnits="userSpaceOnUse"
       gradientTransform="matrix(32.035,0,0,32.035,-545.1538,694.7997)"
       spreadMethod="pad"
       id="linearGradient346"><stop
         style="stop-opacity:1;stop-color:#47c0b8"
         offset="0"
         id="stop348" /><stop
         style="stop-opacity:1;stop-color:#47c0b8"
         offset="0.0393917"
         id="stop350" /><stop
         style="stop-opacity:1;stop-color:#47d2b1"
         offset="0.348613"
         id="stop352" /><stop
         style="stop-opacity:1;stop-color:#47d2b1"
         offset="0.4222168"
         id="stop354" /><stop
         style="stop-opacity:1;stop-color:#12b56a"
         offset="1"
         id="stop356" /></linearGradient><linearGradient
       x1="0"
       y1="0"
       x2="1"
       y2="0"
       gradientUnits="userSpaceOnUse"
       gradientTransform="matrix(289,0,0,289,-389.2422,592.0077)"
       spreadMethod="pad"
       id="linearGradient362"><stop
         style="stop-opacity:1;stop-color:#47c0b8"
         offset="0"
         id="stop364" /><stop
         style="stop-opacity:1;stop-color:#47c0b8"
         offset="0.0393917"
         id="stop366" /><stop
         style="stop-opacity:1;stop-color:#47d2b1"
         offset="0.348613"
         id="stop368" /><stop
         style="stop-opacity:1;stop-color:#47d2b1"
         offset="0.4222168"
         id="stop370" /><stop
         style="stop-opacity:1;stop-color:#12b56a"
         offset="1"
         id="stop372" /></linearGradient><linearGradient
       x1="0"
       y1="0"
       x2="1"
       y2="0"
       gradientUnits="userSpaceOnUse"
       gradientTransform="matrix(78.8439,0,0,78.8439,-607.16417,884.7817)"
       spreadMethod="pad"
       id="linearGradient378"><stop
         style="stop-opacity:1;stop-color:#47c0b8"
         offset="0"
         id="stop380" /><stop
         style="stop-opacity:1;stop-color:#47c0b8"
         offset="0.0393917"
         id="stop382" /><stop
         style="stop-opacity:1;stop-color:#47d2b1"
         offset="0.348613"
         id="stop384" /><stop
         style="stop-opacity:1;stop-color:#47d2b1"
         offset="0.4222168"
         id="stop386" /><stop
         style="stop-opacity:1;stop-color:#12b56a"
         offset="1"
         id="stop388" /></linearGradient><clipPath
       clipPathUnits="userSpaceOnUse"
       id="clipPath396"><path
         d="M 58.007,0 92.993,0 C 92.727,9.433 84.998,17 75.5,17 l 0,0 C 66.003,17 58.272,9.433 58.007,0"
         id="path398"
         inkscape:connector-curvature="0" /></clipPath><linearGradient
       x1="0"
       y1="0"
       x2="1"
       y2="0"
       gradientUnits="userSpaceOnUse"
       gradientTransform="matrix(35,0,0,-35,58,-0.5)"
       spreadMethod="pad"
       id="linearGradient402"><stop
         style="stop-opacity:1;stop-color:#47c0b8"
         offset="0"
         id="stop404" /><stop
         style="stop-opacity:1;stop-color:#47c0b8"
         offset="0.0393917"
         id="stop406" /><stop
         style="stop-opacity:1;stop-color:#47d2b1"
         offset="0.348613"
         id="stop408" /><stop
         style="stop-opacity:1;stop-color:#47d2b1"
         offset="0.4222168"
         id="stop410" /><stop
         style="stop-opacity:1;stop-color:#12b56a"
         offset="1"
         id="stop412" /></linearGradient><clipPath
       clipPathUnits="userSpaceOnUse"
       id="clipPath428"><path
         d="M 0,721 720,721 720,0 0,0 0,721 Z"
         id="path430"
         inkscape:connector-curvature="0" /></clipPath><clipPath
       clipPathUnits="userSpaceOnUse"
       id="clipPath496"><path
         d="M 0,721 720,721 720,0 0,0 0,721 Z"
         id="path498"
         inkscape:connector-curvature="0" /></clipPath></defs><sodipodi:namedview
     pagecolor="#ffffff"
     bordercolor="#666666"
     borderopacity="1"
     objecttolerance="10"
     gridtolerance="10"
     guidetolerance="10"
     inkscape:pageopacity="0"
     inkscape:pageshadow="2"
     inkscape:window-width="1366"
     inkscape:window-height="718"
     id="namedview4"
     showgrid="false"
     fit-margin-top="0"
     fit-margin-left="0"
     fit-margin-right="0"
     fit-margin-bottom="0"
     inkscape:zoom="0.26185853"
     inkscape:cx="442.36228"
     inkscape:cy="245.28289"
     inkscape:window-x="0"
     inkscape:window-y="24"
     inkscape:window-maximized="1"
     inkscape:current-layer="g10" /><g
     id="g10"
     inkscape:groupmode="layer"
     inkscape:label="mob-header"
     transform="matrix(1.25,0,0,-1.25,0,644.4877)"><g
       id="g48"><g
         id="g50"
         clip-path="url(#clipPath52)"><g
           id="g56"
           transform="translate(720.5,389.5)"><path
             d="M 0,0 -77.096,48.952"
             style="fill:none;stroke:url(#linearGradient58);stroke-width:3;stroke-linecap:butt;stroke-linejoin:miter;stroke-miterlimit:10;stroke-dasharray:none;stroke-opacity:1"
             id="path70"
             inkscape:connector-curvature="0" /></g></g></g><g
       id="g72"
       transform="translate(120.2783,404.1265)"><path
         d="M 0,0 111.222,-20.626"
         style="fill:none;stroke:url(#linearGradient74);stroke-width:3;stroke-linecap:butt;stroke-linejoin:miter;stroke-miterlimit:10;stroke-dasharray:none;stroke-opacity:1"
         id="path86"
         inkscape:connector-curvature="0" /></g><g
       id="g88"
       transform="translate(76.0146,219.7834)"><path
         d="M 0,0 153.485,46.717"
         style="fill:none;stroke:url(#linearGradient90);stroke-width:3;stroke-linecap:butt;stroke-linejoin:miter;stroke-miterlimit:10;stroke-dasharray:none;stroke-opacity:1"
         id="path102"
         inkscape:connector-curvature="0" /></g><g
       id="g104"><g
         id="g106"
         clip-path="url(#clipPath108)"><g
           id="g112"
           transform="translate(75.1431,219.4761)"><path
             d="M 0,0 -76.643,-53.976"
             style="fill:none;stroke:url(#linearGradient114);stroke-width:3;stroke-linecap:butt;stroke-linejoin:miter;stroke-miterlimit:10;stroke-dasharray:none;stroke-opacity:1"
             id="path126"
             inkscape:connector-curvature="0" /></g><g
           id="g128"
           transform="translate(119.8965,403.7444)"><path
             d="M 0,0 -121.396,90.756"
             style="fill:none;stroke:url(#linearGradient130);stroke-width:3;stroke-linecap:butt;stroke-linejoin:miter;stroke-miterlimit:10;stroke-dasharray:none;stroke-opacity:1"
             id="path142"
             inkscape:connector-curvature="0" /></g></g></g><g
       id="g144"
       transform="translate(75.6328,220.1655)"><path
         d="M 0,0 44.153,184.358"
         style="fill:none;stroke:url(#linearGradient146);stroke-width:3;stroke-linecap:butt;stroke-linejoin:miter;stroke-miterlimit:10;stroke-dasharray:none;stroke-opacity:1"
         id="path158"
         inkscape:connector-curvature="0" /></g><g
       id="g160"><g
         id="g162"
         clip-path="url(#clipPath164)"><g
           id="g168"
           transform="translate(119.8965,403.7444)"><path
             d="M 0,0 -121.396,-33.244"
             style="fill:none;stroke:url(#linearGradient170);stroke-width:3;stroke-linecap:butt;stroke-linejoin:miter;stroke-miterlimit:10;stroke-dasharray:none;stroke-opacity:1"
             id="path182"
             inkscape:connector-curvature="0" /></g></g></g><g
       id="g184"
       transform="translate(491.5,375.5)"><path
         d="M 0,0 151.312,66.35"
         style="fill:none;stroke:url(#linearGradient186);stroke-width:3;stroke-linecap:butt;stroke-linejoin:miter;stroke-miterlimit:10;stroke-dasharray:none;stroke-opacity:1"
         id="path198"
         inkscape:connector-curvature="0" /></g><g
       id="g200"
       transform="translate(604.7422,193.2817)"><path
         d="M 0,0 -122.242,56.218"
         style="fill:none;stroke:url(#linearGradient202);stroke-width:3;stroke-linecap:butt;stroke-linejoin:miter;stroke-miterlimit:10;stroke-dasharray:none;stroke-opacity:1"
         id="path214"
         inkscape:connector-curvature="0" /></g><g
       id="g216"><g
         id="g218"
         clip-path="url(#clipPath220)"><g
           id="g224"
           transform="translate(721.5,514.5)"><path
             d="M 0,0 -78.688,-74.369"
             style="fill:none;stroke:url(#linearGradient226);stroke-width:3;stroke-linecap:butt;stroke-linejoin:miter;stroke-miterlimit:10;stroke-dasharray:none;stroke-opacity:1"
             id="path238"
             inkscape:connector-curvature="0" /></g></g></g><g
       id="g240"
       transform="translate(604.7422,193.2817)"><path
         d="M 0,0 38.07,248.568"
         style="fill:none;stroke:url(#linearGradient242);stroke-width:3;stroke-linecap:butt;stroke-linejoin:miter;stroke-miterlimit:10;stroke-dasharray:none;stroke-opacity:1"
         id="path254"
         inkscape:connector-curvature="0" /></g><g
       id="g256"><g
         id="g258"
         clip-path="url(#clipPath260)"><g
           id="g264"
           transform="translate(604.7422,193.2817)"><path
             d="M 0,0 116.758,11.218"
             style="fill:none;stroke:url(#linearGradient266);stroke-width:3;stroke-linecap:butt;stroke-linejoin:miter;stroke-miterlimit:10;stroke-dasharray:none;stroke-opacity:1"
             id="path278"
             inkscape:connector-curvature="0" /></g><g
           id="g280"
           transform="translate(657.7031,438.6996)"><path
             d="m 0,0 c 0,-8.066 -6.538,-14.604 -14.604,-14.604 -8.066,0 -14.605,6.538 -14.605,14.604 0,8.066 6.539,14.604 14.605,14.604 C -6.538,14.604 0,8.066 0,0"
             style="fill:#ffffff;fill-opacity:1;fill-rule:nonzero;stroke:none"
             id="path282"
             inkscape:connector-curvature="0" /></g><g
           id="g284"
           transform="translate(657.7031,438.6996)"><path
             d="m 0,0 c 0,-8.066 -6.538,-14.604 -14.604,-14.604 -8.066,0 -14.605,6.538 -14.605,14.604 0,8.066 6.539,14.604 14.605,14.604 C -6.538,14.604 0,8.066 0,0 Z"
             style="fill:none;stroke:url(#linearGradient286);stroke-width:3;stroke-linecap:butt;stroke-linejoin:miter;stroke-miterlimit:10;stroke-dasharray:none;stroke-opacity:1"
             id="path298"
             inkscape:connector-curvature="0" /></g><g
           id="g300"
           transform="translate(615.624,193.2817)"><path
             d="m 0,0 c 0,-6.01 -4.872,-10.882 -10.882,-10.882 -6.01,0 -10.882,4.872 -10.882,10.882 0,6.01 4.872,10.882 10.882,10.882 C -4.872,10.882 0,6.01 0,0"
             style="fill:#ffffff;fill-opacity:1;fill-rule:nonzero;stroke:none"
             id="path302"
             inkscape:connector-curvature="0" /></g><g
           id="g304"
           transform="translate(615.624,193.2817)"><path
             d="m 0,0 c 0,-6.01 -4.872,-10.882 -10.882,-10.882 -6.01,0 -10.882,4.872 -10.882,10.882 0,6.01 4.872,10.882 10.882,10.882 C -4.872,10.882 0,6.01 0,0 Z"
             style="fill:none;stroke:url(#linearGradient306);stroke-width:3;stroke-linecap:butt;stroke-linejoin:miter;stroke-miterlimit:10;stroke-dasharray:none;stroke-opacity:1"
             id="path318"
             inkscape:connector-curvature="0" /></g><g
           id="g320"
           transform="translate(134.7959,404.1265)"><path
             d="m 0,0 c 0,-8.018 -6.5,-14.517 -14.518,-14.517 -8.017,0 -14.517,6.499 -14.517,14.517 0,8.018 6.5,14.517 14.517,14.517 C -6.5,14.517 0,8.018 0,0"
             style="fill:#ffffff;fill-opacity:1;fill-rule:nonzero;stroke:none"
             id="path322"
             inkscape:connector-curvature="0" /></g><g
           id="g324"
           transform="translate(134.7959,404.1265)"><path
             d="m 0,0 c 0,-8.018 -6.5,-14.517 -14.518,-14.517 -8.017,0 -14.517,6.499 -14.517,14.517 0,8.018 6.5,14.517 14.517,14.517 C -6.5,14.517 0,8.018 0,0 Z"
             style="fill:none;stroke:url(#linearGradient326);stroke-width:3;stroke-linecap:butt;stroke-linejoin:miter;stroke-miterlimit:10;stroke-dasharray:none;stroke-opacity:1"
             id="path338"
             inkscape:connector-curvature="0" /></g><g
           id="g340"
           transform="translate(90.1235,219.4822)"><path
             d="m 0,0 c 0,-8.018 -6.5,-14.517 -14.518,-14.517 -8.018,0 -14.517,6.499 -14.517,14.517 0,8.018 6.499,14.518 14.517,14.518 C -6.5,14.518 0,8.018 0,0"
             style="fill:#ffffff;fill-opacity:1;fill-rule:nonzero;stroke:none"
             id="path342"
             inkscape:connector-curvature="0" /></g><g
           id="g344"
           transform="translate(90.1235,219.4822)"><path
             d="m 0,0 c 0,-8.018 -6.5,-14.517 -14.518,-14.517 -8.018,0 -14.517,6.499 -14.517,14.517 0,8.018 6.499,14.518 14.517,14.518 C -6.5,14.518 0,8.018 0,0 Z"
             style="fill:none;stroke:url(#linearGradient346);stroke-width:3;stroke-linecap:butt;stroke-linejoin:miter;stroke-miterlimit:10;stroke-dasharray:none;stroke-opacity:1"
             id="path358"
             inkscape:connector-curvature="0" /></g><g
           id="g360"
           transform="translate(502,322.2738)"><path
             d="m 0,0 c 0,-78.424 -63.575,-142 -142,-142 -78.424,0 -142,63.576 -142,142 0,7.186 0.534,14.248 1.564,21.147 C -272.224,89.542 -213.238,142 -142,142 -63.575,142 0,78.424 0,0 Z"
             style="fill:none;stroke:url(#linearGradient362);stroke-width:5;stroke-linecap:butt;stroke-linejoin:miter;stroke-miterlimit:10;stroke-dasharray:none;stroke-opacity:1"
             id="path374"
             inkscape:connector-curvature="0" /></g><g
           id="g376"
           transform="translate(75.5,-0.5)" /></g></g><g
       id="g492"><g
         id="g494"
         clip-path="url(#clipPath496)"><g
           id="g500"
           transform="translate(340.9604,350.8706)"><path
             d="M 0,0 C -1.585,0 -2.833,-0.562 -3.742,-1.686 -4.65,-2.81 -5.104,-4.362 -5.104,-6.34 c 0,-2.072 0.437,-3.638 1.311,-4.701 0.873,-1.062 2.138,-1.594 3.793,-1.594 0.717,0 1.41,0.072 2.079,0.214 0.671,0.143 1.367,0.325 2.09,0.549 l 0,-2.368 c -1.323,-0.501 -2.825,-0.751 -4.503,-0.751 -2.472,0 -4.37,0.749 -5.694,2.247 -1.325,1.497 -1.986,3.639 -1.986,6.427 0,1.755 0.321,3.291 0.964,4.608 0.642,1.316 1.572,2.325 2.789,3.026 1.217,0.7 2.644,1.051 4.285,1.051 1.724,0 3.318,-0.363 4.78,-1.086 L 3.812,-1.016 C 3.242,-0.747 2.639,-0.51 2.004,-0.306 1.369,-0.102 0.701,0 0,0"
             style="fill:#ffffff;fill-opacity:1;fill-rule:nonzero;stroke:none"
             id="path502"
             inkscape:connector-curvature="0" /></g><g
           id="g504"
           transform="translate(358.3188,336.111)"><path
             d="m 0,0 -9.55,0 0,16.885 9.55,0 0,-2.333 -6.791,0 0,-4.597 6.364,0 0,-2.309 -6.364,0 0,-5.302 L 0,2.344 0,0 Z"
             style="fill:#ffffff;fill-opacity:1;fill-rule:nonzero;stroke:none"
             id="path506"
             inkscape:connector-curvature="0" /></g><g
           id="g508"
           transform="translate(367.8008,336.111)"><path
             d="m 0,0 -2.76,0 0,14.517 -4.966,0 0,2.368 12.693,0 0,-2.368 L 0,14.517 0,0 Z"
             style="fill:#ffffff;fill-opacity:1;fill-rule:nonzero;stroke:none"
             id="path510"
             inkscape:connector-curvature="0" /></g><g
           id="g512"
           transform="translate(378.1143,338.4324)"><path
             d="M 0,0 2.321,0 C 3.561,0 4.514,0.218 5.18,0.652 5.846,1.087 6.179,1.79 6.179,2.76 6.179,3.668 5.859,4.335 5.22,4.758 4.581,5.181 3.511,5.393 2.01,5.393 L 0,5.393 0,0 Z M 9.008,2.76 C 9.008,1.105 8.451,-0.156 7.339,-1.022 6.227,-1.889 4.616,-2.321 2.507,-2.321 l -5.267,0 0,16.884 2.76,0 0,-6.86 2.391,0 c 2.14,0 3.778,-0.425 4.914,-1.276 C 8.44,5.576 9.008,4.354 9.008,2.76"
             style="fill:#ffffff;fill-opacity:1;fill-rule:nonzero;stroke:none"
             id="path514"
             inkscape:connector-curvature="0" /></g><g
           id="g516"
           transform="translate(256.606,305.4392)"><path
             d="m 0,0 -2.772,0 0,14.517 -7.449,0 0,-14.517 -2.76,0 0,16.885 L 0,16.885 0,0 Z"
             style="fill:#ffffff;fill-opacity:1;fill-rule:nonzero;stroke:none"
             id="path518"
             inkscape:connector-curvature="0" /></g><g
           id="g520"
           transform="translate(263.8125,314.0779)"><path
             d="m 0,0 1.466,0 c 1.418,0 2.457,0.246 3.119,0.739 0.662,0.493 0.993,1.263 0.993,2.31 0,0.97 -0.296,1.694 -0.889,2.171 C 4.096,5.698 3.172,5.936 1.917,5.936 L 0,5.936 0,0 Z M 8.42,3.141 C 8.42,1.378 7.842,0.027 6.687,-0.912 5.532,-1.852 3.888,-2.321 1.755,-2.321 l -1.755,0 0,-6.318 -2.76,0 0,16.885 4.862,0 c 2.109,0 3.69,-0.431 4.741,-1.293 C 7.894,6.09 8.42,4.82 8.42,3.141"
             style="fill:#ffffff;fill-opacity:1;fill-rule:nonzero;stroke:none"
             id="path522"
             inkscape:connector-curvature="0" /></g><g
           id="g524"
           transform="translate(277.7056,313.9047)"><path
             d="m 0,0 c 0,-2.079 0.42,-3.655 1.259,-4.729 0.84,-1.074 2.083,-1.611 3.73,-1.611 1.641,0 2.878,0.531 3.714,1.593 C 9.538,-3.684 9.956,-2.102 9.956,0 9.956,2.071 9.542,3.642 8.714,4.712 7.886,5.782 6.652,6.317 5.013,6.317 3.357,6.317 2.108,5.782 1.266,4.712 0.422,3.642 0,2.071 0,0 m 12.889,0 c 0,-2.749 -0.687,-4.885 -2.061,-6.41 -1.375,-1.524 -3.32,-2.286 -5.839,-2.286 -2.548,0 -4.505,0.756 -5.872,2.269 -1.367,1.513 -2.05,3.663 -2.05,6.45 0,2.787 0.687,4.927 2.061,6.421 1.375,1.494 3.336,2.241 5.885,2.241 2.51,0 4.45,-0.759 5.821,-2.275 1.37,-1.517 2.055,-3.654 2.055,-6.41"
             style="fill:#ffffff;fill-opacity:1;fill-rule:nonzero;stroke:none"
             id="path526"
             inkscape:connector-curvature="0" /></g><g
           id="g528"
           transform="translate(303.0913,310.0011)"><path
             d="M 0,0 0.231,0 C 1.617,0 2.7,0.371 3.482,1.114 4.263,1.858 4.654,2.891 4.654,4.215 4.654,5.447 4.291,6.425 3.563,7.149 2.835,7.872 1.836,8.234 0.565,8.234 L 0,8.234 0,0 Z m -2.611,8.234 -0.565,0 c -1.278,0 -2.28,-0.363 -3.003,-1.091 -0.723,-0.727 -1.086,-1.703 -1.086,-2.928 0,-1.309 0.39,-2.338 1.167,-3.089 C -5.321,0.375 -4.228,0 -2.818,0 l 0.207,0 0,8.234 z m 0,-13.027 0,2.599 -0.381,0 c -1.378,0 -2.589,0.252 -3.632,0.756 -1.043,0.504 -1.861,1.261 -2.454,2.27 -0.592,1.008 -0.889,2.128 -0.889,3.36 0,1.194 0.27,2.27 0.808,3.228 0.539,0.959 1.313,1.709 2.322,2.252 1.008,0.543 2.19,0.815 3.545,0.815 l 0.681,0 0,2.078 2.611,0 0,-2.078 0.704,0 c 1.363,0 2.547,-0.27 3.551,-0.809 C 5.26,9.139 6.026,8.394 6.554,7.443 7.081,6.492 7.345,5.409 7.345,4.192 7.345,2.937 7.049,1.809 6.456,0.808 5.862,-0.193 5.048,-0.943 4.013,-1.444 2.978,-1.944 1.763,-2.194 0.37,-2.194 l -0.37,0 0,-2.599 -2.611,0 z"
             style="fill:#ffffff;fill-opacity:1;fill-rule:nonzero;stroke:none"
             id="path530"
             inkscape:connector-curvature="0" /></g><g
           id="g532"
           transform="translate(323.3828,305.4392)"><path
             d="m 0,0 -9.551,0 0,16.885 9.551,0 0,-2.333 -6.791,0 0,-4.597 6.363,0 0,-2.309 -6.363,0 0,-5.302 L 0,2.344 0,0 Z"
             style="fill:#ffffff;fill-opacity:1;fill-rule:nonzero;stroke:none"
             id="path534"
             inkscape:connector-curvature="0" /></g><g
           id="g536"
           transform="translate(334.2158,320.199)"><path
             d="m 0,0 c -1.585,0 -2.833,-0.562 -3.742,-1.686 -0.908,-1.125 -1.362,-2.676 -1.362,-4.654 0,-2.072 0.437,-3.638 1.311,-4.701 0.873,-1.063 2.138,-1.594 3.793,-1.594 0.717,0 1.41,0.071 2.079,0.214 0.671,0.142 1.367,0.325 2.09,0.549 l 0,-2.368 c -1.323,-0.501 -2.825,-0.751 -4.503,-0.751 -2.472,0 -4.37,0.749 -5.694,2.247 -1.325,1.497 -1.986,3.639 -1.986,6.427 0,1.755 0.321,3.291 0.964,4.608 0.642,1.316 1.572,2.325 2.789,3.026 1.217,0.7 2.644,1.051 4.285,1.051 1.724,0 3.318,-0.363 4.78,-1.086 L 3.812,-1.016 C 3.242,-0.747 2.639,-0.51 2.004,-0.306 1.369,-0.102 0.701,0 0,0"
             style="fill:#ffffff;fill-opacity:1;fill-rule:nonzero;stroke:none"
             id="path538"
             inkscape:connector-curvature="0" /></g><g
           id="g540"
           transform="translate(349.2065,320.199)"><path
             d="m 0,0 c -1.585,0 -2.833,-0.562 -3.742,-1.686 -0.908,-1.125 -1.362,-2.676 -1.362,-4.654 0,-2.072 0.437,-3.638 1.311,-4.701 0.873,-1.063 2.138,-1.594 3.793,-1.594 0.717,0 1.41,0.071 2.079,0.214 0.671,0.142 1.367,0.325 2.09,0.549 l 0,-2.368 c -1.323,-0.501 -2.825,-0.751 -4.503,-0.751 -2.472,0 -4.37,0.749 -5.694,2.247 -1.325,1.497 -1.986,3.639 -1.986,6.427 0,1.755 0.321,3.291 0.964,4.608 0.642,1.316 1.572,2.325 2.789,3.026 1.217,0.7 2.644,1.051 4.285,1.051 1.724,0 3.318,-0.363 4.78,-1.086 L 3.812,-1.016 C 3.242,-0.747 2.639,-0.51 2.004,-0.306 1.369,-0.102 0.701,0 0,0"
             style="fill:#ffffff;fill-opacity:1;fill-rule:nonzero;stroke:none"
             id="path542"
             inkscape:connector-curvature="0" /></g><g
           id="g544"
           transform="translate(357.0142,322.324)"><path
             d="m 0,0 2.529,0 0,-8.777 c 0,-0.917 -0.023,-1.842 -0.069,-2.778 -0.046,-0.935 -0.082,-1.569 -0.104,-1.9 l 0.104,0 8.627,13.455 3.222,0 0,-16.885 -2.541,0 0,8.708 c 0,1.332 0.073,2.949 0.22,4.851 l -0.093,0 L 3.234,-16.885 0,-16.885 0,0 Z"
             style="fill:#ffffff;fill-opacity:1;fill-rule:nonzero;stroke:none"
             id="path546"
             inkscape:connector-curvature="0" /></g><g
           id="g548"
           transform="translate(377.8486,313.9047)"><path
             d="m 0,0 c 0,-2.079 0.42,-3.655 1.259,-4.729 0.839,-1.074 2.082,-1.611 3.729,-1.611 1.642,0 2.878,0.531 3.714,1.593 C 9.537,-3.684 9.956,-2.102 9.956,0 9.956,2.071 9.541,3.642 8.714,4.712 7.886,5.782 6.651,6.317 5.013,6.317 3.357,6.317 2.107,5.782 1.265,4.712 0.421,3.642 0,2.071 0,0 m 12.889,0 c 0,-2.749 -0.688,-4.885 -2.062,-6.41 -1.375,-1.524 -3.32,-2.286 -5.839,-2.286 -2.548,0 -4.505,0.756 -5.872,2.269 -1.367,1.513 -2.05,3.663 -2.05,6.45 0,2.787 0.688,4.927 2.062,6.421 1.375,1.494 3.336,2.241 5.885,2.241 2.509,0 4.449,-0.759 5.82,-2.275 1.37,-1.517 2.056,-3.654 2.056,-6.41"
             style="fill:#ffffff;fill-opacity:1;fill-rule:nonzero;stroke:none"
             id="path550"
             inkscape:connector-curvature="0" /></g><g
           id="g552"
           transform="translate(407.6797,305.4392)"><path
             d="m 0,0 -2.771,0 0,7.611 -7.785,0 0,-7.611 -2.759,0 0,16.885 2.759,0 0,-6.907 7.785,0 0,6.907 2.771,0 L 0,0 Z"
             style="fill:#ffffff;fill-opacity:1;fill-rule:nonzero;stroke:none"
             id="path554"
             inkscape:connector-curvature="0" /></g><g
           id="g556"
           transform="translate(420.1875,312.5072)"><path
             d="M 0,0 -1.582,4.597 C -1.698,4.904 -1.858,5.389 -2.062,6.052 -2.266,6.714 -2.406,7.199 -2.483,7.507 -2.691,6.56 -2.995,5.524 -3.396,4.4 L -4.92,0 0,0 Z m 2.414,-7.068 -1.686,4.689 -6.457,0 -1.651,-4.689 -2.91,0 6.316,16.954 3.003,0 6.318,-16.954 -2.933,0 z"
             style="fill:#ffffff;fill-opacity:1;fill-rule:nonzero;stroke:none"
             id="path558"
             inkscape:connector-curvature="0" /></g><g
           id="g560"
           transform="translate(442.7217,305.4392)"><path
             d="m 0,0 -2.761,0 0,14.517 -4.803,0 C -8.173,9.589 -8.66,6.237 -9.025,4.458 -9.391,2.679 -9.905,1.442 -10.567,0.745 c -0.662,-0.697 -1.539,-1.034 -2.634,-1.011 -0.562,0 -1.097,0.097 -1.605,0.289 l 0,2.298 c 0.439,-0.192 0.867,-0.288 1.282,-0.288 0.554,0 0.988,0.333 1.299,0.999 0.313,0.666 0.655,2.138 1.029,4.417 0.373,2.279 0.818,5.424 1.334,9.436 L 0,16.885 0,0 Z"
             style="fill:#ffffff;fill-opacity:1;fill-rule:nonzero;stroke:none"
             id="path562"
             inkscape:connector-curvature="0" /></g><g
           id="g564"
           transform="translate(448.5186,313.9047)"><path
             d="m 0,0 c 0,-2.079 0.421,-3.655 1.26,-4.729 0.839,-1.074 2.082,-1.611 3.729,-1.611 1.641,0 2.878,0.531 3.714,1.593 C 9.538,-3.684 9.956,-2.102 9.956,0 9.956,2.071 9.542,3.642 8.714,4.712 7.887,5.782 6.652,6.317 5.014,6.317 3.357,6.317 2.108,5.782 1.266,4.712 0.422,3.642 0,2.071 0,0 m 12.889,0 c 0,-2.749 -0.687,-4.885 -2.061,-6.41 -1.375,-1.524 -3.32,-2.286 -5.839,-2.286 -2.548,0 -4.506,0.756 -5.872,2.269 -1.367,1.513 -2.05,3.663 -2.05,6.45 0,2.787 0.688,4.927 2.062,6.421 1.374,1.494 3.335,2.241 5.885,2.241 2.508,0 4.449,-0.759 5.82,-2.275 1.37,-1.517 2.055,-3.654 2.055,-6.41"
             style="fill:#ffffff;fill-opacity:1;fill-rule:nonzero;stroke:none"
             id="path566"
             inkscape:connector-curvature="0" /></g><g
           id="g568"
           transform="translate(467.0312,313.1078)"><path
             d="m 0,0 0,-5.347 2.934,0 c 1.155,0 2.027,0.221 2.616,0.664 0.589,0.443 0.884,1.141 0.884,2.096 0,0.878 -0.301,1.528 -0.902,1.952 C 4.932,-0.212 4.02,0 2.795,0 L 0,0 Z m 0,2.241 2.656,0 c 1.156,0 1.998,0.182 2.531,0.548 0.53,0.366 0.795,0.988 0.795,1.865 0,0.793 -0.286,1.367 -0.86,1.721 C 4.549,6.729 3.638,6.906 2.391,6.906 L 0,6.906 0,2.241 Z m -2.76,6.975 5.012,0 C 4.577,9.216 6.258,8.877 7.293,8.2 8.329,7.522 8.847,6.452 8.847,4.989 8.847,4.003 8.593,3.183 8.085,2.529 7.576,1.875 6.845,1.463 5.891,1.293 l 0,-0.115 C 7.076,0.954 7.947,0.514 8.507,-0.145 9.064,-0.802 9.344,-1.694 9.344,-2.818 9.344,-4.335 8.814,-5.522 7.755,-6.381 6.696,-7.239 5.225,-7.669 3.339,-7.669 l -6.099,0 0,16.885 z"
             style="fill:#ffffff;fill-opacity:1;fill-rule:nonzero;stroke:none"
             id="path570"
             inkscape:connector-curvature="0" /></g></g></g></g></svg>