<svg xmlns="http://www.w3.org/2000/svg" xmlns:xlink="http://www.w3.org/1999/xlink" viewBox="0 0 724.93 351.32"><defs><style>.cls-1,.cls-10,.cls-11,.cls-12,.cls-14,.cls-15,.cls-16,.cls-17,.cls-18,.cls-2,.cls-3,.cls-4,.cls-5,.cls-6,.cls-7,.cls-8,.cls-9{fill:none;stroke-miterlimit:10;}.cls-1,.cls-10,.cls-11,.cls-12,.cls-14,.cls-15,.cls-16,.cls-17,.cls-2,.cls-3,.cls-4,.cls-5,.cls-6,.cls-7,.cls-8,.cls-9{stroke-width:3px;}.cls-1{stroke:url(#linear-gradient);}.cls-2{stroke:url(#linear-gradient-2);}.cls-3{stroke:url(#linear-gradient-3);}.cls-4{stroke:url(#linear-gradient-4);}.cls-5{stroke:url(#linear-gradient-5);}.cls-6{stroke:url(#linear-gradient-6);}.cls-7{stroke:url(#linear-gradient-7);}.cls-8{stroke:url(#linear-gradient-8);}.cls-9{stroke:url(#linear-gradient-9);}.cls-10{stroke:url(#linear-gradient-10);}.cls-11{stroke:url(#linear-gradient-11);}.cls-12{stroke:url(#linear-gradient-12);}.cls-13{fill:#fff;}.cls-14{stroke:url(#linear-gradient-13);}.cls-15{stroke:url(#linear-gradient-14);}.cls-16{stroke:url(#linear-gradient-15);}.cls-17{stroke:url(#linear-gradient-16);}.cls-18{stroke-width:5px;stroke:url(#linear-gradient-17);}</style><linearGradient id="linear-gradient" x1="645" y1="101.61" x2="723.7" y2="101.61" gradientUnits="userSpaceOnUse"><stop offset="0" stop-color="#47c0b8"/><stop offset="0.35" stop-color="#47d2b1"/><stop offset="0.59" stop-color="#36c99a"/><stop offset="1" stop-color="#12b56a"/></linearGradient><linearGradient id="linear-gradient-2" x1="122.4" y1="121.78" x2="234.17" y2="121.78" xlink:href="#linear-gradient"/><linearGradient id="linear-gradient-3" x1="77.98" y1="272.45" x2="232.33" y2="272.45" xlink:href="#linear-gradient"/><linearGradient id="linear-gradient-4" x1="0.03" y1="323.1" x2="78.4" y2="323.1" xlink:href="#linear-gradient"/><linearGradient id="linear-gradient-5" x1="0" y1="66.47" x2="123.19" y2="66.47" xlink:href="#linear-gradient"/><linearGradient id="linear-gradient-6" x1="76.57" y1="203.25" x2="123.64" y2="203.25" xlink:href="#linear-gradient"/><linearGradient id="linear-gradient-7" x1="0.5" y1="128.47" x2="122.69" y2="128.47" xlink:href="#linear-gradient"/><linearGradient id="linear-gradient-8" x1="493.3" y1="106.92" x2="645.81" y2="106.92" xlink:href="#linear-gradient"/><linearGradient id="linear-gradient-9" x1="484.27" y1="294.2" x2="607.77" y2="294.2" xlink:href="#linear-gradient"/><linearGradient id="linear-gradient-10" x1="644.18" y1="38.27" x2="724.93" y2="38.27" xlink:href="#linear-gradient"/><linearGradient id="linear-gradient-11" x1="605.66" y1="198.02" x2="646.69" y2="198.02" xlink:href="#linear-gradient"/><linearGradient id="linear-gradient-12" x1="607" y1="316.7" x2="724.04" y2="316.7" xlink:href="#linear-gradient"/><linearGradient id="linear-gradient-13" x1="629.39" y1="76.89" x2="661.6" y2="76.89" xlink:href="#linear-gradient"/><linearGradient id="linear-gradient-14" x1="594.76" y1="322.31" x2="619.52" y2="322.31" xlink:href="#linear-gradient"/><linearGradient id="linear-gradient-15" x1="106.66" y1="111.46" x2="138.69" y2="111.46" xlink:href="#linear-gradient"/><linearGradient id="linear-gradient-16" x1="61.99" y1="296.11" x2="94.02" y2="296.11" xlink:href="#linear-gradient"/><linearGradient id="linear-gradient-17" x1="217.9" y1="193.32" x2="506.9" y2="193.32" xlink:href="#linear-gradient"/></defs><title>Asset 14</title><g id="Layer_2" data-name="Layer 2"><g id="Layer_3" data-name="Layer 3"><line class="cls-1" x1="722.9" y1="126.09" x2="645.8" y2="77.14"/><line class="cls-2" x1="122.68" y1="111.46" x2="233.9" y2="132.09"/><line class="cls-3" x1="78.41" y1="295.81" x2="231.9" y2="249.09"/><line class="cls-4" x1="77.54" y1="296.11" x2="0.9" y2="350.09"/><line class="cls-5" x1="122.29" y1="111.85" x2="0.9" y2="21.09"/><line class="cls-6" x1="78.03" y1="295.42" x2="122.18" y2="111.07"/><line class="cls-7" x1="122.29" y1="111.85" x2="0.9" y2="145.09"/><line class="cls-8" x1="493.9" y1="140.09" x2="645.21" y2="73.74"/><line class="cls-9" x1="607.14" y1="322.31" x2="484.9" y2="266.09"/><line class="cls-10" x1="723.9" y1="1.09" x2="645.21" y2="75.46"/><line class="cls-11" x1="607.14" y1="322.31" x2="645.21" y2="73.74"/><line class="cls-12" x1="607.14" y1="322.31" x2="723.9" y2="311.09"/><circle class="cls-13" cx="645.5" cy="76.89" r="14.6"/><circle class="cls-14" cx="645.5" cy="76.89" r="14.6"/><circle class="cls-13" cx="607.14" cy="322.31" r="10.88"/><circle class="cls-15" cx="607.14" cy="322.31" r="10.88"/><circle class="cls-13" cx="122.68" cy="111.46" r="14.52"/><circle class="cls-16" cx="122.68" cy="111.46" r="14.52"/><circle class="cls-13" cx="78" cy="296.11" r="14.52"/><circle class="cls-17" cx="78" cy="296.11" r="14.52"/><path class="cls-18" d="M504.4,193.32a142,142,0,1,1-142-142A142,142,0,0,1,504.4,193.32Z"/></g></g></svg>