<?xml version="1.0" encoding="utf-8"?>
<!-- Generator: Adobe Illustrator 22.1.0, SVG Export Plug-In . SVG Version: 6.00 Build 0)  -->
<svg version="1.1" id="Layer_1" xmlns="http://www.w3.org/2000/svg" xmlns:xlink="http://www.w3.org/1999/xlink" x="0px" y="0px"
	 viewBox="0 0 1057 474" style="enable-background:new 0 0 1057 474;" xml:space="preserve">
<style type="text/css">
	.st0{fill:#FFFFFF;}
</style>
<g>
	<g>
		<g>
			<g>
				<path class="st0" d="M707.4,0.5c0.1,11.7,1.4,23.4-0.3,35c-0.1,0.8,1.8,1.3,1.9,0.5c1.6-11.8,0.3-23.5,0.3-35.3
					C709.4,0,707.4-0.4,707.4,0.5L707.4,0.5z"/>
			</g>
			<g>
				<path class="st0" d="M701.4,26.9c2.6,3.2,4.3,6.8,6.2,10.4c0.2,0.5,1.6-0.5,1.7-0.7c2.8-3.6,5.3-7.3,7-11.5
					c0.1-0.1-0.1-0.2-0.2-0.2c-4.2,0-9.3-0.9-13.1,1.3c-1,0.6-0.7,1.1,0.3,0.6c1.7-1,4.2-0.8,6.1-0.8c1.2,0,3.3-0.4,4.4,0.1
					c0.6-0.2,0.7,0.1,0.4,0.7c-0.3,0.8-0.7,1.5-1.1,2.3c-0.4,0.8-0.9,1.6-1.4,2.4c-1.2,2-2.6,3.9-4.1,5.8c0.6-0.2,1.1-0.5,1.7-0.7
					c-1.8-3.6-3.6-7.2-6.2-10.4C702.8,25.5,701.1,26.6,701.4,26.9L701.4,26.9z"/>
			</g>
			<g>
				<path class="st0" d="M656,16.9c10.7,8.6,20.9,17.8,31.4,26.7c0.5,0.5,2.4,0.3,1.6-0.4c-10.6-9-20.9-18.3-31.7-27
					C656.6,15.7,655,16.1,656,16.9L656,16.9z"/>
			</g>
			<g>
				<path class="st0" d="M677.4,40.3c4.2,0.9,8,3,11.8,4.7c0.9,0.4,1.6-0.8,0.9-1.4c-3-2.8-5-6.3-7.3-9.7c-0.4-0.5-1.2-0.9-1.6-0.2
					c-1.5,2.4-4.6,3.1-6.4,5.3c-0.7,0.9,0.9,2,1.6,1.1c1.8-2.2,4.9-2.8,6.4-5.3c-0.5-0.1-1.1-0.1-1.6-0.2c2.4,3.5,4.5,7.1,7.6,10.1
					c0.3-0.5,0.6-1,0.9-1.4c-4-1.9-7.9-3.9-12.3-4.9C676.2,38.1,676.3,40,677.4,40.3L677.4,40.3z"/>
			</g>
			<g>
				<path class="st0" d="M759.5,19.7c-4.1,1.4-7.1,5.1-9.9,8.2c-6.1,6.6-12.7,12.6-18.6,19.4c-0.2,0.2,1.3-0.4,1.6-0.7
					c4.6-5.3,9.5-10.3,14.6-15.2c3.2-3.1,6.9-9.4,11.2-10.9C758.7,20.4,760.3,19.4,759.5,19.7L759.5,19.7z"/>
			</g>
			<g>
				<path class="st0" d="M736,36.6c-2.4,3.7-5.4,7.3-6.7,11.5c0,0.1,0.1,0.2,0.2,0.2c3.4-0.1,6.6-0.9,10-1c0.3,0,1.8-0.5,1.5-1.1
					c-1.6-3-3.2-6.1-3.6-9.5c-0.1-0.6-1.8,0.2-1.8,0.7c0.4,3.5,1.9,6.7,3.6,9.7c0.5-0.4,1-0.7,1.5-1.1c-1.7,0-3.5,0.3-5.2,0.6
					c-0.8,0.1-2.5,0.6-3.3,0.4c-1.5-0.5-0.7-1.3-0.3-2.1c1.6-3.1,3.8-5.9,5.6-8.9C738.1,35.5,736.3,36.1,736,36.6L736,36.6z"/>
			</g>
			<g>
				<path class="st0" d="M759.4,106.1c-10.6-4.6-20.6-13-27.1-22.5c-0.3-0.4-1.9,0.2-2,0.1c6.5,9.4,16.6,17.9,27.2,22.6
					C758,106.4,759.1,106,759.4,106.1L759.4,106.1z"/>
			</g>
			<g>
				<path class="st0" d="M729.9,83.4c1.2,2.8,1.8,5.8,2.8,8.6c0.2,0.5,1.1,1,1.6,0.6c2.1-1.9,3.8-4.5,6.5-5.5c1-0.3,0-1.5-0.6-1.5
					c-3.1-0.5-6.4-0.7-9.3-2.1c-1.1-0.5-1.9,0.7-0.8,1.2c3.2,1.6,6.7,1.9,10.2,2.5c-0.2-0.5-0.4-1-0.6-1.5c-2.9,1-4.6,3.7-6.8,5.7
					c0.5,0.2,1.1,0.4,1.6,0.6c-1-2.9-1.6-5.8-2.8-8.6C731.2,82.5,729.4,82.3,729.9,83.4L729.9,83.4z"/>
			</g>
			<g>
				<path class="st0" d="M661,111.3c10.6-7.2,19.3-16.7,29.2-24.8c0.7-0.6-0.4-2.2-1.1-1.7c-9.9,8.1-18.6,17.6-29.2,24.8
					C659.2,110.1,660.3,111.8,661,111.3L661,111.3z"/>
			</g>
			<g>
				<path class="st0" d="M690.1,84.5c-4,0.6-10.2,0.9-13.1,4.1c-0.2,0.2,0,0.4,0.2,0.4c3.3,0.5,6.3,2.9,9,4.7
					c0.3,0.2,1.8,0.2,1.9-0.3c0.6-2.9,2-5.5,3.6-8.1c0.2-0.4-1.6-0.4-1.9,0.1c-1.5,2.6-2.9,5.2-3.6,8.1c0.6-0.1,1.3-0.2,1.9-0.3
					c-1.5-1-3-2-4.6-2.9c-0.5-0.3-4.4-1.7-4.4-1.9c-0.3-1.5,9.9-3,11.2-3.2C691.4,85.1,691.3,84.4,690.1,84.5L690.1,84.5z"/>
			</g>
			<g>
				<path class="st0" d="M703.8,49c1.1,0-0.5-1.1-1.1-1.1C701.7,47.9,703.2,49,703.8,49L703.8,49z"/>
			</g>
			<g>
				<path class="st0" d="M702.2,48.5c-5.2,1.8-10.4,4.2-12.8,9.4c-2.5,5.4-2.2,12.5,0.4,17.8c4.2,8.7,14.6,13.2,23.9,10.5
					c11.7-3.3,20.4-16.1,13.6-27.4c-6.5-10.8-19.4-13.6-30.4-8.9c-0.4,0.2,1.3,0.6,1.7,0.4c5.4-2.3,11-3.2,16.6-0.6
					c2.3,1.1,4.4,2.5,6.3,4.2c3.3,3.1,5.8,7.1,6.3,11.6c1,9.2-6.6,17.3-15.1,20c-12.3,3.9-22.6-7.1-22.9-18.4
					c-0.3-9.9,5.2-15.3,14.2-18.4C704.3,48.8,702.6,48.3,702.2,48.5L702.2,48.5z"/>
			</g>
			<g>
				<path class="st0" d="M700.4,56.3c2.3,7.2,4.2,15,4.1,22.7c0,0.6,1.8-0.2,1.8-0.7c0.1-7.7-1.8-15.6-4.1-22.9
					C702,54.8,700.2,55.7,700.4,56.3L700.4,56.3z"/>
			</g>
			<g>
				<path class="st0" d="M701.7,57.7c2.9-0.4,5.8-1.2,8.7-0.8c3.4,0.4,6.1,4.4,2.9,7c-3.7,3.1-10,1-14.3,2.3
					c-1.2,0.4-0.8,1.6,0.3,1.2c4.9-1.5,14.4,1.2,16.9-4.9c1.2-2.9-0.5-5.8-3.4-6.7c-3.5-1.1-7.5-0.1-11,0.4
					C700.8,56.5,700.3,57.9,701.7,57.7L701.7,57.7z"/>
			</g>
			<g>
				<path class="st0" d="M699,72.7c3.7,0.2,7.3-1.2,11-1.3c1.1,0,0.5-1.9-0.5-1.9c-3.5,0.1-7,1.5-10.6,1.3
					C697.7,70.7,698,72.6,699,72.7L699,72.7z"/>
			</g>
		</g>
		<g>
			<g>
				<path class="st0" d="M235.1,357.5c0.1,5.1,0.9,10.1,1.1,15.2c0.1,5.3-0.5,10.5-0.5,15.8c-0.1,10.2,1.9,20.3,1.9,30.5
					c0,0.8,2,1.1,1.9,0.1c-0.1-10.2-2.1-20.3-1.9-30.5c0.1-5,0.6-9.9,0.6-14.8c-0.1-5.4-1-10.7-1.1-16.1
					C237,356.8,235,356.5,235.1,357.5L235.1,357.5z"/>
			</g>
			<g>
				<path class="st0" d="M222.1,407.4c11.6-0.1,23-1.7,34.5-2.8c6-0.6,12-1,18.1-0.9s11.9,1.1,17.9,1.7c11.2,1.1,22.4,0.3,33.6,0.3
					c12,0,24.1,0.3,36.1,0.3c1.2,0,1.4-1.6,0.1-1.6c-0.1,0-0.2,0-0.3,0c-1.2,0-1.4,1.6-0.1,1.6c0.1,0,0.2,0,0.3,0
					c1.2,0,1.4-1.6,0.1-1.6c-11.7,0-23.4-0.3-35.2-0.3c-12.6,0-25.3,1-37.8-0.7c-22.7-3-44.7,2.2-67.3,2.4
					C221,405.8,220.8,407.4,222.1,407.4L222.1,407.4z"/>
			</g>
			<g>
				<path class="st0" d="M258.5,400.8c-0.5,2.7-0.3,5.3,0,8c0.1,0.7,2,0.8,2,0.3c-0.3-2.7-0.5-5.3,0-8
					C260.6,400.5,258.7,400.2,258.5,400.8L258.5,400.8z"/>
			</g>
			<g>
				<path class="st0" d="M282.1,401.9c0,2.6,0.6,5.1,0.6,7.7c0,0.4,1.9,0,1.9-0.6c0-2.6-0.6-5.1-0.6-7.7
					C283.9,400.9,282,401.3,282.1,401.9L282.1,401.9z"/>
			</g>
			<g>
				<path class="st0" d="M306.4,402c0.3,2.2,0.8,4.3,0.6,6.5c-0.1,1,1.9,1.2,2,0.3c0.2-2.3-0.3-4.6-0.6-6.9
					C308.3,401,306.3,401,306.4,402L306.4,402z"/>
			</g>
			<g>
				<path class="st0" d="M326.5,400.9c0.3,2.5,0.9,4.9,0.9,7.3c0,0.9,2,1.1,2,0.1c0-2.5-0.6-4.9-0.9-7.3
					C328.3,400.1,326.4,399.9,326.5,400.9L326.5,400.9z"/>
			</g>
			<g>
				<path class="st0" d="M351.8,401c0,2.4-0.3,5,0.6,7.3c0.1,0.3,2-0.2,2-0.2c-1-2.3-0.6-4.9-0.6-7.3
					C353.8,400.7,351.8,400.8,351.8,401L351.8,401z"/>
			</g>
			<g>
				<path class="st0" d="M232.9,381.7c3,1,6.1,1.4,9.3,0.6c-0.2,0.1-1.3-0.8-1.8-0.7c-2.4,0.6-5,0.7-7.4-0.1
					C231.9,381.1,231.8,381.3,232.9,381.7L232.9,381.7z"/>
			</g>
			<g>
				<path class="st0" d="M232.2,363.8c2.7,0.6,5.4,0,8,0c0.5,0,1.4-1.1,1.6-1.1c-2.7,0-5.4,0.6-8,0
					C233.3,362.6,232.2,363.8,232.2,363.8L232.2,363.8z"/>
			</g>
			<g>
				<path class="st0" d="M236.2,405.4c12.2-4.2,23.5-10.3,34.7-16.4c2.9-1.6,5.8-3.1,8.6-4.6c1.9-1,6.1-4.2,8.3-4.1
					c2.1,0.1,4.4,4.6,5.7,6.4c1.8,2.7,3.3,5.5,4.3,8.6c0.2,0.5,0.8,0.9,1.3,0.8c20-4.1,39.8-9.2,59.9-12.3c1-0.2-0.1-1.6-0.8-1.6
					c-5.1,0-10.1,0.3-15.1,0c-1.2-0.1-0.3,1.4,0.3,1.5c5.8,1.5,11.4,0.1,17.1-1.3c-0.4-0.5-0.8-1-1.1-1.5c-5.8,2.6-11.1,6-16.7,9
					c-0.8,0.5,0.6,1.8,1.3,1.4c5.5-3.1,10.9-6.5,16.7-9c0.8-0.4-0.5-1.6-1.1-1.5c-5.4,1.4-10.7,2.8-16.3,1.4c0.1,0.5,0.2,1,0.3,1.5
					c5,0.3,10.1,0,15.1,0c-0.3-0.5-0.5-1-0.8-1.6c-20.2,3.1-40,8.3-59.9,12.3c0.4,0.3,0.9,0.6,1.3,0.8c-2.1-6.3-6.2-12-10.8-16.7
					c-0.3-0.3-0.8-0.6-1.3-0.4c-17.5,8.4-33.9,19.3-52.3,25.6C234.2,404.2,235.4,405.6,236.2,405.4L236.2,405.4z"/>
			</g>
			<g>
				<path class="st0" d="M238.5,405.4c5.4-5.3,10-11.3,14.6-17.2c3.8-4.9,8.3-9.4,11.8-14.5c1.3-1.9,2.4-3.9,3.8-5.7
					c1.2-1.5,3.3-3.1,5.4-1.5c1,0.7,1.5,3,1.9,4.1c1.7,4.9,2.6,10.5,3.2,15.6c0.5,3.6,0.7,7.9,3.3,10.7c2.9,3.1,7.9,2.7,11.8,2.3
					c15.1-1.5,30-2.5,45.2-2.5c1.3,0,1-1.4-0.1-1.5c-2.7-0.2-4.8-1.4-7.2-2.5c-0.2,0.4-0.4,0.8-0.7,1.3c3,1,5.9,2.2,8.7,3.6
					c0-0.4-0.1-0.8-0.1-1.3c-3,0.7-6,1-8.5,2.8c-0.9,0.6,0.7,1.7,1.4,1.2c2.4-1.7,5.4-1.9,8.1-2.6c0.7-0.2,0.4-1-0.1-1.3
					c-3-1.4-6.1-2.7-9.2-3.8c-0.9-0.3-1.7,0.8-0.7,1.3c2.8,1.2,5.2,2.6,8.2,2.8c0-0.5-0.1-1-0.1-1.5c-15.4,0-30.5,1-45.7,2.5
					c-5,0.5-9.9,0.4-11.5-5.3c-0.8-2.8-0.9-5.6-1.4-8.4c-0.9-4.9-1.6-10.1-3.4-14.7c-1-2.4-2.6-5.6-5.7-5.5
					c-3.5,0.1-5.8,4.6-7.4,7.1c-3.5,5.3-8,10-12,15c-5,6.4-9.9,12.9-15.7,18.6C236,405.2,237.8,406,238.5,405.4L238.5,405.4z"/>
			</g>
		</g>
		<g>
			<g>
				<path class="st0" d="M821.6,345.2c5.1,0.2,9.7,3.4,14.4,5c0.6,0.2,1.3-0.4,1.5-0.9c0.7-2.1,0.8-4.4,1.5-6.6
					c0.9-2.8,1.8-5.5,2.2-8.3c0.1-0.4-0.3-0.6-0.7-0.5c-2.5,0.6-5.2-0.5-7.9,0.1c-2,0.5-3.6,1.4-5.2,2.7c-2.3,1.8-6,4.8-5.8,8
					c0,0.8,1.8,0,1.8-0.7c-0.2-2.6,3.5-5.7,5.5-7c2.7-1.8,5-1.9,8.1-1.6c1.1,0.1,2,0.2,3.1-0.1c-0.2-0.2-0.5-0.3-0.7-0.5
					c-0.5,2.9-1.3,5.6-2.2,8.3c-0.7,2.2-0.7,4.5-1.5,6.6c0.5-0.3,1-0.6,1.5-0.9c-4.8-1.6-9.5-4.8-14.8-5
					C821.7,343.7,820.5,345.1,821.6,345.2L821.6,345.2z"/>
			</g>
			<g>
				<path class="st0" d="M840.8,336.4c-1,2.4-1.3,4.9-1.9,7.4c-0.6,2.7-1.5,5.2-1.7,7.9c0,0.5,1.5-0.3,1.6-0.5
					c3.6-3.9,8.3-6.6,12.2-10.2c0.1-0.1,0.3-0.3,0.1-0.4c-2.5-1-7.1-6.8-9.9-3.8c-0.6,0.7,1.2,0,1.5-0.3c-0.7,0.8-0.2,0.6,0.7,1.1
					c0.7,0.4,1.4,0.8,2,1.3c0.6,0.4,3.6,1.9,3.7,2.5c0.2,0.8-5.1,4.2-6.1,4.9c-2,1.6-4,3.2-5.8,5.1c0.5-0.2,1.1-0.3,1.6-0.5
					c0.2-2.7,1-5.3,1.7-7.9c0.6-2.5,1-5,1.9-7.4C842.6,335.5,841,335.9,840.8,336.4L840.8,336.4z"/>
			</g>
			<g>
				<path class="st0" d="M849.5,341.9c3.2,5.2,5.1,11,1.5,16.7c-4.4,7-13.6,8-20.7,4.7c-3-1.4-4.5-4-5.3-7.2c-0.3-1-1.3-7.1-0.1-8
					c1.1-0.8,6.3,1.9,7.4,2.4c1.6,0.6,4.1,0.9,5.4,2c0.6,0.5,2.3-0.4,1.5-1c-1-0.8-2.3-0.9-3.4-1.2c-2.4-0.8-4.9-1.8-7.3-2.7
					c-1.5-0.6-3.6-1.9-5.1-0.3c-1.7,1.9-0.9,7.1-0.4,9.4c0.8,3.4,2.6,6.5,6,7.9c7.5,3.2,14.3,2.9,20.7-2.4c7-5.8,5.8-14.1,1.5-21
					C850.9,340.5,849,341.1,849.5,341.9L849.5,341.9z"/>
			</g>
			<g>
				<path class="st0" d="M837.4,351.9c0.1,2.7,1.4,5.2,2.2,7.7c0.6,1.9,0.9,4.3,2.3,5.8c0.3,0.3,1.9-0.7,1.8-0.8
					c-1.4-1.5-1.7-3.9-2.3-5.8c-0.8-2.6-2.2-5-2.2-7.7C839.2,351.1,837.4,351.5,837.4,351.9L837.4,351.9z"/>
			</g>
			<g>
				<path class="st0" d="M838.4,352.3c2.6,0,4.9,1,7.4,1.5c2.3,0.4,4.7,0.6,6.7,1.7c1.1,0.5,1.7-0.5,0.6-1c-2.2-1.1-4.5-1.5-6.9-1.9
					c-2.9-0.5-5.7-1.6-8.7-1.7C836.4,350.9,837.6,352.3,838.4,352.3L838.4,352.3z"/>
			</g>
		</g>
		<g>
			<g>
				<path class="st0" d="M663.6,404.6c9.9-3.4,20.4-5.2,30-9.3c8.5-3.6,17.2-7.1,25.3-11.6c7.6-4.2,13.7-9.9,20.7-15
					c7.6-5.5,15.6-10.4,22-17.3c0.8-0.8-1-1.2-1.6-0.8c-5,3.5-10.9,5.4-16,8.7c-0.8,0.5,0.2,1.2,0.7,1.2c5.6,0.1,13.6-2.6,16.1-8
					c0.4-0.8-1.2-1-1.7-0.6c-4.9,4.1-10.5,8.6-12.3,14.9c-0.3,1,1.7,1.2,1.9,0.3c1.8-6,7.2-10.4,11.8-14.3c-0.6-0.2-1.1-0.4-1.7-0.6
					c-2.1,4.7-9.4,7-14.2,6.9c0.2,0.4,0.5,0.8,0.7,1.2c5.2-3.3,11-5.1,16-8.7c-0.5-0.3-1.1-0.5-1.6-0.8
					c-6.5,6.9-14.7,11.9-22.4,17.5c-7.5,5.5-14,11.4-22.5,15.7c-7.5,3.8-15.4,7.2-23.2,10.4c-9.5,3.9-19.7,5.7-29.3,9
					C661.3,403.8,662.7,404.9,663.6,404.6L663.6,404.6z"/>
			</g>
			<g>
				<path class="st0" d="M669.6,409.3c11.7-1.3,22.7-5.5,33.8-9.1c11.8-3.8,23.4-8.2,35-12.7c21.1-8.1,40.6-18.1,58.4-32.1
					c0.6-0.5-0.7-1.9-1.3-1.5c-4.8,3.3-10.2,5.7-15.9,7.1c0.3,0.5,0.7,1.1,1,1.6c5.5-1.7,10.8-2.6,15.3-6.3c0.6-0.5-0.7-2-1.3-1.5
					c-4,2.9-8,6.3-10.1,10.9c-0.3,0.6,1.1,2,1.5,1.3c2.1-4.4,6-7.8,9.9-10.6c-0.4-0.5-0.9-1-1.3-1.5c-4.4,3.7-9.6,4.6-15,6.2
					c-0.8,0.2,0.3,1.8,1,1.6c5.8-1.4,11.2-3.8,16.2-7.2c-0.4-0.5-0.9-1-1.3-1.5c-18.2,14.3-38.3,24.3-59.9,32.6
					c-11,4.2-22,8.4-33.2,12c-11.1,3.6-22.1,7.7-33.8,9.1C667.8,407.7,668.9,409.4,669.6,409.3L669.6,409.3z"/>
			</g>
			<g>
				<path class="st0" d="M675.1,412.1c0.5,3,0.4,6.1,0.6,9.1c0,0.3,0.3,0.6,0.7,0.6c5,0.9,10.1-0.1,15-0.9c0.3,0,0.6-0.3,0.5-0.6
					c-0.4-2.4-1.1-4.6-1.2-7c0-0.4-0.5-0.7-0.9-0.7c-5.1-0.3-10.3,0-15.3,0.9c-1.3,0.2,0.1,1.2,0.9,1.1c4.7-0.9,9.5-1.1,14.3-0.9
					c-0.3-0.2-0.6-0.5-0.9-0.7c0.1,2.5,0.8,4.9,1.2,7.3c0.2-0.2,0.4-0.4,0.5-0.6c-4.3,0.7-9,1.8-13.4,0.9c0.2,0.2,0.4,0.4,0.7,0.6
					c-0.2-3.1-0.1-6.3-0.6-9.4C676.9,411.3,674.9,411.2,675.1,412.1L675.1,412.1z"/>
			</g>
			<g>
				<path class="st0" d="M696.9,404.8c-0.1,5.5-1.7,11.7,0.3,17c0.2,0.5,1.2,1,1.7,0.9c4.7-1.4,9.5-1.7,14.4-1.8
					c0.2,0,0.2-0.1,0.1-0.3c-2.9-4.9-2.4-11.2-2.4-16.6c0-0.5-1.3-0.9-1.7-0.9c-4.3,0.9-9.2,0.2-13,2.7c-0.3,0.2,1.2,1.3,1.6,1
					c3.8-2.5,8.7-1.8,13-2.7c-0.6-0.3-1.1-0.6-1.7-0.9c0,4.8-0.3,10.1,1.4,14.7c0.5,1.3,0.9,1-0.1,1.9c-0.6,0.5-3.8,0.1-4.7,0.2
					c-2.9,0.2-5.8,0.7-8.6,1.6c0.6,0.3,1.1,0.6,1.7,0.9c-2-5.4-0.4-11.4-0.3-17C698.7,405.1,696.9,404.4,696.9,404.8L696.9,404.8z"
					/>
			</g>
			<g>
				<path class="st0" d="M720.1,396.5c-0.1,7.5-3.6,17.8,1.1,24.6c0.3,0.4,1,0.5,1.4,0.3c4.9-2,10.4-1.7,15.6-1.1
					c0.5,0.1,1.2-0.1,1.2-0.8c-1.1-7.8-0.9-15.6-0.3-23.4c0-0.7-0.7-1.1-1.3-1c-5,1.4-11.4,3-16.5,1c-1.1-0.4-2.1,0.9-0.8,1.3
					c5.6,2.2,12.4,0.7,18-0.8c-0.4-0.3-0.9-0.6-1.3-1c-0.6,7.9-0.9,15.9,0.3,23.8c0.4-0.3,0.8-0.5,1.2-0.8
					c-3.6-0.4-7.3-0.7-10.9-0.3c-3.8,0.4-5.6,2.4-6.4-2.4c-1.1-6.4,0.7-13.1,0.9-19.6C722.1,395.5,720.2,395.4,720.1,396.5
					L720.1,396.5z"/>
			</g>
			<g>
				<path class="st0" d="M745,389.5c-1.6,10.5,0.2,20.9,0.9,31.3c0,0.5,1.2,1.1,1.6,1c4.8-1.1,9.6,0.1,14.4-0.6c0.1,0,0.2,0,0.2-0.2
					c-1.3-11-2.3-22.2,0.6-33c0.2-0.6-1.2-1.2-1.6-1.1C756.9,387.9,748.1,385.7,745,389.5c-0.3,0.2,1.4,1.4,1.7,0.9
					c2.9-3.6,11.7-1.4,15.9-2.3c-0.5-0.4-1.1-0.7-1.6-1.1c-2.1,7.7-2.2,15.6-1.6,23.4c0.2,2.1,0.8,4.5,0.6,6.6
					c-0.2,2.3,0,2.7-2.5,3.3c-3.7,0.8-7.7-0.6-11.5,0.4c0.5,0.3,1.1,0.7,1.6,1c-0.7-10.5-2.5-20.9-0.9-31.3
					C746.9,389.9,745.1,389,745,389.5L745,389.5z"/>
			</g>
			<g>
				<path class="st0" d="M768.5,379.5c-2.6,5.8-0.9,12.6-0.2,18.6c0.8,7.6-1,15.2,0.2,22.8c0.1,0.6,0.6,1,1.3,0.9
					c5-0.9,10-1.9,15.2-1.2c0.5,0.1,1-0.4,1-0.8c0.1-7.1-0.3-14.2-0.4-21.3c-0.1-3.4-0.1-6.9,0.1-10.3c0.2-2.2,1-4.7,0.6-6.9
					c-0.3-1.9-1-2.8-2.7-3.3c-1.4-0.4-3.9,0.2-5.4,0.4c-3.2,0.3-6.2,1.1-9.2,2c-1.2,0.4-0.6,2.1,0.6,1.7c3-1,6-1.7,9.1-2
					c1.5-0.1,4.2-0.7,5.3,0.3c1.3,1.2-0.1,5-0.2,6.6c-0.3,3.1-0.3,6.3-0.2,9.5c0.1,6.3,1.3,13.2,0.5,19.5c-0.2,1.9,0.2,2-1.6,2.6
					c-1.1,0.4-3,0-4.3,0.1c-3,0.3-5.9,0.8-8.8,1.4c0.4,0.3,0.8,0.6,1.3,0.9c-1.2-7.2,0.5-14.4-0.1-21.7c-0.5-6.3-2.6-13.3,0.1-19.3
					C770.9,379,769,378.5,768.5,379.5L768.5,379.5z"/>
			</g>
			<g>
				<path class="st0" d="M793.1,370.4c0,9,0.7,18,0.6,27c-0.1,7.3-0.7,14.8,1.8,21.8c0.2,0.6,0.9,1.1,1.5,1
					c4.4-1.1,8.7-1.6,13.3-0.9c0.3,0.1,0.5-0.1,0.5-0.4c-1.6-16.5,1.9-32.9,0.9-49.4c0-0.6-0.8-1.2-1.4-1.1
					c-5.1,0.5-10.4-0.3-15.3,1.5c-0.6,0.2,0.8,1.6,1.4,1.3c4.7-1.8,10-1,15-1.5c-0.5-0.4-0.9-0.8-1.4-1.1c0.7,11.4-0.8,22.6-1.2,34
					c-0.1,2.8-0.2,5.5-0.1,8.3c0,1.6,1,5.1-0.2,6.2c-1,1-4.3,0.4-5.9,0.5c-2.4,0.2-4.7,0.7-7,1.3c0.5,0.3,1,0.6,1.5,1
					c-2.7-7.5-1.7-15.4-1.8-23.1c0-8.5-0.6-16.9-0.6-25.4C794.9,370.6,793.1,369.7,793.1,370.4L793.1,370.4z"/>
			</g>
		</g>
		<g>
			<g>
				<path class="st0" d="M526.8,36.4c0,11.9-0.4,23.7-0.4,35.6c0,5.3,0.3,10.5-0.2,15.7c-0.5,5.1-0.1,9.9-0.1,15c0,1,2,0.7,2-0.1
					c0-4.8-0.5-9.3,0-14.2c0.5-5.5,0.2-11,0.2-16.5c0-11.9,0.4-23.7,0.4-35.6C528.8,35.3,526.8,35.5,526.8,36.4L526.8,36.4z"/>
			</g>
			<g>
				<path class="st0" d="M513.3,68.7c22.8-0.6,45.6-2.7,68.4-2.6c22.6,0.1,45.2,0.8,67.7,0.8c0.2,0-0.6-1.5-1.2-1.5
					c-22.6,0-45.2-0.7-67.7-0.8c-22.8-0.1-45.6,2-68.4,2.6C511.9,67.2,512.8,68.7,513.3,68.7L513.3,68.7z"/>
			</g>
			<g>
				<path class="st0" d="M526.5,68.7c0.1,1.5,0.4,2.7,1,4.1c0.2,0.6,1.3,0.3,1.7,0c1-0.9,1.5-1,2.5-1.8c-0.6-0.1-1.2-0.1-1.8-0.2
					c0.4,1,1,2.8,1.2,3.6c0.2,0.9,1.7,0.5,2-0.1c0.5-1.1,1.1-2.2,1.5-3.3c-0.7,0-1.3,0.1-2,0.1c1.2,3.6,3.2,6.8,4,10.6
					c0.2,0.8,1.8,0.6,2-0.1c0.3-1.7,0.7-3.2,1.2-4.9c-0.7,0-1.3,0.1-2,0.1c0.6,3.6,0.7,7.3,1.2,10.9c0.1,0.8,1.6,0.6,1.9,0
					c0.7-1.2,1.4-2.2,1.9-3.5c-0.6,0.1-1.3,0.2-1.9,0.3c0.6,1.4,1.1,2.9,1.5,4.4c0.2,0.8,1.5,0.5,1.9,0c0.3-0.4,0.6-0.8,0.9-1.2
					c-0.6,0-1.3,0-1.9,0c0.2,1.1,0.5,2.2,0.6,3.3c0.1,0.9,1.8,0.5,2-0.1c1-3.5,0.8-7.1,1.8-10.6c-0.7,0-1.3,0.1-2,0.1
					c0.4,1.2,0.8,2.3,1.3,3.5c0.3,0.8,1.7,0.2,1.9-0.3c0.4-1,0.7-2,1-3c0.2-0.6,0.3-1.3,0.6-1.9c0.8-1.4,0-1.5,0.7,0.4
					c0.3,0.9,2,0.6,2-0.3c0-1.1,0-2.2,0-3.3c-0.5,0.2-1.1,0.5-1.6,0.7c0.2,0.1,0.4,0.2,0.6,0.3c0.5,0.3,1.4,0,1.6-0.6
					c0.7-2.6,0.9-5.3,1.8-7.9c-0.7,0-1.3,0.1-2,0.1c0.1,1.1,0.2,2.2,0.3,3.3c0.1,0.9,1.8,0.5,2-0.1c1.2-3.7,2.2-7.5,3.4-11.2
					c-0.6,0.1-1.3,0.2-1.9,0.3c0.5,1,1.1,2,1.5,3c0.3,0.6,1.5,0.3,1.8-0.1c1.2-1.8,2.6-3.5,4.2-5c-0.6-0.1-1.2-0.1-1.8-0.2
					c0.3,0.5,0.4,1,0.3,1.5c0,0.6,1,0.6,1.4,0.4c1.2-0.5,4-2.3,4.9-1.2c0.4,0.5,1.5,0.4,1.8-0.1c2.2-3.6,3.7-7.5,5.5-11.2
					c-0.6,0-1.2,0.1-1.8,0.1c1,1.4,1.7,2.7,2.5,4.3c0.3,0.6,1.4,0.4,1.7,0c2.8-3.2,1.5-8.1,4.6-10.9c-0.6-0.1-1.2-0.1-1.8-0.2
					c0.2,1.4,0.1,1.1,0.7,2.3c0.3,0.6,1.5,0.4,1.8-0.1c0.4-0.6,0.7-1.2,0.9-1.8c-0.6,0.1-1.1,0.2-1.7,0.3c0.3,0.2,0.6,0.4,0.9,0.6
					c0.5,0.3,1.6,0.3,1.8-0.4c0.4-1.4,0.8-2.8,1.2-4.3c-0.7,0-1.3,0.1-2,0.1c0.4,0.9,0.6,1.8,0.6,2.7c0.1,0.8,1.9,0.6,2-0.1
					c0.7-5.9,1.9-11.7,3.7-17.3c-0.7,0-1.3,0-2,0c-0.2,4.8,0.7,9.5,0.3,14.3c-0.1,1,1.5,0.8,1.9,0.2c0.7-1.1,1.5-2.2,2.2-3.3
					c-0.6,0-1.3,0-1.9,0c0.3,0.9,1.1,2.9,1.2,3.6c0.2,0.8,1.6,0.6,1.9,0c2.9-4.6,3.9-9.9,5-15.1c-0.7,0-1.3,0.1-2,0.1
					c0.6,3.9,1.3,7.7,2.2,11.6c0.2,0.8,1.6,0.6,1.9,0c1-1.8,1.7-3.4,2.2-5.3c-0.6,0.1-1.3,0.2-1.9,0.3c1.8,2.6,2.1,5.7,3.4,8.5
					c0.3,0.6,1.8,0.4,1.9-0.3c0.7-1.1,1.4-2.1,2.1-3.2c-0.5-0.1-1.1-0.2-1.6-0.3c0.6,1.7,1,3.1,1.2,4.9c0.1,0.9,1.6,0.5,1.9,0
					c0.3-0.4,0.6-0.8,0.9-1.2c-0.6,0-1.3,0-1.9,0c0.7,2.6,0.3,5.2,1.9,7.5c0.4,0.5,1.5,0.5,1.8-0.1s1.1-1.7,1.5-2.4
					c-0.6,0-1.3,0-1.9,0c0.4,2.1,1.1,4.1,1.8,6.1c0.3,0.8,1.5,0.6,1.9,0c0.5-0.6,0.9-1.1,1.4-1.7c-0.6-0.1-1.2-0.1-1.8-0.2
					c0.2,1.6,0.3,3.2,0.3,4.9c0,0.7,1.4,0.6,1.8,0.2c1-1.2,2-2.2,2.9-3.5c-0.6,0-1.2,0.1-1.8,0.1c1.4,2.4,2.3,4.7,2.7,7.4
					c0.1,0.8,1.5,0.5,1.9,0c1.3-1.8,2-3.4,2.5-5.6c-0.7,0-1.3,0.1-2,0.1c1.9,6.1,7.5,10.3,8.9,16.4c0.2,0.9,2.2,0.5,2-0.3
					c-1.5-6.2-7-10.3-8.9-16.4c-0.2-0.8-1.8-0.6-2,0.1c-0.4,2-1.2,3.6-2.4,5.3c0.6,0,1.3,0,1.9,0c-0.5-2.9-1.4-5.2-2.8-7.8
					c-0.4-0.6-1.5-0.4-1.8,0.1c-0.8,1.1-1.7,2.2-2.6,3.2c0.6,0.1,1.2,0.1,1.8,0.2c0-1.7-0.1-3.2-0.3-4.9c-0.1-0.7-1.4-0.6-1.8-0.2
					c-0.8,0.9-0.9,1-1.7,2c0.6,0,1.3,0,1.9,0c-0.7-2-1.4-4-1.8-6.1c-0.2-0.8-1.6-0.6-1.9,0c-1,1.6-0.8,1-1.5,2.4
					c0.6,0,1.2-0.1,1.8-0.1c-1.5-2.1-1.2-4.7-1.8-7.1c-0.2-0.8-1.5-0.5-1.9,0c-0.3,0.4-0.6,0.8-0.9,1.2c0.6,0,1.3,0,1.9,0
					c-0.2-1.8-0.6-3.2-1.2-4.9c-0.2-0.6-1.1-0.7-1.6-0.3c-1.7,1.2-2.6,2-2.9,4.1c0.6-0.1,1.3-0.2,1.9-0.3c-1.3-2.9-1.5-5.9-3.4-8.5
					c-0.4-0.6-1.7-0.4-1.9,0.3c-0.4,1.8-1.2,3.4-2.1,5c0.6,0,1.3,0,1.9,0c-0.9-3.8-1.5-7.7-2.2-11.6c-0.1-0.8-1.8-0.6-2,0.1
					c-1,5.1-2,10.3-4.9,14.7c0.6,0,1.3,0,1.9,0c-0.4-2.3-0.2-0.7-1.2-3.6c-0.3-0.7-1.5-0.6-1.9,0c-0.7,1.1-1.5,2.2-2.2,3.3
					c0.6,0.1,1.3,0.1,1.9,0.2c0.4-4.8-0.5-9.5-0.3-14.3c0-1-1.7-0.8-2,0c-1.8,5.7-3,11.4-3.7,17.3c0.7,0,1.3-0.1,2-0.1
					c-0.1-0.9-0.3-1.9-0.6-2.7s-1.7-0.6-2,0.1c-0.4,1.4-0.9,2.8-1.2,4.3c0.6-0.1,1.2-0.3,1.8-0.4c-0.3-0.2-0.6-0.4-0.9-0.6
					c-0.4-0.3-1.4-0.3-1.7,0.3c-0.2,0.6-0.6,1.2-0.9,1.8c0.6,0,1.2-0.1,1.8-0.1c-0.2-0.7-0.4-1.3-0.6-2c-0.1-0.7-1.4-0.6-1.8-0.2
					c-3.3,3-1.8,7.7-4.6,10.9c0.6,0,1.1,0,1.7,0c-0.7-1.5-1.5-2.9-2.5-4.3c-0.4-0.5-1.5-0.5-1.8,0.1c-1.8,3.8-3.4,7.7-5.5,11.2
					c0.6,0,1.2-0.1,1.8-0.1c-0.3-0.4-0.6-0.8-0.9-1.2c-0.3-0.4-0.9-0.4-1.3-0.3c-1.7,0.8-3.5,1.4-5.2,2.1c0.5,0.1,0.9,0.3,1.4,0.4
					c0-0.5-0.1-1-0.3-1.5c-0.2-0.7-1.3-0.6-1.8-0.2c-1.8,1.6-3.1,3.4-4.4,5.3c0.6,0,1.2-0.1,1.8-0.1c-0.5-1-1.1-2-1.5-3
					c-0.3-0.7-1.7-0.3-1.9,0.3c-1.2,3.7-2.2,7.5-3.4,11.2c0.7,0,1.3-0.1,2-0.1c-0.1-1.1-0.2-2.2-0.3-3.3c-0.1-0.9-1.7-0.5-2,0.1
					c-1,2.6-1.1,5.3-1.8,7.9c0.5-0.2,1.1-0.4,1.6-0.6c-0.2-0.1-0.4-0.2-0.6-0.3c-0.6-0.3-1.6,0-1.6,0.7c0,1.1,0,2.2,0,3.3
					c0.7-0.1,1.3-0.2,2-0.3c-2.5-7.3-5.2,2.3-6.3,4.7c0.6-0.1,1.3-0.2,1.9-0.3c-0.4-1-0.8-2.1-1.2-3.2c-0.3-0.8-1.7-0.6-2,0.1
					c-1,3.5-0.8,7.1-1.8,10.6c0.7,0,1.3-0.1,2-0.1c-0.2-1.1-0.5-2.2-0.6-3.3c-0.1-0.9-1.5-0.5-1.9,0c-0.3,0.4-0.6,0.8-0.9,1.2
					c0.6,0,1.3,0,1.9,0c-0.4-1.6-1-3.2-1.6-4.7c-0.3-0.8-1.7-0.2-1.9,0.3c-0.5,1.1-1.1,2.1-1.8,3.2c0.6,0,1.3,0,1.9,0
					c-0.6-3.6-0.6-7.3-1.2-10.9c-0.2-0.9-1.7-0.5-2,0.1c-0.6,1.6-0.9,3.2-1.2,4.9c0.7,0,1.3-0.1,2-0.1c-0.8-3.8-2.8-7-4-10.6
					c-0.3-0.9-1.7-0.6-2,0.1c-0.5,1.1-1.1,2.2-1.5,3.3c0.7,0,1.3-0.1,2-0.1c-0.4-1.8-0.4-1.3-1.2-3.6c-0.2-0.7-1.3-0.6-1.8-0.2
					c-0.6,0.5-1.8,1.2-2.5,1.8c0.6,0,1.1,0,1.7,0c-0.6-1.2-0.8-2.5-0.9-3.8C528.4,67.5,526.5,67.8,526.5,68.7L526.5,68.7z"/>
			</g>
		</g>
		<g>
			<g>
				<path class="st0" d="M237.9,59.8c-7.2-1.5-16.8,3.2-18.1,10.9c-1.5,8.9,8.1,16.3,16.5,15c13.7-2.1,15-22.3,1.1-25.3
					c-0.6-0.1-2.1,1.2-1.2,1.3c9.3,2,13.5,15.8,4.5,21.3c-6.3,3.8-14.6,0-17.9-5.9c-4.9-9,4.5-17.9,13.8-15.9
					C237.4,61.3,238.8,60,237.9,59.8L237.9,59.8z"/>
			</g>
			<g>
				<path class="st0" d="M231.1,52.4c-10.6,1.7-19.7,6.6-21,18.2c-1.1,10.6,7.8,19.9,17.7,22.2c8.5,2,17.2-0.2,23.3-6.5
					c6.4-6.6,8.5-19.1,1.8-26.2c-7.5-8-20.6-9.6-30.4-5.5c-0.4,0.2,1.3,0.5,1.7,0.3c12-5,30.5,1,30.7,15.6
					c0.1,9.7-5.7,18.5-15.2,21.5c-12.2,3.9-26.4-5.4-27.6-18c-0.5-4.9,1.3-10.5,4.5-14.3c3.8-4.5,9.8-6,15.4-6.8
					C233.3,52.7,231.6,52.3,231.1,52.4L231.1,52.4z"/>
			</g>
			<g>
				<path class="st0" d="M222.4,56.2c1.2,1.7,2.5,3.4,3.6,5.1c0.1,0.2,0.6,1,0.9,1c0.3,0,0.2-0.2,0-0.4c-1.2-1.9-2.6-3.7-3.9-5.5
					c-0.1-0.2-0.6-0.9-0.9-0.9C221.9,55.6,222.4,56.2,222.4,56.2L222.4,56.2z"/>
			</g>
			<g>
				<path class="st0" d="M245.1,63.1c1.9-1.5,3.8-3,5.8-4.3c1.2-0.7-0.1-0.5-0.7-0.2c-2.3,1.4-4.5,3.1-6.6,4.8
					c-0.3,0.3-0.1,0.3,0.2,0.3C244.2,63.8,244.8,63.4,245.1,63.1L245.1,63.1z"/>
			</g>
			<g>
				<path class="st0" d="M246,70.3c3.2-0.5,7.2-1.4,10.5-0.8c0.4,0.1,2-0.8,1.5-0.9c-3.4-0.6-7.4,0.4-10.8,0.8
					C246.8,69.5,245.1,70.5,246,70.3L246,70.3z"/>
			</g>
			<g>
				<path class="st0" d="M243.3,82.9c1.9,1.1,3.4,2.8,5.1,4.2c0.3,0.2,0.8,0.4,1,0s-0.4-0.9-0.6-1.1c-1.8-1.5-3.5-3.2-5.5-4.4
					c-0.3-0.2-0.7-0.1-0.8,0.3S243,82.7,243.3,82.9L243.3,82.9z"/>
			</g>
			<g>
				<path class="st0" d="M230,83.6c-0.9,2.4-1.2,4.9-2.2,7.2c-0.2,0.5,1.3,1.5,1.4,1.4c1.1-2.3,1.3-4.8,2.2-7.2
					C231.6,84.5,230,83.5,230,83.6L230,83.6z"/>
			</g>
			<g>
				<path class="st0" d="M226.3,84c-1.3,2-2.8,4-3.8,6.2c-0.5,1.1,1.3,1.9,1.8,0.9c1-2.2,2.4-4.1,3.8-6.2
					C228.7,84,226.9,83.1,226.3,84L226.3,84z"/>
			</g>
			<g>
				<path class="st0" d="M223.3,81.8c-2.1,1.3-4,3-6,4.5c-0.6,0.5,1,1.6,1.5,1.2c2-1.5,3.9-3.2,6-4.5
					C225.5,82.6,223.9,81.5,223.3,81.8L223.3,81.8z"/>
			</g>
			<g>
				<path class="st0" d="M218.6,89.3c0.1-0.2,0.3-0.4,0.4-0.6c0.5-0.7-0.7-0.3-0.9-0.2c-4.4,3-8.6,6.1-13,9c-1,0.6-0.6,1.3,0.4,0.6
					c4.4-2.9,8.7-6,13-9c-0.3-0.1-0.6-0.1-0.9-0.2c-0.1,0.2-0.3,0.4-0.4,0.6C216.5,90.4,218.3,89.7,218.6,89.3L218.6,89.3z"/>
			</g>
			<g>
				<path class="st0" d="M181.4,97.8c7.8-0.1,15.5-1.1,23.2,0c0.5,0.1,2-1,1.4-1.1c-7.7-1.1-15.5-0.1-23.2,0
					C182.2,96.7,180.8,97.8,181.4,97.8L181.4,97.8z"/>
			</g>
			<g>
				<path class="st0" d="M212.1,62.5c-3.4-3.7-8.1-5.9-12.5-8.3c0.2,0.1,0.6,1.3,1.1,1.5c4,2.2,8.7,4.3,11.8,7.7
					C213.4,64.3,212.3,62.7,212.1,62.5L212.1,62.5z"/>
			</g>
			<g>
				<path class="st0" d="M199.9,54.6c-7.2,0.3-14.5-0.2-21.7,0.2c-0.9,0-1.8,1-0.4,0.9c7.2-0.4,14.5,0.1,21.7-0.2
					C200.4,55.5,201.3,54.6,199.9,54.6L199.9,54.6z"/>
			</g>
			<g>
				<path class="st0" d="M206.9,36c4-0.2,8.2-0.2,12.1,0.6c1.3,0.2,1.5-1.5,0.3-1.7c-4.1-0.8-8.5-0.9-12.6-0.6
					C205.4,34.3,205.8,36.1,206.9,36L206.9,36z"/>
			</g>
			<g>
				<path class="st0" d="M219.6,36.7c0.5,3,1.4,5.9,2.2,8.8c0.8,2.8,1.5,5.8,3.4,8.1c0.4,0.6,2.2-0.4,1.8-0.8
					c-1.7-2.1-2.4-4.7-3.1-7.2c-0.9-3.1-1.9-6.3-2.4-9.5C221.3,35.4,219.5,36.1,219.6,36.7L219.6,36.7z"/>
			</g>
		</g>
		<g>
			<g>
				<path class="st0" d="M1029.3,134.2c-3-10.5-22.4-1.8-16.5,8.2c2,3.4,6.4,5.5,10.4,4.7c1.9-0.4,3.5-1.4,4.6-2.9
					c2.3-3.2,1.2-6.4,1.3-9.9c0-0.9-1.9-0.6-1.9,0.2c-0.2,3.8,1.4,9.9-3.8,11.3c-2.9,0.8-6.3-1-8.1-3.2c-2.2-2.8-2-6.7,0.5-9.3
					c3.1-3.4,10.2-3.8,11.7,1.3C1027.6,135.6,1029.5,135,1029.3,134.2L1029.3,134.2z"/>
			</g>
			<g>
				<path class="st0" d="M1006.8,129.4c2.5,2,4.9,3.7,7,6.1c1.1,1.3,2.2,2.8,3.5,3.8c1.5,1.3,2.3,1.5,3.9,0.2
					c2.9-2.3,4.8-6.5,6.7-9.6c3.1-5.1,6.8-10,10.8-14.4c0.8-0.9-1-1.6-1.7-0.9c-5.7,6.2-9.8,13.3-14.5,20.2
					c-0.6,0.8-1.8,3.4-2.9,3.6c-1.1,0.3-2.1-1.4-3-2.5c-2.6-3-5.2-5.1-8.4-7.6C1007.5,127.8,1005.8,128.7,1006.8,129.4L1006.8,129.4
					z"/>
			</g>
		</g>
		<g>
			<g>
				<path class="st0" d="M145.2,93.2c0-1.7,0-3.4,0-5.1c0-0.6-0.8-0.7-1.2-0.5c-7.1,2.4-14.7,0.9-22.1,1.3c-0.8,0-1.8,1.1-0.7,1.5
					c6.7,2.6,13.3,6,19.2,10.1c0.1-0.4,0.1-0.8,0.2-1.2c-6.7,4.2-13.6,7.7-19.6,12.8c-0.5,0.4-0.2,1.2,0.5,1.2
					c7.4-0.1,14.7-0.8,22-1.1c0.5,0,1.2-0.3,1.2-0.9c-0.1-1.5,0.1-2.6,0.3-3.9c0.1-1-1.8-0.6-1.9,0.3c-0.3,2.5-0.4,1.9-0.3,3.9
					c0.4-0.3,0.8-0.6,1.2-0.9c-7.3,0.3-14.7,1.1-22,1.1c0.2,0.4,0.3,0.8,0.5,1.2c5.9-5,12.7-8.4,19.2-12.5c0.5-0.3,0.7-0.9,0.2-1.2
					c-6.1-4.2-12.7-7.6-19.6-10.2c-0.2,0.5-0.5,1-0.7,1.5c7.7-0.4,15.6,1,23.1-1.5c-0.4-0.2-0.8-0.4-1.2-0.5c0,1.7,0,3.4,0,5.1
					C143.3,94.5,145.2,94.1,145.2,93.2L145.2,93.2z"/>
			</g>
		</g>
		<g>
			<g>
				<path class="st0" d="M873.8,109.7c2.3-1.1,4.7-4.4,7.3-3.6c3,0.9,6.2,4.4,8.7,6.1c0.1,0,0.2,0.1,0.2,0c2-6.1,3.4-12.3,7.1-17.7
					c-0.3-0.4-0.6-0.8-1-1.1c3.2,8.6,8.4,16.7,8.3,26.1c0,0.4,1,1.7,1,1.5c1.6-8.1,3.2-16.4,3.6-24.6c0.1-1.9-0.1-10,3-9
					c0.6,0.2,1.8,1.8,2.2,2.3c3.2,3.8,3.5,5.4,4.4,9c0.7,3,1.6,5.8,1.9,8.9c0,0.2,0.8,1.9,1,1.5c1.2-1.9,2.4-4.1,4-5.7
					c2.3-2.2,2.8-2.4,5,0.6c1.7,2.2,3.2,4.6,5,6.7c0,0,0.2,0.2,0.3,0.2c1-1.4,2.3-2.6,3.5-3.7c0.4-0.3-0.8-1.9-0.9-1.7
					c-0.6,0.6-1.4,1.7-2.1,2c-0.5,1.1-1.1,1.2-1.9,0.2c-1.4-0.6-2.3-1.7-2.9-3.2c-1.4-1.9-2.7-3.7-4.4-5.4c0,0-0.2-0.2-0.3-0.2
					c-2.3,2.8-4.5,5.5-6.4,8.6c0.3,0.5,0.7,1,1,1.5c-1.1-9.9-4-17.1-11.1-24.1c-0.1-0.1-0.2-0.3-0.4-0.1c-2.6,3.9-2.1,9-2.4,13.5
					c-0.4,7-2.1,14.4-3.4,21.2c0.3,0.5,0.7,1,1,1.5c0.2-9.7-5.1-18-8.4-26.8c-0.1-0.2-0.7-1.5-1-1.1c-2.7,4.1-4.2,8.5-5.7,13.2
					c-0.8,2.6-1,4.1-3.8,2.8c-2.1-1-5.3-3.5-6.9-5.1c0,0-0.2-0.2-0.3-0.2c-2.3,1.4-4.2,3.3-6.6,4.5
					C872.5,108.1,873.4,109.8,873.8,109.7L873.8,109.7z"/>
			</g>
			<g>
				<path class="st0" d="M868.3,93.8c22.3,0.3,44.7,1.2,67,1.2c0.9,0,1.8-1,0.4-1c-22.3,0-44.7-1-67-1.2
					C867.8,92.8,867,93.8,868.3,93.8L868.3,93.8z"/>
			</g>
			<g>
				<path class="st0" d="M868.9,107.4c11.1,1.9,22.4,0.7,33.6,0.4c6.1-0.2,12.2-0.4,18.3-0.6c5.8-0.2,12.2-1.1,17.9-0.3
					c0.7,0.1,0.1-1.7-0.6-1.8c-5.8-0.8-12.1,0.1-17.9,0.3c-6.1,0.2-12.2,0.4-18.3,0.6c-11.1,0.3-22.5,1.5-33.6-0.4
					C867.5,105.5,868.1,107.3,868.9,107.4L868.9,107.4z"/>
			</g>
			<g>
				<path class="st0" d="M868.8,120.6c12.3,0.1,24.6,1.4,36.9,1.4c10.9,0,21.8-0.6,32.8-0.6c1.3,0,1.2-1.7,0-1.7h-0.1
					c-1.3,0-1.2,1.7,0,1.7h0.1c1.3,0,1.2-1.7,0-1.7c-10.9,0-21.8,0.7-32.8,0.6c-12.3,0-24.6-1.3-36.9-1.4
					C867.5,118.9,867.6,120.6,868.8,120.6L868.8,120.6z"/>
			</g>
		</g>
		<g>
			<g>
				<path class="st0" d="M468.9,340.5c2.8,12.9-0.2,26.1-0.3,39.2c0,0.9,2,1.1,2,0.3c0.1-13.2,3.1-26.4,0.3-39.5
					C470.7,339.6,468.7,339.6,468.9,340.5L468.9,340.5z"/>
			</g>
			<g>
				<path class="st0" d="M465,354.2c3.1-3.5,4.9-7.9,5.3-12.6c-0.6,0-1.3,0.1-1.9,0.1c1.4,4.4,4.2,8.2,7.4,11.4
					c0.8,0.8,2.2-0.1,1.3-1c-3-3-5.6-6.6-6.9-10.7c-0.3-0.9-1.8-0.9-1.9,0.1c-0.4,4.4-2.1,8.4-5,11.8
					C462.6,354.1,464.4,355,465,354.2L465,354.2z"/>
			</g>
			<g>
				<path class="st0" d="M469.1,379c-4.8,3.8-8.6,8.5-13.6,12.1c-4.9,3.6-10.2,6.7-15.1,10.2c-0.4,0.3-0.1,0.8,0.2,1
					c11.2,7.9,21,17.5,28.7,28.8c0.4,0.6,1.6,0.8,1.9,0c1.6-5.3,8.5-8.8,12.3-12.5c5-4.9,8.2-11.2,13.3-16c0.3-0.3,0.2-0.8-0.2-1
					c-10-6.1-17-15.7-27-21.8c-0.9-0.5-2.3,0.4-1.2,1.1c6.2,3.8,11.3,9.1,16.7,14c2.2,2,4.5,4,7,5.7c2.2,1.6,2.2,1.2,0.8,3.3
					c-0.6,0.9-1.6,1.8-2.2,2.7c-4.1,5.2-7.7,10.3-12.8,14.6c-3.2,2.7-7.4,5.5-8.6,9.6c0.6,0,1.3,0,1.9,0
					c-6.8-10.2-15.4-19-25.2-26.5c-1.2-0.9-2.8-1.3-2.5-3c0.2-0.8,3.6-2.4,4.2-2.8c2.4-1.6,4.9-3.2,7.3-4.8
					c5.8-4,10.2-9.3,15.7-13.6C471.6,379.3,469.8,378.4,469.1,379L469.1,379z"/>
			</g>
			<g>
				<path class="st0" d="M494.2,403.6c4.8,2.7,12.2,1,17.4,0.5c8-0.7,16.5-1,24.6-0.8c0.9,0,0.2-1.8-0.7-1.8
					c-7.5-0.3-15.3,0.1-22.8,0.6c-5.5,0.3-13.4,2.6-18.4-0.2C493.3,401.3,493.5,403.2,494.2,403.6L494.2,403.6z"/>
			</g>
			<g>
				<path class="st0" d="M522,399.2c3.6,3.5,9.7,3.7,14.4,4.4c-0.3-0.4-0.6-0.8-1-1.2c-4.9,1.3-9.1,4.5-14.1,5.4
					c-0.8,0.1,0.7,1.3,1.4,1.2c5-0.9,9.2-4.1,14.1-5.4c0.9-0.3-0.7-1.1-1-1.2c-4-0.6-9.5-0.6-12.6-3.6
					C522.8,398.3,521.1,398.3,522,399.2L522,399.2z"/>
			</g>
			<g>
				<path class="st0" d="M442.1,401.3c-3.6,1.3-7.5,0.8-11.2,0.7c-3.3-0.1-6.6,0.2-9.9,0.1c-6.8-0.1-13.6-0.5-20.3,1.1
					c-0.1,0.4-0.1,0.8-0.2,1.2c4.1-1.5,8.1-3.6,12.4-4.7c0.7-0.2,1.7-1.6,0.4-1.2c-4.4,1.2-8.6,3.3-12.8,4.9
					c-0.6,0.2-1.4,1.5-0.2,1.2c8.2-2,16.5-0.8,24.8-1c5.6-0.2,11.7,0.9,17-1C443,402.1,443.3,400.9,442.1,401.3L442.1,401.3z"/>
			</g>
			<g>
				<path class="st0" d="M401.1,404.9c3.9-0.2,8.1,1,11.3,3.2c1,0.7,1.7-0.4,0.7-1.1c-3.7-2.4-8.3-3.8-12.7-3.6
					C399.2,403.4,400.3,404.9,401.1,404.9L401.1,404.9z"/>
			</g>
			<g>
				<path class="st0" d="M469,428.9c1.3,11.1,0.7,22.3,1.8,33.4c0,0.4,0.7,4.7,1.3,4c0.3-0.4-1.9-3.9-2.2-4.3
					c-0.7-1-1.5-1.9-2.3-2.8c-3.9-4.1,2.7,4.9,3.5,7.1c0.1,0.2,1.1,1.5,1.2,1.1c1.3-4.5,3.7-8.1,6.6-11.8c0.3-0.4-1.1-1.7-1.2-1.6
					c-2.9,3.7-5.3,7.4-6.6,12c0.4,0.4,0.8,0.8,1.2,1.1c-1.5-3.9-3.4-7.7-7-10c-0.4-0.3,0.5,1.2,0.7,1.4c2.8,2.2,4.6,4.8,5.4,8.1
					c0.1,0.3,1.3,1.7,1.3,1.2c-1.6-12.5-0.9-25.1-2.3-37.5C470.2,429.8,469,428.9,469,428.9L469,428.9z"/>
			</g>
			<g>
				<path class="st0" d="M433,414.8c-2.2-2.7-6.5-2.8-9.6-1.9c-2,0.6-6.9,3.2-3.5,5.4c3.6,2.3,8.6,1.3,12.5,2.5
					c2.7,0.8,3.4,2.5,1.2,4.5c-4.1,3.7-9.4,2.2-13.8-0.2c-0.3-0.2-2.2-0.4-1.5,0c4.4,2.4,10.7,4.7,15.4,2c1.2-0.7,3.7-2.4,3.1-4.2
					c-0.4-1.3-2.3-1.9-3.4-2.3c-1.9-0.6-4-1-6-1.2c-1.9-0.2-6.3,0.1-6.8-2.1c-0.4-1.5,1.8-2.7,2.9-3.2c2.3-1.1,5.7-1.9,7.6,0.4
					C431.4,414.9,433.1,414.8,433,414.8L433,414.8z"/>
			</g>
			<g>
				<path class="st0" d="M423.9,410.3c-0.2,7.8,0,15.7,0,23.5c0,0.7,1.9,0.2,1.9-0.4c0-7.8-0.2-15.7,0-23.5
					C425.8,409.2,423.9,409.7,423.9,410.3L423.9,410.3z"/>
			</g>
			<g>
				<path class="st0" d="M428.1,409.5c-0.7,3.8,0,7.5,0,11.3c0,4.4-0.5,8.6,0.3,12.9c0.2,1,1.9,1.4,1.7,0.1
					c-0.9-4.8-0.1-9.4-0.2-14.2c-0.1-3.2-0.6-6.4,0-9.6C429.9,409.1,428.3,408.3,428.1,409.5L428.1,409.5z"/>
			</g>
			<g>
				<path class="st0" d="M416.5,376c2.6,3,8.1,5.5,9.6,9.2c0.5,1.2,0.1,3,0.1,4.2c0,2.4-0.1,4.8-0.3,7.3c-0.1,0.6,1.8,0.8,2,0.2
					c0.1-0.4,0.2-0.7,0.3-1.1c0.1-0.5-1.9-0.8-2-0.2c-0.1,0.4-0.2,0.8-0.3,1.1c0.7,0.1,1.3,0.2,2,0.2c0.2-2.6,0.2-5.3,0.3-7.9
					c0-1.2,0.4-2.7-0.1-3.8c-1.6-3.9-7-6.4-9.7-9.4C417.9,375.3,416,375.4,416.5,376L416.5,376z"/>
			</g>
			<g>
				<path class="st0" d="M427.8,385.6c2.5-3.3,5.5-6,8.6-8.8c0.4-0.4-0.9-1.8-1.3-1.5c-3.1,2.7-6.1,5.5-8.6,8.8
					C426.1,384.6,427.6,386,427.8,385.6L427.8,385.6z"/>
			</g>
			<g>
				<path class="st0" d="M417.8,385.8c5.1,0,10.1-0.5,15.2-0.6c0.5,0,2.2-0.6,0.9-0.6c-5.1,0-10.1,0.5-15.2,0.6
					C418.3,385.2,416.6,385.8,417.8,385.8L417.8,385.8z"/>
			</g>
			<g>
				<path class="st0" d="M419.3,389.3c4.8-0.1,9.5-0.8,14.3-0.8c0.7,0,2.1-1,0.8-0.9c-4.8,0.1-9.5,0.8-14.3,0.8
					C419.5,388.4,418,389.4,419.3,389.3L419.3,389.3z"/>
			</g>
			<g>
				<path class="st0" d="M519.8,414.9c-6-7.9-22.1-2.2-19,8.2c2.5,8.6,15.9,6.5,20.4,0.9c0.5-0.7-1-1.9-1.5-1.3
					c-3.2,4.1-13.9,7.6-16.9,1.3c-4-8.5,10.6-15.6,15.9-8.6C519.3,416.3,520.6,415.9,519.8,414.9L519.8,414.9z"/>
			</g>
			<g>
				<path class="st0" d="M494,418.8c6.2,1.7,13.2-1.6,19.1,0.8c0.5,0.2,1.8-0.3,1.9-0.3c-6.2-2.6-13,0.8-19.3-0.9
					C495.3,418.3,493.7,418.7,494,418.8L494,418.8z"/>
			</g>
			<g>
				<path class="st0" d="M495.1,423.1c6.3,0.8,12.6,0.6,18.9,0.3c1.2-0.1,1.4-1.8,0.1-1.7c-6.1,0.3-12.3,0.5-18.4-0.3
					C494.6,421.3,493.8,422.9,495.1,423.1L495.1,423.1z"/>
			</g>
			<g>
				<path class="st0" d="M514.9,382.3c0.5-4.1-1.7-9.4-6.4-9.8c-5.2-0.4-4.7,4.6-3.7,8.1c0.6,2,1.4,3.8,2.1,5.7c1,2.5,1.9,5.8-0.3,8
					c-0.9,0.9-4.7,3.4-3.5-0.9c0.3-0.9,1.6-1.6,2.4-1.8c5.5-1.6,9.3,5.9,14.9,2.2c0.7-0.5-0.7-1.8-1.3-1.4
					c-5.4,3.6-9.7-4.2-15.2-2.1c-3.6,1.3-4.3,6.7,0.1,7.1c7.1,0.8,5.5-8.2,4-12c-1-2.5-2.4-5.4-2.2-8.2c0.1-1.6,0.4-2.8,2.1-3.2
					c4.4-1.3,5.7,4.5,5.3,7.3C513.1,382,514.8,383,514.9,382.3L514.9,382.3z"/>
			</g>
			<g>
				<path class="st0" d="M502,387.4c5.2,0,10.3-0.5,15.5-0.3c1,0-0.6-1-1.1-1.1c-5.2-0.2-10.3,0.2-15.5,0.3
					C499.8,386.4,501.4,387.4,502,387.4L502,387.4z"/>
			</g>
			<g>
				<path class="st0" d="M473.2,395.5c-5.2-1.3-11.7,0.8-14,5.9c-2.6,5.7,3.3,10.1,8.1,11.7c3.6,1.2,7.6,0.8,10.1-2.3
					c2.4-2.9,3.1-7.4,1.5-10.8c-0.8-1.6-2-2.8-3.7-3.6c-1.4-0.7-4.5-1.6-5.9-0.5c-0.3,0.3,1.3,1.1,1.8,0.8c1.9-1.5,4.9,0.9,5.8,2.5
					c0.8,1.4,1,3,1,4.6c-0.1,3.2-1.6,6.6-4.5,8.2c-4.8,2.8-12.9-1.4-12.9-7c-0.1-6.1,7.8-9.9,13.1-8.6
					C474.8,396.6,474,395.7,473.2,395.5L473.2,395.5z"/>
			</g>
			<g>
				<path class="st0" d="M476.1,397.4c1.2-1.2,2.7-2.4,3.4-4c0.2-0.5-1.4-1.5-1.5-1.3c-0.7,1.6-2.2,2.8-3.4,4
					C474.4,396.4,475.8,397.7,476.1,397.4L476.1,397.4z"/>
			</g>
			<g>
				<path class="st0" d="M458.1,394.1c2,0.9,3.7,2.2,5.4,3.4c0.4,0.3,2.2,0,1.7-0.3c-1.8-1.2-3.5-2.5-5.4-3.4
					c-0.4-0.2-0.9-0.2-1.4-0.1C458.3,393.7,457.7,393.9,458.1,394.1L458.1,394.1z"/>
			</g>
			<g>
				<path class="st0" d="M460.5,416.1c0.9-1.4,2.3-2.5,3.3-3.8c0.8-0.9-0.9-1.9-1.6-1.1c-1.2,1.4-2.6,2.6-3.6,4.1
					C458,416.4,459.9,417,460.5,416.1L460.5,416.1z"/>
			</g>
			<g>
				<path class="st0" d="M476.3,413.1c1.5,0.7,2.9,1.5,4.5,2c0.6,0.2,2.3-0.7,1.2-1.1c-1.4-0.5-2.8-1.3-4.1-1.9
					c-0.4-0.2-1-0.1-1.4,0.1C476.2,412.5,475.9,412.9,476.3,413.1L476.3,413.1z"/>
			</g>
		</g>
		<g>
			<g>
				<path class="st0" d="M409.2,62.1c-3.6-3.6-10-5.9-14.5-2.4c-4.3,3.4-3.9,11.2-0.2,15c3,3,7.9,3.3,11.3,0.9
					c4.7-3.3,4.2-9.1,1.8-13.6c-0.5-0.9-2.2-0.7-1.6,0.4c1.9,3.5,2.6,8-0.6,11c-2.4,2.2-6.3,2.9-9,0.9c-3.5-2.6-3.8-9.2-1-12.4
					c3.4-3.8,9.4-2,12.5,1.1C408.6,63.8,410.1,63,409.2,62.1L409.2,62.1z"/>
			</g>
			<g>
				<path class="st0" d="M385.7,36.5c0.2,3.5-0.8,9.5-7,4.1c-0.4-0.3-1.2-0.5-1.5,0c-1.3,1.7-2.9,2.9-4.7,4c-0.5,0.3-0.2,1,0.2,1.2
					c4.9,2.9,2.7,9.7-3.4,7.2c-0.5-0.2-1.2,0-1.2,0.6c0,2.3-0.5,3.9-1.4,6c-0.2,0.5,0.3,0.9,0.7,1c6.5,2.1,0,7.1,1,11
					c0.1,0.5,0.8,0.7,1.2,0.7c6.2-0.5,6.8,5.8,2.8,8.9c-0.2,0.2-0.4,0.4-0.2,0.7c0.5,1.1,0.9,2.3,1.4,3.4c0.3,0.6,1.1,0.9,1.6,0.5
					c4.7-1.3,7-0.4,7,3c-0.1,1.5-0.6,2.9-1.6,4.1c-0.3,0.4,0,0.8,0.4,1.1c1.5,1,3,2,4.5,3.1c0.4,0.3,1,0.3,1.3-0.1
					c1.7-2.2,6.9-3.5,8.7-0.8c0.9,1.4,1.3,2.9,1.7,4.5c0.1,0.6,1,0.8,1.4,0.6c2.3-0.6,4.2,0,6.4,0.4c0.5,0.1,1.1-0.3,0.9-0.8
					c-0.9-2.5-1.4-5.5,0.8-7.5c3-2.7,6.1,0.1,7,3.2c0.2,0.7,1.3,0.9,1.8,0.4c1.3-1.2,2.5-2,4-2.9c0.2-0.1,0.4-0.5,0.2-0.7
					c-1.1-2.3-4.5-6.6-0.1-8.4c1.6-0.7,5,0.2,6.5,0.7c0.4,0.1,1.1,0.1,1.2-0.4c0.2-1.1,0.7-2.1,0.6-3.2c-0.1-1.8-2.5-3.1-1.7-5.5
					c0.8-2.6,3.4-3.3,5.9-3.8c0.4-0.1,0.8-0.3,0.7-0.8c-0.6-2.1-0.6-3.3-0.3-5.3c0.1-0.7-1-1-1.5-0.8c-7.1,2-1.6-8,0.9-9.9
					c0.2-0.2,0.4-0.4,0.2-0.7c-0.5-1.1-0.9-2.3-1.4-3.4c-0.3-0.6-1.1-0.9-1.6-0.5c-2.4,1.5-8.1,2.5-7.5-2c0.2-1.7,1.4-3.1,2.5-4.4
					c0.2-0.2,0.2-0.5,0-0.8c-1.7-2.3-4.2-2.4-6.8-2.1c-1.6,0.2-3.3,0.8-4.9,0.9c-4.3,0.1-2.7-3.9-1.7-6.7c0.2-0.6-0.5-1-1-1.1
					c-1.9-0.2-4.1-1-5.9,0c-0.8,0.5-1,1.3-1.6,2c-1.8,2,0.5,2-3.9,1.1c-3.3-0.7-3.3-0.9-3.3-3.9c0-0.6-0.8-0.9-1.2-0.9
					c-2.9,0.2-5.8,1.2-8.5,2.1c-1.2,0.4,0.1,1.7,1,1.4c2.6-0.9,5.3-1.8,8.1-2c-0.4-0.3-0.8-0.6-1.2-0.9c-0.1,3.4,1.3,7.3,5.3,7.7
					c1.8,0.2,3-0.5,4.3-1.6c0.9-0.8,1-2.2,1.8-3c1.5-1.4,3.5-0.7,5.2-0.5c-0.3-0.4-0.6-0.7-1-1.1c-0.9,2.5-2.6,7,0.7,8.6
					c2.5,1.2,5.8-0.3,8.3-0.6c0.8-0.1,3.1-0.5,3.7,0.2c0.7,0.9-1.2,3-1.5,3.9c-0.5,1.5-0.7,3.1,0.1,4.5c2.2,4.2,7.5,2.3,10.5,0.3
					c-0.5-0.2-1.1-0.4-1.6-0.5c1.4,3.3,0.9,2.8-0.9,5.5c-1.2,1.8-2.3,4-2.5,6.1c-0.3,4.2,3.2,4.6,6.6,3.7c-0.5-0.3-1-0.6-1.5-0.8
					c-0.4,3.1,0.9,4.2-1.8,5.5c-1.6,0.8-3.2,1.3-4.1,2.9c-0.7,1.2-0.8,2.5-0.5,3.8c0.2,1,0.8,1.6,1.1,2.5c0.6,1.7,0.5,1.7,0.1,3.4
					c0.4-0.1,0.8-0.3,1.2-0.4c-2.6-0.8-8.1-2-10.4,0.2c-1.4,1.3-1.1,3.2-0.5,4.8c0.5,1.3,1.9,2.7,1.2,4.3c-0.3,0.6-2.5,1.9-3.1,2.5
					c0.6,0.1,1.2,0.3,1.8,0.4c-1-3.5-3.9-6.5-7.9-5.5c-4.8,1.2-5.1,6.3-3.7,10.1c0.3-0.3,0.6-0.6,0.9-0.8c-2.7-0.5-4.8-1-7.4-0.3
					c0.5,0.2,1,0.4,1.4,0.6c-0.7-3.5-2.7-7.6-6.6-8.4c-1.4-0.3-2.6,0-3.9,0.6c0.1-0.1-2.7,2-2.4,1.9c-0.8,0.2-2.7,0.2-3.1-1.1
					c-0.4-1.3,1.2-3,1.2-4.5s-0.6-3.1-1.7-4.3c-2.5-2.6-5.9-1.8-8.7-0.2c0.5,0.2,1.1,0.4,1.6,0.5c-1-2.4-1-2.5,0.2-4.4
					c0.8-1.2,1.4-2.5,1.4-4c0-2.6-1.8-4.8-4.2-5.7c-2-0.7-3.1,0.4-2.3-2.4c0.5-1.6,1.9-3,2.1-4.8c0.2-2.9-2.4-3.9-4.8-4.7
					c0.2,0.3,0.5,0.7,0.7,1c0.9-2.2,1.5-4,1.4-6.3c-0.4,0.2-0.8,0.4-1.2,0.6c7.7,3,11.9-5.7,4.9-9.8c0.1,0.4,0.1,0.8,0.2,1.2
					c2-1.2,3.6-2.4,5-4.2c-0.5,0-1,0-1.5,0c5.3,4.7,10.7,2.6,10.3-4.8C387.6,35.8,385.7,35.4,385.7,36.5L385.7,36.5z"/>
			</g>
		</g>
		<g>
			<path class="st0" d="M426.6,28c-0.4,1.7-0.8,3.2-1.5,4.8c-0.2,0.5,0.1,1.5,0.8,1.5c6.4,0.1,9.1,7.1,3,10.2
				c-0.9,0.4-0.1,2,0.7,1.8c1.4,0.4,2.9,0.8,4.3,1.2c0.2,0.2,0.7,0.5,1,0.3c1.2-1.4,2.4-1.1,3.5,0.8c1.9,0.4,2.6,1.4,2.2,2.9
				c0,0.6,0.6,1.1,1.1,1c1.4-0.1,2.9-0.3,4.3-0.4c0.5,0,0.6-0.7,0.5-1.1c-1.3-6,5.9-2.4,7.3-0.8c0.3,0.3,0.9,0.6,1.2,0.1
				c1.1-1.6,1.8-3.2,2.3-5c1.1-3.9,2.7-4.3,6.9-4.1c0.5,0,0.8-0.3,0.8-0.8c-0.1-1.2-0.3-2.3-0.4-3.5c-0.1-0.6-0.5-1.1-1.1-1
				c-7.6,0.6-2.3-7.6,0.5-10c0.4-0.3,0.2-1-0.1-1.3c-1.4-1.7-2.9-2.5-5.2-2.5c-1,0-2.1,0.6-3.1,0.5c-1.8-0.1-1.7,1.3-2.7-2.2
				c-0.4-1.2-0.1-2.9-0.1-4.1c0-0.5-0.4-1-0.9-1.1c-1.7-0.2-3.7-1.3-5.1-0.4c-0.6,0.4-0.2,1.2-0.5,1.7c-1.6,3.7-6.1,6.1-8.6,1.2
				c-0.2-0.4-0.7-0.7-1.2-0.5c-1.4,0.5-2.7,1-3.9,1.9c-0.4,0.3-0.5,0.8-0.2,1.2c2.8,4.7-0.5,7.9-5.2,7.6c-1.2-0.1-0.9,1.8,0.1,1.9
				c6.6,0.4,9.9-4.5,6.6-10.2c-0.1,0.4-0.2,0.8-0.2,1.2c1.2-0.9,2.5-1.4,3.9-1.9c-0.4-0.2-0.8-0.3-1.2-0.5c2.5,4.8,9.3,5.4,11.4-0.2
				c0.6-1.6,0.4-2.7,2.7-1.4c1.3,0.7,0.7,0.2,0.7,2.2c0,0.7,0.1,1.5,0.3,2.2c0.4,1.6,1.1,2.9,2.8,3.3c2.1,0.5,4.2-1,6.2-0.6
				c3,0.6,1.1,1.4,0.1,2.8c-0.8,1.1-1.6,2.3-2.1,3.5c-2.1,4.9,0.6,7.8,5.7,7.4c-0.4-0.3-0.7-0.7-1.1-1c0.1,1,0.4,2.2,0,2.6
				c-0.1,0.1-2.5,0-3,0.1c-1.1,0.2-2.2,0.6-3,1.4c-0.8,0.9-1,2.3-1.3,3.4c-0.2,0.9-0.4,2.2-1,3c-1.4,1.8,0.4,0.8-1.5,0.2
				c-2.3-0.7-4.9-3-7.4-1.1c-1,0.8-0.8,1.5-1.2,2.5c0.4-1-0.1,1.6,0.2,1.3c-0.5,0.4-3,0.3-3.6,0.3c0.4,0.3,0.7,0.7,1.1,1
				c0-2.9-1-6.7-4.5-7.1c-1.4-0.2-2.7,0.9-4,0.7c-2.1-0.4-2.3-1.4-4.9-0.9c0.2,0.6,0.5,1.2,0.7,1.8c7.6-4,4.1-13.7-4.1-13.8
				c0.3,0.5,0.5,1,0.8,1.5c0.7-1.7,1.2-3.5,1.6-5.3C428.5,27.7,426.9,26.8,426.6,28L426.6,28z"/>
		</g>
		<g>
			<g>
				<path class="st0" d="M791.1,88.1c0.1-5,1.9-9.5,4.6-13.7c0.2-0.2-1.7-0.5-1.9-0.1c-2.8,4.2-4.6,8.7-4.7,13.8
					C789.1,88.5,791.1,88.5,791.1,88.1L791.1,88.1z"/>
			</g>
			<g>
				<path class="st0" d="M806.4,70.2c3.2-3,7.6-4.6,10.8-7.6c0.7-0.7-1.1-1.2-1.7-0.7c-3.2,3-7.6,4.6-10.8,7.6
					C804,70.2,805.8,70.7,806.4,70.2L806.4,70.2z"/>
			</g>
			<g>
				<path class="st0" d="M828.1,59.5c2-1.8,5.3-1.9,7.7-3c0.2-0.1-1.2-1.1-1.7-0.9c-2.5,1.1-5.7,1.3-7.8,3.1
					C826.2,58.8,827.7,59.9,828.1,59.5L828.1,59.5z"/>
			</g>
			<g>
				<path class="st0" d="M849.2,55.4c3.1,0,6.2,0,9.3,0c1.1,0,0.2-1.7-0.7-1.7c-3.1,0-6.2,0-9.3,0C847.4,53.7,848.4,55.4,849.2,55.4
					L849.2,55.4z"/>
			</g>
			<g>
				<path class="st0" d="M873.6,53.8c3.5,0,7.1-0.1,10.3,1.4c1,0.5,2.2-0.9,1-1.4c-3.6-1.7-7.4-1.6-11.3-1.6
					C872.3,52.2,872.3,53.8,873.6,53.8L873.6,53.8z"/>
			</g>
			<g>
				<path class="st0" d="M901.6,58.5c2.4,0.1,3.9,1.2,5.5,2.8c0.9,0.9,1.7-0.5,0.9-1.3c-2-1.9-4-3.2-6.8-3.3
					C900,56.7,900.6,58.5,901.6,58.5L901.6,58.5z"/>
			</g>
			<g>
				<path class="st0" d="M925,70.7c2.3,0.1,3.9,1.1,5.5,2.7c0.9,0.9,1.3-0.3,0.6-1c-2-2-4-3.3-6.9-3.4
					C923.4,68.9,924.3,70.7,925,70.7L925,70.7z"/>
			</g>
			<g>
				<path class="st0" d="M940.6,86.7c1.5,1.5,3.1,3.1,4.6,4.6c0.2,0.2,0.8,0,1,0c0.1,0,1-0.3,1-0.3c-1.5-1.5-3.1-3.1-4.6-4.6
					c-0.2-0.2-0.8,0-1,0C941.5,86.5,940.6,86.7,940.6,86.7L940.6,86.7z"/>
			</g>
			<g>
				<path class="st0" d="M769.3,87.1c0.9-2.7,2.5-5.4,4.5-7.4c0.8-0.8-0.6-2.2-1.4-1.3c-2.1,2.2-3.8,5-4.8,7.8
					C767.3,87.1,768.9,88.2,769.3,87.1L769.3,87.1z"/>
			</g>
			<g>
				<path class="st0" d="M781.8,68.5c0.1-4,4.3-6.4,7.7-7.6c-0.1,0-1.3-0.7-1.9-0.5c-3.4,1.2-7.6,3.6-7.8,7.7
					C779.8,68.5,781.8,68.7,781.8,68.5L781.8,68.5z"/>
			</g>
			<g>
				<path class="st0" d="M798,55.2c-0.7-0.4-0.2,0.2-0.2,0.2c0.1,0,0.5-0.4,0.6-0.5c0.5-0.3,1.1-0.6,1.7-0.8
					c1.4-0.6,2.9-1.1,4.2-1.8c0.9-0.4,0.1-2.2-0.9-1.8c-2.1,1-4.4,1.5-6.3,2.8c-1.6,1.1-1.2,2.7,0.4,3.5
					C798.7,57.5,798.9,55.7,798,55.2L798,55.2z"/>
			</g>
			<g>
				<path class="st0" d="M819.9,44.4c2.4-1.2,4.5-2.8,7.2-2.9c1,0,1.5-1.3,0.2-1.3c-3.2,0.1-5.5,1.8-8.2,3.2
					C817.9,44,818.9,44.9,819.9,44.4L819.9,44.4z"/>
			</g>
			<g>
				<path class="st0" d="M841.8,36.9c1.5-1.4,3.6-1.3,5.6-1.3c1.2,0,1-1.9-0.1-1.9c-2.5,0-4.9,0-6.8,1.8
					C839.6,36.3,841,37.7,841.8,36.9L841.8,36.9z"/>
			</g>
			<g>
				<path class="st0" d="M861.7,34c2.4-1.1,4.9-1.5,7.5-1.5c1.2,0,0.4-1.8-0.6-1.8c-2.8,0-5.4,0.4-7.9,1.6
					C859.7,32.8,860.8,34.5,861.7,34L861.7,34z"/>
			</g>
			<g>
				<path class="st0" d="M882.3,31.7c1.9-0.4,3.4-0.3,5,0.8c0.6,0.4,2.4,0,1.5-0.6c-2.2-1.6-4.8-1.8-7.4-1.2
					C880.1,30.9,881.5,31.8,882.3,31.7L882.3,31.7z"/>
			</g>
			<g>
				<path class="st0" d="M893.2,28.4c2.3,4.3,5.9,7.4,9.6,10.6c-0.1-0.5-0.1-1-0.2-1.6c-4.3,1.1-8.6,2.1-12,5.1
					c-0.6,0.5,0.5,2.2,1.1,1.7c3.3-3,7.5-4,11.7-5c0.8-0.2,0.1-1.3-0.2-1.6c-3.4-2.9-6.8-5.8-8.9-9.8
					C893.6,26.8,892.6,27.4,893.2,28.4L893.2,28.4z"/>
			</g>
			<g>
				<path class="st0" d="M905.7,31.1c1.9,2,4.1,3.7,6.4,5.2c1.1,0.7,2.3,1.4,3.4,2.2c0.6,0.4,1.1,0.7,1.7,1.1
					c-0.5,1-1.2,1.6-2.2,1.8c-3.7,1.9-7.7,2.7-11.2,5.1c-0.7,0.5,1.1-0.2,1.4-0.4c4.3-3,9.7-3.9,14.3-6.5c0,0,0.5-0.3,0.4-0.4
					c-4.2-3-8.8-5.3-12.4-9.2C907.2,29.9,905.6,31,905.7,31.1L905.7,31.1z"/>
			</g>
			<g>
				<path class="st0" d="M926.9,36.4c1.4,1.4,2.7,2.9,3.9,4.4c0.6,0.7,1.2,1.5,1.7,2.2s1,0.8,0.4,1.5c-0.2,0.3-2.3,0.9-2.7,1.1
					c-0.9,0.4-1.7,0.7-2.6,1.2c-1.7,0.8-3.3,1.8-4.8,2.8c-0.5,0.4,1.2,1.2,1.8,0.8c3.3-2.3,7-3.8,10.7-5.3c0.2-0.1,0.3-0.3,0.1-0.5
					c-2.1-3-4.5-5.9-7.1-8.5C928,35.7,926.1,35.6,926.9,36.4L926.9,36.4z"/>
			</g>
		</g>
		<g>
			<g>
				<path class="st0" d="M275.5,36.8c-1.1,5.4-0.6,11.5-0.6,17c0,0.9,2,1.1,2,0c0-5.4-0.6-11.3,0.6-16.6
					C277.7,36.2,275.7,35.8,275.5,36.8L275.5,36.8z"/>
			</g>
			<g>
				<path class="st0" d="M267.1,46.6c5.7,1.5,11.4,0.6,17.2,0.6c0.9,0,0-1.8-0.8-1.8c-5.7,0.1-11.3,0.9-16.8-0.6
					C265.6,44.5,266.3,46.4,267.1,46.6L267.1,46.6z"/>
			</g>
		</g>
		<g>
			<path class="st0" d="M287.2,88.9c0.1,5.9,2.2,11.7,5.7,16.5c0.7,1,0.2-0.7-0.1-1.1c-3-4.1-4.5-9-4.6-14
				C288.2,89.9,287.2,88.5,287.2,88.9L287.2,88.9z"/>
		</g>
		<g>
			<path class="st0" d="M282.2,101.7c1.2,3.5,3,7.2,5.6,10c0.6,0.7,0-1.1-0.3-1.4c-2.2-2.3-3.6-5.4-4.7-8.3
				C282.7,101.3,281.7,100.4,282.2,101.7L282.2,101.7z"/>
		</g>
		<g>
			<path class="st0" d="M158.7,62.4c-0.9-0.4-1.9-1-2.4-1.9c-0.6-1-0.6-2-0.7-3.1c-0.1-1.1-0.2-2.3,0.3-3.3c0.2-0.4,0.4-0.6,0.6-0.9
				c0.1-0.2,0.5-0.1-0.1,0c0,0,0.2,0,0.3,0c0.9,0.1,1.7,0.2,2.6,0.5c1.9,0.8,3.7,2.1,5,3.6c1.1,1.2,2.2,3,1.8,4.7
				c-0.7,2.9-5.4,2.5-7.6,2.4c-0.4,0-1,0.2-1.3,0.4c-0.1,0.1-0.7,0.4-0.2,0.4c3.2,0.1,7.7,0,10.2-2.4c1.6-1.6,0.8-3.7-0.3-5.3
				c-2.4-3.3-8.2-7.2-12.1-3.8c-0.9,0.8-1.2,2.1-1.2,3.3s0,2.7,0.5,3.8c0.5,1.2,1.6,1.9,2.8,2.4C157.4,63.4,158.8,62.5,158.7,62.4
				L158.7,62.4z"/>
		</g>
		<g>
			<path class="st0" d="M192.5,40c-1.6-0.8-3.1-2-3.6-3.8c-0.2-0.9-0.3-2.1,0.2-2.9c0.2-0.4,0.5-0.6,1-0.6c0.5-0.1,1.2,0,1.7,0.1
				c1.4,0.3,2.8,1.1,3.8,2.1c0.7,0.7,1.6,1.8,1.3,2.6c-0.6,1.6-4.4,1.5-5.9,1.5c-1.1,0-1.6,1.7-0.3,1.7c2.4,0,6,0,7.6-2.2
				c1.1-1.4,0.3-3.2-0.8-4.4c-2.1-2.3-7.5-5-10-1.7c-0.8,1.1-1,2.7-0.7,4c0.5,2.4,2.2,4.2,4.4,5.2C192.2,42,193.5,40.6,192.5,40
				L192.5,40z"/>
		</g>
		<g>
			<path class="st0" d="M168.7,100.9c-0.8-0.3-1.7-0.5-2.4-0.9s-1.2-1.2-1.7-1.8c-0.6-0.8-1.4-1.8-1.5-2.8c0-0.5,0.1-0.8,0.6-1
				c0.1-0.1,0.3,0,0.4,0c-0.1,0,0.3,0,0.2,0c0.1,0,0.5,0.1,0.5,0.1c1.7,0.4,3.3,1.3,4.6,2.3c0.9,0.7,2.3,1.9,1.8,3.2
				c-0.3,0.8-1.3,1.1-2.1,1.3c-1.8,0.5-3.7,0.5-5.5,0.5c-0.3,0-0.6,0-0.4,0.3c0.2,0.3,1.1,0.3,1.3,0.3c1.9,0,3.9-0.1,5.8-0.5
				c0.9-0.2,2-0.5,2.6-1.3c1-1.4-0.6-2.9-1.6-3.7c-1.7-1.3-3.7-2.3-5.8-2.8c-1.1-0.3-3.9-0.9-4.3,0.7c-0.2,1,0.7,2.3,1.3,3.1
				c0.6,0.8,1.2,1.7,2.1,2.3c0.9,0.6,2.1,0.9,3.1,1.2c0.3,0.1,1.1,0.3,1.4,0.1C169.3,101.1,169,101,168.7,100.9L168.7,100.9z"/>
		</g>
		<g>
			<path class="st0" d="M36.7,381.4c14.4-0.9,28.8,0.9,43.3,1c0.7,0-0.2-1.7-0.8-1.7c-14.4-0.1-28.8-1.9-43.3-1
				C35.1,379.7,36,381.4,36.7,381.4L36.7,381.4z"/>
		</g>
		<g>
			<path class="st0" d="M60.1,389.5c5.4,0,10.9,0,16.2,1c1.3,0.2,1.3-1.4,0.2-1.6c-5.5-1-11.1-1-16.7-1.1
				C58.5,387.8,59,389.5,60.1,389.5L60.1,389.5z"/>
		</g>
		<g>
			<path class="st0" d="M617.9,80c5.8,2.4,11,5.9,16.3,9.1c0.6,0.4,2.4-0.4,1.6-0.9c-5.4-3.2-10.8-6.8-16.7-9.2
				C618.4,78.6,616.8,79.6,617.9,80L617.9,80z"/>
		</g>
		<g>
			<path class="st0" d="M634.4,78.7c-4.7,2.8-9,5.9-13.4,9.2c-0.3,0.2,1,1.7,1.3,1.5c4.4-3.2,8.7-6.4,13.4-9.2
				C635.9,80.1,634.8,78.5,634.4,78.7L634.4,78.7z"/>
		</g>
		<g>
			<path class="st0" d="M489.2,42.3c0,1.1,0.1,2.1,0.5,3.1c0.2,0.4,2.1,0.3,1.9-0.2c-0.4-0.9-0.5-1.9-0.5-3
				C491.2,41.9,489.2,41.9,489.2,42.3L489.2,42.3z"/>
		</g>
		<g>
			<path class="st0" d="M482.1,51.2c0.7,0,1.9-1.4,0.8-1.4C482.2,49.8,480.9,51.2,482.1,51.2L482.1,51.2z"/>
		</g>
		<g>
			<path class="st0" d="M482.9,50.8c0.8,0,1.7-0.1,2.4,0.2c0.4,0.2,0.9,0.3,1.4,0.3c0.3,0,0.4-0.2,0.1-0.3c-1.5-0.7-3.2-0.8-4.8-0.8
				c-0.2,0-0.6,0-0.4,0.3C481.8,50.7,482.6,50.8,482.9,50.8L482.9,50.8z"/>
		</g>
		<g>
			<path class="st0" d="M495.3,51c1,0,2.1,0,3.1,0c0.3,0,0.7-0.2,0.5-0.5c-0.2-0.4-0.9-0.4-1.3-0.4c-1,0-2.1,0-3.1,0
				c-0.3,0-0.7,0.2-0.5,0.5C494.2,50.9,494.9,51,495.3,51L495.3,51z"/>
		</g>
		<g>
			<path class="st0" d="M490.4,54.6c0,1,0.1,1.9,0.6,2.9c0.2,0.4,0.6,0.8,1.1,0.9c0.4,0.1,0.6-0.1,0.4-0.5c-0.4-0.7-0.4-1.4-0.4-2.2
				c0-0.4-0.4-0.8-0.7-1C491.2,54.5,490.4,54.1,490.4,54.6L490.4,54.6z"/>
		</g>
		<g>
			<path class="st0" d="M985,64.1c-0.7,0.8-1.2,1.8-1.6,2.7c-0.2,0.4,0.6,0.5,0.8,0.5c0.4,0,0.9-0.2,1.1-0.6
				c0.4-0.8,0.8-1.7,1.5-2.4c0.3-0.3-0.2-0.6-0.5-0.6C985.8,63.6,985.3,63.8,985,64.1L985,64.1z"/>
		</g>
		<g>
			<path class="st0" d="M980.8,71c-0.5,1-0.6,2.1-1,3.1c-0.2,0.4,1.6,1.2,1.9,0.7c0.5-1,0.6-2.1,1-3.1
				C982.9,71.2,981.1,70.5,980.8,71L980.8,71z"/>
		</g>
		<g>
			<path class="st0" d="M982.4,79.3c0.5,0.5,1,1,1.5,1.5c0.2,0.2,0.8,0,1-0.1c0.1,0,1-0.4,0.9-0.5c-0.5-0.5-1-1-1.5-1.5
				c-0.2-0.2-0.8,0-1,0.1C983.2,78.8,982.2,79.1,982.4,79.3L982.4,79.3z"/>
		</g>
		<g>
			<path class="st0" d="M990.9,81.3c1.1,0,2.2,0,3.2-0.5c0.7-0.3-0.5-1.8-1.1-1.6c-0.9,0.4-1.9,0.5-2.9,0.5
				C989.3,79.7,990.3,81.3,990.9,81.3L990.9,81.3z"/>
		</g>
		<g>
			<path class="st0" d="M997.8,77.6c0.7-0.1,0.9-0.7,1.4-1.2c0.6-0.6-1.2-1.5-1.7-1c-0.2,0.2-0.3,0.4-0.5,0.6
				c-0.1,0.1-0.1,0.3-0.2,0.3c-0.4,0-0.5,0.4-0.3,0.8C996.7,77.4,997.3,77.6,997.8,77.6L997.8,77.6z"/>
		</g>
		<g>
			<path class="st0" d="M999.8,71.5c0-1.4,0-2.7,0-4.1c0-0.5-2-0.6-2-0.3c0,1.4,0,2.7,0,4.1C997.8,71.6,999.8,71.8,999.8,71.5
				L999.8,71.5z"/>
		</g>
		<g>
			<path class="st0" d="M990.3,64.1c1,0.5,2.1,1,3.1,1.5c0.2,0.1,0.9,0.4,1.1,0.1c0.2-0.3-0.4-0.8-0.6-0.9c-1-0.5-2.1-1-3.1-1.5
				c-0.2-0.1-0.9-0.4-1.1-0.1C989.5,63.6,990.1,64,990.3,64.1L990.3,64.1z"/>
		</g>
		<g>
			<path class="st0" d="M992.1,272c2.7-0.5,5.4-0.5,8.1-0.5c0.9,0-0.1-1.6-0.7-1.6c-2.8,0-5.6,0-8.4,0.5
				C990.3,270.5,991.4,272.1,992.1,272L992.1,272z"/>
		</g>
		<g>
			<path class="st0" d="M1007.2,270.2c2.4-0.1,4.4-1.2,6.3-2.6c0.4-0.3-1.3-1.3-1.6-1c-1.8,1.3-3.8,2.5-6.1,2.5
				c-0.4,0,0,0.4,0.1,0.5C1006.3,269.9,1006.8,270.2,1007.2,270.2L1007.2,270.2z"/>
		</g>
		<g>
			<path class="st0" d="M1021.3,263.8c1.8-0.6,3.6-1.5,5-2.8c0.9-0.9-0.8-1.7-1.5-1c-1.2,1.1-2.7,1.8-4.2,2.3
				C1019.4,262.7,1020.2,264.2,1021.3,263.8L1021.3,263.8z"/>
		</g>
		<g>
			<path class="st0" d="M1033.1,255c1.4-1.8,2.7-3.7,4.1-5.6c0.6-0.8-0.9-2.1-1.6-1.2c-1.4,1.8-2.7,3.7-4.1,5.6
				C1030.9,254.6,1032.4,255.9,1033.1,255L1033.1,255z"/>
		</g>
		<g>
			<path class="st0" d="M1042.8,242.8c1-2.1,1.5-4.5,2.6-6.6c0.3-0.7-1.1-2.1-1.5-1.3c-1,2.1-1.5,4.5-2.6,6.6
				C1041,242.3,1042.4,243.6,1042.8,242.8L1042.8,242.8z"/>
		</g>
		<g>
			<path class="st0" d="M1048.2,228.1c2.7-6.3,3.2-13.3,4.2-20c0.1-0.7-1.9-0.8-2-0.1c-1,6.6-1.4,13.5-4.1,19.7
				C1045.9,228.6,1047.9,228.8,1048.2,228.1L1048.2,228.1z"/>
		</g>
		<g>
			<path class="st0" d="M1044.9,217.1c5.4-3.4,8.3-9,10-15c-0.7,0-1.3,0-2,0c-0.1,5.3-1.1,11.2,2.1,15.9c0.4,0.6,2.3,0.2,1.9-0.3
				c-3.1-4.6-2.1-10.5-2-15.6c0-0.6-1.8-0.6-2,0c-1.6,5.7-4.4,11.2-9.5,14.5C1042.5,217.1,1044.3,217.4,1044.9,217.1L1044.9,217.1z"
				/>
		</g>
		<g>
			<path class="st0" d="M1016.4,238.3c-6.5-0.8-9.8-8.2-8.9-14c1-6.3,8.3-9.5,14.1-6.9c4.3,1.9,6.8,6.8,6.4,11.4
				c-0.5,5.7-5.4,8.4-10.8,8.4c-1.3,0-0.8,1.8,0.2,1.8c6.8,0,12.5-3.8,12.4-11c-0.1-5.7-3.9-11.4-9.6-12.8
				c-7.1-1.8-14.2,2.5-14.7,9.9c-0.4,6.8,3.9,14.2,11.1,15.1C1017.9,240.2,1017.5,238.4,1016.4,238.3L1016.4,238.3z"/>
		</g>
		<g>
			<path class="st0" d="M1014,221.3c0,4-0.4,8.5,0.8,12.3c0.1,0.4,1.5,1.6,1.3,1.1c-1.1-3.8-0.8-8.2-0.8-12.1
				C1015.3,222.1,1014,221.1,1014,221.3L1014,221.3z"/>
		</g>
		<g>
			<path class="st0" d="M1014.2,222.9c1.9-0.3,4.7-0.2,6.2,1.2c1.6,1.6,0.4,3-1.3,3.4c-2.8,0.7-5.8,0-8.5,0.9
				c-1.2,0.4-0.8,2.1,0.5,1.7c3.4-1.1,9,0.7,11.5-2.5c1.2-1.5,0.7-3.6-0.7-4.8c-1.9-1.8-5.1-2-7.5-1.7
				C1013.1,221.3,1012.9,223,1014.2,222.9L1014.2,222.9z"/>
		</g>
		<g>
			<path class="st0" d="M1012.2,232.9c2.4-0.3,4.8-0.3,7.2,0c1,0.1,1.8-1,0.5-1.2c-2.8-0.4-5.5-0.4-8.3,0
				C1010.3,231.9,1011.2,233,1012.2,232.9L1012.2,232.9z"/>
		</g>
		<g>
			<path class="st0" d="M1026.3,213.8c2.6,1.2,4.1,3.5,5.3,6c0.3,0.8,2.2,0.9,1.7-0.2c-1.3-2.9-3.3-5.6-6.3-7
				C1025.8,212.1,1025.2,213.3,1026.3,213.8L1026.3,213.8z"/>
		</g>
		<g>
			<path class="st0" d="M1004.6,240.9c3.7,3.4,8.8,4.6,13.7,4.3c1-0.1,1.7-1.6,0.4-1.5c-4.5,0.3-9.2-0.9-12.5-4
				C1005.5,239.1,1003.9,240.2,1004.6,240.9L1004.6,240.9z"/>
		</g>
		<g>
			<path class="st0" d="M5.3,167c1.4,18.4,26,17.9,33.3,3.5c7.3-14.3-7-24.5-20.6-20.7C9.9,152.2,5.1,158.7,5.3,167
				c0,0.8,2,0.6,2-0.2c-0.2-8.3,5-14.8,13.4-16.2c6.4-1.1,14.6,1.1,17.2,7.6c3.4,8.3-3.2,17.9-11.1,20.8c-9.7,3.5-18.8-2-19.5-12.2
				C7.2,165.9,5.3,166.1,5.3,167z"/>
		</g>
		<g>
			<path class="st0" d="M17.2,155.4c-1.1,7.5-0.9,14.9,0.3,22.3c0.1,0.8,2,1.3,1.8,0.2c-1.1-7.3-1.3-14.6-0.2-22
				C19.2,155.2,17.4,154.5,17.2,155.4L17.2,155.4z"/>
		</g>
		<g>
			<path class="st0" d="M18.9,156.1c3.3,0,17.7,2.5,11.3,8.2c-3.7,3.3-11.8,2.5-16.5,2.5c-0.4,0-1.9,0.8-1.6,0.8
				c6,0.1,13.2,0.3,18.6-2.8c2.5-1.4,3.9-4,1.6-6.4c-2.7-2.7-8.1-3-11.8-3.1C20.1,155.3,18.5,156.1,18.9,156.1L18.9,156.1z"/>
		</g>
		<g>
			<path class="st0" d="M13.8,174.5c3.4-1.5,7.1-1.5,10.8-1.5c1.3,0-0.1-1-0.7-1c-3.9,0-7.9,0-11.5,1.6
				C11.6,173.9,13.3,174.7,13.8,174.5L13.8,174.5z"/>
		</g>
		<g>
			<path class="st0" d="M21.4,189c-0.2,2.4-0.1,4.3,1,6.5c0.4,0.7,2.1-0.3,1.7-1c-1.1-1.9-1.1-3.7-0.9-5.8
				C23.3,187.6,21.4,188.2,21.4,189L21.4,189z"/>
		</g>
		<g>
			<path class="st0" d="M21.6,200.2c0,1.8,0,3.6,0,5.3c0,0.3,2,0.4,2,0.2c0-1.8,0-3.6,0-5.3C23.6,200.1,21.6,200,21.6,200.2
				L21.6,200.2z"/>
		</g>
		<g>
			<path class="st0" d="M21.7,213.6c0.8,0.9,0.7,2.3,0.7,3.5c0,1,2,0.8,2-0.1c0-1.4,0.1-3.1-0.9-4.2
				C22.9,212.2,21.1,212.9,21.7,213.6L21.7,213.6z"/>
		</g>
		<g>
			<path class="st0" d="M22.5,224.3c0.9,1,0.8,2.6,0.8,3.8c0-0.1,1.8-0.4,1.8-0.8c0-1.2,0.1-2.8-0.8-3.8
				C24,223.2,22.4,224.3,22.5,224.3L22.5,224.3z"/>
		</g>
		<g>
			<path class="st0" d="M24,233.2c0,0.7,0.1,1.9-0.5,2.4c-0.9,0.9,0.5,1.8,1.2,1c0.9-1,1.1-2.3,1.1-3.7
				C25.9,231.8,24,232.2,24,233.2L24,233.2z"/>
		</g>
		<g>
			<path class="st0" d="M30.1,239.7c2.2,0,4.3-0.1,6.4-0.8c0.7-0.2-1-1.1-1.5-1c-2,0.6-3.9,0.7-6,0.7c-0.5,0-0.4,0.3-0.2,0.5
				C29,239.5,29.7,239.7,30.1,239.7L30.1,239.7z"/>
		</g>
		<g>
			<path class="st0" d="M41.3,239.3c1.3-0.6,2.6-0.7,3.9-0.7c0.2,0,0.8,0,0.7-0.2c0-0.2-1.1-0.2-1.2-0.2c-1.9,0-3.6,0.1-5.3,0.9
				c-0.2,0.1,0.6,0.3,0.7,0.3C40.5,239.4,41,239.4,41.3,239.3L41.3,239.3z"/>
		</g>
		<g>
			<path class="st0" d="M4.6,153.4c-4.2,5.9-5.9,13-3.7,20c1,3.3,3,6.6,5.9,8.6c3.2,2.2,7.1,2.1,10.7,3.3c0.6,0.2,2.1-1,1.5-1.2
				c-6.4-2.1-11.9-2.1-15.3-8.9c-3.6-7.3-2.2-15.6,2.4-22C6.8,152.4,5,153,4.6,153.4L4.6,153.4z"/>
		</g>
		<g>
			<path class="st0" d="M8.5,151.3c2.8-3.5,9.9-6.3,14.4-5.5c1.2,0.2,0.7-1.5-0.2-1.7c-5.1-1-12.5,1.9-15.8,6
				C6.4,150.7,7.9,152.1,8.5,151.3L8.5,151.3z"/>
		</g>
		<g>
			<path class="st0" d="M29.4,146c10.5,2.9,18.8,12.3,14.5,23.2c-0.3,0.7,1.6,1.3,1.9,0.6c4.7-11.9-5-21.7-16.1-24.8
				C28.6,144.7,28.2,145.7,29.4,146L29.4,146z"/>
		</g>
		<g>
			<path class="st0" d="M22.7,185.7c9.1,0.3,16.7-4.6,21.4-12.1c0.5-0.8-0.8-2.3-1.4-1.4c-4.5,7.1-11.6,11.9-20.3,11.6
				C21.3,183.8,21.7,185.7,22.7,185.7L22.7,185.7z"/>
		</g>
	</g>
</g>
</svg>
