<?xml version="1.0" encoding="utf-8"?>
<!-- Generator: Adobe Illustrator 22.1.0, SVG Export Plug-In . SVG Version: 6.00 Build 0)  -->
<svg version="1.1" id="Layer_1" xmlns="http://www.w3.org/2000/svg" xmlns:xlink="http://www.w3.org/1999/xlink" x="0px" y="0px"
	 viewBox="0 0 1057 474" style="enable-background:new 0 0 1057 474;" xml:space="preserve">
<style type="text/css">
	.st0{fill:#FECC81;}
	.st1{fill:#511E12;}
	.st2{fill:#FFFFFF;}
	.st3{fill:#F47934;}
	.st4{fill:none;stroke:#C0873D;stroke-width:0.6605;stroke-linecap:round;stroke-miterlimit:10;}
	.st5{fill:#EC5652;}
	.st6{fill:none;stroke:#231F20;stroke-width:0.6605;stroke-linecap:round;stroke-miterlimit:10;}
	.st7{fill:none;stroke:#A7A9AC;stroke-width:1.2781;stroke-linecap:round;stroke-miterlimit:10;}
	.st8{fill:#693516;}
	.st9{fill:none;stroke:#511E12;stroke-width:1.321;stroke-linecap:round;stroke-miterlimit:10;}
	.st10{fill:#EBAC48;}
	.st11{fill:#FCBD83;}
	.st12{fill:#2B2741;}
	.st13{fill:#383866;}
	.st14{fill:#F27178;}
	.st15{fill:#683516;}
	.st16{fill:none;stroke:#231F20;stroke-width:0.9586;stroke-linecap:round;stroke-miterlimit:10;}
	.st17{fill:none;stroke:#C0873D;stroke-width:0.797;stroke-linecap:round;stroke-miterlimit:10;}
	.st18{fill:#824A1F;}
	.st19{fill:none;stroke:#C93231;stroke-width:0.9586;stroke-linecap:round;stroke-miterlimit:10;}
	.st20{fill:none;stroke:#4F4E84;stroke-width:0.9586;stroke-linecap:round;stroke-miterlimit:10;}
	.st21{fill:none;stroke:#C93231;stroke-width:0.6391;stroke-linecap:round;stroke-miterlimit:10;}
	.st22{fill:#4E4F85;}
	.st23{fill:none;stroke:#231F20;stroke-width:0.3195;stroke-miterlimit:10;}
	.st24{fill:#C93231;}
	.st25{fill:none;stroke:#C93231;stroke-width:1.2781;stroke-miterlimit:10;}
	.st26{fill:#FECB81;}
	.st27{fill:#252843;}
	.st28{fill:#632B12;}
	.st29{fill:none;stroke:#C0873D;stroke-width:0.6391;stroke-linecap:round;stroke-miterlimit:10;}
	.st30{fill:#D0D2D3;}
	.st31{fill:#3F4A68;}
	.st32{fill:#F9A369;}
	.st33{fill:#024C3A;}
	.st34{fill:none;stroke:#D0D2D3;stroke-width:0.6174;stroke-linecap:round;stroke-miterlimit:10;}
	.st35{fill:none;stroke:#632B12;stroke-width:1.2781;stroke-linecap:round;stroke-miterlimit:10;}
	.st36{fill:none;stroke:#632B12;stroke-width:1.2216;stroke-linecap:round;stroke-miterlimit:10;}
	.st37{fill:none;stroke:#FFFFFF;stroke-width:0.6391;stroke-miterlimit:10;}
</style>
<g>
	<path class="st0" d="M256.7,113.7c0,0-3.6-11.3-5.1-14s-1.8-3.2-2.5-2.7s1.7,5.9,1.7,8c0.1,2.1-9.4-6.1-10.7-7
		c-1.7-1.2-3.1-0.8-1.7,0.5c1.1,1,5.9,5.5,6.7,6.4c0,0,0.1,0.5-0.3,0.2c-2.3-1.5-10.8-7-11.3-6.2c-0.6,1,8.7,6.8,9.7,7.9
		s-0.1,0.5-0.1,0.5s-9.7-4.6-10-3.8c-0.3,0.7,6.7,4.4,8.4,5.9c0.1,0.1,0.1,0.4,0,0.4s-5.7-1.9-6.8-1.4c-1.1,0.4,2.7,1,7.8,4.2
		c5,3.2,10,6.3,10,6.3S255.8,117.5,256.7,113.7z"/>
	<path class="st1" d="M325.3,51.4c0,0-3.2-4.7-7.1-5.2c-5.4-0.7-18.2,2-22,8.3c-3.7,6.1-1.4,16,0.2,17.7c1.7,1.7-2.7,3.8-1.1,7.7
		c1.6,3.9,0.4,6.7,0,10.8c-0.4,4,3,9.4,5,12.6c1.9,3.2-2.2,2.1-1.8,6.5c0.4,4.3,1.2,7.5,3.1,8.7c0,0,3.5,0.3,7.3-1.3
		c3.8-1.5,24.9-6.7,30-7.4c5.1-0.7,7.5-3.9,9.1-6.4s-1.1-6.2-2.9-11.2s-1-6.4,0.1-9.3c1.1-2.8-5-10.1-6.5-13.8
		c-1.6-3.7,1.1-3.9-0.9-6.2s-2.6-1.4-3.7-3.6c-1.1-2.2-0.9-4.2-2.6-5.6C329.8,52.3,326.9,50.4,325.3,51.4z"/>
	<path class="st0" d="M323.7,53.6c0,0,8.1,3.4,9.5,7.5c1.4,4,4.6,14.4,4.9,18.5s-1.9,13.4-6.3,15.1l-1.7,0.4c0,0,1.3,7.8,2.2,8.4
		l-4.3,4.4l-7.6-1.3c0,0-4.4-14.5-6.7-19.1c-2.3-4.6-4.4-15.7-4.4-15.7S320.5,64.2,323.7,53.6z"/>
	<path class="st2" d="M320.4,106.5l7.6,1.3l4.3-4.4c0,0,2.3,3.2,4.2,2.9c0,0,7.4,59.9,11.9,70c0,0-7.3,1.9-6.2,1.7
		c1.1-0.2-17.7-58.9-22.5-66.7C319.7,111.4,320.1,108.5,320.4,106.5z"/>
	<path class="st3" d="M336.5,106.4c0,0,12.1-3,16.7-2.9s11.4,17,17.4,28.6c6,11.5-0.5,15.9-0.5,15.9s-14.6-24.2-17.2-27.1
		c0,0,0.3,8.2,3.1,19.8c2.9,11.6,11.8,36.6,11.8,36.6l-17.3,3l-2.1-3.9C348.4,176.4,339.2,146.1,336.5,106.4z"/>
	<path class="st3" d="M319.4,110.1c0,0-12.2,3-14.8,4.9c-2.6,1.9-14.8,21.7-15.3,22c-2.9,1.8-32.5-22.7-32.5-22.7s-3.1,2.4-3.7,4.6
		c0,0,29.5,29.1,34.5,30.6s20.4-23,22.2-24.2c1.8-1.1,17.1,44.9,16.8,56.7c0,0,12.7-0.6,16.4-2.8
		C343.1,179.1,336.9,150.6,319.4,110.1z"/>
	<path class="st4" d="M321.3,66c0,0.4,2.8,8.6,7.8,11.1c0,0-0.7,1.8-3.3,2.9"/>
	<path class="st5" d="M332.3,83.3c0,0-9.7,2.9-11.6,1.6c0,0,1.6,4.9,6,4.3C331.1,88.7,331.7,86.1,332.3,83.3z"/>
	<path class="st2" d="M322.3,86c0,0,4,0.2,8.8-1.5l-0.4,1c0,0-3.2,1.4-7.7,1.3C323,86.8,322.6,86.6,322.3,86z"/>
	<path class="st2" d="M319.1,72.5c0.3,1.4-1,2.8-2.9,3.1c-1.9,0.3-3.6-0.6-3.8-2c-0.3-1.4,1-2.8,2.9-3.1
		C317.2,70.2,318.9,71.1,319.1,72.5z"/>
	<path class="st2" d="M331.8,69.6c0.2,1.4-1,2.8-2.8,3.1c-1.8,0.3-3.5-0.6-3.7-1.9c-0.3-1.4,1-2.8,2.8-3.1
		C329.8,67.3,331.5,68.2,331.8,69.6z"/>
	<path class="st1" d="M316.8,72.8c0.2,1.3-0.3,2.5-1.3,2.6c-0.9,0.2-1.9-0.8-2.1-2.1c-0.2-1.3,0.3-2.5,1.3-2.6
		C315.6,70.6,316.6,71.5,316.8,72.8z"/>
	<path class="st1" d="M329.6,69.9c0.2,1.3-0.3,2.4-1.3,2.6c-0.9,0.2-1.9-0.7-2.1-2s0.3-2.4,1.3-2.6
		C328.5,67.7,329.4,68.6,329.6,69.9z"/>
	<path class="st6" d="M311.5,73.1c0,0,0.8-2.1,3.6-2.6c2.8-0.5,4.5,0.6,4.5,0.6"/>
	<path class="st6" d="M324.6,69.9c0,0,0.8-1.9,3.4-2.4s4.3,0.7,4.3,0.7"/>
	<line class="st7" x1="329.1" y1="109.8" x2="345.4" y2="176.9"/>
	<path class="st8" d="M318.8,48.4c-0.6-2.1-14.6,2.5-14.6,2.5c-3.8,1.8-9.7,9.4-6.1,19.1c3.6,9.6-0.5,5.9,0,10.4s3.8,3.7,1.2,8.2
		c-2.6,4.5,5.6,10.6,5.8,13.5c0.2,2.9-3.2,2.3-2.3,10c0.2,1.3,13-13.5,9.1-24.3s-6.4-15.1-2.3-19.8
		C313.6,63.4,321.4,58.4,318.8,48.4z"/>
	<path class="st8" d="M338.9,72.5c0,0,4.5,6.4,4.4,8.5c-0.1,2.2-2.4,8.7-0.9,11.4c1.5,2.7,3.7,7.2,3,8.8c-0.3,0.7-2.1,2.1-3.9,1.6
		c-6-1.7-3.5-9.5-2.4-15C340.2,82.4,340.8,79,338.9,72.5z"/>
	<path class="st9" d="M316.7,50.3c0,0-1.6,10.7-11.5,18.5"/>
	<path class="st9" d="M307.8,52.8c0,0-1.5,4.9-5.5,7.6"/>
	<path class="st8" d="M324.4,63.3c0,0,3.5-2.5,8.2-0.6c0,0-3.4-4.2-8.1-0.9C324.5,61.7,323.6,61.9,324.4,63.3z"/>
	<path class="st10" d="M343,106l4.8-0.8c0,0,0.4,19.2,3.5,33.1s11.5,34.7,11.5,34.7l-12,3C350.7,176,336.4,119.5,343,106z"/>
	<path class="st10" d="M307.5,115.4l8.9-2.3c0,0,7.9,19.9,12.3,30.2s11.7,30.1,11.5,32.7c-0.2,2.5-10.4,3.7-10.4,3.7
		S320.6,125.9,307.5,115.4z"/>
	<path class="st10" d="M353.5,105.5c0,0,17.2,29.3,17.6,31.3S370,143,370,143s-15.3-21.8-16-24.1
		C353.3,116.6,351.1,109.9,353.5,105.5z"/>
	<path class="st9" d="M312.9,51c0,0-2.2,9.2-9.6,14.7"/>
</g>
<g>
	<path class="st11" d="M102.7,102.9c-0.6,0.5-1.1,0.6-1.6,0.5c-1.4-0.3,1.3-7.2,1-9.3c-0.3-2.1-3.6,1.1-4.9,1.9s0.4-7.3-0.3-10.2
		C96.3,83,88.2,80,78.7,84c0,0-5.5,12.7-5.6,21.5s8.1,10.8,10.7,11c0,0-1.6,7.8-2.2,9.1c0,0,1.4,5,9.4,4.9s8.9-4.8,8.9-4.8
		s-0.5-6.3-0.3-9.3C100.5,106.7,102.7,102.9,102.7,102.9z"/>
	<path class="st2" d="M79.4,93.8c0,0.7-0.9,1.3-2,1.3s-2-0.6-1.9-1.3c0-0.7,0.9-1.3,2-1.3S79.5,93.1,79.4,93.8z"/>
	<path class="st2" d="M91.1,94.5c0,0.8-1.1,1.5-2.3,1.5c-1.3,0-2.3-0.7-2.3-1.5s1.1-1.5,2.3-1.5C90.1,93,91.1,93.7,91.1,94.5z"/>
	<path class="st12" d="M60.3,210.1c0,0-21.4,48-24.5,65.7c-3.1,17.7-0.7,77.1,0,82.2h7.5c0,0,3.6-70.9,3.5-77.7L75.4,230l2.2-0.2
		c0,0,0.3,36.8,3.8,49.7c0,0-7.5,73.6-6.9,76.8l8.1,1.7c0,0,12.5-54.4,13.2-82.2c0,0,13.7-48.3,10.6-67.4
		C106.5,208.4,62.1,206,60.3,210.1z"/>
	<path class="st13" d="M59.8,215.5c0,0,8.5-0.3,12.4-1.5c-0.5,3.6-23.7,53.8-30.9,60.5c0,0-2.3,1.6-2.8,1.3
		C38,275.4,52.6,228.4,59.8,215.5z"/>
	<path class="st13" d="M83.4,214c3.5-0.2,13.6-3.9,13.6-3.9s-7.1,57.1-10.8,62.8c-3.6,5.7-4.8-8.6-4.3-22.1
		C82.4,237.3,83.4,214,83.4,214z"/>
	<path class="st5" d="M99.9,125.7c0,0-0.9,4.8-8.9,4.8c-8,0.1-9.4-4.9-9.4-4.9s-15.1,2.4-16.2,4.9c-1.1,2.5-14.1,34.9-14.7,44.4
		c-0.6,9.5,5.2,8.5,8,8.5c0,0,1.2,3.6,1.4,5.7c0.2,2.1-1,18.6-0.4,20.5c0,0,42.7-0.6,46.8-1.3c0,0,5.8-24.3,6.7-27.5
		c0,0,5-3.6,8-27.1s-1-25.8-1-25.8s-5.3-4.5-20.3-3.7C99.8,124.3,100.2,125.1,99.9,125.7z"/>
	<path class="st14" d="M60.3,184.2c0,0,3.6,14.7,1.7,18.9c0,0,30.3,0.8,37.8-5.7s5.8-11.9,5.8-11.9s-8.5-1.7-10.2-3.6
		C95.4,181.8,88.9,185.3,60.3,184.2z"/>
	<path class="st14" d="M82.1,128.1c0,0-12.6,3-13.5,6.5s1.2,11.1,0.7,15.1c-0.5,3.6-2.9,11.8-3.4,13.4c-0.1,0.2,4.5,1.1,7.1,1.7
		c2.5,0.6,26.2,2.6,26.2,2.6s6.3-20.4,8.8-25.5s4.7-11.7,0.2-13.8c-4.5-2.1-7.4-1.7-7.4-1.7C100.4,128.8,93,137.1,82.1,128.1z"/>
	<path class="st11" d="M73,164.8l-6.4-1.4l-1.7,6c0,0,2.9,0.8,3.2,1.6c0.3,0.8,3.3,0.3,3.8,0C72.5,170.7,73.1,168.3,73,164.8z"/>
	<path class="st11" d="M99.2,167.4c0,0,4.6-4.5,7.3-4.8c2.7-0.3,6.2,3.1,6.2,4.8s-4.4,2.3-5.8,2.5c-1.5,0.2-2.4-2.1-4-1.6
		C101.3,168.8,99.2,167.4,99.2,167.4z"/>
	<path class="st15" d="M73.5,89.2c0,0,4.2-1.4,6.7-0.8l1.3-2.3c0,0-6.9,0.2-8.1,1.1C73.4,87.3,73.3,88.9,73.5,89.2z"/>
	<path class="st15" d="M86.4,86.2L86.1,89c0,0,5.8,0,6.4,1.7l1.7-1.9C94.2,88.8,91.6,86.6,86.4,86.2z"/>
	<g>
		<path class="st16" d="M86,94.3c0,0,3.2-3.8,5.4,0"/>
		<path class="st16" d="M74.3,93.5c0,0,0.9-1.5,2.9-1.3c1.9,0.2,2.3,1.3,2.3,1.3"/>
	</g>
	<path class="st15" d="M79,93.7c0,0.8-0.5,1.5-1.1,1.5s-1.1-0.7-1-1.5c0-0.8,0.5-1.5,1.1-1.5C78.5,92.2,79,92.9,79,93.7z"/>
	<path class="st15" d="M90.6,94.4c0,0.9-0.5,1.6-1.1,1.6s-1-0.7-1-1.6s0.5-1.6,1.1-1.6C90.1,92.8,90.6,93.5,90.6,94.4z"/>
	<path class="st17" d="M83.1,93.2c-0.2,0.2-0.4,0.5-0.5,1.1c-0.4,1.2-4.7,4.3-4.5,5.5c0.2,1.1,2.8,2.9,5.3,1.5"/>
	<path class="st5" d="M76,106.9c0,0,10.2-0.9,11.9-1.7c0,0-2.2,6.8-6,6.6C78,111.6,75.9,108.2,76,106.9z"/>
	<path class="st2" d="M76.9,107.7c0,0,8.3-0.6,10-1.5c0,0-0.6,0.3-1.4,1.2c-0.8,0.9-7.1,1.2-7.1,1.2S77.2,108.5,76.9,107.7z"/>
	<path class="st15" d="M78.7,84c0,0-8.4-6-4.5-10.1s7.6-1.3,7.6-1.3s-5.1-5-2.2-7.3c2.9-2.3,8.4,0.1,9.6,1.3c0,0-0.8-2.7,1.7-3.6
		c2.5-0.8,8.4,1.4,12.2,5.7c3.9,4.3,5.4,6.1,6.3,5.6s3.6-1,4.1,0.5c0.5,1.4-1.3,12.6-6.4,21.1c-3,6.1-4.6,7.7-5.9,7.3
		c-1.4-0.3,1.3-7.2,1-9.3c-0.3-2.1-3.6,1.1-4.9,1.9s0.4-7.3-0.3-10.2C96.3,83,88.2,80,78.7,84z"/>
	<path class="st18" d="M79.2,82.6c0,0-6.5-5.2-3.2-7.6c3.3-2.5,8-0.5,8-0.5s-5.3-7.1-2.9-8c2.4-1,7.6,1,9.4,2.7c0,0-0.9-3.5,1-4.3
		s5.9,0.7,8.1,2.7s7,8.4,8.1,8.6s3.6-1,3.9-0.1s-1.1,9.2-6,13.2s-6.1-4.5-9-6.8C93.7,80.2,86.2,78.4,79.2,82.6z"/>
	<path class="st19" d="M111.6,137.9c0,0-2.8,17.6-6.9,23.9"/>
	<path class="st19" d="M72.9,171.4c0,0,19.1,7.6,21.4,9"/>
	<path class="st19" d="M79.4,127.4c0,0,2.6,6.2,11.6,6c9-0.2,12-8.1,12-8.1"/>
	<g>
		<path class="st20" d="M76,209.7c0,0-4.2,7.5,1.6,13.3l3.6-12.4"/>
		<path class="st20" d="M90.3,210.1c0,0-1.1,8.3,10.8,7.7"/>
		<path class="st20" d="M64.1,211.3c0,0-1.7,9.2-7.7,10.7"/>
		<path class="st20" d="M67.2,242.1c0,0-21,32.7-22.5,36s0.7,1.2,0.8,1.9c0.1,0.7-1.1,1.7-1.6,2.1s0.7,0.2,0.2,5.5
			c-0.6,5.3-2.5,65.3-2.5,65.3"/>
		<path class="st20" d="M81.2,351.9c0,0,10.4-49.9,11.1-58.1c0.7-8.1,0.3-17.3,0.3-17.3l-0.8-0.7l1.7-1.6c0,0,6.6-42.3,7.4-48.2
			c0.7-5.9,1.8-14.2,0.3-16.3"/>
	</g>
	<path class="st19" d="M108.2,185.3c0,0-4.3,18.1-4.3,21.1"/>
	<path class="st21" d="M60.4,206.4c0,0,35.9-5.2,46.7-2.5"/>
	<g>
		<path class="st22" d="M83.8,352.6c-0.7,3.4-1.2,5.4-1.2,5.4l-8.1-1.7c-0.1-0.4,0-2.2,0.2-4.9L83.8,352.6z"/>
		<path class="st22" d="M35.5,353.5c0.1,2.3,0.3,3.9,0.4,4.5h7.5c0,0,0.1-1.7,0.2-4.7L35.5,353.5z"/>
	</g>
	<line class="st23" x1="42.5" y1="353.9" x2="41.5" y2="357.3"/>
	<line class="st23" x1="81.8" y1="352.9" x2="81.1" y2="356.9"/>
	<path class="st14" d="M74.4,356.9c0,0-15.2,2.7-17,7.2l26.1-0.6c0,0,0.2-2.6-1-5.6C82.6,358,76.8,356.4,74.4,356.9z"/>
	<path class="st24" d="M57.5,364.1c0,0-0.9,1-0.9,1.6h27.6c0,0,0.6-1.2-0.6-2.1L57.5,364.1z"/>
	<path class="st14" d="M56.5,365.7c0,0-0.4,1-0.3,1.5c0.1,0.5,28.5,0,28.5,0s0.3-1-0.5-1.5H56.5z"/>
	<path class="st23" d="M56.5,365.7"/>
	<path class="st14" d="M43.4,358c0,0,0.9,5,0.4,6.4L16.9,362c0,0,1.9-2.9,19-3.9C35.9,358,42.2,357.9,43.4,358z"/>
	<path class="st24" d="M43.8,364.4c0,0,0.5,0.8,0.2,1.4l-28.4-2.5c0,0,0.4-1.3,1.3-1.3L43.8,364.4z"/>
	<path class="st14" d="M43.9,365.7c0,0,0.4,0.7,0.1,1.4l-29.5-2.6c0,0,0.4-1.1,1-1.3C16.1,363,43.9,365.7,43.9,365.7z"/>
	<path class="st25" d="M42.4,359.8"/>
	<path class="st21" d="M37.6,358.1c0,0-5.9,4.5-13.9,1.7"/>
	<path class="st21" d="M43.5,359.4c0,0-5.1-0.1-7.5,3.8"/>
	<path class="st21" d="M77,356.9c0,0-10.3,7.8-15.5,4.2"/>
	<path class="st21" d="M82.8,358.4c0,0-5.5,0.3-6.4,4.8"/>
</g>
<g>
	<path class="st5" d="M956.5,204.5c0,0-5.8,13-2.8,36.6c3,23.5,9,57.6,9,66.5s0.9,52.9,0.9,52.9h8.1l5.2-124l0,0l6.2,124h8.4
		c0,0,1.5-54.2,2.1-65s5.8-52.5,6.4-62.9c0.6-10.4-0.8-18.5-3.4-27.6C996.6,205,958.5,203.9,956.5,204.5z"/>
	<path class="st14" d="M994.2,209.8c0,0-10.1,1.1-11.5,4.7c0,0-0.4,65.2,5.8,81.1c0,0,7-36.4,7.7-59.5
		C997,213,994.2,209.8,994.2,209.8z"/>
	<rect x="968.9" y="143.7" class="st2" width="18.1" height="21.4"/>
	<path class="st1" d="M992.4,103.8c0,0,2.6-8.2-5.5-11.6c-4.3-1.8-9.2-2.8-12.4-2.6c-15.2,0.7-15.6,8-15.8,9.8
		c-1.7,17,0,35.4,0,35.4s5.6,2.5,15.2,2.2c0,0-2.1-24,2.8-26.9C981.5,107.2,989.2,101.8,992.4,103.8z"/>
	<path class="st26" d="M986.9,98.5c0,0,9.7,4.1,8.9,21.1c-0.9,17.1-11.5,14.4-11.5,14.4l-0.5,10.2c0,0-3.9,0.6-5.1,2.5
		c0,0-5.1-4.1-6.1-3.7c0,0-1.1-12.6-1.2-18.3c-0.1-5.7-0.5-14.4-0.5-14.4v-1c0,0,3.6,0,9.1-3C985.3,103.3,986.9,98.5,986.9,98.5z"/>
	<path class="st27" d="M962.4,144.7c0,0-3.4-0.5-5.9,0.7c-2.5,1.3-23.2,33.1-27.1,43c-4,9.8-9.4,46.4-9.4,46.4s6.3,1.8,6.8,3
		c0,0,9.4-38.3,10.4-43.3s18.5-27.5,18.5-27.5s5.1,9.6,5,15.2c-0.1,5.6-4.2,22.3-4.2,22.3s12.8,5.2,21.3,5.3
		c8.6,0.1,18.8-4.8,18.8-4.8s-5.1-14.2-4-22.7c1.2-8.6,5.8-18.8,5.8-18.8s4,21.8,6.5,24.5c2.6,2.7,25,8.8,25,8.8s-1.4-1.9-0.8-4.1
		c0.6-2.2,3.4-4.5,3.4-4.5s-17.9-6-19.6-7.6c-1.7-1.6-5.7-16.8-7.3-24.2s-4.7-11.1-6.6-11.6c-1.9-0.5-7.3,0-7.3,0l-14.1,22.9
		L962.4,144.7z"/>
	<path class="st2" d="M982.8,110.4c0,1.7-1.6,3.1-3.5,3.1c-2,0-3.5-1.4-3.5-3.1s1.6-3.1,3.5-3.1
		C981.2,107.2,982.8,108.6,982.8,110.4z"/>
	<path class="st2" d="M993.8,110.4c0,1.7-1.5,3.1-3.3,3.1s-3.3-1.4-3.3-3.1s1.5-3.1,3.3-3.1C992.4,107.2,993.8,108.6,993.8,110.4z"
		/>
	<path class="st28" d="M980.6,110.1c0,1.2-0.9,2.3-2,2.3s-2-1-2-2.3c0-1.2,0.9-2.3,2-2.3C979.8,107.9,980.6,108.9,980.6,110.1z"/>
	<path class="st28" d="M992.1,110.1c0,1.2-0.9,2.3-2,2.3s-2-1-2-2.3c0-1.2,0.9-2.3,2-2.3C991.2,107.9,992.1,108.9,992.1,110.1z"/>
	<path class="st28" d="M986.6,103.5l-0.3,2.1c0,0,5.4-0.7,7.1,0.2C993.5,105.8,994.5,102.3,986.6,103.5z"/>
	<path class="st29" d="M986.1,111.7c0.1,1.8,1.7,4.2,3.2,5.5s-1.7,3.2-3.2,2.1"/>
	<path class="st5" d="M981.4,122.4c2.2,0.9,8.3,1.5,10.8-0.1c0,0-1,5.1-5.4,4.8C982.3,126.9,981.4,122.4,981.4,122.4z"/>
	<path class="st2" d="M982.8,123.4c0,0,4.2,1.3,8.3,0l-0.5,1c0,0-2.5,1.6-7.4,0L982.8,123.4z"/>
	<g>
		<path class="st30" d="M972.4,142.2l-3.5,1.5l6.9,8.8l2.8-5.8C978.7,146.7,974.3,142.4,972.4,142.2z"/>
		<path class="st30" d="M978.7,146.7l1.7,5.2l5.9-8.1l-2.4-1.1C983.8,142.6,979.6,144.7,978.7,146.7z"/>
	</g>
	<path class="st3" d="M962.4,143.7l2.6,10.2l3.5,0.7l-2.6,2.9l11.3,13.1l-0.8,38.8c0,0,1.2,0.7,2.8,0v-38.8l10.9-13.6l-3.2-1.5
		l4.1-1l0.7-10.7h-5.5l-8.4,20.2l-9-20.2L962.4,143.7L962.4,143.7z"/>
	<path class="st31" d="M961.8,147.3c0,0,1,9.5,3.4,12.7c2.5,3.2,10,12,10,12v33.3c0,0-13.7-0.6-14.9-2.8c-1.2-2.1,5.1-20,4.3-24.7
		c-0.9-4.7-6.1-10.7-6.4-15.1C957.8,158.2,957.2,147.9,961.8,147.3z"/>
	<path class="st31" d="M993.8,147.4c0,0-1.4,10.9-4.1,14.3c-2.7,3.4-8.3,10.5-8.3,10.5v32.6c0,0,10.6-1.1,10.9-3.8
		c0.3-2.8-4.3-20.8-3.5-25.9c0.9-5.1,6.5-7.3,7.8-13.5C998,155.2,998.1,146.5,993.8,147.4z"/>
	<path class="st31" d="M955.5,149c0,0-19.8,30.2-22.5,36.1c0,0,11.6-10.8,15.2-16C951.8,164,955.5,149,955.5,149z"/>
	<path class="st31" d="M1000.9,148.4c0,0,4.4,12.9,8.1,28.4c0,0-6.1-7.5-7.1-13C1001,158.2,1000.9,148.4,1000.9,148.4z"/>
	<path class="st31" d="M1012.7,182.2c0,0-0.6,1.7-3.4,2.2c0,0,17.2,5,19.6,5L1012.7,182.2z"/>
	<path class="st32" d="M1032.3,188.4c0,0,4.4-0.4,6.5-1.6c2.1-1.3,4.4-4.6,6.1-5.7c1.7-1.2-0.1,3.6-1.1,4.7c-1,1.1-1.6,1.8-1.6,1.8
		s5.4,1.7,5.6,3.5s-4.4,8.8-7,8.8s-7.7-4.2-11.2-3.7C1029.6,196.1,1026.8,192.2,1032.3,188.4z"/>
	<path class="st26" d="M1047.8,191c0-0.3-0.3-0.7-0.6-1c-2.7-0.3-7-0.6-8.4,0.3c-2.1,1.4-1.3,6.4-0.4,7.8c0.4,0.6,1,1.1,1.8,1.6
		c0.2,0,0.4,0.1,0.6,0.1C1043.4,199.8,1048,192.8,1047.8,191z"/>
	<path class="st26" d="M926.4,237.3c0,0,0,5.7-1.2,8.6c-1.3,2.9-9.5-0.9-10.9-2.8c0,0,1.8-2.9,4.3-4.9c2.5-2.1,2.3-3.2,2.3-3.2
		S925.8,236.3,926.4,237.3z"/>
	<path class="st33" d="M983.1,360.5c0,0-0.7,6.1,0.4,6.6c1,0.4,19.7,0.1,25,0c0.9,0,0.8-0.4,0-0.9c-2.2-1.4-3.7-3.3-10.1-4.4
		c-2.8-0.5-6.6-0.7-7-1.3L983.1,360.5L983.1,360.5z"/>
	<path class="st33" d="M972,360.5c0,0,0.7,6.1-0.4,6.6c-1,0.4-19.7,0.1-25,0c-0.9,0-0.8-0.4,0-0.9c2.2-1.4,6.3-3.9,8.3-4.2
		c2.8-0.3,8.4-0.8,8.7-1.5H972z"/>
	<line class="st34" x1="978.7" y1="146.7" x2="977.9" y2="162.8"/>
	<path class="st35" d="M974.9,109.4c0,0,2-2,4.1-1.9c2.2,0.1,4,1.4,4,1.4"/>
	<path class="st36" d="M986.5,109.4c0,0,1.8-2,3.8-1.9s3.7,1.4,3.7,1.4"/>
	<path class="st37" d="M972,107.9h14.2c0,0-1.1,7.6-7.1,7.6S972,107.9,972,107.9z"/>
	<path class="st37" d="M986.1,107.9h14.2c0,0-1.1,7.6-7.1,7.6C987.3,115.5,986.1,107.9,986.1,107.9z"/>
	<path class="st8" d="M984.8,96.1c0,0-4.1,10.6-17.6,8.8C967.2,105,979,103.2,984.8,96.1z"/>
	<path class="st8" d="M980.6,95.6c0,0-4.3,6.5-13.4,6.5C973.8,100,980.6,95.6,980.6,95.6z"/>
	<path class="st8" d="M967.2,109.4c0.4,0.2-0.8,12.4,2.3,27.7c0,0-5.3-0.6-7.1-1s-1.8-31.3-0.9-34.9
		C962.5,97.6,961.9,107.3,967.2,109.4z"/>
</g>
</svg>
