<?xml version="1.0" encoding="UTF-8" standalone="no"?>
<!-- Created with Inkscape (http://www.inkscape.org/) -->

<svg
   xmlns:dc="http://purl.org/dc/elements/1.1/"
   xmlns:cc="http://creativecommons.org/ns#"
   xmlns:rdf="http://www.w3.org/1999/02/22-rdf-syntax-ns#"
   xmlns:svg="http://www.w3.org/2000/svg"
   xmlns="http://www.w3.org/2000/svg"
   xmlns:sodipodi="http://sodipodi.sourceforge.net/DTD/sodipodi-0.dtd"
   xmlns:inkscape="http://www.inkscape.org/namespaces/inkscape"
   width="250.76678mm"
   height="101.58271mm"
   viewBox="0 0 888.54373 359.93874"
   id="svg15217"
   version="1.1"
   inkscape:version="0.91 r13725"
   sodipodi:docname="quote.svg">
  <defs
     id="defs15219">
    <clipPath
       clipPathUnits="userSpaceOnUse"
       id="clipPath11548">
      <path
         d="m 1476.597,4616.139 16.898,-24.147 -16.898,-24.083 4.124,-2.86 20.555,26.144 0,1.796 -20.555,26.011 -4.124,-2.861 z m -23.948,0 16.897,-24.147 -16.897,-24.083 4.058,-2.86 20.555,26.144 0,1.796 -20.555,26.011 -4.058,-2.861 z"
         id="path11550"
         inkscape:connector-curvature="0" />
    </clipPath>
    <linearGradient
       x1="0"
       y1="0"
       x2="1"
       y2="0"
       gradientUnits="userSpaceOnUse"
       gradientTransform="matrix(48.628071,0,0,-48.628071,1452.6487,4592.0249)"
       spreadMethod="pad"
       id="linearGradient11556">
      <stop
         style="stop-opacity:1;stop-color:#47c0b8"
         offset="0"
         id="stop11558" />
      <stop
         style="stop-opacity:1;stop-color:#47c0b8"
         offset="0.0393917"
         id="stop11560" />
      <stop
         style="stop-opacity:1;stop-color:#47d2b1"
         offset="0.348613"
         id="stop11562" />
      <stop
         style="stop-opacity:1;stop-color:#47d2b1"
         offset="0.4222168"
         id="stop11564" />
      <stop
         style="stop-opacity:1;stop-color:#12b56a"
         offset="1"
         id="stop11566" />
    </linearGradient>
    <clipPath
       clipPathUnits="userSpaceOnUse"
       id="clipPath4292">
      <path
         d="m 814.39,4826.856 20.622,26.144 4.057,-2.86 -16.896,-24.148 16.896,-24.082 -4.057,-2.86 -20.622,26.011 0,1.795 z m -23.949,0 20.556,26.144 4.124,-2.86 -16.896,-24.148 16.896,-24.082 -4.124,-2.86 -20.556,26.011 0,1.795 z"
         id="path4294"
         inkscape:connector-curvature="0" />
    </clipPath>
    <linearGradient
       x1="0"
       y1="0"
       x2="1"
       y2="0"
       gradientUnits="userSpaceOnUse"
       gradientTransform="matrix(48.628071,0,0,-48.628071,790.44141,4826.0249)"
       spreadMethod="pad"
       id="linearGradient4300">
      <stop
         style="stop-opacity:1;stop-color:#47c0b8"
         offset="0"
         id="stop4302" />
      <stop
         style="stop-opacity:1;stop-color:#47c0b8"
         offset="0.0393917"
         id="stop4304" />
      <stop
         style="stop-opacity:1;stop-color:#47d2b1"
         offset="0.348613"
         id="stop4306" />
      <stop
         style="stop-opacity:1;stop-color:#47d2b1"
         offset="0.4222168"
         id="stop4308" />
      <stop
         style="stop-opacity:1;stop-color:#12b56a"
         offset="1"
         id="stop4310" />
    </linearGradient>
  </defs>
  <sodipodi:namedview
     id="base"
     pagecolor="#ffffff"
     bordercolor="#666666"
     borderopacity="1.0"
     inkscape:pageopacity="0.0"
     inkscape:pageshadow="2"
     inkscape:zoom="0.35"
     inkscape:cx="-320.72812"
     inkscape:cy="291.39795"
     inkscape:document-units="px"
     inkscape:current-layer="layer1"
     showgrid="false"
     fit-margin-top="0"
     fit-margin-left="0"
     fit-margin-right="0"
     fit-margin-bottom="0"
     inkscape:window-width="1366"
     inkscape:window-height="718"
     inkscape:window-x="0"
     inkscape:window-y="24"
     inkscape:window-maximized="1" />
  <metadata
     id="metadata15222">
    <rdf:RDF>
      <cc:Work
         rdf:about="">
        <dc:format>image/svg+xml</dc:format>
        <dc:type
           rdf:resource="http://purl.org/dc/dcmitype/StillImage" />
        <dc:title></dc:title>
      </cc:Work>
    </rdf:RDF>
  </metadata>
  <g
     inkscape:label="Layer 1"
     inkscape:groupmode="layer"
     id="layer1"
     transform="translate(-261.44241,-463.8214)">
    <text
       y="527.97052"
       x="343.39117"
       style="font-variant:normal;font-weight:normal;font-stretch:normal;font-size:40px;font-family:'Open Sans','Helvetica',sans-serif;-inkscape-font-specification:OpenSans;writing-mode:lr-tb;fill:#4d4d4d;fill-opacity:1;fill-rule:nonzero;stroke:none"
       id="text4274">
      <tspan
         x="343.39117 372.55115 397.07117 422.43115 445.19116 467.63116 486.31116 496.11115 506.51117 528.71112 539.11115 564.43115 587.27118 609.71112 630.47113 649.51117 671.95111 697.31116 707.99115 718.39117 742.87115 765.11115 785.87115 798.7511 817.43115 841.59113 851.99115 876.51111 898.7511 918.07111 928.47113 951.35114 975.87115 996.03113 1013.1511"
         y="527.97052"
         sodipodi:role="line"
         id="tspan4276">Привет, я Алексей! Как-то раз друг</tspan>
      <tspan
         x="343.39117 367.91116 390.15115 409.19116 428.23117 448.99115 471.23117 490.55115 512.79114 535.63116 546.03113 575.43115 600.79114 623.23114 633.63116 657.79114 668.19116 693.55115 717.71112 740.47113 764.63116 789.99115 800.39111 823.15112 845.39111 866.15112 888.39111 913.7511 932.79114 958.15112 983.51117"
         y="575.97052"
         sodipodi:role="line"
         id="tspan4278">рассказал мне о новой вакансии</tspan>
      <tspan
         x="343.39117 368.63116 392.47116 414.91116 439.43115 463.27115 485.51117 510.87115 531.63116 553.87115 564.51117 574.91113 597.11115 607.51117 631.67114 650.35114 671.11115 693.95117 719.31116 740.07117 765.43115 785.59113 808.43115 827.47113 849.67114 860.07111 885.43109 895.83112 920.67114 945.19116 969.35114 1004.9511 1027.3912 1050.2312"
         y="623.97052"
         sodipodi:role="line"
         id="tspan4280">Сбербанка: я откликнулся и прошел</tspan>
      <tspan
         x="343.39117 367.55115 386.23117 410.07117 434.23114 458.75116 468.55115 478.95114 503.47116 525.71118 549.55115 573.71112 592.39117 614.63116 647.87115 658.27118 678.43115 707.87115 730.31116 740.71112 764.55115 788.71112 811.55115 835.23114 870.83112 893.27112 903.67114 920.79114 944.95111 967.83112 990.07111 1000.7112"
         y="671.97052"
         sodipodi:role="line"
         id="tspan4282">отбор, работаю уже больше года.</tspan>
      <tspan
         x="343.39117 366.47116 390.63116 415.15115 439.31116 474.91116 499.07117 508.87115 519.27112 543.59113 562.27118 586.43115 596.83118 622.07117 645.91113 668.35114 692.87115 716.71118 738.95117 764.31116 785.07111 795.47113 818.35114 840.59113 863.03113 881.71112"
         y="738.73047"
         sodipodi:role="line"
         id="tspan4284">Хорошо, что Сбербанк даёт</tspan>
      <tspan
         x="343.39117 366.15115 390.31116 409.63116 439.03116 463.19116 492.63116 517.99115 542.15112 561.19116 579.87115 603.55115 613.95117 642.55115 666.71118 691.23114 720.63116 745.99115 770.51117 794.67114 817.43115 839.67114 858.35114 882.03113 892.43115 913.1911 937.35114 966.7511 988.99109 1014.3511 1037.2312 1057.3912"
         y="786.73047"
         sodipodi:role="line"
         id="tspan4286">возможность формировать команду!</tspan>
    </text>
    <g
       transform="matrix(1.25,0,0,-1.25,-726.60884,6530.0714)"
       id="g4288">
      <g
         id="g4290"
         clip-path="url(#clipPath4292)">
        <g
           id="g4296">
          <g
             id="g4298">
            <path
               d="m 814.39,4826.856 20.622,26.144 4.057,-2.86 -16.896,-24.148 16.896,-24.082 -4.057,-2.86 -20.622,26.011 0,1.795 z m -23.949,0 20.556,26.144 4.124,-2.86 -16.896,-24.148 16.896,-24.082 -4.124,-2.86 -20.556,26.011 0,1.795 z"
               style="fill:url(#linearGradient4300);stroke:none"
               id="path4312"
               inkscape:connector-curvature="0" />
          </g>
        </g>
      </g>
    </g>
    <g
       transform="matrix(1.25,0,0,-1.25,-726.60884,6530.0714)"
       id="g11544">
      <g
         id="g11546"
         clip-path="url(#clipPath11548)">
        <g
           id="g11552">
          <g
             id="g11554">
            <path
               d="m 1476.597,4616.139 16.898,-24.147 -16.898,-24.083 4.124,-2.86 20.555,26.144 0,1.796 -20.555,26.011 -4.124,-2.861 z m -23.948,0 16.897,-24.147 -16.897,-24.083 4.058,-2.86 20.555,26.144 0,1.796 -20.555,26.011 -4.058,-2.861 z"
               style="fill:url(#linearGradient11556);stroke:none"
               id="path11568"
               inkscape:connector-curvature="0" />
          </g>
        </g>
      </g>
    </g>
  </g>
</svg>
