<?xml version="1.0" encoding="utf-8"?>
<!-- Generator: Adobe Illustrator 22.1.0, SVG Export Plug-In . SVG Version: 6.00 Build 0)  -->
<svg version="1.1" id="Layer_1" xmlns="http://www.w3.org/2000/svg" xmlns:xlink="http://www.w3.org/1999/xlink" x="0px" y="0px"
	 viewBox="0 0 341.4 335.3" style="enable-background:new 0 0 341.4 335.3;" xml:space="preserve">
<style type="text/css">
	.st0{fill:#FFFFFF;}
	.st1{fill:#046938;}
	.st2{clip-path:url(#SVGID_6_);}
	.st3{clip-path:url(#SVGID_7_);}
	.st4{fill:#511E12;}
	.st5{fill:#FECC81;}
	.st6{fill:#F47934;}
	.st7{fill:none;stroke:#C0873D;stroke-width:1.2572;stroke-linecap:round;stroke-miterlimit:10;}
	.st8{fill:none;stroke:#EC5652;stroke-width:1.6892;stroke-linecap:round;stroke-miterlimit:10;}
	.st9{fill:none;stroke:#231F20;stroke-width:1.2572;stroke-linecap:round;stroke-miterlimit:10;}
	.st10{fill:none;stroke:#A7A9AC;stroke-width:2.4328;stroke-linecap:round;stroke-miterlimit:10;}
	.st11{fill:#693516;}
	.st12{fill:none;stroke:#511E12;stroke-width:2.5143;stroke-linecap:round;stroke-miterlimit:10;}
	.st13{fill:#EBAC48;}
	.st14{fill:#EC5652;}
	.st15{fill:#F27178;}
	.st16{fill:#413E55;}
</style>
<g>
	<g>
		<g>
			<g>
				<g>
					<path class="st0" d="M107.6,52.2c0-23.8-19-43.1-42.4-43.1S22.8,28.4,22.8,52.2s19,43.1,42.4,43.1S107.6,76,107.6,52.2z"/>
				</g>
			</g>
		</g>
		<g>
			<path class="st1" d="M69.6,26.5c0.2,0.1,0.3,2.1,0.3,5.8c0,3.9-0.1,9.5-0.2,16.6c-0.2,7.1-0.3,13.3-0.5,18.4L68.9,75
				c-1.6,0.9-3,1.4-4.2,1.4c-0.7,0-1.1-0.2-1.4-0.6c-0.1,0-0.1-0.6-0.1-1.7l1.2-37.5l-9.8,13.8h-1.1c-0.7,0-1.3-0.2-1.9-0.4
				c-0.5-0.2-0.8-0.5-0.8-1s0.2-1.2,0.6-1.9l13-20c0.7-0.7,1.8-1.1,3.3-1.1C68.3,26,68.9,26.2,69.6,26.5z"/>
		</g>
	</g>
	<g>
		<g>
			<g>
				<path id="SVGID_1_" class="st0" d="M330,154.2c0,68-51.5,123.1-114.9,123.1c-63.5,0-114.9-55.1-114.9-123.1
					C100.1,86.2,151.6,31,215,31C278.5,31,330,86.2,330,154.2z"/>
			</g>
			<g>
				<defs>
					<path id="SVGID_2_" d="M330,154.2c0,68-51.5,123.1-114.9,123.1c-63.5,0-114.9-55.1-114.9-123.1C100.1,86.2,151.6,31,215,31
						C278.5,31,330,86.2,330,154.2z"/>
				</defs>
				<clipPath id="SVGID_3_">
					<use xlink:href="#SVGID_2_"  style="overflow:visible;"/>
				</clipPath>
			</g>
			<g>
				<defs>
					<path id="SVGID_4_" d="M330,154.2c0,68-51.5,123.1-114.9,123.1c-63.5,0-114.9-55.1-114.9-123.1C100.1,86.2,151.6,31,215,31
						C278.5,31,330,86.2,330,154.2z"/>
				</defs>
				<defs>
					<path id="SVGID_5_" d="M330,154.2c0,68-51.5,123.1-114.9,123.1c-63.5,0-114.9-55.1-114.9-123.1C100.1,86.2,151.6,31,215,31
						C278.5,31,330,86.2,330,154.2z"/>
				</defs>
				<clipPath id="SVGID_6_">
					<use xlink:href="#SVGID_4_"  style="overflow:visible;"/>
				</clipPath>
				<clipPath id="SVGID_7_" class="st2">
					<use xlink:href="#SVGID_5_"  style="overflow:visible;"/>
				</clipPath>
				<g class="st3">
					<path class="st4" d="M185.7,72.1c0,0,3.8-10.1,10.5-12.8c9.6-3.8,34.4-4.6,44.3,5.3c9.6,9.7,10.1,29,7.8,32.9s6.8,5.8,5.6,13.7
						c-1.1,8,2.4,12.7,5,20s-1.2,18.8-3.3,25.6c-2.1,6.8,5.1,3,6.4,11.2c1.3,8.2,1.2,14.5-1.7,17.6c0,0-6.4,2.1-14.1,1
						c-7.7-1.1-48.8-1.1-58.5,0s-15.6-3.9-19.7-7.7c-4.1-3.9-0.8-12,0.1-22.1c1-10.1-1.2-12.4-4.6-17.2c-3.4-4.8,4.4-21.1,5.5-28.7
						c1.2-7.6-3.9-6.8-1.3-12c2.6-5.2,4.2-3.9,5.1-8.5c0.9-4.6-0.4-8.3,2.1-11.6C177.9,75.7,182.5,70.8,185.7,72.1z"/>
					<path class="st5" d="M189.8,75.3c0,0-13.3,10.1-14,18.3s-1.8,28.9-0.4,36.7c1.4,7.8,9.9,24.1,18.6,25.1l3.3-0.1
						c0,0,1.3,15.1-0.1,16.7l10,6.1l13.4-6c0,0,1.3-29,3.4-38.5c2.1-9.5,0.8-31.3,0.8-31.3S200.6,93.5,189.8,75.3z"/>
					<path class="st0" d="M220.6,172.2l-13.4,6l-10-6.1c0,0-2.8,7-6.3,7.3c0,0,14.5,114.8,10.9,135.6c0,0,14.2,0.1,12.2,0.3
						c-2,0.1,4.9-117.5,10.1-134.3C224.2,180.9,222,175.7,220.6,172.2z"/>
					<path class="st6" d="M191,179.3c0,0-23.5,0-32,2.3c-8.4,2.3-13,36.9-18.6,61.1c-5.6,24.1,8.4,29.4,8.4,29.4
						s15.5-51.7,18.8-58.2c0,0,3.3,15.4,3.5,38.2s-4.5,73.4-4.5,73.4l33.2-2.4l2-8.2C201.9,314.8,204.6,254.4,191,179.3z"/>
					<path class="st6" d="M272.9,273.9c-10-13.1-21.4-63-25.3-64.3c-3.9-1.3-9.4,83.8-3.4,105.6c0,0-23.6,4.8-31.3,2.3
						c0,0-2-55.7,11.1-139.1c0,0,23.8-0.2,29.4,2.2c5.6,2.4,37.5,82.2,38.5,82.4L272.9,273.9z"/>
					<path class="st7" d="M200,97.3c0.3,0.8-1.1,17.4-9.1,24.2c0,0,2.2,3.1,7.5,3.9"/>
					<path class="st8" d="M207.5,131.5c0,0,1.2,5.5-5,6.7c-6.3,1-10.1-1.5-11.8-4"/>
					<path class="st0" d="M207,108.3c0.2,2.7,3.2,4.7,6.8,4.5c3.6-0.3,6.3-2.7,6.1-5.4c-0.2-2.7-3.2-4.7-6.8-4.5
						S206.8,105.5,207,108.3z"/>
					<path class="st0" d="M182.4,108.7c0.2,2.7,3.2,4.7,6.6,4.4c3.5-0.2,6.1-2.6,5.9-5.3c-0.2-2.7-3.2-4.7-6.6-4.4
						C184.9,103.7,182.3,106,182.4,108.7z"/>
					<path class="st4" d="M209,108c0.2,2.5,1.8,4.5,3.5,4.3c1.8-0.1,3.1-2.3,2.9-4.8c-0.2-2.5-1.8-4.4-3.5-4.3
						C210.1,103.4,208.8,105.5,209,108z"/>
					<path class="st4" d="M183.6,108.5c0.2,2.5,1.8,4.4,3.5,4.2c1.8-0.1,3.1-2.2,2.9-4.7c-0.2-2.5-1.8-4.4-3.5-4.2
						C184.8,103.9,183.5,106,183.6,108.5z"/>
					<path class="st9" d="M221.3,105.9c0,0-2.5-3.5-7.8-3.1c-5.4,0.4-7.9,3.3-7.9,3.3"/>
					<path class="st9" d="M195.8,105.9c0,0-2.4-3.2-7.4-3c-5.1,0.3-7.6,3.4-7.6,3.4"/>
					<line class="st10" x1="206.1" y1="182.2" x2="207.6" y2="314.4"/>
					<path class="st11" d="M196.3,63.5c0-4.2,28-2,28-2c7.7,1.6,22.2,13.1,20.1,32.6c-2.1,19.5,3.6,10.7,4.9,19.3
						c1.2,8.7-5.2,8.6,1.7,15.8c6.8,7.1-5.4,22.2-4.4,27.8c1,5.5,7,2.7,8.9,17.5c0.3,2.5-30.1-19.1-27.9-40.9
						c2.2-21.8,4.7-31.1-5-37.9C212.9,88.8,196.2,83.2,196.3,63.5z"/>
					<path class="st11" d="M170.7,117.4c0,0-5.4,13.9-4.1,17.9c1.2,4,8.4,15,6.9,20.7s-3.4,15-1.3,17.8c0.9,1.2,4.8,3,7.9,1.2
						c10.2-6,2-19.3-2.5-28.9C173,136.4,170.4,130.4,170.7,117.4z"/>
					<path class="st12" d="M201.1,66c0,0,8,19.1,29.7,29.1"/>
					<path class="st12" d="M218.5,66.6c0,0,5,8.5,13.6,11.6"/>
					<path class="st11" d="M193,93.6c0,0-7.6-2.9-15.3,2.6c0,0,4.3-9.3,14.3-5.5C192.1,90.7,193.8,90.7,193,93.6z"/>
					<path class="st13" d="M178.9,181.6l-9.1,0.7c0,0,8.3,35.9,9.1,63.2c0.7,27.3-4.8,69.7-4.8,69.7h23.4
						C197.4,315.2,197.3,203.6,178.9,181.6z"/>
					<path class="st13" d="M248.3,182.6l-17.3-0.2c0,0-5.1,40.6-8.4,61.8c-3.3,21.2-7.4,61.4-5.8,66c1.6,4.6,20.8,2,20.8,2
						S229.1,208.2,248.3,182.6z"/>
					<path class="st13" d="M159.3,185.5c0,0-17.9,62.3-17.6,66.2c0.3,3.9,4.9,11.1,4.9,11.1s17.9-47.5,18.1-52.2
						C164.9,205.9,165.9,192.7,159.3,185.5z"/>
					<path class="st12" d="M208.4,65.4c0,0,8.3,16.1,24.5,22.9"/>
				</g>
			</g>
		</g>
		<path class="st14" d="M269.1,273.2c1.5,0.8-50.8-44.7-38.6-67.6c12.7-23.9,39.2,13.8,39.2,13.8s7.8-34.6,35.1-20.7
			C331.5,212.3,269.1,273.2,269.1,273.2z"/>
		<path class="st15" d="M269.3,262.7c1.2,0.6-40.1-32.6-30.5-49.4c10-17.5,31,10.1,31,10.1s6.2-25.2,27.7-15.1
			C318.7,218.2,269.3,262.7,269.3,262.7z"/>
		<g>
			<g>
				<g>
					<path class="st0" d="M0.7,278c9.8,0.3,17.5,7.4,26.9,9.3c6.7,1.4,13.2,0.8,19.6-1.8c8-3.3,15.5-7.3,24.6-5.7
						c8.2,1.4,14.6,6.9,22,10.3c5.2,2.4,12.7,4.6,18.1,1.8c7.7-3.9,10.3-15.3,21-9c3,1.8,5.4,4.4,8.3,6.3c2.9,1.9,5.7,2.3,9.1,2.4
						c7.1,0.1,13.4-2.6,20-4.8c5.1-1.7,10.8-3.2,16.3-2.7c4.7,0.4,8.8,3.3,13.4,4.2c10.9,2.1,19.7-5.4,30.2-5.8
						c1.2,0,1.7-1.5,0.2-1.4c-9.8,0.4-18.1,7.3-28.1,6.1c-4.6-0.6-8.4-3.2-12.8-4.3c-3.7-0.9-8-0.2-11.7,0.5
						c-7.5,1.4-14.3,5.3-21.9,6.5c-4.4,0.7-9.2,0.7-13-1.8c-3.2-2.1-5.9-5.1-9.4-6.9c-4.8-2.5-10.3-2-14.4,1.5
						c-2.6,2.2-4.3,5.5-7.2,7.4c-4.6,3.1-11.4,1-16.1-1c-6.6-2.9-12.4-7.6-19.3-9.8c-6.7-2.1-13.7-1.5-20.2,0.8
						c-8.5,2.9-15.1,7.4-24.6,6.3c-10.8-1.3-19.3-9.5-30.2-9.8C0.5,276.5-0.8,278,0.7,278L0.7,278z"/>
				</g>
				<g>
					<path class="st0" d="M256.1,306.8c-12.5,5-24.2-4.5-36.5-6c-3-0.4-5.1,0-7.8,1.5c-3.5,1.9-6.5,4-10.7,4.1
						c-3.8,0.1-7-1-10.4-2.4c-7.7-3.1-12.9-4.3-20.5-0.5c-3.8,1.9-7.3,4.4-11.1,6.4c-6.7,3.5-12.1,2.7-17-3c-0.5-0.5-2.5,0.2-2,0.8
						c5.7,6.7,12.4,6.9,19.8,3.1c4.7-2.4,9-5.8,14-7.7c7.4-2.8,13.4,2.1,20.3,3.9c3.8,1,7.5,1.3,11.3-0.1c2.5-0.9,4.6-2.6,7-3.6
						c4.9-2.1,9.3-0.7,14.1,0.8c10.1,3.2,19.7,7.8,30.2,3.7C258.4,307.1,257.1,306.5,256.1,306.8L256.1,306.8z"/>
				</g>
			</g>
			<g>
				<g>
					<path class="st0" d="M339.9,101.6c0.5-15.9-8-30.4-18.3-41.9c-10.4-11.6-23.6-21.5-38.3-27c-0.8-0.3-2.5,0.9-1.3,1.3
						c14.4,5.4,27.4,15.2,37.6,26.6c10.1,11.3,18.6,25.6,18.1,41.2C337.7,102.9,339.9,102.5,339.9,101.6L339.9,101.6z"/>
				</g>
				<g>
					<path class="st0" d="M333.5,44.3c-5.5-8.3-14.1-15-23.5-18.6c-0.6-0.2-2.2,0.7-2.1,0.7c9.3,3.6,17.9,10.2,23.4,18.5
						C331.7,45.4,333.7,44.5,333.5,44.3L333.5,44.3z"/>
				</g>
				<g>
					<path class="st0" d="M87.3,109.7c-8.1,14.2-4.6,31.6-3.8,47.1c0,0.8,2.2,0.3,2.2-0.6c-0.7-15.2-4.3-32.4,3.7-46.4
						C89.9,108.9,87.7,109,87.3,109.7L87.3,109.7z"/>
				</g>
				<g>
					<path class="st0" d="M68,133c-2.5,4.6-2.1,9.9-1.9,15c0,0.7,2.2,0.3,2.2-0.6c-0.2-4.8-0.6-10,1.8-14.3
						C70.5,132.2,68.3,132.4,68,133L68,133z"/>
				</g>
			</g>
		</g>
		<g>
			<g>
				<path class="st0" d="M251.6,259c-2.2,4.1-5.1,7.7-7.3,11.7c-0.1,0.2,1.4,0.1,1.6-0.3c2.2-4.1,5.1-7.7,7.3-11.7
					C253.4,258.5,251.8,258.6,251.6,259L251.6,259z"/>
			</g>
			<g>
				<path class="st0" d="M249.4,250.8c0.7,0,1.7-1,0.6-1C249.3,249.8,248.3,250.8,249.4,250.8L249.4,250.8z"/>
			</g>
			<g>
				<path class="st0" d="M250.4,249.9c-5.2-2.7-9.8-3.3-15.4-1.6c-1,0.3-0.8,1,0.2,0.7c5.2-1.5,9.2-0.7,13.9,1.6
					C249.5,250.9,251,250.3,250.4,249.9L250.4,249.9z"/>
			</g>
			<g>
				<path class="st0" d="M265.9,234.2c-3.3-4.6-6.3-9.5-9.3-14.3c-0.2-0.4-1.7,0.3-1.6,0.4c3,4.8,5.9,9.7,9.3,14.3
					C264.5,235,266,234.3,265.9,234.2L265.9,234.2z"/>
			</g>
			<g>
				<path class="st0" d="M278.2,228.9c4.5-6.2,9.5-12,14.9-17.3c0.4-0.4-1.2-0.2-1.5,0.1c-5.4,5.3-10.5,11.1-14.9,17.3
					C276.4,229.5,278,229.3,278.2,228.9L278.2,228.9z"/>
			</g>
			<g>
				<path class="st0" d="M288.3,236.8c7.6-3.6,15.1-3.1,22.5,0.5c0.4,0.2,1.9-0.4,1.3-0.7c-8.3-4-16.5-4.1-24.8-0.2
					C286.3,236.9,287.8,237.1,288.3,236.8L288.3,236.8z"/>
			</g>
		</g>
		<g>
			<path class="st0" d="M318.8,266.4c-0.6-1.8,0.4-3.6,2.1-4.2s3.6,0.4,4.1,2.2l7.2,22.2c1.8,5.4,2.3,21.3,2.4,29.5L297.9,328
				c-2.3-2.4-6.4-6.7-8.4-8.5c-2.9-2.6-6.7-5.7-10.6-8.9c-5.2-4.2-11.2-9-16.8-14.2c-1.5-1.4-3.1-3.3-2.2-5c0.4-0.8,1.1-1.3,1.9-1.6
				c0.8-0.3,1.7-0.2,2.5,0.2l17.2,10.3c1.2,0.7,2.8,0.6,3.9-0.3s1.6-2.4,1.1-3.7l-15.2-47c-0.6-1.8,0.4-3.6,2.1-4.2
				c1.7-0.6,3.6,0.4,4.1,2.2l9.8,30.3c0.6,1.8,2.5,2.8,4.3,2.2c1.8-0.6,2.8-2.5,2.2-4.3l-3.4-10.5c-0.6-1.8,0.4-3.6,2.1-4.2
				s3.6,0.4,4.1,2.2l4.8,14.8c0.6,1.8,2.5,2.8,4.3,2.2c1.8-0.6,2.8-2.5,2.2-4.3l-3.4-10.5c-0.6-1.8,0.4-3.6,2.1-4.2
				c1.7-0.5,3.6,0.4,4.1,2.2l4.8,14.8c0.6,1.8,2.5,2.8,4.3,2.2c1.8-0.6,2.8-2.5,2.2-4.3L318.8,266.4L318.8,266.4z"/>
			<path class="st16" d="M318.8,255.8c-1.3,0.4-2.5,1.1-3.5,2c-2.6-3.1-6.9-4.5-10.9-3.2c-1.5,0.5-2.8,1.3-3.9,2.3
				c-2.6-2.6-6.5-3.7-10.2-2.5c-1.1,0.4-2.1,0.9-2.9,1.5l-3.4-10.7c-1.7-5.3-7.4-8.3-12.7-6.6c-5.3,1.7-8.2,7.4-6.5,12.8l12.4,38.3
				l-9.5-5.7c-0.1,0-0.1-0.1-0.2-0.1c-2.4-1.2-5.2-1.5-7.7-0.6l0,0c-2.6,0.8-4.7,2.6-5.9,5c-2.2,4.2-0.8,9,3.7,13.1
				c5.8,5.3,11.9,10.2,17.2,14.5c3.9,3.1,7.6,6.1,10.4,8.6c2.4,2.2,9.4,9.6,9.5,9.7c0.9,1,2.3,1.3,3.5,0.9l41.1-13.3
				c1.4-0.5,2.4-1.8,2.4-3.3c0-2.6-0.1-25.9-2.7-34.1l-7.2-22.2C329.8,257,324.1,254.1,318.8,255.8L318.8,255.8z M318.8,266.4
				c-0.6-1.8,0.4-3.6,2.1-4.2s3.6,0.4,4.1,2.2l7.2,22.2c1.8,5.4,2.3,21.3,2.4,29.5L297.9,328c-2.3-2.4-6.4-6.7-8.4-8.5
				c-2.9-2.6-6.7-5.7-10.6-8.9c-5.2-4.2-11.2-9-16.8-14.2c-1.5-1.4-3.1-3.3-2.2-5c0.4-0.8,1.1-1.3,1.9-1.6c0.8-0.3,1.7-0.2,2.5,0.2
				l17.2,10.3c1.2,0.7,2.8,0.6,3.9-0.3s1.6-2.4,1.1-3.7l-15.2-47c-0.6-1.8,0.4-3.6,2.1-4.2c1.7-0.6,3.6,0.4,4.1,2.2l9.8,30.3
				c0.6,1.8,2.5,2.8,4.3,2.2c1.8-0.6,2.8-2.5,2.2-4.3l-3.4-10.5c-0.6-1.8,0.4-3.6,2.1-4.2s3.6,0.4,4.1,2.2l4.8,14.8
				c0.6,1.8,2.5,2.8,4.3,2.2c1.8-0.6,2.8-2.5,2.2-4.3l-3.4-10.5c-0.6-1.8,0.4-3.6,2.1-4.2c1.7-0.5,3.6,0.4,4.1,2.2l4.8,14.8
				c0.6,1.8,2.5,2.8,4.3,2.2c1.8-0.6,2.8-2.5,2.2-4.3L318.8,266.4L318.8,266.4z"/>
		</g>
	</g>
</g>
</svg>
