<?xml version="1.0" encoding="utf-8"?>
<!-- Generator: Adobe Illustrator 22.1.0, SVG Export Plug-In . SVG Version: 6.00 Build 0)  -->
<svg version="1.1" id="Layer_1" xmlns="http://www.w3.org/2000/svg" xmlns:xlink="http://www.w3.org/1999/xlink" x="0px" y="0px"
	 viewBox="0 0 337.5 366.7" style="enable-background:new 0 0 337.5 366.7;" xml:space="preserve">
<style type="text/css">
	.st0{fill:#FFFFFF;}
	.st1{fill:#046938;}
	.st2{fill:#FECC81;}
	.st3{fill:#F47934;}
	.st4{fill:#672612;}
	.st5{fill:#FED7A8;}
	.st6{fill:#EC5652;}
	.st7{clip-path:url(#SVGID_2_);}
	.st8{fill:#511E12;}
	.st9{fill:none;stroke:#C0873D;stroke-width:0.8742;stroke-linecap:round;stroke-miterlimit:10;}
	.st10{fill:none;stroke:#EC5652;stroke-width:1.1747;stroke-linecap:round;stroke-miterlimit:10;}
	.st11{fill:none;stroke:#231F20;stroke-width:0.8742;stroke-linecap:round;stroke-miterlimit:10;}
	.st12{fill:#693516;}
	.st13{fill:#413E55;}
	.st14{fill:#F27178;}
	.st15{opacity:0.37;fill:#FFFFFF;enable-background:new    ;}
	.st16{fill:#2A2641;}
</style>
<g>
	<g>
		<g>
			
				<image style="overflow:visible;opacity:0.35;enable-background:new    ;" width="295" height="298" xlink:href="BF617DB0E1FCC660.png"  transform="matrix(0.3804 0 0 0.3804 9.2095 9.773971e-02)">
			</image>
			<g>
				<g>
					<path class="st0" d="M103.1,52.2c0-23.8-19-43.1-42.4-43.1S18.3,28.4,18.3,52.2s19,43.1,42.4,43.1
						C84.2,95.3,103.1,76,103.1,52.2z"/>
				</g>
			</g>
		</g>
		<g>
			<path class="st1" d="M50.6,36.2c0-1.2,0.1-2.2,0.4-3.3c0.3-1,0.8-2.1,1.5-3.2s1.9-2,3.4-2.7s3.4-1,5.6-1c2.4,0,4.6,0.7,6.7,2.2
				c2,1.4,3.1,3.8,3.1,7.2c0,5.9-2.8,13-8.5,21.6c-1.1,1.7-4,6.6-8.8,14.6c3.8,0,6.8,0,9.1,0s3.8,0,4.5,0h1.2c1.8,0,2.7,0.6,2.7,1.7
				c0,0.7-0.2,1.3-0.7,1.7c-0.5,0.4-1.1,0.6-1.8,0.6c-1.4,0-4.7,0-9.7,0.1s-7.7,0.1-8.1,0.1c-0.9,0-1.7-0.2-2.4-0.6s-1.1-1-1.3-1.7
				c0-0.8,0.1-1.6,0.5-2.3c0.3-0.7,0.7-1.4,1.3-2.2c0.6-0.7,0.9-1.3,1.1-1.8c0.4-0.7,1.2-2,2.4-3.9C54,61.4,55,60,55.6,59
				c6.6-10,9.9-17.7,9.9-23.3c0-3.8-1.6-5.8-4.8-5.8c-0.7,0-1.3,0.1-1.9,0.4c-0.6,0.3-1.3,1-2,2.2c-0.7,1.2-1.1,2.8-1.3,4.8V38
				c-0.1,0.5-0.4,1-0.9,1.4c-0.5,0.5-1.1,0.7-1.8,0.7c-0.6,0-1.2-0.3-1.8-0.8L50.6,36.2z"/>
		</g>
	</g>
	<g>
		<g>
			<polygon class="st2" points="35.2,180.5 48.2,181.2 49.2,163.8 36.1,163.1 			"/>
			<path class="st3" d="M65.2,209.3H18.6l-0.3-24.1c0.2-5.3,4.3-9.5,9.3-9.5h26c7,0,12.5,6.2,12.1,13.5L65.2,209.3z"/>
			<path class="st2" d="M31,166.5l18,0.9l2-34.4l-24.1-1.2l-0.8,10.6l-4.8,9.7l4.4,0.6l-0.5,7C25.1,163.3,27.6,166.3,31,166.5z"/>
			<path class="st4" d="M49.8,154.1c0,0,10.2-19.1,5.1-28.2c-5.2-9.1-20.5-10.8-26.3-8.1c-6.5,3-7.5,12.2-0.2,14.4s9.2,0.7,11.7,4.5
				C42.5,140.4,39.8,152.5,49.8,154.1z"/>
			<path class="st5" d="M45.1,143.8c-0.2,1.7-1.6,2.9-3.2,2.8c-1.6-0.2-2.8-1.7-2.6-3.4s1.6-2.9,3.2-2.8
				C44.1,140.6,45.3,142.1,45.1,143.8z"/>
		</g>
		<g>
			<polygon class="st2" points="258,180.5 271.1,181.2 272.1,163.8 259,163.1 			"/>
			<path class="st6" d="M288.1,208.6l-46.7,0.8l-0.3-24.1c0.2-5.3,4.3-9.5,9.3-9.5h26c7,0,12.5,6.2,12.1,13.5L288.1,208.6z"/>
			<path class="st2" d="M253.9,166.5l18,0.9l2-34.4l-24.1-1.2l-0.8,10.6l-4.8,9.7l4.4,0.6l-0.5,7
				C247.9,163.3,250.5,166.3,253.9,166.5z"/>
			<path class="st4" d="M272.6,154.1c0,0,10.2-19.1,5.1-28.2c-5.2-9.1-20.5-10.8-26.3-8.1c-6.5,3-7.5,12.2-0.2,14.4
				c7.3,2.2,9.2,0.7,11.7,4.5C265.4,140.4,262.7,152.5,272.6,154.1z"/>
			<path class="st5" d="M268,143.8c-0.2,1.7-1.6,2.9-3.2,2.8c-1.6-0.2-2.8-1.7-2.6-3.4c0.2-1.7,1.6-2.9,3.2-2.8
				C267,140.6,268.1,142.1,268,143.8z"/>
		</g>
		<g>
			<g>
				<defs>
					<circle id="SVGID_1_" cx="150" cy="173.5" r="77.7"/>
				</defs>
				<clipPath id="SVGID_2_">
					<use xlink:href="#SVGID_1_"  style="overflow:visible;"/>
				</clipPath>
				<g class="st7">
					<path class="st8" d="M130.5,127.6c0,0,2.6-7.1,7.3-8.9c6.7-2.6,23.9-3.2,30.8,3.7c6.7,6.8,7,20.2,5.5,22.9
						c-1.6,2.7,4.7,4,3.9,9.6s1.7,8.9,3.5,13.9c1.8,5.1-0.8,13.1-2.3,17.8c-1.4,4.7,3.5,2.1,4.5,7.8c0.9,5.7,0.8,10.1-1.2,12.2
						c0,0-4.4,1.5-9.8,0.7c-5.4-0.8-33.9-0.7-40.7,0c-6.7,0.8-10.8-2.7-13.7-5.4c-2.8-2.7-0.6-8.4,0.1-15.3c0.7-7-0.8-8.6-3.2-11.9
						c-2.3-3.3,3.1-14.7,3.9-20s-2.7-4.7-0.9-8.3c1.8-3.6,2.9-2.7,3.6-5.9s-0.3-5.8,1.5-8.1C125.1,130.2,128.2,126.8,130.5,127.6z"
						/>
					<path class="st2" d="M133.3,129.9c0,0-9.2,7-9.7,12.7s-1.2,20.1-0.3,25.5c1,5.4,6.9,16.8,13,17.5h2.3c0,0,0.9,10.5-0.1,11.6
						l6.9,4.3l9.3-4.1c0,0,0.9-20.2,2.4-26.8c1.4-6.6,0.5-21.8,0.5-21.8S140.8,142.5,133.3,129.9z"/>
					<path class="st0" d="M154.7,197.2l-9.3,4.1l-6.9-4.3c0,0-1.9,4.8-4.4,5.1c0,0,10.1,79.8,7.6,94.3c0,0,9.9,0.1,8.5,0.2
						s3.4-81.7,7-93.4C157.2,203.3,155.7,199.7,154.7,197.2z"/>
					<path class="st3" d="M134.2,202.2c0,0-16.4,0-22.2,1.6c-5.9,1.6-9,25.7-12.9,42.5s5.9,20.4,5.9,20.4s10.8-35.9,13.1-40.5
						c0,0,2.3,10.7,2.4,26.5s-3.1,51-3.1,51l23.1-1.7l1.4-5.7C141.7,296.5,143.6,254.4,134.2,202.2z"/>
					<path class="st3" d="M191.1,267.9c-7-9.1-14.9-43.8-17.6-44.7c-2.7-0.9-6.6,58.3-2.4,73.4c0,0-16.4,3.3-21.8,1.6
						c0,0-1.4-38.8,7.7-96.7c0,0,16.6-0.1,20.5,1.6c3.9,1.7,26.1,57.2,26.8,57.3L191.1,267.9z"/>
					<path class="st9" d="M140.4,145.1c0.2,0.6-0.8,12.1-6.3,16.8c0,0,1.5,2.1,5.2,2.7"/>
					<path class="st10" d="M145.6,168.9c0,0,0.8,3.8-3.5,4.7c-4.4,0.7-7-1-8.2-2.8"/>
					<path class="st0" d="M145.3,152.8c0.1,1.9,2.2,3.3,4.7,3.1s4.4-1.9,4.2-3.7c-0.1-1.9-2.2-3.3-4.7-3.1
						C147,149.2,145.1,150.9,145.3,152.8z"/>
					<path class="st0" d="M128.2,153.1c0.1,1.9,2.2,3.2,4.6,3.1c2.4-0.2,4.3-1.8,4.1-3.7c-0.1-1.9-2.2-3.2-4.6-3.1
						C129.9,149.6,128.1,151.2,128.2,153.1z"/>
					<path class="st8" d="M146.6,152.6c0.1,1.8,1.2,3.1,2.5,3c1.2-0.1,2.1-1.6,2-3.3s-1.2-3.1-2.5-3
						C147.4,149.4,146.5,150.9,146.6,152.6z"/>
					<path class="st8" d="M129,153c0.1,1.7,1.2,3,2.5,2.9c1.2-0.1,2.2-1.5,2-3.3c-0.1-1.7-1.2-3-2.5-2.9
						C129.8,149.8,128.9,151.2,129,153z"/>
					<path class="st11" d="M155.2,151.2c0,0-1.7-2.4-5.5-2.1c-3.7,0.3-5.5,2.3-5.5,2.3"/>
					<path class="st11" d="M137.5,151.2c0,0-1.6-2.2-5.2-2.1c-3.5,0.2-5.3,2.3-5.3,2.3"/>
					<path class="st12" d="M135.6,142.6c0,0-5.3-2.1-10.6,1.8c0,0,3-6.5,10-3.8C134.9,140.6,136.1,140.6,135.6,142.6z"/>
				</g>
			</g>
		</g>
	</g>
	<g>
		<polygon class="st13" points="221,223 246.8,242.8 227.2,268.4 197.1,245.4 		"/>
		<path class="st6" d="M244.5,233.9l-25.7,37.2c0,0,78,62.2,92.8,64.5c14.8,2.3,32.2-28.4,21.5-40.4
			C322.5,283.2,244.5,233.9,244.5,233.9z"/>
		<path class="st14" d="M247.3,243.1c0,0,78.7,41.9,80.4,55c1.6,13-8.3,26.7-19.6,25.6c-11.3-1.1-77.8-58.3-77.8-58.3L247.3,243.1z"
			/>
		<path class="st15" d="M198.7,217.7c-19.7,25.8-56.6,30.7-82.4,11s-30.7-56.6-11-82.4s56.6-30.7,82.4-11S218.4,192,198.7,217.7z"/>
		<polygon class="st16" points="241.4,238.6 238.5,236.4 219.2,262.2 223.5,265.5 		"/>
		<polygon class="st16" points="224.5,225.8 218.9,221.2 197.9,245.9 205.7,251.9 		"/>
		<path class="st13" d="M199.3,120.2c-35.3-27-85.9-20.3-113,15c-27,35.3-20.3,85.9,15,113c35.3,27,85.9,20.3,113-15
			C241.4,197.8,234.6,147.3,199.3,120.2z M110.9,235.7C82.5,214,77,173.2,98.8,144.8s62.5-33.9,90.9-12.1
			c28.5,21.8,33.9,62.5,12.1,90.9C180.1,252.1,139.4,257.5,110.9,235.7z"/>
		<path class="st0" d="M194,159.5c-3.3,4.3-9.5,5.2-13.9,1.8c-4.3-3.3-5.2-9.5-1.8-13.9c3.3-4.3,9.5-5.2,13.9-1.8
			C196.5,149,197.3,155.2,194,159.5z"/>
	</g>
	<g>
		<g>
			<path class="st0" d="M94.3,259.6c16.3,14.2,36.7,19,58,17.5c0.7,0,2.3-1.2,0.9-1.1c-20.9,1.4-40.8-3.3-56.8-17.2
				C95.8,258.3,93.8,259.2,94.3,259.6L94.3,259.6z"/>
		</g>
		<g>
			<path class="st0" d="M118.8,292.7c7.8,1.9,15.3,3.1,23.3,1.7c0.9-0.2,1.9-1.1,0.4-0.9c-7.6,1.3-14.6,0.1-21.9-1.7
				C120.1,291.7,118.1,292.5,118.8,292.7L118.8,292.7z"/>
		</g>
		<g>
			<path class="st0" d="M264.7,35.5c-8.9,9.8-3.5,23.8,7.6,28.9c5.2,2.4,10.9,1.3,14.6-3.2c6.2-7.6,8.6-27.6-2.2-32.7
				c-8-3.8-17,4.1-22.2,9.2c-0.9,0.9,1.2,0.9,1.7,0.4c4.3-4.2,11.8-11.5,18.5-8.6c4.4,1.9,6.1,7.3,6.7,11.6c1,7.6-1.5,25.8-13,23.1
				c-12-2.8-18.7-18.7-9.9-28.3C267.3,34.9,265.2,34.9,264.7,35.5L264.7,35.5z"/>
		</g>
		<g>
			<path class="st0" d="M316.2,85.8c4.2-1.4,7.3-4.3,6.4-9c-0.8-4.5-4.5-8.8-8.6-10.9c-3.2-1.6-7.3-1.6-10.2,0.7
				c-4,3.1-7,11.1-5.1,16c2.7,6.6,11.9,4.8,17.1,3.2c1.2-0.4,1.1-0.9-0.2-0.6c-5.6,1.7-14.5,2.3-15.3-5.5c-0.5-4.7,3-15.4,9.1-14.1
				c7.8,1.6,17,15.9,6,19.7C314.1,85.9,315.4,86,316.2,85.8z"/>
		</g>
		<g>
			<path class="st0" d="M42.3,8.2C31.2,6.4,21,13.6,13.9,21.4C5.5,30.6,0.7,41.8,0.1,54.2c-1.2,24.2,17,38.8,38,46.2
				c0.9,0.3,2.5-0.9,1.3-1.4C20.6,92.5,3.1,79.9,2.2,58.4c-0.4-11.1,2.7-22,9.1-31C17.9,17.9,29,7.6,41.5,9.6
				C42.5,9.8,43.7,8.4,42.3,8.2L42.3,8.2z"/>
		</g>
		<g>
			<g>
				<path class="st0" d="M14.6,358.7c6-1.4,11.8-1.3,17.8,0.1c0.6,0.1,2.5-0.8,1.4-1.1c-6.5-1.5-12.9-1.4-19.4,0.1
					C13,358,13.3,359,14.6,358.7L14.6,358.7z"/>
			</g>
			<g>
				<path class="st0" d="M66.8,357.5c6.2,1.4,12.5,1.6,18.9,1.6c1.3,0,1.7-1.6,0.2-1.6c-6.2,0-12.3-0.1-18.3-1.5
					C66.4,355.6,65.3,357.1,66.8,357.5L66.8,357.5z"/>
			</g>
			<g>
				<path class="st0" d="M214.4,354.2c7.4-1.7,15.2-1.3,22.6,0.1c1,0.2,2.2-1.2,0.8-1.5c-7.8-1.4-16-1.7-23.8,0.1
					C212.7,353.2,213,354.5,214.4,354.2L214.4,354.2z"/>
			</g>
			<g>
				<path class="st0" d="M156.5,358.8c9.5-0.1,18.8-1.6,28.1-3.1c1-0.2,1.8-1.4,0.3-1.1c-9.2,1.5-18.3,3-27.6,3.1
					C156.6,357.6,155,358.8,156.5,358.8L156.5,358.8z"/>
			</g>
			<g>
				<path class="st0" d="M112.1,360.2c6.4-1.5,13-1.5,19.6-1.5c0.7,0,2.3-1.1,0.9-1.1c-7,0-13.9,0-20.7,1.6
					C110.6,359.6,110.8,360.5,112.1,360.2L112.1,360.2z"/>
			</g>
			<g>
				<path class="st0" d="M264.6,356.7c8.4-4.6,18.8-3.9,27.7-1.2c0.5,0.2,2.4-0.6,1.8-0.8c-10.1-3.1-21.7-3.3-31.1,1.9
					C262,357.1,264.1,356.9,264.6,356.7L264.6,356.7z"/>
			</g>
			<g>
				<path class="st0" d="M299.9,341.6c2.5,3.6,10.9,4.4,14.7,5.3c7.1,1.7,14.3,3,21.5,4.2c0-0.4,0-0.9-0.1-1.3
					c-11,4.7-22,9.6-32.5,15.5c0.5,0.2,1,0.3,1.6,0.5c0-7.3-0.1-14.6,1.5-21.7c0.2-1-2-0.7-2.2,0.2c-1.6,7.1-1.5,14.4-1.5,21.7
					c0,0.7,1.1,0.7,1.6,0.5C315,360.6,326,355.8,337,351c0.8-0.3,0.8-1.2-0.1-1.3c-6.7-1.1-13.3-2.4-19.9-3.9
					c-3.1-0.7-6.2-1.5-9.3-2.4c-1.8-0.6-4.8-1.1-5.9-2.7C301.4,340,299.3,340.8,299.9,341.6L299.9,341.6z"/>
			</g>
		</g>
		<g>
			<path class="st0" d="M113.2,97.5c1.9-0.9,3.7-1.7,5.6-2.6c1.4-0.6,0.1-1.3-0.9-0.9c-1.9,0.9-3.7,1.7-5.6,2.6
				C111,97.2,112.2,97.9,113.2,97.5L113.2,97.5z"/>
		</g>
		<g>
			<path class="st0" d="M132.2,89.3c3-0.9,5.9-1.6,9-2c1.1-0.1,1.8-1.4,0.3-1.2c-3.3,0.4-6.4,1.1-9.6,2.1
				C130.6,88.6,130.9,89.7,132.2,89.3L132.2,89.3z"/>
		</g>
		<g>
			<path class="st0" d="M157.6,85.7c3.4-0.1,6.7,0.2,10,1.3c1,0.3,2.6-1.1,1.2-1.5c-3.6-1.2-7.3-1.5-11-1.4
				C156.5,84.1,156.1,85.8,157.6,85.7L157.6,85.7z"/>
		</g>
		<g>
			<path class="st0" d="M186,91c3.7,0.6,6.8,2.5,9.6,4.8c0.7,0.6,2.6-0.4,1.7-1.2c-3.1-2.5-6.5-4.4-10.5-5.1
				C185.8,89.4,184.5,90.8,186,91L186,91z"/>
		</g>
		<g>
			<path class="st0" d="M208.8,102.5c2.6,3.8,5.6,7.3,8.9,10.5c0.6,0.5,2.6-0.3,2-0.9c-3.3-3.2-6.3-6.7-8.9-10.5
				C210.4,101,208.3,101.7,208.8,102.5L208.8,102.5z"/>
		</g>
		<g>
			<path class="st0" d="M228.4,120.3c1.6,4,3.5,7.8,4.5,12c0.1,0.5,2.3-0.1,2.2-0.6c-1.1-4.2-2.9-8-4.5-12
				C230.4,119.2,228.2,119.9,228.4,120.3L228.4,120.3z"/>
		</g>
		<g>
			<path class="st0" d="M163,70.3c6.4,0.7,12.9,0.9,18.9,3.5c0.6,0.2,2.6-0.6,1.8-1c-6.2-2.7-12.8-2.9-19.3-3.6
				C163.7,69.2,161.8,70.2,163,70.3L163,70.3z"/>
		</g>
		<g>
			<path class="st0" d="M200.4,80.4c2.8,0.9,5.5,1.9,8,3.5c0.8,0.5,2.7-0.6,1.7-1.2c-2.6-1.6-5.5-2.7-8.4-3.6
				C200.8,78.7,199.1,79.9,200.4,80.4L200.4,80.4z"/>
		</g>
		<g>
			<path class="st0" d="M220,92.1c0.9,1.6,2.1,2.9,3.4,4.2c0.4,0.4,2.4-0.4,2-0.7c-1.3-1.2-2.4-2.5-3.2-4
				C221.9,91,219.9,91.8,220,92.1L220,92.1z"/>
		</g>
	</g>
</g>
</svg>
