<?xml version="1.0" encoding="utf-8"?>
<!-- Generator: Adobe Illustrator 22.1.0, SVG Export Plug-In . SVG Version: 6.00 Build 0)  -->
<svg version="1.1" id="Layer_1" xmlns="http://www.w3.org/2000/svg" xmlns:xlink="http://www.w3.org/1999/xlink" x="0px" y="0px"
	 viewBox="0 0 331.3 374.2" style="enable-background:new 0 0 331.3 374.2;" xml:space="preserve">
<style type="text/css">
	.st0{fill:#FFFFFF;}
	.st1{fill:#046938;}
	.st2{clip-path:url(#SVGID_6_);}
	.st3{clip-path:url(#SVGID_7_);}
	.st4{fill:#FECC81;}
	.st5{fill:#511E12;}
	.st6{fill:#F47934;}
	.st7{fill:none;stroke:#C0873D;stroke-width:1.3577;stroke-linecap:round;stroke-miterlimit:10;}
	.st8{fill:#EC5652;}
	.st9{fill:none;stroke:#231F20;stroke-width:1.3577;stroke-linecap:round;stroke-miterlimit:10;}
	.st10{fill:none;stroke:#A7A9AC;stroke-width:2.6273;stroke-linecap:round;stroke-miterlimit:10;}
	.st11{fill:#693516;}
	.st12{fill:none;stroke:#511E12;stroke-width:2.7154;stroke-linecap:round;stroke-miterlimit:10;}
	.st13{fill:#EBAC48;}
	.st14{fill:#2C9942;}
	.st15{fill:#68BE64;}
	.st16{fill:none;stroke:#FFFFFF;stroke-width:3.6906;stroke-miterlimit:10;}
</style>
<g>
	<g>
		<g>
			<g>
				<g>
					<path class="st0" d="M96.1,66.4c0-23.8-19-43.1-42.4-43.1S11.3,42.6,11.3,66.4s19,43.1,42.4,43.1S96.1,90.2,96.1,66.4z"/>
				</g>
			</g>
		</g>
		<g>
			<path class="st1" d="M46.3,47.7c0-2,0.8-3.8,2.3-5.4c1.5-1.6,4.2-2.4,7.9-2.4c6.1,0,9.2,3.7,9.2,11c0,7-2.3,10.7-6.9,11.1
				l0.8,0.1c0.5,0.1,1.2,0.3,2,0.8c0.8,0.4,1.6,0.9,2.4,1.6c0.8,0.6,1.4,1.7,2,3c0.5,1.4,0.8,2.9,0.8,4.7c0,6.3-0.8,10.9-2.4,14
				c-1.6,3-4.7,4.6-9.3,4.6c-3.9,0-6.6-0.8-8.2-2.5c-1.5-1.7-2.3-4.7-2.3-9.1l0.5-0.3c0.2-0.2,0.6-0.5,1.2-0.7s1.1-0.3,1.6-0.3
				c0.7,0,1.2,0.2,1.7,0.6s0.9,1.1,1,2.2s0.1,2.1,0.1,3.2c-0.1,1.1,0.2,2,0.9,2.8s1.8,1.3,3.3,1.3C59,88,61,83.8,61,75.3v-1.4
				c0-6.6-2.8-9.9-8.5-9.9c-1.1,0-1.6-0.6-1.6-1.7c0-0.7,0.3-1.2,0.8-1.4s1.2-0.3,2-0.3s1.4-0.1,1.8-0.2c0.8-0.4,1.5-0.8,2.1-1.3
				c0.5-0.5,1.1-1.5,1.7-3.2c0.6-1.7,0.9-3.8,0.9-6.4c0-1.8-0.3-3.3-1-4.6S57.4,43,55.9,43c-1.6,0-2.8,0.6-3.5,1.9s-1.1,2.6-1.1,4
				c0,0.4-0.5,0.8-1.4,1.2s-1.7,0.5-2.3,0.5c-0.5,0-0.8-0.1-1.1-0.4L46.3,47.7z"/>
		</g>
	</g>
	<g>
		<g>
			<g>
				<path id="SVGID_1_" class="st0" d="M331.3,164.6c0,73.4-55.6,133-124.1,133S83,238,83,164.6s55.6-133,124.1-133
					S331.3,91.1,331.3,164.6z"/>
			</g>
			<g>
				<defs>
					<path id="SVGID_2_" d="M331.3,164.6c0,73.4-55.6,133-124.1,133S83,238,83,164.6s55.6-133,124.1-133S331.3,91.1,331.3,164.6z"/>
				</defs>
				<clipPath id="SVGID_3_">
					<use xlink:href="#SVGID_2_"  style="overflow:visible;"/>
				</clipPath>
			</g>
			<g>
				<defs>
					<path id="SVGID_4_" d="M331.3,164.6c0,73.4-55.6,133-124.1,133S83,238,83,164.6s55.6-133,124.1-133S331.3,91.1,331.3,164.6z"/>
				</defs>
				<defs>
					<path id="SVGID_5_" d="M331.3,164.6c0,73.4-55.6,133-124.1,133S83,238,83,164.6s55.6-133,124.1-133S331.3,91.1,331.3,164.6z"/>
				</defs>
				<clipPath id="SVGID_6_">
					<use xlink:href="#SVGID_4_"  style="overflow:visible;"/>
				</clipPath>
				<clipPath id="SVGID_7_" class="st2">
					<use xlink:href="#SVGID_5_"  style="overflow:visible;"/>
				</clipPath>
				<g class="st3">
					<path class="st4" d="M300.8,174.9c0,0-9.9-19.9-11.7-26c-1.8-6.1-2-7.4-0.4-7.5s6.1,11.1,8.9,14.4c2.8,3.2,4.1-22,4.5-25.2
						c0.6-4.2,3.1-5.4,3-1.5c0,3.1-0.3,16.3,0,18.9c0,0,0.5,0.9,0.7-0.1c1.1-5.4,4.6-25.4,6.5-24.8c2.2,0.7-2.2,22.2-1.9,25.2
						c0.2,2.9,0.9,0.7,0.9,0.7s6.5-20.3,8.1-19.6c1.5,0.6-2.8,16-3,20.5c0,0.3,0.4,0.8,0.6,0.5c0.1-0.2,5.1-10.7,7.1-11.5
						c2.1-0.8-4.9,9.5-5.1,20.2c-0.2,14.2-5.4,20.8-5.4,20.8S307.2,179.3,300.8,174.9z"/>
					<path class="st5" d="M156.1,75.9c0,0,4.1-11,11.4-13.9c10.4-4.1,37.2-5,47.8,5.8c10.4,10.5,10.9,31.4,8.5,35.6
						s7.3,6.2,6.1,14.8s2.6,13.8,5.4,21.6c2.9,7.9-1.3,20.3-3.5,27.7s5.5,3.2,6.9,12.1c1.4,8.9,1.3,15.6-1.8,19
						c0,0-6.9,2.3-15.2,1.1s-52.7-1.1-63.1,0.1c-10.4,1.2-16.8-4.2-21.3-8.4c-4.4-4.2-0.9-13,0.1-23.8c1.1-10.9-1.3-13.4-4.9-18.5
						c-3.6-5.1,4.7-22.8,6-31s-4.2-7.3-1.4-12.9s4.5-4.2,5.5-9.2s-0.4-9,2.3-12.5C147.7,79.9,152.6,74.6,156.1,75.9z"/>
					<path class="st4" d="M160.5,79.4c0,0-14.3,10.9-15.1,19.7s-1.9,31.2-0.4,39.6c1.5,8.4,10.6,26,20.1,27.1l3.6-0.1
						c0,0,1.4,16.3-0.1,18l10.8,6.6l14.4-6.4c0,0,1.5-31.4,3.7-41.6c2.3-10.3,0.8-33.8,0.8-33.8S172.1,99,160.5,79.4z"/>
					<path class="st0" d="M193.7,184l-14.4,6.4l-10.8-6.6c0,0-3,7.5-6.8,7.9c0,0,15.6,124,11.7,146.4c0,0,15.4,0.1,13.2,0.3
						c-2.2,0.2,5.3-126.9,10.9-145C197.6,193.4,195.3,187.8,193.7,184z"/>
					<path class="st6" d="M161.8,191.7c0,0-25.4,0-34.5,2.5s-14,39.9-20.1,66c-6,26.1,9.1,31.7,9.1,31.7S133,236,136.6,229
						c0,0,3.6,16.6,3.8,41.2s-4.9,79.3-4.9,79.3l35.9-2.6l2.1-8.8C173.5,338.1,176.4,272.8,161.8,191.7z"/>
					<path class="st6" d="M197.4,190.6c0,0,25.7-0.2,31.8,2.4c6,2.6,42.5,30.8,43.6,31.1c6.7,2.2,28-49.2,28-49.2s10.5,0.7,12.7,4.9
						c0,0-24,68.4-33.3,73.9c-9.2,5.4-52-36-56.2-37.4s-11.2,98.6-4.8,122.1c0,0-25.5,5.1-33.8,2.4
						C185.4,340.8,183.2,280.6,197.4,190.6z"/>
					<path class="st7" d="M171.5,103.1c0.3,0.9-1.2,18.7-9.8,26.1c0,0,2.3,3.3,8.1,4.2"/>
					<path class="st8" d="M158.4,143.4c0,0,20.7,1,23.8-2.6c0,0-0.6,10.6-9.7,11.7C163.4,153.6,161,148.6,158.4,143.4z"/>
					<path class="st0" d="M179.7,143.8c0,0-7.9,2.5-18.2,1.4l1.3,1.8c0,0,7,1.2,15.9-1.2C178.7,145.8,179.2,145.1,179.7,143.8z"/>
					<path class="st0" d="M179,115c0.2,2.9,3.5,5.1,7.3,4.8c3.8-0.3,6.8-2.9,6.6-5.8s-3.5-5.1-7.3-4.8
						C181.7,109.4,178.8,112.1,179,115z"/>
					<path class="st0" d="M152.5,115.5c0.2,2.9,3.4,5,7.2,4.8c3.7-0.3,6.6-2.8,6.4-5.7c-0.2-2.9-3.4-5-7.1-4.8
						C155.2,110,152.3,112.6,152.5,115.5z"/>
					<path class="st5" d="M183.8,114.6c0.2,2.7,1.9,4.8,3.8,4.7c1.9-0.1,3.3-2.5,3.1-5.2s-1.9-4.8-3.8-4.7
						C185,109.6,183.6,111.9,183.8,114.6z"/>
					<path class="st5" d="M156.9,115c0.2,2.7,1.9,4.7,3.8,4.6c1.9-0.1,3.3-2.4,3.2-5.1c-0.2-2.7-1.9-4.7-3.8-4.6
						C158.1,110.1,156.7,112.3,156.9,115z"/>
					<path class="st9" d="M194.5,112.5c0,0-2.7-3.7-8.5-3.3c-5.8,0.4-8.6,3.5-8.6,3.5"/>
					<path class="st9" d="M166.9,112.5c0,0-2.5-3.5-8-3.2s-8.2,3.6-8.2,3.6"/>
					<line class="st10" x1="178" y1="194.8" x2="179.6" y2="337.6"/>
					<path class="st11" d="M167.5,66.6c0-4.6,30.3-2.2,30.3-2.2c8.4,1.8,24,14.1,21.7,35.2s3.9,11.5,5.3,20.9
						c1.3,9.3-5.6,9.3,1.9,17.1c7.4,7.7-5.8,24-4.7,30s7.5,2.9,9.6,18.9c0.3,2.7-32.5-20.6-30.2-44.2c2.4-23.6,5.1-33.6-5.4-40.9
						C185.4,94,167.4,87.9,167.5,66.6z"/>
					<path class="st11" d="M139.9,124.8c0,0-5.8,15-4.5,19.3s9,16.2,7.4,22.4s-3.7,16.2-1.4,19.2c1,1.3,5.2,3.3,8.6,1.3
						c11-6.5,2.1-20.8-2.7-31.3C142.3,145.3,139.5,138.9,139.9,124.8z"/>
					<path class="st12" d="M172.7,69.3c0,0,8.6,20.6,32.1,31.4"/>
					<path class="st12" d="M191.5,70c0,0,5.5,9.2,14.7,12.5"/>
					<path class="st11" d="M163.9,99.1c0,0-8.2-3.2-16.5,2.8c0,0,4.7-10,15.5-5.9C163,96.1,164.7,96.1,163.9,99.1z"/>
					<path class="st13" d="M148.7,194.2l-9.8,0.7c0,0,9,38.8,9.8,68.2c0.8,29.5-5.2,75.3-5.2,75.3h25.2
						C168.7,338.4,168.5,218,148.7,194.2z"/>
					<path class="st13" d="M223.7,195.3l-18.7-0.2c0,0-5.5,43.9-9,66.7s-8,66.3-6.3,71.3c1.7,4.9,22.5,2.2,22.5,2.2
						S203,222.9,223.7,195.3z"/>
					<path class="st13" d="M127.6,198.4c0,0-19.3,67.3-19,71.5c0.3,4.2,5.3,12,5.3,12s19.3-51.3,19.5-56.4
						C133.6,220.5,134.6,206.1,127.6,198.4z"/>
					<path class="st12" d="M180.5,68.7c0,0,8.9,17.4,26.5,24.7"/>
					<path class="st6" d="M165.6,222.5c0,7.4-5.9,13.4-13.1,13.4c-7.2,0-13.1-6-13.1-13.4s5.9-13.4,13.1-13.4
						C159.7,209.1,165.6,215.1,165.6,222.5z"/>
				</g>
			</g>
		</g>
		<g>
			<path class="st0" d="M169.8,291.6c0,24.3-19.7,44-44,44s-44-19.7-44-44s19.7-44,44-44C150.1,247.7,169.8,267.3,169.8,291.6z"/>
			<g>
				<path class="st14" d="M158.5,270.6c-0.9-1.1-1.7-2.3-2.6-3.4l-45.3,26.1l-22.1-12.6c-0.6,1.4-0.9,2.9-0.9,4.3l23.2,13.2
					L158.5,270.6z"/>
				<path class="st14" d="M110.6,303.3l-23.5-13.5c-0.3,0.9-0.3,1.7-0.3,2.6c0,21.5,17.5,39,39,39s39-17.5,39-39
					c0-6.3-1.4-12.4-4.3-17.8L110.6,303.3z"/>
				<path class="st14" d="M152.8,264c-1.1-1.1-2.3-2-3.4-2.9l-38.7,22.4L92,272.8c-0.6,1.1-1.4,2.6-2,3.7l20.4,11.8L152.8,264z"/>
				<path class="st14" d="M145.3,258.5c-1.4-0.9-2.9-1.7-4.6-2.3l-30.4,17.5L96.9,266c-0.9,0.9-1.7,2-2.9,3.2l16.4,9.5L145.3,258.5z
					"/>
			</g>
		</g>
		<g>
			<path class="st15" d="M160.8,216.5c-0.2-0.3-0.5-0.6-0.7-0.9l-11.8,6.8l-5.8-3.3c-0.2,0.4-0.2,0.7-0.2,1.1l6.1,3.5L160.8,216.5z"
				/>
			<path class="st15" d="M148.3,225l-6.1-3.5c-0.1,0.2-0.1,0.4-0.1,0.7c0,5.6,4.6,10.2,10.2,10.2c5.6,0,10.2-4.6,10.2-10.2
				c0-1.6-0.4-3.2-1.1-4.6L148.3,225z"/>
			<path class="st15" d="M159.3,214.7c-0.3-0.3-0.6-0.5-0.9-0.7l-10.1,5.8l-4.9-2.8c-0.2,0.3-0.4,0.7-0.5,1l5.3,3.1L159.3,214.7z"/>
			<path class="st15" d="M157.4,213.3c-0.4-0.2-0.7-0.4-1.2-0.6l-7.9,4.6l-3.5-2c-0.2,0.2-0.5,0.5-0.7,0.8l4.3,2.5L157.4,213.3z"/>
		</g>
		<g>
			<rect x="16.8" y="279.8" class="st16" width="33.2" height="33.2"/>
			<g>
				<path class="st1" d="M0.2,277.1c9.7,10.1,20.6,19,27.3,31.6c1.3,2.5,12.7-0.5,12.6-3.4c-0.3-6.7,4.7-13.1,6.8-19.4
					c2.2-6.7,3.7-13.6,6.1-20.2c4.2-11.9,10.6-23.9,19.4-33.1c-2.3,0.9-4.6,1.8-6.9,2.7c0.1,0,0.2,0,0.3,0c-1.7-0.2-3.4-0.3-5.1-0.5
					c0,0.2,0,0.4-0.1,0.7c-0.1,1.4,12.2,0.2,12.6-3.4c0-0.2,0-0.4,0.1-0.7c0.1-1.3-4.8-0.5-5.1-0.5c-6.9,1-9.5,5.5-13.5,10.6
					c-5.1,6.5-8.9,13.8-12.1,21.3c-3.3,7.9-5.2,16.3-7.8,24.4c-2.2,7-7.6,13.9-7.3,21.4c4.2-1.1,8.4-2.2,12.6-3.4
					c-6.9-12.9-18-22-28-32.4C9.9,270.7-1.5,275.3,0.2,277.1L0.2,277.1z"/>
			</g>
		</g>
		<g>
			<g>
				<g>
					<path class="st0" d="M113.9,61c6.6-15.4,21.4-25.4,36.3-31.6c15.1-6.3,32.1-9.9,48.6-8.5c1.1,0.1,2.2-1.5,0.7-1.6
						c-17-1.4-34.6,2.2-50.3,8.8c-15.4,6.5-30.6,16.9-37.5,32.7C111.3,61.8,113.5,61.9,113.9,61L113.9,61z"/>
				</g>
				<g>
					<path class="st0" d="M146.3,8c8.8-5.3,19.7-7.7,30-6.9c0.5,0,2.5-0.9,1.4-0.9c-11.3-0.9-23.3,1.9-33,7.7
						C143.6,8.5,145.8,8.3,146.3,8L146.3,8z"/>
				</g>
			</g>
			<g>
				<g>
					<path class="st0" d="M253.4,308.4c0.8,0,2.3-1.2,0.9-1.2C253.5,307.2,252,308.4,253.4,308.4L253.4,308.4z"/>
				</g>
				<g>
					<path class="st0" d="M252.9,308.2c13.3,8.2,27.7,14.8,40.2,24.4c13.7,10.5,22.5,24.4,25.9,41.4c0.7-0.2,1.4-0.5,2.1-0.7
						c-5.7-6.9-12.6-12.4-20.7-16.3c-0.6,0.3-1.2,0.6-1.8,0.9c7.7,1.9,16.2-1.5,23.3-4.2c-0.5,0-1,0-1.5,0
						c-0.4,5.3,0.1,10.6-0.1,15.9c0,0.4,2.1,0.1,2.2-0.6c0.2-5.3-0.4-10.6,0.1-15.9c0-0.4-1.4,0-1.5,0c-6.3,2.4-14,5.6-20.8,3.9
						c-0.4-0.1-2.6,0.5-1.8,0.9c8,3.8,14.8,9.3,20.4,16.1c0.3,0.4,2.2-0.1,2.1-0.7c-3.3-16.6-11.8-30.4-25-40.8
						c-12.6-10-27.5-16.7-41.1-25.2C254.3,307.1,252.5,307.9,252.9,308.2L252.9,308.2z"/>
				</g>
			</g>
			<g>
				<g>
					<path class="st0" d="M295.4,280.8c3.8,0.9,7.1,3,9.9,5.7c0.5,0.5,2.6-0.3,2-0.8c-3-2.9-6.5-5.1-10.6-6
						C296.1,279.5,294.2,280.5,295.4,280.8L295.4,280.8z"/>
				</g>
				<g>
					<path class="st0" d="M297,304.7c2.6-3.4,5.7-6.5,8.8-9.5c0.9-0.9-1.2-1.2-1.8-0.6c-3.1,3.1-6.2,6.1-8.8,9.5
						C294.4,305.2,296.4,305.4,297,304.7L297,304.7z"/>
				</g>
				<g>
					<path class="st0" d="M313.7,296c4,0.1,7.5,2,9.2,5.8c0.2,0.5,2.3-0.3,2.2-0.6c-1.8-4-5.7-5.9-9.9-6
						C314.7,295.2,312.7,296,313.7,296L313.7,296z"/>
				</g>
				<g>
					<path class="st0" d="M318.2,289.2c2.2-2.2,4.4-4.3,7.1-5.7c0.4-0.2,0.5-0.6,0.2-0.9c-0.4-0.3-1.2,0-1.5,0.2
						c-2.9,1.5-5.2,3.7-7.5,6C315.6,289.7,317.7,289.7,318.2,289.2L318.2,289.2z"/>
				</g>
			</g>
		</g>
	</g>
</g>
</svg>
