<?xml version="1.0" encoding="utf-8"?>
<!-- Generator: Adobe Illustrator 22.1.0, SVG Export Plug-In . SVG Version: 6.00 Build 0)  -->
<svg version="1.1" id="Layer_1" xmlns="http://www.w3.org/2000/svg" xmlns:xlink="http://www.w3.org/1999/xlink" x="0px" y="0px"
	 viewBox="0 0 350.8 344.1" style="enable-background:new 0 0 350.8 344.1;" xml:space="preserve">
<style type="text/css">
	.st0{fill:#FFFFFF;}
	.st1{fill:#046938;}
	.st2{fill:#E9AD77;}
	.st3{fill:#F27178;}
	.st4{fill:#EC5652;}
	.st5{fill:#2C9942;}
</style>
<g>
	<g>
		<g>
			<g>
				<g>
					<path class="st0" d="M107.1,67.6c0-23.8-19-43.1-42.4-43.1S22.3,43.8,22.3,67.6s19,43.1,42.4,43.1S107.1,91.4,107.1,67.6z"/>
				</g>
			</g>
		</g>
		<g>
			<path class="st1" d="M58,69.5l-0.1,0.3c0,0.4,0.8,0.6,2.3,0.6h9.7c0.1-1.1,0.1-2.6,0.2-4.4s0.1-3.5,0.2-5s0.3-2.8,0.6-4.1
				c0.4-1.6,1.5-2.4,3.4-2.4c0.3,0,0.7,0.1,1.3,0.2v16.1c0.6,0,2.3,0.1,5,0.1c1.4,0,2.2,0.4,2.2,1.2c0,0.1-0.3,0.6-1,1.4
				c-0.5,0.6-1.7,0.9-3.6,0.9h-3l-0.5,14.2c-0.1,0.8-0.2,1.5-0.3,1.9c-0.1,0.5-0.5,0.9-1,1.2c-0.6,0.4-1.4,0.5-2.4,0.5
				c-0.8,0-1.4-0.3-1.5-0.9c0-5.5,0.1-11.1,0.3-16.9l-13-0.1c-1.9,0-3.2-0.1-3.8-0.4c-0.6-0.2-0.9-0.9-0.9-2.1
				c0-0.3,0.1-0.7,0.2-1.3c4.2-9.9,8.5-19.4,12.8-28.5c0.2,0,0.6-0.1,1.1-0.1c1.7,0,2.7,0.6,3,1.8C63.3,57.7,59.6,66.3,58,69.5z"/>
		</g>
	</g>
	<g>
		<g>
			<g>
				<path class="st0" d="M201.8,296.3c20.6,13,47.9-0.8,64.6-14.2c0.4-0.3-1.6-0.1-2,0.2c-15.9,12.8-41,25.6-60.6,13.3
					C203.4,295.2,201.6,296.1,201.8,296.3L201.8,296.3z"/>
			</g>
			<g>
				<path class="st0" d="M132.2,126.1c-13.7,6.3-24.6,16.7-29.7,31.1c-0.2,0.6,1.9,0.3,2.2-0.3c4.8-13.7,15.2-24,28.3-30
					C134.4,126.2,133.1,125.7,132.2,126.1L132.2,126.1z"/>
			</g>
			<g>
				<path class="st0" d="M99.7,130.8c-6.4,6.8-9.2,15.6-9.4,24.8c0,1.1,2.2,0.7,2.2-0.2c0.2-8.9,2.7-17.4,9-24
					C102.4,130.4,100.3,130.1,99.7,130.8L99.7,130.8z"/>
			</g>
			<g>
				<path class="st0" d="M243.1,183.4c7.7,8.1,10.4,19.3,9.1,30.2c-0.1,1.1,2.1,0.7,2.2-0.2c1.4-11.1-1.4-22.6-9.3-30.9
					C244.4,181.8,242.4,182.7,243.1,183.4L243.1,183.4z"/>
			</g>
			<g>
				<path class="st0" d="M150.9,43c-2.2-2.2-9.2-7.2-9.3-10.3c-0.1-2.9,6-7.2,8.1-9.3c-0.7,0.1-1.3,0.3-2,0.4c4,3.1,7,7,9.9,11
					c0.4,0.5,1.9-0.1,2.2-0.5c2.5-3.6,5.5-6.5,9.5-8.4c-0.6,0.1-1.1,0.1-1.7,0.2c1.8,0.9,6.7,4.5,5.6,6.5c-0.4,0.7-2.2,1.4-3,2.1
					c-1.8,1.5-3.4,3.2-5.4,4.5c-0.1,0.1-0.4,0.3-0.2,0.4c1.7,1.1,7.9,5.4,7.5,7.1c-0.2,1-3.9,3.3-4.8,4.1c-1.9,1.8-3.8,3.6-5.6,5.5
					c0.7-0.1,1.4-0.2,2.1-0.4c-1.2-3-3.3-5.3-4.7-8.2c-0.3-0.6-1.9,0.1-2.2,0.5c-3.1,4.3-6.2,8.4-9.9,12.2c0.7-0.1,1.3-0.3,2-0.4
					c-1.6-1.6-7.7-6.1-7.2-8.4c0.1-0.2,2.5-1.7,2.8-1.9c1.8-1.5,3.5-3.1,5.4-4.5c0.9-0.6-1.3-0.4-1.7-0.1c-3.1,2.3-5.7,5.2-9.2,6.9
					c-0.2,0.1-0.6,0.3-0.4,0.5c2.7,2.7,5.5,5.5,8.2,8.2c0.4,0.4,1.7-0.1,2-0.4c3.7-3.9,6.9-8.1,10-12.4c-0.7,0.2-1.4,0.3-2.2,0.5
					c1.3,2.9,3.5,5.2,4.7,8.2c0.2,0.6,1.8-0.1,2.1-0.4c3.7-3.7,7.4-7.3,11.6-10.4c0.1,0,0.4-0.3,0.2-0.4c-1.7-0.7-7.7-4.1-7.9-6.2
					c-0.1-2,6.5-6.1,8-6.7c0.1,0,0.5-0.3,0.5-0.4c-1.1-2.4-4.5-6.8-7.5-6.5c-4.3,0.3-8.9,6.3-11.1,9.4c0.7-0.2,1.4-0.3,2.2-0.5
					c-3-4.1-5.9-8.1-10-11.2c-0.4-0.3-1.7,0.1-2,0.4c-3.1,3.1-6.2,6.2-9.4,9.4c-0.1,0.1-0.1,0.2,0,0.3c3.5,3.5,7,7,10.5,10.5
					C149.2,44.1,151.2,43.3,150.9,43L150.9,43z"/>
			</g>
			<g>
				<g>
					<path class="st0" d="M269.7,343.7c3.6-3.5,7.9-6.2,12-9c1.2-0.8-0.6-1.4-1.4-0.8c-4.3,2.9-8.7,5.7-12.4,9.3
						C267,344.1,269.1,344.3,269.7,343.7L269.7,343.7z"/>
				</g>
				<g>
					<path class="st0" d="M300,317.7c6.6-3.5,11.9-8.8,17.1-14c0.5-0.5-1.6-0.3-2,0.1c-5,5-10.1,10.2-16.4,13.5
						C297.4,318,299.4,318,300,317.7L300,317.7z"/>
				</g>
				<g>
					<path class="st0" d="M329.4,284.1c3.1-6.3,6.4-12.4,10.6-18.1c0.8-1.1-1.2-1.5-1.8-0.7c-4.3,5.8-7.6,12.1-10.8,18.5
						C326.7,284.9,328.9,285,329.4,284.1L329.4,284.1z"/>
				</g>
				<g>
					<path class="st0" d="M347.7,250.2c1.1-3.5,1.5-7.3,3.1-10.7c0.2-0.4-1.9-0.3-2.2,0.3c-1.6,3.4-1.9,7.2-3.1,10.7
						C345.4,251.1,347.5,250.8,347.7,250.2L347.7,250.2z"/>
				</g>
				<g>
					<path class="st0" d="M269.7,307c3.4-3.3,7.3-5.9,10.7-9.2c0.9-0.9-1.2-0.8-1.7-0.3c-3.4,3.3-7.3,5.9-10.7,9.2
						C267,307.5,269.2,307.5,269.7,307L269.7,307z"/>
				</g>
				<g>
					<path class="st0" d="M292.7,282.4c2.9-4.2,6.3-7.7,10.5-10.5c0.9-0.6-1.2-0.5-1.7-0.2c-4.3,2.9-7.9,6.5-10.8,10.8
						C290.2,283.2,292.3,282.9,292.7,282.4L292.7,282.4z"/>
				</g>
				<g>
					<path class="st0" d="M314.2,256.3c1.7-4.9,4.7-9.3,7.6-13.6c0.6-0.9-1.6-0.7-2-0.1c-2.9,4.4-5.9,8.9-7.7,13.9
						C311.7,257.4,313.9,257.1,314.2,256.3L314.2,256.3z"/>
				</g>
			</g>
			<g>
				<path class="st0" d="M215.9,75.6c37.9-21.9,72.3-49.7,112.3-67.8c1.4-0.6,0.1-1.1-0.8-0.7c-13.1,5.4-27,7.4-41,8
					c-0.3,0.4-0.6,0.7-0.9,1.1c18.6-1,36.5-9.3,53.8-15.3c-0.4-0.2-0.8-0.3-1.3-0.5c-10.8,8.7-17.4,20.6-24.8,32
					c0.7-0.1,1.3-0.3,2-0.4c-8.9-8-19.8-13.6-31.8-15.1c-0.6-0.1-2.5,0.9-1.4,1c11.7,1.4,22.4,7,31.1,14.8c0.4,0.4,1.7,0,2-0.4
					C322.5,21,329,9.1,339.7,0.6c0.9-0.7-0.9-0.6-1.3-0.5c-16.8,5.8-34.2,14-52.1,15c-0.7,0-2.3,1.1-0.9,1.1
					c7.3-0.3,14.7-1,21.9-2.3c3-0.6,6-1.2,9-2c2-0.5,7.9-1.5,9.5-3.1c1.5-1.6-0.9-0.5-1.8-0.1c-1.6,0.7-3.2,1.5-4.7,2.3
					c-3.2,1.5-6.3,3.2-9.4,4.8c-6.8,3.6-13.4,7.5-20,11.4c-25.4,15.5-49.5,33.1-75.3,48C213.3,75.9,215.3,75.9,215.9,75.6
					L215.9,75.6z"/>
			</g>
		</g>
		<g>
			<g>
				<path class="st2" d="M111.3,280.8c0,0,13.4,1.3,17.4,1.4c4,0.1,72.2,5.6,96.7-9.9c10.1-4.5,68.1-7.3,72.7-12.5
					c4-4.5,5.9-16.7-3.7-18.1c-20.3-2.9-66.3,6.9-66.7,2.4c-0.6-6.7,75.9-6,81.6-15.8c0.9-1.5,3.1-18.8-4.9-19.4
					c-22.3-1.8-77.7,12.1-77.4,6.9c0.4-7.2,82.8-10.7,88.7-21.6c2.9-5.4,0.9-16.2-5.8-17.6c-22.4-4.8-90.4,15.8-92.5,8.4
					c-2.1-7.4,71.5-10.6,75.9-17.4c3.9-6,4.2-17.6-4.8-20.9c-9-3.3-115.6,17.7-143.3,24.6c-27.7,6.9-30,0.6-30,0.6l-32.3,40
					L95,280.7L111.3,280.8z"/>
				<polygon class="st3" points="0,324.3 114,290.6 89.6,191.1 0,201.5 				"/>
				<path class="st2" d="M105.6,224.4c0,0-6.8-25.1-2.2-38c4.6-12.9,42.6-43.2,46.7-49.9s15.7-35.5,18.3-36.3
					c2.7-0.7,14.5,5.7,8.3,18.6c-29.7,61.7,5,79.1-24.5,109.6C133.4,248.1,105.6,224.4,105.6,224.4z"/>
				<polygon class="st4" points="67.3,193.4 94.7,296 114,290.6 89.6,191.1 				"/>
			</g>
			<g>
				<g>
					<path class="st5" d="M205.9,140.8l-11-40.6c0,0,2.5-8.3,12.7-4.1c10.2,4.2,11.4-11.1,21.7-5.6s12.6,15.7,12.6,15.7
						s10-4.9,15.3-3.3s4,9,4,9l-35.5,34.7L205.9,140.8z"/>
					<path class="st1" d="M199.4,135.3c0,0-44.5,14.6-56.4,40.6s-23,71.5,28.5,86.7c51.5,15.1,58.1,10.5,71.4,4.2
						s31.7-44.3,25.6-72.5c-6-28.3-26.2-52.3-26.2-52.3s7-19,18.9-30c0,0-15.4,11.7-25.9,11.7c-10.5-0.1-11.2-12.3-11.2-12.3
						s-10.4,6-15.8,5c-5.4-1-13.5-16-13.5-16S201.3,125.3,199.4,135.3z"/>
					<path class="st1" d="M242.4,141.9c0,0,20.8,10.3,21.3,21.9C263.7,163.8,284.4,140.7,242.4,141.9z"/>
					<path class="st1" d="M242.4,141.9c0,0,14-16.6,25.6-11.6l1.7,8.2C269.7,138.5,253.6,138.9,242.4,141.9z"/>
					<path class="st5" d="M200.8,135.7c0,0,2.7,7.1,18.6,9.1s21.4-1.2,21.4-1.2s-9.4,9.9-23.1,6.7
						C203.9,147.1,200.8,135.7,200.8,135.7z"/>
				</g>
				<g>
					<path class="st0" d="M227.8,232.6c-1.5,5-5.1,8.5-10.8,10.4s-12.9,2-21.7,0.3l-3.8,12.9l-9-2.6l3.6-12.4
						c-5.2-1.5-10.2-3.3-14.9-5.4c-4.7-2.1-8.4-4.2-11.2-6.2l2.6-8.7c3.5,2.5,7.6,4.9,12.4,7.3c4.8,2.4,9.3,4.1,13.4,5.4l7.2-24.5
						c-8.8-5.2-14.7-10-17.6-14.3c-2.9-4.3-3.6-9-2.1-14c1.4-4.9,5-8.1,10.6-9.9c5.6-1.7,12.4-1.8,20.4-0.2l3-10.1l9,2.6l-2.9,10
						c8.5,2.7,16.4,6.5,23.6,11.4l-5.8,6.2c-6.3-4.2-13-7.6-20-10.1l-7.1,24.1c6.8,4,11.7,7.4,14.8,10.2s5.2,5.6,6.2,8.4
						C228.7,226.3,228.8,229.3,227.8,232.6z M187.7,184c-0.8,2.8-0.4,5.4,1.1,7.7c1.6,2.3,4.7,5,9.5,8l6.3-21.5
						c-4.8-0.8-8.6-0.6-11.5,0.4C190.3,179.7,188.5,181.5,187.7,184z M215.7,229.8c0.8-2.7,0.4-5.1-1.2-7.4
						c-1.6-2.3-5.1-5.1-10.6-8.5l-6.4,21.6C208,237.4,214.1,235.5,215.7,229.8z"/>
				</g>
			</g>
		</g>
	</g>
</g>
</svg>
