<?xml version="1.0" encoding="utf-8"?>
<!-- Generator: Adobe Illustrator 22.1.0, SVG Export Plug-In . SVG Version: 6.00 Build 0)  -->
<svg version="1.1" id="Layer_1" xmlns="http://www.w3.org/2000/svg" xmlns:xlink="http://www.w3.org/1999/xlink" x="0px" y="0px"
	 viewBox="0 0 331.7 328.6" style="enable-background:new 0 0 331.7 328.6;" xml:space="preserve">
<style type="text/css">
	.st0{fill:#FFFFFF;}
	.st1{fill:#046938;}
	.st2{clip-path:url(#SVGID_2_);}
	.st3{fill:#511E12;}
	.st4{fill:#FECC81;}
	.st5{fill:#F47934;}
	.st6{fill:none;stroke:#C0873D;stroke-width:0.75;stroke-linecap:round;stroke-miterlimit:10;}
	.st7{fill:#EC5652;}
	.st8{fill:none;stroke:#231F20;stroke-width:0.75;stroke-linecap:round;stroke-miterlimit:10;}
	.st9{fill:none;stroke:#A7A9AC;stroke-width:0.75;stroke-linecap:round;stroke-miterlimit:10;}
	.st10{fill:#693516;}
	.st11{fill:none;stroke:#511E12;stroke-width:0.75;stroke-linecap:round;stroke-miterlimit:10;}
	.st12{fill:#EBAC48;}
	.st13{fill:#68BE64;}
	.st14{fill:#292741;}
</style>
<g>
	<g>
		<g>
			<g>
				<g>
					<path class="st0" d="M112.7,52.2c0-23.8-19-43.1-42.4-43.1S27.9,28.4,27.9,52.2s19,43.1,42.4,43.1S112.7,76,112.7,52.2z"/>
				</g>
			</g>
		</g>
		<g>
			<path class="st1" d="M63.3,29.3v-0.4c0-0.2,0.1-0.5,0.2-0.8c0.1-0.3,0.3-0.5,0.5-0.6c1-0.4,4.7-0.6,11.3-0.6
				c2.7,0,4.5,0.2,5.4,0.6c0.7,0.4,1.1,0.8,1.1,1.3s-0.3,1-0.8,1.5S80,31,79.5,31H76c-5.2,0-7.9,0.1-7.9,0.2v11.3
				c0.4,0,1.1-0.1,2.3-0.1c1.9,0.1,3.7,0.4,5.4,0.9l0.8,0.4c0.5,0.2,1.2,0.5,1.9,1c0.7,0.5,1.4,1.1,2.1,1.9c0.7,0.8,1.3,2,1.9,3.6
				c0.5,1.6,0.8,3.4,0.8,5.4c0,2.4,0,4.2,0,5.5s-0.1,2.8-0.3,4.5c-0.2,1.7-0.4,3-0.7,3.9c-0.3,0.9-0.8,1.8-1.3,2.9
				c-0.5,1-1.2,1.8-2.1,2.3s-1.9,0.9-3.2,1.2c-1.2,0.3-2.7,0.5-4.3,0.5c-2.2,0-4.1-0.3-5.5-0.9s-2.5-1.4-3.2-2.6s-1.2-2.3-1.4-3.5
				s-0.4-2.7-0.4-4.5l0.2-0.5c0.1-0.3,0.4-0.6,0.9-0.9c0.5-0.3,1-0.4,1.7-0.4c1.1,0,1.7,0.2,1.9,0.6c0.2,0.4,0.3,1.5,0.3,3.3
				c0,1.7,0.4,3.1,1.3,4.3c0.9,1.2,2.3,1.8,4.4,1.8c3.1,0,5-1.8,5.7-5.3c0.3-1.4,0.5-4.9,0.5-10.4c0-4.7-0.6-7.9-1.7-9.3
				c-1.1-1.5-4-2.2-8.5-2.2h-1.7c-1.4-0.1-2.2-0.7-2.3-1.8L63.3,29.3z"/>
		</g>
	</g>
	<g>
		<g>
			<g>
				<path class="st0" d="M276.5,184.2c5.9,3,11.8,5.9,17.7,8.9c0.6,0.3,2.6-0.6,1.7-1.1c-5.9-3-11.8-5.9-17.7-8.9
					C277.6,182.8,275.6,183.7,276.5,184.2L276.5,184.2z"/>
			</g>
			<g>
				<path class="st0" d="M269.6,197.6c7.9,12.6,15.9,26.1,16.3,41.4c0,0.5,2.2,0.1,2.2-0.6c-0.3-15.3-8.4-28.8-16.3-41.4
					C271.4,196.4,269.4,197.2,269.6,197.6L269.6,197.6z"/>
			</g>
			<g>
				<path class="st0" d="M254.8,204.9c0.8,0,2.3-1.2,0.8-1.2C254.8,203.7,253.3,204.9,254.8,204.9L254.8,204.9z"/>
			</g>
			<g>
				<path class="st0" d="M252.6,199.8c-0.1,9.3-1.4,18.4-3,27.5c-0.2,1.1,2,0.8,2.2-0.2c1.5-9.1,2.9-18.3,3-27.5
					C254.9,198.5,252.6,198.8,252.6,199.8L252.6,199.8z"/>
			</g>
			<g>
				<path class="st0" d="M62.7,175.4c-2.6,0.9-6.3,0-7.7-2.6c-1.8-3.1,1.9-3.4,4.1-3.8c0.1,0,1.5-0.3,1.3-0.7
					c-0.7-1.4-3.1,0.1-1.5-2.1c1.2-1.6,2.6-3.8,4.9-3.5c1.4,0.2,2.4,1.2,3.3,2.2c0.3,0.4,1.7-0.2,2-0.5c1.4-1.4,3.2-2.5,5.1-1.4
					c1,0.5,1.7,1.5,2,2.5c1.1,3.4-1.8,5.9-4.9,6.5c-0.1,0-1.5,0.3-1.3,0.7c0.8,1.6,2.2,4.9,0,5.9c-2.1,1-5.9-0.8-7.9-1.6
					c-0.6-0.2-2.3,0.6-2,0.7c3.2,1.3,7,2.6,10.4,1.5c3.6-1.2,3-4.3,1.7-7.2c-0.4,0.2-0.9,0.5-1.3,0.7c4-0.8,9.9-4,7-8.9
					c-2.5-4.2-8-2-10.8,0.6c0.7-0.2,1.3-0.3,2-0.5c-4.3-5.2-10.5-1.2-13.1,3.6c-0.1,0.1,0.1,0.2,0.2,0.2c0.4,0.1,1.8,0.4,2,0.8
					c0.4-0.2,0.9-0.5,1.3-0.7c-2.4,0.4-9,0.9-6.7,5.2c2,3.7,7.2,3.6,10.7,2.5C64.9,175.4,63.5,175.1,62.7,175.4L62.7,175.4z"/>
			</g>
			<g>
				<path class="st0" d="M26,156.4c-7.3,0.7-14.8-3.6-19.7-8.9c-1.8-2-3.7-4.4-4.2-7.1c-0.9-4.9,3.6-6.8,7.7-7.4
					c0.5-0.1,1.6-0.6,1.1-1.2c-3.6-4.5-4.5-9.9,1.4-12.8c4.4-2.2,10.3-2.3,14.7,0c0.5,0.3,2.6-0.2,1.8-1.1c-4.7-5.1,3.3-6.6,7.2-6.2
					c2.5,0.3,5.1,1.1,7.2,2.6c1,0.8,2,1.7,2.7,2.8c0.9,1.5,1.3,0.7-0.6,1.6c0.5,0.2,1,0.5,1.5,0.7c3.2-5.9,7.7-1.7,9.2,2.9
					c1.8,5.3-0.1,10-6.2,10.2c-0.5,0-1.8,0.9-1,1.4c7.7,3.9,3.3,10.3-4,10.6c-0.6,0-1.7,0.8-1,1.4c2.2,1.7,4.9,4.3,4.2,7.5
					c-1.1,4.7-7.2,4.4-10.7,3.2c-0.5-0.2-1.4,0.1-1.7,0.6c-2.5,5-7.9,2-11.1,0.5c-0.8-0.4-2.7,0.7-1.7,1.2
					c5.1,2.4,11.7,4.8,14.8-1.5c-0.6,0.2-1.1,0.4-1.7,0.6c4.1,1.4,9.5,1.7,12.7-1.9c3.6-4.1,0.3-8.6-3.2-11.4
					c-0.3,0.5-0.6,0.9-1,1.4c8-0.4,16-8.2,5.9-13.3c-0.3,0.5-0.6,0.9-1,1.4c8.1-0.3,11.3-7.2,7.7-14.2c-3.1-6-9.3-6.8-12.6-0.6
					c-0.5,0.9,1,0.9,1.5,0.7c0.7-0.3,1.3-0.7,2-1c0.3-0.1,0.8-0.5,0.6-0.9c-3-6.3-10.3-8.9-17-7.8c-4.6,0.8-9.1,4.1-5,8.5
					c0.6-0.4,1.2-0.7,1.8-1.1c-10.4-5.3-30.3,1.7-19.8,15c0.4-0.4,0.7-0.8,1.1-1.2c-8,1.3-13.1,6.3-8,14.1
					c4.8,7.4,14.8,13.2,23.8,12.4C27,157.8,27.5,156.2,26,156.4L26,156.4z"/>
			</g>
			<g>
				<path class="st0" d="M250,137.8c-19.7,2.3-40.6-10.4-52.9-24.9c-4.8-5.7-9.9-13.4-9.1-21.2c1.1-10.5,12.8-13.8,21.6-15.1
					c0.5-0.1,1.6-0.6,1.1-1.3c-4.6-5.6-9.1-12.7-7.7-20.3c1.1-6.2,6.1-10.6,11.4-13.4c11.7-6,28-6.7,39.8-0.5
					c0.6,0.3,2.7-0.3,1.8-1.1c-11.9-12.3,6.6-18,16.8-17.7c7.5,0.2,15.1,2.1,21.3,6.4c3.1,2.1,5.9,4.8,7.9,8
					c0.5,0.7,1.2,1.7,1.4,2.5c0.5,1.6,1.6-0.2,0,1.3c-0.9,0.8-2.7,1.3-3.7,1.9c0.5,0.3,1,0.5,1.5,0.8c2.9-5.7,8-11.4,14.8-8.2
					c5.4,2.5,9,8.4,11.1,13.7c2.3,5.7,3.3,12.5,1.2,18.4c-2.8,7.7-10.4,10.3-18,10.4c-0.8,0-1.7,1.1-0.7,1.6
					c6.9,3.2,14.4,9.7,10.3,18c-3.9,7.9-14.1,10.5-22.1,10.6c-0.6,0-1.7,0.9-0.9,1.5c7.3,5.3,15.4,14.9,9,24.1
					c-6.1,8.8-18.8,8-27.7,4.7c-0.6-0.2-1.4,0-1.7,0.6c-5.9,13.5-21.2,6.7-31,1.9c-0.9-0.5-2.5,0.9-1.2,1.5
					c11.2,5.5,27.8,11.8,34.4-3.1c-0.6,0.2-1.1,0.4-1.7,0.6c9.7,3.7,22.9,4.1,30.2-4.7c7.9-9.7-0.3-20.8-8.6-26.8
					c-0.3,0.5-0.6,1-0.9,1.5c8.9-0.2,20.1-3.2,24.4-12c4.5-9.1-3.5-16.2-11.1-19.8c-0.2,0.5-0.5,1.1-0.7,1.6
					c13.5-0.2,23-8.6,21.3-22.6c-1.1-9.4-7.8-23.9-18.9-24.1c-6.5-0.2-10.7,5.3-13.4,10.5c-0.5,0.9,1,1.1,1.5,0.8
					c1.7-0.8,3.4-1.7,5-2.5c0.3-0.1,0.8-0.6,0.6-1c-6.6-15-24.1-21.2-39.6-19.3c-5.3,0.7-11.8,2.3-15.2,6.7
					c-3.6,4.6-1.1,9.7,2.5,13.4c0.6-0.4,1.2-0.8,1.8-1.1c-12.8-6.8-30.6-6.1-43.2,0.8c-5.3,2.9-10.1,7.3-11.6,13.3
					c-2.1,8.2,2.7,16.1,7.7,22.2c0.4-0.4,0.7-0.9,1.1-1.3c-13.6,2-28.3,9.4-22.8,25.5c5.3,15.3,21,27.2,35.2,33.7
					c8.6,4,18.2,6.5,27.7,5.3C251,139.3,251.4,137.6,250,137.8L250,137.8z"/>
			</g>
			<g>
				<path class="st0" d="M29.8,123.5c0,5.7-0.9,11.3-1,17c0,0.6,2.2,0.2,2.2-0.6c0.1-5.7,0.9-11.3,1-17
					C32,122.4,29.8,122.7,29.8,123.5L29.8,123.5z"/>
			</g>
			<g>
				<path class="st0" d="M28.8,149.3c0,0.3,0,0.6,0,0.9c0,1,2.2,0.5,2.2-0.2c0-0.6,0-1.1,0-1.7c0-1-2.2-0.5-2.2,0.2
					C28.8,148.7,28.8,149,28.8,149.3c0,1,2.2,0.5,2.2-0.2c0-0.3,0-0.6,0-0.9c0-1-2.2-0.5-2.2,0.2c0,0.6,0,1.1,0,1.7
					c0,1,2.2,0.5,2.2-0.2c0-0.3,0-0.6,0-0.9C31,148.1,28.8,148.5,28.8,149.3L28.8,149.3z"/>
			</g>
			<g>
				<path class="st0" d="M200,307.4c4.3,0.1,6.9,2.5,10.7,4.1c3.4,1.4,7.2,2.1,10.7,3c3.1,0.8,7.1,2.1,10.4,1.3
					c1.9-0.4,2.8-1.4,3.6-3.2c1.5-3.3,2.4-6.4,4.8-9.3c1.8-2.2,4.2-3.7,6-5.8c1.5-1.8,2.2-4.1,3.6-6c1.1-1.4,5-5.1,7-4
					c0.8,0.4,1.3,1.9,1.7,2.6c0.9,1.6,1.5,3.3,2.5,4.8c5,7.3,13.3-1.5,17.4-5.7c0.7-0.7-0.5-0.8-1-0.7c1.5-0.4,4-4.5,5.2-5.7
					c2.7-2.7,5.5-5.4,8.3-7.9c7.5-6.7,16.9-10.1,25.3-15.5c-0.6-0.1-1.1-0.2-1.7-0.3c-6.4,7.8-11.3,15.3-13.4,25.3
					c0.7-0.1,1.4-0.3,2.2-0.4c-3.4-9.7-5.2-19.8-8.5-29.5c-0.7,0.3-1.3,0.5-2,0.8c7.4,3.4,15.4,5.6,23.2,7.9c0.6,0.2,2.6-0.8,1.7-1
					c-7.7-2.4-15.8-4.6-23.2-7.9c-0.4-0.2-2.2,0.1-2,0.8c3.4,9.7,5.2,19.8,8.5,29.5c0.2,0.7,2,0.2,2.2-0.4c2.1-9.8,7-17.3,13.3-25
					c0.6-0.8-1.4-0.5-1.7-0.3c-6.8,4.4-14.5,7.1-21.1,11.8c-3.4,2.4-6.4,5.4-9.4,8.3c-2.5,2.4-6.9,5.6-8.4,8.9
					c-0.7,1.6-0.5,2.3,1.5,1.7c-0.3-0.2-0.7-0.5-1-0.7c-2.7,2.8-8.7,9.8-12.7,6.4c-2.5-2.2-2.5-7.3-5.5-9c-2.5-1.4-6.3,1.2-8.2,2.6
					c-3.4,2.6-4.4,6.9-7.5,9.7c-3,2.8-5.8,5.3-7.7,9.1c-0.8,1.7-1.3,5.2-2.8,6.4c-2.6,2-11.3-1.5-13.9-2.1c-3.8-1-7-2.2-10.4-4.1
					c-2.4-1.3-4.5-1.9-7.2-2C200.1,306.2,198.6,307.4,200,307.4L200,307.4z"/>
			</g>
		</g>
		<g>
			<g>
				<defs>
					<rect id="SVGID_1_" x="37.7" y="106.2" width="233.1" height="222.4"/>
				</defs>
				<clipPath id="SVGID_2_">
					<use xlink:href="#SVGID_1_"  style="overflow:visible;"/>
				</clipPath>
				<g class="st2">
					<path class="st3" d="M152.6,128.8c0,0-3.8-10.1-10.5-12.8c-9.6-3.8-34.3-4.6-44.2,5.3c-9.6,9.7-10.1,29-7.8,32.9
						c2.3,3.9-6.8,5.7-5.6,13.7c1.1,8-2.4,12.7-5,20s1.2,18.8,3.3,25.6c2.1,6.8-5.1,3-6.4,11.2s-1.2,14.5,1.7,17.6c0,0,6.3,2.1,14,1
						s48.7-1.1,58.3,0.1c9.7,1.1,15.6-3.9,19.6-7.7c4.1-3.9,0.8-12-0.1-22c-1-10,1.2-12.4,4.5-17.1c3.4-4.7-4.4-21.1-5.5-28.7
						c-1.2-7.6,3.9-6.8,1.3-12c-2.6-5.2-4.2-3.8-5.1-8.5c-0.9-4.6,0.4-8.3-2.1-11.6C160.4,132.5,155.9,127.6,152.6,128.8z"/>
					<path class="st4" d="M148.6,132.1c0,0,13.3,10.1,13.9,18.2c0.7,8.2,1.8,28.8,0.4,36.6c-1.4,7.8-9.8,24-18.6,25.1l-3.3-0.1
						c0,0-1.3,15.1,0.1,16.6l-10,6.1l-13.3-5.9c0,0-1.3-29-3.4-38.5s-0.8-31.2-0.8-31.2S137.8,150.2,148.6,132.1z"/>
					<path class="st0" d="M140.7,225.6l-13.3,5.9l-10-6.1c0,0-2.8,6.9-6.2,7.3c0,0,14.4,114.6,10.8,135.3c0,0,14.2,0.1,12.2,0.3
						c-2,0.1,4.9-117.3,10.1-134C144.3,234.3,142.1,229.1,140.7,225.6z"/>
					<path class="st5" d="M111.2,232.7c0,0-23.5,0-31.9,2.3s-33,74.7-33,74.7s4.5,41.1,4.1,51c-0.9,19.7,14,0,14,0l-1.1-48
						c5.9-18.9,23.2-42.8,24.6-45.5c0,0,3.3,15.3,3.5,38.1c0.2,22.7-4.5,73.2-4.5,73.2l33.2-2.4l2-8.1
						C122,368,124.7,307.7,111.2,232.7z"/>
					<path class="st5" d="M144.1,231.7c0,0,23.8-0.2,29.4,2.2c5.6,2.4,33.4,25.2,34.4,25.4c6.2,2.1,6.5-66.8,6.5-66.8
						s7.1-6.5,9.2-2.6c0,0,14.2,83.6-2.9,100.1c-7.1,6.9-48.7-25.7-52-34.6c-1.4-3.8-10.4,91.1-4.4,112.8c0,0-23.5,4.8-31.3,2.3
						C133,370.5,130.9,314.9,144.1,231.7z"/>
					<path class="st6" d="M138.3,154c-0.3,0.8,1.1,17.3,9.1,24.1c0,0-2.2,3.1-7.5,3.9"/>
					<path class="st7" d="M150.5,191.2c0,0-19.1,0.9-22-2.4c0,0,0.6,9.8,9,10.8C145.8,200.6,148.1,196,150.5,191.2z"/>
					<path class="st0" d="M130.8,191.6c0,0,7.3,2.3,16.8,1.3l-1.2,1.7c0,0-6.5,1.1-14.7-1.1C131.8,193.4,131.3,192.8,130.8,191.6z"
						/>
					<path class="st0" d="M155.9,165.4c-0.2,2.7-3.1,4.7-6.6,4.4c-3.5-0.2-6.1-2.6-5.9-5.3c0.2-2.7,3.2-4.7,6.6-4.4
						C153.4,160.4,156.1,162.7,155.9,165.4z"/>
					<path class="st3" d="M151.9,165c-0.2,2.5-1.8,4.3-3.5,4.2c-1.8-0.1-3.1-2.2-2.9-4.7c0.2-2.4,1.8-4.3,3.5-4.2
						C150.8,160.4,152.1,162.5,151.9,165z"/>
					<path class="st8" d="M118.7,165c0,0,2.5,3.5,7.8,3.1c5.4-0.4,7.9-3.3,7.9-3.3"/>
					<path class="st8" d="M142.6,162.7c0,0,2.3-3.2,7.4-2.9c5.1,0.3,7.6,3.3,7.6,3.3"/>
					<line class="st9" x1="126.2" y1="235.6" x2="127.7" y2="367.6"/>
					<path class="st10" d="M142.1,120.3c0-4.2-28-2-28-2c-7.7,1.6-22.2,13-20.1,32.5s-3.6,10.6-4.9,19.3c-1.2,8.6,5.1,8.6-1.7,15.8
						c-6.8,7.1,5.4,22.2,4.4,27.7s-7,2.7-8.9,17.4c-0.3,2.5,30.1-19.1,27.9-40.9s-4.7-31,5-37.8
						C125.5,145.6,142.2,139.9,142.1,120.3z"/>
					<path class="st10" d="M167.6,174.1c0,0,5.4,13.9,4.1,17.8c-1.2,4-8.4,15-6.9,20.7s3.4,15,1.3,17.8c-0.9,1.2-4.8,3-7.9,1.2
						c-10.2-6-2-19.2,2.5-28.9C165.3,193,168,187.1,167.6,174.1z"/>
					<path class="st11" d="M137.3,122.7c0,0-8,19-29.7,29"/>
					<path class="st11" d="M119.9,123.4c0,0-5,8.5-13.6,11.5"/>
					<path class="st10" d="M145.4,150.3c0,0,7.6-2.9,15.2,2.6c0,0-4.3-9.3-14.3-5.5C146.3,147.5,144.6,147.5,145.4,150.3z"/>
					<path class="st12" d="M99.1,235l-9.1,0.7c0,0,8.3,35.9,9,63.1c0.7,27.2-4.8,69.6-4.8,69.6h23.3C117.6,368.3,117.4,257,99.1,235
						z"/>
					<path class="st12" d="M168.4,236l-17.3-0.2c0,0-5.1,40.6-8.4,61.7c-3.3,21.1-7.4,61.3-5.8,65.9c1.6,4.6,20.8,2,20.8,2
						S149.2,261.6,168.4,236z"/>
					<path class="st11" d="M130,122.2c0,0-8.3,16.1-24.5,22.9"/>
					<path class="st5" d="M114.7,261.2c0,6.8-5.4,12.4-12.1,12.4s-12.1-5.5-12.1-12.4c0-6.8,5.4-12.4,12.1-12.4
						C109.2,248.8,114.7,254.3,114.7,261.2z"/>
					<g>
						<path class="st13" d="M109.7,256.1c-0.2-0.3-0.4-0.6-0.6-0.8l-10.9,6.3l-5.3-3c-0.1,0.3-0.2,0.7-0.2,1l5.6,3.2L109.7,256.1z"
							/>
						<path class="st13" d="M98.2,263.9l-5.6-3.2c-0.1,0.2-0.1,0.4-0.1,0.6c0,5.2,4.2,9.4,9.4,9.4c5.2,0,9.4-4.2,9.4-9.4
							c0-1.5-0.3-3-1-4.3L98.2,263.9z"/>
						<path class="st13" d="M108.4,254.5c-0.3-0.3-0.6-0.5-0.8-0.7l-9.3,5.4l-4.5-2.6c-0.1,0.3-0.3,0.6-0.5,0.9l4.9,2.8L108.4,254.5
							z"/>
						<path class="st13" d="M106.6,253.2c-0.3-0.2-0.7-0.4-1.1-0.6l-7.3,4.2l-3.2-1.9c-0.2,0.2-0.4,0.5-0.7,0.8l3.9,2.3L106.6,253.2
							z"/>
					</g>
					<path class="st4" d="M210.6,190.2c0,0-11.5-16-6.1-21.4c5.4-5.5,14-2.5,18.6,2.1c3.9,3.9,0.4,19,0.4,19l-9.2,2.6L210.6,190.2z"
						/>
					<path class="st14" d="M144.9,160.5c3.8-1.2,111.9,0.7,111.9,0.7l0.1,24.9c0,0-102.2-14.2-107.1-13.4
						C144.9,173.5,141.1,161.7,144.9,160.5z"/>
					<path class="st0" d="M257.8,161.5c-3.9-1.6-14.6,2.3-10.4,14c4.2,11.7,10.3,12.5,15.2,8.8C268,180.3,263.2,163.6,257.8,161.5z"
						/>
					<path class="st14" d="M256.1,163.4c5.8-0.5,11.3,19.9,2.4,21.1c-4.5,0.6-7-3.4-8.7-10.3C248.1,167.2,251.5,163.7,256.1,163.4z"
						/>
					<path class="st4" d="M196.2,169.9c0,0-4.3-6.5,4.7-10.9c9-4.3,15.8,1.5,15.8,1.5L196.2,169.9z"/>
					<path class="st4" d="M195.2,165.6c0,0-3.3,14.8,7.4,13.3c10.6-1.5,11.7-17.8,11.7-17.8L195.2,165.6z"/>
				</g>
			</g>
		</g>
	</g>
</g>
</svg>
