<?xml version="1.0" encoding="utf-8"?>
<!-- Generator: Adobe Illustrator 16.0.0, SVG Export Plug-In . SVG Version: 6.00 Build 0)  -->
<!DOCTYPE svg PUBLIC "-//W3C//DTD SVG 1.1//EN" "http://www.w3.org/Graphics/SVG/1.1/DTD/svg11.dtd">
<svg version="1.1" id="Layer_1" xmlns="http://www.w3.org/2000/svg" xmlns:xlink="http://www.w3.org/1999/xlink" x="0px" y="0px"
	 width="182.6px" height="58.918px" viewBox="0 0 182.6 58.918" enable-background="new 0 0 182.6 58.918" xml:space="preserve">
<g>
	<g>
		<path fill="#FFFFFF" d="M174.829,24.992c-7.127-6.89-14.136-13.778-21.262-20.668c-2.021-1.9-5.464-1.544-8.195-1.544
			c-4.396,0-8.908,0-13.304,0c-28.15,0-74.594,0-102.743,0c-5.107,0-10.334,0-15.441,0c-0.713-0.119-1.544-0.119-2.257,0.119
			C9.252,3.254,7.826,4.798,7.232,6.462C6.638,8.006,6.755,9.787,8.42,11.45l0.119,0.119l0,0
			c5.819,5.345,11.642,10.809,17.46,16.153c-5.82,5.583-11.641,11.167-17.46,16.747c-3.444,3.325-1.188,8.789,4.156,8.789
			c21.023,0,60.577,0,81.602,0c13.66,0,27.319,0,40.859,0c5.465,0,14.729,1.545,19.006-2.257
			c6.771-6.295,13.658-12.472,20.43-18.769C177.085,30.219,176.966,27.13,174.829,24.992z"/>
		<g>
			<g>
				<g>
					<g>
						<g>
							<defs>
								<path id="SVGID_1_" d="M178.51,24.755c-7.363-7.127-14.849-14.371-22.212-21.497c-2.139-2.021-5.7-1.663-8.553-1.663
									c-4.634,0-9.266,0-13.896,0c-29.338,0-77.919,0-107.258,0c-5.347,0-10.812,0-16.153,0C9.607,1.476,8.895,1.476,8.063,1.711
									C5.569,2.067,4.025,3.612,3.549,5.515c-0.196,0.46-0.313,0.938-0.354,1.423c-0.207,0.375-0.371,0.77-0.478,1.187
									c-0.713,1.663-0.476,3.563,1.188,5.108c0,0.118,0.119,0.118,0.237,0.237c5.736,5.287,11.477,10.676,17.213,15.975
									c-5.46,5.246-10.92,10.492-16.381,15.738c-1.114,1.076-1.646,2.385-1.686,3.676c-2.205,3.457,0.204,8.203,5.248,8.203
									c21.976,0,63.189,0,85.282,0c14.253,0,28.508,0,42.762,0c5.818,0,15.439,1.662,19.836-2.377
									c7.127-6.531,14.253-13.064,21.381-19.601c1.021-1.073,1.531-2.321,1.603-3.563C180.81,29.377,180.468,26.71,178.51,24.755z
									"/>
							</defs>
							<clipPath id="SVGID_2_">
								<use xlink:href="#SVGID_1_"  overflow="visible"/>
							</clipPath>
						</g>
					</g>
				</g>
			</g>
			<g>
				<path fill="#703416" d="M177.678,27.367c-7.363-7.126-14.848-14.372-22.212-21.499c-2.139-2.019-5.7-1.662-8.553-1.662
					c-4.633,0-9.266,0-13.896,0c-29.339,0-77.919,0-107.26,0c-5.345,0-10.81,0-16.152,0c-0.83-0.119-1.543-0.119-2.374,0.118
					c-2.494,0.356-4.039,1.9-4.516,3.801c-0.713,1.663-0.477,3.563,1.188,5.108c0,0.118,0.119,0.118,0.237,0.237l0,0
					c6.06,5.582,12.114,11.282,18.174,16.864c-6.06,5.82-12.114,11.643-18.174,17.461c-3.563,3.444-1.188,9.268,4.396,9.268
					c21.974,0,63.189,0,85.282,0c14.253,0,28.508,0,42.762,0c5.818,0,15.439,1.662,19.836-2.377
					c7.127-6.531,14.253-13.064,21.38-19.601C180.055,32.713,179.936,29.506,177.678,27.367z M166.514,33.9
					c-5.701,4.869-11.402,9.74-17.225,14.609c-3.563,2.969-11.284,1.779-15.916,1.779c-11.402,0-24.825,0-36.348,0
					c-17.697,0-54.64,0-72.337,0c-4.396,0-6.295-4.273-3.443-6.891c4.87-4.396,10.452-9.738,10.452-13.184
					c0-3.563-5.464-8.196-10.452-12.354l0,0l-0.118-0.119c-1.308-1.188-1.426-2.611-0.949-3.801
					c0.476-1.425,1.661-2.494,3.683-2.851c0.595-0.118,1.188-0.118,1.898-0.118c4.276,0,8.673,0,12.947,0
					c23.637,0,66.396,0,90.033,0c3.684,0,9.385,0,13.065,0c2.257,0,5.105-0.356,6.89,1.188c5.938,5.345,11.878,10.69,17.814,16.035
					C168.295,29.862,168.415,32.236,166.514,33.9z"/>
			</g>
		</g>
		<g>
			<path fill="#FFDCC2" d="M140.74,39.721c-0.533-3.203-4.067-3.342-7.056-3.207c0.019-0.957,0.032-1.902,0.038-2.857
				c1.159,0.025,2.763-0.016,3.335-0.23c2.021-0.594,3.442-2.492,3.088-4.632c-0.531-3.101-3.771-3.357-6.666-3.291
				c0.013-0.729,0.014-1.462,0.014-2.21c1.938,0.045,3.964-0.023,5.347-0.794c2.26-1.307,2.613-4.752,0.597-6.414
				c-2.259-2.02-9.503-1.663-12.116-0.832c-1.888,0.577-2.847,1.941-3.333,3.593c-0.043-1.041-0.447-2.061-1.299-2.761
				c-2.259-2.02-9.503-1.663-12.115-0.832c-4.275,1.309-3.802,6.651-3.802,10.217c0,3.005-0.283,6.104-0.344,9.179
				c-1.016-4.939-1.83-9.946-3.221-14.76c-1.188-4.157-4.989-6.298-9.266-4.516c-3.802,1.663-4.516,6.771-5.464,10.215
				c-0.87,3.13-1.991,6.451-2.813,9.729c-0.182-0.758-0.359-1.51-0.517-2.246c-0.95-4.633-1.309-10.69-3.443-14.967
				c-1.544-3.088-4.989-3.919-8.196-2.853c-2.969,0.95-3.801,3.326-4.751,6.06c-1.544,4.752-2.729,9.738-4.036,14.608
				c-0.18,0.68-0.422,1.421-0.625,2.186c-0.851-1.035-2.068-1.444-3.398-1.604c0.023-5.206,0.096-10.46,0.101-15.646
				c0.021-0.189,0.026-0.394,0.003-0.61c-0.007-0.057-0.021-0.104-0.024-0.159c-0.018-0.184-0.043-0.355-0.087-0.52
				c-0.473-2.593-1.793-3.766-4.64-4.313c-2.851-0.475-8.313-0.831-10.688,1.069c-2.14,1.663-1.662,4.276-1.899,6.771
				c-0.208,4.475-0.803,8.94-1.739,13.333c-1.89,0.104-3.723,0.529-4.675,2.348c-0.832,1.545-0.832,4.396,0.119,5.938
				c2.249,3.655,6.411,2.423,8.188-0.476c3.626,0,7.223,0,10.848,0c1.53,2.703,5.132,3.957,7.81,1.188
				c0.479-0.478,0.795-1.146,0.993-1.885c1.854,1.468,5.56,1.069,7.322-0.253c1.854-1.393,2.333-4.229,2.736-6.651
				c0.129,0,0.263,0,0.393,0c0.29,2.293,0.604,4.978,1.978,6.532c2.168,2.363,6.204,1.7,8.135-0.625
				c1.375,1.951,4.421,2.329,7.188,0.863c1.899-1.069,2.376-2.854,2.853-4.989c0.174-0.671,0.341-1.349,0.508-2.022
				c0.34,1.629,0.742,3.228,1.272,4.756c1.068,3.207,4.634,4.039,7.604,2.496c1.09-0.565,1.706-1.271,2.029-2.063
				c1.136,3.005,4.437,2.997,7.827,2.896c2.595-0.102,7.852,0.121,8.98-2.754c1.186,2.857,4.429,2.854,7.768,2.754
				C134.681,44.354,141.571,44.709,140.74,39.721z M123.626,20.726c-0.182,1.618-0.107,3.318-0.107,4.739
				c0,1.183-0.044,2.378-0.104,3.58c-0.01-0.085-0.002-0.168-0.018-0.254c-0.531-3.101-3.771-3.357-6.667-3.291
				c0.013-0.729,0.014-1.462,0.014-2.21c1.938,0.045,3.964-0.023,5.348-0.794C122.806,22.084,123.307,21.444,123.626,20.726z
				 M116.936,36.514c0.02-0.957,0.035-1.9,0.039-2.857c1.159,0.025,2.762-0.016,3.334-0.23c1.517-0.443,2.694-1.627,3.041-3.092
				c-0.135,2.566-0.271,5.155-0.123,7.696C121.914,36.48,119.265,36.41,116.936,36.514z"/>
			<g>
				<path fill="#703416" d="M64.007,38.059c-0.477-0.238-1.662-0.356-3.683-0.356v-0.476v-4.633c0-1.188,0-3.325,0-6.414
					c0-3.09,0-5.466,0-7.127c0-0.714-0.118-1.309-0.355-1.546c-0.236-0.235-0.713-0.475-1.308-0.713
					c-0.354-0.118-2.852-0.235-7.364-0.235c-0.948,0-1.662,0.235-2.138,0.594c-0.476,0.354-0.714,0.832-0.714,1.426v0.356
					c0,2.375-0.236,5.464-0.712,9.265c-0.478,3.92-1.068,7.008-1.663,9.502c-2.021,0-3.325,0.118-3.801,0.356
					c-0.596,0.354-0.95,0.947-0.95,2.02c0,0.236,0.118,0.594,0.118,1.068c0.119,0.476,0.119,0.713,0.119,0.713
					c0,0.236,0.235,0.594,0.713,0.713c0.476,0.119,0.949,0.236,1.544,0.236s1.067-0.117,1.425-0.236
					c0.356-0.119,0.595-0.356,0.595-0.713c0-0.357,0-0.832,0.119-1.545h14.49v1.545c0,0.354,0.119,0.594,0.595,0.713
					c0.355,0.119,0.832,0.236,1.426,0.236c1.426,0,2.14-0.355,2.14-0.949l0.117-1.9C64.721,39.009,64.483,38.295,64.007,38.059z
					 M55.336,37.701h-4.633c1.544-6.651,2.376-12.709,2.376-18.292c0.477,0,0.831,0,1.309,0c0.475,0,0.829,0,0.948,0h0.118
					C55.456,26.536,55.456,32.713,55.336,37.701z"/>
				<path fill="#703416" d="M83.13,25.349c-0.594-2.853-1.066-4.87-1.308-5.939c0-0.475-0.236-0.95-0.236-1.188
					c0-0.238-0.235-0.713-0.476-1.069c-0.237-0.475-0.595-0.713-1.068-0.95c-0.477-0.237-0.95-0.354-1.663-0.354
					s-1.425,0.117-2.021,0.236c-0.594,0.237-0.949,0.477-1.308,0.831c-0.354,0.356-0.595,0.596-0.713,0.95
					c-0.236,0.356-0.354,0.713-0.477,1.188l-0.117,0.476c-0.714,2.138-2.021,6.771-3.92,14.016l-1.188,4.636
					c-0.119,0.234-0.119,0.594-0.119,0.83c0,0.829,0.476,1.307,1.544,1.307c0.235,0,0.713-0.118,1.544-0.355
					c0.832-0.117,1.308-0.354,1.544-0.475c0.354-0.596,0.832-2.495,1.544-5.702l0.354-1.308c0.478,0,1.309,0,2.378,0
					c1.067,0,1.897,0,2.375,0l1.307,6.771c0.119,0.832,0.713,1.188,1.663,1.188c2.021,0,3.089-0.596,3.089-1.662
					c0-0.237,0-0.356,0-0.479l-1.307-6.295C84.201,30.456,83.725,28.199,83.13,25.349z M77.43,29.743c-0.715,0-1.309,0-1.663,0
					l1.067-4.395c0.119-0.119,0.236-0.832,0.477-2.021c0.354-1.188,0.477-1.898,0.594-2.257l1.308,8.671
					C78.856,29.743,78.26,29.743,77.43,29.743z"/>
				<path fill="#703416" d="M105.461,32c-0.354-1.544-0.832-3.801-1.426-6.649c-0.595-2.852-1.069-4.87-1.308-5.939
					c0-0.475-0.236-0.95-0.236-1.188c0-0.238-0.237-0.714-0.478-1.069c-0.236-0.475-0.595-0.712-1.067-0.95
					c-0.478-0.236-0.949-0.354-1.662-0.354c-0.714,0-1.427,0.118-2.021,0.236c-0.596,0.237-0.95,0.477-1.309,0.831
					c-0.355,0.356-0.595,0.596-0.713,0.95c-0.237,0.356-0.355,0.713-0.476,1.188l-0.119,0.476
					c-0.712,2.138-2.021,6.771-3.919,14.016l-1.188,4.636c-0.118,0.234-0.118,0.594-0.118,0.83c0,0.832,0.477,1.307,1.544,1.307
					c0.355,0,0.831-0.118,1.545-0.236c0.714-0.119,1.188-0.354,1.545-0.477c0.354-0.594,0.832-2.493,1.544-5.7
					c0.118-0.237,0.118-0.476,0.236-0.831s0.237-0.594,0.237-0.832c0.354-1.068,0.713-2.375,1.067-3.92
					c0.354-1.544,0.595-2.612,0.713-2.969c0-0.356,0.119-0.95,0.354-1.782c0.236-0.831,0.355-1.425,0.478-1.781l3.324,17.226
					c0.118,0.83,0.714,1.188,1.663,1.188c1.068,0,1.781-0.118,2.375-0.475c0.596-0.237,0.831-0.715,0.831-1.188
					c0-0.119,0-0.237-0.116-0.476L105.461,32z"/>
				<path fill="#703416" d="M122.803,38.177c-0.477-0.118-1.188-0.237-2.258-0.237c-0.477,0-1.188,0.119-2.021,0.119
					c-0.832,0.118-1.426,0.118-1.899,0.118h-0.236v-1.899c0-0.95,0-2.258,0-4.276v-1.778c0-0.119,0.354-0.238,1.067-0.238h3.089
					c0.596,0,1.067-0.118,1.544-0.356c0.477-0.235,0.712-0.594,0.712-0.949c0-0.713-0.116-1.067-0.475-1.308
					c-0.356-0.237-1.069-0.354-2.376-0.354h-4.038c0,0,0-0.119,0-0.356c0-0.119,0-0.354,0-0.476V25.47c0-0.117,0-0.595,0-1.308
					c0-0.831,0-1.544,0-2.375c0-1.544,0-2.376-0.119-2.376l3.326,0.119h0.236c1.663,0,2.73-0.119,3.207-0.237
					c0.477-0.237,0.713-0.595,0.713-1.188c0-0.594-0.236-1.068-0.713-1.188c-0.477-0.119-1.544-0.235-3.089-0.235h-1.545
					c-0.235,0-0.476,0-0.832,0c-0.354,0-0.712,0-0.829,0c-2.14,0-3.444,0.235-3.921,0.594c-0.236,0.118-0.354,0.354-0.476,0.594
					c-0.119,0.237-0.119,0.477-0.238,0.831c0,0.238-0.116,0.595-0.116,0.713c0,0.119-0.119,0.478-0.119,0.832
					c0,0.356,0,0.594,0,0.712c0,0.119,0,1.545,0,4.276c0,5.938,0,9.978-0.119,11.877v1.783c0,0.711,0.238,1.306,0.714,1.543
					c0.476,0.235,1.426,0.354,2.731,0.354c2.021,0,4.273-0.119,6.889-0.235c0.477,0,0.95-0.119,1.308-0.356
					c0.355-0.237,0.595-0.595,0.595-0.95C123.516,38.65,123.279,38.295,122.803,38.177z"/>
				<path fill="#703416" d="M139.55,38.177c-0.475-0.118-1.188-0.237-2.257-0.237c-0.476,0-1.188,0.119-2.02,0.119
					c-0.832,0.118-1.426,0.118-1.899,0.118h-0.236v-1.899c0-0.95,0-2.258,0-4.276v-1.778c0-0.119,0.354-0.238,1.067-0.238h3.088
					c0.597,0,1.068-0.118,1.544-0.356c0.478-0.235,0.713-0.594,0.713-0.949c0-0.713-0.116-1.067-0.475-1.308
					c-0.355-0.237-1.069-0.354-2.376-0.354h-4.038c0,0,0-0.119,0-0.356c0-0.119,0-0.354,0-0.476V25.47c0-0.117,0-0.595,0-1.308
					c0-0.831,0-1.544,0-2.375c0-1.544,0-2.376-0.119-2.376l3.089,0.119h0.477c1.663,0,2.73-0.119,3.207-0.237
					c0.477-0.237,0.713-0.595,0.713-1.188c0-0.594-0.236-1.068-0.713-1.188c-0.477-0.119-1.544-0.235-3.088-0.235h-1.544
					c-0.238,0-0.478,0-0.832,0c-0.355,0-0.715,0-0.831,0c-2.141,0-3.443,0.235-3.92,0.594c-0.237,0.118-0.355,0.354-0.478,0.594
					c-0.118,0.237-0.118,0.477-0.236,0.831c0,0.238-0.117,0.595-0.117,0.713c0,0.119-0.119,0.478-0.119,0.832
					c0,0.356,0,0.594,0,0.712c0,0.119,0,1.545,0,4.276c0,5.938,0,9.978-0.119,11.877v1.783c0,0.711,0.238,1.306,0.714,1.543
					c0.477,0.235,1.426,0.354,2.731,0.354c2.02,0,4.273-0.119,6.89-0.235c0.475,0,0.949-0.119,1.307-0.356
					c0.355-0.237,0.595-0.595,0.595-0.95C140.264,38.65,140.027,38.295,139.55,38.177z"/>
			</g>
			<g>
				<path fill="#F47934" d="M66.622,36.988c-0.477-0.237-1.663-0.355-3.684-0.355v-0.476v-4.634c0-1.188,0-3.324,0-6.414
					c0-3.088,0-5.463,0-7.126c0-0.713-0.118-1.309-0.355-1.544c-0.236-0.238-0.713-0.478-1.308-0.713
					c-0.354-0.119-2.853-0.238-7.363-0.238c-0.95,0-1.663,0.238-2.139,0.595c-0.478,0.355-0.713,0.831-0.713,1.425v0.356
					c0,2.376-0.236,5.464-0.713,9.265c-0.477,3.92-1.068,7.011-1.662,9.502c-2.021,0-3.326,0.119-3.804,0.356
					c-0.594,0.354-0.948,0.949-0.948,2.02c0,0.237,0.117,0.596,0.117,1.069c0.119,0.475,0.119,0.713,0.119,0.713
					c0,0.237,0.237,0.594,0.713,0.712c0.477,0.119,0.949,0.238,1.544,0.238c0.596,0,1.068-0.119,1.427-0.238
					c0.354-0.118,0.594-0.354,0.594-0.712c0-0.354,0-0.832,0.119-1.545h14.49v1.545c0,0.354,0.117,0.594,0.595,0.712
					c0.354,0.119,0.831,0.238,1.426,0.238c1.426,0,2.139-0.356,2.139-0.95l0.119-1.899C67.335,37.938,67.096,37.227,66.622,36.988z
					 M57.951,36.634h-4.634c1.544-6.651,2.376-12.711,2.376-18.293c0.476,0,0.831,0,1.308,0s0.831,0,0.95,0h0.117
					C58.069,25.468,58.069,31.645,57.951,36.634z"/>
				<path fill="#F47934" d="M85.745,24.279c-0.595-2.851-1.068-4.87-1.308-5.938c0-0.476-0.236-0.949-0.236-1.188
					c0-0.239-0.237-0.713-0.477-1.068c-0.237-0.476-0.596-0.713-1.067-0.948c-0.478-0.238-0.95-0.356-1.663-0.356
					c-0.714,0-1.427,0.118-2.021,0.237c-0.596,0.235-0.95,0.475-1.309,0.831c-0.355,0.354-0.595,0.594-0.712,0.948
					c-0.238,0.356-0.354,0.715-0.477,1.188l-0.119,0.475c-0.712,2.14-2.021,6.771-3.919,14.019l-1.188,4.633
					c-0.118,0.236-0.118,0.594-0.118,0.83c0,0.832,0.477,1.308,1.545,1.308c0.236,0,0.714-0.118,1.545-0.354
					c0.83-0.117,1.307-0.354,1.544-0.477c0.354-0.594,0.832-2.494,1.544-5.699l0.354-1.309c0.478,0,1.309,0,2.376,0s1.899,0,2.375,0
					l1.309,6.771c0.119,0.83,0.713,1.188,1.662,1.188c2.021,0,3.09-0.594,3.09-1.663c0-0.235,0-0.354,0-0.476l-1.309-6.295
					C86.814,29.387,86.337,27.13,85.745,24.279z M80.043,28.556c-0.713,0-1.308,0-1.663,0l1.069-4.396
					c0.117-0.118,0.236-0.831,0.475-2.019c0.355-1.188,0.478-1.9,0.596-2.257l1.308,8.671
					C81.467,28.556,80.875,28.556,80.043,28.556z"/>
				<path fill="#F47934" d="M108.076,30.813c-0.356-1.544-0.832-3.802-1.427-6.651c-0.595-2.85-1.068-4.869-1.309-5.938
					c0-0.478-0.235-0.95-0.235-1.188c0-0.238-0.237-0.713-0.478-1.069c-0.235-0.476-0.594-0.713-1.066-0.948
					c-0.478-0.237-0.95-0.356-1.663-0.356s-1.426,0.119-2.021,0.237c-0.594,0.238-0.949,0.476-1.308,0.832
					c-0.356,0.354-0.594,0.594-0.713,0.95c-0.236,0.354-0.354,0.713-0.477,1.188l-0.117,0.478c-0.715,2.138-2.021,6.77-3.922,14.016
					l-1.188,4.632c-0.118,0.237-0.118,0.595-0.118,0.832c0,0.831,0.477,1.307,1.545,1.307c0.355,0,0.831-0.116,1.544-0.235
					c0.713-0.118,1.188-0.355,1.544-0.478c0.355-0.594,0.831-2.493,1.544-5.7c0.119-0.236,0.119-0.477,0.236-0.83
					c0.119-0.356,0.238-0.597,0.238-0.832c0.354-1.068,0.713-2.375,1.066-3.92c0.355-1.544,0.597-2.612,0.715-2.971
					c0-0.354,0.117-0.95,0.354-1.78c0.237-0.831,0.356-1.427,0.478-1.78l3.324,17.223c0.119,0.831,0.713,1.188,1.663,1.188
					c1.068,0,1.781-0.119,2.376-0.477c0.594-0.238,0.831-0.713,0.831-1.188c0-0.119,0-0.237-0.119-0.478L108.076,30.813z"/>
				<path fill="#F47934" d="M125.417,36.988c-0.476-0.118-1.188-0.237-2.257-0.237c-0.476,0-1.188,0.119-2.02,0.119
					c-0.832,0.118-1.428,0.118-1.899,0.118h-0.238v-1.9c0-0.947,0-2.257,0-4.273v-1.781c0-0.118,0.355-0.237,1.068-0.237h3.089
					c0.595,0,1.068-0.118,1.545-0.354c0.477-0.237,0.712-0.594,0.712-0.95c0-0.713-0.118-1.069-0.476-1.307
					c-0.356-0.238-1.068-0.356-2.376-0.356h-4.038c0,0,0-0.118,0-0.354c0-0.118,0-0.356,0-0.477v-0.713c0-0.119,0-0.594,0-1.307
					c0-0.831,0-1.544,0-2.375c0-1.545,0-2.376-0.118-2.376l3.089,0.117h0.477c1.661,0,2.73-0.117,3.206-0.236
					c0.478-0.237,0.714-0.594,0.714-1.188c0-0.594-0.236-1.067-0.714-1.188c-0.476-0.119-1.545-0.238-3.089-0.238h-1.544
					c-0.236,0-0.477,0-0.832,0c-0.354,0-0.713,0-0.831,0c-2.138,0-3.442,0.238-3.92,0.595c-0.235,0.118-0.354,0.355-0.477,0.596
					c-0.117,0.235-0.117,0.475-0.236,0.831c0,0.235-0.118,0.594-0.118,0.713s-0.118,0.475-0.118,0.831c0,0.354,0,0.595,0,0.713
					c0,0.119,0,1.544,0,4.274c0,5.938,0,9.979-0.118,11.878v1.781c0,0.713,0.236,1.308,0.713,1.544
					c0.477,0.238,1.427,0.355,2.73,0.355c2.021,0,4.275-0.117,6.891-0.236c0.477,0,0.949-0.119,1.308-0.355
					c0.357-0.236,0.594-0.595,0.594-0.949C126.128,37.464,125.892,37.107,125.417,36.988z"/>
				<path fill="#F47934" d="M142.165,36.988c-0.476-0.118-1.188-0.237-2.257-0.237c-0.476,0-1.188,0.119-2.02,0.119
					c-0.832,0.118-1.428,0.118-1.901,0.118h-0.236v-1.9c0-0.947,0-2.257,0-4.273v-1.781c0-0.118,0.355-0.237,1.068-0.237h3.089
					c0.594,0,1.068-0.118,1.544-0.354c0.477-0.237,0.713-0.594,0.713-0.95c0-0.713-0.119-1.069-0.476-1.307
					c-0.355-0.237-1.068-0.356-2.376-0.356h-4.038c0,0,0-0.118,0-0.354c0-0.118,0-0.356,0-0.477v-0.713c0-0.119,0-0.594,0-1.307
					c0-0.831,0-1.544,0-2.375c0-1.545,0-2.376-0.119-2.376l3.089,0.117h0.478c1.661,0,2.729-0.117,3.206-0.236
					c0.477-0.237,0.714-0.594,0.714-1.188c0-0.594-0.237-1.067-0.714-1.188c-0.477-0.119-1.545-0.238-3.089-0.238h-1.545
					c-0.235,0-0.476,0-0.831,0c-0.354,0-0.713,0-0.831,0c-2.139,0-3.443,0.238-3.92,0.595c-0.235,0.118-0.354,0.355-0.477,0.596
					c-0.117,0.235-0.117,0.475-0.236,0.831c0,0.235-0.119,0.594-0.119,0.713s-0.116,0.475-0.116,0.831c0,0.354,0,0.595,0,0.713
					c0,0.119,0,1.544,0,4.274c0,5.938,0,9.979-0.119,11.878v1.781c0,0.713,0.235,1.308,0.713,1.544
					c0.476,0.238,1.427,0.355,2.729,0.355c2.021,0,4.275-0.117,6.892-0.236c0.476,0,0.949-0.119,1.308-0.355
					c0.357-0.236,0.594-0.595,0.594-0.949C142.877,37.464,142.64,37.107,142.165,36.988z"/>
			</g>
		</g>
		<path fill="#F47934" d="M178.51,24.755c-7.362-7.127-14.848-14.373-22.212-21.499c-2.138-2.02-5.699-1.661-8.552-1.661
			c-4.634,0-9.266,0-13.896,0c-29.338,0-77.919,0-107.259,0c-5.346,0-10.811,0-16.152,0C9.607,1.476,8.895,1.476,8.063,1.711
			C5.569,2.067,4.025,3.612,3.548,5.515C2.835,7.176,3.073,9.077,4.736,10.62c0.118,0.118,0.118,0.118,0.237,0.237l0,0
			c6.058,5.583,12.113,11.284,18.173,16.866c-6.06,5.818-12.115,11.641-18.173,17.46c-3.563,3.442-1.188,9.266,4.396,9.266
			c21.976,0,63.189,0,85.282,0c14.254,0,28.508,0,42.762,0c5.819,0,15.44,1.662,19.836-2.376
			c7.127-6.532,14.254-13.063,21.38-19.599C180.885,30.219,180.768,27.012,178.51,24.755z M168.176,31.406
			c-5.818,4.988-11.641,9.857-17.342,14.848c-3.563,3.089-11.4,1.781-16.151,1.781c-11.643,0-25.184,0-36.703,0
			c-17.938,0-55.231,0-73.168,0c-4.516,0-6.414-4.395-3.563-7.008c18.647-12.828,9.503-18.173,0-25.896l0,0l-0.118-0.117
			c-1.307-1.188-1.545-2.613-0.95-3.92c0.478-1.427,1.663-2.613,3.684-2.853c0.595-0.119,1.308-0.119,1.9-0.119
			c4.396,0,8.788,0,13.186,0c23.875,0,67.229,0,91.104,0c3.803,0,9.504,0,13.305,0c2.257,0,5.228-0.354,6.891,1.188
			c6.059,5.464,11.997,10.809,18.056,16.271C170.078,27.367,170.197,29.743,168.176,31.406z"/>
	</g>
	<g>
		<path fill="#E9AD77" d="M101.364,8.007c0.404,0,0.812,0,1.214,0l7.275-6.412c-0.405,0-0.809,0-1.214,0L101.364,8.007z"/>
		<path fill="#E9AD77" d="M96.137,8.007c0.403,0,0.811,0,1.214,0l7.273-6.412c-0.4,0-0.81,0-1.213,0L96.137,8.007z"/>
		<path fill="#E9AD77" d="M106.71,8.007c0.406,0,0.812,0,1.213,0l7.274-6.412c-0.4,0-0.809,0-1.213,0L106.71,8.007z"/>
		<path fill="#E9AD77" d="M111.935,8.007c0.407,0,0.809,0,1.213,0l7.274-6.412c-0.403,0-0.806,0-1.214,0L111.935,8.007z"/>
		<path fill="#E9AD77" d="M127.733,8.007c0.414,0,0.811,0,1.213,0l7.276-6.412c-0.405,0-0.812,0-1.216,0L127.733,8.007z"/>
		<path fill="#E9AD77" d="M122.505,8.007c0.41,0,0.813,0,1.214,0l7.275-6.412c-0.396,0-0.812,0-1.215,0L122.505,8.007z"/>
		<path fill="#E9AD77" d="M117.162,8.007c0.407,0,0.812,0,1.213,0l7.275-6.412c-0.401,0-0.807,0-1.214,0L117.162,8.007z"/>
		<path fill="#E9AD77" d="M90.911,8.007c0.404,0,0.809,0,1.213,0l7.274-6.412c-0.403,0-0.809,0-1.213,0L90.911,8.007z"/>
		<path fill="#E9AD77" d="M69.769,8.007c0.402,0,0.809,0,1.213,0l7.273-6.412c-0.402,0-0.81,0-1.213,0L69.769,8.007z"/>
		<path fill="#E9AD77" d="M48.745,8.007c0.398,0,0.809,0,1.213,0l7.274-6.412c-0.404,0-0.812,0-1.213,0L48.745,8.007z"/>
		<path fill="#E9AD77" d="M38.172,8.007c0.141,0,0.277,0,0.416,0c0.261,0,0.533,0,0.797,0l7.275-6.412c-0.405,0-0.813,0-1.214,0
			L38.172,8.007z"/>
		<path fill="#E9AD77" d="M43.519,8.007c0.396,0,0.809,0,1.213,0l7.273-6.412c-0.404,0-0.81,0-1.213,0L43.519,8.007z"/>
		<path fill="#E9AD77" d="M59.316,8.007c0.4,0,0.809,0,1.213,0l7.274-6.412c-0.404,0-0.811,0-1.214,0L59.316,8.007z"/>
		<path fill="#E9AD77" d="M75.114,8.007c0.403,0,0.81,0,1.214,0l7.274-6.412c-0.404,0-0.811,0-1.213,0L75.114,8.007z"/>
		<path fill="#E9AD77" d="M64.543,8.007c0.403,0,0.808,0,1.213,0l7.274-6.412c-0.404,0-0.809,0-1.213,0L64.543,8.007z"/>
		<path fill="#E9AD77" d="M80.339,8.007c0.405,0,0.811,0,1.215,0l7.273-6.412c-0.404,0-0.809,0-1.214,0L80.339,8.007z"/>
		<path fill="#E9AD77" d="M85.566,8.007c0.405,0,0.81,0,1.213,0l7.274-6.412c-0.402,0-0.81,0-1.214,0L85.566,8.007z"/>
		<path fill="#E9AD77" d="M132.96,8.007c0.396,0,0.803,0,1.213,0l7.274-6.412c-0.403,0-0.809,0-1.213,0L132.96,8.007z"/>
		<path fill="#E9AD77" d="M53.971,8.007c0.398,0,0.809,0,1.213,0l7.273-6.412c-0.404,0-0.81,0-1.213,0L53.971,8.007z"/>
		<path fill="#E9AD77" d="M20.412,1.593c-0.406,0-0.808,0-1.213,0L6.784,12.535c0.196,0.184,0.395,0.366,0.591,0.548L20.412,1.593z"
			/>
		<path fill="#E9AD77" d="M167.163,24.346c0.2,0.181,0.4,0.356,0.604,0.537l5.693-5.02c-0.191-0.187-0.387-0.373-0.578-0.56
			L167.163,24.346z"/>
		<path fill="#E9AD77" d="M8.64,1.582L3.298,6.29C3.205,6.68,3.157,7.072,3.174,7.47l6.729-5.936
			C9.478,1.502,9.067,1.511,8.64,1.582z"/>
		<path fill="#E9AD77" d="M175.372,21.716l-5.879,5.185c0.13,0.267,0.227,0.538,0.292,0.812l6.166-5.435
			C175.757,22.09,175.565,21.902,175.372,21.716z"/>
		<path fill="#E9AD77" d="M25.637,1.593c-0.401,0-0.811,0-1.214,0L9.329,14.899c0.196,0.183,0.396,0.365,0.591,0.548L25.637,1.593z"
			/>
		<path fill="#E9AD77" d="M31.747,27.6L4.189,51.895c0.146,0.221,0.313,0.432,0.498,0.631l27.026-23.827
			C31.765,28.326,31.773,27.961,31.747,27.6z"/>
		<path fill="#E9AD77" d="M13.854,1.593l-9.625,8.483c0.151,0.187,0.317,0.366,0.509,0.542c0.021,0.021,0.027,0.027,0.042,0.042
			l10.288-9.069C14.662,1.593,14.257,1.593,13.854,1.593z"/>
		<path fill="#E9AD77" d="M30.4,24.179L3.401,47.98c-0.08,0.384-0.107,0.771-0.098,1.154l27.529-24.271
			C30.704,24.638,30.559,24.408,30.4,24.179z"/>
		<path fill="#E9AD77" d="M164.57,22.024c0.201,0.18,0.401,0.359,0.604,0.539l5.797-5.11c-0.192-0.187-0.387-0.373-0.577-0.56
			L164.57,22.024z"/>
		<path fill="#E9AD77" d="M148.454,8.274c0.3,0.081,0.585,0.186,0.854,0.313l6.481-5.715c-0.229-0.165-0.465-0.313-0.717-0.438
			L148.454,8.274z"/>
		<path fill="#E9AD77" d="M151.489,10.311c0.2,0.181,0.4,0.357,0.603,0.539l6.311-5.563c-0.191-0.186-0.386-0.374-0.577-0.56
			L151.489,10.311z"/>
		<path fill="#E9AD77" d="M138.303,8.007c0.41,0,0.813,0,1.214,0l7.274-6.412c-0.402,0-0.811,0-1.214,0L138.303,8.007z"/>
		<path fill="#E9AD77" d="M154.082,12.632c0.199,0.182,0.4,0.359,0.604,0.539l6.207-5.472c-0.191-0.187-0.388-0.373-0.578-0.56
			L154.082,12.632z"/>
		<path fill="#E9AD77" d="M143.534,8.004c0.396-0.003,0.813-0.012,1.235-0.021l7.189-6.339c-0.379-0.032-0.761-0.054-1.144-0.063
			L143.534,8.004z"/>
		<path fill="#E9AD77" d="M161.918,19.65c0.2,0.179,0.4,0.36,0.604,0.539l5.898-5.202c-0.191-0.188-0.385-0.373-0.578-0.56
			L161.918,19.65z"/>
		<path fill="#E9AD77" d="M159.326,17.328c0.199,0.179,0.4,0.36,0.604,0.539l6.002-5.291c-0.193-0.187-0.387-0.373-0.578-0.56
			L159.326,17.328z"/>
		<path fill="#E9AD77" d="M156.706,14.982c0.199,0.179,0.4,0.36,0.604,0.54l6.104-5.38c-0.192-0.188-0.386-0.373-0.578-0.562
			L156.706,14.982z"/>
		<path fill="#E9AD77" d="M104.564,48.035c-0.403,0-0.813,0-1.213,0l-7.274,6.414c0.403,0,0.809,0,1.213,0L104.564,48.035z"/>
		<path fill="#E9AD77" d="M109.909,48.035c-0.405,0-0.81,0-1.214,0l-7.274,6.414c0.404,0,0.811,0,1.213,0L109.909,48.035z"/>
		<path fill="#E9AD77" d="M99.336,48.035c-0.399,0-0.813,0-1.213,0l-7.274,6.414c0.407,0,0.813,0,1.213,0L99.336,48.035z"/>
		<path fill="#E9AD77" d="M120.4,48.035c-0.403,0-0.812,0-1.214,0l-7.281,6.414c0.405,0,0.811,0,1.215,0L120.4,48.035z"/>
		<path fill="#E9AD77" d="M94.112,48.035c-0.396,0-0.805,0-1.213,0l-7.275,6.414c0.411,0,0.811,0,1.213,0L94.112,48.035z"/>
		<path fill="#E9AD77" d="M115.134,48.035c-0.402,0-0.809,0-1.213,0l-7.273,6.414c0.402,0,0.81,0,1.213,0L115.134,48.035z"/>
		<path fill="#E9AD77" d="M78.314,48.035c-0.402,0-0.809,0-1.213,0l-7.275,6.414c0.406,0,0.809,0,1.213,0L78.314,48.035z"/>
		<path fill="#E9AD77" d="M72.969,48.035c-0.404,0-0.809,0-1.215,0l-7.274,6.414c0.403,0,0.81,0,1.213,0L72.969,48.035z"/>
		<path fill="#E9AD77" d="M83.541,48.035c-0.398,0-0.809,0-1.213,0l-7.276,6.414c0.408,0,0.81,0,1.215,0L83.541,48.035z"/>
		<path fill="#E9AD77" d="M67.743,48.035c-0.404,0-0.809,0-1.214,0l-7.275,6.414c0.404,0,0.812,0,1.213,0L67.743,48.035z"/>
		<path fill="#E9AD77" d="M88.766,48.035c-0.399,0-0.806,0-1.213,0l-7.276,6.414c0.409,0,0.81,0,1.213,0L88.766,48.035z"/>
		<path fill="#E9AD77" d="M178.498,24.742c-0.189-0.186-0.387-0.374-0.578-0.56l-34.606,30.509c0.384,0.019,0.771,0.033,1.159,0.048
			L178.498,24.742z"/>
		<path fill="#E9AD77" d="M146.78,47.992c-0.466,0.082-0.942,0.146-1.434,0.193l-7.119,6.273c0.379,0.01,0.771,0.021,1.172,0.037
			L146.78,47.992z"/>
		<path fill="#E9AD77" d="M180.169,27.875c-0.05-0.292-0.13-0.579-0.229-0.863L148.472,54.75c0.438-0.018,0.874-0.045,1.305-0.08
			L180.169,27.875z"/>
		<path fill="#E9AD77" d="M125.707,48.035c-0.399,0-0.811,0-1.213,0l-7.275,6.414c0.404,0,0.811,0,1.215,0L125.707,48.035z"/>
		<path fill="#E9AD77" d="M170.206,40.197l-14.969,13.195c0.747-0.354,1.429-0.783,2.013-1.319
			C161.568,48.115,165.885,44.156,170.206,40.197z"/>
		<path fill="#E9AD77" d="M141.214,48.29c-0.393-0.011-0.779-0.021-1.168-0.04l-7.03,6.199c0.402,0,0.81,0,1.213,0L141.214,48.29z"
			/>
		<path fill="#E9AD77" d="M130.933,48.035c-0.403,0-0.809,0-1.214,0l-7.275,6.414c0.404,0,0.81,0,1.213,0L130.933,48.035z"/>
		<path fill="#E9AD77" d="M136.24,48.068c-0.409-0.016-0.805-0.025-1.18-0.029l-7.271,6.41c0.403,0,0.811,0,1.213,0L136.24,48.068z"
			/>
		<path fill="#E9AD77" d="M21.317,8.94c0.563-0.403,1.265-0.692,2.125-0.804l7.422-6.544c-0.403,0-0.813,0-1.213,0L21.317,8.94z"/>
		<path fill="#E9AD77" d="M23.567,17.346c-0.201-0.178-0.401-0.353-0.609-0.532l-5.932,5.229c0.197,0.185,0.395,0.365,0.592,0.548
			L23.567,17.346z"/>
		<path fill="#E9AD77" d="M20.939,15.056c-0.018-0.016-0.03-0.027-0.047-0.041l-0.118-0.119c-0.146-0.134-0.276-0.272-0.397-0.412
			l-5.895,5.196c0.196,0.184,0.395,0.363,0.591,0.548L20.939,15.056z"/>
		<path fill="#E9AD77" d="M26.171,19.655c-0.192-0.177-0.396-0.359-0.601-0.541l-6,5.29c0.197,0.183,0.395,0.366,0.592,0.548
			L26.171,19.655z"/>
		<path fill="#E9AD77" d="M28.712,22.128c-0.179-0.188-0.362-0.383-0.558-0.579l-5.979,5.272c0.197,0.182,0.396,0.367,0.593,0.548
			L28.712,22.128z"/>
		<path fill="#E9AD77" d="M19.466,44.206c-0.043-0.373-0.026-0.749,0.056-1.117L7.072,54.064c0.297,0.104,0.606,0.186,0.934,0.246
			L19.466,44.206z"/>
		<path fill="#E9AD77" d="M27.721,8.007c0.402,0,0.809,0,1.213,0l7.273-6.412c-0.404,0-0.813,0-1.213,0L27.721,8.007z"/>
		<path fill="#E9AD77" d="M19.634,11.493c0.051-0.174,0.11-0.346,0.188-0.517c0.177-0.527,0.45-1.021,0.827-1.448l-8.772,7.734
			c0.196,0.184,0.396,0.363,0.591,0.549L19.634,11.493z"/>
		<path fill="#E9AD77" d="M32.947,8.007c0.404,0,0.81,0,1.214,0l7.274-6.412c-0.409,0-0.81,0-1.214,0L32.947,8.007z"/>
		<path fill="#E9AD77" d="M46.717,48.035c-0.403,0-0.812,0-1.213,0l-7.274,6.414c0.402,0,0.809,0,1.213,0L46.717,48.035z"/>
		<path fill="#E9AD77" d="M41.374,48.035c-0.408,0-0.811,0-1.213,0l-7.276,6.414c0.404,0,0.808,0,1.215,0L41.374,48.035z"/>
		<path fill="#E9AD77" d="M51.945,48.035c-0.403,0-0.813,0-1.213,0l-7.275,6.414c0.403,0,0.811,0,1.213,0L51.945,48.035z"/>
		<path fill="#E9AD77" d="M62.516,48.035c-0.404,0-0.811,0-1.213,0l-7.276,6.414c0.405,0,0.81,0,1.213,0L62.516,48.035z"/>
		<path fill="#E9AD77" d="M21.366,47.141c-0.23-0.154-0.443-0.326-0.637-0.512l-8.869,7.818c0.396,0,0.806,0,1.214,0L21.366,47.141z
			"/>
		<path fill="#E9AD77" d="M57.17,48.035c-0.402,0-0.811,0-1.213,0l-7.274,6.414c0.402,0,0.809,0,1.213,0L57.17,48.035z"/>
		<path fill="#E9AD77" d="M25.576,48.035c-0.377,0-0.76,0-1.121,0c-0.029,0-0.057-0.005-0.085-0.006l-7.282,6.42
			c0.404,0,0.804,0,1.213,0L25.576,48.035z"/>
		<path fill="#E9AD77" d="M30.92,48.035c-0.407,0-0.814,0-1.213,0l-7.274,6.414c0.402,0,0.803,0,1.213,0L30.92,48.035z"/>
		<path fill="#E9AD77" d="M36.147,48.035c-0.41,0-0.813,0-1.213,0l-7.275,6.414c0.404,0,0.805,0,1.213,0L36.147,48.035z"/>
	</g>
</g>
</svg>
