<?xml version="1.0" encoding="utf-8"?>
<!-- Generator: Adobe Illustrator 16.0.0, SVG Export Plug-In . SVG Version: 6.00 Build 0)  -->
<!DOCTYPE svg PUBLIC "-//W3C//DTD SVG 1.1//EN" "http://www.w3.org/Graphics/SVG/1.1/DTD/svg11.dtd">
<svg version="1.1" id="Layer_1" xmlns="http://www.w3.org/2000/svg" xmlns:xlink="http://www.w3.org/1999/xlink" x="0px" y="0px"
	 width="179.516px" height="56.955px" viewBox="0 0 179.516 56.955" enable-background="new 0 0 179.516 56.955"
	 xml:space="preserve">
<g>
	<path fill="#FFFFFF" d="M173.287,24.011c-7.127-6.89-14.136-13.778-21.262-20.668c-2.021-1.9-5.464-1.544-8.195-1.544
		c-4.396,0-8.908,0-13.304,0c-28.15,0-74.594,0-102.744,0c-5.107,0-10.335,0-15.441,0c-0.713-0.119-1.544-0.119-2.257,0.119
		C7.71,2.272,6.284,3.816,5.69,5.48c-0.594,1.544-0.478,3.325,1.188,4.988l0.119,0.119l0,0c5.819,5.345,11.642,10.809,17.46,16.153
		c-5.82,5.583-11.641,11.166-17.46,16.747c-3.444,3.324-1.188,8.789,4.156,8.789c21.023,0,60.577,0,81.602,0
		c13.66,0,27.319,0,40.859,0c5.465,0,14.729,1.545,19.006-2.258c6.771-6.295,13.658-12.472,20.43-18.768
		C175.543,29.237,175.424,26.148,173.287,24.011z"/>
	<g>
		<g>
			<g>
				<g>
					<g>
						<defs>
							<path id="SVGID_1_" d="M176.969,23.773c-7.363-7.127-14.849-14.371-22.212-21.497c-2.139-2.021-5.7-1.663-8.553-1.663
								c-4.634,0-9.266,0-13.896,0c-29.338,0-77.919,0-107.258,0c-5.347,0-10.811,0-16.153,0C8.065,0.494,7.353,0.494,6.521,0.729
								C4.027,1.086,2.483,2.631,2.007,4.533C1.81,4.993,1.694,5.471,1.653,5.956C1.446,6.331,1.281,6.727,1.175,7.144
								c-0.713,1.663-0.476,3.563,1.188,5.108c0,0.118,0.119,0.118,0.237,0.237c5.736,5.287,11.477,10.676,17.213,15.975
								c-5.46,5.246-10.92,10.493-16.381,15.739c-1.114,1.076-1.646,2.385-1.686,3.675c-2.205,3.457,0.204,8.203,5.248,8.203
								c21.976,0,63.189,0,85.283,0c14.254,0,28.508,0,42.762,0c5.818,0,15.439,1.663,19.836-2.376
								c7.127-6.532,14.253-13.065,21.381-19.601c1.021-1.074,1.531-2.321,1.603-3.563
								C179.269,28.396,178.926,25.729,176.969,23.773z"/>
						</defs>
						<clipPath id="SVGID_2_">
							<use xlink:href="#SVGID_1_"  overflow="visible"/>
						</clipPath>
					</g>
				</g>
			</g>
		</g>
		<g>
			<path fill="#024C3A" d="M176.137,26.386c-7.363-7.126-14.848-14.372-22.212-21.499c-2.139-2.019-5.7-1.662-8.553-1.662
				c-4.633,0-9.266,0-13.896,0c-29.339,0-77.919,0-107.26,0c-5.345,0-10.809,0-16.152,0c-0.831-0.12-1.544-0.12-2.375,0.118
				c-2.494,0.356-4.039,1.9-4.516,3.801c-0.713,1.663-0.477,3.563,1.188,5.108c0,0.118,0.119,0.118,0.237,0.237l0,0
				c6.06,5.582,12.114,11.282,18.174,16.863c-6.06,5.82-12.114,11.644-18.174,17.461c-3.563,3.444-1.188,9.268,4.396,9.268
				c21.974,0,63.189,0,85.283,0c14.253,0,28.508,0,42.762,0c5.818,0,15.439,1.663,19.836-2.376
				c7.127-6.532,14.253-13.065,21.38-19.601C178.514,31.731,178.395,28.524,176.137,26.386z M164.973,32.919
				c-5.701,4.87-11.402,9.74-17.225,14.609c-3.563,2.97-11.284,1.779-15.916,1.779c-11.402,0-24.825,0-36.348,0
				c-17.698,0-54.64,0-72.337,0c-4.396,0-6.295-4.273-3.443-6.89c4.87-4.396,10.453-9.739,10.453-13.185
				c0-3.563-5.465-8.195-10.453-12.354l0,0l-0.118-0.119c-1.308-1.188-1.426-2.611-0.949-3.801c0.476-1.425,1.661-2.494,3.683-2.851
				c0.595-0.118,1.188-0.118,1.898-0.118c4.276,0,8.673,0,12.947,0c23.637,0,66.397,0,90.035,0c3.683,0,9.384,0,13.064,0
				c2.257,0,5.105-0.356,6.89,1.188c5.938,5.345,11.879,10.69,17.814,16.035C166.753,28.881,166.873,31.256,164.973,32.919z"/>
		</g>
	</g>
	<g>
		<path fill="#CEE3CE" d="M139.198,38.739c-0.533-3.204-4.067-3.342-7.056-3.207c0.019-0.958,0.032-1.902,0.038-2.858
			c1.159,0.026,2.763-0.016,3.335-0.229c2.021-0.594,3.442-2.492,3.088-4.632c-0.531-3.101-3.771-3.357-6.666-3.291
			c0.012-0.729,0.014-1.462,0.014-2.21c1.938,0.045,3.964-0.023,5.347-0.794c2.26-1.307,2.613-4.752,0.597-6.414
			c-2.259-2.02-9.503-1.663-12.116-0.832c-1.888,0.577-2.847,1.941-3.333,3.593c-0.043-1.041-0.447-2.062-1.299-2.761
			c-2.259-2.02-9.503-1.663-12.115-0.832c-4.275,1.309-3.802,6.651-3.802,10.217c0,3.005-0.283,6.104-0.344,9.178
			c-1.016-4.939-1.83-9.946-3.221-14.76c-1.188-4.157-4.989-6.298-9.266-4.516c-3.802,1.663-4.516,6.771-5.464,10.215
			c-0.87,3.13-1.991,6.451-2.813,9.73c-0.182-0.758-0.359-1.511-0.517-2.247c-0.95-4.633-1.309-10.69-3.443-14.967
			c-1.544-3.088-4.989-3.919-8.196-2.853c-2.969,0.95-3.801,3.326-4.751,6.06c-1.544,4.752-2.729,9.737-4.036,14.608
			c-0.18,0.68-0.422,1.42-0.625,2.185c-0.851-1.035-2.068-1.444-3.398-1.604c0.023-5.205,0.096-10.459,0.101-15.646
			c0.021-0.189,0.025-0.394,0.003-0.61c-0.007-0.057-0.021-0.104-0.024-0.159c-0.018-0.184-0.043-0.355-0.087-0.52
			c-0.473-2.593-1.793-3.766-4.64-4.313c-2.851-0.475-8.313-0.831-10.688,1.069c-2.14,1.663-1.662,4.276-1.899,6.771
			c-0.208,4.475-0.803,8.94-1.739,13.333c-1.89,0.103-3.723,0.529-4.675,2.348c-0.832,1.544-0.832,4.395,0.119,5.938
			c2.249,3.655,6.411,2.424,8.188-0.475c3.626,0,7.223,0,10.848,0c1.53,2.702,5.132,3.957,7.81,1.188
			c0.479-0.477,0.795-1.146,0.993-1.885c1.854,1.469,5.56,1.069,7.322-0.253c1.854-1.393,2.333-4.229,2.736-6.651
			c0.129,0,0.263,0,0.393,0c0.29,2.293,0.604,4.978,1.978,6.533c2.168,2.362,6.204,1.699,8.135-0.625
			c1.375,1.95,4.421,2.328,7.188,0.862c1.899-1.069,2.376-2.854,2.853-4.989c0.174-0.67,0.341-1.348,0.508-2.022
			c0.34,1.629,0.742,3.228,1.272,4.757c1.068,3.207,4.634,4.039,7.604,2.495c1.09-0.565,1.706-1.271,2.029-2.063
			c1.136,3.006,4.437,2.998,7.827,2.896c2.595-0.101,7.852,0.122,8.98-2.753c1.186,2.857,4.429,2.854,7.768,2.753
			C133.14,43.371,140.03,43.728,139.198,38.739z M122.084,19.744c-0.182,1.618-0.107,3.318-0.107,4.739
			c0,1.183-0.044,2.378-0.104,3.58c-0.01-0.085-0.002-0.168-0.018-0.254c-0.531-3.101-3.771-3.357-6.667-3.291
			c0.013-0.729,0.014-1.462,0.014-2.21c1.938,0.045,3.964-0.023,5.348-0.794C121.265,21.103,121.766,20.463,122.084,19.744z
			 M115.395,35.532c0.02-0.958,0.035-1.901,0.039-2.858c1.159,0.026,2.762-0.016,3.334-0.229c1.517-0.443,2.694-1.627,3.041-3.092
			c-0.135,2.566-0.271,5.154-0.123,7.695C120.372,35.5,117.724,35.429,115.395,35.532z"/>
		<g>
			<path fill="#024C3A" d="M62.465,37.076c-0.477-0.237-1.662-0.356-3.683-0.356v-0.475v-4.633c0-1.188,0-3.325,0-6.414
				c0-3.09,0-5.466,0-7.127c0-0.714-0.118-1.309-0.355-1.546c-0.236-0.235-0.713-0.475-1.308-0.713
				c-0.354-0.118-2.852-0.235-7.364-0.235c-0.948,0-1.662,0.235-2.138,0.594c-0.476,0.354-0.714,0.832-0.714,1.426v0.356
				c0,2.375-0.236,5.464-0.712,9.265c-0.478,3.92-1.068,7.008-1.663,9.502c-2.021,0-3.325,0.119-3.801,0.356
				c-0.596,0.354-0.95,0.948-0.95,2.021c0,0.236,0.118,0.594,0.118,1.067c0.119,0.476,0.119,0.713,0.119,0.713
				c0,0.236,0.235,0.595,0.713,0.713c0.476,0.119,0.949,0.237,1.544,0.237s1.067-0.118,1.425-0.237
				c0.356-0.118,0.595-0.356,0.595-0.713s0-0.831,0.119-1.544h14.49v1.544c0,0.354,0.119,0.595,0.595,0.713
				c0.355,0.119,0.832,0.237,1.426,0.237c1.426,0,2.14-0.355,2.14-0.95l0.117-1.899C63.179,38.026,62.941,37.313,62.465,37.076z
				 M53.794,36.72h-4.633c1.544-6.65,2.376-12.709,2.376-18.292c0.477,0,0.831,0,1.309,0c0.475,0,0.829,0,0.948,0h0.118
				C53.914,25.555,53.914,31.731,53.794,36.72z"/>
			<path fill="#024C3A" d="M81.588,24.367c-0.594-2.853-1.066-4.87-1.308-5.939c0-0.475-0.236-0.95-0.236-1.188
				c0-0.238-0.235-0.713-0.476-1.069c-0.237-0.475-0.595-0.713-1.068-0.95c-0.477-0.237-0.95-0.354-1.663-0.354
				s-1.425,0.117-2.021,0.236c-0.594,0.237-0.949,0.477-1.308,0.831c-0.354,0.356-0.595,0.596-0.713,0.95
				c-0.236,0.356-0.354,0.713-0.477,1.188l-0.117,0.476c-0.714,2.138-2.021,6.771-3.92,14.016l-1.188,4.636
				c-0.119,0.235-0.119,0.594-0.119,0.831c0,0.828,0.476,1.307,1.544,1.307c0.235,0,0.713-0.119,1.544-0.355
				c0.832-0.117,1.308-0.354,1.544-0.476c0.354-0.595,0.832-2.495,1.544-5.702l0.354-1.307c0.478,0,1.309,0,2.378,0
				c1.067,0,1.897,0,2.375,0l1.307,6.771c0.119,0.832,0.713,1.188,1.663,1.188c2.021,0,3.089-0.596,3.089-1.663
				c0-0.237,0-0.356,0-0.478l-1.307-6.295C82.659,29.476,82.183,27.218,81.588,24.367z M75.888,28.762c-0.715,0-1.309,0-1.663,0
				l1.067-4.395c0.119-0.119,0.236-0.832,0.477-2.021c0.354-1.188,0.477-1.898,0.594-2.257l1.308,8.671
				C77.314,28.762,76.718,28.762,75.888,28.762z"/>
			<path fill="#024C3A" d="M103.919,31.019c-0.354-1.543-0.832-3.801-1.426-6.648c-0.595-2.852-1.069-4.87-1.308-5.939
				c0-0.475-0.236-0.95-0.236-1.188c0-0.238-0.237-0.714-0.478-1.069c-0.236-0.475-0.595-0.712-1.067-0.95
				c-0.478-0.236-0.949-0.354-1.662-0.354c-0.714,0-1.427,0.118-2.021,0.236c-0.596,0.237-0.95,0.477-1.309,0.831
				c-0.355,0.356-0.595,0.596-0.713,0.95c-0.237,0.356-0.355,0.713-0.476,1.188l-0.119,0.476c-0.712,2.138-2.021,6.771-3.919,14.017
				L88,37.2c-0.118,0.234-0.118,0.594-0.118,0.831c0,0.831,0.477,1.307,1.544,1.307c0.356,0,0.831-0.119,1.545-0.237
				c0.714-0.119,1.188-0.354,1.545-0.476c0.354-0.594,0.832-2.494,1.544-5.701c0.118-0.237,0.118-0.475,0.236-0.831
				c0.118-0.355,0.237-0.594,0.237-0.832c0.354-1.068,0.713-2.375,1.067-3.92c0.354-1.544,0.595-2.612,0.713-2.969
				c0-0.356,0.119-0.95,0.354-1.782c0.236-0.831,0.355-1.425,0.478-1.781l3.324,17.225c0.118,0.831,0.714,1.188,1.663,1.188
				c1.068,0,1.781-0.117,2.375-0.475c0.596-0.237,0.831-0.714,0.831-1.188c0-0.119,0-0.238-0.116-0.477L103.919,31.019z"/>
			<path fill="#024C3A" d="M121.262,37.194c-0.477-0.118-1.188-0.237-2.258-0.237c-0.477,0-1.188,0.119-2.021,0.119
				c-0.832,0.118-1.426,0.118-1.899,0.118h-0.236v-1.899c0-0.95,0-2.257,0-4.276V29.24c0-0.119,0.354-0.238,1.067-0.238h3.089
				c0.596,0,1.067-0.118,1.544-0.356c0.477-0.235,0.712-0.594,0.712-0.949c0-0.713-0.116-1.067-0.475-1.308
				c-0.356-0.237-1.069-0.354-2.376-0.354h-4.038c0,0,0-0.119,0-0.356c0-0.119,0-0.354,0-0.476v-0.714c0-0.117,0-0.595,0-1.308
				c0-0.831,0-1.544,0-2.375c0-1.544,0-2.376-0.119-2.376l3.326,0.119h0.236c1.663,0,2.73-0.119,3.207-0.237
				c0.477-0.237,0.713-0.595,0.713-1.188c0-0.594-0.236-1.068-0.713-1.188c-0.477-0.119-1.544-0.235-3.089-0.235h-1.545
				c-0.235,0-0.476,0-0.832,0c-0.354,0-0.712,0-0.829,0c-2.14,0-3.443,0.235-3.921,0.594c-0.236,0.118-0.354,0.354-0.476,0.594
				c-0.119,0.237-0.119,0.477-0.238,0.831c0,0.238-0.116,0.595-0.116,0.713c0,0.119-0.119,0.478-0.119,0.832
				c0,0.356,0,0.594,0,0.712c0,0.119,0,1.545,0,4.276c0,5.938,0,9.979-0.119,11.878v1.782c0,0.712,0.238,1.306,0.714,1.544
				c0.476,0.235,1.426,0.354,2.731,0.354c2.021,0,4.273-0.119,6.889-0.236c0.477,0,0.95-0.118,1.308-0.356
				c0.355-0.237,0.595-0.594,0.595-0.95C121.975,37.67,121.738,37.313,121.262,37.194z"/>
			<path fill="#024C3A" d="M138.008,37.194c-0.475-0.118-1.188-0.237-2.257-0.237c-0.476,0-1.188,0.119-2.02,0.119
				c-0.832,0.118-1.426,0.118-1.899,0.118h-0.236v-1.899c0-0.95,0-2.257,0-4.276V29.24c0-0.119,0.354-0.238,1.067-0.238h3.088
				c0.597,0,1.068-0.118,1.544-0.356c0.478-0.235,0.713-0.594,0.713-0.949c0-0.713-0.116-1.067-0.475-1.308
				c-0.355-0.237-1.069-0.354-2.377-0.354h-4.037c0,0,0-0.119,0-0.356c0-0.119,0-0.354,0-0.476v-0.714c0-0.117,0-0.595,0-1.308
				c0-0.831,0-1.544,0-2.375c0-1.544,0-2.376-0.119-2.376l3.089,0.119h0.477c1.663,0,2.73-0.119,3.207-0.237
				c0.477-0.237,0.713-0.595,0.713-1.188c0-0.594-0.236-1.068-0.713-1.188c-0.477-0.119-1.544-0.235-3.088-0.235h-1.544
				c-0.238,0-0.478,0-0.832,0c-0.355,0-0.715,0-0.831,0c-2.141,0-3.443,0.235-3.92,0.594c-0.237,0.118-0.355,0.354-0.478,0.594
				c-0.118,0.237-0.118,0.477-0.236,0.831c0,0.238-0.117,0.595-0.117,0.713c0,0.119-0.119,0.478-0.119,0.832
				c0,0.356,0,0.594,0,0.712c0,0.119,0,1.545,0,4.276c0,5.938,0,9.979-0.119,11.878v1.782c0,0.712,0.238,1.306,0.714,1.544
				c0.477,0.235,1.426,0.354,2.731,0.354c2.02,0,4.273-0.119,6.889-0.236c0.476,0,0.95-0.118,1.308-0.356
				c0.355-0.237,0.595-0.594,0.595-0.95C138.723,37.67,138.486,37.313,138.008,37.194z"/>
		</g>
		<g>
			<path fill="#2C9942" d="M65.08,36.007c-0.477-0.236-1.663-0.355-3.684-0.355v-0.476v-4.633c0-1.188,0-3.325,0-6.414
				c0-3.088,0-5.463,0-7.126c0-0.713-0.118-1.309-0.355-1.544c-0.236-0.238-0.713-0.478-1.308-0.713
				c-0.354-0.119-2.853-0.238-7.363-0.238c-0.95,0-1.663,0.238-2.139,0.595c-0.478,0.355-0.713,0.831-0.713,1.425v0.356
				c0,2.376-0.236,5.464-0.713,9.265c-0.477,3.92-1.068,7.01-1.662,9.502c-2.021,0-3.326,0.119-3.804,0.355
				c-0.594,0.354-0.948,0.95-0.948,2.02c0,0.238,0.117,0.597,0.117,1.07c0.119,0.475,0.119,0.713,0.119,0.713
				c0,0.236,0.237,0.594,0.713,0.711c0.477,0.119,0.949,0.238,1.544,0.238c0.596,0,1.068-0.119,1.427-0.238
				c0.354-0.117,0.594-0.354,0.594-0.711c0-0.354,0-0.832,0.119-1.545h14.49v1.545c0,0.354,0.117,0.594,0.595,0.711
				c0.354,0.119,0.831,0.238,1.426,0.238c1.426,0,2.139-0.355,2.139-0.949l0.119-1.899C65.793,36.957,65.554,36.245,65.08,36.007z
				 M56.409,35.651h-4.634c1.544-6.65,2.376-12.71,2.376-18.292c0.476,0,0.831,0,1.308,0s0.831,0,0.95,0h0.117
				C56.527,24.486,56.527,30.662,56.409,35.651z"/>
			<path fill="#2C9942" d="M84.203,23.298c-0.595-2.851-1.068-4.87-1.308-5.938c0-0.476-0.236-0.949-0.236-1.188
				c0-0.239-0.237-0.713-0.477-1.068c-0.237-0.476-0.596-0.713-1.068-0.948c-0.477-0.238-0.949-0.356-1.662-0.356
				c-0.714,0-1.427,0.118-2.021,0.237c-0.596,0.235-0.95,0.475-1.309,0.831c-0.355,0.354-0.595,0.594-0.712,0.948
				c-0.238,0.356-0.354,0.715-0.477,1.188l-0.119,0.475c-0.712,2.14-2.021,6.771-3.919,14.018l-1.188,4.633
				c-0.118,0.237-0.118,0.594-0.118,0.831c0,0.832,0.477,1.308,1.545,1.308c0.236,0,0.714-0.119,1.545-0.354
				c0.83-0.118,1.307-0.354,1.544-0.478c0.354-0.594,0.832-2.494,1.544-5.699l0.354-1.309c0.478,0,1.309,0,2.376,0s1.899,0,2.375,0
				l1.309,6.771c0.119,0.831,0.713,1.188,1.662,1.188c2.021,0,3.09-0.594,3.09-1.662c0-0.235,0-0.354,0-0.476l-1.309-6.296
				C85.272,28.405,84.795,26.148,84.203,23.298z M78.501,27.574c-0.713,0-1.308,0-1.663,0l1.068-4.396
				c0.118-0.118,0.237-0.831,0.476-2.019c0.355-1.188,0.478-1.9,0.596-2.257l1.308,8.671C79.925,27.574,79.333,27.574,78.501,27.574
				z"/>
			<path fill="#2C9942" d="M106.534,29.831c-0.356-1.545-0.832-3.802-1.427-6.652c-0.595-2.85-1.068-4.869-1.309-5.938
				c0-0.478-0.235-0.95-0.235-1.188c0-0.238-0.237-0.713-0.478-1.069c-0.235-0.476-0.594-0.713-1.066-0.948
				c-0.478-0.237-0.95-0.356-1.663-0.356s-1.426,0.119-2.021,0.237c-0.594,0.238-0.949,0.476-1.308,0.832
				c-0.356,0.354-0.594,0.594-0.713,0.95c-0.236,0.354-0.354,0.713-0.477,1.188l-0.117,0.478c-0.715,2.138-2.021,6.77-3.922,14.016
				l-1.188,4.632c-0.118,0.238-0.118,0.596-0.118,0.832c0,0.831,0.477,1.307,1.545,1.307c0.355,0,0.831-0.116,1.544-0.234
				c0.713-0.119,1.188-0.355,1.544-0.479c0.355-0.594,0.831-2.492,1.544-5.699c0.119-0.236,0.119-0.477,0.236-0.831
				c0.119-0.356,0.238-0.597,0.238-0.831c0.354-1.069,0.713-2.376,1.066-3.921c0.355-1.544,0.597-2.612,0.715-2.971
				c0-0.354,0.117-0.95,0.354-1.78c0.237-0.831,0.356-1.427,0.478-1.78l3.324,17.224c0.119,0.83,0.713,1.188,1.663,1.188
				c1.068,0,1.781-0.119,2.376-0.477c0.594-0.238,0.831-0.713,0.831-1.188c0-0.118,0-0.237-0.119-0.478L106.534,29.831z"/>
			<path fill="#2C9942" d="M123.875,36.007c-0.476-0.117-1.188-0.236-2.257-0.236c-0.476,0-1.188,0.119-2.02,0.119
				c-0.832,0.117-1.428,0.117-1.899,0.117h-0.238v-1.9c0-0.947,0-2.256,0-4.272v-1.782c0-0.118,0.355-0.237,1.068-0.237h3.089
				c0.595,0,1.068-0.118,1.545-0.354c0.477-0.237,0.712-0.594,0.712-0.95c0-0.713-0.118-1.069-0.476-1.307
				c-0.356-0.238-1.068-0.356-2.376-0.356h-4.038c0,0,0-0.118,0-0.354c0-0.118,0-0.356,0-0.477v-0.713c0-0.119,0-0.594,0-1.307
				c0-0.831,0-1.544,0-2.375c0-1.545,0-2.376-0.118-2.376l3.089,0.117h0.477c1.661,0,2.73-0.117,3.206-0.236
				c0.477-0.237,0.714-0.594,0.714-1.188c0-0.594-0.237-1.067-0.714-1.188c-0.476-0.119-1.545-0.238-3.089-0.238h-1.544
				c-0.236,0-0.477,0-0.832,0c-0.354,0-0.713,0-0.831,0c-2.138,0-3.442,0.238-3.92,0.595c-0.235,0.118-0.354,0.355-0.477,0.596
				c-0.117,0.235-0.117,0.475-0.236,0.831c0,0.235-0.118,0.594-0.118,0.713s-0.118,0.475-0.118,0.831c0,0.354,0,0.595,0,0.713
				c0,0.119,0,1.544,0,4.274c0,5.938,0,9.979-0.118,11.878v1.781c0,0.713,0.236,1.308,0.713,1.543
				c0.477,0.238,1.427,0.356,2.73,0.356c2.021,0,4.275-0.118,6.891-0.237c0.477,0,0.949-0.119,1.308-0.354
				c0.357-0.236,0.594-0.595,0.594-0.949C124.586,36.481,124.351,36.126,123.875,36.007z"/>
			<path fill="#2C9942" d="M140.623,36.007c-0.476-0.117-1.188-0.236-2.257-0.236c-0.476,0-1.188,0.119-2.02,0.119
				c-0.832,0.117-1.428,0.117-1.901,0.117h-0.236v-1.9c0-0.947,0-2.256,0-4.272v-1.782c0-0.118,0.355-0.237,1.068-0.237h3.089
				c0.594,0,1.068-0.118,1.544-0.354c0.477-0.237,0.713-0.594,0.713-0.95c0-0.713-0.119-1.069-0.476-1.307
				c-0.355-0.237-1.068-0.356-2.376-0.356h-4.038c0,0,0-0.118,0-0.354c0-0.118,0-0.356,0-0.477v-0.713c0-0.119,0-0.594,0-1.307
				c0-0.831,0-1.544,0-2.375c0-1.545,0-2.376-0.119-2.376l3.089,0.117h0.478c1.661,0,2.729-0.117,3.206-0.236
				c0.477-0.237,0.714-0.594,0.714-1.188c0-0.594-0.237-1.067-0.714-1.188c-0.477-0.119-1.545-0.238-3.089-0.238h-1.545
				c-0.235,0-0.476,0-0.831,0c-0.354,0-0.713,0-0.831,0c-2.139,0-3.443,0.238-3.92,0.595c-0.235,0.118-0.354,0.355-0.477,0.596
				c-0.117,0.235-0.117,0.475-0.236,0.831c0,0.235-0.119,0.594-0.119,0.713s-0.116,0.475-0.116,0.831c0,0.354,0,0.595,0,0.713
				c0,0.119,0,1.544,0,4.274c0,5.938,0,9.979-0.119,11.878v1.781c0,0.713,0.235,1.308,0.713,1.543
				c0.476,0.238,1.427,0.356,2.729,0.356c2.021,0,4.275-0.118,6.892-0.237c0.476,0,0.949-0.119,1.308-0.354
				c0.357-0.236,0.594-0.595,0.594-0.949C141.335,36.481,141.099,36.126,140.623,36.007z"/>
		</g>
	</g>
	<path fill="#2C9942" d="M176.968,23.773C169.606,16.646,162.12,9.4,154.756,2.274c-2.138-2.02-5.699-1.661-8.552-1.661
		c-4.634,0-9.266,0-13.896,0c-29.338,0-77.919,0-107.259,0c-5.346,0-10.811,0-16.152,0C8.065,0.494,7.353,0.494,6.521,0.729
		C4.027,1.086,2.483,2.631,2.006,4.533C1.293,6.194,1.531,8.096,3.194,9.639c0.118,0.118,0.118,0.118,0.237,0.237l0,0
		c6.058,5.583,12.113,11.284,18.173,16.866C15.544,32.56,9.489,38.383,3.431,44.203c-3.563,3.442-1.188,9.265,4.396,9.265
		c21.976,0,63.189,0,85.283,0c14.254,0,28.508,0,42.762,0c5.819,0,15.44,1.663,19.836-2.376c7.127-6.532,14.254-13.063,21.38-19.598
		C179.343,29.237,179.227,26.03,176.968,23.773z M166.634,30.425c-5.818,4.988-11.641,9.858-17.342,14.848
		c-3.563,3.09-11.4,1.781-16.151,1.781c-11.643,0-25.184,0-36.703,0c-17.938,0-55.232,0-73.168,0c-4.516,0-6.414-4.395-3.563-7.008
		c18.647-12.828,9.503-18.173,0-25.896l0,0l-0.118-0.117c-1.307-1.188-1.545-2.613-0.95-3.92c0.478-1.427,1.663-2.613,3.684-2.853
		c0.595-0.119,1.308-0.119,1.9-0.119c4.396,0,8.788,0,13.186,0c23.875,0,67.229,0,91.104,0c3.803,0,9.504,0,13.305,0
		c2.257,0,5.228-0.354,6.891,1.188c6.059,5.464,11.997,10.809,18.056,16.271C168.536,26.386,168.656,28.762,166.634,30.425z"/>
	<path fill="#CEE3CE" d="M107.098,0.611c0.405,0,0.809,0,1.214,0l-7.275,6.412c-0.402,0-0.81,0-1.214,0L107.098,0.611z
		 M94.596,7.025c0.403,0,0.811,0,1.214,0l7.273-6.412c-0.4,0-0.81,0-1.213,0L94.596,7.025z M105.168,7.025c0.406,0,0.812,0,1.213,0
		l7.274-6.412c-0.4,0-0.809,0-1.213,0L105.168,7.025z M89.369,7.025c0.404,0,0.809,0,1.213,0l7.274-6.412c-0.403,0-0.809,0-1.213,0
		L89.369,7.025z M120.963,7.025c0.41,0,0.813,0,1.214,0l7.275-6.412c-0.396,0-0.812,0-1.215,0L120.963,7.025z M84.024,7.025
		c0.405,0,0.81,0,1.213,0l7.275-6.412c-0.402,0-0.81,0-1.214,0L84.024,7.025z M110.394,7.025c0.407,0,0.809,0,1.213,0l7.274-6.412
		c-0.403,0-0.806,0-1.214,0L110.394,7.025z M115.62,7.025c0.407,0,0.812,0,1.213,0l7.275-6.412c-0.401,0-0.807,0-1.214,0
		L115.62,7.025z M57.774,7.025c0.4,0,0.809,0,1.213,0l7.274-6.412c-0.404,0-0.811,0-1.214,0L57.774,7.025z M63.001,7.025
		c0.403,0,0.808,0,1.213,0l7.274-6.412c-0.404,0-0.809,0-1.213,0L63.001,7.025z M47.203,7.025c0.398,0,0.809,0,1.213,0l7.274-6.412
		c-0.404,0-0.812,0-1.213,0L47.203,7.025z M52.429,7.025c0.398,0,0.809,0,1.213,0l7.273-6.412c-0.404,0-0.81,0-1.213,0L52.429,7.025
		z M78.797,7.025c0.405,0,0.811,0,1.215,0l7.273-6.412c-0.404,0-0.809,0-1.214,0L78.797,7.025z M41.977,7.025
		c0.396,0,0.809,0,1.213,0l7.273-6.412c-0.404,0-0.81,0-1.213,0L41.977,7.025z M126.192,7.025c0.414,0,0.811,0,1.213,0l7.276-6.412
		c-0.405,0-0.812,0-1.216,0L126.192,7.025z M73.572,7.025c0.403,0,0.81,0,1.214,0l7.274-6.412c-0.404,0-0.811,0-1.213,0
		L73.572,7.025z M68.227,7.025c0.402,0,0.809,0,1.213,0l7.273-6.412c-0.402,0-0.81,0-1.213,0L68.227,7.025z M28.858,23.197
		L1.859,46.999c-0.08,0.384-0.107,0.771-0.098,1.154L29.29,23.883C29.162,23.656,29.017,23.427,28.858,23.197z M24.095,0.611
		c-0.401,0-0.811,0-1.214,0L7.787,13.918c0.196,0.183,0.396,0.365,0.591,0.548L24.095,0.611z M173.83,20.734l-5.879,5.185
		c0.13,0.267,0.227,0.538,0.292,0.812l6.166-5.435C174.215,21.108,174.024,20.921,173.83,20.734z M18.87,0.611
		c-0.406,0-0.808,0-1.213,0L5.242,11.554c0.196,0.184,0.395,0.366,0.591,0.548L18.87,0.611z M165.621,23.364
		c0.2,0.181,0.4,0.355,0.604,0.537l5.693-5.02c-0.191-0.187-0.387-0.373-0.578-0.56L165.621,23.364z M36.63,7.025
		c0.141,0,0.277,0,0.416,0c0.261,0,0.533,0,0.797,0l7.275-6.412c-0.405,0-0.813,0-1.214,0L36.63,7.025z M7.098,0.601L1.756,5.309
		c-0.093,0.39-0.141,0.782-0.124,1.18l6.729-5.937C7.936,0.521,7.525,0.529,7.098,0.601z M30.205,26.618L2.647,50.912
		c0.146,0.221,0.313,0.432,0.498,0.631l27.026-23.827C30.223,27.345,30.231,26.979,30.205,26.618z M163.029,21.043
		c0.201,0.18,0.401,0.359,0.604,0.539l5.797-5.11c-0.192-0.187-0.387-0.373-0.577-0.56L163.029,21.043z M12.312,0.611L2.687,9.095
		c0.151,0.188,0.317,0.366,0.509,0.542c0.021,0.021,0.027,0.027,0.042,0.042L13.526,0.61C13.12,0.611,12.715,0.611,12.312,0.611z
		 M131.418,7.025c0.396,0,0.803,0,1.213,0l7.274-6.412c-0.403,0-0.809,0-1.213,0L131.418,7.025z M146.912,7.293
		c0.3,0.081,0.585,0.186,0.854,0.313l6.481-5.715c-0.229-0.165-0.465-0.313-0.717-0.438L146.912,7.293z M141.992,7.022
		c0.396-0.003,0.813-0.012,1.235-0.021l7.189-6.339c-0.379-0.032-0.761-0.054-1.144-0.063L141.992,7.022z M136.762,7.025
		c0.41,0,0.813,0,1.214,0l7.274-6.412c-0.402,0-0.811,0-1.214,0L136.762,7.025z M149.948,9.329c0.2,0.181,0.4,0.357,0.603,0.539
		l6.311-5.563c-0.191-0.186-0.386-0.374-0.577-0.56L149.948,9.329z M155.164,14.001c0.199,0.179,0.4,0.36,0.604,0.54l6.104-5.38
		c-0.192-0.188-0.386-0.373-0.578-0.562L155.164,14.001z M157.784,16.347c0.199,0.179,0.4,0.36,0.604,0.539l6.002-5.291
		c-0.193-0.187-0.387-0.373-0.578-0.56L157.784,16.347z M152.54,11.65c0.199,0.182,0.4,0.359,0.604,0.539l6.207-5.472
		c-0.191-0.187-0.388-0.373-0.578-0.56L152.54,11.65z M160.376,18.669c0.2,0.179,0.4,0.36,0.604,0.539l5.898-5.202
		c-0.191-0.188-0.385-0.373-0.578-0.56L160.376,18.669z M24.629,18.674c-0.192-0.177-0.396-0.359-0.601-0.541l-6,5.29
		c0.197,0.183,0.395,0.366,0.592,0.548L24.629,18.674z M103.023,47.054c-0.403,0-0.813,0-1.213,0l-7.274,6.414
		c0.403,0,0.809,0,1.213,0L103.023,47.054z M97.794,47.054c-0.399,0-0.813,0-1.213,0l-7.275,6.414c0.407,0,0.813,0,1.213,0
		L97.794,47.054z M118.859,47.054c-0.403,0-0.812,0-1.214,0l-7.281,6.414c0.405,0,0.811,0,1.215,0L118.859,47.054z M113.592,47.054
		c-0.402,0-0.809,0-1.213,0l-7.273,6.414c0.402,0,0.81,0,1.213,0L113.592,47.054z M108.367,47.054c-0.405,0-0.81,0-1.214,0
		l-7.274,6.414c0.404,0,0.811,0,1.213,0L108.367,47.054z M31.405,7.025c0.404,0,0.81,0,1.214,0l7.274-6.412c-0.409,0-0.81,0-1.214,0
		L31.405,7.025z M76.772,47.054c-0.402,0-0.809,0-1.213,0l-7.275,6.414c0.406,0,0.809,0,1.213,0L76.772,47.054z M81.999,47.054
		c-0.398,0-0.809,0-1.213,0l-7.276,6.414c0.408,0,0.81,0,1.215,0L81.999,47.054z M87.224,47.054c-0.399,0-0.806,0-1.213,0
		l-7.276,6.414c0.409,0,0.81,0,1.213,0L87.224,47.054z M129.392,47.054c-0.403,0-0.809,0-1.214,0l-7.275,6.414
		c0.404,0,0.81,0,1.214,0L129.392,47.054z M178.627,26.894c-0.05-0.292-0.13-0.579-0.229-0.863l-31.467,27.737
		c0.438-0.018,0.874-0.045,1.305-0.08L178.627,26.894z M176.956,23.761c-0.189-0.186-0.387-0.374-0.578-0.56l-34.606,30.51
		c0.384,0.019,0.771,0.033,1.159,0.047L176.956,23.761z M145.239,47.011c-0.466,0.082-0.942,0.147-1.434,0.194l-7.119,6.272
		c0.379,0.01,0.771,0.021,1.172,0.037L145.239,47.011z M168.664,39.216l-14.969,13.195c0.747-0.354,1.429-0.783,2.013-1.319
		C160.027,47.134,164.343,43.175,168.664,39.216z M134.698,47.088c-0.409-0.016-0.805-0.026-1.18-0.03l-7.271,6.41
		c0.403,0,0.811,0,1.213,0L134.698,47.088z M139.672,47.31c-0.393-0.012-0.779-0.021-1.168-0.041l-7.03,6.199
		c0.402,0,0.81,0,1.213,0L139.672,47.31z M71.427,47.054c-0.404,0-0.809,0-1.215,0l-7.274,6.414c0.403,0,0.81,0,1.213,0
		L71.427,47.054z M124.165,47.054c-0.399,0-0.811,0-1.213,0l-7.275,6.414c0.404,0,0.811,0,1.215,0L124.165,47.054z M92.571,47.054
		c-0.396,0-0.805,0-1.213,0l-7.276,6.414c0.411,0,0.811,0,1.213,0L92.571,47.054z M27.17,21.146
		c-0.179-0.188-0.362-0.383-0.558-0.579l-5.979,5.272c0.197,0.182,0.396,0.367,0.593,0.548L27.17,21.146z M19.397,14.074
		c-0.018-0.016-0.03-0.027-0.047-0.041l-0.118-0.119c-0.146-0.134-0.276-0.272-0.397-0.412l-5.895,5.196
		c0.196,0.184,0.395,0.363,0.591,0.548L19.397,14.074z M22.025,16.364c-0.202-0.178-0.401-0.354-0.609-0.532l-5.932,5.229
		c0.197,0.185,0.395,0.365,0.592,0.548L22.025,16.364z M19.824,46.158c-0.23-0.154-0.443-0.325-0.637-0.511l-8.869,7.817
		c0.396,0,0.806,0,1.214,0L19.824,46.158z M17.924,43.226c-0.043-0.373-0.026-0.75,0.056-1.117L5.53,53.084
		c0.297,0.103,0.606,0.185,0.934,0.246L17.924,43.226z M66.201,47.054c-0.404,0-0.809,0-1.214,0l-7.275,6.414
		c0.404,0,0.812,0,1.213,0L66.201,47.054z M26.179,7.025c0.402,0,0.809,0,1.213,0l7.273-6.412c-0.404,0-0.813,0-1.213,0
		L26.179,7.025z M19.775,7.959c0.563-0.403,1.265-0.692,2.125-0.804l7.422-6.544c-0.403,0-0.813,0-1.213,0L19.775,7.959z
		 M18.092,10.512c0.051-0.174,0.11-0.346,0.188-0.517c0.177-0.527,0.45-1.021,0.827-1.448l-8.772,7.734
		c0.196,0.184,0.396,0.363,0.591,0.549L18.092,10.512z M50.403,47.054c-0.403,0-0.813,0-1.213,0l-7.275,6.414
		c0.403,0,0.811,0,1.213,0L50.403,47.054z M45.175,47.054c-0.403,0-0.812,0-1.213,0l-7.274,6.414c0.402,0,0.809,0,1.213,0
		L45.175,47.054z M55.628,47.054c-0.402,0-0.811,0-1.213,0l-7.274,6.414c0.402,0,0.809,0,1.213,0L55.628,47.054z M24.034,47.054
		c-0.377,0-0.76,0-1.121,0c-0.029,0-0.057-0.005-0.085-0.006l-7.282,6.42c0.404,0,0.804,0,1.213,0L24.034,47.054z M60.974,47.054
		c-0.404,0-0.811,0-1.213,0l-7.276,6.414c0.405,0,0.81,0,1.213,0L60.974,47.054z M29.378,47.054c-0.407,0-0.814,0-1.213,0
		l-7.274,6.414c0.402,0,0.803,0,1.213,0L29.378,47.054z M39.832,47.054c-0.408,0-0.811,0-1.213,0l-7.276,6.414
		c0.404,0,0.808,0,1.215,0L39.832,47.054z M34.605,47.054c-0.41,0-0.813,0-1.213,0l-7.275,6.414c0.404,0,0.805,0,1.213,0
		L34.605,47.054z"/>
</g>
</svg>
