<?xml version="1.0" encoding="utf-8"?>
<!-- Generator: Adobe Illustrator 16.0.0, SVG Export Plug-In . SVG Version: 6.00 Build 0)  -->
<!DOCTYPE svg PUBLIC "-//W3C//DTD SVG 1.1//EN" "http://www.w3.org/Graphics/SVG/1.1/DTD/svg11.dtd">
<svg version="1.1" id="Layer_1" xmlns="http://www.w3.org/2000/svg" xmlns:xlink="http://www.w3.org/1999/xlink" x="0px" y="0px"
	 width="197.625px" height="55.667px" viewBox="0 0 197.625 55.667" enable-background="new 0 0 197.625 55.667"
	 xml:space="preserve">
<g>
	<path fill="#FFFFFF" d="M196.305,39.263c0,7.246-5.82,13.066-13.063,13.066H16.709c-7.244,0-13.064-5.82-13.064-13.066V13.845
		c0-7.244,5.82-13.063,13.064-13.063h166.646c7.246,0,13.065,5.82,13.065,13.063v25.418H196.305z"/>
	<g>
		<path fill="#046938" d="M181.932,54.888H15.283c-7.766,0-14.082-6.314-14.082-14.08v-25.42c0-7.764,6.316-14.08,14.082-14.08
			H181.93c7.766,0,14.082,6.316,14.082,14.08v25.42C196.014,48.572,189.697,54.888,181.932,54.888z M15.283,3.339
			c-6.645,0-12.049,5.404-12.049,12.049v25.42c0,6.645,5.404,12.051,12.049,12.051H181.93c6.646,0,12.051-5.406,12.051-12.051
			v-25.42c0-6.645-5.403-12.049-12.051-12.049H15.283z M181.932,49.425H15.283c-4.752,0-8.617-3.865-8.617-8.617v-25.42
			c0-4.752,3.865-8.617,8.617-8.617H181.93c4.752,0,8.617,3.865,8.617,8.617v25.42C190.549,45.56,186.684,49.425,181.932,49.425z
			 M15.283,8.802c-3.568,0-6.584,3.018-6.584,6.586v25.418c0,3.57,3.016,6.588,6.584,6.588H181.93c3.568,0,6.586-3.018,6.586-6.588
			V15.388c0-3.568-3.018-6.586-6.586-6.586H15.283L15.283,8.802z"/>
	</g>
	<g>
		<g>
			<g>
				<g>
					<g id="SVGID_5_">
						<path fill="#2C9942" d="M183.355,0.779H16.709c-7.244,0-13.064,5.82-13.064,13.064v25.42c0,7.244,5.82,13.064,13.064,13.064
							h166.646c7.246,0,13.065-5.82,13.065-13.064v-25.42C196.305,6.599,190.482,0.779,183.355,0.779z M190.959,39.263
							c0,4.158-3.443,7.604-7.604,7.604H16.709c-4.156,0-7.602-3.443-7.602-7.604V13.845c0-4.156,3.443-7.602,7.602-7.602h166.646
							c4.158,0,7.604,3.443,7.604,7.602V39.263L190.959,39.263z"/>
					</g>
				</g>
				<g>
					<g>
						<polygon fill="#CEE3CE" points="74.873,6.244 76.238,6.244 81.697,0.779 80.334,0.779 						"/>
					</g>
					<g>
						<polygon fill="#CEE3CE" points="86.82,6.244 88.184,6.244 93.648,0.779 92.283,0.779 						"/>
					</g>
					<g>
						<polygon fill="#CEE3CE" points="80.881,6.244 82.246,6.244 87.709,0.779 86.346,0.779 						"/>
					</g>
					<g>
						<polygon fill="#CEE3CE" points="92.76,6.244 94.123,6.244 99.588,0.779 98.223,0.779 						"/>
					</g>
					<g>
						<polygon fill="#CEE3CE" points="110.574,6.244 111.939,6.244 117.402,0.779 116.039,0.779 						"/>
					</g>
					<g>
						<polygon fill="#CEE3CE" points="98.697,6.244 100.061,6.244 105.525,0.779 104.16,0.779 						"/>
					</g>
					<g>
						<polygon fill="#CEE3CE" points="116.516,6.244 117.879,6.244 123.344,0.779 121.979,0.779 						"/>
					</g>
					<g>
						<polygon fill="#CEE3CE" points="104.637,6.244 106,6.244 111.465,0.779 110.102,0.779 						"/>
					</g>
					<g>
						<polygon fill="#CEE3CE" points="39.189,6.244 40.555,6.244 46.018,0.779 44.654,0.779 						"/>
					</g>
					<g>
						<polygon fill="#CEE3CE" points="33.25,6.244 34.615,6.244 40.078,0.779 38.715,0.779 						"/>
					</g>
					<g>
						<polygon fill="#CEE3CE" points="122.506,6.244 123.869,6.244 129.328,0.779 127.967,0.779 						"/>
					</g>
					<g>
						<polygon fill="#CEE3CE" points="27.313,6.244 28.676,6.244 34.141,0.779 32.775,0.779 						"/>
					</g>
					<g>
						<polygon fill="#CEE3CE" points="21.373,6.244 22.738,6.244 28.201,0.779 26.836,0.779 						"/>
					</g>
					<g>
						<polygon fill="#CEE3CE" points="62.996,6.244 64.359,6.244 69.822,0.779 68.457,0.779 						"/>
					</g>
					<g>
						<polygon fill="#CEE3CE" points="68.936,6.244 70.299,6.244 75.76,0.779 74.396,0.779 						"/>
					</g>
					<g>
						<path fill="#CEE3CE" d="M15.295,6.382c0.459-0.088,0.932-0.139,1.414-0.139h0.09l5.465-5.465h-1.365L15.295,6.382z"/>
					</g>
					<g>
						<polygon fill="#CEE3CE" points="51.117,6.244 52.482,6.244 57.941,0.779 56.578,0.779 						"/>
					</g>
					<g>
						<polygon fill="#CEE3CE" points="57.059,6.244 58.422,6.244 63.883,0.779 62.518,0.779 						"/>
					</g>
					<g>
						<path fill="#CEE3CE" d="M190.959,15.121v1.363l5.178-5.18c-0.076-0.369-0.174-0.729-0.279-1.086L190.959,15.121z"/>
					</g>
					<g>
						<path fill="#CEE3CE" d="M181.963,6.244h1.361l4.607-4.609c-0.334-0.127-0.673-0.242-1.021-0.344L181.963,6.244z"/>
					</g>
					<g>
						<polygon fill="#CEE3CE" points="190.959,21.062 190.959,22.427 196.424,16.958 196.424,15.595 						"/>
					</g>
					<g>
						<path fill="#CEE3CE" d="M186.971,7.173c0.289,0.16,0.563,0.344,0.828,0.537l3.879-3.879c-0.248-0.209-0.508-0.402-0.771-0.592
							L186.971,7.173z"/>
					</g>
					<g>
						<path fill="#CEE3CE" d="M189.961,10.121c0.17,0.295,0.316,0.604,0.445,0.918l4.016-4.014
							c-0.174-0.279-0.355-0.553-0.547-0.818L189.961,10.121z"/>
					</g>
					<g>
						<path fill="#CEE3CE" d="M16.303,0.8c-0.506,0.018-1.006,0.063-1.496,0.133l-11.01,11.01c-0.07,0.49-0.115,0.986-0.133,1.496
							L16.303,0.8z"/>
					</g>
					<g>
						<polygon fill="#CEE3CE" points="128.443,6.244 129.809,6.244 135.268,0.779 133.904,0.779 						"/>
					</g>
					<g>
						<polygon fill="#CEE3CE" points="190.959,27.005 190.959,28.369 196.424,22.902 196.424,21.537 						"/>
					</g>
					<g>
						<polygon fill="#CEE3CE" points="190.959,32.947 190.959,34.312 196.424,28.845 196.424,27.48 						"/>
					</g>
					<g>
						<path fill="#CEE3CE" d="M190.959,38.89v0.373c0,0.365-0.035,0.727-0.088,1.078l5.553-5.555v-1.365L190.959,38.89z"/>
					</g>
					<g>
						<polygon fill="#CEE3CE" points="176.021,6.244 177.389,6.244 182.852,0.779 181.488,0.779 						"/>
					</g>
					<g>
						<polygon fill="#CEE3CE" points="146.262,6.244 147.623,6.244 153.086,0.779 151.721,0.779 						"/>
					</g>
					<g>
						<polygon fill="#CEE3CE" points="140.322,6.244 141.686,6.244 147.145,0.779 145.781,0.779 						"/>
					</g>
					<g>
						<polygon fill="#CEE3CE" points="134.383,6.244 135.746,6.244 141.207,0.779 139.844,0.779 						"/>
					</g>
					<g>
						<polygon fill="#CEE3CE" points="152.199,6.244 153.563,6.244 159.023,0.779 157.66,0.779 						"/>
					</g>
					<g>
						<polygon fill="#CEE3CE" points="170.082,6.244 171.447,6.244 176.91,0.779 175.549,0.779 						"/>
					</g>
					<g>
						<polygon fill="#CEE3CE" points="158.205,6.244 159.57,6.244 165.033,0.779 163.67,0.779 						"/>
					</g>
					<g>
						<polygon fill="#CEE3CE" points="164.145,6.244 165.51,6.244 170.975,0.779 169.607,0.779 						"/>
					</g>
					<g>
						<polygon fill="#CEE3CE" points="45.18,6.244 46.543,6.244 52.004,0.779 50.641,0.779 						"/>
					</g>
					<g>
						<polygon fill="#CEE3CE" points="89.209,46.865 87.848,46.865 82.387,52.33 83.75,52.33 						"/>
					</g>
					<g>
						<polygon fill="#CEE3CE" points="118.947,46.865 117.584,46.865 112.119,52.33 113.484,52.33 						"/>
					</g>
					<g>
						<polygon fill="#CEE3CE" points="130.824,46.865 129.463,46.865 123.996,52.33 125.363,52.33 						"/>
					</g>
					<g>
						<polygon fill="#CEE3CE" points="136.766,46.865 135.4,46.865 129.936,52.33 131.303,52.33 						"/>
					</g>
					<g>
						<polygon fill="#CEE3CE" points="124.889,46.865 123.521,46.865 118.061,52.33 119.424,52.33 						"/>
					</g>
					<g>
						<polygon fill="#CEE3CE" points="101.09,46.865 99.725,46.865 94.264,52.33 95.629,52.33 						"/>
					</g>
					<g>
						<polygon fill="#CEE3CE" points="95.15,46.865 93.785,46.865 88.326,52.33 89.689,52.33 						"/>
					</g>
					<g>
						<polygon fill="#CEE3CE" points="112.967,46.865 111.602,46.865 106.143,52.33 107.506,52.33 						"/>
					</g>
					<g>
						<polygon fill="#CEE3CE" points="107.027,46.865 105.662,46.865 100.203,52.33 101.566,52.33 						"/>
					</g>
					<g>
						<polygon fill="#CEE3CE" points="142.703,46.865 141.34,46.865 135.875,52.33 137.24,52.33 						"/>
					</g>
					<g>
						<polygon fill="#CEE3CE" points="172.475,46.865 171.111,46.865 165.65,52.33 167.014,52.33 						"/>
					</g>
					<g>
						<polygon fill="#CEE3CE" points="178.412,46.865 177.051,46.865 171.59,52.33 172.953,52.33 						"/>
					</g>
					<g>
						<path fill="#CEE3CE" d="M184.439,46.777c-0.354,0.053-0.715,0.088-1.084,0.088h-0.365l-5.461,5.465h1.361L184.439,46.777z"/>
					</g>
					<g>
						<path fill="#CEE3CE" d="M196.322,40.832c0.057-0.479,0.092-0.967,0.096-1.461l-12.943,12.953
							c0.494-0.004,0.98-0.041,1.461-0.098L196.322,40.832z"/>
					</g>
					<g>
						<polygon fill="#CEE3CE" points="166.535,46.865 165.172,46.865 159.711,52.33 161.074,52.33 						"/>
					</g>
					<g>
						<polygon fill="#CEE3CE" points="148.645,46.865 147.277,46.865 141.814,52.33 143.18,52.33 						"/>
					</g>
					<g>
						<polygon fill="#CEE3CE" points="154.58,46.865 153.219,46.865 147.754,52.33 149.117,52.33 						"/>
					</g>
					<g>
						<polygon fill="#CEE3CE" points="160.598,46.865 159.232,46.865 153.771,52.33 155.137,52.33 						"/>
					</g>
					<g>
						<polygon fill="#CEE3CE" points="53.5,46.865 52.137,46.865 46.674,52.33 48.037,52.33 						"/>
					</g>
					<g>
						<polygon fill="#CEE3CE" points="83.271,46.865 81.908,46.865 76.447,52.33 77.811,52.33 						"/>
					</g>
					<g>
						<polygon fill="#CEE3CE" points="29.703,46.865 28.34,46.865 22.879,52.33 24.242,52.33 						"/>
					</g>
					<g>
						<path fill="#CEE3CE" d="M12.922,45.828c-0.283-0.166-0.555-0.35-0.814-0.549l-3.904,3.906
							c0.246,0.213,0.502,0.408,0.764,0.602L12.922,45.828z"/>
					</g>
					<g>
						<polygon fill="#CEE3CE" points="23.764,46.865 22.4,46.865 16.939,52.33 18.303,52.33 						"/>
					</g>
					<g>
						<path fill="#CEE3CE" d="M10.004,42.804c-0.162-0.303-0.301-0.619-0.42-0.941L5.49,45.958c0.168,0.283,0.344,0.563,0.531,0.832
							L10.004,42.804z"/>
					</g>
					<g>
						<polygon fill="#CEE3CE" points="9.107,25.812 9.107,24.447 3.645,29.91 3.645,31.275 						"/>
					</g>
					<g>
						<path fill="#CEE3CE" d="M9.107,37.689v-1.365l-5.25,5.25c0.068,0.379,0.152,0.748,0.25,1.113L9.107,37.689z"/>
					</g>
					<g>
						<polygon fill="#CEE3CE" points="9.107,19.871 9.107,18.507 3.645,23.97 3.645,25.335 						"/>
					</g>
					<g>
						<polygon fill="#CEE3CE" points="9.107,31.75 9.107,30.384 3.645,35.849 3.645,37.212 						"/>
					</g>
					<g>
						<path fill="#CEE3CE" d="M17.824,46.865h-1.113c-0.08,0-0.158-0.01-0.238-0.012l-4.561,4.563
							c0.332,0.131,0.666,0.254,1.01,0.355L17.824,46.865z"/>
					</g>
					<g>
						<polygon fill="#CEE3CE" points="59.439,46.865 58.076,46.865 52.613,52.33 53.977,52.33 						"/>
					</g>
					<g>
						<polygon fill="#CEE3CE" points="65.379,46.865 64.016,46.865 58.551,52.33 59.914,52.33 						"/>
					</g>
					<g>
						<polygon fill="#CEE3CE" points="71.318,46.865 69.953,46.865 64.49,52.33 65.854,52.33 						"/>
					</g>
					<g>
						<polygon fill="#CEE3CE" points="77.258,46.865 75.893,46.865 70.43,52.33 71.793,52.33 						"/>
					</g>
					<g>
						<polygon fill="#CEE3CE" points="47.563,46.865 46.197,46.865 40.734,52.33 42.098,52.33 						"/>
					</g>
					<g>
						<path fill="#CEE3CE" d="M9.107,13.933v-0.09c0-0.48,0.053-0.955,0.141-1.416l-5.604,5.605v1.365L9.107,13.933z"/>
					</g>
					<g>
						<polygon fill="#CEE3CE" points="41.623,46.865 40.26,46.865 34.795,52.33 36.16,52.33 						"/>
					</g>
					<g>
						<polygon fill="#CEE3CE" points="35.641,46.865 34.277,46.865 28.816,52.33 30.182,52.33 						"/>
					</g>
				</g>
			</g>
		</g>
	</g>
	<g>
		<path fill="#CEE3CE" d="M84.844,23.845c-0.113-3.57,0.088-7.138-3.723-8.347c-0.404-0.231-0.898-0.363-1.506-0.324
			c-6.553,0.336-9.42,6.378-11.463,12.451c-1.494-3.853-3.205-9.76-5.996-11.62c-2.613-1.663-7.482-1.188-9.621,0.95
			c-2.852,2.851-1.307,10.097-1.307,13.896c0,5.582-1.783,16.984,7.48,14.729c3.275-0.723,3.971-2.945,4.037-5.557
			c1.996,2.463,4.646,3.852,8.438,2.584c0.949-0.32,1.77-0.875,2.492-1.584c0.088,1.488,0.473,2.893,1.664,3.844
			c2.73,2.258,8.193,1.188,9.502-2.141c0.949-2.494,0.355-6.057,0.236-8.553C85.078,30.732,84.961,27.289,84.844,23.845z"/>
		<path fill="#CEE3CE" d="M111.582,29.041c0.154-5.43,1.436-14.771-6.783-13.867c-2.732,0.354-4.039,2.375-5.107,4.632
			c-0.366,0.713-0.718,1.426-1.073,2.139c0-0.235,0.004-0.477,0.004-0.713c0-2.851-0.713-5.346-3.92-6.058
			C84.367,12.798,87.1,28.477,86.98,34.177c0,3.801-0.949,8.314,3.09,10.334c2.969,1.426,7.244,1.426,9.264-1.426
			c0.381-0.521,0.736-1.066,1.078-1.631c-0.004,0.105-0.004,0.217-0.01,0.322c0,0.951,0.596,2.021,1.426,2.494
			c4.039,2.021,8.672,2.141,9.74-3.088c0.713-3.563,0.238-7.602,0.238-11.166C111.781,29.656,111.697,29.335,111.582,29.041z"/>
		<path fill="#CEE3CE" d="M133.191,16.594c-0.254-0.462-0.623-0.86-1.074-1.182c-2.824-1.79-7.586-1.701-9.438,1.074
			c-7.83,0.883-10.855,6.854-10.638,14.959c0.217,7.238,3.688,11.813,10.563,12.58c1.988,3.287,7.623,3.104,9.748,0.021
			c6.586-0.66,10.375-4.635,10.808-11.771C143.705,24.005,141.043,17.842,133.191,16.594z"/>
	</g>
	<g>
		<path fill="#024C3A" d="M85.557,17.549c0-0.594-0.238-1.069-0.594-1.425c-0.357-0.356-0.951-0.597-1.664-0.597
			c-0.596,0-0.949,0-1.309,0c-0.354,0-0.594,0.119-0.713,0.119c-0.119,0-0.236,0.119-0.354,0.119c-0.119,0-0.238,0.118-0.238,0.118
			c-0.832,0.238-1.307,0.476-1.543,0.95c-0.357,0.354-0.594,0.949-0.951,1.663c-0.949,1.898-2.85,6.771-5.82,14.607l-7.84-16.982
			c-1.066-0.356-2.018-0.597-2.85-0.597c-1.9,0-3.088,0.478-3.803,1.428c0,0.475,0,1.544,0,3.563c0,1.9,0,3.563,0,4.87
			c0,1.781,0,3.681,0,5.701c0,2.139,0,3.801,0,5.227c0,1.311,0,2.021,0,2.141c0,1.307,0.832,2.02,2.377,2.02
			c2.02,0,3.088-0.475,3.324-1.307c0-1.9,0-5.107-0.117-9.502l-0.119-5.583c3.207,7.243,5.104,11.282,5.465,11.995
			c0.594,1.068,1.662,1.547,3.088,1.547c2.139,0,3.445-0.598,4.156-1.664c0.477-1.188,1.664-4.039,3.326-8.436l1.188-3.442
			C80.33,30.019,80.33,35.009,80.33,39.4c0.119,0.832,0.83,1.189,2.021,1.189c1.543,0,2.613-0.238,3.088-0.713
			c0.354-0.355,0.594-1.068,0.594-2.256c0-4.99-0.119-10.334-0.355-16.036L85.557,17.549z"/>
		<path fill="#024C3A" d="M110.975,16.005c-0.713-0.356-1.545-0.478-2.731-0.478c-0.354,0.238-0.714,0.356-1.065,0.597
			c-0.478,0.354-1.189,1.544-2.021,3.323c-3.801,7.723-6.059,12.115-6.65,13.306c0.117-0.951,0.117-1.545,0.117-1.783
			c0-0.236,0.119-2.256,0.238-6.057c0.119-2.375,0.119-3.921,0.119-4.634v-2.97c0-1.307-0.833-1.898-2.377-1.898
			c-0.475,0-0.949,0-1.424,0.116c-1.07,0.119-1.664,0.715-1.783,1.545c0,0.118,0,0.477,0,1.068c0,0.591,0,1.307,0,2.139
			c0,0.831,0,1.545,0,2.021c-0.117,5.106-0.236,9.264-0.236,12.354c0,2.021,0.119,3.207,0.236,3.803
			c0,0.475,0.477,0.832,1.426,1.188c0.832,0.357,1.9,0.479,2.854,0.479c1.308,0,2.137-0.238,2.492-0.832l6.771-13.659
			c-0.119,0.713-0.119,2.138-0.119,4.038c0,2.971-0.119,6.297-0.238,9.738c1.189,0.596,2.494,0.949,3.803,0.949
			c0.477,0,0.832-0.117,1.068-0.354c0.355-0.236,0.477-0.713,0.596-1.424c0.117-0.598,0.234-1.189,0.234-1.783
			c0-0.596,0-1.424,0-2.494c0-0.236,0-0.236,0-0.355v-6.416c0-6.059,0-9.503,0-10.216C112.281,16.836,111.807,16.479,110.975,16.005
			z"/>
		<path fill="#024C3A" d="M143.281,21.35c-1.188-2.969-4.039-4.514-8.672-4.514h-0.238l0.002-1.425
			c-0.713-0.596-1.545-0.95-2.611-0.95c-0.832,0-1.428,0.118-2.021,0.475c-0.595,0.238-0.951,0.713-1.188,1.069v0.831h-0.357
			c-4.75,0-7.602,1.426-8.67,4.514c-0.594,1.782-0.95,4.039-0.95,6.89c0,1.781,0.237,3.443,0.596,4.869
			c0.949,3.92,3.802,5.82,8.789,5.82h0.597v1.068c0,0.832,0.711,1.307,2.256,1.307c0.713,0,1.307-0.119,1.781-0.355
			c0.594-0.234,0.831-0.475,1.067-0.713c0.116-0.234,0.235-0.475,0.354-0.594v-0.713h0.832c4.986,0,7.957-1.9,8.789-5.82
			c0.354-1.426,0.475-2.969,0.475-4.869C144.113,25.15,143.875,22.894,143.281,21.35z M128.555,36.078v0.117h-0.479
			c-2.611,0-3.92-2.139-3.92-6.295v-1.188c0-0.832,0-2.021,0.119-3.685c0.119-0.235,0.119-0.594,0.119-1.067
			c0-1.069,0.237-2.021,0.832-2.972c0.594-0.948,1.426-1.425,2.612-1.425c0.354,0,0.595,0,0.714,0L128.555,36.078L128.555,36.078z
			 M138.531,29.783c0,4.156-1.307,6.297-3.803,6.297h-0.711l0.354-16.512c0.119,0,0.355,0,0.596,0c1.066,0,2.02,0.477,2.494,1.309
			c0.594,0.95,0.83,1.898,0.83,2.969c0,0.119,0,0.476,0.119,1.069c0.119,0.713,0.119,1.898,0.119,3.682L138.531,29.783
			L138.531,29.783z"/>
	</g>
	<g>
		<path fill="#2C9942" d="M82.943,15.174c0,0,0.117-0.119,0.236-0.119c0.119,0,0.236-0.119,0.355-0.119
			c0.119,0,0.355-0.118,0.713-0.118s0.715,0,1.309,0c0.713,0,1.307,0.237,1.662,0.596c0.354,0.354,0.594,0.829,0.594,1.425
			l0.119,4.039c0.238,5.7,0.354,11.045,0.354,16.036c0,1.188-0.234,1.896-0.594,2.256c-0.475,0.475-1.543,0.713-3.088,0.713
			c-1.188,0-1.9-0.355-2.021-1.189c0-4.395,0-9.383,0.238-15.319l-1.188,3.442c-1.664,4.396-2.854,7.246-3.326,8.436
			c-0.713,1.066-2.021,1.664-4.158,1.664c-1.424,0-2.494-0.479-3.088-1.547c-0.355-0.713-2.256-4.752-5.463-11.995l0.119,5.583
			c0.117,4.395,0.117,7.602,0.117,9.502c-0.236,0.832-1.309,1.307-3.324,1.307c-1.545,0-2.377-0.713-2.377-2.02
			c0-0.117,0-0.83,0-2.141c0-1.426,0-3.088,0-5.227c0-2.021,0-3.919,0-5.701c0-1.307,0-2.97,0-4.87c0-2.02,0-3.088,0-3.563
			c0.713-0.95,1.898-1.427,3.801-1.427c0.832,0,1.783,0.237,2.852,0.596l7.84,16.982c2.971-7.839,4.869-12.709,5.82-14.607
			c0.355-0.712,0.594-1.309,0.949-1.662C81.637,15.648,82.23,15.411,82.943,15.174z"/>
		<path fill="#2C9942" d="M114.656,16.599c0,0.713,0,4.157,0,10.215v6.414c0,0.119,0,0.119,0,0.355c0,1.066,0,1.898,0,2.494
			c0,0.594-0.119,1.188-0.236,1.779c-0.119,0.713-0.236,1.189-0.596,1.428c-0.236,0.236-0.594,0.354-1.066,0.354
			c-1.309,0-2.613-0.354-3.803-0.949c0.117-3.441,0.236-6.771,0.236-9.738c0-1.9,0-3.325,0.119-4.038l-6.771,13.657
			c-0.354,0.598-1.188,0.832-2.492,0.832c-0.95,0-2.021-0.119-2.854-0.477c-0.949-0.355-1.424-0.711-1.424-1.188
			c-0.119-0.594-0.238-1.779-0.238-3.801c0-3.088,0.119-7.245,0.238-12.353c0-0.478,0-1.188,0-2.021s0-1.544,0-2.139
			c0-0.594,0-0.949,0-1.068c0.117-0.832,0.713-1.426,1.781-1.544c0.475-0.119,0.949-0.119,1.427-0.119
			c1.543,0,2.375,0.596,2.375,1.9v2.97c0,0.713,0,2.257-0.119,4.632c-0.119,3.805-0.236,5.82-0.236,6.061
			c0,0.236,0,0.832-0.117,1.781c0.594-1.188,2.85-5.583,6.648-13.306c0.832-1.78,1.545-2.969,2.021-3.325
			c0.354-0.235,0.714-0.354,1.068-0.594c1.188,0,2.021,0.118,2.729,0.477C114.182,15.768,114.535,16.124,114.656,16.599z"/>
		<path fill="#2C9942" d="M136.631,16.124h0.236c4.633,0,7.482,1.544,8.67,4.513c0.596,1.545,0.832,3.802,0.832,6.89
			c0,1.9-0.117,3.443-0.475,4.869c-0.832,3.92-3.804,5.82-8.791,5.82h-0.83v0.713c-0.119,0.119-0.238,0.355-0.355,0.594
			c-0.238,0.238-0.477,0.479-1.068,0.713c-0.475,0.238-1.07,0.355-1.781,0.355c-1.545,0-2.258-0.475-2.258-1.307v-0.949h-0.594
			c-4.988,0-7.84-1.9-8.789-5.82c-0.357-1.426-0.594-3.088-0.594-4.869c0-2.851,0.354-5.105,0.947-6.89
			c1.068-3.088,3.92-4.514,8.672-4.514h0.355v-0.831c0.237-0.356,0.594-0.832,1.188-1.069c0.596-0.356,1.189-0.475,2.021-0.475
			c1.067,0,1.899,0.354,2.612,0.948L136.631,16.124L136.631,16.124z M130.811,35.367V18.855c-0.119,0-0.354,0-0.713,0
			c-1.188,0-2.021,0.478-2.613,1.426c-0.592,0.95-0.83,1.9-0.83,2.971c0,0.476,0,0.832-0.118,1.067
			c-0.119,1.663-0.119,2.853-0.119,3.685v1.188c0,4.158,1.31,6.295,3.92,6.295h0.478L130.811,35.367L130.811,35.367z
			 M137.225,18.855c-0.238,0-0.477,0-0.594,0l-0.355,16.512h0.711c2.496,0,3.804-2.141,3.804-6.297v-1.188
			c0-1.782,0-2.97-0.119-3.685c-0.116-0.594-0.116-0.948-0.116-1.066c0-1.069-0.238-2.021-0.832-2.97
			C139.242,19.331,138.41,18.855,137.225,18.855z"/>
	</g>
</g>
</svg>
