<?xml version="1.0" encoding="utf-8"?>
<!-- Generator: Adobe Illustrator 16.0.0, SVG Export Plug-In . SVG Version: 6.00 Build 0)  -->
<!DOCTYPE svg PUBLIC "-//W3C//DTD SVG 1.1//EN" "http://www.w3.org/Graphics/SVG/1.1/DTD/svg11.dtd">
<svg version="1.1" id="Layer_1" xmlns="http://www.w3.org/2000/svg" xmlns:xlink="http://www.w3.org/1999/xlink" x="0px" y="0px"
	 width="197.125px" height="56.75px" viewBox="0 0 197.125 56.75" enable-background="new 0 0 197.125 56.75" xml:space="preserve">
<g>
	<g>
		<path fill="#FFFFFF" d="M196.055,39.805c0,7.245-5.82,13.065-13.063,13.065H16.459c-7.244,0-13.064-5.82-13.064-13.065V14.386
			c0-7.244,5.82-13.063,13.064-13.063h166.646c7.246,0,13.064,5.819,13.064,13.063v25.419H196.055z"/>
	</g>
	<g>
		<g>
			<path fill="#703416" d="M181.682,55.43H15.033c-7.766,0-14.082-6.313-14.082-14.08V15.93c0-7.765,6.316-14.081,14.082-14.081
				H181.68c7.766,0,14.082,6.316,14.082,14.081V41.35C195.764,49.113,189.447,55.43,181.682,55.43z M15.033,3.88
				c-6.645,0-12.049,5.405-12.049,12.05V41.35c0,6.646,5.404,12.051,12.049,12.051H181.68c6.646,0,12.051-5.404,12.051-12.051V15.93
				c0-6.645-5.402-12.05-12.051-12.05H15.033z M181.682,49.966H15.033c-4.752,0-8.617-3.864-8.617-8.616V15.93
				c0-4.752,3.865-8.617,8.617-8.617H181.68c4.752,0,8.617,3.865,8.617,8.617V41.35C190.299,46.102,186.434,49.966,181.682,49.966z
				 M15.033,9.344c-3.568,0-6.584,3.018-6.584,6.585v25.418c0,3.568,3.016,6.588,6.584,6.588H181.68c3.568,0,6.586-3.02,6.586-6.588
				V15.929c0-3.568-3.018-6.585-6.586-6.585H15.033L15.033,9.344z"/>
		</g>
	</g>
	<g>
		<g>
			<g>
				<g>
					<g id="SVGID_1_">
						<g>
							<path fill="#F47934" d="M183.105,1.32H16.459c-7.244,0-13.064,5.82-13.064,13.064v25.421c0,7.243,5.82,13.063,13.064,13.063
								h166.646c7.246,0,13.064-5.82,13.064-13.063V14.384C196.055,7.141,190.232,1.32,183.105,1.32z M190.709,39.805
								c0,4.157-3.443,7.604-7.604,7.604H16.459c-4.156,0-7.602-3.444-7.602-7.604V14.386c0-4.155,3.443-7.602,7.602-7.602h166.646
								c4.158,0,7.604,3.444,7.604,7.602V39.805L190.709,39.805z"/>
						</g>
					</g>
				</g>
				<g>
					<g>
						<g>
							<polygon fill="#EBCEB3" points="74.623,6.784 75.988,6.784 81.447,1.32 80.084,1.32 							"/>
						</g>
					</g>
					<g>
						<g>
							<polygon fill="#EBCEB3" points="86.57,6.784 87.934,6.784 93.398,1.32 92.033,1.32 							"/>
						</g>
					</g>
					<g>
						<g>
							<polygon fill="#EBCEB3" points="80.631,6.784 81.996,6.784 87.459,1.32 86.096,1.32 							"/>
						</g>
					</g>
					<g>
						<g>
							<polygon fill="#EBCEB3" points="92.51,6.784 93.873,6.784 99.338,1.32 97.973,1.32 							"/>
						</g>
					</g>
					<g>
						<g>
							<polygon fill="#EBCEB3" points="110.324,6.784 111.689,6.784 117.152,1.32 115.789,1.32 							"/>
						</g>
					</g>
					<g>
						<g>
							<polygon fill="#EBCEB3" points="98.447,6.784 99.811,6.784 105.275,1.32 103.91,1.32 							"/>
						</g>
					</g>
					<g>
						<g>
							<polygon fill="#EBCEB3" points="116.266,6.784 117.629,6.784 123.094,1.32 121.729,1.32 							"/>
						</g>
					</g>
					<g>
						<g>
							<polygon fill="#EBCEB3" points="104.387,6.784 105.75,6.784 111.215,1.32 109.852,1.32 							"/>
						</g>
					</g>
					<g>
						<g>
							<polygon fill="#EBCEB3" points="38.939,6.784 40.305,6.784 45.768,1.32 44.404,1.32 							"/>
						</g>
					</g>
					<g>
						<g>
							<polygon fill="#EBCEB3" points="33,6.784 34.365,6.784 39.828,1.32 38.465,1.32 							"/>
						</g>
					</g>
					<g>
						<g>
							<polygon fill="#EBCEB3" points="122.256,6.784 123.619,6.784 129.078,1.32 127.717,1.32 							"/>
						</g>
					</g>
					<g>
						<g>
							<polygon fill="#EBCEB3" points="27.063,6.784 28.426,6.784 33.891,1.32 32.525,1.32 							"/>
						</g>
					</g>
					<g>
						<g>
							<polygon fill="#EBCEB3" points="21.123,6.784 22.488,6.784 27.951,1.32 26.586,1.32 							"/>
						</g>
					</g>
					<g>
						<g>
							<polygon fill="#EBCEB3" points="62.746,6.784 64.109,6.784 69.572,1.32 68.207,1.32 							"/>
						</g>
					</g>
					<g>
						<g>
							<polygon fill="#EBCEB3" points="68.686,6.784 70.049,6.784 75.51,1.32 74.146,1.32 							"/>
						</g>
					</g>
					<g>
						<g>
							<path fill="#EBCEB3" d="M15.045,6.924c0.459-0.089,0.932-0.14,1.414-0.14h0.09l5.465-5.464h-1.365L15.045,6.924z"/>
						</g>
					</g>
					<g>
						<g>
							<polygon fill="#EBCEB3" points="50.867,6.784 52.232,6.784 57.691,1.32 56.328,1.32 							"/>
						</g>
					</g>
					<g>
						<g>
							<polygon fill="#EBCEB3" points="56.809,6.784 58.172,6.784 63.633,1.32 62.268,1.32 							"/>
						</g>
					</g>
					<g>
						<g>
							<path fill="#EBCEB3" d="M190.709,15.661v1.364l5.178-5.181c-0.076-0.368-0.174-0.729-0.279-1.085L190.709,15.661z"/>
						</g>
					</g>
					<g>
						<g>
							<path fill="#EBCEB3" d="M181.713,6.784h1.361l4.607-4.608c-0.334-0.127-0.674-0.243-1.021-0.344L181.713,6.784z"/>
						</g>
					</g>
					<g>
						<g>
							<polygon fill="#EBCEB3" points="190.709,21.604 190.709,22.968 196.174,17.5 196.174,16.136 							"/>
						</g>
					</g>
					<g>
						<g>
							<path fill="#EBCEB3" d="M186.721,7.715c0.289,0.159,0.563,0.343,0.828,0.536l3.879-3.878
								c-0.248-0.209-0.508-0.402-0.771-0.593L186.721,7.715z"/>
						</g>
					</g>
					<g>
						<g>
							<path fill="#EBCEB3" d="M189.711,10.662c0.17,0.295,0.316,0.603,0.445,0.918l4.016-4.014
								c-0.174-0.28-0.355-0.554-0.547-0.819L189.711,10.662z"/>
						</g>
					</g>
					<g>
						<g>
							<path fill="#EBCEB3" d="M16.053,1.341c-0.506,0.018-1.006,0.063-1.496,0.133l-11.01,11.01
								c-0.07,0.49-0.115,0.987-0.133,1.497L16.053,1.341z"/>
						</g>
					</g>
					<g>
						<g>
							<polygon fill="#EBCEB3" points="128.193,6.784 129.559,6.784 135.018,1.32 133.654,1.32 							"/>
						</g>
					</g>
					<g>
						<g>
							<polygon fill="#EBCEB3" points="190.709,27.546 190.709,28.91 196.174,23.443 196.174,22.078 							"/>
						</g>
					</g>
					<g>
						<g>
							<polygon fill="#EBCEB3" points="190.709,33.488 190.709,34.854 196.174,29.386 196.174,28.021 							"/>
						</g>
					</g>
					<g>
						<g>
							<path fill="#EBCEB3" d="M190.709,39.432v0.373c0,0.365-0.035,0.728-0.088,1.077l5.553-5.555v-1.364L190.709,39.432z"/>
						</g>
					</g>
					<g>
						<g>
							<polygon fill="#EBCEB3" points="175.771,6.784 177.139,6.784 182.602,1.32 181.238,1.32 							"/>
						</g>
					</g>
					<g>
						<g>
							<polygon fill="#EBCEB3" points="146.012,6.784 147.373,6.784 152.836,1.32 151.471,1.32 							"/>
						</g>
					</g>
					<g>
						<g>
							<polygon fill="#EBCEB3" points="140.072,6.784 141.436,6.784 146.895,1.32 145.531,1.32 							"/>
						</g>
					</g>
					<g>
						<g>
							<polygon fill="#EBCEB3" points="134.133,6.784 135.496,6.784 140.957,1.32 139.594,1.32 							"/>
						</g>
					</g>
					<g>
						<g>
							<polygon fill="#EBCEB3" points="151.949,6.784 153.313,6.784 158.773,1.32 157.41,1.32 							"/>
						</g>
					</g>
					<g>
						<g>
							<polygon fill="#EBCEB3" points="169.832,6.784 171.197,6.784 176.66,1.32 175.299,1.32 							"/>
						</g>
					</g>
					<g>
						<g>
							<polygon fill="#EBCEB3" points="157.955,6.784 159.32,6.784 164.783,1.32 163.42,1.32 							"/>
						</g>
					</g>
					<g>
						<g>
							<polygon fill="#EBCEB3" points="163.895,6.784 165.26,6.784 170.725,1.32 169.357,1.32 							"/>
						</g>
					</g>
					<g>
						<g>
							<polygon fill="#EBCEB3" points="44.93,6.784 46.293,6.784 51.754,1.32 50.391,1.32 							"/>
						</g>
					</g>
					<g>
						<g>
							<polygon fill="#EBCEB3" points="88.959,47.406 87.598,47.406 82.137,52.87 83.5,52.87 							"/>
						</g>
					</g>
					<g>
						<g>
							<polygon fill="#EBCEB3" points="118.697,47.406 117.334,47.406 111.869,52.87 113.234,52.87 							"/>
						</g>
					</g>
					<g>
						<g>
							<polygon fill="#EBCEB3" points="130.574,47.406 129.213,47.406 123.746,52.87 125.113,52.87 							"/>
						</g>
					</g>
					<g>
						<g>
							<polygon fill="#EBCEB3" points="136.516,47.406 135.15,47.406 129.686,52.87 131.053,52.87 							"/>
						</g>
					</g>
					<g>
						<g>
							<polygon fill="#EBCEB3" points="124.639,47.406 123.271,47.406 117.811,52.87 119.174,52.87 							"/>
						</g>
					</g>
					<g>
						<g>
							<polygon fill="#EBCEB3" points="100.84,47.406 99.475,47.406 94.014,52.87 95.379,52.87 							"/>
						</g>
					</g>
					<g>
						<g>
							<polygon fill="#EBCEB3" points="94.9,47.406 93.535,47.406 88.076,52.87 89.439,52.87 							"/>
						</g>
					</g>
					<g>
						<g>
							<polygon fill="#EBCEB3" points="112.717,47.406 111.352,47.406 105.893,52.87 107.256,52.87 							"/>
						</g>
					</g>
					<g>
						<g>
							<polygon fill="#EBCEB3" points="106.777,47.406 105.412,47.406 99.953,52.87 101.316,52.87 							"/>
						</g>
					</g>
					<g>
						<g>
							<polygon fill="#EBCEB3" points="142.453,47.406 141.09,47.406 135.625,52.87 136.99,52.87 							"/>
						</g>
					</g>
					<g>
						<g>
							<polygon fill="#EBCEB3" points="172.225,47.406 170.861,47.406 165.4,52.87 166.764,52.87 							"/>
						</g>
					</g>
					<g>
						<g>
							<polygon fill="#EBCEB3" points="178.162,47.406 176.801,47.406 171.34,52.87 172.703,52.87 							"/>
						</g>
					</g>
					<g>
						<g>
							<path fill="#EBCEB3" d="M184.189,47.318c-0.354,0.052-0.715,0.088-1.084,0.088h-0.365l-5.461,5.464h1.361L184.189,47.318z"/>
						</g>
					</g>
					<g>
						<g>
							<path fill="#EBCEB3" d="M196.072,41.372c0.057-0.479,0.092-0.966,0.096-1.46l-12.943,12.952
								c0.494-0.005,0.98-0.04,1.461-0.099L196.072,41.372z"/>
						</g>
					</g>
					<g>
						<g>
							<polygon fill="#EBCEB3" points="166.285,47.406 164.922,47.406 159.461,52.87 160.824,52.87 							"/>
						</g>
					</g>
					<g>
						<g>
							<polygon fill="#EBCEB3" points="148.395,47.406 147.027,47.406 141.564,52.87 142.93,52.87 							"/>
						</g>
					</g>
					<g>
						<g>
							<polygon fill="#EBCEB3" points="154.33,47.406 152.969,47.406 147.504,52.87 148.867,52.87 							"/>
						</g>
					</g>
					<g>
						<g>
							<polygon fill="#EBCEB3" points="160.348,47.406 158.982,47.406 153.521,52.87 154.887,52.87 							"/>
						</g>
					</g>
					<g>
						<g>
							<polygon fill="#EBCEB3" points="53.25,47.406 51.887,47.406 46.424,52.87 47.787,52.87 							"/>
						</g>
					</g>
					<g>
						<g>
							<polygon fill="#EBCEB3" points="83.021,47.406 81.658,47.406 76.197,52.87 77.561,52.87 							"/>
						</g>
					</g>
					<g>
						<g>
							<polygon fill="#EBCEB3" points="29.453,47.406 28.09,47.406 22.629,52.87 23.992,52.87 							"/>
						</g>
					</g>
					<g>
						<g>
							<path fill="#EBCEB3" d="M12.672,46.369c-0.283-0.166-0.555-0.35-0.814-0.551l-3.904,3.908
								c0.246,0.211,0.502,0.405,0.764,0.602L12.672,46.369z"/>
						</g>
					</g>
					<g>
						<g>
							<polygon fill="#EBCEB3" points="23.514,47.406 22.15,47.406 16.689,52.87 18.053,52.87 							"/>
						</g>
					</g>
					<g>
						<g>
							<path fill="#EBCEB3" d="M9.754,43.346c-0.162-0.303-0.301-0.619-0.42-0.94L5.24,46.499c0.168,0.284,0.344,0.563,0.531,0.832
								L9.754,43.346z"/>
						</g>
					</g>
					<g>
						<g>
							<polygon fill="#EBCEB3" points="8.857,26.353 8.857,24.988 3.395,30.451 3.395,31.816 							"/>
						</g>
					</g>
					<g>
						<g>
							<path fill="#EBCEB3" d="M8.857,38.23v-1.365l-5.25,5.25c0.068,0.378,0.152,0.748,0.25,1.113L8.857,38.23z"/>
						</g>
					</g>
					<g>
						<g>
							<polygon fill="#EBCEB3" points="8.857,20.412 8.857,19.048 3.395,24.512 3.395,25.876 							"/>
						</g>
					</g>
					<g>
						<g>
							<polygon fill="#EBCEB3" points="8.857,32.291 8.857,30.926 3.395,36.391 3.395,37.754 							"/>
						</g>
					</g>
					<g>
						<g>
							<path fill="#EBCEB3" d="M17.574,47.406h-1.113c-0.08,0-0.158-0.01-0.238-0.014l-4.561,4.563
								c0.332,0.13,0.666,0.253,1.01,0.354L17.574,47.406z"/>
						</g>
					</g>
					<g>
						<g>
							<polygon fill="#EBCEB3" points="59.189,47.406 57.826,47.406 52.363,52.87 53.727,52.87 							"/>
						</g>
					</g>
					<g>
						<g>
							<polygon fill="#EBCEB3" points="65.129,47.406 63.766,47.406 58.301,52.87 59.664,52.87 							"/>
						</g>
					</g>
					<g>
						<g>
							<polygon fill="#EBCEB3" points="71.068,47.406 69.703,47.406 64.24,52.87 65.604,52.87 							"/>
						</g>
					</g>
					<g>
						<g>
							<polygon fill="#EBCEB3" points="77.008,47.406 75.643,47.406 70.18,52.87 71.543,52.87 							"/>
						</g>
					</g>
					<g>
						<g>
							<polygon fill="#EBCEB3" points="47.313,47.406 45.947,47.406 40.484,52.87 41.848,52.87 							"/>
						</g>
					</g>
					<g>
						<g>
							<path fill="#EBCEB3" d="M8.857,14.475v-0.09c0-0.481,0.053-0.955,0.141-1.416l-5.604,5.604v1.365L8.857,14.475z"/>
						</g>
					</g>
					<g>
						<g>
							<polygon fill="#EBCEB3" points="41.373,47.406 40.01,47.406 34.545,52.87 35.91,52.87 							"/>
						</g>
					</g>
					<g>
						<g>
							<polygon fill="#EBCEB3" points="35.391,47.406 34.027,47.406 28.566,52.87 29.932,52.87 							"/>
						</g>
					</g>
				</g>
			</g>
		</g>
	</g>
	<g>
		<path fill="#EBCEB3" d="M83.906,23.885c-0.113-3.57,0.088-7.137-3.723-8.346c-0.404-0.232-0.898-0.363-1.506-0.324
			c-6.555,0.336-9.422,6.377-11.465,12.451c-1.492-3.854-3.203-9.762-5.996-11.621c-2.611-1.662-7.48-1.188-9.621,0.951
			c-2.85,2.85-1.307,10.096-1.307,13.895c0,5.582-1.781,16.986,7.48,14.73c3.275-0.723,3.971-2.945,4.037-5.557
			c1.996,2.461,4.646,3.85,8.438,2.584c0.951-0.32,1.771-0.877,2.494-1.584c0.088,1.486,0.473,2.891,1.662,3.842
			c2.73,2.258,8.193,1.188,9.504-2.139c0.947-2.496,0.354-6.061,0.234-8.555C84.141,30.773,84.023,27.331,83.906,23.885z"/>
		<path fill="#EBCEB3" d="M110.645,29.082c0.154-5.431,1.437-14.77-6.783-13.866c-2.731,0.354-4.039,2.375-5.106,4.631
			c-0.366,0.713-0.719,1.426-1.074,2.139c0-0.234,0.004-0.477,0.004-0.713c0-2.85-0.713-5.346-3.92-6.057
			c-10.334-2.377-7.602,13.304-7.721,19.003c0,3.803-0.949,8.314,3.09,10.336c2.969,1.426,7.244,1.426,9.265-1.428
			c0.381-0.52,0.735-1.064,1.078-1.631c-0.004,0.105-0.004,0.217-0.011,0.322c0,0.949,0.597,2.021,1.427,2.494
			c4.039,2.021,8.672,2.141,9.739-3.09c0.714-3.563,0.238-7.602,0.238-11.164C110.844,29.695,110.76,29.377,110.645,29.082z"/>
		<path fill="#EBCEB3" d="M132.254,16.635c-0.254-0.463-0.623-0.861-1.074-1.182c-2.822-1.791-7.586-1.701-9.438,1.072
			c-7.83,0.885-10.855,6.855-10.637,14.959c0.217,7.238,3.688,11.813,10.563,12.58c1.988,3.289,7.625,3.104,9.75,0.02
			c6.586-0.658,10.373-4.633,10.807-11.77C142.768,24.045,140.105,17.883,132.254,16.635z"/>
	</g>
	<g>
		<path fill="#703416" d="M84.619,17.59c0-0.594-0.238-1.07-0.594-1.426c-0.357-0.355-0.951-0.598-1.664-0.598
			c-0.596,0-0.949,0-1.309,0c-0.355,0-0.594,0.119-0.713,0.119c-0.119,0-0.236,0.119-0.354,0.119c-0.119,0-0.238,0.119-0.238,0.119
			c-0.832,0.238-1.307,0.475-1.543,0.949c-0.357,0.354-0.594,0.949-0.951,1.664c-0.949,1.896-2.85,6.77-5.82,14.606l-7.84-16.981
			c-1.064-0.357-2.018-0.598-2.85-0.598c-1.9,0-3.088,0.479-3.801,1.428c0,0.475,0,1.545,0,3.563c0,1.9,0,3.564,0,4.871
			c0,1.781,0,3.683,0,5.7c0,2.139,0,3.801,0,5.229c0,1.309,0,2.02,0,2.141c0,1.307,0.83,2.02,2.375,2.02
			c2.02,0,3.088-0.477,3.322-1.307c0-1.9,0-5.107-0.115-9.504l-0.119-5.582c3.207,7.244,5.105,11.281,5.465,11.994
			c0.594,1.068,1.662,1.547,3.088,1.547c2.139,0,3.445-0.598,4.156-1.662c0.477-1.189,1.664-4.039,3.326-8.438l1.188-3.441
			c-0.236,5.938-0.236,10.928-0.236,15.32c0.119,0.83,0.83,1.188,2.021,1.188c1.543,0,2.613-0.236,3.088-0.713
			c0.354-0.355,0.594-1.068,0.594-2.256c0-4.988-0.119-10.334-0.354-16.035L84.619,17.59z"/>
		<path fill="#703416" d="M110.037,16.045c-0.713-0.355-1.545-0.479-2.732-0.479c-0.354,0.238-0.713,0.357-1.066,0.598
			c-0.477,0.354-1.188,1.545-2.02,3.322c-3.802,7.725-6.06,12.116-6.649,13.307c0.115-0.949,0.115-1.543,0.115-1.781
			s0.119-2.258,0.238-6.059c0.119-2.375,0.119-3.922,0.119-4.635V17.35c0-1.307-0.832-1.898-2.377-1.898
			c-0.475,0-0.949,0-1.424,0.115c-1.07,0.119-1.664,0.715-1.783,1.545c0,0.119,0,0.479,0,1.068c0,0.592,0,1.307,0,2.139
			s0,1.545,0,2.021c-0.117,5.105-0.236,9.266-0.236,12.354c0,2.021,0.119,3.207,0.236,3.805c0,0.477,0.477,0.83,1.426,1.189
			c0.832,0.354,1.9,0.479,2.854,0.479c1.307,0,2.139-0.238,2.493-0.832L106,25.672c-0.119,0.713-0.119,2.139-0.119,4.039
			c0,2.969-0.117,6.295-0.236,9.736c1.188,0.598,2.494,0.951,3.803,0.951c0.478,0,0.832-0.119,1.066-0.355
			c0.357-0.236,0.479-0.713,0.598-1.426c0.115-0.598,0.234-1.188,0.234-1.781c0-0.598,0-1.426,0-2.494c0-0.236,0-0.236,0-0.355
			v-6.414c0-6.057,0-9.502,0-10.215C111.344,16.877,110.869,16.52,110.037,16.045z"/>
		<path fill="#703416" d="M142.344,21.391c-1.188-2.969-4.039-4.514-8.672-4.514h-0.238l0.002-1.426
			c-0.713-0.596-1.545-0.949-2.61-0.949c-0.832,0-1.429,0.117-2.021,0.475c-0.595,0.238-0.949,0.713-1.189,1.068v0.832h-0.354
			c-4.753,0-7.603,1.426-8.673,4.514c-0.594,1.781-0.948,4.039-0.948,6.889c0,1.78,0.235,3.444,0.596,4.87
			c0.947,3.918,3.801,5.818,8.787,5.818h0.598v1.07c0,0.832,0.711,1.307,2.256,1.307c0.713,0,1.307-0.119,1.781-0.357
			c0.594-0.234,0.832-0.475,1.066-0.713c0.118-0.234,0.237-0.475,0.356-0.594v-0.713h0.83c4.987,0,7.959-1.9,8.791-5.818
			c0.354-1.426,0.476-2.971,0.476-4.871C143.176,25.192,142.938,22.934,142.344,21.391z M127.617,36.119v0.115h-0.479
			c-2.611,0-3.92-2.137-3.92-6.295v-1.188c0-0.83,0-2.021,0.118-3.684c0.119-0.234,0.119-0.594,0.119-1.066
			c0-1.07,0.235-2.021,0.83-2.973c0.594-0.947,1.426-1.426,2.612-1.426c0.354,0,0.595,0,0.713,0L127.617,36.119L127.617,36.119z
			 M137.594,29.824c0,4.156-1.307,6.297-3.803,6.297h-0.711l0.354-16.511c0.119,0,0.355,0,0.599,0c1.063,0,2.018,0.477,2.493,1.309
			c0.595,0.951,0.83,1.898,0.83,2.969c0,0.119,0,0.477,0.117,1.07c0.119,0.713,0.119,1.896,0.119,3.683L137.594,29.824
			L137.594,29.824z"/>
	</g>
	<g>
		<path fill="#F47934" d="M82.006,15.215c0,0,0.117-0.119,0.236-0.119c0.119,0,0.236-0.119,0.354-0.119
			c0.119,0,0.357-0.119,0.715-0.119c0.355,0,0.715,0,1.309,0c0.713,0,1.307,0.238,1.662,0.598c0.354,0.354,0.594,0.828,0.594,1.424
			l0.119,4.039c0.238,5.701,0.354,11.046,0.354,16.034c0,1.189-0.234,1.898-0.594,2.258c-0.475,0.477-1.545,0.711-3.088,0.711
			c-1.189,0-1.9-0.354-2.021-1.188c0-4.395,0-9.385,0.236-15.319l-1.188,3.441c-1.662,4.396-2.854,7.246-3.326,8.437
			c-0.711,1.066-2.021,1.662-4.156,1.662c-1.426,0-2.494-0.479-3.088-1.545c-0.355-0.715-2.258-4.754-5.465-11.995l0.119,5.583
			c0.117,4.396,0.117,7.604,0.117,9.502c-0.236,0.83-1.309,1.309-3.324,1.309c-1.543,0-2.375-0.715-2.375-2.021
			c0-0.119,0-0.832,0-2.141c0-1.426,0-3.09,0-5.227c0-2.021,0-3.92,0-5.701c0-1.307,0-2.971,0-4.871c0-2.02,0-3.088,0-3.563
			c0.713-0.949,1.896-1.428,3.801-1.428c0.832,0,1.781,0.238,2.85,0.598l7.842,16.982c2.971-7.84,4.869-12.711,5.818-14.607
			c0.357-0.713,0.596-1.311,0.951-1.662C80.699,15.69,81.293,15.452,82.006,15.215z"/>
		<path fill="#F47934" d="M113.719,16.639c0,0.713,0,4.158,0,10.215v6.414c0,0.119,0,0.119,0,0.357c0,1.066,0,1.896,0,2.494
			c0,0.594-0.119,1.188-0.234,1.779c-0.118,0.713-0.237,1.188-0.598,1.428c-0.234,0.234-0.594,0.354-1.066,0.354
			c-1.309,0-2.612-0.354-3.803-0.951c0.117-3.441,0.236-6.77,0.236-9.738c0-1.897,0-3.323,0.119-4.036l-6.771,13.657
			c-0.354,0.596-1.188,0.83-2.49,0.83c-0.95,0-2.021-0.119-2.854-0.475c-0.949-0.355-1.424-0.713-1.424-1.189
			c-0.119-0.594-0.238-1.777-0.238-3.801c0-3.088,0.119-7.244,0.238-12.352c0-0.479,0-1.189,0-2.021c0-0.834,0-1.545,0-2.139
			c0-0.594,0-0.949,0-1.068c0.117-0.832,0.713-1.426,1.781-1.545c0.475-0.119,0.949-0.119,1.426-0.119
			c1.543,0,2.375,0.598,2.375,1.9v2.971c0,0.713,0,2.256-0.119,4.631c-0.118,3.805-0.235,5.82-0.235,6.062
			c0,0.234,0,0.83-0.117,1.781c0.594-1.188,2.852-5.583,6.647-13.306c0.832-1.781,1.546-2.969,2.021-3.326
			c0.354-0.234,0.714-0.354,1.066-0.594c1.189,0,2.021,0.119,2.732,0.479C113.244,15.809,113.598,16.165,113.719,16.639z"/>
		<path fill="#F47934" d="M135.693,16.165h0.234c4.635,0,7.481,1.545,8.672,4.514c0.596,1.545,0.83,3.801,0.83,6.889
			c0,1.899-0.115,3.446-0.476,4.872c-0.832,3.92-3.802,5.818-8.789,5.818h-0.832v0.711c-0.119,0.119-0.237,0.357-0.354,0.598
			c-0.238,0.234-0.479,0.477-1.067,0.711c-0.476,0.238-1.07,0.355-1.781,0.355c-1.545,0-2.258-0.475-2.258-1.307v-0.951h-0.595
			c-4.987,0-7.84-1.898-8.789-5.818c-0.356-1.426-0.594-3.09-0.594-4.87c0-2.85,0.354-5.104,0.947-6.889
			c1.068-3.088,3.92-4.514,8.672-4.514h0.355v-0.832c0.236-0.355,0.594-0.832,1.188-1.068c0.594-0.357,1.188-0.475,2.021-0.475
			c1.067,0,1.899,0.354,2.612,0.947L135.693,16.165L135.693,16.165z M129.873,35.408V18.897c-0.119,0-0.355,0-0.713,0
			c-1.188,0-2.021,0.479-2.613,1.426c-0.592,0.949-0.83,1.9-0.83,2.971c0,0.477,0,0.832-0.119,1.066
			c-0.119,1.664-0.119,2.854-0.119,3.686v1.188c0,4.158,1.31,6.295,3.922,6.295h0.478L129.873,35.408L129.873,35.408z
			 M136.287,18.897c-0.238,0-0.479,0-0.594,0l-0.355,16.509h0.711c2.496,0,3.803-2.139,3.803-6.295v-1.188
			c0-1.783,0-2.971-0.117-3.686c-0.118-0.594-0.118-0.947-0.118-1.066c0-1.068-0.236-2.021-0.83-2.969
			C138.303,19.372,137.473,18.897,136.287,18.897z"/>
	</g>
</g>
</svg>
