<?xml version="1.0" encoding="utf-8"?>
<!-- Generator: Adobe Illustrator 16.0.0, SVG Export Plug-In . SVG Version: 6.00 Build 0)  -->
<!DOCTYPE svg PUBLIC "-//W3C//DTD SVG 1.1//EN" "http://www.w3.org/Graphics/SVG/1.1/DTD/svg11.dtd">
<svg version="1.1" id="Layer_1" xmlns="http://www.w3.org/2000/svg" xmlns:xlink="http://www.w3.org/1999/xlink" x="0px" y="0px"
	 width="197.125px" height="56.75px" viewBox="0 0 197.125 56.75" enable-background="new 0 0 197.125 56.75" xml:space="preserve">
<g>
	<g>
		<path fill="#FFFFFF" d="M196.055,39.805c0,7.245-5.82,13.065-13.063,13.065H16.459c-7.244,0-13.064-5.82-13.064-13.065V14.386
			c0-7.244,5.82-13.063,13.064-13.063h166.646c7.246,0,13.065,5.819,13.065,13.063v25.419H196.055z"/>
	</g>
	<g>
		<g>
			<path fill="#703416" d="M181.682,55.43H15.033c-7.766,0-14.082-6.313-14.082-14.08V15.93c0-7.765,6.316-14.081,14.082-14.081
				H181.68c7.766,0,14.082,6.316,14.082,14.081V41.35C195.764,49.113,189.447,55.43,181.682,55.43z M15.033,3.88
				c-6.645,0-12.049,5.405-12.049,12.05V41.35c0,6.646,5.404,12.051,12.049,12.051H181.68c6.646,0,12.051-5.405,12.051-12.051V15.93
				c0-6.645-5.403-12.05-12.051-12.05H15.033z M181.682,49.966H15.033c-4.752,0-8.617-3.864-8.617-8.616V15.93
				c0-4.752,3.865-8.617,8.617-8.617H181.68c4.752,0,8.617,3.865,8.617,8.617V41.35C190.299,46.102,186.434,49.966,181.682,49.966z
				 M15.033,9.344c-3.568,0-6.584,3.018-6.584,6.585v25.418c0,3.569,3.016,6.588,6.584,6.588H181.68
				c3.568,0,6.586-3.019,6.586-6.588V15.929c0-3.568-3.018-6.585-6.586-6.585H15.033L15.033,9.344z"/>
		</g>
	</g>
	<g>
		<g>
			<g>
				<g>
					<g id="SVGID_1_">
						<g>
							<path fill="#F47934" d="M183.105,1.32H16.459c-7.244,0-13.064,5.82-13.064,13.064v25.421c0,7.243,5.82,13.063,13.064,13.063
								h166.646c7.246,0,13.065-5.82,13.065-13.063V14.384C196.055,7.141,190.232,1.32,183.105,1.32z M190.709,39.805
								c0,4.157-3.443,7.604-7.604,7.604H16.459c-4.156,0-7.602-3.444-7.602-7.604V14.386c0-4.155,3.443-7.602,7.602-7.602h166.646
								c4.158,0,7.604,3.444,7.604,7.602V39.805L190.709,39.805z"/>
						</g>
					</g>
				</g>
				<g>
					<g>
						<g>
							<polygon fill="#EBCEB3" points="74.623,6.784 75.988,6.784 81.447,1.32 80.084,1.32 							"/>
						</g>
					</g>
					<g>
						<g>
							<polygon fill="#EBCEB3" points="86.57,6.784 87.934,6.784 93.398,1.32 92.033,1.32 							"/>
						</g>
					</g>
					<g>
						<g>
							<polygon fill="#EBCEB3" points="80.631,6.784 81.996,6.784 87.459,1.32 86.096,1.32 							"/>
						</g>
					</g>
					<g>
						<g>
							<polygon fill="#EBCEB3" points="92.51,6.784 93.873,6.784 99.338,1.32 97.973,1.32 							"/>
						</g>
					</g>
					<g>
						<g>
							<polygon fill="#EBCEB3" points="110.324,6.784 111.689,6.784 117.152,1.32 115.789,1.32 							"/>
						</g>
					</g>
					<g>
						<g>
							<polygon fill="#EBCEB3" points="98.447,6.784 99.811,6.784 105.275,1.32 103.91,1.32 							"/>
						</g>
					</g>
					<g>
						<g>
							<polygon fill="#EBCEB3" points="116.266,6.784 117.629,6.784 123.094,1.32 121.729,1.32 							"/>
						</g>
					</g>
					<g>
						<g>
							<polygon fill="#EBCEB3" points="104.387,6.784 105.75,6.784 111.215,1.32 109.852,1.32 							"/>
						</g>
					</g>
					<g>
						<g>
							<polygon fill="#EBCEB3" points="38.939,6.784 40.305,6.784 45.768,1.32 44.404,1.32 							"/>
						</g>
					</g>
					<g>
						<g>
							<polygon fill="#EBCEB3" points="33,6.784 34.365,6.784 39.828,1.32 38.465,1.32 							"/>
						</g>
					</g>
					<g>
						<g>
							<polygon fill="#EBCEB3" points="122.256,6.784 123.619,6.784 129.078,1.32 127.717,1.32 							"/>
						</g>
					</g>
					<g>
						<g>
							<polygon fill="#EBCEB3" points="27.063,6.784 28.426,6.784 33.891,1.32 32.525,1.32 							"/>
						</g>
					</g>
					<g>
						<g>
							<polygon fill="#EBCEB3" points="21.123,6.784 22.488,6.784 27.951,1.32 26.586,1.32 							"/>
						</g>
					</g>
					<g>
						<g>
							<polygon fill="#EBCEB3" points="62.746,6.784 64.109,6.784 69.572,1.32 68.207,1.32 							"/>
						</g>
					</g>
					<g>
						<g>
							<polygon fill="#EBCEB3" points="68.686,6.784 70.049,6.784 75.51,1.32 74.146,1.32 							"/>
						</g>
					</g>
					<g>
						<g>
							<path fill="#EBCEB3" d="M15.045,6.924c0.459-0.089,0.932-0.14,1.414-0.14h0.09l5.465-5.464h-1.365L15.045,6.924z"/>
						</g>
					</g>
					<g>
						<g>
							<polygon fill="#EBCEB3" points="50.867,6.784 52.232,6.784 57.691,1.32 56.328,1.32 							"/>
						</g>
					</g>
					<g>
						<g>
							<polygon fill="#EBCEB3" points="56.809,6.784 58.172,6.784 63.633,1.32 62.268,1.32 							"/>
						</g>
					</g>
					<g>
						<g>
							<path fill="#EBCEB3" d="M190.709,15.661v1.364l5.178-5.181c-0.076-0.368-0.174-0.729-0.279-1.085L190.709,15.661z"/>
						</g>
					</g>
					<g>
						<g>
							<path fill="#EBCEB3" d="M181.713,6.784h1.361l4.607-4.608c-0.334-0.127-0.673-0.243-1.021-0.344L181.713,6.784z"/>
						</g>
					</g>
					<g>
						<g>
							<polygon fill="#EBCEB3" points="190.709,21.604 190.709,22.968 196.174,17.5 196.174,16.136 							"/>
						</g>
					</g>
					<g>
						<g>
							<path fill="#EBCEB3" d="M186.721,7.715c0.289,0.159,0.563,0.343,0.828,0.536l3.879-3.878
								c-0.248-0.209-0.508-0.402-0.771-0.593L186.721,7.715z"/>
						</g>
					</g>
					<g>
						<g>
							<path fill="#EBCEB3" d="M189.711,10.662c0.17,0.295,0.316,0.603,0.445,0.918l4.016-4.014
								c-0.174-0.28-0.355-0.554-0.547-0.819L189.711,10.662z"/>
						</g>
					</g>
					<g>
						<g>
							<path fill="#EBCEB3" d="M16.053,1.341c-0.506,0.018-1.006,0.063-1.496,0.133l-11.01,11.01
								c-0.07,0.49-0.115,0.987-0.133,1.497L16.053,1.341z"/>
						</g>
					</g>
					<g>
						<g>
							<polygon fill="#EBCEB3" points="128.193,6.784 129.559,6.784 135.018,1.32 133.654,1.32 							"/>
						</g>
					</g>
					<g>
						<g>
							<polygon fill="#EBCEB3" points="190.709,27.546 190.709,28.91 196.174,23.443 196.174,22.078 							"/>
						</g>
					</g>
					<g>
						<g>
							<polygon fill="#EBCEB3" points="190.709,33.488 190.709,34.854 196.174,29.386 196.174,28.021 							"/>
						</g>
					</g>
					<g>
						<g>
							<path fill="#EBCEB3" d="M190.709,39.432v0.373c0,0.365-0.035,0.727-0.088,1.077l5.553-5.555v-1.364L190.709,39.432z"/>
						</g>
					</g>
					<g>
						<g>
							<polygon fill="#EBCEB3" points="175.771,6.784 177.139,6.784 182.602,1.32 181.238,1.32 							"/>
						</g>
					</g>
					<g>
						<g>
							<polygon fill="#EBCEB3" points="146.012,6.784 147.373,6.784 152.836,1.32 151.471,1.32 							"/>
						</g>
					</g>
					<g>
						<g>
							<polygon fill="#EBCEB3" points="140.072,6.784 141.436,6.784 146.895,1.32 145.531,1.32 							"/>
						</g>
					</g>
					<g>
						<g>
							<polygon fill="#EBCEB3" points="134.133,6.784 135.496,6.784 140.957,1.32 139.594,1.32 							"/>
						</g>
					</g>
					<g>
						<g>
							<polygon fill="#EBCEB3" points="151.949,6.784 153.313,6.784 158.773,1.32 157.41,1.32 							"/>
						</g>
					</g>
					<g>
						<g>
							<polygon fill="#EBCEB3" points="169.832,6.784 171.197,6.784 176.66,1.32 175.299,1.32 							"/>
						</g>
					</g>
					<g>
						<g>
							<polygon fill="#EBCEB3" points="157.955,6.784 159.32,6.784 164.783,1.32 163.42,1.32 							"/>
						</g>
					</g>
					<g>
						<g>
							<polygon fill="#EBCEB3" points="163.895,6.784 165.26,6.784 170.725,1.32 169.357,1.32 							"/>
						</g>
					</g>
					<g>
						<g>
							<polygon fill="#EBCEB3" points="44.93,6.784 46.293,6.784 51.754,1.32 50.391,1.32 							"/>
						</g>
					</g>
					<g>
						<g>
							<polygon fill="#EBCEB3" points="88.959,47.406 87.598,47.406 82.137,52.87 83.5,52.87 							"/>
						</g>
					</g>
					<g>
						<g>
							<polygon fill="#EBCEB3" points="118.697,47.406 117.334,47.406 111.869,52.87 113.234,52.87 							"/>
						</g>
					</g>
					<g>
						<g>
							<polygon fill="#EBCEB3" points="130.574,47.406 129.213,47.406 123.746,52.87 125.113,52.87 							"/>
						</g>
					</g>
					<g>
						<g>
							<polygon fill="#EBCEB3" points="136.516,47.406 135.15,47.406 129.686,52.87 131.053,52.87 							"/>
						</g>
					</g>
					<g>
						<g>
							<polygon fill="#EBCEB3" points="124.639,47.406 123.271,47.406 117.811,52.87 119.174,52.87 							"/>
						</g>
					</g>
					<g>
						<g>
							<polygon fill="#EBCEB3" points="100.84,47.406 99.475,47.406 94.014,52.87 95.379,52.87 							"/>
						</g>
					</g>
					<g>
						<g>
							<polygon fill="#EBCEB3" points="94.9,47.406 93.535,47.406 88.076,52.87 89.439,52.87 							"/>
						</g>
					</g>
					<g>
						<g>
							<polygon fill="#EBCEB3" points="112.717,47.406 111.352,47.406 105.893,52.87 107.256,52.87 							"/>
						</g>
					</g>
					<g>
						<g>
							<polygon fill="#EBCEB3" points="106.777,47.406 105.412,47.406 99.953,52.87 101.316,52.87 							"/>
						</g>
					</g>
					<g>
						<g>
							<polygon fill="#EBCEB3" points="142.453,47.406 141.09,47.406 135.625,52.87 136.99,52.87 							"/>
						</g>
					</g>
					<g>
						<g>
							<polygon fill="#EBCEB3" points="172.225,47.406 170.861,47.406 165.4,52.87 166.764,52.87 							"/>
						</g>
					</g>
					<g>
						<g>
							<polygon fill="#EBCEB3" points="178.162,47.406 176.801,47.406 171.34,52.87 172.703,52.87 							"/>
						</g>
					</g>
					<g>
						<g>
							<path fill="#EBCEB3" d="M184.189,47.318c-0.354,0.052-0.715,0.088-1.084,0.088h-0.365l-5.461,5.464h1.361L184.189,47.318z"/>
						</g>
					</g>
					<g>
						<g>
							<path fill="#EBCEB3" d="M196.072,41.372c0.057-0.479,0.092-0.966,0.096-1.46l-12.943,12.952
								c0.494-0.005,0.98-0.04,1.461-0.099L196.072,41.372z"/>
						</g>
					</g>
					<g>
						<g>
							<polygon fill="#EBCEB3" points="166.285,47.406 164.922,47.406 159.461,52.87 160.824,52.87 							"/>
						</g>
					</g>
					<g>
						<g>
							<polygon fill="#EBCEB3" points="148.395,47.406 147.027,47.406 141.564,52.87 142.93,52.87 							"/>
						</g>
					</g>
					<g>
						<g>
							<polygon fill="#EBCEB3" points="154.33,47.406 152.969,47.406 147.504,52.87 148.867,52.87 							"/>
						</g>
					</g>
					<g>
						<g>
							<polygon fill="#EBCEB3" points="160.348,47.406 158.982,47.406 153.521,52.87 154.887,52.87 							"/>
						</g>
					</g>
					<g>
						<g>
							<polygon fill="#EBCEB3" points="53.25,47.406 51.887,47.406 46.424,52.87 47.787,52.87 							"/>
						</g>
					</g>
					<g>
						<g>
							<polygon fill="#EBCEB3" points="83.021,47.406 81.658,47.406 76.197,52.87 77.561,52.87 							"/>
						</g>
					</g>
					<g>
						<g>
							<polygon fill="#EBCEB3" points="29.453,47.406 28.09,47.406 22.629,52.87 23.992,52.87 							"/>
						</g>
					</g>
					<g>
						<g>
							<path fill="#EBCEB3" d="M12.672,46.369c-0.283-0.166-0.555-0.35-0.814-0.551l-3.904,3.908
								c0.246,0.211,0.502,0.406,0.764,0.602L12.672,46.369z"/>
						</g>
					</g>
					<g>
						<g>
							<polygon fill="#EBCEB3" points="23.514,47.406 22.15,47.406 16.689,52.87 18.053,52.87 							"/>
						</g>
					</g>
					<g>
						<g>
							<path fill="#EBCEB3" d="M9.754,43.346c-0.162-0.303-0.301-0.619-0.42-0.941L5.24,46.499c0.168,0.284,0.344,0.563,0.531,0.832
								L9.754,43.346z"/>
						</g>
					</g>
					<g>
						<g>
							<polygon fill="#EBCEB3" points="8.857,26.353 8.857,24.988 3.395,30.451 3.395,31.816 							"/>
						</g>
					</g>
					<g>
						<g>
							<path fill="#EBCEB3" d="M8.857,38.23v-1.365l-5.25,5.25c0.068,0.378,0.152,0.748,0.25,1.113L8.857,38.23z"/>
						</g>
					</g>
					<g>
						<g>
							<polygon fill="#EBCEB3" points="8.857,20.412 8.857,19.048 3.395,24.512 3.395,25.876 							"/>
						</g>
					</g>
					<g>
						<g>
							<polygon fill="#EBCEB3" points="8.857,32.291 8.857,30.926 3.395,36.391 3.395,37.754 							"/>
						</g>
					</g>
					<g>
						<g>
							<path fill="#EBCEB3" d="M17.574,47.406h-1.113c-0.08,0-0.158-0.01-0.238-0.014l-4.561,4.563
								c0.332,0.13,0.666,0.253,1.01,0.354L17.574,47.406z"/>
						</g>
					</g>
					<g>
						<g>
							<polygon fill="#EBCEB3" points="59.189,47.406 57.826,47.406 52.363,52.87 53.727,52.87 							"/>
						</g>
					</g>
					<g>
						<g>
							<polygon fill="#EBCEB3" points="65.129,47.406 63.766,47.406 58.301,52.87 59.664,52.87 							"/>
						</g>
					</g>
					<g>
						<g>
							<polygon fill="#EBCEB3" points="71.068,47.406 69.703,47.406 64.24,52.87 65.604,52.87 							"/>
						</g>
					</g>
					<g>
						<g>
							<polygon fill="#EBCEB3" points="77.008,47.406 75.643,47.406 70.18,52.87 71.543,52.87 							"/>
						</g>
					</g>
					<g>
						<g>
							<polygon fill="#EBCEB3" points="47.313,47.406 45.947,47.406 40.484,52.87 41.848,52.87 							"/>
						</g>
					</g>
					<g>
						<g>
							<path fill="#EBCEB3" d="M8.857,14.475v-0.09c0-0.481,0.053-0.955,0.141-1.416l-5.604,5.604v1.365L8.857,14.475z"/>
						</g>
					</g>
					<g>
						<g>
							<polygon fill="#EBCEB3" points="41.373,47.406 40.01,47.406 34.545,52.87 35.91,52.87 							"/>
						</g>
					</g>
					<g>
						<g>
							<polygon fill="#EBCEB3" points="35.391,47.406 34.027,47.406 28.566,52.87 29.932,52.87 							"/>
						</g>
					</g>
				</g>
			</g>
		</g>
	</g>
	<g>
		<path fill="#EBCEB3" d="M163.232,38.439c-0.313-2.09-0.883-4.121-1.387-6.237c-1.07-4.751-1.546-11.165-3.804-15.44
			c-1.78-3.325-5.938-4.155-9.383-2.97c-2.613,0.95-3.685,2.852-4.636,5.345c-2.018,5.229-3.323,10.69-4.866,16.035
			c-0.109,0.368-0.238,0.754-0.367,1.15c-0.653-0.271-1.371-0.418-2.11-0.506c0.022-5.551,0.104-11.154,0.104-16.683
			c-0.047-0.683-0.313-1.225-0.703-1.635c-0.783-2.104-2.361-3.096-4.998-3.473c-3.088-0.356-8.67-0.95-11.402,0.832
			c-2.375,1.544-2.139,4.156-2.256,6.649c-0.156,3.577-0.621,7.203-1.287,10.781c-0.299-2.198-1.232-4.166-2.953-5.667
			c1.392-3.085,1.555-6.884-0.393-9.627c-2.971-4.157-10.098-4.157-14.49-2.97c-3.92,1.068-5.465,3.325-5.465,7.127
			c-0.047,1.796-0.07,3.592-0.096,5.389c-0.604-3.475-1.318-7.062-2.756-9.783c-1.781-3.325-5.938-4.156-9.385-2.97
			c-2.57,0.936-3.646,2.792-4.586,5.229c-0.264-0.814-0.654-1.58-1.234-2.259c-2.141-2.567-5.727-3.015-8.936-3.165
			c-0.311-0.105-0.65-0.174-1.041-0.16c-3.799,0.096-8.348,0.576-10.266,3.677c-0.857-2.354-2.887-3.246-5.771-3.438
			c-3.801-0.236-8.67-0.713-12.473,0.119c-6.65,1.544-4.395,11.996-4.514,16.985c0,5.464-2.139,15.32,6.771,13.541
			c3.682-0.715,4.514-2.854,4.514-6.178c0-5.236,0.09-10.489,0.188-15.8c0.088,0,0.176,0,0.264,0
			c-0.029,3.722-0.096,7.478-0.096,11.165c0,2.854-1.068,7.723,1.309,9.859c2.729,2.339,7.289,1.396,9.17-1.377
			c0.566,1.402,1.73,2.398,4.131,2.563c6.293,0.395,6.807-4.341,6.797-9.015c2.514-0.104,4.773-0.563,6.613-1.581
			c-0.113,0.402-0.227,0.811-0.342,1.211c-0.713,2.376-2.141,5.464-0.119,7.604c1.781,2.021,6.059,1.545,8.195,0.236
			c2.225-1.297,2.783-4.326,3.318-7.008c0.242,0,0.486,0,0.729,0c0.342,2.349,0.693,5.039,2.127,6.65
			c2.168,2.35,6.119,1.943,8.41-0.055c0.15,0.184,0.313,0.359,0.5,0.527c2.492,2.257,7.603,1.544,10.81,1.426
			c1.656-0.039,3.271-0.253,4.731-0.712c0.104,0.306,0.228,0.592,0.375,0.831c1.188,1.9,3.443,2.258,5.464,2.021
			c2.129-0.229,3.276-1.097,3.895-2.494c4.07,0,8.146,0,12.216,0c1.771,2.858,5.746,4.102,8.596,1.067
			c0.335-0.358,0.597-0.817,0.802-1.321c2.01,0.489,4.58-0.014,6.088-0.937c2.225-1.297,2.785-4.326,3.32-7.008
			c0.241,0,0.485,0,0.729,0c0.342,2.349,0.693,5.039,2.127,6.651c2.471,2.676,7.258,1.778,9.264-0.979
			c0.402-0.345,0.684-0.833,0.73-1.479C163.609,39.523,163.514,38.93,163.232,38.439z M103.883,32.173
			c0.158,0.011,0.318,0.015,0.475,0.029c0.392,0.098,0.693,0.348,0.66,0.175c0.125,0.359,0.053,0.859,0.053,1.37
			c0,1.067,0.355,2.021-0.832,2.257c-0.116,0.014-0.235,0.016-0.354,0.021C103.883,34.73,103.883,33.45,103.883,32.173z
			 M65.041,21.892c0.064,0.014,0.117,0.029,0.16,0.049c0.162,0.611,0.076,1.549,0.076,2.305c0,0.979,0.23,1.953-0.354,2.466
			C64.928,25.089,64.977,23.481,65.041,21.892z M65.279,21.981C65.371,22.044,65.352,22.082,65.279,21.981L65.279,21.981z"/>
	</g>
	<g>
		<g>
			<g>
				<path fill="#703416" d="M52.807,15.455c0.713,0.237,1.188,0.476,1.426,0.831c0.238,0.355,0.355,0.831,0.355,1.544
					c0,4.276,0,9.027-0.117,14.372c0,0.595,0,1.426,0,2.731c0,1.188,0,1.898,0,2.021v2.138c0,0.119-0.119,0.237-0.238,0.477
					c-0.117,0.238-0.475,0.354-0.949,0.596c-0.477,0.236-1.068,0.355-1.781,0.355c-1.188,0-1.9-0.119-2.258-0.355
					c-0.355-0.238-0.477-0.713-0.477-1.309v-0.595c0-0.118,0-0.235,0-0.354c0-0.119,0-0.238,0-0.356
					c0.119-5.105,0.238-11.401,0.238-19.124h-5.939c0,4.157,0,8.79-0.117,13.897c0,0.594,0,1.426,0,2.73c0,1.188,0,1.899,0,2.021
					v2.139c0,0.118-0.119,0.237-0.355,0.478c-0.238,0.234-0.596,0.354-1.068,0.594c-0.477,0.238-1.068,0.355-1.781,0.355
					c-0.596,0-1.188,0-1.545-0.117c-0.355-0.119-0.594-0.238-0.832-0.356c-0.117-0.119-0.234-0.354-0.234-0.476
					s-0.119-0.356-0.119-0.596V38.5c0-0.119,0-0.236,0-0.355c0-0.235,0-0.354,0-0.354c0.119-5.228,0.236-11.759,0.236-19.836V17.24
					c0-0.594,0.236-1.069,0.832-1.425c0.594-0.356,1.426-0.596,2.492-0.596C48.293,15.217,52.33,15.217,52.807,15.455z"/>
			</g>
		</g>
		<g>
			<g>
				<path fill="#703416" d="M58.982,17.83c0.596-1.899,3.445-2.73,8.314-2.73c3.801,0,6.295,0.713,7.721,2.139
					c0.713,0.713,1.068,2.02,1.068,4.039c0,3.324-0.355,5.7-1.068,6.889c-1.188,2.257-3.684,3.444-7.363,3.444
					c-1.426,0-2.613,0-3.326-0.118c0,1.307,0,2.493,0,3.563v1.188v2.375c0,0.236-0.236,0.595-0.832,1.188
					c-0.594,0.478-1.424,0.832-2.375,0.832c-0.949,0-1.543-0.117-1.898-0.236c-0.355-0.118-0.594-0.478-0.594-0.949L58.982,17.83z
					 M64.803,17.83c-0.117,3.089-0.236,5.701-0.236,7.721c0,0.119,0,0.596,0,1.545c0,0.949,0,1.427,0,1.427h2.375
					c1.189,0,2.139-0.356,2.732-1.069c0.592-0.713,0.949-1.544,0.949-2.494c0-0.119,0-0.475,0-1.068c0-0.595,0-1.067,0-1.426v-1.307
					c0-1.188-0.355-2.139-0.949-2.732c-0.596-0.594-1.664-0.949-3.326-0.949C65.279,17.83,64.803,17.83,64.803,17.83z"/>
			</g>
		</g>
		<g>
			<g>
				<path fill="#703416" d="M94.973,38.021c0,0.119,0.119,0.236,0.119,0.477c0,1.068-1.188,1.663-3.563,1.781
					c-1.068,0-1.662-0.356-1.898-1.188l-1.545-7.008c-0.594,0-1.426,0-2.732,0c-1.305,0-2.137,0-2.611,0l-0.355,1.308
					c-0.832,3.324-1.426,5.346-1.781,5.938c-0.236,0.119-0.832,0.354-1.781,0.478c-0.832,0.235-1.426,0.354-1.781,0.354
					c-1.188,0-1.781-0.478-1.781-1.308c0-0.237,0.119-0.596,0.236-0.832l1.428-4.75c2.137-7.483,3.682-12.354,4.395-14.491
					l0.236-0.476c0.119-0.477,0.355-0.832,0.477-1.188c0.117-0.355,0.355-0.594,0.713-1.068c0.355-0.354,0.83-0.594,1.426-0.832
					c0.594-0.235,1.426-0.235,2.377-0.235c0.713,0,1.424,0.118,1.898,0.354c0.477,0.237,0.949,0.595,1.188,0.95
					c0.236,0.477,0.477,0.831,0.594,1.188c0.119,0.355,0.238,0.714,0.355,1.308c0.236,1.068,0.715,3.207,1.428,6.058
					c0.711,2.972,1.188,5.229,1.662,6.892L94.973,38.021z M85.945,20.087c-0.117,0.356-0.354,1.188-0.594,2.376
					c-0.236,1.188-0.477,1.9-0.477,2.139l-1.188,4.634c0.357,0,1.07,0,1.902,0c0.83,0,1.543,0,2.018,0L85.945,20.087z"/>
			</g>
		</g>
		<g>
			<g>
				<path fill="#703416" d="M113.74,20.919c0,2.257-0.715,4.038-2.021,5.228c0.594,0.236,1.188,0.594,1.9,1.067
					c1.307,0.95,2.02,2.376,2.02,4.396c0,1.188,0,2.14-0.119,2.971c-0.117,0.713-0.235,1.544-0.594,2.376
					c-0.355,0.831-0.713,1.425-1.307,1.899c-0.596,0.476-1.309,0.83-2.377,1.066c-1.066,0.238-2.256,0.479-3.801,0.479h-7.127
					c-0.355,0-0.83-0.119-1.188-0.237c-0.949-0.354-1.426-0.95-1.426-1.663l0.355-20.549c0.238-0.594,0.594-1.069,1.188-1.544
					c0.596-0.356,1.31-0.713,2.258-0.832c0.949-0.118,1.662-0.237,2.375-0.356c0.713,0,1.545-0.117,2.494-0.117
					c2.971,0,4.868,0.476,5.938,1.544C113.266,17.712,113.74,19.137,113.74,20.919z M103.525,28.045v9.503h3.207
					c1.188,0,2.139-0.354,2.729-1.067c0.593-0.713,0.949-1.545,0.949-2.494c0-0.118,0-0.355,0-0.594c0-0.237,0-0.478,0-0.596v-0.595
					c0-1.425-0.236-2.494-0.83-3.207c-0.597-0.712-1.781-1.068-3.563-1.068h-2.494v0.118H103.525z M103.883,17.83
					c-0.119,1.426-0.119,4.039-0.238,7.721c1.898,0,3.088-0.117,3.563-0.354c0.832-0.476,1.188-1.9,1.188-4.157v-0.831
					c0-1.544-0.949-2.376-2.853-2.376C104.355,17.83,103.883,17.83,103.883,17.83z"/>
			</g>
		</g>
		<g>
			<g>
				<path fill="#703416" d="M134.406,15.813c0.713,0.235,1.189,0.475,1.426,0.712c0.236,0.236,0.355,0.832,0.355,1.545
					c0,1.662,0,4.156,0,7.363s0,5.465,0,6.65l-0.119,4.751v0.477c2.258,0,3.563,0.119,4.158,0.354
					c0.594,0.237,0.832,0.95,0.832,2.021l-0.119,1.899c0,0.595-0.832,0.95-2.377,0.95c-0.594,0-1.188-0.118-1.662-0.237
					c-0.476-0.118-0.713-0.476-0.713-0.713l-0.119-1.544h-16.391c-0.119,0.713-0.119,1.188-0.119,1.544s-0.238,0.595-0.713,0.713
					c-0.478,0.119-0.949,0.237-1.662,0.237c-0.597,0-1.189-0.118-1.664-0.237c-0.476-0.235-0.713-0.476-0.713-0.831
					c0,0,0-0.236-0.117-0.713c-0.119-0.477-0.119-0.832-0.119-1.068c0-1.067,0.354-1.779,1.068-2.021
					c0.475-0.235,1.899-0.354,4.274-0.354c0.713-2.611,1.308-5.818,1.899-9.857c0.594-4.038,0.83-7.245,0.83-9.621v-0.355
					c0-0.594,0.236-1.067,0.832-1.425c0.594-0.354,1.307-0.595,2.375-0.595C131.082,15.573,133.934,15.692,134.406,15.813z
					 M128.113,18.543c0,5.82-0.951,12.115-2.613,18.887h5.227c0.119-5.228,0.238-11.521,0.238-19.006h-0.238
					c-0.119,0-0.477,0-1.067,0C129.063,18.543,128.469,18.543,128.113,18.543z"/>
			</g>
		</g>
		<g>
			<g>
				<path fill="#703416" d="M163.033,38.021c0,0.119,0.117,0.236,0.117,0.477c0,1.068-1.188,1.663-3.563,1.781
					c-1.067,0-1.662-0.356-1.899-1.188l-1.543-7.008c-0.597,0-1.426,0-2.732,0s-2.139,0-2.611,0l-0.357,1.308
					c-0.83,3.324-1.424,5.346-1.778,5.938c-0.235,0.119-0.832,0.354-1.78,0.478c-0.832,0.235-1.427,0.354-1.781,0.354
					c-1.189,0-1.781-0.478-1.781-1.308c0-0.237,0.117-0.596,0.236-0.832l1.426-4.75c2.139-7.483,3.684-12.354,4.395-14.491
					l0.238-0.476c0.117-0.477,0.355-0.832,0.477-1.188c0.117-0.355,0.354-0.594,0.711-1.068c0.355-0.354,0.832-0.594,1.426-0.832
					c0.595-0.235,1.426-0.235,2.377-0.235c0.711,0,1.424,0.118,1.9,0.354c0.475,0.237,0.949,0.595,1.188,0.95
					c0.236,0.477,0.476,0.831,0.595,1.188s0.235,0.714,0.354,1.308c0.236,1.068,0.713,3.207,1.426,6.058
					c0.714,2.972,1.188,5.229,1.662,6.892L163.033,38.021z M154.006,20.087c-0.117,0.356-0.355,1.188-0.594,2.376
					s-0.477,1.9-0.477,2.139l-1.189,4.634c0.355,0,1.068,0,1.9,0s1.545,0,2.02,0L154.006,20.087z"/>
			</g>
		</g>
	</g>
	<g>
		<g>
			<g>
				<path fill="#F47934" d="M55.182,14.742c0.713,0.236,1.188,0.475,1.426,0.831c0.238,0.354,0.357,0.832,0.357,1.544
					c0,4.275,0,9.026-0.119,14.373c0,0.594,0,1.425,0,2.729c0,1.188,0,1.9,0,2.021v2.138c0,0.119-0.119,0.237-0.238,0.478
					c-0.117,0.235-0.475,0.354-0.949,0.595c-0.477,0.235-1.068,0.354-1.781,0.354c-1.188,0-1.9-0.119-2.258-0.354
					c-0.354-0.237-0.475-0.714-0.475-1.308v-0.596c0-0.119,0-0.236,0-0.354c0-0.119,0-0.237,0-0.356
					c0.119-5.104,0.236-11.401,0.236-19.123h-5.938c0,4.157,0,8.789-0.119,13.896c0,0.595,0,1.427,0,2.73c0,1.188,0,1.9,0,2.021
					V38.5c0,0.118-0.119,0.236-0.355,0.477c-0.236,0.236-0.594,0.354-1.068,0.594c-0.475,0.238-1.068,0.354-1.781,0.354
					c-0.594,0-1.188,0-1.543-0.116c-0.355-0.119-0.596-0.238-0.832-0.355c-0.119-0.119-0.236-0.355-0.236-0.477
					c0-0.117-0.119-0.355-0.119-0.596v-0.594c0-0.119,0-0.237,0-0.355c0-0.236,0-0.354,0-0.354
					c0.119-5.228,0.236-11.759,0.236-19.836v-0.356c0-0.594,0.236-1.066,0.832-1.425c0.594-0.355,1.426-0.594,2.494-0.594
					C50.668,14.505,54.707,14.623,55.182,14.742z"/>
			</g>
		</g>
		<g>
			<g>
				<path fill="#F47934" d="M61.477,17.117c0.596-1.9,3.445-2.731,8.314-2.731c3.801,0,6.295,0.714,7.721,2.14
					c0.713,0.713,1.068,2.02,1.068,4.039c0,3.324-0.355,5.7-1.068,6.889c-1.188,2.257-3.684,3.444-7.363,3.444
					c-1.426,0-2.613,0-3.326-0.118c0,1.307,0,2.493,0,3.563v1.188v2.376c0,0.235-0.236,0.594-0.83,1.188
					c-0.596,0.478-1.428,0.831-2.377,0.831c-0.949,0-1.543-0.117-1.898-0.234c-0.357-0.119-0.596-0.478-0.596-0.95L61.477,17.117z
					 M67.18,17.236c-0.119,3.088-0.238,5.7-0.238,7.721c0,0.119,0,0.594,0,1.544s0,1.426,0,1.426h2.375
					c1.189,0,2.141-0.354,2.732-1.067c0.591-0.713,0.949-1.544,0.949-2.494c0-0.119,0-0.477,0-1.069c0-0.592,0-1.066,0-1.425v-1.307
					c0-1.188-0.355-2.141-0.949-2.732c-0.594-0.591-1.662-0.95-3.326-0.95C67.771,17.117,67.18,17.117,67.18,17.236z"/>
			</g>
		</g>
		<g>
			<g>
				<path fill="#F47934" d="M97.35,37.311c0,0.117,0.119,0.236,0.119,0.477c0,1.068-1.189,1.663-3.564,1.781
					c-1.068,0-1.662-0.355-1.9-1.188l-1.545-7.008c-0.594,0-1.424,0-2.73,0c-1.305,0-2.137,0-2.611,0l-0.355,1.308
					c-0.832,3.325-1.426,5.346-1.781,5.938c-0.238,0.119-0.832,0.354-1.783,0.476c-0.83,0.237-1.424,0.356-1.779,0.356
					c-1.188,0-1.781-0.479-1.781-1.309c0-0.235,0.119-0.595,0.236-0.832l1.426-4.75c2.139-7.481,3.684-12.354,4.395-14.491
					l0.238-0.477c0.119-0.476,0.355-0.831,0.477-1.188c0.117-0.356,0.355-0.596,0.713-1.069c0.355-0.355,0.832-0.594,1.426-0.831
					c0.594-0.237,1.426-0.237,2.375-0.237c0.713,0,1.426,0.118,1.898,0.355c0.479,0.237,0.951,0.594,1.189,0.95
					c0.236,0.476,0.475,0.832,0.594,1.188c0.117,0.355,0.236,0.712,0.355,1.308c0.236,1.067,0.713,3.207,1.426,6.059
					c0.713,2.969,1.188,5.228,1.662,6.89L97.35,37.311z M88.322,19.493c-0.119,0.355-0.355,1.188-0.596,2.376
					c-0.236,1.188-0.477,1.899-0.477,2.138l-1.188,4.634c0.355,0,1.07,0,1.9,0c0.832,0,1.545,0,2.02,0L88.322,19.493z"/>
			</g>
		</g>
		<g>
			<g>
				<path fill="#F47934" d="M116.234,20.324c0,2.257-0.713,4.039-2.021,5.227c0.595,0.237,1.188,0.596,1.897,1.069
					c1.31,0.95,2.021,2.375,2.021,4.396c0,1.188,0,2.14-0.119,2.971c-0.119,0.714-0.236,1.545-0.594,2.375
					c-0.357,0.832-0.713,1.427-1.309,1.899c-0.594,0.478-1.307,0.831-2.375,1.068s-2.258,0.476-3.801,0.476h-7.127
					c-0.355,0-0.832-0.117-1.189-0.236c-0.947-0.354-1.424-0.949-1.424-1.661l0.354-20.549c0.236-0.596,0.595-1.069,1.188-1.545
					c0.594-0.355,1.307-0.713,2.256-0.831c0.951-0.118,1.664-0.237,2.377-0.356c0.713,0,1.543-0.118,2.494-0.118
					c2.971,0,4.869,0.477,5.938,1.544C115.641,16.999,116.234,18.424,116.234,20.324z M105.9,27.333v9.502h3.207
					c1.188,0,2.139-0.354,2.731-1.067c0.595-0.713,0.949-1.545,0.949-2.494c0-0.118,0-0.355,0-0.596c0-0.236,0-0.476,0-0.594V31.49
					c0-1.426-0.238-2.495-0.832-3.207c-0.595-0.713-1.781-1.069-3.563-1.069H105.9V27.333L105.9,27.333z M106.258,17.236
					c-0.119,1.426-0.119,4.039-0.238,7.721c1.9,0,3.088-0.119,3.563-0.355c0.832-0.476,1.188-1.899,1.188-4.156v-0.831
					c0-1.544-0.949-2.376-2.852-2.376C106.852,17.117,106.258,17.236,106.258,17.236z"/>
			</g>
		</g>
		<g>
			<g>
				<path fill="#F47934" d="M136.783,15.099c0.713,0.236,1.188,0.476,1.424,0.714c0.238,0.235,0.355,0.83,0.355,1.544
					c0,1.662,0,4.155,0,7.362c0,3.207,0,5.465,0,6.651l-0.117,4.751v0.477c2.258,0,3.563,0.117,4.156,0.355
					c0.594,0.236,0.832,0.949,0.832,2.02l-0.119,1.899c0,0.595-0.832,0.95-2.375,0.95c-0.594,0-1.189-0.118-1.664-0.237
					c-0.476-0.118-0.713-0.476-0.713-0.713l-0.117-1.544h-16.393c-0.119,0.713-0.119,1.188-0.119,1.544s-0.236,0.595-0.713,0.713
					c-0.476,0.119-0.949,0.237-1.662,0.237c-0.595,0-1.188-0.118-1.662-0.237c-0.478-0.235-0.713-0.476-0.713-0.831
					c0,0,0-0.236-0.119-0.713s-0.119-0.831-0.119-1.068c0-1.066,0.357-1.779,1.068-2.02c0.477-0.238,1.899-0.355,4.274-0.355
					c0.713-2.611,1.31-5.818,1.899-9.857c0.594-4.038,0.832-7.245,0.832-9.621v-0.354c0-0.596,0.236-1.068,0.83-1.427
					c0.594-0.355,1.31-0.594,2.377-0.594C133.457,14.861,136.309,14.979,136.783,15.099z M130.488,17.83
					c0,5.82-0.949,12.115-2.613,18.886h5.227c0.119-5.226,0.238-11.521,0.238-19.004h-0.238c-0.117,0-0.475,0-1.065,0
					C131.438,17.83,130.963,17.83,130.488,17.83z"/>
			</g>
		</g>
		<g>
			<g>
				<path fill="#F47934" d="M165.408,37.311c0,0.117,0.117,0.236,0.117,0.477c0,1.068-1.188,1.663-3.563,1.781
					c-1.067,0-1.662-0.355-1.899-1.188l-1.543-7.008c-0.595,0-1.426,0-2.73,0c-1.307,0-2.141,0-2.613,0l-0.355,1.308
					c-0.829,3.325-1.426,5.346-1.78,5.938c-0.235,0.119-0.832,0.354-1.781,0.476c-0.829,0.237-1.426,0.356-1.78,0.356
					c-1.188,0-1.781-0.479-1.781-1.309c0-0.235,0.119-0.595,0.236-0.832l1.426-4.75c2.139-7.481,3.684-12.354,4.396-14.491
					l0.238-0.477c0.116-0.476,0.354-0.831,0.475-1.188c0.121-0.357,0.354-0.596,0.714-1.069c0.354-0.355,0.832-0.594,1.426-0.831
					c0.596-0.237,1.426-0.237,2.375-0.237c0.713,0,1.428,0.118,1.899,0.355c0.478,0.237,0.949,0.594,1.188,0.95
					c0.238,0.476,0.479,0.832,0.596,1.188c0.119,0.355,0.236,0.712,0.355,1.308c0.237,1.067,0.713,3.207,1.426,6.059
					c0.713,2.969,1.188,5.228,1.662,6.89L165.408,37.311z M156.383,19.493c-0.119,0.355-0.357,1.188-0.596,2.376
					c-0.236,1.188-0.477,1.899-0.477,2.138l-1.188,4.634c0.354,0,1.067,0,1.897,0c0.832,0,1.545,0,2.021,0L156.383,19.493z"/>
			</g>
		</g>
	</g>
</g>
</svg>
