<?xml version="1.0" encoding="utf-8"?>
<!-- Generator: Adobe Illustrator 16.0.0, SVG Export Plug-In . SVG Version: 6.00 Build 0)  -->
<!DOCTYPE svg PUBLIC "-//W3C//DTD SVG 1.1//EN" "http://www.w3.org/Graphics/SVG/1.1/DTD/svg11.dtd">
<svg version="1.1" id="Layer_1" xmlns="http://www.w3.org/2000/svg" xmlns:xlink="http://www.w3.org/1999/xlink" x="0px" y="0px"
	 width="197.625px" height="55.667px" viewBox="0 0 197.625 55.667" enable-background="new 0 0 197.625 55.667"
	 xml:space="preserve">
<g>
	<path fill="#FFFFFF" d="M196.305,39.263c0,7.246-5.82,13.066-13.064,13.066H16.709c-7.244,0-13.064-5.82-13.064-13.066V13.845
		c0-7.244,5.82-13.064,13.064-13.064h166.646c7.246,0,13.066,5.82,13.066,13.064v25.418H196.305z"/>
	<g>
		<path fill="#046938" d="M181.932,54.888H15.283c-7.766,0-14.082-6.314-14.082-14.08v-25.42c0-7.764,6.316-14.08,14.082-14.08
			H181.93c7.766,0,14.082,6.316,14.082,14.08v25.42C196.014,48.572,189.697,54.888,181.932,54.888z M15.283,3.339
			c-6.645,0-12.049,5.404-12.049,12.049v25.42c0,6.645,5.404,12.051,12.049,12.051H181.93c6.646,0,12.051-5.406,12.051-12.051
			v-25.42c0-6.645-5.404-12.049-12.051-12.049H15.283z M181.932,49.425H15.283c-4.752,0-8.617-3.865-8.617-8.617v-25.42
			c0-4.752,3.865-8.617,8.617-8.617H181.93c4.752,0,8.617,3.865,8.617,8.617v25.42C190.549,45.56,186.684,49.425,181.932,49.425z
			 M15.283,8.802c-3.568,0-6.584,3.018-6.584,6.586v25.418c0,3.57,3.016,6.588,6.584,6.588H181.93c3.568,0,6.586-3.018,6.586-6.588
			V15.388c0-3.568-3.018-6.586-6.586-6.586H15.283L15.283,8.802z"/>
	</g>
	<g>
		<g>
			<g>
				<g>
					<g id="SVGID_5_">
						<path fill="#2C9942" d="M183.355,0.779H16.709c-7.244,0-13.064,5.82-13.064,13.064v25.42c0,7.244,5.82,13.064,13.064,13.064
							h166.646c7.246,0,13.066-5.82,13.066-13.064v-25.42C196.305,6.599,190.482,0.779,183.355,0.779z M190.959,39.263
							c0,4.158-3.443,7.604-7.604,7.604H16.709c-4.156,0-7.602-3.443-7.602-7.604V13.845c0-4.156,3.443-7.602,7.602-7.602h166.646
							c4.158,0,7.604,3.443,7.604,7.602V39.263L190.959,39.263z"/>
					</g>
				</g>
				<g>
					<g>
						<polygon fill="#CEE3CE" points="74.873,6.244 76.238,6.244 81.697,0.779 80.334,0.779 						"/>
					</g>
					<g>
						<polygon fill="#CEE3CE" points="86.82,6.244 88.184,6.244 93.648,0.779 92.283,0.779 						"/>
					</g>
					<g>
						<polygon fill="#CEE3CE" points="80.881,6.244 82.246,6.244 87.709,0.779 86.346,0.779 						"/>
					</g>
					<g>
						<polygon fill="#CEE3CE" points="92.76,6.244 94.123,6.244 99.588,0.779 98.223,0.779 						"/>
					</g>
					<g>
						<polygon fill="#CEE3CE" points="110.574,6.244 111.939,6.244 117.402,0.779 116.039,0.779 						"/>
					</g>
					<g>
						<polygon fill="#CEE3CE" points="98.697,6.244 100.061,6.244 105.525,0.779 104.16,0.779 						"/>
					</g>
					<g>
						<polygon fill="#CEE3CE" points="116.516,6.244 117.879,6.244 123.344,0.779 121.979,0.779 						"/>
					</g>
					<g>
						<polygon fill="#CEE3CE" points="104.637,6.244 106,6.244 111.465,0.779 110.102,0.779 						"/>
					</g>
					<g>
						<polygon fill="#CEE3CE" points="39.189,6.244 40.555,6.244 46.018,0.779 44.654,0.779 						"/>
					</g>
					<g>
						<polygon fill="#CEE3CE" points="33.25,6.244 34.615,6.244 40.078,0.779 38.715,0.779 						"/>
					</g>
					<g>
						<polygon fill="#CEE3CE" points="122.506,6.244 123.869,6.244 129.328,0.779 127.967,0.779 						"/>
					</g>
					<g>
						<polygon fill="#CEE3CE" points="27.313,6.244 28.676,6.244 34.141,0.779 32.775,0.779 						"/>
					</g>
					<g>
						<polygon fill="#CEE3CE" points="21.373,6.244 22.738,6.244 28.201,0.779 26.836,0.779 						"/>
					</g>
					<g>
						<polygon fill="#CEE3CE" points="62.996,6.244 64.359,6.244 69.822,0.779 68.457,0.779 						"/>
					</g>
					<g>
						<polygon fill="#CEE3CE" points="68.936,6.244 70.299,6.244 75.76,0.779 74.396,0.779 						"/>
					</g>
					<g>
						<path fill="#CEE3CE" d="M15.295,6.382c0.459-0.088,0.932-0.139,1.414-0.139h0.09l5.465-5.465h-1.365L15.295,6.382z"/>
					</g>
					<g>
						<polygon fill="#CEE3CE" points="51.117,6.244 52.482,6.244 57.941,0.779 56.578,0.779 						"/>
					</g>
					<g>
						<polygon fill="#CEE3CE" points="57.059,6.244 58.422,6.244 63.883,0.779 62.518,0.779 						"/>
					</g>
					<g>
						<path fill="#CEE3CE" d="M190.959,15.121v1.363l5.178-5.18c-0.076-0.369-0.174-0.729-0.279-1.086L190.959,15.121z"/>
					</g>
					<g>
						<path fill="#CEE3CE" d="M181.963,6.244h1.361l4.607-4.609c-0.334-0.127-0.672-0.242-1.02-0.344L181.963,6.244z"/>
					</g>
					<g>
						<polygon fill="#CEE3CE" points="190.959,21.062 190.959,22.427 196.424,16.958 196.424,15.595 						"/>
					</g>
					<g>
						<path fill="#CEE3CE" d="M186.971,7.173c0.289,0.16,0.563,0.344,0.828,0.537l3.879-3.879c-0.248-0.209-0.508-0.402-0.771-0.592
							L186.971,7.173z"/>
					</g>
					<g>
						<path fill="#CEE3CE" d="M189.961,10.121c0.17,0.295,0.316,0.604,0.445,0.918l4.016-4.014
							c-0.174-0.279-0.355-0.553-0.547-0.818L189.961,10.121z"/>
					</g>
					<g>
						<path fill="#CEE3CE" d="M16.303,0.8c-0.506,0.018-1.006,0.063-1.496,0.133l-11.01,11.01c-0.07,0.49-0.115,0.986-0.133,1.496
							L16.303,0.8z"/>
					</g>
					<g>
						<polygon fill="#CEE3CE" points="128.443,6.244 129.809,6.244 135.268,0.779 133.904,0.779 						"/>
					</g>
					<g>
						<polygon fill="#CEE3CE" points="190.959,27.005 190.959,28.369 196.424,22.902 196.424,21.537 						"/>
					</g>
					<g>
						<polygon fill="#CEE3CE" points="190.959,32.947 190.959,34.312 196.424,28.845 196.424,27.48 						"/>
					</g>
					<g>
						<path fill="#CEE3CE" d="M190.959,38.89v0.373c0,0.365-0.035,0.727-0.088,1.078l5.553-5.555v-1.365L190.959,38.89z"/>
					</g>
					<g>
						<polygon fill="#CEE3CE" points="176.021,6.244 177.389,6.244 182.852,0.779 181.488,0.779 						"/>
					</g>
					<g>
						<polygon fill="#CEE3CE" points="146.262,6.244 147.623,6.244 153.086,0.779 151.721,0.779 						"/>
					</g>
					<g>
						<polygon fill="#CEE3CE" points="140.322,6.244 141.686,6.244 147.145,0.779 145.781,0.779 						"/>
					</g>
					<g>
						<polygon fill="#CEE3CE" points="134.383,6.244 135.746,6.244 141.207,0.779 139.844,0.779 						"/>
					</g>
					<g>
						<polygon fill="#CEE3CE" points="152.199,6.244 153.563,6.244 159.023,0.779 157.66,0.779 						"/>
					</g>
					<g>
						<polygon fill="#CEE3CE" points="170.082,6.244 171.447,6.244 176.91,0.779 175.549,0.779 						"/>
					</g>
					<g>
						<polygon fill="#CEE3CE" points="158.205,6.244 159.57,6.244 165.033,0.779 163.67,0.779 						"/>
					</g>
					<g>
						<polygon fill="#CEE3CE" points="164.145,6.244 165.51,6.244 170.975,0.779 169.607,0.779 						"/>
					</g>
					<g>
						<polygon fill="#CEE3CE" points="45.18,6.244 46.543,6.244 52.004,0.779 50.641,0.779 						"/>
					</g>
					<g>
						<polygon fill="#CEE3CE" points="89.209,46.865 87.848,46.865 82.387,52.33 83.75,52.33 						"/>
					</g>
					<g>
						<polygon fill="#CEE3CE" points="118.947,46.865 117.584,46.865 112.119,52.33 113.484,52.33 						"/>
					</g>
					<g>
						<polygon fill="#CEE3CE" points="130.824,46.865 129.463,46.865 123.996,52.33 125.363,52.33 						"/>
					</g>
					<g>
						<polygon fill="#CEE3CE" points="136.766,46.865 135.4,46.865 129.936,52.33 131.303,52.33 						"/>
					</g>
					<g>
						<polygon fill="#CEE3CE" points="124.889,46.865 123.521,46.865 118.061,52.33 119.424,52.33 						"/>
					</g>
					<g>
						<polygon fill="#CEE3CE" points="101.09,46.865 99.725,46.865 94.264,52.33 95.629,52.33 						"/>
					</g>
					<g>
						<polygon fill="#CEE3CE" points="95.15,46.865 93.785,46.865 88.326,52.33 89.689,52.33 						"/>
					</g>
					<g>
						<polygon fill="#CEE3CE" points="112.967,46.865 111.602,46.865 106.143,52.33 107.506,52.33 						"/>
					</g>
					<g>
						<polygon fill="#CEE3CE" points="107.027,46.865 105.662,46.865 100.203,52.33 101.566,52.33 						"/>
					</g>
					<g>
						<polygon fill="#CEE3CE" points="142.703,46.865 141.34,46.865 135.875,52.33 137.24,52.33 						"/>
					</g>
					<g>
						<polygon fill="#CEE3CE" points="172.475,46.865 171.111,46.865 165.65,52.33 167.014,52.33 						"/>
					</g>
					<g>
						<polygon fill="#CEE3CE" points="178.412,46.865 177.051,46.865 171.59,52.33 172.953,52.33 						"/>
					</g>
					<g>
						<path fill="#CEE3CE" d="M184.439,46.777c-0.354,0.053-0.715,0.088-1.084,0.088h-0.365l-5.461,5.465h1.361L184.439,46.777z"/>
					</g>
					<g>
						<path fill="#CEE3CE" d="M196.322,40.832c0.057-0.48,0.092-0.967,0.096-1.461l-12.943,12.953
							c0.494-0.004,0.98-0.041,1.461-0.098L196.322,40.832z"/>
					</g>
					<g>
						<polygon fill="#CEE3CE" points="166.535,46.865 165.172,46.865 159.711,52.33 161.074,52.33 						"/>
					</g>
					<g>
						<polygon fill="#CEE3CE" points="148.645,46.865 147.277,46.865 141.814,52.33 143.18,52.33 						"/>
					</g>
					<g>
						<polygon fill="#CEE3CE" points="154.58,46.865 153.219,46.865 147.754,52.33 149.117,52.33 						"/>
					</g>
					<g>
						<polygon fill="#CEE3CE" points="160.598,46.865 159.232,46.865 153.771,52.33 155.137,52.33 						"/>
					</g>
					<g>
						<polygon fill="#CEE3CE" points="53.5,46.865 52.137,46.865 46.674,52.33 48.037,52.33 						"/>
					</g>
					<g>
						<polygon fill="#CEE3CE" points="83.271,46.865 81.908,46.865 76.447,52.33 77.811,52.33 						"/>
					</g>
					<g>
						<polygon fill="#CEE3CE" points="29.703,46.865 28.34,46.865 22.879,52.33 24.242,52.33 						"/>
					</g>
					<g>
						<path fill="#CEE3CE" d="M12.922,45.828c-0.283-0.166-0.555-0.35-0.814-0.549l-3.904,3.906
							c0.246,0.213,0.502,0.408,0.764,0.602L12.922,45.828z"/>
					</g>
					<g>
						<polygon fill="#CEE3CE" points="23.764,46.865 22.4,46.865 16.939,52.33 18.303,52.33 						"/>
					</g>
					<g>
						<path fill="#CEE3CE" d="M10.004,42.804c-0.162-0.303-0.301-0.619-0.42-0.941L5.49,45.958c0.168,0.283,0.344,0.563,0.531,0.832
							L10.004,42.804z"/>
					</g>
					<g>
						<polygon fill="#CEE3CE" points="9.107,25.812 9.107,24.447 3.645,29.91 3.645,31.275 						"/>
					</g>
					<g>
						<path fill="#CEE3CE" d="M9.107,37.689v-1.365l-5.25,5.25c0.068,0.379,0.152,0.748,0.25,1.113L9.107,37.689z"/>
					</g>
					<g>
						<polygon fill="#CEE3CE" points="9.107,19.871 9.107,18.507 3.645,23.97 3.645,25.335 						"/>
					</g>
					<g>
						<polygon fill="#CEE3CE" points="9.107,31.75 9.107,30.384 3.645,35.849 3.645,37.212 						"/>
					</g>
					<g>
						<path fill="#CEE3CE" d="M17.824,46.865h-1.113c-0.08,0-0.158-0.01-0.238-0.012l-4.561,4.563
							c0.332,0.131,0.666,0.254,1.01,0.355L17.824,46.865z"/>
					</g>
					<g>
						<polygon fill="#CEE3CE" points="59.439,46.865 58.076,46.865 52.613,52.33 53.977,52.33 						"/>
					</g>
					<g>
						<polygon fill="#CEE3CE" points="65.379,46.865 64.016,46.865 58.551,52.33 59.914,52.33 						"/>
					</g>
					<g>
						<polygon fill="#CEE3CE" points="71.318,46.865 69.953,46.865 64.49,52.33 65.854,52.33 						"/>
					</g>
					<g>
						<polygon fill="#CEE3CE" points="77.258,46.865 75.893,46.865 70.43,52.33 71.793,52.33 						"/>
					</g>
					<g>
						<polygon fill="#CEE3CE" points="47.563,46.865 46.197,46.865 40.734,52.33 42.098,52.33 						"/>
					</g>
					<g>
						<path fill="#CEE3CE" d="M9.107,13.933v-0.09c0-0.48,0.053-0.955,0.141-1.416l-5.604,5.605v1.365L9.107,13.933z"/>
					</g>
					<g>
						<polygon fill="#CEE3CE" points="41.623,46.865 40.26,46.865 34.795,52.33 36.16,52.33 						"/>
					</g>
					<g>
						<polygon fill="#CEE3CE" points="35.641,46.865 34.277,46.865 28.816,52.33 30.182,52.33 						"/>
					</g>
				</g>
			</g>
		</g>
	</g>
	<path fill="#CEE3CE" d="M163.484,37.9c-0.313-2.092-0.885-4.123-1.389-6.24c-1.068-4.75-1.543-11.164-3.801-15.439
		c-1.781-3.326-5.939-4.156-9.385-2.971c-2.611,0.951-3.684,2.852-4.633,5.346c-2.02,5.229-3.324,10.689-4.869,16.035
		c-0.109,0.367-0.236,0.754-0.367,1.15c-0.652-0.268-1.371-0.418-2.109-0.506c0.023-5.551,0.102-11.154,0.102-16.68
		c-0.047-0.684-0.313-1.227-0.703-1.637c-0.783-2.102-2.361-3.094-4.996-3.471c-3.09-0.357-8.672-0.951-11.404,0.832
		c-2.375,1.543-2.137,4.156-2.256,6.648c-0.156,3.578-0.621,7.203-1.287,10.781c-0.299-2.197-1.232-4.164-2.953-5.666
		c1.389-3.086,1.555-6.883-0.393-9.627c-2.971-4.158-10.098-4.158-14.49-2.971c-3.92,1.068-5.465,3.326-5.465,7.127
		c-0.047,1.797-0.07,3.592-0.096,5.389c-0.604-3.475-1.318-7.063-2.756-9.783c-1.781-3.326-5.938-4.156-9.385-2.971
		c-2.57,0.936-3.646,2.793-4.584,5.227c-0.264-0.814-0.656-1.58-1.234-2.256c-2.141-2.568-5.729-3.016-8.939-3.164
		c-0.309-0.107-0.648-0.174-1.037-0.16c-3.799,0.096-8.346,0.576-10.266,3.676c-0.855-2.354-2.885-3.248-5.771-3.439
		c-3.801-0.236-8.67-0.713-12.471,0.119c-6.652,1.543-4.396,11.996-4.516,16.984c0,5.465-2.139,15.322,6.771,13.541
		c3.682-0.713,4.514-2.852,4.514-6.178c0-5.236,0.09-10.488,0.188-15.797c0.088,0,0.176,0,0.264,0
		c-0.031,3.721-0.096,7.477-0.096,11.164c0,2.854-1.068,7.723,1.307,9.859c2.73,2.34,7.291,1.396,9.172-1.377
		c0.566,1.404,1.732,2.402,4.135,2.566c6.291,0.395,6.805-4.34,6.795-9.014c2.512-0.107,4.773-0.566,6.611-1.582
		c-0.113,0.404-0.227,0.809-0.342,1.209c-0.713,2.377-2.139,5.465-0.119,7.604c1.781,2.02,6.059,1.545,8.195,0.236
		c2.223-1.297,2.785-4.326,3.318-7.006c0.244,0,0.488,0,0.732,0c0.34,2.348,0.693,5.039,2.125,6.65
		c2.17,2.35,6.119,1.943,8.41-0.055c0.15,0.184,0.313,0.361,0.5,0.529c2.494,2.256,7.602,1.543,10.809,1.426
		c1.656-0.041,3.27-0.252,4.732-0.711c0.105,0.303,0.227,0.588,0.373,0.828c1.188,1.9,3.443,2.258,5.465,2.021
		c2.127-0.23,3.277-1.096,3.895-2.494c4.072,0,8.146,0,12.217,0c1.77,2.859,5.744,4.102,8.596,1.068
		c0.332-0.359,0.594-0.818,0.799-1.322c2.01,0.49,4.582-0.014,6.09-0.936c2.225-1.297,2.785-4.328,3.318-7.008
		c0.244,0,0.488,0,0.732,0c0.342,2.348,0.693,5.039,2.127,6.652c2.473,2.678,7.262,1.777,9.266-0.984
		c0.4-0.344,0.678-0.828,0.729-1.471C163.861,38.984,163.766,38.39,163.484,37.9z M104.131,31.632
		c0.156,0.01,0.318,0.012,0.473,0.029c0.391,0.098,0.695,0.35,0.662,0.176c0.125,0.359,0.051,0.859,0.051,1.369
		c0,1.068,0.357,2.02-0.832,2.258c-0.117,0.012-0.236,0.014-0.354,0.021C104.131,34.191,104.131,32.91,104.131,31.632z
		 M65.291,21.349c0.064,0.014,0.117,0.029,0.16,0.049c0.162,0.611,0.076,1.549,0.076,2.305c0,0.979,0.229,1.951-0.352,2.465
		C65.178,24.546,65.229,22.939,65.291,21.349z M65.527,21.437C65.619,21.501,65.6,21.541,65.527,21.437L65.527,21.437z"/>
	<g>
		<g>
			<path fill="#024C3A" d="M53.057,14.914c0.713,0.238,1.188,0.477,1.426,0.832s0.355,0.83,0.355,1.543
				c0,4.277,0,9.027-0.117,14.373c0,0.594,0,1.426,0,2.73c0,1.189,0,1.9,0,2.021v2.137c0,0.119-0.119,0.238-0.238,0.477
				c-0.117,0.238-0.475,0.355-0.949,0.596c-0.477,0.236-1.068,0.355-1.781,0.355c-1.188,0-1.9-0.119-2.258-0.355
				c-0.355-0.238-0.477-0.713-0.477-1.309V37.72c0-0.119,0-0.236,0-0.355s0-0.238,0-0.355c0.119-5.105,0.238-11.402,0.238-19.125
				h-5.939c0,4.158,0,8.791-0.117,13.898c0,0.594,0,1.426,0,2.73c0,1.189,0,1.9,0,2.02v2.139c0,0.119-0.119,0.238-0.355,0.477
				c-0.238,0.236-0.596,0.355-1.068,0.594c-0.477,0.238-1.068,0.355-1.781,0.355c-0.596,0-1.188,0-1.545-0.117
				c-0.355-0.119-0.594-0.238-0.832-0.355c-0.117-0.119-0.234-0.355-0.234-0.477s-0.119-0.355-0.119-0.594v-0.596
				c0-0.119,0-0.236,0-0.355c0-0.236,0-0.355,0-0.355C37.383,32.021,37.5,25.49,37.5,17.412v-0.713c0-0.594,0.236-1.068,0.832-1.424
				c0.594-0.357,1.426-0.596,2.492-0.596C48.543,14.675,52.58,14.675,53.057,14.914z"/>
		</g>
		<g>
			<path fill="#024C3A" d="M59.232,17.289c0.596-1.898,3.445-2.73,8.314-2.73c3.801,0,6.295,0.713,7.721,2.139
				c0.713,0.713,1.068,2.02,1.068,4.039c0,3.324-0.355,5.701-1.068,6.889c-1.188,2.258-3.684,3.445-7.363,3.445
				c-1.426,0-2.613,0-3.326-0.119c0,1.307,0,2.494,0,3.563v1.189v2.375c0,0.236-0.236,0.594-0.832,1.188
				c-0.594,0.477-1.424,0.83-2.375,0.83c-0.949,0-1.543-0.117-1.898-0.234c-0.355-0.119-0.594-0.479-0.594-0.951L59.232,17.289z
				 M65.053,17.289c-0.117,3.09-0.236,5.701-0.236,7.721c0,0.119,0,0.596,0,1.545s0,1.428,0,1.428h2.375
				c1.189,0,2.139-0.357,2.732-1.07c0.592-0.713,0.949-1.543,0.949-2.494c0-0.119,0-0.475,0-1.068s0-1.066,0-1.426v-1.307
				c0-1.188-0.355-2.139-0.949-2.732c-0.596-0.594-1.664-0.949-3.326-0.949C65.529,17.289,65.053,17.289,65.053,17.289z"/>
		</g>
		<g>
			<path fill="#024C3A" d="M95.223,37.482c0,0.117,0.119,0.236,0.119,0.475c0,1.068-1.188,1.664-3.563,1.781
				c-1.068,0-1.662-0.355-1.898-1.188l-1.545-7.008c-0.594,0-1.426,0-2.732,0c-1.305,0-2.137,0-2.611,0l-0.355,1.307
				c-0.832,3.324-1.426,5.346-1.781,5.939c-0.236,0.119-0.832,0.355-1.781,0.477c-0.832,0.236-1.426,0.355-1.781,0.355
				c-1.188,0-1.781-0.477-1.781-1.309c0-0.236,0.119-0.594,0.236-0.83l1.428-4.752c2.137-7.482,3.682-12.354,4.395-14.49
				l0.236-0.477c0.119-0.477,0.355-0.832,0.477-1.188c0.117-0.355,0.355-0.594,0.713-1.068c0.355-0.354,0.83-0.594,1.426-0.832
				c0.594-0.234,1.426-0.234,2.377-0.234c0.713,0,1.424,0.117,1.898,0.354c0.477,0.238,0.949,0.596,1.188,0.951
				c0.236,0.477,0.477,0.83,0.594,1.188c0.119,0.355,0.238,0.713,0.355,1.307c0.236,1.068,0.715,3.207,1.428,6.059
				c0.711,2.971,1.188,5.229,1.662,6.891L95.223,37.482z M86.195,19.546c-0.117,0.355-0.354,1.188-0.594,2.375
				c-0.236,1.189-0.477,1.9-0.477,2.139l-1.188,4.635c0.357,0,1.07,0,1.902,0c0.83,0,1.543,0,2.018,0L86.195,19.546z"/>
		</g>
		<g>
			<path fill="#024C3A" d="M113.99,20.378c0,2.256-0.715,4.037-2.021,5.227c0.594,0.236,1.188,0.594,1.9,1.068
				c1.307,0.949,2.02,2.375,2.02,4.396c0,1.188,0,2.139-0.119,2.969c-0.117,0.713-0.236,1.545-0.594,2.377
				c-0.355,0.83-0.713,1.424-1.307,1.9c-0.596,0.475-1.309,0.83-2.377,1.066c-1.066,0.238-2.256,0.477-3.801,0.477h-7.127
				c-0.354,0-0.83-0.119-1.188-0.236c-0.949-0.355-1.426-0.951-1.426-1.664l0.355-20.549c0.238-0.594,0.594-1.068,1.188-1.543
				c0.596-0.357,1.309-0.713,2.258-0.832s1.662-0.238,2.375-0.357c0.713,0,1.545-0.117,2.494-0.117c2.971,0,4.869,0.477,5.939,1.545
				C113.516,17.171,113.99,18.595,113.99,20.378z M103.775,27.503v9.504h3.207c1.188,0,2.139-0.355,2.73-1.068
				s0.949-1.545,0.949-2.494c0-0.119,0-0.355,0-0.594s0-0.477,0-0.596v-0.594c0-1.426-0.236-2.494-0.83-3.207
				c-0.596-0.713-1.781-1.068-3.563-1.068h-2.494V27.503L103.775,27.503z M104.133,17.289c-0.119,1.426-0.119,4.039-0.238,7.721
				c1.898,0,3.088-0.117,3.563-0.354c0.832-0.477,1.188-1.9,1.188-4.158v-0.83c0-1.545-0.949-2.377-2.852-2.377
				C104.605,17.289,104.133,17.289,104.133,17.289z"/>
		</g>
		<g>
			<path fill="#024C3A" d="M134.656,15.271c0.713,0.236,1.189,0.475,1.426,0.713c0.236,0.236,0.355,0.832,0.355,1.545
				c0,1.662,0,4.156,0,7.363s0,5.465,0,6.65l-0.119,4.75v0.477c2.258,0,3.564,0.119,4.158,0.355c0.594,0.238,0.832,0.949,0.832,2.02
				l-0.119,1.9c0,0.594-0.832,0.949-2.377,0.949c-0.594,0-1.188-0.117-1.662-0.236s-0.713-0.477-0.713-0.713l-0.119-1.545h-16.391
				c-0.119,0.713-0.119,1.188-0.119,1.545c0,0.355-0.238,0.594-0.713,0.713c-0.477,0.119-0.949,0.236-1.662,0.236
				c-0.596,0-1.189-0.117-1.664-0.236c-0.475-0.236-0.713-0.477-0.713-0.832c0,0,0-0.236-0.117-0.713
				c-0.119-0.475-0.119-0.832-0.119-1.068c0-1.068,0.355-1.779,1.068-2.02c0.475-0.236,1.9-0.355,4.275-0.355
				c0.713-2.611,1.307-5.818,1.9-9.857s0.83-7.246,0.83-9.621v-0.355c0-0.594,0.236-1.068,0.832-1.426
				c0.594-0.355,1.307-0.594,2.375-0.594C131.332,15.033,134.184,15.152,134.656,15.271z M128.363,18.001
				c0,5.82-0.951,12.115-2.613,18.887h5.227c0.119-5.227,0.238-11.521,0.238-19.006h-0.238c-0.119,0-0.477,0-1.068,0
				C129.313,18.001,128.719,18.001,128.363,18.001z"/>
		</g>
		<g>
			<path fill="#024C3A" d="M163.283,37.482c0,0.117,0.117,0.236,0.117,0.475c0,1.068-1.188,1.664-3.563,1.781
				c-1.068,0-1.662-0.355-1.9-1.188l-1.543-7.008c-0.596,0-1.426,0-2.732,0s-2.139,0-2.611,0l-0.357,1.307
				c-0.83,3.324-1.424,5.346-1.779,5.939c-0.236,0.119-0.832,0.355-1.781,0.477c-0.832,0.236-1.426,0.355-1.781,0.355
				c-1.189,0-1.781-0.477-1.781-1.309c0-0.236,0.117-0.594,0.236-0.83l1.426-4.752c2.139-7.482,3.684-12.354,4.395-14.49
				l0.238-0.477c0.117-0.477,0.355-0.832,0.477-1.188c0.117-0.355,0.354-0.594,0.711-1.068c0.355-0.354,0.832-0.594,1.426-0.832
				c0.594-0.234,1.426-0.234,2.377-0.234c0.711,0,1.424,0.117,1.9,0.354c0.475,0.238,0.949,0.596,1.188,0.951
				c0.236,0.477,0.475,0.83,0.594,1.188c0.119,0.355,0.236,0.713,0.355,1.307c0.236,1.068,0.713,3.207,1.426,6.059
				c0.713,2.971,1.188,5.229,1.662,6.891L163.283,37.482z M154.256,19.546c-0.117,0.355-0.355,1.188-0.594,2.375
				c-0.238,1.189-0.477,1.9-0.477,2.139l-1.189,4.635c0.355,0,1.068,0,1.9,0s1.545,0,2.02,0L154.256,19.546z"/>
		</g>
	</g>
	<g>
		<g>
			<path fill="#2C9942" d="M55.432,14.201c0.713,0.236,1.188,0.475,1.426,0.832c0.238,0.354,0.357,0.832,0.357,1.543
				c0,4.275,0,9.027-0.119,14.373c0,0.594,0,1.426,0,2.73c0,1.188,0,1.9,0,2.021v2.137c0,0.119-0.119,0.238-0.238,0.479
				c-0.117,0.234-0.475,0.354-0.949,0.594c-0.477,0.236-1.068,0.354-1.781,0.354c-1.188,0-1.9-0.117-2.258-0.354
				c-0.354-0.238-0.475-0.713-0.475-1.309v-0.594c0-0.119,0-0.238,0-0.355c0-0.119,0-0.236,0-0.355
				c0.119-5.105,0.236-11.402,0.236-19.123h-5.938c0,4.156,0,8.789-0.119,13.896c0,0.594,0,1.426,0,2.73c0,1.188,0,1.9,0,2.02v2.139
				c0,0.119-0.119,0.238-0.355,0.477c-0.236,0.236-0.594,0.355-1.068,0.594s-1.068,0.355-1.781,0.355c-0.594,0-1.188,0-1.543-0.117
				c-0.355-0.119-0.596-0.238-0.832-0.355c-0.119-0.119-0.236-0.357-0.236-0.477c0-0.117-0.119-0.355-0.119-0.596v-0.594
				c0-0.119,0-0.236,0-0.355c0-0.236,0-0.355,0-0.355c0.119-5.227,0.236-11.758,0.236-19.836v-0.355
				c0-0.594,0.236-1.066,0.832-1.426c0.594-0.355,1.426-0.594,2.494-0.594C50.918,13.964,54.957,14.082,55.432,14.201z"/>
		</g>
		<g>
			<path fill="#2C9942" d="M61.727,16.576c0.596-1.9,3.445-2.73,8.314-2.73c3.801,0,6.295,0.713,7.721,2.139
				c0.713,0.713,1.068,2.02,1.068,4.039c0,3.324-0.355,5.701-1.068,6.889c-1.188,2.258-3.684,3.445-7.363,3.445
				c-1.426,0-2.613,0-3.326-0.119c0,1.307,0,2.494,0,3.563v1.189v2.375c0,0.236-0.236,0.594-0.83,1.188
				c-0.596,0.477-1.428,0.832-2.377,0.832s-1.543-0.117-1.898-0.236c-0.357-0.119-0.596-0.477-0.596-0.949L61.727,16.576z
				 M67.43,16.695c-0.119,3.088-0.238,5.701-0.238,7.721c0,0.119,0,0.594,0,1.545c0,0.949,0,1.426,0,1.426h2.375
				c1.189,0,2.141-0.355,2.732-1.068s0.949-1.543,0.949-2.494c0-0.119,0-0.477,0-1.068c0-0.594,0-1.066,0-1.426v-1.307
				c0-1.188-0.355-2.141-0.949-2.732s-1.662-0.949-3.326-0.949C68.021,16.576,67.43,16.576,67.43,16.695z"/>
		</g>
		<g>
			<path fill="#2C9942" d="M97.6,36.769c0,0.117,0.119,0.236,0.119,0.477c0,1.068-1.189,1.662-3.564,1.781
				c-1.068,0-1.662-0.355-1.9-1.189l-1.545-7.008c-0.594,0-1.424,0-2.73,0c-1.305,0-2.137,0-2.611,0l-0.355,1.307
				c-0.832,3.326-1.426,5.348-1.781,5.939c-0.238,0.119-0.832,0.354-1.783,0.475c-0.83,0.238-1.424,0.357-1.779,0.357
				c-1.188,0-1.781-0.479-1.781-1.309c0-0.236,0.119-0.594,0.236-0.832l1.426-4.75c2.139-7.482,3.684-12.354,4.395-14.49
				l0.238-0.477c0.119-0.477,0.355-0.832,0.477-1.188c0.117-0.357,0.355-0.596,0.713-1.07c0.355-0.355,0.832-0.594,1.426-0.83
				c0.594-0.238,1.426-0.238,2.375-0.238c0.713,0,1.426,0.119,1.898,0.355c0.479,0.238,0.951,0.594,1.189,0.951
				c0.236,0.475,0.475,0.832,0.594,1.188c0.117,0.355,0.236,0.711,0.355,1.307c0.236,1.068,0.713,3.207,1.426,6.059
				c0.713,2.969,1.188,5.227,1.662,6.891L97.6,36.769z M88.572,18.953c-0.119,0.355-0.355,1.188-0.596,2.375
				c-0.236,1.188-0.477,1.9-0.477,2.139l-1.188,4.633c0.355,0,1.07,0,1.9,0c0.832,0,1.545,0,2.02,0L88.572,18.953z"/>
		</g>
		<g>
			<path fill="#2C9942" d="M116.484,19.783c0,2.258-0.713,4.039-2.02,5.227c0.594,0.238,1.188,0.596,1.898,1.07
				c1.309,0.949,2.021,2.375,2.021,4.395c0,1.189,0,2.139-0.119,2.971c-0.119,0.713-0.236,1.545-0.594,2.375
				c-0.357,0.832-0.713,1.426-1.309,1.9c-0.594,0.477-1.307,0.83-2.375,1.068c-1.068,0.236-2.258,0.475-3.801,0.475h-7.127
				c-0.355,0-0.832-0.117-1.189-0.236c-0.947-0.355-1.424-0.949-1.424-1.662l0.355-20.549c0.236-0.596,0.594-1.068,1.188-1.545
				c0.594-0.355,1.307-0.713,2.256-0.83c0.951-0.119,1.664-0.238,2.377-0.357c0.713,0,1.543-0.117,2.494-0.117
				c2.971,0,4.869,0.477,5.938,1.543C115.891,16.458,116.484,17.882,116.484,19.783z M106.15,26.792v9.502h3.207
				c1.188,0,2.139-0.355,2.732-1.068s0.949-1.545,0.949-2.494c0-0.119,0-0.355,0-0.596c0-0.236,0-0.475,0-0.594v-0.594
				c0-1.426-0.238-2.494-0.832-3.207s-1.781-1.068-3.563-1.068h-2.494V26.792L106.15,26.792z M106.508,16.695
				c-0.119,1.426-0.119,4.039-0.238,7.721c1.9,0,3.088-0.119,3.563-0.355c0.832-0.475,1.189-1.898,1.189-4.156v-0.83
				c0-1.545-0.949-2.377-2.852-2.377C107.102,16.576,106.508,16.695,106.508,16.695z"/>
		</g>
		<g>
			<path fill="#2C9942" d="M137.033,14.558c0.713,0.236,1.188,0.475,1.424,0.713c0.238,0.236,0.355,0.83,0.355,1.545
				c0,1.662,0,4.154,0,7.361s0,5.465,0,6.652l-0.117,4.75v0.477c2.258,0,3.564,0.117,4.156,0.355
				c0.594,0.238,0.832,0.951,0.832,2.02l-0.119,1.9c0,0.594-0.832,0.949-2.375,0.949c-0.594,0-1.189-0.117-1.664-0.236
				s-0.713-0.475-0.713-0.713l-0.117-1.545h-16.393c-0.119,0.713-0.119,1.188-0.119,1.545c0,0.355-0.236,0.594-0.713,0.713
				c-0.475,0.119-0.949,0.236-1.662,0.236c-0.594,0-1.188-0.117-1.662-0.236c-0.477-0.236-0.713-0.475-0.713-0.832
				c0,0,0-0.236-0.119-0.713c-0.119-0.475-0.119-0.83-0.119-1.068c0-1.066,0.357-1.779,1.068-2.02
				c0.477-0.238,1.9-0.355,4.275-0.355c0.713-2.611,1.309-5.818,1.9-9.857c0.594-4.039,0.832-7.246,0.832-9.621v-0.355
				c0-0.596,0.236-1.068,0.83-1.426c0.594-0.355,1.309-0.594,2.377-0.594C133.707,14.32,136.559,14.437,137.033,14.558z
				 M130.738,17.289c0,5.82-0.949,12.115-2.613,18.887h5.227c0.119-5.227,0.238-11.521,0.238-19.004h-0.238
				c-0.117,0-0.475,0-1.066,0C131.688,17.289,131.213,17.289,130.738,17.289z"/>
		</g>
		<g>
			<path fill="#2C9942" d="M165.658,36.769c0,0.117,0.117,0.236,0.117,0.477c0,1.068-1.188,1.662-3.563,1.781
				c-1.068,0-1.662-0.355-1.9-1.189l-1.543-7.008c-0.594,0-1.426,0-2.73,0c-1.307,0-2.141,0-2.613,0l-0.355,1.307
				c-0.83,3.326-1.426,5.348-1.781,5.939c-0.236,0.119-0.832,0.354-1.781,0.475c-0.83,0.238-1.426,0.357-1.781,0.357
				c-1.188,0-1.781-0.479-1.781-1.309c0-0.236,0.119-0.594,0.236-0.832l1.426-4.75c2.139-7.482,3.684-12.354,4.396-14.49
				l0.238-0.477c0.117-0.477,0.354-0.832,0.475-1.188c0.121-0.357,0.355-0.596,0.713-1.07c0.355-0.355,0.832-0.594,1.426-0.83
				c0.596-0.238,1.426-0.238,2.375-0.238c0.713,0,1.428,0.119,1.9,0.355c0.477,0.238,0.949,0.594,1.188,0.951
				c0.238,0.475,0.479,0.832,0.596,1.188c0.119,0.355,0.236,0.711,0.355,1.307c0.238,1.068,0.713,3.207,1.426,6.059
				c0.713,2.969,1.188,5.227,1.662,6.891L165.658,36.769z M156.633,18.953c-0.119,0.355-0.357,1.188-0.596,2.375
				c-0.236,1.188-0.477,1.9-0.477,2.139l-1.188,4.633c0.355,0,1.068,0,1.898,0c0.832,0,1.545,0,2.021,0L156.633,18.953z"/>
		</g>
	</g>
</g>
</svg>
