<?xml version="1.0" encoding="utf-8"?>
<!-- Generator: Adobe Illustrator 22.1.0, SVG Export Plug-In . SVG Version: 6.00 Build 0)  -->
<svg version="1.1" id="Layer_1" xmlns="http://www.w3.org/2000/svg" xmlns:xlink="http://www.w3.org/1999/xlink" x="0px" y="0px"
	 viewBox="0 0 152.6 49.4" style="enable-background:new 0 0 152.6 49.4;" xml:space="preserve">
<style type="text/css">
	.st0{fill:#FFFFFF;}
	.st1{fill:#004B39;}
	.st2{fill:#CEE3CE;}
	.st3{fill:#2F9A41;}
</style>
<g>
	<g>
		<path class="st0" d="M147.5,20.8c-6.1-5.9-12.1-11.8-18.2-17.6c-1.7-1.7-4.7-1.3-7-1.3c-3.8,0-7.6,0-11.4,0c-24,0-63.8,0-87.8,0
			c-4.4,0-8.8,0-13.2,0C9.3,1.8,8.7,1.8,8.1,2C6,2.3,4.8,3.6,4.4,5.1C3.8,6.4,4,7.9,5.3,9.3c0,0.1,0.1,0.1,0.1,0.1c0,0,0,0,0,0
			c5,4.6,9.9,9.2,14.9,13.8c-5,4.8-9.9,9.5-14.9,14.3c-2.9,2.8-1,7.6,3.6,7.6c18,0,51.8,0,69.8,0c11.7,0,23.3,0,35,0
			c4.7,0,12.6,1.4,16.2-2c5.8-5.4,11.6-10.7,17.5-16.1C149.5,25.3,149.4,22.7,147.5,20.8z"/>
	</g>
	<g>
		<g>
			<g>
				<path class="st1" d="M149.9,22.9c-6.3-6.1-12.6-12.3-19-18.4c-1.8-1.7-4.9-1.4-7.3-1.4c-4,0-7.9,0-11.9,0c-25.1,0-66.6,0-91.7,0
					c-4.6,0-9.2,0-13.8,0C5.6,3,5,3,4.3,3.2C2.2,3.5,0.9,4.8,0.4,6.4c-0.6,1.4-0.4,3,1,4.4c0,0.1,0.1,0.1,0.2,0.2c0,0,0,0,0,0
					c5.2,4.8,10.4,9.6,15.5,14.4c-5.2,5-10.4,10-15.5,15c-3,2.9-1,7.9,3.7,7.9c18.8,0,54.1,0,72.9,0c12.2,0,24.3,0,36.5,0
					c4.9,0,13.2,1.4,17-2c6.1-5.6,12.2-11.2,18.2-16.8C152,27.5,151.9,24.8,149.9,22.9z M140.4,28.5c-4.9,4.2-9.8,8.3-14.7,12.5
					c-3,2.6-9.7,1.5-13.6,1.5c-9.8,0-21.3,0-31.1,0c-15.1,0-46.7,0-61.8,0c-3.8,0-5.4-3.7-3-5.9c4.2-3.7,8.9-8.3,8.9-11.3
					s-4.7-7-8.9-10.6c0,0,0,0,0,0c0,0-0.1-0.1-0.1-0.1c-1.1-1-1.3-2.2-0.8-3.3c0.4-1.2,1.4-2.2,3.1-2.4c0.5-0.1,1.1-0.1,1.6-0.1
					c3.7,0,7.4,0,11.1,0c20.2,0,56.8,0,77,0c3.2,0,8,0,11.2,0c1.9,0,4.4-0.3,5.9,1c5.1,4.6,10.2,9.1,15.3,13.7
					C141.9,25,142,27.1,140.4,28.5z"/>
			</g>
		</g>
	</g>
	<g>
		<path class="st2" d="M123.5,15.8c-2.3-1.8-7-0.9-9.8-0.9c-0.6,0-1,0.2-1.4,0.4c-0.4,0.2-0.8,0.5-1.2,0.9c-1.1-1-2.6-1.4-4.2-1.2
			c-1.5,0.2-2.6,0.9-3.3,1.9c-0.2-0.4-0.6-0.8-1-1.1c-2.3-1.8-7-0.9-9.8-0.9c-0.6,0-1,0.2-1.4,0.4c-1.7,0.9-3.1,2.9-1.9,4.8
			c0.8,1.2,1.7,1.6,2.8,1.8c0,0.6,0,1.2,0,1.8c-1.3-1.3-3-1.8-4.8-2c0.2-2.9,0.1-5.9-3.4-6.7c-0.4-0.1-0.8-0.1-1.2,0
			c-0.1,0-0.1,0-0.2,0c-1.5,0.2-2.3,1-2.9,2.1c-1.7-2.8-6.3-3-8.2-0.3c-0.2,0.3-0.4,0.7-0.6,1.1c-0.3-1-0.9-1.9-1.8-2.4
			c-0.4-0.4-1-0.6-1.7-0.5c0,0-0.1,0-0.1,0c-0.2,0-0.4,0-0.6,0.1c-1.1,0.3-1.9,0.8-2.4,1.6c-0.3-0.5-0.7-0.9-1.2-1.2
			c-1.6-0.9-3.8-0.5-5.2,0.8c-0.4-0.4-1-0.7-1.6-0.9c-2.4-0.9-5-0.7-6.8,0.4c-0.1-0.1-0.2-0.2-0.3-0.2c-2-1.2-5.8-0.7-7.9-0.4
			c-0.7,0.1-1.2,0.4-1.6,0.8c-1.4-0.9-3.4-1.1-5-1.2c0,0-0.1,0-0.1,0c-3.3,0.1-7.1,1.1-7.1,5c0,3.4-0.1,6.9-0.1,10.3
			c0,2.6-0.5,6.3,3.1,6.5c4.4,0.3,5-2.8,5.1-6c0.9-0.1,1.8-0.3,2.6-0.7c0,1,0,2,0,3c0,3.7,3.6,3.9,6.4,3.8c1.4,0,3.4-0.2,4.8-1
			c1.4,0.7,3,1,4.6,1c2,0,3.8-0.6,5-1.8c1.9,1.8,4.9,2.3,7.8,1.1c0.5-0.2,0.9-0.4,1.3-0.7c0.9,1,2,1.3,3.8,1
			c1.7-0.2,2.6-1.1,3.2-2.5c0.4,1.1,1,2,2.1,2.3c1.4,0.5,2.7,0.4,3.8-0.2c0.2,0.1,0.4,0.2,0.6,0.3c3.3,1,8.5,0.8,10.9-2
			c0.3,0.8,0.8,1.5,1.7,1.9c2.1,1,4.3,0.4,5.5-1.2c1.2,1.8,3.6,1.6,5.5,0.8c0.9-0.4,1.5-1.1,1.9-2c0.1,0.4,0.3,0.8,0.5,1.1
			c1.3,2.4,4.5,1.9,6.3,0.2c0.3,0.4,0.7,0.7,1.2,1c3,1.4,6.4-0.5,6.4-3.7c0-3.5,0.1-7.1,0.1-10.6c0.9-0.1,1.8-0.5,2.5-1.3
			C125.6,19,125.1,17,123.5,15.8z M52.4,26.8C52.4,26.8,52.4,26.8,52.4,26.8C52.4,26.8,52.4,26.9,52.4,26.8
			C51.7,26.9,51.7,26.8,52.4,26.8z M47.4,22.4c-0.4-0.1-0.7-0.1-1.1-0.1c0,0,0-0.1,0-0.1c0.3,0,0.6,0,0.9,0
			C47.3,22.2,47.3,22.3,47.4,22.4z M46.4,29.8c0-0.2,0-0.3,0-0.5c0.3,0,0.6,0,0.9-0.1c-0.1,0.2-0.2,0.4-0.3,0.6
			C46.8,29.8,46.6,29.8,46.4,29.8z M100.8,21.9c0.4-0.1,0.7-0.1,1.1-0.3c-0.4,1.5-0.7,3-1.1,4.5C100.8,24.7,100.8,23.3,100.8,21.9z"
			/>
		<g>
			<path class="st1" d="M34.4,16.3c1.8,0,3.3,0.3,4.3,1.4c0.6,0.7,0.6,1.9,0.6,2.6c0,1.7-0.2,3.8-0.6,4.5c-0.7,1.6-2.2,2.3-4.1,2.3
				c-0.7,0-1.6,0-1.8-0.1c0,0,0,1.3,0,2.4v0.8c0,0.9,0,1.6,0,1.6c0,0.1-0.5,1.3-1.8,1.3c-1,0-1.4-0.1-1.4-0.8l0.2-14.2
				C30.3,16.5,32.7,16.3,34.4,16.3z M32.9,23.3c0,0.8,0,1.2,0,2h1.3c1.4,0,2-1.1,2-2.3c0-0.3,0-1,0-1.6v-0.8c0-1.5-0.4-2.4-2.3-2.4
				c-0.4,0-0.9,0-0.9,0.1C32.9,20.3,32.9,21.9,32.9,23.3z"/>
			<path class="st1" d="M43.8,20.2c0,1.4,0,2,0,2.5v0.5c0,0.3,0,0.5,0,0.6h2.5c1.7,0,1.8,0.2,1.8,1.1c0,0.6-0.7,0.9-1.4,0.9h-2
				c-0.5,0-0.7,0-0.7,0.1v1.2c0,1,0,2,0,2.9l0,1.3h0.2c0.8,0,1.6-0.1,2.5-0.1c1.2,0,1.8,0.2,1.8,0.9c0,0.5-0.6,0.8-1.2,0.9
				c-1.1,0.1-2.9,0.2-4.3,0.2c-1.6,0-2.1-0.2-2.1-1.3v-1.2c0.1-2,0.1-5.6,0.1-8.1c0-1.6,0-2.8,0-3c0.1-0.8,0-1.9,0.6-2.6
				c0.3-0.3,1.3-0.4,2.4-0.4c0.3,0,0.7,0,1,0h1c1.8,0,2.4,0,2.4,1c0,0.8-0.3,1-2.4,1h-0.3l-2.1,0C43.8,18.6,43.8,20.1,43.8,20.2z"/>
			<path class="st1" d="M51.1,20.4c-0.5,0-0.9-0.2-1.3-0.4v-1.3c0-1.3,1.7-2.3,3.9-2.3c3.5,0,4.2,1.8,4.2,3.9c0,1.6-0.5,2.7-1.1,3.5
				c0.4,0.2,0.8,0.4,1.1,0.6c0.9,0.8,1.1,2.2,1.1,3c0,3.4-0.3,5.8-4.5,5.8h-0.8c-1.9,0-4-0.9-4-2.4v-1.2c0.5-0.5,0.8-0.7,1.4-0.7
				c0.4,0,1,0.2,1.5,0.5l0.1,1.2c0,0.5,0.9,0.8,1.6,0.8c1.4,0,1.9-1.3,1.9-2.5c0-0.3,0-0.6,0-0.8v-0.4c0-1.7-0.3-2.7-2.4-2.7
				l-1.8-0.1c-0.5-0.1-0.5-0.6-0.5-0.8c0-0.2,0.2-0.7,0.7-0.8l1.6,0c1.2,0,1.3-1.6,1.3-2.7v-0.7c0-1-0.1-1.7-1.1-1.7
				c-1,0-1,0.7-1.1,1.5C52.5,20.1,51.7,20.4,51.1,20.4z"/>
			<path class="st1" d="M68.2,16.5c0.5,0,1,0.2,1.2,0.8c0,0.1,0.1,0.3,0.1,0.7c0,0.1,0,0.3,0,0.4c0,0.8-0.3,10.6-0.5,11.5
				c-0.4,1.4-1.2,3.2-4.7,3.2c-0.7,0-3.8-0.2-3.8-3.4c0-1,0.5-1.2,1.6-1.2c0.9,0,1.4,0.2,1.4,2c0,0.5,0.5,0.8,1.2,0.8
				c1.1,0,1.5-1,1.5-1.8c0,0,0.1-1,0.1-2.3c-0.6,0.1-1.3,0.2-1.9,0.2c-0.7,0-1.4-0.1-1.9-0.3c-2.3-0.8-2.3-4.4-2.3-6.6
				c0-0.4,0-0.8,0-1.2c0-0.5,0-1,0-1.7c0.2-0.5,0.7-1.1,1.8-1.1c0.8,0,1.1,0.5,1.1,1c0,2.2,0,4.6,0.4,6.9c0.1,0.3,0.5,1,1.5,1
				c0.3,0,0.8-0.1,1.4-0.4l0.2-6.8c0-0.5,0-1,0.6-1.5C67.5,16.5,67.9,16.5,68.2,16.5z"/>
			<path class="st1" d="M76.1,22.6c-0.3,1.3-0.7,2.9-1.1,4.7c-0.1,0.4-0.2,0.8-0.3,1.2c-0.3,1.3-0.7,3.3-1,3.9
				c-0.4,0.3-1.6,0.5-1.9,0.5c-0.6,0-1-0.2-1-0.9c0-0.1,0-0.3,0.1-0.5l0.8-3.1c0.8-3.1,1.5-6.4,2.4-9.6l0.1-0.3
				c0.3-1,0.7-2.2,2.8-2.2c1.7,0,2,1.4,2.2,2.4c0.6,2.9,1.1,5.6,1.7,8.6l0.8,4.1c0,0.1,0.1,0.2,0.1,0.3c0,0.7-0.8,1.1-2,1.2
				c-0.7,0-1-0.5-1.1-0.8l-2.1-12C76.5,20.8,76.3,21.9,76.1,22.6z"/>
			<path class="st1" d="M84.8,16.5c0.6,0,1.4,0.5,1.6,0.9c-0.1,0.4-0.1,1.9-0.1,2c0,0.6,0,1.3-0.1,3.8c0.9,0,1.8,0,1.9,0
				c1.8,0,2.9,0.6,3.7,1.2c1,0.8,1.1,2.2,1.1,2.9c0,3.4-0.3,5.8-4.5,5.8h-4.1c-1.1-0.1-1.2-0.9-1.2-1.3l0.2-14.5
				C83.4,16.7,84.4,16.5,84.8,16.5z M88,31.2c1.4,0,2-1.2,2-2.3c0-0.3,0-0.6,0-0.8v-0.4c0-1.7-0.3-2.9-2.4-2.9l-1.4,0
				c0,1.6,0,3.3,0,5.3l0,1L88,31.2L88,31.2z"/>
			<path class="st1" d="M94.6,16.4c1.3,0,7.6,0,8,0.1c0.3,0.1,0.8,0.6,0.8,0.9c0,0.2-0.6,1-1,1c-0.6,0-1.3,0-2.4,0
				c0,3.1,0,6.7-0.1,9.2c0,1,0,2.7,0,3.2v1.5c0,0.1-0.5,0.9-1.7,0.9c-1.4,0-1.6-0.5-1.6-1.1c0-0.6,0-0.7,0-0.9
				c0-1.6,0.1-10.8,0.1-12.7h-0.9c-0.7,0-1.3,0-1.5,0c-0.7-0.1-0.9-0.6-0.9-1.1l0-0.1C93.5,16.9,94,16.6,94.6,16.4z"/>
			<path class="st1" d="M114.6,31.9c0,0.7-0.7,1.1-1.9,1.2c-0.7,0-1-0.5-1.1-0.8l-0.8-4.6c-0.9,0-2.1,0-2.9,0l-0.2,0.9
				c-0.3,1.3-0.7,3.3-1,3.9c-0.3,0.2-1.6,0.5-1.9,0.5c-0.6,0-1-0.2-1-0.9c0-0.1,0-0.3,0.1-0.5l0.8-3.1c0.8-3.1,1.5-6.4,2.4-9.6
				l0.1-0.3c0.3-1,0.7-2.2,2.8-2.2c1.8,0,2,1.4,2.2,2.4c0.6,2.9,1.1,5.6,1.7,8.6l0.8,4.1C114.6,31.6,114.6,31.8,114.6,31.9z
				 M109,22.7l-0.7,3c0.7,0,1.5,0,2.2,0l-0.9-6C109.4,20.3,109.1,21.9,109,22.7z"/>
			<path class="st1" d="M116.1,16.4c1.3,0,7.6,0,8,0.1c0.3,0.1,0.8,0.6,0.8,0.9c0,0.2-0.6,1-1,1c-0.6,0-1.3,0-2.4,0
				c0,3.1,0,6.7-0.1,9.2c0,1,0,2.7,0,3.2v1.5c0,0.1-0.5,0.9-1.7,0.9c-1.4,0-1.6-0.5-1.6-1.1c0-0.6,0-0.7,0-0.9
				c0-1.6,0.1-10.8,0.1-12.7h-0.9c-0.7,0-1.3,0-1.5,0c-0.7-0.1-0.9-0.6-0.9-1.1l0-0.1C115,16.9,115.5,16.6,116.1,16.4z"/>
		</g>
		<g>
			<path class="st3" d="M35.7,15.8c1.8,0,3.3,0.3,4.3,1.4c0.6,0.7,0.6,1.9,0.6,2.6c0,1.7-0.2,3.8-0.6,4.5c-0.7,1.6-2.2,2.3-4.1,2.3
				c-0.7,0-1.6,0-1.8-0.1c0,0,0,1.3,0,2.4v0.8c0,0.9,0,1.6,0,1.6c0,0.1-0.5,1.3-1.8,1.3c-1,0-1.4-0.1-1.4-0.8l0.2-14.2
				C31.7,15.9,34.1,15.8,35.7,15.8z M34.3,22.8c0,0.8,0,1.2,0,2h1.3c1.4,0,2-1.1,2-2.3c0-0.3,0-1,0-1.6V20c0-1.5-0.4-2.4-2.3-2.4
				c-0.4,0-0.9,0-0.9,0.1C34.3,19.7,34.3,21.3,34.3,22.8z"/>
			<path class="st3" d="M45.1,19.6c0,1.4,0,2,0,2.5v0.5c0,0.3,0,0.5,0,0.6h2.5c1.7,0,1.8,0.2,1.8,1.1c0,0.6-0.7,0.9-1.4,0.9h-2
				c-0.5,0-0.7,0-0.7,0.1v1.2c0,1,0,2,0,2.9l0,1.3h0.2c0.8,0,1.6-0.1,2.5-0.1c1.2,0,1.8,0.2,1.8,0.9c0,0.5-0.6,0.8-1.2,0.9
				c-1.1,0.1-2.9,0.2-4.3,0.2c-1.6,0-2.1-0.2-2.1-1.3V30c0.1-2,0.1-5.6,0.1-8.1c0-1.6,0-2.8,0-3c0.1-0.8,0-1.9,0.6-2.6
				c0.3-0.3,1.3-0.4,2.4-0.4c0.3,0,0.7,0,1,0h1c1.8,0,2.4,0,2.4,1c0,0.8-0.3,1-2.4,1h-0.3L45,18C45.1,18,45.1,19.5,45.1,19.6z"/>
			<path class="st3" d="M52.5,19.8c-0.5,0-0.9-0.2-1.3-0.4v-1.3c0-1.3,1.7-2.3,3.9-2.3c3.5,0,4.2,1.8,4.2,3.9c0,1.6-0.5,2.7-1.1,3.5
				c0.4,0.2,0.8,0.4,1.1,0.6c0.9,0.8,1.1,2.2,1.1,3c0,3.4-0.3,5.8-4.5,5.8H55c-1.9,0-4-0.9-4-2.4V29c0.5-0.5,0.8-0.7,1.4-0.7
				c0.4,0,1,0.2,1.5,0.5l0.1,1.2c0,0.5,0.9,0.8,1.6,0.8c1.4,0,1.9-1.3,1.9-2.5c0-0.3,0-0.6,0-0.8v-0.4c0-1.7-0.3-2.7-2.4-2.7
				l-1.8-0.1c-0.5-0.1-0.5-0.6-0.5-0.8c0-0.2,0.2-0.7,0.7-0.8l1.6,0c1.2,0,1.3-1.6,1.3-2.7v-0.7c0-1-0.1-1.7-1.1-1.7
				c-1,0-1,0.7-1.1,1.5C53.8,19.5,53,19.8,52.5,19.8z"/>
			<path class="st3" d="M69.6,15.9c0.5,0,1,0.2,1.2,0.8c0,0.1,0.1,0.3,0.1,0.7c0,0.1,0,0.3,0,0.4c0,0.8-0.3,10.6-0.5,11.5
				c-0.4,1.4-1.2,3.3-4.7,3.3c-0.7,0-3.8-0.2-3.8-3.4c0-1,0.5-1.2,1.6-1.2c0.9,0,1.4,0.2,1.4,2c0,0.5,0.5,0.8,1.2,0.8
				c1.1,0,1.5-1,1.5-1.8c0,0,0.1-1,0.1-2.3c-0.6,0.1-1.3,0.2-1.9,0.2c-0.7,0-1.4-0.1-1.9-0.3c-2.3-0.8-2.3-4.4-2.3-6.6
				c0-0.4,0-0.8,0-1.2c0-0.5,0-1,0-1.7c0.2-0.5,0.7-1.1,1.8-1.1c0.8,0,1.1,0.5,1.1,1c0,2.2,0,4.6,0.4,6.9c0.1,0.3,0.5,1,1.5,1
				c0.3,0,0.8-0.1,1.4-0.4l0.2-6.8c0-0.5,0-1,0.6-1.5C68.8,15.9,69.2,15.9,69.6,15.9z"/>
			<path class="st3" d="M77.5,22.1c-0.3,1.3-0.7,2.9-1.1,4.7c-0.1,0.4-0.2,0.8-0.3,1.2c-0.3,1.3-0.7,3.3-1,3.9
				c-0.4,0.3-1.6,0.5-2,0.5c-0.6,0-1-0.2-1-0.9c0-0.1,0-0.3,0.1-0.5l0.8-3.1c0.8-3.1,1.5-6.4,2.4-9.6l0.1-0.3c0.3-1,0.7-2.2,2.8-2.2
				c1.8,0,2.1,1.4,2.2,2.4c0.6,2.9,1.1,5.6,1.7,8.6L83,31c0,0.1,0.1,0.2,0.1,0.3c0,0.7-0.8,1.1-2,1.2c-0.7,0-1-0.5-1.1-0.8l-2.1-12
				C77.8,20.2,77.6,21.3,77.5,22.1z"/>
			<path class="st3" d="M86.2,15.9c0.6,0,1.4,0.5,1.6,0.9c-0.1,0.4-0.1,1.9-0.1,2c0,0.6,0,1.2-0.1,3.8c0.9,0,1.8,0,1.9,0
				c1.8,0,2.9,0.6,3.7,1.2c1,0.8,1.1,2.2,1.1,2.9c0,3.4-0.3,5.8-4.5,5.8h-4.1c-1.1-0.1-1.2-0.9-1.2-1.2l0.2-14.5
				C84.8,16.2,85.7,15.9,86.2,15.9z M89.3,30.6c1.4,0,2-1.2,2-2.3c0-0.3,0-0.6,0-0.8v-0.4c0-1.7-0.3-2.9-2.4-2.9l-1.4,0
				c0,1.6,0,3.3,0,5.3l0,1L89.3,30.6L89.3,30.6z"/>
			<path class="st3" d="M95.9,15.8c1.3,0,7.6,0,8,0.1c0.3,0.1,0.8,0.6,0.8,0.9c0,0.2-0.6,1-1,1c-0.6,0-1.3,0-2.4,0
				c0,3.1,0,6.7-0.1,9.2c0,1,0,2.7,0,3.2v1.5c0,0.1-0.5,0.9-1.7,0.9c-1.4,0-1.6-0.5-1.6-1.1c0-0.6,0-0.7,0-0.9
				c0-1.6,0.1-10.8,0.1-12.7h-0.9c-0.7,0-1.3,0-1.5,0c-0.7-0.1-0.9-0.6-0.9-1.1l0-0.1C94.9,16.3,95.3,16,95.9,15.8z"/>
			<path class="st3" d="M115.9,31.3c0,0.7-0.7,1.1-2,1.2c-0.7,0-1-0.5-1.1-0.8l-0.8-4.6c-0.9,0-2.1,0-2.9,0l-0.2,0.9
				c-0.3,1.3-0.7,3.3-1,3.9c-0.3,0.2-1.6,0.5-1.9,0.5c-0.6,0-1-0.2-1-0.9c0-0.1,0-0.3,0.1-0.5l0.8-3.1c0.8-3.1,1.5-6.4,2.4-9.6
				l0.1-0.3c0.3-1,0.7-2.2,2.8-2.2c1.8,0,2,1.4,2.2,2.4c0.6,2.9,1.1,5.6,1.7,8.6l0.8,4.1C115.9,31.1,115.9,31.2,115.9,31.3z
				 M110.3,22.1l-0.7,3c0.7,0,1.5,0,2.2,0l-0.9-6C110.8,19.7,110.5,21.3,110.3,22.1z"/>
			<path class="st3" d="M117.4,15.8c1.3,0,7.6,0,8,0.1c0.3,0.1,0.8,0.6,0.8,0.9c0,0.2-0.6,1-1,1c-0.6,0-1.3,0-2.4,0
				c0,3.1,0,6.7-0.1,9.2c0,1,0,2.7,0,3.2v1.5c0,0.1-0.5,0.9-1.7,0.9c-1.4,0-1.6-0.5-1.6-1.1c0-0.6,0-0.7,0-0.9
				c0-1.6,0.1-10.8,0.1-12.7h-0.9c-0.7,0-1.3,0-1.5,0c-0.7-0.1-0.9-0.6-0.9-1.1l0-0.1C116.4,16.3,116.8,16,117.4,15.8z"/>
		</g>
	</g>
	<g>
		<path class="st3" d="M150.6,20.7c-6.3-6.1-12.7-12.3-19-18.4c-1.8-1.7-4.9-1.4-7.3-1.4c-4,0-7.9,0-11.9,0c-25.1,0-66.6,0-91.7,0
			c-4.6,0-9.2,0-13.8,0C6.4,0.8,5.7,0.9,5.1,1C2.9,1.3,1.6,2.7,1.2,4.2c-0.6,1.4-0.4,3,1,4.4c0.1,0.1,0.1,0.1,0.2,0.2c0,0,0,0,0,0
			c5.2,4.8,10.4,9.6,15.5,14.4c-5.2,5-10.4,10-15.5,14.9c-3,2.9-1,7.9,3.7,7.9c18.8,0,54.1,0,72.9,0c12.2,0,24.3,0,36.5,0
			c4.9,0,13.2,1.4,17-2c6.1-5.6,12.2-11.2,18.2-16.8C152.7,25.4,152.6,22.6,150.6,20.7z M141.8,26.4c-5,4.2-9.9,8.4-14.9,12.6
			c-3.1,2.6-9.8,1.5-13.8,1.5c-9.9,0-21.5,0-31.4,0c-15.3,0-47.3,0-62.6,0c-3.8,0-5.5-3.8-3-6c15.9-11,8.1-15.5,0-22.1c0,0,0,0,0,0
			c0,0-0.1-0.1-0.1-0.1c-1.1-1.1-1.3-2.3-0.8-3.3c0.4-1.2,1.4-2.2,3.2-2.4c0.5-0.1,1.1-0.1,1.6-0.1c3.7,0,7.5,0,11.2,0
			c20.4,0,57.5,0,77.9,0c3.2,0,8.1,0,11.3,0c2,0,4.5-0.3,5.9,1c5.2,4.6,10.3,9.3,15.5,13.9C143.4,22.9,143.5,24.9,141.8,26.4z"/>
	</g>
	<g>
		<path class="st2" d="M89.1,6.5c0.4,0,0.8,0,1.2,0l6.3-5.5c-0.4,0-0.8,0-1.2,0L89.1,6.5z"/>
		<path class="st2" d="M35.1,6.5c0.4,0,0.8,0,1.2,0l6.3-5.5c-0.4,0-0.8,0-1.2,0L35.1,6.5z"/>
		<path class="st2" d="M84.6,6.5c0.4,0,0.8,0,1.2,0l6.3-5.5c-0.4,0-0.8,0-1.2,0L84.6,6.5z"/>
		<path class="st2" d="M93.6,6.5c0.4,0,0.8,0,1.2,0l6.3-5.5c-0.4,0-0.8,0-1.2,0L93.6,6.5z"/>
		<path class="st2" d="M116.1,6.5c0.4,0,0.8,0,1.2,0l6.3-5.5c-0.4,0-0.8,0-1.2,0L116.1,6.5z"/>
		<path class="st2" d="M111.6,6.5c0.4,0,0.8,0,1.2,0l6.3-5.5c-0.4,0-0.8,0-1.2,0L111.6,6.5z"/>
		<path class="st2" d="M98.1,6.5c0.4,0,0.8,0,1.2,0l6.3-5.5c-0.4,0-0.8,0-1.2,0L98.1,6.5z"/>
		<path class="st2" d="M102.6,6.5c0.4,0,0.8,0,1.2,0l6.3-5.5c-0.4,0-0.8,0-1.2,0L102.6,6.5z"/>
		<path class="st2" d="M62.1,6.5c0.4,0,0.8,0,1.2,0l6.3-5.5c-0.4,0-0.8,0-1.2,0L62.1,6.5z"/>
		<path class="st2" d="M44.1,6.5c0.4,0,0.8,0,1.2,0l6.3-5.5c-0.4,0-0.8,0-1.2,0L44.1,6.5z"/>
		<path class="st2" d="M53.1,6.5c0.4,0,0.8,0,1.2,0l6.3-5.5c-0.4,0-0.8,0-1.2,0L53.1,6.5z"/>
		<path class="st2" d="M48.6,6.5c0.4,0,0.8,0,1.2,0l6.3-5.5c-0.4,0-0.8,0-1.2,0L48.6,6.5z"/>
		<path class="st2" d="M39.6,6.5c0.4,0,0.8,0,1.2,0l6.3-5.5c-0.4,0-0.8,0-1.2,0L39.6,6.5z"/>
		<path class="st2" d="M75.6,6.5c0.4,0,0.8,0,1.2,0l6.3-5.5c-0.4,0-0.8,0-1.2,0L75.6,6.5z"/>
		<path class="st2" d="M71.1,6.5c0.4,0,0.8,0,1.2,0l6.3-5.5c-0.4,0-0.8,0-1.2,0L71.1,6.5z"/>
		<path class="st2" d="M57.6,6.5c0.4,0,0.8,0,1.2,0l6.3-5.5c-0.4,0-0.8,0-1.2,0L57.6,6.5z"/>
		<path class="st2" d="M66.6,6.5c0.4,0,0.8,0,1.2,0l6.3-5.5c-0.4,0-0.8,0-1.2,0L66.6,6.5z"/>
		<path class="st2" d="M80.1,6.5c0.4,0,0.8,0,1.2,0l6.3-5.5c-0.4,0-0.8,0-1.2,0L80.1,6.5z"/>
		<path class="st2" d="M15.5,0.9c-0.4,0-0.8,0-1.2,0L3.8,10.2c0.2,0.2,0.4,0.4,0.6,0.6L15.5,0.9z"/>
		<path class="st2" d="M20,0.9c-0.4,0-0.8,0-1.2,0L6,12.2c0.2,0.2,0.4,0.4,0.6,0.6L20,0.9z"/>
		<path class="st2" d="M147.9,18.1l-5,4.4c0.1,0.3,0.2,0.5,0.3,0.8l5.3-4.7C148.3,18.5,148.1,18.3,147.9,18.1z"/>
		<path class="st2" d="M5.2,1L1,4.7C0.9,5.1,0.9,5.5,0.9,5.9l5.7-5C6.1,0.9,5.7,0.9,5.2,1z"/>
		<path class="st2" d="M14.8,9.5c0-0.2,0.1-0.4,0.2-0.6c0.4-1.2,1.4-2.2,3.2-2.4c0,0,0,0,0.1,0l6.3-5.6c-0.4,0-0.8,0-1.2,0L8.2,14.3
			c0.2,0.2,0.4,0.4,0.6,0.6L14.8,9.5z"/>
		<path class="st2" d="M9.8,0.9L1.7,8.1C1.8,8.3,2,8.5,2.2,8.7c0,0,0,0,0,0L11,0.9C10.6,0.9,10.2,0.9,9.8,0.9z"/>
		<path class="st2" d="M120.6,6.5c0.4,0,0.8,0,1.3,0l6.2-5.5c-0.4,0-0.8,0-1.2,0L120.6,6.5z"/>
		<path class="st2" d="M24,20.1L1,40.4c-0.1,0.4-0.1,0.8-0.1,1.2l23.6-20.8C24.3,20.6,24.2,20.4,24,20.1z"/>
		<path class="st2" d="M25.2,23.1L1.6,43.9c0.1,0.2,0.3,0.4,0.5,0.6l23.1-20.3C25.3,23.8,25.3,23.4,25.2,23.1z"/>
		<path class="st2" d="M127.5,8.3c0.2,0.2,0.4,0.4,0.6,0.5l5.4-4.8c-0.2-0.2-0.4-0.4-0.6-0.6L127.5,8.3z"/>
		<path class="st2" d="M131.9,12.3c0.2,0.2,0.4,0.4,0.6,0.5l5.2-4.6c-0.2-0.2-0.4-0.4-0.6-0.6L131.9,12.3z"/>
		<path class="st2" d="M129.7,10.3c0.2,0.2,0.4,0.4,0.6,0.5l5.3-4.7c-0.2-0.2-0.4-0.4-0.6-0.6L129.7,10.3z"/>
		<path class="st2" d="M124.9,6.7c0.3,0.1,0.6,0.2,0.9,0.3l5.6-4.9c-0.2-0.2-0.5-0.3-0.7-0.5L124.9,6.7z"/>
		<path class="st2" d="M134.2,14.3c0.2,0.2,0.4,0.4,0.6,0.5l5.2-4.6c-0.2-0.2-0.4-0.4-0.6-0.6L134.2,14.3z"/>
		<path class="st2" d="M138.6,18.4c0.2,0.2,0.4,0.4,0.6,0.5l5-4.4c-0.2-0.2-0.4-0.4-0.6-0.6L138.6,18.4z"/>
		<path class="st2" d="M140.9,20.4c0.2,0.2,0.4,0.4,0.6,0.5l4.9-4.3c-0.2-0.2-0.4-0.4-0.6-0.6L140.9,20.4z"/>
		<path class="st2" d="M136.4,16.4c0.2,0.2,0.4,0.4,0.6,0.5l5.1-4.5c-0.2-0.2-0.4-0.4-0.6-0.6L136.4,16.4z"/>
		<path class="st2" d="M107.1,6.5c0.4,0,0.8,0,1.2,0l6.3-5.5c-0.4,0-0.8,0-1.2,0L107.1,6.5z"/>
		<path class="st2" d="M101.1,40.6c-0.4,0-0.8,0-1.2,0l-6.2,5.5c0.4,0,0.8,0,1.2,0L101.1,40.6z"/>
		<path class="st2" d="M92.1,40.6c-0.4,0-0.8,0-1.2,0l-6.2,5.5c0.4,0,0.8,0,1.2,0L92.1,40.6z"/>
		<path class="st2" d="M87.6,40.6c-0.4,0-0.8,0-1.2,0l-6.2,5.5c0.4,0,0.8,0,1.2,0L87.6,40.6z"/>
		<path class="st2" d="M60.6,40.6c-0.4,0-0.8,0-1.2,0l-6.2,5.5c0.4,0,0.8,0,1.2,0L60.6,40.6z"/>
		<path class="st2" d="M83.1,40.6c-0.4,0-0.8,0-1.2,0l-6.2,5.5c0.4,0,0.8,0,1.2,0L83.1,40.6z"/>
		<path class="st2" d="M78.6,40.6c-0.4,0-0.8,0-1.2,0l-6.2,5.5c0.4,0,0.8,0,1.2,0L78.6,40.6z"/>
		<path class="st2" d="M65.1,40.6c-0.4,0-0.8,0-1.2,0l-6.2,5.5c0.4,0,0.8,0,1.2,0L65.1,40.6z"/>
		<path class="st2" d="M69.6,40.6c-0.4,0-0.8,0-1.2,0l-6.2,5.5c0.4,0,0.8,0,1.2,0L69.6,40.6z"/>
		<path class="st2" d="M74.1,40.6c-0.4,0-0.8,0-1.2,0l-6.2,5.5c0.4,0,0.8,0,1.2,0L74.1,40.6z"/>
		<path class="st2" d="M96.6,40.6c-0.4,0-0.8,0-1.2,0l-6.2,5.5c0.4,0,0.8,0,1.2,0L96.6,40.6z"/>
		<path class="st2" d="M150.6,20.7c-0.2-0.2-0.4-0.4-0.6-0.6l-29.6,26.1c0.4,0,0.8,0,1.2,0L150.6,20.7z"/>
		<path class="st2" d="M105.6,40.6c-0.4,0-0.8,0-1.2,0l-6.2,5.5c0.4,0,0.8,0,1.2,0L105.6,40.6z"/>
		<path class="st2" d="M142.7,34.6l-12,10.6c0.6-0.3,1.2-0.7,1.7-1.1C135.8,40.9,139.3,37.7,142.7,34.6z"/>
		<path class="st2" d="M123.7,40.5c-0.5,0.1-1,0.2-1.5,0.2l-6.1,5.4c0.4,0,0.8,0,1.2,0L123.7,40.5z"/>
		<path class="st2" d="M152.1,23.4c0-0.3-0.1-0.6-0.2-0.9l-27,23.8c0.4,0,0.9,0,1.3-0.1L152.1,23.4z"/>
		<path class="st2" d="M118.9,40.8c-0.4,0-0.8,0-1.2,0l-6,5.3c0.4,0,0.8,0,1.2,0L118.9,40.8z"/>
		<path class="st2" d="M110.1,40.6c-0.4,0-0.8,0-1.2,0l-6.2,5.5c0.4,0,0.8,0,1.2,0L110.1,40.6z"/>
		<path class="st2" d="M114.6,40.6c-0.4,0-0.8,0-1.2,0l-6.2,5.5c0.4,0,0.8,0,1.2,0L114.6,40.6z"/>
		<path class="st2" d="M22.6,18.5c-0.2-0.2-0.4-0.4-0.6-0.6L17,22.4c0.2,0.2,0.4,0.4,0.6,0.6L22.6,18.5z"/>
		<path class="st2" d="M18.2,14.4c-0.2-0.2-0.4-0.4-0.6-0.5l-5,4.4c0.2,0.2,0.4,0.4,0.6,0.6L18.2,14.4z"/>
		<path class="st2" d="M20.5,16.4c-0.2-0.2-0.4-0.4-0.6-0.5l-5.1,4.5c0.2,0.2,0.4,0.4,0.6,0.6L20.5,16.4z"/>
		<path class="st2" d="M30.6,6.5c0.2,0,0.3,0,0.5,0c0.2,0,0.5,0,0.7,0L38,0.9c-0.4,0-0.8,0-1.2,0L30.6,6.5z"/>
		<path class="st2" d="M14.7,37.4c0-0.4,0-0.8,0.1-1.2L4,45.7C4.3,45.8,4.6,45.9,5,46L14.7,37.4z"/>
		<path class="st2" d="M26.1,6.5c0.4,0,0.8,0,1.2,0l6.3-5.5c-0.4,0-0.8,0-1.2,0L26.1,6.5z"/>
		<path class="st2" d="M16.4,39.9c-0.2-0.2-0.5-0.3-0.6-0.5l-7.6,6.7c0.4,0,0.8,0,1.2,0L16.4,39.9z"/>
		<path class="st2" d="M21.5,6.5c0.4,0,0.8,0,1.2,0L29,0.9c-0.4,0-0.8,0-1.2,0L21.5,6.5z"/>
		<path class="st2" d="M16,12.5C16,12.4,15.9,12.4,16,12.5C15.9,12.4,15.9,12.4,16,12.5c-0.1-0.1-0.1-0.1-0.2-0.2
			c-0.1-0.1-0.3-0.3-0.4-0.4l-5,4.4c0.2,0.2,0.4,0.4,0.6,0.6L16,12.5z"/>
		<path class="st2" d="M38.1,40.6c-0.4,0-0.8,0-1.2,0l-6.2,5.5c0.4,0,0.8,0,1.2,0L38.1,40.6z"/>
		<path class="st2" d="M47.1,40.6c-0.4,0-0.8,0-1.2,0l-6.2,5.5c0.4,0,0.8,0,1.2,0L47.1,40.6z"/>
		<path class="st2" d="M42.6,40.6c-0.4,0-0.8,0-1.2,0l-6.2,5.5c0.4,0,0.8,0,1.2,0L42.6,40.6z"/>
		<path class="st2" d="M20.1,40.6c-0.4,0-0.7,0-1.1,0c0,0-0.1,0-0.1,0l-6.2,5.5c0.4,0,0.8,0,1.2,0L20.1,40.6z"/>
		<path class="st2" d="M56.1,40.6c-0.4,0-0.8,0-1.2,0l-6.2,5.5c0.4,0,0.8,0,1.2,0L56.1,40.6z"/>
		<path class="st2" d="M51.6,40.6c-0.4,0-0.8,0-1.2,0l-6.2,5.5c0.4,0,0.8,0,1.2,0L51.6,40.6z"/>
		<path class="st2" d="M24.6,40.6c-0.4,0-0.8,0-1.2,0l-6.2,5.5c0.4,0,0.8,0,1.2,0L24.6,40.6z"/>
		<path class="st2" d="M33.6,40.6c-0.4,0-0.8,0-1.2,0l-6.2,5.5c0.4,0,0.8,0,1.2,0L33.6,40.6z"/>
		<path class="st2" d="M29.1,40.6c-0.4,0-0.8,0-1.2,0l-6.2,5.5c0.4,0,0.8,0,1.2,0L29.1,40.6z"/>
	</g>
</g>
</svg>
