<?xml version="1.0" encoding="utf-8"?>
<!-- Generator: Adobe Illustrator 16.0.0, SVG Export Plug-In . SVG Version: 6.00 Build 0)  -->
<!DOCTYPE svg PUBLIC "-//W3C//DTD SVG 1.1//EN" "http://www.w3.org/Graphics/SVG/1.1/DTD/svg11.dtd">
<svg version="1.1" id="Layer_1" xmlns="http://www.w3.org/2000/svg" xmlns:xlink="http://www.w3.org/1999/xlink" x="0px" y="0px"
	 width="150.75px" height="49.375px" viewBox="0 0 150.75 49.375" enable-background="new 0 0 150.75 49.375" xml:space="preserve">
<g>
	<g>
		<path fill="#FFFFFF" d="M145.643,20.906c-5.963-5.791-11.928-11.578-17.896-17.365c-1.688-1.646-4.586-1.3-6.854-1.3
			c-3.729,0-7.459,0-11.188,0c-23.658,0-62.792,0-86.453,0c-4.342,0-8.682,0-13.02,0C9.596,2.14,8.961,2.172,8.354,2.314
			c-2.014,0.303-3.236,1.569-3.67,3.05C4.159,6.679,4.325,8.197,5.635,9.521C5.682,9.57,5.733,9.618,5.782,9.667
			c0.004,0.006,0.008,0.009,0.01,0.015c4.889,4.529,9.771,9.06,14.652,13.586c-4.883,4.701-9.766,9.403-14.652,14.099
			c-2.857,2.759-0.953,7.442,3.5,7.442c17.748,0,50.973,0,68.722,0c11.479,0,22.959,0,34.439,0c4.648,0,12.439,1.332,15.988-1.933
			c5.731-5.271,11.467-10.54,17.201-15.813C147.574,25.293,147.482,22.691,145.643,20.906z"/>
	</g>
	<g>
		<g>
			<g>
				<path fill="#713000" d="M148.033,22.892c-6.227-6.045-12.457-12.092-18.686-18.136c-1.771-1.722-4.793-1.354-7.16-1.354
					c-3.896,0-7.791,0-11.687,0c-24.709,0-65.576,0-90.285,0c-4.53,0-9.065,0-13.6,0C5.954,3.298,5.288,3.328,4.655,3.48
					C2.553,3.795,1.276,5.117,0.827,6.665c-0.555,1.37-0.383,2.96,0.992,4.34c0.049,0.054,0.098,0.104,0.152,0.153
					c0.002,0.008,0.006,0.012,0.012,0.017c5.098,4.728,10.201,9.458,15.301,14.189c-5.1,4.908-10.203,9.816-15.301,14.726
					c-2.986,2.878-1,7.771,3.649,7.771c18.537,0,53.229,0,71.77,0c11.988,0,23.979,0,35.969,0c4.855,0,12.988,1.396,16.697-2.016
					c5.988-5.503,11.977-11.006,17.963-16.513C150.053,27.475,149.953,24.755,148.033,22.892z M138.635,28.413
					c-4.82,4.104-9.643,8.202-14.457,12.308c-2.982,2.543-9.527,1.506-13.438,1.506c-9.646,0-20.936,0-30.582,0
					c-14.916,0-45.992,0-60.908,0c-3.738,0-5.344-3.649-2.938-5.793c4.104-3.658,8.75-8.188,8.75-11.139
					c0-2.951-4.646-6.887-8.75-10.413c-0.006-0.002-0.008-0.005-0.013-0.009c-0.041-0.038-0.082-0.076-0.12-0.117
					c-1.105-1.026-1.244-2.21-0.802-3.233c0.36-1.149,1.392-2.139,3.086-2.373c0.507-0.109,1.043-0.135,1.574-0.055
					c3.647,0,7.297,0,10.942,0c19.879,0,55.923,0,75.807,0c3.137,0,7.907,0,11.041,0c1.909,0,4.342-0.275,5.769,1.008
					c5.012,4.506,10.021,9.01,15.034,13.52C140.18,25.006,140.258,27.029,138.635,28.413z"/>
			</g>
		</g>
	</g>
	<g>
		<path fill="#EBCEB3" d="M122.033,15.896c-2.299-1.73-6.916-0.853-9.639-0.853c-0.564,0-1.024,0.159-1.392,0.411
			c-0.414,0.216-0.813,0.508-1.161,0.854c-1.047-0.992-2.568-1.377-4.113-1.222c-1.5,0.149-2.521,0.864-3.248,1.894
			c-0.246-0.403-0.574-0.773-0.984-1.082c-2.299-1.731-6.916-0.854-9.639-0.854c-0.564,0-1.024,0.159-1.392,0.411
			c-1.639,0.856-3.067,2.894-1.848,4.75c0.754,1.147,1.713,1.579,2.8,1.746c-0.005,0.579-0.014,1.157-0.018,1.735
			c-1.25-1.267-2.982-1.762-4.768-1.936c0.182-2.877,0.071-5.779-3.357-6.572c-0.422-0.099-0.81-0.09-1.159-0.011
			c-0.058,0.006-0.111,0.001-0.171,0.011c-1.442,0.232-2.305,0.994-2.814,2.03c-1.643-2.786-6.183-2.968-8.119-0.269
			c-0.234,0.326-0.43,0.685-0.6,1.062c-0.311-1.026-0.868-1.876-1.803-2.403c-0.396-0.367-0.953-0.58-1.69-0.506
			c-0.042,0.004-0.075,0.016-0.116,0.021c-0.218,0.011-0.424,0.048-0.615,0.113c-1.097,0.256-1.867,0.812-2.408,1.558
			c-0.283-0.472-0.668-0.88-1.143-1.159c-1.531-0.898-3.761-0.468-5.076,0.768c-0.437-0.361-0.942-0.666-1.539-0.877
			c-2.41-0.854-4.903-0.677-6.725,0.424c-0.104-0.078-0.212-0.155-0.331-0.226c-1.979-1.157-5.688-0.671-7.813-0.354
			c-0.664,0.101-1.18,0.375-1.586,0.765c-1.418-0.885-3.383-1.103-4.892-1.162c-0.036,0-0.067-0.009-0.106-0.008
			c-3.233,0.062-6.952,1.06-6.998,4.915c-0.041,3.384-0.079,6.765-0.118,10.147c-0.027,2.537-0.5,6.164,3.057,6.426
			c4.302,0.32,4.935-2.739,5.019-5.932c0.928-0.113,1.789-0.343,2.56-0.699c-0.013,0.971-0.03,1.94-0.03,2.912
			c0,3.688,3.522,3.865,6.338,3.785c1.338-0.039,3.381-0.187,4.734-0.967c1.337,0.678,2.989,0.951,4.516,0.951
			c1.982,0,3.709-0.573,4.951-1.74c1.86,1.803,4.829,2.251,7.709,1.127c0.5-0.195,0.932-0.434,1.314-0.705
			c0.857,0.985,2.006,1.264,3.72,1.021c1.69-0.239,2.599-1.131,3.166-2.465c0.37,1.056,0.968,1.938,2.02,2.313
			c1.399,0.501,2.699,0.388,3.711-0.149c0.181,0.103,0.373,0.19,0.586,0.256c3.203,0.969,8.406,0.765,10.771-1.955
			c0.278,0.789,0.78,1.459,1.682,1.884c2.029,0.958,4.271,0.358,5.451-1.168c1.16,1.782,3.506,1.58,5.385,0.825
			c0.918-0.369,1.484-1.086,1.865-1.948c0.129,0.381,0.276,0.754,0.469,1.106c1.257,2.314,4.445,1.843,6.179,0.233
			c0.289,0.381,0.672,0.706,1.188,0.95c2.922,1.38,6.289-0.465,6.289-3.669c0-3.495,0.053-6.99,0.078-10.486
			c0.905-0.14,1.738-0.467,2.479-1.27C124.063,19.13,123.6,17.076,122.033,15.896z M52,26.801c0.002,0,0.005,0,0.007,0
			c-0.007,0.01-0.015,0.02-0.022,0.029C51.299,26.818,51.305,26.811,52,26.801z M47.038,22.441c-0.346-0.057-0.7-0.09-1.059-0.11
			c0-0.043,0-0.086,0-0.129c0.303,0,0.602-0.009,0.896-0.032C46.921,22.265,46.979,22.351,47.038,22.441z M46.114,29.709
			c0.002-0.167,0.004-0.333,0.006-0.499c0.296-0.021,0.596-0.046,0.891-0.084c-0.111,0.187-0.207,0.39-0.287,0.608
			C46.522,29.723,46.319,29.712,46.114,29.709z M99.645,21.921c0.358-0.056,0.707-0.146,1.041-0.281
			c-0.396,1.453-0.736,2.924-1.074,4.395C99.627,24.664,99.634,23.292,99.645,21.921z"/>
		<g>
			<path fill="#713000" d="M34.268,16.453c1.758,0,3.287,0.271,4.23,1.365c0.586,0.648,0.586,1.836,0.586,2.599
				c0,1.681-0.229,3.781-0.555,4.478c-0.684,1.588-2.146,2.239-4.002,2.239c-0.65,0-1.596-0.045-1.791-0.066
				c0,0.045,0,1.299-0.033,2.353v0.761c-0.029,0.873,0.033,1.565,0.033,1.565c0,0.136-0.488,1.256-1.758,1.256
				c-0.943,0-1.367-0.137-1.367-0.739l0.164-13.991C30.266,16.609,32.641,16.453,34.268,16.453z M32.803,23.347
				c0,0.762-0.031,1.209,0,1.947h1.303c1.367,0,1.953-1.12,1.953-2.262c0-0.269,0.033-1.007,0.033-1.609v-0.827
				c0-1.436-0.426-2.373-2.279-2.373c-0.391,0-0.912,0.021-0.912,0.064C32.836,20.326,32.803,21.958,32.803,23.347z"/>
			<path fill="#713000" d="M43.512,20.281c0,1.365-0.033,2.017-0.033,2.438v0.517c0,0.271-0.033,0.492-0.033,0.582h2.478
				c1.627,0,1.726,0.246,1.726,1.052c0,0.583-0.715,0.874-1.398,0.874h-1.922c-0.486,0-0.648,0.022-0.648,0.136v1.188
				c0,0.939,0,1.992-0.033,2.865l-0.03,1.32h0.161c0.781,0,1.564-0.092,2.441-0.092c1.172,0,1.789,0.156,1.789,0.873
				c0,0.537-0.586,0.828-1.141,0.853c-1.041,0.065-2.863,0.156-4.197,0.156c-1.596,0-2.082-0.246-2.082-1.319v-1.209
				c0.098-1.971,0.098-5.507,0.098-8.016c0-1.564,0-2.753,0.033-2.908c0.063-0.808,0.029-1.882,0.617-2.574
				c0.324-0.313,1.27-0.401,2.375-0.401c0.324,0,0.686,0.021,1.01,0.021h0.977c1.728,0,2.378,0.046,2.378,1.007
				c0,0.807-0.263,0.963-2.345,0.963h-0.26l-2.053,0.045C43.512,18.691,43.512,20.146,43.512,20.281z"/>
			<path fill="#713000" d="M50.739,20.458c-0.488,0-0.846-0.156-1.303-0.427v-1.255c0-1.272,1.69-2.281,3.842-2.281
				c3.481,0,4.133,1.745,4.133,3.807c0,1.564-0.521,2.708-1.105,3.4c0.357,0.156,0.779,0.383,1.072,0.604
				c0.912,0.783,1.074,2.17,1.074,2.933c0,3.356-0.26,5.753-4.459,5.753h-0.781c-1.887,0-3.902-0.852-3.902-2.372v-1.144
				c0.486-0.447,0.777-0.647,1.334-0.647c0.422,0,0.941,0.18,1.465,0.491l0.063,1.164c0,0.492,0.849,0.828,1.529,0.828
				c1.366,0,1.854-1.273,1.854-2.418c0-0.269,0.031-0.582,0.031-0.828v-0.381c0-1.656-0.262-2.686-2.406-2.686l-1.791-0.066
				c-0.488-0.09-0.488-0.582-0.488-0.828c0-0.201,0.23-0.692,0.685-0.783l1.528-0.045c1.205-0.045,1.304-1.59,1.304-2.663v-0.718
				c0-0.938-0.099-1.679-1.104-1.679c-0.979,0-1.008,0.673-1.074,1.455C52.106,20.167,51.292,20.458,50.739,20.458z"/>
			<path fill="#713000" d="M67.598,16.586c0.486,0,1.008,0.199,1.172,0.781c0.031,0.137,0.099,0.313,0.099,0.649
				c0,0.133,0,0.291-0.033,0.401c-0.03,0.763-0.293,10.476-0.521,11.373c-0.358,1.343-1.205,3.199-4.653,3.199
				c-0.718,0-3.744-0.18-3.744-3.356c0-0.962,0.455-1.229,1.563-1.229c0.91,0,1.365,0.181,1.365,2.017
				c0,0.537,0.457,0.781,1.172,0.781c1.105,0,1.465-1.009,1.465-1.813c0-0.021,0.066-0.962,0.131-2.283
				c-0.586,0.112-1.235,0.201-1.889,0.201c-0.649,0-1.334-0.065-1.889-0.291c-2.244-0.828-2.244-4.364-2.244-6.491
				c0-0.4,0.031-0.762,0.031-1.143c0.031-0.447,0.031-0.939,0.031-1.634c0.195-0.537,0.652-1.119,1.758-1.119
				c0.814,0,1.074,0.492,1.074,1.007c0,2.194,0.033,4.564,0.393,6.805c0.063,0.271,0.521,1.008,1.496,1.008
				c0.293,0,0.748-0.09,1.334-0.357l0.229-6.692c0-0.471,0.033-1.008,0.586-1.5C66.817,16.631,67.272,16.586,67.598,16.586z"/>
			<path fill="#713000" d="M75.377,22.675c-0.324,1.318-0.65,2.887-1.105,4.633c-0.065,0.381-0.194,0.762-0.262,1.142
				c-0.26,1.321-0.65,3.291-0.979,3.873c-0.422,0.271-1.561,0.536-1.92,0.536c-0.553,0-0.978-0.2-0.978-0.851
				c0-0.136,0-0.291,0.099-0.536l0.75-3.09c0.748-3.09,1.465-6.291,2.408-9.446l0.098-0.291c0.26-0.985,0.65-2.149,2.734-2.149
				c1.723,0,2.016,1.41,2.18,2.396c0.553,2.865,1.104,5.551,1.658,8.484l0.78,4.052c0.031,0.112,0.063,0.225,0.063,0.336
				c0,0.672-0.75,1.119-1.952,1.143c-0.718,0-0.978-0.471-1.041-0.781L75.86,20.26C75.702,20.839,75.54,21.937,75.377,22.675z"/>
			<path fill="#713000" d="M83.936,16.586c0.556,0,1.4,0.49,1.563,0.896c-0.063,0.357-0.063,1.836-0.063,1.926
				c-0.033,0.627-0.033,1.23-0.131,3.763c0.912-0.022,1.758-0.022,1.92-0.022c1.758,0,2.865,0.582,3.613,1.209
				c0.941,0.783,1.072,2.125,1.072,2.888c0,3.356-0.26,5.663-4.459,5.688h-4.004c-1.074-0.113-1.172-0.896-1.172-1.231l0.195-14.28
				C82.568,16.855,83.48,16.586,83.936,16.586z M87.061,31.114c1.367,0,1.953-1.142,1.953-2.281c0-0.271,0.031-0.562,0.031-0.783
				v-0.358c0-1.678-0.262-2.82-2.408-2.82l-1.334,0.047c-0.033,1.543-0.033,3.267-0.033,5.237l0.033,0.962L87.061,31.114
				L87.061,31.114z"/>
			<path fill="#713000" d="M93.506,16.542c1.234,0,7.518,0,7.875,0.135c0.293,0.109,0.779,0.604,0.779,0.872
				c0,0.202-0.553,0.938-0.977,0.938c-0.617,0-1.271,0.046-2.375,0.046c0,3.022-0.033,6.581-0.066,9.043
				c0,0.964-0.029,2.708-0.029,3.11v1.436c0,0.109-0.488,0.871-1.693,0.871c-1.397,0-1.563-0.446-1.563-1.073
				c0-0.562,0.031-0.737,0.031-0.896c0.033-1.564,0.064-10.631,0.1-12.467h-0.912c-0.65,0-1.301,0-1.463-0.022
				c-0.717-0.11-0.85-0.56-0.85-1.072l0.033-0.067C92.494,17.035,92.949,16.699,93.506,16.542z"/>
			<path fill="#713000" d="M113.262,31.764c0,0.738-0.686,1.119-1.92,1.143c-0.717,0-0.979-0.471-1.041-0.781l-0.814-4.546
				c-0.879,0-2.051,0.021-2.895,0.021l-0.195,0.852c-0.26,1.32-0.649,3.291-0.979,3.873c-0.293,0.156-1.563,0.537-1.92,0.537
				c-0.553,0-0.977-0.201-0.977-0.852c0-0.136,0-0.291,0.098-0.537l0.748-3.089c0.748-3.09,1.465-6.291,2.408-9.447l0.098-0.291
				c0.264-0.984,0.652-2.146,2.734-2.146c1.725,0,2.018,1.408,2.182,2.396c0.555,2.864,1.105,5.551,1.658,8.483l0.781,4.053
				C113.262,31.54,113.262,31.674,113.262,31.764z M107.695,22.699l-0.648,3c0.648,0,1.432-0.021,2.146-0.021l-0.879-5.91
				C108.152,20.347,107.859,21.958,107.695,22.699z"/>
			<path fill="#713000" d="M114.693,16.542c1.236,0,7.518,0,7.877,0.135c0.293,0.109,0.781,0.604,0.781,0.872
				c0,0.202-0.556,0.938-0.979,0.938c-0.617,0-1.271,0.046-2.377,0.046c0,3.022-0.029,6.581-0.063,9.043
				c0,0.964-0.033,2.708-0.033,3.11v1.436c0,0.109-0.487,0.871-1.69,0.871c-1.397,0-1.563-0.446-1.563-1.073
				c0-0.562,0.033-0.737,0.033-0.896c0.029-1.564,0.063-10.631,0.098-12.467h-0.912c-0.647,0-1.303,0-1.465-0.022
				c-0.717-0.11-0.846-0.56-0.846-1.072l0.029-0.067C113.684,17.035,114.141,16.699,114.693,16.542z"/>
		</g>
		<g>
			<path fill="#F37834" d="M35.584,15.89c1.76,0,3.287,0.269,4.23,1.365c0.586,0.646,0.586,1.835,0.586,2.596
				c0,1.681-0.229,3.783-0.553,4.479c-0.687,1.59-2.148,2.239-4.005,2.239c-0.649,0-1.596-0.045-1.788-0.064
				c0,0.045,0,1.299-0.033,2.352v0.761c-0.033,0.873,0.033,1.567,0.033,1.567c0,0.133-0.488,1.254-1.759,1.254
				c-0.944,0-1.366-0.136-1.366-0.739l0.161-13.992C31.583,16.046,33.959,15.89,35.584,15.89z M34.12,22.784
				c0,0.764-0.029,1.209,0,1.946h1.305c1.365,0,1.951-1.119,1.951-2.261c0-0.271,0.033-1.007,0.033-1.61v-0.828
				c0-1.434-0.424-2.373-2.277-2.373c-0.393,0-0.912,0.021-0.912,0.066C34.155,19.763,34.12,21.396,34.12,22.784z"/>
			<path fill="#F37834" d="M44.829,19.717c0,1.365-0.031,2.015-0.031,2.438v0.518c0,0.27-0.033,0.492-0.033,0.582h2.475
				c1.628,0,1.728,0.246,1.728,1.053c0,0.582-0.717,0.873-1.397,0.873h-1.922c-0.488,0-0.65,0.02-0.65,0.133v1.188
				c0,0.938,0,1.99-0.031,2.863l-0.031,1.32h0.162c0.779,0,1.563-0.09,2.439-0.09c1.172,0,1.789,0.156,1.789,0.873
				c0,0.537-0.586,0.828-1.139,0.852c-1.041,0.066-2.863,0.156-4.197,0.156c-1.596,0-2.084-0.246-2.084-1.32v-1.209
				c0.1-1.971,0.1-5.506,0.1-8.014c0-1.565,0-2.752,0.031-2.91c0.064-0.806,0.031-1.879,0.617-2.573
				c0.326-0.313,1.271-0.4,2.377-0.4c0.324,0,0.684,0.021,1.008,0.021h0.979c1.726,0,2.377,0.046,2.377,1.008
				c0,0.808-0.262,0.963-2.344,0.963h-0.262l-2.051,0.047C44.829,18.128,44.829,19.583,44.829,19.717z"/>
			<path fill="#F37834" d="M52.053,19.896c-0.488,0-0.848-0.156-1.303-0.426v-1.254c0-1.275,1.691-2.283,3.842-2.283
				c3.48,0,4.133,1.746,4.133,3.807c0,1.566-0.521,2.708-1.104,3.402c0.356,0.155,0.78,0.381,1.073,0.604
				c0.91,0.783,1.074,2.172,1.074,2.934c0,3.355-0.262,5.754-4.459,5.754h-0.781c-1.889,0-3.905-0.852-3.905-2.373v-1.143
				c0.487-0.447,0.78-0.648,1.334-0.648c0.426,0,0.944,0.179,1.467,0.491l0.063,1.164c0,0.493,0.848,0.828,1.531,0.828
				c1.366,0,1.854-1.274,1.854-2.417c0-0.271,0.031-0.582,0.031-0.828v-0.381c0-1.656-0.26-2.688-2.408-2.688l-1.789-0.064
				c-0.486-0.092-0.486-0.582-0.486-0.828c0-0.201,0.227-0.693,0.684-0.783l1.529-0.046c1.203-0.044,1.301-1.589,1.301-2.663v-0.717
				c0-0.939-0.098-1.681-1.104-1.681c-0.978,0-1.01,0.674-1.071,1.454C53.42,19.605,52.608,19.896,52.053,19.896z"/>
			<path fill="#F37834" d="M68.913,16.023c0.488,0,1.01,0.201,1.172,0.783c0.031,0.135,0.1,0.313,0.1,0.647
				c0,0.136,0,0.291-0.033,0.401c-0.032,0.763-0.293,10.479-0.52,11.374c-0.359,1.344-1.205,3.201-4.654,3.201
				c-0.717,0-3.744-0.18-3.744-3.357c0-0.963,0.455-1.229,1.563-1.229c0.912,0,1.367,0.179,1.367,2.015
				c0,0.537,0.455,0.783,1.172,0.783c1.104,0,1.468-1.008,1.468-1.813c0-0.021,0.063-0.962,0.129-2.281
				c-0.586,0.11-1.236,0.199-1.89,0.199c-0.647,0-1.334-0.064-1.89-0.29c-2.243-0.828-2.243-4.365-2.243-6.492
				c0-0.402,0.03-0.763,0.03-1.145c0.033-0.444,0.033-0.938,0.033-1.633c0.193-0.537,0.648-1.119,1.758-1.119
				c0.813,0,1.074,0.492,1.074,1.007c0,2.194,0.031,4.565,0.391,6.807c0.064,0.271,0.521,1.009,1.496,1.009
				c0.293,0,0.748-0.091,1.334-0.358l0.23-6.69c0-0.473,0.029-1.01,0.584-1.5C68.131,16.068,68.586,16.023,68.913,16.023z"/>
			<path fill="#F37834" d="M76.691,22.113c-0.326,1.32-0.652,2.89-1.107,4.632c-0.064,0.383-0.193,0.764-0.262,1.144
				c-0.26,1.321-0.648,3.291-0.975,3.873c-0.425,0.27-1.564,0.537-1.923,0.537c-0.555,0-0.979-0.201-0.979-0.854
				c0-0.135,0-0.29,0.101-0.536l0.75-3.089c0.746-3.09,1.466-6.292,2.406-9.446l0.101-0.291c0.26-0.984,0.647-2.148,2.731-2.148
				c1.728,0,2.021,1.409,2.185,2.396c0.553,2.864,1.104,5.552,1.655,8.484l0.78,4.052c0.033,0.112,0.066,0.226,0.066,0.336
				c0,0.674-0.75,1.118-1.953,1.144c-0.717,0-0.979-0.47-1.041-0.783l-2.051-11.865C77.016,20.277,76.854,21.375,76.691,22.113z"/>
			<path fill="#F37834" d="M85.248,16.023c0.557,0,1.4,0.492,1.564,0.896c-0.064,0.355-0.064,1.835-0.064,1.925
				c-0.031,0.628-0.031,1.229-0.131,3.761c0.912-0.021,1.758-0.021,1.92-0.021c1.758,0,2.865,0.58,3.613,1.209
				c0.943,0.781,1.074,2.125,1.074,2.888c0,3.354-0.263,5.662-4.459,5.686h-4.004c-1.074-0.11-1.175-0.896-1.175-1.229l0.194-14.284
				C83.883,16.292,84.795,16.023,85.248,16.023z M88.373,30.552c1.367,0,1.953-1.144,1.953-2.282c0-0.27,0.031-0.561,0.031-0.783
				V27.13c0-1.681-0.26-2.822-2.408-2.822l-1.334,0.045c-0.033,1.543-0.033,3.268-0.033,5.24l0.033,0.962L88.373,30.552
				L88.373,30.552z"/>
			<path fill="#F37834" d="M94.82,15.978c1.236,0,7.52,0,7.875,0.136c0.293,0.11,0.781,0.604,0.781,0.872
				c0,0.201-0.554,0.939-0.979,0.939c-0.615,0-1.271,0.045-2.375,0.045c0,3.021-0.031,6.581-0.063,9.043
				c0,0.963-0.031,2.709-0.031,3.111v1.434c0,0.11-0.488,0.873-1.693,0.873c-1.396,0-1.563-0.449-1.563-1.076
				c0-0.56,0.033-0.737,0.033-0.896c0.032-1.565,0.063-10.631,0.098-12.469H95.99c-0.648,0-1.301,0-1.463-0.021
				c-0.717-0.112-0.848-0.562-0.848-1.073l0.032-0.065C93.811,16.472,94.266,16.135,94.82,15.978z"/>
			<path fill="#F37834" d="M114.574,31.201c0,0.738-0.684,1.119-1.922,1.144c-0.715,0-0.978-0.47-1.041-0.782l-0.813-4.545
				c-0.881,0-2.053,0.021-2.897,0.021l-0.195,0.854c-0.26,1.32-0.648,3.291-0.977,3.873c-0.291,0.155-1.563,0.536-1.92,0.536
				c-0.554,0-0.979-0.2-0.979-0.853c0-0.135,0-0.291,0.101-0.537l0.75-3.089c0.748-3.089,1.465-6.292,2.407-9.446l0.099-0.291
				c0.26-0.985,0.649-2.149,2.733-2.149c1.726,0,2.019,1.41,2.181,2.396c0.553,2.863,1.104,5.551,1.659,8.483l0.779,4.052
				C114.574,30.979,114.574,31.111,114.574,31.201z M109.01,22.135l-0.65,2.999c0.65,0,1.433-0.021,2.148-0.021l-0.879-5.909
				C109.465,19.785,109.172,21.396,109.01,22.135z"/>
			<path fill="#F37834" d="M116.008,15.978c1.234,0,7.518,0,7.875,0.136c0.293,0.11,0.779,0.604,0.779,0.872
				c0,0.201-0.553,0.939-0.977,0.939c-0.617,0-1.271,0.045-2.375,0.045c0,3.021-0.033,6.581-0.066,9.043
				c0,0.963-0.029,2.709-0.029,3.111v1.434c0,0.11-0.488,0.873-1.693,0.873c-1.397,0-1.563-0.449-1.563-1.076
				c0-0.56,0.031-0.737,0.031-0.896c0.033-1.565,0.064-10.631,0.1-12.469h-0.912c-0.65,0-1.301,0-1.463-0.021
				c-0.717-0.112-0.85-0.562-0.85-1.073l0.033-0.065C114.996,16.472,115.451,16.135,116.008,15.978z"/>
		</g>
	</g>
	<g>
		<path fill="#F37834" d="M148.742,20.785c-6.23-6.045-12.461-12.092-18.688-18.135c-1.769-1.721-4.789-1.354-7.162-1.354
			c-3.896,0-7.787,0-11.683,0c-24.715,0-65.578,0-90.287,0c-4.532,0-9.063,0-13.601,0C6.659,1.189,5.997,1.222,5.364,1.371
			C3.26,1.687,1.981,3.01,1.532,4.556c-0.551,1.375-0.377,2.961,0.99,4.342c0.051,0.053,0.1,0.104,0.156,0.154
			c0.004,0.006,0.008,0.01,0.012,0.016c5.1,4.729,10.199,9.457,15.299,14.188C12.889,28.164,7.79,33.07,2.69,37.979
			c-2.986,2.879-1,7.771,3.651,7.771c18.535,0,53.229,0,71.768,0c11.988,0,23.979,0,35.969,0c4.855,0,12.99,1.395,16.699-2.018
			c5.988-5.502,11.975-11.006,17.963-16.513C150.76,25.365,150.662,22.65,148.742,20.785z M140.074,26.338
			c-4.875,4.151-9.754,8.305-14.629,12.454c-3.021,2.569-9.643,1.521-13.602,1.521c-9.763,0-21.185,0-30.947,0
			c-15.096,0-46.548,0-61.639,0c-3.788,0-5.405-3.692-2.978-5.86c15.66-10.838,7.982-15.263,0-21.808
			c-0.002-0.004-0.008-0.009-0.012-0.01c-0.043-0.037-0.084-0.078-0.123-0.119c-1.117-1.043-1.256-2.235-0.811-3.272
			c0.365-1.165,1.406-2.163,3.121-2.4c0.516-0.11,1.057-0.14,1.598-0.057c3.689,0,7.383,0,11.072,0c20.121,0,56.599,0,76.722,0
			c3.17,0,8.002,0,11.174,0c1.931,0,4.392-0.274,5.832,1.021c5.072,4.56,10.146,9.118,15.217,13.68
			C141.641,22.89,141.719,24.939,140.074,26.338z"/>
	</g>
	<g>
		<path fill="#EBCEB3" d="M88.127,6.728c0.408,0,0.811,0,1.215,0l6.164-5.434c-0.402,0-0.811,0-1.215,0L88.127,6.728z"/>
		<path fill="#EBCEB3" d="M34.915,6.728c0.398,0,0.809,0,1.213,0l6.164-5.434c-0.406,0-0.809,0-1.213,0L34.915,6.728z"/>
		<path fill="#EBCEB3" d="M83.695,6.728c0.404,0,0.811,0,1.213,0l6.164-5.434c-0.404,0-0.807,0-1.213,0L83.695,6.728z"/>
		<path fill="#EBCEB3" d="M92.563,6.728c0.408,0,0.81,0,1.213,0l6.164-5.434c-0.403,0-0.805,0-1.213,0L92.563,6.728z"/>
		<path fill="#EBCEB3" d="M114.736,6.728c0.412,0,0.813,0,1.213,0l6.164-5.434c-0.404,0-0.809,0-1.213,0L114.736,6.728z"/>
		<path fill="#EBCEB3" d="M110.303,6.728c0.395,0,0.799,0,1.211,0l6.164-5.434c-0.402,0-0.809,0-1.211,0L110.303,6.728z"/>
		<path fill="#EBCEB3" d="M96.998,6.728c0.408,0,0.811,0,1.213,0l6.164-5.434c-0.4,0-0.807,0-1.213,0L96.998,6.728z"/>
		<path fill="#EBCEB3" d="M101.434,6.728c0.408,0,0.812,0,1.213,0l6.164-5.434c-0.397,0-0.811,0-1.213,0L101.434,6.728z"/>
		<path fill="#EBCEB3" d="M61.522,6.728c0.401,0,0.807,0,1.211,0l6.164-5.434c-0.404,0-0.81,0-1.211,0L61.522,6.728z"/>
		<path fill="#EBCEB3" d="M43.784,6.728c0.4,0,0.809,0,1.213,0l6.164-5.434c-0.406,0-0.809,0-1.213,0L43.784,6.728z"/>
		<path fill="#EBCEB3" d="M52.653,6.728c0.404,0,0.805,0,1.213,0l6.164-5.434c-0.406,0-0.809,0-1.213,0L52.653,6.728z"/>
		<path fill="#EBCEB3" d="M48.219,6.728c0.402,0,0.807,0,1.213,0l6.164-5.434c-0.404,0-0.811,0-1.213,0L48.219,6.728z"/>
		<path fill="#EBCEB3" d="M39.35,6.728c0.396,0,0.808,0,1.213,0l6.164-5.434c-0.406,0-0.811,0-1.213,0L39.35,6.728z"/>
		<path fill="#EBCEB3" d="M74.825,6.728c0.406,0,0.811,0,1.212,0l6.164-5.434c-0.402,0-0.807,0-1.213,0L74.825,6.728z"/>
		<path fill="#EBCEB3" d="M70.393,6.728c0.404,0,0.81,0,1.211,0l6.166-5.434c-0.403,0-0.811,0-1.213,0L70.393,6.728z"/>
		<path fill="#EBCEB3" d="M57.086,6.728c0.404,0,0.809,0,1.215,0l6.164-5.434c-0.404,0-0.811,0-1.215,0L57.086,6.728z"/>
		<path fill="#EBCEB3" d="M65.956,6.728c0.404,0,0.809,0,1.211,0l6.164-5.434c-0.402,0-0.807,0-1.211,0L65.956,6.728z"/>
		<path fill="#EBCEB3" d="M79.26,6.728c0.404,0,0.811,0,1.213,0l6.164-5.434c-0.402,0-0.809,0-1.213,0L79.26,6.728z"/>
		<path fill="#EBCEB3" d="M15.684,1.294c-0.404,0-0.809,0-1.213,0L4.137,10.404c0.195,0.184,0.393,0.365,0.59,0.548L15.684,1.294z"
			/>
		<path fill="#EBCEB3" d="M20.118,1.294c-0.402,0-0.809,0-1.213,0L6.295,12.408c0.197,0.184,0.395,0.365,0.592,0.549L20.118,1.294z"
			/>
		<path fill="#EBCEB3" d="M146.053,18.173l-4.943,4.361c0.14,0.262,0.242,0.529,0.302,0.803l5.221-4.604
			C146.438,18.546,146.244,18.361,146.053,18.173z"/>
		<path fill="#EBCEB3" d="M5.542,1.347L1.383,5.013C1.278,5.398,1.227,5.798,1.247,6.201l5.6-4.936
			C6.405,1.24,5.969,1.26,5.542,1.347z"/>
		<path fill="#EBCEB3" d="M14.963,9.749c0.041-0.188,0.094-0.374,0.172-0.554c0.367-1.17,1.412-2.17,3.131-2.409
			c0.021-0.005,0.045-0.004,0.066-0.009l6.221-5.481c-0.404,0-0.816,0-1.213,0L8.458,14.416c0.197,0.184,0.396,0.365,0.592,0.548
			L14.963,9.749z"/>
		<path fill="#EBCEB3" d="M10.036,1.294l-7.99,7.043c0.141,0.188,0.299,0.375,0.479,0.559c0.017,0.016,0.033,0.031,0.049,0.047
			l8.677-7.647C10.846,1.294,10.44,1.294,10.036,1.294z"/>
		<path fill="#EBCEB3" d="M119.17,6.728c0.393,0,0.811-0.011,1.232-0.018l6.119-5.395c-0.383-0.031-0.771-0.045-1.158-0.049
			L119.17,6.728z"/>
		<path fill="#EBCEB3" d="M24.047,20.217L1.411,40.171c-0.096,0.392-0.135,0.782-0.119,1.175l23.193-20.444
			C24.354,20.674,24.209,20.448,24.047,20.217z"/>
		<path fill="#EBCEB3" d="M25.237,23.078L1.997,43.563c0.145,0.224,0.316,0.431,0.502,0.627l22.711-20.02
			C25.266,23.799,25.274,23.435,25.237,23.078z"/>
		<path fill="#EBCEB3" d="M125.936,8.585c0.199,0.18,0.398,0.359,0.601,0.54l5.342-4.708c-0.19-0.188-0.385-0.374-0.575-0.561
			L125.936,8.585z"/>
		<path fill="#EBCEB3" d="M130.326,12.532c0.199,0.181,0.4,0.36,0.602,0.54l5.17-4.559c-0.19-0.188-0.385-0.375-0.576-0.562
			L130.326,12.532z"/>
		<path fill="#EBCEB3" d="M128.131,10.558c0.199,0.181,0.398,0.36,0.6,0.541l5.258-4.634c-0.19-0.188-0.387-0.374-0.577-0.561
			L128.131,10.558z"/>
		<path fill="#EBCEB3" d="M123.363,6.941c0.303,0.076,0.592,0.177,0.863,0.309l5.502-4.852c-0.222-0.174-0.453-0.325-0.703-0.449
			L123.363,6.941z"/>
		<path fill="#EBCEB3" d="M132.521,14.505c0.201,0.18,0.399,0.359,0.602,0.54l5.086-4.485c-0.191-0.187-0.385-0.373-0.576-0.561
			L132.521,14.505z"/>
		<path fill="#EBCEB3" d="M136.912,18.453c0.199,0.181,0.4,0.359,0.602,0.54l4.916-4.334c-0.191-0.187-0.385-0.374-0.576-0.562
			L136.912,18.453z"/>
		<path fill="#EBCEB3" d="M139.109,20.426c0.199,0.181,0.399,0.359,0.6,0.54l4.832-4.259c-0.191-0.188-0.385-0.373-0.576-0.562
			L139.109,20.426z"/>
		<path fill="#EBCEB3" d="M134.717,16.48c0.199,0.18,0.4,0.359,0.602,0.539l5.002-4.41c-0.19-0.187-0.385-0.373-0.577-0.56
			L134.717,16.48z"/>
		<path fill="#EBCEB3" d="M105.867,6.728c0.414,0,0.814,0,1.215,0l6.164-5.434c-0.404,0-0.809,0-1.215,0L105.867,6.728z"/>
		<path fill="#EBCEB3" d="M99.963,40.366c-0.402,0-0.809,0-1.213,0l-6.105,5.384c0.404,0,0.81,0,1.213,0L99.963,40.366z"/>
		<path fill="#EBCEB3" d="M91.094,40.366c-0.404,0-0.809,0-1.211,0l-6.107,5.384c0.404,0,0.81,0,1.213,0L91.094,40.366z"/>
		<path fill="#EBCEB3" d="M86.658,40.366c-0.404,0-0.813,0-1.213,0L79.34,45.75c0.402,0,0.809,0,1.213,0L86.658,40.366z"/>
		<path fill="#EBCEB3" d="M60.053,40.366c-0.404,0-0.809,0-1.213,0l-6.107,5.384c0.406,0,0.812,0,1.213,0L60.053,40.366z"/>
		<path fill="#EBCEB3" d="M82.225,40.366c-0.402,0-0.815,0-1.213,0l-6.107,5.384c0.41,0,0.816,0,1.213,0L82.225,40.366z"/>
		<path fill="#EBCEB3" d="M77.789,40.366c-0.395,0-0.803,0-1.213,0l-6.105,5.384c0.412,0,0.809,0,1.213,0L77.789,40.366z"/>
		<path fill="#EBCEB3" d="M64.487,40.366c-0.402,0-0.807,0-1.213,0l-6.105,5.384c0.406,0,0.811,0,1.213,0L64.487,40.366z"/>
		<path fill="#EBCEB3" d="M68.924,40.366c-0.4,0-0.809,0-1.215,0l-6.105,5.384c0.41,0,0.812,0,1.213,0L68.924,40.366z"/>
		<path fill="#EBCEB3" d="M73.354,40.366c-0.397,0-0.803,0-1.211,0l-6.106,5.384c0.409,0,0.812,0,1.213,0L73.354,40.366z"/>
		<path fill="#EBCEB3" d="M95.529,40.366c-0.404,0-0.809,0-1.213,0l-6.107,5.384c0.404,0,0.811,0,1.215,0L95.529,40.366z"/>
		<path fill="#EBCEB3" d="M148.723,20.765c-0.193-0.188-0.387-0.375-0.578-0.563L118.986,45.95c0.383,0.02,0.771,0.032,1.16,0.047
			L148.723,20.765z"/>
		<path fill="#EBCEB3" d="M104.398,40.366c-0.402,0-0.812,0-1.213,0l-6.107,5.384c0.404,0,0.811,0,1.213,0L104.398,40.366z"/>
		<path fill="#EBCEB3" d="M140.916,34.413l-11.797,10.418c0.615-0.296,1.178-0.653,1.66-1.099
			C134.158,40.628,137.537,37.521,140.916,34.413z"/>
		<path fill="#EBCEB3" d="M122.213,40.273c-0.465,0.088-0.945,0.156-1.439,0.203l-5.987,5.282c0.375,0.009,0.764,0.021,1.166,0.039
			L122.213,40.273z"/>
		<path fill="#EBCEB3" d="M150.15,23.417c-0.047-0.294-0.125-0.581-0.234-0.866l-26.555,23.448c0.443-0.02,0.881-0.048,1.313-0.087
			L150.15,23.417z"/>
		<path fill="#EBCEB3" d="M117.473,40.568c-0.395-0.008-0.785-0.021-1.174-0.035l-5.916,5.217c0.404,0,0.809,0,1.213,0
			L117.473,40.568z"/>
		<path fill="#EBCEB3" d="M108.832,40.366c-0.402,0-0.807,0-1.213,0l-6.105,5.384c0.402,0,0.809,0,1.213,0L108.832,40.366z"/>
		<path fill="#EBCEB3" d="M113.234,40.396c-0.414-0.017-0.812-0.026-1.185-0.028l-6.104,5.383c0.404,0,0.81,0,1.214,0
			L113.234,40.396z"/>
		<path fill="#EBCEB3" d="M22.684,18.582c-0.178-0.189-0.365-0.382-0.561-0.576l-5.021,4.426c0.197,0.184,0.396,0.365,0.592,0.549
			L22.684,18.582z"/>
		<path fill="#EBCEB3" d="M18.358,14.578c-0.201-0.174-0.404-0.35-0.613-0.529l-4.963,4.376c0.197,0.183,0.395,0.364,0.59,0.548
			L18.358,14.578z"/>
		<path fill="#EBCEB3" d="M20.571,16.532c-0.195-0.177-0.396-0.356-0.603-0.54l-5.028,4.435c0.197,0.183,0.395,0.366,0.592,0.548
			L20.571,16.532z"/>
		<path fill="#EBCEB3" d="M30.477,6.728c0.168,0,0.334,0,0.5,0c0.232,0,0.479,0,0.715,0l6.164-5.434c-0.405,0-0.813,0-1.215,0
			L30.477,6.728z"/>
		<path fill="#EBCEB3" d="M14.877,37.188c-0.045-0.392-0.006-0.787,0.115-1.17L4.352,45.396c0.293,0.107,0.603,0.192,0.931,0.25
			L14.877,37.188z"/>
		<path fill="#EBCEB3" d="M26.049,6.728c0.402,0,0.809,0,1.213,0l6.164-5.434c-0.41,0-0.811,0-1.215,0L26.049,6.728z"/>
		<path fill="#EBCEB3" d="M16.514,39.652c-0.236-0.149-0.447-0.321-0.637-0.508L8.385,45.75c0.396,0,0.805,0,1.213,0L16.514,39.652z
			"/>
		<path fill="#EBCEB3" d="M21.61,6.728c0.404,0,0.809,0,1.211,0l6.164-5.434c-0.406,0-0.812,0-1.211,0L21.61,6.728z"/>
		<path fill="#EBCEB3" d="M16.118,12.638c-0.012-0.01-0.023-0.021-0.035-0.029c-0.006-0.004-0.008-0.006-0.012-0.012
			c-0.045-0.037-0.086-0.078-0.127-0.117c-0.146-0.137-0.273-0.275-0.387-0.418l-4.939,4.355c0.197,0.184,0.395,0.364,0.592,0.548
			L16.118,12.638z"/>
		<path fill="#EBCEB3" d="M37.879,40.366c-0.406,0-0.811,0-1.213,0l-6.105,5.384c0.404,0,0.808,0,1.213,0L37.879,40.366z"/>
		<path fill="#EBCEB3" d="M46.749,40.366c-0.404,0-0.811,0-1.213,0L39.43,45.75c0.402,0,0.807,0,1.213,0L46.749,40.366z"/>
		<path fill="#EBCEB3" d="M42.313,40.366c-0.403,0-0.811,0-1.211,0l-6.106,5.384c0.403,0,0.81,0,1.213,0L42.313,40.366z"/>
		<path fill="#EBCEB3" d="M20.141,40.366c-0.365,0-0.729,0-1.078,0c-0.043,0-0.082-0.007-0.125-0.009l-6.117,5.393
			c0.404,0,0.803,0,1.213,0L20.141,40.366z"/>
		<path fill="#EBCEB3" d="M55.616,40.366c-0.402,0-0.807,0-1.213,0l-6.105,5.384c0.404,0,0.811,0,1.213,0L55.616,40.366z"/>
		<path fill="#EBCEB3" d="M51.182,40.366c-0.404,0-0.809,0-1.213,0l-6.105,5.384c0.404,0,0.81,0,1.214,0L51.182,40.366z"/>
		<path fill="#EBCEB3" d="M24.575,40.366c-0.41,0-0.816,0-1.213,0l-6.105,5.384c0.402,0,0.803,0,1.213,0L24.575,40.366z"/>
		<path fill="#EBCEB3" d="M33.446,40.366c-0.408,0-0.812,0-1.213,0l-6.105,5.384c0.404,0,0.805,0,1.213,0L33.446,40.366z"/>
		<path fill="#EBCEB3" d="M29.008,40.366c-0.41,0-0.811,0-1.213,0L21.69,45.75c0.404,0,0.806,0,1.213,0L29.008,40.366z"/>
	</g>
</g>
</svg>
