<?xml version="1.0" encoding="utf-8"?>
<!-- Generator: Adobe Illustrator 16.0.0, SVG Export Plug-In . SVG Version: 6.00 Build 0)  -->
<!DOCTYPE svg PUBLIC "-//W3C//DTD SVG 1.1//EN" "http://www.w3.org/Graphics/SVG/1.1/DTD/svg11.dtd">
<svg version="1.1" id="Layer_1" xmlns="http://www.w3.org/2000/svg" xmlns:xlink="http://www.w3.org/1999/xlink" x="0px" y="0px"
	 width="300.334px" height="86.333px" viewBox="0 0 300.334 86.333" enable-background="new 0 0 300.334 86.333"
	 xml:space="preserve">
<g>
	<g>
		<g>
			<g>
				<path fill="#FFFFFF" d="M298.762,60.506c0,10.928-8.909,19.836-19.837,19.836H25.095c-10.928,0-19.836-8.908-19.836-19.836
					V21.784c0-10.928,8.908-19.836,19.836-19.836h253.83c10.928,0,19.837,8.908,19.837,19.836V60.506z"/>
			</g>
		</g>
	</g>
	<g>
		<path fill="#703416" d="M276.786,84.385H22.956C11.165,84.385,1.572,74.792,1.572,63V24.278c0-11.791,9.593-21.385,21.385-21.385
			h253.83c11.791,0,21.385,9.594,21.385,21.385V63C298.171,74.792,288.577,84.385,276.786,84.385z M22.956,5.991
			c-10.085,0-18.289,8.203-18.289,18.287V63c0,10.084,8.204,18.289,18.289,18.289h253.83c10.084,0,18.288-8.205,18.288-18.289
			V24.278c0-10.084-8.204-18.287-18.288-18.287H22.956z M276.786,76.071H22.956c-7.205,0-13.068-5.863-13.068-13.07V24.278
			c0-7.205,5.863-13.068,13.068-13.068h253.83c7.206,0,13.069,5.863,13.069,13.068V63C289.857,70.208,283.992,76.071,276.786,76.071
			z M22.956,14.303c-5.5,0-9.975,4.475-9.975,9.975V63c0,5.5,4.475,9.975,9.975,9.975h253.83c5.5,0,9.975-4.475,9.975-9.975V24.278
			c0-5.5-4.475-9.975-9.975-9.975H22.956z"/>
	</g>
	<g>
		<g>
			<g>
				<g>
					<g id="SVGID_5_">
						<path fill="#F47934" d="M278.925,1.948H25.095c-10.928,0-19.836,8.908-19.836,19.836v38.723
							c0,10.928,8.908,19.836,19.836,19.836h253.83c10.928,0,19.837-8.908,19.837-19.836V21.784
							C298.762,10.856,289.853,1.948,278.925,1.948z M290.448,60.506c0,6.414-5.227,11.521-11.521,11.521H25.096
							c-6.414,0-11.521-5.229-11.521-11.521V21.784c0-6.414,5.227-11.521,11.521-11.521h253.83c6.414,0,11.521,5.229,11.521,11.521
							V60.506z"/>
					</g>
				</g>
			</g>
		</g>
	</g>
	<g>
		<g>
			<polygon fill="#EBCEB3" points="122.88,10.262 124.958,10.262 133.273,1.948 131.195,1.948 			"/>
		</g>
		<g>
			<polygon fill="#EBCEB3" points="131.906,10.262 133.986,10.262 142.3,1.948 140.222,1.948 			"/>
		</g>
		<g>
			<polygon fill="#EBCEB3" points="113.853,10.262 115.931,10.262 124.244,1.948 122.167,1.948 			"/>
		</g>
		<g>
			<polygon fill="#EBCEB3" points="150.079,10.262 152.157,10.262 160.473,1.948 158.395,1.948 			"/>
		</g>
		<g>
			<polygon fill="#EBCEB3" points="159.108,10.262 161.186,10.262 169.499,1.948 167.422,1.948 			"/>
		</g>
		<g>
			<polygon fill="#EBCEB3" points="168.225,10.262 170.305,10.262 178.628,1.948 176.548,1.948 			"/>
		</g>
		<g>
			<polygon fill="#EBCEB3" points="177.252,10.262 179.33,10.262 187.655,1.948 185.573,1.948 			"/>
		</g>
		<g>
			<polygon fill="#EBCEB3" points="104.796,10.262 106.876,10.262 115.198,1.948 113.118,1.948 			"/>
		</g>
		<g>
			<polygon fill="#EBCEB3" points="141.026,10.262 143.105,10.262 151.428,1.948 149.348,1.948 			"/>
		</g>
		<g>
			<polygon fill="#EBCEB3" points="50.425,10.262 52.503,10.262 60.818,1.948 58.74,1.948 			"/>
		</g>
		<g>
			<polygon fill="#EBCEB3" points="32.341,10.262 34.421,10.262 42.743,1.948 40.663,1.948 			"/>
		</g>
		<g>
			<polygon fill="#EBCEB3" points="95.68,10.262 97.758,10.262 106.073,1.948 103.993,1.948 			"/>
		</g>
		<g>
			<path fill="#EBCEB3" d="M23.029,10.458c0.672-0.123,1.361-0.195,2.066-0.195h0.208l8.313-8.314h-2.078L23.029,10.458z"/>
		</g>
		<g>
			<polygon fill="#EBCEB3" points="41.398,10.262 43.476,10.262 51.789,1.948 49.712,1.948 			"/>
		</g>
		<g>
			<polygon fill="#EBCEB3" points="77.624,10.262 79.702,10.262 88.018,1.948 85.94,1.948 			"/>
		</g>
		<g>
			<polygon fill="#EBCEB3" points="86.653,10.262 88.731,10.262 97.045,1.948 94.967,1.948 			"/>
		</g>
		<g>
			<polygon fill="#EBCEB3" points="59.451,10.262 61.531,10.262 69.845,1.948 67.767,1.948 			"/>
		</g>
		<g>
			<polygon fill="#EBCEB3" points="68.569,10.262 70.649,10.262 78.972,1.948 76.892,1.948 			"/>
		</g>
		<g>
			<path fill="#EBCEB3" d="M276.907,10.262h2.018c0.021,0,0.04,0.002,0.06,0.002l7.001-6.992c-0.509-0.193-1.022-0.375-1.552-0.527
				L276.907,10.262z"/>
		</g>
		<g>
			<polygon fill="#EBCEB3" points="267.789,10.262 269.867,10.262 278.183,1.948 276.105,1.948 			"/>
		</g>
		<g>
			<path fill="#EBCEB3" d="M290.448,23.833v2.078l7.938-7.938c-0.11-0.564-0.253-1.119-0.411-1.668L290.448,23.833z"/>
		</g>
		<g>
			<path fill="#EBCEB3" d="M289.016,16.239c0.252,0.455,0.466,0.934,0.654,1.422l6.173-6.172c-0.262-0.43-0.534-0.848-0.827-1.25
				L289.016,16.239z"/>
		</g>
		<g>
			<path fill="#EBCEB3" d="M5.482,18.979c-0.105,0.744-0.175,1.504-0.196,2.271L24.563,1.973c-0.771,0.021-1.527,0.092-2.273,0.197
				L5.482,18.979z"/>
		</g>
		<g>
			<path fill="#EBCEB3" d="M284.514,11.711c0.438,0.244,0.854,0.523,1.256,0.822l5.912-5.912c-0.378-0.318-0.774-0.613-1.175-0.902
				L284.514,11.711z"/>
		</g>
		<g>
			<polygon fill="#EBCEB3" points="290.448,32.926 290.448,35.002 298.762,26.7 298.762,24.622 			"/>
		</g>
		<g>
			<polygon fill="#EBCEB3" points="186.308,10.262 188.386,10.262 196.699,1.948 194.621,1.948 			"/>
		</g>
		<g>
			<path fill="#EBCEB3" d="M290.448,60.098v0.408c0,0.625-0.063,1.232-0.159,1.828l8.475-8.465v-2.076L290.448,60.098z"/>
		</g>
		<g>
			<polygon fill="#EBCEB3" points="290.448,42.004 290.448,44.084 298.762,35.768 298.762,33.692 			"/>
		</g>
		<g>
			<polygon fill="#EBCEB3" points="290.448,51.034 290.448,53.112 298.762,44.797 298.762,42.717 			"/>
		</g>
		<g>
			<polygon fill="#EBCEB3" points="213.509,10.262 215.587,10.262 223.902,1.948 221.823,1.948 			"/>
		</g>
		<g>
			<polygon fill="#EBCEB3" points="222.534,10.262 224.614,10.262 232.928,1.948 230.85,1.948 			"/>
		</g>
		<g>
			<polygon fill="#EBCEB3" points="204.451,10.262 206.531,10.262 214.856,1.948 212.776,1.948 			"/>
		</g>
		<g>
			<polygon fill="#EBCEB3" points="195.335,10.262 197.412,10.262 205.728,1.948 203.65,1.948 			"/>
		</g>
		<g>
			<polygon fill="#EBCEB3" points="249.737,10.262 251.815,10.262 260.129,1.948 258.051,1.948 			"/>
		</g>
		<g>
			<polygon fill="#EBCEB3" points="231.563,10.262 233.641,10.262 241.954,1.948 239.877,1.948 			"/>
		</g>
		<g>
			<polygon fill="#EBCEB3" points="258.763,10.262 260.841,10.262 269.156,1.948 267.076,1.948 			"/>
		</g>
		<g>
			<polygon fill="#EBCEB3" points="240.68,10.262 242.76,10.262 251.083,1.948 249.003,1.948 			"/>
		</g>
		<g>
			<polygon fill="#EBCEB3" points="63.193,72.028 61.115,72.028 52.8,80.342 54.878,80.342 			"/>
		</g>
		<g>
			<polygon fill="#EBCEB3" points="190.048,72.028 187.97,72.028 179.656,80.342 181.734,80.342 			"/>
		</g>
		<g>
			<polygon fill="#EBCEB3" points="199.074,72.028 196.996,72.028 188.683,80.342 190.761,80.342 			"/>
		</g>
		<g>
			<polygon fill="#EBCEB3" points="217.156,72.028 215.076,72.028 206.754,80.342 208.833,80.342 			"/>
		</g>
		<g>
			<polygon fill="#EBCEB3" points="208.103,72.028 206.025,72.028 197.71,80.342 199.787,80.342 			"/>
		</g>
		<g>
			<polygon fill="#EBCEB3" points="180.929,72.028 178.85,72.028 170.527,80.342 172.606,80.342 			"/>
		</g>
		<g>
			<polygon fill="#EBCEB3" points="171.874,72.028 169.797,72.028 161.483,80.342 163.561,80.342 			"/>
		</g>
		<g>
			<polygon fill="#EBCEB3" points="144.7,72.028 142.62,72.028 134.299,80.342 136.378,80.342 			"/>
		</g>
		<g>
			<polygon fill="#EBCEB3" points="153.821,72.028 151.741,72.028 143.428,80.342 145.506,80.342 			"/>
		</g>
		<g>
			<polygon fill="#EBCEB3" points="162.848,72.028 160.77,72.028 152.454,80.342 154.532,80.342 			"/>
		</g>
		<g>
			<polygon fill="#EBCEB3" points="271.531,72.028 269.451,72.028 261.138,80.342 263.216,80.342 			"/>
		</g>
		<g>
			<path fill="#EBCEB3" d="M13.573,21.993v-0.209c0-0.707,0.073-1.396,0.195-2.064l-8.51,8.51v2.078L13.573,21.993z"/>
		</g>
		<g>
			<polygon fill="#EBCEB3" points="262.503,72.028 260.425,72.028 252.111,80.342 254.189,80.342 			"/>
		</g>
		<g>
			<path fill="#EBCEB3" d="M280.742,71.87c-0.595,0.096-1.198,0.158-1.817,0.158h-0.42l-8.323,8.313h2.08L280.742,71.87z"/>
		</g>
		<g>
			<path fill="#EBCEB3" d="M298.574,63.075c0.098-0.738,0.158-1.486,0.17-2.248l-19.521,19.5c0.761-0.01,1.509-0.07,2.247-0.166
				L298.574,63.075z"/>
		</g>
		<g>
			<polygon fill="#EBCEB3" points="235.303,72.028 233.225,72.028 224.909,80.342 226.989,80.342 			"/>
		</g>
		<g>
			<polygon fill="#EBCEB3" points="226.276,72.028 224.198,72.028 215.883,80.342 217.961,80.342 			"/>
		</g>
		<g>
			<polygon fill="#EBCEB3" points="253.384,72.028 251.305,72.028 242.982,80.342 245.061,80.342 			"/>
		</g>
		<g>
			<polygon fill="#EBCEB3" points="244.329,72.028 242.252,72.028 233.938,80.342 236.016,80.342 			"/>
		</g>
		<g>
			<polygon fill="#EBCEB3" points="135.648,72.028 133.57,72.028 125.255,80.342 127.333,80.342 			"/>
		</g>
		<g>
			<path fill="#EBCEB3" d="M13.573,58.219v-2.078l-7.97,7.969c0.105,0.572,0.24,1.131,0.395,1.684L13.573,58.219z"/>
		</g>
		<g>
			<path fill="#EBCEB3" d="M14.931,65.922c-0.246-0.463-0.452-0.947-0.636-1.443L8.098,70.67c0.259,0.432,0.526,0.854,0.815,1.262
				L14.931,65.922z"/>
		</g>
		<g>
			<path fill="#EBCEB3" d="M19.433,70.534c-0.438-0.248-0.853-0.527-1.25-0.828l-5.906,5.906c0.376,0.316,0.771,0.617,1.169,0.908
				L19.433,70.534z"/>
		</g>
		<g>
			<path fill="#EBCEB3" d="M26.964,72.028h-1.869c-0.067,0-0.132-0.008-0.199-0.012l-6.963,6.965
				c0.506,0.195,1.018,0.381,1.542,0.535L26.964,72.028z"/>
		</g>
		<g>
			<polygon fill="#EBCEB3" points="35.99,72.028 33.912,72.028 25.599,80.342 27.677,80.342 			"/>
		</g>
		<g>
			<polygon fill="#EBCEB3" points="13.573,31.088 13.573,29.01 5.259,37.317 5.259,39.393 			"/>
		</g>
		<g>
			<polygon fill="#EBCEB3" points="13.573,40.165 13.573,38.086 5.259,46.401 5.259,48.479 			"/>
		</g>
		<g>
			<polygon fill="#EBCEB3" points="126.619,72.028 124.542,72.028 116.228,80.342 118.306,80.342 			"/>
		</g>
		<g>
			<polygon fill="#EBCEB3" points="13.573,49.192 13.573,47.114 5.259,55.428 5.259,57.506 			"/>
		</g>
		<g>
			<polygon fill="#EBCEB3" points="99.419,72.028 97.341,72.028 89.027,80.342 91.105,80.342 			"/>
		</g>
		<g>
			<polygon fill="#EBCEB3" points="90.393,72.028 88.315,72.028 79.999,80.342 82.077,80.342 			"/>
		</g>
		<g>
			<polygon fill="#EBCEB3" points="108.474,72.028 106.394,72.028 98.071,80.342 100.151,80.342 			"/>
		</g>
		<g>
			<polygon fill="#EBCEB3" points="117.499,72.028 115.421,72.028 107.098,80.342 109.177,80.342 			"/>
		</g>
		<g>
			<polygon fill="#EBCEB3" points="45.045,72.028 42.966,72.028 34.643,80.342 36.722,80.342 			"/>
		</g>
		<g>
			<polygon fill="#EBCEB3" points="54.164,72.028 52.087,72.028 43.773,80.342 45.851,80.342 			"/>
		</g>
		<g>
			<polygon fill="#EBCEB3" points="72.219,72.028 70.141,72.028 61.825,80.342 63.905,80.342 			"/>
		</g>
		<g>
			<polygon fill="#EBCEB3" points="81.274,72.028 79.194,72.028 70.869,80.342 72.949,80.342 			"/>
		</g>
	</g>
	<g>
		<g>
			<path fill="#EBCEB3" d="M80.819,39.891c2.697-0.074,5.36-1.225,6.715-3.342c0.639-0.52,1.053-1.316,0.989-2.412
				c-0.355-4.988-2.138-9.504-6.771-11.879c-5.82-3.088-14.967-2.375-20.192,1.781c-6.058,4.871-4.395,12.592,0.237,17.818
				c2.852,3.207,6.89,5.463,9.503,8.906c0,0,0.09,0.205,0.228,0.523c-0.124-0.211-0.268-0.426-0.465-0.643
				c-3.445-3.92-12.116-3.324-14.254,1.664c-2.257,5.227,2.494,10.928,6.889,13.064c11.403,5.465,29.934-2.969,23.756-17.459
				C86.039,44.698,83.486,42.208,80.819,39.891z M72.607,54.448c-0.425-0.779-0.474-1.518-0.691-2.26
				C72.682,53.983,73.762,56.594,72.607,54.448z"/>
		</g>
		<g>
			<path fill="#EBCEB3" d="M123.444,28.436c1.782-3.207-0.831-6.533-4.038-7.482c-3.089-0.951-7.246-0.357-10.453-0.357
				c-4.111,0-8.332,0-12.453,0c-0.469-0.084-0.987-0.066-1.563,0.119c-3.683,1.309-7.483,4.396-4.751,8.672
				c1.743,2.703,5.216,2.844,8.396,2.729c-0.073,6.02-0.101,12.039-0.2,18.057c0,4.396-2.02,13.188,2.612,15.682
				c5.939,3.324,13.066-0.119,13.186-6.652c0.105-9.121,0.2-18.158,0.222-27.258C117.878,31.983,121.647,31.67,123.444,28.436z"/>
		</g>
		<g>
			<path fill="#EBCEB3" d="M156.464,49.34c-1.663-7.365-2.731-15.678-5.346-22.686c-1.899-4.988-6.414-6.891-11.641-6.059
				c-4.751,0.83-6.889,3.443-8.434,7.721c-2.852,7.602-4.869,15.561-7.127,23.281c-0.949,3.207-3.443,8.195-2.02,11.521
				c1.9,4.275,8.434,3.682,11.997,1.781c3.443-1.869,4.279-7.158,5.141-11.283c1.041,0,2.07,0,3.113,0
				c0.501,3.428,0.86,7.543,2.674,10.215c3.207,4.633,12.946,3.207,14.134-2.494c0.074-0.633-0.03-1.199-0.241-1.701
				C158.2,56.204,157.24,52.774,156.464,49.34z"/>
		</g>
		<g>
			<path fill="#EBCEB3" d="M190.942,48.752c4.537-4.035,5.455-10.336,5.076-16.873c-0.476-9.502-9.027-11.402-17.104-11.641
				c-0.327,0.01-0.624,0.063-0.902,0.139c-6.771,0.174-15.146,1.246-15.488,9.363c-0.237,7.604-0.237,15.324-0.354,23.043
				c-0.119,4.869-1.901,12.354,4.513,13.779c3.563,0.83,8.671-0.477,10.453-4.158c1.163-2.404,0.856-5.518,0.538-8.514
				c2.739,2.639,3.496,8.42,5.994,10.652c3.325,3.088,8.79,2.375,12.473,0.594c1.307-0.594,1.781-2.377,1.544-3.682
				C196.466,56.596,194.133,52.405,190.942,48.752z M178.32,41.975c-0.192,0.021-0.395,0.025-0.594,0.033c0-0.236,0-0.471,0-0.707
				c0.07-0.268,0.119-0.553,0.119-0.869c0-3.158,0.074-6.242,0.159-9.316c1.151,0.078,2.278,0.416,2.69,1.24
				c0.476,1.068,0.118,3.324,0.118,4.514C180.814,39.125,181.17,41.62,178.32,41.975z"/>
		</g>
		<g>
			<path fill="#EBCEB3" d="M227.493,20.954c-3.089-0.951-7.246-0.357-10.453-0.357c-4.111,0-8.331,0-12.451,0
				c-0.471-0.084-0.989-0.066-1.563,0.119c-3.682,1.309-7.482,4.396-4.751,8.672c1.744,2.703,5.216,2.844,8.396,2.729
				c-0.073,6.02-0.101,12.039-0.2,18.057c0,4.396-2.02,13.188,2.612,15.682c5.939,3.324,13.065-0.119,13.186-6.652
				c0.105-9.121,0.2-18.158,0.222-27.258c3.479,0.041,7.245-0.271,9.043-3.506C233.315,25.229,230.7,21.903,227.493,20.954z"/>
		</g>
	</g>
	<g>
		<g>
			<path fill="#703416" d="M85.908,43.045c-1.067-1.07-2.493-2.377-4.274-3.801c-1.426-1.426-2.613-2.377-3.326-3.09
				c-0.831-0.711-1.544-1.543-2.376-2.73c-0.831-1.068-1.188-2.139-1.188-2.971c0-2.73,1.188-4.037,3.802-4.037
				c1.663,0,2.493,1.543,2.612,4.631c0,0.238,0,0.477,0.119,0.832c0,0.357,0.118,0.594,0.118,0.832c0,0.236,0,0.355,0,0.355
				c0.238,0.594,0.713,1.068,1.426,1.307s1.308,0.475,1.781,0.475c0.476,0,1.307,0,2.376,0c2.02,0,3.088-0.83,3.088-2.256
				c-0.355-6.889-4.275-10.334-11.878-10.334c-3.563,0-6.651,0.832-9.265,2.494c-2.375,1.545-3.563,3.445-3.563,5.939
				c0,1.662,0.595,3.324,1.544,4.988c1.069,1.662,2.021,2.852,2.971,3.801c0.949,0.949,2.376,2.139,4.275,3.801
				c1.663,1.307,2.731,2.256,3.563,3.088c0.831,0.832,1.544,1.781,2.375,3.088c0.832,1.307,1.188,2.494,1.188,3.682
				c0,3.445-1.307,5.229-3.92,5.229c-0.356,0-0.713-0.117-1.069-0.236c-0.355-0.119-0.712-0.357-0.83-0.594
				c-0.119-0.238-0.356-0.477-0.477-0.713c-0.237-0.238-0.237-0.594-0.355-0.951c-0.118-0.475-0.118-0.713-0.237-0.949
				c0-0.238-0.118-0.594-0.118-0.951c0-0.355,0-0.594,0-0.713c0-2.02-1.663-2.969-4.989-2.969c-3.207,0-4.751,1.068-4.751,3.326
				c0,2.256,1.188,4.273,3.326,6.176c2.138,1.781,4.988,2.732,8.552,2.732c9.266,0,13.897-3.684,13.897-11.285
				c0-1.424-0.477-2.852-1.426-4.396C87.929,45.303,86.979,44.116,85.908,43.045z"/>
		</g>
		<g>
			<path fill="#703416" d="M123.324,22.854c-0.595-0.238-8.195-0.357-22.688-0.357c-1.781,0.357-2.852,1.07-3.207,2.02l-0.118,0.355
				c0,1.545,0.831,2.377,2.494,2.613c0.355,0,1.781,0,4.275,0h2.612c0,1.426,0,6.414-0.118,15.086
				c-0.119,8.553-0.119,13.541-0.236,14.848c0,0,0,0.236,0,0.713c0,0.355,0,0.83,0,1.424c0,0.832,0.236,1.426,0.83,1.9
				c0.595,0.357,1.782,0.596,3.684,0.596c1.068,0,1.9-0.119,2.73-0.477c0.831-0.355,1.308-0.594,1.663-0.949
				c0.356-0.357,0.476-0.594,0.476-0.713v-3.445c0-0.236,0-1.307,0-3.207s0-3.326,0-4.275c0.119-7.838,0.238-15.084,0.238-21.736
				c1.188,0,2.493,0,3.919,0c1.545,0,2.494,0,2.97,0s1.068-0.355,1.782-0.951c0.594-0.594,0.949-1.068,0.949-1.307
				c0-0.355-0.355-0.713-0.831-1.188C124.276,23.329,123.8,22.971,123.324,22.854z"/>
		</g>
		<g>
			<path fill="#703416" d="M156.346,48.391c-0.595-2.613-1.426-6.178-2.495-10.809c-1.068-4.633-1.781-7.84-2.257-9.621
				c-0.118-0.832-0.237-1.545-0.476-2.02c-0.236-0.477-0.476-1.068-0.949-1.781c-0.477-0.713-1.069-1.189-1.9-1.545
				c-0.832-0.355-1.782-0.477-2.97-0.477c-1.427,0-2.731,0.238-3.683,0.477c-0.949,0.355-1.781,0.713-2.257,1.307
				c-0.595,0.477-0.95,1.068-1.188,1.545c-0.237,0.475-0.476,1.188-0.712,1.9l-0.238,0.713c-1.308,3.443-3.563,11.045-7.008,22.805
				l-2.139,7.482c-0.119,0.355-0.237,0.832-0.237,1.307c0,1.307,0.95,2.02,2.852,2.02c0.475,0,1.425-0.119,2.851-0.475
				c1.426-0.357,2.258-0.594,2.731-0.832c0.713-0.949,1.544-4.156,2.851-9.383l0.596-2.02c0.831,0,2.256,0,4.156,0
				c2.02,0,3.444,0,4.275,0l2.376,10.928c0.237,1.307,1.308,1.9,2.969,1.9c3.684,0,5.583-0.951,5.583-2.732
				c0-0.355,0-0.594-0.117-0.83L156.346,48.391z M144.23,44.471c-1.425,0-2.494,0-3.088,0l1.9-7.246
				c0.118-0.236,0.355-1.426,0.83-3.326c0.477-1.9,0.713-3.088,0.951-3.682l2.494,14.252
				C146.725,44.471,145.656,44.471,144.23,44.471z"/>
		</g>
		<g>
			<path fill="#703416" d="M189.365,47.084c2.375-0.832,4.157-2.258,5.345-4.395c1.069-2.021,1.545-5.584,1.545-10.811
				c0-3.207-0.595-5.227-1.663-6.295c-2.258-2.258-6.295-3.326-12.234-3.326c-7.602,0-11.996,1.426-12.946,4.396l-0.594,33.613
				c0,0.713,0.356,1.189,0.95,1.426c0.594,0.238,1.544,0.357,2.969,0.357c1.663,0,2.853-0.357,3.802-1.189
				c0.95-0.83,1.426-1.424,1.426-1.781l-0.118-3.801c0-0.832,0-1.781,0-2.969s-0.119-2.258-0.119-2.971c0-0.711,0-1.188,0-1.307
				c0.119,0,0.355,0,0.831,0s0.95,0,1.426,0c2.138,0.951,3.92,2.73,5.464,5.227c1.544,2.494,2.731,4.871,3.444,7.246
				c0.119,0.355,0.713,0.713,1.663,1.188c1.068,0.357,2.02,0.594,2.851,0.594c1.663,0,3.207-0.355,4.633-1.188
				C196.968,55.874,194.116,51.241,189.365,47.084z M187.583,34.137c0,0.594,0,1.307,0,2.256c0,0.951,0,1.545,0,1.662
				c0,1.545-0.475,2.854-1.425,3.92c-0.95,1.07-2.376,1.664-4.156,1.664H178.2v-4.752c0-3.207,0-7.363,0.237-12.232
				c0-0.119,0.831-0.119,2.613-0.238c2.494,0,4.156,0.475,5.106,1.426c0.95,0.949,1.425,2.375,1.425,4.275L187.583,34.137
				L187.583,34.137z"/>
		</g>
		<g>
			<path fill="#703416" d="M231.531,23.803c-0.475-0.477-0.95-0.832-1.425-0.951c-0.594-0.236-8.196-0.355-22.688-0.355
				c-1.781,0.355-2.852,1.07-3.207,2.02l-0.118,0.355c0,1.545,0.831,2.377,2.494,2.613c0.355,0,1.781,0,4.275,0h2.613
				c0,1.426,0,6.414-0.119,15.086c-0.119,8.553-0.119,13.541-0.237,14.848c0,0,0,0.236,0,0.713c0,0.355,0,0.83,0,1.424
				c0,0.832,0.237,1.426,0.831,1.9c0.595,0.357,1.782,0.596,3.684,0.596c1.067,0,1.899-0.119,2.73-0.477
				c0.832-0.355,1.308-0.594,1.663-0.949c0.356-0.357,0.476-0.594,0.476-0.713v-3.445c0-0.236,0-1.307,0-3.207s0-3.326,0-4.275
				c0.118-7.838,0.237-15.084,0.237-21.736c1.188,0,2.494,0,3.919,0c1.545,0,2.495,0,2.971,0s1.068-0.355,1.781-0.951
				c0.595-0.594,0.95-1.068,0.95-1.307C232.365,24.633,232.008,24.278,231.531,23.803z"/>
		</g>
	</g>
	<g>
		<g>
			<path fill="#F47934" d="M81.634,22.139c7.602,0,11.521,3.445,11.878,10.334c0,1.426-1.069,2.258-3.089,2.258
				c-1.069,0-1.9,0-2.375,0c-0.477,0-1.069-0.236-1.782-0.477c-0.713-0.236-1.188-0.711-1.425-1.307c0,0,0-0.117,0-0.355
				s-0.119-0.475-0.119-0.832c-0.119-0.355-0.119-0.594-0.119-0.83c-0.118-3.09-0.95-4.633-2.612-4.633
				c-2.612,0-3.802,1.307-3.802,4.039c0,0.83,0.356,1.9,1.188,2.969c0.831,1.188,1.544,2.02,2.375,2.732
				c0.713,0.713,1.899,1.662,3.325,3.088c1.781,1.426,3.207,2.732,4.275,3.801c1.069,1.07,2.02,2.256,2.97,3.799
				c0.95,1.545,1.427,2.973,1.427,4.396c0,7.602-4.634,11.283-13.897,11.283c-3.563,0-6.414-0.949-8.552-2.732
				c-2.139-1.898-3.326-3.92-3.326-6.176c0-2.258,1.544-3.326,4.751-3.326c3.326,0,4.989,0.951,4.989,2.969c0,0.119,0,0.357,0,0.713
				c0,0.357,0.117,0.715,0.117,0.951c0.119,0.238,0.119,0.477,0.238,0.949c0.118,0.357,0.118,0.713,0.356,0.951
				c0.118,0.238,0.355,0.475,0.475,0.713c0.119,0.236,0.477,0.475,0.831,0.594c0.356,0.119,0.713,0.238,1.069,0.238
				c2.612,0,3.92-1.783,3.92-5.227c0-1.188-0.356-2.377-1.188-3.684s-1.544-2.256-2.376-3.088c-0.831-0.83-1.899-1.781-3.563-3.088
				c-1.9-1.662-3.325-2.852-4.276-3.801c-0.949-0.951-1.899-2.139-2.969-3.803c-0.95-1.662-1.544-3.324-1.544-4.986
				c0-2.494,1.188-4.396,3.563-5.939C74.982,22.971,77.95,22.139,81.634,22.139z"/>
		</g>
		<g>
			<path fill="#F47934" d="M100.876,24.397c0.355-0.949,1.425-1.662,3.207-2.02c14.489,0,22.093,0.119,22.687,0.355
				c0.475,0.119,0.95,0.477,1.426,0.949c0.476,0.477,0.831,0.832,0.831,1.189c0,0.236-0.355,0.711-0.95,1.305
				c-0.713,0.596-1.307,0.951-1.781,0.951c-0.476,0-1.426,0-2.97,0c-1.426,0-2.731,0-3.92,0c0,6.652-0.119,13.896-0.236,21.736
				c0,0.951,0,2.375,0,4.275s0,2.971,0,3.207v3.445c0,0.119-0.119,0.357-0.477,0.713s-0.831,0.594-1.663,0.949
				c-0.831,0.355-1.662,0.477-2.73,0.477c-1.9,0-3.089-0.238-3.684-0.594c-0.594-0.477-0.831-1.07-0.831-1.9c0-0.594,0-1.07,0-1.426
				c0-0.475,0-0.713,0-0.713c0.118-1.307,0.118-6.295,0.237-14.848c0.119-8.67,0.119-13.66,0.119-15.084h-2.732
				c-2.494,0-3.92,0-4.274,0c-1.663-0.238-2.495-1.07-2.495-2.613L100.876,24.397z"/>
		</g>
		<g>
			<path fill="#F47934" d="M162.404,58.25c0.118,0.236,0.118,0.475,0.118,0.83c0,1.781-1.9,2.732-5.582,2.732
				c-1.663,0-2.731-0.596-2.97-1.9l-2.376-10.928c-0.831,0-2.256,0-4.275,0c-1.899,0-3.326,0-4.157,0l-0.594,2.02
				c-1.307,5.227-2.139,8.434-2.851,9.383c-0.477,0.238-1.308,0.475-2.732,0.832c-1.426,0.355-2.376,0.475-2.851,0.475
				c-1.9,0-2.852-0.713-2.852-2.02c0-0.475,0.118-0.949,0.237-1.307l2.138-7.482c3.445-11.76,5.702-19.361,7.008-22.805l0.238-0.713
				c0.237-0.713,0.475-1.428,0.713-1.9c0.237-0.477,0.594-1.07,1.188-1.545c0.475-0.594,1.307-0.949,2.257-1.307
				c0.95-0.238,2.257-0.477,3.682-0.477c1.188,0,2.14,0.119,2.971,0.477c0.832,0.355,1.426,0.832,1.899,1.545
				c0.477,0.713,0.713,1.307,0.95,1.779c0.237,0.477,0.355,1.189,0.476,2.021c0.476,1.781,1.188,4.988,2.258,9.621
				c1.067,4.631,1.899,8.195,2.493,10.809L162.404,58.25z M148.15,30.098c-0.237,0.594-0.475,1.781-0.95,3.684
				c-0.475,1.898-0.713,3.088-0.831,3.324l-1.899,7.246c0.594,0,1.663,0,3.088,0c1.426,0,2.494,0,3.088,0L148.15,30.098z"/>
		</g>
		<g>
			<path fill="#F47934" d="M172.737,26.536c0.951-2.969,5.347-4.396,12.947-4.396c5.938,0,9.978,1.07,12.234,3.326
				c1.068,1.068,1.663,3.088,1.663,6.295c0,5.229-0.477,8.791-1.545,10.811c-1.188,2.139-2.97,3.563-5.346,4.395
				c4.752,4.158,7.604,8.789,8.671,14.016c-1.425,0.832-2.97,1.188-4.632,1.188c-0.832,0-1.782-0.236-2.851-0.594
				c-0.95-0.475-1.545-0.83-1.663-1.188c-0.713-2.375-1.9-4.75-3.445-7.246c-1.544-2.494-3.325-4.275-5.463-5.225
				c-0.477,0-0.951,0-1.426,0c-0.477,0-0.713,0-0.831,0c0,0.117,0,0.594,0,1.307c0,0.711,0.118,1.781,0.118,2.969s0,2.139,0,2.969
				l0.118,3.801c0,0.357-0.476,0.951-1.426,1.783c-0.95,0.83-2.138,1.188-3.801,1.188c-1.426,0-2.375-0.117-2.97-0.355
				c-0.595-0.236-0.95-0.713-0.95-1.424L172.737,26.536z M181.764,26.536c-0.237,4.869-0.237,9.027-0.237,12.232v4.752h3.801
				c1.782,0,3.207-0.594,4.157-1.662s1.426-2.375,1.426-3.92c0-0.119,0-0.713,0-1.662c0-0.951,0-1.664,0-2.258v-2.02
				c0-1.9-0.476-3.326-1.426-4.275s-2.613-1.426-5.106-1.426C182.714,26.417,181.764,26.417,181.764,26.536z"/>
		</g>
		<g>
			<path fill="#F47934" d="M207.657,24.397c0.355-0.949,1.426-1.662,3.207-2.02c14.49,0,22.094,0.119,22.688,0.355
				c0.475,0.119,0.95,0.477,1.425,0.949c0.476,0.477,0.832,0.832,0.832,1.189c0,0.236-0.356,0.711-0.95,1.305
				c-0.713,0.596-1.307,0.951-1.782,0.951c-0.475,0-1.425,0-2.969,0c-1.426,0-2.731,0-3.92,0c0,6.652-0.119,13.896-0.237,21.736
				c0,0.951,0,2.375,0,4.275s0,2.971,0,3.207v3.445c0,0.119-0.119,0.357-0.476,0.713c-0.357,0.355-0.831,0.594-1.663,0.949
				c-0.831,0.355-1.663,0.477-2.731,0.477c-1.899,0-3.088-0.238-3.683-0.594c-0.594-0.477-0.831-1.07-0.831-1.9
				c0-0.594,0-1.07,0-1.426c0-0.475,0-0.713,0-0.713c0.119-1.307,0.119-6.295,0.237-14.848c0.119-8.67,0.119-13.66,0.119-15.084
				h-2.613c-2.494,0-3.92,0-4.276,0c-1.662-0.238-2.494-1.07-2.494-2.613L207.657,24.397z"/>
		</g>
	</g>
</g>
</svg>
