<?xml version="1.0" encoding="utf-8"?>
<!-- Generator: Adobe Illustrator 16.0.0, SVG Export Plug-In . SVG Version: 6.00 Build 0)  -->
<!DOCTYPE svg PUBLIC "-//W3C//DTD SVG 1.1//EN" "http://www.w3.org/Graphics/SVG/1.1/DTD/svg11.dtd">
<svg version="1.1" id="Layer_1" xmlns="http://www.w3.org/2000/svg" xmlns:xlink="http://www.w3.org/1999/xlink" x="0px" y="0px"
	 viewBox="0 0 300 85.375" enable-background="new 0 0 300 85.375" xml:space="preserve">
<g>
	<g>
		<g>
			<path fill="#FFFFFF" d="M297.821,60.801c0,10.928-8.908,19.837-19.836,19.837H24.154c-10.928,0-19.836-8.909-19.836-19.837
				V22.078c0-10.928,8.908-19.836,19.836-19.836h253.831c10.928,0,19.836,8.908,19.836,19.836V60.801z"/>
		</g>
	</g>
	<path fill="none" stroke="#004B39" stroke-width="3.0949" stroke-miterlimit="10" d="M275.846,4.737H22.016
		c-10.928,0-19.837,8.909-19.837,19.836v38.724c0,10.928,8.909,19.836,19.837,19.836h253.83c10.928,0,19.836-8.908,19.836-19.836
		V24.573C295.682,13.646,286.774,4.737,275.846,4.737z M287.367,63.296c0,6.413-5.227,11.521-11.521,11.521H22.016
		c-6.414,0-11.521-5.227-11.521-11.521V24.572c0-6.414,5.227-11.521,11.521-11.521h253.83c6.414,0,11.521,5.227,11.521,11.521
		V63.296z"/>
	<g>
		<g>
			<g>
				<g>
					<path id="SVGID_5_" fill="#2C9942" d="M277.985,2.243H24.154c-10.928,0-19.836,8.908-19.836,19.836v38.723
						c0,10.928,8.908,19.837,19.836,19.837h253.831c10.928,0,19.836-8.909,19.836-19.837V22.079
						C297.821,11.151,288.91,2.243,277.985,2.243z M289.506,60.801c0,6.414-5.227,11.521-11.521,11.521H24.154
						c-6.414,0-11.521-5.227-11.521-11.521V22.078c0-6.414,5.226-11.521,11.521-11.521h253.831c6.414,0,11.521,5.227,11.521,11.521
						V60.801z"/>
				</g>
			</g>
		</g>
	</g>
	<g>
		<polygon fill="#CEE3CE" points="121.939,10.558 124.017,10.558 132.331,2.243 130.254,2.243 		"/>
		<polygon fill="#CEE3CE" points="130.967,10.558 133.045,10.558 141.359,2.243 139.281,2.243 		"/>
		<polygon fill="#CEE3CE" points="112.911,10.558 114.99,10.558 123.304,2.243 121.226,2.243 		"/>
		<polygon fill="#CEE3CE" points="149.139,10.558 151.217,10.558 159.531,2.243 157.453,2.243 		"/>
		<polygon fill="#CEE3CE" points="158.166,10.558 160.244,10.558 168.559,2.243 166.481,2.243 		"/>
		<polygon fill="#CEE3CE" points="167.283,10.558 169.364,10.558 177.688,2.243 175.608,2.243 		"/>
		<polygon fill="#CEE3CE" points="176.311,10.558 178.391,10.558 186.713,2.243 184.633,2.243 		"/>
		<polygon fill="#CEE3CE" points="103.855,10.558 105.935,10.558 114.26,2.243 112.178,2.243 		"/>
		<polygon fill="#CEE3CE" points="140.085,10.558 142.163,10.558 150.487,2.243 148.407,2.243 		"/>
		<polygon fill="#CEE3CE" points="49.484,10.558 51.562,10.558 59.876,2.243 57.799,2.243 		"/>
		<polygon fill="#CEE3CE" points="31.4,10.558 33.48,10.558 41.803,2.243 39.723,2.243 		"/>
		<polygon fill="#CEE3CE" points="94.739,10.558 96.817,10.558 105.132,2.243 103.053,2.243 		"/>
		<path fill="#CEE3CE" d="M22.088,10.754c0.672-0.123,1.36-0.196,2.065-0.196h0.208l8.314-8.314h-2.078L22.088,10.754z"/>
		<polygon fill="#CEE3CE" points="40.456,10.558 42.534,10.558 50.849,2.243 48.771,2.243 		"/>
		<polygon fill="#CEE3CE" points="76.684,10.558 78.762,10.558 87.076,2.243 84.998,2.243 		"/>
		<polygon fill="#CEE3CE" points="85.712,10.558 87.789,10.558 96.104,2.243 94.026,2.243 		"/>
		<polygon fill="#CEE3CE" points="58.511,10.558 60.59,10.558 68.904,2.243 66.825,2.243 		"/>
		<polygon fill="#CEE3CE" points="67.629,10.558 69.708,10.558 78.031,2.243 75.951,2.243 		"/>
		<path fill="#CEE3CE" d="M275.967,10.558h2.018c0.021,0,0.039,0.003,0.061,0.003l7-6.993c-0.51-0.195-1.023-0.375-1.553-0.528
			L275.967,10.558z"/>
		<polygon fill="#CEE3CE" points="266.85,10.558 268.928,10.558 277.24,2.243 275.162,2.243 		"/>
		<path fill="#CEE3CE" d="M289.506,24.128v2.077l7.938-7.938c-0.109-0.566-0.252-1.119-0.41-1.667L289.506,24.128z"/>
		<path fill="#CEE3CE" d="M288.074,16.532c0.252,0.456,0.465,0.935,0.654,1.423l6.172-6.172c-0.26-0.428-0.533-0.846-0.826-1.251
			L288.074,16.532z"/>
		<path fill="#CEE3CE" d="M4.54,19.273c-0.105,0.747-0.175,1.503-0.195,2.274L23.621,2.271c-0.771,0.021-1.526,0.089-2.273,0.196
			L4.54,19.273z"/>
		<path fill="#CEE3CE" d="M283.573,12.008c0.439,0.245,0.855,0.523,1.256,0.821l5.912-5.911c-0.377-0.318-0.773-0.613-1.174-0.903
			L283.573,12.008z"/>
		<polygon fill="#CEE3CE" points="289.506,33.222 289.506,35.299 297.821,26.993 297.821,24.916 		"/>
		<polygon fill="#CEE3CE" points="185.365,10.558 187.446,10.558 195.76,2.243 193.682,2.243 		"/>
		<path fill="#CEE3CE" d="M289.506,60.394v0.407c0,0.625-0.063,1.231-0.158,1.829l8.473-8.466v-2.076L289.506,60.394z"/>
		<polygon fill="#CEE3CE" points="289.506,42.302 289.506,44.379 297.821,36.064 297.821,33.986 		"/>
		<polygon fill="#CEE3CE" points="289.506,51.328 289.506,53.406 297.821,45.092 297.821,43.015 		"/>
		<polygon fill="#CEE3CE" points="212.569,10.558 214.647,10.558 222.961,2.243 220.883,2.243 		"/>
		<polygon fill="#CEE3CE" points="221.594,10.558 223.672,10.558 231.987,2.243 229.908,2.243 		"/>
		<polygon fill="#CEE3CE" points="203.512,10.558 205.592,10.558 213.914,2.243 211.834,2.243 		"/>
		<polygon fill="#CEE3CE" points="194.395,10.558 196.473,10.558 204.785,2.243 202.707,2.243 		"/>
		<polygon fill="#CEE3CE" points="248.795,10.558 250.873,10.558 259.188,2.243 257.11,2.243 		"/>
		<polygon fill="#CEE3CE" points="230.621,10.558 232.699,10.558 241.014,2.243 238.936,2.243 		"/>
		<polygon fill="#CEE3CE" points="257.823,10.558 259.901,10.558 268.215,2.243 266.137,2.243 		"/>
		<polygon fill="#CEE3CE" points="239.739,10.558 241.819,10.558 250.143,2.243 248.063,2.243 		"/>
		<polygon fill="#CEE3CE" points="62.251,72.323 60.174,72.323 51.859,80.638 53.937,80.638 		"/>
		<polygon fill="#CEE3CE" points="189.108,72.323 187.03,72.323 178.715,80.638 180.791,80.638 		"/>
		<polygon fill="#CEE3CE" points="198.135,72.323 196.057,72.323 187.74,80.638 189.821,80.638 		"/>
		<polygon fill="#CEE3CE" points="216.217,72.323 214.137,72.323 205.813,80.638 207.893,80.638 		"/>
		<polygon fill="#CEE3CE" points="207.16,72.323 205.082,72.323 196.77,80.638 198.848,80.638 		"/>
		<polygon fill="#CEE3CE" points="179.989,72.323 177.908,72.323 169.586,80.638 171.664,80.638 		"/>
		<polygon fill="#CEE3CE" points="170.934,72.323 168.856,72.323 160.541,80.638 162.619,80.638 		"/>
		<polygon fill="#CEE3CE" points="143.76,72.323 141.68,72.323 133.357,80.638 135.437,80.638 		"/>
		<polygon fill="#CEE3CE" points="152.879,72.323 150.801,72.323 142.487,80.638 144.565,80.638 		"/>
		<polygon fill="#CEE3CE" points="161.906,72.323 159.828,72.323 151.514,80.638 153.592,80.638 		"/>
		<polygon fill="#CEE3CE" points="270.59,72.323 268.512,72.323 260.198,80.638 262.276,80.638 		"/>
		<path fill="#CEE3CE" d="M12.633,22.286v-0.208c0-0.708,0.073-1.395,0.194-2.064l-8.51,8.509v2.078L12.633,22.286z"/>
		<polygon fill="#CEE3CE" points="261.563,72.323 259.485,72.323 251.17,80.638 253.246,80.638 		"/>
		<path fill="#CEE3CE" d="M279.803,72.166c-0.596,0.095-1.199,0.157-1.818,0.157h-0.42l-8.324,8.314h2.08L279.803,72.166z"/>
		<path fill="#CEE3CE" d="M297.635,63.369c0.096-0.737,0.156-1.485,0.17-2.247l-19.521,19.5c0.76-0.011,1.508-0.07,2.246-0.167
			L297.635,63.369z"/>
		<polygon fill="#CEE3CE" points="234.362,72.323 232.283,72.323 223.969,80.638 226.047,80.638 		"/>
		<polygon fill="#CEE3CE" points="225.334,72.323 223.256,72.323 214.942,80.638 217.02,80.638 		"/>
		<polygon fill="#CEE3CE" points="252.444,72.323 250.364,72.323 242.039,80.638 244.119,80.638 		"/>
		<polygon fill="#CEE3CE" points="243.389,72.323 241.311,72.323 232.996,80.638 235.074,80.638 		"/>
		<polygon fill="#CEE3CE" points="134.706,72.323 132.629,72.323 124.314,80.638 126.392,80.638 		"/>
		<path fill="#CEE3CE" d="M12.633,58.514v-2.078l-7.97,7.97c0.105,0.571,0.24,1.131,0.395,1.685L12.633,58.514z"/>
		<path fill="#CEE3CE" d="M13.99,66.217c-0.247-0.462-0.453-0.947-0.636-1.442l-6.198,6.191c0.259,0.431,0.527,0.853,0.816,1.262
			L13.99,66.217z"/>
		<path fill="#CEE3CE" d="M18.491,70.828c-0.437-0.248-0.852-0.526-1.25-0.828l-5.906,5.906c0.377,0.319,0.771,0.617,1.17,0.909
			L18.491,70.828z"/>
		<path fill="#CEE3CE" d="M26.023,72.323h-1.869c-0.066,0-0.132-0.009-0.199-0.01l-6.963,6.963c0.505,0.196,1.018,0.381,1.542,0.536
			L26.023,72.323z"/>
		<polygon fill="#CEE3CE" points="35.051,72.323 32.972,72.323 24.657,80.638 26.736,80.638 		"/>
		<polygon fill="#CEE3CE" points="12.633,31.384 12.633,29.307 4.318,37.611 4.318,39.689 		"/>
		<polygon fill="#CEE3CE" points="12.633,40.46 12.633,38.382 4.318,46.696 4.318,48.774 		"/>
		<polygon fill="#CEE3CE" points="125.679,72.323 123.601,72.323 115.286,80.638 117.365,80.638 		"/>
		<polygon fill="#CEE3CE" points="12.633,49.486 12.633,47.408 4.318,55.723 4.318,57.801 		"/>
		<polygon fill="#CEE3CE" points="98.478,72.323 96.4,72.323 88.085,80.638 90.163,80.638 		"/>
		<polygon fill="#CEE3CE" points="89.451,72.323 87.373,72.323 79.059,80.638 81.137,80.638 		"/>
		<polygon fill="#CEE3CE" points="107.532,72.323 105.453,72.323 97.131,80.638 99.21,80.638 		"/>
		<polygon fill="#CEE3CE" points="116.559,72.323 114.48,72.323 106.157,80.638 108.236,80.638 		"/>
		<polygon fill="#CEE3CE" points="44.104,72.323 42.025,72.323 33.702,80.638 35.781,80.638 		"/>
		<polygon fill="#CEE3CE" points="53.224,72.323 51.146,72.323 42.831,80.638 44.909,80.638 		"/>
		<polygon fill="#CEE3CE" points="71.278,72.323 69.199,72.323 60.885,80.638 62.964,80.638 		"/>
		<polygon fill="#CEE3CE" points="80.333,72.323 78.254,72.323 69.929,80.638 72.01,80.638 		"/>
	</g>
	<g>
		<path fill="#CEE3CE" d="M79.879,40.188c2.696-0.075,5.359-1.225,6.714-3.342c0.638-0.52,1.052-1.317,0.988-2.412
			c-0.355-4.989-2.138-9.503-6.771-11.878c-5.82-3.089-14.966-2.376-20.192,1.781c-6.058,4.869-4.395,12.591,0.237,17.816
			c2.853,3.207,6.89,5.464,9.503,8.908c0,0,0.09,0.205,0.229,0.522c-0.124-0.212-0.269-0.426-0.466-0.643
			c-3.444-3.92-12.115-3.325-14.254,1.663c-2.257,5.227,2.494,10.928,6.89,13.065c11.402,5.464,29.933-2.97,23.756-17.46
			C85.099,44.992,82.545,42.502,79.879,40.188z M71.665,54.743c-0.425-0.778-0.474-1.516-0.691-2.261
			C71.74,54.277,72.821,56.889,71.665,54.743z"/>
		<path fill="#CEE3CE" d="M122.503,28.731c1.781-3.207-0.831-6.533-4.038-7.483c-3.089-0.949-7.246-0.355-10.453-0.355
			c-4.112,0-8.332,0-12.453,0c-0.469-0.085-0.989-0.067-1.563,0.119c-3.683,1.307-7.482,4.395-4.751,8.671
			c1.744,2.703,5.217,2.844,8.396,2.729c-0.074,6.02-0.102,12.038-0.201,18.059c0,4.395-2.019,13.185,2.613,15.679
			c5.938,3.326,13.065-0.119,13.185-6.651c0.106-9.122,0.2-18.156,0.223-27.258C116.937,32.277,120.705,31.967,122.503,28.731z"/>
		<path fill="#CEE3CE" d="M155.524,49.636c-1.664-7.364-2.732-15.68-5.345-22.688c-1.9-4.987-6.414-6.889-11.642-6.058
			c-4.751,0.831-6.889,3.443-8.434,7.721c-2.851,7.603-4.869,15.561-7.126,23.28c-0.95,3.207-3.444,8.196-2.02,11.521
			c1.899,4.276,8.434,3.684,11.996,1.782c3.444-1.869,4.28-7.159,5.141-11.284c1.042,0,2.07,0,3.114,0
			c0.501,3.43,0.859,7.543,2.674,10.215c3.207,4.634,12.946,3.207,14.133-2.493c0.074-0.634-0.031-1.198-0.242-1.701
			C157.26,56.5,156.299,53.068,155.524,49.636z"/>
		<path fill="#CEE3CE" d="M190,49.047c4.537-4.034,5.455-10.336,5.076-16.871c-0.477-9.503-9.027-11.403-17.104-11.642
			c-0.328,0.01-0.625,0.063-0.904,0.139c-6.77,0.174-15.145,1.246-15.488,9.363c-0.236,7.604-0.236,15.323-0.354,23.044
			c-0.119,4.869-1.902,12.354,4.512,13.778c3.564,0.831,8.672-0.476,10.453-4.157c1.164-2.404,0.857-5.519,0.539-8.515
			c2.74,2.639,3.496,8.421,5.994,10.652c3.326,3.088,8.789,2.375,12.473,0.594c1.307-0.594,1.781-2.376,1.543-3.683
			C195.526,56.891,193.192,52.7,190,49.047z M177.379,42.271c-0.193,0.02-0.396,0.024-0.596,0.033c0-0.237,0-0.471,0-0.706
			c0.07-0.27,0.119-0.553,0.119-0.871c0-3.159,0.074-6.243,0.16-9.317c1.152,0.078,2.279,0.417,2.691,1.24
			c0.475,1.069,0.117,3.326,0.117,4.514C179.871,39.421,180.229,41.915,177.379,42.271z"/>
		<path fill="#CEE3CE" d="M226.553,21.248c-3.088-0.949-7.246-0.355-10.453-0.355c-4.111,0-8.332,0-12.451,0
			c-0.471-0.085-0.99-0.067-1.564,0.119c-3.682,1.307-7.482,4.395-4.75,8.671c1.744,2.703,5.217,2.844,8.396,2.729
			c-0.074,6.02-0.1,12.038-0.201,18.059c0,4.395-2.018,13.185,2.613,15.679c5.939,3.326,13.064-0.119,13.186-6.651
			c0.105-9.122,0.199-18.156,0.223-27.258c3.477,0.04,7.244-0.271,9.043-3.506C232.373,25.524,229.76,22.198,226.553,21.248z"/>
	</g>
	<g>
		<path fill="#004B39" d="M84.969,43.341c-1.068-1.069-2.494-2.376-4.275-3.802c-1.426-1.426-2.613-2.376-3.326-3.089
			c-0.831-0.712-1.544-1.544-2.376-2.73c-0.831-1.069-1.188-2.138-1.188-2.97c0-2.731,1.188-4.038,3.801-4.038
			c1.663,0,2.494,1.544,2.613,4.632c0,0.238,0,0.476,0.119,0.832c0,0.355,0.117,0.594,0.117,0.831c0,0.236,0,0.355,0,0.355
			c0.238,0.594,0.713,1.069,1.427,1.308c0.713,0.237,1.307,0.475,1.78,0.475c0.477,0,1.308,0,2.376,0
			c2.021,0,3.089-0.831,3.089-2.256c-0.356-6.891-4.275-10.334-11.879-10.334c-3.563,0-6.65,0.831-9.265,2.494
			c-2.375,1.544-3.563,3.443-3.563,5.938c0,1.663,0.595,3.326,1.544,4.989c1.068,1.663,2.02,2.851,2.97,3.801
			s2.376,2.138,4.276,3.801c1.662,1.308,2.73,2.257,3.563,3.089c0.831,0.831,1.544,1.781,2.375,3.089
			c0.832,1.307,1.188,2.493,1.188,3.682c0,3.445-1.308,5.227-3.921,5.227c-0.355,0-0.713-0.117-1.068-0.236
			c-0.356-0.119-0.712-0.356-0.831-0.595c-0.119-0.237-0.356-0.476-0.477-0.713c-0.236-0.236-0.236-0.594-0.355-0.949
			c-0.118-0.477-0.118-0.714-0.237-0.95c0-0.237-0.118-0.595-0.118-0.95c0-0.356,0-0.594,0-0.713c0-2.021-1.663-2.97-4.988-2.97
			c-3.207,0-4.751,1.068-4.751,3.325c0,2.258,1.188,4.276,3.325,6.178c2.139,1.78,4.988,2.73,8.553,2.73
			c9.265,0,13.896-3.682,13.896-11.284c0-1.425-0.476-2.851-1.426-4.395S86.037,44.41,84.969,43.341z"/>
		<path fill="#004B39" d="M122.385,23.148c-0.596-0.237-8.196-0.355-22.688-0.355c-1.781,0.355-2.851,1.068-3.207,2.02l-0.118,0.355
			c0,1.545,0.831,2.376,2.494,2.612c0.356,0,1.781,0,4.276,0h2.612c0,1.426,0,6.414-0.118,15.085
			c-0.119,8.554-0.119,13.541-0.237,14.849c0,0,0,0.236,0,0.713c0,0.355,0,0.831,0,1.425c0,0.832,0.237,1.426,0.831,1.9
			c0.594,0.355,1.782,0.595,3.683,0.595c1.068,0,1.9-0.119,2.731-0.477c0.831-0.356,1.307-0.594,1.663-0.949
			c0.355-0.356,0.475-0.595,0.475-0.714v-3.443c0-0.237,0-1.308,0-3.207c0-1.9,0-3.326,0-4.276
			c0.119-7.839,0.238-15.085,0.238-21.735c1.188,0,2.494,0,3.919,0c1.545,0,2.495,0,2.97,0c0.477,0,1.069-0.356,1.782-0.95
			c0.594-0.595,0.95-1.069,0.95-1.308c0-0.355-0.356-0.713-0.832-1.188C123.335,23.623,122.859,23.268,122.385,23.148z"/>
		<path fill="#004B39" d="M155.405,48.686c-0.594-2.613-1.426-6.177-2.494-10.809c-1.068-4.634-1.781-7.841-2.258-9.621
			c-0.117-0.832-0.236-1.544-0.474-2.021c-0.237-0.475-0.477-1.067-0.95-1.781c-0.476-0.713-1.069-1.188-1.9-1.544
			c-0.832-0.355-1.781-0.476-2.97-0.476c-1.426,0-2.73,0.237-3.682,0.476c-0.95,0.356-1.782,0.712-2.257,1.307
			c-0.596,0.476-0.95,1.068-1.188,1.545c-0.237,0.475-0.475,1.188-0.712,1.899l-0.238,0.714c-1.307,3.443-3.563,11.046-7.008,22.805
			l-2.138,7.482c-0.119,0.356-0.238,0.831-0.238,1.308c0,1.307,0.951,2.02,2.852,2.02c0.476,0,1.426-0.119,2.852-0.476
			c1.425-0.356,2.257-0.594,2.73-0.831c0.714-0.95,1.545-4.157,2.852-9.384l0.595-2.021c0.831,0,2.256,0,4.156,0
			c2.02,0,3.445,0,4.276,0l2.376,10.928c0.236,1.308,1.307,1.9,2.969,1.9c3.682,0,5.582-0.95,5.582-2.731
			c0-0.355,0-0.594-0.117-0.83L155.405,48.686z M143.288,44.766c-1.425,0-2.493,0-3.088,0l1.9-7.245
			c0.119-0.237,0.355-1.425,0.831-3.326c0.476-1.899,0.713-3.088,0.951-3.682l2.493,14.253
			C145.783,44.766,144.715,44.766,143.288,44.766z"/>
		<path fill="#004B39" d="M188.426,47.379c2.375-0.831,4.156-2.258,5.344-4.396c1.07-2.02,1.545-5.583,1.545-10.809
			c0-3.207-0.594-5.228-1.664-6.296c-2.256-2.258-6.295-3.325-12.234-3.325c-7.602,0-11.994,1.425-12.945,4.395l-0.594,33.614
			c0,0.713,0.355,1.188,0.949,1.426c0.596,0.238,1.545,0.356,2.971,0.356c1.662,0,2.852-0.356,3.801-1.188
			c0.951-0.831,1.426-1.425,1.426-1.78l-0.119-3.802c0-0.832,0-1.781,0-2.97c0-1.188-0.119-2.257-0.119-2.97
			c0-0.712,0-1.188,0-1.308c0.119,0,0.357,0,0.832,0c0.477,0,0.949,0,1.426,0c2.139,0.95,3.92,2.732,5.465,5.228
			c1.543,2.495,2.73,4.87,3.443,7.245c0.119,0.355,0.713,0.713,1.662,1.188c1.07,0.356,2.021,0.594,2.852,0.594
			c1.664,0,3.207-0.355,4.633-1.188C196.028,56.169,193.176,51.536,188.426,47.379z M186.643,34.433c0,0.594,0,1.307,0,2.257
			s0,1.544,0,1.662c0,1.545-0.475,2.852-1.424,3.92c-0.951,1.069-2.377,1.663-4.158,1.663h-3.801v-4.751
			c0-3.207,0-7.364,0.236-12.234c0-0.119,0.832-0.119,2.613-0.236c2.494,0,4.158,0.475,5.107,1.425s1.426,2.376,1.426,4.275V34.433
			L186.643,34.433z"/>
		<path fill="#004B39" d="M230.592,24.099c-0.477-0.477-0.951-0.831-1.426-0.95c-0.594-0.237-8.195-0.355-22.688-0.355
			c-1.781,0.355-2.852,1.068-3.207,2.02l-0.119,0.355c0,1.545,0.832,2.376,2.494,2.612c0.357,0,1.783,0,4.277,0h2.611
			c0,1.426,0,6.414-0.117,15.085c-0.119,8.554-0.119,13.541-0.238,14.849c0,0,0,0.236,0,0.713c0,0.355,0,0.831,0,1.425
			c0,0.832,0.238,1.426,0.832,1.9c0.594,0.355,1.781,0.595,3.682,0.595c1.068,0,1.9-0.119,2.732-0.477
			c0.832-0.355,1.307-0.594,1.662-0.949c0.355-0.356,0.475-0.595,0.475-0.714v-3.443c0-0.237,0-1.308,0-3.207c0-1.9,0-3.326,0-4.276
			c0.119-7.839,0.238-15.085,0.238-21.735c1.188,0,2.494,0,3.92,0c1.545,0,2.494,0,2.969,0c0.477,0,1.07-0.356,1.783-0.95
			c0.594-0.595,0.949-1.069,0.949-1.308C231.424,24.93,231.067,24.573,230.592,24.099z"/>
	</g>
	<g>
		<path fill="#2C9942" d="M80.693,22.436c7.603,0,11.521,3.444,11.878,10.334c0,1.425-1.068,2.257-3.089,2.257
			c-1.069,0-1.899,0-2.375,0s-1.069-0.237-1.782-0.476c-0.713-0.237-1.188-0.712-1.425-1.308c0,0,0-0.118,0-0.354
			c0-0.238-0.119-0.477-0.119-0.832c-0.119-0.356-0.119-0.594-0.119-0.831c-0.117-3.089-0.949-4.633-2.611-4.633
			c-2.613,0-3.802,1.307-3.802,4.039c0,0.831,0.355,1.899,1.188,2.969c0.831,1.188,1.544,2.02,2.375,2.731
			c0.713,0.714,1.9,1.663,3.326,3.089c1.781,1.426,3.207,2.731,4.274,3.801c1.069,1.068,2.021,2.257,2.971,3.801
			c0.95,1.545,1.426,2.97,1.426,4.396c0,7.603-4.633,11.284-13.897,11.284c-3.563,0-6.414-0.95-8.552-2.731
			c-2.138-1.9-3.326-3.92-3.326-6.178c0-2.257,1.544-3.324,4.751-3.324c3.326,0,4.989,0.949,4.989,2.969c0,0.119,0,0.355,0,0.713
			s0.118,0.713,0.118,0.95c0.119,0.238,0.119,0.476,0.238,0.95c0.117,0.355,0.117,0.713,0.355,0.949
			c0.118,0.238,0.356,0.477,0.476,0.714c0.118,0.236,0.476,0.476,0.831,0.594c0.355,0.119,0.713,0.238,1.068,0.238
			c2.613,0,3.92-1.782,3.92-5.228c0-1.188-0.355-2.376-1.188-3.683c-0.832-1.308-1.544-2.257-2.376-3.088
			c-0.831-0.831-1.9-1.782-3.563-3.089c-1.899-1.662-3.325-2.852-4.275-3.802c-0.949-0.95-1.9-2.138-2.97-3.801
			c-0.95-1.663-1.544-3.325-1.544-4.988c0-2.494,1.188-4.396,3.563-5.938C74.04,23.268,77.01,22.436,80.693,22.436z"/>
		<path fill="#2C9942" d="M99.935,24.692c0.356-0.95,1.425-1.663,3.207-2.02c14.49,0,22.093,0.118,22.687,0.355
			c0.476,0.119,0.95,0.477,1.427,0.95c0.475,0.476,0.831,0.832,0.831,1.188c0,0.237-0.356,0.713-0.95,1.307
			c-0.713,0.595-1.308,0.95-1.782,0.95s-1.425,0-2.969,0c-1.426,0-2.732,0-3.92,0c0,6.651-0.119,13.896-0.237,21.736
			c0,0.95,0,2.375,0,4.275c0,1.899,0,2.97,0,3.207v3.445c0,0.117-0.119,0.355-0.476,0.712c-0.356,0.355-0.831,0.595-1.663,0.949
			c-0.831,0.356-1.662,0.477-2.731,0.477c-1.9,0-3.089-0.237-3.683-0.594c-0.595-0.477-0.831-1.069-0.831-1.9
			c0-0.594,0-1.069,0-1.426c0-0.476,0-0.713,0-0.713c0.118-1.308,0.118-6.295,0.236-14.848c0.119-8.671,0.119-13.66,0.119-15.085
			h-2.731c-2.494,0-3.92,0-4.275,0c-1.663-0.237-2.495-1.068-2.495-2.612L99.935,24.692z"/>
		<path fill="#2C9942" d="M161.463,58.545c0.117,0.236,0.117,0.475,0.117,0.83c0,1.781-1.9,2.731-5.582,2.731
			c-1.662,0-2.732-0.594-2.971-1.9l-2.375-10.928c-0.832,0-2.256,0-4.275,0c-1.9,0-3.326,0-4.157,0l-0.595,2.021
			c-1.307,5.227-2.139,8.434-2.851,9.384c-0.476,0.237-1.307,0.475-2.731,0.831c-1.426,0.355-2.377,0.476-2.852,0.476
			c-1.9,0-2.851-0.713-2.851-2.02c0-0.477,0.118-0.95,0.236-1.308l2.139-7.482c3.444-11.76,5.702-19.36,7.008-22.806l0.238-0.713
			c0.236-0.713,0.475-1.426,0.713-1.899c0.236-0.477,0.594-1.069,1.188-1.545c0.476-0.595,1.308-0.949,2.257-1.307
			c0.95-0.237,2.258-0.476,3.683-0.476c1.188,0,2.139,0.119,2.969,0.476c0.832,0.355,1.426,0.831,1.9,1.544
			c0.477,0.713,0.713,1.308,0.949,1.781c0.238,0.476,0.357,1.188,0.477,2.021c0.475,1.78,1.188,4.987,2.258,9.62
			c1.068,4.633,1.9,8.195,2.494,10.81L161.463,58.545z M147.208,30.394c-0.236,0.594-0.475,1.782-0.949,3.683
			c-0.476,1.9-0.713,3.088-0.831,3.325l-1.9,7.246c0.594,0,1.663,0,3.088,0c1.427,0,2.494,0,3.088,0L147.208,30.394z"/>
		<path fill="#2C9942" d="M171.795,26.83c0.951-2.969,5.346-4.395,12.947-4.395c5.939,0,9.979,1.069,12.234,3.326
			c1.068,1.067,1.662,3.088,1.662,6.295c0,5.227-0.477,8.79-1.543,10.809c-1.189,2.14-2.971,3.563-5.348,4.396
			c4.754,4.157,7.604,8.789,8.672,14.016c-1.426,0.831-2.971,1.188-4.633,1.188c-0.832,0-1.781-0.237-2.85-0.595
			c-0.951-0.475-1.545-0.83-1.664-1.188c-0.713-2.376-1.9-4.751-3.445-7.246c-1.543-2.494-3.324-4.275-5.463-5.226
			c-0.475,0-0.951,0-1.426,0s-0.713,0-0.83,0c0,0.117,0,0.594,0,1.307c0,0.712,0.117,1.781,0.117,2.969c0,1.188,0,2.14,0,2.97
			l0.119,3.802c0,0.355-0.477,0.95-1.426,1.782c-0.949,0.83-2.139,1.188-3.801,1.188c-1.426,0-2.375-0.119-2.971-0.356
			c-0.594-0.236-0.949-0.713-0.949-1.425L171.795,26.83z M180.823,26.83c-0.236,4.87-0.236,9.027-0.236,12.234v4.751h3.801
			c1.783,0,3.207-0.594,4.158-1.662c0.949-1.068,1.426-2.376,1.426-3.92c0-0.119,0-0.713,0-1.663s0-1.663,0-2.257v-2.02
			c0-1.9-0.477-3.325-1.426-4.275c-0.951-0.95-2.613-1.426-5.107-1.426C181.774,26.712,180.823,26.712,180.823,26.83z"/>
		<path fill="#2C9942" d="M206.717,24.692c0.355-0.95,1.426-1.663,3.207-2.02c14.49,0,22.094,0.118,22.688,0.355
			c0.475,0.119,0.949,0.477,1.424,0.95c0.477,0.476,0.832,0.832,0.832,1.188c0,0.237-0.355,0.713-0.949,1.307
			c-0.713,0.595-1.307,0.95-1.781,0.95c-0.477,0-1.426,0-2.971,0c-1.426,0-2.73,0-3.92,0c0,6.651-0.119,13.896-0.236,21.736
			c0,0.95,0,2.375,0,4.275c0,1.899,0,2.97,0,3.207v3.445c0,0.117-0.119,0.355-0.477,0.712c-0.355,0.355-0.83,0.595-1.662,0.949
			c-0.832,0.356-1.664,0.477-2.73,0.477c-1.9,0-3.088-0.237-3.684-0.594c-0.594-0.477-0.832-1.069-0.832-1.9
			c0-0.594,0-1.069,0-1.426c0-0.476,0-0.713,0-0.713c0.119-1.308,0.119-6.295,0.238-14.848c0.119-8.671,0.119-13.66,0.119-15.085
			h-2.613c-2.494,0-3.92,0-4.275,0c-1.662-0.237-2.494-1.068-2.494-2.612L206.717,24.692z"/>
	</g>
</g>
</svg>
