<?xml version="1.0" encoding="utf-8"?>
<!-- Generator: Adobe Illustrator 22.1.0, SVG Export Plug-In . SVG Version: 6.00 Build 0)  -->
<svg version="1.1" id="Layer_1" xmlns="http://www.w3.org/2000/svg" xmlns:xlink="http://www.w3.org/1999/xlink" x="0px" y="0px"
	 viewBox="0 0 27 42" style="enable-background:new 0 0 27 42;" xml:space="preserve">
<style type="text/css">
	.st0{fill:#118933;}
	.st1{fill:#046938;}
	.st2{fill:#44454D;}
	.st3{fill:#0C6B38;}
	.st4{fill:#2D9947;}
	.st5{fill:#CEE3CE;}
</style>
<g>
	<path class="st0" d="M13.2,12.9c0,0.1,0,0.2,0,0.4c0.1,0.1,0.1,0.3,0.1,0.4c0,1.4,0,2.9-0.1,4.3c3-0.1,6.4,0.1,7.2,3.1
		c0.7,2.6-0.8,5.2-3.4,5.8c-1.2,0.3-2.3,0.1-3.5,0.1c0,1.2,0,2.3,0,3.5c0,0.7,0,1.4-0.1,2.2c3.4-0.2,7.5-0.1,7.7,3.9
		c0.2,5-5.9,4.6-9.2,4.7C9,41.4,4.5,41.8,3.4,38c-0.7-2.5-0.2-5.8-0.1-8.3c0.1-4.6,0.1-9,0.1-13.5c0-3.1-0.4-7.5,1.5-10.1
		c2.1-2.9,6.8-2,9.8-2c2.9,0,6.2,0.2,6.7,3.7C22.1,12.7,17.2,13,13.2,12.9z M13.5,25.4C13.9,24.8,13.6,24.8,13.5,25.4L13.5,25.4z"/>
	<path class="st1" d="M21.6,6.1c-0.5-2.7-3.4-2.6-5.5-2.6c-2.5,0-6.9-0.9-8.7,1.4C5.5,7.1,6,11.6,6,14.4c0,4.5,0,9-0.1,13.5
		c0,2.4-0.6,5.6,0.1,8c0.9,3.2,5.1,2.5,7.5,2.4c2.4-0.1,8.2,0.5,8-3.5c-0.2-3.5-5-2.9-7.8-2.6c0.1-2.7,0.1-5.4,0.1-8.1
		c0-0.1,0-0.1,0-0.2l0,0c0.4,0.2,1.4,0,1.8,0c1.3,0,2.6,0.1,3.8-0.6c1.9-1.2,2-4.5-0.2-5.4c-1.6-0.7-3.9-0.5-5.8-0.4
		c0.1-1.9,0.1-3.8,0.1-5.7l0,0c0-0.6,0.1-1.3,0.1-1.9C16.9,10.2,22.3,10.6,21.6,6.1z"/>
	<path class="st2" d="M15.8,14.8v0.6h2.9c3,0,4.5,0.5,4.5,3.6c0,1.9-1.7,3.2-4,3.2h-3.1v1.1c0,1.9,0,3.9-0.1,5.7V30
		c0.3,0,0.6-0.1,0.8-0.1c0.8-0.1,1.5-0.1,2.3-0.1c1.3,0,4.7,0,4.7,3.2c0,2-1.7,3.1-3.4,3.2l-0.8,0.1c-2,0.1-4.8,0.2-6.8,0.2
		c-2.5,0-5.2-0.3-5.2-4.1v-2.4c0.2-3.8,0.2-10.7,0.2-15.7c0-3.8,0-5.2,0.1-5.8l0.1-1.7C8,5.4,8.3,3.8,9.3,2.6l0.1-0.1
		c0.8-0.9,2.4-1.2,5.3-1.2c0.3,0,0.6,0,1,0.1c0.3,0,0.6,0,0.8,0h1.7c2.8,0,5.7,0,5.7,3.5c0,3.5-2.7,3.5-5.7,3.5h-0.5l-2,0.1
		c0,0.4,0,1,0,1.6c0,1.7,0,2.9-0.1,3.7C15.8,14.1,15.8,14.5,15.8,14.8z"/>
	<path class="st3" d="M17.8,5.9c3.7,0,4.2-0.3,4.2-1.9c0-1.9-1.2-2-4.2-2H16c-0.6,0-1.2-0.1-1.8-0.1c-2,0-3.6,0.2-4.2,0.8
		c-1.1,1.3-1,3.5-1.1,5c-0.1,0.3-0.1,2.6-0.1,5.8c0,4.9,0,12-0.2,15.8v2.4c0,2.1,0.8,2.6,3.7,2.6c2.4,0,5.6-0.2,7.5-0.3
		c1-0.1,2-0.7,2-1.7c0-1.4-1.1-1.7-3.2-1.7c-1.4,0-3.1,0.2-4.7,0.2l0.1-2.6c0.1-1.7,0.1-3.8,0.1-5.6v-2.4c0-0.2,0.3-0.3,1.2-0.3h3.4
		c1.2,0,2.5-0.5,2.5-1.7c0-1.6-0.2-2.1-3.1-2.1h-4.4l0.1-1.2v-1c0-0.9,0.1-2.1,0.1-4.8c0-0.3,0-2.8-0.2-3L17.3,6
		C17.2,5.9,17.8,5.9,17.8,5.9z"/>
	<path class="st4" d="M18.8,5c1.8,0,3-0.1,3.4-0.3C22.7,4.4,23,3.9,23,3.1c0-0.9-0.3-1.4-0.8-1.6c-0.6-0.2-1.7-0.3-3.4-0.3H17
		c-0.2,0-0.5,0-0.9,0c-0.5,0-0.7,0-0.9,0c-2.3,0-3.8,0.2-4.2,0.8c-0.2,0.3-0.3,0.5-0.5,0.9c-0.2,0.4-0.3,0.7-0.3,1.1
		c-0.1,0.4-0.2,0.8-0.2,1C9.9,5.1,9.9,5.5,9.9,6C9.8,6.6,9.8,6.9,9.8,7c-0.1,0.2-0.1,2.1-0.1,5.8c0,8-0.1,13.3-0.2,15.8V31
		c0,1.1,0.3,1.8,0.8,2.1c0.5,0.4,1.5,0.5,2.9,0.5c2.1,0,4.5-0.1,7.5-0.3c0.5-0.1,1-0.2,1.4-0.5c0.4-0.3,0.6-0.7,0.6-1.2
		c0-0.7-0.3-1.2-0.7-1.4c-0.5-0.2-1.3-0.3-2.4-0.3c-0.5,0-1.2,0.1-2.3,0.1c-1.1,0.1-1.9,0.1-2.4,0.1l0.1-2.6
		c0.1-1.2,0.1-3.1,0.1-5.7v-2.4c0-0.2,0.4-0.3,1.2-0.3h3.4c0.7,0,1.3-0.1,1.7-0.4c0.5-0.3,0.7-0.7,0.7-1.3c0-0.9-0.2-1.4-0.5-1.7
		c-0.4-0.3-1.2-0.4-2.6-0.4h-4.4l0.1-1.2v-1c0-0.1,0.1-0.7,0.1-1.7c0.1-1,0.1-2.1,0.1-3.1c0-2.1-0.1-3.2-0.2-3.2L18.5,5L18.8,5
		L18.8,5z"/>
	<path class="st3" d="M13.5,7.1L13.5,7.1c-0.1,0-0.1,0-0.2,0c0,0.1,0.1,0.1,0.1,0.1C13.4,7.1,13.4,7.1,13.5,7.1z M17.7,1.3
		C17.7,1.3,17.7,1.3,17.7,1.3C17.7,1.3,17.7,1.3,17.7,1.3L17.7,1.3C17.7,1.3,17.7,1.3,17.7,1.3z M22.3,31.6c0,0,0,0-0.1,0
		C22.2,31.6,22.3,31.6,22.3,31.6C22.3,31.6,22.3,31.6,22.3,31.6L22.3,31.6z M13.3,23.7c0-0.2-0.1-0.2-0.4-0.2c-0.1,0-0.2,0-0.2,0.1
		c0.1,0.1,0.2,0.2,0.3,0.3C13.1,23.9,13.3,23.8,13.3,23.7C13.3,23.8,13.3,23.8,13.3,23.7z M12.6,6C12.6,6,12.7,6,12.6,6L12.6,6
		C12.7,6,12.7,6,12.6,6L12.6,6z M13,2.6C13,2.6,13,2.6,13,2.6C13,2.7,13.1,2.7,13,2.6c0.1,0.1,0.1,0.1,0.1,0.1
		C13.1,2.6,13.1,2.6,13,2.6z M12.9,19.5c0,0.1,0,0.1,0.1,0.1l0.1-0.1C12.9,19.5,12.9,19.5,12.9,19.5C12.8,19.5,12.8,19.5,12.9,19.5z
		 M12.6,10.9C12.5,10.9,12.5,10.9,12.6,10.9C12.6,10.9,12.6,10.9,12.6,10.9z M12.5,3.5c-0.1,0-0.1,0-0.1,0.1L12.5,3.5
		C12.5,3.6,12.5,3.6,12.5,3.5C12.6,3.5,12.5,3.5,12.5,3.5z M12.6,11C12.6,10.9,12.6,10.9,12.6,11C12.6,10.9,12.6,10.9,12.6,11
		L12.6,11L12.6,11z M12.1,4.3c0.1,0.1,0.1,0.1,0.1,0.1c0.1,0,0.1,0,0.1-0.1C12.2,4.3,12.2,4.3,12.1,4.3C12.1,4.2,12.1,4.3,12.1,4.3z
		 M13,31.8L13,31.8C13.1,31.8,13.1,31.8,13,31.8c0.1,0.1,0.1,0.1,0.1,0H13z M13.1,6.6c0-0.1-0.1-0.1-0.1,0c-0.1,0-0.1,0,0,0.1
		C13,6.7,13.1,6.6,13.1,6.6z M13.2,6.6c0.1,0,0.2-0.1,0.2-0.1s0-0.1,0-0.1c-0.1,0-0.2,0.1-0.2,0.1V6.6z M13.4,6.4
		c-0.1,0-0.1,0-0.1,0.1C13.4,6.4,13.4,6.4,13.4,6.4C13.5,6.4,13.5,6.4,13.4,6.4z M13.1,6.6C13.1,6.6,13.2,6.6,13.1,6.6L13.1,6.6z
		 M13.4,29.4c0.1-0.1,0.1-0.1,0.1-0.1c0,0,0-0.1-0.1-0.1c-0.1,0-0.1,0-0.1,0.1C13.3,29.3,13.4,29.3,13.4,29.4z M13.4,1.6
		C13.4,1.5,13.4,1.5,13.4,1.6L13.4,1.6C13.4,1.6,13.4,1.6,13.4,1.6L13.4,1.6z M13.4,3.1c0.1-0.1,0.1-0.1,0.1-0.1c0,0-0.1,0-0.1-0.1
		C13.4,3.1,13.4,3.1,13.4,3.1C13.3,3.1,13.4,3.1,13.4,3.1z M13.6,6.5c0,0-0.1-0.1-0.1-0.1h0v0.1C13.5,6.5,13.5,6.5,13.6,6.5
		C13.6,6.5,13.6,6.5,13.6,6.5z M11.8,8.7L11.8,8.7C11.7,8.7,11.7,8.7,11.8,8.7C11.7,8.7,11.8,8.7,11.8,8.7
		C11.7,8.7,11.8,8.7,11.8,8.7z M11.1,27.9c0,0,0.1-0.1,0.1-0.1c0-0.1-0.1-0.1-0.1-0.1h-0.1C10.9,27.8,10.9,27.9,11.1,27.9z
		 M10.3,3.3L10.3,3.3c0,0.1,0,0.1,0.1,0.1c0,0,0-0.1,0-0.1C10.4,3.3,10.4,3.3,10.3,3.3z M10.9,4.7L10.9,4.7
		C10.8,4.7,10.8,4.7,10.9,4.7L10.9,4.7L10.9,4.7z M11.1,5.1c-0.2,0-0.3,0.1-0.3,0.2c0,0.1,0,0.1,0,0.1C11,5.4,11.2,5.2,11.1,5.1
		C11.2,5.1,11.1,5.1,11.1,5.1z M10.6,3.3C10.6,3.4,10.7,3.4,10.6,3.3c0.1,0,0.1,0,0.2,0h-0.1C10.7,3.3,10.7,3.3,10.6,3.3z M13,32.9
		C13,32.8,13,32.8,13,32.9c-0.1,0-0.1,0-0.2,0c0,0.1,0,0.1,0,0.1C12.9,32.9,12.9,32.9,13,32.9z M10.2,6.9c0-0.1,0.1-0.1,0.1-0.1
		c0,0-0.1,0-0.1-0.1C10.2,6.8,10.2,6.8,10.2,6.9C10.1,6.9,10.2,6.9,10.2,6.9z M10.3,21.9C10.3,21.9,10.3,21.9,10.3,21.9
		c0.1,0,0.1,0,0.2,0c0,0,0,0,0,0C10.3,21.9,10.3,21.9,10.3,21.9z M11.6,25.3L11.6,25.3c0.1,0.1,0.2,0.1,0.2,0.1
		c0.1-0.1,0.1-0.1,0.1-0.1c-0.1-0.1-0.1-0.1-0.2,0c0,0.1-0.1,0.1-0.1,0.1S11.6,25.3,11.6,25.3z M10.7,7.2l0.1-0.1c0-0.1,0-0.1,0-0.1
		c0-0.1,0-0.1-0.1-0.1C10.7,7,10.7,7,10.6,7c-0.1,0.1-0.2,0.1-0.2,0.1C10.5,7.2,10.6,7.2,10.7,7.2z M10.8,8.4
		C10.8,8.4,10.9,8.4,10.8,8.4L10.8,8.4C10.9,8.4,10.9,8.4,10.8,8.4L10.8,8.4z M11.3,13.9c-0.1,0.1-0.1,0.1-0.1,0.1L11.3,13.9
		C11.3,13.9,11.3,13.9,11.3,13.9C11.3,13.9,11.3,13.9,11.3,13.9z M11.2,19.9C11.2,19.9,11.3,19.9,11.2,19.9L11.2,19.9
		C11.3,19.9,11.3,19.9,11.2,19.9L11.2,19.9z M10.9,5.9L10.9,5.9C11,5.9,11,5.9,10.9,5.9C11,5.8,10.9,5.8,10.9,5.9L10.9,5.9z
		 M10.6,6.4c0,0-0.1,0-0.1,0c0-0.1-0.1,0-0.1,0C10.5,6.5,10.5,6.5,10.6,6.4C10.6,6.5,10.6,6.5,10.6,6.4z M10.7,11.7L10.7,11.7
		c0.1,0.1,0.1,0.1,0.2,0.1c0,0.1,0,0,0,0s0,0-0.1-0.1L10.7,11.7L10.7,11.7C10.8,11.7,10.7,11.7,10.7,11.7
		C10.6,11.7,10.7,11.7,10.7,11.7z M14.1,21.4c0.1,0,0.2-0.1,0.2-0.1C14.1,21.3,14,21.3,14.1,21.4z M22,30.6
		C22,30.6,21.9,30.6,22,30.6c0,0.1,0.1,0,0.1,0C22.1,30.5,22.1,30.5,22,30.6z M9.6,20.9c0,0.1,0,0.1,0,0.2c0.1,0,0.1-0.1,0.1-0.1
		C9.7,21,9.6,21,9.6,20.9z M9.9,7.5C9.9,7.5,9.7,7.5,9.7,7.5c0,0.1,0,0.2,0,0.4c0.1,0,0.1,0,0.1,0c0.2,0,0.2-0.1,0.3-0.1L10,7.7
		c-0.1,0-0.1-0.1-0.1-0.1C10.1,7.6,10.1,7.6,9.9,7.5z M9.9,21.3c-0.1-0.1-0.1-0.1-0.1-0.1l-0.1,0.1C9.8,21.3,9.8,21.3,9.9,21.3
		C9.8,21.3,9.9,21.3,9.9,21.3z M10,12.9c0,0-0.1,0-0.2,0.1V13H9.7c-0.1,0-0.1,0,0,0.1c0,0,0.1-0.1,0.1-0.1l0,0h0.1
		C10,12.9,10.1,12.9,10,12.9C10.1,12.9,10,12.9,10,12.9z M9.9,21.3L9.9,21.3C9.9,21.2,9.9,21.2,9.9,21.3z M22.3,30.5L22.3,30.5
		C22.3,30.4,22.3,30.4,22.3,30.5c-0.1,0-0.2,0-0.1,0C22.2,30.5,22.3,30.5,22.3,30.5z M21.3,32.6L21.3,32.6
		C21.3,32.6,21.3,32.6,21.3,32.6L21.3,32.6C21.3,32.6,21.3,32.6,21.3,32.6z M15.5,3.3L15.5,3.3C15.4,3.3,15.4,3.3,15.5,3.3
		c-0.1,0-0.1,0-0.1,0C15.4,3.4,15.4,3.4,15.5,3.3C15.5,3.3,15.5,3.3,15.5,3.3z M14.8,1.4c0,0-0.1,0-0.1,0c0-0.1-0.1,0-0.1,0
		C14.7,1.4,14.7,1.4,14.8,1.4C14.7,1.4,14.8,1.4,14.8,1.4z M17,4.9L17,4.9c0.2-0.1,0.2-0.2,0.1-0.2H17C16.9,4.8,16.9,4.9,17,4.9z
		 M17.4,4.3L17.4,4.3C17.5,4.3,17.5,4.3,17.4,4.3C17.4,4.3,17.4,4.3,17.4,4.3L17.4,4.3z M16.6,2.1C16.5,2.1,16.5,2.1,16.6,2.1
		L16.6,2.1c-0.1,0.1,0,0.1,0,0.1V2.1z M14.2,25.1c0,0-0.1,0-0.1,0c0-0.1-0.1,0-0.1,0C14.1,25.1,14.1,25.1,14.2,25.1
		C14.2,25.1,14.2,25.1,14.2,25.1z M16.7,3.3L16.7,3.3C16.7,3.3,16.7,3.3,16.7,3.3L16.7,3.3C16.7,3.3,16.7,3.3,16.7,3.3z M21.6,2.8
		c0-0.1-0.1-0.1-0.1-0.1l-0.1,0.1C21.4,2.8,21.5,2.8,21.6,2.8C21.5,2.8,21.6,2.8,21.6,2.8z M14.1,25.7
		C14.1,25.8,14.1,25.8,14.1,25.7L14.1,25.7C14.2,25.7,14.2,25.6,14.1,25.7L14.1,25.7z M20.7,1.4c0,0-0.1,0-0.1,0c0-0.1-0.1,0-0.1,0
		C20.6,1.4,20.6,1.4,20.7,1.4C20.6,1.4,20.7,1.4,20.7,1.4z M22.1,3.7L22.1,3.7C22.1,3.7,22.1,3.7,22.1,3.7z M17.4,4.1
		C17.3,4.1,17.3,4.1,17.4,4.1C17.3,4.1,17.4,4.1,17.4,4.1h0.1C17.4,4.1,17.4,4.1,17.4,4.1z M17.6,3c0,0,0,0.1,0.1,0.1
		c0.1,0,0.1-0.1,0.1-0.1c0-0.1-0.1-0.1-0.1-0.2C17.7,2.9,17.7,3,17.6,3z M17.9,4.6L17.9,4.6c-0.2,0.1-0.2,0.2-0.1,0.2
		c0,0,0.1-0.1,0.1-0.1C18,4.6,17.9,4.6,17.9,4.6z M22.1,3.7C22.1,3.7,22.1,3.7,22.1,3.7L22.1,3.7L22.1,3.7L22.1,3.7z M14.3,21.2
		c-0.1,0.1-0.1,0.1-0.1,0.1v0.1h0.1C14.3,21.3,14.4,21.2,14.3,21.2C14.4,21.2,14.3,21.2,14.3,21.2z M13.9,11.5
		C13.9,11.6,13.9,11.6,13.9,11.5c0.1,0,0.1,0,0.2,0c0,0,0,0-0.1,0C13.9,11.5,13.9,11.5,13.9,11.5z M14.3,19C14.3,19,14.2,19,14.3,19
		C14.3,19.1,14.3,19.1,14.3,19h0.1C14.3,19,14.3,19,14.3,19z M13.9,8.5L13.9,8.5L13.9,8.5c-0.1,0.1-0.1,0-0.2,0.1
		c-0.1,0,0,0.1,0.1,0.1h0.1c0.1,0.1,0.1,0.1,0.1,0.1c0,0.1,0.1,0,0.1,0S14,8.6,13.9,8.5z M13.8,33.3c0,0,0.1-0.1,0.1-0.1
		C13.9,33.2,13.8,33.2,13.8,33.3C13.7,33.3,13.6,33.3,13.8,33.3z M13.8,27.3L13.8,27.3C13.8,27.2,13.8,27.2,13.8,27.3L13.8,27.3
		C13.8,27.2,13.8,27.2,13.8,27.3z M14,26.3L14,26.3L14,26.3C14,26.3,14,26.3,14,26.3C14,26.3,14,26.3,14,26.3z M13.9,21.4
		C13.9,21.4,13.8,21.4,13.9,21.4c0,0.1,0.1,0,0.1,0C14,21.3,14,21.3,13.9,21.4z M14,33.2c-0.1,0-0.1,0-0.1,0.1l0,0l0,0L14,33.2
		C14,33.2,14,33.2,14,33.2C14,33.2,14,33.2,14,33.2z M14.1,1.3C14.1,1.3,14.1,1.3,14.1,1.3c0.1,0.1,0.1,0.1,0.2,0l0,0
		C14.1,1.3,14.1,1.3,14.1,1.3z M14.1,30.1c0.1-0.1,0.1-0.1,0.1-0.1c-0.1,0-0.1,0-0.1-0.1C14.1,30.1,14.1,30.1,14.1,30.1
		C14.1,30.1,14.1,30.1,14.1,30.1z M14.2,6.7c0.1,0,0.1-0.1,0.1-0.1c0-0.1-0.1-0.1-0.1-0.1C14.3,6.6,14.2,6.6,14.2,6.7L14.2,6.7
		L14.2,6.7z M14.1,6.8c0,0,0.1-0.1,0.1-0.1C14.2,6.7,14.2,6.7,14.1,6.8C14.1,6.7,14,6.7,14.1,6.8z M14.3,24.6L14.3,24.6
		C14.3,24.5,14.3,24.5,14.3,24.6L14.3,24.6C14.3,24.5,14.3,24.6,14.3,24.6z M19.3,2.9C19.2,2.9,19.2,2.8,19.3,2.9L19.3,2.9
		C19.2,3,19.2,3,19.3,2.9L19.3,2.9z M14.1,7.1L14.1,7.1C14.1,7.1,14.1,7.1,14.1,7.1L14.1,7.1C14.1,7.1,14.1,7.1,14.1,7.1z M16.2,1.6
		C16.2,1.6,16.2,1.6,16.2,1.6c-0.1,0-0.1,0-0.2,0c0,0.1,0.1,0.1,0.1,0.1C16.1,1.7,16.2,1.7,16.2,1.6z M14.9,21.6
		C14.9,21.7,14.9,21.7,14.9,21.6L14.9,21.6L14.9,21.6C14.9,21.7,14.9,21.6,14.9,21.6z M18.9,3.8L18.9,3.8
		C18.8,3.8,18.7,3.8,18.9,3.8L18.9,3.8C18.8,3.8,18.9,3.8,18.9,3.8z M19.3,5.2c0-0.1-0.1-0.1-0.1-0.1l-0.1,0.1
		c0.1,0.1,0.1,0.1,0.1,0.1C19.2,5.2,19.2,5.2,19.3,5.2L19.3,5.2z M15.4,16.8C15.4,16.7,15.4,16.7,15.4,16.8c-0.1,0-0.1,0-0.2,0
		c0,0.1,0.1,0.1,0.1,0.1C15.4,16.8,15.4,16.8,15.4,16.8z M18.4,4.1c0,0.1,0,0.2,0.1,0.2c0,0.1,0.1,0.1,0.1,0.1l0.1-0.1
		c0-0.1,0-0.3,0-0.4c0-0.1-0.1-0.1-0.1-0.1l-0.1,0.1C18.4,4,18.4,4.1,18.4,4.1z M15.7,18.5L15.7,18.5L15.7,18.5
		C15.8,18.5,15.8,18.5,15.7,18.5L15.7,18.5z M15.8,17.9c-0.1,0.1-0.1,0.1-0.1,0v0.1L15.8,17.9C15.8,17.9,15.8,17.9,15.8,17.9
		L15.8,17.9z M15.7,18c0-0.1-0.1-0.1-0.1,0c-0.1,0-0.1,0,0,0.1C15.6,18.1,15.6,18,15.7,18z M15.9,17.1L15.9,17.1
		C15.9,17.2,15.9,17.2,15.9,17.1c0.1,0.1,0.1,0.1,0.1,0C16,17.1,15.9,17.1,15.9,17.1z M18.2,3.1C18.2,3.1,18.2,3.1,18.2,3.1
		c0.1,0,0.1,0,0.2,0c0,0-0.1,0-0.1-0.1C18.2,3.1,18.2,3.1,18.2,3.1z M19.7,31.3L19.7,31.3C19.8,31.3,19.8,31.3,19.7,31.3
		C19.8,31.3,19.8,31.3,19.7,31.3C19.8,31.3,19.7,31.3,19.7,31.3z M21.1,32.2C21.1,32.3,21.1,32.3,21.1,32.2L21.1,32.2L21.1,32.2z
		 M21.2,32.2C21.2,32.2,21.2,32.2,21.2,32.2C21.2,32.2,21.2,32.2,21.2,32.2C21.2,32.2,21.2,32.2,21.2,32.2z M18.4,33
		c-0.1,0.1-0.2,0.1-0.2,0.1c0,0.1-0.1,0.1-0.1,0.1c0.1,0,0.1,0.1,0.2,0.1c0.2,0,0.3-0.1,0.2-0.2C18.5,33,18.4,33,18.4,33z
		 M15.1,32.4c0.1,0.1,0.1,0.1,0.1,0.1c0.1,0,0.1,0,0.1-0.1C15.3,32.3,15.2,32.3,15.1,32.4L15.1,32.4z M15.8,30.7L15.8,30.7
		C15.8,30.7,15.8,30.7,15.8,30.7L15.8,30.7C15.7,30.7,15.7,30.7,15.8,30.7z M18.5,3.6L18.5,3.6C18.4,3.6,18.4,3.6,18.5,3.6L18.5,3.6
		C18.5,3.6,18.5,3.6,18.5,3.6z M19,16.2C18.9,16.2,18.9,16.2,19,16.2c0,0.1,0.1,0,0.1,0C19,16.2,19,16.2,19,16.2z M19.2,17.6
		L19.2,17.6L19.2,17.6C19.2,17.6,19.2,17.6,19.2,17.6L19.2,17.6z M19.6,16.2c0.1,0,0.1-0.1,0.1-0.1c-0.2,0-0.3-0.1-0.5-0.1
		c-0.1,0-0.1,0-0.1,0.1c0,0,0.1,0.1,0.1,0.1C19.3,16.2,19.4,16.2,19.6,16.2z M20.3,17.9L20.3,17.9C20.3,17.9,20.3,17.9,20.3,17.9
		L20.3,17.9C20.3,17.9,20.3,17.9,20.3,17.9z M21.9,17L21.9,17c-0.2,0.1-0.2,0.2-0.1,0.2c0,0,0.1-0.1,0.1-0.1l0,0
		C22,17.1,21.9,17.1,21.9,17z M18.9,15.4C18.8,15.4,18.8,15.4,18.9,15.4C18.8,15.4,18.8,15.4,18.9,15.4L18.9,15.4
		C18.8,15.4,18.9,15.4,18.9,15.4z M13.4,7.6C13.5,7.6,13.5,7.6,13.4,7.6C13.5,7.5,13.4,7.5,13.4,7.6c-0.1-0.1-0.1-0.1-0.1-0.1
		C13.4,7.6,13.4,7.6,13.4,7.6z M14.9,21v-0.2l-0.1-0.1c-0.1,0.1-0.1,0.1-0.1,0.2C14.8,21,14.8,21,14.9,21C14.9,21,14.9,21,14.9,21z
		 M18.5,15.6c0-0.1-0.1-0.1-0.1-0.1l-0.1,0.1C18.4,15.6,18.4,15.6,18.5,15.6C18.5,15.6,18.5,15.6,18.5,15.6z M16.9,18
		C16.9,18,16.8,18,16.9,18L16.9,18C16.8,18,16.8,18,16.9,18L16.9,18z M16.3,16.3c0,0,0,0-0.1,0c0-0.1-0.1,0-0.1,0
		C16.3,16.3,16.3,16.3,16.3,16.3L16.3,16.3z M16.3,16.9C16.3,16.8,16.3,16.8,16.3,16.9C16.3,16.8,16.2,16.8,16.3,16.9
		c-0.1-0.1-0.1-0.1-0.1-0.1C16.3,16.9,16.3,16.9,16.3,16.9z M17.4,16.9L17.4,16.9C17.4,17,17.4,17,17.4,16.9h0.1
		C17.5,16.9,17.4,16.9,17.4,16.9z M17.4,17.2L17.4,17.2L17.4,17.2C17.4,17.2,17.5,17.2,17.4,17.2L17.4,17.2z M16.3,16.8L16.3,16.8
		C16.3,16.8,16.3,16.8,16.3,16.8z M17.2,17.9c0,0.1-0.1,0.1-0.1,0.1L17.2,17.9C17.1,17.9,17.2,17.9,17.2,17.9
		C17.2,17.9,17.2,17.9,17.2,17.9z"/>
	<path class="st5" d="M18.1,15.3h-0.8l-7.7,8c0,0.3,0,0.5,0,0.8L18.1,15.3z M9.6,12l5-5.2c0-0.3,0-0.5-0.1-0.8l-4.9,5.1
		C9.6,11.4,9.6,11.6,9.6,12z M9.6,17.2c0,0.3,0,0.5,0,0.8l4.9-5.1c0-0.2,0-0.5,0-0.8L9.6,17.2z M15.1,15.3h-0.6v-0.2l-4.9,5.1
		c0,0.3,0,0.5,0,0.8L15.1,15.3z M21.3,5c1.2-0.2,1.4-0.7,1.5-1.5L21.3,5z M14.6,9.8c0-0.3,0-0.5,0-0.8l-5,5.2c0,0.3,0,0.5,0,0.8
		L14.6,9.8z M9.8,4.8C9.7,5.2,9.7,5.5,9.7,5.8l4.3-4.5c-0.3,0-0.6,0.1-0.8,0.1L9.8,4.8z M15.5,5l0.8-0.1l3.5-3.7c-0.3,0-0.5,0-0.8,0
		L15.5,5z M18.5,4.9h0.1l0.1,0.2c0.2,0,0.3,0,0.5,0l3.2-3.3c-0.2-0.1-0.3-0.2-0.5-0.3L18.5,4.9z M9.6,8.9L17,1.3h-0.2
		c-0.2,0-0.4,0-0.6,0L9.6,8.1C9.6,8.3,9.6,8.6,9.6,8.9z M22.6,31.5c0-0.2-0.1-0.4-0.1-0.5l-2.2,2.3c0.1,0,0.2,0,0.3-0.1
		c0.2,0,0.5-0.1,0.7-0.1l1.3-1.4C22.6,31.7,22.6,31.6,22.6,31.5z M18.6,29.8c-0.3,0-0.6,0.1-0.8,0.1l-3.5,3.7c0.3,0,0.5,0,0.8,0
		L18.6,29.8z M15.6,30c-0.2,0-0.5,0-0.7,0v-0.1l-3.4,3.6c0.2,0.1,0.5,0.1,0.7,0.1L15.6,30z M14.9,27.7v-0.3c0-0.2,0-0.4,0-0.6
		l-5.2,5.4c0.1,0.2,0.2,0.4,0.3,0.5L14.9,27.7z M14.9,21.6v-0.8l-5.3,5.5c0,0.3,0,0.6-0.1,0.9L14.9,21.6z M14.9,24.6
		c0-0.3,0-0.5,0-0.8l-5.4,5.6v0.8L14.9,24.6z M21.4,30c-0.2-0.1-0.5-0.1-0.7-0.1l-3.4,3.6c0.3,0,0.6-0.1,0.8-0.1L21.4,30z M22,16.5
		l-2.5,2.6h0.1c0.3,0,0.6-0.1,0.8-0.1l1.6-1.7C22,17,22,16.7,22,16.5z M17.4,19.1l3.5-3.7c-0.2-0.1-0.4-0.1-0.7-0.1l-3.6,3.8H17.4z"
		/>
	<path class="st3" d="M22.9,4.7c0.5-0.7,0.5-2.1,0-2.8c-0.9-1.3-3.2-1-4.5-1c-2.2,0-5.3-0.7-7.3,0.5c-1.6,0.9-1.6,3.3-1.7,5
		c-0.4,6.3,0,12.6-0.2,18.8c-0.1,2.5-1.3,7.8,1.9,8.7c2.5,0.7,5.8,0.1,8.3-0.1c1.4-0.1,3.5-0.2,3.7-2.1c0.1-1.4-1-2-2.1-2.2
		c-1.3-0.2-2.9-0.2-4.2,0.1c-0.6,0.1-1.3,0.3-1.5,0.1c-0.2-0.3,0.1-1.4,0.1-1.8c0.1-2.3,0.1-4.7,0.1-7c0-1.3-0.1-1.3,1.1-1.3
		c1,0,2,0.1,3,0c3.6-0.3,4.1-4.4,0.3-4.7c-0.9-0.1-1.9,0-2.8,0c-0.5,0-1-0.1-1.5,0c-0.3,0.1-0.5,0-0.6,0c-0.1-0.6,0.1-1.5,0.1-2
		c0-1.4,0.1-2.7,0.1-4.1c0.1-0.1,0.2-0.2,0.2-0.4c0-0.8,0.1-1.9-0.1-2.8C17.3,5.8,21.7,6.3,22.9,4.7z M14.4,4.8
		c-0.3,0-0.5,0.3-0.4,0.5c0.4,0.8,0.3,2.1,0.3,3.1c0,2.3,0,4.7-0.1,7c0,0.2,0.2,0.4,0.4,0.4c1.7,0,3.5-0.2,5.2,0
		c3.5,0.5,0.6,2.9-1.4,2.9c-0.8,0-2.1-0.2-3,0.1c-1.3,0.4-0.8,1.7-0.8,3c0,2.8-0.1,5.5-0.1,8.3c0,0.2,0.2,0.4,0.4,0.4
		c1.8-0.1,3.6-0.3,5.3-0.2c1.5-0.2,1.7,0.6,0.9,2.4c-0.4,0.1-0.7,0.1-1.1,0.1C19.3,33,18.6,33,17.9,33c-1.6,0.1-3.2,0.2-4.7,0.2
		c-2-0.1-3.2-0.4-3.3-2.6c-0.2-5.8,0.2-11.6,0.2-17.4c0-2.7-0.2-5.5,0.2-8.3c0.6-4.3,5-3.2,8.1-3.2c1.1,0,4.2-0.4,3.9,1.7
		c-0.2,1.6-2.8,1.3-3.9,1.3C17.1,4.7,15.8,4.8,14.4,4.8z"/>
</g>
</svg>
