<?xml version="1.0" encoding="utf-8"?>
<!-- Generator: Adobe Illustrator 22.1.0, SVG Export Plug-In . SVG Version: 6.00 Build 0)  -->
<svg version="1.1" id="Layer_1" xmlns="http://www.w3.org/2000/svg" xmlns:xlink="http://www.w3.org/1999/xlink" x="0px" y="0px"
	 viewBox="0 0 27 42" style="enable-background:new 0 0 27 42;" xml:space="preserve">
<style type="text/css">
	.st0{fill:#118933;}
	.st1{fill:#046938;}
	.st2{fill:#44454D;}
	.st3{fill:#0C6B38;}
	.st4{fill:#2D9947;}
	.st5{fill:#CEE3CE;}
</style>
<g>
	<path class="st0" d="M18.2,4.1c-2.6-0.1-5,1.4-5.3,4.2c-0.2,1.4-0.1,2.8-0.1,4.2c-0.1,2.6-0.1,5.3-0.1,8c-0.4,0-0.7,0-1.1,0
		c0-2.5,0.1-5,0.1-7.5c0.1-3.4,0.7-7.1-3.2-8.3C6,3.8,2.6,4.4,1.8,7.4C1.2,9.5,1.4,12,1.5,14.1c0.1,5,0.1,10,0.1,15
		c0,3.1-1.2,8.4,1.1,10.9c1.6,1.7,5,1.9,6.8,0.5c2.9-2.1,2.5-7.4,2.4-11.4c0.2,0,0.4,0,0.6,0c-0.1,2.7-0.1,5.5,0.1,8.2
		c0.3,5,5.8,4.4,9,2.8c0.8-0.4,1.2-1.4,1.2-2.2c0.2-5.2,0.2-10.5,0.3-15.7c0.1-3.7,0.1-7.5,0.1-11.2c0-1.6,0.4-3.8-0.8-5
		C21.4,4.9,19.6,4.1,18.2,4.1z"/>
	<path class="st1" d="M19.7,3.5c-4.5-0.3-4.1,3.8-4.1,7.1c-0.1,3.1-0.1,6.1-0.2,9.2c-1.2-0.1-2.3-0.1-3.4-0.1c0-2.9,0-5.8,0.1-8.6
		c0.1-2.9,0.9-6-2.3-7.1C7.9,3.5,5.2,3.7,4.5,6c-0.6,1.9-0.3,4.4-0.2,6.4c0.1,5,0.1,10,0.1,15c0,2-0.1,4.1-0.1,6.1
		c0,1.4-0.2,2.7,0.8,3.8c1.2,1.3,4,1.4,5.3,0.3c1.9-1.5,1.6-4.6,1.6-6.8c0-1.6,0-3.2,0-4.8c1.1,0,2.2,0,3.2-0.1
		c-0.1,3.1-0.2,6.4,0,9.5c0.3,3.8,4.8,2.9,7.2,1.7c0.4-0.2,0.6-0.7,0.6-1.1c0.2-5.2,0.2-10.5,0.3-15.7c0.1-3.7,0.1-7.5,0.1-11.2
		c0-1.3,0.4-3.1-0.4-4.2C22.4,4.1,20.8,3.6,19.7,3.5z"/>
	<path class="st2" d="M25.7,3.8c0.1,1.7,0.1,3.9,0.1,6c0,9.8-0.3,22.7-0.4,24.3L25.3,35l-0.7,0.4c-1.2,0.8-2.7,1.2-4,1.2
		c-2.6,0-3.5-1.4-3.5-2.7v-5.6c0-1.3,0-2.7,0-4.1h-2.7v5.2c0,2.6,0,6.5-3.2,7.1h-0.3h-1c-2.8,0-3.8-1.8-3.8-3.5c0-1.5,0-3,0.1-4.4
		c0-1.2,0-2.3,0-3.3v-5c0-3.7,0-6.5-0.1-8.6c0-1.3,0-2.4,0-3.2c0-2.6,0.1-3.4,0.1-4.1c0.3-2.9,3-2.9,4.2-2.9c1.6,0,4.1,1,4.1,3.1
		c-0.1,5.5-0.2,9.7-0.2,12.8c0.3,0,0.5,0,0.8,0c0.6,0,1.4,0,2.1,0.1l0.2-13.2c0-1.6,1.8-3.1,4-3.1c1.2,0,2.4,0.5,3.7,1.5L25.7,3.8z"
		/>
	<path class="st3" d="M20.9,1.8c-1.4,0-2.5,0.8-2.5,1.6l-0.2,14.8C17.2,18,15.8,18,14.7,18c-0.9,0-1.6,0-2.3,0.1
		c0-3.4,0.1-8,0.2-14.4c0-0.9-1.5-1.5-2.6-1.5c-1.3,0-2.5,0.1-2.7,1.5C7.2,4.3,7.1,5,7.1,7.6c0,2.2,0.1,5.8,0.1,11.8v5
		c0,2.2-0.1,4.8-0.1,7.7C7.1,33.5,8,34,9.5,34h1c2-0.4,2-3.2,2-5.6v-6.7l5.7-0.1c-0.1,1.6-0.1,3.7-0.1,5.6v5.7
		c0,0.9,1.1,1.2,2.1,1.2c0.9,0,2.2-0.4,3.2-0.9c0.1-1.6,0.4-14.5,0.4-24.2c0-2.1,0-4.3-0.1-6C22.6,2.1,21.8,1.8,20.9,1.8z"/>
	<path class="st4" d="M21.9,1.3c-0.7,0-1.3,0.2-1.7,0.5c-0.5,0.4-0.7,0.7-0.7,1.1l-0.2,14.8c-1.3-0.1-2.5-0.1-3.5-0.1
		c-1.1,0-1.8,0-2.3,0.1c0-3.2,0.1-8.1,0.2-14.4c0-0.5-0.3-0.8-0.7-0.9c-0.6-0.3-1.2-0.4-1.8-0.4c-0.5,0-1,0-1.3,0.1
		C9.5,1.9,9.2,2,8.8,2.2c-0.3,0.2-0.5,0.5-0.5,1C8.3,4.1,8.2,5.4,8.2,7.2c0,0.4,0.1,1.9,0.1,4.4c0.1,2.5,0.1,5,0.1,7.3v5
		c0,0.7-0.1,1.9-0.1,3.6c-0.1,1.7-0.1,3.1-0.1,4.1c0,1.2,0.8,1.9,2.3,1.9h1c0.6-0.1,1.1-0.5,1.4-1.2c0.3-0.7,0.5-1.3,0.5-1.9
		c0.1-0.7,0.1-1.4,0.1-2.5v-6.7l5.7-0.1c-0.1,1.1-0.1,3-0.1,5.6v5.7c0,0.8,0.7,1.2,2.1,1.2c1.2,0,2.2-0.4,3.2-0.9
		c0.3-6.4,0.4-14.5,0.4-24.2c0-2.9,0-4.9-0.1-6C23.7,1.6,22.8,1.3,21.9,1.3z"/>
	<path class="st3" d="M20.6,16.3L20.6,16.3C20.5,16.4,20.6,16.4,20.6,16.3L20.6,16.3C20.6,16.4,20.5,16.4,20.6,16.3z M20,26.8
		c-0.1,0-0.1,0.1-0.1,0.1c0,0.1,0.1,0.1,0.1,0.1C20,26.9,20,26.9,20,26.8C20,26.8,20,26.8,20,26.8z M20.4,23
		c0.1,0.1,0.1,0.1,0.1,0.1c0.1,0,0.1,0,0.1-0.1C20.6,22.9,20.5,22.9,20.4,23L20.4,23z M20.6,16.6C20.6,16.5,20.5,16.5,20.6,16.6
		L20.6,16.6C20.5,16.6,20.5,16.6,20.6,16.6L20.6,16.6z M20.8,2.5L20.8,2.5c0-0.1,0.1-0.1-0.1-0.1c-0.1,0-0.1,0.1-0.1,0.1
		C20.7,2.5,20.7,2.5,20.8,2.5C20.7,2.5,20.8,2.5,20.8,2.5z M19.8,27.1L19.8,27.1L19.8,27.1C19.8,27.1,19.8,27.1,19.8,27.1L19.8,27.1
		z M19.9,18.9c-0.1,0-0.1,0-0.1-0.1c-0.1,0.1-0.1,0.1-0.1,0.1c0,0,0,0.1,0.1,0.1C19.9,19,19.9,18.9,19.9,18.9z M19.6,27L19.6,27
		C19.7,26.9,19.7,26.9,19.6,27c0.1-0.1,0.1-0.1,0.1-0.2c0-0.1,0-0.1,0-0.1c0-0.1-0.1-0.1-0.2-0.1l-0.1,0.1
		C19.7,26.7,19.5,26.8,19.6,27z M19.9,31.3L19.9,31.3C20,31.3,20,31.3,19.9,31.3L19.9,31.3L19.9,31.3z M20.8,19.8
		c0-0.1-0.1-0.1-0.1-0.1l-0.1,0.1C20.7,19.8,20.7,19.8,20.8,19.8C20.8,19.8,20.8,19.8,20.8,19.8z M20.9,2.2
		c-0.1,0.1-0.1,0.1-0.1,0.1L20.9,2.2C20.9,2.2,20.9,2.2,20.9,2.2C20.9,2.2,20.9,2.2,20.9,2.2z M20.9,7.5L20.9,7.5L20.9,7.5
		C20.9,7.5,20.9,7.5,20.9,7.5C20.9,7.5,20.9,7.5,20.9,7.5z M20.8,2.9C20.7,2.9,20.7,2.9,20.8,2.9c-0.2,0.1-0.2,0.2-0.1,0.2h0.1
		C20.9,3,20.9,2.9,20.8,2.9z M20.7,29.1L20.7,29.1C20.7,29.1,20.7,29.1,20.7,29.1C20.8,29.1,20.8,29.1,20.7,29.1
		C20.7,29.1,20.7,29.1,20.7,29.1z M20.8,12.7c0-0.1-0.1-0.1-0.1-0.1l-0.1,0.1C20.7,12.8,20.7,12.8,20.8,12.7
		C20.8,12.7,20.8,12.7,20.8,12.7z M20.7,16.2L20.7,16.2C20.7,16.2,20.7,16.2,20.7,16.2c0.1,0.1,0.1,0.1,0.1,0
		C20.8,16.2,20.7,16.2,20.7,16.2z M19.7,4.7L19.7,4.7C19.6,4.7,19.7,4.7,19.7,4.7L19.7,4.7C19.7,4.7,19.7,4.7,19.7,4.7z M19.7,13.1
		C19.7,13.2,19.6,13.2,19.7,13.1L19.7,13.1C19.7,13.2,19.7,13.2,19.7,13.1L19.7,13.1z M19.8,7.3c0,0,0.1-0.1,0.1-0.1
		c0-0.1-0.1-0.1-0.1-0.1h-0.1C19.7,7.2,19.7,7.3,19.8,7.3z M19.8,8.7C19.8,8.8,19.8,8.8,19.8,8.7c0.1,0,0.1,0,0.2,0
		c0,0-0.1,0-0.1-0.1C19.9,8.7,19.8,8.7,19.8,8.7z M20.9,21.1L20.9,21.1L20.9,21.1C20.9,21.1,20.9,21.1,20.9,21.1L20.9,21.1z
		 M19.6,3.8c0,0,0.1-0.1,0.1-0.1C19.7,3.7,19.7,3.7,19.6,3.8C19.6,3.7,19.5,3.7,19.6,3.8z M19.9,22.4c0.1,0,0.1,0,0.1,0
		C20,22.4,20,22.4,19.9,22.4C19.9,22.4,19.9,22.4,19.9,22.4L19.9,22.4z M19.4,19.5L19.4,19.5L19.4,19.5z M20,4c0,0-0.1,0-0.1-0.1
		h-0.1v0.1c-0.1,0-0.1-0.1-0.2,0c-0.1,0,0,0.1,0,0.1c0.1,0,0.1,0.1,0.1,0C20,4,20,4,20,4C20,4.1,20,4,20,4z M19.8,5.8
		c0.1-0.1,0.1-0.1,0.1-0.1c0-0.1-0.1-0.1-0.1-0.1C19.8,5.8,19.7,5.8,19.8,5.8C19.7,5.8,19.8,5.8,19.8,5.8z M19.8,17.7L19.8,17.7
		C19.8,17.7,19.8,17.7,19.8,17.7L19.8,17.7C19.8,17.7,19.7,17.7,19.8,17.7z M19.8,14.5c-0.1,0-0.1,0-0.1,0.1c0,0.1,0,0.1,0,0.1
		C19.8,14.5,19.8,14.5,19.8,14.5C19.9,14.5,19.8,14.5,19.8,14.5z M19.7,14.7L19.7,14.7C19.6,14.7,19.6,14.7,19.7,14.7
		C19.6,14.7,19.6,14.7,19.7,14.7C19.6,14.7,19.7,14.7,19.7,14.7z M19.3,19.7C19.3,19.7,19.3,19.7,19.3,19.7c0.1,0,0.2,0,0.2,0
		c0-0.1,0-0.1,0-0.1c0-0.1-0.1-0.1-0.1-0.1c-0.1,0.1-0.1,0.1-0.1,0.1V19.7z M19.5,26.1c0.1,0.1,0.1,0.1,0.1,0.1
		c0.1,0,0.1-0.1,0.1-0.1C19.7,26,19.6,26,19.5,26.1L19.5,26.1z M19.7,15C19.7,15,19.6,15,19.7,15L19.7,15C19.7,15,19.7,15,19.7,15
		L19.7,15z M19.8,12c0,0-0.1,0.1-0.1,0.1c0.1,0.1,0.1,0.1,0.1,0.1c0.1-0.1,0.1-0.1,0.1-0.1C19.8,12,19.9,12,19.8,12z M19.8,6.2
		c0,0,0.1-0.1,0.1-0.1c0-0.1-0.1-0.1-0.1-0.1h-0.1C19.7,6.1,19.7,6.2,19.8,6.2z M22.3,18.1c-0.1,0.1-0.1,0.1-0.1,0.1
		c0,0,0.1,0.1,0.1,0.1c0.1,0,0.1-0.1,0.1-0.1S22.3,18.2,22.3,18.1z M22.4,13.7c-0.1,0-0.1,0-0.1,0C22.3,13.8,22.4,13.8,22.4,13.7
		C22.3,13.7,22.4,13.7,22.4,13.7S22.4,13.6,22.4,13.7z M22.4,31.9L22.4,31.9C22.4,31.9,22.4,31.9,22.4,31.9L22.4,31.9
		C22.4,31.9,22.4,31.9,22.4,31.9z M22.1,18.7c0,0,0.1,0,0.1,0c0,0.1,0.1,0,0.1,0C22.2,18.7,22.2,18.7,22.1,18.7L22.1,18.7z
		 M22.3,28.1c0,0-0.1,0-0.1,0.1c0,0.1,0.1,0.1,0.1,0.1C22.3,28.1,22.3,28.1,22.3,28.1C22.4,28.1,22.3,28.1,22.3,28.1z M22.2,17.7
		L22.2,17.7C22.2,17.7,22.2,17.7,22.2,17.7z M22.2,17.7C22.2,17.8,22.2,17.8,22.2,17.7L22.2,17.7C22.2,17.7,22.2,17.7,22.2,17.7
		L22.2,17.7z M22.4,2.8c0-0.1-0.1-0.1-0.1-0.1l-0.1,0.1C22.3,2.9,22.3,2.9,22.4,2.8C22.4,2.9,22.4,2.8,22.4,2.8z M22.7,16.7
		L22.7,16.7C22.7,16.7,22.7,16.7,22.7,16.7C22.7,16.7,22.7,16.7,22.7,16.7L22.7,16.7z M22.7,3.8c0,0-0.1,0-0.1,0c0-0.1-0.1,0-0.1,0
		C22.7,3.8,22.7,3.8,22.7,3.8L22.7,3.8z M22.4,9.5C22.4,9.5,22.4,9.6,22.4,9.5c0.1,0.1,0.2,0.1,0.2,0.1V9.5
		C22.6,9.5,22.5,9.5,22.4,9.5z M22.6,9.8C22.6,9.8,22.6,9.8,22.6,9.8C22.5,9.8,22.5,9.8,22.6,9.8L22.6,9.8
		C22.5,9.8,22.6,9.8,22.6,9.8z M22.2,5.9c-0.1,0-0.1,0-0.1,0.1L22.2,5.9C22.2,5.9,22.2,5.9,22.2,5.9C22.2,5.9,22.2,5.9,22.2,5.9z
		 M22.6,11C22.5,11,22.5,11,22.5,11c0,0.1,0.1,0.1,0.1,0.1C22.6,11,22.6,11,22.6,11C22.6,11,22.6,11,22.6,11z M22.5,10.2
		C22.5,10.1,22.6,10.1,22.5,10.2C22.6,10.1,22.6,10.1,22.5,10.2C22.5,10.1,22.5,10.1,22.5,10.2L22.5,10.2z M22.4,18.4
		c0.1,0.1,0.1,0.1,0.1,0.1c0,0,0.1,0,0.1-0.1C22.6,18.3,22.5,18.4,22.4,18.4L22.4,18.4z M22.1,3.6L22.1,3.6C22,3.6,22,3.6,22.1,3.6
		c-0.1-0.1-0.1-0.1-0.1,0C21.9,3.6,22,3.6,22.1,3.6z M21.2,15.7c-0.1,0.1-0.1,0.1-0.1,0.1c0,0.1,0.1,0.1,0.1,0.1
		S21.1,15.7,21.2,15.7C21.2,15.7,21.2,15.7,21.2,15.7z M21.1,13.1L21.1,13.1C21.1,13,21.1,13,21.1,13.1L21.1,13.1
		C21.1,13.1,21.1,13.1,21.1,13.1z M21.7,32.7C21.7,32.8,21.7,32.8,21.7,32.7c0.1,0,0.1,0,0.2,0c0-0.1-0.1-0.1-0.1-0.1
		C21.7,32.7,21.7,32.8,21.7,32.7z M21.1,16c-0.1,0-0.1,0-0.1,0.1c0,0.1,0.1,0.1,0.1,0.1C21.1,16.1,21.1,16.1,21.1,16
		C21.2,16,21.1,16,21.1,16z M21.1,16.2L21.1,16.2C21.1,16.2,21.1,16.2,21.1,16.2L21.1,16.2C21.1,16.2,21.1,16.2,21.1,16.2z
		 M21.2,32.1C21.2,32.1,21.3,32.1,21.2,32.1L21.2,32.1C21.2,32.1,21.2,32.1,21.2,32.1L21.2,32.1z M21.6,32.8c0,0,0-0.1-0.1-0.1
		c0-0.1-0.1-0.1-0.1-0.1h-0.1c-0.1,0.1-0.1,0.2-0.2,0.2c0.1,0.1,0.1,0.1,0.2,0.1C21.5,33,21.6,33,21.6,32.8z M21.2,5.8
		c0.1,0,0.1,0,0.1-0.1c0-0.1-0.1-0.1-0.1-0.1C21.2,5.8,21.2,5.8,21.2,5.8C21.2,5.8,21.2,5.8,21.2,5.8z M22.1,17.4L22.1,17.4
		C22.2,17.4,22.2,17.4,22.1,17.4z M21.8,24.4c-0.1-0.1-0.1-0.1-0.1-0.1l-0.1,0.1C21.7,24.4,21.7,24.4,21.8,24.4L21.8,24.4z
		 M22.2,21.5c-0.1,0-0.1-0.1-0.1-0.1l-0.1,0.1C22.2,21.5,22.2,21.5,22.2,21.5C22.2,21.5,22.2,21.5,22.2,21.5z M22.1,17.4
		C22.1,17.4,22.2,17.4,22.1,17.4L22.1,17.4C22.1,17.4,22.1,17.4,22.1,17.4L22.1,17.4z M22.2,21.5L22.2,21.5
		C22.3,21.4,22.2,21.4,22.2,21.5z M21.8,5.8c-0.1,0-0.1,0.1-0.1,0.1c0,0.1,0,0.1,0,0.1c0,0,0,0.1-0.1,0.1C21.7,6,21.7,6,21.8,6
		C21.9,6,22.1,6,22.1,6c0.1-0.1,0-0.1-0.1-0.1C21.9,5.9,21.9,5.9,21.8,5.8L21.8,5.8z M20.9,12.5L20.9,12.5
		C20.8,12.6,20.8,12.6,20.9,12.5L20.9,12.5C20.9,12.5,20.9,12.5,20.9,12.5z M22.2,32.7L22.2,32.7c0.1-0.1,0.2-0.1,0.2-0.1
		c0.1-0.1,0.1-0.2,0.4-0.2c0.1,0,0.1-0.1,0.1-0.1c0-0.1-0.1-0.1-0.2,0c-0.1,0.1-0.4,0-0.4,0.1C22.3,32.5,22.2,32.6,22.2,32.7
		C22.1,32.7,22.2,32.7,22.2,32.7z M12.5,3.4h-0.1c-0.1,0-0.1,0.1-0.1,0.1l0.1,0.1C12.5,3.5,12.5,3.5,12.5,3.4L12.5,3.4z M22.7,9.6
		C22.7,9.7,22.7,9.6,22.7,9.6C22.7,9.6,22.7,9.6,22.7,9.6l-0.1-0.1v0.1C22.7,9.6,22.7,9.6,22.7,9.6z M12.6,10.7
		c0-0.1,0.1-0.1,0.1-0.1c0-0.1-0.1-0.1-0.1-0.1C12.6,10.6,12.5,10.7,12.6,10.7C12.5,10.7,12.6,10.7,12.6,10.7z M12.6,3.3
		c-0.1,0-0.1,0-0.1,0.1l0,0l0,0L12.6,3.3C12.6,3.3,12.7,3.3,12.6,3.3L12.6,3.3z M12.4,15L12.4,15C12.4,15,12.4,15,12.4,15L12.4,15
		C12.4,15,12.4,15,12.4,15z M12.3,21.2c-0.1,0-0.1,0-0.1,0.1c0,0.1,0.1,0.1,0.1,0.1C12.2,21.2,12.3,21.2,12.3,21.2
		C12.3,21.2,12.3,21.2,12.3,21.2z M12.5,6C12.5,6,12.4,6,12.5,6L12.5,6C12.4,6.1,12.5,6.1,12.5,6L12.5,6z M12.6,3
		C12.6,3,12.5,3,12.6,3L12.6,3C12.6,3,12.6,3,12.6,3L12.6,3z M12.2,21.5L12.2,21.5L12.2,21.5C12.2,21.5,12.2,21.5,12.2,21.5
		L12.2,21.5z M12.4,5.9C12.4,5.9,12.5,5.9,12.4,5.9L12.4,5.9L12.4,5.9L12.4,5.9z M13,6.4C13,6.4,13,6.4,13,6.4L13,6.4L13,6.4L13,6.4
		z M13,9.8c0-0.1,0.1-0.1,0.1-0.1C13.1,9.7,13,9.6,13,9.8C13,9.7,13,9.7,13,9.8C12.9,9.8,13,9.8,13,9.8z M13,6.9L13,6.9
		C13,6.9,13,6.9,13,6.9L13,6.9C12.9,6.9,13,6.9,13,6.9z M12.5,5.8c0.1-0.1,0.1-0.1,0.1-0.1c-0.1-0.1-0.1-0.1-0.1-0.1
		c-0.1,0-0.1,0.1-0.1,0.1C12.4,5.7,12.4,5.8,12.5,5.8C12.4,5.9,12.5,5.8,12.5,5.8L12.5,5.8z M13,14.1L13,14.1
		C13,14.1,13,14.1,13,14.1C13,14,13,14,13,14.1C13,14.1,13,14.1,13,14.1z M12.1,14.6C12.1,14.6,12,14.6,12.1,14.6
		C12.1,14.7,12.1,14.7,12.1,14.6c0,0.1,0.1,0.1,0.1,0H12.1z M12.9,21.3C12.9,21.3,13,21.3,12.9,21.3L12.9,21.3
		C13,21.3,13,21.3,12.9,21.3L12.9,21.3z M11.8,5.2L11.8,5.2L11.8,5.2L11.8,5.2z M11.1,13.9c0-0.1-0.1-0.1-0.1-0.1c0,0,0,0-0.1,0
		c0,0.1,0.1,0.1-0.1,0.2c-0.2,0.1-0.2,0.2-0.2,0.3c0,0,0,0.1,0,0.1c0.1,0,0.1,0,0.1,0c0.1,0,0.1,0,0.1,0c0.1-0.1,0.1-0.1,0.1-0.2
		c0.1-0.1,0.1-0.1,0.1-0.1C11.1,14.1,11.1,14,11.1,13.9z M11,22.9L11,22.9C11,22.9,11,22.9,11,22.9L11,22.9C11,22.9,11,22.9,11,22.9
		z M11.3,13.6c-0.1,0-0.2-0.1-0.2-0.1c0-0.1-0.1-0.1-0.1-0.1c0,0-0.1,0.1-0.1,0.1c0,0.1,0,0.2,0,0.2C11.1,13.7,11.2,13.6,11.3,13.6z
		 M10.7,13.9c0,0.1,0.1,0.1,0.2,0.1c0-0.1,0-0.1,0-0.1v-0.1C10.8,13.8,10.8,13.8,10.7,13.9z M10.8,33.3L10.8,33.3
		C10.8,33.4,10.8,33.4,10.8,33.3L10.8,33.3C10.8,33.4,10.8,33.4,10.8,33.3z M10.6,14.9L10.6,14.9C10.7,14.9,10.7,14.9,10.6,14.9
		L10.6,14.9C10.7,14.9,10.6,14.9,10.6,14.9z M10.8,29.3c0,0-0.2,0-0.3,0c-0.1,0-0.2,0-0.2,0.1c0,0,0.3,0.1,0.4,0.1
		C10.8,29.3,10.9,29.3,10.8,29.3C10.9,29.3,10.9,29.3,10.8,29.3z M10.7,14.6c-0.1,0.1-0.1,0.1,0.1,0.2v0.1c0.2,0,0.2-0.1,0.2-0.1
		c0-0.1,0-0.1-0.2-0.3C10.7,14.4,10.6,14.4,10.7,14.6z M12.3,4.8C12.3,4.8,12.3,4.8,12.3,4.8C12.3,4.8,12.3,4.8,12.3,4.8z
		 M11.9,25.8L11.9,25.8C12,25.8,12,25.8,11.9,25.8L11.9,25.8C11.8,25.8,11.8,25.8,11.9,25.8z M11.9,14.4L11.9,14.4
		C11.8,14.4,11.9,14.4,11.9,14.4L11.9,14.4C12,14.4,11.9,14.4,11.9,14.4z M12.3,4.8L12.3,4.8L12.3,4.8L12.3,4.8L12.3,4.8z
		 M10.7,14.8L10.7,14.8L10.7,14.8L10.7,14.8z M10.6,14.7L10.6,14.7c-0.2-0.1-0.2,0-0.2,0.1c0,0.1,0.1,0.1,0.2,0.1c0.1,0,0.1,0,0.2,0
		c0,0,0,0,0.1,0C10.7,14.8,10.6,14.7,10.6,14.7L10.6,14.7z M11.8,5.3C11.8,5.2,11.8,5.2,11.8,5.3C11.8,5.2,11.8,5.2,11.8,5.3
		C11.8,5.2,11.7,5.2,11.8,5.3L11.8,5.3z M12.9,14.7C12.9,14.7,13,14.7,12.9,14.7c0.1,0.1,0.2,0,0.2,0c0-0.1,0-0.1,0-0.1
		c0-0.1-0.1-0.1-0.1-0.1s-0.1,0-0.1,0C12.7,14.5,12.8,14.6,12.9,14.7L12.9,14.7z M17.8,20c-0.1,0.1-0.1,0.2,0,0.2h0.1
		C18,20.1,18,20,17.8,20C17.9,20,17.9,20,17.8,20z M19.3,7.9c0.1,0,0.1,0.1,0.1,0.1c0.1-0.1,0.1-0.1,0.1-0.1V7.8
		c-0.1,0-0.1-0.1-0.1-0.1c-0.1,0-0.1,0.1-0.1,0.1S19.3,7.8,19.3,7.9z M19.5,18.1c-0.1,0.1-0.1,0.2,0,0.2h0.1
		C19.6,18.3,19.6,18.1,19.5,18.1L19.5,18.1z M20.2,8.4L20.2,8.4C20.3,8.3,20.2,8.3,20.2,8.4h-0.1C20.2,8.4,20.2,8.4,20.2,8.4z
		 M12.9,7.5C12.9,7.5,12.8,7.5,12.9,7.5C12.8,7.5,12.8,7.5,12.9,7.5L12.9,7.5C12.8,7.5,12.9,7.5,12.9,7.5z M19.8,3.7
		c0.1,0,0.1-0.1,0.1-0.1c0-0.1-0.1-0.1-0.1-0.1C19.8,3.6,19.7,3.7,19.8,3.7C19.7,3.7,19.8,3.7,19.8,3.7z M14.2,18.4
		c0.1,0,0.1,0,0.1-0.1c0-0.1-0.1-0.1-0.1-0.1C14.2,18.4,14.2,18.4,14.2,18.4C14.1,18.4,14.2,18.4,14.2,18.4z M15.1,20L15.1,20
		C15.1,20,15.1,20,15.1,20C15.2,20,15.1,20,15.1,20C15.1,20,15.1,20,15.1,20z M17.5,19L17.5,19C17.5,19,17.5,19,17.5,19L17.5,19
		L17.5,19z M20.3,24.9c-0.1-0.1-0.1-0.1-0.1-0.1c-0.1,0.1-0.1,0.1-0.1,0.1c0.1,0.1,0.1,0.1,0.1,0.1C20.3,25,20.3,24.9,20.3,24.9z
		 M20,31L20,31L20,31z M19.6,21.5c0-0.1-0.1-0.1-0.1-0.2c-0.1,0.1-0.1,0.1-0.1,0.2c0,0,0.1,0.1,0.1,0.1
		C19.6,21.5,19.6,21.5,19.6,21.5z M20,31L20,31C20,31,20,31,20,31L20,31L20,31z M20,22.5C20,22.6,20,22.6,20,22.5L20,22.5
		C20,22.6,20,22.6,20,22.5C20,22.6,20,22.6,20,22.5z M20.2,7.7L20.2,7.7C20.3,7.6,20.2,7.6,20.2,7.7L20.2,7.7
		C20.2,7.7,20.2,7.7,20.2,7.7z M20.2,7C20.2,6.9,20.2,6.9,20.2,7L20.2,7C20.2,7,20.2,7,20.2,7L20.2,7z M14.3,18.3
		C14.3,18.3,14.2,18.3,14.3,18.3L14.3,18.3C14.2,18.3,14.2,18.3,14.3,18.3L14.3,18.3z M20.3,29.3c0.1-0.1,0.1-0.1,0.1-0.1
		c0-0.1-0.1-0.1-0.1-0.1C20.4,29.3,20.3,29.3,20.3,29.3C20.3,29.3,20.3,29.3,20.3,29.3z M13,26.4L13,26.4c-0.2,0.1-0.2,0.1-0.1,0.2
		H13C13.1,26.5,13.1,26.4,13,26.4z M13.2,12.7L13.2,12.7C13.2,12.7,13.2,12.7,13.2,12.7L13.2,12.7C13.1,12.7,13.1,12.7,13.2,12.7z
		 M13,29.6L13,29.6C13,29.6,13,29.6,13,29.6C13,29.6,13,29.6,13,29.6C13,29.6,13,29.6,13,29.6z M13.2,6.1
		C13.1,6.1,13.2,6.1,13.2,6.1c0.1,0.1,0.1,0.1,0.2,0.1c0,0,0-0.1,0.1-0.1V6C13.4,6,13.4,6,13.3,6C13.2,6,13.1,6,13.2,6.1z M13.2,7.1
		C13.2,7.1,13.2,7.1,13.2,7.1L13.2,7.1C13.2,7.1,13.2,7.1,13.2,7.1C13.2,7.1,13.2,7.1,13.2,7.1z M12.8,19L12.8,19
		C12.8,19,12.8,19,12.8,19L12.8,19C12.9,19,12.8,19,12.8,19z M12.8,13.6L12.8,13.6C12.9,13.5,12.8,13.5,12.8,13.6L12.8,13.6
		C12.8,13.5,12.8,13.5,12.8,13.6z M12.8,29.4L12.8,29.4L12.8,29.4C12.9,29.3,12.8,29.3,12.8,29.4L12.8,29.4z M13.9,19.8
		c0.1-0.1-0.1-0.1-0.2-0.1c0-0.1-0.1-0.1-0.1-0.1c-0.1,0-0.1,0.1-0.1,0.1C13.6,19.9,13.7,19.9,13.9,19.8
		C13.9,19.8,13.9,19.8,13.9,19.8z M13.8,19.4L13.8,19.4C13.6,19.4,13.6,19.4,13.8,19.4L13.8,19.4C13.7,19.4,13.8,19.4,13.8,19.4z
		 M13.6,20.2c0.1,0.1,0.1,0.1,0.1,0.1c0,0.1,0.1,0,0.1,0S13.7,20.2,13.6,20.2L13.6,20.2L13.6,20.2z M13.9,18.2L13.9,18.2
		C13.9,18.2,13.9,18.2,13.9,18.2c0.1,0,0.1,0,0.1,0C13.9,18.2,13.9,18.2,13.9,18.2z M13.9,17.6C13.9,17.5,13.9,17.5,13.9,17.6
		L13.9,17.6C13.9,17.5,13.8,17.5,13.9,17.6L13.9,17.6z M14,18.2L14,18.2C14,18.2,14,18.2,14,18.2z M13.4,20L13.4,20
		c-0.1,0.1-0.1,0.2,0.1,0.2c0,0.1,0.1,0.1,0.1-0.1c0-0.1,0-0.1,0-0.1C13.6,20,13.5,20,13.4,20z M13.3,8.4c0,0.1,0.1,0.1,0.1,0.1
		c0-0.1,0-0.1,0-0.1C13.3,8.3,13.3,8.3,13.3,8.4C13.3,8.3,13.3,8.4,13.3,8.4z M22.8,8.2L22.8,8.2C22.8,8.3,22.8,8.3,22.8,8.2
		L22.8,8.2C22.9,8.2,22.8,8.2,22.8,8.2z M23.5,2.8L23.5,2.8c-0.1,0-0.1,0-0.2,0c0,0.1,0.1,0.1,0.1,0.1S23.4,2.8,23.5,2.8z M23.4,15
		c0-0.1,0.1-0.1,0.1-0.1c0-0.1-0.1-0.1-0.1-0.1C23.4,15,23.4,15,23.4,15L23.4,15z M23.8,14.5C23.7,14.5,23.7,14.5,23.8,14.5
		c-0.1,0-0.2,0.1-0.2,0.1c0.1,0.1,0.1,0.1,0.2,0.1c0.1,0,0.2,0,0.3,0l0.1-0.1c0-0.1-0.1-0.1-0.1-0.1C23.9,14.5,23.8,14.5,23.8,14.5z
		 M23.5,15L23.5,15L23.5,15z M23.5,20c0.1,0.1,0.1,0.1,0.1,0.1c0,0.1,0.1,0,0.1,0C23.6,20,23.6,20,23.5,20L23.5,20L23.5,20z
		 M23.7,22.2C23.7,22.2,23.7,22.2,23.7,22.2C23.7,22.2,23.7,22.2,23.7,22.2z M23.3,19.8c0,0.1,0,0.1,0.1,0.2c0.1,0,0.1,0,0.1-0.1
		c0,0,0-0.1,0-0.1C23.4,19.7,23.4,19.7,23.3,19.8L23.3,19.8z M23.4,17.9C23.4,17.8,23.4,17.8,23.4,17.9L23.4,17.9
		C23.4,17.8,23.4,17.8,23.4,17.9L23.4,17.9z M24.2,24.1L24.2,24.1C24.2,24,24.2,24,24.2,24.1z M8,10.2L8,10.2C8,10.3,8,10.2,8,10.2
		C8,10.2,8,10.2,8,10.2z M8,19.2L8,19.2L8,19.2L8,19.2z M24.1,24L24.1,24C24.1,24.1,24.1,24.1,24.1,24h0.1H24.1z M8,28.2L8,28.2
		C8.1,28.2,8.1,28.2,8,28.2L8,28.2C8.1,28.2,8.1,28.2,8,28.2z M23.4,22.5L23.4,22.5c0.2-0.1,0.4-0.2,0.3-0.3c0-0.1,0-0.1,0.1-0.1
		c-0.1-0.1-0.2,0.1-0.2,0.1C23.5,22.4,23.3,22.4,23.4,22.5C23.3,22.5,23.4,22.5,23.4,22.5z M8.3,15L8.3,15C8.3,15,8.3,15,8.3,15
		L8.3,15L8.3,15z M24.1,5.9C24.1,6,24.1,6,24,6C24,6,24.1,6,24.1,6C24.1,6,24.1,6,24.1,5.9C24.2,5.9,24.1,5.9,24.1,5.9z M23.2,1.8
		C23.2,1.8,23.2,1.8,23.2,1.8C23.2,1.8,23.2,1.8,23.2,1.8L23.2,1.8L23.2,1.8z M23.2,22.8c0.1-0.1,0.1-0.1,0.1-0.1
		c0-0.1-0.1-0.1-0.1-0.1S23.2,22.7,23.2,22.8C23.1,22.8,23.2,22.8,23.2,22.8z M23,22.4C23,22.4,23,22.4,23,22.4
		C23,22.4,23,22.4,23,22.4L23,22.4C23,22.4,23,22.4,23,22.4z M23.1,3.3L23.1,3.3L23.1,3.3L23.1,3.3C23,3.3,23.1,3.3,23.1,3.3z
		 M22,25.4c-0.1,0.1-0.1,0.1-0.1,0.1L22,25.4C22,25.4,22,25.4,22,25.4C22.1,25.4,22,25.4,22,25.4z M8,28.2L8,28.2
		C8,28.2,8,28.2,8,28.2z M21.9,16.3L21.9,16.3C22,16.4,22,16.4,21.9,16.3c0.1,0.1,0.1,0.1,0.1,0C22.1,16.3,22,16.3,21.9,16.3z
		 M21.9,32C21.9,32,21.9,32,21.9,32c0.1,0,0.1,0,0.2,0c0-0.1-0.1-0.1-0.1-0.1C22,32,21.9,32,21.9,32z M22,19.4L22,19.4L22,19.4
		L22,19.4L22,19.4z M23.8,20.1L23.8,20.1C23.7,20.1,23.8,20.1,23.8,20.1L23.8,20.1C23.8,20.1,23.8,20.1,23.8,20.1z M23.9,3.4
		c0-0.1-0.1-0.1-0.1-0.1l-0.1,0.1C23.8,3.5,23.8,3.5,23.9,3.4C23.8,3.4,23.8,3.4,23.9,3.4z M23.9,9.2L23.9,9.2
		C24,9.2,24,9.2,23.9,9.2L23.9,9.2C24,9.2,23.9,9.2,23.9,9.2z M23.8,22.1L23.8,22.1c-0.1-0.1-0.1-0.1-0.2,0v0.1h0.1
		C23.8,22.2,23.8,22.1,23.8,22.1z M23,7.3c0,0.1-0.1,0.1-0.1,0.1c0,0.1,0.1,0.1,0.1,0.1S23,7.4,23,7.3L23,7.3z M23,15.6
		C23,15.6,22.8,15.6,23,15.6C22.9,15.6,22.9,15.6,23,15.6L23,15.6C22.9,15.6,23,15.6,23,15.6z M10.7,22.3L10.7,22.3
		c0.1-0.1,0.1-0.1,0.1-0.1c-0.1,0-0.1-0.1-0.1-0.1C10.5,22.1,10.5,22.2,10.7,22.3z M23.1,8.1C23.1,8,23.1,8,23,8l0,0.1
		C23.1,8.1,23.1,8.1,23.1,8.1L23.1,8.1z M8,7.3C8,7.4,8.1,7.4,8,7.3c0.1,0.1,0.2,0,0.2,0c0-0.1,0-0.1,0-0.1c0-0.1-0.1-0.1-0.1-0.1
		C8.1,7.2,8,7.2,8,7.2V7.3z M21.9,10.8L21.9,10.8C21.9,10.9,22,10.9,21.9,10.8L21.9,10.8C22,10.8,21.9,10.8,21.9,10.8z M24.5,23.2
		L24.5,23.2L24.5,23.2C24.5,23.2,24.4,23.2,24.5,23.2C24.4,23.2,24.5,23.2,24.5,23.2z M10.2,5.6c-0.1,0-0.2,0.1-0.2,0.1
		C10.1,5.8,10.2,5.7,10.2,5.6z M24.4,9.8c0-0.1,0.1-0.1,0.1-0.1C24.5,9.7,24.5,9.6,24.4,9.8C24.5,9.7,24.4,9.7,24.4,9.8
		C24.4,9.8,24.4,9.8,24.4,9.8z M11.3,2.8C11.3,2.8,11.2,2.8,11.3,2.8c-0.1,0-0.1,0-0.2,0c0,0.1,0.1,0.1,0.1,0.1S11.2,2.8,11.3,2.8z
		 M11.1,11.8c0,0.1,0,0.1,0.1,0.1h0.1c0.1-0.1,0.1-0.1,0.1-0.1c0-0.1,0-0.1-0.1-0.1c0-0.1-0.1-0.1-0.1-0.1c-0.1,0-0.1,0.1-0.1,0.1
		S11.1,11.7,11.1,11.8z M11.2,6.4C11.2,6.5,11.3,6.4,11.2,6.4C11.2,6.4,11.2,6.4,11.2,6.4c-0.1,0-0.1,0-0.1,0H11.2z M11,11.8
		c0,0,0,0.1,0,0.1c0,0,0.2-0.1,0.2-0.1s0-0.1,0-0.1C11,11.8,11,11.8,11,11.8z M11.2,19.8c0.1-0.1,0.1-0.1,0.1-0.1
		c0-0.1-0.1-0.1-0.1-0.1C11.2,19.7,11.1,19.7,11.2,19.8C11.1,19.8,11.2,19.8,11.2,19.8z M11,12.7c0,0,0.3,0,0.3-0.1
		C11.2,12.6,11,12.6,11,12.7L11,12.7z M11.3,29.1c0,0,0.1-0.1,0.1-0.1C11.4,29,11.4,29,11.3,29.1C11.3,29.1,11.2,29.1,11.3,29.1z
		 M11.4,13.4c-0.1,0.1-0.1,0.1-0.1,0.1c0,0.1,0,0.1,0.1,0.1h0.1C11.5,13.4,11.5,13.4,11.4,13.4C11.4,13.4,11.3,13.4,11.4,13.4z
		 M10.4,5.6C10.4,5.6,10.3,5.6,10.4,5.6c0-0.1-0.2-0.1-0.2,0v0.1h0.1C10.3,5.6,10.4,5.6,10.4,5.6z M10.4,5.2
		C10.4,5.2,10.3,5.2,10.4,5.2c0-0.1-0.2-0.1-0.2-0.1c-0.1,0-0.1,0.1-0.2,0.1c0.1,0,0.1,0.1,0.2,0.1C10.2,5.2,10.3,5.2,10.4,5.2
		C10.3,5.2,10.4,5.2,10.4,5.2z M10.1,4.8L10.1,4.8C10.1,4.8,10.1,4.8,10.1,4.8L10.1,4.8L10.1,4.8z M11.5,21.3c0,0-0.1,0.1-0.1,0.1
		c0,0.1,0.1,0.1,0.1,0.1C11.5,21.3,11.5,21.3,11.5,21.3C11.6,21.3,11.5,21.3,11.5,21.3z M11.6,9.6L11.6,9.6
		C11.6,9.6,11.6,9.6,11.6,9.6c-0.1-0.1-0.1-0.1-0.1,0C11.5,9.6,11.6,9.6,11.6,9.6z M11.1,8.8C11.1,8.8,11.1,8.8,11.1,8.8
		c-0.1-0.1-0.2,0-0.2,0c0,0.1,0,0.1,0,0.2C11,9,11,9,11.1,9c0-0.1,0.1-0.1,0.1-0.1C11.1,8.9,11.1,8.8,11.1,8.8
		C11.1,8.8,11.1,8.8,11.1,8.8z M11.4,21.1c0.1,0.1,0.1,0.1,0.1,0.1c0.1,0,0.1,0,0.1-0.1C11.6,21.1,11.5,21.1,11.4,21.1
		C11.5,21.1,11.4,21.1,11.4,21.1z M24,1.9L24,1.9L24,1.9C24,1.9,24,1.9,24,1.9L24,1.9C24.1,1.9,24,1.9,24,1.9L24,1.9z M21.2,20.8
		c0-0.1-0.1-0.1-0.1-0.1L21,20.8C21.1,20.8,21.1,20.8,21.2,20.8C21.1,20.8,21.1,20.8,21.2,20.8z M19.4,25.8
		c-0.1-0.1-0.1-0.1-0.1-0.1h-0.1v-0.1c-0.1,0-0.1-0.1-0.2,0c-0.1,0,0,0.1,0.1,0.1h0.1l0.1,0.1C19.3,25.8,19.3,25.8,19.4,25.8
		L19.4,25.8z M19.1,30.4L19.1,30.4C19.1,30.4,19.1,30.4,19.1,30.4L19.1,30.4C19.1,30.4,19.1,30.4,19.1,30.4z M24.2,5.6L24.2,5.6
		L24.2,5.6z M10.5,6.3L10.5,6.3L10.5,6.3c0.1,0.1,0.2,0,0.2,0h-0.1C10.6,6.3,10.6,6.3,10.5,6.3z M11.6,29C11.6,29,11.5,29,11.6,29
		c-0.1-0.1-0.1,0-0.2,0v0.1h0.1C11.5,29.1,11.6,29,11.6,29z M24.1,5.7C24.1,5.8,24.2,5.8,24.1,5.7L24.1,5.7
		C24.2,5.7,24.2,5.6,24.1,5.7L24.1,5.7z M11.4,33.3c0,0-0.1,0-0.1,0c0-0.1-0.1,0-0.1,0C11.4,33.3,11.4,33.3,11.4,33.3L11.4,33.3z
		 M11,3.5C11.1,3.5,11.1,3.5,11,3.5C11,3.5,11,3.5,11,3.5h-0.1C11,3.5,11,3.5,11,3.5z M11.1,8.4C11.1,8.4,11.1,8.4,11.1,8.4
		C11.1,8.3,11,8.3,11,8.3c0-0.1,0-0.1-0.1-0.1c0,0.1-0.1,0.1-0.1,0.1C10.8,8.4,11,8.5,11.1,8.4z M11.7,25.6
		c-0.1-0.1-0.1-0.1-0.1-0.2c0,0-0.1,0-0.1,0l-0.1,0.1c0,0.1,0,0.1,0,0.1c0,0.1,0.1,0.1,0.1,0.1C11.6,25.6,11.6,25.6,11.7,25.6
		C11.7,25.6,11.7,25.6,11.7,25.6z M10.3,9.1C10.3,9.2,10.2,9.2,10.3,9.1L10.3,9.1C10.3,9.2,10.3,9.2,10.3,9.1L10.3,9.1z M8.7,24.4
		c-0.1,0-0.1,0-0.2,0.1c0,0,0,0.1,0,0.1c0.1,0,0.2-0.1,0.2-0.1V24.4z M8.5,24.6c0,0,0.1-0.1,0.1-0.1C8.6,24.6,8.5,24.6,8.5,24.6
		C8.4,24.6,8.3,24.6,8.5,24.6z M8.5,20.9L8.5,20.9C8.5,20.9,8.5,20.9,8.5,20.9C8.5,20.9,8.5,20.9,8.5,20.9L8.5,20.9z M11.2,12.4
		L11.2,12.4C11.2,12.3,11.2,12.3,11.2,12.4L11.2,12.4C11.2,12.4,11.2,12.4,11.2,12.4z M9.1,25.1c0,0,0-0.1-0.1-0.1
		c0,0.1-0.1,0.1-0.1,0.1c0,0,0,0.1-0.1,0.1l-0.1,0.1c0.1,0.1,0.1,0.1,0.2,0.1C9.1,25.3,9.1,25.2,9.1,25.1z M8.8,24.2
		c0,0-0.1,0.1-0.1,0.1v0.1h0.1C8.8,24.3,8.9,24.3,8.8,24.2C8.9,24.2,8.8,24.2,8.8,24.2z M9.5,12.5L9.5,12.5
		C9.6,12.6,9.6,12.6,9.5,12.5c0.1,0.1,0.1,0.1,0.1,0C9.6,12.5,9.6,12.5,9.5,12.5z M9.1,4.8C9.1,4.9,9.2,5,9.5,5
		C9.5,4.9,9.4,4.8,9.1,4.8z M9.1,22.1L9.1,22.1C9,22.2,9.1,22.2,9.1,22.1L9.1,22.1L9.1,22.1z M9.1,11.2C9.1,11.3,9.1,11.3,9.1,11.2
		L9.1,11.2C9.1,11.3,9.1,11.3,9.1,11.2C9.1,11.3,9.1,11.3,9.1,11.2z M9.6,1.7L9.6,1.7C9.5,1.7,9.5,1.7,9.6,1.7
		C9.5,1.7,9.5,1.8,9.6,1.7C9.5,1.7,9.6,1.7,9.6,1.7z M9.2,4.7c0-0.1-0.1-0.1-0.2-0.1c0,0-0.1,0.1-0.2,0.1c0,0.1,0,0.1,0,0.1
		C8.8,4.7,9,4.7,9,4.8C9.1,4.8,9.1,4.8,9.2,4.7L9.2,4.7z M9.6,5.1C9.6,5.2,9.6,5.1,9.6,5.1C9.6,5.1,9.6,5,9.6,5.1L9.5,5v0.1
		C9.6,5.1,9.6,5.1,9.6,5.1z M9.2,13.8L9.2,13.8C9.2,13.9,9.2,13.9,9.2,13.8L9.2,13.8C9.3,13.8,9.2,13.8,9.2,13.8z M9.3,25.4
		c0.1,0.1,0.1,0.1,0.1,0.1l0.1-0.1C9.4,25.4,9.4,25.4,9.3,25.4C9.3,25.3,9.3,25.4,9.3,25.4z M9.2,20.8C9.2,20.8,9.2,20.8,9.2,20.8
		L9.2,20.8C9.3,20.8,9.2,20.8,9.2,20.8L9.2,20.8z M10.1,27.6L10.1,27.6C10.2,27.6,10.2,27.6,10.1,27.6L10.1,27.6L10.1,27.6z M9.4,20
		c0-0.1-0.1-0.1-0.1-0.1L9.3,20C9.4,20,9.4,20,9.4,20C9.4,20,9.5,20,9.4,20z M9.3,10.1c-0.1,0.1-0.1,0.1-0.1,0.1L9.3,10.1
		C9.3,10.1,9.3,10.1,9.3,10.1C9.3,10.1,9.3,10.1,9.3,10.1z M9.3,8.7L9.3,8.7C9.2,8.6,9.2,8.6,9.3,8.7L9.3,8.7
		C9.2,8.7,9.3,8.7,9.3,8.7z M10.5,6.9C10.5,6.9,10.5,6.9,10.5,6.9c0.1-0.1,0.1-0.1,0.1-0.2c0-0.1-0.1-0.1-0.1-0.1l-0.1,0.1
		C10.4,6.8,10.4,6.9,10.5,6.9z M10.8,9C10.7,9,10.7,9,10.8,9c0,0.1,0,0,0.1,0C10.9,8.9,10.8,8.9,10.8,9z M10.8,10.9L10.8,10.9
		C10.8,10.9,10.8,10.9,10.8,10.9L10.8,10.9C10.8,11,10.8,11,10.8,10.9z M10.6,6.9C10.5,6.8,10.6,6.9,10.6,6.9
		C10.6,7,10.7,7,10.7,7.1L10.7,7C10.7,7,10.7,6.9,10.6,6.9z M9.6,16.2c-0.1,0.1-0.1,0.1-0.1,0.1L9.6,16.2
		C9.6,16.3,9.6,16.3,9.6,16.2C9.6,16.3,9.6,16.2,9.6,16.2z M10.7,13.6c0-0.1-0.1-0.1-0.1-0.2c-0.1,0.1-0.1,0.1-0.1,0.2
		c0,0,0.1,0.1,0.1,0.1C10.7,13.6,10.7,13.6,10.7,13.6z M10.4,3.5C10.4,3.5,10.4,3.5,10.4,3.5c-0.2-0.1-0.2,0-0.3,0
		c-0.1,0.1-0.2,0.1-0.1,0.1c0,0.1,0.1,0.1,0.1,0.1c0.1,0,0.1,0.1,0.2,0.1c0-0.1,0-0.1,0-0.1l0.1,0.1c0,0.1,0.1,0.1,0.1,0.1l0.1-0.1
		c0-0.1-0.1-0.1-0.1-0.1c-0.1-0.1-0.1-0.1-0.1-0.1C10.4,3.6,10.4,3.6,10.4,3.5C10.4,3.6,10.4,3.5,10.4,3.5z M10.5,13.4L10.5,13.4
		C10.5,13.3,10.5,13.3,10.5,13.4c-0.1-0.1-0.1-0.1-0.1,0C10.4,13.4,10.5,13.4,10.5,13.4z M10.5,6.4c0-0.1-0.1-0.1-0.1,0
		c-0.1,0-0.1,0,0,0.1L10.5,6.4z M10.8,12.2c0,0,0.1-0.1,0.1-0.1c0-0.1,0-0.1,0-0.1c0.1-0.1,0-0.1-0.1,0.1h0
		C10.7,12.1,10.7,12.1,10.8,12.2L10.8,12.2z M10.1,2.5C10.1,2.4,10.1,2.4,10.1,2.5c-0.1-0.1-0.1-0.1-0.2,0c0,0.1,0.1,0.1,0.1,0.1
		C10.1,2.5,10.1,2.5,10.1,2.5z M9.7,22.4c0,0,0-0.1,0-0.1c-0.1,0-0.1-0.1-0.1-0.1c-0.1,0.1-0.1,0.1-0.1,0.1c0,0.1,0,0.1,0,0.1
		c0.1,0,0.1,0.1,0.1,0.1C9.7,22.5,9.7,22.4,9.7,22.4z M9.5,9.7C9.5,9.6,9.5,9.7,9.5,9.7C9.6,9.8,9.6,9.8,9.5,9.7c0.1,0,0.1,0,0.1,0
		S9.6,9.7,9.5,9.7z M9.6,20.4L9.6,20.4c0.2-0.1,0.2-0.2,0.1-0.2H9.6C9.4,20.3,9.4,20.4,9.6,20.4z M9.9,5.8C9.8,5.8,9.8,5.8,9.9,5.8
		c0,0.1,0.1,0,0.1,0C10,5.8,9.9,5.8,9.9,5.8z M9.9,19.5c0,0,0.1-0.1,0.1-0.1c0-0.1-0.1-0.1-0.1-0.1H9.9C9.8,19.4,9.8,19.5,9.9,19.5z
		 M9.8,3.9L9.8,3.9C9.8,3.9,9.8,3.9,9.8,3.9c-0.1-0.1-0.1-0.1-0.1,0C9.7,3.9,9.8,3.9,9.8,3.9z M13.3,20.3L13.3,20.3
		C13.3,20.4,13.3,20.4,13.3,20.3L13.3,20.3C13.4,20.4,13.3,20.4,13.3,20.3z M24.6,8.3L24.6,8.3C24.7,8.3,24.7,8.3,24.6,8.3L24.6,8.3
		L24.6,8.3z"/>
	<path class="st5" d="M19.4,3.9l2.7-2.8c-0.1,0-0.1,0-0.2,0c-0.2,0-0.5,0.1-0.7,0.1l-1.8,1.9V3.9L19.4,3.9z M18,17.5
		c-0.3,0-0.5-0.1-0.7-0.1l-3.5,3.7h0.8L18,17.5z M24.6,13.6c0-0.3,0-0.5,0-0.8l-8,8.3h0.8L24.6,13.6z M24.6,16.7c0-0.3,0-0.6,0-0.9
		L19,21.6c0,0.3,0,0.5,0,0.9L24.6,16.7z M8,14.9c0,0.3,0,0.6,0,0.8l5.3-5.5c0-0.3,0-0.5,0-0.8L8,14.9z M24.6,19.7c0-0.3,0-0.6,0-0.9
		L19,24.6c0,0.3,0,0.5,0,0.8L24.6,19.7z M15.2,17.4c-0.3,0-0.5,0-0.8,0L8.1,24c0,0.3,0,0.5,0,0.8L15.2,17.4z M13.3,16.4
		c0-0.3,0-0.5,0-0.8L8,21.1v0.8L13.3,16.4z M19.3,12.4v0.9l5.4-5.6c0-0.3,0-0.5,0-0.8L19.3,12.4z M8,8.9c0,0.3,0,0.5,0,0.8l5.4-5.7
		c0-0.3,0-0.5,0-0.9L8,8.9z M19.4,6.2v0.9L24.3,2c-0.2-0.1-0.4-0.2-0.5-0.3L19.4,6.2z M8,11.9c0,0.3,0,0.5,0,0.8l5.3-5.6
		c0-0.3,0-0.6,0-0.9L8,11.9z M19.2,15.5v0.9l5.5-5.7c0-0.3,0-0.5,0-0.8L19.2,15.5z M13.3,13.3c0-0.3,0-0.6,0-0.8L8,18
		c0,0.3,0,0.5,0,0.8L13.3,13.3z M19.3,9.3v0.9l5.4-5.6c0-0.3,0-0.5,0-0.8L19.3,9.3z M13.2,30.7l-2.7,2.8h0.7c0.1,0,0.1,0,0.1-0.1
		l1.6-1.6C13.1,31.5,13.2,31.1,13.2,30.7z M13.3,27.9v-0.3l-5,5.2c0.1,0.2,0.3,0.3,0.5,0.4l4.6-4.8C13.3,28.2,13.3,28,13.3,27.9z
		 M13.3,22.4v-0.8L8,27.1c0,0.3,0,0.5,0,0.8L13.3,22.4z M8,5.9c0,0.2,0,0.5,0,0.8l4.6-4.8c-0.2-0.1-0.4-0.2-0.6-0.2L8,5.9z M8.2,2.6
		C8.2,2.7,8.2,2.9,8.2,3c0,0.2-0.1,0.3-0.1,0.6l2-2.1c-0.4,0.1-0.7,0.1-1,0.2L8.2,2.6z M24.3,32.1c0-0.2,0-0.5,0.1-0.9l-2,2
		c0.4-0.1,0.8-0.2,1.2-0.4L24.3,32.1z M24.4,29.1c0-0.3,0-0.5,0.1-0.9l-4.8,4.9c0.2,0.1,0.4,0.2,0.6,0.2L24.4,29.1z M24.5,22.9
		c0-0.3,0-0.6,0-0.9L19,27.7v0.8L24.5,22.9z M24.5,26c0-0.3,0-0.5,0-0.9L19,30.8v0.8L24.5,26z M13.3,25.4v-0.8L8,30.1
		c0,0.3,0,0.5,0,0.8L13.3,25.4z"/>
	<path class="st3" d="M20.4,1c-1.2,0.6-1.3,1.4-1.3,2.5c-0.1,2.1-0.1,4.2-0.1,6.3c-0.1,2.2-0.1,4.3-0.1,6.5c0,0.2,0.1,0.6,0,0.8
		c-0.1,0.1-0.1,0.1-0.1,0.1c0,0-0.1,0-0.1,0.1c0.2-0.1-2.1-0.3-2.3-0.3c-0.8,0-1.7,0-2.5,0.1c0-1.9,0-3.8,0.1-5.7
		C13.9,9.9,14,8.4,14,7c0-1.3,0.4-2.9,0.1-4.1c-0.5-2.2-4.8-2.7-5.9-0.8C7.7,2.8,7.7,3.9,7.7,4.7c-0.1,1.8,0,3.6,0,5.4
		c0.1,3.9,0.1,7.7,0.1,11.7c0,1.5,0,3.1,0,4.7c0,1.8-0.7,4.9,0.4,6.5c1.3,1.9,4.5,1.1,5.3-0.8c1-2.5,0.5-6.3,0.5-8.9
		c0-0.5,0.1-1.1,0-1.6l0,0H14c1.4,0.3,2.9-0.2,4.3-0.1c1.2,0.2,0.8-0.2,0.5,1.3c-0.2,1.3,0,2.6,0,3.9c0,1.5,0,3,0,4.4
		c0,3.6,3.5,3,6,1.7c0.2-0.1,0.2-0.2,0.2-0.4c0.2-5.8,0.3-11.7,0.3-17.4c0.1-3.9,0.4-8.1,0-12C24.9,0.9,22.1,0,20.4,1z M24.2,6.5
		c0,2,0,4,0,6c0,3.7-0.1,7.3-0.2,11c-0.1,2.5,0.4,5.7-0.2,8.1c-0.1,0.2,0.1,0.6,0,0.8c-0.5,0.8-3.9,0.9-4.4-0.1
		c-0.3-0.5,0-2.1,0-2.7c0-2.8,0-5.6,0.1-8.4c0-0.2-0.2-0.4-0.4-0.4c-1.9,0-3.8,0.1-5.7,0.1c-0.2,0-0.4,0.2-0.4,0.4
		c0,2.9,0.9,8.9-1.1,11c-1.1,1.2-1.3,1.1-2.5,0.1c-1.3-1-1-1.8-1-3.3c0-1.7,0.1-3.4,0.1-5.2c0-1.6,0-3.1,0-4.7c0-2.7,0-5.5-0.1-8.2
		c0-2-0.4-4.5,0-6.5c0.3-1.6,1.7-3,3.4-2.1C13.8,3,13,7.2,13,8.9c-0.1,2.9-0.1,5.7-0.1,8.6c0,0.1,0,0.1,0.1,0.1
		c0,0.2,0.2,0.4,0.4,0.4c1.9-0.1,3.9-0.1,5.8,0.1c0.2,0,0.4-0.2,0.4-0.4c0.1-3.6,0.1-7.2,0.2-10.8c0-0.9,0.1-1.9,0.1-2.9
		c0-1.1-0.2-1,1.1-1.7C24.3,0.2,24.2,4.2,24.2,6.5z"/>
</g>
</svg>
