<?xml version="1.0" encoding="utf-8"?>
<!-- Generator: Adobe Illustrator 22.1.0, SVG Export Plug-In . SVG Version: 6.00 Build 0)  -->
<svg version="1.1" id="Layer_1" xmlns="http://www.w3.org/2000/svg" xmlns:xlink="http://www.w3.org/1999/xlink" x="0px" y="0px"
	 viewBox="0 0 27 42" style="enable-background:new 0 0 27 42;" xml:space="preserve">
<style type="text/css">
	.st0{fill:#118933;}
	.st1{fill:#046938;}
	.st2{fill:#44454D;}
	.st3{fill:#0C6B38;}
	.st4{fill:#2D9947;}
	.st5{fill:#CEE3CE;}
</style>
<g>
	<path class="st0" d="M24,15.9c0-2.4-0.1-4.7-0.1-7.1c0-1.7,0-3.4-1.5-4.4c-2.4-1.8-7.3,0.2-8.2,3c-0.7,2.3-0.4,5.5-0.2,8.1
		c-0.2-0.4-0.3-0.8-0.5-1.2c-1.1-2.8-1.9-8.2-5.1-9.5C8,4.5,7.6,4.3,7,4.3C3.9,4.4,1,5.5,0.6,9.1c-0.4,3.5-0.1,7.3-0.1,10.8
		c0,4.4-0.1,8.8,0.1,13.2c0.1,2.6,0.2,6.3,2.9,7.6c2.2,1.1,6.8-0.1,7.5-2.7c0.3-1.2,0.3-2.5,0.2-3.9c0.5,1.2,0.9,2.4,1.4,3.5
		c1.7,3.7,6.1,3.6,9.2,1.7c3.2-2,2.4-6.4,2.4-9.6C24.1,25.1,24,20.5,24,15.9z"/>
	<path class="st1" d="M24,14.4C24,12,23.9,9.7,23.9,7.3c0-1.2,0.1-2.6-1-3.3c-1.7-1.3-5.7,0.2-6.4,2.2c-0.8,2.4-0.2,6.1-0.1,8.6
		c0.1,2.1,0.1,4.3,0.2,6.4c-1.1-2.7-2-5.4-3-8.2c-0.9-2.4-1.7-7.6-4.4-8.7C9,4.2,8.8,4.1,8.5,4.1C6,4.3,3.6,4.9,3.2,7.7
		c-0.5,3.5-0.1,7.4-0.1,10.8c0,4.4-0.1,8.8,0.1,13.2c0.1,2.1,0.1,5.5,2.2,6.5c1.6,0.7,5.1-0.2,5.7-2c0.2-0.6,0-1.5,0-2.2
		c-0.1-1.8-0.1-3.7-0.1-5.5c0-1.1-0.1-2.1-0.1-3.2c0.7,1.9,1.5,3.8,2.3,5.8c0.6,1.5,1.1,3.2,1.8,4.6c1.4,2.8,5.1,2.4,7.3,0.9
		c2.6-1.7,1.8-5.8,1.8-8.5C24.2,23.6,24.1,19,24,14.4z"/>
	<path class="st2" d="M26.5,15.8c0.1,4,0.1,8.6,0.1,11.7c0,4.3-0.1,4.9-0.2,5.2c-0.5,2.1-3.7,3.3-5.8,3.3c-1.1,0-2.5-0.2-3.4-1.9
		L17,34l-3.8-9.4c0.1,4.7,0.2,9.2,0.2,9.2l0.1,0.8l-0.6,0.5c-1.9,1.4-3,1.6-4.6,1.6c-3.5,0-3.5-5-3.5-9.8v-8.2
		C4.8,12.9,4.9,7,4.9,5.5L5,5.2c0.3-1.5,1.5-3.4,5.5-3.4h0.2c1.7,0.2,2.5,1.6,3.5,4.4c1.1,3.1,2.7,7.5,4.3,11.7
		c0-0.7-0.1-1.3-0.1-1.9c-0.1-2.2-0.2-4.6-0.2-6.6V5.4c0-3.2,2.8-3.9,5.6-4.2h0.3l0.2,0.1C25,1.5,26.3,2,26.3,4c0,0.9,0.1,3,0.1,5.5
		l0.1,1.7C26.4,12.6,26.5,14.2,26.5,15.8z"/>
	<path class="st3" d="M24.2,3c0-0.6-0.2-1-0.8-1.2c-3.8,0.3-4.2,1.4-4.2,2.6v4c0,3.9,0.4,9.2,0.4,13.2c0,0.4,0.1,3.2,0.2,3.9
		c-2.3-5.7-5.5-14.5-7.4-19.7c-1-2.9-1.5-3.3-2.3-3.5c-2.3,0-3.8,0.7-4,2.2c-0.1,1.4-0.1,7-0.1,13.1v8.2c0,4.7,0.1,8.3,2,8.3
		c1.4,0,2.1-0.2,3.5-1.3c0,0-0.2-6.4-0.2-12.1c0-0.5-0.1-4.1-0.2-5.3l6.8,17c0.4,0.8,0.9,1.1,2.1,1.1c1.8,0,4.2-1,4.4-2.1
		c0.1-0.4,0.2-2.1,0.2-4.9c0-4.3-0.1-11.3-0.2-16.3C24.2,7,24.2,4.1,24.2,3z"/>
	<path class="st4" d="M25.2,2.4c0-0.7-0.3-1-0.8-1.2c-1.7,0.2-2.9,0.4-3.4,0.9c-0.6,0.4-0.8,1-0.8,1.8v3.9c0,1.3,0.1,3.5,0.2,6.5
		c0.1,3.1,0.2,5.3,0.2,6.6c0,1.2,0.1,2.5,0.2,4c-1.5-3.6-3.9-10.2-7.4-19.7c-0.4-1.4-0.8-2.2-1.2-2.7c-0.3-0.4-0.7-0.7-1.1-0.8
		c-2.4,0-3.8,0.7-4,2.1c-0.1,1.9-0.1,6.3-0.1,13.2v8.2c0,2.8,0.1,4.9,0.4,6.2c0.3,1.4,0.8,2,1.6,2c0.7,0,1.3-0.1,1.8-0.2
		c0.5-0.2,1.1-0.5,1.7-1l-0.2-12.1c0-1,0-2.7-0.2-5.3l6.8,17c0.4,0.7,1.1,1.1,2.1,1.1c0.9,0,1.8-0.2,2.8-0.7c1-0.5,1.5-0.9,1.6-1.5
		c0.1-0.4,0.2-2.1,0.2-4.9c0-0.9-0.1-6.3-0.2-16.3C25.2,5.4,25.2,3,25.2,2.4z"/>
	<path class="st3" d="M25,19.3C24.9,19.3,24.9,19.3,25,19.3C24.9,19.3,24.9,19.3,25,19.3L25,19.3C24.9,19.3,25,19.3,25,19.3z
		 M25,19.6C25,19.6,25,19.6,25,19.6C25,19.6,25.1,19.6,25,19.6h0.1C25,19.6,25,19.6,25,19.6z M25,24.7L25,24.7
		C25.1,24.7,25.1,24.7,25,24.7L25,24.7L25,24.7z M24.9,15.6C24.9,15.7,24.9,15.7,24.9,15.6c0,0.1,0.1,0.1,0.2,0.1
		c0,0.1,0.1,0.1,0.1,0.1c0-0.1,0.1-0.1,0.1-0.1c-0.1-0.1-0.2-0.1-0.2-0.1C24.9,15.6,24.9,15.6,24.9,15.6z M25,9.7
		C25,9.8,25,9.8,25.1,9.8c0.1-0.1,0.1-0.1,0.1-0.1S25,9.7,25,9.7C25,9.7,25,9.7,25,9.7z M25,4.9L25,4.9C25.1,5,25.1,5,25,4.9
		c0.1,0.1,0.1,0.1,0.1,0C25.1,4.9,25,4.9,25,4.9z M24.8,19.1L24.8,19.1C24.9,19.1,24.9,19.1,24.8,19.1L24.8,19.1
		C24.9,19.1,24.8,19.1,24.8,19.1z M25.3,18.5C25.3,18.5,25.3,18.4,25.3,18.5C25.2,18.5,25.2,18.5,25.3,18.5L25.3,18.5
		C25.2,18.5,25.3,18.5,25.3,18.5z M6.8,5.8C6.8,5.8,6.8,5.8,6.8,5.8C6.8,5.8,6.8,5.8,6.8,5.8z M25.1,20.3c0.1,0.1,0.1,0.1,0.1,0.1
		c0,0,0-0.1,0.1-0.1C25.3,20.3,25.2,20.3,25.1,20.3C25.2,20.2,25.1,20.3,25.1,20.3z M25.2,14.7c0,0,0.1-0.1,0.1-0.1l0,0l0,0
		c0-0.1,0-0.1,0-0.1S25.3,14.6,25.2,14.7L25.2,14.7C25.3,14.6,25.3,14.6,25.2,14.7C25.2,14.6,25.1,14.6,25.2,14.7z M25.3,16.7
		C25.3,16.8,25.3,16.8,25.3,16.7C25.3,16.7,25.3,16.7,25.3,16.7L25.3,16.7L25.3,16.7z M25.1,18.6C25.1,18.6,25,18.6,25.1,18.6
		L25.1,18.6C25.1,18.6,25.1,18.6,25.1,18.6C25.1,18.6,25.1,18.6,25.1,18.6z M24.2,6.8L24.2,6.8C24.2,6.8,24.2,6.8,24.2,6.8
		C24.2,6.8,24.2,6.8,24.2,6.8L24.2,6.8z M21.9,9.9L21.9,9.9C22,9.9,22,9.9,21.9,9.9L21.9,9.9C22,9.9,21.9,9.9,21.9,9.9z M21.7,11.4
		c0,0-0.1,0-0.1,0c0-0.1-0.1,0-0.1,0C21.6,11.4,21.6,11.4,21.7,11.4C21.7,11.4,21.7,11.4,21.7,11.4z M21.9,1.7L21.9,1.7
		C22,1.7,22,1.7,21.9,1.7L21.9,1.7L21.9,1.7z M22.1,17.2c-0.1,0-0.2-0.1-0.2-0.1c0,0.1-0.1,0.1-0.2,0.1c0.1,0.1,0.1,0.1,0.2,0.1
		C21.9,17.3,22,17.2,22.1,17.2z M24.9,13.1L24.9,13.1c0.1,0,0.1-0.1,0-0.2h0C24.8,13,24.8,13.1,24.9,13.1z M21.8,11
		C21.8,11,21.8,11,21.8,11c-0.1,0.1-0.2,0.1-0.1,0.1C21.8,11.1,21.8,11.1,21.8,11C21.9,11.1,21.9,11.1,21.8,11c0.1,0.1,0.2,0,0.2,0
		c0-0.1-0.1-0.1-0.1-0.1S21.9,11,21.8,11L21.8,11z M21.8,15.4L21.8,15.4C21.9,15.4,21.9,15.4,21.8,15.4
		C21.8,15.4,21.8,15.4,21.8,15.4L21.8,15.4z M21.8,11.9L21.8,11.9C21.8,11.9,21.8,11.9,21.8,11.9L21.8,11.9
		C21.8,11.9,21.8,11.9,21.8,11.9z M21.8,32.4C21.8,32.4,21.7,32.4,21.8,32.4L21.8,32.4C21.8,32.4,21.8,32.4,21.8,32.4L21.8,32.4z
		 M22.7,16.2c-0.1,0-0.1,0.1-0.1,0.1c0,0.1,0.1,0.1,0.1,0.1C22.7,16.2,22.7,16.2,22.7,16.2C22.8,16.2,22.7,16.2,22.7,16.2z
		 M22.9,2.8c0,0-0.1,0-0.1,0c0-0.1-0.1,0-0.1,0C22.9,2.8,22.9,2.8,22.9,2.8L22.9,2.8z M22.7,1.6C22.6,1.6,22.6,1.6,22.7,1.6
		L22.7,1.6C22.7,1.7,22.8,1.7,22.7,1.6L22.7,1.6z M22.9,29.4c0,0,0-0.1,0.1-0.1C22.9,29.3,22.9,29.3,22.9,29.4
		C22.9,29.3,22.8,29.3,22.9,29.4z M23.1,29.2C23.1,29.2,23.1,29.2,23.1,29.2c-0.1,0.1-0.1,0.1-0.2,0v0.1H23
		C23.1,29.3,23.1,29.2,23.1,29.2z M22.5,17.6C22.5,17.6,22.5,17.6,22.5,17.6L22.5,17.6C22.5,17.6,22.5,17.6,22.5,17.6z M22.9,2.6
		L22.9,2.6c0.2-0.1,0.2-0.2,0-0.2c0,0,0,0,0,0C22.8,2.5,22.8,2.6,22.9,2.6z M22,29.3L22,29.3C22.1,29.3,21.9,29.3,22,29.3L22,29.3
		C21.9,29.3,22,29.3,22,29.3z M21.2,9.7C21.3,9.7,21.3,9.7,21.2,9.7L21.2,9.7C21.3,9.7,21.3,9.7,21.2,9.7L21.2,9.7z M21.5,2.6
		C21.4,2.6,21.4,2.6,21.5,2.6L21.5,2.6C21.5,2.7,21.5,2.7,21.5,2.6L21.5,2.6z M21.8,28.2c-0.1,0-0.1,0-0.1,0.1
		c0,0.1,0.1,0.1,0.1,0.1C21.7,28.2,21.8,28.2,21.8,28.2L21.8,28.2z M21.1,3.6C21.1,3.7,21.1,3.7,21.1,3.6c0.1,0.1,0.1,0,0.2,0h-0.1
		C21.1,3.6,21.1,3.6,21.1,3.6z M21.5,17.6L21.5,17.6C21.4,17.6,21.5,17.6,21.5,17.6L21.5,17.6C21.5,17.6,21.5,17.6,21.5,17.6z
		 M20.7,6L20.7,6C20.8,5.9,20.8,5.9,20.7,6L20.7,6L20.7,6z M21.4,1.8L21.4,1.8C21.5,1.8,21.5,1.8,21.4,1.8L21.4,1.8
		C21.5,1.8,21.5,1.8,21.4,1.8C21.5,1.8,21.4,1.8,21.4,1.8z M20.9,2.8C20.9,2.8,20.9,2.8,20.9,2.8L20.9,2.8C20.9,2.8,21,2.8,20.9,2.8
		C20.9,2.8,20.9,2.8,20.9,2.8z M21.3,19c0,0,0.1,0.1,0.1,0.1c0.1,0,0.1-0.1,0.1-0.1c0-0.1,0-0.1-0.1-0.1C21.3,19,21.3,19,21.3,19z
		 M21.3,6.7c-0.1,0-0.1,0.1-0.1,0.1c0.1,0.1,0.1,0.1,0.1,0.1c0.1-0.1,0.1-0.1,0.1-0.1C21.4,6.6,21.3,6.7,21.3,6.7z M23.9,1.7
		c-0.1,0-0.1,0-0.1,0c-0.1,0-0.1,0.1-0.1,0.1c0,0.1,0,0.1,0,0.1c0,0,0.1,0.1,0.2,0.1C24,1.8,24,1.8,24,1.7C24,1.7,24,1.6,23.9,1.7z
		 M22,29c0,0-0.1,0-0.1,0c0-0.1-0.1,0-0.1,0C21.9,29,21.9,29,22,29C22.1,29,22,29,22,29z M22.3,29.8c0-0.1-0.1-0.1-0.1-0.2
		c0,0.1-0.1,0.1-0.1,0.2c0,0,0.1,0.1,0.1,0.1C22.2,29.8,22.3,29.8,22.3,29.8z M22.2,23.6c0-0.1-0.1-0.1-0.1-0.1l-0.1,0.1
		C22.2,23.6,22.2,23.6,22.2,23.6L22.2,23.6z M22.2,11.9L22.2,11.9C22.1,11.9,22.1,11.9,22.2,11.9C22.2,12,22.2,12,22.2,11.9
		C22.1,11.9,22.2,11.9,22.2,11.9z M22.5,16.2c-0.1,0-0.1-0.1-0.1-0.1c-0.1,0.1-0.3,0.1-0.3,0.2c0,0.1,0.1,0.1,0.1,0.1
		C22.3,16.3,22.5,16.3,22.5,16.2z M21.8,15.4C21.8,15.4,21.8,15.4,21.8,15.4C21.8,15.4,21.8,15.4,21.8,15.4z M23.2,29
		C23.2,29,23.2,29,23.2,29L23.2,29C23.3,28.9,23.2,28.9,23.2,29L23.2,29z M23.4,25.8c0,0.1,0.1,0.1,0.1,0.1l0-0.1
		C23.5,25.8,23.5,25.8,23.4,25.8C23.3,25.8,23.3,25.8,23.4,25.8z M23.8,15.4c0-0.1-0.1-0.1-0.1-0.1l0,0.1
		C23.7,15.4,23.7,15.4,23.8,15.4C23.9,15.4,23.8,15.4,23.8,15.4z M24,9.8c-0.1,0-0.1,0-0.1,0.1c0,0.1,0,0.1,0,0.1
		C24,9.9,24,9.9,24,9.8L24,9.8z M23.3,27.2c-0.1-0.1-0.1-0.1-0.1-0.1c0,0-0.1,0-0.1,0.1C23.2,27.2,23.2,27.2,23.3,27.2L23.3,27.2z
		 M23.6,9.5c-0.1,0,0,0.1,0,0.1c0,0.1,0.1,0.1,0.1,0.1c0,0,0.2-0.2,0.2-0.2s0,0,0-0.1C23.7,9.5,23.6,9.5,23.6,9.5z M23.6,10.7
		L23.6,10.7C23.6,10.7,23.6,10.7,23.6,10.7C23.6,10.7,23.6,10.7,23.6,10.7L23.6,10.7z M23.6,10.7C23.6,10.7,23.6,10.7,23.6,10.7
		C23.6,10.7,23.6,10.7,23.6,10.7z M24.6,19.9L24.6,19.9C24.7,19.9,24.7,19.9,24.6,19.9L24.6,19.9C24.7,19.9,24.6,19.9,24.6,19.9z
		 M24.7,18.3C24.7,18.3,24.6,18.3,24.7,18.3L24.7,18.3C24.7,18.3,24.7,18.3,24.7,18.3L24.7,18.3z M24.7,10.1L24.7,10.1
		c-0.2,0.1-0.2,0.1-0.1,0.2h0.1C24.8,10.2,24.8,10.1,24.7,10.1z M24.3,15.6c0,0,0.1,0,0.1-0.1c0-0.1-0.1-0.1-0.1-0.1
		C24.3,15.6,24.3,15.6,24.3,15.6C24.3,15.6,24.3,15.6,24.3,15.6z M24.8,25.3C24.7,25.3,24.7,25.3,24.8,25.3L24.8,25.3z M24.8,5.4
		L24.8,5.4C24.9,5.4,24.9,5.4,24.8,5.4L24.8,5.4C24.9,5.4,24.8,5.4,24.8,5.4z M24.7,25.4c0-0.1,0.1-0.1,0.1-0.1
		C24.8,25.3,24.8,25.3,24.7,25.4L24.7,25.4C24.7,25.3,24.7,25.3,24.7,25.4C24.6,25.4,24.7,25.4,24.7,25.4z M23.5,17.2L23.5,17.2
		C23.4,17.2,23.4,17.2,23.5,17.2L23.5,17.2C23.4,17.2,23.5,17.2,23.5,17.2z M23.6,30.3c0,0,0.1,0.1,0.1,0.1c0,0.1,0.1,0.1,0.1,0.1
		c0.1,0,0.1-0.1,0.1-0.1c0.1-0.1,0-0.1-0.2-0.1C23.6,30.2,23.6,30.2,23.6,30.3C23.5,30.2,23.5,30.3,23.6,30.3z M23.7,2.7L23.7,2.7
		C23.8,2.7,23.8,2.7,23.7,2.7C23.9,2.6,23.8,2.6,23.7,2.7C23.8,2.7,23.7,2.7,23.7,2.7z M23.9,2.8L23.9,2.8c-0.2,0.1-0.2,0.2,0,0.2h0
		C24,2.9,24,2.8,23.9,2.8z M23.8,2.6L23.8,2.6L23.8,2.6z M24,12.2L24,12.2C24,12.1,23.9,12.1,24,12.2L24,12.2
		C24,12.2,24,12.2,24,12.2z M24,17c0,0-0.1,0-0.1,0C23.9,17.1,24,17.1,24,17C24,17,24,17,24,17S24,17,24,17z M23.9,21.9
		C23.9,22,23.9,22,23.9,21.9c0.1,0,0.1,0,0.2,0c0,0-0.1,0-0.1-0.1C24,21.9,23.9,21.9,23.9,21.9z M23.4,29.4c0.1-0.1,0.1-0.1,0.1-0.1
		c0,0,0,0,0-0.1C23.4,29.4,23.4,29.4,23.4,29.4C23.4,29.4,23.4,29.4,23.4,29.4z M23.6,28.6L23.6,28.6C23.6,28.6,23.6,28.6,23.6,28.6
		z M23.7,16.5C23.7,16.5,23.8,16.5,23.7,16.5L23.7,16.5C23.9,16.5,23.7,16.5,23.7,16.5L23.7,16.5z M23.7,28.6
		C23.6,28.6,23.6,28.6,23.7,28.6L23.7,28.6L23.7,28.6C23.6,28.6,23.7,28.6,23.7,28.6z M23.6,28.8L23.6,28.8
		C23.6,28.8,23.6,28.8,23.6,28.8L23.6,28.8L23.6,28.8z M23.5,26.5C23.5,26.5,23.5,26.5,23.5,26.5C23.4,26.5,23.4,26.4,23.5,26.5
		l-0.1-0.1c-0.1,0-0.1-0.1-0.2,0c-0.1,0,0,0.1,0.1,0.1c0,0,0.1,0,0.1,0C23.5,26.5,23.5,26.5,23.5,26.5z M23.2,26.1
		c0.1,0,0.1,0.1,0.2,0.1c0.1,0,0.1,0,0.2,0l0-0.1c0-0.1,0-0.1,0-0.1c-0.1,0-0.1,0-0.2,0C23.3,26.1,23.2,26.1,23.2,26.1z M23.5,16
		c0,0.1,0,0.1,0,0.2c0,0,0,0.1,0.1,0.1c0.1,0.1,0.1,0.1,0.1,0.1l0,0c0.1,0.1,0.1,0.1,0.1,0.1c0,0.1,0,0,0,0l-0.1-0.1h-0.1
		c0,0,0-0.1,0-0.1c0-0.1,0-0.1,0-0.2C23.6,16,23.5,16,23.5,16L23.5,16z M20.3,11.4c0,0.1,0.1,0.1,0.2,0.1c0.1-0.1,0.2-0.1,0.2-0.1
		c0.1-0.1,0.1-0.1,0.2-0.2c0,0,0.1-0.1-0.1-0.1c-0.1,0-0.1,0-0.1,0C20.3,11.3,20.3,11.3,20.3,11.4z M25.2,25C25.1,25,25,25,25,25
		c-0.1,0-0.2,0.1-0.2,0.1l0.1,0.1C25,25.2,25.1,25.2,25.2,25L25.2,25z M25.3,25.2c-0.1-0.1-0.1-0.1-0.1-0.1h-0.1v0.1
		C25.3,25.2,25.3,25.2,25.3,25.2L25.3,25.2z M21.1,29L21.1,29C21.1,29,21.1,29,21.1,29L21.1,29C21.1,29,21,29,21.1,29z M21.2,19.8
		c0,0.1,0,0.1-0.1,0.1c0,0.1,0.1,0.1,0.1,0.1S21.1,19.9,21.2,19.8C21.2,19.8,21.2,19.8,21.2,19.8z M25.4,23.2
		C25.4,23.1,25.4,23.1,25.4,23.2C25.4,23.1,25.4,23.1,25.4,23.2C25.4,23.1,25.4,23.1,25.4,23.2L25.4,23.2z M25.4,23.1
		C25.4,23.1,25.4,23.1,25.4,23.1C25.4,23.1,25.4,23.1,25.4,23.1L25.4,23.1z M8.5,31.5C8.5,31.4,8.4,31.5,8.5,31.5
		C8.5,31.5,8.5,31.5,8.5,31.5c0.1,0.1,0.1,0.1,0.1,0C8.6,31.5,8.5,31.5,8.5,31.5z M8.8,28.3c0.1,0,0.1-0.1,0.1-0.1
		c0-0.1-0.1-0.1-0.1-0.1C8.8,28.3,8.8,28.3,8.8,28.3C8.8,28.3,8.8,28.3,8.8,28.3z M18.4,19.3C18.4,19.3,18.4,19.3,18.4,19.3
		L18.4,19.3L18.4,19.3C18.4,19.3,18.4,19.3,18.4,19.3z M12.1,15.3L12.1,15.3C12.2,15.3,12.2,15.3,12.1,15.3
		C12.2,15.3,12.2,15.3,12.1,15.3z M19.4,29.2L19.4,29.2c0.1,0,0.1,0,0.2,0c0,0-0.1,0-0.1-0.1C19.5,29.2,19.5,29.2,19.4,29.2z
		 M19.3,21.8L19.3,21.8C19.3,21.9,19.3,21.9,19.3,21.8L19.3,21.8C19.4,21.9,19.3,21.9,19.3,21.8z M18.8,20.4L18.8,20.4
		C18.7,20.4,18.7,20.4,18.8,20.4L18.8,20.4L18.8,20.4z M20.9,7.8c-0.1,0.1-0.1,0.1-0.1,0.1c0,0.1,0.1,0.1,0.1,0.1
		C20.9,7.9,21,7.9,20.9,7.8C21,7.8,20.9,7.8,20.9,7.8z M19.3,22C19.3,22,19.3,22,19.3,22L19.3,22C19.4,22,19.3,22,19.3,22L19.3,22z
		 M7.7,6.1C7.7,6.1,7.7,6.1,7.7,6.1C7.8,6.1,7.8,6.1,7.7,6.1L7.7,6.1L7.7,6.1z M7.6,11.7c0.1-0.1,0.1-0.1,0-0.1c-0.1,0-0.1,0-0.1,0
		c-0.1,0-0.2,0-0.2,0.1c0,0.1,0,0.1,0,0.1c0,0.1,0,0.1-0.1,0.2C7.3,12,7.3,12,7.4,12C7.4,12,7.5,12,7.5,12
		C7.6,11.8,7.5,11.7,7.6,11.7z M7.7,5.4L7.7,5.4C7.7,5.5,7.7,5.5,7.7,5.4L7.7,5.4C7.8,5.4,7.7,5.4,7.7,5.4z M7.3,18.3
		C7.3,18.4,7.3,18.4,7.3,18.3C7.3,18.4,7.3,18.4,7.3,18.3z M7.2,8.9C7.1,8.9,7,8.9,7,8.9C6.9,8.9,6.9,8.9,6.9,8.9C6.9,9,7,9,7,9
		S7,9,7.1,9c0,0,0.1,0,0.1,0C7.2,9,7.3,9,7.2,8.9z M7.8,5.2C7.8,5.2,7.8,5.2,7.8,5.2L7.8,5.2C7.8,5.2,7.8,5.2,7.8,5.2L7.8,5.2z
		 M7.3,18.4C7.3,18.4,7.3,18.4,7.3,18.4C7.3,18.4,7.3,18.4,7.3,18.4L7.3,18.4L7.3,18.4z M7.3,12.3c0-0.1,0-0.1,0-0.2
		c0-0.1-0.1-0.1-0.1-0.1c-0.1,0.1-0.1,0.1-0.1,0.1c0,0.1,0,0.2,0,0.3c0,0.1,0.1,0.1,0.1,0.1c0.1-0.1,0.1-0.1,0.1-0.1
		C7.3,12.4,7.3,12.4,7.3,12.3z M8.5,27.5C8.4,27.5,8.4,27.5,8.5,27.5C8.4,27.5,8.5,27.5,8.5,27.5h0.1C8.5,27.5,8.5,27.5,8.5,27.5z
		 M7.2,12.8L7.2,12.8C7.3,12.7,7.2,12.7,7.2,12.8L7.2,12.8C7.2,12.7,7.2,12.7,7.2,12.8z M8.2,23c-0.1,0-0.2,0-0.1,0.1
		c0,0.1,0.1,0.1,0.1,0.1c0.1,0.1,0.3,0.1,0.3,0C8.3,23.1,8.2,23.1,8.2,23z M8.6,33.3c0,0-0.1,0-0.1,0.1c0,0.1,0.1,0.1,0.1,0.1
		C8.5,33.3,8.6,33.3,8.6,33.3L8.6,33.3z M8.4,20C8.4,20,8.5,20,8.4,20L8.4,20C8.5,20,8.5,20,8.4,20L8.4,20z M8.6,10.1L8.6,10.1
		L8.6,10.1C8.5,10.1,8.5,10.1,8.6,10.1L8.6,10.1z M8.3,31.3C8.3,31.3,8.4,31.3,8.3,31.3L8.3,31.3C8.4,31.3,8.3,31.3,8.3,31.3
		L8.3,31.3z M8.7,5.9C8.6,6,8.6,6,8.6,6C8.6,6,8.6,6,8.6,6C8.7,6,8.7,6,8.7,5.9C8.7,5.9,8.7,5.9,8.7,5.9z M7.3,29.5
		C7.3,29.5,7.3,29.5,7.3,29.5C7.3,29.5,7.2,29.5,7.3,29.5H7.1C7.2,29.5,7.2,29.5,7.3,29.5z M7.2,21.9c0,0,0.1-0.1,0.1-0.1
		C7.3,21.9,7.3,21.9,7.2,21.9C7.2,21.9,7.1,21.9,7.2,21.9z M7.4,11L7.4,11c-0.1-0.1-0.1-0.1-0.2-0.1c-0.1,0,0,0.1,0.1,0.1
		C7.3,11,7.3,11,7.4,11L7.4,11C7.4,11.1,7.4,11.1,7.4,11h0.1C7.5,11,7.5,11,7.4,11L7.4,11z M7.6,11.3L7.6,11.3L7.6,11.3
		C7.6,11.3,7.6,11.3,7.6,11.3h0.1C7.6,11.3,7.6,11.3,7.6,11.3z M7.1,19.7C7.1,19.7,7.2,19.7,7.1,19.7C7.2,19.7,7.2,19.7,7.1,19.7
		c-0.2-0.1-0.3-0.1-0.4-0.1v0.1c0.1,0,0.1,0,0.2,0C7,19.7,7,19.7,7.1,19.7z M7.5,11.3L7.5,11.3C7.5,11.2,7.5,11.2,7.5,11.3z M8,23
		c-0.1,0-0.1-0.1-0.2,0C7.8,23,7.9,23,8,23L8,23z M6.9,22.4L6.9,22.4C6.8,22.4,6.9,22.4,6.9,22.4L6.9,22.4
		C6.9,22.4,6.9,22.4,6.9,22.4z M6.9,24L6.9,24L6.9,24C6.9,24,6.9,24,6.9,24L6.9,24z M6.8,7.8c0,0.1,0,0.1,0,0.2c0,0,0,0,0.1,0
		C6.9,8,6.9,8,6.9,7.9c0,0,0.1-0.1,0-0.1C6.9,7.9,6.9,7.8,6.8,7.8C6.8,7.8,6.8,7.8,6.8,7.8z M7.3,23L7.3,23C7.3,23,7.3,23,7.3,23z
		 M7.3,23L7.3,23L7.3,23L7.3,23L7.3,23z M7.3,11.3c0,0,0.1,0.1,0.1,0.1c0,0,0-0.1,0.1-0.1C7.4,11.3,7.4,11.2,7.3,11.3z M8.9,14
		C8.9,13.9,8.8,13.9,8.9,14c-0.1-0.1-0.1-0.1-0.2,0V14h0.1C8.8,14,8.9,14,8.9,14z M7.4,20L7.4,20C7.4,20.1,7.4,20.1,7.4,20L7.4,20
		C7.5,20,7.4,20,7.4,20z M7.5,21.7c-0.1,0-0.1,0.1-0.1,0v0.1L7.5,21.7C7.5,21.8,7.5,21.7,7.5,21.7L7.5,21.7z M7.5,28.6
		C7.5,28.6,7.5,28.4,7.5,28.6c-0.1,0-0.1,0-0.2,0h0.1C7.5,28.6,7.5,28.6,7.5,28.6z M21.4,10.3c-0.1,0-0.1-0.1-0.2-0.1
		c-0.1,0-0.1,0-0.2,0.1c0.1,0.1,0.1,0.1,0.2,0.1C21.3,10.3,21.3,10.3,21.4,10.3z M20.4,27.7c0-0.1-0.1-0.1-0.1-0.1
		c-0.1,0-0.3,0-0.4,0c-0.1,0-0.2,0-0.2,0.1c0,0.1,0,0.1,0,0.1c0,0.1-0.1,0.1,0,0.2c0,0,0.1,0.1,0.1,0.1c0.1,0,0.1,0,0.2,0
		c0.2-0.1,0.3-0.2,0.4-0.2C20.5,27.8,20.4,27.7,20.4,27.7z M11.9,11L11.9,11c-0.1,0-0.1,0-0.2,0c0,0.1,0.1,0.1,0.1,0.1
		C11.8,11,11.8,11,11.9,11z M11.9,17.7c0.1,0,0.1-0.1,0.1-0.1L11.9,17.7C11.9,17.7,11.9,17.7,11.9,17.7L11.9,17.7L11.9,17.7z
		 M11.7,18C11.7,18.1,11.7,18.1,11.7,18c0.1,0.1,0.2,0,0.2,0c0-0.1,0-0.1,0-0.1c0,0,0-0.1,0-0.1c0-0.1,0-0.1-0.1-0.1
		c0,0.1-0.1,0.1-0.1,0.1C11.7,17.9,11.7,18,11.7,18z M11.7,15c0.1,0.1,0.1,0.1,0.1,0.1l0.1-0.1C11.7,15,11.7,15,11.7,15L11.7,15
		L11.7,15z M12.4,3.2C12.4,3.2,12.4,3.2,12.4,3.2C12.4,3.2,12.4,3.2,12.4,3.2C12.4,3.2,12.4,3.2,12.4,3.2z M11.8,20.4L11.8,20.4
		C11.7,20.5,11.8,20.5,11.8,20.4L11.8,20.4C11.7,20.5,11.7,20.5,11.8,20.4z M11.8,23.9L11.8,23.9C11.8,23.9,11.8,23.9,11.8,23.9
		L11.8,23.9C11.7,23.9,11.8,23.9,11.8,23.9z M11.8,23.9L11.8,23.9C11.7,23.9,11.7,23.9,11.8,23.9z M13,10.1L13,10.1
		c0.1,0,0.1-0.1,0.1-0.2H13C12.9,10,12.9,10.1,13,10.1z M13,9L13,9C13,9,13,9,13,9L13,9C13,8.9,13,8.9,13,9z M13.1,6.7
		c0,0-0.1,0-0.1,0c0-0.1-0.1,0-0.1,0C13,6.7,13,6.7,13.1,6.7C13,6.7,13,6.7,13.1,6.7z M13.4,14.3c0-0.1,0-0.1,0-0.1
		c0-0.1,0-0.1-0.1-0.1c-0.1-0.1-0.1,0-0.1,0.1c-0.1,0.1-0.2,0.2-0.2,0.3c0,0,0,0.1,0,0.2c0,0.1,0.1,0.1,0.1,0.1l0.1-0.1
		C13.2,14.5,13.2,14.4,13.4,14.3z M12.6,12.5L12.6,12.5C12.6,12.6,12.6,12.6,12.6,12.5L12.6,12.5C12.6,12.5,12.6,12.5,12.6,12.5z
		 M12.6,7.2L12.6,7.2L12.6,7.2C12.6,7.3,12.6,7.3,12.6,7.2L12.6,7.2z M12.8,16.4L12.8,16.4C12.9,16.4,12.9,16.4,12.8,16.4
		C12.9,16.4,12.9,16.4,12.8,16.4C12.9,16.4,12.8,16.4,12.8,16.4z M12,20.8L12,20.8C11.9,20.7,11.9,20.7,12,20.8
		c-0.1-0.1-0.1-0.1-0.1,0C11.9,20.8,11.9,20.8,12,20.8z M11.4,15.8c0-0.1-0.1-0.1-0.1-0.1l-0.1,0.1C11.3,15.9,11.3,15.9,11.4,15.8
		C11.4,15.9,11.5,15.9,11.4,15.8z M11,31.9C11,31.9,11.1,31.9,11,31.9L11,31.9C11.1,31.9,11.1,31.9,11,31.9L11,31.9z M9.9,29.3
		L9.9,29.3C10,29.3,10,29.3,9.9,29.3z M11.2,17.7L11.2,17.7L11.2,17.7L11.2,17.7L11.2,17.7z M11.2,15.7
		C11.2,15.7,11.1,15.7,11.2,15.7c0,0.1,0.1,0,0.1,0C11.3,15.7,11.2,15.7,11.2,15.7z M11,29.4C11,29.4,10.9,29.4,11,29.4
		C10.9,29.5,11,29.5,11,29.4h0.1C11,29.4,11,29.4,11,29.4z M10.3,13L10.3,13c-0.2,0.1-0.2,0.2-0.1,0.2c0,0,0.1-0.1,0.1-0.1
		C10.4,13,10.4,13,10.3,13z M10.4,19.9L10.4,19.9c-0.1,0-0.1,0-0.2,0h0.1C10.4,19.9,10.4,19.9,10.4,19.9z M10.4,17.3
		c0.1,0,0.1-0.1,0-0.2h-0.1C10.2,17.2,10.2,17.3,10.4,17.3L10.4,17.3z M13.5,8.9L13.5,8.9C13.5,8.9,13.5,8.9,13.5,8.9L13.5,8.9
		C13.5,8.8,13.4,8.8,13.5,8.9z M11.9,16L11.9,16C11.9,16.1,12,16.1,11.9,16L11.9,16L11.9,16C12,16,12,16,11.9,16z M12.2,13.4
		c-0.1,0.1-0.1,0.1-0.1,0.1c0,0.1,0.1,0.1,0.1,0.1S12.2,13.4,12.2,13.4L12.2,13.4z M11.9,16L11.9,16C11.9,16,11.9,16,11.9,16z
		 M12.2,12.8c-0.1,0.1-0.1,0.1-0.1,0.1c0,0.1,0.1,0.1,0.1,0.1L12.2,12.8L12.2,12.8z M12,16.4c0,0.1-0.1,0.1-0.1,0.1
		c0,0.1,0.1,0.1,0.1,0.1C11.9,16.4,12,16.4,12,16.4C12,16.4,12,16.4,12,16.4z M11.6,6.1c0.1,0.1,0.1,0.1,0.1,0.1c0,0,0.1,0,0.1-0.1
		C11.8,6.1,11.7,6.1,11.6,6.1L11.6,6.1z M12.2,6.7C12.2,6.6,12.2,6.6,12.2,6.7C12.1,6.7,12.1,6.7,12.2,6.7L12.2,6.7
		C12.1,6.7,12.2,6.7,12.2,6.7z M11.3,28.2L11.3,28.2C11.4,28.2,11.4,28.2,11.3,28.2L11.3,28.2L11.3,28.2z M20.1,4.5L20.1,4.5
		c0.1,0,0.1-0.1,0.2-0.1c0-0.1,0.1-0.1,0.1-0.1c-0.1,0-0.1-0.1-0.2-0.1h-0.1V4.5z M20.6,6.1c-0.1,0-0.1,0-0.1,0.1v0.1h0.1
		C20.6,6.1,20.6,6.1,20.6,6.1L20.6,6.1z M20.1,5.7L20.1,5.7L20.1,5.7L20.1,5.7z M17.2,19c0.1,0,0.1,0,0.1-0.1c0-0.1-0.1-0.1-0.1-0.1
		C17.2,19,17.2,19,17.2,19L17.2,19z M17.8,19.7L17.8,19.7C17.8,19.7,17.8,19.7,17.8,19.7c0.1,0.1,0.1,0.1,0.1,0
		C17.9,19.7,17.8,19.7,17.8,19.7z M20.1,5.2L20.1,5.2L20.1,5.2L20.1,5.2z M17.6,19.6L17.6,19.6C17.5,19.5,17.5,19.5,17.6,19.6
		L17.6,19.6C17.5,19.6,17.6,19.6,17.6,19.6z M17.5,24.4c0,0,0.1,0,0.1-0.1c0-0.1-0.1-0.1-0.1-0.1C17.5,24.4,17.5,24.4,17.5,24.4
		C17.5,24.4,17.5,24.4,17.5,24.4z M18,29.5C18,29.6,18,29.6,18,29.5L18,29.5C18.1,29.4,18.1,29.4,18,29.5L18,29.5z M20.3,7.3
		c-0.1,0-0.1,0-0.1,0.1c0,0.1,0.1,0.1,0.1,0.1C20.3,7.4,20.3,7.4,20.3,7.3C20.3,7.3,20.3,7.3,20.3,7.3z M20.5,29L20.5,29
		c0.2-0.1,0.2-0.2,0.1-0.2h-0.1C20.4,28.9,20.4,29,20.5,29z M20.3,28.2L20.3,28.2L20.3,28.2L20.3,28.2L20.3,28.2z M20.2,32.6
		L20.2,32.6C20.2,32.6,20.2,32.6,20.2,32.6L20.2,32.6C20.2,32.6,20.2,32.6,20.2,32.6z M20.4,3.8c-0.1,0-0.1,0-0.1,0
		C20.3,3.9,20.4,3.9,20.4,3.8C20.4,3.8,20.4,3.8,20.4,3.8L20.4,3.8z M20.3,6.2c0,0,0.1-0.1,0.1-0.1C20.4,6.1,20.4,6.1,20.3,6.2
		C20.3,6.2,20.2,6.2,20.3,6.2z M20.4,4C20.4,4,20.4,4,20.4,4L20.4,4C20.4,4,20.4,4,20.4,4S20.4,3.9,20.4,4z M13.9,14.1L13.9,14.1
		C14,14.1,14,14,14,14h-0.1C13.8,14,13.8,14.1,13.9,14.1z M14.5,9.2c-0.1,0.1,0,0.1,0,0.2c0,0.1,0.1,0.1,0.1,0.1
		c0-0.1,0.1-0.1,0.1-0.1c0.1-0.1,0.1-0.1,0.1-0.1s0-0.1,0.1-0.1V9.2l0,0C14.6,9.2,14.5,9.2,14.5,9.2z M14.8,12.9
		c0,0.1,0.1,0.1,0.1,0.1l0-0.1C14.8,12.8,14.8,12.8,14.8,12.9C14.8,12.8,14.8,12.9,14.8,12.9z M15.3,21.4
		C15.3,21.4,15.3,21.4,15.3,21.4L15.3,21.4C15.3,21.4,15.3,21.4,15.3,21.4L15.3,21.4z M14.9,10.2c0.1,0,0.1,0.1,0.2,0.1
		c0-0.1,0-0.1-0.1-0.1C15,10.1,14.9,10.1,14.9,10.2L14.9,10.2z M14.4,18.9L14.4,18.9C14.4,18.9,14.4,18.9,14.4,18.9
		C14.4,18.9,14.5,18.9,14.4,18.9C14.4,18.9,14.4,18.9,14.4,18.9z M14.2,11.9c-0.1,0.1-0.1,0.2,0,0.2h0.1
		C14.3,12,14.3,11.9,14.2,11.9L14.2,11.9z M13.6,15.9C13.6,15.9,13.6,15.8,13.6,15.9C13.5,15.8,13.5,15.8,13.6,15.9z M13.7,15.9
		C13.6,15.9,13.6,15.9,13.7,15.9L13.7,15.9L13.7,15.9C13.6,15.9,13.7,15.9,13.7,15.9z M17.2,16.4c-0.1,0.1-0.1,0.1-0.1,0.1
		c0,0,0.1,0.1,0.1,0.1c0.1,0,0.1-0.1,0.1-0.1C17.2,16.4,17.2,16.4,17.2,16.4z M16.6,21.5c0.1,0.1,0.1,0.1,0.1,0.1
		c0-0.1,0-0.1,0.1-0.1C16.7,21.5,16.6,21.5,16.6,21.5L16.6,21.5z M17.1,15.8C17.1,15.8,17.1,15.8,17.1,15.8
		C17.1,15.8,17.1,15.8,17.1,15.8L17.1,15.8z M16,23.2C16,23.2,16,23.2,16,23.2c0.1,0,0.1,0,0.2,0c-0.1,0-0.1-0.1-0.1-0.1
		C16,23.2,16,23.2,16,23.2z M15.9,14.7c-0.1,0-0.1,0.1-0.1,0.1L15.9,14.7C15.9,14.7,15.9,14.7,15.9,14.7
		C15.9,14.7,15.9,14.7,15.9,14.7z M15.7,14.3L15.7,14.3C15.7,14.3,15.7,14.3,15.7,14.3C15.8,14.3,15.8,14.3,15.7,14.3
		C15.7,14.3,15.7,14.3,15.7,14.3z M15.8,16.6L15.8,16.6C15.9,16.6,15.9,16.6,15.8,16.6L15.8,16.6C15.9,16.5,15.8,16.5,15.8,16.6z
		 M15.4,12.7L15.4,12.7L15.4,12.7L15.4,12.7L15.4,12.7z M8.7,19.6c-0.1,0.1-0.1,0.1-0.1,0.1c0,0.1,0.1,0.1,0.1,0.1
		C8.7,19.6,8.7,19.6,8.7,19.6L8.7,19.6z M11.6,15.3c-0.1-0.1-0.1-0.1-0.1-0.1c0,0,0,0-0.1,0.1C11.5,15.3,11.5,15.3,11.6,15.3
		C11.6,15.3,11.6,15.3,11.6,15.3z M11.5,14C11.5,14,11.5,13.9,11.5,14L11.5,14C11.6,14,11.5,14,11.5,14L11.5,14z M11.6,8.3L11.6,8.3
		C11.5,8.2,11.5,8.2,11.6,8.3L11.6,8.3L11.6,8.3z M11.5,2L11.5,2L11.5,2L11.5,2z M11.7,15c-0.1,0-0.1-0.1-0.2,0
		c-0.1,0,0,0.1,0.1,0.1C11.6,15,11.6,15,11.7,15L11.7,15z M9,23.3c0.1,0.1,0.1,0.1,0.1,0.1c0,0,0.1,0,0.1-0.1
		C9.2,23.2,9.1,23.2,9,23.3L9,23.3z M9,22.4c-0.1,0-0.2,0-0.2,0.1c-0.1,0.1,0,0.1,0.2,0.1c0.1,0,0.1-0.1,0.2-0.1
		C9.1,22.5,9.1,22.4,9,22.4z M8.8,22.7C8.8,22.7,8.8,22.7,8.8,22.7c0.1,0.1,0.1,0.1,0.2,0c0-0.1-0.1-0.1-0.1-0.1
		C8.8,22.7,8.8,22.7,8.8,22.7z M11.1,24.3c0,0-0.1,0-0.1,0.1c0,0.1,0.1,0.1,0.1,0.1C11,24.3,11.1,24.3,11.1,24.3L11.1,24.3z
		 M11.6,14L11.6,14L11.6,14z M11.1,19.8L11.1,19.8L11.1,19.8z M11.2,14.7c0,0.1,0.1,0.1,0.1,0.1l0.1-0.1
		C11.2,14.6,11.2,14.6,11.2,14.7C11.2,14.6,11.2,14.6,11.2,14.7z M11.1,20c0-0.1,0-0.1,0.1-0.1c-0.1,0-0.1-0.1-0.1-0.1
		C11,19.9,11,20,11.1,20C11.1,20,11.1,20,11.1,20z M10,29.3L10,29.3C9.9,29.3,9.9,29.3,10,29.3C9.9,29.3,9.9,29.3,10,29.3
		C9.9,29.3,10,29.3,10,29.3z M11.5,6.3C11.4,6.3,11.4,6.3,11.5,6.3L11.5,6.3L11.5,6.3C11.4,6.3,11.5,6.3,11.5,6.3z M11.4,6.3
		C11.4,6.2,11.4,6.2,11.4,6.3C11.4,6.2,11.4,6.2,11.4,6.3z M10.8,3.2C10.8,3.2,10.9,3.2,10.8,3.2L10.8,3.2
		C10.9,3.2,10.9,3.1,10.8,3.2L10.8,3.2z M9.6,20.9L9.6,20.9C9.6,20.8,9.5,20.8,9.6,20.9H9.5C9.5,20.9,9.5,20.9,9.6,20.9z M9.6,20.8
		L9.6,20.8C9.7,20.8,9.7,20.8,9.6,20.8z M9.5,6.2L9.5,6.2C9.4,6.2,9.4,6.2,9.5,6.2c-0.1-0.1-0.1-0.1-0.1,0C9.4,6.3,9.4,6.2,9.5,6.2z
		 M9.4,16.4L9.4,16.4C9.4,16.4,9.4,16.4,9.4,16.4L9.4,16.4C9.4,16.4,9.3,16.4,9.4,16.4z M8.7,14C8.6,14,8.5,14,8.7,14
		C8.6,14.1,8.7,14,8.7,14C8.7,14,8.7,14,8.7,14z M9.7,30.3c0-0.1-0.1-0.1-0.1-0.1c-0.1,0.1-0.2,0.1-0.3,0.1c0,0.1,0,0.1,0,0.1
		c0.1,0.1,0.1,0.1,0.2,0.1C9.7,30.4,9.7,30.4,9.7,30.3z M8.7,23.2L8.7,23.2C8.7,23.2,8.7,23.2,8.7,23.2L8.7,23.2L8.7,23.2z M9.1,9.4
		c0.1-0.1,0.1-0.1,0.1-0.1c0-0.1,0-0.1,0.1-0.1c-0.1,0-0.1-0.1-0.1-0.1C9.1,9.1,9,9.2,9,9.2C8.9,9.2,9.1,9.4,8.8,9.4l0.1,0.1
		C8.9,9.4,9.1,9.4,9.1,9.4z M9.4,8.4c0,0.1,0,0.1,0.1,0.1l0.1-0.1C9.4,8.4,9.4,8.4,9.4,8.4C9.3,8.4,9.3,8.4,9.4,8.4z M9.1,6.4
		c0.1,0,0.1,0,0.2,0c0-0.1,0-0.1,0-0.1C9.2,6.3,9.1,6.3,9,6.3C9,6.4,9.1,6.4,9.1,6.4z M8.9,8.5C8.9,8.5,8.9,8.5,8.8,8.5
		c0,0,0,0-0.1,0.1C8.8,8.5,8.8,8.5,8.9,8.5C8.9,8.5,8.9,8.5,8.9,8.5z M9.2,3.7c0.1-0.1,0.1-0.1,0.1-0.1C9.3,3.6,9.3,3.6,9.2,3.7
		C9.2,3.6,9.2,3.6,9.2,3.7C9.1,3.7,9.2,3.7,9.2,3.7z M9,7.2c0.1,0.1,0.1,0.1,0.1,0.1c0-0.1,0.1-0.1,0.1-0.1C9.1,7.1,9.1,7.1,9,7.2
		L9,7.2z M9,11.8c0.1,0.1,0.1,0.1,0.1,0.1l0.1-0.1C9.1,11.8,9.1,11.8,9,11.8C9,11.8,9,11.8,9,11.8z M9.2,12.3L9.2,12.3
		C9.3,12.3,9.3,12.3,9.2,12.3L9.2,12.3C9.2,12.3,9.2,12.3,9.2,12.3z M9.5,12.8c-0.1,0-0.2-0.1-0.3-0.1c-0.1,0-0.1,0.1-0.2,0.1
		c0.1,0.1,0.1,0.1,0.2,0.1C9.3,12.8,9.4,12.8,9.5,12.8z M11.3,15.7L11.3,15.7c0.1,0,0.2-0.1,0.2-0.1c0-0.1-0.1-0.1-0.1-0.1
		C11.3,15.6,11.3,15.6,11.3,15.7L11.3,15.7z M10.1,23L10.1,23C10.2,23,10.1,23,10.1,23H10C10.1,23,10.1,23,10.1,23z M10.3,4.4
		c-0.1,0-0.1-0.1-0.2,0C10.2,4.4,10.2,4.5,10.3,4.4C10.4,4.4,10.4,4.4,10.3,4.4z M10,26.6c-0.1,0.1-0.1,0.1-0.1,0.1L10,26.6
		C10,26.7,10,26.7,10,26.6L10,26.6z M10.1,3.2c0,0-0.1,0.1-0.1,0.1c0,0.1,0.1,0.1,0.1,0.1C10.1,3.2,10.1,3.2,10.1,3.2
		C10.2,3.2,10.1,3.2,10.1,3.2z M10,26.2L10,26.2c0.2,0,0.2-0.1,0-0.2h0C9.8,26.1,9.8,26.1,10,26.2z M10.2,28.8c0,0-0.1,0-0.1,0
		c0-0.1-0.1,0-0.1,0C10.1,28.8,10.1,28.8,10.2,28.8C10.2,28.8,10.2,28.8,10.2,28.8z M10,28.3c-0.1,0-0.1,0-0.1,0.1L10,28.3
		C10,28.3,10,28.3,10,28.3C10,28.3,10,28.3,10,28.3z M10.2,24.5c0,0.1-0.1,0.1-0.1,0.1c0,0.1,0.1,0.1,0.1,0.1
		C10.1,24.5,10.2,24.5,10.2,24.5C10.2,24.5,10.2,24.5,10.2,24.5z M10,27.8L10,27.8C9.9,27.8,10,27.8,10,27.8L10,27.8
		C10,27.8,10,27.7,10,27.8z M9.8,30.1c0,0-0.1,0-0.1,0.1v0.1h0.1C9.8,30.2,9.8,30.2,9.8,30.1L9.8,30.1z M10,20.3
		C10,20.4,10,20.3,10,20.3C10,20.3,10,20.3,10,20.3c-0.1-0.1-0.2-0.1-0.2-0.1c-0.1,0,0,0.1,0.1,0.1c0,0,0,0,0,0
		C10,20.3,10,20.3,10,20.3z M9.7,21L9.7,21C9.7,21,9.7,21,9.7,21C9.8,21,9.8,21,9.8,21C9.8,21,9.7,21,9.7,21z M10.4,4.5L10.4,4.5
		L10.4,4.5C10.5,4.6,10.5,4.6,10.4,4.5h0.1C10.5,4.5,10.5,4.5,10.4,4.5z M10.5,6.8c-0.2,0-0.3,0-0.4,0l-0.1,0.1c0,0,0,0.1,0.1,0.1
		c0.1,0,0.1,0,0.2,0c0.1,0,0.1,0,0.2,0C10.5,6.8,10.5,6.8,10.5,6.8C10.5,6.8,10.5,6.8,10.5,6.8z M10.3,4.9c-0.1,0.1-0.1,0.2,0,0.2
		h0.1C10.5,5,10.5,4.9,10.3,4.9L10.3,4.9z M10.4,7.3c0,0,0.1,0.1,0.1,0.1c0.1,0,0.1-0.1,0.1-0.1c0-0.1-0.1-0.1-0.1-0.2
		C10.5,7.2,10.4,7.3,10.4,7.3z M10.7,2.5L10.7,2.5L10.7,2.5z M10.8,10.7c0.1,0.1,0.1,0.1,0.1,0.1c0,0,0.1,0,0.1-0.1
		C10.9,10.7,10.8,10.7,10.8,10.7L10.8,10.7z M10.8,6.7L10.8,6.7C10.8,6.7,10.8,6.7,10.8,6.7c0.1,0.1,0.1,0.1,0.1,0
		C10.9,6.7,10.8,6.7,10.8,6.7z M10.8,2.3L10.8,2.3C10.8,2.3,10.8,2.3,10.8,2.3C10.8,2.3,10.8,2.3,10.8,2.3
		C10.8,2.3,10.8,2.3,10.8,2.3z M10.8,4.4c0.1,0.1,0.1,0.1,0.1,0.1L11,4.4C10.9,4.4,10.9,4.4,10.8,4.4L10.8,4.4L10.8,4.4z M10.8,12.2
		L10.8,12.2C11,12.2,11,12,10.9,12h-0.1C10.7,12.1,10.7,12.2,10.8,12.2z M10.7,4.1c-0.1,0-0.1,0-0.1,0C10.6,4.2,10.7,4.2,10.7,4.1
		C10.7,4.1,10.7,4.1,10.7,4.1L10.7,4.1z M10.7,4.1C10.7,4.1,10.7,4.1,10.7,4.1C10.7,4.1,10.7,4.1,10.7,4.1z M10.5,9.7L10.5,9.7
		L10.5,9.7C10.5,9.7,10.5,9.7,10.5,9.7C10.5,9.6,10.5,9.6,10.5,9.7z M10.5,15C10.5,15,10.5,15,10.5,15C10.5,15,10.5,15,10.5,15
		L10.5,15C10.5,15,10.5,15,10.5,15z M10.5,8.4L10.5,8.4c0.2-0.1,0.2-0.1,0.1-0.2h-0.1C10.4,8.3,10.4,8.3,10.5,8.4z M10.7,29
		c0,0-0.1,0-0.1,0c0-0.1-0.1,0-0.1,0C10.6,29,10.6,29,10.7,29C10.7,29,10.7,29,10.7,29z M10.7,2.7L10.7,2.7c0.1-0.1,0.1-0.1,0.1-0.1
		c-0.1,0-0.1-0.1-0.1-0.1C10.6,2.6,10.6,2.7,10.7,2.7z M10.6,7.1L10.6,7.1C10.6,7.1,10.6,7.1,10.6,7.1c0.1,0.1,0.1,0.1,0.1,0
		C10.7,7.1,10.6,7.1,10.6,7.1z M11,27.5L11,27.5C11,27.6,11,27.6,11,27.5c0.1,0.1,0.1,0,0.1,0S11,27.5,11,27.5z M10.5,4.3
		c0,0,0.1,0.1,0.1,0.1l0.1-0.1C10.6,4.3,10.6,4.3,10.5,4.3z M10.6,2.9c0.1-0.1,0.1-0.1,0.1-0.1C10.7,2.8,10.7,2.8,10.6,2.9
		C10.7,2.8,10.6,2.8,10.6,2.9L10.6,2.9z"/>
	<path class="st5" d="M15,22.5l-0.2-0.6l3.3-3.5c0.1,0.2,0.2,0.4,0.2,0.6L15,22.5z M16.7,14.7c-0.1-0.2-0.2-0.4-0.2-0.6l-3.4,3.5
		l0.2,0.6L16.7,14.7z M15.9,12.4c-0.1-0.2-0.2-0.4-0.2-0.6l-3.4,3.6l0.2,0.6L15.9,12.4z M17.5,16.9c-0.1-0.2-0.2-0.4-0.2-0.6
		l-3.4,3.5l0.2,0.6L17.5,16.9z M15.1,10.2C15,10,14.9,9.9,14.9,9.6L6.8,18v0.8L15.1,10.2z M25.4,16.9l-4.9,5c0,0.2,0.1,0.5,0.1,0.8
		l4.9-5C25.4,17.4,25.4,17.1,25.4,16.9z M20.4,16.9l4.9-5.1c0-0.3,0-0.5,0-0.8l-5,5.2C20.4,16.3,20.4,16.6,20.4,16.9z M20,23.3
		c-0.1-0.2-0.2-0.4-0.2-0.6l-3.3,3.4l0.2,0.6L20,23.3z M19.1,21.1c-0.1-0.2-0.2-0.4-0.2-0.6L15.6,24l0.2,0.6L19.1,21.1z M20.3,13.1
		c0,0.3,0.1,0.5,0.1,0.8l5-5.2c0-0.3,0-0.6-0.1-0.8L20.3,13.1z M20.1,7.8c0,0.1,0,0.1,0,0.2l5-5.2c0-0.2,0-0.3,0-0.4
		c0-0.2,0-0.3-0.1-0.4l-5,5.2L20.1,7.8L20.1,7.8z M6.8,6.7L11.4,2c-0.2-0.1-0.4-0.2-0.5-0.2c-0.1,0-0.1,0-0.1,0L6.9,5.8
		C6.8,6.1,6.8,6.4,6.8,6.7z M20.2,10.2c0,0.3,0,0.6,0.1,0.8l5-5.2c0-0.3,0-0.5,0-0.8L20.2,10.2z M7,3.5l1.3-1.3
		C7.6,2.5,7.2,2.9,7,3.5z M6.8,8.9c0,0.3,0,0.5,0,0.8l5.9-6.1c-0.1-0.2-0.2-0.4-0.3-0.5L6.8,8.9z M20.1,4.2V5l3.6-3.7
		c-0.4,0.1-0.7,0.1-0.9,0.2L20.1,4.2z M6.8,12c0,0.3,0,0.5,0,0.8l6.7-7c-0.1-0.2-0.2-0.4-0.2-0.6L6.8,12z M6.8,15c0,0.3,0,0.5,0,0.8
		L14.3,8c-0.1-0.2-0.2-0.4-0.2-0.6L6.8,15z M25.3,13.9L20.4,19c0,0.3,0,0.5,0,0.8l4.9-5.1C25.3,14.5,25.3,14.2,25.3,13.9z
		 M25.4,26.7c0-0.2,0-0.5,0-0.8v-0.1l-6.3,6.5c0.2,0.1,0.3,0.2,0.5,0.3L25.4,26.7z M25.4,23.7c0-0.3,0-0.6,0-0.8l-7.3,7.5l0.2,0.6
		L25.4,23.7z M25.4,29.9c0-0.2,0.1-0.5,0.1-0.9l-3.8,3.9c0.4-0.1,0.7-0.1,1-0.2L25.4,29.9z M12.2,25.4c0-0.3,0-0.5,0-0.8L6.9,30
		C7,30.3,7,30.5,7,30.8L12.2,25.4z M12.3,31.3c0-0.2,0-0.5-0.1-0.8l-3,3.1c0.4,0,0.6-0.1,0.9-0.1L12.3,31.3z M25.4,20.7
		c0-0.3,0-0.5,0-0.8l-4.8,4.9c0,0.1,0,0.1,0,0.2c0-0.1-0.1-0.1-0.1-0.1l-3.3,3.4l0.2,0.6L25.4,20.7z M12.2,28.3c0-0.3,0-0.5,0-0.8
		l-4.8,4.9c0.1,0.2,0.2,0.4,0.3,0.5L12.2,28.3z M12,16.4c0-0.3,0-0.5-0.1-0.8L6.8,21v0.8L12,16.4z M12.1,22.4c0-0.3,0-0.6,0-0.8
		l-5.3,5.5c0,0.3,0,0.5,0,0.8L12.1,22.4z M12.1,19.4c0-0.2,0-0.5-0.1-0.8l-5.3,5.5V25L12.1,19.4z"/>
	<path class="st3" d="M25.8,10.9c-0.1-2.4-0.1-4.7-0.1-7.1c0-0.8,0.2-2-0.5-2.6c-1.3-1-4.6,0.2-5.2,1.8c-0.3,0.9-0.2,2.1-0.2,3
		c0,1.8,0,3.6,0.1,5.4c0.1,3.7,0.2,7.5,0.3,11.2c-1.6-4.2-3.2-8.5-4.8-12.8c-0.7-2-1.4-4.2-2.3-6.2c-0.4-0.9-0.9-1.8-1.8-2.1
		c-0.1-0.1-0.1-0.1-0.2-0.1c-0.1-0.1-0.2-0.1-0.3,0C8.8,1.5,7,2,6.6,4.1C5.9,7.5,6.5,11.6,6.5,15c0,4.4-0.1,8.8,0.1,13.2
		c0.1,1.7-0.1,5,1.9,5.8c1.2,0.5,4-0.3,4.5-1.5c0.2-0.4-0.1-1.5-0.1-2c-0.1-1.8-0.1-3.7-0.1-5.5c-0.1-2.6-0.1-5.1-0.1-7.6
		c1.3,3.3,2.6,6.7,4,10c0.6,1.5,1.1,3.2,1.8,4.6c1.3,2.1,4.3,1.6,6.1,0.4C26.9,31,26,27,26,24.7C25.9,20.2,25.8,15.6,25.8,10.9z
		 M23.4,32c-1.3,0.8-3.4,0.9-4.4-0.4c-0.3-0.4-0.4-1-0.6-1.5c-0.7-1.8-1.4-3.6-2.1-5.3c-1.3-3.3-2.6-6.7-4-10
		c-0.2-0.4-0.8-0.4-0.8,0.1c0.2,4.8,0.2,9.5,0.3,14.3c0,0.7,0.3,2,0.1,2.7c-0.3,0.8-1.5,1.4-2.4,1.3c-3-0.1-2.2-5.9-2.2-8
		c0-2.7,0-5.3,0-8c0-2.8,0-5.6,0.1-8.4C7.4,5.7,6.8,2.6,11,2.4c0.1,0,0.1,0,0.1,0c1.5,0.6,2,3.6,2.5,5c0.7,1.9,1.4,3.8,2.1,5.7
		c1.5,4.1,3,8.1,4.6,12.1c0.2,0.4,0.9,0.4,0.8-0.1c0-0.1,0-0.1,0-0.1h0.1c0-0.1-0.1-0.1-0.1-0.1c-0.4-5.8-0.5-11.5-0.5-17.3
		c0-1.8-0.6-4.4,1.2-5.3c1-0.5,2.5-0.1,3,0.9c0.2,0.5,0,1.6,0.1,2.1c0.1,2,0.1,3.9,0.1,5.9c0,3.6,0.1,7.1,0.1,10.7
		C25,24.8,26.1,30.4,23.4,32z"/>
</g>
</svg>
