<?xml version="1.0" encoding="utf-8"?>
<!-- Generator: Adobe Illustrator 22.1.0, SVG Export Plug-In . SVG Version: 6.00 Build 0)  -->
<svg version="1.1" id="Layer_1" xmlns="http://www.w3.org/2000/svg" xmlns:xlink="http://www.w3.org/1999/xlink" x="0px" y="0px"
	 viewBox="0 0 27 42" style="enable-background:new 0 0 27 42;" xml:space="preserve">
<style type="text/css">
	.st0{fill:#118933;}
	.st1{fill:#046938;}
	.st2{fill:#44454D;}
	.st3{fill:#0C6B38;}
	.st4{fill:#2D9947;}
	.st5{fill:#CEE3CE;}
</style>
<g>
	<path class="st0" d="M23.5,37.2c0.2,1.2-0.1,2.2-1.1,2.9c-2.8,1.9-7.5,1.8-9.1-1.8c-0.5-1.2-1.1-3.8-2-5.8c0.1,1.5,0.1,3.1-0.2,4.5
		c-0.7,3.1-4.1,4.7-6.9,4.2c-3.9-0.7-3.5-4.3-3.4-7.4c0-4.5,0.1-9,0.2-13.5C1,16.9,0.8,13.4,1,10c0.4-5.2,5.7-6.4,9.9-6.5
		c0.2-0.1,0.4-0.1,0.6-0.1c2.9,0.1,5.9,0.4,8.2,2.4c2.2,1.9,2.7,4.5,2.8,7.4c0.1,4.7,0,10.3-3.2,13.6C21.4,30,22.9,33.5,23.5,37.2z
		 M12.2,16.4c0.1-1.6,0.4-3.6-0.7-4.2c-0.1,2.5-0.1,5-0.1,7.6c0,0.2,0,0.3-0.1,0.5c0,0.3,0,0.5,0,0.9c0.1,0,0.1-0.1,0.1-0.1
		C12.7,20.4,12.2,17.7,12.2,16.4z"/>
	<path class="st1" d="M23.9,36.2c0.1,0.5-0.1,1.1-0.6,1.4c-2.2,1.5-6,1.6-7.4-1.1c-1.1-2.2-1.8-8-4.5-9.2c0.1,2.6,0.7,5.5,0.1,8
		c-0.6,2.4-3.2,3.6-5.4,3.2c-3.2-0.5-2.5-3.7-2.5-6.2c0.1-4.5,0.1-9,0.2-13.5c0.1-3.3-0.2-6.9,0.1-10.3C4.2,4,9.4,3.3,13,3.3
		c0.3,0,0.5,0.1,0.7,0.2c2.3,0.1,4.8,0.4,6.6,2c2,1.6,2.4,3.9,2.4,6.4c0.1,4.6,0.1,10.4-3.6,13.4C21.6,28.6,23.1,32.2,23.9,36.2z
		 M11.6,20.9c0.6,0,1.2-0.1,1.8-0.3c2-0.9,1.6-3.8,1.6-5.7c0-2.8,0-6-3.2-5.6c-0.1,3-0.1,6-0.1,9c0,0.1,0,0.2-0.1,0.3
		C11.6,19.4,11.6,20.2,11.6,20.9z"/>
	<path class="st2" d="M21.6,23.2c1.1-0.9,1.8-2,2.4-3.5c0.6-1.7,1.1-6.3,1.1-9.4c0-1.6,0-4.4-1.4-6.1C21.5,1.4,17.9,1,15,1
		c-2.2,0-8.2,0-9.5,4.7L5.5,6L5.2,33.8c0,3,3,3,3.9,3c3,0,4.7-2.8,4.7-4v-0.1c0,0-0.1-1.4-0.1-3c0-1.2,0-2.7-0.1-3.8
		c0-0.1,0-0.1,0-0.1c1.7,1.9,3.2,5.5,3.9,8.5l0.1,0.2c0.5,1.4,2.7,2.5,4.2,2.5c1.9,0,3.5-1,3.9-1.6l0.5-0.5L26.2,34
		C25.5,30.1,23.9,26.5,21.6,23.2z M13.9,16.3c0-2.4,0-5.2,0.1-8.7c2.2-0.1,2.8,0.5,2.8,3.1v1.6c0,0.7-0.1,1.5-0.1,2.1
		c0,0.4,0,0.8,0,1c0,0.4-0.1,3.1-2,3.1h-0.8V16.3L13.9,16.3z"/>
	<path class="st3" d="M18.9,21.9c1.8,2.1,4.4,6,5.3,11.5c-0.1,0.1-1.4,1-2.9,1c-1.1,0-2.6-0.9-2.8-1.5C17.9,30,16,24.6,13,22.6
		c-0.8,0-1.2,0.1-1.4,0.1c-0.1,0.3,0.1,3.6,0.1,6c0,1.7,0,3.1,0,3.1c0,0.3-0.9,2.5-3.2,2.5c-1.6,0-2.4-0.3-2.4-1.5L6.5,5.1
		c0.8-3.3,5.1-3.7,8-3.7c3.2,0,5.9,0.6,7.5,2.7c1.1,1.3,1.1,3.6,1.1,5.1c0,3.3-0.4,7.5-1,8.8C21.4,20,20.3,21.2,18.9,21.9z
		 M17.7,9.7C17.7,6.9,17,5,13.6,5C13,5,12,5.1,12,5.1c0,4.1-0.1,7.4-0.1,10.1v3.9h2.3c2.4,0,3.5-2.4,3.5-4.6c0-0.6,0.1-2,0.1-3.2
		L17.7,9.7L17.7,9.7z"/>
	<path class="st4" d="M19.8,21.3c2.9,3.4,4.7,7.2,5.3,11.5c-0.8,0.7-1.8,1-2.9,1c-0.5,0-1.1-0.2-1.7-0.5c-0.6-0.3-1-0.7-1.1-1
		c-0.5-1.9-1.2-3.9-2.1-5.9c-1-2-2.1-3.5-3.3-4.3c-0.3,0-0.6,0-0.9,0c-0.3,0-0.5,0-0.5,0c0,0.1,0,0.4,0.1,1.1c0,0.7,0.1,1.5,0.1,2.4
		c0,1,0.1,1.8,0.1,2.4l0.1,3.1c0,0.3-0.3,0.8-0.8,1.5c-0.6,0.7-1.4,1-2.3,1c-0.8,0-1.5-0.1-1.9-0.3c-0.4-0.2-0.6-0.6-0.6-1.2
		L7.5,4.6c0.6-2.4,3.3-3.6,8-3.6c3.6,0,6.1,0.9,7.5,2.7C23.7,4.6,24,6.3,24,8.8c0,4.3-0.3,7.2-1,8.8C22.3,19.5,21.2,20.7,19.8,21.3z
		 M18.8,9.1c0-1.5-0.3-2.7-0.8-3.5c-0.6-0.8-1.6-1.2-3.2-1.2C13.6,4.5,13,4.7,13,4.7c-0.1,4-0.2,7.4-0.2,10v3.9h2.3
		c1.1,0,2-0.4,2.6-1.4c0.6-0.9,0.9-2,0.9-3.2c0-0.1,0-0.6,0.1-1.4c0-0.8,0.1-1.4,0.1-1.8V9.1L18.8,9.1z"/>
	<path class="st3" d="M21,11c0,0.1,0.1,0.1,0.1,0.1l0.1-0.1C21.1,11,21.1,11,21,11C21,11,21,11,21,11z M20.6,25.7
		c0.2,0,0.2-0.1,0.3-0.1c0,0,0-0.1-0.1-0.1c-0.1,0-0.2,0-0.3,0C20.6,25.6,20.6,25.7,20.6,25.7z M19.7,28.8L19.7,28.8
		C19.6,28.8,19.6,28.8,19.7,28.8L19.7,28.8C19.6,28.8,19.7,28.8,19.7,28.8z M20.5,22.6L20.5,22.6C20.4,22.6,20.5,22.6,20.5,22.6
		L20.5,22.6z M20.6,22.5L20.6,22.5C20.6,22.5,20.6,22.6,20.6,22.5C20.6,22.5,20.6,22.5,20.6,22.5z M20.4,31.6
		c0.1-0.1,0.1-0.1,0.1-0.1L20.4,31.6C20.4,31.6,20.4,31.6,20.4,31.6L20.4,31.6z M21.2,29.8c0,0.1-0.1,0.1-0.1,0.1L21.2,29.8
		C21.1,29.9,21.2,29.9,21.2,29.8C21.2,29.9,21.2,29.8,21.2,29.8z M21.5,28.2c0.1,0.1,0.1,0.1,0.1,0.1c0.1,0,0.1,0,0.1-0.1
		C21.7,28.2,21.6,28.2,21.5,28.2C21.6,28.2,21.5,28.2,21.5,28.2z M21.5,29.2C21.5,29.2,21.5,29.1,21.5,29.2L21.5,29.2
		C21.4,29.2,21.4,29.2,21.5,29.2L21.5,29.2z M19.8,23.1L19.8,23.1C19.9,23.1,19.8,23.1,19.8,23.1l-0.1-0.1v0.1
		C19.8,23.1,19.8,23.1,19.8,23.1z M20.5,22.6C20.5,22.6,20.6,22.6,20.5,22.6C20.6,22.5,20.5,22.5,20.5,22.6z M19.5,23
		C19.4,23,19.5,23.1,19.5,23c0.1,0.1,0.1,0.1,0.2,0.1c0-0.1,0-0.1,0-0.1C19.7,23,19.6,23,19.5,23z M20,30.9c0,0,0.1-0.1,0.1-0.1
		C19.9,30.9,19.9,30.9,20,30.9z M20.4,23.9C20.4,23.9,20.4,23.9,20.4,23.9c-0.1,0-0.1,0-0.2,0c0,0.1,0.1,0.1,0.1,0.1
		C20.3,23.9,20.4,23.9,20.4,23.9z M23.2,32.8L23.2,32.8C23.2,32.8,23.2,32.8,23.2,32.8c-0.1-0.1-0.1-0.1-0.1,0
		C23.1,32.8,23.2,32.8,23.2,32.8z M20.1,30.8C20.1,30.8,20.1,30.9,20.1,30.8C20.1,30.9,20.2,30.8,20.1,30.8
		C20.2,30.8,20.1,30.8,20.1,30.8z M20.4,25.8C20.4,25.8,20.3,25.8,20.4,25.8c0,0.1,0.1,0,0.1,0C20.6,25.8,20.6,25.8,20.4,25.8z
		 M23.3,29.9c0-0.1-0.1-0.1-0.1,0c-0.1,0-0.1,0,0,0.1C23.2,30,23.2,29.9,23.3,29.9z M23.9,31.6L23.9,31.6
		C23.9,31.6,23.9,31.6,23.9,31.6L23.9,31.6C24,31.6,23.9,31.6,23.9,31.6z M23.9,31.4L23.9,31.4C23.9,31.4,23.9,31.4,23.9,31.4
		C23.9,31.4,23.9,31.4,23.9,31.4C23.9,31.4,23.9,31.4,23.9,31.4z M23.9,28.3C23.9,28.3,23.8,28.3,23.9,28.3
		C23.9,28.4,23.9,28.4,23.9,28.3L23.9,28.3L23.9,28.3C23.9,28.3,23.9,28.3,23.9,28.3z M23.3,29.8C23.3,29.9,23.4,29.9,23.3,29.8
		L23.3,29.8L23.3,29.8z M23.3,29.8L23.3,29.8L23.3,29.8L23.3,29.8z M22.7,32.5C22.7,32.5,22.6,32.5,22.7,32.5
		c-0.1-0.1-0.1-0.1-0.2,0h0.1C22.6,32.5,22.6,32.5,22.7,32.5z M23.3,33.2c0.1,0,0.1,0,0.1-0.1L23.3,33.2
		C23.3,33.2,23.3,33.2,23.3,33.2L23.3,33.2z M22.8,32.2L22.8,32.2c0.1-0.1,0.1-0.1,0.1-0.1l-0.1-0.1C22.7,32.1,22.7,32.2,22.8,32.2z
		 M23.4,27.7L23.4,27.7C23.4,27.8,23.4,27.8,23.4,27.7L23.4,27.7C23.4,27.8,23.4,27.8,23.4,27.7z M23.4,29.8
		C23.4,29.8,23.4,29.8,23.4,29.8C23.4,29.8,23.5,29.8,23.4,29.8L23.4,29.8z M20.3,25.5c0.1,0,0.1,0,0.2,0c0.1,0.1,0.1,0,0.1-0.1
		c0-0.1-0.1-0.1-0.1-0.1c-0.1,0-0.1,0-0.2,0c-0.1,0-0.1,0.1-0.2,0.1C20.3,25.5,20.3,25.5,20.3,25.5z M22.2,9.4L22.2,9.4
		C22.2,9.5,22.3,9.5,22.2,9.4L22.2,9.4C22.3,9.4,22.2,9.4,22.2,9.4z M20.3,9.3C20.3,9.3,20.4,9.3,20.3,9.3L20.3,9.3
		C20.3,9.3,20.3,9.3,20.3,9.3L20.3,9.3z M22.1,16.4C22.1,16.4,22.2,16.4,22.1,16.4L22.1,16.4C22.1,16.4,22.1,16.4,22.1,16.4
		L22.1,16.4z M20.1,15.3c0,0,0.1,0,0.1,0c0,0.1,0.1,0,0.1,0C20.1,15.3,20.1,15.3,20.1,15.3C20.1,15.3,20.1,15.3,20.1,15.3z
		 M21.7,9.5L21.7,9.5c0.1,0,0.2-0.1,0.2-0.1c0-0.1-0.1-0.1-0.1-0.1S21.7,9.5,21.7,9.5L21.7,9.5c0,0-0.1-0.1-0.1,0
		c-0.1,0-0.1,0,0,0.1C21.6,9.6,21.6,9.5,21.7,9.5z M22.3,7.7c0,0,0,0.1,0.1,0.1c0,0,0,0,0.1-0.1c-0.1,0-0.1-0.1-0.1-0.1
		C22.4,7.7,22.3,7.7,22.3,7.7z M22.5,3.5L22.5,3.5C22.5,3.5,22.5,3.5,22.5,3.5C22.5,3.5,22.5,3.6,22.5,3.5
		C22.5,3.5,22.5,3.5,22.5,3.5z M22.3,15.9L22.3,15.9C22.4,15.8,22.3,15.8,22.3,15.9c-0.1-0.1-0.1-0.1-0.1-0.1
		C22.3,15.9,22.3,15.9,22.3,15.9z M22.3,12.1L22.3,12.1C22.3,12.1,22.3,12.1,22.3,12.1L22.3,12.1C22.2,12.1,22.3,12.1,22.3,12.1z
		 M11.9,13.4L11.9,13.4C11.9,13.4,11.9,13.4,11.9,13.4L11.9,13.4C11.8,13.5,11.9,13.5,11.9,13.4z M21.1,10.6
		C21.1,10.6,21.1,10.6,21.1,10.6L21.1,10.6C21,10.7,21.1,10.7,21.1,10.6L21.1,10.6z M20.7,14.9c0.1,0.1,0.1,0.1,0.2,0.1
		c0.1,0,0.1,0,0.2,0c0-0.1,0.1-0.1,0.1-0.1c-0.1,0-0.2-0.1-0.2-0.1C20.7,14.9,20.7,14.9,20.7,14.9z M20.6,10
		c0.1-0.1,0.1-0.1,0.1-0.1c0-0.1-0.1-0.1-0.1-0.1S20.7,9.9,20.6,10C20.6,10,20.6,10,20.6,10z M20.5,17.6
		C20.5,17.6,20.4,17.6,20.5,17.6L20.5,17.6L20.5,17.6L20.5,17.6z M20.6,3.8c0,0,0.1,0.1,0.1,0.1c0.1-0.1,0.1-0.1,0.1-0.1
		c0,0,0-0.1-0.1-0.1C20.6,3.8,20.6,3.8,20.6,3.8z M20.6,11.9c-0.1,0-0.1,0-0.1-0.1h-0.1v0.1c-0.1,0-0.1-0.1-0.1,0
		c-0.1,0,0,0.1,0.1,0.1h0.1C20.5,11.9,20.5,11.9,20.6,11.9C20.6,12,20.6,11.9,20.6,11.9z M21.1,9.2C21,9.2,21,9.2,21,9.2
		C21,9.3,21,9.3,21,9.3C21.1,9.2,21.1,9.2,21.1,9.2C21.1,9.2,21.1,9.2,21.1,9.2z M15.7,2.2L15.7,2.2L15.7,2.2
		c0.1,0.1,0.1,0.1,0.2,0.1l0.1-0.1c0-0.1-0.1-0.1-0.1-0.1h0.1V2.2C15.7,2.2,15.7,2.1,15.7,2.2C15.6,2.2,15.6,2.2,15.7,2.2z M14.9,2
		C15,2,15,1.9,14.9,1.9c0,0,0,0-0.1,0C14.8,1.9,14.8,2,14.9,2L14.9,2z M17,1.8C17,1.7,17,1.7,17,1.8c-0.1,0-0.1,0-0.2,0
		c0,0.1,0.1,0.1,0.1,0.1S17,1.9,17,1.8z M16.9,3.3C16.9,3.3,17,3.3,16.9,3.3L16.9,3.3L16.9,3.3L16.9,3.3z M15.3,3.3L15.3,3.3
		C15.3,3.2,15.3,3.3,15.3,3.3L15.3,3.3L15.3,3.3z M15.3,1.3L15.3,1.3C15.3,1.4,15.3,1.4,15.3,1.3L15.3,1.3
		C15.3,1.4,15.3,1.4,15.3,1.3z M15.3,3.2C15.3,3.1,15.3,3.1,15.3,3.2L15.3,3.2C15.3,3.2,15.3,3.2,15.3,3.2L15.3,3.2z M15.3,3.3
		L15.3,3.3L15.3,3.3z M22.7,15.9C22.7,15.9,22.6,15.9,22.7,15.9L22.7,15.9C22.7,15.9,22.7,15.9,22.7,15.9
		C22.7,15.9,22.7,15.9,22.7,15.9z M22.5,15.6L22.5,15.6L22.5,15.6z M22.7,15.9L22.7,15.9L22.7,15.9z M22.5,15.6L22.5,15.6
		C22.6,15.6,22.6,15.6,22.5,15.6C22.5,15.6,22.5,15.6,22.5,15.6L22.5,15.6z M17.3,3.9C17.3,4,17.3,4,17.3,3.9L17.3,3.9L17.3,3.9
		L17.3,3.9z M17,4.5C17,4.5,17,4.5,17,4.5c-0.1-0.1-0.3-0.1-0.3-0.1c-0.1,0-0.1,0.1,0,0.1c0.1,0.1,0.1,0.1,0.1,0.2
		c0,0.1,0,0.1,0.1,0.1L17,4.7C17,4.7,17,4.6,17,4.5z M16.8,4.9c0.1,0.1,0.1,0.1,0.1,0.1c0,0,0.1,0,0.1-0.1
		C16.9,4.8,16.9,4.8,16.8,4.9L16.8,4.9z M17.1,3.8L17.1,3.8C17.2,3.8,17.1,3.8,17.1,3.8c-0.1-0.1-0.1-0.1-0.1-0.1
		c-0.1,0-0.1-0.1-0.2,0c-0.1,0,0,0.1,0.1,0.1c0.1,0,0.1,0,0.1,0v0.1C17.1,3.8,17.1,3.8,17.1,3.8z M10.6,14.6
		C10.6,14.6,10.5,14.6,10.6,14.6C10.6,14.6,10.6,14.6,10.6,14.6c0.1,0.1,0.1,0.1,0.1,0C10.7,14.6,10.6,14.6,10.6,14.6z M23.8,9.9
		c0.1,0.1,0.1,0.1,0.1,0.1C24,9.9,24,9.9,24,9.9S23.9,9.9,23.8,9.9C23.9,9.8,23.8,9.9,23.8,9.9z M19.6,18.5L19.6,18.5
		C19.7,18.5,19.7,18.5,19.6,18.5C19.7,18.5,19.7,18.5,19.6,18.5L19.6,18.5z M23,5.3L23,5.3C23,5.3,23,5.3,23,5.3L23,5.3L23,5.3z
		 M23.7,5.7c0,0.1,0.1,0.1,0.1,0.1c0-0.1,0-0.1,0-0.1C23.7,5.6,23.7,5.6,23.7,5.7C23.7,5.6,23.7,5.6,23.7,5.7z M19.6,15.7L19.6,15.7
		C19.5,15.8,19.6,15.8,19.6,15.7L19.6,15.7C19.7,15.7,19.7,15.7,19.6,15.7z M19,28.9c0,0-0.1-0.1-0.1-0.1c-0.1,0.1-0.3,0.1-0.3,0.2
		c0.1,0,0.1,0.1,0.1,0.1C18.8,29.1,19,29.1,19,28.9z M19.7,15.2C19.7,15.1,19.7,15.1,19.7,15.2c-0.1-0.1-0.2-0.1-0.2-0.1
		c-0.1,0-0.1,0.1-0.2,0.1c0.1,0,0.1,0.1,0.2,0.1C19.5,15.2,19.6,15.2,19.7,15.2C19.7,15.2,19.7,15.2,19.7,15.2z M19.3,28.3
		c0-0.1-0.1-0.1-0.2,0c0,0.1-0.1,0.1-0.1,0.1s-0.1,0.1-0.1,0.1L19,28.5c0.1,0,0.2,0,0.2,0C19.3,28.4,19.3,28.4,19.3,28.3z M19,29.3
		L19,29.3c0.1,0,0.1,0,0.2,0c-0.1,0-0.1,0-0.1-0.1C19,29.3,19,29.3,19,29.3z M16,19.2L16,19.2c0.1,0,0.1,0,0.2,0c0,0-0.1,0-0.1-0.1
		C16,19.2,16,19.2,16,19.2z M9.7,6c0.1-0.1,0.1-0.1,0.1-0.1L9.7,5.9C9.7,5.9,9.7,5.9,9.7,6L9.7,6z M9.4,11C9.4,10.9,9.4,10.9,9.4,11
		c0.1-0.2,0.1-0.2,0-0.2c-0.1,0.1-0.1,0.1-0.1,0.2c0,0,0,0,0,0.1c-0.1-0.1-0.1-0.1-0.1-0.2c-0.1,0-0.2-0.1-0.3-0.1
		c-0.1,0-0.1-0.1-0.2,0c-0.1,0.1-0.4,0.1-0.4,0.1C8.2,10.9,8.3,11,8.4,11c0.1,0,0,0.1,0,0.1l0.1,0.1c0.3,0,0.4,0.2,0.7,0.1
		c0.1,0,0.1,0,0.3,0c0.2,0,0.3-0.1,0.2-0.1C9.4,11.1,9.3,11.1,9.4,11z M23.4,7.7c0-0.1,0-0.1,0.1-0.1c0-0.1-0.1-0.1-0.1-0.1
		C23.2,7.6,23.2,7.6,23.4,7.7L23.4,7.7z M23.7,13.5c0.1,0.1,0.1,0.1,0.1,0.1l0,0v-0.1C23.8,13.5,23.7,13.5,23.7,13.5
		C23.7,13.4,23.7,13.5,23.7,13.5z M11.7,17.3L11.7,17.3C11.7,17.4,11.7,17.4,11.7,17.3L11.7,17.3C11.7,17.4,11.7,17.3,11.7,17.3z
		 M11.5,1.5L11.5,1.5L11.5,1.5L11.5,1.5z M16.8,22.7L16.8,22.7C16.8,22.8,16.8,22.8,16.8,22.7z M17.6,26L17.6,26
		C17.6,26,17.6,26,17.6,26C17.6,26,17.6,26,17.6,26C17.6,26,17.6,26,17.6,26z M17.1,19.8L17.1,19.8C17.1,19.9,17.1,19.9,17.1,19.8
		L17.1,19.8C17.1,19.9,17.1,19.9,17.1,19.8z M17.1,21.8C17.1,21.8,17.1,21.8,17.1,21.8L17.1,21.8C17.1,21.8,17.1,21.8,17.1,21.8
		L17.1,21.8z M17.1,20.6L17.1,20.6C17.1,20.7,17.1,20.7,17.1,20.6L17.1,20.6C17.1,20.7,17.1,20.6,17.1,20.6z M16.9,22.3
		C16.9,22.4,16.8,22.4,16.9,22.3L16.9,22.3C16.9,22.4,17,22.4,16.9,22.3C17,22.4,17,22.3,16.9,22.3z M16.5,18.5
		C16.5,18.6,16.5,18.6,16.5,18.5c0.1,0,0.1,0,0.2,0h-0.1l0,0C16.5,18.5,16.5,18.5,16.5,18.5z M16.8,22.7L16.8,22.7
		C16.9,22.7,16.9,22.7,16.8,22.7L16.8,22.7C16.9,22.7,16.9,22.7,16.8,22.7z M18.6,29.3c0.1,0.1,0.1,0.1,0.1,0.1l0.1-0.1
		C18.8,29.3,18.7,29.3,18.6,29.3L18.6,29.3z M9.4,10.7C9.3,10.7,9.3,10.8,9.4,10.7L9.4,10.7z M18.3,22.6L18.3,22.6
		C18.3,22.5,18.3,22.5,18.3,22.6z M18.3,22.6C18.3,22.6,18.3,22.6,18.3,22.6C18.3,22.6,18.3,22.6,18.3,22.6
		C18.3,22.6,18.3,22.6,18.3,22.6z M18.4,22.5L18.4,22.5C18.4,22.6,18.4,22.6,18.4,22.5C18.4,22.5,18.4,22.5,18.4,22.5z M18.1,17.2
		C18,17.2,18,17.2,18,17.2l-0.1,0.1C17.9,17.3,18,17.3,18.1,17.2L18.1,17.2z M17.9,21.9C18,21.9,18,21.9,17.9,21.9L17.9,21.9
		C18,21.9,18,21.9,17.9,21.9L17.9,21.9z M18.2,24.6c0,0,0.1,0.1,0.1,0.1c0.1,0,0.1-0.1,0.1-0.1c0-0.1,0-0.1-0.1-0.1
		C18.2,24.5,18.2,24.5,18.2,24.6z M18.2,21.5C18.2,21.5,18.1,21.5,18.2,21.5L18.2,21.5C18.1,21.5,18.2,21.5,18.2,21.5L18.2,21.5z
		 M9.8,5.2C9.8,5.1,9.7,5.1,9.8,5.2C9.7,5.1,9.6,5.1,9.5,5.1c-0.1,0-0.1,0.1-0.1,0.1c0,0.1,0.1,0.1,0.1,0.1L9.8,5.2z M7.6,18.9
		C7.6,18.9,7.7,18.9,7.6,18.9c0.1,0.1,0.1,0.1,0.2,0c0-0.1-0.1-0.1-0.1-0.1C7.7,18.9,7.7,18.9,7.6,18.9z M7.7,32.1
		c0,0,0.1-0.1,0.1-0.1C7.8,32,7.8,32,7.8,31.9H7.7C7.6,32,7.6,32.1,7.7,32.1z M7.8,29.4C7.8,29.3,7.7,29.3,7.8,29.4
		c-0.1-0.1-0.1,0.1-0.2,0v0.1h0.1C7.7,29.4,7.8,29.4,7.8,29.4z M7.7,12.5c-0.1,0-0.1-0.1-0.2,0c-0.1,0,0,0.1,0.1,0.1
		C7.6,12.5,7.6,12.5,7.7,12.5L7.7,12.5z M7.6,8.8L7.6,8.8L7.6,8.8C7.5,8.9,7.6,8.9,7.6,8.8L7.6,8.8z M8,10.5
		C8.1,10.5,8.1,10.5,8,10.5L8,10.5c0-0.1-0.1-0.1-0.1-0.1C7.9,10.4,7.9,10.5,8,10.5L8,10.5L8,10.5c-0.1,0.1,0.1,0.1,0.1,0.2l0.1-0.1
		C8.1,10.5,8.1,10.5,8,10.5z M8.1,8.4c0,0,0.1,0,0.1,0c0.1,0.1,0.1,0.1,0.1,0.1l0.1-0.1c-0.1,0-0.1,0-0.1-0.1H8.2
		C8.2,8.3,8.1,8.3,8.1,8.4C8,8.3,8.1,8.4,8.1,8.4z M9.5,14.5c-0.1,0-0.1-0.1-0.2,0c-0.1,0,0,0.1,0.1,0.1C9.4,14.5,9.4,14.5,9.5,14.5
		l-0.1,0.1c0.1,0.1,0.1,0.1,0.1,0.1l0.1-0.1C9.6,14.5,9.5,14.5,9.5,14.5L9.5,14.5L9.5,14.5z M7.5,5.3L7.5,5.3
		C7.5,5.3,7.5,5.3,7.5,5.3c0.1,0.1,0.1,0.1,0.1,0C7.6,5.3,7.5,5.3,7.5,5.3z M7.6,5.5L7.6,5.5C7.5,5.5,7.6,5.5,7.6,5.5L7.6,5.5
		C7.6,5.5,7.6,5.5,7.6,5.5z M7.4,11.7L7.4,11.7L7.4,11.7z M7.5,5.9L7.5,5.9c0.2-0.1,0.2-0.2,0.1-0.2H7.5C7.4,5.7,7.4,5.9,7.5,5.9z
		 M7.7,12.2L7.7,12.2C7.9,12.1,7.9,12,7.8,12c0,0,0,0-0.1,0C7.6,12.1,7.6,12.2,7.7,12.2z M7.8,9.4C7.6,9.5,7.8,9.5,7.9,9.6
		c0,0.1,0.1,0.1,0.1,0.1L8,9.6c0-0.1,0-0.1,0-0.1c0-0.1,0-0.1,0-0.2C8,9.3,8,9.3,7.9,9.3L7.9,9.3C7.9,9.4,7.9,9.4,7.8,9.4z
		 M7.7,18.7L7.7,18.7C7.8,18.8,7.8,18.8,7.7,18.7c0.1,0.1,0.1,0.1,0.1,0.1C7.7,18.7,7.7,18.7,7.7,18.7z M8,7.5C8,7.5,8,7.5,8,7.5
		c-0.1,0-0.1,0-0.2,0c0,0.1,0.1,0.1,0.1,0.1C8,7.5,8,7.5,8,7.5z M8.1,5.9C8.1,5.9,8.1,5.9,8,5.9C8,6,8.1,6,8.1,6
		C8.1,5.9,8.1,5.9,8.1,5.9C8.1,5.9,8.1,5.9,8.1,5.9z M9,20.3L9,20.3C9,20.3,9,20.3,9,20.3L9,20.3C9,20.3,9,20.3,9,20.3z M8.9,20.5
		C9,20.6,9,20.6,9,20.6l0.1-0.1C9,20.5,9,20.5,8.9,20.5C9,20.5,8.9,20.5,8.9,20.5z M9.3,20c-0.1-0.1-0.2-0.1-0.2-0.1
		c-0.1,0-0.2,0-0.3,0L8.8,20c-0.1,0.1,0,0.1,0.1,0.1C9,20.1,9.3,20,9.3,20z M9.2,23.7L9.2,23.7C9.2,23.7,9.2,23.7,9.2,23.7L9.2,23.7
		C9.2,23.7,9.2,23.7,9.2,23.7z M8.9,14.5C8.8,14.5,8.8,14.5,8.9,14.5C8.8,14.5,8.8,14.5,8.9,14.5L8.9,14.5
		C8.8,14.5,8.9,14.5,8.9,14.5z M8.8,30.9L8.8,30.9L8.8,30.9C8.8,30.9,8.9,30.9,8.8,30.9L8.8,30.9z M9.1,29.3c0-0.1,0.1-0.1,0.1-0.1
		c-0.1-0.1-0.1-0.1-0.1-0.1C9.1,29.2,9.1,29.2,9.1,29.3C9.1,29.3,9.1,29.3,9.1,29.3z M8.8,14c0,0,0.1,0,0.1,0c0,0.1,0.1,0,0.1,0
		C8.8,14,8.8,14,8.8,14C8.7,14,8.7,14,8.8,14z M8.6,29.8c0.1,0,0.2,0,0.2,0c0-0.1,0.1-0.1,0.1-0.1s-0.3-0.1-0.3-0.1
		C8.5,29.7,8.5,29.7,8.6,29.8z M8.2,18C8.2,18.1,8.3,18.1,8.2,18c0.1,0.1,0.2,0,0.2,0c0-0.1,0-0.1,0-0.1c0-0.1-0.1-0.1-0.1-0.1
		c-0.1,0.1-0.1,0.1-0.1,0.1V18z M7.6,29.5c0,0-0.1,0-0.1,0c-0.1,0-0.1,0,0,0.1C7.5,29.5,7.6,29.5,7.6,29.5z M8.3,15.7L8.3,15.7
		L8.3,15.7C8.2,15.7,8.3,15.7,8.3,15.7L8.3,15.7z M8.7,19.4L8.7,19.4C8.7,19.3,8.7,19.3,8.7,19.4L8.7,19.4
		C8.6,19.4,8.7,19.4,8.7,19.4z M8.7,18.6L8.7,18.6C8.7,18.6,8.7,18.6,8.7,18.6L8.7,18.6C8.7,18.6,8.7,18.6,8.7,18.6z M8.4,19.6
		C8.4,19.6,8.5,19.6,8.4,19.6L8.4,19.6C8.4,19.6,8.4,19.6,8.4,19.6L8.4,19.6z M7.4,11.7C7.4,11.7,7.4,11.7,7.4,11.7L7.4,11.7
		C7.4,11.7,7.4,11.7,7.4,11.7L7.4,11.7z M20.2,7c0.1,0.1,0.1,0.1,0.2,0.1c0.2,0,0.2-0.1,0.2-0.1c0-0.1-0.1-0.1-0.1-0.1
		C20.4,7,20.4,7,20.3,7C20.3,7,20.3,7,20.2,7C20.2,7,20.2,7,20.2,7z M19.3,25.2L19.3,25.2c-0.2,0.1-0.2,0.1-0.1,0.2h0.1
		C19.4,25.4,19.4,25.3,19.3,25.2z M18.9,3.8L18.9,3.8C18.9,3.8,18.9,3.8,18.9,3.8L18.9,3.8C18.9,3.8,18.9,3.8,18.9,3.8z M19.2,4.2
		c0,0.1-0.1,0.1-0.1,0.1c0,0-0.1,0.1-0.1,0.1c0,0.1-0.1,0.1-0.1,0.1C19,4.4,19,4.4,19.1,4.4c0.1,0,0.2-0.1,0.2-0.1
		C19.3,4.2,19.3,4.1,19.2,4.2z M19.4,22.7c-0.1,0.1-0.1,0.1-0.1,0.1L19.4,22.7C19.4,22.8,19.4,22.8,19.4,22.7
		C19.4,22.8,19.4,22.8,19.4,22.7z M19.2,9.8c0.1,0.1,0.1,0.1,0.1,0.1c0,0,0.1,0,0.1-0.1C19.3,9.7,19.2,9.7,19.2,9.8L19.2,9.8z
		 M19.4,10.3C19.4,10.4,19.4,10.4,19.4,10.3C19.4,10.4,19.4,10.4,19.4,10.3C19.4,10.4,19.4,10.4,19.4,10.3L19.4,10.3z M19.4,10.9
		L19.4,10.9C19.4,11,19.4,11,19.4,10.9L19.4,10.9L19.4,10.9z M19.4,13.8C19.4,13.8,19.4,13.8,19.4,13.8L19.4,13.8
		C19.4,13.8,19.4,13.8,19.4,13.8L19.4,13.8z M18.8,3.6c0.1,0.1,0.1,0.1,0.1,0.1c0,0,0,0,0-0.1C18.9,3.5,18.9,3.6,18.8,3.6L18.8,3.6z
		 M18.2,4.4L18.2,4.4C18.2,4.4,18.2,4.4,18.2,4.4L18.2,4.4C18.1,4.4,18.2,4.4,18.2,4.4z M18.2,1.9C18.2,1.9,18.2,1.9,18.2,1.9
		L18.2,1.9C18.1,1.9,18.2,1.9,18.2,1.9z M18.9,3.3L18.9,3.3C18.9,3.2,18.9,3.3,18.9,3.3L18.9,3.3L18.9,3.3z M15.2,21.5
		C15.2,21.5,15.2,21.5,15.2,21.5c0.1,0,0.1,0,0.2,0c0-0.1,0-0.1-0.1,0C15.2,21.5,15.2,21.5,15.2,21.5z M18.2,6L18.2,6
		C18.2,5.9,18.2,5.9,18.2,6L18.2,6L18.2,6z M18.9,3.3L18.9,3.3L18.9,3.3z M19.4,3.5c-0.1,0-0.1,0-0.1,0C19.3,3.6,19.4,3.6,19.4,3.5
		C19.4,3.5,19.4,3.5,19.4,3.5L19.4,3.5z M19.8,16.7L19.8,16.7C19.8,16.7,19.8,16.7,19.8,16.7L19.8,16.7
		C19.8,16.6,19.7,16.7,19.8,16.7z M20,6.1C20,6.1,20,6.1,20,6.1C20,6.1,20,6.1,20,6.1L20,6.1C20,6.1,20,6.1,20,6.1z M19.8,2.8
		L19.8,2.8C19.9,2.8,19.8,2.8,19.8,2.8l-0.1-0.1v0.1C19.8,2.8,19.8,2.8,19.8,2.8z M12.8,12.1c-0.1,0-0.1-0.1-0.1-0.1h-0.1v0.1
		C12.8,12.1,12.8,12.1,12.8,12.1C12.8,12.1,12.8,12.1,12.8,12.1z M19.8,10c0.1-0.1,0.1-0.1,0.1-0.1c0-0.1-0.1-0.1-0.1-0.1
		C19.8,10,19.8,10,19.8,10C19.7,10,19.8,10,19.8,10z M20.3,4.9C20.3,4.9,20.3,4.9,20.3,4.9c0.1,0.1,0.2,0,0.2,0c0-0.1,0-0.1,0-0.1
		c0-0.1,0-0.1,0-0.2c0-0.1-0.1-0.1-0.1-0.1c-0.1,0.1-0.1,0.1-0.1,0.1C20.3,4.7,20.3,4.8,20.3,4.9z M21.2,2.4c0,0-0.1,0.1-0.1,0.1
		c0,0.1,0.1,0.1,0.1,0.1C21.1,2.4,21.2,2.4,21.2,2.4L21.2,2.4z M19.7,13.6C19.7,13.5,19.7,13.5,19.7,13.6
		C19.6,13.6,19.6,13.6,19.7,13.6L19.7,13.6C19.6,13.6,19.7,13.6,19.7,13.6z M20.4,4.3L20.4,4.3C20.3,4.2,20.3,4.2,20.4,4.3L20.4,4.3
		C20.3,4.3,20.4,4.3,20.4,4.3z M7.5,25.2c0.1-0.1,0.1-0.1,0.1-0.1c0-0.1-0.1-0.1-0.1-0.1C7.6,25.2,7.5,25.2,7.5,25.2
		C7.4,25.2,7.5,25.2,7.5,25.2z M19.7,12.2C19.7,12.1,19.7,12.1,19.7,12.2C19.6,12.2,19.6,12.2,19.7,12.2L19.7,12.2
		C19.6,12.2,19.7,12.2,19.7,12.2z M19.6,11.4L19.6,11.4C19.7,11.5,19.7,11.5,19.6,11.4c0.1,0.1,0.1,0.1,0.1,0
		C19.6,11.4,19.6,11.4,19.6,11.4z M19.7,2.7c-0.1,0-0.1-0.1-0.2,0c0,0,0,0.1,0.1,0.1C19.7,2.7,19.7,2.7,19.7,2.7L19.7,2.7z
		 M19.6,12.5L19.6,12.5C19.7,12.6,19.7,12.6,19.6,12.5c0.1,0.1,0.1,0.1,0.1,0C19.6,12.5,19.6,12.5,19.6,12.5z M19.6,10.1
		C19.6,10.1,19.5,10.1,19.6,10.1C19.7,10.2,19.7,10.2,19.6,10.1c0.1,0.1,0.1,0.1,0.1,0C19.6,10.1,19.6,10.1,19.6,10.1z M19.6,10.6
		L19.6,10.6C19.7,10.5,19.6,10.5,19.6,10.6L19.6,10.6C19.5,10.6,19.6,10.6,19.6,10.6z M19.6,11.3C19.6,11.2,19.6,11.2,19.6,11.3
		L19.6,11.3C19.6,11.2,19.5,11.2,19.6,11.3L19.6,11.3z M12.5,26.6L12.5,26.6L12.5,26.6z M12,9.4c0-0.1,0.1-0.1,0.1-0.1
		c0,0-0.1,0-0.1-0.1C12,9.4,12,9.4,12,9.4L12,9.4z M12,28.5c0.1,0.1,0.1,0.1,0.1,0.1c0-0.1,0.1-0.1,0.1-0.1
		C12.1,28.4,12,28.4,12,28.5L12,28.5z M12.4,26.7c0-0.1,0.1-0.1,0.1-0.1c0-0.1-0.1-0.1-0.1-0.1C12.5,26.6,12.4,26.6,12.4,26.7
		C12.4,26.7,12.4,26.7,12.4,26.7z M11.9,5.9C11.9,5.9,11.9,5.9,11.9,5.9C11.9,5.9,11.9,5.9,11.9,5.9z M12,15.6L12,15.6
		c0.1,0,0.1-0.1,0.1-0.2H12C11.9,15.5,11.9,15.6,12,15.6z M12.8,12.4C12.8,12.4,12.8,12.4,12.8,12.4c-0.1-0.1-0.1-0.1-0.2,0v0.1h0.1
		C12.8,12.4,12.8,12.4,12.8,12.4z M12.4,11.8L12.4,11.8c-0.1-0.1-0.1-0.1-0.2-0.1C12.2,11.8,12.4,11.8,12.4,11.8L12.4,11.8z
		 M12.1,13L12.1,13C12.2,13,12.2,13,12.1,13c0.1,0.1,0.1,0.1,0.1,0C12.2,13,12.2,13,12.1,13z M11.8,5.9C11.8,6,11.9,6,11.8,5.9
		c0.1,0,0.1,0,0.2,0c-0.1,0-0.1,0-0.1-0.1C11.9,5.9,11.9,5.9,11.8,5.9z M13.8,20.9L13.8,20.9L13.8,20.9
		C13.8,20.8,13.8,20.8,13.8,20.9L13.8,20.9z M13.5,21.5c0,0,0-0.1,0-0.1c0,0,0-0.1-0.1-0.2c0-0.1-0.1-0.1-0.1-0.1
		c0,0-0.1,0.1-0.1,0.1c0,0.1,0,0.2,0,0.3c0,0.1,0,0.1,0.1,0.1C13.5,21.5,13.5,21.5,13.5,21.5z M13.9,20.5c0.1,0.1,0.1,0.1,0.1,0.1
		c0.1,0,0.1,0,0.1-0.1C14.1,20.4,14,20.4,13.9,20.5L13.9,20.5z M12.1,31.6L12.1,31.6C12.2,31.6,12.2,31.6,12.1,31.6L12.1,31.6
		C12.2,31.6,12.1,31.6,12.1,31.6z M13.3,21.6C13.3,21.6,13.1,21.6,13.3,21.6c0,0.1,0.1,0,0.1,0C13.4,21.5,13.4,21.5,13.3,21.6z
		 M12.9,19.1L12.9,19.1C12.9,19.1,12.9,19.1,12.9,19.1L12.9,19.1C12.9,19,12.8,19,12.9,19.1z M14.6,19.2c0.1,0,0.2,0,0.2,0
		c0-0.1,0-0.1,0-0.1c-0.1-0.1-0.2-0.1-0.3,0C14.5,19.2,14.6,19.2,14.6,19.2z M12.8,4c0,0-0.1,0.1-0.1,0.1v0.1h0.1
		C12.8,4,12.8,4,12.8,4C12.8,4,12.8,4,12.8,4z M12.7,11.9c0,0-0.1-0.1-0.2-0.1c0,0,0,0.1,0,0.1c0,0,0.1,0.1,0.2,0.1
		C12.7,11.9,12.7,11.9,12.7,11.9z M12.6,12.2c-0.1,0.1-0.1,0.1-0.1,0.1c0,0.1,0.1,0.1,0.1,0.1C12.6,12.2,12.6,12.2,12.6,12.2
		C12.7,12.2,12.7,12.2,12.6,12.2z M12.7,9.4L12.7,9.4c-0.1,0-0.1,0.1-0.2,0.1l-0.1,0.1c0.1,0,0.2,0,0.2,0c0.1-0.1,0.1-0.1,0.1-0.1
		C12.8,9.3,12.8,9.3,12.7,9.4z M12.7,12.5C12.7,12.4,12.7,12.4,12.7,12.5L12.7,12.5z M12.7,12.6c0-0.1,0-0.1,0-0.1
		c-0.1,0.1-0.1,0.1-0.1,0.1c-0.1,0-0.1,0.1-0.1,0.1l0.1,0.1C12.6,12.7,12.7,12.6,12.7,12.6z M12.9,2.7L12.9,2.7
		C13,2.6,13,2.6,13,2.6l-0.1-0.1C12.8,2.6,12.8,2.6,12.9,2.7z M12.6,4.2c0,0,0.1-0.1,0.1-0.1C12.7,4.1,12.6,4.1,12.6,4.2
		C12.5,4.1,12.4,4.1,12.6,4.2z M12.5,1.9C12.5,1.8,12.4,1.8,12.5,1.9c-0.1-0.1-0.2-0.1-0.2,0h0.1C12.4,1.9,12.4,1.9,12.5,1.9z
		 M14,2.1C14,2,14,2,14,2.1c0,0-0.1,0-0.2,0c0,0.1,0.1,0.1,0.1,0.1C14,2.1,14,2.1,14,2.1z M12.5,9.8c0,0-0.1,0-0.1,0
		C12.4,9.9,12.4,9.9,12.5,9.8C12.4,9.8,12.5,9.8,12.5,9.8L12.5,9.8z M13.1,2.1c-0.1,0-0.1-0.1-0.1-0.1c-0.1,0-0.2,0-0.2,0.1
		c0,0.1,0,0.1,0.3,0.1c0,0,0.2-0.1,0.2-0.1C13.4,2.1,13.3,2.1,13.1,2.1z M14.4,4.6L14.4,4.6L14.4,4.6L14.4,4.6z M13.1,4.3L13.1,4.3
		C13.1,4.2,13.1,4.2,13.1,4.3L13.1,4.3C13.1,4.3,13.1,4.3,13.1,4.3z M14.6,2.1c-0.1,0.1-0.1,0.1-0.1,0.2c0,0,0.1,0.1,0.1,0.1
		c0.1,0,0.1-0.1,0.1-0.1C14.7,2.2,14.6,2.1,14.6,2.1z M12.9,6.6L12.9,6.6C13,6.6,13,6.6,12.9,6.6L12.9,6.6z M12,24.8L12,24.8
		c0.1,0.1,0.3,0.1,0.3,0.1C12.2,24.7,12,24.8,12,24.8z M7.3,26c0,0,0.1,0,0.1,0c0,0.1,0.1,0,0.1,0C7.4,26,7.4,26,7.3,26L7.3,26z
		 M11.6,14.5c-0.1,0-0.1,0-0.1,0C11.5,14.5,11.5,14.5,11.6,14.5C11.6,14.5,11.6,14.5,11.6,14.5L11.6,14.5z M11.7,9
		c0,0-0.1-0.1-0.1-0.1C11.5,9,11.5,9,11.5,9c0,0.1-0.1,0.1,0,0.1c0.1,0,0.1,0.1,0.1,0.1c0.1,0,0.1-0.1,0.1-0.1S11.7,9,11.7,9z
		 M11.5,9.6C11.5,9.6,11.5,9.6,11.5,9.6L11.5,9.6C11.5,9.6,11.5,9.7,11.5,9.6L11.5,9.6z M11.5,23.6L11.5,23.6
		C11.6,23.6,11.6,23.6,11.5,23.6L11.5,23.6C11.5,23.6,11.5,23.6,11.5,23.6z M9.8,33.3c0,0.1,0,0.1,0.1,0.1c0.1,0,0.1-0.1,0.1-0.1
		C9.9,33.3,9.9,33.3,9.8,33.3L9.8,33.3z M11.6,8.7c0-0.1-0.1-0.1-0.1-0.1l-0.1,0.1C11.5,8.8,11.5,8.8,11.6,8.7
		C11.6,8.8,11.6,8.8,11.6,8.7z M9.9,8.6c-0.1,0-0.1-0.1-0.2,0C9.8,8.6,9.9,8.6,9.9,8.6L9.9,8.6L9.9,8.6z M11.6,8.2
		c-0.1,0.1-0.1,0.1-0.1,0.1c0,0.1,0.1,0.1,0.1,0.1C11.6,8.2,11.6,8.2,11.6,8.2C11.6,8.2,11.6,8.2,11.6,8.2z M11.4,24.5L11.4,24.5
		c-0.1,0-0.1,0-0.1,0H11.4C11.4,24.5,11.4,24.5,11.4,24.5z M11.5,20L11.5,20C11.5,20,11.5,20,11.5,20L11.5,20L11.5,20z M11.2,8.3
		L11.2,8.3C11,8.4,11,8.4,11.1,8.5h0.1C11.3,8.4,11.3,8.3,11.2,8.3z M11.4,6.7c-0.1,0-0.1,0-0.1,0c0-0.1-0.1,0-0.1,0
		C11.3,6.7,11.3,6.7,11.4,6.7C11.4,6.7,11.4,6.7,11.4,6.7z M11.1,9.5L11.1,9.5C11.2,9.5,11.2,9.5,11.1,9.5L11.1,9.5
		C11.1,9.4,11,9.4,11.1,9.5z M11.2,7.8C11.2,7.8,11.2,7.8,11.2,7.8C11.1,7.8,11.1,7.8,11.2,7.8h-0.1C11.1,7.8,11.1,7.8,11.2,7.8z
		 M11.4,3.3c-0.1,0.1-0.1,0.1-0.1,0.1c0,0.1,0.1,0.1,0.1,0.1C11.3,3.3,11.4,3.3,11.4,3.3C11.4,3.3,11.4,3.3,11.4,3.3z M11.3,2.7
		L11.3,2.7c-0.2,0.1-0.2,0.2-0.1,0.2h0.1C11.5,2.8,11.5,2.7,11.3,2.7z M9.6,10.6C9.6,10.5,9.5,10.5,9.6,10.6c-0.1-0.1-0.1-0.1-0.2,0
		h0.1C9.4,10.6,9.5,10.6,9.6,10.6z M8,30.1C8,30.2,7.9,30.2,8,30.1L8,30.1C8,30.2,8,30.2,8,30.1C8,30.2,8,30.1,8,30.1z M7.9,12.7
		c0,0.1,0.1,0.1,0.2,0.1C8,12.7,8,12.7,7.9,12.7z M9.9,8.1C9.9,8.2,9.9,8.2,9.8,8.2c0,0.1,0.1,0.1,0.1,0.1C9.9,8.2,9.9,8.2,9.9,8.1
		L9.9,8.1z M7.7,12.6c0,0.1-0.1,0.1,0,0.1c0,0,0.1,0.1,0.2,0.1v-0.1c0-0.1,0-0.1,0-0.1L7.7,12.6z M8.5,8.7C8.5,8.7,8.4,8.7,8.5,8.7
		c-0.1-0.1-0.1-0.1-0.2,0v0.1c-0.3,0-0.2-0.1-0.2-0.2C8.1,8.5,8.1,8.5,8,8.6C8,8.7,8,8.7,8,8.7C7.9,8.8,7.9,8.8,8.1,8.8
		c0,0,0.1,0,0.2-0.1l0.1-0.1H8.5C8.4,8.7,8.5,8.7,8.5,8.7z M7.3,23.9C7.3,23.9,7.3,23.9,7.3,23.9C7.3,24,7.4,24,7.3,23.9h0.1
		C7.4,23.9,7.4,23.9,7.3,23.9z M8,29.1c-0.1,0-0.1,0-0.1,0.1L8,29.1C8,29.1,8,29.1,8,29.1C8,29.1,8,29.1,8,29.1z M7.9,31.5
		c0.1,0.1,0.1,0.1,0.1,0.1c0,0,0.1,0,0.1-0.1C8,31.5,7.9,31.5,7.9,31.5L7.9,31.5z M8.1,12.9C8.1,12.9,8.1,12.9,8.1,12.9
		C8.2,12.8,8.1,12.8,8.1,12.9L8,12.8v0.1C8.1,12.9,8.1,12.9,8.1,12.9z M9.3,3.1c-0.1,0.1-0.1,0.1,0,0.2h0.1c0-0.1,0-0.1,0.1-0.1
		C9.4,3.2,9.4,3.1,9.3,3.1z M9.9,2.1C9.8,2.1,9.8,2.1,9.9,2.1L9.9,2.1C9.9,2.1,9.9,2.1,9.9,2.1L9.9,2.1z M8.2,9.1L8.2,9.1
		c0.1,0,0.1,0,0.2,0c0,0-0.1,0-0.1-0.1C8.3,9.1,8.3,9.1,8.2,9.1z M9.9,6.7C9.9,6.8,9.9,6.8,9.8,6.8c0,0.1,0.1,0.1,0.1,0.1
		C9.9,6.8,9.9,6.8,9.9,6.7L9.9,6.7z M8.6,5.4C8.6,5.4,8.7,5.4,8.6,5.4L8.6,5.4C8.7,5.4,8.7,5.4,8.6,5.4L8.6,5.4z M11,5.4
		c0,0.1,0,0.1,0.1,0.1h0.1c0.1-0.1,0-0.2-0.1-0.2C11.1,5.3,11,5.3,11,5.4z M9,4.8c0,0,0,0,0.1,0C9.1,4.8,9.1,4.8,9,4.8
		C9,4.8,9,4.8,9,4.8L9,4.8z M10.8,13.5C10.7,13.5,10.8,13.5,10.8,13.5c0.1,0.1,0.1,0.1,0.2,0.1v-0.1C10.9,13.5,10.8,13.5,10.8,13.5z
		 M10.8,13.6c0.1,0.1-0.1,0.1-0.2,0.1c0,0,0.1,0.1,0.1,0.1c0.2,0,0.3-0.1,0.3-0.1C11,13.6,11,13.5,10.8,13.6L10.8,13.6z M10.5,28.6
		L10.5,28.6c-0.2,0.1-0.2,0.2-0.1,0.2h0.1C10.6,28.8,10.6,28.6,10.5,28.6z M10.3,29.1C10.4,29.1,10.4,29.1,10.3,29.1
		c0.1,0.1,0.1,0,0.1,0C10.4,29.1,10.4,29.1,10.3,29.1C10.3,29.1,10.3,29.1,10.3,29.1z M10.3,29.1L10.3,29.1
		C10.3,29.2,10.3,29.2,10.3,29.1z M10.1,12.3L10.1,12.3c-0.2,0.1-0.2,0.2-0.1,0.2c0,0,0.1-0.1,0.1-0.1
		C10.1,12.3,10.1,12.3,10.1,12.3z M10.3,8.3c0,0,0-0.1-0.1-0.1C10,8.3,10,8.3,10,8.4c0,0.1,0.1,0.1,0.2,0.1
		C10.3,8.4,10.3,8.3,10.3,8.3z M11,11.4L11,11.4L11,11.4C10.9,11.5,11,11.5,11,11.4L11,11.4z M11,12.2L11,12.2
		C11,12.1,11,12.1,11,12.2L11,12.2C10.9,12.2,11,12.2,11,12.2z M10.1,8.6L10.1,8.6L10.1,8.6C10.1,8.7,10.1,8.7,10.1,8.6
		c0.1,0.1,0.1,0.1,0.1,0.1C10.1,8.7,10.1,8.7,10.1,8.6z M7.4,5.1L7.4,5.1C7.4,5,7.4,5,7.4,5.1L7.4,5.1L7.4,5.1z M11.5,30.4
		c-0.1,0-0.1,0.1-0.1,0.1c0.1,0.1,0.1,0.1,0.1,0.1c0.1-0.1,0.1-0.1,0.1-0.1C11.6,30.4,11.6,30.4,11.5,30.4z M11,15.2
		C11,15.3,11,15.2,11,15.2S11,15.2,11,15.2c0-0.1,0.1-0.1,0-0.1c-0.1,0-0.1,0-0.2,0c-0.1,0-0.2,0-0.2,0.1l-0.1,0.1
		c0.1,0.1,0.1,0.1,0.2,0.1C10.8,15.3,10.9,15.3,11,15.2C10.9,15.2,11,15.2,11,15.2z M7.3,21.8L7.3,21.8L7.3,21.8L7.3,21.8z
		 M10.8,15.5L10.8,15.5C10.8,15.5,10.8,15.5,10.8,15.5C10.9,15.4,10.8,15.4,10.8,15.5C10.8,15.5,10.8,15.5,10.8,15.5z M11.5,30.6
		c0.1,0.1,0.1,0.1,0.1,0.1c0,0,0.1,0,0.1-0.1C11.6,30.6,11.5,30.6,11.5,30.6L11.5,30.6z M11.1,23.9C11.1,23.9,11.1,23.9,11.1,23.9
		L11.1,23.9C11.1,23.9,11.1,23.9,11.1,23.9L11.1,23.9z M10.7,13.9c0,0.1,0.1,0.1,0.1,0.1l0.1-0.1C10.8,13.8,10.8,13.8,10.7,13.9
		C10.8,13.8,10.7,13.8,10.7,13.9z M11.2,13.4L11.2,13.4C11.2,13.4,11.2,13.4,11.2,13.4z M10.9,21c0.1-0.1,0.1-0.1,0.1-0.1
		c0-0.1-0.1-0.1-0.1-0.1C10.9,20.9,10.9,20.9,10.9,21C10.9,21,10.9,21,10.9,21z M11,15.7L11,15.7c0.1-0.1,0.1-0.1,0.1-0.2H11
		C10.9,15.6,10.9,15.7,11,15.7z M11.2,13.4C11.1,13.4,11.1,13.4,11.2,13.4h-0.1C11.1,13.5,11.1,13.5,11.2,13.4L11.2,13.4z
		 M10.7,27.4C10.7,27.4,10.6,27.4,10.7,27.4c-0.1-0.1-0.2-0.1-0.2,0v0.1h0.1C10.6,27.4,10.7,27.4,10.7,27.4z M10.9,5.5
		c0,0,0.1-0.1,0.1-0.1C11,5.4,11,5.4,10.9,5.5C10.9,5.5,10.8,5.5,10.9,5.5z M11.3,10.3c0,0.1,0.1,0.1,0.1,0.1l0.1-0.1
		C11.4,10.4,11.3,10.3,11.3,10.3L11.3,10.3c0-0.1,0.1-0.1,0.2-0.2c-0.3-0.1-0.1-0.2-0.3-0.3H11c-0.1,0-0.1,0.1,0,0.1
		C11,10,11,10,11,10c0.1,0.1,0.1,0.1,0.1,0.1c0,0.1-0.1,0.1-0.1,0.1c0.1,0.1,0.2,0.1,0.2,0.1C11.2,10.3,11.2,10.3,11.3,10.3
		L11.3,10.3z M10.9,3.9C10.9,3.8,11,3.8,10.9,3.9L10.9,3.9C10.9,3.8,10.9,3.8,10.9,3.9C10.9,3.9,10.9,3.9,10.9,3.9z M21.2,15.1
		L21.2,15.1C21.2,15.1,21.2,15.1,21.2,15.1L21.2,15.1C21.2,15.1,21.2,15.1,21.2,15.1z M10.4,27.5C10.3,27.5,10.3,27.5,10.4,27.5
		c0,0.1,0.1,0,0.1,0C10.5,27.4,10.5,27.4,10.4,27.5z M10.9,14.5C10.9,14.5,10.9,14.5,10.9,14.5c0.1,0.1,0.1,0.1,0.2,0H11
		C10.9,14.5,10.9,14.5,10.9,14.5z M10.8,6.6c-0.1,0-0.1,0-0.1,0C10.7,6.7,10.8,6.7,10.8,6.6C10.8,6.6,10.8,6.6,10.8,6.6
		C10.9,6.6,10.9,6.6,10.8,6.6z M10.4,15.3c-0.1,0.1-0.1,0.1,0,0.2h0.1C10.5,15.4,10.5,15.3,10.4,15.3L10.4,15.3z M10.6,5.1
		c-0.1,0.1-0.1,0.1-0.1,0.1c0,0,0.1,0.1,0.1,0.1c0.1,0,0.1-0.1,0.1-0.1C10.7,5.1,10.6,5.1,10.6,5.1z"/>
	<path class="st5" d="M23.9,11.4L13.5,22.2c0.2,0,0.3,0,0.5,0c0,0.1,0.2,0.1,0.2,0.2l9.7-10.1C23.9,12,23.9,11.7,23.9,11.4z
		 M18.6,14c0,0.2,0,0.5-0.1,0.7L24,9.2C24,9.1,24,9,24,9c0-0.2,0-0.4,0-0.7l-5.3,5.5C18.6,13.9,18.6,14,18.6,14z M18.7,8.5L23,4
		C23,4,23,3.9,22.9,3.9c-0.1-0.1-0.2-0.2-0.2-0.3l-4.1,4.2C18.7,8,18.7,8.3,18.7,8.5z M12.7,26l-5.6,5.8v0.5c0,0.1,0,0.2,0.1,0.4
		l5.5-5.8C12.7,26.6,12.7,26.4,12.7,26z M23.6,15.7c0.1-0.3,0.1-0.7,0.1-1l-8.4,8.7c0.1,0.2,0.3,0.3,0.4,0.4L23.6,15.7z M14.9,18.6
		h-0.8l-6.8,7.1v0.8L14.9,18.6z M21.6,23.7c-0.1-0.2-0.2-0.3-0.4-0.5L17.5,27c0.1,0.2,0.2,0.4,0.3,0.5L21.6,23.7z M12.7,24
		c0-0.3,0-0.6-0.1-0.8l-5.4,5.6v0.8L12.7,24z M24.5,29.9c-0.1-0.2-0.1-0.4-0.2-0.7l-3.9,4c0.2,0.1,0.4,0.2,0.5,0.3L24.5,29.9z
		 M25,32.3c-0.1-0.2-0.1-0.5-0.2-0.7l-2.2,2.2c0.4-0.1,0.7-0.1,1.1-0.2L25,32.3z M23.7,27.7c-0.1-0.2-0.2-0.4-0.3-0.6l-4.2,4.3
		c0.1,0.2,0.1,0.4,0.2,0.7L23.7,27.7z M22.7,25.6c-0.1-0.2-0.2-0.4-0.3-0.5l-3.9,4.1c0.1,0.2,0.2,0.4,0.2,0.7L22.7,25.6z M12.7,29.9
		c0-0.2,0-0.5,0-0.8l-4.4,4.6c0.2,0.1,0.5,0.1,0.7,0.1L12.7,29.9z M7.7,4C7.6,4.3,7.5,4.5,7.4,4.7v0.4l3.3-3.5
		c-0.5,0.2-1,0.4-1.4,0.6L7.7,4z M12.8,11.6c0-0.3,0-0.5,0-0.8l-5.6,5.8v0.8L12.8,11.6z M7.2,22.6v0.8l5.6-5.8v-0.8L7.2,22.6z
		 M18.7,10.8L18.7,10.8c0,0.3,0,0.5,0,0.8l5.2-5.4c-0.1-0.2-0.1-0.5-0.2-0.7L18.7,10.8z M22.6,18.9l-2,2.1
		C21.4,20.4,22,19.7,22.6,18.9z M20.3,22c-0.1-0.2-0.2-0.3-0.4-0.5l-3.4,3.5c0.1,0.2,0.2,0.4,0.3,0.5L20.3,22z M17.8,5.6
		c0.1,0.2,0.3,0.3,0.4,0.5l3.4-3.6c-0.2-0.1-0.4-0.2-0.5-0.3L17.8,5.6z M7.4,10.4v0.8L13,5.4c0-0.2,0-0.5,0.1-0.8
		c0-0.1,0.4-0.1,0.8-0.1l3.2-3.3c-0.3,0-0.5-0.1-0.7-0.1L7.4,10.4z M7.4,7.3v0.8l6.8-7c-0.3,0-0.6,0.1-0.9,0.1L7.4,7.3z M12.8,14.6
		c0-0.3,0-0.6,0-0.8l-5.6,5.8v0.8L12.8,14.6z M7.3,13.5v0.8l5.6-5.8c0-0.3,0-0.5,0-0.9L7.3,13.5z M15.8,4.7c0.2,0.1,0.5,0.1,0.6,0.2
		l3.1-3.2c-0.2-0.1-0.4-0.1-0.6-0.2L15.8,4.7z"/>
	<path class="st3" d="M24.4,8.4c-0.1-2.3-0.3-4.4-2.2-5.9c-1.8-1.5-4.2-1.7-6.5-1.8c-0.1-0.1-0.2-0.1-0.3-0.1
		C11.4,0.7,7,1.5,6.9,6.4c-0.1,5.3-0.1,10.6-0.2,15.8c0,2.5-0.1,4.9-0.1,7.4c0,0.9-0.3,2.4,0.1,3.3c0.7,2,3.9,1.4,5.1,0.4
		c2.1-1.8,1.2-5.2,1.2-7.6c0-0.4-0.3-2.4-0.2-3.1c0.1,0,0.2,0,0.4,0.1c0.9,0.1,1.6,1,2.2,1.6c1.6,2,2.5,4.6,3.3,7.1
		c0.9,3.1,4,3.6,6.6,1.9c0.2-0.1,0.2-0.3,0.2-0.5c-0.7-4.2-2.5-8-5.1-11.2C24.7,19,24.5,13,24.4,8.4z M24.4,32.7c-1,2-4,0.1-4.7-1
		c-0.3-0.4-0.4-1.4-0.5-1.9c-0.7-2.1-1.6-4.3-3-6.1c-1.2-1.5-1.8-2.1-3.6-2c-0.3,0-0.4,0.2-0.4,0.4c-0.2,2.9,0.7,6.1,0.2,8.9
		c-0.5,2.5-4.4,3.1-4.8,0.5c-0.5-3.4,0.1-7.2,0.1-10.7C7.7,16.6,7.8,12.3,7.8,8c0-1-0.2-2.2,0.1-3.2c0.8-3.1,5.2-3.2,7.7-3.2
		c2.3,0.1,5,0.2,6.7,2c1.6,1.6,1.4,4.1,1.4,6.2c-0.1,4.1,0,9.1-4,11.2c-0.3,0.2-0.3,0.5-0.1,0.7c1.8,2.1,3.2,4.6,4.2,7.3
		C23.9,29.9,24.7,31.9,24.4,32.7z M18.1,5.4c-1.2-1.4-3.6-1.6-5.2-1.2c-0.2,0.1-0.3,0.2-0.3,0.4c-0.1,3.3-0.1,6.7-0.1,10.1
		c0,1.3,0,2.6,0,3.9c0,0.2,0.2,0.4,0.4,0.4c1.7,0,3.6,0.3,4.9-1.1c1.7-1.8,1.4-4.9,1.4-7.2C19.1,9,19.3,6.8,18.1,5.4z M17.5,16.7
		c-1.2,1.9-2.4,1.3-4,1.5c-0.2,0.1-0.2,0.1-0.3,0.1c-0.1-0.3,0.1-0.7,0.1-1c0-0.8,0-1.5,0-2.3c0.1-0.1,0.1-0.1,0.1-0.2
		c0-1.6,0-3.3,0.1-5c0-1.6-0.5-4.4,1.3-4.7c3.8-0.6,3.6,3.7,3.6,6.3C18.2,13,18.5,15.2,17.5,16.7z"/>
</g>
</svg>
