<?xml version="1.0" encoding="utf-8"?>
<!-- Generator: Adobe Illustrator 22.1.0, SVG Export Plug-In . SVG Version: 6.00 Build 0)  -->
<svg version="1.1" id="Layer_1" xmlns="http://www.w3.org/2000/svg" xmlns:xlink="http://www.w3.org/1999/xlink" x="0px" y="0px"
	 viewBox="0 0 27 42" style="enable-background:new 0 0 27 42;" xml:space="preserve">
<style type="text/css">
	.st0{fill:#118933;}
	.st1{fill:#046938;}
	.st2{fill:#44454D;}
	.st3{fill:#0C6B38;}
	.st4{fill:#2D9947;}
	.st5{fill:#CEE3CE;}
</style>
<g>
	<path class="st0" d="M17.4,18.9c1.6,1.9,3.2,3.8,4.2,6.1c1.7,4.1,1.3,9.8-1.6,13.1c-3.1,3.6-9.1,4.4-13.1,2.1c-3.5-2-6.8-8-4-11.8
		c2.1-2.9,5.9-2.7,8.1-0.7c-1.3-2.1-3.3-3.8-4.8-5.8c-3.1-4-5.1-9.8-1.8-14.4c2.9-3.9,8.9-5.1,13.2-3c3.8,1.9,5,6,5.1,10
		c0.1,0.7-0.1,1.1-0.4,1.5C21.5,18.1,19.4,19.1,17.4,18.9z"/>
	<path class="st1" d="M22.3,24.2c1.5,3.6,1.1,8.6-1.5,11.5c-2.8,3.1-8.1,3.9-11.7,1.9c-2.9-1.6-6.1-6.9-3.6-10.1
		c1.2-1.5,3.4-1.8,5.1-1.2c1.6,0.6,2.3,1.7,2.5,3.4c0.2,1,0.6,3.9,1.7,1.8c0.7-1.4,0-3.6-0.6-4.7c-1.4-2.7-3.9-4.8-5.7-7.2
		C5.9,15.9,4,10.7,6.9,6.7c2.5-3.5,7.9-4.4,11.6-2.6c3.2,1.6,4.3,5,4.5,8.4c0.1,0.2,0.2,0.4,0.2,0.6C22.8,17.6,16,17,15.2,13
		c-0.1-0.5-0.4-6-1.6-2.5c-0.6,1.8,1.8,4.4,2.7,5.5C18.4,18.6,20.9,21,22.3,24.2z"/>
	<path class="st2" d="M19.2,15c-0.5-0.5-0.9-1.1-1.4-1.6c1.2,1,2.7,1,3.9,1c1.3,0,3.4-0.4,3.4-3.3V11c-0.3-8.2-4.9-10-8.8-10
		C10.9,1,7,4.5,7,9.3c0,4.8,3.1,8.2,5.7,11.2l0.1,0.1c1.9,2.2,3.9,4.5,3.9,7c0,0,0,2.6-0.9,2.7c-0.2-0.2-0.3-1-0.4-2.3
		c-0.1-0.2-0.1-0.3-0.1-0.4c-0.1-1.9-1.2-3.8-4.5-3.8c-3.3,0-4.4,2.2-4.4,4.3c0,4.2,3.4,8.8,8.8,8.8c6.5,0,10-3.8,10.1-10.9
		c0-4.1-2.9-7.6-5.7-10.7L19.2,15z M16.3,7.3c0.1,0.2,0.3,0.8,0.4,2.4v0.1c0,0.4,0,0.9,0.1,1.3c0.1,0.2,0.1,0.4,0.1,0.4v0.3l0.1,0.3
		c0.1,0.2,0.1,0.3,0.2,0.4c-0.9-1.2-1.5-2.4-1.5-3.2C15.5,7.6,15.8,7.3,16.3,7.3z"/>
	<path class="st3" d="M17.9,15.2c2.6,2.9,5.3,6.1,5.3,9.8c0,4.9-1.9,9.3-8.6,9.3c-4.5,0-7.3-3.9-7.3-7.3c0-1.4,0.7-2.7,3-2.7
		c1.8,0,3.1,0.8,3.1,2.4c0.1,1.2,0.1,4.2,1.9,4.2c2.2,0,2.4-2.8,2.4-4.2c0-3.1-2.2-5.7-4.3-8.1C10.8,15.6,8,12.4,8,8.2
		c0-4.1,3.5-6.7,7.8-6.7c6.2,0.1,7.2,5.1,7.2,8.5c0,1-0.2,1.8-1.9,1.8c-1.5,0-2.9,0-3.5-1.5c0-0.1-0.1-1-0.2-1.7
		c-0.1-1.5-0.2-3.8-1.6-3.8c-1.9,0-2.4,1.6-2.4,3.3C13.6,10.3,15.9,12.9,17.9,15.2z"/>
	<path class="st4" d="M14.5,7.6c0,0.7,0.3,1.5,0.7,2.5c0.5,0.9,1,1.7,1.4,2.2c0.5,0.5,1.2,1.4,2.1,2.5c1.1,1.2,2,2.3,2.6,3.1
		c0.6,0.8,1.3,1.9,1.9,3.1c0.6,1.3,0.8,2.5,0.8,3.6c0,6.2-2.9,9.3-8.6,9.3c-2.2,0-3.9-0.8-5.3-2.3c-1.4-1.5-2-3.2-2-5
		c0-1.8,1-2.7,3-2.7c2.1,0,3.1,0.8,3.1,2.4c0,0.1,0,0.3,0.1,0.6c0,0.3,0,0.6,0.1,0.8c0.1,0.2,0.1,0.4,0.1,0.8
		c0.1,0.3,0.1,0.6,0.2,0.8c0.1,0.2,0.2,0.4,0.3,0.6c0.1,0.2,0.3,0.4,0.5,0.5c0.2,0.1,0.4,0.2,0.7,0.2c1.6,0,2.4-1.4,2.4-4.2
		c0-1-0.3-2-0.7-3c-0.5-1-1-1.9-1.4-2.5c-0.5-0.7-1.2-1.5-2.2-2.5c-1.2-1.3-2-2.4-2.6-3.1c-0.6-0.7-1.2-1.8-1.8-3.1
		c-0.6-1.4-1-2.7-1-4.1c0-2,0.7-3.6,2.2-4.8c1.5-1.1,3.4-1.8,5.7-1.8c4.6,0,7.1,2.8,7.3,8.4c0,1.2-0.6,1.8-1.9,1.8
		c-0.6,0-1.2,0-1.5-0.1c-0.3-0.1-0.7-0.2-1.1-0.4c-0.4-0.2-0.7-0.6-0.9-1c0-0.1,0-0.1-0.1-0.3c0-0.2-0.1-0.4-0.1-0.7
		c-0.1-0.3-0.1-0.5-0.1-0.7c0-2.6-0.6-3.8-1.6-3.8C15.3,4.3,14.5,5.4,14.5,7.6z"/>
	<path class="st3" d="M14.5,6C14.5,6,14.6,6,14.5,6c0.1,0.1,0.2,0,0.2,0h-0.1C14.6,6,14.6,6,14.5,6z M15.4,1.2
		C15.4,1.2,15.4,1.2,15.4,1.2h-0.1C15.3,1.3,15.4,1.3,15.4,1.2L15.4,1.2z M17.8,4.6L17.8,4.6L17.8,4.6c0.1-0.1,0-0.1,0-0.1V4.6
		L17.8,4.6L17.8,4.6z M17.6,1.7C17.6,1.7,17.6,1.7,17.6,1.7c0.1,0.1,0.1,0.1,0.2,0.1V1.7C17.8,1.7,17.7,1.6,17.6,1.7z M17.6,2.3
		c0.1,0.1,0.1,0.1,0.1,0.1c0.1,0,0.1,0,0.1-0.1C17.8,2.3,17.6,2.3,17.6,2.3L17.6,2.3z M14.4,16.2c0,0,0.1,0,0.1,0
		C14.5,16.2,14.4,16.2,14.4,16.2C14.4,16.2,14.4,16.2,14.4,16.2L14.4,16.2z M14.6,1.8C14.6,1.9,14.5,1.9,14.6,1.8
		c-0.1,0.1-0.1,0.1-0.2,0.1L14.4,2C14.4,2,14.5,2,14.5,2c0.2,0,0.2-0.1,0.2-0.1C14.7,1.9,14.6,1.8,14.6,1.8z M18.6,3.3
		c-0.1,0.1-0.1,0.1-0.1,0.2c0,0,0,0.1,0.1,0.1c0.1,0,0.1-0.1,0.1-0.1C18.7,3.4,18.6,3.4,18.6,3.3z M18.9,5.7C19,5.7,19,5.7,19,5.7
		c0,0-0.1,0-0.1-0.1C18.9,5.7,18.9,5.7,18.9,5.7C18.9,5.7,18.9,5.7,18.9,5.7z M18.2,1.6L18.2,1.6L18.2,1.6
		C18.2,1.6,18.2,1.6,18.2,1.6z M19,5.5C19,5.4,19,5.4,19,5.5C19,5.5,19,5.5,19,5.5L19,5.5C19,5.5,19,5.5,19,5.5z M17.6,2.6
		C17.6,2.6,17.6,2.6,17.6,2.6c0.1,0.1,0.1,0.1,0.2,0.1V2.6C17.8,2.6,17.7,2.6,17.6,2.6z M15.1,14.5L15.1,14.5
		C15,14.5,15,14.5,15.1,14.5L15.1,14.5L15.1,14.5z M17.9,2.7L17.9,2.7C17.9,2.7,17.9,2.7,17.9,2.7l-0.1-0.1v0.1
		C17.9,2.7,17.9,2.7,17.9,2.7z M17.8,1.8c0,0,0,0.1,0.1,0.2c0,0,0.1,0.1,0.1,0.1L18,2c0-0.1,0-0.1,0-0.2c0,0-0.1-0.1-0.1-0.1
		C17.6,1.7,17.8,1.8,17.8,1.8z M17.8,21C17.8,20.9,17.7,20.9,17.8,21c-0.1,0-0.1,0-0.2,0V21h0.1C17.7,21,17.8,21,17.8,21z M17,16.9
		L17,16.9L17,16.9L17,16.9L17,16.9z M17.6,21.5L17.6,21.5c0.2-0.1,0.2-0.2,0.1-0.2C17.5,21.4,17.5,21.5,17.6,21.5z M17.5,21.1
		C17.4,21.1,17.4,21.1,17.5,21.1c0,0.1,0.1,0,0.1,0C17.6,21.1,17.5,21.1,17.5,21.1z M16.7,16.1L16.7,16.1c0,0.1,0,0.1,0,0.2
		c0,0.1,0,0.1,0,0.2c0,0.1,0,0.1,0.1,0.1l0.1-0.1c0-0.1,0-0.2,0-0.3C16.8,16.1,16.7,16.1,16.7,16.1z M16.8,17.1L16.8,17.1
		C16.9,17.1,16.9,17.1,16.8,17.1L16.8,17.1L16.8,17.1z M17.5,15.8c-0.1,0.1-0.1,0.1,0.1,0.2C17.6,15.8,17.6,15.8,17.5,15.8
		L17.5,15.8z M18.1,1.4c0-0.1,0-0.2,0-0.3c0-0.1-0.1-0.1-0.1-0.1L18,1.1c0,0.1,0,0.1,0,0.1c0,0.1,0,0.1,0,0.2
		C18,1.5,18.1,1.5,18.1,1.4L18.1,1.4z M17.4,13.7L17.4,13.7c-0.2,0.1-0.2,0.2-0.1,0.2c0,0,0.1-0.1,0.1-0.1
		C17.4,13.8,17.4,13.8,17.4,13.7z M16.5,14.5L16.5,14.5L16.5,14.5z M15.5,18.9c-0.1,0-0.1,0.1-0.1,0.1c0.1,0.1,0.1,0.1,0.1,0.1
		c0.1-0.1,0.1-0.1,0.1-0.1C15.6,18.8,15.5,18.8,15.5,18.9z M16.2,16.5L16.2,16.5C16.2,16.6,16.2,16.6,16.2,16.5c0.1,0,0.1,0,0.1,0
		C16.3,16.5,16.2,16.5,16.2,16.5z M16.5,12.3c-0.2,0.1-0.2,0.2-0.1,0.2h0.1C16.6,12.5,16.6,12.3,16.5,12.3z M16.3,14.5
		c0.1,0.1,0.1,0.1,0.1,0.1c0.1,0,0.1-0.1,0.1-0.1S16.4,14.5,16.3,14.5C16.4,14.4,16.3,14.5,16.3,14.5z M16.4,12.2L16.4,12.2
		L16.4,12.2C16.3,12.3,16.4,12.3,16.4,12.2h0.1C16.5,12.2,16.4,12.2,16.4,12.2z M16.3,16.6C16.3,16.5,16.3,16.5,16.3,16.6L16.3,16.6
		z M16.1,11.8L16.1,11.8c-0.1,0.2-0.1,0.2-0.1,0.3c0,0,0.1,0.1,0.1,0.1c0.1,0,0.1,0,0.1-0.1c0,0,0-0.1,0-0.1c0-0.1,0-0.1-0.1-0.2
		C16.3,11.8,16.2,11.8,16.1,11.8z M11,11.1L11,11.1c0.2-0.1,0.2-0.2,0.1-0.2C10.9,11,10.9,11.1,11,11.1z M13.1,3.4
		C13,3.5,13,3.5,13,3.5C13,3.5,13,3.5,13,3.5C13,3.5,13,3.5,13.1,3.4L13.1,3.4z M13,11.3L13,11.3c0.1-0.1,0.1-0.1,0.1-0.1
		c0-0.1-0.1-0.1-0.1-0.1C12.9,11.2,12.9,11.3,13,11.3z M13.2,16.5C13.2,16.5,13.2,16.5,13.2,16.5L13.2,16.5
		C13.2,16.5,13.3,16.5,13.2,16.5C13.3,16.5,13.2,16.5,13.2,16.5z M12.6,3.8L12.6,3.8C12.7,3.7,12.7,3.7,12.6,3.8V3.7
		C12.6,3.7,12.6,3.7,12.6,3.8z M13.1,13.7L13.1,13.7C13.2,13.8,13.2,13.8,13.1,13.7c0.1,0.1,0.1,0.1,0.1,0
		C13.3,13.7,13.2,13.7,13.1,13.7z M12.9,3.9L12.9,3.9C13,3.9,13,3.9,12.9,3.9L12.9,3.9C13,3.9,12.9,3.9,12.9,3.9z M12.9,5.7
		L12.9,5.7C13,5.7,13,5.7,13,5.7L13,5.6C13,5.7,12.9,5.7,12.9,5.7z M12.9,2.2C13,2.2,13,2.2,13,2.2l0.1-0.1C13,2.1,13,2.1,12.9,2.2
		C12.9,2.1,12.9,2.1,12.9,2.2z M12.8,3.1c0-0.1-0.1-0.1-0.1-0.1l-0.1,0.1C12.8,3.2,12.8,3.2,12.8,3.1C12.9,3.2,12.9,3.1,12.8,3.1z
		 M11.8,12.8C11.8,12.8,11.8,12.8,11.8,12.8C11.8,12.8,11.8,12.8,11.8,12.8L11.8,12.8C11.8,12.8,11.8,12.8,11.8,12.8z M11.6,10.1
		L11.6,10.1L11.6,10.1C11.6,10.2,11.6,10.2,11.6,10.1L11.6,10.1z M12.5,3.3c-0.1,0.1-0.1,0.1,0,0.2h0.1c0-0.1,0-0.1,0.1-0.1
		C12.5,3.3,12.5,3.3,12.5,3.3z M17.1,4.3L17.1,4.3C17,4.3,17,4.3,17.1,4.3C17,4.3,17,4.3,17.1,4.3C17,4.3,17.1,4.3,17.1,4.3z
		 M12.7,12.1C12.7,12.2,12.7,12.2,12.7,12.1L12.7,12.1L12.7,12.1L12.7,12.1z M12.3,9.2c-0.1,0.1-0.1,0.1,0,0.2h0.1
		c0-0.1,0-0.1,0.1-0.1C12.4,9.2,12.3,9.1,12.3,9.2z M12.7,12.1L12.7,12.1C12.7,12,12.7,12,12.7,12.1z M12.4,12.3L12.4,12.3
		c0.1,0,0.1,0,0.2,0c0-0.1-0.1-0.1-0.1-0.1C12.5,12.3,12.4,12.3,12.4,12.3z M16.7,3.7C16.7,3.7,16.7,3.7,16.7,3.7
		C16.7,3.7,16.7,3.7,16.7,3.7z M14.3,15.7C14.3,15.7,14.3,15.7,14.3,15.7L14.3,15.7C14.3,15.7,14.2,15.7,14.3,15.7L14.3,15.7z
		 M14,15.4C14,15.4,14,15.4,14,15.4c0.1,0,0.1,0,0.2,0c0,0,0-0.1-0.1-0.1C14.1,15.4,14,15.4,14,15.4z M14.2,8.9L14.2,8.9
		c0.1-0.1,0.1-0.1,0.1-0.1l0-0.1C14.3,8.9,14.2,8.9,14.2,8.9z M14.3,4.5L14.3,4.5C14.3,4.4,14.2,4.4,14.3,4.5L14.3,4.5
		C14.3,4.5,14.3,4.5,14.3,4.5z M16.9,4.3L16.9,4.3C17,4.3,17,4.3,16.9,4.3C17,4.3,17,4.3,16.9,4.3z M16.7,3.7L16.7,3.7
		C16.7,3.7,16.7,3.7,16.7,3.7C16.7,3.7,16.7,3.7,16.7,3.7L16.7,3.7z M16.5,1.2C16.5,1.2,16.4,1.2,16.5,1.2c0,0.1,0.1,0,0.1,0
		C16.7,1.1,16.6,1.1,16.5,1.2z M14,4.9c-0.1,0-0.1-0.1-0.1-0.1h-0.1v0.1C13.9,4.9,13.9,4.9,14,4.9z M13.5,16.8
		C13.5,16.7,13.5,16.7,13.5,16.8L13.5,16.8C13.5,16.7,13.5,16.7,13.5,16.8C13.5,16.7,13.5,16.8,13.5,16.8z M14,4.9
		C14,4.9,13.9,4.9,14,4.9C13.9,4.9,14,4.9,14,4.9z M13.7,4.8C13.6,4.8,13.7,4.9,13.7,4.8c0.1,0.1,0.1,0.1,0.2,0.1V4.8
		C13.8,4.8,13.7,4.8,13.7,4.8z M14,15.1c0.1,0,0.1,0,0.1,0C14.2,15,14.1,15,14,15.1L14,15.1L14,15.1z M13.9,9.2c0,0,0.1-0.1,0.1-0.1
		c0-0.1-0.1-0.1-0.1-0.1h-0.1C13.8,9,13.8,9.2,13.9,9.2z M13.9,6.2C13.9,6.1,13.9,6.1,13.9,6.2L13.9,6.2C13.9,6.1,13.8,6.1,13.9,6.2
		L13.9,6.2z M14.2,11.6C14.2,11.6,14.1,11.6,14.2,11.6L14.2,11.6C14,11.6,14.1,11.6,14.2,11.6L14.2,11.6z M17.7,13.7
		c0,0-0.1,0-0.1,0.1c0,0.1,0.1,0.1,0.1,0.1C17.7,13.7,17.7,13.7,17.7,13.7C17.8,13.7,17.7,13.7,17.7,13.7z M20,22.4L20,22.4L20,22.4
		C20,22.4,20.1,22.4,20,22.4C20.1,22.4,20,22.4,20,22.4z M19.3,18.5L19.3,18.5L19.3,18.5C19.3,18.5,19.4,18.5,19.3,18.5L19.3,18.5z
		 M19.4,26.2c0.1,0.1,0.3,0.1,0.3,0C19.7,26.1,19.5,26.1,19.4,26.2L19.4,26.2z M20,29.9C20,29.9,20,29.9,20,29.9L20,29.9
		C20,29.9,20.1,29.9,20,29.9C20.1,29.9,20,29.9,20,29.9z M20,30.7c0.1,0,0.1-0.1,0.1-0.1c0-0.1-0.1-0.1-0.1-0.1
		C20,30.6,20,30.6,20,30.7C19.9,30.7,20,30.7,20,30.7z M19.4,20.2L19.4,20.2C19.4,20.3,19.4,20.3,19.4,20.2L19.4,20.2L19.4,20.2z
		 M19.9,30.4c0.1,0.1,0.1,0.1,0.1,0.1c0.1,0,0.1,0,0.1-0.1C20.1,30.3,20,30.3,19.9,30.4L19.9,30.4z M20.1,17
		C20,17.1,20,17.1,20,17.1c0,0.1,0.1,0.1,0.1,0.1C20.1,17.1,20.1,17.1,20.1,17C20.1,17.1,20.1,17,20.1,17z M10.8,11.7L10.8,11.7
		c0.1-0.1,0.1-0.1,0.2-0.1c-0.1,0-0.1-0.1-0.1-0.1h-0.1C10.7,11.5,10.7,11.6,10.8,11.7z M11.1,24.8L11.1,24.8
		C11.2,24.8,11.2,24.8,11.1,24.8L11.1,24.8C11.1,24.8,11.1,24.8,11.1,24.8z M19.3,24.4L19.3,24.4C19.3,24.3,19.3,24.3,19.3,24.4
		L19.3,24.4C19.3,24.4,19.3,24.4,19.3,24.4z M10.9,31.1C10.9,31,10.9,31,11,31c-0.1,0-0.1-0.1-0.1-0.1c-0.1,0-0.1,0.1-0.1,0.1
		C10.8,31.1,10.8,31.1,10.9,31.1z M20.2,18.1C20.2,18.1,20.3,18.1,20.2,18.1L20.2,18.1L20.2,18.1L20.2,18.1z M14.2,33.5
		c-0.1-0.1-0.2-0.1-0.2-0.1s-0.1,0.1-0.2,0.1l0,0c0,0,0.1,0.1,0.2,0.1C14,33.6,14.1,33.6,14.2,33.5z M10.9,8.5L10.9,8.5
		c0.1-0.1,0.1-0.1,0.1-0.1c-0.1-0.1-0.1-0.1-0.1-0.1C10.8,8.4,10.8,8.5,10.9,8.5z M10.6,25.7L10.6,25.7L10.6,25.7z M10.6,25.7
		C10.6,25.7,10.7,25.7,10.6,25.7L10.6,25.7C10.6,25.7,10.6,25.7,10.6,25.7L10.6,25.7z M23.5,24.8c0,0-0.1,0-0.1,0c0-0.1-0.1,0-0.1,0
		C23.5,24.8,23.5,24.8,23.5,24.8L23.5,24.8z M23.3,23.9L23.3,23.9c0.2-0.1,0.2-0.2,0.1-0.2C23.1,23.8,23.1,23.9,23.3,23.9z
		 M22.8,24.2C22.9,24.2,22.9,24.2,22.8,24.2L22.8,24.2C22.9,24.2,22.9,24.2,22.8,24.2L22.8,24.2z M20.9,17.4
		C20.9,17.5,21,17.5,20.9,17.4L20.9,17.4L20.9,17.4L20.9,17.4z M21.5,19.2L21.5,19.2C21.4,19.2,21.5,19.2,21.5,19.2L21.5,19.2
		C21.5,19.2,21.5,19.2,21.5,19.2z M22.2,20.2C22.3,20.1,22.2,20.2,22.2,20.2L22.2,20.2z M22.1,20.4c0.1-0.1,0.1-0.1,0.1-0.1
		c0-0.1,0-0.1,0-0.1c0-0.1-0.1-0.1-0.1-0.1c-0.1,0.1-0.1,0.1-0.1,0.1S22.1,20.3,22.1,20.4C22.1,20.4,22.1,20.4,22.1,20.4z
		 M20.3,28.4C20.3,28.3,20.3,28.3,20.3,28.4C20.3,28.3,20.3,28.3,20.3,28.4C20.2,28.3,20.2,28.3,20.3,28.4L20.3,28.4z M20.4,29.2
		C20.4,29.2,20.4,29.2,20.4,29.2C20.4,29.2,20.4,29.2,20.4,29.2z M20.4,22.8c-0.1,0.1-0.2,0.1-0.2,0.1c0,0.1,0,0.1,0,0.2h0.1
		c0.1,0,0.2-0.1,0.2-0.1C20.7,23,20.6,22.8,20.4,22.8z M20.6,31.7L20.6,31.7C20.5,31.8,20.6,31.8,20.6,31.7L20.6,31.7L20.6,31.7z
		 M20.2,31.4c0.1-0.1,0.1-0.1,0.1-0.1c0,0-0.1,0-0.1-0.1C20.3,31.4,20.2,31.4,20.2,31.4C20.1,31.4,20.2,31.4,20.2,31.4z M20.6,31.8
		L20.6,31.8L20.6,31.8z M20.3,28.3C20.2,28.3,20.2,28.3,20.3,28.3C20.3,28.3,20.3,28.3,20.3,28.3z M20.4,29.2
		C20.4,29.2,20.4,29.2,20.4,29.2L20.4,29.2L20.4,29.2L20.4,29.2z M20.6,7.3C20.6,7.4,20.6,7.4,20.6,7.3C20.6,7.3,20.6,7.3,20.6,7.3
		c0.1-0.1,0.1-0.1,0.1-0.1c0-0.1,0.1-0.1,0-0.1c-0.1,0-0.1,0.1-0.1,0.1C20.5,7.2,20.6,7.3,20.6,7.3z M19.2,1.8L19.2,1.8
		c-0.1,0-0.1,0-0.1,0S19.1,1.8,19.2,1.8L19.2,1.8z M19.4,4.8L19.4,4.8C19.5,4.8,19.5,4.8,19.4,4.8L19.4,4.8
		C19.4,4.8,19.4,4.8,19.4,4.8z M19.5,1.7C19.5,1.7,19.5,1.7,19.5,1.7L19.5,1.7C19.4,1.7,19.5,1.7,19.5,1.7L19.5,1.7z M19.6,10.5
		c0-0.1,0-0.2-0.2-0.2c-0.1-0.1-0.1-0.1,0.1-0.2c0.1,0,0.1-0.1,0.1-0.1c-0.1,0-0.2,0-0.3,0c-0.1,0.1-0.2,0.1-0.3,0.1
		c0.1,0.1,0.1,0.2,0.2,0.3c0.1,0.1,0.2,0.1,0.3,0.1C19.6,10.6,19.6,10.5,19.6,10.5z M19.4,5.8L19.4,5.8C19.5,5.8,19.5,5.8,19.4,5.8
		L19.4,5.8C19.5,5.8,19.4,5.8,19.4,5.8z M19.4,7.9c0.1,0.1,0.1,0.1,0.1,0.1c0.1,0,0.1-0.1,0.1-0.1C19.5,7.8,19.4,7.8,19.4,7.9
		L19.4,7.9z M19.5,7.9L19.5,7.9L19.5,7.9z M14.7,8.9L14.7,8.9c0.1,0,0.1,0,0.1,0V8.8C14.7,8.8,14.7,8.9,14.7,8.9z M18.1,19.5
		L18.1,19.5L18.1,19.5z M18.6,28.6C18.6,28.6,18.6,28.6,18.6,28.6c0.1,0.1,0.2,0,0.2,0c0-0.1,0-0.1,0.1-0.1c0.1-0.1,0.2-0.1,0.1-0.2
		c-0.1-0.1-0.2-0.1-0.3-0.1c-0.1,0-0.1,0-0.1,0c0,0.1,0,0.2,0,0.2C18.5,28.5,18.5,28.5,18.6,28.6z M19.3,6.5
		c0.1-0.1,0.1-0.1,0.1-0.1c0-0.1-0.1-0.1-0.1-0.1C19.3,6.4,19.2,6.4,19.3,6.5C19.2,6.5,19.3,6.5,19.3,6.5z M17.9,14.2L17.9,14.2
		C17.9,14.1,17.9,14.1,17.9,14.2L17.9,14.2C17.9,14.2,17.9,14.2,17.9,14.2z M18.1,19.5L18.1,19.5C18.1,19.5,18.1,19.5,18.1,19.5
		L18.1,19.5L18.1,19.5z M18.8,21.5L18.8,21.5C18.8,21.5,18.8,21.5,18.8,21.5C18.8,21.5,18.8,21.5,18.8,21.5L18.8,21.5z M18.9,21.3
		C18.9,21.2,18.8,21.2,18.9,21.3c-0.1,0-0.2,0-0.2,0c0,0.1,0,0.1,0,0.2c0,0.1,0.1,0.1,0.1,0.1c0.1,0,0.1-0.1,0.1-0.1
		C18.9,21.3,18.9,21.3,18.9,21.3z M18.4,20.6L18.4,20.6C18.3,20.6,18.3,20.6,18.4,20.6L18.4,20.6C18.3,20.6,18.4,20.6,18.4,20.6z
		 M21,10L21,10c0.1,0.1,0.1,0.1,0.2,0.1c0.2,0,0.2-0.1,0.5-0.1l0.1-0.1c-0.1-0.1-0.1-0.1-0.3-0.1c0,0-0.1,0-0.1,0.1
		C21.4,9.9,21.1,10,21,10z M20.7,5.9c0,0,0.1-0.1,0.1-0.1C20.8,5.7,20.8,5.7,20.7,5.9C20.7,5.8,20.6,5.8,20.7,5.9z M16.8,1.8
		c-0.1,0.1-0.1,0.1,0,0.2h0.1c0-0.1,0-0.1,0.1-0.1C16.9,1.8,16.8,1.7,16.8,1.8z M19.4,4.6C19.4,4.6,19.3,4.6,19.4,4.6
		c-0.1-0.1-0.2,0.1-0.2,0c0,0.1,0.1,0.1,0.1,0.1C19.3,4.6,19.3,4.6,19.4,4.6z M20.8,3.9L20.8,3.9C20.8,3.9,20.8,4,20.8,4
		c0,0.1,0,0.2,0,0.2c0,0.1,0.1,0.1,0.1,0.1l0-0.1c0-0.1,0-0.2,0-0.3C21,3.9,20.9,3.9,20.8,3.9z M20.7,3.8
		C20.7,3.8,20.8,3.8,20.7,3.8L20.7,3.8C20.8,3.7,20.8,3.7,20.7,3.8L20.7,3.8z M19.1,1.5L19.1,1.5c0.1-0.1,0.1-0.1,0.2-0.1
		c0-0.1-0.1-0.1-0.1-0.1c-0.1,0-0.1-0.1-0.1-0.1C19,1.3,19,1.5,19.1,1.5z M21.6,6.6c-0.1,0.1-0.1,0.2,0,0.2c0,0,0.1-0.1,0.1-0.1
		C21.7,6.7,21.7,6.7,21.6,6.6L21.6,6.6z M19.4,1.5c0,0.1,0.1,0.1,0.1,0.1l0.1-0.1c0-0.1,0-0.1,0-0.1c-0.1,0-0.1-0.1-0.2-0.1
		C19.4,1.4,19.4,1.5,19.4,1.5z M21.5,9L21.5,9C21.5,9,21.5,9,21.5,9L21.5,9C21.5,9,21.5,9,21.5,9z M20.1,1.7
		C20.1,1.7,20,1.7,20.1,1.7c-0.1-0.1-0.1-0.1-0.2,0H20C20,1.7,20,1.7,20.1,1.7z M20.2,3.4L20.2,3.4C20.2,3.4,20.1,3.4,20.2,3.4
		L20.2,3.4C20.2,3.4,20.2,3.4,20.2,3.4z M19.9,8.6c0.1,0,0.1,0,0.2,0c0-0.1,0-0.1,0-0.1c-0.1-0.1-0.2-0.1-0.3,0
		C19.8,8.6,19.9,8.6,19.9,8.6z M20.8,5.7L20.8,5.7c0.1,0,0.2-0.1,0.2-0.1c0-0.1-0.1-0.1-0.1-0.1C20.9,5.7,20.9,5.7,20.8,5.7z
		 M21,5.5c0,0-0.1,0-0.1,0c0-0.1-0.1,0-0.1,0C20.9,5.6,20.9,5.6,21,5.5L21,5.5z M20.6,3.2C20.6,3.2,20.6,3.2,20.6,3.2L20.6,3.2
		C20.6,3.3,20.6,3.3,20.6,3.2L20.6,3.2z M17.3,17L17.3,17C17.3,17,17.3,17,17.3,17L17.3,17C17.3,17,17.3,17,17.3,17z M14.5,5.2
		c0,0,0.1,0.1,0.1,0.1c0.1,0,0.1-0.1,0.1-0.1c0-0.1-0.1-0.1-0.1-0.2C14.6,5.1,14.5,5.2,14.5,5.2z M11.1,6.4L11.1,6.4
		C11.2,6.5,11.2,6.5,11.1,6.4h0.1C11.3,6.4,11.2,6.4,11.1,6.4z M11.7,25.4L11.7,25.4c0.1,0,0.1,0,0.2,0c0-0.1-0.1-0.1-0.1-0.1
		C11.7,25.4,11.7,25.4,11.7,25.4z M13.4,28.2c0.1-0.1,0.1-0.1,0.1-0.1C13.4,28.2,13.4,28.2,13.4,28.2C13.3,28.2,13.4,28.2,13.4,28.2
		z M14,28.2c0,0.1,0.1,0.1,0.1,0.1l0.1-0.1C14,28.2,14,28.2,14,28.2C14,28.2,14,28.2,14,28.2z M9.3,6.5C9.3,6.5,9.3,6.5,9.3,6.5
		c-0.1,0-0.2,0-0.2,0c0,0.1,0.1,0.1,0.1,0.1C9.3,6.5,9.3,6.5,9.3,6.5z M9.8,5.1L9.8,5.1L9.8,5.1L9.8,5.1L9.8,5.1z M17.1,30.9
		L17.1,30.9C17.2,30.9,17.2,30.9,17.1,30.9L17.1,30.9C17.1,30.8,17.1,30.9,17.1,30.9z M9.7,6.7c0.1,0.1,0.1,0.1,0.1,0.1
		c0,0,0.1,0,0.1-0.1C9.8,6.7,9.8,6.7,9.7,6.7C9.7,6.7,9.7,6.7,9.7,6.7z M19.1,19.8c-0.1,0-0.1,0-0.2,0c-0.1,0-0.2,0-0.3,0l-0.1,0.1
		c0.1,0,0.2,0.1,0.3,0.1c0.2,0,0.2-0.1,0.3-0.1C19.1,19.8,19.1,19.8,19.1,19.8z M22.1,8.4c0-0.1-0.1-0.1-0.1-0.1l0,0.1
		C22,8.4,22,8.4,22.1,8.4C22,8.4,22.1,8.4,22.1,8.4z M21.9,5.8L21.9,5.8C22,5.8,22,5.8,21.9,5.8L21.9,5.8L21.9,5.8z M22,4.9L22,4.9
		C21.9,4.9,22,4.9,22,4.9L22,4.9C22,4.9,22,4.9,22,4.9z M19.2,21.2c-0.1-0.1-0.1-0.1-0.1-0.1L19,21.2C19.1,21.2,19.1,21.2,19.2,21.2
		L19.2,21.2z M9.9,11.3C9.9,11.3,9.9,11.3,9.9,11.3C9.9,11.3,9.9,11.3,9.9,11.3L9.9,11.3C9.9,11.3,9.9,11.3,9.9,11.3z M19,23.8
		c0.1,0.1,0.1,0.1,0.1,0.1c0.1,0,0.1,0,0.1-0.1C19.1,23.7,19.1,23.7,19,23.8L19,23.8z M17.4,30.3c0.1,0.1,0.1,0.1,0.1,0.1
		c0,0,0.1,0,0.1-0.1C17.6,30.2,17.5,30.2,17.4,30.3L17.4,30.3z M11,4.5C11,4.4,11,4.4,11,4.5L11,4.5C11,4.4,11,4.4,11,4.5
		C11,4.5,11,4.5,11,4.5z M11.2,12.9C11.2,12.9,11.2,12.9,11.2,12.9C11.2,12.9,11.2,12.9,11.2,12.9h-0.1
		C11.2,12.9,11.2,12.9,11.2,12.9z M11.3,12.9C11.3,12.9,11.3,12.8,11.3,12.9L11.3,12.9z M11.4,11.1L11.4,11.1
		C11.4,11.1,11.4,11.1,11.4,11.1L11.4,11.1C11.4,11,11.4,11,11.4,11.1z M10,9.9C10,9.9,10,9.9,10,9.9L10,9.9C9.9,9.9,9.9,9.9,10,9.9
		L10,9.9z M11.1,13.6C11.1,13.5,11.2,13.5,11.1,13.6L11.1,13.6L11.1,13.6L11.1,13.6z M11.2,9.6L11.2,9.6C11.2,9.5,11.2,9.5,11.2,9.6
		L11.2,9.6C11.2,9.6,11.2,9.6,11.2,9.6z M11.2,11.7L11.2,11.7C11.1,11.7,11.1,11.7,11.2,11.7C11.1,11.7,11.1,11.7,11.2,11.7
		C11.1,11.7,11.2,11.7,11.2,11.7z M11.2,10.8C11.2,10.8,11.3,10.8,11.2,10.8C11.2,10.8,11.2,10.8,11.2,10.8
		C11.2,10.8,11.2,10.8,11.2,10.8L11.2,10.8z M11.4,13c0.1,0,0.1-0.1,0.2-0.1c-0.1,0-0.1-0.1-0.2-0.1C11.2,13,11.1,13,11.1,13
		C11.2,13,11.3,13,11.4,13z M10.2,7.4L10.2,7.4L10.2,7.4L10.2,7.4C10.1,7.4,10.2,7.4,10.2,7.4z M10.5,7.8L10.5,7.8
		C10.5,7.8,10.5,7.8,10.5,7.8C10.6,7.7,10.5,7.7,10.5,7.8C10.5,7.8,10.5,7.8,10.5,7.8z M10.1,8.1c0,0.1,0.3,0.1,0.3,0
		C10.3,8,10.1,8,10.1,8.1L10.1,8.1z M11,5.7c0,0,0.1,0,0.1-0.1c0-0.1-0.1-0.1-0.1-0.1C11,5.7,11,5.7,11,5.7C11,5.7,11,5.7,11,5.7z
		 M22.8,4L22.8,4c-0.1,0-0.1,0.1-0.2,0.1l-0.1,0.1c0.1,0,0.2,0,0.2,0l0,0C22.9,4,22.9,4,22.8,4L22.8,4z M10.7,4.4L10.7,4.4
		C10.6,4.4,10.6,4.4,10.7,4.4L10.7,4.4C10.6,4.4,10.7,4.4,10.7,4.4z M11.5,10.5c-0.1-0.1-0.1-0.1-0.1-0.1l-0.1,0.1
		C11.3,10.6,11.4,10.6,11.5,10.5L11.5,10.5z M16.7,1.1L16.7,1.1L16.7,1.1z M22.2,3.9L22.2,3.9C22.2,3.9,22.2,3.9,22.2,3.9L22.2,3.9
		L22.2,3.9z M22.2,3.8L22.2,3.8L22.2,3.8z M16.7,1.1c0.1,0,0.1-0.1,0.1-0.1c0-0.1,0-0.1-0.1-0.1l0,0C16.7,1,16.7,1.1,16.7,1.1z
		 M16.7,1.1L16.7,1.1L16.7,1.1L16.7,1.1z M22.2,9.1C22.2,9.1,22.2,9,22.2,9.1C22.2,9,22.2,9,22.2,9.1z M22.4,9.5L22.4,9.5
		C22.4,9.4,22.3,9.4,22.4,9.5L22.4,9.5C22.4,9.5,22.4,9.5,22.4,9.5z M22.2,9.1C22.2,9.1,22.2,9.1,22.2,9.1L22.2,9.1L22.2,9.1
		C22.2,9.1,22.2,9.1,22.2,9.1z M22.1,4.4L22.1,4.4C22.2,4.4,22.2,4.4,22.1,4.4L22.1,4.4C22.1,4.3,22.1,4.4,22.1,4.4z M9.7,25.9
		L9.7,25.9C9.6,25.9,9.6,25.9,9.7,25.9L9.7,25.9C9.6,25.9,9.7,25.9,9.7,25.9z M9.1,27.7L9.1,27.7C9,27.6,8.9,27.6,9.1,27.7L9.1,27.7
		L9.1,27.7z M10.5,29.8L10.5,29.8C10.5,29.8,10.5,29.8,10.5,29.8L10.5,29.8L10.5,29.8z M22.9,8.8C22.9,8.7,22.9,8.7,22.9,8.8
		L22.9,8.8C22.9,8.7,22.8,8.7,22.9,8.8C22.8,8.8,22.9,8.8,22.9,8.8z M9.6,25.9L9.6,25.9C9.6,25.9,9.6,25.9,9.6,25.9z M9.8,25.1
		c0,0-0.1,0-0.1,0c0-0.1-0.1,0-0.1,0C9.8,25.1,9.8,25.1,9.8,25.1C9.8,25.1,9.9,25.1,9.8,25.1z M13.7,28.7c0,0-0.1-0.1-0.1-0.1
		c-0.1,0-0.1,0-0.1,0.1c0,0,0.1,0.1,0.1,0.1C13.6,28.7,13.7,28.7,13.7,28.7z"/>
	<path class="st5" d="M18.1,1.1C17.9,1,17.6,1,17.3,1L9.2,9.5c0.1,0.2,0.1,0.5,0.2,0.7L18.1,1.1z M18.5,6.7L22.1,3
		c-0.1-0.2-0.3-0.3-0.4-0.4L18.4,6C18.5,6.2,18.5,6.5,18.5,6.7z M22.2,11.3c0.3,0,0.5-0.1,0.6-0.1l1.2-1.3c0.1-0.2,0.1-0.3,0.1-0.5
		c0-0.1,0-0.2,0-0.4L22,11.3C22.1,11.3,22.2,11.3,22.2,11.3z M24.2,24.5c0-0.1,0-0.2,0-0.3L15,33.7c0.2,0,0.4,0.1,0.6,0.1
		c0.1,0,0.1,0,0.1,0l8.5-8.8C24.2,24.9,24.2,24.7,24.2,24.5z M15.1,1.2c-0.4,0.1-0.7,0.2-1.1,0.2L9.1,6.5C9.1,6.8,9.1,7.2,9,7.4
		L15.1,1.2z M13.3,24.2c-0.2-0.1-0.4-0.2-0.6-0.2l-4.2,4.3c0.1,0.2,0.1,0.4,0.2,0.7L13.3,24.2z M14.4,26.2
		C14.4,26.1,14.4,26.1,14.4,26.2c0-0.3-0.1-0.5-0.1-0.8l-4.8,4.9c0.1,0.2,0.2,0.3,0.4,0.5L14.4,26.2z M10.8,23.8
		c-0.4,0.1-0.7,0.1-1.1,0.3l-1.2,1.2c-0.1,0.3-0.2,0.7-0.2,1.1L10.8,23.8z M16.5,11.8c-0.1-0.2-0.2-0.3-0.4-0.5l-3.9,4.1
		c0.1,0.2,0.2,0.3,0.4,0.5L16.5,11.8z M14.6,7.8c0-0.1,0-0.1,0-0.2c0-0.2,0-0.4,0.1-0.7l-4.8,4.9c0.1,0.2,0.2,0.4,0.3,0.5L14.6,7.8z
		 M15.3,10c-0.1-0.2-0.2-0.4-0.3-0.5L11,13.7c0.1,0.2,0.2,0.3,0.4,0.5L15.3,10z M14.7,28.8c-0.1-0.2-0.1-0.4-0.2-0.7l-3.8,3.9
		c0.2,0.1,0.3,0.2,0.5,0.4L14.7,28.8z M17.8,13.5c-0.1-0.2-0.3-0.3-0.4-0.4l-3.9,4c0.1,0.2,0.3,0.3,0.4,0.4L17.8,13.5z M16.2,30.3
		c-0.2,0-0.5-0.1-0.6-0.2l-3,3.1c0.2,0.1,0.4,0.2,0.6,0.2L16.2,30.3z M23.6,28.7c0.1-0.4,0.2-0.8,0.3-1.2l-5.9,6.1
		c0.4-0.1,0.7-0.2,1.1-0.3L23.6,28.7z M17.5,22.1c0.1,0.2,0.2,0.4,0.3,0.5l4.1-4.2c-0.1-0.2-0.2-0.3-0.4-0.5L17.5,22.1z M23.9,22.4
		c-0.1-0.2-0.1-0.4-0.2-0.7l-5,5.2c-0.1,0.3-0.1,0.7-0.1,1L23.9,22.4z M23,20.2c-0.1-0.2-0.2-0.4-0.3-0.5l-4.3,4.4
		c0.1,0.2,0.1,0.4,0.2,0.7L23,20.2z M17.2,4.3c0.2,0.1,0.4,0.1,0.6,0.3l2.7-2.8c-0.2-0.1-0.4-0.2-0.6-0.2L17.2,4.3z M18.7,8.8
		c0.1,0.3,0.1,0.5,0.1,0.8l4.5-4.7c-0.1-0.2-0.2-0.4-0.3-0.6L18.7,8.8z M15.3,19.1l3.8-4c-0.1-0.1-0.2-0.2-0.3-0.4
		c-0.1-0.1-0.1-0.1-0.1-0.1l-3.8,4C15.1,18.8,15.2,18.9,15.3,19.1z M19.6,10.8c0.2,0.1,0.4,0.2,0.6,0.3L24,7.1
		c-0.1-0.2-0.1-0.5-0.2-0.7L19.6,10.8z M16.7,20.7l3.9-4.1c-0.1-0.2-0.3-0.3-0.4-0.4l-3.9,4C16.4,20.4,16.5,20.6,16.7,20.7z"/>
	<path class="st3" d="M17.9,13c-1.2-1.4-3.8-4.4-2.9-6.6C16,6.2,16.9,6,17.8,5.7c0.2,0.6,0.3,1.1,0.3,1.8c0.1,0.7,0,1.4,0.2,2
		c0.6,2.8,5.8,3.5,6.3,0.3c0.1-0.1,0.1-0.2,0.1-0.3c-0.2-3.2-1-6.7-4.1-8.2c-3.3-1.6-8.3-0.7-10.6,2.4c-2.6,3.7-0.7,8.4,1.6,11.6
		c1.9,2.5,4.4,4.6,5.8,7.4c0.7,1.4,1.3,3.7,0.7,5.3c-0.4,0.9-1,3.4-3,0.5c-0.4-0.6-0.2-1.7-0.3-2.4c-0.5-2.7-4.2-4.1-6.2-1.8
		c-2.3,2.9,0.8,7.6,3.3,9c3.2,1.8,8.2,1.2,10.7-1.8c2.3-2.7,2.6-7.3,1.3-10.5C22.6,17.9,20,15.6,17.9,13z M20.6,32.2
		C16.3,35,8.4,32.9,8.7,26.6c0.2-3.2,4.4-2.8,5.2-0.2c0.2,0.5,0.1,1.1,0.2,1.6c0.2,1,0.5,2.2,1.5,2.7c2.3,1,3.4-2,3.5-3.8
		c0.3-4.2-2.7-7.1-5.2-10c-2.1-2.4-4.1-5-4.4-8.2c-0.3-3.5,1.8-6,4.9-6.9c2.7-0.7,6.1-0.3,7.9,2.2c1.1,1.5,1.3,3.6,1.4,5.5
		c-0.1,1.5-1.4,1.4-2.2,1.4c-3.2-0.1-2.1-0.8-2.4-2c-0.2-0.8-0.1-1.6-0.2-2.4c-0.2-0.9-0.4-2.1-1.3-2.5c-2.5-1.1-3.6,2.5-3.3,4.3
		c0.7,4.3,5.4,7.5,7.7,11C24.3,23,24.8,29.5,20.6,32.2z"/>
</g>
</svg>
