<?xml version="1.0" encoding="utf-8"?>
<!-- Generator: Adobe Illustrator 22.1.0, SVG Export Plug-In . SVG Version: 6.00 Build 0)  -->
<svg version="1.1" id="Layer_1" xmlns="http://www.w3.org/2000/svg" xmlns:xlink="http://www.w3.org/1999/xlink" x="0px" y="0px"
	 viewBox="0 0 27 42" style="enable-background:new 0 0 27 42;" xml:space="preserve">
<style type="text/css">
	.st0{fill:#118933;}
	.st1{fill:#046938;}
	.st2{fill:#44454D;}
	.st3{fill:#0C6B38;}
	.st4{fill:#2D9947;}
	.st5{fill:#CEE3CE;}
</style>
<g>
	<path class="st0" d="M19.2,4c-4.2-0.7-8.8-0.3-13-0.2C5.9,3.6,5.4,3.7,4.9,3.8c0,0-0.1,0-0.1,0.1C4.8,4,4.6,4,4.5,4.1
		C1.9,5.3-0.2,8,1.8,11C3,12.7,4.9,13,6.8,13c-0.1,4.4-0.1,8.9-0.1,13.4c0,2.5,0,5-0.1,7.5c-0.1,2-0.4,4.3,1,6c2,2.2,6.2,1.9,8.2,0
		c1.7-1.6,1.4-3.5,1.4-5.6c0.1-7.1,0.1-14.3,0.2-21.4c2.4-0.1,4.9-0.6,5.8-3.5C24.1,6.6,21.6,4.3,19.2,4z"/>
	<path class="st1" d="M20.8,3.7c-2.1-0.4-4.5-0.2-6.7-0.2c-2.2,0-4.4,0-6.6,0C7.3,3.5,7,3.5,6.8,3.6c-2.1,0.9-4,2.9-2.3,5.3
		c1.1,1.5,3.3,1.4,5.1,1.2C9.5,15,9.5,19.9,9.5,24.8c0,2.5,0,5-0.1,7.5c0,1.7-0.5,3.7,0.6,5c1.5,1.8,4.9,1.4,6.5,0
		c1.4-1.3,1.1-2.9,1.1-4.7c0.1-7.6,0.2-15.1,0.2-22.7C20,10,22.8,10,23.6,7.4C24.1,5.6,22.3,4,20.8,3.7z"/>
	<path class="st2" d="M26,4.7c0,1.2-1.6,3.4-3.2,3.4c-0.5,0-1,0-1.5,0.1c-0.4,0-0.8,0.1-1.3,0.1c0,7-0.1,14.3-0.1,16.4
		c0,1.2,0,2.9-0.1,4.2c0,0.9,0,1.6,0,1.9v2.8c-0.1,1.1-1.6,3.2-4.5,3.2c-2.9,0-4.3-1.2-4.3-3.7c0-0.8,0-1.2,0.1-1.5
		c0-0.1,0-0.2,0-0.2c0.1-1.6,0.1-7.1,0.1-12.4c0-4.1,0.1-8.2,0.1-10.7h-0.2c-1.9,0-2.5,0-2.9-0.1C7,8,5.6,7.2,5.6,4.6V4.1l0.2-0.3
		c0.4-1.1,1.5-2,2.9-2.5l0.2-0.1h0.2c13.7,0,14.2,0.2,14.6,0.4C24.6,2,26,3.5,26,4.7z"/>
	<path class="st3" d="M22.6,2C22,1.8,10.8,1.8,8.6,1.8c-1,0.3-1.8,1-2.1,1.7L6.5,3.6c0,1,0.2,1.9,1.5,2.1c0.3,0.1,1.4,0.1,2.6,0.1
		h1.6c-0.1,3.6-0.1,21.5-0.2,24.6c0,0.3-0.1,0.7-0.1,1.8c0,1.3,0.3,2.1,2.8,2.1c2.2,0,3-1.5,3-1.7v-2.8c0-0.8,0.1-4.2,0.1-6.1
		c0-4.9,0.1-11.8,0.1-17.8c2,0,3.1-0.1,4.2-0.1c0.7,0,1.7-1.5,1.7-1.9C24,3.2,23.1,2.3,22.6,2z"/>
	<path class="st4" d="M23.6,1.5c-0.4-0.2-5.1-0.3-14-0.3C8.5,1.7,7.8,2.2,7.6,3L7.6,3.2c0,1.3,0.5,2,1.5,2.1
		c0.2,0.1,1.1,0.1,2.6,0.1h1.6c0,1.2,0,5.3-0.1,12.4c-0.1,7.1-0.1,11.1-0.1,12.2c0,0-0.1,0.2-0.1,0.5C13,30.9,13,31.3,13,31.7
		c0,0.7,0.2,1.3,0.5,1.6c0.4,0.4,1.2,0.5,2.3,0.5c0.6,0,1.2-0.1,1.7-0.4c0.5-0.3,0.7-0.5,1-0.8c0.2-0.3,0.3-0.4,0.3-0.5v-2.9
		c0-0.2,0.1-1,0.1-2.6c0.1-1.6,0.1-2.8,0.1-3.5C18.9,16.7,19,10.8,19,5.3c0.7,0,1.6,0,2.4-0.1c0.8-0.1,1.5-0.1,1.8-0.1
		c0.3,0,0.7-0.3,1.1-0.8c0.4-0.5,0.6-0.9,0.6-1.1c0-0.3-0.2-0.6-0.5-1C24.2,1.9,23.8,1.7,23.6,1.5z"/>
	<path class="st3" d="M8.8,5.1C8.9,5,8.9,4.9,8.9,4.9C9,4.9,9,5,9,5.1c0,0-0.1,0.1-0.1,0.1L8.8,5.1z M9.2,3.8
		C9.2,3.7,9.1,3.7,9.2,3.8c-0.1,0-0.1,0-0.2,0h0.1C9.1,3.8,9.1,3.8,9.2,3.8z M8.9,2.2C8.9,2.1,8.9,2.1,8.9,2.2L8.9,2.2L8.9,2.2
		L8.9,2.2z M13.6,9.5L13.6,9.5C13.6,9.5,13.6,9.5,13.6,9.5C13.6,9.5,13.6,9.5,13.6,9.5C13.6,9.5,13.6,9.5,13.6,9.5z M8.5,3L8.5,3
		C8.6,3,8.6,3,8.5,3L8.5,3C8.6,3,8.5,3,8.5,3z M12.7,2C12.7,2,12.7,2,12.8,1.9c0,0-0.1,0-0.1-0.1c-0.1,0-0.1,0.1-0.1,0.1
		C12.6,2,12.6,2,12.7,2z M8.7,3.7L8.7,3.7c0.1,0,0.1,0,0.2,0c0-0.1-0.1-0.1-0.1-0.1S8.7,3.7,8.7,3.7z M10.7,2.8L10.7,2.8
		C10.8,2.8,10.8,2.8,10.7,2.8L10.7,2.8C10.7,2.8,10.7,2.8,10.7,2.8z M9.8,4C9.8,4.1,9.7,4.1,9.7,4.1c0,0,0.1,0.1,0.1,0.1
		c0,0,0,0,0.1-0.1C9.9,4.1,9.9,4.1,9.8,4z M10.1,5.2c0-0.1-0.1-0.1-0.1-0.1L9.9,5.2C10,5.2,10,5.2,10.1,5.2L10.1,5.2z M10,1.3
		C10,1.4,10,1.4,10,1.3L10,1.3C10,1.4,10.1,1.4,10,1.3L10,1.3z M11.7,3.3L11.7,3.3c0.2-0.1,0.2-0.2,0.1-0.2h-0.1
		C11.5,3.1,11.5,3.3,11.7,3.3z M9.6,1.5L9.6,1.5c0.2-0.1,0.2-0.2,0.1-0.2c0,0,0,0-0.1,0C9.5,1.4,9.5,1.5,9.6,1.5z M9.6,4.7
		C9.6,4.7,9.7,4.7,9.6,4.7L9.6,4.7C9.7,4.7,9.7,4.7,9.6,4.7L9.6,4.7z M24.5,3.1C24.5,3,24.5,3,24.5,3.1L24.5,3.1
		C24.5,3,24.4,3,24.5,3.1L24.5,3.1z M16.1,28.9c0-0.1-0.1-0.1-0.1-0.2c-0.1,0.1-0.1,0.1-0.1,0.2c0,0,0.1,0.1,0.1,0.1
		C16.1,29,16.1,28.9,16.1,28.9z M13.7,15c0-0.1-0.1-0.1-0.1,0c-0.1,0-0.1,0,0,0.1C13.6,15,13.6,15,13.7,15z M24.6,2.8L24.6,2.8
		C24.6,2.8,24.6,2.8,24.6,2.8C24.7,2.7,24.6,2.7,24.6,2.8C24.6,2.8,24.6,2.8,24.6,2.8z M24.5,3C24.4,3,24.4,3,24.5,3L24.5,3z
		 M15.7,21.8L15.7,21.8c0.1,0.1,0.1,0.1,0.1,0.1l0.1-0.1C15.8,21.8,15.8,21.8,15.7,21.8L15.7,21.8z M16.2,11.9L16.2,11.9
		c0-0.1,0-0.1-0.1-0.1c-0.1,0.1-0.1,0.1-0.1,0.1C16.1,11.9,16.1,11.9,16.2,11.9z M16,11.4L16,11.4c0-0.1,0-0.2-0.2-0.2
		c-0.1,0-0.1,0-0.1,0v0.1C15.8,11.3,15.9,11.3,16,11.4L16,11.4z M16,21.5c-0.1,0.1-0.1,0.1-0.1,0.1c0,0,0.1,0.1,0.1,0.1
		c0.1,0,0.1,0,0.1-0.1C16,21.5,16,21.5,16,21.5z M15.8,12.5L15.8,12.5L15.8,12.5C15.8,12.5,15.9,12.5,15.8,12.5
		C15.8,12.4,15.8,12.4,15.8,12.5z M16,17.1c-0.1,0-0.1,0.1-0.2,0.1c0.1,0.1,0.1,0.1,0.2,0.1c0.1,0,0.2-0.1,0.3-0.1
		C16.2,17.1,16.1,17.1,16,17.1z M16.3,7.1C16.3,7.1,16.2,7.1,16.3,7.1L16.3,7.1C16.3,7.2,16.4,7.2,16.3,7.1L16.3,7.1z M16.3,21.6
		C16.3,21.5,16.4,21.5,16.3,21.6L16.3,21.6C16.3,21.5,16.2,21.5,16.3,21.6L16.3,21.6z M15.4,32.7c0.1-0.1,0.1-0.1,0.1-0.1
		c0-0.1-0.1-0.1-0.1-0.1C15.4,32.7,15.4,32.7,15.4,32.7C15.3,32.7,15.4,32.7,15.4,32.7z M15.2,20.8c0-0.1,0.1-0.1,0.1-0.1
		c0-0.1-0.1-0.1-0.1-0.1C15.2,20.8,15.2,20.8,15.2,20.8C15.2,20.8,15.2,20.8,15.2,20.8z M15.3,18.5L15.3,18.5c0.1,0,0.1-0.1,0.1-0.2
		h-0.1C15.1,18.4,15.1,18.5,15.3,18.5z M15.1,26.9L15.1,26.9c0.1-0.1,0.1-0.1,0.1-0.1c-0.1,0-0.1-0.1-0.1-0.1
		C15,26.8,15,26.9,15.1,26.9z M15.7,10.8L15.7,10.8L15.7,10.8c-0.1,0.1-0.1,0.1-0.1,0.2c0,0.1,0,0.1,0.3,0.1c0.1,0,0.1,0,0.2-0.1
		c0.1,0,0.1-0.1,0.1-0.1s0-0.1-0.1-0.1C16.1,10.9,16,11,16,11c-0.1,0-0.1,0-0.1,0c0-0.1,0-0.1,0-0.2C15.9,10.8,15.8,10.8,15.7,10.8z
		 M15.7,11.1c-0.1,0.1-0.2,0.1-0.2,0.1c0,0.1,0.1,0.1,0.2,0.1V11.1z M16.4,4.2c-0.1-0.1-0.1-0.1-0.1-0.1c0,0-0.1,0-0.1,0.1
		C16.2,4.2,16.3,4.2,16.4,4.2L16.4,4.2z M15.6,21.8c0.1,0,0.1,0,0.1,0v-0.1C15.7,21.7,15.6,21.7,15.6,21.8
		C15.5,21.7,15.5,21.8,15.6,21.8z M13.4,16.8C13.3,16.9,13.4,16.9,13.4,16.8L13.4,16.8z M13.3,16C13.3,16,13.3,16,13.2,16
		c0,0.1,0,0.1,0,0.1C13.3,16.1,13.3,16.1,13.3,16L13.3,16z M13.3,10.2c0,0,0-0.1,0-0.1c0,0,0-0.1-0.1-0.1
		C13.3,10,13.3,10.2,13.3,10.2L13.3,10.2z M13.4,16.4c0,0,0.1,0,0.1-0.1c0-0.1-0.1-0.1-0.1-0.1C13.4,16.4,13.4,16.4,13.4,16.4
		C13.4,16.4,13.4,16.4,13.4,16.4z M13.8,14.9c0,0-0.1,0-0.1,0V15L13.8,14.9C13.8,14.9,13.8,14.9,13.8,14.9L13.8,14.9z M13.3,12.8
		c0,0.1,0,0.1,0,0.2l0,0c0.1-0.1,0.1-0.1,0.2-0.2l0.1-0.1C13.4,12.8,13.3,12.8,13.3,12.8L13.3,12.8z M13.4,18.5c0-0.1,0-0.1,0-0.2
		c0-0.1-0.1-0.1-0.1-0.1c-0.1,0-0.1,0.1-0.1,0.1c0,0.1,0,0.2,0,0.3c0,0.1,0.1,0.1,0.1,0.1c0.1,0,0.1-0.1,0.1-0.1
		C13.4,18.5,13.4,18.5,13.4,18.5z M13.5,16.9L13.5,16.9c0.1-0.1,0.1-0.2,0.1-0.2c0-0.1-0.1-0.1-0.1-0.1l-0.1,0.1c0,0.1,0,0.1,0,0.1
		C13.4,17,13.4,17,13.5,16.9z M13.2,19.2C13.2,19.2,13.3,19.2,13.2,19.2L13.2,19.2C13.3,19.2,13.3,19.2,13.2,19.2L13.2,19.2z
		 M13.5,15.8C13.5,15.7,13.5,15.7,13.5,15.8L13.5,15.8C13.4,15.9,13.5,15.9,13.5,15.8L13.5,15.8z M13.3,5.9L13.3,5.9L13.3,5.9
		L13.3,5.9z M13.9,26.9c0.1,0,0.2-0.1,0.2-0.1c0.1-0.1-0.1-0.2-0.2-0.2h-0.1c0,0.1,0,0.2,0,0.2S13.8,26.9,13.9,26.9z M13.8,15.6
		L13.8,15.6L13.8,15.6L13.8,15.6C13.7,15.6,13.8,15.6,13.8,15.6z M13.5,10.3L13.5,10.3c0-0.1,0-0.1-0.1-0.2
		c-0.2-0.1-0.1,0.1-0.1,0.1C13.4,10.3,13.5,10.3,13.5,10.3z M13.3,1.7c-0.1,0-0.1,0.1-0.1,0.1c0.1,0.1,0.1,0.1,0.1,0.1
		c0.1-0.1,0.1-0.1,0.1-0.1C13.3,1.8,13.3,1.7,13.3,1.7z M13.4,8.6L13.4,8.6C13.4,8.6,13.4,8.6,13.4,8.6L13.4,8.6
		C13.4,8.6,13.4,8.6,13.4,8.6z M13.4,9.2L13.4,9.2C13.5,9.2,13.5,9.2,13.4,9.2C13.5,9.2,13.5,9.2,13.4,9.2
		C13.5,9.2,13.4,9.2,13.4,9.2z M15.1,23.1L15.1,23.1C15.1,23.1,15.1,23.1,15.1,23.1L15.1,23.1C15.1,23.1,15.1,23.1,15.1,23.1z
		 M18.6,31.2L18.6,31.2C18.5,31.1,18.5,31.1,18.6,31.2c-0.1-0.1-0.1-0.1-0.1,0C18.4,31.2,18.5,31.2,18.6,31.2z M20.8,2.4L20.8,2.4
		c0.1-0.1,0.1-0.1,0.1-0.1l-0.1-0.1C20.7,2.3,20.7,2.4,20.8,2.4z M21.1,4.6L21.1,4.6c0.2-0.1,0.2-0.2,0-0.2c0,0,0,0,0,0
		C21,4.5,21,4.6,21.1,4.6z M21.4,1.8c0-0.1-0.1-0.1-0.1-0.1l-0.1,0.1C21.4,1.9,21.4,1.9,21.4,1.8C21.4,1.9,21.4,1.9,21.4,1.8z
		 M20.8,1.7C20.8,1.7,20.9,1.7,20.8,1.7L20.8,1.7C20.8,1.7,20.7,1.7,20.8,1.7L20.8,1.7z M18.3,30.7L18.3,30.7
		C18.2,30.8,18.3,30.8,18.3,30.7L18.3,30.7L18.3,30.7z M20.8,2c0,0.1,0.1,0.1,0.2,0.1c0.1,0,0.2,0,0.2-0.1c0,0-0.1-0.1-0.2-0.1
		C20.8,1.9,20.7,2,20.8,2z M18.3,30.8L18.3,30.8L18.3,30.8z M19.1,2.6L19.1,2.6C19.2,2.6,19.2,2.6,19.1,2.6L19.1,2.6
		C19.2,2.5,19.1,2.5,19.1,2.6z M21,4L21,4C21,4,21,4,21,4c0-0.2-0.1-0.2-0.2-0.3c0-0.1-0.2-0.1-0.2-0.1c-0.1,0-0.1,0-0.1,0.1
		c-0.1,0.1-0.1,0.1-0.2,0.1C20.6,3.9,20.8,3.9,21,4z M21.6,2.9c0.1,0.1,0.1,0.1,0.1,0.1c0,0,0.1,0,0.1-0.1
		C21.8,2.8,21.7,2.9,21.6,2.9L21.6,2.9z M21.5,5.1C21.5,5.2,21.5,5.2,21.5,5.1c0.1,0,0.1,0,0.2,0c-0.1,0-0.1,0-0.1-0.1
		C21.5,5.1,21.5,5.1,21.5,5.1z M21.8,2.5C21.8,2.5,21.8,2.6,21.8,2.5C21.9,2.5,21.9,2.5,21.8,2.5L21.8,2.5
		C21.9,2.5,21.8,2.5,21.8,2.5z M20.4,1.9L20.4,1.9C20.5,1.9,20.5,1.9,20.4,1.9L20.4,1.9C20.4,1.8,20.4,1.8,20.4,1.9z M18.3,16.9
		C18.3,17,18.2,17,18.3,16.9C18.2,17,18.3,17,18.3,16.9C18.3,17,18.3,17,18.3,16.9L18.3,16.9z M20.5,1.4L20.5,1.4L20.5,1.4z
		 M20.5,1.4L20.5,1.4C20.5,1.4,20.5,1.4,20.5,1.4C20.5,1.4,20.5,1.4,20.5,1.4C20.5,1.4,20.5,1.4,20.5,1.4z M18.2,17.9L18.2,17.9
		C18.1,17.9,18.1,17.9,18.2,17.9z M18.2,4.9C18.1,4.9,18.1,4.9,18.2,4.9C18.2,4.9,18.2,4.9,18.2,4.9z M18.2,17.9
		C18.1,17.9,18.1,17.9,18.2,17.9L18.2,17.9L18.2,17.9L18.2,17.9z M21.9,2.4C21.9,2.4,21.9,2.4,21.9,2.4C21.9,2.4,21.9,2.4,21.9,2.4
		L21.9,2.4C21.9,2.4,21.9,2.4,21.9,2.4z M18.1,4.9L18.1,4.9L18.1,4.9C18.2,4.9,18.2,4.9,18.1,4.9C18.2,4.9,18.2,4.9,18.1,4.9z
		 M17.9,17.1c0.1,0,0.1,0,0.1,0C18,17.1,18,17.1,17.9,17.1C18,17.1,17.9,17.1,17.9,17.1L17.9,17.1z M18.4,1.9c0-0.1-0.1-0.2-0.3-0.1
		c-0.1,0-0.1,0,0,0.1C18.2,2,18.3,2,18.2,2c-0.1,0-0.1,0.1-0.1,0.1c0.1,0.1,0.2,0.1,0.2,0.1l0.1-0.1C18.4,2,18.4,2,18.4,1.9z
		 M18.2,4.7L18.2,4.7C18.3,4.8,18.3,4.8,18.2,4.7c0.1,0.1,0.1,0.1,0.1,0C18.3,4.7,18.3,4.7,18.2,4.7z M18.2,5.1L18.2,5.1
		C18.2,5.2,18.3,5.2,18.2,5.1h0.1C18.3,5.1,18.3,5.1,18.2,5.1z M17.9,1.5C17.9,1.5,17.9,1.5,17.9,1.5c0.1,0,0.1,0,0.2,0
		c-0.1,0-0.1,0-0.1,0l0,0H17.9z M18,1.5C18,1.4,18,1.4,18,1.5L18,1.5z M18,4.1C18,4,18,4,18,4.1C18,4,18,4,18,4.1z M18.1,7
		C18.2,7,18.2,7,18.1,7C18.2,7,18.1,7,18.1,7H18C18.1,7,18.1,7,18.1,7z M17.9,17C17.9,16.9,18,16.9,17.9,17C18,16.8,18,16.8,17.9,17
		C17.9,16.9,17.9,16.9,17.9,17L17.9,17z M18,17.1L18,17.1C18,17.1,18,17.1,18,17.1z M17.9,4.1C18,4.1,18,4.1,18,4.1
		C18,4.1,18,4.1,17.9,4.1C18,4.1,17.9,4.1,17.9,4.1L17.9,4.1z M18.1,31.3c0.1,0,0.1,0,0.1-0.1L18.1,31.3
		C18.2,31.3,18.1,31.3,18.1,31.3C18,31.3,18.1,31.3,18.1,31.3z M22.3,2.1c0.1,0,0.1-0.1,0.1-0.1c0-0.1-0.1-0.1-0.1-0.2
		C22.2,2,22.2,2,22.1,2.1C22.1,2.1,22.2,2.1,22.3,2.1z M18.1,1.3L18.1,1.3c0.1,0,0.1,0,0.1,0S18.2,1.3,18.1,1.3
		C18.1,1.3,18.1,1.3,18.1,1.3C18.1,1.3,18.1,1.3,18.1,1.3z M15.4,10.9L15.4,10.9L15.4,10.9C15.4,11,15.4,11,15.4,10.9h0.1
		C15.4,11,15.4,11,15.4,10.9z M15.4,12.9L15.4,12.9L15.4,12.9C15.4,12.9,15.5,12.9,15.4,12.9C15.4,12.8,15.4,12.8,15.4,12.9z
		 M15.3,10.6L15.3,10.6C15.2,10.6,15.2,10.6,15.3,10.6L15.3,10.6C15.2,10.6,15.3,10.6,15.3,10.6z M15.4,13.1
		C15.4,13.1,15.5,13.1,15.4,13.1C15.4,13,15.4,13,15.4,13.1c-0.1-0.1-0.1-0.1-0.1,0C15.4,13.1,15.4,13.1,15.4,13.1z M15.1,2.4
		c-0.1,0.1-0.1,0.1-0.1,0.1c0,0.1,0.1,0.1,0.1,0.1C15.1,2.5,15.1,2.5,15.1,2.4C15.1,2.5,15.1,2.4,15.1,2.4z M15.1,11.1L15.1,11.1
		C15.1,11.1,15.1,11.1,15.1,11.1c-0.1,0-0.1,0-0.1,0S15.1,11.1,15.1,11.1z M15.2,11c0.1,0,0.1,0,0.1,0c0-0.1,0-0.1,0-0.1
		C15.3,10.9,15.2,10.9,15.2,11C15.1,10.9,15.2,11,15.2,11z M15.2,13.4c0,0,0.1-0.1,0.1-0.1c-0.1-0.1-0.1-0.1-0.1-0.1h-0.1
		C15.1,13.3,15.1,13.4,15.2,13.4z M15,13.6c0.1-0.1,0.1-0.1,0.1-0.1C15.1,13.6,15.1,13.6,15,13.6C15,13.6,15,13.6,15,13.6L15,13.6z
		 M14.9,29.7c0.1,0,0.1-0.1,0.1-0.1c0-0.1-0.1-0.1-0.1-0.1C14.9,29.6,14.9,29.6,14.9,29.7L14.9,29.7z M14.9,29.4
		C14.9,29.5,14.9,29.5,14.9,29.4L14.9,29.4C14.9,29.5,15,29.5,14.9,29.4C14.9,29.5,14.9,29.3,14.9,29.4z M14.9,20.2
		C14.9,20.1,14.8,20.2,14.9,20.2C14.9,20.2,14.9,20.2,14.9,20.2H15H14.9z M14.4,16.5L14.4,16.5c-0.2,0.1-0.2,0.1-0.1,0.2h0.1
		C14.4,16.6,14.5,16.5,14.4,16.5z M14.3,31.3L14.3,31.3C14.4,31.3,14.4,31.3,14.3,31.3L14.3,31.3L14.3,31.3z M14.9,16.4L14.9,16.4
		c-0.2,0.1-0.2,0.2-0.1,0.2h0.1C15,16.5,15,16.4,14.9,16.4z M14.2,31.9c-0.1,0.1-0.1,0.2,0,0.2c0,0,0.1-0.1,0.1-0.1
		C14.2,32,14.2,32,14.2,31.9L14.2,31.9z M14.5,15.4C14.6,15.4,14.6,15.4,14.5,15.4C14.6,15.3,14.5,15.3,14.5,15.4h-0.1
		C14.5,15.4,14.5,15.4,14.5,15.4z M14.6,29.5C14.6,29.5,14.5,29.5,14.6,29.5c-0.1-0.1-0.1-0.1-0.2,0h0.1
		C14.5,29.5,14.5,29.5,14.6,29.5z M14.5,23.4L14.5,23.4C14.5,23.4,14.5,23.4,14.5,23.4C14.5,23.4,14.5,23.4,14.5,23.4
		C14.5,23.4,14.5,23.4,14.5,23.4z M14.6,29.3L14.6,29.3C14.5,29.3,14.6,29.3,14.6,29.3L14.6,29.3C14.5,29.3,14.5,29.3,14.6,29.3z
		 M14.5,17L14.5,17c0.1-0.1,0.1-0.1,0.2-0.1c-0.1,0-0.1-0.1-0.1-0.1h-0.1C14.4,16.8,14.4,16.9,14.5,17z M14.6,19.8
		c-0.1,0.1-0.1,0.1-0.1,0.1L14.6,19.8C14.6,19.8,14.6,19.8,14.6,19.8L14.6,19.8z M18.5,29.5c0.1-0.1,0.1-0.2,0-0.2
		c-0.1,0-0.1,0-0.1,0C18.3,29.4,18.3,29.5,18.5,29.5L18.5,29.5z M16,22.7L16,22.7L16,22.7L16,22.7L16,22.7z M14.7,18.7L14.7,18.7
		c-0.1-0.1-0.1,0-0.2,0h0.1C14.7,18.7,14.7,18.7,14.7,18.7z M14.4,11.9c0.1,0.1,0.1,0.1,0.2,0.1c0.2,0.1,0.2,0,0.2-0.1
		c0,0,0-0.1,0-0.1c0-0.1-0.1-0.1-0.1-0.1h-0.1C14.6,11.7,14.6,11.9,14.4,11.9z M14.9,6.3L14.9,6.3c-0.2,0.1-0.2,0.1-0.1,0.2h0.1
		C15,6.5,15,6.4,14.9,6.3z M14.4,12.1C14.4,12.2,14.5,12.2,14.4,12.1c0.1,0,0.1,0,0.2,0c0,0-0.1,0-0.1-0.1
		C14.5,12.1,14.5,12.1,14.4,12.1z M14.7,14.3L14.7,14.3C14.6,14.4,14.7,14.4,14.7,14.3L14.7,14.3C14.7,14.3,14.7,14.3,14.7,14.3z
		 M14.6,9.8c0,0.1-0.1,0.1,0,0.1c0.1,0.1,0.2,0.1,0.2,0.1l0.1-0.1C14.9,9.8,14.7,9.8,14.6,9.8C14.7,9.8,14.6,9.8,14.6,9.8z
		 M14.5,14.9c0,0,0.1-0.1,0.1-0.1C14.6,14.8,14.5,14.8,14.5,14.9C14.4,14.8,14.4,14.8,14.5,14.9z M14.7,14.3L14.7,14.3L14.7,14.3z
		 M14.7,14.8c0.1-0.1,0-0.2-0.1-0.2h-0.1c0,0.1-0.1,0.1-0.1,0.1C14.5,14.8,14.6,14.8,14.7,14.8L14.7,14.8z M15,15.1
		c0-0.1,0-0.1,0-0.1c0-0.1-0.1-0.1-0.1-0.1c0,0.1-0.1,0.1-0.1,0.1c0,0.1-0.1,0.1-0.2,0.1c-0.1,0-0.1,0.1,0,0.1
		c0.1,0.1,0.1,0.1,0.2,0.1L15,15.1z M15.1,15.6c0-0.1-0.1-0.1-0.1-0.1v-0.1c-0.1,0-0.1-0.1-0.2,0c-0.1,0,0,0.1,0.1,0.1H15v0.1
		C15.1,15.7,15.1,15.7,15.1,15.6L15.1,15.6z M18.7,6.4C18.7,6.4,18.8,6.3,18.7,6.4L18.7,6.4z M18.9,10.4
		C18.9,10.4,18.9,10.4,18.9,10.4C18.9,10.4,18.8,10.4,18.9,10.4h-0.1C18.9,10.4,18.9,10.4,18.9,10.4z M17.6,4.2L17.6,4.2L17.6,4.2
		C17.6,4.2,17.7,4.2,17.6,4.2C17.6,4.1,17.6,4.1,17.6,4.2z M18.9,9.3c0-0.1-0.1-0.1-0.1-0.1l-0.1,0.1C18.9,9.3,18.9,9.3,18.9,9.3
		C18.9,9.3,18.9,9.3,18.9,9.3z M17.5,1.3L17.5,1.3L17.5,1.3L17.5,1.3z M17.8,2.3c0-0.1-0.1-0.1-0.1-0.1c-0.1,0-0.1,0.1-0.1,0.1
		c0.1,0.1,0.1,0.1,0.1,0.1C17.8,2.4,17.8,2.4,17.8,2.3z M17.5,28.2c0.1,0.1,0.1,0.1,0.1,0.1l0.1-0.1C17.7,28.1,17.6,28.1,17.5,28.2
		L17.5,28.2z M18.7,28.5L18.7,28.5C18.7,28.5,18.7,28.5,18.7,28.5C18.7,28.5,18.7,28.5,18.7,28.5C18.7,28.5,18.7,28.5,18.7,28.5z
		 M18.9,28.8L18.9,28.8L18.9,28.8L18.9,28.8z M17.4,20.4c0,0-0.1,0-0.1,0.1c0,0.1,0.1,0.1,0.1,0.1C17.4,20.4,17.4,20.4,17.4,20.4
		C17.4,20.4,17.4,20.4,17.4,20.4z M18.7,6.4c0-0.1-0.1-0.1-0.1-0.1l-0.1,0.1c0,0.1,0,0.1,0,0.2c0,0.1,0.1,0.1,0.1,0.1l0.1-0.1
		C18.7,6.4,18.7,6.4,18.7,6.4z M18.7,28.5L18.7,28.5L18.7,28.5z M18.7,14.1L18.7,14.1C18.7,14.1,18.7,14.1,18.7,14.1L18.7,14.1
		C18.7,14.1,18.7,14.1,18.7,14.1z M18.8,25.1C18.8,25.1,18.8,25.1,18.8,25.1c0.1,0.1,0.1,0.1,0.2,0h-0.1
		C18.8,25.1,18.8,25.1,18.8,25.1z M18.4,16.7L18.4,16.7C18.5,16.7,18.5,16.8,18.4,16.7c0.2,0.1,0.2,0.1,0.3,0.1c0.1,0,0.2,0,0.2,0.1
		c0,0,0,0,0,0c0-0.1,0-0.1,0-0.1c0,0,0,0,0,0C18.7,16.7,18.6,16.7,18.4,16.7z M16.5,6.5L16.5,6.5C16.5,6.5,16.4,6.5,16.5,6.5
		L16.5,6.5C16.5,6.5,16.5,6.5,16.5,6.5z M17.4,17.5C17.4,17.5,17.3,17.5,17.4,17.5L17.4,17.5C17.4,17.5,17.4,17.5,17.4,17.5
		L17.4,17.5z M16.9,1.6c-0.1,0.1-0.1,0.1-0.1,0.1c0,0.1,0.1,0.1,0.1,0.1S16.9,1.7,16.9,1.6L16.9,1.6z M17.2,2.9
		c0,0.1-0.1,0.1-0.1,0.1C17.1,3,17.2,3,17.2,3C17.2,2.9,17.2,2.9,17.2,2.9C17.3,2.9,17.2,2.9,17.2,2.9z M16.8,26.6L16.8,26.6
		c0.1,0,0.1,0,0.2,0c0,0,0-0.1-0.1-0.1C16.8,26.6,16.8,26.6,16.8,26.6z M17.3,3.1C17.2,3.1,17.2,3.1,17.3,3.1
		C17.2,3.1,17.2,3.1,17.3,3.1L17.3,3.1C17.2,3.1,17.3,3.1,17.3,3.1z M16.1,22.2c0-0.1,0-0.2,0-0.2c-0.1,0-0.2,0.1-0.2,0.1
		c-0.1,0.1-0.2,0.1-0.2,0.1c0.1,0.1-0.3,0.1-0.2,0.2c0,0,0,0.1,0.1,0.1h0.1c0.1-0.1,0.2-0.1,0.2-0.2c0-0.1,0.1-0.1,0.1-0.1
		c0-0.1,0.1,0,0.1,0C16.1,22.3,16.1,22.3,16.1,22.2z M16.4,22.5L16.4,22.5c0.1,0,0.1,0,0.2,0c0-0.1-0.1-0.1-0.1-0.1
		S16.4,22.5,16.4,22.5z M16.5,8.1C16.5,8.1,16.5,8.1,16.5,8.1c-0.2,0.1-0.2,0.2-0.1,0.2h0.1C16.6,8.2,16.6,8.1,16.5,8.1z M17.2,17.6
		C17.2,17.7,17.1,17.7,17.2,17.6C17.2,17.7,17.2,17.7,17.2,17.6L17.2,17.6L17.2,17.6z M17.2,17.7C17.2,17.7,17.2,17.7,17.2,17.7
		C17.2,17.7,17.2,17.7,17.2,17.7z M17.2,25.3L17.2,25.3C17.1,25.3,17.2,25.3,17.2,25.3z M17.3,25.8L17.3,25.8
		C17.4,25.8,17.4,25.8,17.3,25.8L17.3,25.8C17.4,25.8,17.3,25.8,17.3,25.8z M17.2,4.3c-0.1,0.1-0.1,0.1-0.1,0.2c0,0,0.1,0.1,0.1,0.1
		c0.1,0,0.1-0.1,0.1-0.1C17.3,4.4,17.3,4.4,17.2,4.3z M17.2,3.7c0.1-0.1,0.1-0.1,0.1-0.1c-0.1,0-0.1-0.1-0.1-0.1
		c-0.1,0-0.1,0.1-0.1,0.1C17.2,3.7,17.2,3.7,17.2,3.7z M17.2,31.7L17.2,31.7C17.2,31.7,17.2,31.7,17.2,31.7L17.2,31.7
		C17.2,31.7,17.1,31.7,17.2,31.7z M17.2,25.2L17.2,25.2L17.2,25.2C17.2,25.3,17.3,25.3,17.2,25.2L17.2,25.2z"/>
	<path class="st5" d="M13.3,6.5c0,0.3,0,0.5,0,0.8l5.8-6c-0.3,0-0.5,0-0.8,0L13.3,6.5z M11.6,5.3C11.6,5.3,11.6,5.3,11.6,5.3h0.8
		l3.8-3.9c-0.3,0-0.5,0-0.8,0L11.6,5.3z M13.3,9.5c0,0.3,0,0.5,0,0.8l8.7-9c-0.2,0-0.5,0-0.8-0.1L13.3,9.5z M7.6,3.4
		c0,0.2,0.1,0.5,0.1,0.7l2.7-2.9c-0.4,0-0.6,0-0.8,0L7.6,3.4z M8.8,5.2C8.8,5.2,9,5.2,9,5.2c0.1,0,0.2,0,0.4,0.1l3.8-3.9
		c-0.3,0-0.5,0-0.8,0L8.8,5.2z M23.4,5.1C24,5,24.8,4,25,3.5L23.4,5.1z M21.2,5.2l3-3.1c-0.2-0.2-0.3-0.3-0.5-0.4l-3.4,3.5
		C20.7,5.2,21,5.2,21.2,5.2z M13.3,12.6c0,0.3,0,0.5,0,0.8l5.8-6c0-0.3,0-0.5,0-0.8L13.3,12.6z M19.1,10.5c0-0.3,0-0.6,0-0.8l-5.8,6
		c0,0.3,0,0.6,0,0.8L19.1,10.5z M19,24.9l-5.9,6.1c0,0.2,0,0.4,0,0.7c0,0.1,0,0.1,0,0.2l5.9-6.1C19,25.4,19,25.1,19,24.9z
		 M18.9,31.8V31l-2.6,2.7c0.4-0.1,0.7-0.1,1.1-0.2L18.9,31.8z M19,19.6c0-0.3,0-0.6,0-0.8l-5.8,6c0,0.3,0,0.5,0,0.8L19,19.6z
		 M19,22.7c0-0.3,0-0.6,0-0.8l-5.8,6c0,0.3,0,0.6,0,0.8L19,22.7z M18.9,28.8c0-0.2,0-0.5,0-0.8l-5.2,5.4c0.2,0.1,0.4,0.2,0.6,0.3
		L18.9,28.8z M19,13.5c0-0.3,0-0.5,0-0.8l-5.8,6c0,0.3,0,0.6,0,0.8L19,13.5z M19,16.6c0-0.3,0-0.5,0-0.8l-5.8,6c0,0.3,0,0.6,0,0.8
		L19,16.6z"/>
	<path class="st3" d="M21,0.7c-3.8-0.1-7.6-0.1-11.4-0.1C9.5,0.7,9.4,0.7,9.4,0.8C7.3,1.8,5.9,4.8,9,5.5c0.8,0.2,1.9,0.1,2.7,0.1
		c0.5,0,1.3,0.2,1.2-0.2c0.4,0.8-0.1,3.1-0.1,4c-0.1,7,0,14.1-0.2,21.1c0,1-0.2,2.1,0.6,2.9c1.1,1,3.2,0.8,4.4,0.2
		c2.2-1.1,1.6-3.5,1.6-5.6c0.1-5.3,0.1-10.7,0.2-16c0-1.4,0-2.8,0-4.2c0-2,0.2-2.3,2-2.4c1.4-0.1,3.2,0.1,3.8-1.8
		C26.1,0.9,22.6,0.8,21,0.7z M22.7,4.7c-1.2,0.2-2.5,0.1-3.6,0.1c-0.2,0-0.4,0.2-0.4,0.4c0,6.9-0.1,13.7-0.2,20.6
		c0,1.6,0.4,4.2-0.1,5.8c-0.5,1.7-3.9,2.6-4.9,0.8c-0.3-0.7-0.1-2,0-2.7c0.2-8.1,0.1-16.2,0.2-24.4c0-0.2-0.2-0.4-0.4-0.4
		c-0.5,0-1.1,0-1.6,0c-0.5,0-1.1,0.1-1.6,0c-1.7-0.4-3-1.8-0.5-3l0,0c3,0,6,0,9,0.1c1.3,0,2.9-0.2,4.1,0.1
		C24.3,2.3,24.5,4.3,22.7,4.7z"/>
</g>
</svg>
