<?xml version="1.0" encoding="utf-8"?>
<!-- Generator: Adobe Illustrator 22.1.0, SVG Export Plug-In . SVG Version: 6.00 Build 0)  -->
<svg version="1.1" id="Layer_1" xmlns="http://www.w3.org/2000/svg" xmlns:xlink="http://www.w3.org/1999/xlink" x="0px" y="0px"
	 viewBox="0 0 27 42" style="enable-background:new 0 0 27 42;" xml:space="preserve">
<style type="text/css">
	.st0{fill:#118933;}
	.st1{fill:#046938;}
	.st2{fill:#44454D;}
	.st3{fill:#0C6B38;}
	.st4{fill:#2D9947;}
	.st5{fill:#CEE3CE;}
</style>
<g>
	<path class="st0" d="M18.4,4c-1.3,0.2-2.6,0.7-3.6,1.7c-1.5,1.5-1.4,3-1.4,5c0.1,4.3-0.1,8.7-0.1,13c0,1.9,0.1,3.8-0.2,5.7
		c-0.1,0.8-0.4,3.7-1.3,2.7c-0.6-0.6-0.3-2.5-0.3-3.2c0-5.3,0-10.5,0-15.7c0-4.3,0.3-9-5.2-9.5C5.7,3.6,5.2,3.7,4.9,4
		C2.7,4.5,0.7,5.9,0.5,8.4c-0.2,1.9,0.1,3.9,0.1,5.8c0.1,3.6,0.1,7.2,0.2,10.8c0.1,3.1,0,6.6,0.8,9.6c1.7,6,8.2,7.7,13.6,6.5
		c5.1-1.2,7.7-6.1,8.1-11.2c0.4-5.3,0.6-10.6,0.7-16c0.1-1.9,0.3-3.9,0.2-5.8C23.9,4.6,21.1,3.6,18.4,4z"/>
	<path class="st1" d="M20.1,3.6C19,3.8,17.8,4.2,17,5c-1.2,1.3-1.1,2.4-1,4.1c0.1,4.3,0,8.7-0.1,13c0,2,0,3.9-0.3,5.9
		c-0.2,1.5-1.4,6.4-3.6,3.2c-0.7-1-0.5-2.6-0.5-3.8c0-5.3,0-10.5,0-15.7c0-3.5,0.6-7.6-3.6-8.1C7.8,3.5,7.7,3.5,7.6,3.5l0,0l0,0
		c0,0,0,0-0.1,0H7.5c-0.1,0-0.2,0-0.3,0.1C5.3,3.7,3.2,4.6,3,6.8c-0.3,1.8,0,3.9,0.1,5.8c0.1,3.6,0.1,7.2,0.2,10.8
		c0.1,3-0.1,6.4,0.8,9.3c1.5,5.3,7.4,6.7,12.1,5.6c4.6-1.1,6.8-5.5,7.2-10c0.4-5.3,0.6-10.6,0.7-16C24.3,8.5,25.3,2.9,20.1,3.6z"/>
	<path class="st2" d="M26.4,3.6l0.2,0.7c0,2.7-0.6,22.4-1.2,24.4c-2,7.1-6.6,8.1-10.7,8.1c-5.3,0-7.4-3-8.5-5.2
		c-0.8-1.8-1.2-7.3-1.3-20.3L4.8,4.6l0.3-0.9l0.2-0.3c0.9-1,2.1-2.1,4.3-2.1c2.7,0,4.2,1.5,4.2,4.6v21.8c0,0.8,0.7,2.4,1.6,2.4
		c1.4,0,2.2-3.2,2.2-8.2c0-2.2,0.1-4.4,0.1-6.2c0.1-1.2,0-2.4,0-3.6c0-0.6,0-1.2,0-1.8c0-1.4,0-3.6-0.1-5.1V5l0.1-0.3
		c0.8-2,2.7-3.1,5.6-3.1C25.1,1.4,26,2.6,26.4,3.6z"/>
	<path class="st3" d="M22.9,1.9c-1.3,0-3.4,0.2-4.2,2.1c0.1,1.5,0.1,3.7,0.1,5.2c0,1.8,0.1,3.6,0,5.4c-0.1,2-0.1,4-0.1,6.1
		c0,4.3-0.5,9.8-3.7,9.8c-1.9,0-3.1-2.4-3.1-3.9V4.8c0-1.2,0-3.1-2.7-3.1c-1.5,0-2.4,0.7-3.2,1.6L5.8,3.7l0.1,6.4
		C6,18.6,6.2,27.9,7.1,29.8c1.1,2.2,2.9,4.4,7.2,4.4c3.8,0,7.5-0.7,9.3-7c0.5-1.6,1.1-20.6,1.1-24C24,2,23.4,1.9,22.9,1.9z"/>
	<path class="st4" d="M23.9,1.4c-2.2,0-3.6,0.7-4.2,2.1c0.1,1,0.1,2.7,0.1,5.2v5.5c-0.1,2.6-0.1,4.7-0.1,6.1c0,6.5-1.2,9.8-3.7,9.8
		c-0.9,0-1.6-0.4-2.2-1.3c-0.6-0.9-0.8-1.7-0.8-2.6V4.4c0-0.5-0.1-1-0.1-1.4c-0.1-0.4-0.3-0.7-0.7-1.1c-0.4-0.4-1.1-0.6-1.9-0.6
		C8.9,1.3,7.8,1.8,7,2.9L6.9,3.3L7,9.7C7.2,21.5,7.5,28,8.2,29.4c0.6,1.4,1.5,2.5,2.6,3.2c1.1,0.8,2.6,1.2,4.5,1.2
		c2.3,0,4.2-0.4,5.8-1.4c1.5-0.9,2.6-2.8,3.4-5.7c0.2-0.7,0.4-4.4,0.7-10.9c0.3-6.5,0.4-10.9,0.4-13.1C25.2,1.8,24.6,1.4,23.9,1.4z"
		/>
	<path class="st3" d="M21.8,2.4c-0.1-0.1-0.1-0.1-0.1-0.1c-0.1,0-0.1,0.1-0.1,0.1c0.1,0.1,0.1,0.1,0.1,0.1
		C21.7,2.5,21.7,2.5,21.8,2.4z M23.6,29C23.6,28.9,23.6,28.9,23.6,29C23.6,28.9,23.6,28.9,23.6,29C23.6,28.9,23.6,29,23.6,29z
		 M8.9,5.2C8.9,5.2,8.9,5.2,8.8,5.2c0,0.1,0.1,0.1,0.1,0.1C8.9,5.2,8.9,5.2,8.9,5.2L8.9,5.2z M6.8,3.5c0.1,0,0.1-0.1,0.1-0.1
		c0-0.1-0.1-0.1-0.1-0.1V3.5z M8.8,10.7C8.7,10.7,8.7,10.7,8.8,10.7L8.8,10.7z M9.1,13.2c0.1,0,0.1-0.1,0.1-0.1C9.1,13,9,13,8.9,13
		L8.8,13c0,0.1,0,0.1,0,0.2c0,0.1,0,0.1,0.1,0.2c0,0.1,0.1,0.1,0.1,0.1C9,13.4,9,13.4,9,13.4C9,13.3,9,13.2,9.1,13.2z M8.8,10.7
		c-0.1,0-0.1,0-0.1,0C8.7,10.7,8.7,10.7,8.8,10.7C8.7,10.7,8.8,10.7,8.8,10.7L8.8,10.7z M9.9,15.6c-0.1-0.1-0.1-0.1-0.1-0.1
		c0,0-0.1,0-0.1,0.1C9.7,15.7,9.8,15.7,9.9,15.6L9.9,15.6z M8.8,26.8C8.8,26.8,8.9,26.8,8.8,26.8c0.1,0,0.1,0,0.2,0
		c0-0.1-0.1-0.1-0.1-0.1C8.9,26.8,8.9,26.8,8.8,26.8z M9.7,11.9c0-0.1,0.1-0.1,0.1-0.1c0,0-0.1,0-0.1-0.1
		C9.7,11.9,9.7,11.9,9.7,11.9C9.7,11.9,9.7,11.9,9.7,11.9z M8.8,9.2c0-0.1,0-0.1-0.1,0c-0.1,0-0.1,0,0,0.1C8.7,9.3,8.8,9.2,8.8,9.2z
		 M8.7,17.7L8.7,17.7C8.7,17.7,8.7,17.7,8.7,17.7C8.7,17.7,8.7,17.7,8.7,17.7C8.7,17.7,8.7,17.7,8.7,17.7z M9.8,4.2L9.8,4.2
		C9.8,4.3,9.8,4.3,9.8,4.2z M9.5,11.6C9.5,11.5,9.5,11.5,9.5,11.6L9.5,11.6C9.5,11.5,9.4,11.5,9.5,11.6L9.5,11.6z M9.4,17.5
		c0.1,0.1,0.2,0.1,0.2,0.1l0.1-0.1c-0.1-0.1-0.2-0.1-0.2-0.1c-0.1,0-0.1,0-0.1,0C9.4,17.5,9.4,17.5,9.4,17.5z M9.4,1.3
		C9.4,1.3,9.5,1.3,9.4,1.3L9.4,1.3C9.4,1.3,9.4,1.3,9.4,1.3L9.4,1.3z M9.7,13.9L9.7,13.9C9.6,13.9,9.6,13.9,9.7,13.9L9.7,13.9
		C9.6,13.9,9.7,13.9,9.7,13.9z M7.2,16.4c-0.1-0.1-0.1-0.1-0.1-0.1H7v0.1C7.1,16.4,7.1,16.4,7.2,16.4C7.1,16.4,7.2,16.4,7.2,16.4z
		 M9.8,20.1C9.8,20,9.8,20,9.7,20C9.7,20,9.6,20,9.6,20.1c0,0,0.1,0.1,0.1,0.1C9.8,20.1,9.8,20.1,9.8,20.1z M9.7,4.2L9.7,4.2
		C9.7,4.2,9.7,4.2,9.7,4.2L9.7,4.2C9.8,4.2,9.7,4.2,9.7,4.2z M22.8,10.7C22.8,10.7,22.8,10.7,22.8,10.7L22.8,10.7z M22.7,22.9
		c0.1,0.1,0.1,0.1,0.1,0.1c0,0,0,0,0.1-0.1C22.7,22.9,22.7,22.9,22.7,22.9L22.7,22.9z M22.8,22.6C22.8,22.6,22.8,22.6,22.8,22.6
		C22.8,22.6,22.8,22.6,22.8,22.6z M22.7,22.6c0.1,0.1,0.1,0.1,0.1,0.1c0-0.1,0-0.1,0-0.1C22.7,22.6,22.7,22.6,22.7,22.6L22.7,22.6z
		 M22.8,10.7c-0.1,0-0.1,0-0.1,0C22.7,10.7,22.8,10.7,22.8,10.7C22.8,10.7,22.8,10.7,22.8,10.7L22.8,10.7z M22.8,9.1
		C22.8,9.1,22.8,9.1,22.8,9.1C22.8,9.1,22.8,9.1,22.8,9.1z M22.7,9.1C22.7,9.2,22.7,9.2,22.7,9.1c0.1,0,0.1,0,0.2,0
		c-0.1,0-0.1,0-0.1,0S22.7,9.1,22.7,9.1z M22.7,10.9C22.8,10.9,22.8,10.9,22.7,10.9c0.1-0.1,0.1-0.1,0.1-0.2c0-0.1-0.1-0.1-0.1-0.1
		l-0.1,0.1C22.6,10.8,22.6,10.9,22.7,10.9z M22.1,28.5C22.1,28.5,22.2,28.5,22.1,28.5L22.1,28.5C22.3,28.5,22.2,28.5,22.1,28.5
		L22.1,28.5z M22.5,9.5L22.5,9.5C22.5,9.6,22.5,9.6,22.5,9.5L22.5,9.5C22.6,9.5,22.5,9.5,22.5,9.5z M22.3,21.1L22.3,21.1
		C22.4,21.1,22.4,21.1,22.3,21.1L22.3,21.1L22.3,21.1z M22.2,25.8L22.2,25.8C22,25.9,22,26,22.1,26h0.1
		C22.3,25.9,22.3,25.8,22.2,25.8z M23,8.2C23,8.1,22.9,8.1,23,8.2c-0.1,0-0.2,0-0.2,0c0,0.1,0,0.1,0,0.2c0,0.1,0.1,0.1,0.1,0.1
		C22.9,8.4,23,8.4,23,8.4C23,8.3,23,8.3,23,8.2z M22.3,1.8L22.3,1.8C22.2,1.8,22.2,1.8,22.3,1.8L22.3,1.8
		C22.2,1.8,22.3,1.8,22.3,1.8z M22.5,9.8L22.5,9.8C22.6,9.8,22.6,9.8,22.5,9.8L22.5,9.8C22.5,9.8,22.5,9.8,22.5,9.8z M21.5,4.2
		L21.5,4.2C21.5,4.2,21.5,4.2,21.5,4.2L21.5,4.2C21.5,4.2,21.5,4.2,21.5,4.2z M21.5,22.6C21.5,22.6,21.5,22.6,21.5,22.6h-0.1
		C21.5,22.7,21.5,22.7,21.5,22.6L21.5,22.6z M21.5,2L21.5,2C21.5,2.1,21.5,2.1,21.5,2c0.1,0,0.1,0,0.1,0C21.5,2,21.5,2,21.5,2z
		 M21.5,11c0,0,0.1,0,0.1,0c0,0.1,0.1,0,0.1,0C21.5,11,21.5,11,21.5,11C21.4,11,21.4,11,21.5,11z M21.5,22.6
		C21.6,22.6,21.6,22.6,21.5,22.6C21.6,22.6,21.6,22.6,21.5,22.6z M21.3,4.6L21.3,4.6c-0.2,0.1-0.2,0.2-0.1,0.2c0,0,0.1-0.1,0.1-0.1
		C21.4,4.6,21.4,4.6,21.3,4.6z M22.4,14.8L22.4,14.8c-0.2,0.1-0.2,0.2-0.1,0.2c0,0,0.1-0.1,0.1-0.1C22.5,14.8,22.4,14.8,22.4,14.8z
		 M21.7,11.3c-0.1,0-0.1-0.1-0.1-0.1c-0.1,0-0.1,0.1-0.1,0.1c-0.1,0.1,0,0.2,0,0.3c0,0.1,0.1,0.1,0.1,0.1c0-0.1,0.1-0.1,0.1-0.1
		c0.1-0.1,0.1-0.1,0.1-0.1C21.6,11.4,21.6,11.4,21.7,11.3z M21.1,24.5L21.1,24.5L21.1,24.5C21.1,24.5,21.1,24.5,21.1,24.5L21.1,24.5
		z M21.3,12.1L21.3,12.1c-0.2,0.1-0.2,0.1-0.1,0.2h0.1C21.4,12.2,21.4,12.1,21.3,12.1z M21.3,29.4C21.3,29.4,21.3,29.4,21.3,29.4
		L21.3,29.4L21.3,29.4L21.3,29.4z M22,30.7L22,30.7C22,30.8,22,30.8,22,30.7L22,30.7L22,30.7z M20.8,23.4
		C20.7,23.4,20.7,23.4,20.8,23.4c0,0.1,0.1,0.2,0.3,0.2c0.1-0.1,0.2-0.1,0.2-0.1S20.9,23.4,20.8,23.4z M21,17.8L21,17.8L21,17.8
		C20.9,17.8,20.9,17.8,21,17.8L21,17.8z M21.1,16.6L21.1,16.6L21.1,16.6C21.1,16.6,21.2,16.6,21.1,16.6
		C21.1,16.6,21.1,16.6,21.1,16.6z M22,30.8L22,30.8L22,30.8z M23.2,3.2C23.2,3.1,23.1,3.1,23.2,3.2C23.1,3.2,23.1,3.2,23.2,3.2
		L23.2,3.2C23.1,3.2,23.2,3.2,23.2,3.2z M7.7,3.3c0-0.1,0-0.1-0.1-0.1c0,0-0.1,0-0.1,0.1C7.6,3.3,7.6,3.3,7.7,3.3L7.7,3.3z
		 M7.7,24.8L7.7,24.8C7.6,24.8,7.6,24.8,7.7,24.8L7.7,24.8C7.6,24.8,7.7,24.8,7.7,24.8z M7.8,12.2c0.1,0.1,0.2,0,0.2,0
		c0.1-0.1,0.1-0.1,0.2-0.1c0,0,0-0.1-0.1-0.1C8,12,8,12,7.9,12c0,0-0.1,0-0.2,0c-0.1,0-0.2,0-0.2,0.1C7.7,12.2,7.8,12.2,7.8,12.2z
		 M7.5,16.6c0.1,0.1,0.1,0.1,0.1,0.1c0.1,0,0.1-0.1,0.1-0.1S7.6,16.6,7.5,16.6C7.6,16.6,7.5,16.6,7.5,16.6z M8.1,24.6
		c0.1-0.1,0.1-0.1,0.1-0.1c0-0.1-0.1-0.1-0.1-0.1S8.1,24.5,8.1,24.6C8,24.6,8.1,24.6,8.1,24.6z M7.2,7.1C7.2,7.2,7.2,7.2,7.2,7.1
		c0.1,0,0.1,0,0.2,0C7.3,7.1,7.3,7,7.3,7C7.2,7.1,7.2,7.1,7.2,7.1z M8,18.9L8,18.9C8,18.9,8,18.9,8,18.9L8,18.9L8,18.9z M8.5,20.6
		c0.1,0.1,0.1,0.1,0.1,0.1c0.1,0,0.1,0,0.1-0.1C8.6,20.6,8.5,20.6,8.5,20.6L8.5,20.6z M7.5,3.5C7.5,3.5,7.4,3.5,7.5,3.5L7.5,3.5
		C7.5,3.5,7.5,3.5,7.5,3.5L7.5,3.5z M9.2,8.6L9.2,8.6C9.3,8.6,9.3,8.6,9.2,8.6L9.2,8.6C9.2,8.6,9.2,8.6,9.2,8.6z M8.8,9.2L8.8,9.2
		C8.9,9.2,9,9.1,9,9.1c0-0.1-0.1-0.1-0.1-0.1C8.9,9.1,8.8,9.1,8.8,9.2L8.8,9.2z M8.3,25C8.3,25,8.3,25,8.3,25L8.3,25
		C8.3,25,8.3,25,8.3,25L8.3,25z M8.4,27.3L8.4,27.3C8.4,27.2,8.4,27.2,8.4,27.3L8.4,27.3C8.3,27.3,8.4,27.3,8.4,27.3z M8.3,17.1
		C8.3,17.1,8.3,17.1,8.3,17.1L8.3,17.1C8.3,17.1,8.3,17.1,8.3,17.1L8.3,17.1z M8.4,4.5L8.4,4.5C8.3,4.5,8.4,4.5,8.4,4.5L8.4,4.5
		L8.4,4.5z M8.6,12.9c0,0-0.1,0-0.1,0.1C8.5,13,8.5,13,8.5,13C8.6,12.9,8.6,12.9,8.6,12.9C8.6,12.9,8.6,12.9,8.6,12.9z M23.3,6.6
		C23.3,6.5,23.3,6.5,23.3,6.6L23.3,6.6C23.3,6.5,23.2,6.5,23.3,6.6L23.3,6.6z M22.5,19.4L22.5,19.4c0.1,0.1,0.3,0.1,0.3,0
		C22.7,19.3,22.6,19.3,22.5,19.4z M23.1,10.9C23.1,10.8,23.2,10.8,23.1,10.9C23.2,10.8,23.1,10.8,23.1,10.9
		C23.1,10.8,23.1,10.8,23.1,10.9L23.1,10.9z M8.9,7.5C8.9,7.5,8.9,7.5,8.9,7.5L8.9,7.5C8.9,7.5,9,7.5,8.9,7.5
		C8.9,7.4,8.9,7.4,8.9,7.5z M7.3,22.8c0.1-0.1,0.1-0.1,0-0.2H7.2c-0.1,0-0.1,0.1-0.1,0.1c0,0.1,0,0.1,0,0.1
		C7.2,22.8,7.2,22.8,7.3,22.8L7.3,22.8z M22.6,21.5C22.6,21.6,22.5,21.6,22.6,21.5L22.6,21.5C22.6,21.6,22.6,21.6,22.6,21.5
		C22.6,21.6,22.6,21.6,22.6,21.5z M22.5,27L22.5,27C22.6,27,22.6,27,22.5,27L22.5,27C22.5,26.9,22.5,27.1,22.5,27z M23.1,6.4
		C23.1,6.3,23.2,6.3,23.1,6.4C23.2,6.3,23.1,6.3,23.1,6.4C23.1,6.3,23.1,6.3,23.1,6.4L23.1,6.4z M23.5,2.9c0-0.1-0.1-0.1-0.1-0.1
		l-0.1,0.1C23.4,2.9,23.4,2.9,23.5,2.9C23.5,2.9,23.5,2.9,23.5,2.9z M23.5,11.6C23.5,11.6,23.5,11.6,23.5,11.6
		c-0.1-0.1-0.1-0.1-0.2,0c0,0.1,0.1,0.1,0.1,0.1C23.5,11.6,23.5,11.6,23.5,11.6z M23.8,23.1C23.8,23,23.8,23,23.8,23.1
		C23.8,23,23.8,23,23.8,23.1z M9.8,31L9.8,31c-0.1,0-0.1,0-0.2,0C9.6,31,9.5,31,9.5,31c0-0.1,0-0.1,0-0.2c0-0.1-0.1-0.1-0.1-0.1
		c-0.1,0-0.1,0.1-0.1,0.1c0,0.1,0,0.1,0,0.1L9.3,31c0.1,0.1,0.3,0.1,0.4,0.1C9.8,31.1,9.8,31,9.8,31z M23.2,18.2L23.2,18.2
		C23.3,18.2,23.3,18.2,23.2,18.2L23.2,18.2C23.3,18.2,23.2,18.2,23.2,18.2z M23.8,22.9C23.8,23,23.7,23,23.8,22.9
		C23.8,23,23.8,23,23.8,22.9C23.8,23,23.8,23,23.8,22.9L23.8,22.9z M23.4,13.2c-0.1,0-0.1-0.1-0.1-0.1h-0.1c-0.1,0-0.1-0.1-0.2,0
		c-0.1,0,0,0.1,0.1,0.1c0.1,0,0.1,0,0.1,0C23.3,13.2,23.3,13.2,23.4,13.2C23.4,13.3,23.4,13.2,23.4,13.2z M23.6,25.8L23.6,25.8
		C23.6,25.9,23.6,25.9,23.6,25.8L23.6,25.8C23.7,25.8,23.7,25.8,23.6,25.8z M23.6,28.7C23.6,28.8,23.6,28.8,23.6,28.7L23.6,28.7
		C23.7,28.7,23.7,28.7,23.6,28.7L23.6,28.7z M23,11c-0.1,0-0.1,0-0.1-0.1h-0.1V11C22.9,11,22.9,11,23,11L23,11z M21.9,3.3
		c0,0-0.1,0-0.1,0c0-0.1-0.1,0-0.1,0C21.8,3.3,21.8,3.3,21.9,3.3C21.9,3.3,21.9,3.3,21.9,3.3z M20.6,7.5L20.6,7.5
		C20.7,7.5,20.7,7.5,20.6,7.5C20.6,7.5,20.6,7.5,20.6,7.5L20.6,7.5z M11.4,14.7L11.4,14.7C11.4,14.7,11.4,14.7,11.4,14.7L11.4,14.7
		C11.4,14.7,11.4,14.7,11.4,14.7z M11.1,14.4C11.2,14.5,11.2,14.5,11.1,14.4C11.2,14.4,11.2,14.4,11.1,14.4L11.1,14.4
		C11.2,14.4,11.1,14.4,11.1,14.4z M11.6,1.8c0.1,0,0.1-0.1,0-0.1c-0.1,0-0.1-0.1-0.1-0.1c0,0-0.1,0-0.1,0c-0.1,0.1-0.1,0.1-0.1,0.1
		C11.4,1.8,11.5,1.8,11.6,1.8z M11.4,4.2L11.4,4.2c-0.1,0-0.1-0.1-0.2,0c-0.1,0,0,0.1,0.1,0.1C11.2,4.2,11.3,4.2,11.4,4.2
		C11.4,4.2,11.4,4.2,11.4,4.2c0.1,0.1,0.1,0.1,0.1,0.1S11.5,4.2,11.4,4.2z M12.1,19.4L12.1,19.4C12.1,19.4,12.1,19.4,12.1,19.4
		C12.1,19.4,12.1,19.4,12.1,19.4L12.1,19.4z M11.6,12.6L11.6,12.6C11.6,12.6,11.6,12.6,11.6,12.6z M11.6,14.9L11.6,14.9
		C11.7,14.9,11.7,14.9,11.6,14.9C11.6,14.9,11.6,14.9,11.6,14.9L11.6,14.9z M11.6,12.6L11.6,12.6L11.6,12.6
		C11.6,12.6,11.7,12.6,11.6,12.6C11.7,12.6,11.6,12.6,11.6,12.6z M11.6,14.9L11.6,14.9L11.6,14.9z M12.5,22.7c0,0.1,0,0.1-0.1,0.1
		c0,0.1,0.1,0.1,0.1,0.1C12.5,22.7,12.5,22.7,12.5,22.7C12.6,22.7,12.5,22.7,12.5,22.7z M12.3,2.8L12.3,2.8
		c-0.2,0.1-0.2,0.2-0.1,0.2c0,0,0.1-0.1,0.1-0.1C12.4,2.8,12.4,2.8,12.3,2.8z M12.1,19.4C12.1,19.5,12.1,19.5,12.1,19.4
		C12.1,19.5,12.1,19.5,12.1,19.4z M12.4,24.5C12.4,24.5,12.5,24.5,12.4,24.5c0.1,0.1,0.1,0.1,0.2,0c0-0.1-0.1-0.1-0.1-0.1
		C12.5,24.5,12.5,24.5,12.4,24.5z M12.5,18.4L12.5,18.4C12.5,18.5,12.5,18.5,12.5,18.4L12.5,18.4C12.5,18.5,12.5,18.5,12.5,18.4z
		 M12.5,10.3C12.5,10.3,12.4,10.3,12.5,10.3C12.4,10.3,12.5,10.3,12.5,10.3c0,0.1,0.1,0.1,0.1,0.1C12.5,10.3,12.5,10.3,12.5,10.3z
		 M12.5,16.4c0,0.1,0,0.1-0.1,0.1c0,0.1,0.1,0.1,0.1,0.1C12.5,16.4,12.5,16.4,12.5,16.4C12.6,16.4,12.5,16.4,12.5,16.4z M10.5,11.1
		L10.5,11.1C10.5,11.1,10.5,11.1,10.5,11.1L10.5,11.1C10.5,11,10.5,11,10.5,11.1z M12.4,20.7L12.4,20.7c-0.1,0-0.1,0-0.1,0H12.4
		C12.3,20.7,12.4,20.7,12.4,20.7z M10.4,11.5c-0.1,0-0.1,0-0.1,0C10.3,11.6,10.4,11.6,10.4,11.5C10.4,11.5,10.4,11.5,10.4,11.5
		L10.4,11.5z M10.8,11.2C10.8,11.3,10.9,11.3,10.8,11.2c0.1,0.1,0.2,0,0.2,0c0-0.1,0-0.1,0-0.1c0-0.1,0-0.1,0-0.1
		c-0.1,0.1-0.1,0.1-0.1,0.1V11.2z M10.5,8.5c-0.1,0-0.2-0.1-0.2-0.1c-0.1,0-0.2,0-0.2,0.1c0,0.1,0.1,0.1,0.3,0.1
		C10.4,8.6,10.4,8.6,10.5,8.5h0.1C10.6,8.5,10.6,8.5,10.5,8.5z M10.3,29.3C10.3,29.3,10.4,29.3,10.3,29.3L10.3,29.3
		C10.4,29.3,10.4,29.3,10.3,29.3L10.3,29.3z M10.2,9.2L10.2,9.2C10.1,9.2,10.2,9.2,10.2,9.2L10.2,9.2L10.2,9.2z M10.2,11.3
		L10.2,11.3C10.1,11.4,10.2,11.4,10.2,11.3L10.2,11.3C10.2,11.4,10.2,11.4,10.2,11.3z M10.1,16.1C10.1,16.2,10.2,16.2,10.1,16.1
		L10.1,16.1C10.2,16.1,10.2,16.1,10.1,16.1L10.1,16.1z M11.7,4.4L11.7,4.4C11.8,4.4,11.8,4.4,11.7,4.4L11.7,4.4
		C11.8,4.3,11.7,4.3,11.7,4.4z M11.6,4.6C11.6,4.6,11.6,4.6,11.6,4.6L11.6,4.6C11.6,4.6,11.5,4.6,11.6,4.6L11.6,4.6z M11.6,23.1
		c0.1,0,0.1-0.1,0.1-0.1c-0.1-0.1-0.1-0.1-0.1-0.1c-0.1,0.1-0.1,0.1-0.1,0.1C11.5,23.1,11.6,23.1,11.6,23.1z M11.6,10.2
		C11.6,10.2,11.5,10.2,11.6,10.2h-0.1C11.6,10.2,11.6,10.2,11.6,10.2L11.6,10.2z M11,8.6L11,8.6C11.1,8.6,11.1,8.6,11,8.6L11,8.6
		C11,8.6,11,8.6,11,8.6z M11.8,5.5L11.8,5.5C11.8,5.5,11.8,5.5,11.8,5.5L11.8,5.5L11.8,5.5z M11.9,6.3c-0.1-0.1-0.1-0.1-0.1-0.1
		c-0.1,0.1-0.1,0.1-0.1,0.1c0,0,0.1,0.1,0.1,0.1C11.8,6.3,11.8,6.3,11.9,6.3z M11.5,6.5C11.5,6.4,11.5,6.5,11.5,6.5
		C11.6,6.5,11.6,6.5,11.5,6.5c0.1,0.1,0.1,0.1,0.1,0C11.6,6.5,11.6,6.5,11.5,6.5z M12.3,25.2L12.3,25.2L12.3,25.2z M19.3,29.3
		L19.3,29.3C19.4,29.2,19.3,29.2,19.3,29.3L19.3,29.3L19.3,29.3z M20.3,23.4c0,0-0.1,0-0.1,0c0-0.1-0.1,0-0.1,0
		C20.2,23.4,20.2,23.4,20.3,23.4C20.2,23.4,20.3,23.4,20.3,23.4z M19.3,29.1L19.3,29.1C19.3,29.1,19.3,29.1,19.3,29.1z M20.1,8
		c0-0.1,0-0.1,0-0.1c0-0.1,0-0.1,0-0.2c0-0.1-0.1-0.1-0.1-0.1L20,7.7c0,0.1,0,0.2,0,0.3C20,8,20,8,20.1,8L20.1,8z M19.4,29.4
		c0.1-0.1,0.1-0.1,0.1-0.1c0-0.1,0-0.1,0-0.1S19.5,29.4,19.4,29.4C19.3,29.4,19.4,29.4,19.4,29.4z M18.2,32.9
		C18.2,33,18.2,33,18.2,32.9L18.2,32.9C18.3,32.9,18.3,32.8,18.2,32.9L18.2,32.9z M12.4,25.1c-0.1,0-0.1,0-0.1,0
		C12.3,25.1,12.3,25.1,12.4,25.1L12.4,25.1L12.4,25.1z M19.1,30.1C19.1,30.2,19.1,30.2,19.1,30.1c0.1,0,0.1,0,0.2,0l-0.1-0.1
		C19.2,30.1,19.1,30.1,19.1,30.1z M20,18.7L20,18.7C20.1,18.7,20,18.7,20,18.7L20,18.7C20,18.7,20,18.7,20,18.7z M19.9,9.3L19.9,9.3
		C19.9,9.2,19.9,9.2,19.9,9.3h-0.1C19.8,9.3,19.9,9.3,19.9,9.3z M20.4,25.1C20.4,25,20.5,25,20.4,25.1L20.4,25.1
		C20.4,25,20.4,25,20.4,25.1L20.4,25.1z M19.9,14.9C19.9,14.9,19.9,14.9,19.9,14.9L19.9,14.9L19.9,14.9L19.9,14.9z M20.4,25.1
		L20.4,25.1C20.3,25.1,20.3,25.1,20.4,25.1z M19.7,23c0.1-0.1,0.1-0.1,0.1-0.1c0-0.1,0-0.1,0-0.1c0-0.1-0.1-0.1-0.1-0.1
		c-0.1,0.1-0.1,0.1-0.1,0.1S19.6,22.9,19.7,23C19.6,23,19.7,23,19.7,23z M19.6,18.7L19.6,18.7C19.5,18.7,19.5,18.7,19.6,18.7
		L19.6,18.7z M19.9,13c-0.1,0-0.2,0-0.2,0.1c0,0.1,0,0.3,0,0.4c0.1-0.1,0.2-0.1,0.2-0.1c0.1,0,0.1-0.1,0-0.1c-0.2-0.1-0.2-0.2,0-0.2
		c0.1,0,0.1-0.1,0.1-0.1C19.9,12.9,19.9,12.9,19.9,13z M17.8,31.9c0.1,0.1,0.1,0.1,0.1,0.1c0-0.1,0.1-0.1,0.1-0.1
		C18,31.9,17.9,31.9,17.8,31.9L17.8,31.9z M12.7,30.5c0.1-0.1,0.1-0.1,0.1-0.1c-0.1,0-0.1-0.1-0.1-0.1
		C12.7,30.4,12.7,30.4,12.7,30.5C12.6,30.5,12.7,30.5,12.7,30.5z M12.7,30.4L12.7,30.4L12.7,30.4z M12.7,11.9L12.7,11.9L12.7,11.9
		L12.7,11.9z M13.3,33.3L13.3,33.3c0.1,0,0.1,0,0.2,0c0-0.1,0-0.1-0.1-0.1C13.4,33.3,13.3,33.3,13.3,33.3z M13.5,29.3L13.5,29.3
		C13.5,29.4,13.5,29.4,13.5,29.3c0.1,0,0.1,0,0.1,0S13.5,29.3,13.5,29.3z M12.3,25.2L12.3,25.2C12.4,25.2,12.4,25.2,12.3,25.2
		L12.3,25.2L12.3,25.2z M10.1,5.2c0.1,0,0.1,0,0.1-0.1c0-0.1-0.1-0.1-0.1-0.1C10.2,5.2,10.1,5.2,10.1,5.2L10.1,5.2z M12.6,4.6
		c0,0,0.1,0,0.1,0c0,0.1,0.1,0,0.1,0C12.6,4.6,12.6,4.6,12.6,4.6C12.6,4.6,12.6,4.6,12.6,4.6z M17.4,30.3L17.4,30.3
		C17.5,30.4,17.5,30.4,17.4,30.3c0.1,0.1,0.1,0.1,0.1,0C17.5,30.3,17.5,30.3,17.4,30.3z M16.8,31.6L16.8,31.6
		C16.7,31.7,16.8,31.7,16.8,31.6L16.8,31.6C16.8,31.6,16.8,31.6,16.8,31.6z M16.2,30.7L16.2,30.7C16.3,30.7,16.3,30.7,16.2,30.7
		C16.3,30.7,16.3,30.7,16.2,30.7C16.3,30.7,16.2,30.7,16.2,30.7z M16.8,31.7L16.8,31.7L16.8,31.7z M16.6,32.5c0.1,0,0.1,0,0.1-0.1
		c0-0.1-0.1-0.1-0.1-0.1C16.6,32.5,16.6,32.5,16.6,32.5C16.5,32.5,16.6,32.5,16.6,32.5z M16.7,31.2C16.7,31.2,16.6,31.2,16.7,31.2
		c-0.1,0-0.1,0-0.2,0c0,0.1,0.1,0.1,0.1,0.1C16.6,31.3,16.7,31.2,16.7,31.2z M16.4,32.9L16.4,32.9L16.4,32.9
		C16.4,32.9,16.4,32.9,16.4,32.9L16.4,32.9z M16.6,31.8L16.6,31.8C16.6,31.8,16.6,31.8,16.6,31.8L16.6,31.8
		C16.6,31.8,16.6,31.8,16.6,31.8z M15.2,31.2C15.2,31.2,15.1,31.2,15.2,31.2C15.2,31.2,15.2,31.2,15.2,31.2
		C15.2,31.2,15.2,31.2,15.2,31.2L15.2,31.2z M10.1,4.1L10.1,4.1C10.1,4.1,10.1,4.1,10.1,4.1C10.1,4.1,10.1,4.1,10.1,4.1
		C10.1,4.1,10.1,4.1,10.1,4.1z M24.4,16.4c-0.1-0.1-0.3-0.1-0.3-0.1c0,0.1,0,0.1,0,0.1C24.2,16.4,24.4,16.4,24.4,16.4z M24.2,5.7
		c0-0.1,0.1-0.1,0.1-0.1c0-0.1-0.1-0.1-0.1-0.1C24.2,5.7,24.1,5.7,24.2,5.7C24.1,5.7,24.2,5.7,24.2,5.7z M24,25.4L24,25.4
		c-0.2,0.1-0.2,0.2-0.1,0.2c0,0,0.1-0.1,0.1-0.1C24,25.5,24,25.5,24,25.4z M25.5,2.9c-0.1,0-0.1,0.1-0.1,0.1C25.4,3,25.4,3,25.4,3
		C25.5,2.9,25.5,2.9,25.5,2.9C25.5,2.9,25.5,2.9,25.5,2.9C25.5,2.9,25.5,2.9,25.5,2.9z M22,20.7L22,20.7C22,20.7,22,20.7,22,20.7
		L22,20.7C22,20.7,22,20.7,22,20.7z M24.2,3.3L24.2,3.3c0.1-0.1,0.1-0.1,0.1-0.1c0-0.1-0.1-0.1-0.1-0.1C24,3.1,24,3.2,24.2,3.3z
		 M24.4,11.9c0,0.1,0,0.1-0.1,0.1c0,0.1,0.1,0.1,0.1,0.1C24.4,12,24.4,12,24.4,11.9C24.4,12,24.4,11.9,24.4,11.9z M24.2,19.2
		L24.2,19.2c0.1-0.1,0.1-0.1,0.1-0.1c0-0.1-0.1-0.1-0.1-0.1C24,19.1,24,19.2,24.2,19.2z M10.5,6.4c-0.1,0.1-0.1,0.1-0.1,0.2
		c0,0,0.1,0.1,0.1,0.1c0.1,0,0.1-0.1,0.1-0.1C10.6,6.5,10.5,6.4,10.5,6.4z M10.7,28.6c0-0.1,0.1-0.1,0.1-0.1c0-0.1-0.1-0.1-0.1-0.1
		C10.7,28.5,10.7,28.5,10.7,28.6C10.6,28.6,10.7,28.6,10.7,28.6z M10.3,2.4C10.2,2.4,10.2,2.4,10.3,2.4L10.3,2.4
		C10.1,2.5,10.2,2.5,10.3,2.4L10.3,2.4z M10.7,19.8L10.7,19.8C10.7,19.8,10.7,19.8,10.7,19.8L10.7,19.8
		C10.7,19.8,10.7,19.8,10.7,19.8z M10.9,32.4C10.9,32.4,10.9,32.4,10.9,32.4c-0.1-0.1-0.2,0-0.2,0c0,0.1,0,0.1,0,0.1
		c0.1,0.1,0.2,0.1,0.2,0.1c0-0.1,0-0.1,0-0.1C11,32.5,11,32.5,10.9,32.4z M10.1,31.8C10.1,31.8,10.1,31.8,10.1,31.8L10.1,31.8
		C10.1,31.8,10.1,31.8,10.1,31.8L10.1,31.8z M24.3,12.2C24.3,12.2,24.3,12.2,24.3,12.2c0.1,0.1,0.2-0.1,0.2,0c0-0.1-0.1-0.1-0.1-0.1
		C24.3,12.2,24.3,12.2,24.3,12.2z M24.6,18.8c0,0,0.1,0,0.1,0c0,0.1,0.1,0,0.1,0C24.7,18.8,24.7,18.8,24.6,18.8L24.6,18.8z M25.2,9
		C25.2,9,25.3,9,25.4,9V9C25.3,9,25.2,9,25.2,9L25.2,9z M25.3,7.4C25.3,7.4,25.3,7.3,25.3,7.4c-0.1,0-0.1,0-0.2,0
		c0,0.1,0.1,0.1,0.1,0.1C25.3,7.4,25.3,7.4,25.3,7.4z M24.6,15.5L24.6,15.5C24.6,15.5,24.5,15.5,24.6,15.5h-0.1
		C24.5,15.5,24.5,15.5,24.6,15.5z M25.1,7.9L25.1,7.9L25.1,7.9C25.1,8,25.1,8,25.1,7.9L25.1,7.9z M25,11L25,11
		C25.1,10.9,25,10.9,25,11L25,11C25.1,10.9,25.1,10.9,25,11z M24.1,11.6C24,11.5,24,11.5,24,11.5c-0.1,0-0.1,0.1-0.1,0.1
		c0.1,0.1,0.1,0.1,0.1,0.1C24,11.6,24,11.6,24.1,11.6z M24.8,2C24.8,2,24.7,2,24.7,2L24.6,2C24.7,2,24.7,2,24.8,2
		C24.7,2,24.8,2,24.8,2z M24.5,11.6c0,0,0.1-0.1,0.1-0.1C24.6,11.5,24.6,11.5,24.5,11.6C24.5,11.5,24.4,11.5,24.5,11.6z M24.6,3.6
		C24.5,3.6,24.5,3.6,24.6,3.6L24.6,3.6C24.6,3.6,24.6,3.6,24.6,3.6C24.6,3.6,24.6,3.6,24.6,3.6z M24.7,8.5L24.7,8.5
		C24.7,8.4,24.7,8.4,24.7,8.5c-0.1-0.1-0.1-0.1-0.1,0H24.7z M24.8,11.3L24.8,11.3c0.1,0,0.2-0.1,0.2-0.1c0-0.1-0.1-0.1-0.1-0.1
		C24.9,11.3,24.8,11.3,24.8,11.3L24.8,11.3z M24.8,11.4c-0.1,0-0.2,0-0.2,0.1c0,0,0,0.1,0,0.1c0.1,0,0.2,0,0.2-0.1V11.4z M24.5,8.7
		L24.5,8.7L24.5,8.7L24.5,8.7C24.5,8.7,24.5,8.7,24.5,8.7z M24.7,10.9L24.7,10.9c0.2-0.1,0.2-0.2,0.1-0.2h-0.1
		C24.6,10.8,24.6,10.9,24.7,10.9z"/>
	<path class="st5" d="M6.9,10.4l5.9-6.1V4.3c0-0.2,0-0.5-0.1-0.7L6.8,9.7C6.9,9.9,6.9,10.2,6.9,10.4z M6.8,7.5l5.3-5.5
		c-0.1-0.2-0.3-0.3-0.5-0.4L6.8,6.7L6.8,7.5L6.8,7.5z M19.7,6.3l4.8-4.9c-0.2-0.1-0.4-0.1-0.5-0.1c-0.1,0-0.2,0-0.2,0l-4,4.1
		C19.7,5.8,19.7,6.1,19.7,6.3z M19.7,8.6c0,0.2,0,0.5,0,0.7l5.9-6.1c0-0.2,0-0.4,0-0.6c-0.1-0.1-0.1-0.1-0.1-0.2l-5.8,6
		C19.7,8.5,19.7,8.6,19.7,8.6z M6.8,3.7v0.8L10,1.2c-0.4,0-0.6,0.1-0.9,0.1L6.8,3.7z M25.1,15.8c0-0.3,0.1-0.6,0.1-0.9l-5.6,5.8
		c0,0.3,0,0.6,0,0.9L25.1,15.8z M25,18.9c0-0.3,0.1-0.6,0.1-0.9l-5.7,5.9c-0.1,0.3-0.1,0.7-0.1,0.9L25,18.9z M19.7,11.5
		c0,0.3,0,0.5,0,0.8l5.8-6c0-0.3,0-0.6,0.1-0.9L19.7,11.5z M19.8,3.2L20.9,2C20.5,2.2,20,2.6,19.8,3.2z M7,16.4l5.8-6V9.6l-5.8,6
		C7,15.9,7,16.1,7,16.4z M7,18.6c0,0.3,0,0.6,0.1,0.8l5.7-5.9v-0.8L7,18.6z M12.7,16.5v-0.8l-5.6,5.8c0,0.3,0.1,0.5,0.1,0.8
		L12.7,16.5z M19.7,14.6c0,0.3,0,0.6-0.1,0.9l5.7-5.9c0-0.3,0-0.6,0.1-0.9L19.7,14.6z M19.5,18.6l5.7-5.9c0-0.3,0.1-0.6,0.1-0.9
		l-5.7,5.9C19.6,18,19.5,18.3,19.5,18.6z M6.9,12.6c0,0.3,0,0.5,0,0.8l5.9-6.1V6.6L6.9,12.6z M13,27.5l-3.6,3.8
		c0.1,0.2,0.3,0.3,0.4,0.4l3.5-3.7C13.2,27.9,13.1,27.7,13,27.5z M24.8,22.1c0-0.3,0.1-0.6,0.1-0.9l-6.4,6.6c-0.4,1-1.1,1.6-1.9,1.9
		l-3.4,3.6c0.2,0.1,0.5,0.1,0.7,0.1L24.8,22.1z M12.7,19.5v-0.8l-5.4,5.6c0,0.3,0.1,0.5,0.1,0.8L12.7,19.5z M12.7,22.5v-0.8
		l-5.2,5.4c0.1,0.3,0.1,0.5,0.1,0.7L12.7,22.5z M12.7,25.6v-0.8l-4.6,4.8c0.1,0.2,0.2,0.4,0.3,0.5L12.7,25.6z M22.9,30.1
		c0.3-0.5,0.6-1.1,0.9-1.8l-4.6,4.8c0.5-0.2,1.1-0.4,1.5-0.7L22.9,30.1z M24.6,25.4c0.1-0.3,0.1-0.6,0.1-0.9l-8.8,9.2
		c0.3,0,0.6-0.1,0.8-0.1L24.6,25.4z M14.7,29.7c-0.2-0.1-0.4-0.2-0.5-0.4L11,32.7c0.2,0.1,0.4,0.2,0.5,0.3L14.7,29.7z"/>
	<path class="st3" d="M22.7,0.8c-1,0.1-2,0.4-2.7,1.1c-1.1,1-0.8,2.1-0.8,3.5c0.1,4.3-0.1,8.7-0.1,13c0,2,0,4-0.3,6
		c-0.3,2.2-2.3,7.8-5.1,3.6c-0.8-1.2-0.6-2.9-0.6-4.3c0-5.3,0-10.5,0-15.7C13.2,5,14,1,10,0.6c-0.1,0-0.2,0.1-0.2,0.2
		C5.3,1.3,6.4,5.3,6.4,8.9c0.1,3.6,0.1,7.2,0.2,10.8c0.1,2.9-0.1,6.2,0.8,9c1.5,4.9,6.8,6,11,5c4.2-1,6.2-5,6.6-9.2
		c0.4-5.3,0.6-10.6,0.7-16C25.9,5.6,27.2,0.3,22.7,0.8z M25,4.7c-0.1,2.2-0.1,4.5-0.2,6.8c-0.2,4.4-0.3,8.8-0.6,13.2
		c-0.5,5.8-4.4,8.9-9.9,8.4C6,32.4,7.5,21.5,7.3,15.4C7.3,12.7,7.2,10,7.2,7.3c0.1-2.7-0.7-5.4,3-5.7c2.5,0.2,2.3,1.9,2.3,3.7
		c0,1.6,0,3.2,0,4.8c0,4.1,0,8.2,0,12.3c0,2.4-0.4,5.4,1.5,7.1c3.4,3,5.4-2.3,5.8-5c0.4-3.2,0.3-6.4,0.3-9.6
		c0.1-1.8,0.1-3.7,0.1-5.5c0-1.8-0.7-5.4,0.5-6.8c0.9-1,3.8-1.6,4.4,0.1C25.2,3.3,25,4.3,25,4.7z"/>
</g>
</svg>
