<?xml version="1.0" encoding="UTF-8" standalone="no"?>
<!-- Generator: Adobe Illustrator 22.1.0, SVG Export Plug-In . SVG Version: 6.00 Build 0)  -->

<svg
   xmlns:dc="http://purl.org/dc/elements/1.1/"
   xmlns:cc="http://creativecommons.org/ns#"
   xmlns:rdf="http://www.w3.org/1999/02/22-rdf-syntax-ns#"
   xmlns:svg="http://www.w3.org/2000/svg"
   xmlns="http://www.w3.org/2000/svg"
   xmlns:sodipodi="http://sodipodi.sourceforge.net/DTD/sodipodi-0.dtd"
   xmlns:inkscape="http://www.inkscape.org/namespaces/inkscape"
   version="1.1"
   id="Layer_1"
   x="0px"
   y="0px"
   viewBox="0 0 1265.4 244.7"
   xml:space="preserve"
   inkscape:version="0.91 r13725"
   sodipodi:docname="logo-green.svg"
   width="1265.4"
   height="244.7"><metadata
     id="metadata43"><rdf:RDF><cc:Work
         rdf:about=""><dc:format>image/svg+xml</dc:format><dc:type
           rdf:resource="http://purl.org/dc/dcmitype/StillImage" /><dc:title></dc:title></cc:Work></rdf:RDF></metadata><defs
     id="defs41" /><sodipodi:namedview
     pagecolor="#ffffff"
     bordercolor="#666666"
     borderopacity="1"
     objecttolerance="10"
     gridtolerance="10"
     guidetolerance="10"
     inkscape:pageopacity="0"
     inkscape:pageshadow="2"
     inkscape:window-width="640"
     inkscape:window-height="480"
     id="namedview39"
     showgrid="false"
     fit-margin-top="0"
     fit-margin-left="0"
     fit-margin-right="0"
     fit-margin-bottom="0"
     inkscape:zoom="0.21285714"
     inkscape:cx="606.4"
     inkscape:cy="141.2"
     inkscape:window-x="10"
     inkscape:window-y="34"
     inkscape:window-maximized="0"
     inkscape:current-layer="Layer_1" /><style
     type="text/css"
     id="style3">
	.st0{fill:#2C9942;}
</style><g
     id="g5"
     transform="translate(-93.6,-216)"><g
       id="g7"><path
         class="st0"
         d="m 327,262.7 c -2.8,-3.7 -5.6,-7.5 -8.4,-11.2 l -147.5,85 -71.9,-41.1 c -1.9,4.7 -2.8,9.3 -2.8,14 l 75.6,43 155,-89.7 z"
         id="path9"
         inkscape:connector-curvature="0"
         style="fill:#2c9942" /><path
         class="st0"
         d="M 171.1,369.2 94.5,325.3 c -0.9,2.8 -0.9,5.6 -0.9,8.4 0,70 57,127 127,127 70,0 127,-57 127,-127 0,-20.5 -4.7,-40.2 -14,-57.9 l -162.5,93.4 z"
         id="path11"
         inkscape:connector-curvature="0"
         style="fill:#2c9942" /><path
         class="st0"
         d="m 308.4,241.2 c -3.7,-3.7 -7.5,-6.5 -11.2,-9.3 l -126.1,72.8 -60.7,-34.6 c -1.9,3.7 -4.7,8.4 -6.5,12.1 l 66.3,38.3 138.2,-79.3 z"
         id="path13"
         inkscape:connector-curvature="0"
         style="fill:#2c9942" /><path
         class="st0"
         d="m 284.1,223.5 c -4.7,-2.8 -9.3,-5.6 -14.9,-7.5 l -99,57 -43.9,-25.2 c -2.8,2.8 -5.6,6.5 -9.3,10.3 l 53.2,30.8 113.9,-65.4 z"
         id="path15"
         inkscape:connector-curvature="0"
         style="fill:#2c9942" /></g><g
       id="g17"><path
         class="st0"
         d="m 1294.4,338.9 c 8.7,13.1 15.8,25.9 21.2,38.5 l 43.4,0 c -13.1,-13.1 -28.3,-32 -45.7,-56.8 l -16.7,-23.8 30.4,-31 c 9.1,-8.5 16.4,-14.3 21.9,-17.3 l -30.4,0 c -2.6,6.5 -11.5,19.7 -26.8,39.5 l -17,21.5 19.7,29.4 z"
         id="path19"
         inkscape:connector-curvature="0"
         style="fill:#2c9942" /><path
         class="st0"
         d="m 1279.7,373.6 c -3,-0.9 -5,-2 -5.9,-3.3 l -1.3,-7.5 0,-99.9 1.3,-7.2 c 0.9,-1.5 2.8,-2.5 5.9,-2.9 l 0,-4.2 -42.1,0 0,4.2 c 3,0.4 5,1.4 5.9,2.9 l 1.3,7.2 0,99.9 c 0,3.7 -0.4,6.2 -1.3,7.5 l -5.9,3.3 0,3.9 42.1,0 0,-3.9 z"
         id="path21"
         inkscape:connector-curvature="0"
         style="fill:#2c9942" /><path
         class="st0"
         d="m 1139.6,373.6 c -3,-0.9 -5,-2 -5.9,-3.3 l -1.3,-7.5 0,-51.9 49.6,0 0,51.9 -1,7.5 c -1.3,1.3 -3.5,2.4 -6.5,3.3 l 0,3.9 42.4,0 0,-3.9 -5.9,-3.3 -1.3,-7.5 0,-99.9 1.3,-7.2 c 0.9,-1.5 2.8,-2.5 5.9,-2.9 l 0,-4.2 -42.4,0 0,4.2 c 3,0.4 5.2,1.4 6.5,2.9 l 1,7.2 0,39.5 -49.6,0 0,-39.5 1.3,-7.2 c 0.9,-1.5 2.8,-2.5 5.9,-2.9 l 0,-4.2 -42.8,0 0,4.2 c 3.5,0.4 5.7,1.4 6.5,2.9 l 1.3,7.2 0,99.9 -1.3,7.5 c -0.9,1.3 -3,2.4 -6.5,3.3 l 0,3.9 42.8,0 0,-3.9 z"
         id="path23"
         inkscape:connector-curvature="0"
         style="fill:#2c9942" /><rect
         x="414.10001"
         y="409.79999"
         class="st0"
         width="944.90002"
         height="12.7"
         id="rect25"
         style="fill:#2c9942" /><path
         class="st0"
         d="m 963.9,377.5 23.5,0 2.6,-15.7 8.8,-30.7 41.5,0 14,46.4 32.6,0 c -4.4,-8.5 -8.8,-19.5 -13.4,-33 l -27.4,-77.1 c -2.6,-6.7 -4.1,-13.1 -4.6,-18.9 l -37.2,0 0,4.2 c 5,0.7 7.5,3 7.5,7.2 0,3.7 -2.1,10.7 -6.2,20.9 l -41.7,96.7 z m 55.9,-107.4 17.6,51.9 -35.3,0 17.7,-51.9 z"
         id="path27"
         inkscape:connector-curvature="0"
         style="fill:#2c9942" /><path
         class="st0"
         d="m 946.6,369 c 9.1,-7 13.7,-18.5 13.7,-34.6 0,-16.5 -5.8,-27.6 -17.3,-33.3 -8.1,-4.1 -22.5,-6.2 -43.4,-6.2 l -7.2,0 0,-30.7 c 0,-2.8 0.5,-4.8 1.6,-5.9 1.3,-1.3 3.9,-2 7.8,-2 l 17.3,0 18,2.3 c 3.5,2 6.1,6.1 7.8,12.4 l 1.6,5.6 7.2,0 0,-28.1 -96.3,0 0,4.2 c 3.3,0.4 5.3,1.4 6.2,2.9 l 1,7.2 0,99.9 -1,7.5 -6.2,3.3 0,3.9 51.6,0 c 17.1,0.1 29.6,-2.8 37.6,-8.4 z m -42.7,0.3 c -4.3,0 -7.4,-0.9 -9.1,-2.6 -1.5,-1.3 -2.3,-4.1 -2.3,-8.5 l 0,-55.2 11.4,0 c 10.7,0 18,2.8 21.9,8.5 3.7,4.8 5.6,12.8 5.6,24.2 0,11.5 -1.7,19.9 -5.2,25.1 -3.9,5.7 -10,8.5 -18.3,8.5 l -4,0 z"
         id="path29"
         inkscape:connector-curvature="0"
         style="fill:#2c9942" /><path
         class="st0"
         d="m 790.2,373.6 c -3.5,-0.9 -5.5,-2 -6.2,-3.3 l -1.3,-7.5 0,-36.6 13.1,0 c 16.5,0 28.7,-2.8 36.6,-8.5 9.1,-6.5 13.7,-17.3 13.7,-32.3 0,-14.6 -4.2,-24.7 -12.7,-30.4 -6.8,-4.4 -17.4,-6.5 -32,-6.5 l -53.5,0 0,4.2 c 3,0.4 5,1.4 5.9,2.9 l 1.3,7.2 0,99.9 -1.3,7.5 -5.9,3.3 0,3.9 42.4,0 0,-3.8 z m -7.5,-110.1 c 0,-3 0.7,-5 2,-5.9 l 5.9,-1.3 3.3,0 c 15.4,0 23.2,9.3 23.2,27.8 0,11.1 -1.4,19.4 -4.2,24.8 -3.3,6.1 -8.9,9.1 -17,9.1 l -13.1,0 0,-54.5 z"
         id="path31"
         inkscape:connector-curvature="0"
         style="fill:#2c9942" /><path
         class="st0"
         d="m 731.1,347.4 -8.1,0 -1.3,4.9 c -1.7,7.6 -4.1,12.4 -7.2,14.4 l -17.6,2.6 -3.6,0 -16.3,-2 c -2.6,-1.5 -3.9,-4.2 -3.9,-8.2 l 0,-48.3 17,0 c 11.8,0 19.5,1.3 23.2,3.9 l 0,-16.3 c -3.7,2.6 -11.4,3.9 -23.2,3.9 l -17,0 0,-39.8 1.3,-4.9 5.2,-1.3 14.4,0 17.6,2.3 c 3.3,2 6,6.1 8.2,12.4 l 1.6,5.6 6.9,0 c 0,0 0,-28.1 0,-28.1 l -90.1,0 0,4.2 c 3.3,0.4 5.3,1.4 6.2,2.9 l 1.3,7.2 0,99.9 -1.3,7.5 c -0.9,1.3 -2.9,2.4 -6.2,3.3 l 0,3.9 93.1,0 0,-30 z"
         id="path33"
         inkscape:connector-curvature="0"
         style="fill:#2c9942" /><path
         class="st0"
         d="m 610,369 c 9.1,-7 13.7,-18.5 13.7,-34.6 0,-16.5 -5.7,-27.6 -17,-33.3 -8.3,-4.1 -22.7,-6.2 -43.4,-6.2 l -7.2,0 0,-30.7 c 0,-2.8 0.3,-4.8 1,-5.9 1.5,-1.3 4.1,-2 7.8,-2 l 18,0 17.3,2.3 c 3.5,2 6.2,6.1 8.2,12.4 l 1.6,5.6 6.9,0 0,-28.1 -96.3,0 0,4.2 c 3.5,0.4 5.7,1.4 6.5,2.9 l 1.3,7.2 0,99.9 -1.3,7.5 c -0.9,1.3 -3,2.4 -6.5,3.3 l 0,3.9 51.9,0 c 17.2,0.1 29.7,-2.8 37.5,-8.4 z m -42.4,0.3 c -4.6,0 -7.7,-0.9 -9.5,-2.6 -1.3,-1.3 -2,-4.1 -2,-8.5 l 0,-55.2 10.8,0 c 10.7,0 18.1,2.8 22.2,8.5 3.7,4.8 5.6,12.8 5.6,24.2 0,22.4 -7.8,33.6 -23.5,33.6 l -3.6,0 z"
         id="path35"
         inkscape:connector-curvature="0"
         style="fill:#2c9942" /><path
         class="st0"
         d="m 465.4,379.4 c 16.8,0 31.3,-3.8 43.8,-11.4 l -3.9,-8.2 c -10.7,5.2 -21.4,7.8 -32.3,7.8 -14.8,0 -25.3,-5.6 -31.3,-16.7 -5,-8.9 -7.5,-22.7 -7.5,-41.5 0,-18.7 2.3,-32.2 6.9,-40.5 5.4,-9.6 14.7,-14.4 27.8,-14.4 8.3,0 14.4,1.4 18.3,4.2 3.5,2.6 6.1,6.6 7.8,12.1 l 2.3,7.8 8.2,0 0,-26.8 c -8.7,-3.9 -21.2,-5.9 -37.5,-5.9 -42.4,0 -63.7,22.8 -63.7,68.2 -0.3,43.7 20.2,65.3 61.1,65.3 z"
         id="path37"
         inkscape:connector-curvature="0"
         style="fill:#2c9942" /></g></g></svg>