<?xml version="1.0" encoding="UTF-8" standalone="no"?>
<!-- Generator: Adobe Illustrator 22.1.0, SVG Export Plug-In . SVG Version: 6.00 Build 0)  -->

<svg
   xmlns:dc="http://purl.org/dc/elements/1.1/"
   xmlns:cc="http://creativecommons.org/ns#"
   xmlns:rdf="http://www.w3.org/1999/02/22-rdf-syntax-ns#"
   xmlns:svg="http://www.w3.org/2000/svg"
   xmlns="http://www.w3.org/2000/svg"
   xmlns:sodipodi="http://sodipodi.sourceforge.net/DTD/sodipodi-0.dtd"
   xmlns:inkscape="http://www.inkscape.org/namespaces/inkscape"
   version="1.1"
   id="Layer_1"
   x="0px"
   y="0px"
   viewBox="0 0 15.649656 27.1"
   xml:space="preserve"
   inkscape:version="0.91 r13725"
   sodipodi:docname="ok.svg"
   width="15.649655"
   height="27.1"><metadata
     id="metadata15"><rdf:RDF><cc:Work
         rdf:about=""><dc:format>image/svg+xml</dc:format><dc:type
           rdf:resource="http://purl.org/dc/dcmitype/StillImage" /><dc:title></dc:title></cc:Work></rdf:RDF></metadata><defs
     id="defs13" /><sodipodi:namedview
     pagecolor="#ffffff"
     bordercolor="#666666"
     borderopacity="1"
     objecttolerance="10"
     gridtolerance="10"
     guidetolerance="10"
     inkscape:pageopacity="0"
     inkscape:pageshadow="2"
     inkscape:window-width="640"
     inkscape:window-height="480"
     id="namedview11"
     showgrid="false"
     fit-margin-top="0"
     fit-margin-left="0"
     fit-margin-right="0"
     fit-margin-bottom="0"
     inkscape:zoom="0.28031832"
     inkscape:cx="8.0621494"
     inkscape:cy="12.749988"
     inkscape:window-x="10"
     inkscape:window-y="34"
     inkscape:window-maximized="0"
     inkscape:current-layer="Layer_1" /><style
     type="text/css"
     id="style3">
	.st0{fill:#FFFFFF;}
</style><g
     id="g5"
     transform="translate(-289.58784,-406.6)"><path
       class="st0"
       d="m 297.3,420.6 c 3.9,0 7,-3.1 7,-7 0,-3.9 -3.1,-7 -7,-7 -3.9,0 -7,3.1 -7,7 0,3.9 3.2,7 7,7 z m 0,-9.9 c 1.6,0 2.9,1.3 2.9,2.9 0,1.6 -1.3,2.9 -2.9,2.9 -1.6,0 -2.9,-1.3 -2.9,-2.9 0,-1.6 1.3,-2.9 2.9,-2.9 z"
       id="path7"
       inkscape:connector-curvature="0"
       style="fill:#ffffff" /><path
       class="st0"
       d="m 304.1,430.2 -3.9,-3.9 c 1.4,-0.3 2.8,-0.9 4.1,-1.7 1,-0.6 1.2,-1.9 0.6,-2.8 -0.6,-1 -1.9,-1.2 -2.8,-0.6 l 0,0 c -2.9,1.8 -6.6,1.8 -9.4,0 -1,-0.6 -2.2,-0.3 -2.8,0.6 l 0,0 c -0.6,1 -0.3,2.2 0.6,2.8 1.2,0.8 2.6,1.4 4.1,1.7 l -3.9,3.9 c -0.8,0.8 -0.8,2.1 0,2.9 0.8,0.8 2.1,0.8 2.9,0 l 3.8,-3.8 3.8,3.8 c 0.8,0.8 2.1,0.8 2.9,0 0,0 0,0 0,0 0.8,-0.8 0.8,-2.1 0,-2.9 0,0 0,0 0,0 z"
       id="path9"
       inkscape:connector-curvature="0"
       style="fill:#ffffff" /></g></svg>