<?xml version="1.0" encoding="UTF-8" standalone="no"?>
<!-- Generator: Adobe Illustrator 22.1.0, SVG Export Plug-In . SVG Version: 6.00 Build 0)  -->

<svg
   xmlns:dc="http://purl.org/dc/elements/1.1/"
   xmlns:cc="http://creativecommons.org/ns#"
   xmlns:rdf="http://www.w3.org/1999/02/22-rdf-syntax-ns#"
   xmlns:svg="http://www.w3.org/2000/svg"
   xmlns="http://www.w3.org/2000/svg"
   xmlns:sodipodi="http://sodipodi.sourceforge.net/DTD/sodipodi-0.dtd"
   xmlns:inkscape="http://www.inkscape.org/namespaces/inkscape"
   version="1.1"
   id="Layer_1"
   x="0px"
   y="0px"
   viewBox="0 0 29.987218 17.799999"
   xml:space="preserve"
   inkscape:version="0.91 r13725"
   sodipodi:docname="vk.svg"
   width="29.987217"
   height="17.799999"><metadata
     id="metadata11"><rdf:RDF><cc:Work
         rdf:about=""><dc:format>image/svg+xml</dc:format><dc:type
           rdf:resource="http://purl.org/dc/dcmitype/StillImage" /><dc:title></dc:title></cc:Work></rdf:RDF></metadata><defs
     id="defs9" /><sodipodi:namedview
     pagecolor="#ffffff"
     bordercolor="#666666"
     borderopacity="1"
     objecttolerance="10"
     gridtolerance="10"
     guidetolerance="10"
     inkscape:pageopacity="0"
     inkscape:pageshadow="2"
     inkscape:window-width="640"
     inkscape:window-height="480"
     id="namedview7"
     showgrid="false"
     fit-margin-top="0"
     fit-margin-left="0"
     fit-margin-right="0"
     fit-margin-bottom="0"
     inkscape:zoom="0.28031832"
     inkscape:cx="15.549994"
     inkscape:cy="8.5499878"
     inkscape:window-x="10"
     inkscape:window-y="34"
     inkscape:window-maximized="0"
     inkscape:current-layer="Layer_1" /><style
     type="text/css"
     id="style3">
	.st0{fill:#FFFFFF;}
</style><path
     class="st0"
     d="m 29.2,1.3 c 0.2,-0.7 0,-1.2 -1,-1.2 l -3.3,0 c -0.8,0 -1.2,0.4 -1.4,0.9 0,0 -1.7,4.1 -4,6.7 -0.8,0.8 -1.1,1 -1.5,1 -0.2,0 -0.5,-0.2 -0.5,-0.9 l 0,-6.5 c 0,-0.8 -0.2,-1.2 -0.9,-1.2 l -5.2,0 c -0.5,0 -0.8,0.4 -0.8,0.8 0,0.8 1.2,1 1.3,3.2 l 0,4.8 c 0,1.1 -0.2,1.2 -0.6,1.2 C 10.2,10.1 7.5,6 5.9,1.3 5.6,0.4 5.3,0 4.4,0 L 1.1,0 C 0.2,0 0,0.4 0,0.9 c 0,0.9 1.1,5.2 5.2,10.9 2.7,3.9 6.5,6 10,6 2.1,0 2.3,-0.5 2.3,-1.3 l 0,-2.9 c 0,-0.9 0.2,-1.1 0.9,-1.1 0.5,0 1.3,0.2 3.3,2.1 2.2,2.2 2.6,3.2 3.8,3.2 l 3.3,0 c 0.9,0 1.4,-0.5 1.1,-1.4 -0.3,-0.9 -1.4,-2.3 -2.8,-3.8 -0.8,-0.9 -1.9,-1.9 -2.3,-2.4 -0.5,-0.6 -0.3,-0.9 0,-1.5 -0.1,0.1 3.9,-5.5 4.4,-7.4 z"
     id="path5"
     inkscape:connector-curvature="0"
     style="fill:#ffffff" /></svg>