<?xml version="1.0" encoding="UTF-8" standalone="no"?>
<!-- Created with Inkscape (http://www.inkscape.org/) -->

<svg
   xmlns:dc="http://purl.org/dc/elements/1.1/"
   xmlns:cc="http://creativecommons.org/ns#"
   xmlns:rdf="http://www.w3.org/1999/02/22-rdf-syntax-ns#"
   xmlns:svg="http://www.w3.org/2000/svg"
   xmlns="http://www.w3.org/2000/svg"
   xmlns:sodipodi="http://sodipodi.sourceforge.net/DTD/sodipodi-0.dtd"
   xmlns:inkscape="http://www.inkscape.org/namespaces/inkscape"
   width="77.917099mm"
   height="8.5236073mm"
   viewBox="0 0 276.08421 30.201758"
   id="svg3373"
   version="1.1"
   inkscape:version="0.91 r13725"
   sodipodi:docname="destroyers.svg">
  <defs
     id="defs3375" />
  <sodipodi:namedview
     id="base"
     pagecolor="#ffffff"
     bordercolor="#666666"
     borderopacity="1.0"
     inkscape:pageopacity="0.0"
     inkscape:pageshadow="2"
     inkscape:zoom="0.35"
     inkscape:cx="241.61354"
     inkscape:cy="229.38659"
     inkscape:document-units="px"
     inkscape:current-layer="layer1"
     showgrid="false"
     fit-margin-top="0"
     fit-margin-left="0"
     fit-margin-right="0"
     fit-margin-bottom="0"
     inkscape:window-width="1366"
     inkscape:window-height="718"
     inkscape:window-x="0"
     inkscape:window-y="24"
     inkscape:window-maximized="1" />
  <metadata
     id="metadata3378">
    <rdf:RDF>
      <cc:Work
         rdf:about="">
        <dc:format>image/svg+xml</dc:format>
        <dc:type
           rdf:resource="http://purl.org/dc/dcmitype/StillImage" />
        <dc:title></dc:title>
      </cc:Work>
    </rdf:RDF>
  </metadata>
  <g
     inkscape:label="Layer 1"
     inkscape:groupmode="layer"
     id="layer1"
     transform="translate(-133.38646,-731.54704)">
    <path
       class="st5"
       d="m 302.95521,734.86601 c -2.5,-2.4 -6.1,-1.6 -7.9,1.3 -0.4,-1 -1,-1.8 -2.2,-2.3 -5.3,-2.6 -6.9,1.9 -7.3,7.1 -0.2,-1 -0.4,-2 -0.7,-3 -1.1,-4.3 -6,-6.6 -9.7,-3.5 -1.4,1.2 -1.8,3 -2.2,4.7 -0.6,2.4 -1.2,4.8 -1.7,7.2 -0.2,-2.5 -2.4,-3.2 -4.7,-3.5 0,-0.3 0,-0.7 -0.1,-1.1 3.1,-0.2 6.1,-1.8 5.4,-5.5 -0.8,-3.7 -5.1,-3.6 -8.2,-3.5 -2.2,0.1 -3.7,0.7 -4.7,1.8 -0.2,-0.2 -0.5,-0.4 -0.8,-0.5 -2.9,-2.1 -8.9,-1.7 -11.8,-1.4 -1.3,0.2 -2.5,0.8 -3.3,1.7 -2.4,-2 -5.8,-1 -7.5,1.7 -0.4,-1 -1,-1.8 -2.2,-2.3 -2.8,-1.4 -4.5,-0.7 -5.6,1 0,0 0,0 -0.1,-0.1 -0.5,-0.8 -1.3,-1.5 -2.2,-1.7 -2.1,-0.6 -3.7,-0.3 -4.9,0.6 -0.3,-0.2 -0.6,-0.4 -1,-0.5 -2,-0.7 -3.5,-0.4 -4.6,0.5 -0.2,-0.2 -0.4,-0.3 -0.7,-0.5 -3,-1.6 -5.2,-0.5 -6.3,1.6 -1.9,-2.2 -5.3,-2.3 -7.2,0 -0.4,-0.5 -0.9,-0.9 -1.6,-1.3 -2.6,-1.3 -4.9,-0.1 -6.2,1.9 -3.7,-3.9 -12,-4 -14.7,0.8 -0.1,0.2 -0.2,0.3 -0.3,0.5 -0.7,-1.2 -1.7,-2.2 -3,-2.9 -5.5,-2.8 -11.8,0.7 -11.8,6.8 0,1.5 0.9,2.7 2.2,3.3 0,0.1 -0.1,0.2 -0.1,0.3 -0.4,1.2 -0.4,2.2 0,3.5 0.2,0.8 0.7,1.5 1.4,1.9 -0.9,0.1 -1.6,0.5 -2.2,1 -0.5,-2.8 -1,-5.6 -1.5,-8.4 -0.3,-1.9 -0.4,-4.2 -1.2,-6 -1.5,-3.5 -5.8,-4.7 -8.9,-2.4 -1.1,0.9 -1.9,2.1 -2.4,3.6 -2.4,-5.9 -13,-6.8 -16.2,-1.3 -0.2,0.3 -0.4,0.6 -0.5,0.9 -0.3,0.6 -0.3,1.3 -0.2,1.8 0,5.8 -0.3,11.5 -0.1,17.2 0.1,3.3 2.1,5.8 5.7,5.1 4.6,-0.9 3.9,-4.6 3.9,-8 1.3,-0.1 2.6,-0.4 3.8,-1.1 -0.6,2.7 -0.8,5.4 0.5,7.1 1.9,2.4 6.5,1.8 8.2,-0.7 0.2,-0.3 0.3,-0.6 0.4,-0.9 0,0.1 0,0.1 0.1,0.2 1.3,3.6 5.2,3.6 7.6,1.7 0.4,-0.2 0.7,-0.4 1,-0.7 2,2 5.3,2.6 8.1,2.3 2.3,-0.2 4,-1.2 5.2,-2.7 0.8,2 2.6,3.2 5.2,2.7 4.6,-0.9 3.9,-4.6 3.9,-8 2.4,-0.3 4.6,-1 6.2,-3.3 0,-0.1 0.1,-0.1 0.1,-0.2 0.1,0.2 0.2,0.3 0.3,0.5 -0.3,0.2 -0.5,0.5 -0.7,0.8 -3.6,6 3.9,11.1 9.1,10 2.6,-0.6 4.2,-2 5.1,-3.8 1.1,4.1 5.5,3.8 9.2,3.8 3.1,0 8.5,1 11,-1.8 0.5,0.7 1.2,1.3 2.1,1.7 2.6,1.1 5,0.7 6.6,-1.2 0.3,0.4 0.6,0.7 1.1,1 8,4.3 8,-5 8,-10.4 0,-2.9 0,-5.8 0,-8.7 0.3,0.1 0.6,0.2 0.9,0.2 0,2.9 0,5.7 -0.1,8.6 0,3.3 -1.2,8.9 2.5,10.5 4.4,2.1 7.2,-1.8 7.3,-5.7 0,-4.6 0.1,-9 0.1,-13.5 0.4,-0.1 0.7,-0.2 1.1,-0.3 0,2.1 0.1,4.3 0.1,6.2 0,3 -0.7,6.9 0,10 1,4.3 5.1,4 8.7,3.9 1.7,-0.1 3.6,-0.5 4.8,-1.4 0.8,0.9 2.1,1.3 4.2,0.8 2.1,-0.5 3.2,-1.7 3.8,-3.2 0.7,2.2 2.2,3.8 5,3.5 1.6,-0.2 2.7,-0.8 3.4,-1.7 0.5,0.6 1.1,1.1 1.9,1.4 2.6,1.1 5,0.7 6.6,-1.2 0.3,0.4 0.6,0.7 1.1,1 8,4.3 8,-5.1 8,-10.4 0,-4 0,-8 0,-12 0,-1.3 -0.7,-2.4 -1.6,-3.1 z m -100.7,3 c 0,0.2 0,0.4 0,0.5 -0.1,0 -0.1,-0.1 -0.2,-0.1 0.2,-0.1 0.2,-0.3 0.2,-0.4 z m -31.9,12.3 c 0,0 -0.1,0 0,0 0,-0.1 0,-0.1 0,0 z m 14.5,-9.6 c 0,0 0,-0.1 0,0 0,-0.1 0,0 0,0 l 0,0 z m -44,-0.2 c 0,0 0.1,0 0.1,0.2 -0.1,0 -0.1,-0.1 -0.1,-0.2 0,0.1 0,0.1 0,0 z m 125.8,12.1 c 0,-0.2 0,-0.5 0,-0.7 0.3,0 0.7,0 1,-0.1 1.3,-0.3 2.3,-1 2.9,-2 -0.1,0.4 -0.2,0.8 -0.2,1.1 -0.1,0.7 -0.3,1.5 -0.5,2.4 -0.4,-0.2 -0.8,-0.4 -1.2,-0.6 -0.6,-0.2 -1.3,-0.2 -2,-0.1 z m 14.4,3.6 c 0,0.1 0.1,0.2 0.2,0.3 0.3,0.6 -0.4,0.6 -0.2,-0.3 z m 128.3,-6.8 c -0.2,-1.8 -0.8,-3.3 -1.9,-4.6 0.9,-2.6 1,-5.6 -0.2,-8.1 -1.8,-3.6 -6.2,-4.3 -9.8,-3.6 -2.6,0.5 -4,1.8 -4.8,3.6 -0.3,-0.5 -0.6,-1 -1,-1.4 -2.2,-2.5 -5.7,-3.3 -8.9,-2.4 -3,0.9 -4.7,3 -5.6,5.5 -1.1,-2.2 -2.8,-3.8 -5.3,-4.4 -0.3,-0.7 -0.8,-1.3 -1.4,-1.6 -3,-1.3 -5.8,-0.8 -7.2,1.2 -2.5,0.4 -4.2,1.6 -5.4,3.3 -0.3,-1 -0.9,-1.7 -1.6,-2.1 -2.5,-2.2 -6,-1.3 -7.7,1.5 -0.4,-1 -1,-1.8 -2.2,-2.3 -3.2,-1.6 -5,-0.5 -6.1,1.8 -0.2,-0.3 -0.5,-0.7 -0.8,-1 -0.5,-1.1 -1.5,-2 -3.2,-1.8 -0.5,0.1 -0.9,0.1 -1.3,0.2 -0.1,0 -0.2,0 -0.3,0.1 -3.8,1.1 -5,4.4 -6,8.1 0,0.1 -0.1,0.2 -0.1,0.4 0,-0.1 -0.1,-0.2 -0.1,-0.3 -0.7,-2.1 -1.1,-5.1 -2.6,-6.9 -2.2,-2.6 -7.6,-2.1 -9.4,1 -1.2,2.2 -0.4,6.5 -0.4,9 0,3.9 -1.7,13.4 2.2,16.1 2.8,1.8 6.1,0.2 7.3,-2.4 0.9,0.7 1.9,1.1 3.3,1 1,0 1.9,-0.2 2.6,-0.6 0.1,0.3 0.3,0.7 0.4,1 1.4,2.1 4.4,2.4 6.5,1.2 0.8,-0.4 1.3,-1 1.7,-1.6 0.5,0.7 1.2,1.3 2.2,1.7 2.6,1.1 5,0.7 6.6,-1.2 0.3,0.4 0.6,0.7 1.1,1 5.4,2.9 7.2,-0.5 7.7,-4.6 1.2,1.7 2.8,2.9 5.1,3.3 0.7,1.5 2,2.4 4.3,2.2 1.8,-0.2 3,-1 3.8,-2.2 3,-0.4 5,-2.1 6.2,-4.5 1.3,3.7 3.8,6.5 8.6,6.2 3.1,-0.2 5,-1.8 6.3,-4 0.6,2 1.8,3.6 4.2,3.9 2.6,0.3 6.2,0.3 8.6,-0.8 4,-1.8 4.6,-6.1 4.6,-10 0.2,-0.3 0.1,-0.6 0,-0.9 z m -86,6.5 c 0.3,0.4 0.1,0.3 0,0 l 0,0 z"
       id="path27"
       inkscape:connector-curvature="0"
       style="fill:#ffffff" />
    <path
       class="st3"
       d="m 141.95521,736.36601 c -2.9,0 -4.5,0.7 -4.8,1.9 l 0,0.1 -0.4,18.5 c 0,0.5 0.4,0.6 1.1,0.6 0.4,0 0.8,-0.1 1.1,-0.4 0.3,-0.3 0.4,-0.6 0.4,-0.7 l 0,-2.1 c 0,-2.9 0.2,-4.5 0.3,-4.6 0,0 0.9,0 2.6,0 2.1,0 3.5,-0.8 4.3,-2.6 0.4,-1.1 0.7,-3 0.7,-5.8 0,-1.5 -0.3,-2.6 -0.7,-3.2 -0.9,-1.1 -2.4,-1.7 -4.6,-1.7 z m 2.8,8.2 c 0,1 -0.2,1.8 -0.8,2.4 -0.6,0.7 -1.3,1 -2.1,1 l -2.2,0 c 0,-2.9 0,-6.1 0.1,-9.4 0,-0.2 0.2,-0.4 0.6,-0.6 0.4,-0.1 0.7,-0.1 1.1,-0.1 1.2,0 2.2,0.2 2.6,0.8 0.4,0.5 0.7,1.4 0.7,2.6 l 0,3.3 0,0 z m 12.1,-7.9 c -0.3,0 -0.4,0.1 -0.7,0.1 -0.2,0 -0.5,0.1 -0.6,0.1 -0.1,0 -0.3,0.2 -0.4,0.3 -0.2,0.3 -0.1,0.4 -0.3,0.4 -0.2,0 -0.2,0.1 -0.3,0.4 -0.1,0.3 -0.1,0.4 -0.1,0.4 0,0.2 0,0.3 -0.1,0.6 -0.1,0.3 -0.1,0.4 -0.1,0.4 -0.7,2.5 -2,8.2 -3.9,16.9 -0.1,0.2 -0.1,0.3 -0.1,0.6 0,0.5 0.3,0.6 0.6,0.6 0.2,0 0.6,0 1,-0.1 0.4,-0.2 0.7,-0.2 0.8,-0.3 0.2,-0.2 0.5,-0.8 0.6,-1.9 0.2,-1.1 0.5,-2 0.6,-3 0.2,-1 0.3,-1.6 0.3,-1.7 0,-0.3 0.2,-0.5 0.3,-1.1 l 4,0 1.2,7.6 c 0.2,0.5 0.3,0.6 0.6,0.6 1.2,0 1.8,-0.3 1.8,-1 0,-0.1 0,-0.3 0,-0.4 l -3.1,-16.7 c -0.3,-1.8 -1,-2.8 -2.1,-2.8 z m -0.3,11 c -0.8,0 -1.4,0 -1.8,0 0.2,-1.1 0.5,-2.3 0.8,-3.8 0.3,-1.5 0.6,-2.6 0.7,-3.3 0.3,-0.8 0.5,-1.4 0.6,-1.8 l 1.4,8.9 c -0.3,0 -0.9,0 -1.7,0 z m 18.7,-1 c 0.8,0.7 1.2,1.9 1.2,3.6 0,1 0,1.8 0,2.4 0,0.6 -0.1,1.2 -0.3,1.9 -0.1,0.7 -0.4,1.2 -0.8,1.5 -0.3,0.4 -0.8,0.7 -1.4,1 -0.6,0.3 -1.4,0.4 -2.2,0.4 l -1.2,0 c -1.1,0 -2.1,-0.3 -2.9,-0.7 -0.8,-0.6 -1.2,-1.1 -1.2,-1.9 l 0,-1.4 c 0.3,-0.3 0.7,-0.6 1,-0.6 0.4,0 0.8,0.1 1.2,0.4 l 0.1,1.2 c 0,0.6 0.3,0.8 0.8,1.1 0.6,0.3 1.1,0.3 1.7,0.3 1,0 1.7,-0.3 2.1,-1.1 0.4,-0.7 0.7,-1.5 0.7,-2.6 l 0,-1.7 c 0,-1.5 -0.1,-2.6 -0.6,-3.2 -0.4,-0.7 -1.4,-1 -2.8,-1 -0.1,0 -0.4,0 -0.8,0 -0.4,0 -0.7,0 -1,0 -0.1,-0.3 -0.3,-0.4 -0.3,-0.8 0,-0.3 0.1,-0.6 0.3,-0.7 l 1.7,0 c 1.4,-0.1 2.1,-1.2 2.1,-3.6 l 0,-1.2 c 0,-0.8 -0.1,-1.5 -0.4,-1.9 -0.3,-0.4 -0.8,-0.7 -1.5,-0.7 -0.7,0 -1.2,0.1 -1.4,0.6 -0.4,0.8 -0.5,1.4 -0.5,2.1 -0.4,0.4 -0.8,0.6 -1.2,0.6 -0.1,0 -0.6,-0.1 -1,-0.3 l 0,-1.4 c 0,-0.7 0.4,-1.2 1.1,-1.8 0.8,-0.6 1.7,-0.7 2.9,-0.7 1.7,0 2.9,0.4 3.5,1.2 0.7,0.8 1,1.9 1,3.3 0,2.2 -0.6,3.9 -1.8,4.7 0.8,0.3 1.4,0.6 1.9,1 z m 10.4,-10.3 c -2.9,0 -4.5,0.7 -4.8,1.9 l 0,0.1 -0.4,18.5 c 0,0.5 0.4,0.6 1.1,0.6 0.4,0 0.8,-0.1 1.1,-0.4 0.3,-0.3 0.4,-0.6 0.4,-0.7 l 0,-2.1 c 0,-2.9 0.2,-4.5 0.3,-4.6 0,0 0.9,0 2.6,0 2.1,0 3.5,-0.8 4.3,-2.6 0.4,-1.1 0.7,-3 0.7,-5.8 0,-1.5 -0.3,-2.6 -0.7,-3.2 -0.9,-1.1 -2.4,-1.7 -4.6,-1.7 z m 2.9,8.2 c 0,1 -0.2,1.8 -0.8,2.4 -0.6,0.7 -1.3,1 -2.1,1 l -2.2,0 c 0,-2.9 0,-6.1 0.1,-9.4 0,-0.2 0.1,-0.4 0.6,-0.6 0.4,-0.1 0.7,-0.1 1.1,-0.1 1.2,0 2.2,0.3 2.6,0.8 0.4,0.5 0.7,1.4 0.7,2.6 l 0,3.3 0,0 z m 17.1,-7.7 c 0,0.3 0.1,0.6 0.1,0.8 l 0,0.4 c -0.3,9.4 -0.6,14.5 -0.7,15.5 -0.6,2.6 -2.2,3.9 -5.1,3.9 -0.3,0 -0.7,0 -1,-0.1 -0.3,-0.1 -0.8,-0.3 -1.2,-0.4 -0.6,-0.3 -1,-0.7 -1.2,-1.2 -0.2,-0.5 -0.4,-1.4 -0.4,-2.2 0,-0.4 0.1,-0.7 0.3,-0.8 0.2,-0.1 0.6,-0.3 1,-0.3 0.3,0 0.6,0 0.7,0.1 0.1,0 0.3,0.3 0.4,0.6 0.1,0.3 0.3,0.8 0.3,1.4 0,1 0.6,1.5 1.7,1.5 0.7,0 1.4,-0.3 1.7,-0.8 0.4,-0.6 0.6,-1.2 0.6,-1.9 0,-0.4 0,-1.7 0.1,-3.7 -0.8,0.3 -1.8,0.4 -2.8,0.4 -0.8,0 -1.4,-0.1 -2.1,-0.4 -0.7,-0.3 -1.2,-1 -1.7,-2.1 -0.4,-1.1 -0.6,-2.1 -0.7,-2.9 0,-0.8 0,-1.9 0,-3.3 0,-0.4 0,-1 0,-1.7 0,-0.8 0,-1.4 0,-2.1 0.1,-0.4 0.4,-0.7 1,-1 0.1,0 0.4,-0.1 0.8,-0.1 0.4,0 0.7,0.3 0.7,0.8 0,3.9 0.1,6.9 0.6,9.1 0.4,1.2 1.1,1.8 2.2,1.8 0.6,0 1.2,-0.1 1.9,-0.6 l 0.3,-9.4 c 0,-0.8 0.1,-1.4 0.6,-1.7 0.4,-0.1 0.7,-0.3 1.1,-0.3 0.4,0.2 0.7,0.4 0.8,0.7 z m 19.1,-0.4 c 0.1,0.1 0.1,0.4 0.1,0.7 0,0.1 0,0.3 0,0.6 0,0.3 0,0.6 0,0.7 0,3 -0.1,8.9 -0.1,17.6 l 0,0.4 c 0,0.7 -0.6,1.1 -1.5,1.1 l -0.6,0 c -7.3,0 -11.1,0 -11.2,-0.1 -0.4,-0.1 -0.6,-0.3 -0.7,-0.4 -0.1,-0.1 -0.1,-0.6 -0.1,-1.1 0,-2.6 0,-6 0,-10.1 0,-4.2 0,-6.5 0,-6.8 l 0,-1.9 c 0,-0.4 0.4,-0.7 1.1,-0.7 1,0 1.4,0.3 1.4,1 0,0.1 0,0.3 0,0.6 0,0.3 0,0.4 0,0.6 0,3 -0.1,8.7 -0.1,17.3 l 3.6,0 c 0,-2.5 0,-5.8 0,-10 0,-4.2 0,-6.4 0,-6.6 l 0,-2.2 0,-0.1 c 0,-0.1 0.1,-0.1 0.4,-0.3 0.3,-0.2 0.4,-0.1 0.7,-0.1 0.8,0 1.2,0.3 1.2,0.7 l 0,1.4 c -0.1,3.9 -0.1,9.7 -0.1,17.2 l 3.3,0 c 0,-2.5 0,-6 0,-10.1 0,-4.2 0,-6.4 0,-6.8 l 0,-1.9 c 0,0 0,-0.1 0.1,-0.3 0.1,-0.1 0.3,-0.1 0.6,-0.3 0.5,-0.1 0.8,-0.2 1.1,-0.2 0.4,0 0.7,0 0.8,0.1 z m 16.6,13.6 0.2,-0.2 c 0,0.3 0,0.8 0,1.5 0,4 -0.1,6 -0.7,6 -0.7,0 -1.4,-0.1 -1.9,-0.6 l 0.1,-8.4 c 0,-0.3 0,-1.1 0,-2.6 0,-1.5 0,-2.5 0,-2.9 l -5.5,14 c -0.1,0.3 -0.6,0.4 -1.1,0.4 -0.5,0 -1.1,-0.1 -1.7,-0.3 -0.6,-0.3 -0.8,-0.4 -0.8,-0.7 -0.1,-0.3 -0.1,-1.4 -0.1,-3.2 0,-1.9 0,-5 0.1,-9 0.1,-4 0.1,-6.2 0.1,-6.6 0.1,-0.4 0.4,-0.7 0.8,-0.8 0.7,-0.1 1.1,-0.1 1.2,0.1 0.1,0.3 0.3,0.6 0.3,1 l 0,2.6 c 0,0.7 0,2.2 -0.1,4.4 0,2.2 -0.1,3.9 -0.1,5 0,0.3 0,1.1 0,2.4 0,1.3 0,2.1 0,2.4 1.2,-2.9 3.3,-8.2 6.2,-15.9 0.4,-1.1 0.8,-1.8 1.1,-1.9 1.2,0 1.8,0.3 1.9,1 l 0,12.3 z m 15,-13.2 c 0.1,0.1 0.1,0.3 0.1,0.4 0,0.1 0,0.3 -0.1,0.6 -0.1,0.3 -0.3,0.4 -0.3,0.4 l -3.6,0.1 c 0,2.5 0,6 0,10.1 0,4.2 0,6.4 0,6.6 l 0,1.9 c 0,0 0,0.1 -0.1,0.3 -0.1,0.1 -0.3,0.1 -0.6,0.3 -0.3,0.1 -0.6,0.1 -0.8,0.1 -0.6,0 -0.8,-0.1 -1,-0.3 -0.2,-0.2 -0.3,-0.4 -0.3,-0.7 0,-0.1 0,-0.3 0,-0.6 0,-0.3 0,-0.4 0,-0.6 0.1,-4.3 0.1,-10 0.1,-17.2 -2.1,0 -3.2,0 -3.5,0 -0.3,0 -0.6,-0.4 -0.6,-1.1 0.1,-0.4 0.4,-0.7 0.8,-0.8 6.2,0 9.2,0.1 9.5,0.1 0.1,0 0.3,0.1 0.4,0.4 z m 12.4,19.3 c 0.1,0.1 0.1,0.4 0.1,0.8 0,0.4 -0.3,0.6 -0.8,0.6 -1.7,0.1 -3.5,0.3 -5.1,0.3 -0.7,0 -1.2,-0.1 -1.5,-0.3 -0.3,-0.1 -0.4,-0.6 -0.4,-1 l 0,-1.7 c 0,-1.2 0.1,-3.2 0.1,-5.5 0,-2.3 0,-4.6 0,-6.4 0,-1.8 0,-2.8 0,-2.9 0,-0.1 0,-0.4 0,-0.7 0,-0.4 0,-0.7 0,-1 0,-0.3 0.1,-0.6 0.1,-0.8 0,-0.3 0.3,-0.6 0.4,-0.7 0.1,-0.1 1,-0.3 2.4,-0.3 0.3,0 0.7,0 1.2,0 0.5,0 1,0 1.2,0 1,0 1.5,0 1.8,0.1 0.3,0.1 0.4,0.3 0.4,0.7 0,0.4 -0.1,0.7 -0.4,0.8 -0.3,0.1 -0.8,0.3 -1.8,0.3 0,0 -0.1,0 -0.4,0 -0.1,0 -0.3,0 -0.4,0 -1,-0.2 -1.8,-0.2 -2.2,-0.1 -0.1,0 -0.3,0.8 -0.3,2.5 0,1.1 0,1.9 0,2.8 0,0.7 0,1.1 0,1.1 0,0.8 0.1,1.2 0.3,1.2 0.1,0 1.2,0.1 3.2,0.1 0.7,0 1,0.1 1.2,0.3 0.2,0.2 0.3,0.4 0.3,0.8 0,0.6 -0.4,0.8 -1.1,0.8 l -2.4,0 c -0.6,0 -0.8,0 -1,0.1 -0.2,0.1 -0.1,0.3 -0.1,0.6 0,1 0,1.8 0,2.5 0,0.7 0,1.7 0,2.6 0,1 0,1.7 0,1.8 0,0.3 0.1,0.3 0.4,0.3 l 0.3,0 c 0.3,0 0.8,0 1.4,0 0.6,0 1.1,0 1.7,0 0.8,0 1.4,0.1 1.4,0.3 z m 12.7,-16.8 2.9,16.9 c 0,0.1 0,0.3 0,0.4 0,0.7 -0.6,1 -1.8,1 -0.3,0 -0.4,-0.1 -0.6,-0.6 l -2.8,-18.3 c -0.1,0.4 -0.4,1.2 -0.6,2.2 -0.1,1 -0.6,2.5 -0.8,4.3 -0.3,1.8 -0.8,3.5 -1.1,5.1 0,0.1 -0.1,0.7 -0.3,1.7 -0.1,1 -0.4,1.9 -0.6,3 -0.1,1.1 -0.4,1.7 -0.6,1.9 -0.1,0.1 -0.4,0.1 -0.8,0.3 -0.4,0.1 -0.8,0.1 -1,0.1 -0.3,0 -0.6,-0.1 -0.6,-0.6 0,-0.3 0,-0.4 0.1,-0.6 1.9,-8.7 3.2,-14.4 3.9,-16.9 0,0 0,-0.1 0.1,-0.4 0.1,-0.3 0.1,-0.4 0.1,-0.6 0,0 0,-0.1 0.1,-0.4 0.1,-0.3 0.1,-0.4 0.3,-0.4 0.1,0 0.1,-0.1 0.3,-0.4 0.1,-0.1 0.3,-0.3 0.4,-0.3 0.1,0 0.4,-0.1 0.6,-0.1 0.3,0 0.4,-0.1 0.7,-0.1 1.1,0 1.8,1 2.1,2.8 z m 19,10.7 0.2,-0.2 c 0,0.3 0,0.8 0,1.5 0,4 -0.1,6 -0.7,6 -0.7,0 -1.4,-0.1 -1.9,-0.6 l 0.1,-8.4 c 0,-0.3 0,-1.1 0,-2.6 0,-1.5 0,-2.5 0,-2.9 l -5.5,14 c -0.1,0.3 -0.6,0.4 -1.1,0.4 -0.5,0 -1.1,-0.1 -1.7,-0.3 -0.6,-0.3 -0.8,-0.4 -0.8,-0.7 -0.1,-0.3 -0.1,-1.4 -0.1,-3.2 0,-1.9 0,-5 0.1,-9 0.1,-4 0.1,-6.2 0.1,-6.6 0.1,-0.4 0.4,-0.7 0.8,-0.8 0.7,-0.1 1.1,-0.1 1.2,0.1 0.1,0.2 0.3,0.6 0.3,1 l 0,2.6 c 0,0.7 0,2.2 -0.1,4.4 0,2.2 -0.1,3.9 -0.1,5 0,0.3 0,1.1 0,2.4 0,1.3 0,2.1 0,2.4 1.2,-2.9 3.3,-8.2 6.2,-15.9 0.4,-1.1 0.8,-1.8 1.1,-1.9 1.2,0 1.8,0.3 1.9,1 l 0,12.3 z m 36.6,-12.4 c 0.1,9.8 0.3,15.6 0.3,17.7 0,0.4 0,0.8 -0.1,1.1 -0.1,0.3 -0.3,0.6 -0.6,0.7 -0.3,0.1 -0.8,0.3 -1.4,0.3 -0.4,0 -0.6,-0.1 -0.7,-0.6 0,-7.1 0,-12.3 0,-15.9 0,-0.7 0,-1 0,-1.1 -0.6,2.1 -1.2,4.3 -1.9,6.8 -0.8,2.5 -1.5,5 -2.1,7.5 -0.3,0.7 -1.1,1 -2.4,1 -0.7,0 -1.2,-0.3 -1.5,-1 -1.7,-3.9 -3,-7.9 -4.4,-12 -0.3,-1.1 -0.4,-1.7 -0.4,-1.7 0,1.7 0,4.3 0,8 0,3.7 0,6.5 0,8.2 -0.1,0.6 -0.7,0.7 -1.5,0.7 -0.7,0 -1,-0.4 -1,-1.2 0,-0.3 0,-1.7 0,-4.2 0,-2.5 0,-5.4 0,-8.6 0,-3.2 0,-5.3 0,-6.2 0.3,-0.6 1,-0.8 1.9,-0.8 0.6,0 1,0.1 1.5,0.3 l 5.8,16.6 c 2.5,-8.7 3.9,-13.6 4.3,-14.5 0,-0.1 0.1,-0.1 0.1,-0.4 0,-0.1 0.1,-0.3 0.1,-0.4 0,-0.1 0.1,-0.1 0.1,-0.3 0,-0.1 0.1,-0.3 0.3,-0.3 0.1,-0.1 0.1,-0.1 0.3,-0.3 0.1,-0.1 0.3,-0.2 0.6,-0.3 0.7,-0.1 1.1,-0.3 1.5,-0.3 0.8,0 1.2,0.4 1.2,1.2 z m 16.7,12.4 0.2,-0.2 c 0,0.3 0,0.8 0,1.5 0,4 -0.1,6 -0.7,6 -0.7,0 -1.4,-0.1 -1.9,-0.6 l 0.1,-8.4 c 0,-0.3 0,-1.1 0,-2.6 0,-1.5 0,-2.5 0,-2.9 l -5.5,14 c -0.1,0.3 -0.6,0.4 -1.1,0.4 -0.5,0 -1.1,-0.1 -1.7,-0.3 -0.6,-0.3 -0.8,-0.4 -0.8,-0.7 -0.1,-0.3 -0.1,-1.4 -0.1,-3.2 0,-1.9 0,-5 0.1,-9 0.1,-4 0.1,-6.2 0.1,-6.6 0.1,-0.4 0.4,-0.7 0.8,-0.8 0.7,-0.1 1.1,-0.1 1.2,0.1 0.1,0.2 0.3,0.6 0.3,1 l 0,2.6 c 0,0.7 0,2.2 -0.1,4.4 0,2.2 -0.1,3.9 -0.1,5 0,0.3 0,1.1 0,2.4 0,1.3 0,2.1 0,2.4 1.2,-2.9 3.3,-8.2 6.2,-15.9 0.4,-1.1 0.8,-1.8 1.1,-1.9 1.2,0 1.8,0.3 1.9,1 l 0,12.3 z m 18.6,-12.2 c -1,-0.5 -2.1,-0.8 -3.5,-0.8 -0.3,0 -0.6,0 -0.7,0 l 0,-1.7 c -0.4,-0.5 -0.6,-0.6 -1.2,-0.6 -0.7,0 -1.2,0.3 -1.5,1 l 0,1.2 c -0.1,0 -0.4,0 -0.8,0 -1.4,0 -2.5,0.2 -3.5,0.8 -0.9,0.5 -1.5,1.5 -1.9,2.9 -0.5,1.4 -0.6,3.5 -0.6,6.1 0,1.5 0,3.1 0.3,4.3 0.3,1.5 0.9,2.8 1.7,3.6 0.9,0.8 2.1,1.2 3.9,1.2 0.3,0 0.7,-0.1 1.1,-0.1 l 0,1.5 c 0,0.4 0.2,0.7 0.8,0.7 0.4,0 0.7,0 1,-0.1 0.3,-0.1 0.5,-0.3 0.6,-0.4 0.1,-0.2 0.1,-0.2 0.1,-0.3 l 0,-1.2 c 0.5,0.1 0.8,0.1 1.1,0.1 1.8,0 3.1,-0.4 3.9,-1.2 0.9,-0.8 1.4,-2.1 1.7,-3.6 0.2,-1.3 0.3,-2.6 0.3,-4.3 0,-2.6 -0.2,-4.7 -0.6,-6.1 -0.4,-1.4 -1.2,-2.5 -2.2,-3 z m -6.6,16.7 c -0.2,0 -0.4,0 -1,0 -2.2,0 -3.3,-2 -3.1,-6.1 l 0,-1.1 c -0.1,-0.7 -0.1,-1.6 0,-2.6 0.1,-0.9 0.1,-1.5 0.1,-1.5 0,-1.1 0.3,-2 0.7,-3 0.4,-1 1.2,-1.4 2.2,-1.4 0.5,0 0.8,0 1.1,0.1 l 0,15.6 0,0 z m 6.8,-9.9 c 0,0.9 0,1.9 0,2.6 l 0,1.1 c 0,4.2 -1.1,6.2 -3.1,6.1 -0.6,0 -0.9,0 -1,0 l 0.1,-15.8 c 0.3,-0.1 0.5,-0.1 1.1,-0.1 1,0 1.8,0.5 2.2,1.4 0.4,0.9 0.7,1.9 0.7,3 0,0.2 0,0.8 0,1.7 z m 12.9,-8.9 c -1.2,0 -2.2,0.2 -3,0.8 -0.9,0.4 -1.5,1.1 -1.9,1.9 -0.4,0.9 -0.7,1.7 -0.8,2.4 -0.2,0.7 -0.3,1.5 -0.3,2.2 0,0.3 0,1 0,1.8 0,1 0,1.6 0,2.2 0,2.5 0.3,4.6 0.7,6.4 0.3,1.7 1,2.6 1.8,3.2 0.8,0.5 2,0.8 3.2,0.8 1.9,0 3.2,-0.9 4,-3 0.7,-2 1.1,-4.9 1.1,-8.6 0,-0.4 0,-1.1 0,-2.2 0,-1 0,-1.8 0,-2.4 0,-1.3 -0.4,-2.5 -1.5,-3.8 -0.9,-1.1 -2.1,-1.7 -3.3,-1.7 z m -0.5,20.2 c -1.9,0 -2.7,-3 -2.7,-9.3 0,-2.5 0.1,-4.4 0.4,-5.8 0.3,-1.4 0.6,-2.4 1,-2.8 0.4,-0.5 1,-0.6 1.5,-0.6 0.5,0 1.1,0.2 1.5,0.8 0.4,0.6 0.6,1.1 0.7,1.7 0.3,1.3 0.4,3.4 0.4,6.4 0,6.4 -1,9.6 -2.8,9.6 z m 19.6,-9.1 c -0.5,-0.4 -1,-0.9 -1.6,-1 1.1,-1 1.7,-2.5 1.7,-4.7 0,-1.4 -0.2,-2.5 -0.8,-3.3 -0.6,-0.8 -1.8,-1.2 -3.5,-1.2 -2.9,0 -4.4,0.6 -4.7,1.8 l 0,0.1 -0.1,18 c 0,0.7 0.2,1.1 0.8,1.1 l 4.7,0 c 0.8,0 1.6,-0.1 2.2,-0.4 0.6,-0.3 1.1,-0.6 1.4,-1 0.4,-0.3 0.7,-0.8 0.8,-1.5 0.2,-0.7 0.3,-1.3 0.3,-1.9 0,-0.6 0,-1.4 0,-2.4 0,-1.7 -0.4,-2.9 -1.2,-3.6 z m -6.7,-3.7 c 0,-0.7 0,-1.5 0,-2.5 0,-1 0,-1.6 0,-2.2 0,-0.1 0.3,-0.3 0.6,-0.4 0.4,-0.1 0.7,-0.1 1.1,-0.1 0.9,0 1.6,0.2 2.1,0.7 0.3,0.4 0.4,1.1 0.4,1.9 l 0,1.1 c 0,2.3 -0.7,3.6 -2.1,3.7 l -2.1,0 c 0,-0.7 0,-1.4 0,-2.2 z m 5.4,8.4 c 0,0.4 0,0.7 0,1 0,2.2 -1,3.3 -2.9,3.2 l -2.1,0 c -0.3,0 -0.5,0 -0.6,0 0,-0.3 0,-0.7 0,-1.5 0,-3.3 0,-5.8 0,-7.3 l 1.9,0 0.1,0 c 0.1,0 0.1,0 0.1,0 0.8,0 1.3,0.2 1.9,0.3 0.5,0.3 0.8,0.6 1.1,1 0.3,0.4 0.4,0.8 0.4,1.2 0.1,0.4 0.1,0.8 0.1,1.5 0,0 0,0.2 0,0.6 z"
       id="path29"
       inkscape:connector-curvature="0"
       style="fill:#096a38" />
  </g>
</svg>
