<?xml version="1.0" encoding="UTF-8" standalone="no"?>
<!-- Generator: Adobe Illustrator 16.0.0, SVG Export Plug-In . SVG Version: 6.00 Build 0)  -->

<svg
   xmlns:dc="http://purl.org/dc/elements/1.1/"
   xmlns:cc="http://creativecommons.org/ns#"
   xmlns:rdf="http://www.w3.org/1999/02/22-rdf-syntax-ns#"
   xmlns:svg="http://www.w3.org/2000/svg"
   xmlns="http://www.w3.org/2000/svg"
   xmlns:sodipodi="http://sodipodi.sourceforge.net/DTD/sodipodi-0.dtd"
   xmlns:inkscape="http://www.inkscape.org/namespaces/inkscape"
   version="1.1"
   id="Layer_1"
   x="0px"
   y="0px"
   width="42.05888"
   height="66.092705"
   viewBox="0 0 42.058879 66.092702"
   enable-background="new 0 0 841.89 595.28"
   xml:space="preserve"
   inkscape:version="0.91 r13725"
   sodipodi:docname="bukva__08__T.svg"><metadata
     id="metadata273"><rdf:RDF><cc:Work
         rdf:about=""><dc:format>image/svg+xml</dc:format><dc:type
           rdf:resource="http://purl.org/dc/dcmitype/StillImage" /><dc:title></dc:title></cc:Work></rdf:RDF></metadata><defs
     id="defs271" /><sodipodi:namedview
     pagecolor="#ffffff"
     bordercolor="#666666"
     borderopacity="1"
     objecttolerance="10"
     gridtolerance="10"
     guidetolerance="10"
     inkscape:pageopacity="0"
     inkscape:pageshadow="2"
     inkscape:window-width="640"
     inkscape:window-height="480"
     id="namedview269"
     showgrid="false"
     fit-margin-top="0"
     fit-margin-left="0"
     fit-margin-right="0"
     fit-margin-bottom="0"
     inkscape:zoom="0.35396548"
     inkscape:cx="-69.354114"
     inkscape:cy="32.792402"
     inkscape:window-x="10"
     inkscape:window-y="34"
     inkscape:window-maximized="0"
     inkscape:current-layer="Layer_1" /><g
     id="g3"
     transform="translate(-490.29912,-264.33971)"><g
       id="g5"><g
         id="g7"><g
           id="g9"><path
             d="m 498.02,273.422 c 3.717,0 22.592,0 23.668,0.432 0.881,0.359 2.348,1.939 2.348,2.801 0,0.646 -1.664,3.018 -2.936,3.018 -1.855,0 -3.813,0.145 -7.137,0.145 0,9.698 -0.1,21.121 -0.197,29.023 0,3.09 -0.098,8.693 -0.098,9.986 l 0,4.599 c 0,0.358 -1.467,2.802 -5.086,2.802 -4.205,0 -4.695,-1.438 -4.695,-3.449 0,-1.796 0.1,-2.37 0.1,-2.873 0.098,-5.029 0.195,-34.125 0.293,-40.018 l -2.738,0 c -1.955,0 -3.912,0 -4.4,-0.07 -2.152,-0.359 -2.543,-1.797 -2.543,-3.449 l 0.098,-0.215 c 0.291,-1.152 1.66,-2.229 3.323,-2.732 z"
             id="path11"
             inkscape:connector-curvature="0"
             style="fill:#cfe4cf" /></g><g
           id="g13"><g
             id="g15"><path
               d="m 498.02,277.584 c 4.82,0 9.641,0.016 14.459,0.072 2.412,0.028 4.824,0.068 7.234,0.172 2.877,0.123 -1.785,0.141 0.027,-1.975 0.512,-0.559 0.18,-0.656 -0.996,-0.292 -1.596,0.046 -3.188,0.08 -4.781,0.093 -2.27,0.019 -4.16,1.879 -4.162,4.162 -0.006,10.461 -0.135,20.92 -0.209,31.381 -0.023,3.146 -0.084,6.293 -0.084,9.439 0,0.625 0,1.251 0,1.877 0,0.219 0,0.438 0,0.656 0.82,-1.507 0.512,-1.875 -0.926,-1.105 -0.178,0.238 -0.355,0.476 -0.533,0.713 -0.004,-0.769 0.02,-1.537 0.072,-2.304 0.025,-0.468 0.033,-0.933 0.039,-1.4 0.195,-13.061 0.082,-26.126 0.279,-39.187 0.035,-2.268 -1.918,-4.161 -4.16,-4.161 -0.818,0 -1.637,0 -2.453,0 -0.73,10e-4 -1.459,-0.001 -2.188,-0.003 -0.525,-0.006 -1.051,-0.012 -1.576,-0.018 -0.426,2.683 -0.07,3.26 1.064,1.73 4.908,-1.984 2.766,-10.038 -2.213,-8.025 -4.203,1.697 -8.623,5.946 -5.635,10.882 2.818,4.655 8.268,3.757 13,3.757 -1.389,-1.387 -2.775,-2.774 -4.162,-4.162 -0.127,8.332 -0.125,16.666 -0.172,24.998 -0.025,4.147 -0.049,8.295 -0.088,12.441 -0.031,3.303 -1.082,8.072 1.611,10.596 3.572,3.35 9.801,3.26 13.576,0.258 3.188,-2.533 2.785,-5.658 2.785,-9.354 0,-13.002 0.287,-26.006 0.293,-39.01 -1.387,1.387 -2.773,2.773 -4.16,4.161 5.514,-0.045 10.26,0.532 13.482,-4.66 2.197,-3.543 -1.217,-9.026 -5.117,-9.56 -7.945,-1.09 -16.303,-0.496 -24.309,-0.497 -5.365,0.002 -5.365,8.325 0.003,8.325 z"
               id="path17"
               inkscape:connector-curvature="0"
               style="fill:#cfe4cf" /></g></g></g></g><g
       id="g19"
       style="opacity:0.8"><g
         id="g21"><g
           id="g23"><path
             d="m 500.518,270.925 c 3.717,0 22.59,0 23.668,0.431 0.879,0.359 2.346,1.94 2.346,2.803 0,0.646 -1.662,3.018 -2.934,3.018 -1.857,0 -3.814,0.143 -7.139,0.143 0,9.699 -0.098,21.123 -0.197,29.025 0,3.09 -0.098,8.693 -0.098,9.986 l 0,4.598 c 0,0.359 -1.467,2.801 -5.084,2.801 -4.207,0 -4.695,-1.436 -4.695,-3.447 0,-1.797 0.098,-2.371 0.098,-2.874 0.098,-5.028 0.195,-34.125 0.295,-40.017 l -2.74,0 c -1.955,0 -3.912,0 -4.4,-0.072 -2.152,-0.358 -2.543,-1.795 -2.543,-3.447 l 0.098,-0.216 c 0.291,-1.151 1.661,-2.229 3.325,-2.732 z"
             id="path25"
             inkscape:connector-curvature="0"
             style="fill:#cfe4cf" /></g><g
           id="g27"><g
             id="g29"><path
               d="m 500.518,273.006 c 4.818,0 9.639,0.016 14.459,0.072 2.412,0.028 4.824,0.068 7.232,0.172 0.441,0.019 2.953,-0.119 1.5,1.578 -0.885,1.032 -6.064,0.4 -7.25,0.41 -1.135,0.01 -2.08,0.939 -2.082,2.08 -0.006,10.462 -0.133,20.922 -0.207,31.383 -0.023,3.146 -0.086,6.291 -0.086,9.438 0,2.497 0.486,3.175 -3.004,3.51 -3.623,0.348 -2.531,-3.141 -2.504,-5.072 0.191,-13.061 0.08,-26.125 0.281,-39.186 0.018,-1.134 -0.959,-2.08 -2.08,-2.08 -1.939,0 -11.621,0.013 -5.707,-2.379 2.455,-0.993 1.383,-5.02 -1.105,-4.014 -2.979,1.205 -6.602,4.178 -4.393,7.827 2.303,3.804 7.367,2.727 11.205,2.727 -0.693,-0.693 -1.389,-1.388 -2.082,-2.081 -0.127,8.332 -0.125,16.666 -0.174,24.998 -0.023,4.146 -0.047,8.294 -0.086,12.441 -0.025,2.627 -1.125,7.132 1.002,9.124 2.689,2.521 7.758,2.544 10.633,0.257 2.719,-2.161 2.176,-4.674 2.176,-7.881 0,-13.004 0.285,-26.008 0.293,-39.012 -0.693,0.693 -1.387,1.388 -2.08,2.081 4.711,-0.038 8.941,0.798 11.686,-3.63 1.535,-2.475 -1.334,-6.155 -3.873,-6.504 -7.742,-1.062 -15.951,-0.422 -23.754,-0.422 -2.684,10e-4 -2.684,4.163 0,4.163 z"
               id="path31"
               inkscape:connector-curvature="0"
               style="fill:#5e8d64" /></g></g></g></g><g
       id="g33"><g
         id="g35"><path
           d="m 503.846,267.596 c 3.717,0 22.592,0 23.668,0.432 0.881,0.359 2.348,1.939 2.348,2.801 0,0.646 -1.662,3.018 -2.934,3.018 -1.859,0 -3.814,0.145 -7.141,0.145 0,9.698 -0.098,21.121 -0.195,29.023 0,3.09 -0.098,8.693 -0.098,9.987 l 0,4.598 c 0,0.359 -1.467,2.802 -5.086,2.802 -4.205,0 -4.693,-1.438 -4.693,-3.448 0,-1.796 0.098,-2.372 0.098,-2.874 0.098,-5.029 0.195,-34.125 0.293,-40.017 l -2.738,0 c -1.955,0 -3.912,0 -4.4,-0.071 -2.152,-0.359 -2.543,-1.796 -2.543,-3.449 l 0.098,-0.215 c 0.291,-1.152 1.661,-2.229 3.323,-2.732 z"
           id="path37"
           inkscape:connector-curvature="0"
           style="fill:#43434b" /><path
           d="m 514.408,322.897 c -4.906,0 -7.191,-1.89 -7.191,-5.945 0,-1.255 0.047,-1.967 0.076,-2.438 0.012,-0.175 0.021,-0.309 0.021,-0.436 0.051,-2.592 0.102,-11.529 0.15,-20.172 0.037,-6.592 0.074,-13.361 0.113,-17.348 l -0.211,0 c -2.91,0 -4.154,-0.009 -4.762,-0.098 -2.162,-0.36 -4.68,-1.672 -4.68,-5.92 l 0,-0.54 0.248,-0.546 c 0.602,-1.887 2.471,-3.499 4.949,-4.248 l 0.354,-0.107 0.369,0 c 23.074,0 23.92,0.339 24.598,0.611 1.377,0.562 3.916,2.808 3.916,5.118 0,1.977 -2.738,5.515 -5.432,5.515 -0.77,0 -1.557,0.026 -2.457,0.056 -0.668,0.021 -1.383,0.045 -2.188,0.062 -0.016,9.241 -0.107,19.604 -0.195,26.585 0,1.854 -0.035,4.669 -0.064,6.881 -0.018,1.41 -0.033,2.572 -0.033,3.075 l 0,4.598 c 10e-4,1.797 -2.675,5.297 -7.581,5.297 z m -2.152,-5.261 c 0.189,0.083 0.768,0.268 2.152,0.268 1.49,0 2.268,-0.602 2.588,-0.943 l 0,-3.959 c 0,-0.514 0.016,-1.699 0.035,-3.139 0.027,-2.192 0.063,-4.981 0.063,-6.849 0.096,-7.627 0.197,-19.231 0.197,-29.023 l 0,-2.497 2.496,0 c 1.863,0 3.275,-0.046 4.521,-0.086 0.828,-0.027 1.564,-0.051 2.279,-0.057 0.15,-0.123 0.334,-0.323 0.496,-0.528 -0.141,-0.154 -0.297,-0.306 -0.428,-0.41 -0.975,-0.093 -5.113,-0.316 -22.4,-0.319 -0.789,0.301 -1.221,0.719 -1.32,0.881 0.021,0.293 0.064,0.425 0.084,0.473 0.016,-0.009 0.131,0.043 0.357,0.081 0.369,0.037 2.549,0.037 3.99,0.037 l 5.277,0 -0.043,2.538 c -0.047,2.879 -0.096,11.497 -0.143,19.832 -0.051,8.659 -0.1,17.614 -0.15,20.192 0,0.171 -0.012,0.402 -0.031,0.705 -0.027,0.433 -0.066,1.025 -0.066,2.12 10e-4,0.379 0.024,0.581 0.046,0.683 z"
           id="path39"
           inkscape:connector-curvature="0"
           style="fill:#43434b" /></g></g><g
       id="g41"><g
         id="g43"><path
           d="m 503.014,265.932 c 3.717,0 22.592,0 23.668,0.431 0.881,0.359 2.348,1.94 2.348,2.802 0,0.646 -1.664,3.018 -2.934,3.018 -1.859,0 -3.816,0.144 -7.141,0.144 0,9.699 -0.098,21.122 -0.195,29.024 0,3.09 -0.098,8.693 -0.098,9.986 l 0,4.598 c 0,0.359 -1.467,2.803 -5.086,2.803 -4.205,0 -4.695,-1.438 -4.695,-3.449 0,-1.796 0.1,-2.371 0.1,-2.874 0.096,-5.028 0.195,-34.124 0.293,-40.017 l -2.74,0 c -1.955,0 -3.91,0 -4.4,-0.071 -2.152,-0.359 -2.543,-1.796 -2.543,-3.448 l 0.098,-0.215 c 0.291,-1.152 1.663,-2.23 3.325,-2.732 z"
           id="path45"
           inkscape:connector-curvature="0"
           style="fill:#006838" /></g></g><g
       id="g47"><path
         d="m 504.678,265.102 c 3.717,0 22.59,0 23.666,0.431 0.881,0.359 2.348,1.939 2.348,2.802 0,0.646 -1.662,3.018 -2.934,3.018 -1.859,0 -3.814,0.144 -7.139,0.144 0,9.698 -0.1,21.12 -0.197,29.022 0,3.089 -0.098,8.692 -0.098,9.985 l 0,4.598 c 0,0.359 -1.467,2.802 -5.084,2.802 -4.205,0 -4.695,-1.437 -4.695,-3.448 0,-1.796 0.098,-2.37 0.098,-2.874 0.098,-5.028 0.197,-34.123 0.295,-40.014 l -2.738,0 c -1.957,0 -3.912,0 -4.402,-0.071 -2.15,-0.359 -2.541,-1.796 -2.541,-3.448 l 0.098,-0.216 c 0.291,-1.151 1.661,-2.229 3.323,-2.731 z"
         id="path49"
         inkscape:connector-curvature="0"
         style="fill:#2f9a41" /></g><g
       id="g51"><g
         id="g53"><path
           d="m 508.15,271.564 c 0.017,0 0.032,0 0.049,0 l 1.295,0 6.426,-6.426 c -0.445,-0.003 -0.891,-0.007 -1.332,-0.01 l -6.438,6.436 z"
           id="path55"
           inkscape:connector-curvature="0"
           style="fill:#cfe4cf" /><path
           d="m 501.273,268.586 c 0.027,0.404 0.089,0.788 0.207,1.137 l 4.625,-4.624 c -0.551,0 -1.001,0 -1.344,0 l -3.488,3.487 z"
           id="path57"
           inkscape:connector-curvature="0"
           style="fill:#cfe4cf" /><path
           d="m 510.911,273.733 c -0.004,0.417 -0.009,0.874 -0.013,1.356 l 9.895,-9.895 c -0.434,-0.007 -0.875,-0.014 -1.324,-0.02 l -8.558,8.559 z"
           id="path59"
           inkscape:connector-curvature="0"
           style="fill:#cfe4cf" /><path
           d="m 503.396,271.392 c 0.132,0.035 0.252,0.077 0.4,0.102 0.146,0.021 0.431,0.036 0.796,0.046 l 6.429,-6.43 c -0.459,-0.001 -0.907,-0.003 -1.338,-0.004 l -6.287,6.286 z"
           id="path61"
           inkscape:connector-curvature="0"
           style="fill:#cfe4cf" /><path
           d="m 528.166,271.264 c 0.904,-0.304 1.877,-1.484 2.301,-2.301 l -2.301,2.301 z"
           id="path63"
           inkscape:connector-curvature="0"
           style="fill:#cfe4cf" /><path
           d="m 510.871,278.702 c -0.004,0.439 -0.006,0.891 -0.01,1.353 l 14.744,-14.744 c -0.4,-0.015 -0.838,-0.029 -1.301,-0.042 l -13.433,13.433 z"
           id="path65"
           inkscape:connector-curvature="0"
           style="fill:#cfe4cf" /><path
           d="m 510.839,283.663 c -0.003,0.445 -0.005,0.896 -0.008,1.352 l 9.784,-9.784 c 0.002,-0.452 0.002,-0.899 0.002,-1.346 l -9.778,9.778 z"
           id="path67"
           inkscape:connector-curvature="0"
           style="fill:#cfe4cf" /><path
           d="m 524.414,271.431 5.072,-5.072 c -0.244,-0.239 -0.5,-0.447 -0.738,-0.605 l -5.713,5.713 c 0.492,-0.01 0.947,-0.023 1.379,-0.036 z"
           id="path69"
           inkscape:connector-curvature="0"
           style="fill:#cfe4cf" /><path
           d="m 520.598,280.177 c 0.002,-0.451 0.004,-0.901 0.006,-1.35 l -9.793,9.793 c -0.003,0.449 -0.006,0.9 -0.008,1.352 l 9.795,-9.795 z"
           id="path71"
           inkscape:connector-curvature="0"
           style="fill:#cfe4cf" /><path
           d="m 520.404,303.668 -9.847,9.846 c -0.007,0.273 -0.011,0.576 -0.011,0.941 0,0.138 0.002,0.272 0.008,0.404 l 9.834,-9.834 c 0.007,-0.453 0.01,-0.908 0.016,-1.357 z"
           id="path73"
           inkscape:connector-curvature="0"
           style="fill:#cfe4cf" /><path
           d="m 520.328,310.014 c 0.004,-0.355 0.008,-0.817 0.016,-1.358 l -8.594,8.594 c 0.26,0.155 0.571,0.287 0.954,0.39 l 7.624,-7.626 z"
           id="path75"
           inkscape:connector-curvature="0"
           style="fill:#cfe4cf" /><path
           d="m 520.326,314.946 0,-1.344 -4.25,4.25 c 0.697,-0.079 1.301,-0.249 1.816,-0.473 l 2.434,-2.433 z"
           id="path77"
           inkscape:connector-curvature="0"
           style="fill:#cfe4cf" /><path
           d="m 520.484,295.072 c 0.006,-0.448 0.01,-0.898 0.014,-1.357 l -9.776,9.777 c -0.003,0.464 -0.007,0.914 -0.01,1.354 l 9.772,-9.774 z"
           id="path79"
           inkscape:connector-curvature="0"
           style="fill:#cfe4cf" /><path
           d="m 520.43,300.057 c 0.004,-0.443 0.01,-0.896 0.016,-1.36 l -9.763,9.762 c -0.005,0.496 -0.009,0.947 -0.014,1.357 l 9.761,-9.759 z"
           id="path81"
           inkscape:connector-curvature="0"
           style="fill:#cfe4cf" /><path
           d="m 520.531,290.098 c 0.004,-0.449 0.008,-0.9 0.012,-1.355 l -9.79,9.79 c -0.003,0.456 -0.005,0.908 -0.009,1.352 l 9.787,-9.787 z"
           id="path83"
           inkscape:connector-curvature="0"
           style="fill:#cfe4cf" /><path
           d="m 520.568,285.132 c 0.004,-0.45 0.006,-0.9 0.01,-1.352 l -9.797,9.796 c -0.002,0.452 -0.004,0.902 -0.008,1.352 l 9.795,-9.796 z"
           id="path85"
           inkscape:connector-curvature="0"
           style="fill:#cfe4cf" /></g><g
         id="g87"><path
           d="m 515.799,310.063 c -0.148,-0.017 -0.293,-0.038 -0.451,-0.046 -0.055,-0.002 -0.148,0.029 -0.225,0.046 0.148,0.018 0.295,0.034 0.436,0.052 0.091,-0.019 0.164,-0.036 0.24,-0.052 z"
           id="path89"
           inkscape:connector-curvature="0"
           style="fill:#cfe4cf" /><path
           d="m 520.467,296.585 c -0.127,-0.015 -0.254,-0.03 -0.377,-0.045 -0.092,0.019 -0.166,0.035 -0.242,0.052 0.15,0.016 0.295,0.037 0.453,0.045 0.041,10e-4 0.107,-0.018 0.166,-0.033 0,-0.007 0,-0.013 0,-0.019 z"
           id="path91"
           inkscape:connector-curvature="0"
           style="fill:#cfe4cf" /><path
           d="m 528.605,271.051 c 0.074,-0.045 0.148,-0.088 0.223,-0.142 -0.182,0.031 -0.252,0.091 -0.223,0.142 z"
           id="path93"
           inkscape:connector-curvature="0"
           style="fill:#cfe4cf" /><path
           d="m 519.512,301.734 c -0.074,0.032 -0.178,0.063 -0.209,0.098 -0.014,0.011 0.135,0.031 0.209,0.047 0.08,-0.031 0.162,-0.063 0.238,-0.094 -0.088,-0.018 -0.166,-0.035 -0.238,-0.051 z"
           id="path95"
           inkscape:connector-curvature="0"
           style="fill:#cfe4cf" /><path
           d="m 509.947,268.824 c 0.158,-0.008 0.305,-0.029 0.455,-0.046 -0.076,-0.017 -0.168,-0.048 -0.225,-0.044 -0.158,0.007 -0.303,0.027 -0.451,0.044 0.077,0.017 0.165,0.048 0.221,0.046 z"
           id="path97"
           inkscape:connector-curvature="0"
           style="fill:#cfe4cf" /><path
           d="m 509.736,265.231 c -0.049,0.011 -0.049,0.048 0,0.062 0.105,0.026 0.25,0.048 0.395,0.065 0.027,0.003 0.137,-0.028 0.215,-0.044 -0.105,-0.029 -0.197,-0.062 -0.326,-0.084 -0.061,-0.009 -0.235,-0.009 -0.284,10e-4 z"
           id="path99"
           inkscape:connector-curvature="0"
           style="fill:#cfe4cf" /><path
           d="m 515.799,274.428 c -0.148,-0.016 -0.293,-0.038 -0.451,-0.045 -0.055,-0.003 -0.148,0.029 -0.225,0.045 0.148,0.018 0.295,0.035 0.436,0.052 0.091,-0.02 0.164,-0.036 0.24,-0.052 z"
           id="path101"
           inkscape:connector-curvature="0"
           style="fill:#cfe4cf" /><path
           d="m 511.75,312.086 c 0,-0.021 0.043,-0.053 -0.01,-0.064 -0.053,-0.011 -0.238,-0.012 -0.297,0 -0.287,0.054 -0.561,0.112 -0.828,0.172 -0.002,0.023 -0.004,0.047 -0.005,0.072 0.132,0.018 0.267,0.041 0.401,0.041 0.678,0 0.749,-0.026 0.739,-0.221 z"
           id="path103"
           inkscape:connector-curvature="0"
           style="fill:#cfe4cf" /><path
           d="m 516.258,282.729 c 0.34,-0.054 0.326,-0.196 -0.012,-0.239 -0.078,0.002 -0.176,-0.004 -0.229,0.005 -0.34,0.054 -0.328,0.198 0.016,0.238 0.057,0.007 0.172,0.005 0.225,-0.004 z"
           id="path105"
           inkscape:connector-curvature="0"
           style="fill:#cfe4cf" /><path
           d="m 509.051,265.736 c 0.148,0.018 0.293,0.035 0.436,0.052 0.088,-0.02 0.164,-0.036 0.24,-0.052 -0.152,-0.017 -0.293,-0.037 -0.455,-0.045 -0.053,-0.003 -0.145,0.029 -0.221,0.045 z"
           id="path107"
           inkscape:connector-curvature="0"
           style="fill:#cfe4cf" /><path
           d="m 517.826,286.74 c -0.148,-0.017 -0.295,-0.033 -0.436,-0.051 -0.092,0.02 -0.166,0.035 -0.24,0.051 0.148,0.018 0.293,0.038 0.451,0.046 0.057,0.003 0.149,-0.028 0.225,-0.046 z"
           id="path109"
           inkscape:connector-curvature="0"
           style="fill:#cfe4cf" /><path
           d="m 517.836,288.404 c 0.049,0.011 0.223,0.011 0.283,10e-4 0.125,-0.023 0.227,-0.054 0.307,-0.085 0.014,-0.006 -0.133,-0.029 -0.209,-0.047 -0.131,0.023 -0.279,0.043 -0.385,0.07 -0.049,0.014 -0.045,0.051 0.004,0.061 z"
           id="path111"
           inkscape:connector-curvature="0"
           style="fill:#cfe4cf" /><path
           d="m 518.162,273.052 c -0.076,0.016 -0.225,0.036 -0.211,0.047 0.035,0.035 0.135,0.065 0.211,0.098 0.076,-0.016 0.146,-0.032 0.24,-0.052 -0.078,-0.03 -0.162,-0.062 -0.24,-0.093 z"
           id="path113"
           inkscape:connector-curvature="0"
           style="fill:#cfe4cf" /><path
           d="m 510.885,276.578 c 0,0.021 0,0.042 0,0.063 0.056,-0.006 0.129,-0.027 0.193,-0.04 -0.066,-0.007 -0.129,-0.015 -0.193,-0.023 z"
           id="path115"
           inkscape:connector-curvature="0"
           style="fill:#cfe4cf" /><path
           d="m 504.906,271.365 c -0.094,-0.02 -0.166,-0.035 -0.242,-0.052 -0.074,0.032 -0.174,0.063 -0.211,0.098 -0.012,0.012 0.137,0.03 0.211,0.048 0.08,-0.032 0.162,-0.064 0.242,-0.094 z"
           id="path117"
           inkscape:connector-curvature="0"
           style="fill:#cfe4cf" /><path
           d="m 510.803,289.591 c 0,0.036 0,0.072 0,0.107 0.072,-0.013 0.155,-0.026 0.145,-0.036 -0.026,-0.024 -0.085,-0.047 -0.145,-0.071 z"
           id="path119"
           inkscape:connector-curvature="0"
           style="fill:#cfe4cf" /><path
           d="m 510.838,283.662 c 0,0.025 0,0.049 0,0.074 0.15,-0.011 0.32,-0.023 0.539,-0.037 -0.219,-0.014 -0.389,-0.026 -0.539,-0.037 z"
           id="path121"
           inkscape:connector-curvature="0"
           style="fill:#cfe4cf" /><path
           d="m 510.918,272.96 c 0,0.017 0,0.038 0,0.055 0.051,-0.009 0.107,-0.024 0.16,-0.036 -0.055,-0.006 -0.106,-0.013 -0.16,-0.019 z"
           id="path123"
           inkscape:connector-curvature="0"
           style="fill:#cfe4cf" /><path
           d="m 505.34,265.809 c 0.08,-0.031 0.162,-0.063 0.24,-0.093 -0.09,-0.021 -0.166,-0.036 -0.24,-0.052 -0.074,0.031 -0.176,0.063 -0.211,0.098 -0.012,0.011 0.137,0.031 0.211,0.047 z"
           id="path125"
           inkscape:connector-curvature="0"
           style="fill:#cfe4cf" /><path
           d="m 508.75,265.225 c 0.318,0.012 0.65,0.005 0.977,0.005 0,-0.041 0,-0.081 0,-0.122 -0.373,-10e-4 -0.73,-10e-4 -1.079,-0.002 -0.052,0.012 -0.101,0.025 -0.161,0.034 -0.007,0.001 0.152,0.081 0.263,0.085 z"
           id="path127"
           inkscape:connector-curvature="0"
           style="fill:#cfe4cf" /><path
           d="m 514.211,284.085 c -0.018,-0.006 -0.166,-0.005 -0.219,0.003 -0.338,0.055 -0.342,0.208 0.023,0.232 0.109,0.009 0.338,-0.064 0.479,-0.094 -0.121,-0.062 -0.187,-0.103 -0.283,-0.141 z"
           id="path129"
           inkscape:connector-curvature="0"
           style="fill:#cfe4cf" /><path
           d="m 520.186,288.986 c -0.074,0.032 -0.176,0.063 -0.211,0.098 -0.01,0.012 0.137,0.031 0.211,0.047 0.082,-0.031 0.162,-0.063 0.24,-0.094 -0.09,-0.018 -0.166,-0.035 -0.24,-0.051 z"
           id="path131"
           inkscape:connector-curvature="0"
           style="fill:#cfe4cf" /><path
           d="m 520.525,284.713 c 0.014,0.003 0.031,0.007 0.045,0.01 0,-0.005 0,-0.01 0,-0.014 -0.013,10e-4 -0.031,0.002 -0.045,0.004 z"
           id="path133"
           inkscape:connector-curvature="0"
           style="fill:#cfe4cf" /><path
           d="m 520.576,283.71 c 0,-0.005 0,-0.011 0,-0.016 -0.016,0.002 -0.033,0.003 -0.051,0.005 0.016,0.004 0.036,0.008 0.051,0.011 z"
           id="path135"
           inkscape:connector-curvature="0"
           style="fill:#cfe4cf" /><path
           d="m 520.301,289.593 c -0.158,0.007 -0.303,0.029 -0.453,0.046 0.076,0.016 0.15,0.031 0.242,0.051 0.143,-0.017 0.285,-0.034 0.436,-0.051 -0.077,-0.017 -0.169,-0.049 -0.225,-0.046 z"
           id="path137"
           inkscape:connector-curvature="0"
           style="fill:#cfe4cf" /><path
           d="m 518.953,287.8 c 0.055,0.003 0.145,-0.028 0.221,-0.045 -0.145,-0.018 -0.293,-0.034 -0.436,-0.052 -0.088,0.02 -0.164,0.036 -0.24,0.052 0.152,0.016 0.297,0.038 0.455,0.045 z"
           id="path139"
           inkscape:connector-curvature="0"
           style="fill:#cfe4cf" /><path
           d="m 518.58,287.165 c -0.033,0.011 0.188,0.054 0.293,0.083 0.1,0 0.24,0.008 0.289,-0.002 0.051,-0.012 0.051,-0.047 0.006,-0.062 -0.16,-0.047 -0.35,-0.107 -0.588,-0.019 z"
           id="path141"
           inkscape:connector-curvature="0"
           style="fill:#cfe4cf" /><path
           d="m 518.047,288.723 c -0.057,-0.002 -0.148,0.03 -0.221,0.047 0.145,0.018 0.293,0.035 0.43,0.051 0.094,-0.02 0.17,-0.035 0.242,-0.051 -0.148,-0.017 -0.293,-0.038 -0.451,-0.047 z"
           id="path143"
           inkscape:connector-curvature="0"
           style="fill:#cfe4cf" /><path
           d="m 519.58,287.377 c 0.025,0.002 0.137,-0.028 0.213,-0.045 -0.105,-0.027 -0.197,-0.06 -0.326,-0.082 -0.059,-0.011 -0.232,-0.01 -0.283,0 -0.051,0.012 -0.051,0.049 0,0.061 0.105,0.027 0.25,0.048 0.396,0.066 z"
           id="path145"
           inkscape:connector-curvature="0"
           style="fill:#cfe4cf" /><path
           d="m 520.143,291.882 c 0.129,-0.022 0.227,-0.054 0.307,-0.085 0.012,-0.006 -0.129,-0.029 -0.209,-0.046 -0.129,0.022 -0.279,0.042 -0.385,0.069 -0.047,0.014 -0.047,0.051 0.004,0.061 0.05,0.012 0.222,0.012 0.283,0.001 z"
           id="path147"
           inkscape:connector-curvature="0"
           style="fill:#cfe4cf" /><path
           d="m 516.695,307.701 c -0.055,-0.004 -0.146,0.028 -0.221,0.045 0.146,0.018 0.293,0.035 0.436,0.051 0.09,-0.019 0.164,-0.035 0.24,-0.051 -0.15,-0.017 -0.296,-0.038 -0.455,-0.045 z"
           id="path149"
           inkscape:connector-curvature="0"
           style="fill:#cfe4cf" /><path
           d="m 516.6,314.869 c -0.01,0.012 0.139,0.031 0.211,0.047 0.082,-0.031 0.162,-0.063 0.24,-0.093 -0.088,-0.02 -0.164,-0.036 -0.24,-0.052 -0.073,0.033 -0.174,0.064 -0.211,0.098 z"
           id="path151"
           inkscape:connector-curvature="0"
           style="fill:#cfe4cf" /><path
           d="m 516.91,302.334 c -0.143,0.018 -0.289,0.034 -0.436,0.053 0.074,0.016 0.166,0.047 0.221,0.045 0.158,-0.008 0.305,-0.029 0.455,-0.045 -0.076,-0.018 -0.15,-0.033 -0.24,-0.053 z"
           id="path153"
           inkscape:connector-curvature="0"
           style="fill:#cfe4cf" /><path
           d="m 517.813,288.41 c -0.049,-0.012 -0.217,-0.012 -0.285,-0.002 -0.223,0.034 -0.5,0.075 -0.094,0.126 0.057,0.007 0.258,-0.04 0.393,-0.063 -10e-4,-0.021 0.034,-0.051 -0.014,-0.061 z"
           id="path155"
           inkscape:connector-curvature="0"
           style="fill:#cfe4cf" /><path
           d="m 517.951,308.734 c 0.035,0.035 0.135,0.066 0.211,0.098 0.076,-0.016 0.223,-0.035 0.211,-0.047 -0.037,-0.035 -0.135,-0.066 -0.211,-0.098 -0.076,0.016 -0.224,0.036 -0.211,0.047 z"
           id="path157"
           inkscape:connector-curvature="0"
           style="fill:#cfe4cf" /><path
           d="m 516.715,310.736 c -0.092,0.02 -0.166,0.035 -0.24,0.051 0.148,0.017 0.293,0.039 0.451,0.046 0.057,0.003 0.148,-0.029 0.225,-0.046 -0.149,-0.016 -0.294,-0.034 -0.436,-0.051 z"
           id="path159"
           inkscape:connector-curvature="0"
           style="fill:#cfe4cf" /><path
           d="m 517.486,291.739 c 0.076,-0.032 0.176,-0.063 0.211,-0.098 0.014,-0.012 -0.135,-0.031 -0.211,-0.048 -0.08,0.031 -0.16,0.063 -0.24,0.094 0.094,0.02 0.164,0.036 0.24,0.052 z"
           id="path161"
           inkscape:connector-curvature="0"
           style="fill:#cfe4cf" /><path
           d="m 524.91,267.547 c -0.076,0.032 -0.174,0.063 -0.211,0.098 -0.014,0.012 0.135,0.031 0.211,0.047 0.082,-0.031 0.162,-0.063 0.24,-0.094 -0.091,-0.019 -0.164,-0.035 -0.24,-0.051 z"
           id="path163"
           inkscape:connector-curvature="0"
           style="fill:#cfe4cf" /><path
           d="m 525.68,269.988 c 0.094,-0.019 0.166,-0.035 0.242,-0.051 -0.148,-0.016 -0.293,-0.037 -0.451,-0.045 -0.057,-0.004 -0.148,0.029 -0.225,0.045 0.149,0.018 0.293,0.036 0.434,0.051 z"
           id="path165"
           inkscape:connector-curvature="0"
           style="fill:#cfe4cf" /><path
           d="m 526.355,266.367 c 0.09,-0.02 0.166,-0.035 0.242,-0.052 -0.152,-0.016 -0.293,-0.038 -0.455,-0.045 -0.053,-0.003 -0.145,0.029 -0.221,0.045 0.149,0.019 0.294,0.036 0.434,0.052 z"
           id="path167"
           inkscape:connector-curvature="0"
           style="fill:#cfe4cf" /><path
           d="m 524.699,268.319 c 0.037,0.033 0.135,0.064 0.211,0.097 0.076,-0.016 0.225,-0.035 0.211,-0.047 -0.037,-0.035 -0.135,-0.065 -0.211,-0.099 -0.076,0.017 -0.224,0.037 -0.211,0.049 z"
           id="path169"
           inkscape:connector-curvature="0"
           style="fill:#cfe4cf" /><path
           d="m 522.887,265.664 c 0.072,-0.016 0.221,-0.037 0.211,-0.048 -0.037,-0.034 -0.139,-0.065 -0.211,-0.097 -0.076,0.016 -0.223,0.035 -0.211,0.047 0.033,0.034 0.135,0.065 0.211,0.098 z"
           id="path171"
           inkscape:connector-curvature="0"
           style="fill:#cfe4cf" /><path
           d="m 502.178,267.209 c -0.035,-0.033 -0.139,-0.064 -0.211,-0.097 -0.076,0.017 -0.225,0.036 -0.211,0.048 0.033,0.033 0.135,0.064 0.211,0.098 0.072,-0.017 0.224,-0.037 0.211,-0.049 z"
           id="path173"
           inkscape:connector-curvature="0"
           style="fill:#cfe4cf" /><path
           d="m 516.715,295.245 c -0.365,0.024 -0.363,0.179 -0.023,0.232 0.055,0.008 0.205,0.01 0.219,0.003 0.096,-0.037 0.164,-0.078 0.287,-0.141 -0.147,-0.029 -0.374,-0.102 -0.483,-0.094 z"
           id="path175"
           inkscape:connector-curvature="0"
           style="fill:#cfe4cf" /><path
           d="m 519.049,266.195 c -0.037,-0.033 -0.139,-0.064 -0.211,-0.098 -0.076,0.017 -0.225,0.037 -0.211,0.048 0.031,0.034 0.135,0.065 0.211,0.098 0.072,-0.016 0.223,-0.035 0.211,-0.048 z"
           id="path177"
           inkscape:connector-curvature="0"
           style="fill:#cfe4cf" /><path
           d="m 518.738,285.634 c 0.143,-0.017 0.291,-0.034 0.436,-0.052 -0.076,-0.016 -0.166,-0.047 -0.221,-0.045 -0.158,0.008 -0.303,0.029 -0.455,0.045 0.076,0.017 0.152,0.032 0.24,0.052 z"
           id="path179"
           inkscape:connector-curvature="0"
           style="fill:#cfe4cf" /><path
           d="m 519.395,272.789 c -0.053,-0.003 -0.145,0.029 -0.221,0.045 0.148,0.018 0.293,0.035 0.436,0.052 0.088,-0.02 0.164,-0.035 0.238,-0.052 -0.151,-0.016 -0.291,-0.037 -0.453,-0.045 z"
           id="path181"
           inkscape:connector-curvature="0"
           style="fill:#cfe4cf" /><path
           d="m 519.395,280.847 c 0.162,-0.007 0.303,-0.028 0.453,-0.044 -0.074,-0.017 -0.166,-0.049 -0.219,-0.046 -0.162,0.007 -0.305,0.029 -0.455,0.046 0.076,0.015 0.168,0.047 0.221,0.044 z"
           id="path183"
           inkscape:connector-curvature="0"
           style="fill:#cfe4cf" /><path
           d="m 513.102,268.199 c 0.074,0.016 0.162,0.048 0.221,0.045 0.158,-0.008 0.303,-0.029 0.453,-0.045 -0.074,-0.017 -0.15,-0.033 -0.24,-0.052 -0.141,0.017 -0.29,0.035 -0.434,0.052 z"
           id="path185"
           inkscape:connector-curvature="0"
           style="fill:#cfe4cf" /><path
           d="m 522.113,268.105 c 0.141,-0.017 0.289,-0.034 0.434,-0.052 -0.074,-0.016 -0.164,-0.048 -0.221,-0.045 -0.158,0.008 -0.303,0.029 -0.453,0.045 0.074,0.017 0.15,0.033 0.24,0.052 z"
           id="path187"
           inkscape:connector-curvature="0"
           style="fill:#cfe4cf" /><path
           d="m 518.838,276.384 c 0.072,-0.017 0.223,-0.036 0.211,-0.048 -0.037,-0.034 -0.139,-0.065 -0.211,-0.098 -0.076,0.016 -0.225,0.036 -0.211,0.048 0.031,0.034 0.135,0.066 0.211,0.098 z"
           id="path189"
           inkscape:connector-curvature="0"
           style="fill:#cfe4cf" /><path
           d="m 519.512,296.374 c 0.08,-0.031 0.162,-0.063 0.238,-0.093 -0.088,-0.02 -0.166,-0.036 -0.238,-0.052 -0.074,0.032 -0.178,0.063 -0.209,0.097 -0.014,0.012 0.135,0.031 0.209,0.048 z"
           id="path191"
           inkscape:connector-curvature="0"
           style="fill:#cfe4cf" /><path
           d="m 519.529,291.885 c -0.088,0.008 -0.217,0.029 -0.223,0.045 -0.041,0.109 -0.063,0.219 -0.068,0.328 0,0.016 0.195,0.049 0.209,0.047 0.145,-0.023 0.334,-0.047 0.385,-0.078 0.066,-0.041 0.016,-0.091 0.016,-0.137 0,-0.046 -0.035,-0.094 0.012,-0.137 0.072,-0.07 -0.014,-0.094 -0.331,-0.068 z"
           id="path193"
           inkscape:connector-curvature="0"
           style="fill:#cfe4cf" /><path
           d="m 515.799,280.367 c 0.148,0.018 0.295,0.034 0.436,0.052 0.09,-0.02 0.164,-0.036 0.24,-0.052 -0.15,-0.016 -0.293,-0.037 -0.453,-0.045 -0.055,-0.004 -0.147,0.03 -0.223,0.045 z"
           id="path195"
           inkscape:connector-curvature="0"
           style="fill:#cfe4cf" /><path
           d="m 516.021,273.803 c -0.055,-0.003 -0.146,0.029 -0.223,0.045 0.148,0.018 0.295,0.035 0.436,0.053 0.09,-0.02 0.164,-0.037 0.24,-0.053 -0.15,-0.016 -0.292,-0.037 -0.453,-0.045 z"
           id="path197"
           inkscape:connector-curvature="0"
           style="fill:#cfe4cf" /><path
           d="m 515.348,269.693 c 0.158,-0.008 0.303,-0.029 0.451,-0.046 -0.076,-0.017 -0.164,-0.048 -0.221,-0.046 -0.158,0.009 -0.303,0.029 -0.455,0.046 0.076,0.017 0.17,0.048 0.225,0.046 z"
           id="path199"
           inkscape:connector-curvature="0"
           style="fill:#cfe4cf" /><path
           d="m 515.809,270.072 c 0.105,0.027 0.25,0.049 0.396,0.066 0.025,0.003 0.135,-0.027 0.215,-0.045 -0.107,-0.027 -0.197,-0.061 -0.326,-0.082 -0.061,-0.011 -0.232,-0.011 -0.285,0 -0.049,0.011 -0.049,0.05 0,0.061 z"
           id="path201"
           inkscape:connector-curvature="0"
           style="fill:#cfe4cf" /><path
           d="m 513.553,302.775 c -0.158,0.007 -0.305,0.029 -0.451,0.045 0.074,0.017 0.162,0.049 0.221,0.046 0.158,-0.009 0.303,-0.029 0.453,-0.046 -0.075,-0.015 -0.169,-0.047 -0.223,-0.045 z"
           id="path203"
           inkscape:connector-curvature="0"
           style="fill:#cfe4cf" /><path
           d="m 513.322,300.168 c -0.059,-0.003 -0.146,0.029 -0.221,0.045 0.145,0.018 0.293,0.035 0.434,0.051 0.09,-0.018 0.166,-0.035 0.24,-0.051 -0.15,-0.016 -0.295,-0.037 -0.453,-0.045 z"
           id="path205"
           inkscape:connector-curvature="0"
           style="fill:#cfe4cf" /><path
           d="m 515.898,266.584 c 0.076,0.031 0.158,0.063 0.24,0.094 0.072,-0.016 0.221,-0.036 0.211,-0.047 -0.037,-0.035 -0.139,-0.066 -0.211,-0.098 -0.075,0.016 -0.152,0.031 -0.24,0.051 z"
           id="path207"
           inkscape:connector-curvature="0"
           style="fill:#cfe4cf" /><path
           d="m 515.928,268.078 c -0.014,0.012 0.135,0.033 0.211,0.049 0.08,-0.032 0.16,-0.063 0.236,-0.094 -0.088,-0.02 -0.164,-0.035 -0.236,-0.052 -0.076,0.033 -0.178,0.064 -0.211,0.097 z"
           id="path209"
           inkscape:connector-curvature="0"
           style="fill:#cfe4cf" /><path
           d="m 515.578,267.43 c -0.158,0.007 -0.303,0.029 -0.455,0.045 0.076,0.016 0.17,0.048 0.225,0.045 0.158,-0.008 0.303,-0.029 0.451,-0.045 -0.076,-0.016 -0.164,-0.048 -0.221,-0.045 z"
           id="path211"
           inkscape:connector-curvature="0"
           style="fill:#cfe4cf" /><path
           d="m 514.461,270.156 c -0.049,0.012 -0.053,0.049 -0.002,0.062 0.105,0.027 0.25,0.048 0.398,0.065 0.023,0.003 0.135,-0.027 0.213,-0.045 -0.109,-0.027 -0.197,-0.061 -0.326,-0.082 -0.062,-0.01 -0.232,-0.01 -0.283,0 z"
           id="path213"
           inkscape:connector-curvature="0"
           style="fill:#cfe4cf" /><path
           d="m 513.855,270.07 c -0.029,0.012 0.189,0.056 0.293,0.084 0.102,0 0.201,0 0.303,0 0,-0.021 0.041,-0.049 -0.01,-0.063 -0.154,-0.048 -0.349,-0.108 -0.586,-0.021 z"
           id="path215"
           inkscape:connector-curvature="0"
           style="fill:#cfe4cf" /><path
           d="m 514.01,271.145 c 0.057,0.007 0.172,0.005 0.225,-0.004 0.336,-0.053 0.322,-0.196 -0.014,-0.238 -0.078,10e-4 -0.176,-0.005 -0.229,0.004 -0.338,0.053 -0.328,0.197 0.018,0.238 z"
           id="path217"
           inkscape:connector-curvature="0"
           style="fill:#cfe4cf" /><path
           d="m 515.342,267.23 c 0.053,0.008 0.205,0.009 0.221,0.003 0.092,-0.038 0.16,-0.079 0.283,-0.142 -0.146,-0.029 -0.369,-0.102 -0.48,-0.095 -0.364,0.026 -0.36,0.18 -0.024,0.234 z"
           id="path219"
           inkscape:connector-curvature="0"
           style="fill:#cfe4cf" /><path
           d="m 515.789,270.007 c 0.049,-0.011 0.049,-0.046 0.004,-0.062 -0.158,-0.047 -0.35,-0.107 -0.586,-0.02 -0.035,0.012 0.188,0.055 0.291,0.084 0.1,10e-4 0.242,0.009 0.291,-0.002 z"
           id="path221"
           inkscape:connector-curvature="0"
           style="fill:#cfe4cf" /><path
           d="m 515.006,274.017 c -0.051,-0.034 -0.148,-0.089 -0.254,-0.091 -0.432,-0.012 -0.877,-0.008 -1.314,-0.002 -0.08,0 -0.234,0.035 -0.219,0.046 0.049,0.034 0.133,0.081 0.258,0.092 0.193,0.015 0.436,0.004 0.652,0.004 0.221,0 0.441,0.005 0.656,-0.002 0.088,-0.003 0.236,-0.037 0.221,-0.047 z"
           id="path223"
           inkscape:connector-curvature="0"
           style="fill:#cfe4cf" /><path
           d="m 514.787,274.58 c -0.168,0.123 -0.309,0.184 -0.316,0.245 -0.002,0.036 0.205,0.072 0.316,0.11 0.113,-0.038 0.32,-0.074 0.316,-0.11 -0.009,-0.061 -0.148,-0.123 -0.316,-0.245 z"
           id="path225"
           inkscape:connector-curvature="0"
           style="fill:#cfe4cf" /><path
           d="m 514.787,278.557 c -0.076,0.016 -0.223,0.035 -0.211,0.047 0.037,0.035 0.135,0.065 0.211,0.098 0.076,-0.016 0.148,-0.032 0.242,-0.051 -0.08,-0.032 -0.162,-0.063 -0.242,-0.094 z"
           id="path227"
           inkscape:connector-curvature="0"
           style="fill:#cfe4cf" /><path
           d="m 512.861,308.854 c -0.143,0.016 -0.287,0.034 -0.436,0.051 0.074,0.016 0.168,0.048 0.221,0.046 0.16,-0.008 0.303,-0.03 0.455,-0.046 -0.078,-0.016 -0.152,-0.032 -0.24,-0.051 z"
           id="path229"
           inkscape:connector-curvature="0"
           style="fill:#cfe4cf" /><path
           d="m 512.764,310.715 c 0.074,-0.016 0.223,-0.035 0.213,-0.047 -0.037,-0.034 -0.139,-0.065 -0.213,-0.098 -0.076,0.017 -0.15,0.032 -0.24,0.052 0.076,0.03 0.158,0.062 0.24,0.093 z"
           id="path231"
           inkscape:connector-curvature="0"
           style="fill:#cfe4cf" /><path
           d="m 513.775,295.287 c 0.072,0.017 0.166,0.049 0.221,0.046 0.158,-0.007 0.305,-0.029 0.455,-0.046 -0.074,-0.016 -0.168,-0.047 -0.225,-0.045 -0.158,0.008 -0.302,0.029 -0.451,0.045 z"
           id="path233"
           inkscape:connector-curvature="0"
           style="fill:#cfe4cf" /><path
           d="m 511.973,297.126 c -0.057,-0.003 -0.148,0.028 -0.223,0.045 0.148,0.018 0.293,0.034 0.436,0.052 0.092,-0.02 0.164,-0.035 0.24,-0.052 -0.149,-0.017 -0.293,-0.037 -0.453,-0.045 z"
           id="path235"
           inkscape:connector-curvature="0"
           style="fill:#cfe4cf" /><path
           d="m 514.234,290.896 c -0.053,-0.008 -0.168,-0.01 -0.225,-0.002 -0.346,0.039 -0.355,0.184 -0.018,0.237 0.053,0.009 0.15,0.003 0.229,0.005 0.337,-0.042 0.35,-0.185 0.014,-0.24 z"
           id="path237"
           inkscape:connector-curvature="0"
           style="fill:#cfe4cf" /><path
           d="m 514.576,287.296 c 0.037,0.034 0.135,0.065 0.211,0.097 0.076,-0.016 0.148,-0.031 0.242,-0.051 -0.08,-0.031 -0.162,-0.063 -0.242,-0.094 -0.076,0.016 -0.223,0.036 -0.211,0.048 z"
           id="path239"
           inkscape:connector-curvature="0"
           style="fill:#cfe4cf" /><path
           d="m 514.906,276.266 c -0.049,-0.008 -0.164,-0.01 -0.225,-0.003 -0.342,0.04 -0.352,0.185 -0.012,0.238 0.049,0.008 0.148,0.003 0.223,0.005 0.34,-0.043 0.354,-0.186 0.014,-0.24 z"
           id="path241"
           inkscape:connector-curvature="0"
           style="fill:#cfe4cf" /><path
           d="m 511.299,296.691 c -0.057,-0.003 -0.148,0.029 -0.221,0.045 0.145,0.018 0.293,0.035 0.434,0.052 0.09,-0.02 0.164,-0.036 0.238,-0.052 -0.148,-0.015 -0.293,-0.037 -0.451,-0.045 z"
           id="path243"
           inkscape:connector-curvature="0"
           style="fill:#cfe4cf" /><path
           d="m 512.879,306.252 c -0.16,0.008 -0.303,0.029 -0.453,0.045 0.074,0.016 0.168,0.049 0.221,0.045 0.16,-0.007 0.303,-0.028 0.455,-0.045 -0.079,-0.016 -0.168,-0.048 -0.223,-0.045 z"
           id="path245"
           inkscape:connector-curvature="0"
           style="fill:#cfe4cf" /><path
           d="m 512.643,305.617 c 0.053,0.01 0.152,0.004 0.227,0.006 0.342,-0.043 0.354,-0.186 0.014,-0.24 -0.053,-0.008 -0.168,-0.01 -0.225,-0.003 -0.343,0.04 -0.356,0.183 -0.016,0.237 z"
           id="path247"
           inkscape:connector-curvature="0"
           style="fill:#cfe4cf" /><path
           d="m 512.764,308.254 c 0.08,-0.032 0.162,-0.063 0.238,-0.094 -0.09,-0.02 -0.164,-0.037 -0.238,-0.053 -0.076,0.033 -0.176,0.064 -0.213,0.098 -0.01,0.012 0.137,0.031 0.213,0.049 z"
           id="path249"
           inkscape:connector-curvature="0"
           style="fill:#cfe4cf" /><path
           d="m 511.76,311.956 c -0.051,0.013 -0.051,0.05 0.004,0.062 0.049,0.01 0.223,0.01 0.281,0 0.127,-0.023 0.225,-0.055 0.309,-0.086 0.012,-0.006 -0.131,-0.028 -0.209,-0.045 -0.133,0.022 -0.284,0.042 -0.385,0.069 z"
           id="path251"
           inkscape:connector-curvature="0"
           style="fill:#cfe4cf" /><path
           d="m 513.775,309.773 c -0.15,-0.016 -0.295,-0.037 -0.453,-0.045 -0.059,-0.002 -0.146,0.029 -0.221,0.045 0.145,0.018 0.293,0.035 0.434,0.052 0.09,-0.018 0.166,-0.034 0.24,-0.052 z"
           id="path253"
           inkscape:connector-curvature="0"
           style="fill:#cfe4cf" /><path
           d="m 512.436,296.003 c 0.105,0.027 0.25,0.049 0.395,0.065 0.027,0.004 0.139,-0.027 0.215,-0.045 -0.105,-0.027 -0.197,-0.06 -0.326,-0.082 -0.061,-0.011 -0.23,-0.01 -0.283,0 -0.05,0.012 -0.05,0.049 -10e-4,0.062 z"
           id="path255"
           inkscape:connector-curvature="0"
           style="fill:#cfe4cf" /><path
           d="m 511.832,295.856 c -0.033,0.011 0.188,0.055 0.293,0.083 0.1,0 0.201,0 0.301,0 0,-0.021 0.039,-0.049 -0.006,-0.063 -0.158,-0.048 -0.35,-0.106 -0.588,-0.02 z"
           id="path257"
           inkscape:connector-curvature="0"
           style="fill:#cfe4cf" /></g><path
         d="m 514.277,292.926 c -0.021,-0.009 -0.074,-0.011 -0.1,-0.004 -0.156,0.04 -0.16,0.184 -0.008,0.237 0.023,0.009 0.068,0.004 0.102,0.005 0.153,-0.043 0.159,-0.185 0.006,-0.238 z m 10.627,-21.586 c -0.07,0.009 -0.137,0.029 -0.203,0.046 0.023,0.013 0.051,0.026 0.074,0.035 0.029,-10e-4 0.057,-0.002 0.088,-0.003 0.047,-0.01 0.094,-0.02 0.141,-0.032 -0.033,-0.017 -0.074,-0.048 -0.1,-0.046 z m 4.914,-3.41 c -0.033,-0.029 -0.072,-0.062 -0.107,-0.094 -0.035,0.017 -0.1,0.037 -0.096,0.049 0.016,0.033 0.061,0.064 0.096,0.097 0.031,-0.017 0.066,-0.033 0.107,-0.052 z m 0.198,-0.383 c 0.031,-0.016 0.066,-0.032 0.105,-0.052 -0.033,-0.03 -0.07,-0.062 -0.105,-0.093 -0.035,0.016 -0.102,0.035 -0.098,0.047 0.018,0.035 0.062,0.066 0.098,0.098 z m -14.469,32.355 c -0.039,-0.02 -0.074,-0.035 -0.109,-0.052 -0.033,0.032 -0.078,0.063 -0.092,0.098 -0.008,0.012 0.059,0.031 0.092,0.048 0.037,-0.032 0.074,-0.063 0.109,-0.094 z M 503.24,269.113 c 0.07,-0.008 0.137,-0.029 0.205,-0.045 -0.035,-0.017 -0.068,-0.033 -0.107,-0.052 -0.064,0.017 -0.131,0.034 -0.197,0.052 0.033,0.016 0.076,0.047 0.099,0.045 z m 12.198,41.023 c 0.053,-0.036 0.146,-0.074 0.145,-0.109 -0.004,-0.062 -0.066,-0.124 -0.145,-0.245 -0.074,0.122 -0.137,0.184 -0.141,0.245 -0.002,0.035 0.092,0.073 0.141,0.109 z M 503.691,266.58 c 0.006,-0.012 -0.061,-0.031 -0.094,-0.047 -0.037,0.031 -0.074,0.063 -0.109,0.094 0.039,0.019 0.074,0.035 0.109,0.051 0.034,-0.032 0.079,-0.063 0.094,-0.098 z m 11.901,32.639 c 0,-0.023 0.014,-0.051 -0.004,-0.07 -0.055,-0.058 -0.107,-0.146 -0.197,-0.158 -0.109,-0.016 -0.273,0.024 -0.387,0.059 -0.125,0.039 -0.326,0.113 -0.307,0.147 0.098,0.174 -0.365,0.226 -0.316,0.374 0.012,0.043 0.074,0.082 0.119,0.119 0.004,0.002 0.08,-0.008 0.102,-0.02 0.148,-0.088 0.422,-0.139 0.385,-0.285 -0.006,-0.02 0.021,-0.043 0.043,-0.063 0.068,-0.068 0.104,-0.039 0.219,-0.006 0.321,0.095 0.335,0.084 0.343,-0.097 z m -4.26,-8.849 c -0.006,-0.022 -0.121,-0.044 -0.193,-0.054 -0.021,-0.004 -0.092,0.027 -0.098,0.047 -0.014,0.045 -0.004,0.094 -0.004,0.141 0,0.047 -0.025,0.098 0.008,0.141 0.021,0.025 0.121,0.043 0.191,0.055 0.021,0.003 0.098,-0.029 0.098,-0.048 0.012,-0.094 0.018,-0.189 -0.002,-0.282 z m -8.248,-22.436 c -0.016,-0.033 -0.061,-0.064 -0.096,-0.098 -0.031,0.017 -0.1,0.037 -0.094,0.049 0.016,0.033 0.063,0.064 0.094,0.097 0.035,-0.017 0.1,-0.037 0.096,-0.048 z m 0.766,1.324 c 0.07,-0.008 0.135,-0.028 0.203,-0.045 -0.035,-0.016 -0.068,-0.033 -0.109,-0.052 -0.064,0.017 -0.129,0.034 -0.195,0.052 0.034,0.016 0.075,0.049 0.101,0.045 z m -0.252,2.055 c 0.049,-0.037 0.143,-0.073 0.141,-0.11 -0.004,-0.062 -0.066,-0.123 -0.141,-0.244 -0.076,0.121 -0.141,0.183 -0.143,0.244 -0.002,0.037 0.09,0.073 0.143,0.11 z m 8.197,17.094 c 0.037,-0.032 0.074,-0.063 0.107,-0.094 -0.041,-0.019 -0.074,-0.036 -0.107,-0.051 -0.033,0.032 -0.078,0.063 -0.096,0.097 -0.004,0.012 0.063,0.032 0.096,0.048 z m -0.303,-9.996 c -0.033,0.017 -0.068,0.032 -0.109,0.052 0.037,0.031 0.072,0.063 0.109,0.094 0.031,-0.017 0.102,-0.036 0.094,-0.048 -0.016,-0.034 -0.063,-0.066 -0.094,-0.098 z m 0.42,8.895 c 0.008,-0.005 -0.057,-0.028 -0.092,-0.046 -0.059,0.023 -0.127,0.043 -0.174,0.07 -0.021,0.013 -0.004,0.041 -0.004,0.063 0.047,0 0.105,0.01 0.133,-0.002 0.059,-0.023 0.102,-0.053 0.137,-0.085 z m 0.031,19.495 c 0.084,0 0.201,-0.016 0.246,-0.045 0.135,-0.084 -0.178,-0.375 -0.398,-0.385 -0.035,0.017 -0.1,0.033 -0.1,0.051 -0.008,0.11 -0.014,0.223 0.012,0.332 0.004,0.021 0.156,0.047 0.24,0.047 z m -0.906,-13.692 c 0,-0.095 0.004,-0.189 -0.006,-0.283 -0.002,-0.019 -0.078,-0.051 -0.1,-0.049 -0.049,0.008 -0.105,0.021 -0.146,0.036 -0.001,0.16 -0.002,0.32 -0.003,0.479 0.02,0.009 0.042,0.016 0.051,0.014 0.074,-0.011 0.172,-0.029 0.195,-0.057 0.033,-0.04 0.009,-0.093 0.009,-0.14 z m -0.199,-9.155 c -0.001,0.075 -0.002,0.153 -0.002,0.229 0.021,0.01 0.035,0.018 0.066,0.033 0.094,-0.052 0.195,-0.101 0.283,-0.154 0.047,-0.027 0.068,-0.065 0.1,-0.098 -0.133,-0.016 -0.275,-0.054 -0.393,-0.041 -0.029,0.002 -0.033,0.021 -0.054,0.031 z m 0.047,10.392 c 0.035,-0.031 0.072,-0.063 0.107,-0.093 -0.041,-0.02 -0.074,-0.035 -0.107,-0.052 -0.035,0.032 -0.078,0.063 -0.096,0.098 -0.008,0.012 0.061,0.031 0.096,0.047 z m 3.383,-9.682 c -0.006,-0.006 -0.074,-0.004 -0.098,0.004 -0.152,0.054 -0.154,0.208 0.01,0.232 0.051,0.008 0.152,-0.064 0.217,-0.094 -0.055,-0.063 -0.086,-0.104 -0.129,-0.142 z m -2.801,2.857 c 0.025,0.006 0.117,-0.042 0.176,-0.064 0,-0.021 0.018,-0.051 -0.004,-0.062 -0.022,-0.011 -0.098,-0.011 -0.129,-10e-4 -0.1,0.034 -0.225,0.075 -0.043,0.127 z m 2.758,-7.226 c -0.033,0.016 -0.102,0.035 -0.096,0.048 0.018,0.034 0.063,0.064 0.096,0.097 0.033,-0.016 0.1,-0.035 0.094,-0.047 -0.016,-0.036 -0.061,-0.066 -0.094,-0.098 z m -3.037,8.547 c 0.035,-0.031 0.072,-0.063 0.109,-0.094 -0.043,-0.02 -0.076,-0.035 -0.109,-0.051 -0.033,0.031 -0.078,0.063 -0.094,0.097 -0.008,0.012 0.06,0.032 0.094,0.048 z m 3.052,-7.968 c 0.045,0 0.09,0 0.135,0 0,-0.021 0.018,-0.049 -0.002,-0.063 -0.07,-0.047 -0.158,-0.107 -0.264,-0.02 -0.013,0.012 0.084,0.055 0.131,0.083 z m 0.194,3.089 c 0.014,0.035 0.059,0.066 0.094,0.098 0.035,-0.016 0.066,-0.031 0.109,-0.051 -0.035,-0.03 -0.072,-0.063 -0.109,-0.094 -0.036,0.016 -0.1,0.036 -0.094,0.047 z m -9.719,-13.276 c -0.004,0.011 0.063,0.031 0.096,0.048 0.037,-0.031 0.074,-0.063 0.109,-0.094 -0.041,-0.02 -0.076,-0.035 -0.109,-0.051 -0.034,0.031 -0.079,0.062 -0.096,0.097 z m 9.965,13.591 c -0.064,-0.017 -0.133,-0.034 -0.195,-0.052 -0.041,0.02 -0.074,0.036 -0.109,0.052 0.068,0.017 0.135,0.038 0.205,0.045 0.024,0.003 0.064,-0.028 0.099,-0.045 z m -0.17,-3.402 c -0.029,-0.011 -0.105,-0.011 -0.129,0.001 -0.023,0.01 -0.023,0.048 0,0.061 0.047,0.027 0.111,0.049 0.18,0.065 0.008,0.003 0.061,-0.028 0.094,-0.044 -0.048,-0.028 -0.089,-0.061 -0.145,-0.083 z m -7.877,-13.185 c 0.035,-0.016 0.102,-0.035 0.094,-0.047 -0.014,-0.034 -0.059,-0.065 -0.094,-0.098 -0.035,0.016 -0.102,0.035 -0.094,0.048 0.016,0.035 0.059,0.066 0.094,0.097 z m 3.197,-1.483 c 0.016,0.062 0.092,0.12 0.145,0.181 0.049,-0.061 0.1,-0.121 0.15,-0.181 -0.051,-0.036 -0.102,-0.073 -0.15,-0.11 -0.053,0.037 -0.151,0.076 -0.145,0.11 z m -1.732,1.946 c -0.152,0.054 -0.148,0.197 0.006,0.238 0.027,0.006 0.078,0.004 0.102,-0.004 0.152,-0.055 0.146,-0.197 -0.006,-0.24 -0.036,0.002 -0.079,-0.002 -0.102,0.006 z m -2.528,3.232 c -0.066,-0.017 -0.133,-0.037 -0.203,-0.046 -0.025,-0.002 -0.068,0.029 -0.102,0.046 0.068,0.019 0.133,0.034 0.197,0.052 0.042,-0.02 0.075,-0.036 0.108,-0.052 z m -0.806,-5.892 c 0.025,0.007 0.078,0.006 0.102,-0.002 0.15,-0.055 0.146,-0.197 -0.004,-0.24 -0.037,0.002 -0.08,-0.004 -0.104,0.005 -0.153,0.054 -0.149,0.198 0.006,0.237 z m 0.209,4.262 c -0.008,0.033 0.092,0.072 0.143,0.109 0.049,-0.037 0.1,-0.073 0.176,-0.128 -0.053,-0.048 -0.113,-0.104 -0.176,-0.163 -0.052,0.061 -0.128,0.119 -0.143,0.182 z m 0.541,-4.43 c -0.018,-0.033 -0.063,-0.064 -0.094,-0.097 -0.035,0.017 -0.102,0.035 -0.096,0.047 0.016,0.034 0.061,0.065 0.096,0.098 0.031,-0.017 0.098,-0.036 0.094,-0.048 z m 5.822,14.345 c -0.043,-0.036 -0.096,-0.091 -0.16,-0.097 -0.281,-0.021 -0.129,0.09 -0.127,0.131 0.004,0.049 0.105,0.095 0.164,0.143 0.043,-0.037 0.086,-0.073 0.127,-0.11 0,-0.023 0.017,-0.05 -0.004,-0.067 z m -0.414,-6.931 c 0.002,0 0.004,10e-4 0.006,10e-4 0.041,-0.02 0.074,-0.036 0.109,-0.052 -0.039,-0.009 -0.076,-0.016 -0.114,-0.025 -10e-4,0.026 -10e-4,0.049 -10e-4,0.076 z m -0.08,16.268 c -0.014,0.006 -0.022,0.01 -0.034,0.016 0,0.017 0,0.035 -10e-4,0.052 0.043,0.011 0.084,0.024 0.129,0.028 0.025,0.003 0.066,-0.029 0.102,-0.045 -0.069,-0.018 -0.134,-0.036 -0.196,-0.051 z m 0.043,-23.199 c -0.053,0.037 -0.15,0.076 -0.141,0.109 0.012,0.063 0.088,0.121 0.141,0.18 0.061,-0.057 0.123,-0.113 0.176,-0.162 -0.075,-0.054 -0.127,-0.09 -0.176,-0.127 z m 0.455,23.83 c -0.033,-0.017 -0.074,-0.049 -0.1,-0.046 -0.072,0.007 -0.137,0.029 -0.203,0.046 0.033,0.016 0.066,0.031 0.107,0.051 0.063,-0.017 0.129,-0.035 0.196,-0.051 z m -0.152,-11.518 c 0.033,-0.016 0.066,-0.031 0.109,-0.051 -0.037,-0.03 -0.074,-0.063 -0.109,-0.094 -0.033,0.017 -0.102,0.036 -0.094,0.048 0.015,0.035 0.06,0.066 0.094,0.097 z m -0.159,1.248 c -0.012,-0.028 -0.099,-0.05 -0.162,-0.069 -0.001,0.086 -0.002,0.167 -0.002,0.254 0.014,0.005 0.02,0.01 0.035,0.015 0.031,0.01 0.088,0.002 0.137,0.002 0,-0.068 0.018,-0.137 -0.008,-0.202 z m 0.254,-2.308 c -0.018,-0.034 -0.063,-0.065 -0.096,-0.098 -0.033,0.016 -0.102,0.035 -0.094,0.047 0.016,0.035 0.061,0.066 0.094,0.098 0.034,-0.016 0.102,-0.036 0.096,-0.047 z m 13.418,-11.035 c -0.068,-0.017 -0.133,-0.038 -0.205,-0.046 -0.025,-0.002 -0.066,0.029 -0.098,0.046 0.063,0.017 0.131,0.034 0.193,0.052 0.042,-0.019 0.077,-0.036 0.11,-0.052 z m -3.797,1.232 c 0.033,-0.017 0.1,-0.037 0.096,-0.049 -0.016,-0.033 -0.063,-0.064 -0.096,-0.097 -0.033,0.017 -0.1,0.036 -0.094,0.048 0.014,0.033 0.061,0.065 0.094,0.098 z m 3.295,3.306 c 0.023,0.007 0.074,0.005 0.1,-0.003 0.15,-0.054 0.145,-0.197 -0.006,-0.239 -0.035,0.002 -0.078,-0.004 -0.102,0.005 -0.154,0.054 -0.148,0.198 0.008,0.237 z m -0.615,-3.624 c 0.023,0.008 0.092,0.009 0.098,0.003 0.041,-0.037 0.072,-0.078 0.129,-0.141 -0.064,-0.03 -0.168,-0.104 -0.217,-0.096 -0.164,0.026 -0.162,0.18 -0.01,0.234 z m -4.855,2.753 c 0.07,-0.008 0.135,-0.029 0.201,-0.046 -0.033,-0.017 -0.074,-0.048 -0.098,-0.046 -0.072,0.009 -0.139,0.029 -0.203,0.046 0.031,0.017 0.074,0.048 0.1,0.046 z m 0.615,1.641 c -0.041,0.02 -0.076,0.035 -0.109,0.052 0.068,0.017 0.133,0.038 0.205,0.046 0.023,0.002 0.064,-0.029 0.098,-0.046 -0.067,-0.019 -0.132,-0.034 -0.194,-0.052 z m 0.043,19.246 c -0.033,0.016 -0.068,0.032 -0.107,0.051 0.033,0.031 0.07,0.063 0.107,0.094 0.033,-0.017 0.1,-0.035 0.096,-0.048 -0.018,-0.034 -0.063,-0.065 -0.096,-0.097 z m 4.252,-24.916 c -0.035,0.016 -0.102,0.036 -0.096,0.048 0.016,0.033 0.061,0.064 0.096,0.097 0.031,-0.016 0.1,-0.035 0.094,-0.047 -0.016,-0.035 -0.061,-0.067 -0.094,-0.098 z m -4.36,47.463 c 0.039,0.019 0.074,0.035 0.107,0.051 0.033,-0.032 0.078,-0.063 0.096,-0.097 0.004,-0.012 -0.063,-0.032 -0.096,-0.048 -0.036,0.031 -0.073,0.063 -0.107,0.094 z m 6.18,-46.305 c -0.033,0.017 -0.1,0.036 -0.094,0.048 0.016,0.034 0.061,0.065 0.094,0.098 0.033,-0.017 0.068,-0.032 0.109,-0.052 -0.035,-0.031 -0.072,-0.062 -0.109,-0.094 z m -0.107,0.342 c 0.035,0.03 0.07,0.062 0.107,0.094 0.033,-0.017 0.1,-0.037 0.096,-0.049 -0.016,-0.033 -0.063,-0.064 -0.096,-0.097 -0.033,0.017 -0.066,0.033 -0.107,0.052 z m 0.714,-0.631 c 0.049,-0.037 0.145,-0.074 0.143,-0.11 -0.004,-0.062 -0.066,-0.123 -0.143,-0.244 -0.076,0.122 -0.137,0.183 -0.143,0.244 -10e-4,0.036 0.093,0.073 0.143,0.11 z m -2.578,-0.256 c 0.029,0.072 0.107,0.119 0.297,0.112 0.23,-0.009 0.34,-0.065 0.297,-0.214 -0.07,-0.02 -0.174,-0.066 -0.289,-0.074 -0.227,-0.011 -0.35,0.063 -0.305,0.176 z m 1.711,1.539 c 0.041,-0.02 0.074,-0.035 0.107,-0.053 -0.066,-0.016 -0.131,-0.037 -0.201,-0.045 -0.027,-0.002 -0.068,0.029 -0.102,0.045 0.067,0.018 0.132,0.036 0.196,0.053 z m -2.17,-1.863 c -0.033,0.017 -0.1,0.035 -0.094,0.048 0.016,0.034 0.061,0.065 0.094,0.097 0.035,-0.016 0.102,-0.035 0.096,-0.047 -0.018,-0.034 -0.061,-0.066 -0.096,-0.098 z m -0.078,3.149 c 0.318,0.154 0.643,0.308 0.967,0.459 0.008,0.004 0.076,-0.012 0.104,-0.025 0.029,-0.016 0.078,-0.043 0.068,-0.056 -0.115,-0.146 -0.211,-0.298 -0.367,-0.434 -0.051,-0.043 -0.256,-0.046 -0.291,-0.05 -0.162,0 -0.215,-0.007 -0.262,0 -0.088,0.015 -0.172,0.035 -0.252,0.057 -0.006,0.002 0.01,0.037 0.033,0.049 z m 0.078,-3.728 c 0.035,-0.017 0.068,-0.032 0.109,-0.052 -0.033,-0.027 -0.064,-0.057 -0.1,-0.085 -0.01,0 -0.018,0 -0.027,0 -0.035,0.015 -0.082,0.03 -0.076,0.04 0.016,0.034 0.061,0.065 0.094,0.097 z m -3.187,48.312 c -0.066,-0.018 -0.133,-0.035 -0.195,-0.052 -0.041,0.019 -0.074,0.035 -0.109,0.052 0.068,0.016 0.135,0.037 0.203,0.045 0.027,0.001 0.068,-0.03 0.101,-0.045 z m -0.197,-2.56 c 0.023,0.007 0.076,0.005 0.1,-0.003 0.152,-0.055 0.145,-0.197 -0.006,-0.24 -0.035,0.002 -0.08,-0.004 -0.102,0.005 -0.155,0.053 -0.149,0.198 0.008,0.238 z m -0.411,-40.319 c 0.066,0.017 0.133,0.034 0.195,0.051 0.041,-0.019 0.074,-0.035 0.107,-0.051 -0.066,-0.016 -0.131,-0.039 -0.203,-0.046 -0.024,-0.002 -0.065,0.03 -0.099,0.046 z m 0.432,19.352 c -0.035,0.001 -0.104,0.042 -0.098,0.045 0.049,0.031 0.1,0.076 0.166,0.082 0.141,0.013 0.291,0.004 0.436,0.004 0.119,0 0.24,-0.002 0.359,0.002 0.002,-0.047 0.002,-0.096 0.002,-0.144 l -0.002,0 c -0.287,-0.004 -0.576,0.002 -0.863,0.011 z m -0.137,-23.854 c 0.037,-0.04 0.008,-0.092 0.008,-0.139 0.002,-0.196 -0.166,-0.26 -0.502,-0.189 -0.141,0.03 -0.121,0.056 -0.006,0.103 0.068,0.028 0.313,0.06 0.096,0.146 -0.068,0.027 -0.119,0.065 -0.18,0.098 0.129,0.023 0.254,0.056 0.385,0.061 0.065,0 0.168,-0.045 0.199,-0.08 z m 0.821,37.484 c -0.07,0.008 -0.137,0.029 -0.203,0.046 0.031,0.016 0.066,0.032 0.105,0.052 0.049,-0.014 0.1,-0.026 0.15,-0.039 0,-0.012 0,-0.023 0,-0.034 -0.019,-0.011 -0.039,-0.027 -0.052,-0.025 z m -0.104,-25.641 c -0.025,-0.002 -0.068,0.029 -0.1,0.046 0.064,0.018 0.133,0.034 0.193,0.051 0.041,-0.019 0.076,-0.035 0.109,-0.051 -0.067,-0.016 -0.132,-0.038 -0.202,-0.046 z m -1.055,-7.031 c -0.035,-0.031 -0.072,-0.063 -0.109,-0.094 -0.033,0.016 -0.1,0.036 -0.094,0.049 0.016,0.033 0.061,0.064 0.094,0.096 0.033,-0.016 0.066,-0.031 0.109,-0.051 z m -0.857,-4.33 c 0.014,0.062 0.09,0.121 0.141,0.181 0.053,-0.06 0.102,-0.12 0.154,-0.181 -0.051,-0.037 -0.102,-0.072 -0.154,-0.109 -0.051,0.037 -0.147,0.076 -0.141,0.109 z m 0.596,24.01 c -0.033,-0.016 -0.074,-0.048 -0.098,-0.045 -0.072,0.008 -0.139,0.029 -0.203,0.045 0.031,0.016 0.074,0.048 0.1,0.045 0.07,-0.008 0.134,-0.029 0.201,-0.045 z m -0.098,-25.396 c -0.072,0.007 -0.139,0.028 -0.203,0.045 0.031,0.016 0.074,0.048 0.1,0.046 0.07,-0.008 0.135,-0.03 0.201,-0.046 -0.034,-0.016 -0.075,-0.048 -0.098,-0.045 z m -0.053,25.179 c 0.033,-0.017 0.066,-0.033 0.107,-0.053 -0.033,-0.029 -0.072,-0.061 -0.107,-0.092 -0.033,0.016 -0.1,0.035 -0.096,0.047 0.018,0.035 0.063,0.065 0.096,0.098 z m 0.252,-16.197 c -0.025,-0.003 -0.066,0.029 -0.102,0.045 0.068,0.018 0.133,0.035 0.197,0.052 0.041,-0.02 0.072,-0.035 0.107,-0.052 -0.065,-0.016 -0.129,-0.038 -0.202,-0.045 z m 0.051,17.791 c -0.033,0.016 -0.1,0.035 -0.094,0.047 0.016,0.034 0.061,0.066 0.094,0.098 0.033,-0.016 0.066,-0.031 0.109,-0.052 -0.035,-0.031 -0.072,-0.062 -0.109,-0.093 z m 0.152,21.801 c -0.035,-0.016 -0.074,-0.048 -0.1,-0.045 -0.07,0.008 -0.137,0.029 -0.205,0.045 0.035,0.017 0.068,0.033 0.109,0.053 0.066,-0.018 0.132,-0.036 0.196,-0.053 z m 0.76,-4.563 c -0.035,0.016 -0.102,0.035 -0.096,0.047 0.016,0.035 0.061,0.065 0.096,0.098 0.033,-0.016 0.066,-0.032 0.107,-0.052 -0.035,-0.03 -0.07,-0.062 -0.107,-0.093 z m -3.797,-9.778 c 0.035,0.017 0.076,0.048 0.1,0.045 0.074,-0.007 0.137,-0.028 0.205,-0.045 -0.035,-0.017 -0.068,-0.032 -0.109,-0.052 -0.063,0.018 -0.129,0.034 -0.196,0.052 z m -3.586,14.317 c 0.016,0.033 0.061,0.064 0.094,0.097 0.033,-0.017 0.102,-0.036 0.096,-0.048 -0.016,-0.034 -0.063,-0.065 -0.096,-0.098 -0.033,0.016 -0.1,0.036 -0.094,0.049 z m 1.289,-25.543 c -0.025,-0.01 -0.105,-0.01 -0.127,0.002 -0.021,0.01 -0.023,0.047 -0.002,0.06 0.047,0.027 0.115,0.05 0.18,0.065 0.012,0.004 0.063,-0.027 0.096,-0.045 -0.047,-0.027 -0.088,-0.058 -0.147,-0.082 z m -1.55,26.68 c -0.154,0.055 -0.154,0.209 0.01,0.233 0.049,0.007 0.152,-0.065 0.217,-0.095 -0.059,-0.063 -0.088,-0.104 -0.129,-0.141 -0.009,-0.006 -0.075,-0.005 -0.098,0.003 z m 2.632,-33.924 c -0.084,0.016 -0.229,0.025 -0.238,0.049 -0.041,0.086 0.092,0.102 0.238,0.096 0,-0.049 0,-0.097 0,-0.145 z m -2.222,8.719 c -0.021,-0.008 -0.074,-0.01 -0.102,-0.003 -0.154,0.04 -0.158,0.184 -0.006,0.238 0.023,0.008 0.066,0.003 0.102,0.005 0.152,-0.043 0.158,-0.185 0.006,-0.24 z m 0.761,21.025 c 0.018,0.033 0.063,0.064 0.094,0.098 0.035,-0.018 0.068,-0.033 0.109,-0.053 -0.035,-0.03 -0.07,-0.062 -0.109,-0.093 -0.031,0.017 -0.097,0.036 -0.094,0.048 z m 0.043,-15.086 c -0.025,-0.003 -0.064,0.028 -0.1,0.045 0.064,0.018 0.133,0.035 0.195,0.051 0.041,-0.019 0.074,-0.035 0.109,-0.051 -0.067,-0.016 -0.131,-0.037 -0.204,-0.045 z m 0.262,4.801 c 0.016,0.033 0.061,0.064 0.094,0.097 0.033,-0.016 0.068,-0.032 0.109,-0.051 -0.037,-0.031 -0.072,-0.062 -0.109,-0.094 -0.033,0.017 -0.102,0.036 -0.094,0.048 z m -0.16,-10.889 c -0.037,0 -0.078,-0.005 -0.102,0.004 -0.154,0.054 -0.15,0.198 0.006,0.238 0.025,0.007 0.078,0.004 0.102,-0.004 0.15,-0.054 0.144,-0.197 -0.006,-0.238 z m -0.603,5.508 c -0.072,0.008 -0.137,0.029 -0.205,0.045 0.033,0.017 0.076,0.049 0.1,0.046 0.072,-0.007 0.139,-0.029 0.203,-0.046 -0.034,-0.016 -0.073,-0.047 -0.098,-0.045 z m 1.617,21.051 c -0.035,-0.016 -0.066,-0.032 -0.109,-0.052 -0.063,0.017 -0.129,0.034 -0.195,0.052 0.035,0.016 0.076,0.048 0.102,0.045 0.069,-0.008 0.135,-0.029 0.202,-0.045 z m 0.17,-17.891 c 0.043,0 0.105,0.009 0.129,-0.002 0.023,-0.012 0.023,-0.047 0.002,-0.062 -0.072,-0.048 -0.158,-0.107 -0.264,-0.021 -0.014,0.013 0.084,0.057 0.133,0.085 z m -0.778,-1.521 c 0.033,0.016 0.074,0.049 0.102,0.046 0.068,-0.008 0.135,-0.03 0.201,-0.046 -0.033,-0.016 -0.066,-0.031 -0.107,-0.051 -0.063,0.016 -0.129,0.034 -0.196,0.051 z m -1.115,14.242 c 0.072,-0.008 0.139,-0.029 0.203,-0.045 -0.033,-0.018 -0.064,-0.033 -0.107,-0.053 -0.064,0.018 -0.129,0.035 -0.195,0.053 0.033,0.016 0.076,0.047 0.099,0.045 z m -0.041,-0.31 c -0.008,0.012 0.061,0.031 0.094,0.048 0.035,-0.032 0.072,-0.063 0.109,-0.093 -0.043,-0.02 -0.076,-0.036 -0.109,-0.053 -0.033,0.033 -0.08,0.063 -0.094,0.098 z m -0.014,-9.752 c 0.035,0.031 0.07,0.063 0.107,0.094 0.033,-0.016 0.1,-0.035 0.096,-0.047 -0.018,-0.034 -0.063,-0.065 -0.096,-0.098 -0.032,0.015 -0.068,0.032 -0.107,0.051 z m 0.157,-10.745 c -0.006,-0.006 -0.084,-0.008 -0.1,0 -0.145,0.078 -0.145,0.305 0,0.383 0.016,0.008 0.094,0.006 0.1,0 0.051,-0.062 0.092,-0.124 0.139,-0.191 -0.048,-0.069 -0.089,-0.131 -0.139,-0.192 z m -0.19,-7.771 c 0.078,0.023 0.154,0.062 0.236,0.064 0.303,0.01 0.357,-0.027 0.359,-0.219 0,-0.047 0.012,-0.095 -0.004,-0.141 -0.006,-0.018 -0.061,-0.037 -0.104,-0.049 -0.021,-0.006 -0.088,-0.004 -0.096,0.004 -0.135,0.114 -0.121,0.264 -0.391,0.341 z m 0.434,4.557 c 0.039,-0.007 0.082,-0.025 0.1,-0.043 0.104,-0.1 0.068,-0.217 -0.063,-0.232 -0.033,0.008 -0.092,0.012 -0.098,0.023 -0.033,0.061 -0.049,0.125 -0.082,0.186 -0.039,0.068 0.004,0.091 0.143,0.066 z m -0.09,-8.061 c -0.012,0.064 -0.055,0.146 0.012,0.186 0.07,0.04 0.248,0.045 0.381,0.049 0.035,0.002 0.127,-0.076 0.109,-0.086 -0.119,-0.072 -0.26,-0.136 -0.393,-0.203 -0.047,0.022 -0.107,0.036 -0.109,0.054 z m -0.16,9.055 c 0.043,-0.019 0.074,-0.035 0.107,-0.051 -0.064,-0.016 -0.131,-0.038 -0.203,-0.045 -0.023,-0.003 -0.066,0.029 -0.1,0.045 0.067,0.018 0.131,0.035 0.196,0.051 z m 0.717,23.127 c -0.035,-0.016 -0.076,-0.048 -0.102,-0.046 -0.07,0.008 -0.135,0.03 -0.203,0.046 0.035,0.016 0.068,0.031 0.109,0.051 0.063,-0.016 0.129,-0.034 0.196,-0.051 z m -0.305,-17.819 c -0.033,-0.016 -0.068,-0.031 -0.107,-0.051 -0.064,0.017 -0.131,0.033 -0.197,0.051 0.035,0.017 0.076,0.049 0.102,0.045 0.071,-0.007 0.133,-0.028 0.202,-0.045 z m 0.207,-20.035 c -0.023,-0.008 -0.076,-0.011 -0.102,-0.004 -0.156,0.041 -0.16,0.184 -0.006,0.238 0.023,0.008 0.064,0.003 0.102,0.005 0.15,-0.043 0.156,-0.185 0.006,-0.239 z m -0.715,9.506 c 0.072,-0.008 0.139,-0.029 0.203,-0.045 -0.033,-0.016 -0.072,-0.049 -0.098,-0.046 -0.072,0.007 -0.137,0.03 -0.205,0.046 0.034,0.016 0.077,0.048 0.1,0.045 z m 1.016,-15.881 c -0.072,0.009 -0.137,0.029 -0.203,0.045 0.033,0.017 0.074,0.049 0.1,0.047 0.07,-0.008 0.137,-0.03 0.203,-0.046 -0.034,-0.017 -0.077,-0.048 -0.1,-0.046 z m -0.414,20.684 c 0.064,0.002 0.17,-0.043 0.203,-0.078 0.033,-0.039 0.008,-0.092 0.008,-0.139 0,-0.023 0.01,-0.048 -0.004,-0.07 -0.025,-0.041 -0.066,-0.08 -0.1,-0.119 -0.07,0.018 -0.15,0.029 -0.207,0.055 -0.107,0.047 -0.221,0.094 -0.289,0.153 -0.041,0.034 -0.039,0.112 0.01,0.132 0.101,0.036 0.246,0.061 0.379,0.066 z m -0.137,-1.247 c -0.041,-0.02 -0.076,-0.036 -0.107,-0.052 -0.035,0.032 -0.08,0.063 -0.096,0.098 -0.006,0.012 0.061,0.031 0.096,0.048 0.035,-0.033 0.072,-0.064 0.107,-0.094 z m -0.395,0.674 c -0.1,0.033 -0.223,0.074 -0.041,0.125 0.023,0.007 0.115,-0.04 0.174,-0.063 0,-0.021 0.018,-0.053 -0.004,-0.063 -0.021,-0.009 -0.097,-0.009 -0.129,0.001 z m 0.85,-6.065 c -0.041,0.02 -0.074,0.036 -0.107,0.052 0.066,0.016 0.131,0.037 0.203,0.045 0.023,0.003 0.066,-0.029 0.1,-0.045 -0.067,-0.018 -0.132,-0.035 -0.196,-0.052 z m 6.269,-1.107 c 0.064,0.018 0.133,0.034 0.195,0.052 0.039,-0.02 0.074,-0.035 0.107,-0.052 -0.068,-0.017 -0.133,-0.038 -0.203,-0.046 -0.024,-0.002 -0.067,0.029 -0.099,0.046 z m -6.173,5.169 c -0.072,0.008 -0.137,0.029 -0.203,0.045 0.033,0.018 0.074,0.049 0.1,0.046 0.07,-0.008 0.137,-0.028 0.203,-0.044 -0.034,-0.018 -0.077,-0.049 -0.1,-0.047 z m -0.473,3.221 c -0.012,0.012 0.088,0.056 0.133,0.084 0.045,0 0.107,0.008 0.131,-0.003 0.024,-0.011 0.023,-0.047 0.002,-0.061 -0.071,-0.048 -0.157,-0.107 -0.266,-0.02 z m 4.115,-20.604 c -0.068,0.008 -0.135,0.029 -0.203,0.045 0.033,0.018 0.076,0.049 0.102,0.045 0.07,-0.007 0.137,-0.027 0.201,-0.045 -0.033,-0.016 -0.072,-0.047 -0.1,-0.045 z m -0.051,0.408 c 0.035,-0.016 0.066,-0.033 0.109,-0.052 -0.035,-0.03 -0.072,-0.062 -0.109,-0.094 -0.033,0.017 -0.1,0.036 -0.094,0.048 0.014,0.034 0.061,0.065 0.094,0.098 z m 0,1.963 c -0.074,0.121 -0.139,0.184 -0.143,0.244 -0.002,0.037 0.092,0.074 0.143,0.11 0.051,-0.036 0.145,-0.073 0.143,-0.11 -0.004,-0.062 -0.068,-0.123 -0.143,-0.244 z m 0.715,-0.277 c -0.035,-0.029 -0.072,-0.061 -0.109,-0.092 -0.031,0.016 -0.098,0.035 -0.092,0.047 0.014,0.034 0.061,0.064 0.092,0.098 0.035,-0.017 0.07,-0.034 0.109,-0.053 z m -0.715,-0.962 c -0.051,0.036 -0.15,0.076 -0.143,0.109 0.016,0.062 0.092,0.12 0.143,0.181 0.061,-0.057 0.123,-0.115 0.176,-0.162 -0.074,-0.055 -0.125,-0.092 -0.176,-0.128 z m -1.119,4.878 c -0.016,-0.035 -0.063,-0.064 -0.096,-0.098 -0.033,0.017 -0.1,0.035 -0.096,0.049 0.018,0.033 0.063,0.064 0.096,0.096 0.034,-0.016 0.1,-0.036 0.096,-0.047 z m 1.119,18.01 c -0.033,0.016 -0.068,0.031 -0.107,0.052 0.035,0.029 0.07,0.062 0.107,0.093 0.033,-0.017 0.102,-0.036 0.096,-0.048 -0.017,-0.034 -0.062,-0.065 -0.096,-0.097 z m 0.305,-0.29 c -0.035,0.017 -0.102,0.035 -0.094,0.048 0.014,0.034 0.059,0.064 0.094,0.097 0.031,-0.016 0.098,-0.035 0.094,-0.047 -0.016,-0.034 -0.063,-0.067 -0.094,-0.098 z m -0.398,23.08 c 0.014,0.034 0.061,0.064 0.094,0.098 0.033,-0.017 0.1,-0.035 0.096,-0.048 -0.018,-0.034 -0.061,-0.065 -0.096,-0.097 -0.034,0.016 -0.1,0.036 -0.094,0.047 z m 2.474,-41.306 c -0.023,-0.004 -0.098,0.029 -0.098,0.047 -0.012,0.094 -0.02,0.188 0.004,0.281 0.004,0.023 0.119,0.044 0.191,0.055 0.021,0.003 0.092,-0.029 0.098,-0.047 0.014,-0.047 0.006,-0.094 0.006,-0.141 0,-0.048 0.023,-0.1 -0.01,-0.141 -0.021,-0.027 -0.12,-0.045 -0.191,-0.054 z m -0.754,-8.045 c -0.002,-0.002 -0.004,-0.004 -0.006,-0.006 -0.053,0 -0.107,-0.001 -0.16,-0.002 0.02,0.02 0.037,0.04 0.057,0.06 0.033,-0.017 0.066,-0.033 0.109,-0.052 z m 0.707,20.814 c 0.016,0.033 0.061,0.064 0.096,0.097 0.033,-0.017 0.066,-0.032 0.107,-0.052 -0.035,-0.029 -0.07,-0.062 -0.107,-0.094 -0.035,0.018 -0.101,0.037 -0.096,0.049 z m -2.334,18.205 c -0.033,0.016 -0.1,0.035 -0.094,0.047 0.014,0.035 0.061,0.065 0.094,0.098 0.033,-0.016 0.1,-0.036 0.096,-0.048 -0.017,-0.034 -0.06,-0.065 -0.096,-0.097 z m 0.305,0.868 c 0.031,-0.015 0.098,-0.035 0.094,-0.047 -0.016,-0.034 -0.063,-0.065 -0.094,-0.097 -0.035,0.016 -0.102,0.035 -0.096,0.047 0.016,0.034 0.061,0.065 0.096,0.097 z m 0.043,-8.96 c -0.064,0.018 -0.131,0.034 -0.197,0.051 0.035,0.018 0.078,0.049 0.102,0.046 0.072,-0.008 0.135,-0.028 0.203,-0.046 -0.034,-0.015 -0.069,-0.031 -0.108,-0.051 z m 0.412,12.799 c -0.068,-0.016 -0.135,-0.037 -0.205,-0.045 -0.025,-0.003 -0.064,0.029 -0.1,0.045 0.066,0.018 0.133,0.035 0.197,0.053 0.04,-0.019 0.073,-0.037 0.108,-0.053 z m -3.08,-25.619 c -0.037,-0.03 -0.072,-0.063 -0.109,-0.094 -0.033,0.017 -0.1,0.037 -0.096,0.048 0.018,0.034 0.063,0.065 0.096,0.098 0.033,-0.016 0.068,-0.032 0.109,-0.052 z m 2.885,-18.086 c 0.025,0.004 0.068,-0.015 0.111,-0.039 -0.068,-0.001 -0.137,-0.001 -0.205,-0.002 0.02,0.02 0.051,0.035 0.094,0.041 z m -2.654,16.38 c 0.045,-0.036 0.078,-0.074 0.117,-0.112 -0.014,-0.145 -0.059,-0.16 -0.465,-0.158 -0.049,10e-4 -0.115,-0.009 -0.139,0.002 -0.023,0.012 -0.025,0.052 -0.002,0.064 0.125,0.067 0.26,0.131 0.393,0.193 0.021,0.01 0.09,0.015 0.096,0.011 z m 0.117,0.671 c 0.066,0.016 0.131,0.038 0.203,0.045 0.025,0.004 0.066,-0.029 0.1,-0.045 -0.066,-0.018 -0.133,-0.035 -0.197,-0.051 -0.04,0.019 -0.073,0.035 -0.106,0.051 z m 0.41,-12.509 c -0.041,0.019 -0.074,0.034 -0.107,0.052 0.066,0.016 0.131,0.037 0.203,0.045 0.025,0.002 0.066,-0.029 0.1,-0.045 -0.065,-0.018 -0.132,-0.035 -0.196,-0.052 z m 0.045,4.904 c -0.035,0.017 -0.1,0.036 -0.096,0.049 0.016,0.033 0.061,0.064 0.096,0.098 0.031,-0.018 0.1,-0.037 0.094,-0.049 -0.016,-0.034 -0.061,-0.065 -0.094,-0.098 z m 0.094,23.419 c -0.016,-0.033 -0.061,-0.064 -0.094,-0.098 -0.035,0.017 -0.1,0.037 -0.096,0.049 0.016,0.033 0.061,0.064 0.096,0.098 0.031,-0.016 0.099,-0.036 0.094,-0.049 z m -0.627,-17.084 c -0.068,0.004 -0.201,-0.015 -0.203,-0.028 -0.023,-0.094 -0.008,-0.19 -0.031,-0.285 -0.008,-0.023 -0.121,-0.046 -0.193,-0.057 -0.02,-0.003 -0.082,0.029 -0.098,0.05 -0.02,0.02 -0.006,0.047 -0.006,0.07 0,0.072 0,0.145 0,0.217 -0.002,0.221 -0.002,0.221 0.455,0.217 0.1,0 0.217,0.015 0.299,-0.004 0.07,-0.018 0.135,-0.069 0.15,-0.109 0.016,-0.041 -0.002,-0.104 -0.059,-0.13 -0.183,-0.091 -0.199,0.054 -0.314,0.059 z m 1.39,25.362 c 0.07,-0.007 0.137,-0.028 0.205,-0.045 -0.033,-0.016 -0.076,-0.048 -0.102,-0.045 -0.07,0.008 -0.135,0.029 -0.203,0.045 0.034,0.016 0.077,0.049 0.1,0.045 z m 0.104,-40.651 c -0.07,0.008 -0.135,0.028 -0.203,0.045 0.033,0.016 0.068,0.032 0.109,0.052 0.063,-0.017 0.129,-0.034 0.195,-0.052 -0.033,-0.016 -0.076,-0.048 -0.101,-0.045 z m -0.61,10.571 c -0.035,10e-4 -0.078,-0.004 -0.102,0.004 -0.152,0.055 -0.148,0.198 0.006,0.238 0.025,0.008 0.078,0.005 0.102,-0.003 0.153,-0.054 0.147,-0.196 -0.006,-0.239 z m -2.531,30.66 c 0.023,0.008 0.09,0.01 0.098,0.004 0.043,-0.038 0.074,-0.08 0.127,-0.143 -0.063,-0.029 -0.164,-0.102 -0.215,-0.094 -0.164,0.025 -0.162,0.178 -0.01,0.233 z m 1.121,-8.457 c 0.047,0.028 0.111,0.049 0.178,0.066 0.012,0.003 0.061,-0.027 0.096,-0.045 -0.047,-0.027 -0.09,-0.061 -0.146,-0.082 -0.025,-0.011 -0.104,-0.011 -0.127,0 -0.022,0.012 -0.022,0.048 -10e-4,0.061 z m 0.309,-0.317 c -0.006,0.033 0.092,0.072 0.141,0.109 0.053,-0.037 0.104,-0.074 0.178,-0.127 -0.053,-0.049 -0.115,-0.106 -0.178,-0.164 -0.049,0.061 -0.127,0.12 -0.141,0.182 z m 0.221,-7.273 c -0.076,-0.002 -0.152,0.043 -0.23,0.066 0.078,0.024 0.154,0.068 0.23,0.068 0.131,-0.002 0.256,-0.032 0.512,-0.068 -0.257,-0.035 -0.382,-0.065 -0.512,-0.066 z"
         id="path259"
         inkscape:connector-curvature="0"
         style="fill:#006838" /></g><g
       id="g261"><g
         id="g263"><g
           id="g265"><path
             d="m 504.678,265.826 c 4.82,10e-4 9.641,0.017 14.459,0.073 2.412,0.028 4.824,0.069 7.234,0.173 1.305,0.055 5.656,0.15 2.455,3.887 -1.238,1.444 -6.549,0.793 -8.207,0.807 -0.396,0.002 -0.729,0.328 -0.729,0.728 -0.006,10.462 -0.133,20.921 -0.207,31.382 -0.023,3.146 -0.086,6.292 -0.086,9.438 0,3.072 -0.076,4.45 -4.357,4.862 -5.031,0.482 -3.893,-3.938 -3.855,-6.426 0.195,-13.061 0.082,-26.125 0.281,-39.186 0.006,-0.396 -0.336,-0.728 -0.729,-0.728 -0.818,0 -1.637,0 -2.453,0 -0.73,0 -1.459,-0.001 -2.188,-0.003 -3.396,-0.005 -6.676,-2.91 -1.426,-5.033 0.859,-0.348 0.484,-1.757 -0.387,-1.404 -2.166,0.876 -4.053,2.076 -3.9,4.607 0.189,3.119 3.313,3.258 5.713,3.287 0.953,0.011 1.912,0.002 2.865,0.002 1.383,0 1.033,0.199 1.041,-0.291 -0.02,1.315 -0.029,2.631 -0.041,3.946 -0.033,4.141 -0.055,8.282 -0.078,12.423 -0.043,7.459 -0.059,14.92 -0.154,22.379 -0.031,2.406 -0.748,5.134 1.182,6.944 1.844,1.728 6.322,1.2 8.164,-0.266 1.998,-1.587 1.779,-2.669 1.779,-5.115 0,-3.933 0.086,-7.864 0.098,-11.796 0.018,-6.314 0.131,-12.631 0.166,-18.945 0.008,-1.389 -0.859,-9.35 1.143,-9.365 2.021,-0.018 4.342,0.209 6.285,-0.407 5.457,-1.731 1.311,-6.989 -2.375,-7.185 -7.213,-0.383 -14.473,-0.244 -21.693,-0.244 -0.94,0 -0.94,1.456 0,1.456 z"
             id="path267"
             inkscape:connector-curvature="0"
             style="fill:#006838" /></g></g></g></g></svg>