<?xml version="1.0" encoding="UTF-8" standalone="no"?>
<!-- Generator: Adobe Illustrator 16.0.0, SVG Export Plug-In . SVG Version: 6.00 Build 0)  -->

<svg
   xmlns:dc="http://purl.org/dc/elements/1.1/"
   xmlns:cc="http://creativecommons.org/ns#"
   xmlns:rdf="http://www.w3.org/1999/02/22-rdf-syntax-ns#"
   xmlns:svg="http://www.w3.org/2000/svg"
   xmlns="http://www.w3.org/2000/svg"
   xmlns:sodipodi="http://sodipodi.sourceforge.net/DTD/sodipodi-0.dtd"
   xmlns:inkscape="http://www.inkscape.org/namespaces/inkscape"
   version="1.1"
   id="Layer_1"
   x="0px"
   y="0px"
   width="43.198002"
   height="65.612274"
   viewBox="0 0 43.198001 65.612271"
   enable-background="new 0 0 841.89 595.28"
   xml:space="preserve"
   inkscape:version="0.91 r13725"
   sodipodi:docname="bukva__05__H.svg"><metadata
     id="metadata231"><rdf:RDF><cc:Work
         rdf:about=""><dc:format>image/svg+xml</dc:format><dc:type
           rdf:resource="http://purl.org/dc/dcmitype/StillImage" /><dc:title></dc:title></cc:Work></rdf:RDF></metadata><defs
     id="defs229" /><sodipodi:namedview
     pagecolor="#ffffff"
     bordercolor="#666666"
     borderopacity="1"
     objecttolerance="10"
     gridtolerance="10"
     guidetolerance="10"
     inkscape:pageopacity="0"
     inkscape:pageshadow="2"
     inkscape:window-width="640"
     inkscape:window-height="480"
     id="namedview227"
     showgrid="false"
     fit-margin-top="0"
     fit-margin-left="0"
     fit-margin-right="0"
     fit-margin-bottom="0"
     inkscape:zoom="0.35396548"
     inkscape:cx="115.08201"
     inkscape:cy="22.318985"
     inkscape:window-x="10"
     inkscape:window-y="34"
     inkscape:window-maximized="0"
     inkscape:current-layer="Layer_1" /><g
     id="g3"
     transform="translate(-305.863,-254.34673)"><g
       id="g5"><g
         id="g7"><g
           id="g9"><path
             d="m 321.567,289.788 c 1.173,-0.071 2.444,-0.071 3.813,-0.071 1.857,0 4.303,0.071 5.967,0.143 l 0.391,-24.066 c 0,-1.293 1.856,-2.586 4.205,-2.586 1.467,0 2.836,0.502 4.695,1.939 0.097,2.729 0.097,6.322 0.097,9.698 0,15.806 -0.488,36.856 -0.587,39.442 -1.663,1.006 -3.813,1.508 -5.477,1.508 -1.564,0 -3.521,-0.432 -3.521,-1.867 l 0,-9.125 c 0,-3.018 0,-6.465 0.098,-9.123 l -9.681,0.071 0,10.921 c 0,3.879 0,8.477 -3.423,9.123 l -1.664,0 c -2.444,0 -3.912,-0.934 -3.912,-3.16 0,-4.742 0.099,-8.909 0.099,-12.645 l 0,-8.119 c 0,-9.771 -0.099,-15.59 -0.099,-19.182 0,-4.238 0.099,-5.46 0.197,-6.395 0.292,-2.441 2.444,-2.514 4.596,-2.514 1.858,0 4.498,1.006 4.498,2.514 -0.195,10.419 -0.292,17.962 -0.292,23.494 z"
             id="path11"
             inkscape:connector-curvature="0"
             style="fill:#cee3ce" /></g><g
           id="g13"><g
             id="g15"><path
               d="m 321.567,293.949 c 3.26,-0.135 6.521,-0.053 9.78,0.072 2.295,0.088 4.126,-1.961 4.161,-4.162 0.068,-4.174 0.136,-8.348 0.203,-12.521 0.047,-2.886 0.094,-5.771 0.141,-8.657 0.014,-0.813 0.026,-1.627 0.04,-2.439 0.002,-0.133 0.004,-0.266 0.007,-0.397 -0.035,2.156 0.999,1.759 2.639,2.896 -0.687,-1.198 -1.374,-2.396 -2.061,-3.594 0.465,16.34 0.082,32.803 -0.49,49.141 0.687,-1.198 1.374,-2.396 2.061,-3.594 -1.264,0.631 -3.11,1.463 -4.467,0.539 0.638,0.828 1.275,1.658 1.912,2.486 -0.58,-1.578 -0.182,-5.016 -0.182,-7.106 0,-3.646 -0.01,-7.29 0.098,-10.933 0.067,-2.256 -1.943,-4.178 -4.161,-4.162 -3.227,0.023 -6.454,0.048 -9.681,0.072 -2.269,0.017 -4.161,1.88 -4.161,4.161 0,2.297 0,4.594 0,6.891 0,2.754 0.623,6.753 -0.446,9.263 1.021,-0.271 1.004,-0.36 -0.048,-0.271 -0.647,0 -0.171,-1.806 -0.167,-2.45 0.018,-2.591 0.06,-5.182 0.079,-7.771 0.021,-2.814 0.004,-5.629 0.004,-8.443 0,-8.089 -0.243,-16.193 -0.052,-24.281 0.014,-0.486 0.036,-0.973 0.068,-1.457 0.037,-0.64 -2.007,0.766 0.517,0.713 0.538,-0.012 0.194,6.532 0.183,7.303 -0.077,4.847 -0.133,9.694 -0.138,14.542 -0.006,5.368 8.317,5.366 8.322,0 0.008,-7.191 0.128,-14.383 0.257,-21.573 0.127,-7.086 -6.838,-10.35 -13.202,-7.873 -5.386,2.098 -4.392,9.277 -4.372,13.907 0.027,6.24 0.095,12.479 0.095,18.72 0,5.406 -0.032,10.809 -0.084,16.215 -0.067,7.129 2.243,10.773 9.723,10.773 10.186,0 7.584,-17.723 7.584,-24.206 -1.387,1.388 -2.774,2.774 -4.161,4.161 3.227,-0.023 6.454,-0.047 9.681,-0.071 -1.388,-1.388 -2.774,-2.774 -4.161,-4.161 -0.176,5.91 -0.098,11.83 -0.098,17.742 0,8.262 10.289,6.938 15.26,4.458 1.32,-0.659 2.012,-2.19 2.061,-3.593 0.315,-8.986 0.404,-17.985 0.51,-26.975 0.074,-6.396 0.114,-12.793 0.049,-19.189 -0.026,-2.563 0.195,-4.959 -2.129,-6.57 -2.191,-1.519 -4.152,-2.263 -6.796,-2.508 -8.64,-0.8 -8.384,7.825 -8.478,13.573 -0.093,5.747 -0.187,11.495 -0.279,17.241 1.387,-1.387 2.773,-2.773 4.161,-4.161 -3.259,-0.125 -6.521,-0.208 -9.78,-0.071 -5.35,0.221 -5.371,8.544 -0.002,8.32 z"
               id="path17"
               inkscape:connector-curvature="0"
               style="fill:#cee3ce" /></g></g></g></g><g
       id="g19"
       style="opacity:0.8"><g
         id="g21"><g
           id="g23"><path
             d="m 324.064,287.291 c 1.172,-0.071 2.444,-0.071 3.813,-0.071 1.858,0 4.304,0.071 5.967,0.144 l 0.391,-24.067 c 0,-1.293 1.858,-2.586 4.206,-2.586 1.467,0 2.837,0.502 4.694,1.939 0.098,2.729 0.098,6.321 0.098,9.698 0,15.806 -0.488,36.855 -0.587,39.442 -1.662,1.005 -3.813,1.509 -5.478,1.509 -1.563,0 -3.521,-0.432 -3.521,-1.868 l 0,-9.124 c 0,-3.018 0,-6.466 0.099,-9.124 l -9.682,0.071 0,10.92 c 0,3.88 0,8.478 -3.424,9.125 l -1.663,0 c -2.444,0 -3.911,-0.935 -3.911,-3.162 0,-4.741 0.097,-8.908 0.097,-12.644 l 0,-8.118 c 0,-9.771 -0.097,-15.59 -0.097,-19.182 0,-4.239 0.097,-5.461 0.195,-6.395 0.293,-2.443 2.445,-2.514 4.597,-2.514 1.858,0 4.499,1.005 4.499,2.514 -0.196,10.418 -0.293,17.962 -0.293,23.493 z"
             id="path25"
             inkscape:connector-curvature="0"
             style="fill:#cee3ce" /></g><g
           id="g27"><g
             id="g29"><path
               d="m 324.064,289.372 c 3.26,-0.136 6.521,-0.054 9.779,0.071 1.147,0.045 2.063,-0.979 2.081,-2.08 0.067,-4.174 0.135,-8.348 0.203,-12.521 0.047,-2.886 0.094,-5.771 0.141,-8.657 0.013,-0.813 0.026,-1.626 0.039,-2.439 0.041,-2.534 4.946,0.124 5.777,0.701 -0.344,-0.599 -0.688,-1.198 -1.031,-1.797 0.47,16.34 0.083,32.804 -0.489,49.141 0.344,-0.599 0.688,-1.198 1.031,-1.797 -1.226,0.611 -5.867,2.673 -5.867,0.36 0,-1.796 0,-3.592 0,-5.387 0,-3.928 -0.02,-7.857 0.099,-11.784 0.033,-1.128 -0.973,-2.089 -2.081,-2.081 -3.228,0.024 -6.454,0.049 -9.682,0.072 -1.134,0.008 -2.081,0.939 -2.081,2.08 0,4.965 1.242,12.574 -0.73,17.203 -1.465,3.438 -4.101,-2.295 -4.091,-3.771 0.017,-2.591 0.058,-5.181 0.077,-7.772 0.021,-2.813 0.005,-5.628 0.005,-8.441 0,-8.09 -0.239,-16.194 -0.051,-24.281 0.046,-2.004 0.345,-2.777 2.665,-2.826 3.599,-0.076 2.294,7.465 2.264,9.385 -0.077,4.846 -0.133,9.693 -0.139,14.541 -0.003,2.684 4.159,2.684 4.162,0 0.008,-7.191 0.128,-14.383 0.257,-21.572 0.104,-5.774 -5.458,-7.855 -10.568,-5.867 -4.001,1.557 -2.857,8.697 -2.844,11.9 0.026,6.24 0.092,12.48 0.092,18.721 0,5.404 -0.03,10.809 -0.081,16.214 -0.057,6.04 1.277,8.692 7.64,8.692 7.981,0 5.505,-17.212 5.505,-22.125 -0.693,0.693 -1.388,1.388 -2.081,2.081 3.228,-0.024 6.454,-0.048 9.682,-0.071 -0.693,-0.693 -1.388,-1.388 -2.081,-2.081 -0.177,5.909 -0.099,11.831 -0.099,17.743 0,6.326 8.636,4.403 12.129,2.661 0.66,-0.329 1.007,-1.096 1.031,-1.797 0.314,-8.985 0.403,-17.985 0.509,-26.976 0.074,-6.395 0.114,-12.792 0.049,-19.188 -0.048,-4.639 -2.022,-6.552 -6.844,-6.998 -7.2,-0.666 -6.323,6.912 -6.397,11.492 -0.094,5.748 -0.187,11.494 -0.28,17.242 0.693,-0.693 1.388,-1.387 2.081,-2.08 -3.259,-0.126 -6.52,-0.209 -9.779,-0.072 -2.676,0.111 -2.687,4.273 -0.002,4.161 z"
               id="path31"
               inkscape:connector-curvature="0"
               style="fill:#5e8b63" /></g></g></g></g><g
       id="g33"><g
         id="g35"><path
           d="m 327.392,283.963 c 1.174,-0.072 2.444,-0.072 3.814,-0.072 1.858,0 4.303,0.072 5.966,0.143 l 0.391,-24.066 c 0,-1.293 1.858,-2.586 4.206,-2.586 1.467,0 2.836,0.502 4.694,1.939 0.098,2.73 0.098,6.322 0.098,9.699 0,15.805 -0.489,36.855 -0.587,39.441 -1.662,1.006 -3.813,1.508 -5.477,1.508 -1.564,0 -3.521,-0.43 -3.521,-1.867 l 0,-9.125 c 0,-3.017 0,-6.465 0.098,-9.123 l -9.683,0.071 0,10.92 c 0,3.88 0,8.478 -3.422,9.124 l -1.664,0 c -2.444,0 -3.912,-0.934 -3.912,-3.16 0,-4.742 0.099,-8.909 0.099,-12.645 l 0,-8.119 c 0,-9.77 -0.099,-15.589 -0.099,-19.182 0,-4.238 0.099,-5.459 0.196,-6.394 0.294,-2.442 2.444,-2.515 4.597,-2.515 1.858,0 4.499,1.006 4.499,2.515 -0.195,10.418 -0.293,17.961 -0.293,23.494 z"
           id="path37"
           inkscape:connector-curvature="0"
           style="fill:#42424a" /><path
           d="m 340.498,312.466 c -4.441,0 -6.018,-2.352 -6.018,-4.364 l 0,-9.125 c 0,-2.136 0,-4.471 0.034,-6.607 l -4.625,0.034 0,8.441 c 0,4.2 0,10.547 -5.455,11.577 l -0.464,0.044 -1.664,0 c -4.726,0 -6.409,-2.923 -6.409,-5.657 0,-2.522 0.028,-4.884 0.054,-7.104 0.023,-1.952 0.045,-3.794 0.045,-5.541 l 0,-8.119 c 0,-6.072 -0.038,-10.616 -0.066,-14.047 -0.018,-2.093 -0.032,-3.772 -0.032,-5.135 0,-4.29 0.1,-5.595 0.21,-6.653 0.571,-4.752 5.133,-4.752 7.08,-4.752 2.821,0 6.996,1.593 6.996,5.012 -0.171,9.069 -0.264,15.811 -0.288,20.927 0.43,-0.003 0.867,-0.003 1.312,-0.003 1.078,0 2.335,0.024 3.511,0.057 l 0.35,-21.524 c -0.001,-2.762 3.006,-5.042 6.702,-5.042 2.131,0 3.991,0.736 6.222,2.462 l 0.926,0.716 0.042,1.17 c 0.1,2.774 0.1,6.34 0.1,9.788 0,15.907 -0.489,36.903 -0.589,39.535 l -0.051,1.346 -1.151,0.696 c -1.907,1.152 -4.502,1.868 -6.772,1.868 z m -1.024,-5.09 c 0.725,0.151 2.435,0.118 4.05,-0.494 0.154,-5.644 0.54,-23.752 0.54,-37.862 0,-2.907 0,-5.899 -0.06,-8.385 -0.968,-0.612 -1.615,-0.757 -2.235,-0.757 -0.863,0 -1.461,0.28 -1.715,0.466 l -0.427,26.292 -2.561,-0.107 c -1.531,-0.065 -3.985,-0.141 -5.86,-0.141 -1.318,0 -2.563,0 -3.661,0.067 l -2.65,0.163 0,-2.655 c 0,-5.31 0.091,-12.628 0.284,-22.999 -0.403,-0.229 -1.222,-0.512 -1.992,-0.512 -0.472,0 -1.677,0 -2.092,0.169 -0.009,0.033 -0.018,0.082 -0.026,0.147 -0.088,0.846 -0.178,2.049 -0.178,6.095 0,1.351 0.014,3.018 0.031,5.093 0.029,3.44 0.067,7.998 0.067,14.089 l 0,8.119 c 0,1.766 -0.022,3.627 -0.045,5.6 -0.026,2.202 -0.054,4.543 -0.054,7.045 0,0.323 0.061,0.437 0.061,0.438 0.058,0.048 0.453,0.225 1.354,0.225 l 1.349,0 c 1.24,-0.501 1.24,-4.169 1.24,-6.627 l 0,-13.398 14.771,-0.108 -0.096,2.607 c -0.096,2.612 -0.096,6.022 -0.096,9.031 l 0,8.399 z"
           id="path39"
           inkscape:connector-curvature="0"
           style="fill:#42424a" /></g></g><g
       id="g41"><g
         id="g43"><path
           d="m 326.56,282.298 c 1.174,-0.072 2.445,-0.072 3.814,-0.072 1.858,0 4.303,0.072 5.965,0.144 l 0.392,-24.066 c 0,-1.293 1.858,-2.586 4.206,-2.586 1.467,0 2.837,0.502 4.693,1.939 0.099,2.729 0.099,6.321 0.099,9.698 0,15.805 -0.488,36.855 -0.587,39.441 -1.662,1.006 -3.813,1.509 -5.478,1.509 -1.564,0 -3.521,-0.432 -3.521,-1.868 l 0,-9.124 c 0,-3.018 0,-6.466 0.099,-9.123 l -9.683,0.071 0,10.92 c 0,3.88 0,8.478 -3.423,9.124 l -1.663,0 c -2.444,0 -3.912,-0.935 -3.912,-3.161 0,-4.741 0.098,-8.908 0.098,-12.644 l 0,-8.119 c 0,-9.771 -0.098,-15.59 -0.098,-19.182 0,-4.238 0.098,-5.461 0.195,-6.395 0.294,-2.442 2.445,-2.514 4.598,-2.514 1.857,0 4.498,1.006 4.498,2.514 -0.194,10.419 -0.292,17.962 -0.292,23.494 z"
           id="path45"
           inkscape:connector-curvature="0"
           style="fill:#006838" /></g></g><g
       id="g47"><path
         d="m 328.224,281.466 c 1.174,-0.071 2.445,-0.071 3.814,-0.071 1.857,0 4.303,0.071 5.965,0.143 l 0.392,-24.065 c 0,-1.293 1.858,-2.586 4.205,-2.586 1.467,0 2.836,0.503 4.694,1.939 0.098,2.729 0.098,6.321 0.098,9.698 0,15.805 -0.489,36.854 -0.587,39.439 -1.662,1.006 -3.813,1.509 -5.477,1.509 -1.564,0 -3.521,-0.431 -3.521,-1.868 l 0,-9.123 c 0,-3.018 0,-6.466 0.098,-9.124 l -9.682,0.072 0,10.919 c 0,3.879 0,8.477 -3.423,9.124 l -1.662,0 c -2.445,0 -3.912,-0.935 -3.912,-3.161 0,-4.741 0.099,-8.908 0.099,-12.644 l 0,-8.118 c 0,-9.77 -0.099,-15.588 -0.099,-19.181 0,-4.238 0.099,-5.46 0.196,-6.394 0.293,-2.442 2.444,-2.514 4.596,-2.514 1.858,0 4.499,1.006 4.499,2.514 -0.195,10.418 -0.293,17.961 -0.293,23.492 z"
         id="path49"
         inkscape:connector-curvature="0"
         style="fill:#2f9a41" /></g><g
       id="g51"><g
         id="g53"><path
           d="m 338.363,259.49 4.59,-4.59 c -0.117,-0.007 -0.234,-0.016 -0.353,-0.016 -0.377,0 -0.734,0.043 -1.081,0.105 l -3.135,3.135 -0.021,1.366 z"
           id="path55"
           inkscape:connector-curvature="0"
           style="fill:#cee3ce" /><path
           d="m 331.24,281.397 c -0.46,0.001 -0.919,0.004 -1.355,0.011 l -10.563,10.563 c 0,0.44 -0.004,0.899 -0.007,1.351 l 11.925,-11.925 z"
           id="path57"
           inkscape:connector-curvature="0"
           style="fill:#cee3ce" /><path
           d="m 336.098,281.467 c -0.427,-0.013 -0.865,-0.025 -1.308,-0.036 l -5.992,5.992 1.354,-0.01 5.946,-5.946 z"
           id="path59"
           inkscape:connector-curvature="0"
           style="fill:#cee3ce" /><path
           d="m 347.353,275.141 c 0.004,-0.453 0.007,-0.904 0.011,-1.354 l -13.601,13.601 1.354,-0.01 12.236,-12.237 z"
           id="path61"
           inkscape:connector-curvature="0"
           style="fill:#cee3ce" /><path
           d="m 328.265,274.517 c 0.004,-0.444 0.009,-0.896 0.014,-1.358 l -8.956,8.956 c 0,0.44 0.001,0.885 0.001,1.343 l 8.941,-8.941 z"
           id="path63"
           inkscape:connector-curvature="0"
           style="fill:#cee3ce" /><path
           d="m 347.302,280.119 c 0.005,-0.453 0.011,-0.905 0.016,-1.359 l -9.437,9.437 c -0.013,0.445 -0.023,0.903 -0.032,1.376 l 9.453,-9.454 z"
           id="path65"
           inkscape:connector-curvature="0"
           style="fill:#cee3ce" /><path
           d="m 328.229,279.479 c 0.001,-0.439 0.004,-0.887 0.006,-1.35 l -8.912,8.912 0,1.344 8.906,-8.906 z"
           id="path67"
           inkscape:connector-curvature="0"
           style="fill:#cee3ce" /><path
           d="m 319.31,277.2 c 0.002,0.437 0.004,0.88 0.005,1.338 l 9.01,-9.01 c 0.006,-0.448 0.013,-0.901 0.02,-1.364 l -9.035,9.036 z"
           id="path69"
           inkscape:connector-curvature="0"
           style="fill:#cee3ce" /><path
           d="m 338.223,268.142 -0.022,1.366 9.17,-9.17 c -0.005,-0.451 -0.011,-0.895 -0.019,-1.325 l -9.129,9.129 z"
           id="path71"
           inkscape:connector-curvature="0"
           style="fill:#cee3ce" /><path
           d="m 338.304,263.133 -0.022,1.366 8.238,-8.237 c -0.288,-0.196 -0.563,-0.363 -0.832,-0.513 l -7.384,7.384 z"
           id="path73"
           inkscape:connector-curvature="0"
           style="fill:#cee3ce" /><path
           d="m 319.28,272.3 c 0.003,0.431 0.006,0.875 0.009,1.334 l 9.112,-9.112 c 0.007,-0.45 0.015,-0.904 0.023,-1.367 l -9.144,9.145 z"
           id="path75"
           inkscape:connector-curvature="0"
           style="fill:#cee3ce" /><path
           d="m 319.242,267.41 c 0.003,0.422 0.006,0.869 0.01,1.333 l 9.238,-9.238 c 0.008,-0.452 0.017,-0.906 0.025,-1.369 l -9.273,9.274 z"
           id="path77"
           inkscape:connector-curvature="0"
           style="fill:#cee3ce" /><path
           d="m 338.06,278.161 -0.022,1.366 9.347,-9.347 c 0.002,-0.453 0.003,-0.902 0.005,-1.349 l -9.33,9.33 z"
           id="path79"
           inkscape:connector-curvature="0"
           style="fill:#cee3ce" /><path
           d="m 347.236,285.114 c 0.006,-0.452 0.013,-0.906 0.02,-1.363 l -9.442,9.442 c -0.001,0.451 -0.002,0.9 -0.003,1.347 l 9.425,-9.426 z"
           id="path81"
           inkscape:connector-curvature="0"
           style="fill:#cee3ce" /><path
           d="m 338.142,273.152 -0.022,1.366 9.274,-9.273 c 0,-0.447 -0.001,-0.895 -0.002,-1.342 l -9.25,9.249 z"
           id="path83"
           inkscape:connector-curvature="0"
           style="fill:#cee3ce" /><path
           d="m 328.01,302.996 -4.475,4.476 1.268,0 c 0.037,-0.007 0.068,-0.021 0.105,-0.028 l 2.713,-2.715 c 0.178,-0.532 0.3,-1.118 0.389,-1.733 z"
           id="path85"
           inkscape:connector-curvature="0"
           style="fill:#cee3ce" /><path
           d="m 328.225,298.349 0,-0.497 -8.417,8.417 c 0.193,0.25 0.444,0.447 0.727,0.616 l 7.688,-7.688 c 0.002,-0.285 0.002,-0.569 0.002,-0.848 z"
           id="path87"
           inkscape:connector-curvature="0"
           style="fill:#cee3ce" /><path
           d="m 319.235,262.489 c -0.003,0.409 -0.006,0.858 -0.007,1.351 l 7.705,-7.705 c -0.303,-0.147 -0.632,-0.272 -0.97,-0.374 l -6.728,6.728 z"
           id="path89"
           inkscape:connector-curvature="0"
           style="fill:#cee3ce" /><path
           d="m 319.612,257.183 c -0.087,0.231 -0.153,0.492 -0.188,0.79 -0.025,0.238 -0.051,0.496 -0.074,0.817 l 3.293,-3.293 c -0.611,0.041 -1.186,0.133 -1.678,0.334 l -1.353,1.352 z"
           id="path91"
           inkscape:connector-curvature="0"
           style="fill:#cee3ce" /><path
           d="m 328.225,289.34 0,-1.344 -8.942,8.942 c -0.005,0.447 -0.009,0.899 -0.014,1.358 l 8.956,-8.956 z"
           id="path93"
           inkscape:connector-curvature="0"
           style="fill:#cee3ce" /><path
           d="m 346.957,300.178 c 0.01,-0.439 0.02,-0.895 0.03,-1.374 l -8.18,8.18 c 0.3,0.148 0.642,0.259 1.009,0.335 l 7.141,-7.141 z"
           id="path95"
           inkscape:connector-curvature="0"
           style="fill:#cee3ce" /><path
           d="m 346.83,305.233 c 0.011,-0.366 0.024,-0.835 0.039,-1.382 l -3.354,3.354 c 0.639,-0.136 1.282,-0.311 1.905,-0.561 l 1.41,-1.411 z"
           id="path97"
           inkscape:connector-curvature="0"
           style="fill:#cee3ce" /><path
           d="m 347.063,295.143 c 0.009,-0.448 0.018,-0.905 0.026,-1.371 l -9.28,9.28 0,1.344 9.254,-9.253 z"
           id="path99"
           inkscape:connector-curvature="0"
           style="fill:#cee3ce" /><path
           d="m 347.156,290.122 c 0.008,-0.451 0.016,-0.906 0.023,-1.367 l -9.37,9.37 0,1.344 9.347,-9.347 z"
           id="path101"
           inkscape:connector-curvature="0"
           style="fill:#cee3ce" /><path
           d="m 328.225,294.269 0,-1.344 -8.987,8.987 c -0.003,0.445 -0.005,0.895 -0.006,1.35 l 8.993,-8.993 z"
           id="path103"
           inkscape:connector-curvature="0"
           style="fill:#cee3ce" /></g><g
         id="g105"><path
           d="m 347.156,273.529 c 0.035,0.033 0.132,0.063 0.208,0.096 0,-0.048 0.001,-0.096 0.001,-0.144 -0.077,0.018 -0.222,0.037 -0.209,0.048 z"
           id="path107"
           inkscape:connector-curvature="0"
           style="fill:#cee3ce" /><path
           d="m 347.027,259.938 c 0.076,0.016 0.169,0.048 0.225,0.045 0.04,-0.002 0.075,-0.008 0.113,-0.011 0,-0.025 0,-0.049 -0.001,-0.074 -0.111,0.013 -0.221,0.026 -0.337,0.04 z"
           id="path109"
           inkscape:connector-curvature="0"
           style="fill:#cee3ce" /><path
           d="m 343.317,277.682 c 0.077,-0.016 0.225,-0.035 0.211,-0.047 -0.036,-0.034 -0.134,-0.064 -0.211,-0.098 -0.075,0.018 -0.149,0.033 -0.24,0.053 0.08,0.029 0.159,0.06 0.24,0.092 z"
           id="path111"
           inkscape:connector-curvature="0"
           style="fill:#cee3ce" /><path
           d="m 319.407,263.941 c -0.073,-0.037 -0.127,-0.066 -0.179,-0.092 0,0.044 0,0.09 0,0.135 0.063,-0.015 0.128,-0.032 0.179,-0.043 z"
           id="path113"
           inkscape:connector-curvature="0"
           style="fill:#cee3ce" /><path
           d="m 319.292,273.684 c 0,0.007 0,0.015 0,0.022 0.023,-0.002 0.046,-0.004 0.069,-0.007 -0.022,-0.004 -0.048,-0.01 -0.069,-0.015 z"
           id="path115"
           inkscape:connector-curvature="0"
           style="fill:#cee3ce" /><path
           d="m 346.789,300.302 c -0.143,0.017 -0.288,0.034 -0.435,0.052 0.074,0.016 0.167,0.047 0.223,0.045 0.131,-0.006 0.252,-0.023 0.375,-0.037 0,-0.008 0,-0.016 0,-0.024 -0.052,-0.012 -0.101,-0.024 -0.163,-0.036 z"
           id="path117"
           inkscape:connector-curvature="0"
           style="fill:#cee3ce" /><path
           d="m 342.642,280.869 c 0.076,-0.016 0.224,-0.035 0.211,-0.047 -0.034,-0.034 -0.135,-0.064 -0.211,-0.098 -0.076,0.016 -0.224,0.036 -0.21,0.048 0.035,0.035 0.134,0.066 0.21,0.097 z"
           id="path119"
           inkscape:connector-curvature="0"
           style="fill:#cee3ce" /><path
           d="m 346.692,300.57 c -0.076,0.032 -0.175,0.063 -0.211,0.098 -0.014,0.012 0.135,0.031 0.211,0.047 0.08,-0.031 0.161,-0.063 0.241,-0.093 -0.092,-0.019 -0.165,-0.035 -0.241,-0.052 z"
           id="path121"
           inkscape:connector-curvature="0"
           style="fill:#cee3ce" /><path
           d="m 347.353,259.126 c -0.001,-0.085 -0.003,-0.169 -0.005,-0.254 -0.199,0.023 -0.305,0.064 -0.328,0.126 -0.027,0.071 0.11,0.108 0.333,0.128 z"
           id="path123"
           inkscape:connector-curvature="0"
           style="fill:#cee3ce" /><path
           d="m 319.229,265.428 c 0,0.014 0,0.028 0,0.042 0.043,-0.009 0.09,-0.02 0.131,-0.028 -0.043,-0.005 -0.088,-0.008 -0.131,-0.014 z"
           id="path125"
           inkscape:connector-curvature="0"
           style="fill:#cee3ce" /><path
           d="m 345.245,265.254 c -0.366,0.025 -0.362,0.179 -0.022,0.232 0.052,0.008 0.205,0.01 0.218,0.004 0.095,-0.037 0.163,-0.078 0.286,-0.141 -0.145,-0.031 -0.372,-0.102 -0.482,-0.095 z"
           id="path127"
           inkscape:connector-curvature="0"
           style="fill:#cee3ce" /><path
           d="m 326.562,263.749 c 0.056,0.002 0.147,-0.03 0.221,-0.046 -0.145,-0.017 -0.294,-0.035 -0.434,-0.051 -0.09,0.02 -0.166,0.035 -0.24,0.051 0.15,0.016 0.295,0.039 0.453,0.046 z"
           id="path129"
           inkscape:connector-curvature="0"
           style="fill:#cee3ce" /><path
           d="m 328.133,299.918 c 0.026,0.006 0.056,0.012 0.082,0.018 0,-0.008 0,-0.018 0,-0.025 -0.027,0.002 -0.054,0.004 -0.082,0.007 z"
           id="path131"
           inkscape:connector-curvature="0"
           style="fill:#cee3ce" /><path
           d="m 327.123,305.496 c 0.074,-0.032 0.175,-0.063 0.211,-0.098 0.011,-0.012 -0.137,-0.031 -0.211,-0.047 -0.083,0.031 -0.163,0.063 -0.24,0.093 0.087,0.02 0.163,0.035 0.24,0.052 z"
           id="path133"
           inkscape:connector-curvature="0"
           style="fill:#cee3ce" /><path
           d="m 338.593,302.6 c 0.075,-0.018 0.151,-0.033 0.24,-0.053 -0.078,-0.03 -0.158,-0.062 -0.24,-0.093 -0.074,0.017 -0.224,0.035 -0.212,0.048 0.037,0.034 0.138,0.064 0.212,0.098 z"
           id="path135"
           inkscape:connector-curvature="0"
           style="fill:#cee3ce" /><path
           d="m 327.585,290.479 c 0.034,0.033 0.136,0.064 0.211,0.097 0.074,-0.017 0.149,-0.032 0.241,-0.052 -0.079,-0.03 -0.161,-0.062 -0.241,-0.094 -0.075,0.016 -0.222,0.036 -0.211,0.049 z"
           id="path137"
           inkscape:connector-curvature="0"
           style="fill:#cee3ce" /><path
           d="m 340.279,270.656 c 0.076,0.017 0.168,0.049 0.225,0.046 0.158,-0.007 0.303,-0.029 0.451,-0.046 -0.076,-0.016 -0.164,-0.048 -0.221,-0.045 -0.159,0.008 -0.303,0.03 -0.455,0.045 z"
           id="path139"
           inkscape:connector-curvature="0"
           style="fill:#cee3ce" /><path
           d="m 344.666,259.431 c -0.073,0.016 -0.221,0.035 -0.21,0.047 0.035,0.034 0.137,0.065 0.21,0.097 0.075,-0.016 0.224,-0.035 0.213,-0.047 -0.036,-0.035 -0.138,-0.065 -0.213,-0.097 z"
           id="path141"
           inkscape:connector-curvature="0"
           style="fill:#cee3ce" /><path
           d="m 327.481,300.246 c 0.032,0.061 0.203,0.12 0.315,0.18 0.136,-0.057 0.274,-0.114 0.391,-0.162 -0.165,-0.055 -0.276,-0.092 -0.391,-0.128 -0.112,0.036 -0.332,0.076 -0.315,0.11 z"
           id="path143"
           inkscape:connector-curvature="0"
           style="fill:#cee3ce" /><path
           d="m 327.914,288.43 c -0.161,0.008 -0.304,0.029 -0.455,0.045 0.075,0.016 0.166,0.048 0.223,0.045 0.158,-0.008 0.304,-0.029 0.452,-0.045 -0.076,-0.016 -0.168,-0.048 -0.22,-0.045 z"
           id="path145"
           inkscape:connector-curvature="0"
           style="fill:#cee3ce" /><path
           d="m 344.764,278.283 c -0.142,0.017 -0.288,0.033 -0.436,0.051 0.076,0.017 0.167,0.048 0.223,0.046 0.158,-0.007 0.303,-0.029 0.453,-0.046 -0.075,-0.016 -0.15,-0.031 -0.24,-0.051 z"
           id="path147"
           inkscape:connector-curvature="0"
           style="fill:#cee3ce" /><path
           d="m 346.016,276.234 c -0.076,0.031 -0.174,0.063 -0.211,0.098 -0.013,0.012 0.135,0.031 0.211,0.047 0.082,-0.031 0.161,-0.063 0.24,-0.094 -0.088,-0.019 -0.164,-0.035 -0.24,-0.051 z"
           id="path149"
           inkscape:connector-curvature="0"
           style="fill:#cee3ce" /><path
           d="m 345.004,273.699 c 0.149,0.016 0.294,0.037 0.451,0.045 0.056,0.003 0.149,-0.029 0.224,-0.045 -0.147,-0.018 -0.292,-0.035 -0.435,-0.052 -0.09,0.02 -0.164,0.037 -0.24,0.052 z"
           id="path151"
           inkscape:connector-curvature="0"
           style="fill:#cee3ce" /><path
           d="m 344.666,279.276 c 0.082,-0.032 0.164,-0.063 0.239,-0.094 -0.089,-0.02 -0.164,-0.036 -0.239,-0.052 -0.073,0.032 -0.175,0.064 -0.21,0.098 -0.011,0.012 0.136,0.032 0.21,0.048 z"
           id="path153"
           inkscape:connector-curvature="0"
           style="fill:#cee3ce" /><path
           d="m 345.805,280.049 c 0.037,0.033 0.135,0.064 0.211,0.096 0.076,-0.016 0.152,-0.031 0.24,-0.051 -0.079,-0.03 -0.158,-0.063 -0.24,-0.094 -0.076,0.016 -0.224,0.036 -0.211,0.049 z"
           id="path155"
           inkscape:connector-curvature="0"
           style="fill:#cee3ce" /><path
           d="m 346.016,270.006 c -0.076,0.016 -0.224,0.035 -0.211,0.047 0.037,0.034 0.135,0.064 0.211,0.098 0.076,-0.017 0.152,-0.033 0.24,-0.052 -0.079,-0.031 -0.158,-0.062 -0.24,-0.093 z"
           id="path157"
           inkscape:connector-curvature="0"
           style="fill:#cee3ce" /><path
           d="m 331.507,283.404 c 0.147,0.018 0.293,0.035 0.436,0.051 0.089,-0.019 0.164,-0.034 0.24,-0.051 -0.151,-0.016 -0.295,-0.037 -0.455,-0.045 -0.054,-0.002 -0.144,0.03 -0.221,0.045 z"
           id="path159"
           inkscape:connector-curvature="0"
           style="fill:#cee3ce" /><path
           d="m 338.256,275.003 c -0.049,-0.006 -0.097,-0.012 -0.146,-0.018 l 0,0.047 c 0.048,-0.009 0.097,-0.018 0.146,-0.029 z"
           id="path161"
           inkscape:connector-curvature="0"
           style="fill:#cee3ce" /><path
           d="m 321.385,275.728 c -0.076,-0.017 -0.15,-0.033 -0.241,-0.052 -0.141,0.017 -0.287,0.034 -0.435,0.052 0.075,0.015 0.167,0.047 0.223,0.045 0.159,-0.008 0.303,-0.031 0.453,-0.045 z"
           id="path163"
           inkscape:connector-curvature="0"
           style="fill:#cee3ce" /><path
           d="m 323.073,297.529 c -0.075,0.016 -0.226,0.035 -0.212,0.047 0.037,0.034 0.137,0.064 0.212,0.098 0.075,-0.017 0.149,-0.033 0.239,-0.052 -0.078,-0.03 -0.158,-0.061 -0.239,-0.093 z"
           id="path165"
           inkscape:connector-curvature="0"
           style="fill:#cee3ce" /><path
           d="m 339.917,298.107 c 0.091,-0.008 0.185,-0.025 0.227,-0.044 0.23,-0.099 0.151,-0.216 -0.142,-0.233 -0.075,0.008 -0.2,0.013 -0.215,0.023 -0.074,0.062 -0.107,0.125 -0.187,0.188 -0.086,0.068 0.01,0.091 0.317,0.066 z"
           id="path167"
           inkscape:connector-curvature="0"
           style="fill:#cee3ce" /><path
           d="m 324.211,260.781 c 0.035,0.035 0.137,0.065 0.21,0.098 0.075,-0.017 0.15,-0.032 0.239,-0.051 -0.076,-0.031 -0.157,-0.063 -0.239,-0.094 -0.073,0.016 -0.222,0.036 -0.21,0.047 z"
           id="path169"
           inkscape:connector-curvature="0"
           style="fill:#cee3ce" /><path
           d="m 320.687,293.002 c 0.017,-0.033 -0.201,-0.072 -0.313,-0.109 -0.113,0.037 -0.228,0.073 -0.392,0.128 0.115,0.048 0.254,0.105 0.392,0.163 0.112,-0.061 0.281,-0.12 0.313,-0.182 z"
           id="path171"
           inkscape:connector-curvature="0"
           style="fill:#cee3ce" /><path
           d="m 322.637,277.444 c -0.089,-0.02 -0.165,-0.035 -0.241,-0.052 -0.075,0.032 -0.174,0.064 -0.21,0.098 -0.014,0.012 0.135,0.031 0.21,0.047 0.083,-0.031 0.163,-0.062 0.241,-0.093 z"
           id="path173"
           inkscape:connector-curvature="0"
           style="fill:#cee3ce" /><path
           d="m 322.292,285.771 c 0.058,0.007 0.173,0.005 0.225,-0.003 0.338,-0.054 0.324,-0.197 -0.014,-0.239 -0.076,10e-4 -0.174,-0.005 -0.226,0.005 -0.338,0.052 -0.328,0.196 0.015,0.237 z"
           id="path175"
           inkscape:connector-curvature="0"
           style="fill:#cee3ce" /><path
           d="m 320.374,271.164 c 0.112,-0.037 0.225,-0.074 0.391,-0.127 -0.117,-0.049 -0.254,-0.105 -0.391,-0.163 -0.113,0.061 -0.284,0.118 -0.315,0.181 -0.018,0.033 0.201,0.072 0.315,0.109 z"
           id="path177"
           inkscape:connector-curvature="0"
           style="fill:#cee3ce" /><path
           d="m 320.584,259.623 c 0.012,-0.012 -0.136,-0.031 -0.211,-0.049 -0.083,0.031 -0.163,0.063 -0.24,0.094 0.089,0.02 0.164,0.035 0.24,0.053 0.076,-0.033 0.176,-0.065 0.211,-0.098 z"
           id="path179"
           inkscape:connector-curvature="0"
           style="fill:#cee3ce" /><path
           d="m 339.578,298.302 c 0.113,-0.055 0.028,-0.128 0.028,-0.194 -0.226,0.031 -0.558,0.053 -0.647,0.097 -0.114,0.054 -0.027,0.128 -0.027,0.194 0.224,-0.032 0.555,-0.053 0.646,-0.097 z"
           id="path181"
           inkscape:connector-curvature="0"
           style="fill:#cee3ce" /><path
           d="m 338.931,280.797 c 0.146,0.018 0.293,0.035 0.436,0.052 0.089,-0.019 0.164,-0.036 0.239,-0.052 -0.15,-0.016 -0.296,-0.037 -0.453,-0.045 -0.057,-0.003 -0.147,0.029 -0.222,0.045 z"
           id="path183"
           inkscape:connector-curvature="0"
           style="fill:#cee3ce" /><path
           d="m 338.593,259.141 c 0.075,-0.017 0.151,-0.032 0.24,-0.051 -0.078,-0.031 -0.158,-0.063 -0.24,-0.094 -0.074,0.016 -0.224,0.035 -0.212,0.047 0.037,0.035 0.138,0.065 0.212,0.098 z"
           id="path185"
           inkscape:connector-curvature="0"
           style="fill:#cee3ce" /><path
           d="m 338.256,281.377 c 0.146,0.017 0.293,0.034 0.435,0.051 0.089,-0.02 0.165,-0.035 0.24,-0.051 -0.151,-0.017 -0.294,-0.037 -0.453,-0.046 -0.056,-0.003 -0.146,0.029 -0.222,0.046 z"
           id="path187"
           inkscape:connector-curvature="0"
           style="fill:#cee3ce" /><path
           d="m 340.279,271.381 c -0.147,-0.016 -0.292,-0.037 -0.451,-0.045 -0.056,-0.002 -0.148,0.029 -0.222,0.045 0.146,0.018 0.293,0.035 0.434,0.052 0.091,-0.02 0.165,-0.036 0.239,-0.052 z"
           id="path189"
           inkscape:connector-curvature="0"
           style="fill:#cee3ce" /><path
           d="m 339.268,283.768 c 0.075,-0.018 0.225,-0.037 0.21,-0.049 -0.034,-0.033 -0.135,-0.064 -0.21,-0.097 -0.076,0.016 -0.149,0.032 -0.241,0.052 0.079,0.03 0.159,0.061 0.241,0.094 z"
           id="path191"
           inkscape:connector-curvature="0"
           style="fill:#cee3ce" /><path
           d="m 339.367,281.615 c -0.143,0.016 -0.29,0.033 -0.436,0.051 0.075,0.017 0.165,0.049 0.222,0.045 0.157,-0.007 0.303,-0.028 0.453,-0.045 -0.075,-0.016 -0.15,-0.032 -0.239,-0.051 z"
           id="path193"
           inkscape:connector-curvature="0"
           style="fill:#cee3ce" /><path
           d="m 322.081,280.325 c -0.003,0.036 0.204,0.073 0.315,0.11 0.113,-0.037 0.322,-0.074 0.317,-0.11 -0.009,-0.062 -0.148,-0.124 -0.317,-0.244 -0.168,0.122 -0.308,0.183 -0.315,0.244 z"
           id="path195"
           inkscape:connector-curvature="0"
           style="fill:#cee3ce" /><path
           d="m 337.808,303.201 0,0.078 c 0.038,0.015 0.073,0.029 0.111,0.044 0.073,-0.017 0.222,-0.036 0.21,-0.048 -0.034,-0.033 -0.137,-0.065 -0.21,-0.098 -0.035,0.009 -0.075,0.017 -0.111,0.024 z"
           id="path197"
           inkscape:connector-curvature="0"
           style="fill:#cee3ce" /><path
           d="m 322.861,296.997 c 0.037,0.034 0.137,0.065 0.212,0.097 0.075,-0.016 0.149,-0.031 0.239,-0.051 -0.078,-0.031 -0.158,-0.063 -0.239,-0.094 -0.075,0.016 -0.226,0.035 -0.212,0.048 z"
           id="path199"
           inkscape:connector-curvature="0"
           style="fill:#cee3ce" /><path
           d="m 323.284,264.693 c 0.014,-0.013 -0.136,-0.032 -0.211,-0.049 -0.083,0.032 -0.161,0.063 -0.241,0.094 0.092,0.02 0.166,0.035 0.241,0.053 0.075,-0.033 0.175,-0.064 0.211,-0.098 z"
           id="path201"
           inkscape:connector-curvature="0"
           style="fill:#cee3ce" /><path
           d="m 323.073,290.43 c -0.075,0.017 -0.226,0.036 -0.212,0.049 0.037,0.033 0.137,0.064 0.212,0.097 0.075,-0.017 0.149,-0.032 0.239,-0.052 -0.078,-0.031 -0.158,-0.062 -0.239,-0.094 z"
           id="path203"
           inkscape:connector-curvature="0"
           style="fill:#cee3ce" /><path
           d="m 326.562,304.943 c -0.158,0.008 -0.303,0.029 -0.453,0.045 0.074,0.017 0.15,0.032 0.24,0.053 0.14,-0.018 0.289,-0.035 0.434,-0.053 -0.074,-0.015 -0.165,-0.047 -0.221,-0.045 z"
           id="path205"
           inkscape:connector-curvature="0"
           style="fill:#cee3ce" /><path
           d="m 338.931,298.465 c 0,-0.021 0.04,-0.053 -0.013,-0.064 -0.053,-0.011 -0.237,-0.013 -0.297,-0.001 -0.283,0.054 -0.549,0.111 -0.813,0.169 l 0,0.077 c 0.126,0.018 0.255,0.041 0.386,0.041 0.676,-0.001 0.745,-0.027 0.737,-0.222 z"
           id="path207"
           inkscape:connector-curvature="0"
           style="fill:#cee3ce" /><path
           d="m 323.748,302.02 c 0.078,-0.031 0.162,-0.063 0.239,-0.094 -0.09,-0.02 -0.165,-0.035 -0.239,-0.051 -0.075,0.031 -0.176,0.063 -0.211,0.097 -0.013,0.011 0.135,0.032 0.211,0.048 z"
           id="path209"
           inkscape:connector-curvature="0"
           style="fill:#cee3ce" /><path
           d="m 323.863,269.453 c -0.16,0.008 -0.303,0.029 -0.454,0.045 0.076,0.016 0.151,0.032 0.241,0.051 0.14,-0.016 0.287,-0.033 0.434,-0.051 -0.075,-0.016 -0.166,-0.049 -0.221,-0.045 z"
           id="path211"
           inkscape:connector-curvature="0"
           style="fill:#cee3ce" /><path
           d="m 306.086,305.034 c 0.158,-0.007 0.303,-0.029 0.451,-0.046 -0.074,-0.016 -0.148,-0.031 -0.239,-0.051 -0.142,0.017 -0.288,0.033 -0.435,0.051 0.075,0.017 0.167,0.049 0.223,0.046 z"
           id="path213"
           inkscape:connector-curvature="0"
           style="fill:#cee3ce" /><path
           d="m 307.067,305.844 c -0.151,0.095 -0.363,0.186 -0.519,0.28 -0.023,0.014 0.082,0.041 0.154,0.057 0.058,0.013 0.153,0.019 0.233,0.027 0.06,-0.013 0.125,-0.026 0.192,-0.038 -0.018,-0.109 -0.04,-0.217 -0.06,-0.326 z"
           id="path215"
           inkscape:connector-curvature="0"
           style="fill:#cee3ce" /></g><path
         d="m 339.119,281.884 c 0.035,-0.017 0.102,-0.036 0.096,-0.048 -0.018,-0.034 -0.061,-0.065 -0.096,-0.097 -0.033,0.016 -0.1,0.034 -0.095,0.047 0.016,0.034 0.061,0.066 0.095,0.098 z m -0.053,-19.095 c -0.153,0.055 -0.154,0.209 0.01,0.233 0.049,0.007 0.151,-0.065 0.217,-0.095 -0.056,-0.063 -0.086,-0.104 -0.129,-0.142 -0.006,-0.006 -0.075,-0.004 -0.098,0.004 z m 0.484,-3.274 c -0.048,-0.028 -0.088,-0.06 -0.146,-0.083 -0.028,-0.01 -0.105,-0.01 -0.129,0 -0.021,0.012 -0.023,0.049 -10e-4,0.062 0.049,0.027 0.114,0.05 0.18,0.065 0.011,0.004 0.06,-0.028 0.096,-0.044 z m -0.483,2.93 c 0.072,-0.008 0.137,-0.029 0.205,-0.045 -0.035,-0.018 -0.068,-0.032 -0.108,-0.053 -0.064,0.018 -0.129,0.035 -0.196,0.053 0.033,0.016 0.075,0.047 0.099,0.045 z m 6.073,14.92 c 0.071,-0.007 0.137,-0.029 0.205,-0.045 -0.035,-0.016 -0.076,-0.048 -0.102,-0.045 -0.071,0.008 -0.136,0.029 -0.203,0.045 0.036,0.016 0.075,0.048 0.1,0.045 z m -5.976,-12.696 c -0.006,-0.007 -0.074,-0.005 -0.098,0.003 -0.153,0.055 -0.154,0.209 0.01,0.233 0.049,0.007 0.151,-0.065 0.217,-0.095 -0.056,-0.062 -0.086,-0.103 -0.129,-0.141 z m -0.045,7.653 c -0.051,0.037 -0.147,0.076 -0.142,0.109 0.016,0.063 0.091,0.121 0.142,0.181 0.052,-0.06 0.103,-0.12 0.153,-0.18 -0.051,-0.036 -0.102,-0.073 -0.153,-0.11 z m -0.147,-13.329 c 0.022,0.011 0.1,0.011 0.127,0.001 0.058,-0.023 0.103,-0.055 0.138,-0.086 0.007,-0.005 -0.058,-0.029 -0.092,-0.045 -0.06,0.021 -0.127,0.041 -0.174,0.069 -0.022,0.013 -0.021,0.05 10e-4,0.061 z m 0.2,8.142 c -0.073,0.008 -0.138,0.029 -0.205,0.045 0.034,0.017 0.076,0.049 0.1,0.046 0.072,-0.007 0.137,-0.029 0.205,-0.046 -0.035,-0.016 -0.075,-0.047 -0.1,-0.045 z m 0.295,29.546 c -0.063,0.017 -0.131,0.034 -0.195,0.052 0.033,0.016 0.074,0.047 0.1,0.045 0.07,-0.008 0.136,-0.029 0.203,-0.045 -0.033,-0.018 -0.068,-0.034 -0.108,-0.052 z m -0.195,-12.949 c -0.051,-0.037 -0.102,-0.074 -0.153,-0.11 -0.051,0.06 -0.126,0.118 -0.142,0.181 -0.006,0.033 0.091,0.072 0.142,0.109 0.052,-0.037 0.11,-0.072 0.149,-0.111 0.02,-0.019 0.004,-0.046 0.004,-0.069 z m 0.043,20.077 c 0.035,0.031 0.071,0.063 0.108,0.094 0.034,-0.016 0.1,-0.036 0.095,-0.048 -0.017,-0.034 -0.061,-0.065 -0.095,-0.097 -0.034,0.015 -0.067,0.031 -0.108,0.051 z m -0.651,-38.147 c 0,-0.088 0.02,-0.137 -0.006,-0.182 -0.023,-0.039 -0.095,-0.074 -0.146,-0.111 -0.051,0.037 -0.132,0.072 -0.145,0.111 -0.024,0.07 -0.024,0.143 0,0.212 0.013,0.04 0.094,0.075 0.145,0.111 0.062,-0.057 0.123,-0.115 0.152,-0.141 z m 0.36,31.529 c -0.005,0.012 0.062,0.031 0.095,0.047 0.037,-0.031 0.073,-0.063 0.108,-0.093 -0.04,-0.019 -0.073,-0.036 -0.108,-0.052 -0.034,0.034 -0.079,0.063 -0.095,0.098 z m -0.767,-12.53 c -0.071,0.011 -0.188,0.033 -0.19,0.055 -0.022,0.093 -0.015,0.188 -0.006,0.282 0.002,0.018 0.076,0.051 0.099,0.047 0.071,-0.012 0.17,-0.029 0.191,-0.056 0.032,-0.041 0.009,-0.093 0.009,-0.14 0,-0.047 0.011,-0.095 -0.005,-0.141 -0.006,-0.019 -0.075,-0.05 -0.098,-0.047 z m 0.208,-1.932 c 0.026,0.006 0.077,0.005 0.101,-0.004 0.153,-0.053 0.146,-0.195 -0.006,-0.238 -0.034,0 -0.079,-0.004 -0.103,0.004 -0.151,0.054 -0.147,0.197 0.008,0.238 z m 1.717,17.914 c -0.034,-0.016 -0.075,-0.048 -0.099,-0.045 -0.072,0.008 -0.138,0.029 -0.206,0.045 0.034,0.016 0.076,0.048 0.101,0.045 0.072,-0.006 0.137,-0.03 0.204,-0.045 z m -0.759,-10.938 c -0.034,0.018 -0.101,0.037 -0.096,0.049 0.017,0.033 0.062,0.064 0.096,0.097 0.034,-0.016 0.067,-0.032 0.107,-0.052 -0.034,-0.029 -0.071,-0.062 -0.107,-0.094 z m -0.59,-30.709 c -0.1,0.034 -0.224,0.076 -0.041,0.127 0.023,0.007 0.115,-0.041 0.175,-0.063 0,-0.021 0.019,-0.052 -0.006,-0.063 -0.022,-0.011 -0.096,-0.011 -0.128,-0.001 z m 0.634,30.442 c -0.063,0.017 -0.131,0.034 -0.195,0.052 0.033,0.016 0.074,0.047 0.1,0.045 0.07,-0.008 0.136,-0.029 0.203,-0.045 -0.033,-0.017 -0.068,-0.033 -0.108,-0.052 z m 0.401,4.215 c -0.014,-0.063 -0.092,-0.121 -0.142,-0.181 -0.05,0.06 -0.1,0.12 -0.151,0.18 0.05,0.037 0.102,0.074 0.151,0.109 0.05,-0.035 0.149,-0.074 0.142,-0.108 z m -0.142,-28.138 c 0.037,-0.032 0.073,-0.063 0.109,-0.095 -0.041,-0.019 -0.074,-0.034 -0.109,-0.051 -0.034,0.032 -0.077,0.063 -0.094,0.098 -0.006,0.012 0.06,0.031 0.094,0.048 z m -0.303,37.808 c -0.034,0.016 -0.101,0.035 -0.096,0.048 0.017,0.033 0.062,0.064 0.096,0.098 0.034,-0.017 0.067,-0.033 0.107,-0.053 -0.034,-0.029 -0.071,-0.062 -0.107,-0.093 z m 0.412,-39.061 c -0.041,-0.02 -0.074,-0.035 -0.109,-0.051 -0.034,0.031 -0.077,0.063 -0.094,0.097 -0.006,0.013 0.06,0.031 0.094,0.048 0.037,-0.032 0.073,-0.063 0.109,-0.094 z m -0.16,2.294 c -0.025,-0.003 -0.066,0.028 -0.101,0.046 0.066,0.018 0.132,0.033 0.195,0.051 0.042,-0.02 0.074,-0.035 0.107,-0.051 -0.064,-0.018 -0.129,-0.039 -0.201,-0.046 z m -0.955,10.74 c 0.016,0.034 0.063,0.065 0.096,0.097 0.032,-0.016 0.101,-0.035 0.094,-0.047 -0.015,-0.035 -0.062,-0.065 -0.094,-0.098 -0.033,0.016 -0.1,0.036 -0.096,0.048 z m 0.003,19.463 c 0.021,0.017 0.075,0.041 0.102,0.037 0.041,-0.005 0.094,-0.028 0.103,-0.048 0.026,-0.066 0.035,-0.135 0.056,-0.216 -0.021,-0.079 -0.007,-0.179 -0.085,-0.257 -0.038,-0.037 -0.252,-0.04 -0.387,-0.045 -0.026,-0.002 -0.093,0.09 -0.09,0.09 0.404,0.102 0.14,0.304 0.301,0.439 z m 0.093,-19.945 c -0.033,0.016 -0.068,0.031 -0.107,0.051 0.034,0.029 0.07,0.063 0.107,0.094 0.032,-0.017 0.101,-0.037 0.094,-0.048 -0.015,-0.034 -0.062,-0.065 -0.094,-0.097 z m -0.304,11.299 c 0.051,-0.037 0.146,-0.074 0.143,-0.111 -0.005,-0.061 -0.067,-0.122 -0.143,-0.244 -0.075,0.122 -0.14,0.184 -0.142,0.244 -0.002,0.037 0.091,0.074 0.142,0.111 z m 0.348,7.366 c 0.04,-0.02 0.074,-0.035 0.107,-0.052 -0.067,-0.016 -0.132,-0.037 -0.203,-0.045 -0.026,-0.002 -0.066,0.029 -0.101,0.045 0.067,0.018 0.133,0.036 0.197,0.052 z m -0.044,-34.889 c -0.033,0.031 -0.08,0.063 -0.096,0.097 -0.004,0.011 0.063,0.031 0.096,0.048 0.035,-0.031 0.073,-0.063 0.107,-0.094 -0.039,-0.02 -0.075,-0.036 -0.107,-0.051 z m 0.348,15.955 c -0.064,0.016 -0.129,0.033 -0.196,0.051 0.034,0.017 0.076,0.049 0.1,0.046 0.072,-0.009 0.137,-0.029 0.205,-0.046 -0.036,-0.016 -0.069,-0.032 -0.109,-0.051 z m 3.752,-17.767 c -0.067,-0.017 -0.133,-0.035 -0.195,-0.052 -0.042,0.02 -0.075,0.035 -0.108,0.052 0.066,0.017 0.133,0.038 0.203,0.046 0.024,0.002 0.066,-0.029 0.1,-0.046 z m 3.092,9.102 c 0.017,0.034 0.062,0.064 0.095,0.097 0.033,-0.016 0.102,-0.035 0.096,-0.047 -0.017,-0.035 -0.063,-0.065 -0.096,-0.098 -0.033,0.016 -0.1,0.036 -0.095,0.048 z m -3.534,-5.546 c -0.055,0.03 -0.137,0.057 -0.16,0.092 -0.028,0.041 -0.006,0.09 -0.006,0.145 0.005,0.037 -0.019,0.09 0.022,0.124 0.038,0.032 0.153,0.067 0.223,0.063 0.124,-0.01 0.28,-0.032 0.354,-0.075 0.088,-0.054 -0.071,-0.05 -0.12,-0.073 -0.115,-0.055 -0.142,-0.148 -0.214,-0.227 -0.017,-0.02 -0.066,-0.031 -0.099,-0.049 z m -0.873,0.021 c -0.072,0.007 -0.136,0.027 -0.205,0.045 0.035,0.016 0.069,0.031 0.109,0.051 0.063,-0.016 0.129,-0.033 0.194,-0.051 -0.033,-0.017 -0.073,-0.048 -0.098,-0.045 z m 0.404,44.079 c 0,-0.047 0.008,-0.095 -0.006,-0.141 -0.006,-0.019 -0.061,-0.037 -0.102,-0.049 -0.025,-0.007 -0.09,-0.004 -0.099,0.004 -0.137,0.111 -0.122,0.263 -0.392,0.34 0.079,0.021 0.154,0.062 0.236,0.063 0.304,0.011 0.358,-0.027 0.363,-0.217 z m -0.457,-1.082 c 0.034,-0.017 0.101,-0.037 0.096,-0.049 -0.017,-0.033 -0.062,-0.064 -0.096,-0.096 -0.033,0.016 -0.068,0.031 -0.107,0.051 0.034,0.03 0.07,0.062 0.107,0.094 z m 4.404,-46.864 c -0.068,-0.016 -0.134,-0.037 -0.203,-0.045 -0.026,-0.004 -0.067,0.029 -0.101,0.045 0.066,0.018 0.133,0.035 0.195,0.052 0.04,-0.019 0.074,-0.036 0.109,-0.052 z m -0.76,23.54 c 0.034,-0.017 0.101,-0.036 0.095,-0.048 -0.015,-0.033 -0.061,-0.064 -0.095,-0.097 -0.033,0.016 -0.101,0.036 -0.095,0.047 0.017,0.035 0.062,0.066 0.095,0.098 z m -3.902,-3.02 c -0.064,0.016 -0.13,0.033 -0.196,0.051 0.033,0.016 0.074,0.048 0.1,0.045 0.071,-0.007 0.137,-0.029 0.203,-0.045 -0.033,-0.016 -0.067,-0.032 -0.107,-0.051 z m 3.955,-21.578 c -0.072,0.007 -0.137,0.029 -0.204,0.045 0.035,0.016 0.067,0.031 0.108,0.051 0.063,-0.016 0.129,-0.033 0.196,-0.051 -0.035,-0.016 -0.076,-0.048 -0.1,-0.045 z m 1.002,19.166 c 0,-0.016 -0.057,-0.043 -0.097,-0.048 -0.139,-0.015 -0.281,-0.021 -0.318,-0.023 -0.154,0 -0.213,-0.009 -0.252,0.001 -0.084,0.019 -0.158,0.047 -0.234,0.07 0.076,0.024 0.152,0.067 0.232,0.068 0.189,0.005 0.383,-0.008 0.572,-0.02 0.038,-0.002 0.097,-0.031 0.097,-0.048 z m -0.719,8.893 c 0.011,0.003 0.061,-0.028 0.097,-0.045 -0.049,-0.028 -0.091,-0.06 -0.147,-0.083 -0.027,-0.01 -0.106,-0.01 -0.128,0.001 -0.022,0.011 -0.023,0.048 -0.002,0.061 0.046,0.028 0.113,0.05 0.18,0.066 z m -0.308,4.056 c 0.264,-0.111 0.553,-0.218 0.428,-0.416 0,-0.051 0.019,-0.102 -0.005,-0.146 -0.031,-0.061 -0.271,-0.007 -0.277,0.113 -0.011,0.156 -0.435,0.209 -0.324,0.372 0.015,0.021 0.043,0.041 0.077,0.056 0.025,0.011 0.089,0.026 0.101,0.021 z m 0.579,-3.896 c -0.033,0.032 -0.078,0.063 -0.095,0.098 -0.006,0.012 0.062,0.032 0.095,0.048 0.037,-0.031 0.073,-0.063 0.109,-0.094 -0.04,-0.019 -0.075,-0.035 -0.109,-0.052 z m -0.018,3.33 c 0.056,-0.022 0.103,-0.054 0.137,-0.085 0.007,-0.006 -0.058,-0.029 -0.094,-0.046 -0.058,0.022 -0.125,0.042 -0.172,0.069 -0.021,0.014 -0.021,0.051 0.002,0.062 0.022,0.011 0.1,0.011 0.127,0 z m -5.095,-31.264 c -0.034,0.001 -0.079,-0.004 -0.103,0.004 -0.152,0.055 -0.148,0.199 0.007,0.238 0.025,0.008 0.078,0.006 0.102,-0.004 0.151,-0.053 0.147,-0.195 -0.006,-0.238 z M 340.334,280 c 0.033,-0.031 0.079,-0.063 0.094,-0.098 0.007,-0.012 -0.061,-0.031 -0.094,-0.047 -0.037,0.031 -0.073,0.063 -0.107,0.094 0.039,0.02 0.073,0.035 0.107,0.051 z m 0.107,-0.383 c -0.04,-0.02 -0.073,-0.035 -0.106,-0.052 -0.034,0.032 -0.08,0.063 -0.095,0.098 -0.006,0.013 0.061,0.031 0.095,0.048 0.035,-0.031 0.073,-0.063 0.106,-0.094 z m -18.778,-18.386 c 0.049,0.027 0.113,0.049 0.18,0.065 0.011,0.004 0.062,-0.027 0.096,-0.044 -0.047,-0.028 -0.088,-0.061 -0.146,-0.083 -0.027,-0.01 -0.104,-0.01 -0.127,0.001 -0.023,0.011 -0.025,0.049 -0.003,0.061 z m 18.713,29.179 c 0.042,-0.021 0.076,-0.036 0.109,-0.053 -0.067,-0.016 -0.133,-0.037 -0.203,-0.045 -0.025,-0.002 -0.067,0.029 -0.101,0.045 0.068,0.018 0.133,0.036 0.195,0.053 z m 0.209,-16.757 c -0.024,-0.003 -0.065,0.03 -0.1,0.046 0.066,0.018 0.132,0.035 0.196,0.051 0.039,-0.02 0.072,-0.035 0.107,-0.051 -0.067,-0.015 -0.131,-0.038 -0.203,-0.046 z m 0.711,4.925 c -0.07,0.008 -0.136,0.029 -0.203,0.047 0.033,0.016 0.067,0.031 0.108,0.051 0.063,-0.017 0.129,-0.033 0.194,-0.051 -0.031,-0.018 -0.072,-0.049 -0.099,-0.047 z m -0.557,-21.515 c 0.026,-0.041 0.035,-0.086 0.051,-0.129 -0.05,-0.037 -0.101,-0.074 -0.151,-0.111 -0.051,0.037 -0.149,0.076 -0.143,0.109 0.015,0.063 0.092,0.121 0.143,0.181 0.033,-0.017 0.086,-0.031 0.1,-0.05 z m 0.202,8.017 c -0.033,0.016 -0.102,0.035 -0.095,0.047 0.017,0.034 0.062,0.065 0.095,0.098 0.034,-0.016 0.068,-0.032 0.109,-0.052 -0.036,-0.03 -0.072,-0.062 -0.109,-0.093 z m 0.304,14.341 c 0.034,-0.017 0.102,-0.036 0.097,-0.048 -0.019,-0.033 -0.063,-0.064 -0.097,-0.097 -0.033,0.016 -0.102,0.036 -0.095,0.048 0.017,0.033 0.061,0.065 0.095,0.097 z m -0.208,-6.182 c 0.005,-0.011 -0.062,-0.031 -0.096,-0.048 -0.037,0.031 -0.073,0.063 -0.107,0.094 0.04,0.02 0.074,0.036 0.107,0.052 0.034,-0.032 0.079,-0.064 0.096,-0.098 z m 0.013,14.056 c -0.041,-0.02 -0.075,-0.035 -0.109,-0.051 -0.033,0.031 -0.078,0.063 -0.095,0.096 -0.007,0.014 0.062,0.032 0.095,0.049 0.037,-0.032 0.073,-0.063 0.109,-0.094 z m -0.057,-30.735 c -0.07,0.007 -0.136,0.03 -0.203,0.046 0.033,0.016 0.075,0.048 0.101,0.045 0.07,-0.008 0.136,-0.029 0.203,-0.045 -0.035,-0.016 -0.076,-0.048 -0.101,-0.046 z m -0.451,43.768 c 0.018,0.034 0.062,0.065 0.097,0.098 0.033,-0.016 0.066,-0.032 0.106,-0.052 -0.034,-0.03 -0.07,-0.062 -0.106,-0.093 -0.036,0.016 -0.101,0.035 -0.097,0.047 z m 0.043,-15.086 c -0.024,-0.002 -0.065,0.029 -0.1,0.045 0.066,0.019 0.132,0.035 0.196,0.053 0.039,-0.02 0.072,-0.036 0.107,-0.053 -0.067,-0.016 -0.131,-0.037 -0.203,-0.045 z m 0,-5.939 c -0.024,-0.002 -0.065,0.029 -0.1,0.046 0.066,0.018 0.132,0.035 0.196,0.052 0.039,-0.02 0.072,-0.035 0.107,-0.052 -0.067,-0.017 -0.131,-0.038 -0.203,-0.046 z m -1.319,-19.875 c 0.021,-0.01 0.022,-0.047 0.002,-0.061 -0.071,-0.048 -0.157,-0.107 -0.265,-0.021 -0.014,0.012 0.086,0.055 0.133,0.084 0.046,10e-4 0.108,0.008 0.13,-0.002 z m -15.69,17.238 c 0.014,10e-4 0.03,10e-4 0.038,0.004 0.059,0.022 0.099,0.055 0.006,0.041 0.105,0.059 0.056,0.09 0.044,0.087 -0.064,-0.018 -0.131,-0.039 -0.178,-0.065 -0.012,-0.007 0,-0.018 0,-0.03 -0.271,-0.015 -0.319,0.056 -0.305,0.14 0.013,0.074 0.102,0.122 0.276,0.117 0.096,-0.003 0.192,-0.002 0.29,0 0.229,0.004 0.345,-0.041 0.344,-0.156 -0.002,-0.131 -0.017,-0.168 -0.307,-0.424 -0.101,0.031 -0.25,0.053 -0.292,0.096 -0.041,0.045 -0.005,0.109 0.084,0.19 z m 0.502,-0.948 c -0.336,0.121 -0.31,0.281 -0.294,0.446 0.006,0.072 0.001,0.143 0.001,0.215 0.049,0 0.112,0.01 0.146,-0.002 0.205,-0.061 0.136,-0.16 0.164,-0.25 0.02,-0.063 0.062,-0.139 0.152,-0.179 0.173,-0.077 0.16,-0.168 0.139,-0.257 -0.018,-0.063 -0.092,-0.123 -0.155,-0.181 -0.01,-0.009 -0.093,-10e-4 -0.142,-10e-4 0,0.071 0.062,0.182 -0.011,0.209 z m 1.586,19.251 c 0.017,0.033 0.062,0.064 0.095,0.097 0.034,-0.015 0.101,-0.035 0.096,-0.047 -0.017,-0.034 -0.062,-0.065 -0.096,-0.097 -0.034,0.016 -0.101,0.035 -0.095,0.047 z m -2.088,-18.303 c -0.034,-0.003 -0.073,-0.002 -0.09,0.006 -0.012,0.005 0,0.018 0,0.03 0.043,0.002 0.078,10e-4 0.134,0.009 -0.023,-0.018 -0.027,-0.029 -0.044,-0.045 z m 0.916,8.522 c 0.072,-0.007 0.137,-0.029 0.203,-0.045 -0.033,-0.016 -0.066,-0.031 -0.107,-0.051 -0.063,0.017 -0.129,0.034 -0.195,0.051 0.033,0.015 0.074,0.047 0.099,0.045 z m -0.403,-9.678 c 0,-0.049 0,-0.097 0,-0.145 -0.085,0.016 -0.23,0.025 -0.241,0.049 -0.042,0.086 0.092,0.102 0.241,0.096 z m 0.056,14.678 c 0.017,0.035 0.062,0.066 0.095,0.098 0.035,-0.016 0.068,-0.031 0.108,-0.051 -0.035,-0.031 -0.071,-0.063 -0.108,-0.094 -0.033,0.015 -0.1,0.035 -0.095,0.047 z m 0.208,-15.206 c -0.04,-0.012 -0.068,-0.031 -0.102,-0.047 -0.054,0.03 -0.15,0.061 -0.155,0.092 -0.019,0.112 -0.007,0.226 -0.007,0.338 0.331,-0.035 0.533,-0.133 0.605,-0.289 -0.114,-0.031 -0.23,-0.06 -0.341,-0.094 z m 2.772,-4.615 c -0.034,-0.016 -0.068,-0.032 -0.108,-0.052 -0.063,0.017 -0.13,0.034 -0.195,0.052 0.034,0.016 0.075,0.048 0.1,0.046 0.072,-0.009 0.135,-0.03 0.203,-0.046 z m -0.715,17.042 c -0.064,0.017 -0.129,0.034 -0.196,0.052 0.033,0.016 0.076,0.048 0.101,0.045 0.071,-0.008 0.136,-0.029 0.203,-0.045 -0.034,-0.017 -0.067,-0.033 -0.108,-0.052 z m 0.271,-28.992 c -0.041,0.007 -0.086,0.026 -0.101,0.044 -0.031,0.039 -0.067,0.083 -0.056,0.122 0.01,0.039 0.077,0.073 0.119,0.11 0.06,-0.025 0.147,-0.045 0.17,-0.076 0.029,-0.039 0.008,-0.09 0.008,-0.133 0.048,-0.068 -0.001,-0.091 -0.14,-0.067 z m -0.771,18.47 c 0.066,0.018 0.133,0.034 0.197,0.051 0.04,-0.02 0.073,-0.035 0.106,-0.051 -0.066,-0.017 -0.131,-0.039 -0.203,-0.046 -0.025,-0.003 -0.066,0.029 -0.1,0.046 z m 0.457,-16.153 c -0.034,0.016 -0.102,0.035 -0.096,0.047 0.016,0.035 0.062,0.065 0.096,0.098 0.033,-0.017 0.066,-0.032 0.106,-0.051 -0.034,-0.031 -0.071,-0.062 -0.106,-0.094 z m -0.609,15.645 c -0.033,0.032 -0.078,0.063 -0.095,0.098 -0.006,0.012 0.062,0.031 0.095,0.048 0.036,-0.032 0.073,-0.063 0.108,-0.094 -0.039,-0.02 -0.074,-0.036 -0.108,-0.052 z m 0.609,11.734 c 0.033,-0.033 0.078,-0.064 0.095,-0.098 0.005,-0.012 -0.062,-0.032 -0.095,-0.049 -0.038,0.032 -0.073,0.064 -0.107,0.095 0.038,0.019 0.073,0.036 0.107,0.052 z m -2.626,-10.916 c -0.034,-0.031 -0.071,-0.063 -0.107,-0.094 -0.034,0.016 -0.101,0.035 -0.095,0.047 0.015,0.034 0.061,0.065 0.095,0.098 0.032,-0.016 0.067,-0.032 0.107,-0.051 z m -3.026,15.319 c 0.006,-0.004 -0.059,-0.028 -0.095,-0.045 -0.057,0.022 -0.126,0.042 -0.171,0.07 -0.022,0.012 -0.005,0.041 -0.005,0.063 0.045,0 0.105,0.009 0.132,-0.002 0.057,-0.024 0.103,-0.054 0.139,-0.086 z m -0.575,0.377 c 0.102,-0.03 0.251,-0.053 0.292,-0.096 0.051,-0.055 0.013,-0.128 0.013,-0.193 -0.102,0.031 -0.251,0.053 -0.291,0.096 -0.051,0.054 -0.014,0.128 -0.014,0.193 z m 0.905,0.98 c -0.009,-0.038 -0.092,-0.072 -0.142,-0.109 -0.035,0.016 -0.069,0.031 -0.104,0.047 -0.07,0.032 -0.146,0.063 -0.204,0.1 -0.044,0.027 -0.064,0.064 -0.094,0.096 0.084,0.016 0.167,0.031 0.251,0.046 0.237,-0.008 0.324,-0.055 0.293,-0.18 z m 0.21,-24.42 c -0.071,0.008 -0.137,0.029 -0.203,0.045 0.034,0.016 0.074,0.049 0.1,0.045 0.07,-0.007 0.137,-0.029 0.203,-0.045 -0.033,-0.016 -0.074,-0.049 -0.1,-0.045 z m -0.355,19.674 c 0.036,-0.031 0.074,-0.063 0.107,-0.094 -0.039,-0.02 -0.074,-0.035 -0.107,-0.051 -0.033,0.031 -0.079,0.063 -0.096,0.096 -0.005,0.013 0.063,0.032 0.096,0.049 z m 0.152,-28.461 c 0.004,-0.194 -0.028,-0.22 -0.332,-0.219 -0.08,0 -0.159,0.031 -0.234,0.053 -0.009,0.002 0.003,0.034 0.022,0.045 0.124,0.068 0.254,0.133 0.363,0.189 0.086,0 0.151,0.008 0.175,-0.003 0.024,-0.011 0.006,-0.042 0.006,-0.065 z m 14.672,24.866 c -0.15,0.054 -0.146,0.198 0.009,0.238 0.024,0.007 0.077,0.005 0.101,-0.003 0.151,-0.054 0.146,-0.197 -0.007,-0.239 -0.034,10e-4 -0.078,-0.005 -0.103,0.004 z m -8.752,-27.696 c -0.033,0.017 -0.065,0.033 -0.106,0.053 0.035,0.03 0.071,0.062 0.106,0.093 0.035,-0.017 0.102,-0.036 0.096,-0.048 -0.017,-0.034 -0.061,-0.065 -0.096,-0.098 z m -2.886,42.875 c -0.021,-0.042 -0.051,-0.104 -0.11,-0.115 -0.127,-0.024 -0.276,-0.022 -0.463,-0.035 -0.095,0.023 -0.253,0.04 -0.322,0.086 -0.052,0.035 0.533,0.227 0.68,0.211 0.149,-0.016 0.255,-0.064 0.215,-0.147 z M 323.579,289.1 c 0.023,0.008 0.092,0.009 0.099,0.002 0.043,-0.037 0.074,-0.077 0.128,-0.141 -0.064,-0.029 -0.167,-0.102 -0.216,-0.095 -0.165,0.026 -0.164,0.18 -0.011,0.234 z m 0.357,18.279 c 0.037,-0.031 0.074,-0.063 0.108,-0.094 -0.04,-0.019 -0.073,-0.035 -0.108,-0.051 -0.033,0.032 -0.079,0.063 -0.095,0.098 -0.005,0.012 0.062,0.031 0.095,0.047 z m -2.624,-20.519 c -0.04,-0.02 -0.074,-0.035 -0.108,-0.052 -0.034,0.032 -0.079,0.063 -0.096,0.098 -0.005,0.012 0.062,0.031 0.096,0.047 0.037,-0.031 0.072,-0.062 0.108,-0.093 z m -0.014,-11.448 c 0.006,-0.012 -0.061,-0.031 -0.095,-0.047 -0.036,0.031 -0.073,0.063 -0.108,0.093 0.042,0.02 0.074,0.036 0.108,0.052 0.035,-0.032 0.081,-0.063 0.095,-0.098 z m 1.328,22.454 c 0.017,0.034 0.061,0.063 0.096,0.097 0.034,-0.016 0.066,-0.033 0.107,-0.051 -0.034,-0.031 -0.07,-0.063 -0.107,-0.094 -0.035,0.016 -0.1,0.036 -0.096,0.048 z m -0.055,-35.539 c 0.21,0.005 0.312,-0.044 0.304,-0.145 -0.211,-0.002 -0.313,0.045 -0.304,0.145 z m -1.564,9.075 c -0.033,-0.03 -0.071,-0.063 -0.107,-0.094 -0.033,0.016 -0.101,0.036 -0.096,0.048 0.017,0.034 0.063,0.065 0.096,0.098 0.033,-0.016 0.068,-0.032 0.107,-0.052 z m 7.884,13.186 c -0.018,-0.033 -0.062,-0.064 -0.097,-0.098 -0.032,0.017 -0.101,0.037 -0.094,0.049 0.016,0.033 0.061,0.064 0.094,0.097 0.036,-0.017 0.102,-0.036 0.097,-0.048 z m 0.302,-3.041 c -0.015,-0.034 -0.06,-0.066 -0.094,-0.098 -0.034,0.016 -0.101,0.035 -0.096,0.048 0.017,0.034 0.062,0.064 0.096,0.097 0.034,-0.016 0.101,-0.035 0.094,-0.047 z m -0.147,0.943 c -0.024,-0.002 -0.066,0.029 -0.1,0.045 0.066,0.018 0.133,0.035 0.195,0.053 0.042,-0.02 0.074,-0.037 0.108,-0.053 -0.065,-0.015 -0.13,-0.037 -0.203,-0.045 z m -1.009,-15.888 c 0.067,0.016 0.132,0.037 0.203,0.045 0.025,0.002 0.066,-0.029 0.1,-0.045 -0.064,-0.018 -0.132,-0.035 -0.195,-0.053 -0.041,0.019 -0.075,0.035 -0.108,0.053 z m -0.296,-3.758 c -0.048,0.026 -0.04,0.098 -0.002,0.134 0.085,0.077 0.2,0.06 0.304,-0.001 0.062,-0.035 0.138,-0.065 0.206,-0.098 0.029,-0.016 0.054,-0.033 0.079,-0.051 -0.076,-0.021 -0.154,-0.044 -0.271,-0.078 -0.097,0.027 -0.232,0.049 -0.316,0.094 z m 0.048,10.83 c 0.017,0.034 0.063,0.065 0.097,0.098 0.032,-0.016 0.1,-0.036 0.095,-0.048 -0.018,-0.034 -0.063,-0.064 -0.095,-0.097 -0.035,0.016 -0.102,0.035 -0.097,0.047 z m 0.096,-9.174 c -0.034,0.016 -0.102,0.036 -0.097,0.048 0.017,0.034 0.063,0.065 0.097,0.097 0.032,-0.016 0.066,-0.031 0.106,-0.051 -0.033,-0.031 -0.072,-0.063 -0.106,-0.094 z m 3.339,21.005 c 0.034,-0.017 0.067,-0.032 0.109,-0.052 -0.036,-0.03 -0.072,-0.063 -0.109,-0.094 -0.033,0.018 -0.1,0.037 -0.094,0.049 0.015,0.033 0.061,0.065 0.094,0.097 z m -1.561,-2.484 c 0.063,-0.017 0.13,-0.034 0.195,-0.051 -0.034,-0.017 -0.075,-0.049 -0.1,-0.046 -0.072,0.007 -0.136,0.029 -0.204,0.046 0.034,0.016 0.069,0.032 0.109,0.051 z m -2.029,12.942 c -0.023,-0.009 -0.075,-0.01 -0.102,-0.004 -0.153,0.041 -0.158,0.184 -0.007,0.238 0.023,0.008 0.068,0.004 0.103,0.004 0.153,-0.042 0.16,-0.184 0.006,-0.238 z m 7.538,-11.906 c 0.034,-0.016 0.101,-0.036 0.095,-0.048 -0.017,-0.034 -0.061,-0.065 -0.095,-0.097 -0.035,0.016 -0.067,0.031 -0.109,0.051 0.037,0.031 0.071,0.062 0.109,0.094 z m -6.537,1.537 c -0.012,-0.029 -0.108,-0.053 -0.172,-0.074 -0.01,-0.002 -0.082,0.027 -0.096,0.046 -0.057,0.089 -0.054,0.173 0.139,0.228 0.033,0.01 0.132,0.004 0.132,0.002 0.006,-0.068 0.024,-0.138 -0.003,-0.202 z m 0.564,-0.281 c 0.017,-0.104 -0.212,-0.124 -0.301,-0.193 -0.025,-0.019 -0.068,-0.033 -0.104,-0.05 -0.05,0.037 -0.136,0.07 -0.145,0.109 -0.036,0.15 0.14,0.22 0.433,0.18 0.042,-0.005 0.074,-0.027 0.117,-0.046 z m -0.277,0.566 c -0.046,-0.028 -0.09,-0.061 -0.146,-0.082 -0.028,-0.011 -0.105,-0.011 -0.128,10e-4 -0.021,0.011 -0.023,0.048 -0.002,0.06 0.048,0.027 0.114,0.049 0.181,0.066 0.011,0.003 0.06,-0.028 0.095,-0.045 z m 0.785,-3.272 c -0.037,0.031 -0.073,0.063 -0.107,0.094 0.04,0.02 0.073,0.035 0.107,0.051 0.033,-0.031 0.079,-0.063 0.094,-0.096 0.005,-0.011 -0.061,-0.032 -0.094,-0.049 z m -3.038,-19.845 c -0.033,0.033 -0.08,0.063 -0.095,0.098 -0.005,0.012 0.062,0.031 0.095,0.047 0.036,-0.031 0.073,-0.063 0.107,-0.093 -0.039,-0.019 -0.072,-0.037 -0.107,-0.052 z m 0.86,6.056 c 0.07,-0.007 0.136,-0.029 0.203,-0.045 -0.032,-0.016 -0.073,-0.048 -0.099,-0.045 -0.072,0.008 -0.138,0.029 -0.204,0.045 0.033,0.016 0.074,0.048 0.1,0.045 z m -0.043,32.235 c 0.017,0.034 0.061,0.064 0.095,0.098 0.034,-0.017 0.067,-0.033 0.108,-0.052 -0.036,-0.03 -0.071,-0.062 -0.108,-0.093 -0.035,0.015 -0.101,0.035 -0.095,0.047 z m 0.095,-25.11 c 0.034,-0.016 0.067,-0.031 0.108,-0.051 -0.036,-0.03 -0.071,-0.062 -0.108,-0.094 -0.034,0.017 -0.101,0.037 -0.095,0.049 0.015,0.034 0.06,0.065 0.095,0.096 z m 0,11.735 c 0.034,-0.031 0.078,-0.063 0.095,-0.097 0.007,-0.012 -0.061,-0.032 -0.095,-0.048 -0.037,0.031 -0.072,0.063 -0.107,0.094 0.039,0.019 0.072,0.035 0.107,0.051 z m -1.006,-10.237 c 0.015,0.033 0.062,0.064 0.095,0.096 0.034,-0.016 0.101,-0.035 0.096,-0.047 -0.017,-0.033 -0.062,-0.065 -0.096,-0.098 -0.034,0.017 -0.1,0.037 -0.095,0.049 z m 0.244,-15.435 c -0.04,-0.041 -0.097,-0.076 -0.149,-0.113 -0.051,0.037 -0.14,0.073 -0.144,0.111 -0.009,0.091 0.019,0.184 0.044,0.273 0.003,0.018 0.064,0.033 0.1,0.05 0.035,-0.017 0.092,-0.031 0.102,-0.051 0.03,-0.065 0.045,-0.134 0.051,-0.15 -10e-4,-0.075 0.014,-0.103 -0.004,-0.12 z m -0.15,0.466 c -0.033,0.032 -0.08,0.063 -0.095,0.098 -0.005,0.013 0.062,0.031 0.095,0.048 0.036,-0.031 0.073,-0.063 0.107,-0.094 -0.039,-0.02 -0.072,-0.036 -0.107,-0.052 z m 0.156,-4.058 c 0.024,0.01 0.102,0.01 0.129,0 0.058,-0.022 0.102,-0.054 0.138,-0.085 0.006,-0.005 -0.057,-0.029 -0.094,-0.046 -0.059,0.023 -0.125,0.043 -0.173,0.069 -0.023,0.014 -0.021,0.05 0,0.062 z m 0.343,42.395 c 0.041,0.02 0.074,0.035 0.108,0.052 0.034,-0.032 0.08,-0.063 0.096,-0.097 0.005,-0.013 -0.062,-0.032 -0.096,-0.049 -0.036,0.032 -0.071,0.063 -0.108,0.094 z m 0.109,-17.041 c -0.037,0.031 -0.072,0.063 -0.108,0.092 0.041,0.021 0.074,0.036 0.108,0.053 0.034,-0.032 0.08,-0.063 0.096,-0.098 0.004,-0.012 -0.062,-0.032 -0.096,-0.047 z m 0.398,-20.379 c 0.007,-0.012 -0.061,-0.031 -0.095,-0.047 -0.036,0.031 -0.072,0.063 -0.107,0.094 0.04,0.02 0.073,0.035 0.107,0.051 0.035,-0.032 0.079,-0.064 0.095,-0.098 z m -0.398,11.687 c 0.034,-0.033 0.08,-0.064 0.096,-0.098 0.005,-0.013 -0.062,-0.032 -0.096,-0.049 -0.037,0.031 -0.072,0.063 -0.108,0.094 0.04,0.02 0.074,0.037 0.108,0.053 z m 0.108,-9.903 c -0.036,-0.03 -0.072,-0.062 -0.108,-0.093 -0.034,0.016 -0.101,0.035 -0.095,0.047 0.016,0.034 0.061,0.065 0.095,0.098 0.034,-0.016 0.068,-0.033 0.108,-0.052 z m 0.196,-0.962 c 0.034,-0.033 0.078,-0.063 0.095,-0.098 0.007,-0.012 -0.061,-0.031 -0.095,-0.048 -0.037,0.032 -0.072,0.063 -0.107,0.094 0.039,0.019 0.072,0.035 0.107,0.052 z m -0.141,12.678 c 0.008,0.02 0.079,0.051 0.097,0.047 0.071,-0.014 0.165,-0.033 0.188,-0.061 0.03,-0.041 0.007,-0.092 0.007,-0.139 0,-0.094 0.006,-0.188 -0.004,-0.279 -0.002,-0.019 -0.066,-0.051 -0.091,-0.049 -0.073,0.007 -0.142,0.025 -0.207,0.043 -0.368,0.1 -0.25,0.195 -0.008,0.303 0.049,0.022 10e-4,0.09 0.018,0.135 z m 13.805,-2.683 c -0.033,0.017 -0.102,0.036 -0.095,0.048 0.018,0.033 0.062,0.064 0.095,0.097 0.034,-0.017 0.102,-0.035 0.097,-0.048 -0.019,-0.033 -0.063,-0.065 -0.097,-0.097 z m 2.68,-15.183 c -0.024,-0.004 -0.064,0.028 -0.1,0.045 0.065,0.018 0.133,0.035 0.196,0.051 0.04,-0.019 0.074,-0.035 0.107,-0.051 -0.066,-0.016 -0.131,-0.039 -0.203,-0.045 z m -1.066,11.61 c 0.006,-0.013 -0.063,-0.032 -0.096,-0.049 -0.037,0.032 -0.072,0.063 -0.108,0.094 0.042,0.02 0.074,0.035 0.108,0.052 0.033,-0.033 0.078,-0.064 0.096,-0.097 z m 0.113,11.203 c -0.006,0.012 0.061,0.031 0.095,0.048 0.036,-0.031 0.073,-0.063 0.107,-0.093 -0.04,-0.021 -0.074,-0.036 -0.107,-0.052 -0.034,0.032 -0.079,0.063 -0.095,0.097 z m 0.19,-0.579 c -0.016,-0.034 -0.062,-0.065 -0.095,-0.098 -0.034,0.017 -0.068,0.032 -0.108,0.052 0.035,0.029 0.072,0.063 0.108,0.093 0.033,-0.016 0.1,-0.035 0.095,-0.047 z m 0.023,-18.728 c 0.007,-0.005 -0.059,-0.029 -0.094,-0.045 -0.059,0.022 -0.126,0.043 -0.172,0.068 -0.021,0.014 -0.021,0.051 0.002,0.063 0.021,0.01 0.1,0.011 0.127,0 0.056,-0.023 0.101,-0.054 0.137,-0.086 z m -0.066,20.92 c 0.025,0.004 0.066,-0.028 0.101,-0.045 -0.066,-0.018 -0.134,-0.034 -0.196,-0.051 -0.04,0.02 -0.075,0.035 -0.107,0.051 0.066,0.017 0.131,0.038 0.202,0.045 z m 0.46,-13.975 c 0.017,0.034 0.062,0.064 0.095,0.097 0.034,-0.016 0.068,-0.032 0.109,-0.051 -0.035,-0.031 -0.072,-0.063 -0.109,-0.094 -0.034,0.015 -0.1,0.035 -0.095,0.048 z m 0.244,-0.981 c -0.071,-0.048 -0.158,-0.107 -0.264,-0.021 -0.015,0.012 0.085,0.055 0.131,0.084 0.046,0 0.108,0.008 0.131,-0.002 0.022,-0.011 0.022,-0.046 0.002,-0.061 z m -0.15,0.353 c -0.033,0.016 -0.1,0.036 -0.095,0.049 0.017,0.033 0.062,0.064 0.095,0.096 0.034,-0.016 0.068,-0.031 0.109,-0.051 -0.034,-0.031 -0.072,-0.063 -0.109,-0.094 z m -1.265,23.785 c -0.025,-0.004 -0.065,0.029 -0.1,0.045 0.065,0.018 0.132,0.035 0.196,0.051 0.039,-0.019 0.073,-0.035 0.107,-0.051 -0.068,-0.016 -0.132,-0.038 -0.203,-0.045 z m 1.925,-27.669 c -0.071,0.008 -0.136,0.029 -0.204,0.046 0.033,0.016 0.068,0.031 0.108,0.051 0.063,-0.017 0.129,-0.034 0.194,-0.051 -0.031,-0.017 -0.072,-0.049 -0.098,-0.046 z m -2.025,41.331 c 0.034,0.016 0.074,0.048 0.1,0.045 0.071,-0.008 0.136,-0.029 0.204,-0.045 -0.034,-0.016 -0.068,-0.032 -0.107,-0.052 -0.065,0.017 -0.131,0.034 -0.197,0.052 z m 0.499,-11.931 c -0.063,0.018 -0.13,0.034 -0.195,0.052 0.033,0.017 0.074,0.048 0.1,0.045 0.071,-0.008 0.136,-0.028 0.204,-0.045 -0.034,-0.016 -0.069,-0.032 -0.109,-0.052 z m -0.044,-9.872 c -0.034,0.033 -0.078,0.064 -0.095,0.098 -0.006,0.012 0.061,0.031 0.095,0.048 0.036,-0.031 0.072,-0.063 0.109,-0.093 -0.041,-0.02 -0.076,-0.036 -0.109,-0.053 z m -0.052,-4.897 c -0.025,-0.003 -0.066,0.029 -0.1,0.046 0.065,0.017 0.132,0.034 0.195,0.051 0.04,-0.02 0.076,-0.035 0.108,-0.051 -0.067,-0.017 -0.131,-0.039 -0.203,-0.046 z m 0,25.441 c 0.071,-0.007 0.136,-0.029 0.204,-0.046 -0.033,-0.016 -0.068,-0.031 -0.108,-0.051 -0.063,0.017 -0.13,0.033 -0.195,0.051 0.033,0.017 0.074,0.049 0.099,0.046 z m 0.608,-29.696 c 0.07,-0.008 0.136,-0.029 0.204,-0.046 -0.034,-0.017 -0.075,-0.048 -0.101,-0.045 -0.071,0.007 -0.136,0.028 -0.203,0.045 0.032,0.017 0.074,0.048 0.1,0.046 z m 0.639,-6.779 c -0.028,-0.012 -0.106,-0.01 -0.128,0 -0.021,0.011 -0.023,0.049 -0.002,0.061 0.048,0.027 0.114,0.05 0.181,0.066 0.01,0.002 0.061,-0.028 0.096,-0.045 -0.047,-0.028 -0.089,-0.061 -0.147,-0.082 z M 343.977,280 c -0.034,0.016 -0.101,0.036 -0.094,0.049 0.017,0.033 0.06,0.064 0.094,0.096 0.035,-0.016 0.068,-0.031 0.109,-0.051 -0.036,-0.031 -0.072,-0.063 -0.109,-0.094 z m 1.231,5.359 c 0.033,0.009 0.132,0.002 0.132,0 0.006,-0.066 0.023,-0.136 -0.003,-0.201 -0.011,-0.029 -0.108,-0.053 -0.174,-0.073 -0.008,-0.002 -0.08,0.027 -0.093,0.046 -0.058,0.088 -0.055,0.173 0.138,0.228 z m -0.319,-29.55 c -0.034,0.016 -0.068,0.032 -0.108,0.052 0.035,0.03 0.072,0.062 0.108,0.093 0.033,-0.016 0.1,-0.035 0.094,-0.047 -0.015,-0.036 -0.061,-0.066 -0.094,-0.098 z m -1.9,50.372 c 0.025,0.013 0.069,0.019 0.105,0.027 0.106,-0.052 0.249,-0.095 0.314,-0.155 0.143,-0.137 0.204,-0.299 0.631,-0.306 0.028,-0.001 0.108,-0.136 0.06,-0.185 -0.104,-0.107 -0.238,-0.022 -0.303,0.025 -0.142,0.103 -0.51,-0.009 -0.586,0.16 -0.058,0.13 -0.197,0.25 -0.29,0.376 -0.01,0.015 0.037,0.042 0.069,0.058 z m 2.052,-16.257 c -0.034,-0.017 -0.066,-0.032 -0.108,-0.053 -0.063,0.018 -0.129,0.035 -0.196,0.053 0.035,0.016 0.076,0.047 0.102,0.045 0.07,-0.008 0.135,-0.03 0.202,-0.045 z m -0.361,-31.41 c -0.017,-0.035 -0.062,-0.064 -0.094,-0.098 -0.035,0.017 -0.103,0.036 -0.096,0.047 0.016,0.035 0.061,0.066 0.096,0.098 0.033,-0.016 0.1,-0.036 0.094,-0.047 z m -1.461,29.382 c -0.068,-0.016 -0.134,-0.038 -0.205,-0.046 -0.024,-0.002 -0.066,0.03 -0.099,0.046 0.065,0.017 0.131,0.034 0.195,0.052 0.041,-0.02 0.075,-0.036 0.109,-0.052 z m 1.157,-21.61 c 0.005,-0.012 -0.062,-0.032 -0.095,-0.048 -0.037,0.031 -0.072,0.063 -0.107,0.094 0.04,0.02 0.073,0.035 0.107,0.052 0.034,-0.032 0.081,-0.064 0.095,-0.098 z m -0.853,16.685 c 0.065,0.017 0.132,0.034 0.195,0.051 0.041,-0.02 0.074,-0.035 0.107,-0.051 -0.066,-0.017 -0.133,-0.039 -0.204,-0.046 -0.024,-0.003 -0.065,0.029 -0.098,0.046 z m -0.204,15.834 c 0.07,-0.007 0.136,-0.029 0.204,-0.045 -0.034,-0.016 -0.068,-0.032 -0.109,-0.051 -0.063,0.016 -0.129,0.033 -0.194,0.051 0.031,0.015 0.073,0.048 0.099,0.045 z m 0.052,6.111 c 0.033,-0.016 0.067,-0.031 0.106,-0.051 -0.033,-0.03 -0.07,-0.063 -0.106,-0.094 -0.034,0.016 -0.101,0.035 -0.096,0.047 0.017,0.036 0.061,0.067 0.096,0.098 z m 0.251,-33.924 c 0.071,-0.008 0.138,-0.029 0.204,-0.045 -0.033,-0.017 -0.075,-0.049 -0.101,-0.046 -0.07,0.007 -0.135,0.029 -0.202,0.046 0.033,0.016 0.074,0.047 0.099,0.045 z m -0.251,11.76 c 0.051,-0.035 0.149,-0.075 0.142,-0.107 -0.015,-0.063 -0.091,-0.121 -0.142,-0.182 -0.05,0.061 -0.127,0.119 -0.142,0.182 -0.007,0.032 0.092,0.072 0.142,0.107 z m -0.152,-25.133 c 0.065,0.018 0.131,0.035 0.194,0.052 0.041,-0.019 0.075,-0.035 0.109,-0.052 -0.068,-0.016 -0.134,-0.037 -0.204,-0.045 -0.025,-0.002 -0.067,0.03 -0.099,0.045 z m -23.694,7.235 c 0.033,-0.041 0.01,-0.092 0.01,-0.14 0,-0.048 0.009,-0.095 -0.007,-0.141 -0.005,-0.019 -0.076,-0.051 -0.097,-0.048 -0.071,0.012 -0.188,0.033 -0.192,0.055 -0.021,0.094 -0.015,0.188 -0.004,0.283 10e-4,0.016 0.076,0.049 0.098,0.046 0.072,-0.011 0.171,-0.028 0.192,-0.055 z m -0.049,34.076 c -0.014,-0.034 -0.061,-0.065 -0.095,-0.098 -0.033,0.016 -0.1,0.036 -0.095,0.049 0.016,0.033 0.062,0.064 0.095,0.096 0.035,-0.016 0.101,-0.036 0.095,-0.047 z m 0.101,-21.588 c 0.041,0.02 0.075,0.035 0.109,0.051 0.033,-0.031 0.078,-0.063 0.094,-0.097 0.007,-0.012 -0.061,-0.032 -0.094,-0.048 -0.036,0.031 -0.073,0.063 -0.109,0.094 z m 24.813,1.013 c -0.036,-0.03 -0.072,-0.063 -0.108,-0.093 -0.034,0.015 -0.102,0.035 -0.095,0.046 0.015,0.035 0.061,0.066 0.095,0.099 0.033,-0.016 0.067,-0.032 0.108,-0.052 z m 0.087,11.114 c 0.035,0.029 0.072,0.061 0.109,0.092 0.032,-0.016 0.1,-0.035 0.094,-0.047 -0.017,-0.034 -0.062,-0.065 -0.094,-0.098 -0.035,0.017 -0.069,0.032 -0.109,0.053 z m 0.057,-23.492 c -0.025,-0.003 -0.066,0.029 -0.102,0.045 0.067,0.018 0.132,0.035 0.195,0.051 0.042,-0.019 0.075,-0.035 0.108,-0.051 -0.066,-0.016 -0.131,-0.039 -0.201,-0.045 z m 2.532,24.77 c -0.071,0.009 -0.137,0.028 -0.204,0.045 0.034,0.017 0.067,0.033 0.109,0.052 0.056,-0.014 0.114,-0.03 0.173,-0.046 0,-0.005 0,-0.011 0,-0.016 -0.028,-0.016 -0.059,-0.037 -0.078,-0.035 z m -8.25,-16.396 c -0.033,0.017 -0.1,0.036 -0.096,0.048 0.016,0.034 0.063,0.064 0.096,0.097 0.032,-0.016 0.101,-0.035 0.094,-0.047 -0.015,-0.035 -0.062,-0.066 -0.094,-0.098 z m -16.909,-18.589 c -0.016,-0.035 -0.062,-0.066 -0.095,-0.098 -0.034,0.016 -0.068,0.031 -0.108,0.052 0.034,0.03 0.07,0.062 0.108,0.093 0.033,-0.016 0.099,-0.036 0.095,-0.047 z m 1.89,10.836 c 0.036,0.079 0.313,0.102 0.485,0.055 0.041,-0.012 0.07,-0.032 0.127,-0.06 -0.107,-0.046 -0.209,-0.094 -0.322,-0.136 -0.06,-0.021 -0.137,-0.032 -0.203,-0.048 -0.034,0.064 -0.114,0.132 -0.087,0.189 z m 1.659,-5.285 c -0.034,0.017 -0.101,0.036 -0.097,0.048 0.017,0.033 0.063,0.064 0.097,0.098 0.033,-0.018 0.067,-0.033 0.106,-0.053 -0.034,-0.029 -0.069,-0.061 -0.106,-0.093 z m -2.405,0.736 c -0.059,0.023 -0.127,0.043 -0.174,0.07 -0.022,0.014 -0.021,0.051 10e-4,0.062 0.023,0.011 0.102,0.011 0.129,0 0.055,-0.022 0.102,-0.054 0.138,-0.085 0.005,-0.006 -0.06,-0.03 -0.094,-0.047 z m 2.049,25.601 c 0.07,-0.007 0.136,-0.029 0.203,-0.045 -0.034,-0.016 -0.067,-0.031 -0.108,-0.052 -0.064,0.017 -0.129,0.034 -0.195,0.052 0.033,0.016 0.075,0.048 0.1,0.045 z m -5.11,-0.551 c 0.034,-0.016 0.065,-0.032 0.107,-0.052 -0.034,-0.03 -0.07,-0.062 -0.107,-0.094 -0.035,0.017 -0.102,0.036 -0.096,0.049 0.017,0.033 0.061,0.064 0.096,0.097 z m 2.941,-19.219 c 0.017,0.034 0.062,0.064 0.095,0.097 0.034,-0.016 0.101,-0.035 0.096,-0.047 -0.017,-0.035 -0.062,-0.065 -0.096,-0.098 -0.033,0.016 -0.101,0.036 -0.095,0.048 z m -2.966,25.141 c 0.025,0.007 0.116,-0.04 0.175,-0.063 0,-0.021 0.019,-0.051 -0.003,-0.063 -0.023,-0.01 -0.099,-0.011 -0.129,0 -0.1,0.033 -0.224,0.076 -0.043,0.126 z m 5.338,-24.392 c -0.065,-0.018 -0.132,-0.035 -0.196,-0.052 -0.039,0.019 -0.074,0.036 -0.107,0.052 0.068,0.016 0.132,0.037 0.204,0.045 0.025,0.003 0.065,-0.029 0.099,-0.045 z m -0.468,6.445 c 0.042,-0.008 0.083,-0.025 0.103,-0.044 0.104,-0.099 0.067,-0.216 -0.064,-0.232 -0.032,0.008 -0.09,0.012 -0.096,0.023 -0.035,0.062 -0.05,0.125 -0.084,0.187 -0.038,0.068 0.002,0.092 0.141,0.066 z m -0.923,-2.329 c 0.06,-0.024 0.146,-0.045 0.17,-0.076 0.029,-0.04 0.008,-0.089 0.008,-0.134 0.047,-0.067 -0.002,-0.092 -0.141,-0.066 -0.041,0.008 -0.086,0.025 -0.101,0.043 -0.032,0.04 -0.067,0.084 -0.057,0.123 0.01,0.039 0.079,0.074 0.121,0.11 z m 1.283,14.622 c 0.041,-0.02 0.074,-0.035 0.108,-0.052 -0.067,-0.017 -0.133,-0.038 -0.203,-0.044 -0.025,-0.004 -0.067,0.027 -0.101,0.044 0.067,0.018 0.131,0.035 0.196,0.052 z m -1.259,-16.638 c 0.035,-0.032 0.079,-0.063 0.095,-0.097 0.007,-0.013 -0.06,-0.032 -0.095,-0.049 -0.034,0.032 -0.073,0.063 -0.107,0.094 0.041,0.02 0.074,0.036 0.107,0.052 z m 1.571,23.925 c -0.188,-0.055 -0.232,-0.141 -0.215,-0.241 0.003,-0.013 -0.125,-0.034 -0.198,-0.042 -0.024,-0.002 -0.085,0.029 -0.091,0.049 -0.013,0.046 -0.004,0.094 -0.004,0.141 0,0.047 -0.03,0.1 0.009,0.139 0.034,0.034 0.135,0.064 0.218,0.074 0.085,0.008 0.188,-0.004 0.272,-0.021 0.143,-0.027 0.136,-0.061 0.009,-0.099 z m -0.377,5.625 c 0.059,-0.023 0.104,-0.055 0.139,-0.086 0.007,-0.006 -0.058,-0.028 -0.093,-0.045 -0.058,0.022 -0.126,0.041 -0.173,0.068 -0.022,0.014 -0.022,0.051 0.002,0.063 0.023,0.01 0.099,0.01 0.125,0 z m -1.173,-32.735 c -0.101,0.034 -0.227,0.075 -0.043,0.126 0.025,0.006 0.114,-0.041 0.176,-0.063 0,-0.021 0.017,-0.053 -0.006,-0.063 -0.024,-0.011 -0.098,-0.011 -0.127,0 z m 0.868,32.864 c 0.024,0.007 0.116,-0.04 0.175,-0.063 0,-0.021 0.018,-0.052 -0.005,-0.063 -0.021,-0.011 -0.098,-0.011 -0.128,-10e-4 -0.1,0.035 -0.225,0.076 -0.042,0.127 z m 22.136,-31.59 c 0.072,-0.007 0.138,-0.029 0.205,-0.045 -0.033,-0.016 -0.076,-0.048 -0.101,-0.045 -0.071,0.008 -0.137,0.029 -0.204,0.045 0.035,0.016 0.076,0.048 0.1,0.045 z m -0.553,-6.635 c -0.035,0.032 -0.08,0.063 -0.095,0.097 -0.007,0.012 0.06,0.032 0.095,0.048 0.036,-0.032 0.073,-0.063 0.107,-0.093 -0.04,-0.02 -0.074,-0.036 -0.107,-0.052 z m -0.4,-6.132 c -0.005,0.012 0.062,0.031 0.095,0.047 0.024,-0.021 0.047,-0.041 0.071,-0.061 -0.031,-0.02 -0.063,-0.042 -0.094,-0.061 -0.027,0.024 -0.059,0.049 -0.072,0.075 z m 1.311,10.477 c 0.023,-0.012 0.055,-0.023 0.074,-0.034 0,-0.011 0,-0.022 0,-0.034 -0.021,-0.026 -0.047,-0.051 -0.074,-0.077 -0.035,0.016 -0.102,0.036 -0.096,0.048 0.016,0.034 0.061,0.065 0.096,0.097 z m -0.963,25.523 c -0.026,-0.002 -0.067,0.029 -0.101,0.046 0.066,0.017 0.132,0.034 0.196,0.052 0.041,-0.02 0.073,-0.036 0.107,-0.052 -0.065,-0.017 -0.133,-0.038 -0.202,-0.046 z m -8.436,2.724 c 0.046,0 0.091,0 0.136,0 0,-0.021 0.019,-0.049 -0.004,-0.063 -0.064,-0.044 -0.146,-0.088 -0.242,-0.025 0,0.007 0,0.015 0,0.022 0.024,0.019 0.076,0.045 0.11,0.066 z m 0.092,7.772 c -0.034,-0.03 -0.07,-0.062 -0.106,-0.093 -0.035,0.016 -0.102,0.035 -0.097,0.048 0.017,0.034 0.062,0.064 0.097,0.098 0.032,-0.018 0.066,-0.034 0.106,-0.053 z m -9.824,-16.463 c -0.034,0.033 -0.079,0.064 -0.096,0.098 -0.004,0.012 0.062,0.031 0.096,0.048 0.036,-0.031 0.073,-0.063 0.106,-0.093 -0.039,-0.02 -0.073,-0.036 -0.106,-0.053 z M 325,307.162 c -0.068,-0.018 -0.132,-0.038 -0.204,-0.045 -0.024,-0.004 -0.065,0.027 -0.101,0.045 0.067,0.018 0.132,0.034 0.197,0.051 0.039,-0.019 0.073,-0.035 0.108,-0.051 z m 21.255,-44.473 c 0.033,0.016 0.074,0.047 0.101,0.045 0.069,-0.008 0.137,-0.029 0.203,-0.045 -0.034,-0.016 -0.066,-0.031 -0.107,-0.052 -0.065,0.018 -0.131,0.035 -0.197,0.052 z m -7.895,32.254 c 0,-0.021 0.018,-0.049 -0.003,-0.066 -0.043,-0.035 -0.098,-0.092 -0.161,-0.096 -0.28,-0.021 -0.128,0.089 -0.126,0.13 0.003,0.048 0.105,0.095 0.164,0.143 0.043,-0.036 0.085,-0.074 0.126,-0.111 z m 2.833,-8.107 c -0.025,-0.003 -0.066,0.029 -0.1,0.045 0.066,0.018 0.132,0.035 0.196,0.053 0.04,-0.02 0.074,-0.036 0.106,-0.053 -0.065,-0.016 -0.131,-0.037 -0.202,-0.045 z m -17.845,-23.493 c -0.099,0.034 -0.225,0.075 -0.042,0.126 0.024,0.008 0.116,-0.04 0.175,-0.063 0,-0.021 0.019,-0.052 -0.005,-0.063 -0.024,-0.011 -0.098,-0.01 -0.128,0 z m -1.536,26.362 c 0.05,-0.036 0.131,-0.07 0.144,-0.111 0.025,-0.068 0.025,-0.141 0,-0.21 -0.013,-0.04 -0.094,-0.075 -0.144,-0.112 -0.063,0.058 -0.125,0.115 -0.153,0.143 0,0.086 -0.02,0.136 0.006,0.18 0.024,0.04 0.095,0.074 0.147,0.11 z m 0.455,-30.348 c -0.066,-0.017 -0.133,-0.034 -0.197,-0.052 -0.039,0.021 -0.073,0.036 -0.106,0.052 0.067,0.017 0.132,0.038 0.204,0.046 0.024,0.003 0.065,-0.029 0.099,-0.046 z m 1.224,15.753 c -0.002,0.036 0.092,0.073 0.143,0.108 0.051,-0.035 0.145,-0.072 0.142,-0.108 -0.002,-0.063 -0.067,-0.124 -0.142,-0.245 -0.076,0.121 -0.139,0.184 -0.143,0.245 z m -1.116,9.642 c 0.049,0.006 0.151,-0.066 0.216,-0.096 -0.055,-0.063 -0.086,-0.104 -0.128,-0.141 -0.006,-0.006 -0.075,-0.005 -0.098,0.003 -0.153,0.054 -0.156,0.209 0.01,0.234 z m 1.406,-20.44 c -0.043,-0.036 -0.095,-0.092 -0.16,-0.097 -0.28,-0.021 -0.13,0.09 -0.126,0.131 0.003,0.048 0.104,0.094 0.165,0.143 0.041,-0.037 0.084,-0.074 0.125,-0.11 0,-0.024 0.017,-0.051 -0.004,-0.067 z m -1.21,-1.92 c 0,-0.021 0.018,-0.052 -0.006,-0.062 -0.022,-0.012 -0.099,-0.012 -0.128,-10e-4 -0.1,0.033 -0.225,0.075 -0.041,0.126 0.024,0.008 0.114,-0.041 0.175,-0.063 z m 0.606,-1.006 c -0.034,-0.017 -0.063,-0.042 -0.104,-0.048 -0.087,-0.014 -0.187,-0.029 -0.271,-0.021 -0.082,0.008 -0.154,0.045 -0.23,0.069 0.076,0.024 0.148,0.061 0.23,0.069 0.085,0.008 0.183,-0.012 0.272,-0.02 0.035,-0.017 0.069,-0.033 0.103,-0.049 z m -1.318,24.577 c -0.033,10e-4 -0.078,-0.004 -0.103,0.004 -0.149,0.055 -0.146,0.198 0.008,0.239 0.025,0.006 0.077,0.005 0.101,-0.005 0.152,-0.053 0.146,-0.195 -0.006,-0.238 z m -0.1,-12.6 c -0.024,-0.002 -0.065,0.029 -0.101,0.046 0.067,0.018 0.132,0.034 0.196,0.052 0.041,-0.02 0.074,-0.035 0.108,-0.052 -0.066,-0.016 -0.13,-0.037 -0.203,-0.046 z m -0.1,20.907 c -0.066,-0.017 -0.131,-0.038 -0.202,-0.045 -0.025,-0.003 -0.067,0.028 -0.102,0.045 0.066,0.018 0.132,0.035 0.197,0.051 0.04,-0.02 0.073,-0.036 0.107,-0.051 z m 0.196,-25.444 c 0.041,-0.021 0.074,-0.037 0.108,-0.053 -0.067,-0.016 -0.132,-0.037 -0.204,-0.045 -0.024,-0.003 -0.065,0.029 -0.101,0.045 0.068,0.018 0.133,0.036 0.197,0.053 z m -0.096,10.712 c 0.072,-0.007 0.137,-0.028 0.204,-0.045 -0.034,-0.016 -0.074,-0.048 -0.1,-0.046 -0.072,0.008 -0.137,0.03 -0.205,0.046 0.036,0.017 0.077,0.048 0.101,0.045 z m -0.555,-12.431 c 0.034,-0.016 0.101,-0.035 0.095,-0.047 -0.015,-0.034 -0.061,-0.065 -0.095,-0.098 -0.034,0.016 -0.101,0.035 -0.096,0.047 0.017,0.036 0.061,0.067 0.096,0.098 z m 0.348,18.377 c 0.04,-0.02 0.073,-0.035 0.106,-0.052 -0.066,-0.017 -0.131,-0.038 -0.202,-0.046 -0.025,-0.002 -0.067,0.029 -0.102,0.046 0.067,0.018 0.133,0.035 0.198,0.052 z m -0.5,-24.75 c -0.048,0.225 0.128,0.377 0.606,0.434 0.05,-0.225 -0.127,-0.377 -0.606,-0.434 z m 3.217,6.388 c -0.064,0.022 -0.166,0.048 -0.173,0.076 -0.021,0.091 0.011,0.185 -0.013,0.275 -0.02,0.069 0.006,0.094 0.147,0.067 0.041,-0.008 0.093,-0.026 0.103,-0.045 0.034,-0.063 0.053,-0.129 0.065,-0.162 -0.015,-0.077 -0.014,-0.123 -0.036,-0.165 -0.009,-0.018 -0.086,-0.049 -0.093,-0.046 z m 0.426,-9.503 c -0.033,-0.016 -0.073,-0.047 -0.099,-0.045 -0.071,0.008 -0.137,0.029 -0.204,0.045 0.034,0.017 0.067,0.033 0.107,0.052 0.065,-0.017 0.131,-0.034 0.196,-0.052 z m -0.309,14.49 c -0.019,0.07 0.008,0.094 0.149,0.066 0.042,-0.007 0.092,-0.025 0.102,-0.044 0.034,-0.063 0.053,-0.129 0.065,-0.163 -0.014,-0.076 -0.014,-0.121 -0.035,-0.164 -0.011,-0.02 -0.088,-0.049 -0.095,-0.047 -0.065,0.021 -0.165,0.048 -0.172,0.076 -0.022,0.092 0.012,0.186 -0.014,0.276 z m -0.297,-13.475 c 0.064,0.017 0.132,0.034 0.195,0.052 0.04,-0.02 0.074,-0.036 0.107,-0.052 -0.067,-0.017 -0.134,-0.038 -0.203,-0.046 -0.024,-0.003 -0.065,0.029 -0.099,0.046 z m 0.549,14.946 c 0.018,-0.012 0.007,-0.032 0.01,-0.049 -0.089,-0.072 -0.39,-0.076 -0.502,-0.003 -0.018,0.011 -0.021,0.036 -0.006,0.048 0.084,0.074 0.385,0.076 0.498,0.004 z m 0.057,-10.166 c -0.064,-0.018 -0.131,-0.035 -0.195,-0.052 -0.04,0.02 -0.073,0.036 -0.107,0.052 0.067,0.016 0.133,0.037 0.204,0.045 0.025,0.002 0.065,-0.029 0.098,-0.045 z m -0.151,9.633 c -0.034,0.016 -0.101,0.036 -0.095,0.048 0.015,0.034 0.061,0.065 0.095,0.097 0.033,-0.016 0.101,-0.035 0.095,-0.047 -0.015,-0.035 -0.061,-0.067 -0.095,-0.098 z m -0.152,-0.869 c -0.102,0.031 -0.251,0.053 -0.291,0.097 -0.051,0.055 -0.012,0.128 -0.012,0.193 0.1,-0.03 0.25,-0.053 0.29,-0.097 0.052,-0.055 0.013,-0.128 0.013,-0.193 z m -0.911,2.535 c -0.065,-0.018 -0.132,-0.035 -0.196,-0.051 -0.039,0.019 -0.074,0.034 -0.107,0.051 0.068,0.016 0.133,0.037 0.203,0.045 0.027,0.004 0.067,-0.029 0.1,-0.045 z m -0.308,-16.077 c -0.004,-0.019 -0.086,-0.052 -0.096,-0.049 -0.112,0.032 -0.225,0.063 -0.32,0.104 -0.095,0.041 -0.25,0.086 -0.052,0.152 0.04,0.014 0.068,0.035 0.108,0.05 0.11,0.042 0.179,0.132 0.359,0.096 0.035,-0.007 0.004,-0.09 0.004,-0.138 0.001,-0.072 0.008,-0.144 -0.003,-0.215 z m 0.313,4.642 c -0.023,0.013 -0.023,0.05 0,0.06 0.023,0.012 0.101,0.012 0.127,0.002 0.058,-0.022 0.103,-0.055 0.139,-0.086 0.006,-0.006 -0.059,-0.029 -0.094,-0.045 -0.059,0.021 -0.126,0.041 -0.172,0.069 z m -0.872,-2.45 c 0.042,0.019 0.073,0.034 0.108,0.051 0.034,-0.032 0.078,-0.063 0.095,-0.098 0.007,-0.012 -0.061,-0.031 -0.095,-0.047 -0.037,0.032 -0.073,0.063 -0.108,0.094 z m 0.73,3.381 c 0.033,0.01 0.132,0.003 0.132,0.002 0.006,-0.067 0.023,-0.137 -0.002,-0.202 -0.012,-0.028 -0.108,-0.052 -0.174,-0.073 -0.009,-0.002 -0.081,0.027 -0.093,0.046 -0.059,0.088 -0.055,0.172 0.137,0.227 z m -0.773,-7.314 c 0.033,0.017 0.074,0.049 0.1,0.046 0.071,-0.007 0.136,-0.029 0.204,-0.046 -0.034,-0.016 -0.068,-0.031 -0.107,-0.051 -0.066,0.016 -0.132,0.034 -0.197,0.051 z m 0.747,2.105 c -0.28,-0.021 -0.13,0.09 -0.127,0.131 0.003,0.048 0.105,0.095 0.164,0.143 0.044,-0.037 0.084,-0.074 0.126,-0.111 0,-0.021 0.017,-0.049 -0.004,-0.065 -0.042,-0.037 -0.097,-0.094 -0.159,-0.098 z"
         id="path217"
         inkscape:connector-curvature="0"
         style="fill:#006838" /></g><g
       id="g219"><g
         id="g221"><g
           id="g223"><path
             d="m 328.225,282.193 c 3.26,-0.137 6.521,-0.053 9.78,0.072 0.401,0.016 0.722,-0.344 0.729,-0.729 0.093,-5.747 0.187,-11.494 0.279,-17.242 0.037,-2.258 0.073,-4.516 0.11,-6.773 0.046,-2.836 7.394,-2.495 7.485,0.733 0.046,1.618 0.044,3.239 0.053,4.858 0.016,3.178 0,6.357 -0.018,9.535 -0.061,10.51 -0.237,21.02 -0.513,31.525 -0.087,3.336 -7.594,3.063 -7.594,1.298 0,-1.477 0,-2.952 0,-4.429 0,-4.563 -0.038,-9.127 0.099,-13.687 0.012,-0.396 -0.341,-0.731 -0.729,-0.728 -3.228,0.023 -6.455,0.047 -9.683,0.071 -0.396,0.003 -0.729,0.329 -0.729,0.728 0,5.291 1.182,12.965 -0.914,17.887 -2.167,5.084 -6.627,-2.191 -6.612,-4.454 0.017,-2.591 0.059,-5.181 0.077,-7.772 0.021,-2.813 0.005,-5.628 0.005,-8.441 0,-8.09 -0.24,-16.194 -0.051,-24.281 0.057,-2.441 1.207,-4.119 4.018,-4.18 5.108,-0.107 3.659,8.018 3.616,10.737 -0.077,4.848 -0.133,9.695 -0.139,14.543 -0.001,0.939 1.456,0.938 1.457,0 0.005,-4.849 0.065,-9.695 0.138,-14.543 0.038,-2.56 1.796,-9.604 -1.254,-11.116 -1.943,-0.962 -5.99,-2.104 -7.805,-0.289 -1.889,1.889 -1.498,4.707 -1.528,7.209 -0.098,8.135 0.091,16.277 0.091,24.414 0,3.49 -0.008,6.98 -0.048,10.471 -0.038,3.309 -1.172,7.758 1.791,10.018 1.727,1.318 5.091,0.699 6.644,-0.493 2.318,-1.78 1.962,-6.278 1.972,-8.787 0.009,-2.6 0,-5.2 0,-7.8 0,-1.004 0,-2.008 0,-3.012 0,0.8 -1.177,0.623 0.278,0.611 0.801,-0.006 1.601,-0.012 2.401,-0.018 1.525,-0.011 3.051,-0.022 4.576,-0.033 2.376,-0.018 0.91,1.209 0.884,3.686 -0.037,3.41 -0.013,6.82 -0.013,10.23 0,1.143 -0.548,4.273 0.691,5.117 2.879,1.961 6.518,0.9 9.401,-0.539 0.231,-0.115 0.353,-0.383 0.361,-0.629 0.336,-9.515 0.425,-19.045 0.526,-28.564 0.072,-6.855 0.158,-13.722 -0.036,-20.575 -0.086,-3.011 -6.492,-2.655 -8.112,-2.104 -4.049,1.378 -2.368,10.344 -2.416,13.324 -0.062,3.746 -0.122,7.49 -0.183,11.236 -0.012,0.734 -0.024,1.471 -0.036,2.206 0.023,-1.44 -7.836,-0.8 -9.053,-0.747 -0.931,0.04 -0.935,1.497 0.004,1.456 z"
             id="path225"
             inkscape:connector-curvature="0"
             style="fill:#006838" /></g></g></g></g></svg>