<?xml version="1.0" encoding="UTF-8" standalone="no"?>
<!-- Generator: Adobe Illustrator 16.0.0, SVG Export Plug-In . SVG Version: 6.00 Build 0)  -->

<svg
   xmlns:dc="http://purl.org/dc/elements/1.1/"
   xmlns:cc="http://creativecommons.org/ns#"
   xmlns:rdf="http://www.w3.org/1999/02/22-rdf-syntax-ns#"
   xmlns:svg="http://www.w3.org/2000/svg"
   xmlns="http://www.w3.org/2000/svg"
   xmlns:sodipodi="http://sodipodi.sourceforge.net/DTD/sodipodi-0.dtd"
   xmlns:inkscape="http://www.inkscape.org/namespaces/inkscape"
   version="1.1"
   id="Layer_1"
   x="0px"
   y="0px"
   width="41.904671"
   height="66.503914"
   viewBox="0 0 41.904671 66.503913"
   enable-background="new 0 0 841.891 595.281"
   xml:space="preserve"
   inkscape:version="0.91 r13725"
   sodipodi:docname="bukva__02__B.svg"><metadata
     id="metadata395"><rdf:RDF><cc:Work
         rdf:about=""><dc:format>image/svg+xml</dc:format><dc:type
           rdf:resource="http://purl.org/dc/dcmitype/StillImage" /><dc:title></dc:title></cc:Work></rdf:RDF></metadata><defs
     id="defs393" /><sodipodi:namedview
     pagecolor="#ffffff"
     bordercolor="#666666"
     borderopacity="1"
     objecttolerance="10"
     gridtolerance="10"
     guidetolerance="10"
     inkscape:pageopacity="0"
     inkscape:pageshadow="2"
     inkscape:window-width="640"
     inkscape:window-height="480"
     id="namedview391"
     showgrid="false"
     fit-margin-top="0"
     fit-margin-left="0"
     fit-margin-right="0"
     fit-margin-bottom="0"
     inkscape:zoom="0.35396507"
     inkscape:cx="183.40017"
     inkscape:cy="32.683247"
     inkscape:window-x="10"
     inkscape:window-y="34"
     inkscape:window-maximized="0"
     inkscape:current-layer="Layer_1" /><g
     id="g3"
     transform="translate(-237.54533,-263.81984)"><g
       id="g5"><g
         id="g7"><g
           id="g9"><path
             d="m 264.769,296.412 c 1.175,0.646 2.152,1.365 3.131,2.154 2.835,2.516 3.227,6.754 3.227,9.197 0,10.775 -0.782,18.176 -13.399,18.248 l -11.735,0 c -0.587,0 -1.271,-0.145 -1.858,-0.432 -1.468,-0.791 -2.249,-2.443 -2.249,-3.52 l 0.488,-43.107 c 1.468,-5.388 8.705,-5.675 13.496,-5.675 10.563,0 12.128,5.604 12.128,12.214 -0.002,5.245 -1.371,8.694 -3.229,10.921 z m -13.496,23.779 5.281,0 c 4.107,0 5.868,-3.664 5.868,-7.328 0,-0.861 0.097,-1.795 0.097,-2.514 l 0,-1.15 c 0,-5.316 -0.781,-8.98 -7.237,-8.98 l -4.009,0 0,19.972 z m 0.097,-25.001 c 3.229,0 5.086,-0.216 5.771,-0.79 1.956,-1.652 1.956,-6.035 1.956,-8.765 l 0,-1.653 c 0,-2.945 -0.978,-5.029 -4.596,-5.029 -1.175,0 -2.74,0 -2.74,0.072 -0.195,5.101 -0.294,10.92 -0.391,16.165 z"
             id="path11"
             inkscape:connector-curvature="0"
             style="fill:#cee3ce" /></g><g
           id="g13"><g
             id="g15"><path
               d="m 262.668,300.005 c 3.713,2.23 4.307,4.932 4.292,9.033 -0.011,3.049 0.085,6.523 -1.19,9.371 -2.021,4.514 -8.862,3.439 -12.937,3.439 -2.146,0 -4.293,0 -6.439,0 -0.605,0 -0.348,0.16 -0.337,-0.824 0.047,-4.086 0.093,-8.17 0.139,-12.256 0.107,-9.475 0.215,-18.949 0.322,-28.423 0.044,-3.882 9.736,-3.134 12.604,-2.653 7.247,1.214 5.211,12.47 2.054,16.619 -3.253,4.274 3.981,8.413 7.186,4.202 4.654,-6.117 6.035,-18.919 0.193,-24.894 -5.934,-6.069 -20.077,-6.469 -26.646,-1.09 -4.46,3.652 -3.724,8.605 -3.781,13.728 -0.089,7.811 -0.177,15.62 -0.266,23.43 -0.049,4.357 -0.693,9.154 0.009,13.479 1.43,8.807 11.944,7.006 18.375,7.006 8.358,0 15.59,-2.506 18.073,-11.162 2.728,-9.508 1.494,-20.818 -7.45,-26.191 -4.613,-2.77 -8.795,4.427 -4.201,7.186 z"
               id="path17"
               inkscape:connector-curvature="0"
               style="fill:#cee3ce" /></g><g
             id="g19"><path
               d="m 251.273,324.353 c 3.572,0 6.922,0.275 10.23,-1.313 4.898,-2.35 5.177,-8.941 5.177,-13.543 0,-4.225 -0.496,-8.758 -4.171,-11.432 -3.249,-2.364 -7.427,-2.008 -11.236,-2.008 -2.269,0 -4.161,1.894 -4.161,4.161 0,6.658 0,13.316 0,19.973 0,5.367 8.322,5.367 8.322,0 0,-6.656 0,-13.314 0,-19.973 -1.387,1.389 -2.773,2.775 -4.161,4.162 1.719,0 3.437,-0.021 5.154,0.043 2.442,0.09 1.931,3.373 1.931,5.074 0,1.629 0.604,6.332 -1.804,6.531 -1.735,0.145 -3.538,0 -5.281,0 -5.367,10e-4 -5.367,8.325 0,8.325 z"
               id="path21"
               inkscape:connector-curvature="0"
               style="fill:#cee3ce" /></g><g
             id="g23"><path
               d="m 251.37,299.351 c 3.567,-0.031 7.62,-0.006 9.813,-3.318 2.004,-3.029 2.069,-6.886 2.074,-10.397 0.006,-3.222 -0.315,-5.841 -2.361,-8.448 -2.211,-2.818 -7.111,-2.672 -10.242,-2.174 -1.847,0.293 -2.993,2.313 -3.055,4.012 -0.197,5.387 -0.292,10.775 -0.391,16.165 -0.099,5.37 8.225,5.36 8.322,0 0.1,-5.39 0.193,-10.778 0.391,-16.165 -1.018,1.338 -2.036,2.676 -3.055,4.014 0.123,-0.02 2.214,0.573 1.965,-0.143 0.344,0.985 0.104,2.413 0.102,3.453 -0.002,1.544 -0.057,3.043 -0.43,4.544 -0.254,1.024 1.691,-0.368 0.255,-0.004 -1.044,0.265 -2.324,0.13 -3.389,0.14 -5.363,0.048 -5.368,8.37 0.001,8.321 z"
               id="path25"
               inkscape:connector-curvature="0"
               style="fill:#cee3ce" /></g></g></g></g><g
       id="g27"
       style="opacity:0.8"><g
         id="g29"><g
           id="g31"><path
             d="m 267.266,293.914 c 1.175,0.647 2.151,1.365 3.13,2.156 2.836,2.513 3.227,6.753 3.227,9.195 0,10.777 -0.781,18.176 -13.398,18.248 l -11.735,0 c -0.587,0 -1.272,-0.143 -1.858,-0.432 -1.467,-0.789 -2.249,-2.441 -2.249,-3.52 l 0.489,-43.105 c 1.467,-5.389 8.702,-5.676 13.495,-5.676 10.563,0 12.128,5.604 12.128,12.213 -0.002,5.246 -1.372,8.695 -3.229,10.921 z m -13.496,23.781 5.28,0 c 4.107,0 5.869,-3.664 5.869,-7.328 0,-0.863 0.097,-1.797 0.097,-2.516 l 0,-1.148 c 0,-5.316 -0.781,-8.98 -7.237,-8.98 l -4.009,0 0,19.972 z m 0.096,-25.002 c 3.229,0 5.086,-0.216 5.771,-0.79 1.956,-1.653 1.956,-6.035 1.956,-8.765 l 0,-1.652 c 0,-2.945 -0.978,-5.029 -4.597,-5.029 -1.174,0 -2.738,0 -2.738,0.072 -0.195,5.101 -0.293,10.92 -0.392,16.164 z"
             id="path33"
             inkscape:connector-curvature="0"
             style="fill:#cee3ce" /></g><g
           id="g35"><g
             id="g37"><path
               d="m 266.216,295.711 c 4.374,2.628 5.338,5.982 5.321,10.832 -0.013,3.471 -0.03,7.195 -1.475,10.42 -2.419,5.404 -9.833,4.471 -14.732,4.471 -2.794,0 -8.904,1.275 -8.856,-2.904 0.046,-4.086 0.093,-8.172 0.139,-12.256 0.107,-9.474 0.215,-18.949 0.323,-28.423 0.068,-6.047 11.163,-5.343 15.236,-4.661 8.705,1.458 7.268,14.458 3.297,19.676 -1.626,2.137 1.991,4.206 3.594,2.101 4.076,-5.357 5.735,-17.035 0.518,-22.371 -5.102,-5.219 -18.001,-5.761 -23.703,-1.09 -3.953,3.238 -3.118,7.674 -3.17,12.256 -0.089,7.811 -0.178,15.621 -0.267,23.431 -0.047,4.137 -0.733,8.82 -0.065,12.926 1.213,7.467 10.996,5.479 16.367,5.479 7.416,0 13.848,-1.902 16.066,-9.635 2.464,-8.59 1.619,-18.968 -6.493,-23.843 -2.306,-1.388 -4.397,2.211 -2.1,3.591 z"
               id="path39"
               inkscape:connector-curvature="0"
               style="fill:#5e8b63" /></g><g
             id="g41"><path
               d="m 253.77,319.775 c 3.135,0 6.284,0.361 9.18,-1.027 4.164,-1.998 4.147,-7.908 4.147,-11.748 0,-3.342 -0.163,-7.467 -3.142,-9.634 -2.937,-2.137 -6.744,-1.724 -10.186,-1.724 -1.135,0 -2.081,0.946 -2.081,2.081 0,6.656 0,13.314 0,19.972 0,2.684 4.162,2.684 4.162,0 0,-6.658 0,-13.316 0,-19.972 -0.694,0.693 -1.388,1.386 -2.081,2.08 1.719,0 3.437,-0.021 5.154,0.043 4.023,0.148 4.011,4.105 4.011,7.154 0,3.146 0.405,8.258 -3.885,8.613 -1.735,0.145 -3.538,0 -5.28,0 -2.683,0 -2.683,4.162 0.001,4.162 z"
               id="path43"
               inkscape:connector-curvature="0"
               style="fill:#5e8b63" /></g><g
             id="g45"><path
               d="m 253.866,294.773 c 2.647,-0.023 6.338,0.25 8.018,-2.287 1.801,-2.721 1.786,-6.2 1.791,-9.348 0.004,-2.604 -0.089,-4.857 -1.752,-6.977 -1.729,-2.202 -5.798,-2.021 -8.217,-1.64 -0.924,0.146 -1.497,1.157 -1.528,2.007 -0.197,5.386 -0.291,10.775 -0.393,16.164 -0.05,2.686 4.111,2.68 4.162,0 0.101,-5.389 0.194,-10.778 0.393,-16.164 -0.51,0.668 -1.019,1.337 -1.528,2.006 1.449,-0.229 3.956,-0.318 4.524,1.311 0.411,1.182 0.178,2.767 0.176,4.008 -0.003,1.727 -0.086,3.415 -0.504,5.096 -0.551,2.219 -3.333,1.646 -5.142,1.664 -2.682,0.024 -2.684,4.186 0,4.16 z"
               id="path47"
               inkscape:connector-curvature="0"
               style="fill:#5e8b63" /></g></g></g></g><g
       id="g49"><g
         id="g51"><path
           d="m 270.595,290.586 c 1.174,0.646 2.151,1.365 3.13,2.154 2.836,2.516 3.228,6.753 3.228,9.197 0,10.775 -0.782,18.176 -13.399,18.248 l -11.735,0 c -0.588,0 -1.271,-0.145 -1.858,-0.432 -1.467,-0.791 -2.25,-2.443 -2.25,-3.52 l 0.489,-43.106 c 1.468,-5.389 8.704,-5.676 13.497,-5.676 10.563,0 12.127,5.604 12.127,12.214 -0.001,5.245 -1.371,8.694 -3.229,10.921 z m -13.496,23.779 5.28,0 c 4.108,0 5.869,-3.664 5.869,-7.328 0,-0.861 0.097,-1.795 0.097,-2.514 l 0,-1.15 c 0,-5.316 -0.781,-8.979 -7.236,-8.979 l -4.01,0 0,19.971 z m 0.098,-25 c 3.228,0 5.086,-0.217 5.77,-0.791 1.957,-1.652 1.957,-6.035 1.957,-8.766 l 0,-1.651 c 0,-2.946 -0.979,-5.029 -4.597,-5.029 -1.175,0 -2.74,0 -2.74,0.071 -0.194,5.102 -0.293,10.92 -0.39,16.166 z"
           id="path53"
           inkscape:connector-curvature="0"
           style="fill:#42424a" /><path
           d="m 263.56,322.683 -11.742,0 c -1.002,0 -2.052,-0.244 -2.956,-0.686 -2.426,-1.307 -3.649,-3.877 -3.649,-5.764 l 0.493,-43.454 0.084,-0.309 c 2.048,-7.517 11.759,-7.517 15.906,-7.517 12.962,0 14.624,7.862 14.624,14.711 0,4.042 -0.751,7.459 -2.236,10.196 0.441,0.323 0.843,0.639 1.209,0.935 l 0.09,0.075 c 2.661,2.36 4.067,6.187 4.067,11.065 0,9.201 0,20.654 -15.882,20.746 l -0.008,0 z m -12.869,-49.165 -0.484,42.744 c 0.012,0.199 0.318,0.961 0.938,1.295 0.129,0.061 0.435,0.133 0.673,0.133 l 11.728,0 c 9.923,-0.059 10.91,-4.605 10.91,-15.752 0,-2.361 -0.408,-5.536 -2.348,-7.293 -0.739,-0.594 -1.637,-1.275 -2.717,-1.87 l -2.654,-1.462 1.941,-2.325 c 1.757,-2.105 2.647,-5.241 2.647,-9.32 0,-6.444 -1.489,-9.717 -9.63,-9.717 -4.832,-0.002 -9.887,0.43 -11.004,3.567 z m 11.688,43.345 -7.777,0 0,-24.966 6.507,0 c 9.733,0 9.733,7.751 9.733,11.476 l 0,1.15 c 0,0.385 -0.023,0.824 -0.049,1.285 -0.023,0.402 -0.048,0.824 -0.048,1.229 0,5.785 -3.44,9.826 -8.366,9.826 z m -2.783,-4.994 2.783,0 c 3.129,0 3.372,-3.697 3.372,-4.832 0,-0.496 0.028,-1.014 0.056,-1.51 0.021,-0.359 0.041,-0.703 0.041,-1.004 l 0,-1.15 c 0,-5.391 -0.797,-6.482 -4.739,-6.482 l -1.513,0 0,14.978 z m -2.399,-20.007 -2.544,0 0.071,-3.837 c 0.093,-5.02 0.188,-10.211 0.367,-14.921 -0.002,-2.474 2.082,-2.474 5.235,-2.474 2.649,0 7.094,0.978 7.094,7.526 l 0,1.651 c 0,3.294 0,8.273 -2.844,10.674 -1.213,1.021 -3.143,1.381 -7.379,1.381 z M 260,275.625 c -0.114,3.632 -0.189,7.437 -0.259,11.176 1.049,-0.067 1.517,-0.169 1.716,-0.232 0.969,-1.074 0.969,-5.183 0.969,-6.76 l 0,-1.651 c 0,-2.325 -0.544,-2.532 -2.1,-2.532 -0.095,-10e-4 -0.206,-10e-4 -0.326,-10e-4 z"
           id="path55"
           inkscape:connector-curvature="0"
           style="fill:#42424a" /></g></g><g
       id="g57"><g
         id="g59"><path
           d="m 269.763,288.921 c 1.174,0.646 2.151,1.365 3.13,2.155 2.836,2.515 3.227,6.754 3.227,9.195 0,10.777 -0.782,18.178 -13.398,18.25 l -11.735,0 c -0.587,0 -1.272,-0.145 -1.858,-0.432 -1.467,-0.791 -2.251,-2.443 -2.251,-3.521 l 0.49,-43.105 c 1.467,-5.389 8.704,-5.676 13.496,-5.676 10.564,0 12.128,5.604 12.128,12.213 -0.002,5.246 -1.372,8.694 -3.229,10.921 z m -13.496,23.78 5.28,0 c 4.108,0 5.868,-3.664 5.868,-7.328 0,-0.861 0.099,-1.795 0.099,-2.516 l 0,-1.148 c 0,-5.316 -0.782,-8.98 -7.237,-8.98 l -4.01,0 0,19.972 z m 0.098,-25.002 c 3.227,0 5.085,-0.215 5.77,-0.79 1.956,-1.652 1.956,-6.034 1.956,-8.765 l 0,-1.652 c 0,-2.945 -0.978,-5.029 -4.596,-5.029 -1.174,0 -2.739,0 -2.739,0.072 -0.196,5.101 -0.295,10.92 -0.391,16.164 z"
           id="path61"
           inkscape:connector-curvature="0"
           style="fill:#006838" /></g></g><g
       id="g63"><path
         d="m 271.427,288.09 c 1.174,0.646 2.151,1.365 3.129,2.154 2.837,2.515 3.228,6.754 3.228,9.195 0,10.777 -0.782,18.176 -13.397,18.248 l -11.735,0 c -0.587,0 -1.271,-0.145 -1.858,-0.432 -1.467,-0.789 -2.249,-2.441 -2.249,-3.52 l 0.489,-43.103 c 1.467,-5.388 8.703,-5.676 13.495,-5.676 10.562,0 12.127,5.604 12.127,12.213 -0.001,5.245 -1.371,8.693 -3.229,10.921 z m -13.495,23.779 5.28,0 c 4.107,0 5.868,-3.664 5.868,-7.328 0,-0.861 0.098,-1.797 0.098,-2.514 l 0,-1.15 c 0,-5.316 -0.782,-8.98 -7.237,-8.98 l -4.009,0 0,19.972 z m 0.098,-25.001 c 3.227,0 5.085,-0.216 5.77,-0.79 1.956,-1.652 1.956,-6.035 1.956,-8.764 l 0,-1.652 c 0,-2.945 -0.979,-5.029 -4.597,-5.029 -1.173,0 -2.738,0 -2.738,0.072 -0.196,5.1 -0.294,10.919 -0.391,16.163 z"
         id="path65"
         inkscape:connector-curvature="0"
         style="fill:#2f9a41" /></g><g
       id="g67"><g
         id="g69"><path
           d="m 274.762,314.093 c 0.766,-0.892 1.339,-1.936 1.768,-3.111 l -5.755,5.755 c 1.24,-0.442 2.263,-1.034 3.104,-1.761 l 0.883,-0.883 z"
           id="path71"
           inkscape:connector-curvature="0"
           style="fill:#cee3ce" /><path
           d="m 277.51,306.417 c 0.052,-0.479 0.096,-0.971 0.13,-1.475 l -12.731,12.732 c 0.487,-0.012 0.958,-0.033 1.41,-0.066 l 11.191,-11.191 z"
           id="path73"
           inkscape:connector-curvature="0"
           style="fill:#cee3ce" /><path
           d="m 277.775,301.224 c 0.005,-0.443 0.008,-0.896 0.009,-1.353 l -17.816,17.815 1.344,0 16.463,-16.462 z"
           id="path75"
           inkscape:connector-curvature="0"
           style="fill:#cee3ce" /><path
           d="m 268.569,295.645 5.66,-5.66 c -0.251,-0.198 -0.506,-0.392 -0.763,-0.581 l -5.31,5.31 c 0.157,0.293 0.298,0.6 0.413,0.931 z"
           id="path77"
           inkscape:connector-curvature="0"
           style="fill:#cee3ce" /><path
           d="m 277.571,296.499 c -0.057,-0.371 -0.126,-0.748 -0.214,-1.129 l -8.248,8.248 c -0.016,0.309 -0.029,0.621 -0.029,0.924 0,0.154 -0.008,0.309 -0.014,0.463 l 8.505,-8.506 z"
           id="path79"
           inkscape:connector-curvature="0"
           style="fill:#cee3ce" /><path
           d="m 248.762,294.396 -0.016,1.359 9.29,-9.29 c 0.008,-0.453 0.017,-0.909 0.025,-1.369 l -9.299,9.3 z"
           id="path81"
           inkscape:connector-curvature="0"
           style="fill:#cee3ce" /><path
           d="m 265.413,282.671 c -0.131,0.69 -0.317,1.34 -0.569,1.913 l 9.73,-9.729 c -0.032,-0.413 -0.073,-0.819 -0.127,-1.217 l -9.034,9.033 z"
           id="path83"
           inkscape:connector-curvature="0"
           style="fill:#cee3ce" /><path
           d="m 261.117,291.896 0.824,0 c 0.177,0 0.333,0.013 0.501,0.019 l 12.067,-12.067 c 0.048,-0.466 0.083,-0.948 0.105,-1.449 l -13.497,13.497 z"
           id="path85"
           inkscape:connector-curvature="0"
           style="fill:#cee3ce" /><path
           d="m 265.755,277.402 c 0,0.419 -10e-4,0.875 -0.009,1.353 l 7.991,-7.991 c -0.122,-0.32 -0.26,-0.63 -0.414,-0.93 l -7.568,7.568 z"
           id="path87"
           inkscape:connector-curvature="0"
           style="fill:#cee3ce" /><path
           d="m 265.496,292.445 c 0.331,0.125 0.641,0.264 0.916,0.428 l 5.701,-5.701 c 0.521,-0.773 0.979,-1.681 1.365,-2.708 l -7.982,7.981 z"
           id="path89"
           inkscape:connector-curvature="0"
           style="fill:#cee3ce" /><path
           d="m 257.931,309.869 -7.292,7.291 c 0.052,0.031 0.098,0.069 0.152,0.098 0.256,0.126 0.535,0.212 0.812,0.282 l 6.328,-6.327 0,-1.344 z"
           id="path91"
           inkscape:connector-curvature="0"
           style="fill:#cee3ce" /><path
           d="m 276.422,292.721 c -0.147,-0.292 -0.306,-0.58 -0.486,-0.858 l -6.826,6.826 c 0.028,0.416 0.049,0.842 0.058,1.285 l 7.254,-7.253 z"
           id="path93"
           inkscape:connector-curvature="0"
           style="fill:#cee3ce" /><path
           d="m 257.931,306.283 0,-1.344 -9.328,9.328 c 0.062,0.318 0.177,0.66 0.342,1.002 l 8.986,-8.986 z"
           id="path95"
           inkscape:connector-curvature="0"
           style="fill:#cee3ce" /><polygon
           points="256.382,317.687 262.201,311.869 260.858,311.869 255.038,317.687 "
           id="polygon97"
           style="fill:#cee3ce" /><polygon
           points="248.576,310.708 257.931,301.355 257.931,300.011 248.592,309.349 "
           id="polygon99"
           style="fill:#cee3ce" /><path
           d="m 262.959,286.469 c -0.417,0.121 -0.957,0.21 -1.617,0.273 l -12.636,12.636 -0.016,1.359 14.269,-14.268 z"
           id="path101"
           inkscape:connector-curvature="0"
           style="fill:#cee3ce" /><polygon
           points="248.633,305.724 257.931,296.426 257.931,295.083 248.649,304.365 "
           id="polygon103"
           style="fill:#cee3ce" /><path
           d="m 258.131,281.441 c 0.009,-0.457 0.019,-0.914 0.028,-1.372 l -9.34,9.341 -0.016,1.359 9.328,-9.328 z"
           id="path105"
           inkscape:connector-curvature="0"
           style="fill:#cee3ce" /><path
           d="m 265.311,272.917 c 0.132,0.321 0.231,0.669 0.301,1.042 l 6.201,-6.201 c -0.224,-0.217 -0.469,-0.421 -0.728,-0.616 l -5.774,5.775 z"
           id="path107"
           inkscape:connector-curvature="0"
           style="fill:#cee3ce" /><path
           d="m 262.541,270.758 c 0.382,0.075 0.721,0.183 1.023,0.321 l 5.186,-5.186 c -0.322,-0.12 -0.662,-0.228 -1.019,-0.325 l -5.19,5.19 z"
           id="path109"
           inkscape:connector-curvature="0"
           style="fill:#cee3ce" /><path
           d="m 248.931,279.44 -0.015,1.359 9.482,-9.482 c 0.007,-0.204 0.014,-0.413 0.022,-0.614 0,-0.029 0.264,-0.046 0.649,-0.057 l 5.597,-5.597 c -0.406,-0.035 -0.841,-0.051 -1.279,-0.065 l -14.456,14.456 z"
           id="path111"
           inkscape:connector-curvature="0"
           style="fill:#cee3ce" /><path
           d="m 258.28,275.02 -9.405,9.405 -0.015,1.359 9.383,-9.383 c 0.012,-0.463 0.024,-0.923 0.037,-1.381 z"
           id="path113"
           inkscape:connector-curvature="0"
           style="fill:#cee3ce" /><path
           d="m 248.988,274.456 -0.015,1.359 10.804,-10.804 c -0.476,0.022 -0.958,0.056 -1.443,0.1 l -9.346,9.345 z"
           id="path115"
           inkscape:connector-curvature="0"
           style="fill:#cee3ce" /><path
           d="m 249.031,270.631 -0.002,0.199 4.84,-4.84 c -2.292,0.792 -4.168,2.182 -4.838,4.641 z"
           id="path117"
           inkscape:connector-curvature="0"
           style="fill:#cee3ce" /></g><g
         id="g119"><path
           d="m 270.453,311.728 c 0.126,-0.023 0.227,-0.055 0.307,-0.086 0.014,-0.006 -0.129,-0.029 -0.209,-0.045 -0.129,0.021 -0.279,0.041 -0.382,0.068 -0.051,0.014 -0.048,0.051 0.001,0.061 0.051,0.012 0.224,0.012 0.283,0.002 z"
           id="path121"
           inkscape:connector-curvature="0"
           style="fill:#cee3ce" /><path
           d="m 270.496,308.398 c 0.082,-0.031 0.163,-0.063 0.241,-0.094 -0.09,-0.02 -0.166,-0.035 -0.241,-0.051 -0.074,0.031 -0.175,0.063 -0.212,0.096 -0.011,0.012 0.138,0.033 0.212,0.049 z"
           id="path123"
           inkscape:connector-curvature="0"
           style="fill:#cee3ce" /><path
           d="m 270.738,293.963 c -0.09,-0.02 -0.166,-0.035 -0.241,-0.051 -0.074,0.031 -0.175,0.063 -0.212,0.097 -0.012,0.012 0.138,0.032 0.212,0.048 0.081,-0.032 0.162,-0.063 0.241,-0.094 z"
           id="path125"
           inkscape:connector-curvature="0"
           style="fill:#cee3ce" /><path
           d="m 270.401,275.254 c -0.366,0.025 -0.362,0.179 -0.023,0.232 0.053,0.008 0.204,0.01 0.218,0.004 0.095,-0.037 0.163,-0.078 0.286,-0.141 -0.144,-0.031 -0.373,-0.102 -0.481,-0.095 z"
           id="path127"
           inkscape:connector-curvature="0"
           style="fill:#cee3ce" /><path
           d="m 269.484,316.437 c 0.152,0.016 0.296,0.037 0.455,0.045 0.055,0.004 0.146,-0.027 0.221,-0.045 -0.146,-0.018 -0.293,-0.033 -0.436,-0.051 -0.088,0.02 -0.164,0.035 -0.24,0.051 z"
           id="path129"
           inkscape:connector-curvature="0"
           style="fill:#cee3ce" /><path
           d="m 270.148,311.732 c -0.05,-0.01 -0.217,-0.01 -0.285,-0.002 -0.22,0.035 -0.497,0.076 -0.092,0.127 0.053,0.008 0.255,-0.041 0.389,-0.063 -0.001,-0.021 0.039,-0.052 -0.012,-0.062 z"
           id="path131"
           inkscape:connector-curvature="0"
           style="fill:#cee3ce" /><path
           d="m 271.51,272.255 c 0.149,0.016 0.294,0.038 0.452,0.046 0.057,0.002 0.147,-0.03 0.222,-0.046 -0.146,-0.017 -0.294,-0.034 -0.436,-0.052 -0.089,0.02 -0.165,0.035 -0.238,0.052 z"
           id="path133"
           inkscape:connector-curvature="0"
           style="fill:#cee3ce" /><path
           d="m 268.354,315.468 c 0.05,0.008 0.202,0.01 0.218,0.004 0.092,-0.039 0.161,-0.078 0.284,-0.143 -0.142,-0.029 -0.369,-0.102 -0.48,-0.094 -0.365,0.024 -0.361,0.179 -0.022,0.233 z"
           id="path135"
           inkscape:connector-curvature="0"
           style="fill:#cee3ce" /><path
           d="m 269.823,302.314 c -0.081,0.031 -0.163,0.063 -0.239,0.092 0.089,0.02 0.164,0.037 0.239,0.053 0.073,-0.033 0.176,-0.064 0.21,-0.098 0.012,-0.012 -0.137,-0.031 -0.21,-0.047 z"
           id="path137"
           inkscape:connector-curvature="0"
           style="fill:#cee3ce" /><path
           d="m 258.69,270.663 c 0.166,-0.01 0.398,-0.017 0.667,-0.021 0,-0.042 0.005,-0.083 -0.004,-0.125 -0.004,-0.018 -0.173,-0.051 -0.221,-0.048 -0.159,0.012 -0.42,0.035 -0.426,0.057 -0.011,0.045 -0.012,0.091 -0.016,0.137 z"
           id="path139"
           inkscape:connector-curvature="0"
           style="fill:#cee3ce" /><path
           d="m 259.027,270.01 c -0.076,0.017 -0.226,0.035 -0.212,0.048 0.035,0.034 0.136,0.065 0.212,0.097 0.074,-0.016 0.222,-0.035 0.21,-0.047 -0.037,-0.036 -0.136,-0.066 -0.21,-0.098 z"
           id="path141"
           inkscape:connector-curvature="0"
           style="fill:#cee3ce" /><path
           d="m 258.308,313.32 c 0.125,-0.021 0.228,-0.053 0.306,-0.084 0.013,-0.006 -0.132,-0.029 -0.208,-0.047 -0.131,0.023 -0.281,0.043 -0.385,0.07 -0.049,0.014 -0.046,0.051 0.002,0.061 0.05,0.012 0.225,0.012 0.285,0 z"
           id="path143"
           inkscape:connector-curvature="0"
           style="fill:#cee3ce" /><path
           d="m 257.674,272.906 c -0.075,0.017 -0.224,0.036 -0.21,0.048 0.035,0.034 0.135,0.065 0.21,0.098 0.076,-0.017 0.151,-0.032 0.241,-0.052 -0.08,-0.03 -0.158,-0.062 -0.241,-0.094 z"
           id="path145"
           inkscape:connector-curvature="0"
           style="fill:#cee3ce" /><path
           d="m 267.461,316.001 c 0.074,0.018 0.165,0.049 0.221,0.047 0.159,-0.008 0.304,-0.029 0.453,-0.047 -0.074,-0.016 -0.149,-0.031 -0.239,-0.051 -0.142,0.018 -0.289,0.034 -0.435,0.051 z"
           id="path147"
           inkscape:connector-curvature="0"
           style="fill:#cee3ce" /><path
           d="m 259.584,314.599 c 0.159,-0.008 0.304,-0.029 0.453,-0.045 -0.076,-0.016 -0.168,-0.047 -0.222,-0.045 -0.159,0.008 -0.302,0.029 -0.453,0.045 0.076,0.016 0.167,0.049 0.222,0.045 z"
           id="path149"
           inkscape:connector-curvature="0"
           style="fill:#cee3ce" /><path
           d="m 257.623,313.451 c 0.055,0.006 0.256,-0.041 0.389,-0.063 0,-0.023 0.04,-0.053 -0.011,-0.063 -0.05,-0.012 -0.218,-0.012 -0.283,-0.002 -0.223,0.034 -0.501,0.077 -0.095,0.128 z"
           id="path151"
           inkscape:connector-curvature="0"
           style="fill:#cee3ce" /><path
           d="m 272.487,291.891 c -0.078,0.018 -0.223,0.033 -0.223,0.051 -0.004,0.254 0.008,0.508 0.034,0.762 0.003,0.017 0.145,0.033 0.225,0.049 0.076,-0.016 0.184,-0.029 0.228,-0.05 0.302,-0.139 -0.222,-0.338 0.679,-0.435 -0.237,-0.113 -0.468,-0.228 -0.716,-0.341 -0.037,-0.017 -0.149,-0.025 -0.227,-0.036 z"
           id="path153"
           inkscape:connector-curvature="0"
           style="fill:#cee3ce" /><path
           d="m 273.755,280.558 c 0.159,-0.008 0.304,-0.03 0.455,-0.046 -0.076,-0.016 -0.169,-0.048 -0.225,-0.045 -0.158,0.008 -0.303,0.029 -0.452,0.045 0.077,0.015 0.167,0.048 0.222,0.046 z"
           id="path155"
           inkscape:connector-curvature="0"
           style="fill:#cee3ce" /><path
           d="m 273.912,279.717 c -0.22,0.033 -0.498,0.075 -0.091,0.127 0.052,0.006 0.253,-0.041 0.389,-0.063 0,-0.022 0.037,-0.052 -0.014,-0.063 -0.049,-0.011 -0.217,-0.011 -0.284,-0.001 z"
           id="path157"
           inkscape:connector-curvature="0"
           style="fill:#cee3ce" /><path
           d="m 273.075,271.141 c 0.054,0.009 0.206,0.01 0.22,0.004 0.094,-0.038 0.163,-0.078 0.286,-0.141 -0.146,-0.031 -0.373,-0.103 -0.482,-0.096 -0.363,0.026 -0.36,0.18 -0.024,0.233 z"
           id="path159"
           inkscape:connector-curvature="0"
           style="fill:#cee3ce" /><path
           d="m 272.184,279.063 c 0.147,0.018 0.294,0.035 0.435,0.053 0.09,-0.02 0.163,-0.035 0.24,-0.053 -0.15,-0.016 -0.293,-0.037 -0.452,-0.045 -0.055,-0.002 -0.148,0.029 -0.223,0.045 z"
           id="path161"
           inkscape:connector-curvature="0"
           style="fill:#cee3ce" /><path
           d="m 271.731,284.957 c -0.055,-0.002 -0.147,0.029 -0.221,0.046 0.146,0.018 0.292,0.034 0.435,0.051 0.09,-0.019 0.165,-0.034 0.239,-0.051 -0.15,-0.017 -0.294,-0.038 -0.453,-0.046 z"
           id="path163"
           inkscape:connector-curvature="0"
           style="fill:#cee3ce" /><path
           d="m 272.878,281.662 c 0.047,0.027 0.267,0.045 0.428,0.057 0.047,0.002 0.213,-0.031 0.219,-0.048 0.021,-0.095 0.035,-0.189 -0.011,-0.282 -0.014,-0.022 -0.268,-0.043 -0.426,-0.055 -0.048,-0.003 -0.206,0.029 -0.219,0.047 -0.031,0.047 -0.011,0.094 -0.011,0.142 0,0.048 -0.052,0.098 0.02,0.139 z"
           id="path165"
           inkscape:connector-curvature="0"
           style="fill:#cee3ce" /><path
           d="m 256.115,285.123 c 0.034,0.033 0.136,0.064 0.209,0.096 0.075,-0.016 0.151,-0.031 0.24,-0.051 -0.076,-0.029 -0.159,-0.062 -0.24,-0.092 -0.073,0.016 -0.221,0.034 -0.209,0.047 z"
           id="path167"
           inkscape:connector-curvature="0"
           style="fill:#cee3ce" /><path
           d="m 274.306,275.42 c 0.079,0.031 0.158,0.063 0.24,0.095 0.018,-0.004 0.041,-0.008 0.063,-0.012 -0.002,-0.037 -0.004,-0.074 -0.006,-0.111 -0.02,-0.007 -0.039,-0.015 -0.057,-0.022 -0.076,0.016 -0.15,0.031 -0.24,0.05 z"
           id="path169"
           inkscape:connector-curvature="0"
           style="fill:#cee3ce" /><path
           d="m 271.501,295.152 c -0.155,-0.049 -0.349,-0.107 -0.587,-0.02 -0.029,0.011 0.191,0.054 0.293,0.082 0.103,0 0.201,0 0.303,0 0,-0.021 0.041,-0.048 -0.009,-0.062 z"
           id="path171"
           inkscape:connector-curvature="0"
           style="fill:#cee3ce" /><path
           d="m 273.533,303.544 c -0.15,-0.016 -0.294,-0.037 -0.452,-0.045 -0.057,-0.004 -0.147,0.029 -0.223,0.045 0.148,0.018 0.293,0.035 0.435,0.051 0.09,-0.017 0.165,-0.035 0.24,-0.051 z"
           id="path173"
           inkscape:connector-curvature="0"
           style="fill:#cee3ce" /><path
           d="m 271.731,288.434 c -0.055,-0.002 -0.147,0.029 -0.221,0.046 0.146,0.017 0.292,0.034 0.435,0.052 0.064,-0.014 0.116,-0.025 0.17,-0.037 -0.015,-0.009 -0.03,-0.018 -0.045,-0.027 -0.112,-0.013 -0.22,-0.029 -0.339,-0.034 z"
           id="path175"
           inkscape:connector-curvature="0"
           style="fill:#cee3ce" /><path
           d="m 274.216,279.652 c -0.048,0.013 -0.046,0.05 0.004,0.061 0.05,0.011 0.224,0.012 0.283,0 0.008,-0.001 0.012,-0.004 0.021,-0.006 0.003,-0.038 0.008,-0.075 0.012,-0.114 -0.114,0.018 -0.232,0.035 -0.32,0.059 z"
           id="path177"
           inkscape:connector-curvature="0"
           style="fill:#cee3ce" /><path
           d="m 273.196,291.449 c -0.08,0.031 -0.163,0.063 -0.239,0.093 0.09,0.02 0.166,0.036 0.239,0.052 0.073,-0.032 0.177,-0.063 0.212,-0.097 0.011,-0.013 -0.139,-0.032 -0.212,-0.048 z"
           id="path179"
           inkscape:connector-curvature="0"
           style="fill:#cee3ce" /><path
           d="m 272.184,291.232 c 0.147,0.017 0.294,0.033 0.435,0.051 0.09,-0.02 0.163,-0.035 0.24,-0.051 -0.15,-0.017 -0.293,-0.039 -0.452,-0.046 -0.055,-0.002 -0.148,0.03 -0.223,0.046 z"
           id="path181"
           inkscape:connector-curvature="0"
           style="fill:#cee3ce" /><path
           d="m 260.373,269.141 c -0.111,0.037 -0.225,0.073 -0.39,0.127 0.116,0.049 0.256,0.105 0.39,0.163 0.114,-0.061 0.284,-0.119 0.316,-0.181 0.017,-0.033 -0.201,-0.072 -0.316,-0.109 z"
           id="path183"
           inkscape:connector-curvature="0"
           style="fill:#cee3ce" /><path
           d="m 272.088,294.006 c -0.079,-0.031 -0.161,-0.063 -0.241,-0.094 -0.076,0.016 -0.223,0.035 -0.211,0.047 0.036,0.033 0.135,0.065 0.211,0.098 0.076,-0.016 0.148,-0.033 0.241,-0.051 z"
           id="path185"
           inkscape:connector-curvature="0"
           style="fill:#cee3ce" /><path
           d="m 272.831,285.941 c 0.004,-0.007 0.007,-0.016 0.011,-0.023 -0.004,0.008 -0.013,0.015 -0.011,0.023 z"
           id="path187"
           inkscape:connector-curvature="0"
           style="fill:#cee3ce" /><path
           d="m 253.965,310.248 c -0.109,-0.037 -0.22,-0.074 -0.329,-0.109 -0.373,0.102 -1.115,0.152 -1.009,0.32 0.022,0.039 0.204,0.072 0.314,0.109 0.347,-0.106 1.137,-0.147 1.024,-0.32 z"
           id="path189"
           inkscape:connector-curvature="0"
           style="fill:#cee3ce" /><path
           d="m 262.4,287.682 c 0.074,-0.016 0.148,-0.031 0.238,-0.051 -0.076,-0.03 -0.158,-0.062 -0.238,-0.094 -0.076,0.018 -0.225,0.036 -0.211,0.049 0.035,0.033 0.134,0.064 0.211,0.096 z"
           id="path191"
           inkscape:connector-curvature="0"
           style="fill:#cee3ce" /><path
           d="m 253.724,268.975 c 0.088,-0.02 0.164,-0.035 0.241,-0.052 -0.153,-0.017 -0.296,-0.038 -0.456,-0.045 -0.054,-0.003 -0.145,0.028 -0.221,0.045 0.147,0.017 0.294,0.036 0.436,0.052 z"
           id="path193"
           inkscape:connector-curvature="0"
           style="fill:#cee3ce" /><path
           d="m 253.625,314.337 c -0.074,0.016 -0.148,0.031 -0.239,0.051 0.078,0.031 0.16,0.061 0.239,0.094 0.075,-0.016 0.225,-0.035 0.211,-0.047 -0.035,-0.035 -0.136,-0.066 -0.211,-0.098 z"
           id="path195"
           inkscape:connector-curvature="0"
           style="fill:#cee3ce" /><path
           d="m 253.836,268.514 c -0.033,-0.035 -0.136,-0.064 -0.211,-0.098 -0.074,0.017 -0.223,0.036 -0.211,0.047 0.036,0.035 0.137,0.066 0.211,0.098 0.075,-0.016 0.225,-0.036 0.211,-0.047 z"
           id="path197"
           inkscape:connector-curvature="0"
           style="fill:#cee3ce" /><path
           d="m 255.653,316.8 c 0.073,-0.018 0.147,-0.033 0.238,-0.053 -0.078,-0.029 -0.16,-0.061 -0.238,-0.094 -0.077,0.016 -0.226,0.037 -0.212,0.049 0.034,0.034 0.134,0.065 0.212,0.098 z"
           id="path199"
           inkscape:connector-curvature="0"
           style="fill:#cee3ce" /><path
           d="m 256.115,309.894 c 0.034,0.033 0.136,0.064 0.209,0.098 0.075,-0.018 0.151,-0.033 0.24,-0.053 -0.076,-0.029 -0.159,-0.061 -0.24,-0.094 -0.073,0.018 -0.221,0.037 -0.209,0.049 z"
           id="path201"
           inkscape:connector-curvature="0"
           style="fill:#cee3ce" /><path
           d="m 255.767,300.023 c -0.16,0.008 -0.303,0.029 -0.454,0.045 0.076,0.016 0.166,0.049 0.225,0.045 0.156,-0.008 0.303,-0.029 0.45,-0.045 -0.076,-0.016 -0.166,-0.047 -0.221,-0.045 z"
           id="path203"
           inkscape:connector-curvature="0"
           style="fill:#cee3ce" /><path
           d="m 256.423,279.693 c 0.091,-0.019 0.165,-0.034 0.24,-0.051 -0.149,-0.016 -0.295,-0.037 -0.454,-0.045 -0.055,-0.003 -0.146,0.029 -0.222,0.045 0.148,0.018 0.294,0.036 0.436,0.051 z"
           id="path205"
           inkscape:connector-curvature="0"
           style="fill:#cee3ce" /><path
           d="m 253.414,269.383 c -0.012,0.012 0.137,0.031 0.211,0.048 0.083,-0.032 0.163,-0.063 0.24,-0.094 -0.089,-0.02 -0.165,-0.036 -0.24,-0.052 -0.074,0.032 -0.175,0.064 -0.211,0.098 z"
           id="path207"
           inkscape:connector-curvature="0"
           style="fill:#cee3ce" /><path
           d="m 256.657,300.511 c -0.16,-0.047 -0.351,-0.107 -0.588,-0.02 -0.032,0.012 0.188,0.055 0.292,0.084 0.102,0 0.201,0 0.302,0 0,-0.021 0.04,-0.048 -0.006,-0.064 z"
           id="path209"
           inkscape:connector-curvature="0"
           style="fill:#cee3ce" /><path
           d="m 256.209,283.509 c -0.055,-0.003 -0.146,0.028 -0.222,0.046 0.147,0.018 0.293,0.034 0.436,0.051 0.091,-0.02 0.165,-0.035 0.24,-0.051 -0.149,-0.018 -0.295,-0.038 -0.454,-0.046 z"
           id="path211"
           inkscape:connector-curvature="0"
           style="fill:#cee3ce" /><path
           d="m 256.671,267.609 c 0.105,0.027 0.252,0.05 0.398,0.066 0.025,0.004 0.135,-0.027 0.213,-0.045 -0.105,-0.027 -0.198,-0.06 -0.326,-0.082 -0.06,-0.012 -0.232,-0.01 -0.283,0 -0.051,0.013 -0.052,0.05 -0.002,0.061 z"
           id="path213"
           inkscape:connector-curvature="0"
           style="fill:#cee3ce" /><path
           d="m 254.415,310.744 c -0.158,0.006 -0.303,0.027 -0.45,0.043 0.073,0.018 0.163,0.049 0.221,0.047 0.157,-0.008 0.302,-0.029 0.452,-0.047 -0.074,-0.016 -0.166,-0.047 -0.223,-0.043 z"
           id="path215"
           inkscape:connector-curvature="0"
           style="fill:#cee3ce" /><path
           d="m 254.186,316.193 c 0.157,-0.008 0.302,-0.029 0.452,-0.045 -0.074,-0.018 -0.166,-0.049 -0.223,-0.045 -0.158,0.006 -0.303,0.027 -0.45,0.045 0.073,0.016 0.163,0.047 0.221,0.045 z"
           id="path217"
           inkscape:connector-curvature="0"
           style="fill:#cee3ce" /><path
           d="m 256.07,267.463 c -0.032,0.012 0.188,0.056 0.292,0.084 0.102,0 0.201,0 0.302,0 0,-0.021 0.04,-0.049 -0.006,-0.063 -0.161,-0.048 -0.351,-0.107 -0.588,-0.021 z"
           id="path219"
           inkscape:connector-curvature="0"
           style="fill:#cee3ce" /><path
           d="m 253.414,317.427 c 0.036,0.033 0.137,0.064 0.211,0.096 0.075,-0.016 0.225,-0.035 0.211,-0.047 -0.033,-0.035 -0.136,-0.064 -0.211,-0.098 -0.072,0.018 -0.222,0.036 -0.211,0.049 z"
           id="path221"
           inkscape:connector-curvature="0"
           style="fill:#cee3ce" /><path
           d="m 267.122,275.515 c -0.112,0.06 -0.282,0.118 -0.314,0.18 -0.016,0.034 0.202,0.073 0.314,0.109 0.113,-0.036 0.227,-0.073 0.393,-0.126 -0.118,-0.049 -0.254,-0.106 -0.393,-0.163 z"
           id="path223"
           inkscape:connector-curvature="0"
           style="fill:#cee3ce" /><path
           d="m 258.466,288.09 c 0.056,0.004 0.146,-0.029 0.221,-0.045 -0.146,-0.018 -0.294,-0.035 -0.436,-0.052 -0.09,0.019 -0.164,0.036 -0.239,0.052 0.149,0.016 0.296,0.037 0.454,0.045 z"
           id="path225"
           inkscape:connector-curvature="0"
           style="fill:#cee3ce" /><path
           d="m 267.332,268.803 c -0.034,-0.034 -0.135,-0.064 -0.21,-0.097 -0.075,0.016 -0.148,0.032 -0.238,0.052 0.076,0.03 0.158,0.062 0.238,0.093 0.076,-0.016 0.224,-0.037 0.21,-0.048 z"
           id="path227"
           inkscape:connector-curvature="0"
           style="fill:#cee3ce" /><path
           d="m 266.911,288.455 c 0.036,0.033 0.136,0.064 0.211,0.097 0.075,-0.017 0.151,-0.032 0.24,-0.052 -0.078,-0.03 -0.159,-0.062 -0.24,-0.093 -0.075,0.016 -0.222,0.036 -0.211,0.048 z"
           id="path229"
           inkscape:connector-curvature="0"
           style="fill:#cee3ce" /><path
           d="m 260.552,287.389 c 0.188,0.009 0.407,-0.008 0.603,-0.021 0.092,-0.007 0.154,-0.031 0.232,-0.048 -0.266,-0.029 -0.532,-0.059 -0.758,-0.084 -0.25,0.036 -0.421,0.061 -0.592,0.084 0.171,0.026 0.33,0.061 0.515,0.069 z"
           id="path231"
           inkscape:connector-curvature="0"
           style="fill:#cee3ce" /><path
           d="m 259.699,291.739 c 0.074,-0.032 0.177,-0.063 0.211,-0.098 0.012,-0.012 -0.137,-0.031 -0.211,-0.048 -0.081,0.031 -0.163,0.063 -0.239,0.094 0.09,0.02 0.165,0.036 0.239,0.052 z"
           id="path233"
           inkscape:connector-curvature="0"
           style="fill:#cee3ce" /><path
           d="m 265.986,289.809 c -0.037,-0.035 -0.138,-0.065 -0.211,-0.098 -0.076,0.016 -0.225,0.035 -0.212,0.047 0.034,0.035 0.136,0.065 0.212,0.098 0.073,-0.016 0.222,-0.037 0.211,-0.047 z"
           id="path235"
           inkscape:connector-curvature="0"
           style="fill:#cee3ce" /><path
           d="m 266.545,288.965 c 0.091,-0.02 0.165,-0.035 0.24,-0.051 -0.149,-0.017 -0.295,-0.038 -0.452,-0.045 -0.057,-0.004 -0.146,0.028 -0.223,0.045 0.149,0.018 0.294,0.034 0.435,0.051 z"
           id="path237"
           inkscape:connector-curvature="0"
           style="fill:#cee3ce" /><path
           d="m 269.149,271.604 c -0.076,0.031 -0.178,0.063 -0.211,0.097 -0.014,0.012 0.135,0.032 0.211,0.048 0.078,-0.031 0.161,-0.063 0.238,-0.093 -0.091,-0.021 -0.165,-0.037 -0.238,-0.052 z"
           id="path239"
           inkscape:connector-curvature="0"
           style="fill:#cee3ce" /><path
           d="m 267.798,288.842 c -0.076,0.016 -0.225,0.035 -0.211,0.047 0.036,0.034 0.135,0.065 0.211,0.098 0.075,-0.016 0.151,-0.032 0.24,-0.052 -0.08,-0.031 -0.159,-0.062 -0.24,-0.093 z"
           id="path241"
           inkscape:connector-curvature="0"
           style="fill:#cee3ce" /><path
           d="m 267.746,265.646 c 0.027,0.003 0.09,-0.007 0.161,-0.021 -0.083,-0.024 -0.156,-0.054 -0.241,-0.077 -0.147,0.029 -0.219,0.061 0.08,0.098 z"
           id="path243"
           inkscape:connector-curvature="0"
           style="fill:#cee3ce" /><path
           d="m 262.06,267.039 c 0.076,0.017 0.169,0.049 0.225,0.047 0.158,-0.008 0.302,-0.03 0.452,-0.047 -0.076,-0.016 -0.15,-0.031 -0.241,-0.051 -0.142,0.017 -0.287,0.035 -0.436,0.051 z"
           id="path245"
           inkscape:connector-curvature="0"
           style="fill:#cee3ce" /><path
           d="m 266.222,266.873 c -0.03,0.012 -0.023,0.037 0.017,0.048 0.25,0.073 0.916,0.069 1.114,-0.003 -0.005,-0.017 0.019,-0.037 -0.021,-0.049 -0.251,-0.072 -0.922,-0.07 -1.11,0.004 z"
           id="path247"
           inkscape:connector-curvature="0"
           style="fill:#cee3ce" /><path
           d="m 266.448,278.557 c 0.074,-0.032 0.176,-0.063 0.211,-0.098 0.011,-0.012 -0.137,-0.031 -0.211,-0.048 -0.081,0.032 -0.163,0.063 -0.239,0.094 0.089,0.019 0.165,0.035 0.239,0.052 z"
           id="path249"
           inkscape:connector-curvature="0"
           style="fill:#cee3ce" /><path
           d="m 266.237,282.709 c -0.012,0.013 0.138,0.031 0.212,0.049 0.08,-0.031 0.162,-0.063 0.238,-0.094 -0.089,-0.02 -0.164,-0.035 -0.238,-0.052 -0.075,0.033 -0.177,0.064 -0.212,0.097 z"
           id="path251"
           inkscape:connector-curvature="0"
           style="fill:#cee3ce" /><path
           d="m 270.96,303.955 c 0.036,0.035 0.136,0.064 0.211,0.098 0.076,-0.016 0.225,-0.037 0.212,-0.049 -0.035,-0.033 -0.136,-0.064 -0.212,-0.096 -0.075,0.015 -0.224,0.035 -0.211,0.047 z"
           id="path253"
           inkscape:connector-curvature="0"
           style="fill:#cee3ce" /><path
           d="m 271.818,295.217 c -0.058,-0.012 -0.244,-0.01 -0.297,0.001 -0.053,0.011 -0.01,0.042 -0.011,0.065 -0.009,0.189 0.383,0.271 1.039,0.215 0.089,-0.008 0.149,-0.031 0.313,-0.066 -0.346,-0.073 -0.686,-0.147 -1.044,-0.215 z"
           id="path255"
           inkscape:connector-curvature="0"
           style="fill:#cee3ce" /><path
           d="m 277.214,296.516 c 0.173,-0.014 0.289,-0.049 0.344,-0.089 -0.006,-0.037 -0.011,-0.073 -0.017,-0.11 -0.016,-0.011 -0.021,-0.021 -0.046,-0.031 -0.051,-0.02 -0.149,-0.034 -0.226,-0.051 -0.075,0.014 -0.157,0.025 -0.227,0.039 -0.157,0.032 -0.297,0.068 -0.462,0.098 -0.285,0.05 -0.368,0.105 -0.002,0.145 0.172,0.017 0.448,0.014 0.636,-10e-4 z"
           id="path257"
           inkscape:connector-curvature="0"
           style="fill:#cee3ce" /><path
           d="m 277.571,298.115 c -0.05,-0.011 -0.217,-0.012 -0.284,-0.001 -0.22,0.034 -0.499,0.075 -0.092,0.125 0.053,0.006 0.254,-0.041 0.389,-0.063 -10e-4,-0.02 0.037,-0.051 -0.013,-0.061 z"
           id="path259"
           inkscape:connector-curvature="0"
           style="fill:#cee3ce" /><path
           d="m 277.718,297.771 c -0.009,-0.107 -0.018,-0.215 -0.029,-0.325 -0.054,-0.034 -0.091,-0.075 -0.108,-0.128 -0.022,-0.066 -0.081,-0.132 -0.119,-0.193 -0.179,0 -0.285,-0.008 -0.332,10e-4 -0.425,0.073 -0.136,0.177 -0.222,0.265 -0.153,0.157 0.142,0.268 0.696,0.369 0.047,0.009 0.073,0.006 0.114,0.011 z"
           id="path261"
           inkscape:connector-curvature="0"
           style="fill:#cee3ce" /><path
           d="m 276.136,295.889 c -0.078,-0.031 -0.16,-0.063 -0.239,-0.094 -0.076,0.016 -0.224,0.035 -0.211,0.048 0.035,0.034 0.135,0.065 0.211,0.097 0.074,-0.016 0.147,-0.032 0.239,-0.051 z"
           id="path263"
           inkscape:connector-curvature="0"
           style="fill:#cee3ce" /><path
           d="m 277.245,296.809 c 0.074,-0.016 0.223,-0.035 0.21,-0.047 -0.035,-0.035 -0.136,-0.066 -0.21,-0.098 -0.075,0.017 -0.15,0.031 -0.24,0.051 0.078,0.031 0.16,0.062 0.24,0.094 z"
           id="path265"
           inkscape:connector-curvature="0"
           style="fill:#cee3ce" /><path
           d="m 275.897,297.533 c 0.074,-0.032 0.174,-0.063 0.21,-0.098 0.013,-0.012 -0.136,-0.031 -0.21,-0.047 -0.083,0.031 -0.163,0.063 -0.24,0.092 0.087,0.021 0.164,0.038 0.24,0.053 z"
           id="path267"
           inkscape:connector-curvature="0"
           style="fill:#cee3ce" /><path
           d="m 275.557,302.386 c -0.147,-0.018 -0.294,-0.037 -0.452,-0.045 -0.055,-0.004 -0.146,0.027 -0.221,0.045 0.146,0.018 0.293,0.035 0.434,0.051 0.091,-0.02 0.166,-0.035 0.239,-0.051 z"
           id="path269"
           inkscape:connector-curvature="0"
           style="fill:#cee3ce" /><path
           d="m 275.853,299.849 c 0.126,-0.023 0.227,-0.055 0.308,-0.086 0.013,-0.006 -0.132,-0.029 -0.209,-0.045 -0.131,0.021 -0.282,0.041 -0.385,0.068 -0.049,0.014 -0.047,0.051 0.004,0.061 0.048,0.012 0.222,0.012 0.282,0.002 z"
           id="path271"
           inkscape:connector-curvature="0"
           style="fill:#cee3ce" /><path
           d="m 275.547,299.853 c -0.049,-0.012 -0.218,-0.012 -0.284,0 -0.223,0.033 -0.5,0.074 -0.094,0.125 0.056,0.008 0.256,-0.041 0.388,-0.063 0,-0.021 0.04,-0.052 -0.01,-0.062 z"
           id="path273"
           inkscape:connector-curvature="0"
           style="fill:#cee3ce" /><path
           d="m 271.945,299.685 c 0.09,-0.02 0.165,-0.035 0.239,-0.051 -0.149,-0.018 -0.294,-0.039 -0.453,-0.047 -0.055,-0.002 -0.147,0.029 -0.221,0.047 0.146,0.016 0.292,0.033 0.435,0.051 z"
           id="path275"
           inkscape:connector-curvature="0"
           style="fill:#cee3ce" /><path
           d="m 272.088,298.929 c -0.079,-0.029 -0.161,-0.061 -0.241,-0.092 -0.076,0.016 -0.223,0.035 -0.211,0.047 0.036,0.033 0.135,0.064 0.211,0.098 0.076,-0.016 0.148,-0.033 0.241,-0.053 z"
           id="path277"
           inkscape:connector-curvature="0"
           style="fill:#cee3ce" /><path
           d="m 272.406,309.15 c -0.055,-0.004 -0.147,0.027 -0.223,0.045 0.147,0.018 0.294,0.033 0.435,0.051 0.09,-0.02 0.163,-0.035 0.24,-0.051 -0.15,-0.018 -0.292,-0.039 -0.452,-0.045 z"
           id="path279"
           inkscape:connector-curvature="0"
           style="fill:#cee3ce" /><path
           d="m 277.343,300.265 c 0.09,-0.02 0.164,-0.037 0.24,-0.053 -0.15,-0.016 -0.295,-0.037 -0.454,-0.045 -0.055,-0.002 -0.146,0.029 -0.222,0.045 0.148,0.018 0.294,0.036 0.436,0.053 z"
           id="path281"
           inkscape:connector-curvature="0"
           style="fill:#cee3ce" /><path
           d="m 277.735,298.011 c -0.067,0.011 -0.123,0.022 -0.131,0.035 -0.042,0.057 0.03,0.076 0.138,0.079 -0.002,-0.038 -0.004,-0.076 -0.007,-0.114 z"
           id="path283"
           inkscape:connector-curvature="0"
           style="fill:#cee3ce" /><path
           d="m 272.762,314.533 c -0.091,-0.02 -0.165,-0.035 -0.239,-0.051 -0.076,0.031 -0.177,0.063 -0.211,0.098 -0.014,0.012 0.135,0.031 0.211,0.047 0.08,-0.032 0.161,-0.063 0.239,-0.094 z"
           id="path285"
           inkscape:connector-curvature="0"
           style="fill:#cee3ce" /><path
           d="m 272.734,314.144 c -0.037,-0.033 -0.137,-0.064 -0.211,-0.096 -0.076,0.016 -0.152,0.031 -0.241,0.051 0.078,0.029 0.159,0.061 0.241,0.092 0.074,-0.016 0.221,-0.035 0.211,-0.047 z"
           id="path287"
           inkscape:connector-curvature="0"
           style="fill:#cee3ce" /><path
           d="m 249.142,305.449 c -0.078,-0.031 -0.159,-0.061 -0.238,-0.094 -0.075,0.016 -0.224,0.035 -0.211,0.047 0.034,0.035 0.136,0.066 0.211,0.098 0.074,-0.016 0.148,-0.032 0.238,-0.051 z"
           id="path289"
           inkscape:connector-curvature="0"
           style="fill:#cee3ce" /><path
           d="m 275.432,297.196 c -0.036,-0.034 -0.135,-0.065 -0.211,-0.098 -0.075,0.017 -0.224,0.035 -0.211,0.048 0.037,0.033 0.136,0.064 0.211,0.098 0.076,-0.016 0.225,-0.036 0.211,-0.048 z"
           id="path291"
           inkscape:connector-curvature="0"
           style="fill:#cee3ce" /><path
           d="m 275.318,292.049 c -0.141,0.018 -0.288,0.035 -0.434,0.052 0.074,0.017 0.166,0.048 0.221,0.046 0.158,-0.008 0.305,-0.029 0.452,-0.046 -0.073,-0.016 -0.148,-0.033 -0.239,-0.052 z"
           id="path293"
           inkscape:connector-curvature="0"
           style="fill:#cee3ce" /><path
           d="m 249.365,283.385 c 0.035,0.033 0.137,0.064 0.212,0.097 0.073,-0.017 0.149,-0.032 0.238,-0.052 -0.075,-0.029 -0.157,-0.063 -0.238,-0.093 -0.075,0.016 -0.222,0.036 -0.212,0.048 z"
           id="path295"
           inkscape:connector-curvature="0"
           style="fill:#cee3ce" /><path
           d="m 274.895,299.273 c -0.05,0.012 -0.053,0.049 -0.004,0.061 0.106,0.027 0.251,0.051 0.399,0.066 0.023,0.004 0.135,-0.027 0.213,-0.045 -0.104,-0.027 -0.196,-0.061 -0.325,-0.082 -0.063,-0.01 -0.233,-0.01 -0.283,0 z"
           id="path297"
           inkscape:connector-curvature="0"
           style="fill:#cee3ce" /><path
           d="m 248.904,283.916 c 0.074,-0.016 0.222,-0.035 0.21,-0.048 -0.036,-0.034 -0.136,-0.064 -0.21,-0.097 -0.006,10e-4 -0.014,0.002 -0.021,0.004 l -0.001,0.132 c 0.007,0.003 0.015,0.006 0.022,0.009 z"
           id="path299"
           inkscape:connector-curvature="0"
           style="fill:#cee3ce" /><path
           d="m 248.904,288.986 c 0.074,-0.016 0.148,-0.032 0.238,-0.052 -0.078,-0.03 -0.159,-0.062 -0.238,-0.093 -0.022,0.004 -0.05,0.009 -0.078,0.014 l -0.001,0.099 c 0.026,0.011 0.054,0.022 0.079,0.032 z"
           id="path301"
           inkscape:connector-curvature="0"
           style="fill:#cee3ce" /><path
           d="m 251.961,279.535 c 0.032,0.062 0.202,0.12 0.316,0.18 0.112,-0.06 0.225,-0.119 0.336,-0.18 -0.111,-0.037 -0.224,-0.073 -0.336,-0.109 -0.114,0.036 -0.333,0.075 -0.316,0.109 z"
           id="path303"
           inkscape:connector-curvature="0"
           style="fill:#cee3ce" /><path
           d="m 250.715,276.48 c -0.014,0.012 0.135,0.031 0.212,0.048 0.082,-0.032 0.16,-0.063 0.239,-0.093 -0.09,-0.02 -0.165,-0.036 -0.239,-0.052 -0.077,0.033 -0.176,0.064 -0.212,0.097 z"
           id="path305"
           inkscape:connector-curvature="0"
           style="fill:#cee3ce" /><path
           d="m 250.595,288.037 c 0.027,0.02 0.13,0.035 0.213,0.055 0.484,0.008 0.581,-0.102 0.899,-0.144 0.089,-0.012 0.155,-0.032 0.23,-0.048 -0.168,-0.025 -0.33,-0.066 -0.509,-0.07 -0.698,-0.017 -1.02,0.066 -0.833,0.207 z"
           id="path307"
           inkscape:connector-curvature="0"
           style="fill:#cee3ce" /><path
           d="m 251.166,270.206 c -0.09,-0.019 -0.165,-0.036 -0.239,-0.052 -0.077,0.033 -0.176,0.063 -0.212,0.098 -0.014,0.012 0.135,0.031 0.212,0.047 0.082,-0.031 0.16,-0.063 0.239,-0.093 z"
           id="path309"
           inkscape:connector-curvature="0"
           style="fill:#cee3ce" /><path
           d="m 275.329,308.664 c 0.076,-0.039 0.202,-0.078 0.22,-0.119 0.062,-0.139 -0.595,-0.176 -0.901,-0.264 -0.02,-0.006 -0.393,0.023 -0.422,0.045 -0.157,0.129 0.527,0.33 1.103,0.338 z"
           id="path311"
           inkscape:connector-curvature="0"
           style="fill:#cee3ce" /><path
           d="m 256.999,265.374 c 0.076,-0.017 0.224,-0.036 0.21,-0.048 -0.022,-0.023 -0.08,-0.046 -0.138,-0.068 -0.084,0.012 -0.168,0.022 -0.252,0.035 0.046,0.028 0.119,0.054 0.18,0.081 z"
           id="path313"
           inkscape:connector-curvature="0"
           style="fill:#cee3ce" /><path
           d="m 250.927,272.762 c 0.074,-0.032 0.176,-0.063 0.211,-0.097 0.014,-0.013 -0.137,-0.032 -0.211,-0.048 -0.082,0.031 -0.162,0.063 -0.24,0.094 0.09,0.018 0.163,0.035 0.24,0.051 z"
           id="path315"
           inkscape:connector-curvature="0"
           style="fill:#cee3ce" /><path
           d="m 251.602,303.039 c 0.113,-0.037 0.241,-0.072 0.329,-0.111 0.043,-0.02 0.007,-0.047 0.009,-0.07 -0.114,-0.035 -0.225,-0.072 -0.338,-0.109 -0.112,0.061 -0.284,0.119 -0.313,0.182 -0.019,0.031 0.201,0.07 0.313,0.108 z"
           id="path317"
           inkscape:connector-curvature="0"
           style="fill:#cee3ce" /><path
           d="m 256.565,282.852 c -0.076,-0.031 -0.159,-0.063 -0.24,-0.094 -0.073,0.016 -0.222,0.035 -0.209,0.047 0.034,0.035 0.136,0.065 0.209,0.098 0.075,-0.017 0.151,-0.033 0.24,-0.051 z"
           id="path319"
           inkscape:connector-curvature="0"
           style="fill:#cee3ce" /><path
           d="m 250.012,298.785 c 0.091,0.02 0.165,0.035 0.239,0.053 0.075,-0.033 0.176,-0.064 0.211,-0.098 0.012,-0.012 -0.136,-0.033 -0.211,-0.049 -0.078,0.033 -0.162,0.064 -0.239,0.094 z"
           id="path321"
           inkscape:connector-curvature="0"
           style="fill:#cee3ce" /><path
           d="m 253.288,310.787 c -0.149,-0.016 -0.294,-0.037 -0.453,-0.043 -0.056,-0.004 -0.146,0.027 -0.222,0.043 0.148,0.02 0.293,0.035 0.435,0.053 0.091,-0.02 0.165,-0.036 0.24,-0.053 z"
           id="path323"
           inkscape:connector-curvature="0"
           style="fill:#cee3ce" /><path
           d="m 251.934,317.597 c -0.069,-0.012 -0.156,-0.021 -0.246,-0.029 0.113,0.026 0.218,0.029 0.331,0.046 -0.029,-0.005 -0.061,-0.011 -0.085,-0.017 z"
           id="path325"
           inkscape:connector-curvature="0"
           style="fill:#cee3ce" /><path
           d="m 274.888,299.199 c -0.029,-0.021 -0.029,-0.049 0,-0.07 0.061,-0.043 0.132,-0.086 0.232,-0.125 0.404,-0.154 0.383,-0.164 -0.478,-0.166 -0.223,0 -0.524,-0.02 -0.654,0.004 -0.21,0.037 -0.494,0.127 -0.422,0.156 0.252,0.1 0.598,0.195 0.998,0.27 0.246,0.046 0.424,0.003 0.324,-0.069 z"
           id="path327"
           inkscape:connector-curvature="0"
           style="fill:#cee3ce" /><path
           d="m 257.098,279.302 c -0.142,0.017 -0.289,0.034 -0.435,0.052 0.075,0.016 0.167,0.048 0.221,0.045 0.16,-0.008 0.302,-0.029 0.454,-0.045 -0.075,-0.017 -0.152,-0.034 -0.24,-0.052 z"
           id="path329"
           inkscape:connector-curvature="0"
           style="fill:#cee3ce" /><path
           d="m 250.59,291.088 c -0.147,-0.018 -0.292,-0.035 -0.435,-0.053 -0.091,0.02 -0.165,0.036 -0.241,0.053 0.15,0.016 0.294,0.037 0.453,0.045 0.055,0.002 0.147,-0.029 0.223,-0.045 z"
           id="path331"
           inkscape:connector-curvature="0"
           style="fill:#cee3ce" /><path
           d="m 250.491,285.893 c -0.077,-0.03 -0.158,-0.062 -0.24,-0.094 -0.074,0.017 -0.224,0.037 -0.212,0.049 0.037,0.033 0.138,0.064 0.212,0.096 0.075,-0.016 0.151,-0.032 0.24,-0.051 z"
           id="path333"
           inkscape:connector-curvature="0"
           style="fill:#cee3ce" /><path
           d="m 251.138,298.016 c 0.014,-0.012 -0.137,-0.032 -0.211,-0.049 -0.082,0.032 -0.162,0.064 -0.24,0.095 0.092,0.019 0.163,0.035 0.24,0.052 0.074,-0.034 0.176,-0.065 0.211,-0.098 z"
           id="path335"
           inkscape:connector-curvature="0"
           style="fill:#cee3ce" /><path
           d="m 251.938,299.779 c -0.074,-0.018 -0.164,-0.049 -0.221,-0.047 -0.158,0.008 -0.303,0.029 -0.452,0.047 0.073,0.016 0.149,0.031 0.238,0.051 0.142,-0.018 0.29,-0.036 0.435,-0.051 z"
           id="path337"
           inkscape:connector-curvature="0"
           style="fill:#cee3ce" /><path
           d="m 255.653,280.874 c 0.073,-0.032 0.174,-0.063 0.21,-0.097 0.012,-0.012 -0.137,-0.031 -0.21,-0.048 -0.084,0.032 -0.164,0.063 -0.24,0.093 0.087,0.02 0.162,0.036 0.24,0.052 z"
           id="path339"
           inkscape:connector-curvature="0"
           style="fill:#cee3ce" /><path
           d="m 255.863,279.957 c -0.036,-0.033 -0.137,-0.064 -0.21,-0.098 -0.077,0.018 -0.152,0.033 -0.24,0.053 0.076,0.03 0.156,0.063 0.24,0.094 0.073,-0.018 0.221,-0.037 0.21,-0.049 z"
           id="path341"
           inkscape:connector-curvature="0"
           style="fill:#cee3ce" /><path
           d="m 255.313,268.778 c 0.076,0.017 0.166,0.048 0.225,0.046 0.156,-0.008 0.303,-0.029 0.45,-0.046 -0.075,-0.017 -0.166,-0.048 -0.221,-0.044 -0.16,0.007 -0.303,0.028 -0.454,0.044 z"
           id="path343"
           inkscape:connector-curvature="0"
           style="fill:#cee3ce" /><path
           d="m 255.891,285.416 c -0.091,-0.019 -0.165,-0.035 -0.238,-0.051 -0.077,0.032 -0.178,0.063 -0.212,0.097 -0.014,0.012 0.135,0.032 0.212,0.048 0.078,-0.031 0.16,-0.063 0.238,-0.094 z"
           id="path345"
           inkscape:connector-curvature="0"
           style="fill:#cee3ce" /><path
           d="m 256.115,281.356 c 0.034,0.034 0.136,0.065 0.209,0.098 0.075,-0.017 0.224,-0.036 0.211,-0.048 -0.034,-0.033 -0.136,-0.065 -0.211,-0.098 -0.073,0.016 -0.221,0.037 -0.209,0.048 z"
           id="path347"
           inkscape:connector-curvature="0"
           style="fill:#cee3ce" /><path
           d="m 256.209,281.625 c -0.055,-0.002 -0.146,0.029 -0.222,0.046 0.147,0.017 0.293,0.034 0.436,0.052 0.091,-0.02 0.165,-0.035 0.24,-0.052 -0.149,-0.017 -0.294,-0.038 -0.454,-0.046 z"
           id="path349"
           inkscape:connector-curvature="0"
           style="fill:#cee3ce" /><path
           d="m 257.209,290.242 c -0.032,-0.034 -0.134,-0.064 -0.21,-0.098 -0.074,0.018 -0.223,0.037 -0.211,0.049 0.036,0.033 0.137,0.064 0.211,0.097 0.076,-0.016 0.224,-0.036 0.21,-0.048 z"
           id="path351"
           inkscape:connector-curvature="0"
           style="fill:#cee3ce" /><path
           d="m 256.324,280.15 c -0.08,0.031 -0.162,0.063 -0.238,0.093 0.09,0.02 0.165,0.035 0.238,0.052 0.075,-0.032 0.177,-0.063 0.211,-0.098 0.013,-0.011 -0.135,-0.031 -0.211,-0.047 z"
           id="path353"
           inkscape:connector-curvature="0"
           style="fill:#cee3ce" /><path
           d="m 254.629,269.795 c -0.167,0.029 -0.312,0.064 -0.46,0.099 -0.066,0.015 -0.121,0.032 -0.18,0.049 0.173,0.022 0.338,0.06 0.519,0.064 0.471,0.011 0.843,-0.019 0.811,-0.144 -0.083,-0.041 -0.158,-0.08 -0.234,-0.119 -0.153,0.017 -0.321,0.029 -0.456,0.051 z"
           id="path355"
           inkscape:connector-curvature="0"
           style="fill:#cee3ce" /><path
           d="m 256.115,293.234 c 0.034,0.035 0.136,0.066 0.209,0.098 0.075,-0.016 0.151,-0.031 0.24,-0.052 -0.076,-0.03 -0.159,-0.062 -0.24,-0.093 -0.073,0.016 -0.221,0.036 -0.209,0.047 z"
           id="path357"
           inkscape:connector-curvature="0"
           style="fill:#cee3ce" /><path
           d="m 256.324,288.697 c -0.073,0.031 -0.175,0.063 -0.209,0.097 -0.013,0.012 0.136,0.032 0.209,0.048 0.081,-0.031 0.164,-0.063 0.24,-0.094 -0.088,-0.019 -0.164,-0.035 -0.24,-0.051 z"
           id="path359"
           inkscape:connector-curvature="0"
           style="fill:#cee3ce" /><path
           d="m 257.07,300.705 c 0.025,0.002 0.135,-0.029 0.213,-0.045 -0.105,-0.027 -0.198,-0.061 -0.326,-0.082 -0.06,-0.012 -0.232,-0.012 -0.283,0 -0.051,0.01 -0.052,0.047 -0.002,0.061 0.105,0.027 0.251,0.048 0.398,0.066 z"
           id="path361"
           inkscape:connector-curvature="0"
           style="fill:#cee3ce" /><path
           d="m 255.366,309.248 c -0.166,-0.053 -0.278,-0.09 -0.391,-0.125 -0.075,0.016 -0.152,0.031 -0.231,0.049 -0.15,0.033 -0.322,0.063 -0.45,0.1 -0.096,0.027 -0.134,0.064 -0.197,0.098 0.296,0.014 0.647,0.055 0.869,0.033 0.211,-0.021 0.287,-0.107 0.4,-0.155 z"
           id="path363"
           inkscape:connector-curvature="0"
           style="fill:#cee3ce" /><path
           d="m 254.87,304.22 c -0.343,0.041 -0.353,0.186 -0.016,0.238 0.052,0.01 0.151,0.004 0.229,0.004 0.338,-0.041 0.352,-0.184 0.012,-0.238 -0.051,-0.008 -0.167,-0.01 -0.225,-0.004 z"
           id="path365"
           inkscape:connector-curvature="0"
           style="fill:#cee3ce" /><path
           d="m 254.861,278.873 c -0.056,-0.002 -0.148,0.029 -0.223,0.045 0.147,0.018 0.294,0.035 0.436,0.053 0.092,-0.02 0.165,-0.036 0.239,-0.053 -0.148,-0.016 -0.294,-0.037 -0.452,-0.045 z"
           id="path367"
           inkscape:connector-curvature="0"
           style="fill:#cee3ce" /><path
           d="m 256.647,287.755 c 0,-0.017 -0.126,-0.041 -0.218,-0.048 -0.194,-0.014 -0.413,-0.029 -0.6,-0.021 -0.188,0.008 -0.347,0.045 -0.517,0.069 0.17,0.024 0.329,0.062 0.517,0.069 0.187,0.008 0.4,-0.012 0.603,-0.02 0.076,-0.016 0.215,-0.033 0.215,-0.049 z"
           id="path369"
           inkscape:connector-curvature="0"
           style="fill:#cee3ce" /><path
           d="m 277.59,299.16 c 0.031,0.036 0.09,0.065 0.191,0.086 -0.001,-0.076 -0.001,-0.152 -0.002,-0.231 -0.166,0.029 -0.246,0.078 -0.189,0.145 z"
           id="path371"
           inkscape:connector-curvature="0"
           style="fill:#cee3ce" /></g><path
         d="m 250.6,282.729 c 0.023,0.009 0.091,0.01 0.098,0.004 0.043,-0.038 0.074,-0.079 0.128,-0.142 -0.064,-0.029 -0.167,-0.102 -0.216,-0.095 -0.164,0.025 -0.162,0.18 -0.01,0.233 z m 24.806,30.306 c -0.021,0.012 -0.023,0.049 -0.002,0.061 0.021,0.014 0.055,0.021 0.083,0.031 0.018,-0.029 0.035,-0.059 0.053,-0.088 -0.002,-10e-4 -0.004,-0.002 -0.006,-0.004 -0.028,-0.01 -0.107,-0.01 -0.128,0 z m -24.093,-36.244 c 0.025,0.002 0.066,-0.029 0.101,-0.045 -0.066,-0.018 -0.133,-0.035 -0.196,-0.052 -0.041,0.02 -0.074,0.035 -0.107,0.052 0.065,0.016 0.129,0.037 0.202,0.045 z m -0.052,-6.492 c -0.036,0.032 -0.072,0.063 -0.109,0.094 0.041,0.02 0.075,0.035 0.109,0.052 0.033,-0.032 0.08,-0.063 0.094,-0.098 0.007,-0.013 -0.061,-0.032 -0.094,-0.048 z m -0.044,0.704 c 0.063,-0.017 0.13,-0.034 0.196,-0.052 -0.034,-0.016 -0.075,-0.048 -0.101,-0.045 -0.072,0.007 -0.137,0.029 -0.203,0.045 0.034,0.016 0.067,0.033 0.108,0.052 z m -0.456,8.185 c -0.04,-0.02 -0.074,-0.035 -0.107,-0.052 -0.034,0.032 -0.079,0.063 -0.094,0.097 -0.007,0.014 0.06,0.031 0.094,0.049 0.036,-0.032 0.073,-0.064 0.107,-0.094 z m -0.362,-10.459 c -0.036,0.001 -0.079,-0.004 -0.103,0.006 -0.152,0.053 -0.146,0.197 0.007,0.237 0.025,0.007 0.077,0.005 0.101,-0.004 0.153,-0.054 0.146,-0.197 -0.005,-0.239 z m 0.753,28.462 c 0.041,0.02 0.075,0.036 0.109,0.053 0.033,-0.033 0.08,-0.064 0.094,-0.098 0.007,-0.013 -0.061,-0.031 -0.094,-0.048 -0.036,0.033 -0.072,0.063 -0.109,0.093 z m -0.551,13.842 c -0.025,-0.004 -0.064,0.027 -0.1,0.045 0.066,0.018 0.132,0.035 0.196,0.051 0.04,-0.018 0.074,-0.035 0.108,-0.051 -0.067,-0.018 -0.131,-0.037 -0.204,-0.045 z m -0.706,0.914 c 0.032,0.016 0.074,0.047 0.1,0.045 0.071,-0.008 0.137,-0.029 0.203,-0.045 -0.033,-0.016 -0.074,-0.049 -0.099,-0.045 -0.072,0.008 -0.137,0.029 -0.204,0.045 z m 0.106,-30.761 c -0.039,0.019 -0.074,0.035 -0.106,0.051 0.067,0.016 0.132,0.037 0.204,0.045 0.024,0.004 0.065,-0.029 0.099,-0.045 -0.066,-0.018 -0.132,-0.036 -0.197,-0.051 z m -1.017,-4.875 c 0.034,0.016 0.074,0.049 0.1,0.047 0.072,-0.01 0.137,-0.031 0.204,-0.047 -0.034,-0.016 -0.067,-0.031 -0.108,-0.051 -0.065,0.016 -0.131,0.033 -0.196,0.051 z m 0.758,4.418 c -0.034,0.017 -0.102,0.036 -0.095,0.048 0.016,0.033 0.061,0.064 0.095,0.097 0.034,-0.016 0.067,-0.032 0.108,-0.052 -0.035,-0.03 -0.07,-0.06 -0.108,-0.093 z m -0.255,-7.655 c -0.034,0.002 -0.077,-0.003 -0.102,0.005 -0.152,0.054 -0.148,0.198 0.008,0.238 0.025,0.007 0.078,0.005 0.101,-0.003 0.152,-0.054 0.145,-0.197 -0.007,-0.24 z m -0.1,21.589 c -0.025,-0.003 -0.065,0.029 -0.1,0.046 0.065,0.017 0.133,0.034 0.196,0.051 0.039,-0.02 0.074,-0.035 0.107,-0.051 -0.067,-0.017 -0.132,-0.039 -0.203,-0.046 z m 1.723,-17.628 c -0.068,-0.016 -0.132,-0.038 -0.205,-0.045 -0.024,-0.003 -0.065,0.029 -0.099,0.045 0.065,0.018 0.131,0.035 0.195,0.053 0.04,-0.022 0.074,-0.037 0.109,-0.053 z m -0.109,2.805 c 0.04,-0.02 0.074,-0.035 0.108,-0.053 -0.068,-0.016 -0.132,-0.037 -0.205,-0.045 -0.024,-0.002 -0.065,0.029 -0.099,0.045 0.066,0.018 0.132,0.035 0.196,0.053 z m 0.216,28.536 c 0.063,-0.018 0.13,-0.033 0.196,-0.051 -0.034,-0.018 -0.075,-0.049 -0.101,-0.045 -0.072,0.006 -0.137,0.027 -0.203,0.045 0.034,0.016 0.067,0.032 0.108,0.051 z m -1.215,-3.58 c -0.04,0.02 -0.075,0.035 -0.107,0.053 0.067,0.016 0.132,0.037 0.204,0.045 0.024,0.002 0.065,-0.029 0.099,-0.045 -0.066,-0.017 -0.132,-0.035 -0.196,-0.053 z m 0.86,-18.079 c 0.016,0.033 0.062,0.064 0.095,0.098 0.034,-0.018 0.068,-0.033 0.109,-0.053 -0.035,-0.029 -0.071,-0.062 -0.109,-0.093 -0.034,0.016 -0.1,0.036 -0.095,0.048 z m -0.316,-3.287 c 0.04,0.02 0.073,0.035 0.107,0.052 0.033,-0.032 0.08,-0.063 0.095,-0.097 0.005,-0.012 -0.062,-0.032 -0.095,-0.048 -0.036,0.03 -0.073,0.063 -0.107,0.093 z m -1.203,12.413 c 0.018,0.034 0.063,0.065 0.095,0.097 0.034,-0.016 0.069,-0.031 0.108,-0.051 -0.035,-0.031 -0.07,-0.063 -0.108,-0.094 -0.032,0.016 -0.1,0.035 -0.095,0.048 z m 24.889,-15.6 c 0.04,0.02 0.073,0.035 0.106,0.052 0.034,-0.032 0.079,-0.063 0.095,-0.098 0.006,-0.012 -0.061,-0.031 -0.095,-0.047 -0.037,0.032 -0.072,0.063 -0.106,0.093 z m -0.305,-5.649 c 0.04,0.02 0.073,0.035 0.107,0.051 0.034,-0.031 0.079,-0.063 0.096,-0.097 0.006,-0.012 -0.062,-0.032 -0.096,-0.048 -0.036,0.031 -0.073,0.063 -0.107,0.094 z m -0.344,-4.002 c -0.021,0.011 -0.022,0.048 0,0.061 0.035,0.02 0.083,0.034 0.129,0.048 -0.014,-0.038 -0.026,-0.077 -0.042,-0.114 -0.032,-0.004 -0.071,-0.004 -0.087,0.005 z m 0.499,1.904 c -0.088,-0.013 -0.188,-0.029 -0.271,-0.02 -0.083,0.007 -0.154,0.044 -0.23,0.068 0.076,0.023 0.147,0.061 0.23,0.068 0.084,0.008 0.182,-0.012 0.272,-0.02 0.034,-0.017 0.068,-0.033 0.104,-0.049 -0.035,-0.016 -0.064,-0.04 -0.105,-0.047 z m -4.047,18.346 c 0.072,-0.008 0.137,-0.029 0.203,-0.045 -0.033,-0.016 -0.066,-0.032 -0.107,-0.051 -0.064,0.016 -0.129,0.033 -0.196,0.051 0.034,0.016 0.076,0.048 0.1,0.045 z m 1.216,-23.557 c -0.025,-0.004 -0.067,0.028 -0.102,0.045 0.066,0.018 0.132,0.035 0.196,0.051 0.005,-0.002 0.008,-0.004 0.013,-0.006 -0.036,-0.029 -0.069,-0.06 -0.105,-0.089 0,0 -10e-4,-10e-4 -0.002,-10e-4 z m 0.71,2.118 c 0.025,0.003 0.065,-0.029 0.101,-0.046 -0.066,-0.017 -0.133,-0.034 -0.197,-0.052 -0.039,0.021 -0.073,0.036 -0.108,0.052 0.068,0.017 0.133,0.039 0.204,0.046 z m -0.962,30.737 c -0.037,0.031 -0.074,0.063 -0.109,0.094 0.041,0.02 0.074,0.035 0.109,0.051 0.033,-0.031 0.077,-0.063 0.093,-0.098 0.006,-0.012 -0.06,-0.031 -0.093,-0.047 z m 2.472,-22.328 c 0.041,-0.02 0.075,-0.036 0.109,-0.052 -0.068,-0.016 -0.134,-0.038 -0.205,-0.045 -0.024,-0.003 -0.065,0.029 -0.1,0.045 0.067,0.017 0.132,0.035 0.196,0.052 z m -1.562,2.338 c -0.033,0.016 -0.101,0.035 -0.095,0.047 0.015,0.034 0.062,0.065 0.095,0.098 0.033,-0.017 0.066,-0.032 0.107,-0.052 -0.033,-0.03 -0.07,-0.061 -0.107,-0.093 z m -2.126,35.635 c 0.035,-0.016 0.101,-0.035 0.096,-0.047 -0.017,-0.035 -0.061,-0.064 -0.096,-0.098 -0.033,0.016 -0.101,0.035 -0.095,0.049 0.016,0.033 0.062,0.064 0.095,0.096 z m 1.267,-35.174 c -0.071,0.008 -0.137,0.029 -0.204,0.045 0.034,0.017 0.075,0.049 0.101,0.046 0.071,-0.007 0.137,-0.029 0.203,-0.046 -0.034,-0.015 -0.075,-0.048 -0.1,-0.045 z m 2.523,-10.025 c 0.024,-0.01 0.024,-0.046 0.003,-0.061 -0.071,-0.047 -0.157,-0.107 -0.264,-0.02 -0.016,0.012 0.084,0.055 0.132,0.084 0.046,10e-4 0.108,0.008 0.129,-0.003 z m -0.753,3.479 c -0.033,0.017 -0.066,0.032 -0.106,0.052 0.035,0.031 0.069,0.063 0.106,0.094 0.035,-0.017 0.102,-0.035 0.097,-0.048 -0.019,-0.034 -0.062,-0.065 -0.097,-0.098 z m 0.608,1.45 c 0.051,-0.037 0.144,-0.073 0.142,-0.11 -0.003,-0.063 -0.066,-0.123 -0.142,-0.244 -0.076,0.121 -0.14,0.182 -0.144,0.244 -0.002,0.036 0.094,0.073 0.144,0.11 z m -11.235,42.154 c 0.034,-0.018 0.067,-0.033 0.108,-0.053 -0.036,-0.031 -0.072,-0.061 -0.108,-0.094 -0.034,0.016 -0.102,0.035 -0.096,0.049 0.016,0.034 0.061,0.065 0.096,0.098 z m -1.37,-3.252 c -0.071,-0.047 -0.157,-0.107 -0.265,-0.02 -0.014,0.012 0.086,0.055 0.133,0.084 0.045,0 0.09,0 0.135,0 -0.001,-0.021 0.019,-0.048 -0.003,-0.064 z m 8.702,-39.603 c -0.007,-0.006 -0.076,-0.005 -0.099,0.003 -0.152,0.054 -0.153,0.208 0.011,0.233 0.049,0.007 0.15,-0.065 0.216,-0.096 -0.055,-0.061 -0.085,-0.102 -0.128,-0.14 z m 1.279,36.781 c 0.132,-0.027 0.216,-0.043 0.297,-0.063 0.012,-0.004 0.009,-0.035 -0.009,-0.047 -0.112,-0.072 -0.436,-0.072 -0.487,0.006 -0.017,0.024 0.136,0.073 0.199,0.104 z m -8.963,3.463 c 0.031,0.004 0.077,-0.02 0.118,-0.031 0.019,-0.016 0.063,-0.037 0.052,-0.049 -0.016,-0.02 -0.08,-0.031 -0.097,-0.051 -0.148,-0.184 -0.416,-0.342 -0.523,-0.535 -0.039,-0.068 -0.156,-0.072 -0.2,-0.01 -0.063,0.092 -0.372,0.053 -0.365,0.17 0.38,0.094 0.232,0.355 0.625,0.443 0.123,0.028 0.256,0.047 0.39,0.063 z m -4.508,-22.884 c 0.035,-0.017 0.102,-0.037 0.096,-0.049 -0.017,-0.033 -0.061,-0.064 -0.096,-0.097 -0.033,0.017 -0.1,0.036 -0.095,0.048 0.017,0.033 0.062,0.066 0.095,0.098 z m 0.174,-23.891 c -0.053,-0.043 -0.12,-0.097 -0.187,-0.15 -0.143,0.068 -0.357,0.125 -0.404,0.207 -0.041,0.068 0.313,0.104 0.267,0.221 0.086,-0.017 0.222,-0.023 0.247,-0.052 0.054,-0.063 0.051,-0.136 0.077,-0.226 z m -0.5,0.405 c 0.024,0.007 0.114,-0.04 0.176,-0.063 0,-0.022 0,-0.044 0,-0.065 -0.046,0 -0.104,-0.008 -0.134,0.002 -0.101,0.034 -0.226,0.075 -0.042,0.126 z m 4.222,47.36 c 0.072,-0.008 0.138,-0.029 0.204,-0.047 -0.034,-0.016 -0.066,-0.031 -0.108,-0.051 -0.063,0.018 -0.128,0.033 -0.194,0.051 0.032,0.018 0.073,0.049 0.098,0.047 z m 7.225,-7.445 c -0.016,0.012 0.084,0.055 0.131,0.084 0.045,0 0.091,0 0.136,0 0,-0.021 0.017,-0.049 -0.003,-0.063 -0.071,-0.048 -0.157,-0.107 -0.264,-0.021 z m 0.272,0.086 c -0.022,0.012 -0.022,0.049 -10e-4,0.061 0.048,0.027 0.113,0.049 0.18,0.066 0.011,0.004 0.061,-0.027 0.095,-0.045 -0.048,-0.027 -0.088,-0.061 -0.146,-0.082 -0.029,-0.01 -0.105,-0.01 -0.128,0 z m 0.602,-6.303 c 0.065,0.018 0.132,0.035 0.196,0.051 0.039,-0.02 0.074,-0.035 0.107,-0.051 -0.068,-0.018 -0.134,-0.037 -0.204,-0.045 -0.024,-0.004 -0.065,0.028 -0.099,0.045 z m -12.498,-5.672 c -0.282,-0.163 -0.274,0.038 -0.351,0.075 -0.223,0.108 -0.213,0.141 0.047,0.156 0.23,0.016 0.334,0.086 0.487,0.139 0.016,0.004 0.118,-0.051 0.138,-0.059 0.114,-0.175 -0.171,-0.224 -0.321,-0.311 z m 5.808,19.135 c 0.033,-0.041 0.01,-0.094 0.01,-0.141 0,-0.047 0.011,-0.094 -0.005,-0.141 -0.005,-0.018 -0.075,-0.051 -0.098,-0.047 -0.072,0.012 -0.187,0.033 -0.191,0.055 -0.022,0.094 -0.015,0.189 -0.005,0.281 0.002,0.018 0.076,0.051 0.099,0.047 0.071,-0.009 0.169,-0.027 0.19,-0.054 z m 4.326,-1.709 c 0.166,0.107 0.204,-0.035 0.31,-0.057 0.314,-0.064 0.177,-0.252 0.419,-0.354 0.249,-0.104 0.075,-0.27 0.117,-0.404 0,-0.074 0.007,-0.148 -0.006,-0.221 -0.002,-0.018 -0.079,-0.051 -0.099,-0.049 -0.071,0.014 -0.183,0.037 -0.19,0.063 -0.042,0.135 0.057,0.273 -0.229,0.393 -0.245,0.105 0.087,0.336 -0.324,0.445 -0.059,0.014 -0.064,0.143 0.002,0.184 z m -4.316,-0.021 c -0.034,-0.016 -0.074,-0.047 -0.099,-0.045 -0.073,0.008 -0.138,0.029 -0.205,0.045 0.034,0.016 0.075,0.049 0.101,0.047 0.071,-0.008 0.136,-0.032 0.203,-0.047 z m 9.869,-25.133 c 0.036,-0.031 0.072,-0.063 0.108,-0.094 -0.041,-0.02 -0.074,-0.035 -0.108,-0.051 -0.034,0.031 -0.079,0.063 -0.096,0.097 -0.006,0.013 0.062,0.033 0.096,0.048 z m 4.554,7.534 c -0.036,0.031 -0.072,0.063 -0.108,0.094 0.042,0.019 0.075,0.034 0.108,0.051 0.035,-0.032 0.08,-0.063 0.097,-0.098 0.004,-0.012 -0.062,-0.032 -0.097,-0.047 z m -0.107,0.671 c 0.023,0.02 0.066,0.033 0.125,0.061 0.095,-0.051 0.194,-0.1 0.282,-0.154 0.048,-0.027 0.069,-0.064 0.102,-0.098 -0.133,-0.016 -0.275,-0.055 -0.395,-0.041 -0.167,0.018 -0.214,0.149 -0.114,0.232 z m -6.273,-17.626 c 0.235,-0.107 0.566,-0.196 0.459,-0.396 0,-0.023 0.016,-0.051 -0.003,-0.068 -0.04,-0.039 -0.098,-0.074 -0.147,-0.111 -0.035,0.018 -0.063,0.039 -0.105,0.049 -0.331,0.082 -0.272,0.281 -0.511,0.388 -0.138,0.062 -0.122,0.108 0.027,0.141 0.079,0.016 0.229,0.021 0.28,-0.003 z m 5.013,16.737 c -0.125,-0.024 -0.248,-0.061 -0.378,-0.067 -0.069,-0.004 -0.151,0.043 -0.229,0.067 0.078,0.024 0.16,0.071 0.229,0.067 0.13,-0.007 0.253,-0.043 0.378,-0.067 z m 0.76,-2.97 c -0.033,0.016 -0.101,0.036 -0.096,0.047 0.016,0.035 0.063,0.066 0.096,0.099 0.033,-0.017 0.067,-0.032 0.107,-0.052 -0.034,-0.03 -0.071,-0.063 -0.107,-0.094 z m 1.063,4.419 c -0.033,-0.017 -0.075,-0.048 -0.101,-0.046 -0.069,0.008 -0.136,0.029 -0.203,0.046 0.034,0.016 0.067,0.032 0.107,0.051 0.064,-0.017 0.13,-0.034 0.197,-0.051 z m -2.233,2.079 c 0.04,-0.02 0.073,-0.035 0.107,-0.051 -0.067,-0.018 -0.134,-0.039 -0.204,-0.047 -0.024,-0.002 -0.065,0.029 -0.101,0.047 0.067,0.015 0.134,0.033 0.198,0.051 z m -23.621,-25.277 c -0.041,-0.02 -0.074,-0.037 -0.108,-0.053 -0.034,0.033 -0.079,0.063 -0.096,0.098 -0.005,0.012 0.062,0.031 0.096,0.047 0.037,-0.032 0.072,-0.063 0.108,-0.092 z m 0.338,1.898 c 0.015,-0.189 0.012,-0.381 0.005,-0.57 0,-0.018 -0.071,-0.051 -0.093,-0.049 -0.073,0.01 -0.193,0.029 -0.197,0.049 -0.022,0.095 -0.01,0.189 -0.01,0.285 0,0.096 -0.004,0.191 0.005,0.285 0.001,0.018 0.07,0.051 0.093,0.049 0.072,-0.01 0.195,-0.03 0.197,-0.049 z m 23.386,36.58 c 0.021,-0.012 0.021,-0.047 0.002,-0.061 -0.071,-0.049 -0.158,-0.107 -0.265,-0.02 -0.015,0.01 0.085,0.055 0.131,0.082 0.047,0.001 0.108,0.009 0.132,-10e-4 z m -23.173,-12.574 c -0.071,0.008 -0.136,0.029 -0.204,0.045 0.034,0.018 0.076,0.049 0.1,0.047 0.073,-0.008 0.136,-0.029 0.204,-0.047 -0.034,-0.016 -0.075,-0.047 -0.1,-0.045 z m 23.785,8.738 c 0.066,0.018 0.131,0.033 0.195,0.051 0.04,-0.02 0.074,-0.035 0.108,-0.051 -0.068,-0.018 -0.134,-0.039 -0.203,-0.045 -0.025,-0.004 -0.067,0.027 -0.1,0.045 z m 1.158,-10.555 c 0.055,-0.027 0.04,-0.084 0.057,-0.129 -0.052,-0.037 -0.097,-0.076 -0.16,-0.107 -0.025,-0.012 -0.134,-0.008 -0.139,-0.002 -0.156,0.209 -0.57,0.311 -0.834,0.473 -0.026,0.018 0.013,0.086 0.054,0.094 0.085,0.018 0.227,0.031 0.279,0.01 0.261,-0.106 0.509,-0.22 0.743,-0.339 z m -24.844,-5.525 c 0.034,0.016 0.074,0.048 0.101,0.045 0.071,-0.008 0.136,-0.029 0.203,-0.045 -0.034,-0.017 -0.075,-0.049 -0.1,-0.046 -0.071,0.008 -0.135,0.03 -0.204,0.046 z m 23.837,8.183 c -0.05,0.037 -0.149,0.076 -0.142,0.111 0.015,0.061 0.092,0.119 0.142,0.18 0.063,-0.059 0.123,-0.115 0.177,-0.162 -0.075,-0.054 -0.125,-0.092 -0.177,-0.129 z m 0.578,-3.17 c -0.008,-0.003 -0.08,0.026 -0.093,0.045 -0.058,0.088 -0.055,0.172 0.139,0.227 0.032,0.01 0.131,0.002 0.131,0.002 0.006,-0.066 0.024,-0.137 -0.004,-0.201 -0.01,-0.03 -0.107,-0.053 -0.173,-0.073 z m -5.392,-17.233 c -0.064,0.018 -0.13,0.035 -0.196,0.053 0.034,0.016 0.076,0.047 0.102,0.045 0.07,-0.008 0.136,-0.029 0.202,-0.045 -0.034,-0.017 -0.067,-0.034 -0.108,-0.053 z m -0.044,1.573 c 0.034,-0.017 0.067,-0.032 0.108,-0.052 -0.035,-0.03 -0.071,-0.062 -0.108,-0.094 -0.034,0.017 -0.102,0.036 -0.095,0.048 0.017,0.034 0.061,0.066 0.095,0.098 z m 0.209,20.522 c -0.007,0.012 0.062,0.031 0.095,0.049 0.035,-0.031 0.072,-0.064 0.107,-0.094 -0.04,-0.02 -0.073,-0.037 -0.107,-0.053 -0.033,0.033 -0.079,0.065 -0.095,0.098 z m -1.215,12.263 c 0.016,0.035 0.062,0.064 0.095,0.098 0.033,-0.016 0.1,-0.037 0.095,-0.049 -0.015,-0.033 -0.062,-0.064 -0.095,-0.096 -0.033,0.016 -0.1,0.036 -0.095,0.047 z m 0.247,-25.76 c -0.066,-0.017 -0.132,-0.034 -0.196,-0.052 -0.04,0.02 -0.074,0.036 -0.108,0.052 0.068,0.017 0.134,0.038 0.205,0.045 0.024,0.003 0.065,-0.028 0.099,-0.045 z m 4.963,14.969 c 0.026,0.006 0.078,0.006 0.101,-0.004 0.152,-0.053 0.146,-0.197 -0.006,-0.238 -0.035,0 -0.078,-0.004 -0.101,0.004 -0.153,0.055 -0.149,0.197 0.006,0.238 z m -3.9,-6.64 c -0.033,0.032 -0.079,0.063 -0.095,0.098 -0.007,0.012 0.062,0.031 0.095,0.047 0.035,-0.03 0.072,-0.063 0.107,-0.092 -0.04,-0.021 -0.073,-0.036 -0.107,-0.053 z m -1.063,-3.835 c 0,-0.046 0.023,-0.099 -0.009,-0.14 -0.021,-0.027 -0.121,-0.044 -0.191,-0.056 -0.022,-0.003 -0.097,0.03 -0.1,0.047 -0.01,0.095 -0.017,0.19 0.004,0.282 0.006,0.022 0.121,0.044 0.193,0.055 0.021,0.003 0.092,-0.029 0.097,-0.047 0.016,-0.046 0.006,-0.093 0.006,-0.141 z m 3.341,-2.321 c -0.034,-0.016 -0.076,-0.047 -0.102,-0.045 -0.071,0.008 -0.136,0.029 -0.202,0.045 0.032,0.017 0.074,0.049 0.099,0.045 0.071,-0.007 0.137,-0.028 0.205,-0.045 z m -0.207,1.349 c 0.023,0.009 0.068,0.004 0.103,0.005 0.152,-0.043 0.156,-0.186 0.005,-0.239 -0.023,-0.009 -0.075,-0.01 -0.101,-0.003 -0.154,0.038 -0.159,0.183 -0.007,0.237 z m 1.269,0.028 c 0.036,-0.031 0.073,-0.063 0.107,-0.094 -0.04,-0.02 -0.073,-0.035 -0.107,-0.052 -0.032,0.032 -0.079,0.063 -0.095,0.098 -0.006,0.012 0.062,0.031 0.095,0.048 z m -1.518,5.439 c -0.076,0.121 -0.14,0.184 -0.144,0.244 -0.002,0.037 0.094,0.074 0.144,0.111 0.051,-0.037 0.144,-0.074 0.142,-0.111 -0.003,-0.06 -0.067,-0.123 -0.142,-0.244 z m -0.356,-4.164 c 0.072,-0.007 0.138,-0.028 0.204,-0.045 -0.034,-0.016 -0.066,-0.031 -0.107,-0.051 -0.064,0.016 -0.13,0.033 -0.197,0.051 0.033,0.017 0.075,0.048 0.1,0.045 z m 0.248,4.758 c 0.04,0.02 0.074,0.035 0.108,0.051 0.033,-0.031 0.079,-0.063 0.094,-0.098 0.006,-0.012 -0.061,-0.031 -0.094,-0.047 -0.036,0.031 -0.073,0.062 -0.108,0.094 z m -21.755,-9.511 c 0.051,-0.036 0.144,-0.073 0.142,-0.108 -0.003,-0.063 -0.066,-0.124 -0.142,-0.246 -0.075,0.122 -0.139,0.184 -0.143,0.246 -0.002,0.035 0.093,0.072 0.143,0.108 z m 15.593,22.505 c -0.04,-0.02 -0.073,-0.035 -0.107,-0.051 -0.033,0.031 -0.079,0.063 -0.095,0.098 -0.006,0.012 0.062,0.031 0.095,0.047 0.036,-0.032 0.073,-0.063 0.107,-0.094 z m -9.271,5.137 c 0.024,0.008 0.067,0.004 0.102,0.004 0.153,-0.041 0.159,-0.186 0.007,-0.238 -0.023,-0.01 -0.075,-0.01 -0.102,-0.004 -0.154,0.04 -0.158,0.185 -0.007,0.238 z m 10.778,-28.174 c 0.004,-0.012 -0.062,-0.031 -0.096,-0.047 -0.037,0.031 -0.073,0.063 -0.109,0.094 0.042,0.02 0.075,0.035 0.109,0.051 0.035,-0.031 0.079,-0.063 0.096,-0.098 z m -0.095,5.024 c -0.034,0.016 -0.101,0.036 -0.095,0.047 0.015,0.035 0.061,0.065 0.095,0.098 0.034,-0.016 0.066,-0.032 0.107,-0.052 -0.035,-0.031 -0.072,-0.062 -0.107,-0.093 z m -0.153,-20.498 c 0.066,0.018 0.131,0.035 0.195,0.052 0.041,-0.02 0.074,-0.036 0.108,-0.052 -0.067,-0.016 -0.132,-0.037 -0.204,-0.046 -0.023,-0.002 -0.065,0.03 -0.099,0.046 z m 0.304,6.808 c 0.066,0.018 0.132,0.034 0.196,0.052 0.039,-0.02 0.074,-0.036 0.107,-0.052 -0.068,-0.016 -0.132,-0.037 -0.204,-0.045 -0.025,-0.004 -0.065,0.03 -0.099,0.045 z m -0.304,-6.228 c -0.034,-0.018 -0.067,-0.032 -0.107,-0.052 -0.064,0.017 -0.131,0.034 -0.195,0.052 0.032,0.016 0.074,0.047 0.1,0.045 0.069,-0.008 0.135,-0.03 0.202,-0.045 z m 0.456,18.613 c -0.035,0.018 -0.069,0.033 -0.104,0.05 -0.067,0.032 -0.146,0.063 -0.202,0.099 -0.043,0.029 -0.062,0.065 -0.088,0.098 0.131,0.016 0.29,0.057 0.39,0.035 0.096,-0.02 0.129,-0.106 0.18,-0.154 -0.074,-0.054 -0.125,-0.091 -0.176,-0.128 z m 0.024,2.742 c 0.034,-0.017 0.099,-0.033 0.1,-0.051 0.009,-0.139 0.005,-0.279 0.005,-0.418 0.006,0 0.017,0 0.023,0 0,-0.143 0.01,-0.283 -0.007,-0.425 -0.005,-0.037 -0.081,-0.087 -0.152,-0.106 -0.136,-0.034 -0.155,-0.004 -0.151,0.068 0.018,0.281 0.003,0.564 0.015,0.848 0,0.028 0.108,0.056 0.167,0.084 z m -0.312,-1.004 c 0.045,0 0.107,0.01 0.132,-0.002 0.021,-0.011 0.021,-0.046 0.001,-0.061 -0.071,-0.048 -0.157,-0.107 -0.264,-0.02 -0.015,0.012 0.084,0.056 0.131,0.083 z m -1.778,-17.236 c -0.075,0.021 -0.193,0.047 -0.202,0.076 -0.045,0.135 0.188,0.063 0.272,0.061 0.101,0 0.2,-0.05 0.3,-0.078 -0.076,-0.021 -0.153,-0.039 -0.231,-0.06 -0.047,0 -0.104,-0.008 -0.139,0.001 z m 0.244,-6.086 c -0.033,0.017 -0.101,0.037 -0.095,0.049 0.016,0.033 0.062,0.064 0.095,0.097 0.034,-0.017 0.101,-0.036 0.095,-0.048 -0.016,-0.034 -0.061,-0.065 -0.095,-0.098 z m -0.63,6.357 c 0.024,0.006 0.114,-0.041 0.175,-0.063 0,-0.021 0.018,-0.051 -0.006,-0.063 -0.022,-0.011 -0.099,-0.011 -0.128,-10e-4 -0.099,0.035 -0.225,0.076 -0.041,0.127 z m 1.041,-3.408 c -0.04,-0.02 -0.074,-0.035 -0.108,-0.052 -0.032,0.032 -0.078,0.063 -0.095,0.098 -0.006,0.013 0.063,0.031 0.095,0.048 0.036,-0.031 0.073,-0.063 0.108,-0.094 z m 0.499,2.701 c -0.036,0.031 -0.071,0.063 -0.108,0.093 0.042,0.02 0.074,0.036 0.108,0.052 0.035,-0.032 0.079,-0.063 0.095,-0.098 0.007,-0.011 -0.06,-0.031 -0.095,-0.047 z m -0.661,5.621 c 0.024,0.01 0.068,0.004 0.103,0.006 0.151,-0.043 0.158,-0.186 0.006,-0.24 -0.023,-0.008 -0.076,-0.01 -0.101,-0.004 -0.155,0.041 -0.159,0.186 -0.008,0.238 z m 0.922,-6.809 c 0.05,0.007 0.151,-0.065 0.216,-0.095 -0.056,-0.063 -0.086,-0.104 -0.128,-0.143 -0.007,-0.006 -0.076,-0.004 -0.099,0.005 -0.151,0.054 -0.152,0.208 0.011,0.233 z m -0.716,5.462 c 0.066,0.018 0.133,0.035 0.196,0.051 0.04,-0.019 0.074,-0.035 0.107,-0.051 -0.067,-0.016 -0.132,-0.039 -0.204,-0.045 -0.024,-0.004 -0.065,0.029 -0.099,0.045 z m -1.114,6.129 c 0.07,-0.008 0.136,-0.029 0.204,-0.045 -0.034,-0.017 -0.068,-0.033 -0.108,-0.052 -0.064,0.017 -0.13,0.034 -0.195,0.052 0.032,0.015 0.073,0.047 0.099,0.045 z m -0.048,5.192 c 0.005,0.019 0.064,0.033 0.1,0.05 0.036,-0.017 0.092,-0.031 0.101,-0.05 0.031,-0.067 0.046,-0.134 0.052,-0.151 0,-0.074 0.015,-0.102 -0.005,-0.121 -0.039,-0.04 -0.097,-0.075 -0.147,-0.112 -0.051,0.037 -0.141,0.073 -0.145,0.112 -0.009,0.089 0.017,0.181 0.044,0.272 z m 0.207,-1.595 c -0.035,-0.031 -0.071,-0.063 -0.107,-0.094 -0.034,0.016 -0.101,0.036 -0.095,0.048 0.016,0.034 0.061,0.065 0.095,0.097 0.033,-0.015 0.067,-0.031 0.107,-0.051 z m -2.126,-19.887 c -0.039,-0.021 -0.074,-0.036 -0.107,-0.052 -0.033,0.031 -0.079,0.063 -0.095,0.098 -0.005,0.012 0.062,0.031 0.095,0.047 0.037,-0.032 0.074,-0.063 0.107,-0.093 z m -9.362,5.309 c -0.024,0.012 -0.024,0.049 -0.002,0.062 0.048,0.027 0.113,0.049 0.179,0.065 0.012,0.003 0.061,-0.027 0.096,-0.045 -0.047,-0.027 -0.088,-0.06 -0.146,-0.082 -0.029,-0.011 -0.106,-0.01 -0.127,0 z m 13.151,-0.028 c 0.07,-0.008 0.136,-0.029 0.203,-0.046 -0.034,-0.016 -0.074,-0.047 -0.1,-0.045 -0.071,0.008 -0.137,0.029 -0.203,0.045 0.033,0.017 0.075,0.049 0.1,0.046 z m -12.755,30.709 c 0.072,-0.008 0.137,-0.029 0.205,-0.045 -0.035,-0.016 -0.068,-0.033 -0.108,-0.051 -0.063,0.016 -0.129,0.033 -0.195,0.051 0.033,0.016 0.075,0.049 0.098,0.045 z m 6.279,-37.128 c 0.033,0.016 0.073,0.047 0.099,0.045 0.072,-0.008 0.138,-0.029 0.204,-0.045 -0.032,-0.018 -0.074,-0.049 -0.101,-0.046 -0.071,0.008 -0.135,0.028 -0.202,0.046 z m 5.161,16.947 c 0.068,0.018 0.133,0.038 0.204,0.046 0.024,0.003 0.065,-0.028 0.1,-0.046 -0.065,-0.017 -0.132,-0.033 -0.196,-0.051 -0.04,0.02 -0.075,0.036 -0.108,0.051 z m -0.348,-18.997 c -0.04,-0.019 -0.074,-0.036 -0.107,-0.052 -0.034,0.033 -0.079,0.063 -0.095,0.098 -0.006,0.012 0.061,0.031 0.095,0.047 0.036,-0.031 0.072,-0.063 0.107,-0.093 z m 0.76,15.275 c 0.049,0.008 0.151,-0.064 0.216,-0.096 -0.054,-0.063 -0.086,-0.104 -0.128,-0.141 -0.006,-0.006 -0.074,-0.005 -0.099,0.004 -0.151,0.054 -0.153,0.207 0.011,0.233 z m -0.619,6.522 c 0.074,0.005 0.493,-0.152 0.498,-0.194 0.004,-0.016 -0.06,-0.045 -0.098,-0.047 -0.131,-0.004 -0.307,-0.023 -0.386,0.008 -0.083,0.035 -0.084,0.119 -0.106,0.184 -0.004,0.013 0.06,0.032 0.092,0.049 z m 0.056,-1.713 c 0.035,-0.03 0.072,-0.063 0.107,-0.093 -0.041,-0.02 -0.074,-0.035 -0.107,-0.053 -0.036,0.033 -0.08,0.064 -0.097,0.099 -0.004,0.012 0.061,0.032 0.097,0.047 z m 0.41,-4.542 c -0.034,-0.03 -0.071,-0.063 -0.107,-0.094 -0.033,0.017 -0.101,0.037 -0.095,0.048 0.016,0.034 0.062,0.065 0.095,0.098 0.034,-0.016 0.067,-0.032 0.107,-0.052 z m -2.517,4.254 c -0.099,0.033 -0.226,0.075 -0.042,0.127 0.022,0.006 0.114,-0.041 0.175,-0.064 0,-0.021 0.018,-0.051 -0.005,-0.062 -0.024,-0.011 -0.099,-0.011 -0.128,-0.001 z m -8.877,9.822 c 0.071,-0.008 0.136,-0.029 0.204,-0.046 -0.034,-0.017 -0.068,-0.032 -0.108,-0.051 -0.064,0.017 -0.13,0.034 -0.195,0.051 0.033,0.017 0.074,0.048 0.099,0.046 z m 0.676,-0.697 c 0.044,0 0.107,0.008 0.131,-0.002 0.022,-0.012 0.022,-0.047 10e-4,-0.062 -0.07,-0.048 -0.157,-0.106 -0.264,-0.021 -0.016,0.013 0.084,0.057 0.132,0.085 z m -0.268,-30.828 c -0.021,-0.008 -0.074,-0.01 -0.101,-0.003 -0.154,0.04 -0.157,0.185 -0.006,0.237 0.022,0.009 0.067,0.004 0.102,0.005 0.154,-0.042 0.159,-0.185 0.005,-0.239 z m -0.452,28.848 c 0.017,0.033 0.061,0.064 0.096,0.098 0.034,-0.018 0.067,-0.033 0.107,-0.053 -0.035,-0.029 -0.07,-0.061 -0.107,-0.093 -0.035,0.016 -0.101,0.036 -0.096,0.048 z m 0.346,14.265 c 0.022,0.008 0.067,0.004 0.102,0.006 0.153,-0.043 0.159,-0.186 0.005,-0.24 -0.021,-0.008 -0.074,-0.01 -0.101,-0.004 -0.155,0.04 -0.158,0.185 -0.006,0.238 z m 1.524,-19.697 c 0.026,0.008 0.078,0.006 0.102,-0.004 0.151,-0.053 0.146,-0.196 -0.006,-0.238 -0.035,0 -0.079,-0.004 -0.103,0.004 -0.152,0.053 -0.147,0.197 0.007,0.238 z m -1.016,27.621 c -0.066,-0.018 -0.132,-0.035 -0.195,-0.053 -0.041,0.02 -0.074,0.035 -0.108,0.053 0.067,0.016 0.133,0.037 0.205,0.045 0.025,10e-4 0.064,-0.03 0.098,-0.045 z m 0.197,-42.929 c -0.006,-0.006 -0.076,-0.005 -0.099,0.004 -0.152,0.055 -0.153,0.208 0.011,0.232 0.049,0.008 0.15,-0.064 0.217,-0.095 -0.055,-0.062 -0.086,-0.103 -0.129,-0.141 z m -0.044,33.44 c -0.037,0.031 -0.072,0.063 -0.107,0.094 0.039,0.018 0.074,0.033 0.107,0.051 0.033,-0.033 0.079,-0.064 0.095,-0.098 0.004,-0.012 -0.062,-0.031 -0.095,-0.047 z m -0.052,7.36 c 0.07,-0.008 0.136,-0.029 0.203,-0.045 -0.033,-0.016 -0.067,-0.031 -0.107,-0.051 -0.063,0.018 -0.13,0.033 -0.196,0.051 0.033,0.015 0.075,0.049 0.1,0.045 z m -0.815,-22.302 c 0.04,-0.021 0.074,-0.036 0.108,-0.052 -0.068,-0.016 -0.133,-0.037 -0.204,-0.045 -0.025,-0.002 -0.066,0.029 -0.1,0.045 0.066,0.018 0.131,0.036 0.196,0.052 z m 10.584,-22.868 c 0.036,-0.031 0.072,-0.063 0.107,-0.093 -0.04,-0.019 -0.074,-0.035 -0.107,-0.051 -0.034,0.032 -0.079,0.063 -0.095,0.097 -0.006,0.012 0.06,0.032 0.095,0.047 z m -9.717,26.8 c 0.036,-0.031 0.073,-0.063 0.106,-0.093 -0.039,-0.02 -0.073,-0.036 -0.106,-0.052 -0.033,0.032 -0.079,0.063 -0.095,0.097 -0.006,0.012 0.062,0.031 0.095,0.048 z m -0.456,-19.339 c 0.034,0.016 0.075,0.048 0.101,0.045 0.071,-0.008 0.136,-0.029 0.203,-0.045 -0.034,-0.016 -0.073,-0.048 -0.099,-0.045 -0.072,0.007 -0.138,0.03 -0.205,0.045 z m -0.361,-5.963 c 0.006,-0.013 -0.061,-0.033 -0.095,-0.049 -0.037,0.031 -0.073,0.063 -0.108,0.094 0.041,0.02 0.073,0.035 0.108,0.051 0.035,-0.031 0.08,-0.063 0.095,-0.096 z m 1.727,5.022 c 0.037,-0.031 0.073,-0.063 0.109,-0.094 -0.041,-0.019 -0.075,-0.035 -0.109,-0.051 -0.033,0.032 -0.078,0.063 -0.094,0.097 -0.007,0.012 0.061,0.032 0.094,0.048 z m 5.163,13.471 c 0.033,-0.017 0.1,-0.035 0.094,-0.047 -0.015,-0.034 -0.061,-0.065 -0.094,-0.098 -0.034,0.016 -0.067,0.032 -0.107,0.052 0.033,0.031 0.07,0.063 0.107,0.093 z m -0.964,-1.475 c 0.072,-0.008 0.138,-0.029 0.204,-0.045 -0.032,-0.016 -0.074,-0.048 -0.101,-0.045 -0.07,0.007 -0.135,0.029 -0.202,0.045 0.034,0.016 0.074,0.049 0.099,0.045 z m 3.487,-4.561 c 0.006,-0.012 -0.061,-0.032 -0.095,-0.048 -0.001,0.001 -0.002,0.002 -0.003,0.003 -0.011,0.042 -0.023,0.083 -0.035,0.124 0.012,0.006 0.026,0.013 0.038,0.019 0.035,-0.033 0.08,-0.064 0.095,-0.098 z m -5.005,7.024 c 0.072,-0.008 0.137,-0.029 0.204,-0.045 -0.032,-0.017 -0.067,-0.033 -0.106,-0.052 -0.064,0.017 -0.131,0.034 -0.196,0.052 0.033,0.015 0.073,0.048 0.098,0.045 z m -1.162,-2.146 c 0.034,-0.017 0.068,-0.032 0.108,-0.052 -0.036,-0.03 -0.071,-0.063 -0.108,-0.093 -0.034,0.015 -0.101,0.035 -0.095,0.046 0.016,0.036 0.06,0.067 0.095,0.099 z m 0.432,-1.467 c 0.052,0.049 0.113,0.106 0.175,0.163 0.052,-0.061 0.127,-0.119 0.141,-0.182 0.007,-0.025 -0.051,-0.056 -0.103,-0.085 -0.024,10e-4 -0.048,10e-4 -0.072,0.002 -0.042,0.031 -0.082,0.059 -0.141,0.102 z m 6.097,-12.947 c 0.066,0.017 0.132,0.038 0.203,0.045 0.025,0.003 0.066,-0.028 0.101,-0.045 -0.067,-0.018 -0.133,-0.035 -0.196,-0.052 -0.042,0.02 -0.074,0.036 -0.108,0.052 z m -10.78,22.96 c -0.033,0.017 -0.101,0.036 -0.094,0.049 0.015,0.033 0.061,0.064 0.094,0.097 0.034,-0.016 0.067,-0.032 0.108,-0.052 -0.036,-0.03 -0.072,-0.062 -0.108,-0.094 z m 11.084,-13.031 c -0.005,-0.023 0.019,-0.053 -0.003,-0.07 -0.087,-0.07 -0.164,-0.067 -0.307,-0.014 -0.135,0.053 -0.332,0.067 -0.496,0.102 -0.043,0.01 -0.071,0.033 -0.105,0.049 0.034,0.018 0.063,0.043 0.105,0.049 0.088,0.013 0.182,0.017 0.273,0.024 0.098,-0.001 0.198,0.007 0.293,-0.002 0.155,-0.013 0.264,-0.051 0.24,-0.138 z m -6.263,-15.186 c -0.084,0.033 -0.097,0.117 -0.104,0.182 -0.002,0.017 0.16,0.061 0.182,0.053 0.151,-0.058 0.285,-0.125 0.424,-0.188 -0.046,-0.021 -0.078,-0.051 -0.114,-0.053 -0.134,-0.005 -0.309,-0.025 -0.388,0.006 z m -1.938,28.725 c -0.033,-0.017 -0.066,-0.033 -0.106,-0.052 -0.064,0.017 -0.13,0.034 -0.197,0.052 0.035,0.016 0.076,0.048 0.101,0.045 0.07,-0.008 0.136,-0.029 0.202,-0.045 z m -0.757,0.072 c 0.033,-0.016 0.067,-0.032 0.107,-0.053 -0.035,-0.029 -0.07,-0.061 -0.107,-0.092 -0.034,0.016 -0.101,0.035 -0.097,0.047 0.016,0.036 0.062,0.066 0.097,0.098 z m 3.19,-27.201 c 0.042,0.039 0.099,0.075 0.148,0.112 0.051,-0.037 0.149,-0.075 0.146,-0.11 -0.015,-0.168 0.181,-0.193 0.464,-0.182 0.031,0.001 0.103,-0.037 0.097,-0.047 -0.021,-0.035 -0.064,-0.087 -0.114,-0.092 -0.143,-0.012 -0.296,0.002 -0.442,-0.006 -0.188,-0.01 -0.265,0.041 -0.298,0.113 -0.018,0.045 -0.002,0.094 -0.002,0.141 -0.001,0.024 -0.017,0.052 10e-4,0.071 z m -2.475,3.827 c -0.036,-0.03 -0.072,-0.062 -0.109,-0.094 -0.033,0.017 -0.101,0.036 -0.094,0.048 0.016,0.034 0.061,0.064 0.094,0.098 0.034,-0.017 0.068,-0.033 0.109,-0.052 z m 7.745,13.375 c 0.073,-0.007 0.182,-0.056 0.182,-0.085 -10e-4,-0.061 -0.042,-0.13 -0.113,-0.181 -0.034,-0.024 -0.189,-0.032 -0.26,-0.017 -0.121,0.027 -0.235,0.071 -0.324,0.121 -0.087,0.047 -0.137,0.109 -0.202,0.164 0.096,0 0.191,0 0.287,0 0.144,10e-4 0.292,0.011 0.43,-0.002 z m 1.56,4.929 c 0.034,-0.016 0.067,-0.031 0.107,-0.052 -0.034,-0.03 -0.071,-0.062 -0.107,-0.093 -0.033,0.016 -0.101,0.036 -0.095,0.047 0.016,0.035 0.062,0.067 0.095,0.098 z m -12.24,16.851 c 0.015,0.035 0.061,0.064 0.094,0.098 0.034,-0.016 0.101,-0.035 0.096,-0.047 -0.017,-0.035 -0.062,-0.066 -0.096,-0.098 -0.034,0.016 -0.101,0.035 -0.094,0.047 z m -0.818,-29.019 c 0.033,-0.032 0.08,-0.063 0.095,-0.098 0.006,-0.012 -0.062,-0.031 -0.095,-0.047 -0.035,0.031 -0.072,0.063 -0.107,0.093 0.04,0.02 0.074,0.035 0.107,0.052 z m 0.053,-1.566 c -0.072,0.008 -0.137,0.029 -0.204,0.045 0.033,0.016 0.067,0.032 0.107,0.053 0.064,-0.018 0.129,-0.035 0.196,-0.053 -0.032,-0.016 -0.074,-0.048 -0.099,-0.045 z m -0.754,1.324 c 0.016,0.034 0.061,0.064 0.095,0.098 0.033,-0.017 0.066,-0.033 0.107,-0.052 -0.036,-0.03 -0.072,-0.062 -0.107,-0.093 -0.034,0.015 -0.101,0.035 -0.095,0.047 z m 0.544,-8.338 c -0.011,-0.039 -0.094,-0.074 -0.143,-0.11 -0.035,0.015 -0.07,0.03 -0.104,0.046 -0.069,0.033 -0.146,0.063 -0.204,0.1 -0.044,0.028 -0.063,0.064 -0.094,0.098 0.083,0.016 0.166,0.03 0.252,0.045 0.236,-0.007 0.322,-0.055 0.293,-0.179 z m 0.104,9.276 c 0.023,0.009 0.092,0.01 0.098,0.004 0.044,-0.038 0.075,-0.079 0.128,-0.142 -0.064,-0.029 -0.166,-0.102 -0.216,-0.095 -0.164,0.025 -0.163,0.18 -0.01,0.233 z m -0.142,12.785 c 0.133,-0.026 0.219,-0.04 0.298,-0.061 0.012,-0.003 0.01,-0.036 -0.008,-0.048 -0.113,-0.072 -0.436,-0.072 -0.488,0.006 -0.015,0.024 0.137,0.073 0.198,0.103 z m 0.044,-5.221 c 0,-0.087 0.019,-0.137 -0.006,-0.18 -0.024,-0.041 -0.095,-0.076 -0.146,-0.112 -0.05,0.036 -0.131,0.071 -0.146,0.111 -0.023,0.069 -0.023,0.142 0,0.211 0.015,0.04 0.096,0.075 0.146,0.112 0.061,-0.058 0.124,-0.116 0.152,-0.142 z m 1.115,-8.088 c -0.072,0.008 -0.137,0.029 -0.205,0.045 0.034,0.016 0.075,0.048 0.101,0.046 0.072,-0.008 0.137,-0.03 0.203,-0.046 -0.033,-0.016 -0.073,-0.048 -0.099,-0.045 z m -0.557,2.529 c 0.012,-0.004 0.01,-0.037 -0.008,-0.047 -0.113,-0.072 -0.435,-0.074 -0.487,0.004 -0.017,0.024 0.136,0.073 0.197,0.104 0.133,-0.026 0.218,-0.041 0.298,-0.061 z m 0.246,-1.521 c -0.064,0.017 -0.131,0.033 -0.197,0.051 0.034,0.018 0.075,0.049 0.102,0.047 0.07,-0.009 0.136,-0.029 0.202,-0.047 -0.034,-0.016 -0.067,-0.032 -0.107,-0.051 z m 0.259,3.31 c -0.033,0.018 -0.101,0.036 -0.094,0.048 0.015,0.034 0.061,0.065 0.094,0.097 0.034,-0.016 0.067,-0.031 0.108,-0.051 -0.036,-0.031 -0.072,-0.063 -0.108,-0.094 z m -0.349,11.569 c 0.064,-0.017 0.131,-0.035 0.196,-0.052 -0.033,-0.017 -0.074,-0.048 -0.099,-0.046 -0.071,0.008 -0.137,0.029 -0.205,0.046 0.035,0.016 0.069,0.032 0.108,0.052 z m 0.498,-20.178 c -0.071,-0.049 -0.158,-0.107 -0.265,-0.021 -0.015,0.012 0.085,0.055 0.132,0.083 0.045,0 0.106,0.009 0.131,-0.002 0.022,-0.01 0.022,-0.047 0.002,-0.06 z m -0.504,3.711 c -0.026,-0.002 -0.067,0.029 -0.102,0.046 0.066,0.018 0.133,0.034 0.197,0.052 0.04,-0.02 0.073,-0.035 0.106,-0.052 -0.065,-0.017 -0.131,-0.038 -0.201,-0.046 z m -1.163,-3.793 c -0.034,0.032 -0.079,0.063 -0.095,0.097 -0.006,0.013 0.061,0.032 0.095,0.048 0.035,-0.031 0.071,-0.063 0.107,-0.094 -0.041,-0.019 -0.074,-0.036 -0.107,-0.051 z m 24.196,20.483 c -0.019,0.005 -0.037,0.01 -0.057,0.015 0.021,0.01 0.042,0.019 0.063,0.028 -10e-4,-0.014 -0.004,-0.029 -0.006,-0.043 z m -3.46,1.155 c -0.075,-0.043 -0.299,-0.072 -0.383,-0.048 -0.257,0.073 -0.252,0.353 0.004,0.422 0.088,0.023 0.275,-0.017 0.39,-0.05 0.052,-0.014 0.036,-0.083 0.063,-0.152 -0.015,-0.043 0.006,-0.129 -0.074,-0.172 z m -19.826,-31.489 c -0.034,0.016 -0.101,0.036 -0.096,0.048 0.017,0.034 0.062,0.064 0.096,0.098 0.034,-0.017 0.067,-0.033 0.107,-0.053 -0.034,-0.029 -0.07,-0.061 -0.107,-0.093 z m 12.451,46.645 c 0.033,-0.016 0.101,-0.035 0.094,-0.049 -0.017,-0.033 -0.061,-0.064 -0.094,-0.096 -0.036,0.016 -0.102,0.035 -0.097,0.047 0.017,0.036 0.061,0.065 0.097,0.098 z m 7.137,-4.119 c -0.021,0.014 -0.02,0.051 0.003,0.061 0.022,0.012 0.101,0.012 0.128,0 0.056,-0.021 0.102,-0.055 0.138,-0.086 0.006,-0.004 -0.059,-0.027 -0.094,-0.045 -0.06,0.023 -0.125,0.043 -0.175,0.07 z m -21.012,-30.455 c 0.006,-0.012 -0.061,-0.031 -0.095,-0.048 -0.036,0.031 -0.072,0.063 -0.108,0.093 0.041,0.02 0.075,0.036 0.108,0.052 0.035,-0.032 0.081,-0.063 0.095,-0.097 z m 13.723,35.516 c -0.068,-0.016 -0.134,-0.037 -0.204,-0.045 -0.025,-0.002 -0.066,0.029 -0.1,0.045 0.065,0.018 0.131,0.035 0.193,0.053 0.043,-0.022 0.077,-0.038 0.111,-0.053 z m 7.153,-4.997 c -0.1,0.033 -0.225,0.074 -0.041,0.125 0.023,0.008 0.114,-0.039 0.176,-0.063 0,-0.021 0.017,-0.051 -0.006,-0.061 -0.022,-0.01 -0.098,-0.01 -0.129,-10e-4 z m 0.09,-9.179 c -0.035,-0.029 -0.071,-0.061 -0.109,-0.094 -0.033,0.018 -0.099,0.037 -0.095,0.049 0.018,0.033 0.062,0.064 0.095,0.096 0.035,-0.016 0.068,-0.032 0.109,-0.051 z m -0.109,0.922 c 0.035,-0.033 0.08,-0.064 0.096,-0.098 0.007,-0.012 -0.061,-0.031 -0.096,-0.049 -0.035,0.033 -0.072,0.064 -0.107,0.094 0.041,0.019 0.074,0.035 0.107,0.053 z"
         id="path373"
         inkscape:connector-curvature="0"
         style="fill:#006838" /></g><g
       id="g375"><g
         id="g377"><g
           id="g379"><path
             d="m 271.06,288.717 c 4.802,2.887 6.011,6.664 5.992,12 -0.014,3.738 -0.107,7.637 -1.659,11.104 -2.666,5.951 -10.485,5.141 -15.901,5.141 -3.627,0 -10.271,1.17 -10.209,-4.258 0.046,-4.086 0.093,-8.172 0.139,-12.256 0.107,-9.474 0.216,-18.949 0.323,-28.423 0.082,-7.303 11.921,-6.807 16.949,-5.965 9.617,1.609 8.605,15.752 4.104,21.662 -0.569,0.748 0.696,1.473 1.258,0.735 3.702,-4.862 5.538,-15.815 0.73,-20.732 -4.566,-4.67 -16.651,-5.298 -21.791,-1.089 -3.621,2.965 -2.728,7.068 -2.775,11.299 -0.088,7.811 -0.177,15.621 -0.266,23.431 -0.045,3.992 -0.757,8.607 -0.114,12.564 1.064,6.555 10.406,4.486 15.064,4.486 6.802,0 12.717,-1.512 14.763,-8.641 2.291,-7.986 1.695,-17.767 -5.873,-22.316 -0.806,-0.484 -1.538,0.775 -0.734,1.258 z"
             id="path381"
             inkscape:connector-curvature="0"
             style="fill:#006838" /></g><g
           id="g383"><path
             d="m 257.931,312.595 c 2.841,0 5.873,0.418 8.498,-0.842 3.671,-1.762 3.478,-7.254 3.478,-10.58 0,-2.736 0.033,-6.644 -2.472,-8.466 -2.732,-1.988 -6.303,-1.539 -9.504,-1.539 -0.397,0 -0.729,0.331 -0.729,0.729 0,6.656 0,13.314 0,19.972 0,0.939 1.457,0.939 1.457,0 0,-6.645 0,-13.289 0,-19.931 -0.761,0.575 -0.795,0.805 -0.103,0.687 0.46,0 0.92,0 1.379,0 1.053,0 2.098,0.004 3.15,0.042 4.926,0.184 5.363,4.65 5.363,8.507 0,4.039 0.104,9.523 -5.237,9.967 -1.735,0.143 -3.538,0 -5.281,0 -0.939,-0.001 -0.939,1.454 10e-4,1.454 z"
             id="path385"
             inkscape:connector-curvature="0"
             style="fill:#006838" /></g><g
           id="g387"><path
             d="m 258.029,287.596 c 1.986,-0.018 5.528,0.377 6.849,-1.619 1.668,-2.519 1.602,-5.754 1.606,-8.664 0.003,-2.188 0.051,-4.227 -1.356,-6.02 -1.414,-1.803 -4.952,-1.6 -6.9,-1.293 -0.323,0.051 -0.523,0.406 -0.535,0.703 -0.198,5.386 -0.291,10.775 -0.392,16.164 -0.017,0.939 1.439,0.938 1.457,0 0.064,-3.494 0.129,-6.989 0.214,-10.483 0.013,-0.485 -0.107,-5 0.378,-5.016 2.189,-0.07 4.59,-0.183 5.452,2.293 0.662,1.901 0.252,4.809 0.153,6.771 -0.079,1.565 -0.295,4.605 -2.085,5.309 -1.427,0.561 -3.338,0.385 -4.841,0.398 -0.939,0.008 -0.94,1.465 0,1.457 z"
             id="path389"
             inkscape:connector-curvature="0"
             style="fill:#006838" /></g></g></g></g></svg>