<?xml version="1.0" encoding="UTF-8" standalone="no"?>
<!-- Generator: Adobe Illustrator 16.0.0, SVG Export Plug-In . SVG Version: 6.00 Build 0)  -->

<svg
   xmlns:dc="http://purl.org/dc/elements/1.1/"
   xmlns:cc="http://creativecommons.org/ns#"
   xmlns:rdf="http://www.w3.org/1999/02/22-rdf-syntax-ns#"
   xmlns:svg="http://www.w3.org/2000/svg"
   xmlns="http://www.w3.org/2000/svg"
   xmlns:sodipodi="http://sodipodi.sourceforge.net/DTD/sodipodi-0.dtd"
   xmlns:inkscape="http://www.inkscape.org/namespaces/inkscape"
   version="1.1"
   id="Layer_1"
   x="0px"
   y="0px"
   width="44.421745"
   height="65.95224"
   viewBox="0 0 44.421745 65.952237"
   enable-background="new 0 0 841.89 595.28"
   xml:space="preserve"
   inkscape:version="0.91 r13725"
   sodipodi:docname="bukva__06__U.svg"><metadata
     id="metadata289"><rdf:RDF><cc:Work
         rdf:about=""><dc:format>image/svg+xml</dc:format><dc:type
           rdf:resource="http://purl.org/dc/dcmitype/StillImage" /><dc:title></dc:title></cc:Work></rdf:RDF></metadata><defs
     id="defs287" /><sodipodi:namedview
     pagecolor="#ffffff"
     bordercolor="#666666"
     borderopacity="1"
     objecttolerance="10"
     gridtolerance="10"
     guidetolerance="10"
     inkscape:pageopacity="0"
     inkscape:pageshadow="2"
     inkscape:window-width="640"
     inkscape:window-height="480"
     id="namedview285"
     showgrid="false"
     fit-margin-top="0"
     fit-margin-left="0"
     fit-margin-right="0"
     fit-margin-bottom="0"
     inkscape:zoom="0.35396548"
     inkscape:cx="20.342751"
     inkscape:cy="33.04005"
     inkscape:window-x="10"
     inkscape:window-y="34"
     inkscape:window-maximized="0"
     inkscape:current-layer="Layer_1" /><g
     id="g3"
     transform="translate(-400.60226,-264.72782)"><g
       id="g5"><g
         id="g7"><g
           id="g9"><path
             d="m 410.587,273.781 c 4.598,0 4.598,3.161 4.598,5.028 l 0,35.563 c 0,2.442 1.956,6.322 5.182,6.322 5.381,0 6.26,-8.979 6.26,-15.949 0,-3.521 0.098,-6.825 0.195,-9.985 0.098,-3.018 0,-5.892 0,-8.837 0,-2.443 0,-5.963 -0.098,-8.405 1.369,-3.234 4.891,-3.521 7.141,-3.521 0.781,0 1.955,0.145 2.836,2.084 0,5.604 -1.076,36.353 -1.859,39.083 -2.836,10.272 -9.193,11.423 -15.55,11.423 -7.237,0 -10.27,-3.449 -12.126,-7.185 -1.468,-3.017 -1.762,-18.104 -1.957,-31.97 l -0.195,-10.418 0.195,-0.646 c 1.271,-1.509 2.738,-2.587 5.378,-2.587 z"
             id="path11"
             inkscape:connector-curvature="0"
             style="fill:#cfe4cf" /></g><g
           id="g13"><g
             id="g15"><path
               d="m 410.587,277.943 c 1.31,0.105 0.437,31.057 0.437,34.791 0,6.359 5.689,15.873 13.257,11.154 9.082,-5.664 6.555,-21.953 6.74,-30.924 0.066,-3.252 -0.033,-6.512 -0.041,-9.764 -0.006,-2.51 -1.076,-4.783 1.988,-5.024 2.172,-0.171 -0.426,-2.276 -0.436,-1.249 -0.006,0.577 -0.018,1.154 -0.029,1.73 -0.037,1.916 -0.094,3.832 -0.152,5.747 -0.258,8.576 -0.57,17.16 -1.145,25.722 -0.234,3.502 -0.25,4.821 -2.186,8.285 -2.436,4.359 -8.708,4.553 -13,3.648 -4.232,-0.892 -5.364,-4.694 -5.739,-8.394 -0.698,-6.885 -0.704,-13.864 -0.829,-20.777 -0.058,-3.231 -0.103,-6.464 -0.163,-9.695 -0.028,-1.518 -0.057,-3.035 -0.085,-4.553 -0.01,-0.503 -0.02,-1.007 -0.028,-1.511 0.035,1.82 -1.11,1.029 1.411,0.814 5.306,-0.455 5.351,-8.781 0,-8.324 -4.065,0.348 -8.301,2.028 -9.587,6.289 -0.876,2.9 -0.04,6.916 0.016,9.896 0.205,10.894 -0.297,22.166 1.62,32.937 1.713,9.627 12.237,12.717 20.637,11.779 8.91,-0.994 14.852,-7.877 15.936,-16.629 0.953,-7.686 0.971,-15.564 1.256,-23.294 0.209,-5.632 2.941,-17.776 -4.113,-20.298 -3.326,-1.189 -8.73,-0.311 -11.193,2.361 -4.042,4.388 -2.527,11.205 -2.469,16.776 0.068,6.431 -0.021,12.944 -0.342,19.368 -0.127,2.554 -0.48,5.237 -1.738,7.494 -0.467,0.836 -1.264,-1.855 -1.264,-2.483 0,-8.595 0,-17.19 0,-25.786 0,-7.695 1.648,-17.565 -8.759,-18.41 -5.353,-0.433 -5.311,7.893 0,8.324 z"
               id="path17"
               inkscape:connector-curvature="0"
               style="fill:#cfe4cf" /></g></g></g></g><g
       id="g19"
       style="opacity:0.8"><g
         id="g21"><g
           id="g23"><path
             d="m 413.084,271.285 c 4.598,0 4.598,3.16 4.598,5.028 l 0,35.562 c 0,2.443 1.956,6.322 5.181,6.322 5.379,0 6.26,-8.98 6.26,-15.949 0,-3.52 0.1,-6.825 0.197,-9.985 0.098,-3.018 0,-5.892 0,-8.837 0,-2.443 0,-5.963 -0.098,-8.406 1.367,-3.232 4.889,-3.52 7.139,-3.52 0.781,0 1.955,0.144 2.836,2.084 0,5.604 -1.074,36.352 -1.857,39.082 -2.838,10.273 -9.193,11.423 -15.551,11.423 -7.237,0 -10.27,-3.448 -12.128,-7.185 -1.467,-3.018 -1.76,-18.104 -1.956,-31.971 l -0.194,-10.416 0.194,-0.646 c 1.272,-1.51 2.74,-2.586 5.379,-2.586 z"
             id="path25"
             inkscape:connector-curvature="0"
             style="fill:#cfe4cf" /></g><g
           id="g27"><g
             id="g29"><path
               d="m 413.084,273.365 c 3.195,0.26 2.517,3.426 2.517,5.582 0,3.422 0,6.844 0,10.265 0,7.009 0,14.017 0,21.026 0,4.801 4.01,13.173 10.125,9.356 3.498,-2.182 4.469,-6.149 5.035,-10.007 0.918,-6.252 0.545,-12.813 0.676,-19.12 0.068,-3.251 -0.033,-6.512 -0.041,-9.765 -0.008,-3.6 -0.441,-6.749 4.068,-7.104 2.871,-0.227 1.525,6.281 1.465,8.309 -0.26,8.576 -0.57,17.16 -1.145,25.722 -0.234,3.499 -0.682,6.136 -2.469,9.335 -2.934,5.249 -10.111,5.709 -15.351,4.605 -5.202,-1.096 -6.803,-5.814 -7.268,-10.4 -0.697,-6.885 -0.704,-13.865 -0.828,-20.777 -0.059,-3.231 -0.104,-6.464 -0.163,-9.695 -0.07,-3.779 -1.579,-6.908 3.379,-7.332 2.653,-0.227 2.675,-4.391 0,-4.161 -8.957,0.766 -7.619,7.251 -7.491,14.103 0.2,10.697 -0.336,21.807 1.545,32.383 1.556,8.754 11.114,11.092 18.633,10.253 7.686,-0.858 12.92,-7.013 13.854,-14.55 0.953,-7.686 0.971,-15.563 1.258,-23.293 0.139,-3.75 0.258,-7.5 0.346,-11.252 0.064,-2.699 0.232,-5.908 -2.934,-7.04 -2.66,-0.952 -7.174,-0.337 -9.168,1.827 -3.498,3.796 -1.912,10.486 -1.859,15.305 0.068,6.431 -0.021,12.945 -0.342,19.368 -0.146,2.927 -0.582,5.958 -2.023,8.544 -2.428,4.356 -5.139,-1.792 -5.139,-3.533 0,-8.595 0,-17.189 0,-25.785 0,-6.309 1.942,-15.631 -6.679,-16.329 -2.677,-0.219 -2.656,3.945 -10e-4,4.16 z"
               id="path31"
               inkscape:connector-curvature="0"
               style="fill:#5e8d64" /></g></g></g></g><g
       id="g33"><g
         id="g35"><path
           d="m 416.415,267.955 c 4.596,0 4.596,3.161 4.596,5.029 l 0,35.562 c 0,2.442 1.957,6.323 5.183,6.323 5.379,0 6.26,-8.98 6.26,-15.949 0,-3.521 0.098,-6.826 0.195,-9.986 0.098,-3.018 0,-5.892 0,-8.838 0,-2.441 0,-5.962 -0.098,-8.404 1.369,-3.233 4.891,-3.521 7.139,-3.521 0.783,0 1.957,0.145 2.838,2.084 0,5.604 -1.076,36.353 -1.859,39.082 -2.836,10.273 -9.193,11.424 -15.549,11.424 -7.238,0 -10.27,-3.449 -12.128,-7.185 -1.467,-3.018 -1.761,-18.104 -1.956,-31.97 l -0.195,-10.418 0.195,-0.646 c 1.27,-1.509 2.737,-2.587 5.379,-2.587 z"
           id="path37"
           inkscape:connector-curvature="0"
           style="fill:#43434b" /><path
           d="m 425.119,323.257 c -9.053,0 -12.534,-4.891 -14.364,-8.569 -1.526,-3.141 -1.943,-13.59 -2.218,-33.047 l -0.202,-10.799 0.458,-1.517 0.332,-0.394 c 1.364,-1.617 3.425,-3.474 7.289,-3.474 4.706,0 7.093,2.532 7.093,7.526 l 0,35.562 c 0,1.441 1.256,3.826 2.686,3.826 2.322,0 3.764,-5.154 3.764,-13.452 0,-3.426 0.088,-6.585 0.195,-10.063 0.064,-1.961 0.043,-3.914 0.021,-5.803 -0.012,-0.983 -0.021,-1.967 -0.021,-2.958 0,-2.354 0,-5.912 -0.096,-8.305 l -0.023,-0.559 0.219,-0.515 c 1.418,-3.348 4.594,-5.045 9.438,-5.045 2.322,0 4.041,1.194 5.111,3.549 l 0.223,0.492 0,0.54 c 0,4.436 -0.99,36.404 -1.955,39.77 -3.219,11.66 -10.881,13.235 -17.95,13.235 z m -11.773,-51.556 0.185,9.857 c 0.13,9.173 0.398,28.235 1.706,30.925 1.488,2.992 3.724,5.779 9.882,5.779 5.529,0 10.697,-0.733 13.143,-9.592 0.623,-2.501 1.703,-30.248 1.766,-37.801 -0.09,-0.135 -0.152,-0.188 -0.168,-0.202 0.002,0.007 -0.051,-10e-4 -0.17,-10e-4 -2.5,0 -3.922,0.477 -4.619,1.578 0.076,2.421 0.076,5.528 0.076,7.851 0,0.973 0.01,1.938 0.021,2.902 0.021,1.942 0.043,3.95 -0.023,6.016 -0.105,3.434 -0.193,6.552 -0.193,9.906 0,4.563 0,18.446 -8.758,18.446 -4.758,0 -7.68,-5.138 -7.68,-8.82 l 0,-35.562 c 0,-2.09 -0.07,-2.532 -2.099,-2.532 -1.464,10e-4 -2.283,0.437 -3.069,1.25 z"
           id="path39"
           inkscape:connector-curvature="0"
           style="fill:#43434b" /></g></g><g
       id="g41"><g
         id="g43"><path
           d="m 415.582,266.291 c 4.597,0 4.597,3.16 4.597,5.028 l 0,35.563 c 0,2.442 1.957,6.322 5.183,6.322 5.379,0 6.26,-8.98 6.26,-15.95 0,-3.52 0.098,-6.824 0.195,-9.985 0.098,-3.018 0,-5.892 0,-8.837 0,-2.442 0,-5.963 -0.098,-8.405 1.369,-3.233 4.889,-3.521 7.141,-3.521 0.781,0 1.955,0.145 2.836,2.084 0,5.604 -1.076,36.352 -1.859,39.082 -2.836,10.273 -9.193,11.423 -15.549,11.423 -7.238,0 -10.271,-3.448 -12.129,-7.185 -1.467,-3.018 -1.76,-18.104 -1.955,-31.969 l -0.196,-10.418 0.196,-0.646 c 1.27,-1.509 2.738,-2.586 5.378,-2.586 z"
           id="path45"
           inkscape:connector-curvature="0"
           style="fill:#006838" /></g></g><g
       id="g47"><path
         d="m 417.246,265.461 c 4.597,0 4.597,3.16 4.597,5.028 l 0,35.56 c 0,2.443 1.955,6.322 5.183,6.322 5.379,0 6.258,-8.98 6.258,-15.948 0,-3.521 0.098,-6.825 0.195,-9.985 0.098,-3.018 0,-5.891 0,-8.836 0,-2.443 0,-5.963 -0.098,-8.405 1.369,-3.233 4.891,-3.521 7.139,-3.521 0.783,0 1.957,0.145 2.838,2.084 0,5.604 -1.076,36.35 -1.859,39.08 -2.836,10.272 -9.191,11.422 -15.549,11.422 -7.237,0 -10.268,-3.448 -12.126,-7.184 -1.467,-3.018 -1.76,-18.104 -1.956,-31.969 l -0.195,-10.416 0.195,-0.646 c 1.27,-1.509 2.737,-2.586 5.378,-2.586 z"
         id="path49"
         inkscape:connector-curvature="0"
         style="fill:#2f9a41" /></g><g
       id="g51"><g
         id="g53"><path
           d="m 411.801,275.62 8.987,-8.987 c -0.209,-0.218 -0.463,-0.413 -0.764,-0.58 l -8.248,8.248 0.025,1.319 z"
           id="path55"
           inkscape:connector-curvature="0"
           style="fill:#cfe4cf" /><path
           d="m 411.886,280.464 9.957,-9.957 0,-0.021 c 0,-0.385 -0.002,-0.825 -0.042,-1.28 l -9.934,9.934 c 0.007,0.44 0.013,0.881 0.019,1.324 z"
           id="path57"
           inkscape:connector-curvature="0"
           style="fill:#cfe4cf" /><path
           d="m 433.471,273.665 7.889,-7.889 c -0.303,-0.08 -0.59,-0.102 -0.836,-0.102 -0.133,0 -0.27,0.001 -0.41,0.004 l -6.656,6.656 c 0.005,0.44 0.009,0.886 0.013,1.331 z"
           id="path59"
           inkscape:connector-curvature="0"
           style="fill:#cfe4cf" /><path
           d="m 433.48,277.6 c 0,0.327 0.004,0.651 0.006,0.977 l 9.865,-9.864 c 0.004,-0.363 0.008,-0.694 0.008,-0.954 -0.045,-0.097 -0.092,-0.171 -0.139,-0.26 l -9.74,9.741 c 0,0.118 0,0.245 0,0.36 z"
           id="path61"
           inkscape:connector-curvature="0"
           style="fill:#cfe4cf" /><path
           d="m 411.941,283.993 c 0.008,0.441 0.015,0.881 0.023,1.321 l 9.879,-9.879 0,-1.344 -9.902,9.902 z"
           id="path63"
           inkscape:connector-curvature="0"
           style="fill:#cfe4cf" /><path
           d="m 411.686,269.464 0.024,1.319 5.313,-5.313 c -0.553,0.014 -1.061,0.069 -1.518,0.174 l -3.819,3.82 z"
           id="path65"
           inkscape:connector-curvature="0"
           style="fill:#cfe4cf" /><path
           d="m 412.063,290.143 9.78,-9.78 0,-1.344 -9.81,9.81 c 0.01,0.44 0.02,0.878 0.03,1.314 z"
           id="path67"
           inkscape:connector-curvature="0"
           style="fill:#cfe4cf" /><path
           d="m 442.693,289.083 c 0.02,-0.467 0.039,-0.934 0.059,-1.402 l -9.474,9.474 c -0.004,0.452 -0.013,0.908 -0.026,1.37 l 9.441,-9.442 z"
           id="path69"
           inkscape:connector-curvature="0"
           style="fill:#cfe4cf" /><path
           d="m 442.457,294.249 c 0.023,-0.466 0.045,-0.936 0.068,-1.412 l -9.516,9.516 c -0.055,0.519 -0.119,1.031 -0.193,1.535 l 9.641,-9.639 z"
           id="path71"
           inkscape:connector-curvature="0"
           style="fill:#cfe4cf" /><path
           d="m 421.843,290.22 0,-1.344 -9.511,9.511 c 0.02,0.435 0.04,0.863 0.061,1.283 l 9.45,-9.45 z"
           id="path73"
           inkscape:connector-curvature="0"
           style="fill:#cfe4cf" /><path
           d="m 412.157,293.634 c 0.013,0.438 0.027,0.872 0.042,1.302 l 9.645,-9.645 0,-1.344 -9.687,9.687 z"
           id="path75"
           inkscape:connector-curvature="0"
           style="fill:#cfe4cf" /><path
           d="m 433.808,268.398 1.567,-1.567 c -0.602,0.383 -1.14,0.894 -1.567,1.567 z"
           id="path77"
           inkscape:connector-curvature="0"
           style="fill:#cfe4cf" /><path
           d="m 433.307,293.542 9.594,-9.593 c 0.018,-0.469 0.035,-0.933 0.052,-1.396 l -9.622,9.622 c -0.009,0.453 -0.018,0.907 -0.024,1.367 z"
           id="path79"
           inkscape:connector-curvature="0"
           style="fill:#cfe4cf" /><path
           d="m 433.518,282.13 c 0.004,0.445 0.003,0.893 0.003,1.341 l 9.719,-9.719 c 0.013,-0.479 0.026,-0.94 0.037,-1.38 l -9.759,9.758 z"
           id="path81"
           inkscape:connector-curvature="0"
           style="fill:#cfe4cf" /><path
           d="m 433.461,287.116 c -0.014,0.459 -0.028,0.919 -0.042,1.385 l 9.664,-9.664 c 0.016,-0.471 0.03,-0.934 0.046,-1.389 l -9.668,9.668 z"
           id="path83"
           inkscape:connector-curvature="0"
           style="fill:#cfe4cf" /><path
           d="m 422.244,308.189 -6.228,6.227 c 0.209,0.234 0.433,0.46 0.665,0.68 l 5.959,-5.959 c -0.155,-0.311 -0.285,-0.629 -0.396,-0.948 z"
           id="path85"
           inkscape:connector-curvature="0"
           style="fill:#cfe4cf" /><path
           d="m 421.843,300.076 0,-1.343 -8.82,8.82 c 0.055,0.419 0.114,0.808 0.175,1.169 l 8.645,-8.646 z"
           id="path87"
           inkscape:connector-curvature="0"
           style="fill:#cfe4cf" /><path
           d="m 421.843,295.149 0,-1.344 -9.249,9.25 c 0.03,0.428 0.061,0.846 0.094,1.249 l 9.155,-9.155 z"
           id="path89"
           inkscape:connector-curvature="0"
           style="fill:#cfe4cf" /><path
           d="m 439.172,312.32 c 0.502,-0.799 0.965,-1.705 1.383,-2.728 l -7.816,7.816 c 0.838,-0.271 1.65,-0.624 2.426,-1.083 l 4.007,-4.005 z"
           id="path91"
           inkscape:connector-curvature="0"
           style="fill:#cfe4cf" /><path
           d="m 421.843,305.006 0,-1.344 -7.814,7.814 c 0.152,0.29 0.312,0.578 0.481,0.862 l 7.333,-7.332 z"
           id="path93"
           inkscape:connector-curvature="0"
           style="fill:#cfe4cf" /><path
           d="m 441.789,304.773 c 0.041,-0.437 0.084,-0.931 0.127,-1.472 l -14.947,14.948 c 0.469,-0.012 0.938,-0.029 1.403,-0.061 l 13.417,-13.415 z"
           id="path95"
           inkscape:connector-curvature="0"
           style="fill:#cfe4cf" /><path
           d="m 442.177,299.457 c 0.028,-0.462 0.056,-0.938 0.083,-1.427 l -10.711,10.71 c -0.786,1.813 -1.906,3.123 -3.508,3.508 l -5.682,5.682 c 0.371,0.074 0.758,0.136 1.158,0.186 l 18.66,-18.659 z"
           id="path97"
           inkscape:connector-curvature="0"
           style="fill:#cfe4cf" /><path
           d="m 424.936,311.771 c -0.273,-0.165 -0.527,-0.36 -0.768,-0.577 l -5.423,5.423 c 0.284,0.16 0.583,0.31 0.894,0.449 l 5.297,-5.295 z"
           id="path99"
           inkscape:connector-curvature="0"
           style="fill:#cfe4cf" /></g><g
         id="g101"><path
           d="m 440.654,289.834 c 0.09,-0.019 0.164,-0.035 0.238,-0.051 -0.148,-0.016 -0.295,-0.037 -0.451,-0.045 -0.057,-0.003 -0.15,0.029 -0.223,0.045 0.147,0.018 0.296,0.035 0.436,0.051 z"
           id="path103"
           inkscape:connector-curvature="0"
           style="fill:#cfe4cf" /><path
           d="m 439.248,284.352 c -0.221,0.034 -0.498,0.075 -0.092,0.127 0.053,0.007 0.254,-0.041 0.389,-0.063 0,-0.021 0,-0.043 0,-0.064 -0.104,-10e-4 -0.231,-0.01 -0.297,0 z"
           id="path105"
           inkscape:connector-curvature="0"
           style="fill:#cfe4cf" /><path
           d="m 440.523,286.67 c -0.037,-0.01 -0.201,-0.001 -0.305,-0.001 0.08,0.112 -0.443,0.14 -0.631,0.215 -0.018,0.007 0.252,0.065 0.418,0.071 0.543,0.022 0.84,-0.021 0.902,-0.15 -0.085,-0.031 -0.216,-0.086 -0.384,-0.135 z"
           id="path107"
           inkscape:connector-curvature="0"
           style="fill:#cfe4cf" /><path
           d="m 440.242,279.75 c -0.02,0.035 0.201,0.073 0.314,0.109 0.111,-0.035 0.332,-0.074 0.313,-0.109 -0.029,-0.061 -0.201,-0.119 -0.313,-0.18 -0.113,0.061 -0.283,0.119 -0.314,0.18 z"
           id="path109"
           inkscape:connector-curvature="0"
           style="fill:#cfe4cf" /><path
           d="m 437.896,277.398 c -0.221,0.034 -0.498,0.075 -0.092,0.127 0.055,0.006 0.256,-0.041 0.389,-0.063 0,-0.021 0.039,-0.051 -0.01,-0.063 -0.048,-0.01 -0.216,-0.01 -0.287,-10e-4 z"
           id="path111"
           inkscape:connector-curvature="0"
           style="fill:#cfe4cf" /><path
           d="m 438.486,277.396 c 0.129,-0.022 0.227,-0.054 0.307,-0.085 0.018,-0.006 -0.129,-0.029 -0.207,-0.046 -0.129,0.022 -0.281,0.042 -0.383,0.069 -0.049,0.014 -0.01,0.043 -0.01,0.063 0.102,0 0.233,0.009 0.293,-10e-4 z"
           id="path113"
           inkscape:connector-curvature="0"
           style="fill:#cfe4cf" /><path
           d="m 440.893,285.146 c -0.148,-0.016 -0.295,-0.037 -0.451,-0.045 -0.057,-0.002 -0.15,0.029 -0.223,0.045 0.146,0.02 0.295,0.036 0.436,0.053 0.089,-0.019 0.163,-0.035 0.238,-0.053 z"
           id="path115"
           inkscape:connector-curvature="0"
           style="fill:#cfe4cf" /><path
           d="m 440.219,283.844 c 0.146,0.018 0.295,0.035 0.432,0.052 0.094,-0.02 0.168,-0.036 0.242,-0.052 -0.148,-0.016 -0.295,-0.037 -0.451,-0.045 -0.057,-0.004 -0.151,0.029 -0.223,0.045 z"
           id="path117"
           inkscape:connector-curvature="0"
           style="fill:#cfe4cf" /><path
           d="m 439.623,286.585 c -0.029,0.012 0.191,0.055 0.293,0.084 0.104,0 0.242,0.009 0.291,-0.003 0.049,-0.011 0.053,-0.047 0.004,-0.061 -0.156,-0.047 -0.35,-0.107 -0.588,-0.02 z"
           id="path119"
           inkscape:connector-curvature="0"
           style="fill:#cfe4cf" /><path
           d="m 439.879,280.439 c -0.074,0.017 -0.223,0.035 -0.211,0.048 0.039,0.034 0.137,0.064 0.211,0.097 0.078,-0.016 0.154,-0.032 0.242,-0.051 -0.08,-0.031 -0.158,-0.062 -0.242,-0.094 z"
           id="path121"
           inkscape:connector-curvature="0"
           style="fill:#cfe4cf" /><path
           d="m 438.869,285.582 c -0.076,-0.016 -0.152,-0.033 -0.24,-0.051 -0.143,0.016 -0.287,0.033 -0.436,0.051 0.076,0.017 0.168,0.048 0.221,0.045 0.16,-0.007 0.303,-0.028 0.455,-0.045 z"
           id="path123"
           inkscape:connector-curvature="0"
           style="fill:#cfe4cf" /><path
           d="m 433.596,313.371 c 0.037,0.033 0.137,0.064 0.213,0.098 0.076,-0.017 0.146,-0.033 0.24,-0.053 -0.08,-0.029 -0.162,-0.062 -0.24,-0.093 -0.077,0.016 -0.225,0.035 -0.213,0.048 z"
           id="path125"
           inkscape:connector-curvature="0"
           style="fill:#cfe4cf" /><path
           d="m 429.969,314.289 c -0.037,-0.033 -0.135,-0.064 -0.211,-0.098 -0.074,0.018 -0.148,0.033 -0.24,0.053 0.08,0.03 0.162,0.061 0.24,0.093 0.076,-0.017 0.224,-0.035 0.211,-0.048 z"
           id="path127"
           inkscape:connector-curvature="0"
           style="fill:#cfe4cf" /><path
           d="m 438.414,312.916 c -0.053,-0.003 -0.145,0.028 -0.221,0.045 0.148,0.018 0.293,0.035 0.436,0.051 0.042,-0.008 0.076,-0.016 0.115,-0.024 0.008,-0.013 0.018,-0.023 0.027,-0.036 -0.117,-0.014 -0.231,-0.03 -0.357,-0.036 z"
           id="path129"
           inkscape:connector-curvature="0"
           style="fill:#cfe4cf" /><polygon
           points="433.464,273.125 433.471,273.124 433.464,273.123 "
           id="polygon131"
           style="fill:#cfe4cf" /><path
           d="m 437.756,286.839 c 0.135,0.015 0.414,0.03 0.418,0.049 0.033,0.19 0.012,0.382 0.029,0.573 0,0.018 0.158,0.052 0.207,0.049 0.168,-0.01 0.344,-0.025 0.477,-0.05 0.4,-0.073 0.867,-0.142 0.15,-0.257 -0.182,-0.031 -0.158,-0.13 -0.162,-0.197 -0.016,-0.263 0.008,-0.525 -0.02,-0.789 -0.002,-0.039 -0.162,-0.107 -0.281,-0.111 -0.289,-0.008 -0.641,-0.004 -0.895,0.025 -0.814,0.095 -0.719,0.33 -1.418,0.445 0.109,0.105 0.531,0.168 0.645,0.288 0.16,0.171 0.541,0.013 0.85,-0.025 z"
           id="path133"
           inkscape:connector-curvature="0"
           style="fill:#cfe4cf" /><path
           d="m 434.818,316.438 c 0.035,0.008 0.076,0.016 0.111,0.023 0.027,-0.016 0.057,-0.027 0.084,-0.043 -0.063,0.008 -0.129,0.013 -0.195,0.02 z"
           id="path135"
           inkscape:connector-curvature="0"
           style="fill:#cfe4cf" /><path
           d="m 434.143,282.686 c -0.145,-0.018 -0.293,-0.035 -0.434,-0.053 -0.071,0.016 -0.132,0.029 -0.191,0.042 0,0.005 0,0.01 0,0.015 0.133,0.015 0.264,0.034 0.404,0.041 0.057,0.002 0.15,-0.03 0.221,-0.045 z"
           id="path137"
           inkscape:connector-curvature="0"
           style="fill:#cfe4cf" /><path
           d="m 433.596,282.225 c 0.037,0.035 0.137,0.066 0.213,0.098 0.076,-0.016 0.146,-0.031 0.24,-0.051 -0.08,-0.03 -0.162,-0.063 -0.24,-0.094 -0.077,0.016 -0.225,0.036 -0.213,0.047 z"
           id="path139"
           inkscape:connector-curvature="0"
           style="fill:#cfe4cf" /><path
           d="m 434.361,311.123 c 0.053,0.008 0.15,0.003 0.227,0.004 0.34,-0.043 0.354,-0.186 0.014,-0.239 -0.053,-0.009 -0.168,-0.01 -0.225,-0.003 -0.342,0.04 -0.354,0.183 -0.016,0.238 z"
           id="path141"
           inkscape:connector-curvature="0"
           style="fill:#cfe4cf" /><path
           d="m 434.482,280.874 c 0.076,-0.016 0.148,-0.032 0.242,-0.052 -0.08,-0.03 -0.162,-0.061 -0.242,-0.093 -0.076,0.017 -0.223,0.036 -0.211,0.048 0.034,0.034 0.135,0.065 0.211,0.097 z"
           id="path143"
           inkscape:connector-curvature="0"
           style="fill:#cfe4cf" /><path
           d="m 442.904,276.456 c -0.043,-0.063 -0.039,-0.148 -0.223,-0.184 -0.172,-0.033 -0.563,-0.017 -0.859,-0.014 -0.08,0.001 -0.223,0.044 -0.219,0.045 0.318,0.077 0.643,0.15 0.971,0.226 0.19,-0.041 0.34,-0.058 0.33,-0.073 z"
           id="path145"
           inkscape:connector-curvature="0"
           style="fill:#cfe4cf" /><path
           d="m 441.908,289.711 c 0.078,-0.031 0.16,-0.063 0.236,-0.094 -0.09,-0.02 -0.164,-0.035 -0.236,-0.052 -0.078,0.032 -0.18,0.063 -0.213,0.098 -0.011,0.013 0.135,0.031 0.213,0.048 z"
           id="path147"
           inkscape:connector-curvature="0"
           style="fill:#cfe4cf" /><path
           d="m 442.367,267.209 c -0.008,0.012 0.139,0.032 0.211,0.049 0.084,-0.032 0.162,-0.063 0.24,-0.094 -0.088,-0.02 -0.164,-0.035 -0.24,-0.052 -0.072,0.033 -0.174,0.064 -0.211,0.097 z"
           id="path149"
           inkscape:connector-curvature="0"
           style="fill:#cfe4cf" /><path
           d="m 442.244,273.703 c 0.146,0.016 0.293,0.039 0.449,0.046 0.057,0.002 0.15,-0.03 0.225,-0.046 -0.146,-0.017 -0.293,-0.035 -0.434,-0.051 -0.093,0.02 -0.166,0.036 -0.24,0.051 z"
           id="path151"
           inkscape:connector-curvature="0"
           style="fill:#cfe4cf" /><path
           d="m 440.441,301.472 c -0.057,-0.003 -0.15,0.028 -0.223,0.045 0.146,0.017 0.295,0.035 0.436,0.052 0.09,-0.02 0.164,-0.035 0.238,-0.052 -0.148,-0.017 -0.294,-0.038 -0.451,-0.045 z"
           id="path153"
           inkscape:connector-curvature="0"
           style="fill:#cfe4cf" /><path
           d="m 437.297,269.747 c -0.158,0.008 -0.303,0.028 -0.453,0.046 0.074,0.016 0.15,0.031 0.238,0.051 0.143,-0.018 0.291,-0.034 0.436,-0.051 -0.073,-0.018 -0.164,-0.049 -0.221,-0.046 z"
           id="path155"
           inkscape:connector-curvature="0"
           style="fill:#cfe4cf" /><path
           d="m 443.043,277.35 c -0.007,0.006 0.035,0.015 0.086,0.024 0,-0.023 0.002,-0.048 0.002,-0.071 -0.037,0.015 -0.07,0.03 -0.088,0.047 z"
           id="path157"
           inkscape:connector-curvature="0"
           style="fill:#cfe4cf" /><path
           d="m 440.346,306.757 c -0.014,0.012 0.135,0.031 0.211,0.048 0.078,-0.031 0.162,-0.063 0.24,-0.094 -0.092,-0.02 -0.166,-0.036 -0.24,-0.052 -0.077,0.032 -0.176,0.064 -0.211,0.098 z"
           id="path159"
           inkscape:connector-curvature="0"
           style="fill:#cfe4cf" /><path
           d="m 435.83,279.071 c -0.168,0.122 -0.305,0.183 -0.314,0.245 -0.004,0.035 0.203,0.072 0.314,0.109 0.113,-0.037 0.324,-0.074 0.316,-0.109 -0.005,-0.062 -0.146,-0.124 -0.316,-0.245 z"
           id="path161"
           inkscape:connector-curvature="0"
           style="fill:#cfe4cf" /><path
           d="m 435.867,283.481 c 0.102,0 0.201,0 0.303,0 0,-0.021 0.039,-0.05 -0.006,-0.063 -0.158,-0.047 -0.35,-0.107 -0.586,-0.02 -0.035,0.012 0.188,0.055 0.289,0.083 z"
           id="path163"
           inkscape:connector-curvature="0"
           style="fill:#cfe4cf" /><path
           d="m 436.844,311.367 c -0.15,-0.016 -0.295,-0.037 -0.453,-0.045 -0.057,-0.003 -0.148,0.029 -0.221,0.045 0.145,0.018 0.293,0.035 0.436,0.052 0.087,-0.02 0.164,-0.036 0.238,-0.052 z"
           id="path165"
           inkscape:connector-curvature="0"
           style="fill:#cfe4cf" /><path
           d="m 437.182,279.136 c 0.076,-0.017 0.148,-0.032 0.24,-0.052 -0.078,-0.03 -0.16,-0.062 -0.24,-0.094 -0.076,0.018 -0.225,0.036 -0.211,0.049 0.037,0.033 0.134,0.065 0.211,0.097 z"
           id="path167"
           inkscape:connector-curvature="0"
           style="fill:#cfe4cf" /><path
           d="m 435.59,315.01 c 0.094,0.02 0.168,0.035 0.24,0.052 0.076,-0.032 0.178,-0.063 0.213,-0.098 0.012,-0.012 -0.137,-0.032 -0.213,-0.048 -0.078,0.032 -0.16,0.063 -0.24,0.094 z"
           id="path169"
           inkscape:connector-curvature="0"
           style="fill:#cfe4cf" /><path
           d="m 436.789,283.565 c -0.105,-0.028 -0.197,-0.06 -0.326,-0.082 -0.059,-0.011 -0.234,-0.011 -0.283,10e-4 -0.049,0.01 -0.053,0.047 -0.002,0.061 0.104,0.027 0.252,0.049 0.398,0.065 0.026,0.003 0.133,-0.028 0.213,-0.045 z"
           id="path171"
           inkscape:connector-curvature="0"
           style="fill:#cfe4cf" /><path
           d="m 435.715,307.266 c -0.057,-0.002 -0.145,0.029 -0.221,0.045 0.146,0.018 0.293,0.035 0.436,0.053 0.09,-0.02 0.164,-0.036 0.24,-0.053 -0.15,-0.016 -0.295,-0.038 -0.455,-0.045 z"
           id="path173"
           inkscape:connector-curvature="0"
           style="fill:#cfe4cf" /><path
           d="m 434.578,287.559 c -0.141,0.017 -0.285,0.034 -0.436,0.053 0.078,0.016 0.168,0.047 0.225,0.044 0.158,-0.007 0.305,-0.028 0.451,-0.044 -0.074,-0.018 -0.146,-0.034 -0.24,-0.053 z"
           id="path175"
           inkscape:connector-curvature="0"
           style="fill:#cfe4cf" /><path
           d="m 433.693,281.625 c -0.047,-10e-4 -0.117,0.021 -0.182,0.038 0,0.004 0,0.009 0,0.013 0.133,0.015 0.267,0.031 0.391,0.047 0.094,-0.02 0.17,-0.036 0.24,-0.052 -0.146,-0.017 -0.292,-0.038 -0.449,-0.046 z"
           id="path177"
           inkscape:connector-curvature="0"
           style="fill:#cfe4cf" /><path
           d="m 436.605,280.898 c -0.018,-0.006 -0.166,-0.006 -0.219,0.004 -0.338,0.054 -0.342,0.207 0.023,0.232 0.109,0.007 0.336,-0.065 0.479,-0.095 -0.122,-0.062 -0.187,-0.103 -0.283,-0.141 z"
           id="path179"
           inkscape:connector-curvature="0"
           style="fill:#cfe4cf" /><path
           d="m 434.156,305.793 c -0.051,0.01 -0.051,0.048 -0.004,0.061 0.107,0.027 0.252,0.049 0.398,0.065 0.023,0.003 0.137,-0.027 0.211,-0.044 -0.104,-0.028 -0.193,-0.061 -0.322,-0.083 -0.062,-0.011 -0.232,-0.011 -0.283,0.001 z"
           id="path181"
           inkscape:connector-curvature="0"
           style="fill:#cfe4cf" /><path
           d="m 435.273,314.219 c -0.16,0.008 -0.303,0.029 -0.455,0.046 0.076,0.017 0.152,0.032 0.242,0.052 0.141,-0.018 0.285,-0.035 0.434,-0.052 -0.076,-0.017 -0.168,-0.048 -0.221,-0.046 z"
           id="path183"
           inkscape:connector-curvature="0"
           style="fill:#cfe4cf" /><path
           d="m 434.137,305.727 c -0.154,-0.047 -0.35,-0.106 -0.588,-0.02 -0.027,0.012 0.189,0.055 0.295,0.083 0.1,0 0.24,0.009 0.291,-0.002 0.049,-0.011 0.049,-0.047 0.002,-0.061 z"
           id="path185"
           inkscape:connector-curvature="0"
           style="fill:#cfe4cf" /><path
           d="m 435.158,315.352 c 0.08,-0.031 0.162,-0.063 0.238,-0.094 -0.09,-0.02 -0.166,-0.035 -0.238,-0.051 -0.074,0.031 -0.178,0.063 -0.209,0.096 -0.013,0.011 0.135,0.032 0.209,0.049 z"
           id="path187"
           inkscape:connector-curvature="0"
           style="fill:#cfe4cf" /><path
           d="m 439.838,284.35 c 0.125,-0.023 0.229,-0.055 0.307,-0.086 0.014,-0.006 -0.129,-0.029 -0.207,-0.047 -0.133,0.023 -0.281,0.043 -0.387,0.07 -0.049,0.014 -0.006,0.043 -0.006,0.063 0.098,10e-4 0.232,0.009 0.293,0 z"
           id="path189"
           inkscape:connector-curvature="0"
           style="fill:#cfe4cf" /><path
           d="m 440.438,300.313 c -0.34,0.055 -0.344,0.208 0.02,0.232 0.111,0.008 0.34,-0.064 0.482,-0.094 -0.123,-0.063 -0.193,-0.104 -0.285,-0.142 -0.016,-0.005 -0.169,-0.004 -0.217,0.004 z"
           id="path191"
           inkscape:connector-curvature="0"
           style="fill:#cfe4cf" /><path
           d="m 443.141,277.013 c -0.074,0.008 -0.149,0.014 -0.223,0.022 0.067,0.014 0.139,0.029 0.22,0.048 0.001,-0.023 0.001,-0.046 0.003,-0.07 z"
           id="path193"
           inkscape:connector-curvature="0"
           style="fill:#cfe4cf" /><path
           d="m 419.076,304.225 c -0.159,0.007 -0.301,0.028 -0.451,0.045 0.075,0.016 0.15,0.031 0.239,0.051 0.143,-0.016 0.288,-0.033 0.437,-0.051 -0.077,-0.017 -0.17,-0.048 -0.225,-0.045 z"
           id="path195"
           inkscape:connector-curvature="0"
           style="fill:#cfe4cf" /><path
           d="m 416.622,273.666 c -0.018,0.034 0.203,0.073 0.315,0.109 0.112,-0.036 0.224,-0.072 0.39,-0.126 -0.117,-0.05 -0.254,-0.106 -0.39,-0.163 -0.112,0.061 -0.283,0.119 -0.315,0.18 z"
           id="path197"
           inkscape:connector-curvature="0"
           style="fill:#cfe4cf" /><path
           d="m 417.147,270.541 c -0.036,-0.033 -0.135,-0.064 -0.21,-0.097 -0.076,0.016 -0.225,0.036 -0.211,0.048 0.034,0.034 0.135,0.064 0.211,0.098 0.075,-0.017 0.224,-0.037 0.21,-0.049 z"
           id="path199"
           inkscape:connector-curvature="0"
           style="fill:#cfe4cf" /><path
           d="m 416.726,272.375 c 0.034,0.033 0.135,0.064 0.211,0.097 0.075,-0.016 0.148,-0.032 0.24,-0.051 -0.08,-0.03 -0.16,-0.062 -0.24,-0.094 -0.076,0.017 -0.225,0.036 -0.211,0.048 z"
           id="path201"
           inkscape:connector-curvature="0"
           style="fill:#cfe4cf" /><path
           d="m 416.261,283.916 c -0.076,0.016 -0.224,0.036 -0.212,0.047 0.037,0.035 0.136,0.066 0.212,0.098 0.076,-0.016 0.151,-0.031 0.241,-0.051 -0.079,-0.031 -0.159,-0.063 -0.241,-0.094 z"
           id="path203"
           inkscape:connector-curvature="0"
           style="fill:#cfe4cf" /><path
           d="m 420.646,312.961 c -0.073,-0.017 -0.164,-0.048 -0.22,-0.045 -0.159,0.007 -0.304,0.028 -0.452,0.045 0.073,0.016 0.165,0.048 0.221,0.046 0.159,-0.009 0.304,-0.03 0.451,-0.046 z"
           id="path205"
           inkscape:connector-curvature="0"
           style="fill:#cfe4cf" /><path
           d="m 416.049,287.73 c 0.037,0.033 0.136,0.064 0.212,0.097 0.076,-0.016 0.151,-0.032 0.241,-0.052 -0.079,-0.03 -0.159,-0.062 -0.241,-0.094 -0.076,0.018 -0.223,0.038 -0.212,0.049 z"
           id="path207"
           inkscape:connector-curvature="0"
           style="fill:#cfe4cf" /><path
           d="m 416.049,270.926 c 0.037,0.035 0.136,0.065 0.212,0.098 0.076,-0.016 0.224,-0.035 0.21,-0.047 -0.033,-0.035 -0.134,-0.066 -0.21,-0.098 -0.076,0.016 -0.223,0.035 -0.212,0.047 z"
           id="path209"
           inkscape:connector-curvature="0"
           style="fill:#cfe4cf" /><path
           d="m 418.286,295.215 c 0.074,-0.016 0.224,-0.035 0.212,-0.047 -0.035,-0.034 -0.138,-0.065 -0.212,-0.098 -0.073,0.016 -0.149,0.032 -0.238,0.052 0.075,0.03 0.158,0.062 0.238,0.093 z"
           id="path211"
           inkscape:connector-curvature="0"
           style="fill:#cfe4cf" /><path
           d="m 415.375,287.441 c 0.037,0.033 0.137,0.064 0.211,0.096 0.076,-0.016 0.225,-0.035 0.211,-0.047 -0.035,-0.033 -0.135,-0.065 -0.211,-0.098 -0.075,0.017 -0.222,0.037 -0.211,0.049 z"
           id="path213"
           inkscape:connector-curvature="0"
           style="fill:#cfe4cf" /><path
           d="m 414.673,287.01 c 0.076,0.03 0.157,0.063 0.239,0.094 0.074,-0.017 0.222,-0.036 0.21,-0.048 -0.033,-0.034 -0.136,-0.065 -0.21,-0.097 -0.075,0.016 -0.15,0.031 -0.239,0.051 z"
           id="path215"
           inkscape:connector-curvature="0"
           style="fill:#cfe4cf" /><path
           d="m 415.243,270.236 c -0.157,-0.048 -0.35,-0.107 -0.587,-0.021 -0.032,0.011 0.188,0.055 0.292,0.083 0.101,0 0.239,0.009 0.291,-0.002 0.05,-0.01 0.05,-0.045 0.004,-0.06 z"
           id="path217"
           inkscape:connector-curvature="0"
           style="fill:#cfe4cf" /><path
           d="m 416.471,280.053 c 0.014,-0.012 -0.134,-0.031 -0.21,-0.047 -0.08,0.031 -0.162,0.063 -0.241,0.093 0.091,0.019 0.165,0.035 0.241,0.052 0.076,-0.034 0.177,-0.064 0.21,-0.098 z"
           id="path219"
           inkscape:connector-curvature="0"
           style="fill:#cfe4cf" /><path
           d="m 416.369,266.365 c 0.308,-0.033 0.295,-0.061 0.007,-0.101 -0.181,-0.024 -0.297,-0.067 -0.469,-0.095 -0.129,-0.021 -0.302,-0.029 -0.452,-0.043 -0.066,0.063 -0.238,0.132 -0.174,0.188 0.091,0.081 0.694,0.099 1.088,0.051 z"
           id="path221"
           inkscape:connector-curvature="0"
           style="fill:#cfe4cf" /><path
           d="m 419.974,303.4 c -0.076,-0.017 -0.167,-0.049 -0.224,-0.046 -0.157,0.008 -0.304,0.029 -0.45,0.046 0.073,0.016 0.146,0.031 0.237,0.052 0.143,-0.018 0.29,-0.035 0.437,-0.052 z"
           id="path223"
           inkscape:connector-curvature="0"
           style="fill:#cfe4cf" /><path
           d="m 416.145,273.948 c -0.055,-0.003 -0.146,0.028 -0.221,0.045 0.146,0.018 0.294,0.035 0.436,0.052 0.089,-0.02 0.165,-0.035 0.238,-0.052 -0.149,-0.016 -0.294,-0.038 -0.453,-0.045 z"
           id="path225"
           inkscape:connector-curvature="0"
           style="fill:#cfe4cf" /><path
           d="m 415.542,270.302 c -0.059,-0.011 -0.232,-0.011 -0.283,0 -0.049,0.011 -0.051,0.048 -0.002,0.062 0.106,0.026 0.252,0.047 0.396,0.064 0.027,0.004 0.137,-0.027 0.215,-0.044 -0.104,-0.029 -0.197,-0.061 -0.326,-0.082 z"
           id="path227"
           inkscape:connector-curvature="0"
           style="fill:#cfe4cf" /><path
           d="m 420.214,270.899 c -0.092,0.021 -0.167,0.036 -0.24,0.052 0.148,0.016 0.293,0.037 0.452,0.045 0.056,0.003 0.146,-0.029 0.22,-0.045 -0.145,-0.017 -0.292,-0.035 -0.432,-0.052 z"
           id="path229"
           inkscape:connector-curvature="0"
           style="fill:#cfe4cf" /><path
           d="m 421.842,270.817 0,-0.182 c -0.063,-0.021 -0.133,-0.039 -0.208,-0.041 -0.625,-0.021 -0.289,0.09 -0.282,0.13 0.007,0.048 0.233,0.095 0.365,0.143 0.042,-0.017 0.083,-0.034 0.125,-0.05 z"
           id="path231"
           inkscape:connector-curvature="0"
           style="fill:#cfe4cf" /><path
           d="m 421.842,271.097 0,-0.034 c -0.063,-0.014 -0.125,-0.028 -0.182,-0.04 -0.075,0.031 -0.177,0.063 -0.212,0.098 -0.011,0.012 0.137,0.031 0.212,0.047 0.063,-0.024 0.123,-0.047 0.182,-0.071 z"
           id="path233"
           inkscape:connector-curvature="0"
           style="fill:#cfe4cf" /><path
           d="m 421.563,270.176 c -0.09,0.02 -0.165,0.035 -0.241,0.051 0.151,0.017 0.296,0.038 0.453,0.046 0.017,10e-4 0.045,-0.01 0.067,-0.014 0,-0.017 0,-0.033 0,-0.05 -0.094,-0.012 -0.188,-0.023 -0.279,-0.033 z"
           id="path235"
           inkscape:connector-curvature="0"
           style="fill:#cfe4cf" /><path
           d="m 420.986,282.902 c 0.112,-0.037 0.32,-0.074 0.317,-0.109 -0.01,-0.063 -0.151,-0.123 -0.317,-0.245 -0.167,0.122 -0.31,0.183 -0.316,0.245 -0.006,0.035 0.202,0.072 0.316,0.109 z"
           id="path237"
           inkscape:connector-curvature="0"
           style="fill:#cfe4cf" /><path
           d="m 421.312,270.586 c 0.05,-0.01 0.05,-0.046 0.004,-0.061 -0.157,-0.047 -0.349,-0.107 -0.587,-0.02 -0.032,0.012 0.188,0.055 0.293,0.084 0.099,10e-4 0.239,0.008 0.29,-0.003 z"
           id="path239"
           inkscape:connector-curvature="0"
           style="fill:#cfe4cf" /><path
           d="m 422.895,317.642 c 0.158,-0.008 0.303,-0.028 0.453,-0.045 -0.074,-0.017 -0.15,-0.032 -0.24,-0.052 -0.141,0.017 -0.289,0.034 -0.434,0.052 0.074,0.016 0.164,0.048 0.221,0.045 z"
           id="path241"
           inkscape:connector-curvature="0"
           style="fill:#cfe4cf" /><path
           d="m 442.918,274.428 c 0.074,0.017 0.148,0.032 0.24,0.052 0.02,-0.002 0.04,-0.005 0.059,-0.007 0.002,-0.026 0.002,-0.049 0.002,-0.075 -0.1,0.01 -0.201,0.019 -0.301,0.03 z"
           id="path243"
           inkscape:connector-curvature="0"
           style="fill:#cfe4cf" /><path
           d="m 419.538,280.17 c -0.091,0.02 -0.164,0.036 -0.237,0.053 0.146,0.016 0.293,0.037 0.45,0.045 0.057,0.002 0.147,-0.029 0.224,-0.045 -0.148,-0.018 -0.295,-0.035 -0.437,-0.053 z"
           id="path245"
           inkscape:connector-curvature="0"
           style="fill:#cfe4cf" /><path
           d="m 412.529,274.101 c -0.008,-0.062 -0.149,-0.124 -0.318,-0.244 -0.166,0.122 -0.305,0.183 -0.315,0.244 -0.003,0.036 0.204,0.073 0.315,0.11 0.114,-0.037 0.324,-0.074 0.318,-0.11 z"
           id="path247"
           inkscape:connector-curvature="0"
           style="fill:#cfe4cf" /><path
           d="m 419.635,293.478 c -0.075,0.032 -0.175,0.063 -0.21,0.097 -0.015,0.012 0.135,0.031 0.21,0.048 0.082,-0.031 0.161,-0.063 0.241,-0.093 -0.088,-0.02 -0.165,-0.037 -0.241,-0.052 z"
           id="path249"
           inkscape:connector-curvature="0"
           style="fill:#cfe4cf" /><path
           d="m 419.519,300.402 c 0.16,-0.007 0.304,-0.028 0.455,-0.045 -0.076,-0.016 -0.167,-0.047 -0.224,-0.045 -0.157,0.008 -0.304,0.029 -0.45,0.045 0.074,0.017 0.164,0.049 0.219,0.045 z"
           id="path251"
           inkscape:connector-curvature="0"
           style="fill:#cfe4cf" /><path
           d="m 419.75,290.172 c -0.157,0.008 -0.304,0.029 -0.45,0.046 0.073,0.017 0.146,0.032 0.237,0.052 0.143,-0.018 0.289,-0.035 0.437,-0.052 -0.076,-0.017 -0.167,-0.048 -0.224,-0.046 z"
           id="path253"
           inkscape:connector-curvature="0"
           style="fill:#cfe4cf" /><path
           d="m 419.059,268.006 c -0.014,-0.006 -0.165,-0.005 -0.219,0.003 -0.339,0.054 -0.341,0.208 0.023,0.232 0.109,0.008 0.337,-0.063 0.481,-0.094 -0.122,-0.063 -0.19,-0.103 -0.285,-0.141 z"
           id="path255"
           inkscape:connector-curvature="0"
           style="fill:#cfe4cf" /><path
           d="m 418.959,304.631 c 0.076,-0.016 0.152,-0.031 0.241,-0.051 -0.077,-0.03 -0.159,-0.063 -0.241,-0.094 -0.073,0.016 -0.222,0.035 -0.21,0.048 0.037,0.034 0.137,0.066 0.21,0.097 z"
           id="path257"
           inkscape:connector-curvature="0"
           style="fill:#cfe4cf" /><path
           d="m 418.959,297.099 c -0.073,0.017 -0.222,0.035 -0.21,0.048 0.036,0.033 0.137,0.064 0.21,0.098 0.076,-0.017 0.152,-0.033 0.241,-0.053 -0.076,-0.031 -0.158,-0.061 -0.241,-0.093 z"
           id="path259"
           inkscape:connector-curvature="0"
           style="fill:#cfe4cf" /><path
           d="m 414.238,277.543 c 0.079,-0.032 0.162,-0.064 0.239,-0.094 -0.091,-0.02 -0.165,-0.035 -0.239,-0.052 -0.076,0.032 -0.176,0.063 -0.211,0.097 -0.013,0.012 0.135,0.031 0.211,0.049 z"
           id="path261"
           inkscape:connector-curvature="0"
           style="fill:#cfe4cf" /><path
           d="m 416.261,300.865 c -0.112,0.06 -0.224,0.119 -0.337,0.18 0.113,0.037 0.225,0.073 0.337,0.109 0.112,-0.036 0.332,-0.075 0.314,-0.109 -0.031,-0.062 -0.201,-0.12 -0.314,-0.18 z"
           id="path263"
           inkscape:connector-curvature="0"
           style="fill:#cfe4cf" /><path
           d="m 412.001,281.501 c 0.036,0.034 0.136,0.065 0.209,0.098 0.077,-0.017 0.225,-0.036 0.211,-0.048 -0.032,-0.033 -0.134,-0.064 -0.211,-0.097 -0.071,0.016 -0.221,0.036 -0.209,0.047 z"
           id="path265"
           inkscape:connector-curvature="0"
           style="fill:#cfe4cf" /><path
           d="m 412.887,295.795 c 0.083,-0.031 0.161,-0.063 0.241,-0.094 -0.09,-0.02 -0.166,-0.035 -0.241,-0.052 -0.076,0.032 -0.175,0.063 -0.211,0.098 -0.013,0.012 0.135,0.032 0.211,0.048 z"
           id="path267"
           inkscape:connector-curvature="0"
           style="fill:#cfe4cf" /><path
           d="m 413.889,281.381 c -0.014,-0.018 -0.168,-0.05 -0.219,-0.047 -0.157,0.012 -0.414,0.032 -0.425,0.055 -0.049,0.093 -0.032,0.188 -0.01,0.282 0.003,0.017 0.168,0.05 0.218,0.048 0.157,-0.012 0.38,-0.029 0.427,-0.057 0.072,-0.041 0.018,-0.092 0.018,-0.14 0,-0.048 0.023,-0.094 -0.009,-0.141 z"
           id="path269"
           inkscape:connector-curvature="0"
           style="fill:#cfe4cf" /><path
           d="m 411.834,277.396 c 0.002,0 0.005,0 0.007,0 0.196,-0.011 0.509,-0.019 0.552,-0.045 0.153,-0.092 -0.193,-0.087 -0.49,-0.104 -0.025,-0.001 -0.046,-0.006 -0.071,-0.008 l 0.002,0.157 z"
           id="path271"
           inkscape:connector-curvature="0"
           style="fill:#cfe4cf" /><path
           d="m 423.348,311.223 c 0.146,0.018 0.293,0.035 0.434,0.051 0.092,-0.02 0.168,-0.035 0.24,-0.051 -0.148,-0.016 -0.293,-0.038 -0.451,-0.046 -0.057,-0.002 -0.149,0.03 -0.223,0.046 z"
           id="path273"
           inkscape:connector-curvature="0"
           style="fill:#cfe4cf" /></g><path
         d="m 439.33,268.654 c -0.035,-0.031 -0.07,-0.063 -0.107,-0.094 -0.033,0.018 -0.1,0.036 -0.096,0.049 0.016,0.033 0.063,0.064 0.096,0.097 0.033,-0.017 0.066,-0.032 0.107,-0.052 z m 2.248,37.827 c 0.002,-0.013 0.004,-0.031 0.007,-0.044 -0.009,0.01 -0.024,0.02 -0.028,0.029 -0.002,0.005 0.011,0.011 0.021,0.015 z m -0.08,-23.506 c -0.031,-0.016 -0.072,-0.048 -0.098,-0.045 -0.072,0.007 -0.137,0.029 -0.203,0.045 0.031,0.016 0.072,0.048 0.098,0.045 0.072,-0.008 0.137,-0.03 0.203,-0.045 z m -29.822,-14.046 0.003,0.166 c 0.04,-0.025 0.064,-0.057 0.053,-0.101 -0.006,-0.023 -0.031,-0.045 -0.056,-0.065 z m 4.468,-3.265 c 0.037,-0.032 0.074,-0.064 0.108,-0.094 -0.031,-0.015 -0.057,-0.027 -0.083,-0.039 -0.015,0.002 -0.029,0.005 -0.043,0.007 -0.029,0.025 -0.063,0.05 -0.076,0.078 -0.007,0.011 0.061,0.032 0.094,0.048 z m 24.749,7.025 c 0.033,0.016 0.074,0.047 0.1,0.045 0.072,-0.008 0.137,-0.029 0.205,-0.045 -0.035,-0.016 -0.068,-0.031 -0.107,-0.052 -0.066,0.018 -0.134,0.035 -0.198,0.052 z m 0.097,-4.011 c 0.023,0.009 0.09,0.01 0.1,0.004 0.041,-0.037 0.07,-0.078 0.125,-0.142 -0.063,-0.029 -0.166,-0.103 -0.215,-0.095 -0.164,0.026 -0.162,0.18 -0.01,0.233 z m -0.39,13.609 c 0.014,0.063 0.09,0.12 0.141,0.181 0.063,-0.058 0.125,-0.114 0.176,-0.163 -0.072,-0.054 -0.123,-0.09 -0.176,-0.127 -0.052,0.037 -0.149,0.076 -0.141,0.109 z m 0.097,22.895 c 0.049,0.008 0.15,-0.066 0.215,-0.096 -0.055,-0.063 -0.084,-0.103 -0.129,-0.141 -0.004,-0.007 -0.072,-0.005 -0.098,0.003 -0.152,0.054 -0.154,0.208 0.012,0.234 z m 1.41,-38.432 c -0.068,-0.016 -0.133,-0.037 -0.205,-0.045 -0.023,-0.003 -0.064,0.029 -0.1,0.045 0.068,0.018 0.133,0.035 0.195,0.053 0.042,-0.021 0.075,-0.037 0.11,-0.053 z m 0.131,15.137 c 0.059,-0.023 0.104,-0.055 0.139,-0.086 0.006,-0.006 -0.059,-0.029 -0.094,-0.045 -0.059,0.021 -0.125,0.042 -0.174,0.068 -0.02,0.014 -0.02,0.051 0.002,0.063 0.024,0.009 0.1,0.009 0.127,0 z m -0.234,-0.991 c -0.035,0.002 -0.08,-0.004 -0.104,0.006 -0.152,0.054 -0.146,0.197 0.008,0.238 0.025,0.006 0.076,0.004 0.102,-0.004 0.152,-0.054 0.146,-0.197 -0.006,-0.24 z m 0.004,-3.67 c 0.023,0.003 0.064,-0.029 0.1,-0.046 -0.066,-0.018 -0.133,-0.034 -0.195,-0.051 -0.041,0.019 -0.074,0.035 -0.109,0.051 0.067,0.016 0.132,0.039 0.204,0.046 z m 0.763,8.911 c 0.007,0.015 0.027,0.029 0.041,0.043 0.002,-0.023 0.002,-0.047 0.004,-0.07 -0.026,0.01 -0.048,0.02 -0.045,0.027 z m -0.208,-4.973 c -0.035,0.031 -0.072,0.063 -0.109,0.094 0.043,0.02 0.074,0.035 0.109,0.051 0.035,-0.031 0.078,-0.063 0.096,-0.098 0.003,-0.012 -0.061,-0.031 -0.096,-0.047 z m -1.065,-11.807 c 0.035,0.017 0.076,0.049 0.102,0.046 0.072,-0.008 0.137,-0.029 0.203,-0.046 -0.033,-0.016 -0.066,-0.031 -0.107,-0.052 -0.065,0.018 -0.13,0.036 -0.198,0.052 z m -0.408,25.254 c 0.041,-0.037 0.07,-0.078 0.125,-0.141 -0.063,-0.03 -0.166,-0.102 -0.215,-0.096 -0.164,0.025 -0.162,0.18 -0.01,0.232 0.024,0.011 0.09,0.011 0.1,0.005 z m 0.31,-11.392 c -0.072,0.008 -0.137,0.029 -0.203,0.046 0.031,0.016 0.066,0.032 0.105,0.052 0.064,-0.018 0.131,-0.034 0.195,-0.052 -0.03,-0.017 -0.071,-0.048 -0.097,-0.046 z m 0.403,5.551 c -0.066,-0.017 -0.131,-0.037 -0.203,-0.047 -0.025,-0.002 -0.066,0.03 -0.102,0.047 0.068,0.018 0.133,0.035 0.197,0.051 0.041,-0.02 0.075,-0.036 0.108,-0.051 z m 0.304,-6.881 c -0.102,0.031 -0.25,0.052 -0.293,0.096 -0.051,0.055 -0.012,0.129 -0.012,0.193 0.102,-0.031 0.25,-0.053 0.293,-0.096 0.051,-0.055 0.012,-0.129 0.012,-0.193 z m -0.666,8.158 c -0.113,-0.072 -0.414,-0.07 -0.498,0.004 -0.014,0.012 -0.01,0.036 0.008,0.048 0.113,0.072 0.412,0.07 0.502,-0.003 -0.004,-0.016 0.006,-0.037 -0.012,-0.049 z m 0.567,4.127 c 0.023,0.003 0.064,-0.029 0.1,-0.045 -0.066,-0.018 -0.133,-0.035 -0.195,-0.052 -0.041,0.021 -0.074,0.035 -0.109,0.052 0.067,0.016 0.132,0.038 0.204,0.045 z m -0.356,-16.631 c -0.033,0.031 -0.082,0.063 -0.096,0.096 -0.006,0.013 0.063,0.032 0.096,0.049 0.035,-0.032 0.072,-0.063 0.107,-0.094 -0.04,-0.02 -0.075,-0.035 -0.107,-0.051 z m -0.025,4.762 c 0.027,0.008 0.117,-0.04 0.176,-0.063 0,-0.021 0.02,-0.051 -0.006,-0.063 -0.021,-0.01 -0.096,-0.011 -0.127,0 -0.1,0.034 -0.225,0.075 -0.043,0.126 z m 1.139,-4.278 c -0.016,0.012 -0.012,0.036 0.006,0.048 0.072,0.046 0.215,0.059 0.335,0.045 10e-4,-0.047 0.003,-0.094 0.005,-0.141 -0.132,-0.017 -0.29,-0.002 -0.346,0.048 z m -8.25,23.49 c -0.068,-0.017 -0.131,-0.037 -0.205,-0.045 -0.023,-0.003 -0.064,0.028 -0.1,0.045 0.068,0.017 0.133,0.035 0.197,0.052 0.039,-0.02 0.074,-0.036 0.108,-0.052 z m 1.922,-34.667 c -0.025,-0.002 -0.066,0.029 -0.1,0.045 0.064,0.018 0.131,0.035 0.195,0.053 0.041,-0.02 0.074,-0.036 0.109,-0.053 -0.068,-0.016 -0.134,-0.038 -0.204,-0.045 z m 0.195,15.005 c -0.012,-0.04 -0.094,-0.075 -0.145,-0.112 -0.049,0.037 -0.143,0.075 -0.143,0.112 -0.004,0.139 0.02,0.277 0.043,0.417 0.002,0.019 0.064,0.034 0.1,0.05 0.037,-0.016 0.092,-0.031 0.102,-0.05 0.031,-0.067 0.045,-0.135 0.053,-0.152 0,-0.122 0.015,-0.195 -0.01,-0.265 z m -0.502,-10.949 c -0.152,0.054 -0.152,0.208 0.012,0.232 0.049,0.008 0.15,-0.064 0.215,-0.095 -0.053,-0.063 -0.084,-0.103 -0.129,-0.141 -0.006,-0.005 -0.075,-0.005 -0.098,0.004 z m 1.68,-4.57 c -0.035,-0.029 -0.07,-0.061 -0.107,-0.093 -0.031,0.016 -0.098,0.036 -0.094,0.048 0.016,0.034 0.063,0.064 0.094,0.098 0.034,-0.017 0.067,-0.034 0.107,-0.053 z m -2.635,35.2 c 0.188,0.065 0.262,0.208 0.555,0.196 0.086,-0.004 0.232,-0.025 0.238,-0.046 0.027,-0.106 -0.438,-0.265 -0.688,-0.243 -0.037,0.034 -0.111,0.09 -0.105,0.093 z m 0.814,1.843 c -0.041,-0.02 -0.074,-0.035 -0.107,-0.052 -0.033,0.032 -0.08,0.063 -0.096,0.098 -0.006,0.012 0.063,0.032 0.096,0.048 0.035,-0.032 0.072,-0.064 0.107,-0.094 z m 7.028,-27.938 c -0.031,-0.016 -0.074,-0.047 -0.1,-0.045 -0.07,0.008 -0.137,0.029 -0.203,0.045 0.033,0.017 0.074,0.049 0.1,0.046 0.07,-0.007 0.136,-0.029 0.203,-0.046 z m -6.778,7.778 c -0.023,-0.008 -0.076,-0.009 -0.102,-0.002 -0.154,0.039 -0.16,0.184 -0.008,0.237 0.023,0.009 0.068,0.004 0.104,0.005 0.151,-0.043 0.157,-0.186 0.006,-0.24 z m 0.412,-15.852 c 0.014,0.062 0.09,0.12 0.141,0.18 0.063,-0.057 0.123,-0.114 0.176,-0.162 -0.074,-0.055 -0.125,-0.092 -0.176,-0.127 -0.051,0.035 -0.15,0.075 -0.141,0.109 z m -0.068,2.834 c 0.006,-0.012 -0.061,-0.031 -0.096,-0.047 -0.035,0.032 -0.072,0.063 -0.107,0.094 0.041,0.02 0.074,0.035 0.107,0.051 0.035,-0.031 0.08,-0.063 0.096,-0.098 z m 0.818,26.898 c -0.035,0.032 -0.082,0.063 -0.096,0.098 -0.006,0.012 0.061,0.031 0.096,0.048 0.033,-0.032 0.07,-0.063 0.105,-0.094 -0.038,-0.02 -0.073,-0.036 -0.105,-0.052 z m -0.109,16.462 c 0.039,0.02 0.074,0.036 0.109,0.053 0.031,-0.033 0.078,-0.063 0.094,-0.098 0.004,-0.013 -0.063,-0.031 -0.094,-0.047 -0.039,0.03 -0.076,0.062 -0.109,0.092 z m -1.41,-23.125 c -0.033,0.016 -0.102,0.035 -0.096,0.047 0.016,0.034 0.063,0.064 0.096,0.098 0.033,-0.017 0.066,-0.033 0.107,-0.053 -0.035,-0.03 -0.072,-0.061 -0.107,-0.092 z m 0.658,-9.009 c 0.025,0.003 0.066,-0.029 0.102,-0.046 -0.066,-0.018 -0.133,-0.034 -0.197,-0.052 -0.041,0.021 -0.074,0.036 -0.107,0.052 0.065,0.016 0.13,0.037 0.202,0.046 z m -0.451,29.821 c -0.004,0.012 0.064,0.031 0.096,0.047 0.037,-0.031 0.072,-0.063 0.107,-0.094 -0.039,-0.019 -0.074,-0.035 -0.107,-0.051 -0.032,0.033 -0.081,0.063 -0.096,0.098 z m 0.553,-11.035 c -0.068,-0.016 -0.135,-0.037 -0.205,-0.045 -0.025,-0.003 -0.066,0.029 -0.1,0.045 0.064,0.018 0.131,0.035 0.195,0.052 0.041,-0.019 0.074,-0.036 0.11,-0.052 z m -4.153,12.359 c 0.07,-0.009 0.137,-0.03 0.203,-0.046 -0.035,-0.017 -0.074,-0.048 -0.1,-0.046 -0.072,0.008 -0.137,0.029 -0.205,0.046 0.036,0.016 0.077,0.048 0.102,0.046 z m 0.356,-1.566 c 0.037,-0.032 0.072,-0.063 0.107,-0.094 -0.041,-0.02 -0.074,-0.035 -0.107,-0.052 -0.033,0.032 -0.08,0.063 -0.094,0.097 -0.008,0.013 0.061,0.031 0.094,0.049 z m 0.152,0.217 c 0.033,0.016 0.072,0.048 0.098,0.045 0.072,-0.008 0.137,-0.029 0.205,-0.045 -0.033,-0.016 -0.068,-0.033 -0.107,-0.052 -0.065,0.017 -0.131,0.034 -0.196,0.052 z m 0.598,-10.439 c 0.033,-0.042 0.01,-0.093 0.01,-0.14 0,-0.048 0.01,-0.096 -0.006,-0.143 -0.006,-0.018 -0.076,-0.05 -0.1,-0.046 -0.07,0.011 -0.186,0.032 -0.189,0.055 -0.023,0.093 -0.016,0.188 -0.004,0.281 0,0.018 0.074,0.051 0.098,0.048 0.07,-0.011 0.169,-0.028 0.191,-0.055 z m -3.742,12.228 c 0.039,-0.018 0.072,-0.035 0.107,-0.051 -0.068,-0.017 -0.131,-0.038 -0.205,-0.045 -0.023,-0.003 -0.064,0.028 -0.1,0.045 0.067,0.018 0.133,0.035 0.198,0.051 z m 1.169,4.078 c 0.037,-0.032 0.072,-0.064 0.109,-0.094 -0.043,-0.02 -0.076,-0.035 -0.109,-0.051 -0.033,0.031 -0.078,0.063 -0.096,0.097 -0.003,0.012 0.063,0.031 0.096,0.048 z m -0.562,-1.614 c 0.039,-0.021 0.074,-0.036 0.107,-0.052 -0.068,-0.017 -0.133,-0.038 -0.205,-0.046 -0.025,-0.003 -0.066,0.029 -0.098,0.046 0.065,0.017 0.131,0.034 0.196,0.052 z m 3.355,-30.372 c -0.309,-0.115 -0.289,-0.227 -0.006,-0.353 0.09,-0.039 0.088,-0.125 0.133,-0.2 -0.053,-0.063 -0.105,-0.125 -0.158,-0.186 -0.09,0.035 -0.182,0.069 -0.268,0.105 -0.003,0.254 -0.01,0.512 -0.015,0.768 0.088,-0.017 0.179,-0.031 0.282,-0.038 0.142,-0.009 0.138,-0.058 0.032,-0.096 z m 0.395,-8.79 c 0,-0.096 0.014,-0.191 -0.008,-0.284 -0.006,-0.022 -0.121,-0.045 -0.191,-0.056 -0.021,-0.004 -0.098,0.029 -0.1,0.047 -0.008,0.143 -0.012,0.285 0.004,0.426 0.004,0.021 0.119,0.044 0.193,0.057 0.021,0.002 0.092,-0.029 0.098,-0.049 0.016,-0.046 0.004,-0.094 0.004,-0.141 z m -0.551,11.466 c -0.004,0.012 0.063,0.031 0.096,0.047 0.037,-0.03 0.072,-0.063 0.109,-0.093 -0.043,-0.02 -0.074,-0.035 -0.109,-0.053 -0.033,0.034 -0.078,0.065 -0.096,0.099 z m 0.291,6.079 c 0.041,0.021 0.074,0.036 0.109,0.053 0.033,-0.032 0.078,-0.063 0.096,-0.098 0.004,-0.012 -0.063,-0.031 -0.096,-0.047 -0.037,0.032 -0.072,0.063 -0.109,0.092 z m 0.715,10.483 c 0.035,-0.016 0.102,-0.036 0.096,-0.048 -0.014,-0.034 -0.061,-0.065 -0.096,-0.097 -0.031,0.016 -0.098,0.035 -0.094,0.047 0.016,0.035 0.063,0.066 0.094,0.098 z m 0.305,-28.538 c 0.033,-0.017 0.068,-0.032 0.107,-0.051 -0.035,-0.03 -0.07,-0.062 -0.107,-0.094 -0.033,0.017 -0.102,0.036 -0.096,0.048 0.018,0.034 0.063,0.064 0.096,0.097 z m -1.162,2.725 c 0.025,0.002 0.066,-0.029 0.1,-0.045 -0.064,-0.018 -0.133,-0.035 -0.197,-0.052 -0.039,0.019 -0.072,0.035 -0.105,0.052 0.065,0.016 0.129,0.037 0.202,0.045 z m 1.769,13.789 c -0.033,0.032 -0.078,0.063 -0.094,0.098 -0.006,0.012 0.061,0.031 0.094,0.047 0.037,-0.031 0.074,-0.063 0.109,-0.094 -0.042,-0.018 -0.076,-0.035 -0.109,-0.051 z m 3.645,-18.543 c 0.033,-0.016 0.066,-0.031 0.107,-0.051 -0.035,-0.031 -0.07,-0.063 -0.107,-0.094 -0.033,0.017 -0.1,0.035 -0.096,0.049 0.016,0.034 0.062,0.065 0.096,0.096 z m 0.207,19.315 c 0.018,0.035 0.063,0.064 0.096,0.098 0.035,-0.016 0.102,-0.035 0.094,-0.047 -0.016,-0.035 -0.059,-0.066 -0.094,-0.098 -0.034,0.016 -0.1,0.035 -0.096,0.047 z m 0.076,-8.158 c -0.027,-0.01 -0.105,-0.01 -0.127,0.002 -0.023,0.01 -0.023,0.047 -0.002,0.06 0.049,0.027 0.115,0.049 0.18,0.066 0.012,0.003 0.061,-0.028 0.096,-0.045 -0.048,-0.029 -0.089,-0.061 -0.147,-0.083 z m 0.172,-2.537 c 0.033,0.017 0.074,0.049 0.1,0.045 0.072,-0.007 0.137,-0.028 0.203,-0.045 -0.033,-0.016 -0.066,-0.031 -0.107,-0.051 -0.063,0.016 -0.13,0.033 -0.196,0.051 z m -0.44,2.535 c 0.045,0 0.09,0 0.137,0 0,-0.021 0.018,-0.049 -0.004,-0.063 -0.07,-0.049 -0.156,-0.107 -0.264,-0.021 -0.015,0.012 0.084,0.056 0.131,0.084 z m -0.015,-3.766 c 0.033,-0.017 0.066,-0.033 0.107,-0.051 -0.035,-0.031 -0.07,-0.063 -0.107,-0.094 -0.033,0.016 -0.1,0.035 -0.096,0.047 0.016,0.036 0.062,0.065 0.096,0.098 z m 4.114,-11.509 c 0,-0.004 0,-0.007 0,-0.011 -0.005,10e-4 -0.011,0.002 -0.015,0.003 0.004,0.003 0.01,0.005 0.015,0.008 z m -0.319,-1.456 c 0.033,0.016 0.076,0.048 0.1,0.045 0.072,-0.008 0.137,-0.029 0.205,-0.045 -0.035,-0.017 -0.068,-0.033 -0.109,-0.052 -0.064,0.017 -0.13,0.035 -0.196,0.052 z m -3.399,5.964 c -0.016,-0.034 -0.059,-0.065 -0.094,-0.098 -0.033,0.017 -0.1,0.036 -0.096,0.048 0.018,0.034 0.063,0.064 0.096,0.098 0.036,-0.017 0.102,-0.035 0.094,-0.048 z m 0.158,-6.01 c -0.025,-0.002 -0.066,0.029 -0.1,0.046 0.066,0.018 0.133,0.035 0.195,0.051 0.041,-0.019 0.074,-0.035 0.107,-0.051 -0.065,-0.016 -0.129,-0.037 -0.202,-0.046 z m 2.69,8.279 c 0.018,0.033 0.061,0.064 0.096,0.097 0.035,-0.017 0.1,-0.036 0.096,-0.048 -0.018,-0.033 -0.061,-0.064 -0.096,-0.097 -0.036,0.015 -0.102,0.036 -0.096,0.048 z m -2.428,33.801 c -0.006,0.011 0.061,0.032 0.096,0.048 0.033,-0.032 0.07,-0.064 0.107,-0.094 -0.041,-0.02 -0.076,-0.035 -0.107,-0.052 -0.035,0.033 -0.082,0.064 -0.096,0.098 z m 0.096,-4.733 c -0.035,0.033 -0.082,0.063 -0.096,0.098 -0.006,0.012 0.061,0.031 0.096,0.048 0.033,-0.031 0.07,-0.063 0.107,-0.094 -0.041,-0.019 -0.076,-0.035 -0.107,-0.052 z m 0.396,-4.538 c -0.016,-0.034 -0.061,-0.064 -0.094,-0.097 -0.033,0.016 -0.068,0.032 -0.109,0.051 0.035,0.031 0.072,0.063 0.109,0.094 0.034,-0.016 0.1,-0.035 0.094,-0.048 z m -2.22,-22.116 c -0.037,0.031 -0.072,0.063 -0.107,0.094 0.039,0.02 0.074,0.035 0.107,0.051 0.035,-0.031 0.078,-0.063 0.096,-0.096 0.005,-0.013 -0.061,-0.034 -0.096,-0.049 z m 0.759,-1.959 c 0,-0.047 0.01,-0.096 -0.006,-0.141 -0.004,-0.019 -0.076,-0.051 -0.096,-0.047 -0.072,0.01 -0.188,0.031 -0.193,0.054 -0.021,0.094 -0.014,0.188 -0.004,0.282 0.004,0.018 0.076,0.051 0.098,0.047 0.072,-0.01 0.172,-0.028 0.193,-0.055 0.032,-0.041 0.008,-0.093 0.008,-0.14 z m -0.025,4.506 c -0.047,-0.027 -0.09,-0.06 -0.146,-0.082 -0.025,-0.011 -0.104,-0.01 -0.127,0 -0.023,0.012 -0.023,0.049 0,0.062 0.047,0.026 0.111,0.049 0.178,0.065 0.011,0.003 0.06,-0.028 0.095,-0.045 z m -0.377,-3.099 c -0.072,0.007 -0.137,0.029 -0.205,0.045 0.033,0.017 0.074,0.048 0.1,0.046 0.072,-0.008 0.137,-0.029 0.203,-0.046 -0.034,-0.016 -0.075,-0.048 -0.098,-0.045 z m -0.615,9.269 c -0.008,-0.007 -0.076,-0.006 -0.1,0.003 -0.152,0.054 -0.152,0.208 0.012,0.232 0.049,0.007 0.15,-0.065 0.215,-0.095 -0.055,-0.062 -0.084,-0.103 -0.127,-0.14 z m 0.51,-6.716 c 0.072,-0.007 0.137,-0.028 0.203,-0.044 -0.033,-0.017 -0.074,-0.049 -0.098,-0.046 -0.072,0.007 -0.137,0.029 -0.205,0.046 0.033,0.015 0.074,0.047 0.1,0.044 z m -0.811,24.532 c -0.035,10e-4 -0.078,-0.004 -0.102,0.004 -0.154,0.055 -0.148,0.198 0.008,0.238 0.025,0.007 0.076,0.006 0.1,-0.004 0.152,-0.053 0.146,-0.196 -0.006,-0.238 z m 0.256,-7.412 c 0.033,-0.016 0.102,-0.035 0.094,-0.047 -0.016,-0.034 -0.061,-0.065 -0.094,-0.098 -0.035,0.017 -0.1,0.036 -0.096,0.049 0.018,0.033 0.061,0.065 0.096,0.096 z m 0.209,9.465 c 0.016,0.033 0.061,0.064 0.094,0.098 0.035,-0.018 0.102,-0.036 0.096,-0.049 -0.018,-0.033 -0.061,-0.064 -0.096,-0.097 -0.034,0.016 -0.1,0.035 -0.094,0.048 z m 0.492,-12.409 c 0.018,-0.012 0.008,-0.032 0.01,-0.049 -0.088,-0.072 -0.387,-0.074 -0.502,-0.002 -0.018,0.011 -0.02,0.035 -0.006,0.048 0.082,0.074 0.385,0.076 0.498,0.003 z m -1.1,14.92 c -0.004,0.012 0.063,0.031 0.094,0.048 0.037,-0.031 0.074,-0.063 0.107,-0.094 -0.039,-0.019 -0.072,-0.035 -0.107,-0.052 -0.031,0.034 -0.078,0.065 -0.094,0.098 z m 0.702,-11.396 c -0.033,0.016 -0.1,0.036 -0.094,0.047 0.016,0.035 0.061,0.066 0.094,0.098 0.035,-0.016 0.066,-0.031 0.109,-0.051 -0.035,-0.031 -0.072,-0.063 -0.109,-0.094 z m 0.449,-17.44 c -0.012,-0.029 -0.109,-0.053 -0.174,-0.073 -0.008,-0.003 -0.082,0.026 -0.094,0.045 -0.057,0.089 -0.055,0.173 0.139,0.228 0.031,0.01 0.088,0.002 0.135,0.002 0,-0.068 0.019,-0.137 -0.006,-0.202 z m -0.543,-1.633 c 0.016,0.034 0.061,0.064 0.094,0.097 0.035,-0.016 0.102,-0.035 0.096,-0.047 -0.018,-0.035 -0.061,-0.066 -0.096,-0.098 -0.034,0.015 -0.1,0.035 -0.094,0.048 z m 0.246,21.318 c 0.066,0.018 0.131,0.036 0.195,0.052 0.041,-0.019 0.074,-0.035 0.107,-0.052 -0.066,-0.017 -0.131,-0.036 -0.203,-0.045 -0.025,-0.003 -0.066,0.028 -0.099,0.045 z m 0.1,-0.624 c -0.025,-0.003 -0.066,0.029 -0.1,0.045 0.066,0.018 0.131,0.035 0.195,0.052 0.041,-0.019 0.074,-0.036 0.107,-0.052 -0.066,-0.016 -0.13,-0.037 -0.202,-0.045 z m -9.969,14.894 c 0.035,-0.032 0.08,-0.063 0.096,-0.098 0.006,-0.012 -0.061,-0.032 -0.096,-0.048 -0.037,0.032 -0.074,0.063 -0.109,0.094 0.042,0.019 0.076,0.035 0.109,0.052 z m -10.722,-33.561 c 0.017,0.034 0.061,0.065 0.095,0.098 0.033,-0.017 0.101,-0.036 0.094,-0.048 -0.014,-0.033 -0.061,-0.064 -0.094,-0.097 -0.034,0.016 -0.101,0.036 -0.095,0.047 z m -0.158,0.704 c -0.071,0.008 -0.136,0.029 -0.205,0.045 0.036,0.016 0.069,0.032 0.11,0.052 0.063,-0.017 0.129,-0.034 0.195,-0.052 -0.034,-0.016 -0.074,-0.047 -0.1,-0.045 z m -0.355,7.506 c -0.034,0.032 -0.079,0.063 -0.094,0.098 -0.006,0.011 0.06,0.031 0.094,0.047 0.036,-0.031 0.074,-0.063 0.107,-0.094 -0.04,-0.019 -0.073,-0.035 -0.107,-0.051 z m 0.303,21.439 c 0.038,-0.031 0.074,-0.063 0.109,-0.094 -0.041,-0.02 -0.074,-0.035 -0.109,-0.051 -0.032,0.031 -0.079,0.063 -0.094,0.096 -0.006,0.013 0.061,0.033 0.094,0.049 z m -0.411,4.108 c 0.035,0.03 0.07,0.063 0.107,0.094 0.034,-0.017 0.1,-0.037 0.096,-0.049 -0.017,-0.033 -0.062,-0.064 -0.096,-0.096 -0.033,0.016 -0.066,0.031 -0.107,0.051 z m 0.108,-36.847 c -0.034,0.032 -0.079,0.063 -0.094,0.098 -0.006,0.012 0.06,0.031 0.094,0.048 0.036,-0.031 0.074,-0.063 0.107,-0.094 -0.04,-0.02 -0.073,-0.035 -0.107,-0.052 z m 0,3.478 c -0.034,0.031 -0.079,0.063 -0.094,0.097 -0.006,0.012 0.06,0.032 0.094,0.048 0.036,-0.031 0.074,-0.063 0.107,-0.094 -0.04,-0.02 -0.073,-0.036 -0.107,-0.051 z m 0.858,28.076 c 0.071,-0.008 0.137,-0.029 0.205,-0.047 -0.034,-0.016 -0.068,-0.031 -0.108,-0.051 -0.063,0.018 -0.13,0.034 -0.195,0.051 0.033,0.018 0.074,0.049 0.098,0.047 z m 0.857,-22.955 c 0.034,0.03 0.07,0.063 0.106,0.094 0.034,-0.017 0.101,-0.036 0.097,-0.048 -0.017,-0.034 -0.063,-0.065 -0.097,-0.097 -0.032,0.016 -0.067,0.031 -0.106,0.051 z m -0.197,-9.467 c 0.036,-0.032 0.073,-0.064 0.108,-0.094 -0.041,-0.02 -0.075,-0.035 -0.108,-0.052 -0.034,0.032 -0.078,0.063 -0.096,0.097 -0.005,0.012 0.062,0.031 0.096,0.049 z m 0.452,-7.307 c -0.07,-0.048 -0.156,-0.107 -0.263,-0.021 -0.014,0.011 0.086,0.055 0.132,0.083 0.045,0 0.106,0.009 0.13,-0.002 0.024,-0.011 0.023,-0.045 0.001,-0.06 z m -1.059,25.413 c -0.034,0.032 -0.079,0.063 -0.096,0.098 -0.005,0.012 0.062,0.032 0.096,0.048 0.037,-0.031 0.073,-0.063 0.109,-0.094 -0.042,-0.019 -0.076,-0.035 -0.109,-0.052 z m -0.442,-18.401 c -0.128,-0.014 -0.245,-0.057 -0.361,-0.09 -0.136,-0.039 -0.249,-0.014 -0.26,0.059 -0.02,0.145 0.068,0.181 0.446,0.181 0.049,0 0.102,0.005 0.147,-0.001 0.088,-0.011 0.228,-0.019 0.247,-0.045 0.07,-0.092 -0.087,-0.087 -0.219,-0.104 z m 0.138,-3.392 c -0.076,0.122 -0.139,0.183 -0.143,0.244 -0.002,0.036 0.092,0.073 0.143,0.11 0.051,-0.037 0.145,-0.074 0.144,-0.11 -0.004,-0.061 -0.068,-0.123 -0.144,-0.244 z m 0.657,7.478 c -0.071,0.012 -0.186,0.032 -0.191,0.055 -0.021,0.093 -0.015,0.188 -0.004,0.282 10e-4,0.017 0.075,0.05 0.098,0.048 0.071,-0.012 0.17,-0.029 0.191,-0.057 0.033,-0.041 0.008,-0.092 0.008,-0.14 0,-0.048 0.012,-0.095 -0.003,-0.142 -0.008,-0.017 -0.076,-0.049 -0.099,-0.046 z m -3.694,10.984 c 0.035,-0.016 0.068,-0.031 0.109,-0.052 -0.037,-0.03 -0.073,-0.062 -0.109,-0.093 -0.033,0.016 -0.1,0.035 -0.094,0.047 0.016,0.035 0.061,0.067 0.094,0.098 z m 2.43,-24.771 c 0.036,-0.031 0.074,-0.063 0.107,-0.093 -0.04,-0.021 -0.073,-0.036 -0.107,-0.052 -0.034,0.031 -0.079,0.063 -0.094,0.098 -0.006,0.012 0.06,0.031 0.094,0.047 z m -0.911,18.542 c -0.033,0.017 -0.101,0.036 -0.095,0.048 0.016,0.034 0.062,0.064 0.095,0.098 0.034,-0.016 0.101,-0.036 0.095,-0.048 -0.014,-0.035 -0.061,-0.066 -0.095,-0.098 z m -1.467,-5.332 c -0.071,0.007 -0.136,0.029 -0.203,0.046 0.034,0.016 0.075,0.047 0.099,0.044 0.073,-0.007 0.137,-0.028 0.205,-0.044 -0.035,-0.017 -0.076,-0.049 -0.101,-0.046 z m 4.755,-6.809 c -0.025,-0.003 -0.065,0.028 -0.099,0.045 0.065,0.018 0.131,0.035 0.195,0.052 0.04,-0.02 0.074,-0.035 0.107,-0.052 -0.066,-0.016 -0.132,-0.038 -0.203,-0.045 z m -4.503,1.567 c -0.033,0.016 -0.101,0.036 -0.095,0.048 0.018,0.033 0.062,0.064 0.095,0.097 0.034,-0.017 0.068,-0.032 0.108,-0.052 -0.035,-0.031 -0.07,-0.062 -0.108,-0.093 z m 0.911,6.663 c -0.033,0.017 -0.101,0.036 -0.095,0.047 0.017,0.035 0.062,0.066 0.095,0.098 0.034,-0.016 0.068,-0.031 0.108,-0.051 -0.034,-0.031 -0.071,-0.063 -0.108,-0.094 z m -1.057,-3.77 c 0.021,0.012 0.101,0.012 0.127,0.002 0.058,-0.023 0.102,-0.055 0.138,-0.086 0.006,-0.006 -0.059,-0.029 -0.094,-0.046 -0.059,0.022 -0.126,0.042 -0.173,0.069 -0.021,0.014 -0.021,0.051 0.002,0.061 z m 0.754,-0.865 c 0.036,-0.032 0.073,-0.064 0.106,-0.094 -0.04,-0.02 -0.073,-0.035 -0.106,-0.052 -0.034,0.032 -0.08,0.063 -0.095,0.097 -0.005,0.012 0.061,0.031 0.095,0.049 z m 1.475,-5.525 c 0.063,-0.018 0.129,-0.035 0.193,-0.053 -0.033,-0.016 -0.073,-0.048 -0.098,-0.045 -0.072,0.008 -0.137,0.029 -0.205,0.045 0.035,0.016 0.069,0.032 0.11,0.053 z m -0.608,16.844 c -0.04,0.02 -0.075,0.035 -0.107,0.052 0.067,0.016 0.132,0.038 0.203,0.045 0.025,0.003 0.067,-0.029 0.1,-0.045 -0.067,-0.018 -0.132,-0.035 -0.196,-0.052 z m 0.747,-18.755 c -0.017,-0.035 -0.062,-0.065 -0.096,-0.098 -0.034,0.017 -0.067,0.032 -0.107,0.051 0.035,0.031 0.07,0.063 0.107,0.094 0.034,-0.015 0.099,-0.035 0.096,-0.047 z m -0.652,12.677 c -0.071,0.007 -0.136,0.03 -0.203,0.046 0.032,0.016 0.074,0.048 0.1,0.045 0.07,-0.008 0.137,-0.029 0.203,-0.045 -0.032,-0.016 -0.074,-0.049 -0.1,-0.046 z m -0.052,-12.485 c -0.036,0.032 -0.072,0.063 -0.107,0.094 0.04,0.02 0.074,0.035 0.107,0.052 0.034,-0.032 0.079,-0.063 0.095,-0.098 0.006,-0.013 -0.06,-0.032 -0.095,-0.048 z m -0.14,25.821 c -0.008,0.034 0.09,0.073 0.141,0.109 0.05,-0.036 0.15,-0.075 0.142,-0.109 -0.014,-0.062 -0.092,-0.12 -0.142,-0.181 -0.051,0.061 -0.127,0.12 -0.141,0.181 z m -0.557,-4.145 c 0.071,0.04 0.25,0.045 0.383,0.049 0.034,10e-4 0.126,-0.076 0.108,-0.087 -0.117,-0.071 -0.259,-0.136 -0.393,-0.202 -0.046,0.021 -0.105,0.037 -0.11,0.055 -0.009,0.063 -0.052,0.146 0.012,0.185 z m 3.639,-21.049 c 0.017,0.035 0.061,0.065 0.095,0.098 0.034,-0.016 0.102,-0.035 0.096,-0.047 -0.016,-0.035 -0.062,-0.066 -0.096,-0.098 -0.035,0.016 -0.101,0.035 -0.095,0.047 z m 1.309,33.705 c 0.033,-0.016 0.067,-0.031 0.107,-0.051 -0.034,-0.03 -0.07,-0.063 -0.107,-0.094 -0.033,0.016 -0.101,0.035 -0.095,0.048 0.016,0.034 0.062,0.066 0.095,0.097 z m 0.357,-14.459 c -0.071,0.008 -0.137,0.029 -0.203,0.046 0.032,0.017 0.066,0.032 0.106,0.052 0.063,-0.018 0.131,-0.035 0.196,-0.052 -0.033,-0.017 -0.074,-0.048 -0.099,-0.046 z m -0.357,6.927 c -0.033,0.017 -0.101,0.035 -0.095,0.048 0.016,0.033 0.062,0.064 0.095,0.098 0.033,-0.017 0.067,-0.033 0.107,-0.053 -0.033,-0.031 -0.069,-0.061 -0.107,-0.093 z m 0.841,-26.557 0,-0.049 c -0.016,0.007 -0.028,-10e-4 -0.045,0.013 -0.006,0.006 0.015,0.02 0.045,0.036 z m -0.537,22.936 c -0.034,0.032 -0.078,0.063 -0.095,0.097 -0.006,0.012 0.061,0.031 0.095,0.048 0.038,-0.031 0.073,-0.063 0.108,-0.093 -0.039,-0.02 -0.074,-0.037 -0.108,-0.052 z m -0.052,6.924 c 0.071,-0.007 0.137,-0.028 0.204,-0.045 -0.033,-0.016 -0.074,-0.047 -0.1,-0.045 -0.071,0.008 -0.137,0.029 -0.203,0.045 0.033,0.017 0.074,0.049 0.099,0.045 z m -0.207,-32.396 c -0.007,-0.006 -0.075,-0.005 -0.099,0.003 -0.152,0.054 -0.154,0.208 0.011,0.232 0.048,0.008 0.15,-0.063 0.217,-0.094 -0.055,-0.063 -0.086,-0.103 -0.129,-0.141 z m 0.007,36.219 c -0.072,0.007 -0.135,0.028 -0.203,0.045 0.034,0.016 0.068,0.031 0.108,0.051 0.063,-0.016 0.129,-0.033 0.196,-0.051 -0.034,-0.017 -0.075,-0.048 -0.101,-0.045 z m 7.29,9.994 c -0.074,0.008 -0.137,0.029 -0.205,0.046 0.033,0.017 0.068,0.032 0.107,0.052 0.064,-0.018 0.129,-0.035 0.197,-0.052 -0.035,-0.017 -0.076,-0.048 -0.099,-0.046 z m -0.356,2.871 c 0.031,-0.033 0.078,-0.064 0.092,-0.098 0.006,-0.012 -0.061,-0.031 -0.092,-0.047 -0.037,0.03 -0.074,0.063 -0.109,0.092 0.041,0.02 0.074,0.036 0.109,0.053 z m -6.145,-34.231 0,-0.208 c -0.039,0.056 -0.07,0.102 -0.072,0.142 -0.001,0.021 0.033,0.044 0.072,0.066 z m -2.055,18.295 c 0.051,-0.036 0.15,-0.075 0.142,-0.109 -0.014,-0.062 -0.091,-0.12 -0.142,-0.18 -0.05,0.06 -0.101,0.119 -0.15,0.18 0.049,0.037 0.1,0.073 0.15,0.109 z m 2.985,16.488 c 0.07,-0.008 0.137,-0.028 0.203,-0.045 -0.033,-0.017 -0.066,-0.032 -0.109,-0.052 -0.063,0.017 -0.129,0.034 -0.193,0.052 0.033,0.016 0.074,0.048 0.099,0.045 z m 4.911,-4.173 c 0.033,-0.017 0.066,-0.033 0.107,-0.053 -0.035,-0.029 -0.072,-0.062 -0.107,-0.093 -0.033,0.016 -0.102,0.035 -0.096,0.048 0.016,0.033 0.062,0.065 0.096,0.098 z m -4.512,-2.196 c 0.041,-0.02 0.076,-0.035 0.107,-0.051 -0.066,-0.016 -0.131,-0.038 -0.203,-0.046 -0.025,-0.002 -0.066,0.03 -0.1,0.046 0.067,0.018 0.133,0.036 0.196,0.051 z m 5.119,3.934 c -0.035,0.031 -0.08,0.063 -0.096,0.096 -0.004,0.012 0.061,0.032 0.096,0.049 0.037,-0.031 0.074,-0.063 0.107,-0.094 -0.041,-0.02 -0.074,-0.035 -0.107,-0.051 z m -8.827,-44.905 c -0.025,-0.011 -0.104,-0.011 -0.126,0 -0.024,0.011 -0.024,0.048 -0.002,0.062 0.047,0.026 0.114,0.047 0.179,0.064 0.012,0.004 0.061,-0.027 0.097,-0.044 -0.047,-0.029 -0.089,-0.061 -0.148,-0.082 z m -4.178,1.618 c -0.071,0.008 -0.137,0.029 -0.204,0.045 0.033,0.017 0.075,0.049 0.1,0.046 0.072,-0.008 0.136,-0.029 0.204,-0.046 -0.034,-0.016 -0.076,-0.048 -0.1,-0.045 z m 4.103,15.521 c 0.017,0.033 0.062,0.064 0.095,0.096 0.034,-0.016 0.101,-0.035 0.095,-0.047 -0.014,-0.033 -0.061,-0.065 -0.095,-0.098 -0.033,0.017 -0.101,0.037 -0.095,0.049 z m 0.447,-21.076 c 0.139,-0.033 0.133,-0.061 0.003,-0.101 -0.081,-0.024 -0.134,-0.067 -0.211,-0.095 -0.059,-0.021 -0.136,-0.029 -0.203,-0.043 -0.03,0.063 -0.107,0.132 -0.078,0.188 0.041,0.081 0.312,0.099 0.489,0.051 z m -0.048,17.551 c -0.034,0.016 -0.101,0.036 -0.095,0.047 0.017,0.035 0.061,0.066 0.095,0.098 0.034,-0.016 0.068,-0.031 0.109,-0.051 -0.036,-0.031 -0.071,-0.063 -0.109,-0.094 z m 1.474,-3.746 c -0.04,0.02 -0.074,0.036 -0.106,0.053 0.066,0.016 0.132,0.037 0.203,0.045 0.025,0.002 0.066,-0.029 0.1,-0.045 -0.066,-0.018 -0.133,-0.035 -0.197,-0.053 z m -1.569,7.56 c 0.017,0.033 0.061,0.064 0.095,0.097 0.034,-0.016 0.068,-0.032 0.109,-0.052 -0.036,-0.03 -0.071,-0.062 -0.109,-0.094 -0.035,0.018 -0.101,0.038 -0.095,0.049 z m -0.013,-7.631 c 0.04,0.019 0.073,0.035 0.107,0.052 0.034,-0.033 0.08,-0.063 0.096,-0.098 0.006,-0.012 -0.062,-0.031 -0.096,-0.047 -0.034,0.031 -0.071,0.062 -0.107,0.093 z m 2.081,32.862 c -0.033,-0.017 -0.074,-0.048 -0.1,-0.045 -0.071,0.007 -0.136,0.028 -0.203,0.045 0.033,0.016 0.074,0.048 0.1,0.046 0.071,-0.009 0.138,-0.03 0.203,-0.046 z m -0.303,-9.561 c -0.033,-0.017 -0.074,-0.049 -0.1,-0.046 -0.071,0.008 -0.137,0.029 -0.203,0.046 0.032,0.016 0.066,0.031 0.106,0.052 0.065,-0.018 0.132,-0.035 0.197,-0.052 z m 0.109,-32.501 c -0.041,0.021 -0.075,0.036 -0.108,0.052 0.067,0.016 0.132,0.037 0.203,0.045 0.025,0.003 0.066,-0.029 0.1,-0.045 -0.065,-0.017 -0.133,-0.035 -0.195,-0.052 z m -1.476,1.573 c 0.035,-0.016 0.067,-0.032 0.109,-0.051 -0.036,-0.03 -0.072,-0.062 -0.109,-0.094 -0.034,0.017 -0.1,0.036 -0.095,0.048 0.016,0.033 0.061,0.064 0.095,0.097 z m 0.703,22.696 c -0.016,-0.034 -0.063,-0.065 -0.096,-0.098 -0.032,0.016 -0.066,0.032 -0.106,0.052 0.034,0.03 0.07,0.062 0.106,0.093 0.034,-0.016 0.1,-0.035 0.096,-0.047 z m -0.607,-24.627 c -0.016,-0.033 -0.061,-0.064 -0.096,-0.097 -0.034,0.016 -0.1,0.036 -0.095,0.048 0.016,0.034 0.061,0.064 0.095,0.098 0.035,-0.017 0.102,-0.037 0.096,-0.049 z m -0.096,3.234 c 0.051,-0.036 0.102,-0.072 0.176,-0.126 -0.052,-0.05 -0.113,-0.106 -0.176,-0.163 -0.049,0.061 -0.126,0.119 -0.141,0.18 -0.007,0.034 0.092,0.073 0.141,0.109 z m -5.141,4.638 c -0.1,0.033 -0.225,0.075 -0.042,0.126 0.023,0.007 0.113,-0.04 0.174,-0.063 0,-0.021 0.018,-0.052 -0.006,-0.063 -0.022,-0.011 -0.098,-0.011 -0.126,0 z m -0.78,24.987 c -0.034,-0.017 -0.067,-0.033 -0.107,-0.052 -0.063,0.017 -0.13,0.034 -0.196,0.052 0.033,0.016 0.076,0.047 0.101,0.045 0.07,-0.007 0.135,-0.029 0.202,-0.045 z m -0.549,-9.151 c 0.015,0.034 0.06,0.064 0.095,0.097 0.033,-0.016 0.068,-0.032 0.106,-0.051 -0.034,-0.031 -0.07,-0.063 -0.106,-0.094 -0.036,0.017 -0.102,0.036 -0.095,0.048 z m 0.382,-11.198 c -0.086,-0.016 -0.193,-0.004 -0.292,-0.004 -0.048,0 -0.1,0.004 -0.146,0 -0.182,-0.016 -0.292,0.037 -0.295,0.107 -0.002,0.061 0.058,0.15 0.148,0.173 0.093,0.022 0.274,-0.008 0.388,-0.039 0.124,-0.034 0.224,-0.093 0.309,-0.148 0.017,-0.013 -0.055,-0.078 -0.112,-0.089 z m -0.938,-14.324 c -0.041,0.02 -0.075,0.035 -0.108,0.052 0.067,0.017 0.131,0.038 0.203,0.046 0.024,0.002 0.065,-0.029 0.1,-0.046 -0.065,-0.017 -0.132,-0.036 -0.195,-0.052 z m 1.258,2.007 c -0.034,0.031 -0.08,0.063 -0.095,0.097 -0.006,0.013 0.061,0.031 0.095,0.048 0.036,-0.031 0.073,-0.063 0.108,-0.094 -0.042,-0.019 -0.074,-0.035 -0.108,-0.051 z m -1.31,33.125 c -0.006,0.012 0.061,0.031 0.096,0.048 0.036,-0.032 0.073,-0.063 0.106,-0.094 -0.041,-0.019 -0.074,-0.035 -0.106,-0.052 -0.035,0.034 -0.08,0.064 -0.096,0.098 z m 0.043,-13.396 c -0.025,-0.004 -0.066,0.028 -0.1,0.045 0.065,0.018 0.13,0.034 0.195,0.051 0.04,-0.02 0.073,-0.035 0.107,-0.051 -0.066,-0.017 -0.131,-0.038 -0.202,-0.045 z m -0.251,-21.322 c 0.033,-0.032 0.078,-0.063 0.094,-0.098 0.007,-0.012 -0.061,-0.031 -0.094,-0.047 -0.037,0.031 -0.073,0.063 -0.109,0.094 0.04,0.018 0.075,0.034 0.109,0.051 z m 2.277,37.88 c 0.033,0.016 0.075,0.049 0.1,0.045 0.072,-0.008 0.136,-0.029 0.204,-0.045 -0.033,-0.016 -0.068,-0.033 -0.108,-0.051 -0.064,0.016 -0.13,0.034 -0.196,0.051 z m -0.412,-22.65 c -0.063,0.018 -0.13,0.035 -0.196,0.053 0.034,0.016 0.075,0.047 0.101,0.045 0.071,-0.008 0.136,-0.029 0.203,-0.045 -0.034,-0.017 -0.068,-0.033 -0.108,-0.053 z m 0.915,0.528 c 0.081,-0.041 0.136,-0.141 0.087,-0.185 -0.089,-0.079 -0.261,-0.139 -0.409,-0.199 -0.014,-0.004 -0.167,0.041 -0.174,0.067 -0.021,0.093 -0.008,0.188 -0.008,0.281 0,0.094 -0.006,0.188 0.006,0.281 0.002,0.017 0.07,0.05 0.094,0.047 0.072,-0.009 0.197,-0.034 0.194,-0.048 -0.022,-0.102 0.063,-0.17 0.21,-0.244 z m -1.262,19.298 c 0.034,-0.017 0.101,-0.036 0.095,-0.049 -0.017,-0.033 -0.061,-0.064 -0.095,-0.097 -0.034,0.017 -0.067,0.032 -0.108,0.052 0.035,0.032 0.071,0.062 0.108,0.094 z m 0.094,-12.94 c -0.017,-0.034 -0.061,-0.065 -0.095,-0.098 -0.034,0.017 -0.067,0.032 -0.108,0.052 0.035,0.029 0.071,0.063 0.108,0.093 0.035,-0.016 0.101,-0.035 0.095,-0.047 z m 0.057,5.914 c 0.066,0.018 0.133,0.034 0.196,0.052 0.04,-0.02 0.073,-0.035 0.107,-0.052 -0.067,-0.017 -0.132,-0.037 -0.203,-0.045 -0.025,-0.003 -0.066,0.028 -0.1,0.045 z m -0.043,10.554 c -0.042,-0.02 -0.074,-0.035 -0.108,-0.051 -0.034,0.031 -0.08,0.063 -0.095,0.097 -0.006,0.013 0.061,0.032 0.095,0.048 0.036,-0.032 0.073,-0.063 0.108,-0.094 z m 25.755,2.728 c -0.07,0.008 -0.137,0.029 -0.205,0.045 0.035,0.016 0.076,0.048 0.102,0.045 0.025,-0.002 0.048,-0.011 0.072,-0.016 0.012,-0.025 0.024,-0.047 0.036,-0.072 -0.002,0 -0.003,-0.002 -0.005,-0.002 z m -27.737,-35.4 c 0.071,-0.008 0.136,-0.029 0.203,-0.045 -0.033,-0.017 -0.074,-0.049 -0.1,-0.046 -0.071,0.008 -0.136,0.029 -0.203,0.046 0.033,0.015 0.074,0.047 0.1,0.045 z m 4.453,38.992 c -0.021,-0.041 -0.068,-0.08 -0.103,-0.119 -0.07,0.018 -0.159,0.027 -0.206,0.055 -0.134,0.079 -0.255,0.047 -0.287,-0.021 -0.043,-0.089 -0.011,-0.187 -0.025,-0.279 -0.002,-0.019 -0.083,-0.052 -0.098,-0.048 -0.067,0.018 -0.159,0.038 -0.183,0.068 -0.031,0.041 -0.009,0.092 -0.009,0.139 0,0.071 0,0.143 0,0.213 0.001,0.023 -0.015,0.053 0.01,0.068 0.18,0.117 0.446,0.068 0.676,0.066 0.15,10e-4 0.267,-0.055 0.225,-0.142 z m -4.353,-13.492 c 0.151,-0.043 0.157,-0.186 0.005,-0.24 -0.023,-0.008 -0.074,-0.01 -0.101,-0.003 -0.012,0.003 -0.017,0.011 -0.027,0.015 0.004,0.074 0.008,0.145 0.012,0.219 0.003,0.001 0.004,0.004 0.008,0.005 0.023,0.008 0.069,0.002 0.103,0.004 z m -0.487,-10.485 c 0.046,0.024 0.106,0.045 0.167,0.061 0.012,0.004 0.061,-0.027 0.096,-0.045 -0.047,-0.027 -0.088,-0.06 -0.146,-0.082 -0.025,-0.009 -0.09,-0.009 -0.117,0 -0.001,0.022 -0.001,0.044 0,0.066 z m 13.799,24.123 c -0.035,0.018 -0.066,0.033 -0.109,0.053 0.037,0.03 0.072,0.061 0.109,0.093 0.035,-0.017 0.1,-0.035 0.094,-0.048 -0.016,-0.033 -0.059,-0.064 -0.094,-0.098 z m 11.387,-45.413 c -0.066,-0.017 -0.131,-0.037 -0.203,-0.044 -0.025,-0.004 -0.066,0.027 -0.102,0.044 0.068,0.018 0.133,0.034 0.197,0.052 0.042,-0.019 0.075,-0.035 0.108,-0.052 z m 0.305,45.632 c 0,0 0.002,10e-4 0.002,0.002 0.002,-0.002 0.003,-0.002 0.004,-0.004 -0.002,10e-4 -0.004,0.002 -0.006,0.002 z m -18.855,1.871 c -0.005,-0.018 -0.091,-0.049 -0.096,-0.047 -0.065,0.023 -0.168,0.05 -0.172,0.078 -0.005,0.039 -0.003,0.078 -0.003,0.116 0.101,0.062 0.201,0.123 0.305,0.182 -0.002,-0.032 -0.007,-0.07 -0.007,-0.126 -0.002,-0.021 -0.008,-0.113 -0.027,-0.203 z m 9.548,0.207 c 0.064,-0.016 0.129,-0.033 0.197,-0.051 -0.035,-0.016 -0.076,-0.048 -0.1,-0.045 -0.074,0.006 -0.137,0.029 -0.205,0.045 0.034,0.017 0.069,0.033 0.108,0.051 z"
         id="path275"
         inkscape:connector-curvature="0"
         style="fill:#006838" /></g><g
       id="g277"><g
         id="g279"><g
           id="g281"><path
             d="m 417.247,266.186 c 4.584,0.373 3.868,4.023 3.868,6.936 0,3.422 0,6.843 0,10.264 0,7.01 0,14.018 0,21.027 0,3.785 2.946,11.398 8.092,8.189 3.164,-1.975 3.904,-5.74 4.412,-9.199 0.898,-6.123 0.498,-12.584 0.627,-18.762 0.068,-3.25 -0.033,-6.512 -0.041,-9.764 -0.01,-4.316 0.156,-8.042 5.422,-8.456 4.447,-0.351 2.895,7.034 2.816,9.661 -0.26,8.576 -0.57,17.16 -1.145,25.723 -0.25,3.73 -0.75,6.609 -2.654,10.018 -3.252,5.822 -11.029,6.459 -16.876,5.227 -5.834,-1.229 -7.738,-6.541 -8.262,-11.705 -0.697,-6.885 -0.703,-13.865 -0.827,-20.777 -0.059,-3.231 -0.104,-6.463 -0.164,-9.695 -0.081,-4.324 -1.479,-8.155 4.732,-8.687 0.929,-0.078 0.937,-1.535 0,-1.455 -7.938,0.678 -6.252,6.698 -6.139,12.75 0.198,10.57 -0.362,21.574 1.495,32.023 1.454,8.178 10.387,10.034 17.329,9.26 6.891,-0.77 11.666,-6.451 12.502,-13.197 0.953,-7.686 0.971,-15.563 1.258,-23.293 0.139,-3.75 0.258,-7.5 0.346,-11.251 0.047,-1.976 0.523,-4.856 -1.939,-5.736 -2.229,-0.797 -6.162,-0.354 -7.854,1.479 -3.129,3.395 -1.51,10.037 -1.463,14.348 0.068,6.432 -0.021,12.945 -0.342,19.369 -0.158,3.171 -0.645,6.423 -2.207,9.227 -1.916,0.264 -3.834,0.527 -5.75,0.791 -1.191,-1.274 -1.828,-2.758 -1.91,-4.451 -0.018,-0.181 0,-0.375 0,-0.557 0,-8.595 0,-17.189 0,-25.785 0,-5.339 2.039,-14.38 -5.326,-14.977 -0.937,-0.077 -0.93,1.38 0,1.455 z"
             id="path283"
             inkscape:connector-curvature="0"
             style="fill:#006838" /></g></g></g></g></svg>