<?xml version="1.0" encoding="UTF-8" standalone="no"?>
<!-- Generator: Adobe Illustrator 16.0.0, SVG Export Plug-In . SVG Version: 6.00 Build 0)  -->

<svg
   xmlns:dc="http://purl.org/dc/elements/1.1/"
   xmlns:cc="http://creativecommons.org/ns#"
   xmlns:rdf="http://www.w3.org/1999/02/22-rdf-syntax-ns#"
   xmlns:svg="http://www.w3.org/2000/svg"
   xmlns="http://www.w3.org/2000/svg"
   xmlns:sodipodi="http://sodipodi.sourceforge.net/DTD/sodipodi-0.dtd"
   xmlns:inkscape="http://www.inkscape.org/namespaces/inkscape"
   version="1.1"
   id="Layer_1"
   x="0px"
   y="0px"
   width="35.01268"
   height="66.019073"
   viewBox="0 0 35.01268 66.019073"
   enable-background="new 0 0 841.891 595.281"
   xml:space="preserve"
   inkscape:version="0.91 r13725"
   sodipodi:docname="bukva__03__E.svg"><metadata
     id="metadata263"><rdf:RDF><cc:Work
         rdf:about=""><dc:format>image/svg+xml</dc:format><dc:type
           rdf:resource="http://purl.org/dc/dcmitype/StillImage" /><dc:title></dc:title></cc:Work></rdf:RDF></metadata><defs
     id="defs261" /><sodipodi:namedview
     pagecolor="#ffffff"
     bordercolor="#666666"
     borderopacity="1"
     objecttolerance="10"
     gridtolerance="10"
     guidetolerance="10"
     inkscape:pageopacity="0"
     inkscape:pageshadow="2"
     inkscape:window-width="640"
     inkscape:window-height="480"
     id="namedview259"
     showgrid="false"
     fit-margin-top="0"
     fit-margin-left="0"
     fit-margin-right="0"
     fit-margin-bottom="0"
     inkscape:zoom="0.35396507"
     inkscape:cx="140.71218"
     inkscape:cy="32.912907"
     inkscape:window-x="10"
     inkscape:window-y="34"
     inkscape:window-maximized="0"
     inkscape:current-layer="Layer_1" /><g
     id="g3"
     transform="translate(-280.23332,-264.53434)"><g
       id="g5"><g
         id="g7"><g
           id="g9"><path
             d="m 293.229,285.42 c 0,4.383 -0.098,6.467 -0.098,7.83 l 0,1.652 -0.099,1.868 7.434,0 c 4.89,0 5.184,0.79 5.184,3.375 0,1.869 -2.15,2.803 -4.206,2.803 l -5.77,0 c -1.467,0 -1.956,0.072 -1.956,0.432 l 0,3.809 c 0,3.016 0,6.393 -0.098,9.195 l -0.099,4.238 c 2.642,0 5.478,-0.287 7.824,-0.287 3.521,0 5.379,0.502 5.379,2.801 0,1.725 -1.76,2.658 -3.422,2.73 -3.131,0.215 -8.606,0.504 -12.617,0.504 -4.792,0 -6.258,-0.791 -6.258,-4.238 l 0,-3.881 c 0.293,-6.322 0.293,-17.674 0.293,-25.719 0,-5.028 0,-8.837 0.097,-9.34 0.196,-2.587 0.099,-6.034 1.858,-8.262 0.978,-1.006 3.814,-1.294 7.14,-1.294 0.978,0 2.054,0.072 3.031,0.072 l 2.935,0 c 5.184,0 7.14,0.145 7.14,3.233 0,2.587 -0.783,3.089 -7.043,3.089 l -0.78,0 -6.163,0.145 c 0.294,0.143 0.294,4.813 0.294,5.245 z"
             id="path11"
             inkscape:connector-curvature="0"
             style="fill:#cee3ce" /></g><g
           id="g13"><g
             id="g15"><path
               d="m 289.068,285.42 c -0.012,3.777 0.003,7.577 -0.196,11.351 -0.12,2.266 1.983,4.161 4.161,4.161 2.966,0 5.934,-0.031 8.899,0.031 2.338,0.049 -0.695,-2.174 -1.984,-2.174 -1.811,0 -3.622,-0.018 -5.433,0.031 -4.901,0.135 -4.958,4.365 -4.958,8.086 0,4.574 -0.09,9.145 -0.196,13.717 -0.053,2.236 1.932,4.203 4.161,4.162 2.61,-0.049 5.214,-0.234 7.824,-0.287 1.971,0.504 2.248,-0.402 0.832,-2.719 -1.367,0.09 -2.736,0.156 -4.104,0.225 -2.461,0.123 -4.924,0.188 -7.388,0.205 -2.982,0.021 -2.097,0.48 -2.097,-2.018 0,-9.217 0.293,-18.438 0.293,-27.659 10e-4,-4.06 0.01,-8.087 0.275,-12.136 0.211,-3.222 1.679,-2.55 4.658,-2.598 1.882,-0.03 3.776,0.072 5.661,0.072 0.588,0 1.176,0.002 1.764,0.007 2.357,0.012 1.634,0.677 1.52,-0.936 -0.059,-0.821 2.054,-1.29 0.018,-1.132 -1.09,0.084 -2.197,0.059 -3.289,0.059 -2.185,0 -4.37,0.094 -6.554,0.145 -2.479,0.059 -5.03,2.658 -4.013,5.268 0.079,0.203 0.144,2.945 0.146,4.139 0.009,5.367 8.331,5.367 8.322,0 -0.003,-1.957 0.281,-4.496 -0.442,-6.352 -1.338,1.756 -2.675,3.513 -4.013,5.269 4.512,-0.105 10.493,0.724 14.626,-1.173 5.006,-2.296 4.512,-10.255 -0.165,-12.59 -2.597,-1.297 -5.833,-1.026 -8.647,-1.026 -3.911,0 -7.775,-0.228 -11.632,0.587 -8.031,1.698 -6.552,14.514 -6.557,20.572 -0.007,9.179 0.092,18.373 -0.293,27.544 -0.247,5.871 0.723,11.551 7.696,12.143 4.289,0.365 8.657,0.021 12.947,-0.215 3.458,-0.191 8.44,-0.662 9.526,-4.793 2.817,-10.709 -10.504,-9.045 -16.915,-8.926 1.387,1.387 2.774,2.775 4.161,4.162 0.056,-2.398 0.124,-4.799 0.168,-7.197 0.039,-2.172 0.028,-4.346 0.028,-6.52 0,-0.541 0,-1.08 0,-1.621 0,-1.963 0.648,-1.627 -0.387,-0.076 -0.829,0.639 -1.658,1.275 -2.487,1.914 2.823,-0.586 5.944,0.561 8.771,-0.271 4.114,-1.213 7.148,-4.766 5.795,-9.28 -1.992,-6.647 -11.148,-4.962 -16.539,-4.962 1.388,1.387 2.774,2.773 4.161,4.161 0.199,-3.773 0.185,-7.573 0.196,-11.351 0.018,-5.367 -8.304,-5.365 -8.32,0.001 z"
               id="path17"
               inkscape:connector-curvature="0"
               style="fill:#cee3ce" /></g></g></g></g><g
       id="g19"
       style="opacity:0.8"><g
         id="g21"><g
           id="g23"><path
             d="m 295.726,282.922 c 0,4.383 -0.098,6.467 -0.098,7.832 l 0,1.652 -0.099,1.868 7.433,0 c 4.891,0 5.185,0.79 5.185,3.376 0,1.869 -2.151,2.802 -4.206,2.802 l -5.771,0 c -1.465,0 -1.955,0.072 -1.955,0.43 l 0,3.809 c 0,3.018 0,6.395 -0.098,9.195 l -0.098,4.238 c 2.641,0 5.477,-0.287 7.824,-0.287 3.521,0 5.379,0.504 5.379,2.803 0,1.725 -1.76,2.658 -3.422,2.73 -3.131,0.215 -8.607,0.502 -12.617,0.502 -4.793,0 -6.26,-0.791 -6.26,-4.238 l 0,-3.879 c 0.294,-6.322 0.294,-17.673 0.294,-25.72 0,-5.029 0,-8.837 0.097,-9.34 0.197,-2.586 0.1,-6.035 1.859,-8.262 0.978,-1.006 3.814,-1.293 7.14,-1.293 0.979,0 2.054,0.071 3.031,0.071 l 2.935,0 c 5.184,0 7.14,0.144 7.14,3.233 0,2.586 -0.783,3.09 -7.043,3.09 l -0.781,0 -6.162,0.143 c 0.293,0.145 0.293,4.815 0.293,5.245 z"
             id="path25"
             inkscape:connector-curvature="0"
             style="fill:#cee3ce" /></g><g
           id="g27"><g
             id="g29"><path
               d="m 293.645,282.922 c -0.012,3.779 0.003,7.578 -0.196,11.353 -0.06,1.134 0.992,2.081 2.081,2.081 2.966,0 5.934,-0.031 8.898,0.03 3.864,0.081 -0.433,1.985 -1.983,1.985 -1.812,0 -3.623,-0.018 -5.434,0.033 -3.453,0.096 -2.878,3.553 -2.878,6.004 0,4.576 -0.09,9.145 -0.195,13.717 -0.025,1.119 0.966,2.102 2.081,2.082 2.61,-0.049 5.214,-0.234 7.824,-0.287 1.622,-0.398 1.899,0.082 0.832,1.443 -1.367,0.09 -2.736,0.156 -4.104,0.225 -2.461,0.121 -4.924,0.188 -7.388,0.205 -3.323,0.023 -4.179,-1.02 -4.179,-4.098 0,-9.217 0.293,-18.439 0.294,-27.66 0,-4.06 0.009,-8.086 0.275,-12.137 0.425,-6.473 7.664,-4.605 12.399,-4.605 1.039,0 5.24,-0.594 5.364,1.152 0.113,1.584 -4.27,1.01 -5.353,1.01 -2.184,0 -4.369,0.092 -6.553,0.143 -1.24,0.029 -2.515,1.329 -2.006,2.634 0.518,1.325 0.219,3.274 0.221,4.69 0.005,2.684 4.166,2.684 4.162,0 -0.003,-1.792 0.293,-4.098 -0.369,-5.797 -0.668,0.878 -1.337,1.756 -2.006,2.634 4.007,-0.093 9.918,0.791 13.576,-0.888 3.611,-1.657 3.198,-7.318 -0.166,-8.998 -2.21,-1.104 -5.218,-0.742 -7.597,-0.742 -3.716,0 -7.415,-0.26 -11.079,0.514 -6.621,1.398 -5.026,13.695 -5.029,18.566 -0.008,9.179 0.092,18.371 -0.295,27.544 -0.193,4.584 -0.086,9.576 5.618,10.061 4.289,0.363 8.657,0.021 12.947,-0.215 2.438,-0.135 6.713,-0.197 7.52,-3.264 2.269,-8.621 -10.151,-6.381 -14.908,-6.293 0.693,0.693 1.388,1.387 2.081,2.08 0.117,-5.113 0.195,-10.223 0.195,-15.338 0,-2.834 -0.169,-0.254 0.072,-0.254 1.056,0 2.111,0 3.166,0 2.454,0 4.594,-0.006 6.774,-1.293 2.928,-1.729 2.521,-7.193 -0.618,-8.416 -3.539,-1.379 -8.423,-0.631 -12.16,-0.631 0.693,0.693 1.387,1.388 2.081,2.081 0.199,-3.774 0.185,-7.573 0.196,-11.353 0.009,-2.682 -4.152,-2.681 -4.161,0.002 z"
               id="path31"
               inkscape:connector-curvature="0"
               style="fill:#5e8b63" /></g></g></g></g><g
       id="g33"><g
         id="g35"><path
           d="m 299.055,279.594 c 0,4.383 -0.097,6.466 -0.097,7.83 l 0,1.652 -0.1,1.869 7.434,0 c 4.891,0 5.184,0.789 5.184,3.375 0,1.869 -2.151,2.803 -4.205,2.803 l -5.771,0 c -1.467,0 -1.954,0.072 -1.954,0.432 l 0,3.806 c 0,3.02 0,6.395 -0.1,9.197 l -0.097,4.238 c 2.641,0 5.476,-0.287 7.824,-0.287 3.521,0 5.379,0.502 5.379,2.801 0,1.725 -1.762,2.658 -3.424,2.73 -3.13,0.215 -8.606,0.504 -12.616,0.504 -4.792,0 -6.259,-0.791 -6.259,-4.24 l 0,-3.879 c 0.293,-6.322 0.293,-17.673 0.293,-25.718 0,-5.029 0,-8.838 0.099,-9.34 0.195,-2.588 0.098,-6.036 1.857,-8.263 0.979,-1.006 3.814,-1.293 7.14,-1.293 0.978,0 2.054,0.071 3.031,0.071 l 2.935,0 c 5.183,0 7.14,0.145 7.14,3.233 0,2.587 -0.783,3.089 -7.042,3.089 l -0.782,0 -6.162,0.144 c 0.293,0.144 0.293,4.814 0.293,5.246 z"
           id="path37"
           inkscape:connector-curvature="0"
           style="fill:#42424a" /><path
           d="m 296.512,323.041 c -4.236,0 -8.756,-0.52 -8.756,-6.736 l 0.003,-3.994 c 0.29,-6.264 0.29,-17.442 0.29,-25.603 0,-6.648 0.011,-8.751 0.11,-9.591 0.026,-0.354 0.047,-0.726 0.068,-1.106 0.065,-1.192 0.14,-2.516 0.382,-3.84 l -0.161,-0.078 0.177,-0.005 c 0.299,-1.588 0.846,-3.174 1.918,-4.53 l 0.169,-0.193 c 1.416,-1.455 4.003,-2.049 8.93,-2.049 0.517,0 1.06,0.019 1.603,0.037 0.483,0.017 0.968,0.034 1.429,0.034 l 2.935,0 c 4.737,0 9.637,0 9.637,5.73 0,5.586 -4.421,5.586 -9.539,5.586 l -0.782,0 -3.394,0.079 c 0.02,0.791 0.022,1.719 0.022,2.813 0,2.838 -0.04,4.721 -0.069,6.068 -0.016,0.724 -0.027,1.287 -0.027,1.762 l 0,1.024 4.837,0 c 4.981,0 7.681,0.936 7.681,5.872 0,3.071 -2.818,5.3 -6.702,5.3 l -5.229,0 0,1.74 c 0,3.02 0,6.439 -0.102,9.285 l -0.036,1.582 c 0.484,-0.021 0.97,-0.049 1.448,-0.074 1.344,-0.072 2.613,-0.141 3.82,-0.141 2.154,0 7.876,0 7.876,5.297 0,2.881 -2.444,5.078 -5.813,5.225 -3.357,0.232 -8.758,0.506 -12.725,0.506 z m -3.762,-10.557 0,3.82 c 0,1.057 0.175,1.305 0.177,1.307 0.074,0.07 0.607,0.436 3.585,0.436 3.595,0 8.841,-0.248 12.445,-0.496 0.519,-0.023 0.89,-0.174 1.058,-0.287 -0.314,-0.107 -1.071,-0.256 -2.842,-0.256 -1.072,0 -2.276,0.064 -3.551,0.133 -1.4,0.076 -2.848,0.154 -4.273,0.154 l -2.555,0 0.155,-6.793 c 0.099,-2.789 0.099,-6.164 0.099,-9.141 l 0,-3.806 c 0,-2.929 3.233,-2.929 4.451,-2.929 l 5.771,0 c 0.861,0 1.492,-0.252 1.708,-0.419 -0.001,-0.265 -0.008,-0.459 -0.016,-0.602 -0.376,-0.075 -1.141,-0.163 -2.671,-0.163 l -10.067,0 0.236,-4.433 0,-1.586 c 0,-0.503 0.013,-1.101 0.029,-1.868 0.028,-1.324 0.067,-3.174 0.067,-5.962 0,-1.523 -0.03,-2.77 -0.071,-3.577 l -3.15,-1.538 c -0.056,0.604 -0.09,1.218 -0.123,1.809 -0.024,0.438 -0.048,0.863 -0.078,1.268 l -0.025,0.219 c -0.066,0.779 -0.066,4.924 -0.066,8.934 0,8.185 0,19.385 -0.293,25.776 z m 1.556,-41.617 c -0.211,0.319 -0.378,0.691 -0.512,1.1 l 11.911,-0.259 c 2.328,0 3.85,-0.084 4.538,-0.25 0.004,-0.089 0.007,-0.201 0.007,-0.342 0,-0.217 -0.015,-0.362 -0.029,-0.452 -0.758,-0.284 -3.241,-0.284 -4.613,-0.284 l -2.935,0 c -0.517,0 -1.06,-0.019 -1.603,-0.037 -0.483,-0.017 -0.968,-0.034 -1.429,-0.034 -3.763,0 -5.001,0.405 -5.335,0.558 z"
           id="path39"
           inkscape:connector-curvature="0"
           style="fill:#42424a" /></g></g><g
       id="g41"><g
         id="g43"><path
           d="m 298.222,277.929 c 0,4.383 -0.098,6.466 -0.098,7.831 l 0,1.652 -0.098,1.868 7.433,0 c 4.891,0 5.185,0.79 5.185,3.376 0,1.869 -2.151,2.803 -4.205,2.803 l -5.771,0 c -1.467,0 -1.956,0.072 -1.956,0.431 l 0,3.807 c 0,3.018 0,6.395 -0.098,9.195 l -0.098,4.24 c 2.641,0 5.477,-0.289 7.824,-0.289 3.521,0 5.379,0.504 5.379,2.803 0,1.725 -1.761,2.658 -3.423,2.73 -3.129,0.215 -8.606,0.502 -12.616,0.502 -4.793,0 -6.26,-0.789 -6.26,-4.238 l 0,-3.879 c 0.294,-6.322 0.294,-17.673 0.294,-25.72 0,-5.028 0,-8.836 0.098,-9.339 0.195,-2.587 0.098,-6.035 1.858,-8.263 0.978,-1.006 3.814,-1.293 7.14,-1.293 0.978,0 2.054,0.072 3.031,0.072 l 2.934,0 c 5.184,0 7.14,0.144 7.14,3.232 0,2.587 -0.781,3.09 -7.041,3.09 l -0.782,0 -6.162,0.143 c 0.292,0.145 0.292,4.815 0.292,5.246 z"
           id="path45"
           inkscape:connector-curvature="0"
           style="fill:#006838" /></g></g><g
       id="g47"><path
         d="m 299.888,277.098 c 0,4.383 -0.098,6.466 -0.098,7.831 l 0,1.652 -0.098,1.868 7.432,0 c 4.89,0 5.184,0.789 5.184,3.376 0,1.868 -2.151,2.802 -4.205,2.802 l -5.771,0 c -1.467,0 -1.955,0.072 -1.955,0.431 l 0,3.807 c 0,3.018 0,6.395 -0.099,9.195 l -0.098,4.238 c 2.641,0 5.477,-0.287 7.824,-0.287 3.521,0 5.378,0.504 5.378,2.803 0,1.723 -1.76,2.658 -3.423,2.729 -3.129,0.217 -8.605,0.504 -12.615,0.504 -4.792,0 -6.259,-0.791 -6.259,-4.238 l 0,-3.881 c 0.294,-6.32 0.294,-17.671 0.294,-25.716 0,-5.029 0,-8.837 0.098,-9.34 0.195,-2.586 0.098,-6.034 1.857,-8.262 0.979,-1.006 3.814,-1.293 7.14,-1.293 0.978,0 2.054,0.072 3.031,0.072 l 2.934,0 c 5.184,0 7.14,0.144 7.14,3.232 0,2.586 -0.783,3.09 -7.042,3.09 l -0.782,0 -6.161,0.143 c 0.294,0.144 0.294,4.813 0.294,5.244 z"
         id="path49"
         inkscape:connector-curvature="0"
         style="fill:#2f9a41" /></g><g
       id="g51"><g
         id="g53"><path
           d="m 305.337,288.447 -1.344,0 -12.686,12.686 c -0.006,0.462 -0.013,0.913 -0.02,1.363 l 14.05,-14.049 z"
           id="path55"
           inkscape:connector-curvature="0"
           style="fill:#cee3ce" /><path
           d="m 311.096,271.486 c 1.953,-0.31 2.415,-1.011 2.474,-2.474 l -2.474,2.474 z"
           id="path57"
           inkscape:connector-curvature="0"
           style="fill:#cee3ce" /><path
           d="m 299.88,279.119 c 0.003,-0.421 0.005,-0.873 0.006,-1.351 l -8.507,8.507 c 0,0.443 0,0.889 -0.001,1.344 l 8.502,-8.5 z"
           id="path59"
           inkscape:connector-curvature="0"
           style="fill:#cee3ce" /><path
           d="m 291.379,282.69 8.467,-8.467 c -0.015,-0.458 -0.035,-0.901 -0.062,-1.282 l -8.404,8.405 c 0,0.433 -10e-4,0.882 -10e-4,1.344 z"
           id="path61"
           inkscape:connector-curvature="0"
           style="fill:#cee3ce" /><path
           d="m 300.408,288.447 -0.718,0 0.035,-0.661 -8.373,8.373 c -0.003,0.452 -0.006,0.904 -0.009,1.353 l 9.065,-9.065 z"
           id="path63"
           inkscape:connector-curvature="0"
           style="fill:#cee3ce" /><path
           d="m 305.946,271.709 0.591,0 c 0.267,0 0.51,-0.002 0.757,-0.004 l 5.431,-5.431 c -0.238,-0.194 -0.532,-0.345 -0.881,-0.463 l -5.898,5.898 z"
           id="path65"
           inkscape:connector-curvature="0"
           style="fill:#cee3ce" /><path
           d="m 291.373,291.21 c -10e-4,0.447 -0.002,0.896 -0.003,1.347 l 8.428,-8.428 c 0.007,-0.394 0.017,-0.845 0.028,-1.372 l -8.453,8.453 z"
           id="path67"
           inkscape:connector-curvature="0"
           style="fill:#cee3ce" /><path
           d="m 291.758,271.112 c -0.061,0.497 -0.107,0.994 -0.14,1.484 l 7.252,-7.253 c -0.496,0.017 -0.971,0.044 -1.425,0.081 l -5.687,5.688 z"
           id="path69"
           inkscape:connector-curvature="0"
           style="fill:#cee3ce" /><path
           d="m 300.905,271.821 1.375,-0.032 6.379,-6.379 c -0.414,-0.012 -0.849,-0.019 -1.323,-0.021 l -6.431,6.432 z"
           id="path71"
           inkscape:connector-curvature="0"
           style="fill:#cee3ce" /><path
           d="m 313.383,314.814 c 0,-0.414 -0.082,-0.753 -0.202,-1.059 l -3.829,3.829 c 0.203,-0.013 0.422,-0.026 0.609,-0.04 0.306,-0.014 0.611,-0.065 0.912,-0.137 l 2.498,-2.498 c 0.001,-0.033 0.012,-0.061 0.012,-0.095 z"
           id="path73"
           inkscape:connector-curvature="0"
           style="fill:#cee3ce" /><path
           d="m 291.392,277.75 12.364,-12.364 -0.25,0 c -0.345,0 -0.708,-0.014 -1.069,-0.025 l -11.029,11.029 c -0.006,0.392 -0.012,0.846 -0.016,1.36 z"
           id="path75"
           inkscape:connector-curvature="0"
           style="fill:#cee3ce" /><path
           d="m 301.222,312.275 c -0.238,0.006 -0.476,0.015 -0.711,0.017 l -5.645,5.645 c 0.203,0.022 0.417,0.04 0.64,0.056 l 5.716,-5.718 z"
           id="path77"
           inkscape:connector-curvature="0"
           style="fill:#cee3ce" /><path
           d="m 306.374,312.051 c -0.459,0.019 -0.932,0.04 -1.409,0.065 l -5.914,5.914 c 0.449,-0.008 0.908,-0.018 1.373,-0.029 l 5.95,-5.95 z"
           id="path79"
           inkscape:connector-curvature="0"
           style="fill:#cee3ce" /><path
           d="m 300.272,308.296 0.005,-0.236 c 0.013,-0.364 0.02,-0.76 0.03,-1.143 l -8.939,8.939 c 0.118,0.332 0.278,0.617 0.483,0.861 l 8.421,-8.421 z"
           id="path81"
           inkscape:connector-curvature="0"
           style="fill:#cee3ce" /><path
           d="m 300.365,303.276 c 0.003,-0.45 0.005,-0.899 0.006,-1.351 l -9.286,9.287 0,1.344 9.28,-9.28 z"
           id="path83"
           inkscape:connector-curvature="0"
           style="fill:#cee3ce" /><path
           d="m 300.376,298.335 0,-1.343 -9.162,9.162 c -0.012,0.475 -0.025,0.936 -0.039,1.383 l 9.201,-9.202 z"
           id="path85"
           inkscape:connector-curvature="0"
           style="fill:#cee3ce" /><path
           d="m 311.09,312.263 c -0.35,-0.078 -0.746,-0.132 -1.173,-0.17 l -5.777,5.775 c 0.477,-0.021 0.949,-0.043 1.41,-0.066 l 5.54,-5.539 z"
           id="path87"
           inkscape:connector-curvature="0"
           style="fill:#cee3ce" /><path
           d="m 312.164,290.133 -4.493,4.493 0.432,0 c 0.333,0 0.666,-0.034 0.995,-0.083 l 3.206,-3.206 c -0.012,-0.467 -0.049,-0.865 -0.14,-1.204 z"
           id="path89"
           inkscape:connector-curvature="0"
           style="fill:#cee3ce" /><path
           d="m 304.086,294.626 5.998,-5.998 c -0.347,-0.06 -0.749,-0.104 -1.211,-0.133 l -6.13,6.13 1.343,0 z"
           id="path91"
           inkscape:connector-curvature="0"
           style="fill:#cee3ce" /></g><g
         id="g93"><path
           d="m 296.7,290.987 c 0.158,-0.007 0.303,-0.028 0.453,-0.046 -0.076,-0.016 -0.15,-0.032 -0.241,-0.051 -0.142,0.017 -0.286,0.034 -0.435,0.051 0.077,0.018 0.167,0.049 0.223,0.046 z"
           id="path95"
           inkscape:connector-curvature="0"
           style="fill:#cee3ce" /><path
           d="m 293.443,277.977 c -0.075,0.017 -0.224,0.036 -0.213,0.048 0.035,0.034 0.138,0.065 0.213,0.097 0.073,-0.016 0.148,-0.031 0.238,-0.051 -0.076,-0.031 -0.159,-0.063 -0.238,-0.094 z"
           id="path97"
           inkscape:connector-curvature="0"
           style="fill:#cee3ce" /><path
           d="m 296.454,269.465 c -0.031,-0.061 -0.2,-0.119 -0.313,-0.18 -0.114,0.061 -0.283,0.119 -0.316,0.18 -0.017,0.034 0.202,0.073 0.316,0.109 0.113,-0.036 0.33,-0.075 0.313,-0.109 z"
           id="path99"
           inkscape:connector-curvature="0"
           style="fill:#cee3ce" /><path
           d="m 294.889,285.82 c -0.142,0.017 -0.29,0.034 -0.435,0.052 0.074,0.017 0.165,0.048 0.221,0.045 0.159,-0.007 0.304,-0.028 0.453,-0.045 -0.073,-0.017 -0.149,-0.032 -0.239,-0.052 z"
           id="path101"
           inkscape:connector-curvature="0"
           style="fill:#cee3ce" /><path
           d="m 296.027,296.057 c 0.157,-0.007 0.301,-0.027 0.451,-0.045 -0.076,-0.016 -0.149,-0.031 -0.241,-0.051 -0.141,0.016 -0.286,0.033 -0.435,0.051 0.076,0.017 0.168,0.049 0.225,0.045 z"
           id="path103"
           inkscape:connector-curvature="0"
           style="fill:#cee3ce" /><path
           d="m 293.203,281.795 c 0.075,0.029 0.157,0.062 0.239,0.094 0.073,-0.017 0.221,-0.037 0.21,-0.048 -0.035,-0.034 -0.137,-0.065 -0.21,-0.098 -0.075,0.016 -0.15,0.032 -0.239,0.052 z"
           id="path105"
           inkscape:connector-curvature="0"
           style="fill:#cee3ce" /><path
           d="m 295.128,300.792 c -0.073,-0.018 -0.167,-0.049 -0.222,-0.045 -0.159,0.008 -0.305,0.027 -0.452,0.045 0.074,0.016 0.165,0.047 0.221,0.045 0.159,-0.007 0.304,-0.029 0.453,-0.045 z"
           id="path107"
           inkscape:connector-curvature="0"
           style="fill:#cee3ce" /><path
           d="m 294.889,269.164 c -0.015,-0.005 -0.166,-0.004 -0.216,0.004 -0.34,0.055 -0.344,0.208 0.022,0.232 0.108,0.008 0.336,-0.064 0.479,-0.095 -0.121,-0.063 -0.19,-0.103 -0.285,-0.141 z"
           id="path109"
           inkscape:connector-curvature="0"
           style="fill:#cee3ce" /><path
           d="m 296.816,275.225 c -0.074,0.016 -0.223,0.035 -0.21,0.048 0.034,0.034 0.136,0.064 0.21,0.097 0.074,-0.016 0.149,-0.032 0.24,-0.051 -0.076,-0.032 -0.16,-0.063 -0.24,-0.094 z"
           id="path111"
           inkscape:connector-curvature="0"
           style="fill:#cee3ce" /><path
           d="m 297.49,292.028 c 0.114,-0.06 0.283,-0.118 0.316,-0.181 0.016,-0.033 -0.202,-0.072 -0.316,-0.108 -0.111,0.036 -0.225,0.072 -0.388,0.126 0.115,0.049 0.253,0.107 0.388,0.163 z"
           id="path113"
           inkscape:connector-curvature="0"
           style="fill:#cee3ce" /><path
           d="m 296.912,315.185 c 0.091,-0.02 0.165,-0.035 0.241,-0.051 -0.15,-0.018 -0.295,-0.039 -0.453,-0.047 -0.057,-0.002 -0.146,0.029 -0.223,0.047 0.148,0.018 0.294,0.033 0.435,0.051 z"
           id="path115"
           inkscape:connector-curvature="0"
           style="fill:#cee3ce" /><path
           d="m 297.279,294.973 c 0.036,0.035 0.138,0.066 0.211,0.098 0.076,-0.016 0.151,-0.031 0.24,-0.051 -0.078,-0.031 -0.158,-0.063 -0.24,-0.094 -0.074,0.015 -0.223,0.035 -0.211,0.047 z"
           id="path117"
           inkscape:connector-curvature="0"
           style="fill:#cee3ce" /><path
           d="m 298.274,271.58 c 0.307,-0.033 0.294,-0.062 0.005,-0.1 -0.18,-0.025 -0.297,-0.069 -0.468,-0.096 -0.13,-0.021 -0.303,-0.029 -0.453,-0.043 -0.065,0.063 -0.237,0.133 -0.173,0.188 0.09,0.08 0.693,0.099 1.089,0.051 z"
           id="path119"
           inkscape:connector-curvature="0"
           style="fill:#cee3ce" /><path
           d="m 297.49,290.58 c 0.076,-0.017 0.151,-0.033 0.24,-0.053 -0.078,-0.029 -0.158,-0.061 -0.24,-0.092 -0.073,0.016 -0.223,0.035 -0.211,0.047 0.036,0.035 0.137,0.065 0.211,0.098 z"
           id="path121"
           inkscape:connector-curvature="0"
           style="fill:#cee3ce" /><path
           d="m 297.154,268.634 c 0.076,0.016 0.166,0.048 0.221,0.044 0.159,-0.006 0.303,-0.028 0.455,-0.044 -0.076,-0.017 -0.169,-0.049 -0.223,-0.046 -0.16,0.008 -0.304,0.029 -0.453,0.046 z"
           id="path123"
           inkscape:connector-curvature="0"
           style="fill:#cee3ce" /><path
           d="m 295.116,267.26 c -0.049,-0.011 -0.217,-0.011 -0.282,-10e-4 -0.224,0.034 -0.501,0.075 -0.095,0.126 0.055,0.006 0.256,-0.041 0.389,-0.063 0,-0.021 0.04,-0.051 -0.012,-0.062 z"
           id="path125"
           inkscape:connector-curvature="0"
           style="fill:#cee3ce" /><path
           d="m 294.454,266.75 c 0.074,0.016 0.165,0.048 0.221,0.045 0.159,-0.007 0.304,-0.029 0.453,-0.045 -0.073,-0.016 -0.149,-0.032 -0.239,-0.051 -0.142,0.017 -0.29,0.033 -0.435,0.051 z"
           id="path127"
           inkscape:connector-curvature="0"
           style="fill:#cee3ce" /><path
           d="m 295.44,267.256 c 0.092,-0.007 0.185,-0.025 0.228,-0.044 0.229,-0.099 0.149,-0.216 -0.143,-0.231 -0.074,0.008 -0.201,0.012 -0.215,0.023 -0.074,0.061 -0.107,0.125 -0.186,0.186 -0.087,0.068 0.008,0.091 0.316,0.066 z"
           id="path129"
           inkscape:connector-curvature="0"
           style="fill:#cee3ce" /><path
           d="m 293.78,266.315 c 0.076,0.017 0.165,0.048 0.221,0.046 0.159,-0.008 0.303,-0.029 0.454,-0.046 -0.075,-0.016 -0.168,-0.048 -0.222,-0.045 -0.16,0.007 -0.303,0.03 -0.453,0.045 z"
           id="path131"
           inkscape:connector-curvature="0"
           style="fill:#cee3ce" /><path
           d="m 293.78,268.054 c 0.076,0.017 0.165,0.048 0.221,0.046 0.159,-0.008 0.303,-0.029 0.454,-0.046 -0.075,-0.016 -0.151,-0.032 -0.24,-0.051 -0.142,0.017 -0.289,0.034 -0.435,0.051 z"
           id="path133"
           inkscape:connector-curvature="0"
           style="fill:#cee3ce" /><path
           d="m 293.104,277.76 c 0.075,0.016 0.151,0.032 0.24,0.052 0.142,-0.017 0.288,-0.034 0.436,-0.052 -0.076,-0.016 -0.167,-0.048 -0.224,-0.045 -0.157,0.007 -0.301,0.029 -0.452,0.045 z"
           id="path135"
           inkscape:connector-curvature="0"
           style="fill:#cee3ce" /><path
           d="m 294.79,268.851 c 0.076,-0.016 0.224,-0.036 0.211,-0.048 -0.034,-0.034 -0.135,-0.064 -0.211,-0.097 -0.076,0.016 -0.224,0.035 -0.211,0.048 0.037,0.034 0.135,0.064 0.211,0.097 z"
           id="path137"
           inkscape:connector-curvature="0"
           style="fill:#cee3ce" /><path
           d="m 293.562,288.959 c 0.339,-0.054 0.326,-0.197 -0.014,-0.239 -0.076,10e-4 -0.175,-0.004 -0.228,0.005 -0.337,0.053 -0.327,0.197 0.018,0.238 0.056,0.007 0.17,0.004 0.224,-0.004 z"
           id="path139"
           inkscape:connector-curvature="0"
           style="fill:#cee3ce" /><path
           d="m 297.154,316.224 c -0.068,-0.039 -0.137,-0.08 -0.205,-0.121 -0.152,0.014 -0.323,0.023 -0.452,0.043 -0.173,0.027 -0.313,0.064 -0.463,0.098 -0.076,0.016 -0.153,0.033 -0.231,0.049 0.172,0.023 0.329,0.064 0.511,0.07 0.582,0.015 0.804,-0.028 0.84,-0.139 z"
           id="path141"
           inkscape:connector-curvature="0"
           style="fill:#cee3ce" /><path
           d="m 293.995,267.809 c 0.054,0.009 0.15,0.004 0.228,0.005 0.338,-0.042 0.35,-0.186 0.014,-0.239 -0.053,-0.008 -0.167,-0.01 -0.224,-0.003 -0.346,0.039 -0.356,0.184 -0.018,0.237 z"
           id="path143"
           inkscape:connector-curvature="0"
           style="fill:#cee3ce" /><path
           d="m 293.905,291.063 c 0.036,0.033 0.136,0.064 0.21,0.097 0.077,-0.017 0.152,-0.032 0.241,-0.052 -0.077,-0.029 -0.158,-0.062 -0.241,-0.093 -0.075,0.016 -0.221,0.036 -0.21,0.048 z"
           id="path145"
           inkscape:connector-curvature="0"
           style="fill:#cee3ce" /><path
           d="m 294.136,272.031 c 0.16,0.025 1.053,-0.254 0.98,-0.324 -0.071,-0.071 -0.296,-0.123 -0.685,-0.103 -0.195,0.009 -0.479,0.022 -0.534,0.052 -0.115,0.062 -0.109,0.133 -0.165,0.221 0.11,0.046 0.185,0.121 0.404,0.154 z"
           id="path147"
           inkscape:connector-curvature="0"
           style="fill:#cee3ce" /><path
           d="m 294.115,277.253 c -0.074,0.017 -0.221,0.035 -0.21,0.048 0.036,0.033 0.136,0.064 0.21,0.097 0.077,-0.017 0.152,-0.032 0.241,-0.052 -0.077,-0.031 -0.158,-0.062 -0.241,-0.093 z"
           id="path149"
           inkscape:connector-curvature="0"
           style="fill:#cee3ce" /><path
           d="m 294.233,280.177 c -0.16,0.008 -0.303,0.029 -0.453,0.046 0.076,0.016 0.15,0.031 0.241,0.051 0.14,-0.017 0.286,-0.033 0.434,-0.051 -0.076,-0.017 -0.169,-0.049 -0.222,-0.046 z"
           id="path151"
           inkscape:connector-curvature="0"
           style="fill:#cee3ce" /><path
           d="m 294.339,286.719 c -0.029,-0.02 -0.145,-0.033 -0.225,-0.05 -0.111,0.06 -0.281,0.118 -0.312,0.18 -0.019,0.034 0.2,0.073 0.312,0.11 0.114,-0.037 0.229,-0.074 0.34,-0.11 -0.035,-0.044 -0.052,-0.089 -0.115,-0.13 z"
           id="path153"
           inkscape:connector-curvature="0"
           style="fill:#cee3ce" /><path
           d="m 294.79,283.627 c 0.076,-0.017 0.151,-0.033 0.241,-0.053 -0.079,-0.029 -0.159,-0.061 -0.241,-0.093 -0.076,0.016 -0.224,0.036 -0.211,0.048 0.037,0.034 0.135,0.065 0.211,0.098 z"
           id="path155"
           inkscape:connector-curvature="0"
           style="fill:#cee3ce" /><path
           d="m 295.001,276.48 c -0.034,-0.033 -0.135,-0.064 -0.211,-0.097 -0.076,0.016 -0.224,0.036 -0.211,0.048 0.037,0.033 0.135,0.064 0.211,0.097 0.076,-0.016 0.224,-0.036 0.211,-0.048 z"
           id="path157"
           inkscape:connector-curvature="0"
           style="fill:#cee3ce" /><path
           d="m 294.79,287.104 c -0.08,0.031 -0.161,0.063 -0.24,0.094 0.091,0.019 0.164,0.035 0.24,0.051 0.076,-0.032 0.177,-0.063 0.211,-0.098 0.013,-0.012 -0.135,-0.032 -0.211,-0.047 z"
           id="path159"
           inkscape:connector-curvature="0"
           style="fill:#cee3ce" /><path
           d="m 298.263,293.063 c -0.142,0.017 -0.289,0.034 -0.434,0.052 0.074,0.016 0.165,0.048 0.22,0.045 0.159,-0.008 0.304,-0.029 0.452,-0.045 -0.072,-0.016 -0.148,-0.033 -0.238,-0.052 z"
           id="path161"
           inkscape:connector-curvature="0"
           style="fill:#cee3ce" /><path
           d="m 292.429,312.671 c -0.146,-0.018 -0.294,-0.035 -0.437,-0.053 -0.089,0.02 -0.165,0.037 -0.238,0.053 0.149,0.016 0.295,0.037 0.453,0.045 0.057,0.002 0.147,-0.029 0.222,-0.045 z"
           id="path163"
           inkscape:connector-curvature="0"
           style="fill:#cee3ce" /><path
           d="m 291.38,284.743 c 0.051,0.005 0.099,0.013 0.152,0.015 0.055,0.004 0.146,-0.029 0.222,-0.045 -0.126,-0.015 -0.251,-0.03 -0.374,-0.044 0,0.024 0,0.049 0,0.074 z"
           id="path165"
           inkscape:connector-curvature="0"
           style="fill:#cee3ce" /><path
           d="m 298.263,279.594 c -0.015,-0.006 -0.166,-0.004 -0.217,0.004 -0.339,0.055 -0.342,0.208 0.022,0.232 0.109,0.008 0.337,-0.064 0.479,-0.094 -0.12,-0.062 -0.189,-0.103 -0.284,-0.142 z"
           id="path167"
           inkscape:connector-curvature="0"
           style="fill:#cee3ce" /><path
           d="m 298.164,296.374 c -0.074,0.017 -0.224,0.036 -0.21,0.048 0.036,0.034 0.136,0.064 0.21,0.098 0.076,-0.018 0.152,-0.033 0.241,-0.052 -0.079,-0.03 -0.159,-0.062 -0.241,-0.094 z"
           id="path169"
           inkscape:connector-curvature="0"
           style="fill:#cee3ce" /><path
           d="m 297.73,311.388 c -0.078,-0.031 -0.158,-0.063 -0.24,-0.094 -0.073,0.016 -0.223,0.035 -0.211,0.049 0.036,0.033 0.138,0.064 0.211,0.096 0.076,-0.016 0.151,-0.031 0.24,-0.051 z"
           id="path171"
           inkscape:connector-curvature="0"
           style="fill:#cee3ce" /><path
           d="m 298.26,297.266 c -0.293,-0.004 -0.684,-0.023 -0.859,0.009 -0.188,0.034 -0.188,0.119 -0.236,0.183 -0.011,0.014 0.135,0.033 0.206,0.051 0.161,0.004 1.093,-0.153 1.107,-0.195 0.004,-0.016 -0.136,-0.046 -0.218,-0.048 z"
           id="path173"
           inkscape:connector-curvature="0"
           style="fill:#cee3ce" /><path
           d="m 297.829,317.306 c -0.152,-0.016 -0.296,-0.037 -0.455,-0.045 -0.055,-0.002 -0.145,0.029 -0.221,0.045 0.146,0.018 0.293,0.035 0.436,0.051 0.088,-0.018 0.164,-0.035 0.24,-0.051 z"
           id="path175"
           inkscape:connector-curvature="0"
           style="fill:#cee3ce" /><path
           d="m 297.829,316.726 c -0.148,-0.018 -0.294,-0.033 -0.436,-0.051 -0.091,0.02 -0.164,0.035 -0.24,0.051 0.149,0.018 0.293,0.039 0.451,0.047 0.056,0.002 0.149,-0.029 0.225,-0.047 z"
           id="path177"
           inkscape:connector-curvature="0"
           style="fill:#cee3ce" /><path
           d="m 292.767,273.342 c -0.076,0.016 -0.224,0.035 -0.211,0.047 0.036,0.034 0.135,0.066 0.211,0.098 0.074,-0.016 0.149,-0.031 0.239,-0.051 -0.077,-0.032 -0.159,-0.063 -0.239,-0.094 z"
           id="path179"
           inkscape:connector-curvature="0"
           style="fill:#cee3ce" /><path
           d="m 305.124,265.616 c -0.035,-0.034 -0.135,-0.065 -0.21,-0.097 -0.077,0.016 -0.225,0.035 -0.212,0.047 0.037,0.033 0.135,0.064 0.212,0.098 0.076,-0.016 0.225,-0.037 0.21,-0.048 z"
           id="path181"
           inkscape:connector-curvature="0"
           style="fill:#cee3ce" /><path
           d="m 295.564,280.461 c -0.142,0.016 -0.289,0.033 -0.436,0.051 0.074,0.016 0.167,0.048 0.222,0.046 0.16,-0.008 0.304,-0.03 0.452,-0.046 -0.073,-0.016 -0.148,-0.033 -0.238,-0.051 z"
           id="path183"
           inkscape:connector-curvature="0"
           style="fill:#cee3ce" /><path
           d="m 294.214,291.328 c -0.014,-0.006 -0.165,-0.005 -0.219,0.004 -0.338,0.054 -0.341,0.208 0.025,0.232 0.107,0.008 0.335,-0.065 0.479,-0.096 -0.122,-0.062 -0.189,-0.102 -0.285,-0.14 z"
           id="path185"
           inkscape:connector-curvature="0"
           style="fill:#cee3ce" /><path
           d="m 295.466,298.546 c 0.081,-0.031 0.161,-0.063 0.241,-0.092 -0.092,-0.02 -0.165,-0.035 -0.241,-0.053 -0.075,0.033 -0.174,0.063 -0.212,0.098 -0.012,0.012 0.137,0.032 0.212,0.047 z"
           id="path187"
           inkscape:connector-curvature="0"
           style="fill:#cee3ce" /><path
           d="m 294.115,294.346 c 0.077,-0.016 0.152,-0.032 0.241,-0.051 -0.077,-0.031 -0.158,-0.063 -0.241,-0.094 -0.074,0.017 -0.221,0.036 -0.21,0.048 0.036,0.034 0.135,0.064 0.21,0.097 z"
           id="path189"
           inkscape:connector-curvature="0"
           style="fill:#cee3ce" /><path
           d="m 298.725,282.93 c -0.056,-0.003 -0.147,0.029 -0.224,0.045 0.148,0.018 0.295,0.035 0.437,0.052 0.09,-0.02 0.164,-0.036 0.239,-0.052 -0.149,-0.016 -0.293,-0.038 -0.452,-0.045 z"
           id="path191"
           inkscape:connector-curvature="0"
           style="fill:#cee3ce" /><path
           d="m 291.321,300.162 c -0.001,0 -0.001,0 0,0 -0.001,0.025 -0.001,0.051 -0.002,0.074 0.071,0.008 0.139,0.019 0.214,0.021 0.055,0.004 0.146,-0.029 0.222,-0.045 -0.147,-0.015 -0.294,-0.033 -0.434,-0.05 z"
           id="path193"
           inkscape:connector-curvature="0"
           style="fill:#cee3ce" /><path
           d="m 299.081,316.748 c -0.08,-0.029 -0.159,-0.061 -0.241,-0.094 -0.075,0.016 -0.225,0.037 -0.211,0.049 0.035,0.033 0.136,0.064 0.211,0.098 0.076,-0.018 0.15,-0.034 0.241,-0.053 z"
           id="path195"
           inkscape:connector-curvature="0"
           style="fill:#cee3ce" /><path
           d="m 299.051,294.009 c -0.036,-0.034 -0.135,-0.065 -0.211,-0.097 -0.075,0.016 -0.149,0.031 -0.24,0.051 0.079,0.031 0.158,0.063 0.24,0.094 0.076,-0.016 0.225,-0.036 0.211,-0.048 z"
           id="path197"
           inkscape:connector-curvature="0"
           style="fill:#cee3ce" /><path
           d="m 291.978,297.994 c -0.058,-0.002 -0.15,0.029 -0.224,0.046 0.146,0.017 0.293,0.034 0.435,0.052 0.091,-0.02 0.165,-0.035 0.24,-0.052 -0.149,-0.017 -0.294,-0.038 -0.451,-0.046 z"
           id="path199"
           inkscape:connector-curvature="0"
           style="fill:#cee3ce" /><path
           d="m 292.092,273.631 c -0.076,0.017 -0.15,0.033 -0.241,0.051 0.08,0.031 0.159,0.063 0.241,0.094 0.075,-0.016 0.224,-0.035 0.211,-0.047 -0.037,-0.036 -0.136,-0.065 -0.211,-0.098 z"
           id="path201"
           inkscape:connector-curvature="0"
           style="fill:#cee3ce" /><path
           d="m 291.206,313.515 c 0.036,0.035 0.134,0.064 0.21,0.098 0.076,-0.016 0.152,-0.033 0.24,-0.053 -0.079,-0.029 -0.157,-0.061 -0.24,-0.092 -0.076,0.016 -0.224,0.035 -0.21,0.047 z"
           id="path203"
           inkscape:connector-curvature="0"
           style="fill:#cee3ce" /><path
           d="m 312.703,269.131 c 0.006,0.048 0.233,0.095 0.365,0.143 0.096,-0.037 0.187,-0.074 0.28,-0.111 0,-0.021 0.036,-0.049 -0.008,-0.065 -0.096,-0.036 -0.215,-0.093 -0.355,-0.097 -0.623,-0.022 -0.287,0.089 -0.282,0.13 z"
           id="path205"
           inkscape:connector-curvature="0"
           style="fill:#cee3ce" /><path
           d="m 291.881,295.553 c 0.033,0.034 0.135,0.064 0.211,0.097 0.075,-0.016 0.224,-0.035 0.211,-0.048 -0.037,-0.033 -0.136,-0.064 -0.211,-0.097 -0.076,0.016 -0.224,0.036 -0.211,0.048 z"
           id="path207"
           inkscape:connector-curvature="0"
           style="fill:#cee3ce" /><path
           d="m 292.429,301.517 c -0.149,-0.018 -0.294,-0.037 -0.451,-0.045 -0.058,-0.004 -0.15,0.027 -0.224,0.045 0.146,0.016 0.293,0.035 0.435,0.051 0.091,-0.02 0.165,-0.035 0.24,-0.051 z"
           id="path209"
           inkscape:connector-curvature="0"
           style="fill:#cee3ce" /><path
           d="m 311.325,266.895 c 0.073,0.017 0.165,0.049 0.221,0.046 0.157,-0.007 0.305,-0.029 0.453,-0.046 -0.074,-0.016 -0.148,-0.031 -0.238,-0.051 -0.142,0.016 -0.291,0.034 -0.436,0.051 z"
           id="path211"
           inkscape:connector-curvature="0"
           style="fill:#cee3ce" /><path
           d="m 292.199,296.107 c -0.078,10e-4 -0.177,-0.004 -0.228,0.004 -0.338,0.055 -0.328,0.199 0.016,0.238 0.056,0.008 0.172,0.006 0.224,-0.003 0.34,-0.053 0.326,-0.196 -0.012,-0.239 z"
           id="path213"
           inkscape:connector-curvature="0"
           style="fill:#cee3ce" /><path
           d="m 292.207,295.912 c 0.057,0.003 0.146,-0.029 0.222,-0.045 -0.146,-0.018 -0.294,-0.035 -0.437,-0.051 -0.089,0.019 -0.165,0.034 -0.238,0.051 0.15,0.016 0.295,0.037 0.453,0.045 z"
           id="path215"
           inkscape:connector-curvature="0"
           style="fill:#cee3ce" /><path
           d="m 309.309,271.231 c 0.106,0.027 0.25,0.049 0.397,0.065 0.025,0.004 0.137,-0.027 0.214,-0.044 -0.106,-0.028 -0.196,-0.061 -0.327,-0.083 -0.06,-0.01 -0.231,-0.01 -0.281,0.001 -0.051,0.012 -0.053,0.049 -0.003,0.061 z"
           id="path217"
           inkscape:connector-curvature="0"
           style="fill:#cee3ce" /><path
           d="m 309.849,265.762 c -0.035,-0.035 -0.137,-0.066 -0.211,-0.098 -0.075,0.016 -0.15,0.031 -0.24,0.052 0.077,0.03 0.158,0.062 0.24,0.093 0.074,-0.016 0.223,-0.036 0.211,-0.047 z"
           id="path219"
           inkscape:connector-curvature="0"
           style="fill:#cee3ce" /><path
           d="m 307.951,270.734 c -0.109,0.225 0.283,0.377 1.348,0.434 0.108,-0.225 -0.284,-0.377 -1.348,-0.434 z"
           id="path221"
           inkscape:connector-curvature="0"
           style="fill:#cee3ce" /><path
           d="m 307.213,270.447 c -0.177,0 -0.355,0.031 -0.521,0.053 -0.021,0.002 0.004,0.034 0.05,0.045 0.276,0.068 0.563,0.133 0.808,0.189 0.19,0 0.336,0.008 0.389,-0.003 0.052,-0.011 0.012,-0.042 0.013,-0.065 0.008,-0.194 -0.064,-0.22 -0.739,-0.219 z"
           id="path223"
           inkscape:connector-curvature="0"
           style="fill:#cee3ce" /><path
           d="m 301.734,315.64 c 0.181,-0.008 0.449,-0.002 0.586,-0.027 0.475,-0.088 -0.132,-0.109 -0.276,-0.148 -0.601,-0.162 -1.577,-0.264 -1.665,-0.506 -0.004,-0.012 -0.169,-0.035 -0.224,-0.031 -0.095,0.008 -0.217,0.029 -0.232,0.049 -0.156,0.168 -0.209,0.332 0.586,0.443 -0.158,0.212 0.42,0.242 1.225,0.22 z"
           id="path225"
           inkscape:connector-curvature="0"
           style="fill:#cee3ce" /><path
           d="m 300.744,316.103 c -0.339,0.053 -0.329,0.197 0.018,0.238 0.055,0.006 0.171,0.004 0.224,-0.004 0.337,-0.055 0.324,-0.197 -0.014,-0.24 -0.077,0.002 -0.175,-0.004 -0.228,0.006 z"
           id="path227"
           inkscape:connector-curvature="0"
           style="fill:#cee3ce" /><path
           d="m 299.275,292.949 c 0.078,0.03 0.159,0.063 0.241,0.094 0.073,-0.017 0.223,-0.036 0.21,-0.048 -0.036,-0.034 -0.137,-0.065 -0.21,-0.098 -0.076,0.017 -0.152,0.033 -0.241,0.052 z"
           id="path229"
           inkscape:connector-curvature="0"
           style="fill:#cee3ce" /><path
           d="m 312.663,268.636 c -0.007,-0.019 -0.189,-0.052 -0.211,-0.049 -0.249,0.032 -0.501,0.063 -0.713,0.104 -0.21,0.041 -0.556,0.086 -0.114,0.152 0.088,0.014 0.152,0.035 0.24,0.05 0.246,0.042 0.397,0.132 0.798,0.096 0.078,-0.007 0.01,-0.09 0.01,-0.138 0,-0.072 0.016,-0.144 -0.01,-0.215 z"
           id="path231"
           inkscape:connector-curvature="0"
           style="fill:#cee3ce" /><path
           d="m 303.467,294.223 c -0.09,0.02 -0.165,0.035 -0.241,0.051 0.151,0.017 0.295,0.038 0.454,0.045 0.055,0.003 0.146,-0.028 0.222,-0.045 -0.147,-0.018 -0.294,-0.036 -0.435,-0.051 z"
           id="path233"
           inkscape:connector-curvature="0"
           style="fill:#cee3ce" /><path
           d="m 310.215,269.306 c -0.089,0.021 -0.165,0.036 -0.24,0.052 0.151,0.017 0.296,0.038 0.455,0.046 0.054,0.003 0.144,-0.029 0.221,-0.046 -0.147,-0.017 -0.294,-0.035 -0.436,-0.052 z"
           id="path235"
           inkscape:connector-curvature="0"
           style="fill:#cee3ce" /><path
           d="m 300.305,290.027 c -0.157,0.008 -0.302,0.029 -0.452,0.045 0.074,0.016 0.15,0.033 0.239,0.053 0.143,-0.018 0.288,-0.035 0.437,-0.053 -0.078,-0.015 -0.168,-0.048 -0.224,-0.045 z"
           id="path237"
           inkscape:connector-curvature="0"
           style="fill:#cee3ce" /><path
           d="m 309.523,289.538 c 0.158,-0.007 0.303,-0.028 0.452,-0.045 -0.076,-0.016 -0.165,-0.048 -0.221,-0.046 -0.161,0.008 -0.304,0.03 -0.455,0.046 0.076,0.017 0.167,0.048 0.224,0.045 z"
           id="path239"
           inkscape:connector-curvature="0"
           style="fill:#cee3ce" /><path
           d="m 311.839,271.316 c -0.185,0.008 -0.344,0.045 -0.514,0.069 0.066,0.01 0.135,0.016 0.2,0.027 0.132,-0.028 0.249,-0.061 0.365,-0.094 -0.017,0 -0.035,-0.002 -0.051,-0.002 z"
           id="path241"
           inkscape:connector-curvature="0"
           style="fill:#cee3ce" /><path
           d="m 311.421,270.828 c 0.092,0.019 0.164,0.034 0.24,0.051 0.076,-0.032 0.176,-0.063 0.211,-0.098 0.014,-0.012 -0.135,-0.031 -0.211,-0.047 -0.081,0.032 -0.161,0.063 -0.24,0.094 z"
           id="path243"
           inkscape:connector-curvature="0"
           style="fill:#cee3ce" /><path
           d="m 300.189,295.07 c -0.073,0.032 -0.176,0.063 -0.21,0.098 -0.012,0.012 0.137,0.031 0.21,0.047 0.064,-0.024 0.127,-0.049 0.188,-0.073 l 0,-0.03 c -0.065,-0.015 -0.128,-0.029 -0.188,-0.042 z"
           id="path245"
           inkscape:connector-curvature="0"
           style="fill:#cee3ce" /><path
           d="m 293.104,289.493 c -0.075,-0.016 -0.165,-0.048 -0.222,-0.046 -0.159,0.008 -0.303,0.03 -0.453,0.046 0.074,0.017 0.15,0.032 0.239,0.052 0.142,-0.017 0.289,-0.034 0.436,-0.052 z"
           id="path247"
           inkscape:connector-curvature="0"
           style="fill:#cee3ce" /></g><path
         d="m 296.961,315.134 c 0.065,0.018 0.132,0.033 0.195,0.051 0.04,-0.02 0.074,-0.035 0.107,-0.051 -0.067,-0.018 -0.133,-0.039 -0.203,-0.047 -0.025,-0.002 -0.067,0.03 -0.099,0.047 z m 0.607,-13.146 c -10e-4,-0.211 -0.21,-0.348 -0.611,-0.398 -0.126,-0.018 -0.34,0.059 -0.295,0.109 0.143,0.158 0.295,0.316 0.476,0.465 0.017,0.016 0.265,-0.018 0.377,-0.049 0.052,-0.016 0.037,-0.084 0.053,-0.127 z m -5.162,-27.56 c -0.033,-0.016 -0.075,-0.048 -0.101,-0.045 -0.071,0.007 -0.136,0.029 -0.202,0.045 0.033,0.017 0.074,0.049 0.1,0.046 0.07,-0.009 0.135,-0.03 0.203,-0.046 z m 0.607,-0.58 c -0.067,-0.016 -0.133,-0.037 -0.203,-0.045 -0.026,-0.003 -0.067,0.029 -0.102,0.045 0.067,0.018 0.133,0.035 0.197,0.053 0.041,-0.02 0.074,-0.038 0.108,-0.053 z m -0.508,25.107 c 0.072,-0.008 0.137,-0.029 0.203,-0.045 -0.032,-0.018 -0.073,-0.049 -0.1,-0.047 -0.07,0.008 -0.136,0.029 -0.203,0.047 0.034,0.015 0.075,0.047 0.1,0.045 z m 0.712,-30.221 c -0.072,0.007 -0.138,0.027 -0.204,0.044 0.034,0.017 0.075,0.048 0.1,0.046 0.072,-0.008 0.137,-0.029 0.204,-0.046 -0.035,-0.016 -0.075,-0.048 -0.1,-0.044 z m 0.378,13.818 c -0.047,-0.027 -0.088,-0.06 -0.146,-0.082 -0.026,-0.011 -0.104,-0.011 -0.128,10e-4 -0.021,0.01 -0.021,0.047 0,0.061 0.048,0.026 0.112,0.049 0.179,0.064 0.011,0.004 0.06,-0.027 0.095,-0.044 z m -0.019,-9.697 c -0.034,-0.03 -0.071,-0.063 -0.108,-0.094 -0.034,0.016 -0.1,0.036 -0.095,0.048 0.017,0.034 0.061,0.065 0.095,0.097 0.034,-0.015 0.067,-0.031 0.108,-0.051 z m -0.108,4.252 c 0.034,-0.031 0.08,-0.063 0.095,-0.098 0.005,-0.012 -0.061,-0.031 -0.095,-0.047 -0.035,0.031 -0.072,0.063 -0.107,0.094 0.041,0.02 0.073,0.036 0.107,0.051 z m -0.963,-8.229 c -0.025,-0.003 -0.066,0.028 -0.1,0.045 0.065,0.018 0.133,0.035 0.196,0.052 0.04,-0.02 0.074,-0.035 0.106,-0.052 -0.065,-0.017 -0.13,-0.038 -0.202,-0.045 z m 5.266,5.939 c -0.07,0.008 -0.136,0.028 -0.203,0.046 0.033,0.016 0.075,0.047 0.101,0.045 0.071,-0.008 0.137,-0.029 0.202,-0.045 -0.034,-0.017 -0.075,-0.049 -0.1,-0.046 z m -4.721,7.568 c -0.015,0.012 0.084,0.055 0.131,0.083 0.046,0 0.107,0.009 0.131,-0.003 0.022,-0.01 0.022,-0.047 0.003,-0.061 -0.072,-0.047 -0.159,-0.107 -0.265,-0.019 z m 4.214,-8.32 c 0.102,-0.03 0.25,-0.052 0.292,-0.097 0.051,-0.055 0.012,-0.127 0.012,-0.193 -0.101,0.031 -0.251,0.053 -0.291,0.098 -0.051,0.053 -0.013,0.127 -0.013,0.192 z m 0.505,-0.403 c -0.183,-0.021 -0.212,0.043 -0.201,0.113 0.102,0 0.202,0 0.303,0 -0.033,-0.039 -0.051,-0.109 -0.102,-0.113 z m -0.505,-6.043 c -0.065,-0.017 -0.133,-0.034 -0.196,-0.051 -0.039,0.02 -0.074,0.035 -0.106,0.051 0.067,0.017 0.132,0.037 0.203,0.045 0.025,0.003 0.066,-0.028 0.099,-0.045 z m -0.175,6.574 c 0.024,0.008 0.115,-0.041 0.175,-0.063 0,-0.021 0.018,-0.053 -0.005,-0.063 -0.021,-0.012 -0.099,-0.012 -0.128,-0.001 -0.1,0.035 -0.225,0.077 -0.042,0.127 z m 0.682,-5.895 c -0.07,0.009 -0.136,0.029 -0.203,0.046 0.033,0.016 0.075,0.048 0.101,0.045 0.071,-0.008 0.137,-0.029 0.202,-0.045 -0.034,-0.017 -0.075,-0.048 -0.1,-0.046 z m -0.103,7.244 c -0.025,-0.004 -0.067,0.028 -0.101,0.045 0.066,0.017 0.132,0.034 0.196,0.052 0.041,-0.02 0.073,-0.036 0.106,-0.052 -0.064,-0.017 -0.13,-0.038 -0.201,-0.045 z m 1.114,22.571 c 0.211,0.003 0.312,-0.046 0.303,-0.146 -0.209,-0.002 -0.31,0.045 -0.303,0.146 z m -0.906,-24.335 c -0.022,0.011 -0.023,0.048 -10e-4,0.061 0.047,0.027 0.113,0.049 0.179,0.065 0.012,0.004 0.062,-0.027 0.096,-0.043 -0.046,-0.029 -0.088,-0.062 -0.146,-0.084 -0.027,-0.009 -0.105,-0.009 -0.128,0.001 z m 1.154,1.11 c -0.017,-0.034 -0.062,-0.065 -0.095,-0.097 -0.035,0.016 -0.101,0.035 -0.096,0.047 0.017,0.033 0.061,0.064 0.096,0.098 0.033,-0.017 0.099,-0.038 0.095,-0.048 z m -0.148,29.192 c -0.023,-0.004 -0.066,0.027 -0.1,0.045 0.065,0.018 0.132,0.033 0.195,0.051 0.042,-0.02 0.073,-0.035 0.107,-0.051 -0.064,-0.018 -0.13,-0.04 -0.202,-0.045 z m 0.337,-29.871 c 0.057,-0.023 0.102,-0.055 0.138,-0.086 0.006,-0.005 -0.059,-0.029 -0.095,-0.046 -0.058,0.023 -0.126,0.043 -0.171,0.07 -0.022,0.013 -0.022,0.05 0,0.061 0.022,0.011 0.102,0.011 0.128,10e-4 z m -0.137,0.004 c -0.023,-0.011 -0.099,-0.012 -0.13,0 -0.1,0.033 -0.225,0.074 -0.041,0.125 0.023,0.008 0.115,-0.041 0.174,-0.063 0,-0.021 0.019,-0.05 -0.003,-0.062 z m 0.003,-8.767 c -0.034,-0.017 -0.074,-0.048 -0.099,-0.045 -0.072,0.007 -0.137,0.028 -0.204,0.045 0.033,0.016 0.067,0.032 0.108,0.052 0.064,-0.018 0.13,-0.034 0.195,-0.052 z m -1.541,45.542 c 0.051,0.047 0.114,0.105 0.176,0.162 0.05,-0.061 0.126,-0.119 0.141,-0.18 0.008,-0.035 -0.091,-0.074 -0.141,-0.109 -0.052,0.035 -0.102,0.072 -0.176,0.127 z m -3.468,-15.193 c 0.036,-0.031 0.072,-0.063 0.106,-0.094 -0.04,-0.02 -0.073,-0.035 -0.106,-0.052 -0.035,0.032 -0.08,0.063 -0.095,0.098 -0.006,0.012 0.06,0.032 0.095,0.048 z m -0.357,12.775 c -0.152,0.055 -0.154,0.207 0.01,0.232 0.05,0.008 0.151,-0.064 0.216,-0.094 -0.055,-0.064 -0.087,-0.105 -0.128,-0.143 -0.007,-0.005 -0.076,-0.003 -0.098,0.005 z m 5.216,-3.504 c -0.035,0.031 -0.079,0.063 -0.096,0.098 -0.005,0.012 0.061,0.031 0.096,0.047 0.035,-0.031 0.073,-0.063 0.107,-0.094 -0.041,-0.02 -0.074,-0.035 -0.107,-0.051 z m -3.854,-27.572 c -0.016,-0.033 -0.062,-0.064 -0.096,-0.097 -0.032,0.017 -0.066,0.032 -0.106,0.052 0.034,0.029 0.07,0.062 0.106,0.094 0.035,-0.018 0.102,-0.037 0.096,-0.049 z m -1.764,-2.639 c 0,-0.021 0.012,-0.047 -0.002,-0.068 -0.026,-0.041 -0.066,-0.079 -0.101,-0.118 -0.069,0.017 -0.147,0.028 -0.203,0.052 -0.105,0.045 -0.295,0.127 -0.276,0.141 0.104,0.076 0.255,0.139 0.401,0.198 0.013,0.005 0.15,-0.036 0.173,-0.066 0.032,-0.041 0.008,-0.092 0.008,-0.139 z m 0.151,-3.832 c 0.034,-0.016 0.1,-0.035 0.095,-0.047 -0.015,-0.035 -0.061,-0.066 -0.095,-0.098 -0.034,0.016 -0.1,0.035 -0.095,0.047 0.017,0.036 0.061,0.066 0.095,0.098 z m -0.049,0.99 c 0.26,-0.005 0.563,-0.208 0.502,-0.337 -0.01,-0.02 -0.065,-0.033 -0.102,-0.049 -0.258,0.006 -0.561,0.209 -0.5,0.338 0.011,0.018 0.067,0.048 0.1,0.048 z m 4.301,-6.204 c -0.038,0.031 -0.074,0.063 -0.107,0.094 0.039,0.019 0.073,0.035 0.107,0.051 0.033,-0.032 0.078,-0.063 0.095,-0.097 0.005,-0.012 -0.062,-0.033 -0.095,-0.048 z m -1.216,7.387 c 0.035,-0.032 0.08,-0.063 0.095,-0.098 0.007,-0.011 -0.06,-0.031 -0.095,-0.047 -0.035,0.031 -0.072,0.063 -0.107,0.093 0.041,0.02 0.074,0.037 0.107,0.052 z m 0.457,43.677 c -0.033,-0.018 -0.075,-0.049 -0.101,-0.047 -0.07,0.008 -0.137,0.029 -0.204,0.047 0.034,0.016 0.067,0.031 0.108,0.051 0.065,-0.018 0.13,-0.034 0.197,-0.051 z m -2.369,-12.43 c 0.132,0.014 0.291,0.055 0.391,0.033 0.095,-0.02 0.128,-0.105 0.181,-0.152 -0.075,-0.055 -0.126,-0.092 -0.178,-0.127 -0.033,0.016 -0.068,0.031 -0.102,0.049 -0.068,0.033 -0.146,0.063 -0.204,0.1 -0.043,0.027 -0.06,0.064 -0.088,0.097 z m 2.269,-9.4 c 0.025,0.003 0.067,-0.029 0.101,-0.045 -0.067,-0.018 -0.132,-0.035 -0.196,-0.053 -0.041,0.021 -0.074,0.037 -0.108,0.053 0.066,0.016 0.132,0.038 0.203,0.045 z m -1.223,-24.765 c 0.04,-0.02 0.074,-0.035 0.107,-0.052 -0.067,-0.016 -0.132,-0.037 -0.203,-0.045 -0.024,-0.003 -0.066,0.029 -0.101,0.045 0.068,0.018 0.134,0.036 0.197,0.052 z m 0.563,10.886 c 0.033,-0.017 0.067,-0.033 0.107,-0.051 -0.033,-0.031 -0.07,-0.063 -0.107,-0.094 -0.034,0.016 -0.101,0.035 -0.096,0.047 0.017,0.036 0.062,0.065 0.096,0.098 z m 0.044,-12.147 c -0.064,0.017 -0.13,0.034 -0.196,0.052 0.034,0.016 0.075,0.047 0.101,0.045 0.072,-0.008 0.136,-0.029 0.203,-0.045 -0.034,-0.017 -0.068,-0.034 -0.108,-0.052 z m -2.118,16.955 c -0.069,0.007 -0.135,0.028 -0.203,0.046 0.032,0.016 0.075,0.047 0.1,0.045 0.071,-0.008 0.136,-0.029 0.203,-0.045 -0.032,-0.018 -0.074,-0.049 -0.1,-0.046 z m -2.633,11.52 c -0.035,-0.015 -0.088,-0.046 -0.15,-0.071 0,0.077 -10e-4,0.155 -10e-4,0.232 0.089,-0.026 0.151,-0.071 0.151,-0.161 z m 0.305,0.404 c -0.068,-0.016 -0.134,-0.038 -0.204,-0.046 -0.026,-0.002 -0.066,0.03 -0.101,0.046 0.067,0.017 0.132,0.034 0.197,0.052 0.04,-0.02 0.073,-0.036 0.108,-0.052 z m 0.003,-13.609 c -0.021,0.014 -0.003,0.043 -0.003,0.063 0.044,0 0.104,0.009 0.132,-0.001 0.057,-0.023 0.103,-0.055 0.138,-0.086 0.006,-0.006 -0.058,-0.029 -0.093,-0.047 -0.059,0.024 -0.127,0.044 -0.174,0.071 z m -0.009,0.067 c -0.022,-0.011 -0.098,-0.012 -0.129,-0.002 -0.099,0.034 -0.224,0.075 -0.04,0.127 0.023,0.007 0.113,-0.041 0.175,-0.063 0,-0.021 0.018,-0.053 -0.006,-0.062 z m 0.113,-8.862 c -0.156,-0.047 -0.313,-0.092 -0.468,-0.138 -0.009,0.194 -0.017,0.438 -0.023,0.729 0.02,0.003 0.043,0.011 0.062,0.011 0.304,0.011 0.387,-0.131 0.575,-0.2 0.007,-0.003 -0.082,-0.062 -0.113,-0.097 -0.028,-0.032 -0.081,-0.088 -0.059,-0.098 0.163,-0.068 0.276,-0.13 0.026,-0.207 z m 6.976,36.791 c 0.072,-0.01 0.138,-0.029 0.203,-0.047 -0.034,-0.016 -0.074,-0.047 -0.099,-0.045 -0.072,0.008 -0.137,0.029 -0.204,0.045 0.034,0.017 0.077,0.049 0.1,0.047 z m 12.199,4.226 c 0.033,-0.016 0.1,-0.035 0.095,-0.047 -0.017,-0.035 -0.062,-0.066 -0.095,-0.098 -0.035,0.016 -0.101,0.035 -0.096,0.047 0.015,0.036 0.061,0.067 0.096,0.098 z m -6.216,-48.347 c -0.001,0.035 0.092,0.072 0.143,0.108 0.051,-0.036 0.146,-0.073 0.143,-0.108 -0.004,-0.063 -0.067,-0.124 -0.143,-0.245 -0.076,0.122 -0.14,0.183 -0.143,0.245 z m 0.035,-2.736 c 0.034,0.03 0.071,0.062 0.107,0.094 0.033,-0.017 0.101,-0.037 0.096,-0.049 -0.015,-0.029 -0.052,-0.056 -0.083,-0.084 l -0.039,0 c -0.026,0.012 -0.051,0.024 -0.081,0.039 z m 0.367,5.568 c 0.049,0.008 0.151,-0.064 0.217,-0.095 -0.055,-0.063 -0.086,-0.104 -0.129,-0.142 -0.005,-0.006 -0.074,-0.005 -0.099,0.004 -0.151,0.055 -0.153,0.209 0.011,0.233 z m -1.521,0.295 c 0.025,0.007 0.077,0.004 0.101,-0.003 0.151,-0.054 0.146,-0.197 -0.007,-0.239 -0.033,10e-4 -0.077,-0.004 -0.102,0.004 -0.151,0.054 -0.147,0.199 0.008,0.238 z m 8.454,-1.956 c 0.015,0.034 0.061,0.065 0.095,0.098 0.033,-0.017 0.067,-0.032 0.107,-0.052 -0.034,-0.031 -0.07,-0.063 -0.107,-0.094 -0.034,0.016 -0.1,0.035 -0.095,0.048 z m -7.844,0.553 c -0.041,0.019 -0.074,0.036 -0.106,0.052 0.065,0.016 0.13,0.037 0.203,0.045 0.025,0.003 0.066,-0.029 0.1,-0.045 -0.066,-0.018 -0.133,-0.036 -0.197,-0.052 z m -0.051,0.461 c 0.017,0.034 0.06,0.065 0.095,0.098 0.034,-0.017 0.068,-0.032 0.108,-0.052 -0.034,-0.03 -0.07,-0.062 -0.108,-0.094 -0.035,0.016 -0.101,0.035 -0.095,0.048 z m 3.24,-2.314 c -0.04,-0.02 -0.074,-0.035 -0.108,-0.052 -0.035,0.032 -0.078,0.063 -0.096,0.097 -0.006,0.012 0.061,0.033 0.096,0.049 0.037,-0.032 0.072,-0.064 0.108,-0.094 z m 5.032,44.865 c -0.086,0.035 -0.174,0.07 -0.118,0.133 0.014,0.016 0.15,0.006 0.252,0.004 -0.046,-0.045 -0.083,-0.096 -0.134,-0.137 z m -1.245,-45.035 c -0.025,-0.002 -0.066,0.029 -0.101,0.045 0.066,0.018 0.132,0.035 0.196,0.053 0.041,-0.02 0.073,-0.035 0.108,-0.053 -0.066,-0.015 -0.131,-0.037 -0.203,-0.045 z m 0.94,45.297 c 0.024,0.008 0.115,-0.039 0.175,-0.063 0,-0.021 0,-0.043 0,-0.064 -0.045,0 -0.103,-0.008 -0.133,0.002 -0.1,0.033 -0.225,0.074 -0.042,0.125 z m 0.478,1.539 c -0.034,-0.016 -0.073,-0.047 -0.099,-0.045 -0.073,0.008 -0.137,0.029 -0.205,0.045 0.033,0.016 0.068,0.033 0.107,0.051 0.065,-0.016 0.132,-0.034 0.197,-0.051 z m -5.365,-43.068 c -0.025,-0.004 -0.066,0.029 -0.101,0.045 0.037,0.01 0.073,0.019 0.11,0.028 0.043,0 0.092,0 0.136,-0.001 0.019,-0.009 0.04,-0.019 0.058,-0.027 -0.067,-0.016 -0.132,-0.038 -0.203,-0.045 z m 2.429,-6.084 c -0.025,-0.003 -0.066,0.028 -0.1,0.045 0.065,0.018 0.132,0.034 0.195,0.051 0.04,-0.02 0.074,-0.035 0.108,-0.051 -0.068,-0.017 -0.132,-0.038 -0.203,-0.045 z m -10.021,0 c -0.025,-0.003 -0.066,0.028 -0.1,0.045 0.065,0.018 0.132,0.034 0.195,0.051 0.04,-0.02 0.075,-0.035 0.108,-0.051 -0.067,-0.017 -0.132,-0.038 -0.203,-0.045 z m -1.317,11.642 c -0.07,-0.048 -0.158,-0.107 -0.265,-0.021 -0.014,0.012 0.086,0.055 0.132,0.084 0.046,0 0.109,0.009 0.13,-0.003 0.022,-0.01 0.024,-0.046 0.003,-0.06 z m 0.102,4.961 c 0.071,-0.007 0.137,-0.029 0.204,-0.045 -0.035,-0.016 -0.074,-0.049 -0.1,-0.045 -0.072,0.008 -0.137,0.029 -0.205,0.045 0.035,0.016 0.077,0.048 0.101,0.045 z m 0.033,-4.896 c -0.027,-0.01 -0.104,-0.01 -0.126,10e-4 -0.023,0.011 -0.025,0.048 -0.002,0.062 0.048,0.026 0.113,0.047 0.179,0.064 0.012,0.004 0.061,-0.027 0.096,-0.044 -0.048,-0.028 -0.088,-0.061 -0.147,-0.083 z m -0.392,30.369 c 0.04,0.018 0.074,0.035 0.107,0.051 0.034,-0.033 0.08,-0.063 0.095,-0.098 0.006,-0.012 -0.061,-0.031 -0.095,-0.047 -0.036,0.031 -0.071,0.062 -0.107,0.094 z m 0.085,9.884 c 0.024,0.006 0.115,-0.041 0.174,-0.064 0,-0.021 0.018,-0.051 -0.005,-0.063 -0.021,-0.01 -0.098,-0.01 -0.126,0 -0.102,0.034 -0.227,0.075 -0.043,0.127 z m 0.307,-0.131 c 0.058,-0.021 0.103,-0.053 0.138,-0.084 0.008,-0.006 -0.058,-0.029 -0.092,-0.047 -0.06,0.023 -0.128,0.043 -0.174,0.07 -0.023,0.014 -0.021,0.049 0.002,0.061 0.021,0.01 0.1,0.012 0.126,0 z m 0.167,-19.261 c -0.021,-0.011 -0.099,-0.012 -0.128,-0.001 -0.101,0.034 -0.225,0.075 -0.043,0.125 0.025,0.006 0.115,-0.041 0.176,-0.063 -0.001,-0.02 0.016,-0.051 -0.005,-0.061 z m -0.148,7.965 c -0.033,0.016 -0.1,0.037 -0.095,0.047 0.016,0.035 0.062,0.066 0.095,0.098 0.034,-0.016 0.067,-0.031 0.108,-0.051 -0.035,-0.032 -0.07,-0.063 -0.108,-0.094 z m 2.483,-37.346 c -0.072,0.007 -0.137,0.027 -0.205,0.044 0.035,0.017 0.075,0.048 0.1,0.046 0.072,-0.008 0.137,-0.029 0.205,-0.046 -0.035,-0.016 -0.077,-0.048 -0.1,-0.044 z m -0.855,29.906 c -0.037,-0.029 -0.072,-0.063 -0.109,-0.094 -0.034,0.016 -0.101,0.037 -0.096,0.047 0.018,0.035 0.062,0.066 0.096,0.098 0.034,-0.016 0.067,-0.031 0.109,-0.051 z m 2.833,-29.837 c -0.007,0.012 0.06,0.032 0.094,0.048 0.037,-0.031 0.074,-0.063 0.109,-0.093 -0.042,-0.02 -0.074,-0.036 -0.109,-0.052 -0.034,0.032 -0.078,0.063 -0.094,0.097 z m -0.765,-2.823 c -0.07,0.008 -0.136,0.029 -0.204,0.046 0.034,0.016 0.068,0.032 0.108,0.052 0.063,-0.018 0.13,-0.035 0.195,-0.052 -0.032,-0.016 -0.073,-0.047 -0.099,-0.046 z m 0.555,0.698 c -0.034,0.031 -0.078,0.063 -0.096,0.098 -0.005,0.012 0.062,0.031 0.096,0.047 0.038,-0.031 0.073,-0.063 0.109,-0.093 -0.041,-0.021 -0.075,-0.037 -0.109,-0.052 z m -3.619,31.157 c -0.058,0.022 -0.126,0.042 -0.171,0.069 -0.022,0.014 -0.022,0.051 0,0.061 0.022,0.012 0.101,0.012 0.128,0.002 0.057,-0.023 0.102,-0.055 0.138,-0.087 0.006,-0.005 -0.059,-0.028 -0.095,-0.045 z m -0.068,-3.612 c -0.04,0.02 -0.073,0.035 -0.108,0.051 0.068,0.017 0.134,0.038 0.204,0.045 0.025,0.003 0.065,-0.028 0.101,-0.045 -0.068,-0.018 -0.133,-0.036 -0.197,-0.051 z m 0.044,9.105 c 0.034,-0.031 0.08,-0.063 0.096,-0.098 0.004,-0.012 -0.062,-0.031 -0.096,-0.047 -0.036,0.031 -0.073,0.063 -0.107,0.094 0.039,0.019 0.073,0.035 0.107,0.051 z m 0.456,-17.456 c 0.032,0.008 0.063,0.017 0.096,0.025 l 0,-0.069 c -0.026,0.001 -0.065,0.028 -0.096,0.044 z m 6.073,-17.528 c 0.033,0.016 0.075,0.048 0.1,0.045 0.071,-0.008 0.137,-0.029 0.203,-0.045 -0.033,-0.017 -0.074,-0.048 -0.1,-0.046 -0.071,0.009 -0.137,0.029 -0.203,0.046 z m 1.062,1.23 c -0.033,0.018 -0.1,0.037 -0.096,0.049 0.017,0.033 0.063,0.064 0.096,0.098 0.033,-0.018 0.1,-0.037 0.094,-0.049 -0.015,-0.033 -0.06,-0.065 -0.094,-0.098 z m -0.512,-0.531 c 0.006,-0.012 -0.06,-0.031 -0.095,-0.047 -0.038,0.031 -0.072,0.063 -0.108,0.094 0.042,0.019 0.074,0.034 0.108,0.051 0.035,-0.033 0.079,-0.063 0.095,-0.098 z m -4.624,23.432 c -0.061,0.023 -0.126,0.043 -0.174,0.07 -0.022,0.013 -0.003,0.041 -0.003,0.063 0.045,0 0.105,0.01 0.132,-10e-4 0.058,-0.024 0.103,-0.054 0.139,-0.087 0.005,-0.004 -0.06,-0.029 -0.094,-0.045 z M 300.3,302.82 c 0.022,0.006 0.044,0.012 0.067,0.018 0,-0.016 0,-0.031 0,-0.047 -0.022,0.009 -0.044,0.019 -0.067,0.029 z m 5.82,-32.426 c 0.006,0.019 0.065,0.047 0.102,0.047 0.035,0 0.101,-0.03 0.101,-0.047 0.008,-0.207 0.008,-0.415 0,-0.623 0,-0.018 -0.065,-0.047 -0.101,-0.047 -0.036,0 -0.095,0.028 -0.102,0.047 -0.03,0.091 -0.045,0.183 -0.064,0.27 0.02,0.121 0.037,0.237 0.064,0.353 z m -5.016,20.208 c -0.063,0.016 -0.13,0.033 -0.196,0.05 0.035,0.018 0.075,0.049 0.1,0.046 0.072,-0.008 0.137,-0.028 0.205,-0.046 -0.035,-0.016 -0.069,-0.033 -0.109,-0.05 z m 7.244,23.735 c 0.033,-0.018 0.067,-0.033 0.107,-0.053 -0.034,-0.029 -0.071,-0.063 -0.107,-0.094 -0.034,0.018 -0.1,0.037 -0.096,0.049 0.016,0.034 0.062,0.065 0.096,0.098 z m -2.481,2.922 c -0.034,0.016 -0.065,0.033 -0.098,0.049 0.076,0.023 0.152,0.047 0.229,0.07 0.315,0.008 0.466,-0.074 0.368,-0.211 -0.02,-0.025 -0.161,-0.061 -0.185,-0.053 -0.114,0.042 -0.211,0.094 -0.314,0.145 z m -4.2,-23.781 c 0.034,-0.032 0.079,-0.063 0.096,-0.099 0.006,-0.011 -0.062,-0.031 -0.096,-0.047 -0.037,0.031 -0.073,0.063 -0.108,0.094 0.041,0.019 0.073,0.035 0.108,0.052 z m 0,19.846 c 0.034,-0.018 0.102,-0.037 0.096,-0.049 -0.017,-0.033 -0.062,-0.064 -0.096,-0.098 -0.035,0.018 -0.101,0.037 -0.095,0.049 0.015,0.033 0.06,0.065 0.095,0.098 z m -0.867,2.73 c 0.041,-0.02 0.074,-0.035 0.107,-0.053 -0.066,-0.016 -0.132,-0.035 -0.203,-0.045 -0.025,-0.002 -0.065,0.029 -0.101,0.045 0.067,0.018 0.133,0.038 0.197,0.053 z m -1.051,-34.698 c 0.018,0.034 0.063,0.065 0.096,0.098 10e-4,-0.001 0.004,-0.002 0.006,-0.002 0,-0.046 10e-4,-0.087 0.002,-0.134 -0.003,-0.003 -0.006,-0.006 -0.009,-0.009 -0.032,0.015 -0.1,0.036 -0.095,0.047 z m 10.976,34.548 c 0.071,-0.008 0.137,-0.031 0.203,-0.047 -0.033,-0.016 -0.066,-0.031 -0.106,-0.051 -0.063,0.018 -0.131,0.035 -0.197,0.051 0.032,0.016 0.074,0.049 0.1,0.047 z m -10.976,-40.148 c -0.005,0.012 0.063,0.031 0.096,0.048 0.012,-0.01 0.023,-0.02 0.035,-0.029 0,-0.033 -10e-4,-0.065 -10e-4,-0.1 -0.01,-0.005 -0.023,-0.011 -0.033,-0.016 -0.034,0.032 -0.079,0.064 -0.097,0.097 z m 4.391,16.728 c -0.064,0.017 -0.128,0.033 -0.195,0.051 0.034,0.016 0.074,0.047 0.099,0.045 0.071,-0.007 0.137,-0.029 0.206,-0.045 -0.036,-0.015 -0.07,-0.031 -0.11,-0.051 z m 3.912,-2.787 c 0.09,-0.021 0.165,-0.164 0.133,-0.176 -0.248,-0.086 -0.524,-0.152 -0.787,-0.223 -0.039,0.018 -0.088,0.031 -0.111,0.051 -0.051,0.043 0.055,0.174 0.148,0.217 0.176,0.082 0.337,0.196 0.617,0.131 z m -1.982,-0.927 c 0.066,0.018 0.133,0.035 0.196,0.051 0.041,-0.02 0.074,-0.035 0.106,-0.051 -0.065,-0.017 -0.13,-0.037 -0.203,-0.047 -0.023,-0.002 -0.065,0.03 -0.099,0.047 z m 1.367,3.258 c 0.037,-0.031 0.072,-0.063 0.108,-0.093 -0.04,-0.02 -0.074,-0.036 -0.108,-0.052 -0.035,0.032 -0.078,0.063 -0.096,0.097 -0.006,0.012 0.061,0.032 0.096,0.048 z m -0.76,2.535 c -0.034,-0.016 -0.073,-0.048 -0.1,-0.046 -0.07,0.008 -0.136,0.03 -0.205,0.046 0.035,0.017 0.069,0.032 0.11,0.052 0.064,-0.016 0.129,-0.034 0.195,-0.052 z m 5.271,-3.288 c 0.05,0.007 0.151,-0.066 0.216,-0.096 -0.055,-0.063 -0.085,-0.104 -0.128,-0.141 -0.007,-0.006 -0.074,-0.006 -0.099,0.003 -0.152,0.055 -0.154,0.209 0.011,0.234 z m -4.796,-1.708 c -0.1,0.034 -0.225,0.075 -0.041,0.126 0.023,0.007 0.113,-0.041 0.174,-0.063 0,-0.021 0.018,-0.052 -0.004,-0.063 -0.024,-0.009 -0.1,-0.009 -0.129,0 z m 2.107,2.896 c -0.034,0.017 -0.102,0.036 -0.095,0.048 0.015,0.034 0.061,0.065 0.095,0.097 0.033,-0.016 0.101,-0.035 0.095,-0.047 -0.017,-0.036 -0.062,-0.066 -0.095,-0.098 z m -6.637,-1.76 c 0.039,-0.02 0.074,-0.034 0.108,-0.052 -0.069,-0.016 -0.134,-0.036 -0.205,-0.044 -0.025,-0.003 -0.065,0.028 -0.1,0.044 0.068,0.019 0.133,0.037 0.197,0.052 z m 0.109,-0.92 c -0.069,-0.016 -0.134,-0.037 -0.205,-0.045 -0.025,-0.003 -0.065,0.029 -0.1,0.045 0.067,0.018 0.132,0.035 0.196,0.051 0.039,-0.019 0.075,-0.035 0.109,-0.051 z m -1.349,2.826 c -0.1,0.033 -0.225,0.075 -0.041,0.125 0.024,0.008 0.115,-0.039 0.175,-0.063 0,-0.021 0.017,-0.051 -0.005,-0.062 -0.022,-0.009 -0.1,-0.009 -0.129,0 z m 2.923,-1.402 c 0.017,0.033 0.06,0.064 0.095,0.097 0.034,-0.016 0.068,-0.032 0.108,-0.051 -0.034,-0.03 -0.07,-0.062 -0.108,-0.094 -0.035,0.017 -0.101,0.036 -0.095,0.048 z m -2.386,-0.02 c -0.025,-0.003 -0.066,0.029 -0.1,0.046 0.064,0.017 0.131,0.033 0.194,0.051 0.042,-0.02 0.074,-0.035 0.108,-0.051 -0.065,-0.017 -0.131,-0.04 -0.202,-0.046 z m 2.429,-0.291 c -0.025,-0.002 -0.066,0.029 -0.099,0.045 0.064,0.018 0.13,0.035 0.195,0.052 0.04,-0.019 0.074,-0.034 0.107,-0.052 -0.066,-0.015 -0.132,-0.037 -0.203,-0.045 z m -4.199,6.637 c 0.051,-0.036 0.145,-0.074 0.143,-0.11 -0.004,-0.062 -0.066,-0.122 -0.143,-0.244 -0.075,0.122 -0.139,0.183 -0.143,0.244 -0.002,0.036 0.093,0.074 0.143,0.11 z m 3.34,-4.926 c -0.037,0.031 -0.072,0.063 -0.107,0.094 0.04,0.02 0.074,0.035 0.107,0.051 0.034,-0.031 0.079,-0.063 0.096,-0.096 0.004,-0.011 -0.062,-0.032 -0.096,-0.049 z"
         id="path249"
         inkscape:connector-curvature="0"
         style="fill:#006838" /></g><g
       id="g251"><g
         id="g253"><g
           id="g255"><path
             d="m 299.159,277.097 c -0.012,3.778 0.002,7.577 -0.197,11.351 -0.021,0.397 0.348,0.729 0.729,0.729 2.966,0 5.934,-0.031 8.899,0.031 5.509,0.115 1.423,4.691 -1.983,4.691 -1.812,0 -3.623,-0.019 -5.434,0.031 -2.325,0.064 -1.525,3.129 -1.525,4.652 0,4.576 -0.091,9.145 -0.195,13.717 -0.009,0.393 0.338,0.736 0.729,0.729 2.61,-0.049 5.214,-0.232 7.823,-0.287 2.387,-0.406 2.664,0.977 0.832,4.15 -1.367,0.09 -2.735,0.156 -4.104,0.225 -2.461,0.121 -4.924,0.186 -7.388,0.205 -3.824,0.027 -5.53,-1.744 -5.53,-5.451 0,-9.217 0.293,-18.439 0.294,-27.66 0,-4.06 0.009,-8.086 0.274,-12.136 0.506,-7.729 8.215,-5.958 13.753,-5.958 1.999,0 6.486,-0.727 6.716,2.504 0.215,3.016 -4.808,2.361 -6.704,2.361 -2.184,0 -4.37,0.092 -6.553,0.144 -0.434,0.01 -0.88,0.465 -0.702,0.921 0.565,1.454 0.264,3.51 0.266,5.051 0.002,0.938 1.458,0.939 1.457,0 -0.003,-1.477 -0.026,-2.951 -0.124,-4.425 -0.098,-1.469 0.02,-0.113 -0.726,-0.096 0.665,-0.016 1.33,-0.031 1.996,-0.047 3.263,-0.076 6.621,0.084 9.85,-0.395 4.703,-0.695 2.823,-7.077 -1.345,-7.361 -4.227,-0.289 -8.687,-0.317 -12.905,-0.076 -3.891,0.224 -5.822,1.898 -6.272,5.906 -1.274,11.356 -0.351,23.043 -0.577,34.457 -0.063,3.127 -0.716,6.895 -0.073,9.996 0.728,3.506 3.783,3.652 6.904,3.719 2.943,0.064 5.907,-0.131 8.847,-0.277 1.545,-0.076 3.917,0.166 5.374,-0.539 2.397,-1.16 3.531,-3.723 1.324,-5.729 -1.542,-1.4 -11.947,-1.334 -11.975,-0.166 0.103,-4.494 0.19,-8.984 0.19,-13.482 0,-1.907 -0.744,-3.228 1.426,-3.228 1.614,0 3.229,0 4.844,0 2.184,0 5.724,-0.621 5.663,-3.529 -0.098,-4.621 -4.103,-4.104 -7.84,-4.104 -1.449,0 -2.897,0 -4.346,0 -1.479,0 -0.424,0.557 -0.334,-1.14 0.166,-3.143 0.089,-6.338 0.099,-9.483 0.003,-0.941 -1.454,-0.94 -1.457,-0.001 z"
             id="path257"
             inkscape:connector-curvature="0"
             style="fill:#006838" /></g></g></g></g></svg>