<?xml version="1.0" encoding="UTF-8" standalone="no"?>
<!-- Generator: Adobe Illustrator 16.0.0, SVG Export Plug-In . SVG Version: 6.00 Build 0)  -->

<svg
   xmlns:dc="http://purl.org/dc/elements/1.1/"
   xmlns:cc="http://creativecommons.org/ns#"
   xmlns:rdf="http://www.w3.org/1999/02/22-rdf-syntax-ns#"
   xmlns:svg="http://www.w3.org/2000/svg"
   xmlns="http://www.w3.org/2000/svg"
   xmlns:sodipodi="http://sodipodi.sourceforge.net/DTD/sodipodi-0.dtd"
   xmlns:inkscape="http://www.inkscape.org/namespaces/inkscape"
   version="1.1"
   id="Layer_1"
   x="0px"
   y="0px"
   width="39.308136"
   height="66.465477"
   viewBox="0 0 39.308135 66.465474"
   enable-background="new 0 0 841.89 595.28"
   xml:space="preserve"
   inkscape:version="0.91 r13725"
   sodipodi:docname="bukva__11__S.svg"><metadata
     id="metadata313"><rdf:RDF><cc:Work
         rdf:about=""><dc:format>image/svg+xml</dc:format><dc:type
           rdf:resource="http://purl.org/dc/dcmitype/StillImage" /><dc:title></dc:title></cc:Work></rdf:RDF></metadata><defs
     id="defs311" /><sodipodi:namedview
     pagecolor="#ffffff"
     bordercolor="#666666"
     borderopacity="1"
     objecttolerance="10"
     gridtolerance="10"
     guidetolerance="10"
     inkscape:pageopacity="0"
     inkscape:pageshadow="2"
     inkscape:window-width="640"
     inkscape:window-height="480"
     id="namedview309"
     showgrid="false"
     fit-margin-top="0"
     fit-margin-left="0"
     fit-margin-right="0"
     fit-margin-bottom="0"
     inkscape:zoom="0.35396548"
     inkscape:cx="273.05314"
     inkscape:cy="23.06411"
     inkscape:window-x="10"
     inkscape:window-y="34"
     inkscape:window-maximized="0"
     inkscape:current-layer="Layer_1" /><g
     id="g3"
     transform="translate(-147.89186,-254.23864)"><g
       id="g5"><g
         id="g7"><g
           id="g9"><path
             d="m 178.781,277 c 0,1.581 -0.393,2.945 -3.229,2.945 -2.542,0 -4.793,0 -5.868,-2.441 0,-0.217 -0.195,-1.581 -0.293,-2.803 -0.099,-2.514 -0.392,-6.25 -2.739,-6.25 -3.227,0 -4.009,2.586 -4.009,5.388 0,3.665 3.912,7.975 7.237,11.71 4.401,4.67 8.997,9.915 8.997,15.949 0,8.047 -3.228,15.088 -14.474,15.088 -7.727,0 -12.324,-6.322 -12.324,-11.926 0,-2.299 1.174,-4.455 4.988,-4.455 3.13,0 5.184,1.293 5.184,3.88 0.195,1.939 0.195,6.825 3.228,6.825 3.618,0 4.107,-4.525 4.107,-6.896 0,-5.102 -3.716,-9.197 -7.335,-13.148 -4.304,-4.669 -8.998,-9.698 -8.998,-16.739 0,-6.681 5.869,-10.919 13.204,-10.919 10.562,-0.001 12.126,8.261 12.324,13.792 z"
             id="path11"
             inkscape:connector-curvature="0"
             style="fill:#cfe4cf" /></g><g
           id="g13"><g
             id="g15"><path
               d="m 174.62,277 c 1.385,-1.135 1.281,-1.543 -0.311,-1.227 -0.435,1.529 -0.647,1.578 -0.637,0.149 -0.228,-1.958 -0.31,-3.896 -0.648,-5.843 -0.66,-3.789 -3.902,-6.092 -7.61,-5.639 -9.931,1.215 -6.99,13.508 -2.862,18.836 5.495,7.092 15.581,14.391 11.063,24.545 -1.834,4.123 -6.957,5.113 -11.023,4.43 -2.438,-0.41 -4.202,-2.091 -5.439,-4.11 -1.126,-1.839 -1.681,-4.217 1.207,-3.606 -0.32,-0.688 -0.389,-0.59 -0.205,0.295 0.042,0.631 0.104,1.26 0.187,1.887 0.206,1.799 0.669,3.309 1.405,4.955 1.452,3.25 5.992,4.131 8.929,2.674 7.832,-3.889 5.209,-15.063 1.316,-20.715 -4.044,-5.872 -18.269,-16.334 -10.407,-24.137 2.892,-2.87 9.506,-2.998 12.508,-0.355 2.105,1.855 2.403,5.249 2.527,7.861 0.253,5.344 8.577,5.368 8.322,0 -0.407,-8.597 -4.299,-16.607 -13.705,-17.74 -10.733,-1.292 -21.73,5.738 -19.915,17.563 0.898,5.855 4.171,10.436 7.991,14.799 2.169,2.478 4.496,4.766 6.37,7.488 1.026,1.49 1.612,3.096 1.742,4.904 0.007,0.581 -0.03,1.16 -0.112,1.735 -0.667,1.198 -0.127,1.772 1.618,1.722 -1.045,-1.371 -0.157,-3.98 -0.79,-5.521 -0.85,-2.072 -1.794,-3.319 -3.619,-4.625 -3.592,-2.569 -11.106,-1.564 -13.273,2.518 -4.861,9.156 4.188,20.305 13.652,20.822 10.425,0.57 18.768,-5.107 19.927,-15.797 0.619,-5.713 -0.881,-10.543 -4.098,-15.266 -1.715,-2.519 -3.834,-4.775 -5.907,-6.994 -2.287,-2.449 -6.526,-6.261 -5.937,-9.955 -0.63,-0.121 -1.259,-0.24 -1.889,-0.36 0.144,0.797 0.221,1.601 0.232,2.409 0.049,0.936 0.201,1.869 0.293,2.803 0.193,1.971 1.575,4.466 3.495,5.312 3.986,1.757 10.446,2.426 13.036,-1.995 0.684,-1.167 0.797,-2.508 0.888,-3.82 0.374,-5.361 -7.951,-5.324 -8.321,-0.002 z"
               id="path17"
               inkscape:connector-curvature="0"
               style="fill:#cfe4cf" /></g></g></g></g><g
       id="g19"
       style="opacity:0.8"><g
         id="g21"><g
           id="g23"><path
             d="m 181.277,274.504 c 0,1.58 -0.391,2.945 -3.228,2.945 -2.542,0 -4.793,0 -5.868,-2.443 0,-0.215 -0.195,-1.58 -0.293,-2.802 -0.099,-2.515 -0.391,-6.25 -2.739,-6.25 -3.228,0 -4.01,2.587 -4.01,5.388 0,3.664 3.912,7.975 7.237,11.711 4.402,4.67 8.998,9.914 8.998,15.949 0,8.046 -3.228,15.087 -14.475,15.087 -7.727,0 -12.323,-6.322 -12.323,-11.927 0,-2.299 1.175,-4.453 4.988,-4.453 3.13,0 5.183,1.293 5.183,3.879 0.196,1.939 0.196,6.824 3.229,6.824 3.618,0 4.107,-4.525 4.107,-6.896 0,-5.1 -3.717,-9.195 -7.336,-13.146 -4.303,-4.67 -8.996,-9.699 -8.996,-16.739 0,-6.682 5.867,-10.92 13.203,-10.92 10.562,-0.001 12.127,8.26 12.323,13.793 z"
             id="path25"
             inkscape:connector-curvature="0"
             style="fill:#cfe4cf" /></g><g
           id="g27"><g
             id="g29"><path
               d="m 179.196,274.504 c -0.132,1.902 -4.892,0.781 -5.107,-1.078 -0.205,-1.772 -0.268,-3.529 -0.574,-5.291 -0.519,-2.984 -2.733,-4.461 -5.604,-4.109 -7.81,0.955 -4.276,11.562 -1.392,15.284 6.237,8.052 16.451,15.688 11.389,27.066 -2.231,5.016 -8.465,6.212 -13.375,5.386 -2.944,-0.494 -5.187,-2.625 -6.682,-5.066 -1.939,-3.167 -1.224,-7.674 3.557,-6.664 1.678,0.355 1.966,6.605 2.631,8.094 0.971,2.171 4.064,2.928 6.081,1.926 6.757,-3.354 3.807,-13.167 0.57,-17.866 -4.804,-6.974 -19.289,-17.519 -10.081,-26.659 3.731,-3.704 11.604,-3.739 15.449,-0.355 2.532,2.226 2.989,6.183 3.138,9.332 0.127,2.671 4.289,2.684 4.162,0 -0.347,-7.337 -3.438,-14.674 -11.624,-15.659 -9.182,-1.106 -19.527,4.376 -17.908,14.929 0.847,5.515 3.854,9.766 7.455,13.88 2.289,2.614 4.716,5.034 6.695,7.908 1.241,1.803 1.87,3.778 2.026,5.954 0.012,0.16 -0.864,6.486 -2.371,4.508 -2.375,-3.119 0.118,-6.694 -3.662,-9.398 -2.683,-1.92 -8.756,-1.377 -10.427,1.77 -4.096,7.711 3.99,17.263 11.854,17.693 9.183,0.502 16.807,-4.127 17.847,-13.717 0.585,-5.396 -0.773,-9.754 -3.813,-14.217 -3.624,-5.32 -13.189,-11.438 -12.055,-18.553 0.709,-0.119 1.418,-0.24 2.126,-0.359 0.183,0.979 0.285,1.967 0.306,2.962 0.049,0.937 0.201,1.87 0.293,2.802 0.128,1.293 1.242,2.977 2.465,3.516 2.936,1.293 8.239,2.08 10.189,-1.248 0.493,-0.842 0.538,-1.829 0.604,-2.77 0.185,-2.681 -3.978,-2.663 -4.162,-10e-4 z"
               id="path31"
               inkscape:connector-curvature="0"
               style="fill:#5e8d64" /></g></g></g></g><g
       id="g33"><g
         id="g35"><path
           d="m 184.606,271.174 c 0,1.581 -0.392,2.945 -3.228,2.945 -2.543,0 -4.792,0 -5.867,-2.441 0,-0.217 -0.196,-1.582 -0.294,-2.803 -0.098,-2.515 -0.392,-6.25 -2.739,-6.25 -3.227,0 -4.01,2.586 -4.01,5.388 0,3.665 3.912,7.975 7.237,11.711 4.402,4.67 8.997,9.914 8.997,15.948 0,8.047 -3.227,15.088 -14.473,15.088 -7.728,0 -12.324,-6.322 -12.324,-11.926 0,-2.299 1.174,-4.454 4.988,-4.454 3.13,0 5.184,1.292 5.184,3.879 0.196,1.939 0.196,6.825 3.228,6.825 3.618,0 4.106,-4.526 4.106,-6.896 0,-5.102 -3.715,-9.197 -7.334,-13.147 -4.303,-4.67 -8.998,-9.698 -8.998,-16.739 0,-6.682 5.869,-10.92 13.204,-10.92 10.563,-0.001 12.128,8.261 12.323,13.792 z"
           id="path37"
           inkscape:connector-curvature="0"
           style="fill:#43434b" /><path
           d="m 170.23,313.257 c -9.154,0 -14.821,-7.486 -14.821,-14.423 0,-3.36 1.967,-6.951 7.485,-6.951 4.612,0 7.611,2.445 7.68,6.243 0.019,0.203 0.036,0.433 0.056,0.682 0.16,2.083 0.41,3.352 0.742,3.775 1.5,-0.134 1.543,-3.953 1.543,-4.396 0,-4.172 -3.395,-7.877 -6.678,-11.461 l -0.117,-0.127 c -4.47,-4.851 -9.537,-10.35 -9.537,-18.299 0,-7.774 6.604,-13.417 15.701,-13.417 6.499,0 14.345,2.812 14.817,16.202 0.002,4.823 -3.585,5.53 -5.723,5.53 -2.021,0 -4.6,0 -6.497,-1.632 0.813,0.973 1.666,1.931 2.465,2.827 l 0.225,0.252 c 4.848,5.142 9.629,10.784 9.629,17.608 0,11.342 -6.027,17.587 -16.97,17.587 z m -7.336,-16.38 c -2.304,0 -2.491,0.886 -2.491,1.957 0,4.534 3.757,9.429 9.827,9.429 8.17,0 11.976,-4.001 11.976,-12.591 0,-4.999 -3.934,-9.586 -8.316,-14.235 l -0.272,-0.305 c -3.584,-4.024 -7.646,-8.586 -7.646,-13.119 0,-7.116 4.551,-7.885 6.507,-7.885 4.862,0 5.139,6.193 5.232,8.598 0.054,0.654 0.136,1.346 0.196,1.858 0.017,0.135 0.03,0.262 0.043,0.378 0.343,0.519 0.982,0.66 3.429,0.66 0.346,0 0.574,-0.028 0.715,-0.056 0.009,-0.091 0.016,-0.218 0.016,-0.393 -0.276,-7.785 -3.307,-11.296 -9.825,-11.296 -5.157,0 -10.707,2.636 -10.707,8.423 0,6 4.177,10.532 8.216,14.915 l 0.121,0.133 c 3.75,4.093 7.995,8.726 7.995,14.839 0,5.882 -2.469,9.394 -6.604,9.394 -5.008,0 -5.478,-6.096 -5.655,-8.39 -0.02,-0.254 -0.036,-0.484 -0.057,-0.682 l -0.013,-0.251 c 0,-0.377 0,-1.381 -2.687,-1.381 z m 9.271,-31.745 c -0.595,0.057 -1.199,0.428 -1.199,2.881 0,1.466 1.098,3.349 2.562,5.28 -0.106,-0.191 -0.206,-0.395 -0.301,-0.608 l -0.212,-0.481 0,-0.452 c -0.011,-0.123 -0.036,-0.327 -0.066,-0.58 -0.068,-0.577 -0.16,-1.362 -0.22,-2.097 l -0.006,-0.103 c -0.097,-2.463 -0.37,-3.449 -0.558,-3.84 z"
           id="path39"
           inkscape:connector-curvature="0"
           style="fill:#43434b" /></g></g><g
       id="g41"><g
         id="g43"><path
           d="m 183.774,269.51 c 0,1.58 -0.391,2.945 -3.228,2.945 -2.543,0 -4.792,0 -5.869,-2.442 0,-0.216 -0.194,-1.581 -0.293,-2.802 -0.098,-2.515 -0.391,-6.25 -2.738,-6.25 -3.228,0 -4.009,2.586 -4.009,5.387 0,3.665 3.912,7.976 7.236,11.711 4.4,4.67 8.998,9.914 8.998,15.949 0,8.046 -3.229,15.087 -14.475,15.087 -7.727,0 -12.323,-6.321 -12.323,-11.926 0,-2.3 1.174,-4.454 4.987,-4.454 3.131,0 5.184,1.293 5.184,3.879 0.195,1.94 0.195,6.826 3.228,6.826 3.618,0 4.108,-4.527 4.108,-6.897 0,-5.101 -3.717,-9.196 -7.336,-13.147 -4.303,-4.669 -8.997,-9.698 -8.997,-16.739 0,-6.681 5.868,-10.919 13.203,-10.919 10.563,-10e-4 12.128,8.26 12.324,13.792 z"
           id="path45"
           inkscape:connector-curvature="0"
           style="fill:#006838" /></g></g><g
       id="g47"><path
         d="m 185.437,268.679 c 0,1.581 -0.391,2.945 -3.227,2.945 -2.543,0 -4.792,0 -5.868,-2.442 0,-0.216 -0.195,-1.58 -0.293,-2.802 -0.098,-2.515 -0.392,-6.25 -2.738,-6.25 -3.228,0 -4.01,2.587 -4.01,5.388 0,3.664 3.912,7.975 7.237,11.71 4.4,4.669 8.997,9.913 8.997,15.948 0,8.046 -3.228,15.086 -14.474,15.086 -7.726,0 -12.322,-6.322 -12.322,-11.926 0,-2.299 1.174,-4.453 4.987,-4.453 3.13,0 5.184,1.293 5.184,3.879 0.195,1.939 0.195,6.824 3.227,6.824 3.618,0 4.107,-4.525 4.107,-6.896 0,-5.1 -3.716,-9.195 -7.334,-13.146 -4.304,-4.669 -8.997,-9.697 -8.997,-16.738 0,-6.681 5.867,-10.919 13.202,-10.919 10.562,-0.001 12.127,8.259 12.322,13.792 z"
         id="path49"
         inkscape:connector-curvature="0"
         style="fill:#2f9a41" /></g><g
       id="g51"><g
         id="g53"><path
           d="m 185.537,293.176 c 0,-0.155 -0.016,-0.308 -0.021,-0.462 l -15.496,15.495 c 0.343,0.026 0.686,0.054 1.042,0.054 0.09,0 0.169,-0.009 0.258,-0.011 l 14.194,-14.193 c 0.008,-0.294 0.023,-0.586 0.023,-0.883 z"
           id="path55"
           inkscape:connector-curvature="0"
           style="fill:#cfe4cf" /><path
           d="m 175.899,264.248 6.066,-6.067 c -0.215,-0.229 -0.442,-0.449 -0.684,-0.659 l -5.566,5.566 c 0.077,0.376 0.138,0.766 0.184,1.16 z"
           id="path57"
           inkscape:connector-curvature="0"
           style="fill:#cfe4cf" /><path
           d="m 175.267,255.022 c -0.397,-0.049 -0.822,-0.073 -1.25,-0.094 l -13.813,13.813 c 0.072,0.37 0.154,0.735 0.25,1.094 l 14.813,-14.813 z"
           id="path59"
           inkscape:connector-curvature="0"
           style="fill:#cfe4cf" /><path
           d="m 182.21,271.623 c 0.468,0 0.864,-0.041 1.208,-0.109 l 1.962,-1.962 c 0.043,-0.278 0.058,-0.572 0.058,-0.874 -0.006,-0.163 -0.018,-0.335 -0.026,-0.502 l -3.447,3.447 c 0.082,0 0.163,0 0.245,0 z"
           id="path61"
           inkscape:connector-curvature="0"
           style="fill:#cfe4cf" /><path
           d="m 170.245,255.116 c -0.592,0.096 -1.166,0.227 -1.725,0.381 l -8.429,8.429 c -0.086,0.486 -0.141,0.986 -0.159,1.502 l 10.313,-10.312 z"
           id="path63"
           inkscape:connector-curvature="0"
           style="fill:#cfe4cf" /><path
           d="m 167.182,292.677 c -0.28,-0.165 -0.589,-0.303 -0.928,-0.416 l -7.084,7.084 c 0.095,0.339 0.207,0.676 0.334,1.01 l 7.678,-7.678 z"
           id="path65"
           inkscape:connector-curvature="0"
           style="fill:#cfe4cf" /><path
           d="m 163.022,291.91 c -0.65,0.05 -1.211,0.171 -1.693,0.35 l -2.309,2.309 c -0.179,0.51 -0.264,1.059 -0.277,1.621 l 4.279,-4.28 z"
           id="path67"
           inkscape:connector-curvature="0"
           style="fill:#cfe4cf" /><path
           d="m 168.919,295.868 c -0.003,-0.034 -0.006,-0.074 -0.009,-0.106 0,-0.392 -0.062,-0.743 -0.152,-1.075 l -8.046,8.046 c 0.175,0.269 0.355,0.535 0.552,0.792 l 7.655,-7.657 z"
           id="path69"
           inkscape:connector-curvature="0"
           style="fill:#cfe4cf" /><path
           d="m 169.326,265.893 c -0.009,-0.125 -0.024,-0.252 -0.024,-0.376 0,-0.331 0.012,-0.659 0.037,-0.98 l -7.935,7.935 c 0.138,0.306 0.284,0.608 0.438,0.906 l 7.484,-7.485 z"
           id="path71"
           inkscape:connector-curvature="0"
           style="fill:#cfe4cf" /><path
           d="m 170.568,269.578 c -0.166,-0.298 -0.316,-0.595 -0.453,-0.891 l -6.943,6.943 c 0.178,0.268 0.36,0.533 0.548,0.795 l 6.848,-6.847 z"
           id="path73"
           inkscape:connector-curvature="0"
           style="fill:#cfe4cf" /><path
           d="m 172.545,272.529 c -0.197,-0.257 -0.388,-0.514 -0.574,-0.771 l -6.692,6.692 c 0.202,0.246 0.405,0.49 0.612,0.732 l 6.654,-6.653 z"
           id="path75"
           inkscape:connector-curvature="0"
           style="fill:#cfe4cf" /><path
           d="m 174.773,275.229 c -0.208,-0.24 -0.416,-0.48 -0.622,-0.723 l -6.578,6.578 c 0.213,0.235 0.427,0.47 0.641,0.703 l 6.559,-6.558 z"
           id="path77"
           inkscape:connector-curvature="0"
           style="fill:#cfe4cf" /><path
           d="m 169.544,300.172 c -0.109,-0.348 -0.197,-0.709 -0.267,-1.077 l -6.265,6.265 c 0.241,0.207 0.485,0.41 0.745,0.6 l 5.787,-5.788 z"
           id="path79"
           inkscape:connector-curvature="0"
           style="fill:#cfe4cf" /><path
           d="m 184.529,299.972 c 0.205,-0.597 0.371,-1.217 0.509,-1.853 l -9.735,9.734 c 0.65,-0.131 1.259,-0.298 1.835,-0.491 l 7.391,-7.39 z"
           id="path81"
           inkscape:connector-curvature="0"
           style="fill:#cfe4cf" /><path
           d="m 172.064,302.579 c -0.406,-0.011 -0.755,-0.115 -1.058,-0.286 l -4.959,4.96 c 0.315,0.136 0.636,0.264 0.969,0.374 l 5.048,-5.048 z"
           id="path83"
           inkscape:connector-curvature="0"
           style="fill:#cfe4cf" /><path
           d="m 185.011,289.632 c -0.098,-0.34 -0.208,-0.678 -0.331,-1.013 l -8.499,8.498 c -0.044,0.51 -0.121,1.048 -0.237,1.582 l 9.067,-9.067 z"
           id="path85"
           inkscape:connector-curvature="0"
           style="fill:#cfe4cf" /><path
           d="m 173.706,260.168 c 0.343,0.069 0.631,0.234 0.879,0.464 l 4.528,-4.529 c -0.301,-0.145 -0.602,-0.29 -0.933,-0.411 l -4.474,4.476 z"
           id="path87"
           inkscape:connector-curvature="0"
           style="fill:#cfe4cf" /><path
           d="m 183.554,286.162 c -0.156,-0.287 -0.319,-0.572 -0.489,-0.855 l -7.287,7.287 c 0.105,0.354 0.196,0.713 0.267,1.077 l 7.509,-7.509 z"
           id="path89"
           inkscape:connector-curvature="0"
           style="fill:#cfe4cf" /><path
           d="m 174.246,289.198 c 0.17,0.284 0.332,0.57 0.484,0.859 l 6.899,-6.898 c -0.188,-0.257 -0.38,-0.513 -0.577,-0.768 l -6.806,6.807 z"
           id="path91"
           inkscape:connector-curvature="0"
           style="fill:#cfe4cf" /><path
           d="m 177.769,270.889 c 0.287,0.178 0.596,0.316 0.926,0.417 l 6.362,-6.362 c -0.066,-0.371 -0.143,-0.741 -0.232,-1.112 l -7.056,7.057 z"
           id="path93"
           inkscape:connector-curvature="0"
           style="fill:#cfe4cf" /><path
           d="m 170.562,284.37 6.541,-6.541 c -0.188,-0.202 -0.376,-0.403 -0.564,-0.603 -0.027,-0.031 -0.056,-0.063 -0.083,-0.094 l -6.528,6.528 c 0.212,0.236 0.424,0.473 0.634,0.71 z"
           id="path95"
           inkscape:connector-curvature="0"
           style="fill:#cfe4cf" /><path
           d="m 176.166,267.565 c 0.052,0.476 0.104,0.904 0.139,1.205 l 7.618,-7.618 c -0.137,-0.304 -0.289,-0.601 -0.45,-0.894 l -7.307,7.307 z"
           id="path97"
           inkscape:connector-curvature="0"
           style="fill:#cfe4cf" /><path
           d="m 172.796,287.063 6.643,-6.643 c -0.207,-0.241 -0.415,-0.48 -0.626,-0.718 l -6.605,6.605 c 0.201,0.251 0.397,0.503 0.588,0.756 z"
           id="path99"
           inkscape:connector-curvature="0"
           style="fill:#cfe4cf" /></g><g
         id="g101"><path
           d="m 184.575,268.158 c -0.074,0.061 -0.107,0.125 -0.187,0.186 -0.086,0.068 0.009,0.092 0.316,0.066 0.091,-0.008 0.186,-0.025 0.228,-0.043 0.229,-0.1 0.15,-0.217 -0.143,-0.232 -0.075,0.007 -0.2,0.011 -0.214,0.023 z"
           id="path103"
           inkscape:connector-curvature="0"
           style="fill:#cfe4cf" /><path
           d="m 167.603,276.585 c -0.031,0.012 0.189,0.055 0.294,0.084 0.101,0 0.201,0 0.3,0 0,-0.022 0.042,-0.05 -0.007,-0.063 -0.157,-0.048 -0.35,-0.108 -0.587,-0.021 z"
           id="path105"
           inkscape:connector-curvature="0"
           style="fill:#cfe4cf" /><path
           d="m 161.111,267.397 c -0.074,0.032 -0.175,0.063 -0.21,0.097 -0.013,0.012 0.136,0.031 0.21,0.049 0.082,-0.032 0.163,-0.064 0.241,-0.094 -0.09,-0.019 -0.164,-0.035 -0.241,-0.052 z"
           id="path107"
           inkscape:connector-curvature="0"
           style="fill:#cfe4cf" /><path
           d="m 169.882,256.533 c -0.073,0.016 -0.221,0.035 -0.21,0.047 0.037,0.035 0.137,0.065 0.21,0.098 0.077,-0.016 0.225,-0.036 0.213,-0.047 -0.033,-0.035 -0.136,-0.067 -0.213,-0.098 z"
           id="path109"
           inkscape:connector-curvature="0"
           style="fill:#cfe4cf" /><path
           d="m 169.495,255.537 c 0.165,0.054 0.276,0.09 0.388,0.127 0.114,-0.037 0.334,-0.076 0.317,-0.109 -0.032,-0.063 -0.203,-0.121 -0.317,-0.181 -0.134,0.058 -0.273,0.114 -0.388,0.163 z"
           id="path111"
           inkscape:connector-curvature="0"
           style="fill:#cfe4cf" /><path
           d="m 168.631,270.17 c -0.142,0.018 -0.287,0.035 -0.435,0.053 0.075,0.016 0.168,0.047 0.224,0.045 0.157,-0.008 0.304,-0.029 0.451,-0.045 -0.076,-0.017 -0.147,-0.034 -0.24,-0.053 z"
           id="path113"
           inkscape:connector-curvature="0"
           style="fill:#cfe4cf" /><path
           d="m 168.207,276.732 c 0.105,0.026 0.25,0.048 0.397,0.065 0.024,0.003 0.137,-0.028 0.213,-0.046 -0.106,-0.027 -0.195,-0.06 -0.325,-0.082 -0.063,-0.01 -0.232,-0.01 -0.282,0.002 -0.051,0.011 -0.053,0.048 -0.003,0.061 z"
           id="path115"
           inkscape:connector-curvature="0"
           style="fill:#cfe4cf" /><path
           d="m 165.739,275.82 c -0.09,0.02 -0.165,0.035 -0.242,0.052 0.152,0.017 0.297,0.038 0.454,0.045 0.057,0.003 0.146,-0.028 0.223,-0.045 -0.148,-0.018 -0.294,-0.035 -0.435,-0.052 z"
           id="path117"
           inkscape:connector-curvature="0"
           style="fill:#cfe4cf" /><path
           d="m 165.625,276.717 c 0.034,0.033 0.137,0.064 0.211,0.098 0.073,-0.018 0.149,-0.033 0.239,-0.053 -0.076,-0.029 -0.159,-0.062 -0.239,-0.093 -0.075,0.016 -0.222,0.036 -0.211,0.048 z"
           id="path119"
           inkscape:connector-curvature="0"
           style="fill:#cfe4cf" /><path
           d="m 167.74,258.389 c 0.052,0.008 0.202,0.01 0.22,0.004 0.092,-0.038 0.162,-0.078 0.283,-0.142 -0.142,-0.03 -0.368,-0.103 -0.479,-0.095 -0.365,0.025 -0.362,0.178 -0.024,0.233 z"
           id="path121"
           inkscape:connector-curvature="0"
           style="fill:#cfe4cf" /><path
           d="m 162.124,265.297 c 0.075,0.016 0.167,0.049 0.223,0.045 0.16,-0.007 0.303,-0.029 0.453,-0.045 -0.075,-0.016 -0.166,-0.048 -0.224,-0.045 -0.157,0.008 -0.3,0.029 -0.452,0.045 z"
           id="path123"
           inkscape:connector-curvature="0"
           style="fill:#cfe4cf" /><path
           d="m 161.926,268.373 c -0.748,0.121 -0.151,0.18 0.187,0.251 0.12,0.024 0.301,0.036 0.455,0.054 0.077,-0.039 0.188,-0.077 0.222,-0.119 0.039,-0.045 0.01,-0.094 0.01,-0.139 0,-0.07 0.039,-0.143 -0.021,-0.21 -0.021,-0.028 -0.246,-0.052 -0.397,-0.069 -0.027,-0.003 -0.188,0.027 -0.218,0.047 -0.092,0.062 -0.051,0.155 -0.238,0.185 z"
           id="path125"
           inkscape:connector-curvature="0"
           style="fill:#cfe4cf" /><path
           d="m 161.576,272.853 c 0.035,0.009 0.06,0.02 0.107,0.026 0.056,0.006 0.171,0.004 0.224,-0.004 0.339,-0.055 0.326,-0.197 -0.014,-0.24 -0.075,0.002 -0.175,-0.002 -0.227,0.005 -0.074,0.012 -0.124,0.029 -0.165,0.048 0.026,0.054 0.049,0.111 0.075,0.165 z"
           id="path127"
           inkscape:connector-curvature="0"
           style="fill:#cfe4cf" /><path
           d="m 164.156,267.189 c -0.048,0.014 -0.045,0.05 0.004,0.061 0.05,0.012 0.225,0.012 0.283,0 0.125,-0.021 0.227,-0.053 0.308,-0.084 0.012,-0.006 -0.131,-0.029 -0.209,-0.047 -0.131,0.024 -0.282,0.043 -0.386,0.07 z"
           id="path129"
           inkscape:connector-curvature="0"
           style="fill:#cfe4cf" /><path
           d="m 162.207,270.066 c -0.034,0.012 0.188,0.055 0.291,0.084 0.101,0 0.238,0.008 0.289,-0.002 0.052,-0.012 0.052,-0.048 0.006,-0.063 -0.159,-0.047 -0.35,-0.106 -0.586,-0.019 z"
           id="path131"
           inkscape:connector-curvature="0"
           style="fill:#cfe4cf" /><path
           d="m 167.834,270.873 c 0.091,-0.008 0.184,-0.025 0.227,-0.043 0.229,-0.1 0.15,-0.217 -0.144,-0.233 -0.073,0.008 -0.198,0.013 -0.213,0.023 -0.074,0.062 -0.108,0.126 -0.187,0.187 -0.085,0.068 0.009,0.091 0.317,0.066 z"
           id="path133"
           inkscape:connector-curvature="0"
           style="fill:#cfe4cf" /><path
           d="m 168.448,261.489 c -0.188,0.034 -0.192,0.118 -0.238,0.183 -0.009,0.014 0.132,0.033 0.204,0.051 0.164,0.004 1.094,-0.153 1.106,-0.195 0.008,-0.015 -0.134,-0.045 -0.216,-0.047 -0.292,-0.004 -0.682,-0.024 -0.856,0.008 z"
           id="path135"
           inkscape:connector-curvature="0"
           style="fill:#cfe4cf" /><path
           d="m 168.872,262.689 c 0.076,0.016 0.166,0.047 0.223,0.045 0.16,-0.008 0.303,-0.029 0.453,-0.045 -0.075,-0.016 -0.167,-0.049 -0.223,-0.045 -0.158,0.008 -0.303,0.03 -0.453,0.045 z"
           id="path137"
           inkscape:connector-curvature="0"
           style="fill:#cfe4cf" /><path
           d="m 173.382,275.361 c 0.546,0.023 0.841,-0.021 0.903,-0.149 -0.086,-0.03 -0.217,-0.086 -0.386,-0.136 -0.036,-0.01 -0.199,0 -0.303,0 0.079,0.111 -0.443,0.14 -0.633,0.215 -0.014,0.006 0.256,0.063 0.419,0.07 z"
           id="path139"
           inkscape:connector-curvature="0"
           style="fill:#cfe4cf" /><path
           d="m 172.028,278 c -0.052,-0.008 -0.167,-0.01 -0.223,-0.004 -0.343,0.041 -0.354,0.185 -0.017,0.238 0.052,0.009 0.15,0.004 0.228,0.005 0.338,-0.042 0.352,-0.185 0.012,-0.239 z"
           id="path141"
           inkscape:connector-curvature="0"
           style="fill:#cfe4cf" /><path
           d="m 172.921,276.887 c -0.149,-0.017 -0.294,-0.039 -0.453,-0.046 -0.056,-0.003 -0.146,0.029 -0.223,0.046 0.147,0.018 0.294,0.034 0.435,0.051 0.092,-0.02 0.165,-0.036 0.241,-0.051 z"
           id="path143"
           inkscape:connector-curvature="0"
           style="fill:#cfe4cf" /><path
           d="m 162.809,273.918 c -0.05,0.012 -0.051,0.049 -0.002,0.062 0.105,0.026 0.252,0.049 0.397,0.065 0.026,0.004 0.135,-0.027 0.214,-0.045 -0.105,-0.027 -0.197,-0.061 -0.326,-0.082 -0.058,-0.011 -0.232,-0.01 -0.283,0 z"
           id="path145"
           inkscape:connector-curvature="0"
           style="fill:#cfe4cf" /><path
           d="m 173.992,277.555 c -0.162,-0.022 -0.467,-0.031 -0.625,-0.013 -0.284,0.031 -0.52,0.085 -0.744,0.135 -0.122,0.027 -0.182,0.067 -0.271,0.101 0.191,0.017 0.383,0.033 0.574,0.05 0.306,0.009 0.572,-0.027 0.9,-0.124 0.147,-0.044 0.674,-0.079 0.166,-0.149 z"
           id="path147"
           inkscape:connector-curvature="0"
           style="fill:#cfe4cf" /><path
           d="m 173.597,287.171 c 0.073,0.017 0.165,0.048 0.221,0.046 0.159,-0.008 0.303,-0.029 0.453,-0.046 -0.074,-0.017 -0.15,-0.032 -0.238,-0.052 -0.143,0.018 -0.29,0.035 -0.436,0.052 z"
           id="path149"
           inkscape:connector-curvature="0"
           style="fill:#cfe4cf" /><path
           d="m 173.257,278.263 c 0.076,-0.017 0.151,-0.032 0.24,-0.052 -0.077,-0.031 -0.157,-0.063 -0.24,-0.094 -0.074,0.016 -0.222,0.035 -0.211,0.047 0.037,0.035 0.137,0.066 0.211,0.099 z"
           id="path151"
           inkscape:connector-curvature="0"
           style="fill:#cfe4cf" /><path
           d="m 173.835,276.647 c 0.143,-0.017 0.289,-0.034 0.436,-0.052 -0.074,-0.016 -0.166,-0.047 -0.223,-0.045 -0.158,0.008 -0.304,0.029 -0.451,0.045 0.073,0.017 0.148,0.033 0.238,0.052 z"
           id="path153"
           inkscape:connector-curvature="0"
           style="fill:#cfe4cf" /><path
           d="m 173.584,275.072 c 0.05,-0.01 0.053,-0.046 0.004,-0.061 -0.156,-0.048 -0.349,-0.107 -0.585,-0.02 -0.032,0.011 0.189,0.055 0.29,0.084 0.103,0.001 0.241,0.009 0.291,-0.003 z"
           id="path155"
           inkscape:connector-curvature="0"
           style="fill:#cfe4cf" /><path
           d="m 162.799,273.916 c 0.016,-0.1 -0.207,-0.148 -0.676,-0.145 -0.015,0.101 0.209,0.149 0.676,0.145 z"
           id="path157"
           inkscape:connector-curvature="0"
           style="fill:#cfe4cf" /><path
           d="m 173.375,275.627 c 0.054,0.003 0.146,-0.028 0.222,-0.045 -0.148,-0.018 -0.293,-0.035 -0.436,-0.051 -0.09,0.018 -0.163,0.035 -0.24,0.051 0.151,0.017 0.294,0.038 0.454,0.045 z"
           id="path159"
           inkscape:connector-curvature="0"
           style="fill:#cfe4cf" /><path
           d="m 164.148,267.904 c -0.074,-0.016 -0.166,-0.048 -0.223,-0.045 -0.157,0.008 -0.302,0.029 -0.451,0.045 0.074,0.016 0.165,0.049 0.222,0.045 0.157,-0.007 0.303,-0.029 0.452,-0.045 z"
           id="path161"
           inkscape:connector-curvature="0"
           style="fill:#cfe4cf" /><path
           d="m 163.109,270.154 c -0.623,-0.021 -0.287,0.09 -0.28,0.13 0.007,0.048 0.233,0.095 0.366,0.143 0.092,-0.036 0.187,-0.073 0.279,-0.108 0,-0.023 0.037,-0.051 -0.008,-0.067 -0.095,-0.037 -0.216,-0.093 -0.357,-0.098 z"
           id="path163"
           inkscape:connector-curvature="0"
           style="fill:#cfe4cf" /><path
           d="m 173.607,277.83 c -0.05,0.011 -0.052,0.048 -0.002,0.061 0.104,0.027 0.251,0.049 0.397,0.066 0.026,0.002 0.135,-0.028 0.215,-0.045 -0.106,-0.028 -0.198,-0.061 -0.327,-0.082 -0.06,-0.012 -0.234,-0.012 -0.283,0 z"
           id="path165"
           inkscape:connector-curvature="0"
           style="fill:#cfe4cf" /><path
           d="m 162.097,273.578 c -0.031,-0.016 -0.096,-0.027 -0.17,-0.039 0.039,0.074 0.077,0.149 0.116,0.222 0.027,0.003 0.056,0.006 0.081,0.01 0,-0.066 0.084,-0.138 -0.027,-0.193 z"
           id="path167"
           inkscape:connector-curvature="0"
           style="fill:#cfe4cf" /><path
           d="m 170.441,273.074 c -0.34,0.055 -0.344,0.208 0.022,0.232 0.108,0.008 0.336,-0.064 0.479,-0.094 -0.121,-0.063 -0.19,-0.104 -0.284,-0.142 -0.014,-0.006 -0.166,-0.004 -0.217,0.004 z"
           id="path169"
           inkscape:connector-curvature="0"
           style="fill:#cfe4cf" /><path
           d="m 178.081,299.391 c 0.09,-0.02 0.165,-0.035 0.239,-0.051 -0.149,-0.017 -0.294,-0.038 -0.451,-0.045 -0.058,-0.004 -0.149,0.028 -0.224,0.045 0.147,0.017 0.294,0.034 0.436,0.051 z"
           id="path171"
           inkscape:connector-curvature="0"
           style="fill:#cfe4cf" /><path
           d="m 179.449,296.396 c -0.16,0.008 -0.305,0.029 -0.454,0.046 0.076,0.016 0.167,0.048 0.223,0.045 0.158,-0.008 0.303,-0.029 0.452,-0.045 -0.076,-0.016 -0.167,-0.048 -0.221,-0.046 z"
           id="path173"
           inkscape:connector-curvature="0"
           style="fill:#cfe4cf" /><path
           d="m 181.357,301.875 c -0.082,0.031 -0.161,0.063 -0.24,0.092 0.09,0.021 0.165,0.037 0.24,0.053 0.075,-0.032 0.175,-0.063 0.211,-0.098 0.014,-0.012 -0.136,-0.031 -0.211,-0.047 z"
           id="path175"
           inkscape:connector-curvature="0"
           style="fill:#cfe4cf" /><path
           d="m 174.053,278.434 c -0.051,-0.008 -0.166,-0.01 -0.224,-0.002 -0.344,0.039 -0.354,0.184 -0.015,0.238 0.051,0.008 0.148,0.002 0.227,0.004 0.337,-0.043 0.35,-0.186 0.012,-0.24 z"
           id="path177"
           inkscape:connector-curvature="0"
           style="fill:#cfe4cf" /><path
           d="m 178.866,293.374 c -0.25,-0.072 -0.921,-0.07 -1.108,0.004 -0.031,0.013 -0.021,0.036 0.015,0.048 0.254,0.072 0.918,0.07 1.116,-0.003 -0.006,-0.017 0.017,-0.038 -0.023,-0.049 z"
           id="path179"
           inkscape:connector-curvature="0"
           style="fill:#cfe4cf" /><path
           d="m 184.155,268.826 c 0.088,-0.021 0.164,-0.037 0.238,-0.053 -0.15,-0.016 -0.294,-0.037 -0.453,-0.045 -0.056,-0.003 -0.146,0.029 -0.22,0.045 0.145,0.018 0.293,0.036 0.435,0.053 z"
           id="path181"
           inkscape:connector-curvature="0"
           style="fill:#cfe4cf" /><path
           d="m 161.208,261.727 c 0.092,-0.02 0.166,-0.035 0.239,-0.051 -0.147,-0.016 -0.293,-0.038 -0.451,-0.045 -0.055,-0.004 -0.146,0.028 -0.22,0.044 l 0,0 c 0.147,0.018 0.293,0.036 0.432,0.052 z"
           id="path183"
           inkscape:connector-curvature="0"
           style="fill:#cfe4cf" /><path
           d="m 181.146,284.104 c 0.034,0.035 0.136,0.065 0.211,0.098 0.075,-0.016 0.225,-0.035 0.211,-0.047 -0.036,-0.035 -0.136,-0.066 -0.211,-0.098 -0.075,0.015 -0.224,0.036 -0.211,0.047 z"
           id="path185"
           inkscape:connector-curvature="0"
           style="fill:#cfe4cf" /><path
           d="m 183.361,288.109 c 0.157,-0.018 0.289,-0.064 0.346,-0.104 0.058,-0.043 0.014,-0.092 0.014,-0.208 -0.007,-0.022 -0.021,-0.112 -0.066,-0.204 -0.009,-0.018 -0.197,-0.049 -0.211,-0.047 -0.142,0.023 -0.372,0.051 -0.382,0.079 -0.04,0.139 0.019,0.278 -0.032,0.417 -0.026,0.071 0.032,0.102 0.331,0.067 z"
           id="path187"
           inkscape:connector-curvature="0"
           style="fill:#cfe4cf" /><path
           d="m 182.708,290.72 c 0.073,-0.016 0.148,-0.032 0.238,-0.051 -0.076,-0.031 -0.159,-0.062 -0.238,-0.094 -0.075,0.017 -0.224,0.036 -0.212,0.048 0.035,0.033 0.136,0.065 0.212,0.097 z"
           id="path189"
           inkscape:connector-curvature="0"
           style="fill:#cfe4cf" /><path
           d="m 184.099,268.413 c -0.224,0.033 -0.5,0.075 -0.095,0.126 0.055,0.007 0.256,-0.04 0.389,-0.063 0,-0.021 0,-0.043 0,-0.065 -0.1,0 -0.228,-0.009 -0.294,0.002 z"
           id="path191"
           inkscape:connector-curvature="0"
           style="fill:#cfe4cf" /><path
           d="m 177.704,278.479 c -0.027,-0.029 -0.054,-0.058 -0.081,-0.087 -0.008,0.03 0.019,0.06 0.081,0.087 z"
           id="path193"
           inkscape:connector-curvature="0"
           style="fill:#cfe4cf" /><path
           d="m 183.044,293.4 c -0.075,-0.017 -0.166,-0.049 -0.223,-0.046 -0.158,0.008 -0.303,0.029 -0.453,0.046 0.075,0.016 0.15,0.031 0.24,0.052 0.143,-0.018 0.29,-0.035 0.436,-0.052 z"
           id="path195"
           inkscape:connector-curvature="0"
           style="fill:#cfe4cf" /><path
           d="m 184.731,297.238 c 0.082,-0.031 0.162,-0.063 0.241,-0.093 -0.092,-0.019 -0.166,-0.036 -0.241,-0.052 -0.075,0.033 -0.177,0.063 -0.21,0.098 -0.014,0.012 0.135,0.032 0.21,0.047 z"
           id="path197"
           inkscape:connector-curvature="0"
           style="fill:#cfe4cf" /><path
           d="m 183.033,288.115 c -0.05,-0.011 -0.218,-0.012 -0.285,-0.001 -0.221,0.034 -0.497,0.075 -0.092,0.126 0.053,0.006 0.255,-0.041 0.389,-0.063 -10e-4,-0.022 0.039,-0.052 -0.012,-0.062 z"
           id="path199"
           inkscape:connector-curvature="0"
           style="fill:#cfe4cf" /><path
           d="m 184.055,295.5 c 0.076,-0.016 0.151,-0.031 0.241,-0.052 -0.079,-0.03 -0.158,-0.061 -0.241,-0.093 -0.075,0.016 -0.224,0.035 -0.209,0.047 0.034,0.036 0.134,0.067 0.209,0.098 z"
           id="path201"
           inkscape:connector-curvature="0"
           style="fill:#cfe4cf" /><path
           d="m 182.803,266.263 c -0.013,-0.006 -0.164,-0.005 -0.218,0.003 -0.338,0.055 -0.34,0.209 0.023,0.233 0.109,0.007 0.337,-0.065 0.481,-0.095 -0.12,-0.063 -0.19,-0.103 -0.286,-0.141 z"
           id="path203"
           inkscape:connector-curvature="0"
           style="fill:#cfe4cf" /><path
           d="m 176.631,281.449 c 0.083,-0.031 0.163,-0.063 0.241,-0.094 -0.089,-0.02 -0.166,-0.035 -0.241,-0.052 -0.073,0.032 -0.175,0.063 -0.21,0.098 -0.011,0.013 0.137,0.032 0.21,0.048 z"
           id="path205"
           inkscape:connector-curvature="0"
           style="fill:#cfe4cf" /><path
           d="m 179.449,269.018 c -0.16,0.008 -0.305,0.029 -0.454,0.045 0.076,0.018 0.167,0.049 0.223,0.047 0.158,-0.008 0.303,-0.029 0.452,-0.047 -0.076,-0.016 -0.167,-0.047 -0.221,-0.045 z"
           id="path207"
           inkscape:connector-curvature="0"
           style="fill:#cfe4cf" /><path
           d="m 175.62,276.596 c 0.077,0.017 0.15,0.032 0.241,0.052 0.047,-0.005 0.098,-0.012 0.146,-0.018 -0.02,-0.022 -0.04,-0.044 -0.06,-0.066 -0.11,0.009 -0.219,0.02 -0.327,0.032 z"
           id="path209"
           inkscape:connector-curvature="0"
           style="fill:#cfe4cf" /><path
           d="m 176.169,285.602 c -0.034,-0.033 -0.138,-0.064 -0.211,-0.097 -0.074,0.017 -0.223,0.036 -0.211,0.048 0.034,0.034 0.137,0.064 0.211,0.097 0.074,-0.016 0.223,-0.036 0.211,-0.048 z"
           id="path211"
           inkscape:connector-curvature="0"
           style="fill:#cfe4cf" /><path
           d="m 175.62,302.961 c 0.149,0.018 0.294,0.035 0.436,0.051 0.091,-0.018 0.164,-0.035 0.241,-0.051 -0.15,-0.017 -0.295,-0.038 -0.454,-0.045 -0.056,-0.003 -0.146,0.028 -0.223,0.045 z"
           id="path213"
           inkscape:connector-curvature="0"
           style="fill:#cfe4cf" /><path
           d="m 180.352,259.656 c -0.047,0.013 -0.046,0.051 0.003,0.062 0.049,0.011 0.224,0.011 0.284,10e-4 0.126,-0.023 0.228,-0.055 0.306,-0.086 0.014,-0.006 -0.129,-0.029 -0.207,-0.046 -0.133,0.022 -0.28,0.042 -0.386,0.069 z"
           id="path215"
           inkscape:connector-curvature="0"
           style="fill:#cfe4cf" /><path
           d="m 175.958,302.454 c -0.112,0.036 -0.332,0.075 -0.314,0.109 0.032,0.062 0.202,0.12 0.314,0.181 0.136,-0.058 0.275,-0.115 0.39,-0.164 -0.164,-0.053 -0.276,-0.09 -0.39,-0.126 z"
           id="path217"
           inkscape:connector-curvature="0"
           style="fill:#cfe4cf" /><path
           d="m 182.033,261.893 c 0.074,-0.016 0.223,-0.035 0.211,-0.047 -0.035,-0.035 -0.137,-0.066 -0.211,-0.098 -0.076,0.016 -0.152,0.031 -0.24,0.052 0.076,0.03 0.157,0.061 0.24,0.093 z"
           id="path219"
           inkscape:connector-curvature="0"
           style="fill:#cfe4cf" /><path
           d="m 182.244,260.107 c -0.035,-0.035 -0.137,-0.065 -0.211,-0.098 -0.076,0.017 -0.225,0.035 -0.211,0.048 0.035,0.034 0.135,0.065 0.211,0.097 0.074,-0.015 0.222,-0.035 0.211,-0.047 z"
           id="path221"
           inkscape:connector-curvature="0"
           style="fill:#cfe4cf" /><path
           d="m 181.822,268.604 c 0.035,0.035 0.135,0.065 0.211,0.098 0.074,-0.016 0.148,-0.032 0.238,-0.052 -0.077,-0.03 -0.159,-0.062 -0.238,-0.093 -0.076,0.015 -0.225,0.035 -0.211,0.047 z"
           id="path223"
           inkscape:connector-curvature="0"
           style="fill:#cfe4cf" /><path
           d="m 180.013,268.268 c -0.1,0.027 -0.15,0.064 -0.223,0.098 0.295,0.016 0.641,0.059 0.868,0.038 0.211,-0.019 0.296,-0.104 0.415,-0.151 -0.161,-0.054 -0.27,-0.09 -0.379,-0.127 -0.076,0.014 -0.154,0.027 -0.229,0.044 -0.152,0.031 -0.323,0.061 -0.452,0.098 z"
           id="path225"
           inkscape:connector-curvature="0"
           style="fill:#cfe4cf" /><path
           d="m 175.958,291.59 c 0.081,-0.031 0.163,-0.063 0.238,-0.094 -0.089,-0.02 -0.165,-0.035 -0.238,-0.053 -0.074,0.033 -0.177,0.064 -0.211,0.098 -0.011,0.013 0.137,0.031 0.211,0.049 z"
           id="path227"
           inkscape:connector-curvature="0"
           style="fill:#cfe4cf" /><path
           d="m 180.049,259.721 c -0.221,0.034 -0.499,0.076 -0.092,0.127 0.052,0.007 0.253,-0.041 0.389,-0.063 0,-0.021 0,-0.044 0,-0.064 -0.103,0 -0.232,-0.01 -0.297,0 z"
           id="path229"
           inkscape:connector-curvature="0"
           style="fill:#cfe4cf" /><path
           d="m 181.357,263.775 c -0.075,0.017 -0.224,0.036 -0.211,0.049 0.034,0.033 0.136,0.064 0.211,0.096 0.075,-0.016 0.149,-0.031 0.24,-0.051 -0.078,-0.03 -0.159,-0.062 -0.24,-0.094 z"
           id="path231"
           inkscape:connector-curvature="0"
           style="fill:#cfe4cf" /><path
           d="m 163.553,270.653 c -0.376,0.118 0.237,0.199 0.548,0.294 0.158,0.047 0.02,0.137 0.055,0.206 0.023,0.043 0.115,0.119 0.192,0.12 0.958,0.012 1.567,0.259 2.633,0.181 0.237,0 0.457,10e-4 0.679,-0.001 0.469,-0.005 0.847,-0.137 0.514,-0.207 -0.523,-0.109 -0.754,-0.221 -0.65,-0.372 -0.898,0.015 -0.47,-0.177 -0.813,-0.239 -0.296,-0.053 -0.745,-0.068 -1.117,-0.104 -0.228,-0.022 -0.294,-0.121 -0.726,-0.037 -0.365,0.07 -1.057,0.08 -1.315,0.159 z"
           id="path233"
           inkscape:connector-curvature="0"
           style="fill:#cfe4cf" /><path
           d="m 166.626,260.906 c -0.16,0.007 -0.304,0.029 -0.453,0.045 0.076,0.016 0.166,0.048 0.221,0.045 0.16,-0.008 0.303,-0.029 0.455,-0.045 -0.076,-0.015 -0.168,-0.048 -0.223,-0.045 z"
           id="path235"
           inkscape:connector-curvature="0"
           style="fill:#cfe4cf" /><path
           d="m 165.401,261.8 c -0.09,-0.021 -0.166,-0.036 -0.239,-0.052 -0.075,0.031 -0.176,0.063 -0.211,0.098 -0.014,0.012 0.136,0.031 0.211,0.047 0.079,-0.032 0.161,-0.063 0.239,-0.093 z"
           id="path237"
           inkscape:connector-curvature="0"
           style="fill:#cfe4cf" /><path
           d="m 173.933,259.285 c -0.075,0.016 -0.148,0.032 -0.24,0.052 0.078,0.03 0.16,0.062 0.24,0.094 0.075,-0.017 0.225,-0.036 0.211,-0.048 -0.034,-0.034 -0.136,-0.066 -0.211,-0.098 z"
           id="path239"
           inkscape:connector-curvature="0"
           style="fill:#cfe4cf" /><path
           d="m 174.471,274.881 c -0.016,-0.019 -0.031,-0.037 -0.046,-0.055 -0.051,0.009 -0.103,0.02 -0.153,0.031 0.067,0.008 0.132,0.016 0.199,0.024 z"
           id="path241"
           inkscape:connector-curvature="0"
           style="fill:#cfe4cf" /><path
           d="m 162.799,262.689 c 0.075,0.016 0.166,0.047 0.221,0.045 0.159,-0.008 0.304,-0.029 0.454,-0.045 -0.075,-0.016 -0.168,-0.049 -0.222,-0.045 -0.16,0.008 -0.303,0.03 -0.453,0.045 z"
           id="path243"
           inkscape:connector-curvature="0"
           style="fill:#cfe4cf" /><path
           d="m 163.481,266.736 c 0.105,0.027 0.253,0.049 0.398,0.066 0.024,0.002 0.136,-0.028 0.215,-0.045 -0.104,-0.028 -0.198,-0.061 -0.326,-0.082 -0.062,-0.012 -0.234,-0.011 -0.283,0 -0.049,0.011 -0.054,0.048 -0.004,0.061 z"
           id="path245"
           inkscape:connector-curvature="0"
           style="fill:#cfe4cf" /><path
           d="m 175.389,257.425 c -0.075,0.002 -0.175,-0.003 -0.228,0.005 -0.335,0.055 -0.325,0.197 0.017,0.238 0.058,0.007 0.172,0.005 0.225,-0.004 0.339,-0.054 0.325,-0.196 -0.014,-0.239 z"
           id="path247"
           inkscape:connector-curvature="0"
           style="fill:#cfe4cf" /><path
           d="m 163.155,267.398 c 0.118,-0.004 0.458,-0.002 0.748,-0.027 0.135,-0.012 0.169,-0.078 0.245,-0.118 -0.914,0.016 -0.519,-0.167 -0.806,-0.247 -0.178,-0.05 -0.345,-0.05 -0.468,0.016 -0.116,0.063 -0.116,0.135 -0.253,0.194 -0.422,0.179 -0.438,0.178 0.534,0.182 z"
           id="path249"
           inkscape:connector-curvature="0"
           style="fill:#cfe4cf" /><path
           d="m 176.052,266.412 c 0.002,0.022 0.004,0.045 0.006,0.068 0.079,-0.009 0.159,-0.016 0.238,-0.024 -0.077,-0.017 -0.168,-0.048 -0.223,-0.046 -0.007,10e-4 -0.013,0.002 -0.021,0.002 z"
           id="path251"
           inkscape:connector-curvature="0"
           style="fill:#cfe4cf" /><path
           d="m 176.186,267.758 c 0.011,0.097 0.022,0.188 0.032,0.279 0.021,-0.009 0.055,-0.018 0.063,-0.027 0.055,-0.068 0.055,-0.142 0,-0.211 -0.011,-0.015 -0.055,-0.028 -0.095,-0.041 z"
           id="path253"
           inkscape:connector-curvature="0"
           style="fill:#cfe4cf" /><path
           d="m 175.748,255.422 c 0.034,0.034 0.137,0.064 0.211,0.098 0.073,-0.017 0.149,-0.033 0.238,-0.053 -0.075,-0.029 -0.157,-0.061 -0.238,-0.093 -0.075,0.017 -0.223,0.036 -0.211,0.048 z"
           id="path255"
           inkscape:connector-curvature="0"
           style="fill:#cfe4cf" /><path
           d="m 174.946,258.488 c 0.075,0.016 0.15,0.033 0.239,0.052 0.143,-0.017 0.289,-0.034 0.435,-0.052 -0.075,-0.016 -0.164,-0.049 -0.22,-0.045 -0.16,0.008 -0.304,0.03 -0.454,0.045 z"
           id="path257"
           inkscape:connector-curvature="0"
           style="fill:#cfe4cf" /><path
           d="m 176.971,262.689 c 0.074,0.016 0.165,0.047 0.222,0.045 0.157,-0.008 0.302,-0.029 0.452,-0.045 -0.075,-0.016 -0.166,-0.049 -0.223,-0.045 -0.157,0.008 -0.302,0.03 -0.451,0.045 z"
           id="path259"
           inkscape:connector-curvature="0"
           style="fill:#cfe4cf" /><path
           d="m 176.137,267.309 c 0.002,0.017 0.004,0.033 0.005,0.049 0.052,-0.011 0.105,-0.022 0.154,-0.034 -0.052,-0.005 -0.107,-0.01 -0.159,-0.015 z"
           id="path261"
           inkscape:connector-curvature="0"
           style="fill:#cfe4cf" /><path
           d="m 162.879,266.59 c -0.03,0.012 0.19,0.055 0.292,0.084 0.103,0 0.24,0.008 0.291,-0.003 0.051,-0.011 0.051,-0.047 0.004,-0.062 -0.156,-0.046 -0.347,-0.107 -0.587,-0.019 z"
           id="path263"
           inkscape:connector-curvature="0"
           style="fill:#cfe4cf" /><path
           d="m 178.32,268.339 c -0.074,-0.016 -0.166,-0.048 -0.222,-0.045 -0.157,0.007 -0.304,0.029 -0.453,0.045 0.074,0.017 0.166,0.048 0.224,0.046 0.157,-0.008 0.301,-0.03 0.451,-0.046 z"
           id="path265"
           inkscape:connector-curvature="0"
           style="fill:#cfe4cf" /><path
           d="m 167.07,300.688 c 0.158,-0.006 0.304,-0.029 0.453,-0.045 -0.074,-0.016 -0.167,-0.048 -0.223,-0.045 -0.158,0.008 -0.303,0.029 -0.451,0.045 0.074,0.015 0.163,0.048 0.221,0.045 z"
           id="path267"
           inkscape:connector-curvature="0"
           style="fill:#cfe4cf" /><path
           d="m 161.352,262.089 c -0.09,-0.019 -0.164,-0.035 -0.241,-0.051 -0.074,0.032 -0.175,0.063 -0.21,0.097 -0.013,0.012 0.136,0.031 0.21,0.048 0.082,-0.033 0.163,-0.064 0.241,-0.094 z"
           id="path269"
           inkscape:connector-curvature="0"
           style="fill:#cfe4cf" /><path
           d="m 165.625,303.371 c 0.034,0.033 0.137,0.064 0.211,0.098 0.073,-0.017 0.149,-0.033 0.239,-0.053 -0.076,-0.029 -0.159,-0.062 -0.239,-0.093 -0.075,0.016 -0.222,0.035 -0.211,0.048 z"
           id="path271"
           inkscape:connector-curvature="0"
           style="fill:#cfe4cf" /><path
           d="m 165.033,301.177 c -0.068,0.019 -0.208,0.037 -0.197,0.051 0.049,0.063 0.053,0.149 0.243,0.182 0.175,0.032 0.564,0.012 0.857,0.007 0.083,-0.002 0.224,-0.032 0.218,-0.047 -0.017,-0.044 -0.962,-0.198 -1.121,-0.193 z"
           id="path273"
           inkscape:connector-curvature="0"
           style="fill:#cfe4cf" /><path
           d="m 169.982,307.357 c 0.089,-0.019 0.165,-0.035 0.24,-0.051 -0.151,-0.017 -0.294,-0.037 -0.454,-0.045 -0.054,-0.003 -0.145,0.028 -0.221,0.045 0.146,0.018 0.294,0.036 0.435,0.051 z"
           id="path275"
           inkscape:connector-curvature="0"
           style="fill:#cfe4cf" /><path
           d="m 184.496,300.074 c 0.004,-0.012 0.007,-0.023 0.011,-0.035 -0.037,0.008 -0.079,0.017 -0.114,0.024 0.034,0.003 0.069,0.007 0.103,0.011 z"
           id="path277"
           inkscape:connector-curvature="0"
           style="fill:#cfe4cf" /><path
           d="m 166.032,256.432 c -0.043,0.021 -0.088,0.04 -0.131,0.061 0.09,-0.01 0.18,-0.021 0.273,-0.032 -0.049,-0.011 -0.095,-0.019 -0.142,-0.029 z"
           id="path279"
           inkscape:connector-curvature="0"
           style="fill:#cfe4cf" /><path
           d="m 162.558,304.461 c 0.091,-0.02 0.166,-0.035 0.241,-0.051 -0.15,-0.017 -0.295,-0.039 -0.453,-0.046 -0.056,-0.003 -0.147,0.029 -0.223,0.046 0.149,0.017 0.294,0.034 0.435,0.051 z"
           id="path281"
           inkscape:connector-curvature="0"
           style="fill:#cfe4cf" /><path
           d="m 161.744,301.004 c 0.127,-0.023 0.227,-0.055 0.306,-0.086 0.015,-0.005 -0.13,-0.029 -0.208,-0.046 -0.13,0.022 -0.281,0.042 -0.384,0.069 -0.049,0.014 -0.048,0.051 0.003,0.061 0.049,0.012 0.222,0.012 0.283,0.002 z"
           id="path283"
           inkscape:connector-curvature="0"
           style="fill:#cfe4cf" /><path
           d="m 160.551,295.473 c 0.057,0.004 0.149,-0.028 0.223,-0.045 -0.146,-0.018 -0.293,-0.034 -0.435,-0.051 -0.091,0.02 -0.165,0.035 -0.238,0.051 0.148,0.016 0.293,0.038 0.45,0.045 z"
           id="path285"
           inkscape:connector-curvature="0"
           style="fill:#cfe4cf" /><path
           d="m 161.007,262.594 c 0.058,0.006 0.173,0.004 0.223,-0.004 0.34,-0.055 0.326,-0.197 -0.011,-0.239 -0.077,10e-4 -0.177,-0.005 -0.228,0.005 -0.337,0.052 -0.326,0.197 0.016,0.238 z"
           id="path287"
           inkscape:connector-curvature="0"
           style="fill:#cfe4cf" /><path
           d="m 162.702,302.112 c -0.078,-0.03 -0.159,-0.062 -0.24,-0.093 -0.074,0.016 -0.223,0.035 -0.211,0.047 0.034,0.034 0.137,0.065 0.211,0.098 0.073,-0.016 0.149,-0.032 0.24,-0.052 z"
           id="path289"
           inkscape:connector-curvature="0"
           style="fill:#cfe4cf" /><path
           d="m 162.558,300.302 c -0.141,0.017 -0.286,0.034 -0.435,0.052 0.075,0.016 0.167,0.047 0.223,0.045 0.16,-0.008 0.303,-0.029 0.453,-0.045 -0.075,-0.017 -0.15,-0.033 -0.241,-0.052 z"
           id="path291"
           inkscape:connector-curvature="0"
           style="fill:#cfe4cf" /><path
           d="m 161.448,301.07 c 0,-0.021 0.04,-0.052 -0.01,-0.063 -0.049,-0.012 -0.218,-0.012 -0.285,-0.001 -0.222,0.033 -0.499,0.075 -0.094,0.126 0.056,0.008 0.258,-0.04 0.389,-0.062 z"
           id="path293"
           inkscape:connector-curvature="0"
           style="fill:#cfe4cf" /><path
           d="m 161.227,293.934 c -0.158,0.008 -0.302,0.029 -0.453,0.046 0.074,0.016 0.151,0.032 0.239,0.052 0.142,-0.018 0.29,-0.035 0.435,-0.052 -0.073,-0.017 -0.165,-0.048 -0.221,-0.046 z"
           id="path295"
           inkscape:connector-curvature="0"
           style="fill:#cfe4cf" /><path
           d="m 178.658,304.482 c 0.075,-0.017 0.223,-0.036 0.212,-0.048 -0.037,-0.034 -0.137,-0.065 -0.212,-0.098 -0.074,0.017 -0.15,0.032 -0.24,0.052 0.078,0.031 0.158,0.061 0.24,0.094 z"
           id="path297"
           inkscape:connector-curvature="0"
           style="fill:#cfe4cf" /></g><path
         d="m 180.916,284.636 c 0.037,-0.031 0.074,-0.063 0.108,-0.093 -0.04,-0.02 -0.074,-0.036 -0.108,-0.053 -0.033,0.033 -0.078,0.064 -0.094,0.098 -0.006,0.012 0.06,0.031 0.094,0.048 z m -8.002,-25.445 c 0.035,0.031 0.071,0.063 0.107,0.094 0.033,-0.016 0.102,-0.035 0.096,-0.048 -0.016,-0.034 -0.063,-0.064 -0.096,-0.097 -0.033,0.016 -0.066,0.033 -0.107,0.051 z m -0.178,-4.105 c -0.1,0.033 -0.224,0.075 -0.043,0.125 0.026,0.008 0.117,-0.039 0.177,-0.063 0,-0.021 0.017,-0.051 -0.005,-0.063 -0.023,-0.009 -0.098,-0.009 -0.129,0.001 z m 0.242,1.042 c -0.163,0.024 -0.162,0.179 -0.012,0.232 0.024,0.009 0.093,0.009 0.099,0.003 0.042,-0.037 0.074,-0.078 0.128,-0.141 -0.063,-0.029 -0.165,-0.101 -0.215,-0.094 z m 2.473,-0.319 c -0.034,0.016 -0.066,0.032 -0.108,0.052 0.035,0.03 0.072,0.062 0.108,0.093 0.034,-0.016 0.101,-0.035 0.095,-0.047 -0.016,-0.036 -0.061,-0.066 -0.095,-0.098 z m -0.158,-0.217 c 0.008,-0.143 0.014,-0.285 -0.004,-0.426 -0.003,-0.021 -0.119,-0.045 -0.192,-0.057 -0.021,-0.004 -0.092,0.029 -0.098,0.048 -0.014,0.047 -0.005,0.095 -0.005,0.142 0,0.095 -0.012,0.19 0.011,0.283 0.004,0.023 0.119,0.045 0.19,0.057 0.021,0.003 0.098,-0.031 0.098,-0.047 z m 1.321,6.998 c 0.07,-0.008 0.136,-0.029 0.203,-0.045 -0.034,-0.016 -0.075,-0.049 -0.101,-0.045 -0.07,0.008 -0.136,0.029 -0.202,0.045 0.034,0.016 0.074,0.047 0.1,0.045 z m -7.844,16.252 c 0.034,-0.016 0.101,-0.036 0.097,-0.048 -0.018,-0.034 -0.063,-0.065 -0.097,-0.097 -0.032,0.016 -0.101,0.035 -0.095,0.047 0.016,0.034 0.063,0.065 0.095,0.098 z m -0.354,-1.042 c 0.07,-0.007 0.135,-0.028 0.203,-0.045 -0.035,-0.016 -0.068,-0.032 -0.108,-0.052 -0.064,0.018 -0.13,0.034 -0.196,0.052 0.034,0.016 0.075,0.048 0.101,0.045 z m 8.25,-15.762 c -0.034,0.016 -0.102,0.036 -0.096,0.047 0.017,0.034 0.062,0.065 0.096,0.098 0.034,-0.017 0.068,-0.032 0.108,-0.052 -0.035,-0.029 -0.072,-0.062 -0.108,-0.093 z m -8.546,6.199 c 0.049,0.007 0.151,-0.065 0.215,-0.095 -0.055,-0.063 -0.084,-0.104 -0.128,-0.143 -0.005,-0.006 -0.075,-0.004 -0.098,0.004 -0.152,0.056 -0.153,0.21 0.011,0.234 z m 0.347,3.796 c -0.034,0.032 -0.079,0.063 -0.096,0.098 -0.006,0.012 0.062,0.031 0.096,0.047 0.035,-0.031 0.073,-0.063 0.107,-0.094 -0.039,-0.019 -0.074,-0.034 -0.107,-0.051 z m -0.722,-10.948 c -0.015,0.012 0.085,0.055 0.131,0.083 0.046,0 0.108,0.01 0.13,-0.002 0.022,-0.01 0.023,-0.047 0.002,-0.061 -0.07,-0.047 -0.157,-0.107 -0.263,-0.02 z m 1.025,6.747 c 0.034,-0.016 0.101,-0.035 0.097,-0.047 -0.018,-0.035 -0.063,-0.066 -0.097,-0.098 -0.032,0.016 -0.101,0.035 -0.095,0.048 0.016,0.034 0.063,0.065 0.095,0.097 z m -0.354,10.548 c 0.07,-0.007 0.137,-0.029 0.203,-0.046 -0.035,-0.016 -0.075,-0.047 -0.101,-0.045 -0.07,0.008 -0.135,0.029 -0.204,0.045 0.035,0.017 0.076,0.048 0.102,0.046 z m 0.451,-17.839 c -0.018,-0.033 -0.063,-0.064 -0.097,-0.097 -0.032,0.016 -0.101,0.036 -0.095,0.048 0.016,0.034 0.063,0.064 0.095,0.098 0.034,-0.017 0.101,-0.037 0.097,-0.049 z m 5.11,15.137 c -0.007,-0.005 -0.075,-0.004 -0.099,0.004 -0.152,0.055 -0.154,0.208 0.012,0.232 0.048,0.008 0.149,-0.064 0.215,-0.094 -0.055,-0.062 -0.086,-0.103 -0.128,-0.142 z m 0.866,0.701 c 0.034,-0.016 0.101,-0.035 0.095,-0.047 -0.015,-0.035 -0.061,-0.066 -0.095,-0.098 -0.033,0.016 -0.101,0.035 -0.095,0.047 0.016,0.034 0.062,0.066 0.095,0.098 z m 0.305,8.691 c 0.033,-0.016 0.065,-0.031 0.107,-0.051 -0.035,-0.031 -0.072,-0.063 -0.107,-0.094 -0.035,0.016 -0.102,0.035 -0.096,0.047 0.016,0.036 0.061,0.067 0.096,0.098 z m -7.094,-21.822 c 0.036,0.03 0.072,0.063 0.109,0.094 0.034,-0.017 0.102,-0.036 0.095,-0.049 -0.018,-0.033 -0.061,-0.064 -0.095,-0.097 -0.035,0.017 -0.067,0.033 -0.109,0.052 z m 6.529,12.283 c -0.063,0.016 -0.129,0.033 -0.196,0.051 0.034,0.017 0.076,0.048 0.102,0.045 0.071,-0.007 0.136,-0.028 0.203,-0.045 -0.034,-0.016 -0.067,-0.033 -0.109,-0.051 z m 1.171,11.278 c 0.034,-0.016 0.102,-0.035 0.095,-0.047 -0.016,-0.035 -0.061,-0.066 -0.095,-0.098 -0.034,0.017 -0.067,0.031 -0.108,0.051 0.035,0.031 0.071,0.062 0.108,0.094 z m -1.823,-5.794 c 0.035,-0.017 0.102,-0.036 0.096,-0.048 -0.015,-0.033 -0.061,-0.064 -0.096,-0.098 -0.033,0.016 -0.1,0.037 -0.094,0.049 0.017,0.033 0.061,0.064 0.094,0.097 z m 0.251,-1.911 c 0.022,0.009 0.067,0.004 0.103,0.005 0.151,-0.043 0.157,-0.187 0.006,-0.239 -0.023,-0.009 -0.075,-0.01 -0.102,-0.004 -0.155,0.04 -0.159,0.184 -0.007,0.238 z m 3.135,-18.349 c -0.063,0.017 -0.13,0.034 -0.196,0.052 0.033,0.016 0.075,0.047 0.101,0.045 0.071,-0.008 0.136,-0.029 0.203,-0.045 -0.035,-0.016 -0.068,-0.033 -0.108,-0.052 z m 0.261,0.413 c 0.033,-0.016 0.099,-0.035 0.093,-0.047 -0.015,-0.034 -0.06,-0.066 -0.093,-0.098 -0.035,0.016 -0.101,0.036 -0.096,0.049 0.015,0.033 0.06,0.065 0.096,0.096 z m 0.106,-5.162 c -0.04,-0.021 -0.073,-0.036 -0.106,-0.053 -0.035,0.032 -0.081,0.063 -0.096,0.098 -0.005,0.012 0.061,0.031 0.096,0.047 0.034,-0.032 0.071,-0.063 0.106,-0.092 z m -0.716,0.092 c -0.033,0.017 -0.065,0.033 -0.108,0.053 0.035,0.03 0.072,0.062 0.108,0.093 0.034,-0.017 0.102,-0.035 0.096,-0.048 -0.017,-0.034 -0.062,-0.065 -0.096,-0.098 z m 0.253,7.651 c 0.071,-0.007 0.136,-0.03 0.203,-0.046 -0.034,-0.016 -0.067,-0.031 -0.107,-0.051 -0.063,0.016 -0.13,0.034 -0.196,0.051 0.033,0.016 0.075,0.048 0.1,0.046 z m 0.328,6.678 c 0.058,-0.028 0.168,-0.055 0.171,-0.083 0.009,-0.14 0.062,-0.277 -0.23,-0.391 -0.163,-0.063 -0.074,-0.17 0.092,-0.244 0.049,-0.021 0.052,-0.066 0.074,-0.1 -0.136,-0.01 -0.322,-0.049 -0.4,-0.021 -0.278,0.101 -0.565,0.213 -0.503,0.313 0.005,0.009 0.004,0.017 0.008,0.026 0.09,0.129 0.184,0.25 0.284,0.36 0.188,0.029 0.383,0.05 0.504,0.14 z m 0.029,-7.665 c 0.033,-0.016 0.066,-0.032 0.106,-0.051 -0.035,-0.031 -0.072,-0.063 -0.106,-0.094 -0.035,0.016 -0.101,0.035 -0.096,0.048 0.015,0.034 0.06,0.064 0.096,0.097 z m 0.041,3.31 c 0.041,-0.019 0.076,-0.035 0.11,-0.051 -0.069,-0.016 -0.133,-0.038 -0.204,-0.045 -0.025,-0.003 -0.066,0.029 -0.101,0.045 0.068,0.018 0.132,0.036 0.195,0.051 z m -11.018,-7.097 c 0.063,-0.017 0.131,-0.034 0.195,-0.052 -0.034,-0.017 -0.074,-0.048 -0.1,-0.045 -0.071,0.007 -0.137,0.028 -0.204,0.045 0.034,0.016 0.068,0.032 0.109,0.052 z m -2.386,10.74 c -0.033,0.033 -0.079,0.063 -0.095,0.098 -0.006,0.012 0.062,0.031 0.095,0.047 0.036,-0.03 0.074,-0.063 0.108,-0.093 -0.039,-0.019 -0.074,-0.036 -0.108,-0.052 z m -0.563,4.471 c 0.041,-0.021 0.074,-0.035 0.108,-0.053 -0.067,-0.016 -0.133,-0.037 -0.203,-0.045 -0.026,-0.002 -0.067,0.029 -0.102,0.045 0.068,0.017 0.134,0.035 0.197,0.053 z m 0.215,-3.871 c -0.039,0.02 -0.073,0.036 -0.106,0.052 0.067,0.016 0.132,0.037 0.204,0.046 0.025,0.002 0.065,-0.03 0.1,-0.046 -0.067,-0.017 -0.133,-0.035 -0.198,-0.052 z m 0.046,0.849 c -0.034,0.016 -0.101,0.035 -0.095,0.047 0.015,0.035 0.061,0.066 0.095,0.098 0.034,-0.016 0.101,-0.035 0.094,-0.048 -0.017,-0.033 -0.06,-0.066 -0.094,-0.097 z m -0.961,0.75 c -0.144,0.078 -0.144,0.305 0,0.382 0.015,0.009 0.094,0.007 0.097,0.001 0.051,-0.061 0.093,-0.123 0.141,-0.191 -0.048,-0.068 -0.09,-0.131 -0.141,-0.191 -0.004,-0.007 -0.083,-0.009 -0.097,-0.001 z m 0.305,-0.629 c 0.026,0.006 0.079,0.004 0.101,-0.004 0.152,-0.054 0.146,-0.196 -0.006,-0.239 -0.034,0.001 -0.078,-0.003 -0.102,0.005 -0.151,0.054 -0.147,0.197 0.007,0.238 z m 0.199,-7.582 c 0.067,0.018 0.134,0.035 0.196,0.053 0.041,-0.02 0.074,-0.036 0.108,-0.053 -0.067,-0.016 -0.133,-0.037 -0.203,-0.045 -0.026,-0.003 -0.067,0.03 -0.101,0.045 z m 0.153,8.619 c 0.033,-0.016 0.101,-0.035 0.095,-0.047 -0.017,-0.034 -0.062,-0.064 -0.095,-0.098 -0.034,0.017 -0.068,0.033 -0.109,0.052 0.037,0.031 0.072,0.062 0.109,0.093 z m -0.349,-9.726 c 0.063,-0.017 0.131,-0.033 0.195,-0.051 -0.032,-0.016 -0.073,-0.049 -0.1,-0.045 -0.071,0.008 -0.136,0.029 -0.203,0.045 0.035,0.016 0.068,0.032 0.108,0.051 z m 0.044,-2.152 c -0.034,0.016 -0.066,0.032 -0.107,0.052 0.034,0.03 0.071,0.062 0.107,0.094 0.034,-0.017 0.102,-0.037 0.095,-0.049 -0.015,-0.033 -0.061,-0.064 -0.095,-0.097 z m -0.607,-0.145 c -0.033,0.017 -0.066,0.033 -0.107,0.053 0.033,0.029 0.071,0.061 0.107,0.093 0.034,-0.017 0.101,-0.036 0.095,-0.048 -0.016,-0.034 -0.061,-0.065 -0.095,-0.098 z m 0.912,15.066 c 0.033,-0.018 0.101,-0.036 0.095,-0.049 -0.017,-0.033 -0.062,-0.064 -0.095,-0.098 -0.034,0.018 -0.101,0.037 -0.096,0.049 0.016,0.035 0.062,0.065 0.096,0.098 z m 0,-4.491 c 0.033,-0.016 0.066,-0.032 0.107,-0.052 -0.035,-0.03 -0.072,-0.061 -0.107,-0.093 -0.034,0.017 -0.101,0.036 -0.096,0.048 0.016,0.034 0.062,0.065 0.096,0.097 z m 0.455,3.55 c -0.076,-0.025 -0.153,-0.049 -0.267,-0.084 -0.102,0.023 -0.222,0.055 -0.342,0.084 0.126,0.023 0.249,0.061 0.379,0.066 0.071,0.005 0.153,-0.043 0.23,-0.066 z m -0.348,-5.671 c -0.041,-0.019 -0.074,-0.036 -0.107,-0.052 -0.034,0.033 -0.08,0.063 -0.096,0.097 -0.005,0.013 0.062,0.032 0.096,0.048 0.035,-0.032 0.072,-0.063 0.107,-0.093 z m 1.974,-10.162 c -0.163,0.024 -0.162,0.179 -0.01,0.232 0.022,0.008 0.091,0.009 0.097,0.004 0.044,-0.038 0.075,-0.079 0.13,-0.142 -0.066,-0.03 -0.168,-0.102 -0.217,-0.094 z m 1.05,1.081 c -0.018,-0.033 -0.061,-0.064 -0.095,-0.098 -0.034,0.018 -0.101,0.037 -0.096,0.049 0.016,0.033 0.062,0.064 0.096,0.098 0.034,-0.018 0.102,-0.037 0.095,-0.049 z m -0.15,11.899 c 0.024,0.008 0.092,0.009 0.099,0.003 0.043,-0.037 0.073,-0.078 0.127,-0.142 -0.063,-0.029 -0.166,-0.102 -0.215,-0.095 -0.164,0.026 -0.163,0.181 -0.011,0.234 z m 7.803,15.96 c 0.022,0.01 0.101,0.01 0.127,0 0.057,-0.022 0.103,-0.053 0.138,-0.085 0.008,-0.006 -0.059,-0.029 -0.093,-0.046 -0.059,0.021 -0.127,0.043 -0.173,0.07 -0.022,0.013 -0.022,0.05 0.001,0.061 z m -7.748,-24.914 c 0.034,-0.017 0.102,-0.035 0.095,-0.048 -0.018,-0.034 -0.061,-0.065 -0.095,-0.098 -0.034,0.017 -0.101,0.036 -0.096,0.048 0.016,0.034 0.062,0.065 0.096,0.098 z m 0.151,-5.867 c -0.064,-0.018 -0.132,-0.034 -0.195,-0.051 -0.041,0.019 -0.075,0.035 -0.108,0.051 0.067,0.016 0.133,0.038 0.204,0.045 0.025,0.003 0.065,-0.029 0.099,-0.045 z m 0.759,23.686 c -0.033,0.016 -0.066,0.031 -0.106,0.051 0.033,0.03 0.071,0.063 0.106,0.094 0.034,-0.017 0.101,-0.035 0.095,-0.048 -0.016,-0.035 -0.061,-0.066 -0.095,-0.097 z m -1.365,-22.092 c 0.065,0.018 0.132,0.035 0.195,0.052 0.04,-0.019 0.075,-0.036 0.107,-0.052 -0.067,-0.017 -0.133,-0.037 -0.203,-0.046 -0.025,-0.002 -0.067,0.029 -0.099,0.046 z m -0.059,1.039 c -0.015,-0.034 -0.06,-0.065 -0.094,-0.098 -0.035,0.016 -0.101,0.035 -0.096,0.048 0.017,0.034 0.061,0.065 0.096,0.098 0.035,-0.017 0.101,-0.036 0.094,-0.048 z m -0.549,13.882 c 0.034,0.016 0.076,0.048 0.102,0.046 0.07,-0.008 0.135,-0.03 0.202,-0.046 -0.033,-0.017 -0.067,-0.032 -0.108,-0.052 -0.065,0.016 -0.13,0.035 -0.196,0.052 z m -0.207,-4.88 c 0.023,0.008 0.093,0.009 0.099,0.003 0.043,-0.038 0.073,-0.079 0.128,-0.142 -0.064,-0.029 -0.166,-0.102 -0.216,-0.095 -0.164,0.025 -0.162,0.179 -0.011,0.234 z m 2.769,-7.215 c -0.029,-0.01 -0.105,-0.01 -0.128,10e-4 -0.021,0.011 -0.023,0.048 -0.001,0.061 0.047,0.027 0.112,0.049 0.18,0.065 0.011,0.004 0.061,-0.027 0.096,-0.044 -0.049,-0.028 -0.089,-0.061 -0.147,-0.083 z m -1.247,14.512 c -0.024,-0.003 -0.066,0.029 -0.101,0.046 0.066,0.017 0.132,0.034 0.196,0.051 0.041,-0.019 0.073,-0.036 0.106,-0.051 -0.064,-0.017 -0.13,-0.039 -0.201,-0.046 z m -0.043,4.511 c 0.016,0.033 0.061,0.064 0.095,0.097 0.034,-0.016 0.067,-0.032 0.107,-0.052 -0.034,-0.03 -0.072,-0.062 -0.107,-0.094 -0.034,0.018 -0.102,0.038 -0.095,0.049 z m -0.816,-7.146 c 0.036,-0.031 0.072,-0.063 0.107,-0.094 -0.039,-0.02 -0.073,-0.035 -0.107,-0.051 -0.035,0.031 -0.079,0.063 -0.096,0.098 -0.005,0.012 0.06,0.031 0.096,0.047 z m -1.52,1.014 c -0.032,0.017 -0.1,0.036 -0.094,0.048 0.016,0.034 0.062,0.065 0.094,0.098 0.036,-0.017 0.069,-0.032 0.109,-0.052 -0.036,-0.031 -0.072,-0.062 -0.109,-0.094 z m 12.299,17.89 c 0.066,0.018 0.133,0.035 0.196,0.052 0.04,-0.019 0.074,-0.036 0.107,-0.052 -0.067,-0.016 -0.133,-0.037 -0.203,-0.045 -0.027,-0.003 -0.067,0.03 -0.1,0.045 z m 1.715,-35.976 c -0.063,0.018 -0.131,0.033 -0.196,0.052 0.033,0.016 0.074,0.048 0.1,0.044 0.071,-0.006 0.137,-0.028 0.203,-0.044 -0.033,-0.017 -0.067,-0.033 -0.107,-0.052 z m -0.438,11.184 c -0.016,0.023 0.137,0.073 0.199,0.103 0.13,-0.025 0.216,-0.041 0.295,-0.061 0.013,-0.004 0.01,-0.035 -0.007,-0.047 -0.112,-0.072 -0.435,-0.073 -0.487,0.005 z m 1.584,-4.414 c 0.023,0.007 0.114,-0.041 0.175,-0.063 0,-0.021 0.018,-0.051 -0.004,-0.063 -0.023,-0.011 -0.099,-0.011 -0.127,0 -0.1,0.033 -0.225,0.074 -0.044,0.126 z m 2.054,-0.08 c 0.017,0.034 0.061,0.064 0.096,0.097 0.034,-0.016 0.101,-0.035 0.095,-0.047 -0.017,-0.035 -0.061,-0.066 -0.095,-0.098 -0.036,0.016 -0.101,0.035 -0.096,0.048 z m -2.226,-4.197 c -0.041,-0.019 -0.074,-0.035 -0.108,-0.052 -0.033,0.033 -0.079,0.063 -0.095,0.098 -0.005,0.012 0.062,0.031 0.095,0.047 0.036,-0.032 0.073,-0.063 0.108,-0.093 z m -0.714,0.383 c -0.035,0.017 -0.102,0.035 -0.095,0.048 0.015,0.034 0.06,0.064 0.095,0.098 0.033,-0.018 0.1,-0.036 0.094,-0.049 -0.016,-0.034 -0.061,-0.065 -0.094,-0.097 z m -16.397,6.953 c -0.035,0.017 -0.101,0.036 -0.096,0.048 0.015,0.034 0.061,0.065 0.096,0.098 0.032,-0.017 0.065,-0.032 0.106,-0.052 -0.035,-0.031 -0.071,-0.062 -0.106,-0.094 z m 19.584,1.087 c -0.066,-0.016 -0.133,-0.037 -0.204,-0.045 -0.024,-0.004 -0.066,0.029 -0.1,0.045 0.067,0.018 0.132,0.034 0.195,0.052 0.043,-0.021 0.075,-0.037 0.109,-0.052 z m 0.153,1.23 c 0.032,-0.016 0.066,-0.031 0.107,-0.051 -0.035,-0.03 -0.073,-0.063 -0.107,-0.094 -0.035,0.017 -0.102,0.036 -0.096,0.048 0.016,0.035 0.061,0.066 0.096,0.097 z m 0.108,-8.598 c -0.035,-0.03 -0.073,-0.062 -0.107,-0.093 -0.035,0.016 -0.102,0.035 -0.096,0.047 0.016,0.034 0.061,0.065 0.096,0.097 0.032,-0.015 0.066,-0.031 0.107,-0.051 z m -0.412,1.645 c -0.035,0.033 -0.079,0.064 -0.096,0.098 -0.005,0.012 0.061,0.031 0.096,0.048 0.036,-0.032 0.072,-0.063 0.107,-0.093 -0.041,-0.02 -0.073,-0.036 -0.107,-0.053 z m 0.304,-0.724 c 0.032,-0.017 0.1,-0.036 0.094,-0.048 -0.016,-0.033 -0.062,-0.064 -0.094,-0.098 -0.035,0.017 -0.102,0.035 -0.096,0.048 0.016,0.035 0.061,0.066 0.096,0.098 z m 0.912,-0.723 c -0.046,0.027 -0.068,0.064 -0.1,0.098 0.1,0.012 0.208,0.032 0.302,0.036 -0.036,-0.06 -0.068,-0.122 -0.105,-0.181 -0.033,0.014 -0.069,0.029 -0.097,0.047 z m -0.61,8.836 c -0.033,0.016 -0.1,0.035 -0.094,0.047 0.016,0.035 0.061,0.065 0.094,0.098 0.035,-0.016 0.101,-0.035 0.096,-0.048 -0.016,-0.035 -0.061,-0.064 -0.096,-0.097 z m 0.912,-1.16 c -0.035,0.017 -0.068,0.032 -0.109,0.052 0.036,0.029 0.072,0.062 0.109,0.094 0.033,-0.018 0.102,-0.037 0.094,-0.049 -0.017,-0.033 -0.061,-0.064 -0.094,-0.097 z m -4.048,-2.222 c 0.004,0.019 0.063,0.034 0.1,0.05 0.035,-0.016 0.092,-0.031 0.102,-0.051 0.03,-0.066 0.045,-0.134 0.051,-0.15 0,-0.075 0.016,-0.102 -0.002,-0.121 -0.041,-0.039 -0.1,-0.074 -0.15,-0.111 -0.051,0.037 -0.14,0.072 -0.144,0.11 -0.009,0.09 0.018,0.182 0.043,0.273 z m -15.689,28.587 c 0.033,-0.016 0.101,-0.035 0.095,-0.047 -0.017,-0.035 -0.062,-0.065 -0.095,-0.098 -0.034,0.016 -0.101,0.036 -0.096,0.048 0.017,0.034 0.062,0.065 0.096,0.097 z m -0.662,-26.682 c 0.024,0.008 0.092,0.01 0.099,0.004 0.043,-0.037 0.073,-0.078 0.128,-0.142 -0.064,-0.029 -0.167,-0.103 -0.216,-0.095 -0.166,0.025 -0.164,0.179 -0.011,0.233 z m 9.927,-12.059 c -0.021,0.014 -0.021,0.05 0.002,0.061 0.021,0.011 0.1,0.012 0.126,0.001 0.058,-0.022 0.104,-0.055 0.14,-0.085 0.005,-0.006 -0.06,-0.03 -0.095,-0.047 -0.059,0.024 -0.128,0.043 -0.173,0.07 z m 6.828,4.264 c -0.033,0.032 -0.079,0.063 -0.095,0.098 -0.007,0.012 0.062,0.031 0.095,0.048 0.036,-0.032 0.073,-0.063 0.108,-0.094 -0.04,-0.02 -0.074,-0.036 -0.108,-0.052 z m -16.842,44.437 c 0.015,0.062 0.09,0.12 0.141,0.181 0.062,-0.057 0.124,-0.114 0.176,-0.162 -0.073,-0.055 -0.125,-0.091 -0.176,-0.127 -0.051,0.035 -0.15,0.074 -0.141,0.108 z m -0.372,-2.04 c -0.016,-0.034 -0.061,-0.065 -0.093,-0.098 -0.035,0.017 -0.069,0.032 -0.109,0.052 0.035,0.03 0.071,0.062 0.109,0.094 0.032,-0.017 0.099,-0.037 0.093,-0.048 z m 0.209,-6.617 c 0.034,-0.015 0.101,-0.035 0.095,-0.047 -0.016,-0.034 -0.061,-0.065 -0.095,-0.097 -0.033,0.016 -0.066,0.031 -0.107,0.051 0.033,0.03 0.071,0.062 0.107,0.093 z m 14.221,-39.427 c 0.017,0.009 0.095,0.006 0.1,0 0.05,-0.062 0.092,-0.124 0.139,-0.191 -0.017,-0.024 -0.034,-0.046 -0.05,-0.07 -0.076,-0.02 -0.144,-0.045 -0.22,-0.064 -0.086,0.099 -0.091,0.259 0.031,0.325 z m 2.939,6.915 c -0.021,0.014 -0.02,0.051 0.001,0.063 0.022,0.01 0.102,0.011 0.129,0 0.057,-0.023 0.103,-0.055 0.137,-0.086 0.005,-0.005 -0.06,-0.029 -0.094,-0.045 -0.058,0.022 -0.126,0.042 -0.173,0.068 z m 0.295,-2.326 c 0.008,-0.189 0.012,-0.38 -0.003,-0.57 -0.002,-0.021 -0.119,-0.044 -0.191,-0.057 -0.021,-0.003 -0.096,0.03 -0.1,0.049 -0.011,0.07 -0.005,0.142 -0.005,0.213 0,0.119 -0.01,0.238 0.01,0.356 0.003,0.021 0.118,0.045 0.191,0.057 0.022,0.002 0.098,-0.031 0.098,-0.048 z m -0.102,2.08 c 0.039,-0.02 0.073,-0.036 0.107,-0.052 -0.068,-0.017 -0.133,-0.038 -0.204,-0.045 -0.026,-0.003 -0.065,0.028 -0.101,0.045 0.067,0.017 0.135,0.034 0.198,0.052 z m 0.177,7.164 c -0.023,0.017 0.042,0.069 0.087,0.098 0.02,0.012 0.097,0.002 0.146,0.002 0.307,0.002 0.434,-0.195 0.782,-0.161 0.016,0.002 0.157,-0.136 0.113,-0.179 -0.078,-0.082 -0.249,-0.145 -0.388,-0.213 -0.017,-0.008 -0.068,-10e-4 -0.104,-10e-4 -0.033,0.018 -0.098,0.037 -0.095,0.053 0.049,0.205 -0.352,0.27 -0.541,0.401 z m 0.939,-5.377 c -0.151,0.053 -0.153,0.207 0.012,0.232 0.049,0.007 0.15,-0.065 0.216,-0.095 -0.057,-0.063 -0.086,-0.104 -0.129,-0.142 -0.007,-0.005 -0.075,-0.005 -0.099,0.005 z m -0.155,3.836 c -0.016,-0.035 -0.062,-0.065 -0.096,-0.098 -0.033,0.016 -0.1,0.036 -0.094,0.048 0.016,0.034 0.061,0.064 0.094,0.097 0.035,-0.016 0.102,-0.036 0.096,-0.047 z m -3.386,-12.291 c 0.021,0.003 0.092,-0.029 0.098,-0.048 0.003,-0.011 0,-0.023 10e-4,-0.034 -0.095,-0.031 -0.196,-0.057 -0.293,-0.085 10e-4,0.038 -0.007,0.076 10e-4,0.113 0.007,0.02 0.121,0.042 0.193,0.054 z m -3.042,1.453 c 0.041,-0.02 0.074,-0.036 0.108,-0.053 -0.067,-0.016 -0.132,-0.036 -0.203,-0.045 -0.025,-0.002 -0.067,0.029 -0.102,0.045 0.069,0.019 0.134,0.036 0.197,0.053 z m -4.599,19.867 c 0.035,-0.017 0.068,-0.033 0.109,-0.053 -0.035,-0.029 -0.072,-0.061 -0.109,-0.092 -0.032,0.016 -0.1,0.035 -0.093,0.047 0.015,0.034 0.061,0.065 0.093,0.098 z m 0.77,7.062 c 0.015,0.062 0.092,0.121 0.142,0.181 0.051,-0.06 0.102,-0.12 0.151,-0.18 -0.05,-0.037 -0.101,-0.073 -0.151,-0.109 -0.05,0.035 -0.149,0.074 -0.142,0.108 z m 1.511,-10.911 c 0.048,0.027 0.114,0.048 0.18,0.065 0.013,0.003 0.06,-0.027 0.097,-0.045 -0.048,-0.027 -0.089,-0.06 -0.147,-0.082 -0.027,-0.01 -0.105,-0.01 -0.127,0 -0.022,0.012 -0.024,0.05 -0.003,0.062 z m -0.111,7.16 c 0.041,-0.02 0.074,-0.035 0.109,-0.052 -0.068,-0.017 -0.134,-0.038 -0.205,-0.046 -0.024,-0.002 -0.064,0.029 -0.1,0.046 0.068,0.017 0.132,0.034 0.196,0.052 z m 2.807,-19.479 c 0.006,-0.005 -0.059,-0.029 -0.093,-0.045 -0.04,0.015 -0.08,0.032 -0.119,0.048 0.023,0.026 0.043,0.056 0.065,0.083 0.002,0 0.006,0 0.008,-0.001 0.059,-0.022 0.103,-0.054 0.139,-0.085 z m -5.262,6.885 c -0.013,-0.037 -0.023,-0.073 -0.035,-0.11 -0.038,0.017 -0.072,0.042 -0.104,0.063 -0.004,0.003 0.056,0.038 0.096,0.045 0.015,0.002 0.028,0 0.043,0.002 z m 6.217,-8.79 c -0.002,0.036 0.092,0.073 0.144,0.11 0.05,-0.037 0.142,-0.074 0.142,-0.11 -0.005,-0.062 -0.067,-0.123 -0.142,-0.245 -0.078,0.123 -0.141,0.183 -0.144,0.245 z m -2.591,21.983 c 0.033,-0.031 0.08,-0.063 0.095,-0.097 0.006,-0.012 -0.062,-0.032 -0.095,-0.048 -0.035,0.031 -0.073,0.063 -0.108,0.094 0.04,0.02 0.075,0.036 0.108,0.051 z m -0.16,-1.37 c -0.003,-0.02 -0.124,-0.041 -0.196,-0.052 -0.021,-0.002 -0.089,0.03 -0.094,0.049 -0.014,0.047 -0.005,0.095 -0.005,0.143 0,0.094 -0.013,0.189 0.01,0.283 0.005,0.021 0.122,0.041 0.194,0.052 0.022,0.003 0.094,-0.03 0.095,-0.048 0.007,-0.143 0.012,-0.285 -0.004,-0.427 z m 1.659,-21.95 c -0.027,-0.012 -0.104,-0.01 -0.127,0 -0.023,0.012 -0.023,0.049 -0.001,0.061 0.047,0.027 0.113,0.05 0.179,0.066 0.01,0.004 0.061,-0.027 0.096,-0.045 -0.048,-0.027 -0.089,-0.06 -0.147,-0.082 z m -0.331,30.683 c 0.025,0.008 0.078,0.006 0.101,-0.002 0.153,-0.055 0.147,-0.197 -0.006,-0.24 -0.034,0.002 -0.078,-0.004 -0.103,0.005 -0.152,0.054 -0.148,0.198 0.008,0.237 z m -2.031,-14.873 c -0.035,0.002 -0.079,-0.004 -0.102,0.004 -0.152,0.055 -0.148,0.199 0.006,0.239 0.026,0.007 0.078,0.005 0.101,-0.004 0.153,-0.053 0.148,-0.196 -0.005,-0.239 z m -0.199,3.381 c 0.064,0.018 0.131,0.035 0.194,0.053 0.042,-0.02 0.075,-0.035 0.108,-0.053 -0.066,-0.016 -0.133,-0.037 -0.203,-0.045 -0.025,-0.002 -0.066,0.03 -0.099,0.045 z m -0.011,-4.179 c -0.011,-0.031 -0.104,-0.056 -0.171,-0.078 -0.004,-0.003 -0.092,0.029 -0.095,0.046 -0.016,0.138 -0.031,0.275 -0.021,0.413 0.003,0.036 0.082,0.084 0.153,0.103 0.133,0.034 0.173,0.005 0.147,-0.066 -0.023,-0.068 -0.004,-0.139 -0.004,-0.208 0.002,-0.072 0.019,-0.142 -0.009,-0.21 z m 0.675,8.502 c 0.016,0.033 0.061,0.064 0.094,0.097 0.033,-0.017 0.067,-0.032 0.109,-0.052 -0.036,-0.029 -0.074,-0.062 -0.109,-0.093 -0.033,0.016 -0.1,0.036 -0.094,0.048 z m -2.335,-25.834 c -0.034,0.032 -0.079,0.063 -0.095,0.097 -0.006,0.012 0.061,0.031 0.095,0.048 0.037,-0.031 0.073,-0.063 0.107,-0.094 -0.039,-0.018 -0.074,-0.034 -0.107,-0.051 z m 5.77,33.173 c 0.033,-0.016 0.067,-0.031 0.107,-0.052 -0.034,-0.03 -0.071,-0.062 -0.107,-0.093 -0.033,0.016 -0.1,0.035 -0.096,0.047 0.017,0.035 0.063,0.067 0.096,0.098 z m 0.152,-0.509 c 0,-0.048 0.009,-0.096 -0.005,-0.142 -0.006,-0.019 -0.078,-0.051 -0.098,-0.048 -0.072,0.012 -0.187,0.032 -0.193,0.055 -0.021,0.094 -0.014,0.188 -0.004,0.282 0.001,0.017 0.077,0.051 0.098,0.047 0.072,-0.011 0.172,-0.028 0.191,-0.056 0.035,-0.041 0.011,-0.092 0.011,-0.138 z m -0.608,4.927 c -0.021,-0.006 -0.042,-0.011 -0.064,-0.017 0.004,0.014 0.009,0.027 0.012,0.041 0.019,-0.01 0.034,-0.015 0.052,-0.024 z m -6.884,-13.136 c 0.071,-0.008 0.137,-0.029 0.204,-0.045 -0.033,-0.017 -0.067,-0.033 -0.107,-0.053 -0.064,0.018 -0.13,0.035 -0.196,0.053 0.034,0.015 0.074,0.047 0.099,0.045 z m 7.923,5.679 c -0.086,-0.015 -0.192,-0.004 -0.291,-0.004 -0.194,0 -0.391,-0.005 -0.585,0.006 -0.044,0.002 -0.116,0.084 -0.108,0.087 0.187,0.065 0.261,0.2 0.558,0.199 0.298,-0.001 0.365,-0.14 0.562,-0.199 -0.045,-0.03 -0.078,-0.077 -0.136,-0.089 z m -2.112,-29.261 c -0.289,-0.021 -0.071,0.094 -0.142,0.129 0,0.074 -0.019,0.145 0.007,0.211 0.013,0.03 0.109,0.055 0.174,0.077 0.006,0.003 0.089,-0.028 0.093,-0.046 0.019,-0.09 0.037,-0.182 0.021,-0.27 -0.005,-0.037 -0.088,-0.096 -0.153,-0.101 z m 1.069,42.957 c -0.011,-0.008 -0.025,-0.012 -0.038,-0.02 -0.007,0.027 -0.015,0.055 -0.023,0.083 0.022,0 0.043,0 0.064,0 0.001,-0.022 0.019,-0.05 -0.003,-0.063 z m 0.105,0.761 c 0.072,-0.012 0.167,-0.029 0.196,-0.057 0.062,-0.059 0.048,-0.144 0.133,-0.188 0.15,-0.078 0.251,-0.158 0.14,-0.248 -0.1,-0.08 -0.272,-0.141 -0.422,-0.204 -0.029,-0.013 -0.142,-0.002 -0.142,-0.002 -0.007,0.12 -0.007,0.24 -0.007,0.36 0,0.096 -0.004,0.193 0.006,0.289 0.003,0.019 0.077,0.052 0.096,0.05 z m -1.796,-12.16 c 0.027,0.008 0.117,-0.04 0.176,-0.063 0,-0.021 0.019,-0.051 -0.005,-0.063 -0.022,-0.011 -0.098,-0.011 -0.128,0 -0.1,0.034 -0.224,0.075 -0.043,0.126 z m 0.212,-31.645 c -0.014,0.012 0.086,0.056 0.134,0.083 0.043,0 0.106,0.01 0.129,-0.002 0.022,-0.01 0.022,-0.047 0.002,-0.061 -0.069,-0.047 -0.157,-0.107 -0.265,-0.02 z m -5.043,0.229 c -0.035,0.016 -0.069,0.031 -0.103,0.047 -0.069,0.033 -0.146,0.063 -0.204,0.1 -0.043,0.027 -0.064,0.064 -0.095,0.098 0.085,0.015 0.168,0.029 0.253,0.045 0.235,-0.007 0.323,-0.054 0.29,-0.178 -0.007,-0.04 -0.091,-0.075 -0.141,-0.112 z m 5.043,1.219 c -0.014,0.012 0.086,0.056 0.134,0.084 0.043,0 0.106,0.009 0.129,-0.003 0.022,-0.011 0.022,-0.046 0.002,-0.06 -0.069,-0.048 -0.157,-0.107 -0.265,-0.021 z m 2.494,30.242 c -0.027,-0.002 -0.067,0.029 -0.101,0.046 0.066,0.017 0.133,0.034 0.196,0.051 0.04,-0.019 0.074,-0.035 0.107,-0.051 -0.066,-0.017 -0.131,-0.038 -0.202,-0.046 z m -7.398,-25.922 c -0.003,-0.063 -0.065,-0.123 -0.142,-0.245 -0.075,0.122 -0.139,0.183 -0.144,0.245 0,0.035 0.093,0.073 0.144,0.109 0.051,-0.036 0.145,-0.074 0.142,-0.109 z m -0.293,1.196 c 0.034,0.017 0.066,0.033 0.107,0.053 0.063,-0.018 0.131,-0.035 0.196,-0.053 -0.034,-0.016 -0.075,-0.047 -0.101,-0.045 -0.07,0.007 -0.136,0.029 -0.202,0.045 z m -7.44,2.246 c -0.033,0.016 -0.101,0.035 -0.095,0.048 0.016,0.034 0.062,0.064 0.095,0.097 0.034,-0.016 0.101,-0.035 0.096,-0.047 -0.017,-0.036 -0.062,-0.066 -0.096,-0.098 z m 16.746,37.498 c 0.04,-0.02 0.074,-0.035 0.106,-0.051 -0.066,-0.017 -0.132,-0.039 -0.203,-0.046 -0.025,-0.003 -0.066,0.029 -0.1,0.046 0.066,0.016 0.133,0.034 0.197,0.051 z m -0.549,-6.838 c -0.001,-0.016 0.009,-0.037 -0.01,-0.049 -0.111,-0.071 -0.414,-0.07 -0.499,0.004 -0.014,0.013 -0.009,0.037 0.008,0.049 0.112,0.072 0.413,0.069 0.501,-0.004 z m 0.409,6.037 c 0.016,0.034 0.061,0.065 0.095,0.098 0.034,-0.016 0.068,-0.032 0.108,-0.053 -0.035,-0.029 -0.071,-0.061 -0.108,-0.092 -0.034,0.016 -0.101,0.035 -0.095,0.047 z m 0.052,1.235 c 0.063,-0.017 0.13,-0.034 0.194,-0.052 -0.032,-0.016 -0.073,-0.049 -0.1,-0.045 -0.07,0.008 -0.136,0.029 -0.203,0.045 0.034,0.016 0.068,0.034 0.109,0.052 z m 0.499,1.108 c -0.034,-0.017 -0.074,-0.048 -0.1,-0.046 -0.07,0.008 -0.137,0.029 -0.205,0.046 0.033,0.016 0.076,0.048 0.102,0.046 0.07,-0.008 0.136,-0.03 0.203,-0.046 z m -0.044,-21.605 c -0.04,-0.021 -0.074,-0.036 -0.107,-0.053 -0.035,0.032 -0.08,0.063 -0.095,0.098 -0.007,0.012 0.06,0.031 0.095,0.047 0.035,-0.031 0.072,-0.063 0.107,-0.092 z m -0.107,16.752 c 0.033,-0.016 0.067,-0.033 0.107,-0.052 -0.035,-0.03 -0.072,-0.062 -0.107,-0.093 -0.035,0.016 -0.102,0.035 -0.095,0.047 0.014,0.036 0.059,0.065 0.095,0.098 z m -0.253,-18.371 c -0.07,0.008 -0.136,0.029 -0.203,0.047 0.033,0.016 0.074,0.047 0.1,0.045 0.071,-0.008 0.137,-0.029 0.203,-0.045 -0.033,-0.017 -0.074,-0.049 -0.1,-0.047 z m 4.807,11.707 c 0.033,-0.032 0.077,-0.063 0.094,-0.098 0.008,-0.012 -0.061,-0.031 -0.094,-0.047 -0.037,0.031 -0.073,0.063 -0.109,0.094 0.041,0.019 0.074,0.035 0.109,0.051 z m -1.165,-6.783 c -0.073,0.012 -0.188,0.033 -0.193,0.055 -0.021,0.094 -0.014,0.188 -0.005,0.282 0.003,0.017 0.077,0.05 0.099,0.047 0.072,-0.011 0.172,-0.028 0.192,-0.056 0.033,-0.041 0.009,-0.092 0.009,-0.139 0,-0.048 0.011,-0.096 -0.005,-0.142 -0.006,-0.018 -0.075,-0.05 -0.097,-0.047 z m -2.175,-4.226 c 0.035,-0.032 0.071,-0.063 0.106,-0.095 -0.039,-0.018 -0.074,-0.034 -0.106,-0.051 -0.034,0.033 -0.08,0.063 -0.096,0.098 -0.006,0.012 0.062,0.032 0.096,0.048 z m -0.608,23.323 c 0.034,-0.032 0.079,-0.063 0.095,-0.098 0.006,-0.012 -0.061,-0.032 -0.095,-0.048 -0.037,0.032 -0.074,0.063 -0.107,0.094 0.039,0.019 0.074,0.035 0.107,0.052 z m -0.399,-4.298 c 0.017,0.033 0.063,0.064 0.097,0.097 0.032,-0.017 0.066,-0.032 0.107,-0.052 -0.035,-0.03 -0.072,-0.062 -0.107,-0.094 -0.035,0.016 -0.102,0.036 -0.097,0.049 z m -0.512,-11.203 c -0.034,0.017 -0.101,0.037 -0.095,0.049 0.016,0.033 0.061,0.064 0.095,0.096 0.034,-0.016 0.068,-0.031 0.108,-0.051 -0.035,-0.031 -0.071,-0.062 -0.108,-0.094 z m 0.749,0.866 c -0.067,0.019 -0.252,0.042 -0.278,0.087 -0.051,0.087 -0.025,0.186 -0.006,0.278 0.005,0.019 0.168,0.052 0.192,0.042 0.146,-0.061 0.286,-0.126 0.401,-0.199 0.104,-0.065 -0.061,-0.196 -0.309,-0.208 z m -18.014,-26.093 c 0.041,-0.019 0.075,-0.034 0.109,-0.051 -0.068,-0.016 -0.134,-0.038 -0.204,-0.045 -0.025,-0.003 -0.066,0.029 -0.1,0.045 0.066,0.018 0.132,0.035 0.195,0.051 z m 0.052,-2.778 c -0.017,-0.034 -0.062,-0.065 -0.095,-0.097 -0.033,0.016 -0.1,0.035 -0.096,0.047 0.017,0.034 0.063,0.064 0.096,0.098 0.033,-0.017 0.101,-0.037 0.095,-0.048 z m 0.208,10.187 c 0.035,-0.017 0.101,-0.036 0.096,-0.048 -0.016,-0.033 -0.061,-0.064 -0.096,-0.097 -0.033,0.016 -0.065,0.032 -0.107,0.052 0.034,0.03 0.071,0.062 0.107,0.093 z m 2.984,22.861 c 0.073,-0.008 0.137,-0.028 0.205,-0.045 -0.034,-0.016 -0.075,-0.047 -0.102,-0.045 -0.07,0.007 -0.135,0.029 -0.203,0.045 0.036,0.016 0.077,0.047 0.1,0.045 z m -2.773,-28.123 c 0.112,0.073 0.412,0.07 0.501,-0.003 -0.003,-0.016 0.008,-0.037 -0.009,-0.048 -0.115,-0.073 -0.414,-0.071 -0.5,0.003 -0.016,0.012 -0.011,0.038 0.008,0.048 z m -0.115,2.898 c -0.016,-0.035 -0.061,-0.066 -0.096,-0.098 -0.033,0.016 -0.1,0.035 -0.095,0.047 0.017,0.035 0.062,0.064 0.095,0.098 0.035,-0.016 0.101,-0.035 0.096,-0.047 z m -1.265,-5.582 c -0.064,0.016 -0.131,0.034 -0.196,0.051 0.034,0.016 0.074,0.049 0.1,0.047 0.071,-0.008 0.137,-0.031 0.204,-0.047 -0.034,-0.016 -0.068,-0.032 -0.108,-0.051 z m 16.865,29.144 c 0.015,0.033 0.061,0.064 0.094,0.097 0.035,-0.017 0.102,-0.036 0.095,-0.048 -0.016,-0.033 -0.06,-0.065 -0.095,-0.098 -0.033,0.016 -0.1,0.037 -0.094,0.049 z m 0.094,-9.609 c -0.033,0.016 -0.1,0.036 -0.094,0.047 0.015,0.035 0.061,0.066 0.094,0.099 0.035,-0.017 0.069,-0.032 0.108,-0.052 -0.035,-0.03 -0.072,-0.063 -0.108,-0.094 z m -2.992,19.246 c 0.042,-0.02 0.075,-0.036 0.107,-0.052 -0.065,-0.017 -0.132,-0.038 -0.203,-0.046 -0.025,-0.002 -0.066,0.029 -0.101,0.046 0.067,0.017 0.133,0.035 0.197,0.052 z m -6.582,-2.767 c 0.007,-0.033 -0.091,-0.072 -0.143,-0.109 -0.05,0.037 -0.101,0.073 -0.175,0.127 0.052,0.049 0.114,0.105 0.175,0.163 0.052,-0.06 0.127,-0.119 0.143,-0.181 z m -0.599,-0.617 c 0.035,0.016 0.076,0.048 0.101,0.046 0.073,-0.008 0.138,-0.029 0.205,-0.046 -0.035,-0.017 -0.075,-0.048 -0.101,-0.045 -0.071,0.007 -0.136,0.029 -0.205,0.045 z m 1.419,0.046 c 0.025,0.002 0.065,-0.03 0.101,-0.046 -0.066,-0.018 -0.133,-0.034 -0.196,-0.052 -0.039,0.02 -0.073,0.035 -0.108,0.052 0.068,0.016 0.133,0.038 0.203,0.046 z m 5.11,4.373 c 0.034,-0.017 0.102,-0.036 0.094,-0.049 -0.015,-0.033 -0.06,-0.064 -0.094,-0.096 -0.035,0.016 -0.1,0.034 -0.096,0.047 0.018,0.035 0.061,0.065 0.096,0.098 z m 3.95,-17.529 c -0.038,0.032 -0.074,0.064 -0.109,0.094 0.041,0.02 0.074,0.035 0.109,0.052 0.033,-0.032 0.078,-0.063 0.093,-0.097 0.005,-0.013 -0.06,-0.032 -0.093,-0.049 z m 6.423,5.818 c -0.034,0 -0.079,-0.004 -0.103,0.004 -0.152,0.055 -0.148,0.198 0.008,0.238 0.024,0.006 0.077,0.004 0.101,-0.003 0.153,-0.054 0.147,-0.197 -0.006,-0.239 z m -15.382,15.984 c -0.127,-0.024 -0.249,-0.061 -0.379,-0.067 -0.07,-0.004 -0.152,0.043 -0.229,0.067 0.038,0.013 0.077,0.03 0.116,0.044 0,0 10e-4,0 10e-4,0 0.039,0.015 0.077,0.025 0.111,0.023 0.131,-0.006 0.253,-0.043 0.38,-0.067 z m -8.655,-9.632 c -0.034,0.015 -0.1,0.035 -0.096,0.047 0.017,0.034 0.062,0.064 0.096,0.098 0.034,-0.017 0.1,-0.037 0.094,-0.049 -0.015,-0.034 -0.059,-0.065 -0.094,-0.096 z m 24.445,-4.709 c -0.069,-0.016 -0.134,-0.037 -0.204,-0.045 -0.025,-0.004 -0.065,0.029 -0.1,0.045 0.066,0.018 0.133,0.035 0.195,0.051 0.039,-0.019 0.075,-0.035 0.109,-0.051 z m -23.533,1.81 c -0.035,0.016 -0.102,0.035 -0.096,0.047 0.016,0.035 0.061,0.066 0.096,0.098 0.032,-0.016 0.1,-0.035 0.093,-0.047 -0.014,-0.035 -0.06,-0.064 -0.093,-0.098 z m 0.152,-1.231 c 0.065,0.018 0.131,0.034 0.194,0.052 0.041,-0.02 0.075,-0.035 0.109,-0.052 -0.068,-0.017 -0.134,-0.038 -0.204,-0.044 -0.025,-0.004 -0.066,0.027 -0.099,0.044 z"
         id="path299"
         inkscape:connector-curvature="0"
         style="fill:#006838" /></g><g
       id="g301"><g
         id="g303"><g
           id="g305"><path
             d="m 184.709,268.678 c -0.303,4.375 -7.498,1.637 -7.813,-1.078 -0.191,-1.652 -0.239,-3.289 -0.525,-4.931 -0.43,-2.476 -1.965,-3.403 -4.299,-3.118 -6.365,0.779 -2.484,10.332 -0.436,12.977 6.707,8.656 17.004,16.562 11.601,28.705 -2.491,5.597 -9.442,6.926 -14.902,6.008 -3.277,-0.551 -5.825,-2.97 -7.49,-5.688 -2.505,-4.089 -0.806,-9.896 5.084,-8.65 3.512,0.742 1.503,13.218 7.669,10.155 6.039,-2.998 2.887,-11.948 0.086,-16.016 -5.273,-7.656 -19.901,-18.342 -9.87,-28.298 4.279,-4.247 12.966,-4.224 17.362,-0.355 2.806,2.468 3.369,6.793 3.533,10.289 0.044,0.935 1.501,0.939 1.457,0 -0.307,-6.51 -2.886,-13.418 -10.271,-14.307 -8.157,-0.982 -18.095,3.508 -16.604,13.216 0.813,5.296 3.647,9.331 7.108,13.284 2.367,2.703 4.859,5.209 6.906,8.182 1.382,2.006 2.038,4.223 2.211,6.637 0.005,0.889 -0.074,1.771 -0.234,2.648 -0.233,2.062 -1.786,2.909 -4.656,2.543 -2.219,-2.914 0.146,-6.537 -3.178,-8.914 -2.088,-1.495 -7.229,-1.254 -8.576,1.284 -3.596,6.772 3.862,15.284 10.688,15.657 8.372,0.459 15.532,-3.492 16.494,-12.363 0.563,-5.193 -0.702,-9.237 -3.629,-13.534 -3.994,-5.864 -13.457,-11.659 -12.19,-19.595 1.578,-0.119 3.155,-0.24 4.733,-0.359 0.209,1.098 0.327,2.205 0.354,3.321 0.049,0.936 0.201,1.87 0.293,2.802 0.079,0.802 1.052,2.021 1.796,2.348 2.256,0.995 6.808,1.85 8.338,-0.763 0.373,-0.638 0.37,-1.382 0.419,-2.087 0.063,-0.939 -1.394,-0.932 -1.459,0 z"
             id="path307"
             inkscape:connector-curvature="0"
             style="fill:#006838" /></g></g></g></g></svg>