<?xml version="1.0" encoding="UTF-8" standalone="no"?>
<!-- Created with Inkscape (http://www.inkscape.org/) -->

<svg
   xmlns:dc="http://purl.org/dc/elements/1.1/"
   xmlns:cc="http://creativecommons.org/ns#"
   xmlns:rdf="http://www.w3.org/1999/02/22-rdf-syntax-ns#"
   xmlns:svg="http://www.w3.org/2000/svg"
   xmlns="http://www.w3.org/2000/svg"
   xmlns:xlink="http://www.w3.org/1999/xlink"
   xmlns:sodipodi="http://sodipodi.sourceforge.net/DTD/sodipodi-0.dtd"
   xmlns:inkscape="http://www.inkscape.org/namespaces/inkscape"
   width="222.2507mm"
   height="33.222847mm"
   viewBox="0 0 787.50249 117.71875"
   id="svg26885"
   version="1.1"
   inkscape:version="0.91 r13725"
   sodipodi:docname="tagline.svg">
  <defs
     id="defs26887">
    <clipPath
       clipPathUnits="userSpaceOnUse"
       id="clipPath4776">
      <path
         d="m 512.776,6274.747 1.128,-22.061 3.77,0 1.106,22.061 -6.004,0 z m 0.585,-26.537 c -0.562,-0.555 -0.845,-1.368 -0.845,-2.438 l 0,0 c 0,-1.068 0.285,-1.893 0.858,-2.47 l 0,0 c 0.567,-0.578 1.368,-0.865 2.393,-0.865 l 0,0 c 1.012,0 1.795,0.299 2.35,0.899 l 0,0 c 0.558,0.598 0.835,1.411 0.835,2.436 l 0,0 c 0,1.028 -0.275,1.828 -0.822,2.405 l 0,0 c -0.55,0.578 -1.338,0.868 -2.363,0.868 l 0,0 c -1.04,0 -1.843,-0.277 -2.406,-0.835"
         id="path4778"
         inkscape:connector-curvature="0" />
    </clipPath>
    <linearGradient
       x1="0"
       y1="0"
       x2="1"
       y2="0"
       gradientUnits="userSpaceOnUse"
       gradientTransform="matrix(-664.69049,0,0,664.69049,691.26855,6258.5918)"
       spreadMethod="pad"
       id="linearGradient4784">
      <stop
         style="stop-opacity:1;stop-color:#47c0b8"
         offset="0"
         id="stop4786" />
      <stop
         style="stop-opacity:1;stop-color:#47c0b8"
         offset="0.0393917"
         id="stop4788" />
      <stop
         style="stop-opacity:1;stop-color:#47d2b1"
         offset="0.348613"
         id="stop4790" />
      <stop
         style="stop-opacity:1;stop-color:#47d2b1"
         offset="0.4222168"
         id="stop4792" />
      <stop
         style="stop-opacity:1;stop-color:#12b56a"
         offset="1"
         id="stop4794" />
    </linearGradient>
    <clipPath
       clipPathUnits="userSpaceOnUse"
       id="clipPath4750">
      <path
         d="m 496.734,6284.478 c -0.158,-1.445 -0.608,-2.48 -1.343,-3.111 l 0,0 c -0.737,-0.627 -1.813,-0.942 -3.23,-0.942 l 0,0 c -1.198,0 -2.091,0.125 -2.676,0.377 l 0,0 c -0.585,0.256 -1.035,0.671 -1.343,1.248 l 0,0 c -0.312,0.577 -0.51,1.388 -0.597,2.428 l 0,0 -4.616,0 c 0.158,-2.585 0.95,-4.431 2.373,-5.539 l 0,0 c 1.423,-1.102 3.666,-1.657 6.729,-1.657 l 0,0 c 2.99,0 5.253,0.577 6.783,1.735 l 0,0 c 1.533,1.155 2.406,2.976 2.623,5.461 l 0,0 -4.703,0 z m 2.515,-9.731 -16.19,-25.247 -0.195,0 c 0.043,0.62 0.108,1.811 0.195,3.565 l 0,0 c 0.088,1.756 0.13,3.494 0.13,5.211 l 0,0 0,16.471 -4.745,0 0,-31.683 6.068,0 16.252,25.441 0.175,0 c -0.275,-3.567 -0.412,-6.601 -0.412,-9.101 l 0,0 0,-16.34 4.768,0 0,31.683 -6.046,0 z"
         id="path4752"
         inkscape:connector-curvature="0" />
    </clipPath>
    <linearGradient
       x1="0"
       y1="0"
       x2="1"
       y2="0"
       gradientUnits="userSpaceOnUse"
       gradientTransform="matrix(-664.69049,0,0,664.69049,691.26855,6263.771)"
       spreadMethod="pad"
       id="linearGradient4758">
      <stop
         style="stop-opacity:1;stop-color:#47c0b8"
         offset="0"
         id="stop4760" />
      <stop
         style="stop-opacity:1;stop-color:#47c0b8"
         offset="0.0393917"
         id="stop4762" />
      <stop
         style="stop-opacity:1;stop-color:#47d2b1"
         offset="0.348613"
         id="stop4764" />
      <stop
         style="stop-opacity:1;stop-color:#47d2b1"
         offset="0.4222168"
         id="stop4766" />
      <stop
         style="stop-opacity:1;stop-color:#12b56a"
         offset="1"
         id="stop4768" />
    </linearGradient>
    <clipPath
       clipPathUnits="userSpaceOnUse"
       id="clipPath4724">
      <path
         d="m 468.622,6274.747 -7.129,-17.098 c -0.347,-0.823 -0.565,-1.423 -0.652,-1.798 l 0,0 -0.215,0 c -0.16,0.505 -0.585,1.508 -1.28,3.01 l 0,0 -7.737,15.886 -5.59,0 11.681,-23.209 c -0.722,-1.675 -1.527,-2.835 -2.418,-3.478 l 0,0 c -0.887,-0.645 -1.99,-0.965 -3.303,-0.965 l 0,0 c -1.547,0 -3.028,0.282 -4.443,0.845 l 0,0 0,-4.658 c 1.43,-0.435 2.983,-0.651 4.658,-0.651 l 0,0 c 1.923,0 3.559,0.288 4.909,0.866 l 0,0 c 1.35,0.577 2.54,1.485 3.565,2.72 l 0,0 c 1.025,1.235 2.153,3.233 3.381,5.993 l 0,0 9.991,22.537 -5.418,0 z"
         id="path4726"
         inkscape:connector-curvature="0" />
    </clipPath>
    <linearGradient
       x1="0"
       y1="0"
       x2="1"
       y2="0"
       gradientUnits="userSpaceOnUse"
       gradientTransform="matrix(-664.69049,0,0,664.69049,691.26855,6258.689)"
       spreadMethod="pad"
       id="linearGradient4732">
      <stop
         style="stop-opacity:1;stop-color:#47c0b8"
         offset="0"
         id="stop4734" />
      <stop
         style="stop-opacity:1;stop-color:#47c0b8"
         offset="0.0393917"
         id="stop4736" />
      <stop
         style="stop-opacity:1;stop-color:#47d2b1"
         offset="0.348613"
         id="stop4738" />
      <stop
         style="stop-opacity:1;stop-color:#47d2b1"
         offset="0.4222168"
         id="stop4740" />
      <stop
         style="stop-opacity:1;stop-color:#12b56a"
         offset="1"
         id="stop4742" />
    </linearGradient>
    <clipPath
       clipPathUnits="userSpaceOnUse"
       id="clipPath4698">
      <path
         d="m 424.148,6274.747 c -0.405,-4.796 -1.316,-9.577 -2.731,-14.345 l 0,0 c -1.417,-4.769 -3.173,-9.067 -5.266,-12.895 l 0,0 -2.45,0 0,-13.177 4.983,0 0,8.734 20.936,0 0,-8.734 4.983,0 0,13.177 -4.095,0 0,27.24 -16.36,0 z m 1.905,-15.895 c 1.303,4.325 2.11,8.131 2.428,11.409 l 0,0 6.848,0 0,-22.754 -13.717,0 c 1.661,3.236 3.141,7.016 4.441,11.345"
         id="path4700"
         inkscape:connector-curvature="0" />
    </clipPath>
    <linearGradient
       x1="0"
       y1="0"
       x2="1"
       y2="0"
       gradientUnits="userSpaceOnUse"
       gradientTransform="matrix(-664.69049,0,0,664.69049,691.26855,6254.5391)"
       spreadMethod="pad"
       id="linearGradient4706">
      <stop
         style="stop-opacity:1;stop-color:#47c0b8"
         offset="0"
         id="stop4708" />
      <stop
         style="stop-opacity:1;stop-color:#47c0b8"
         offset="0.0393917"
         id="stop4710" />
      <stop
         style="stop-opacity:1;stop-color:#47d2b1"
         offset="0.348613"
         id="stop4712" />
      <stop
         style="stop-opacity:1;stop-color:#47d2b1"
         offset="0.4222168"
         id="stop4714" />
      <stop
         style="stop-opacity:1;stop-color:#12b56a"
         offset="1"
         id="stop4716" />
    </linearGradient>
    <clipPath
       clipPathUnits="userSpaceOnUse"
       id="clipPath4672">
      <path
         d="m 403.86,6274.747 0,-12.96 -14.608,0 0,12.96 -5.18,0 0,-31.683 5.18,0 0,14.282 14.608,0 0,-14.282 5.2,0 0,31.683 -5.2,0 z"
         id="path4674"
         inkscape:connector-curvature="0" />
    </clipPath>
    <linearGradient
       x1="0"
       y1="0"
       x2="1"
       y2="0"
       gradientUnits="userSpaceOnUse"
       gradientTransform="matrix(-664.69049,0,0,664.69049,691.26855,6258.9058)"
       spreadMethod="pad"
       id="linearGradient4680">
      <stop
         style="stop-opacity:1;stop-color:#47c0b8"
         offset="0"
         id="stop4682" />
      <stop
         style="stop-opacity:1;stop-color:#47c0b8"
         offset="0.0393917"
         id="stop4684" />
      <stop
         style="stop-opacity:1;stop-color:#47d2b1"
         offset="0.348613"
         id="stop4686" />
      <stop
         style="stop-opacity:1;stop-color:#47d2b1"
         offset="0.4222168"
         id="stop4688" />
      <stop
         style="stop-opacity:1;stop-color:#12b56a"
         offset="1"
         id="stop4690" />
    </linearGradient>
    <clipPath
       clipPathUnits="userSpaceOnUse"
       id="clipPath4646">
      <path
         d="m 359.08,6274.747 0,-31.683 17.923,0 0,4.398 -12.745,0 0,9.949 11.942,0 0,4.334 -11.942,0 0,8.626 12.745,0 0,4.376 -17.923,0 z"
         id="path4648"
         inkscape:connector-curvature="0" />
    </clipPath>
    <clipPath
       clipPathUnits="userSpaceOnUse"
       id="clipPath4620">
      <path
         d="m 343.188,6274.747 -9.057,-25.205 -0.13,0 -8.799,25.205 -7.303,0 0,-31.683 4.703,0 0,15.407 c 0,3.441 -0.122,7.124 -0.37,11.054 l 0,0 0.175,0 9.189,-26.461 4.571,0 9.514,26.416 0.175,0 c -0.06,-0.535 -0.128,-2.065 -0.208,-4.593 l 0,0 c -0.08,-2.528 -0.12,-4.58 -0.12,-6.156 l 0,0 0,-15.667 4.986,0 0,31.683 -7.326,0 z"
         id="path4622"
         inkscape:connector-curvature="0" />
    </clipPath>
    <clipPath
       clipPathUnits="userSpaceOnUse"
       id="clipPath4594">
      <path
         d="m 285.051,6271.041 c -2.578,-2.803 -3.868,-6.819 -3.868,-12.049 l 0,0 c 0,-5.229 1.283,-9.264 3.848,-12.102 l 0,0 c 2.563,-2.841 6.236,-4.259 11.019,-4.259 l 0,0 c 4.724,0 8.374,1.431 10.955,4.291 l 0,0 c 2.578,2.861 3.868,6.869 3.868,12.027 l 0,0 c 0,5.173 -1.285,9.181 -3.858,12.027 l 0,0 c -2.571,2.845 -6.211,4.271 -10.922,4.271 l 0,0 c -4.781,0 -8.461,-1.403 -11.042,-4.206 m 3.998,-20.966 c -1.575,2.015 -2.362,4.973 -2.362,8.874 l 0,0 c 0,3.885 0.792,6.834 2.375,8.842 l 0,0 c 1.58,2.007 3.926,3.012 7.031,3.012 l 0,0 c 3.078,0 5.391,-1.005 6.946,-3.012 l 0,0 c 1.553,-2.008 2.328,-4.957 2.328,-8.842 l 0,0 c 0,-3.943 -0.783,-6.913 -2.35,-8.907 l 0,0 c -1.568,-1.995 -3.891,-2.99 -6.967,-2.99 l 0,0 c -3.093,0 -5.425,1.008 -7.001,3.023"
         id="path4596"
         inkscape:connector-curvature="0" />
    </clipPath>
    <linearGradient
       x1="0"
       y1="0"
       x2="1"
       y2="0"
       gradientUnits="userSpaceOnUse"
       gradientTransform="matrix(-664.69049,0,0,664.69049,691.26855,6258.9385)"
       spreadMethod="pad"
       id="linearGradient4602">
      <stop
         style="stop-opacity:1;stop-color:#47c0b8"
         offset="0"
         id="stop4604" />
      <stop
         style="stop-opacity:1;stop-color:#47c0b8"
         offset="0.0393917"
         id="stop4606" />
      <stop
         style="stop-opacity:1;stop-color:#47d2b1"
         offset="0.348613"
         id="stop4608" />
      <stop
         style="stop-opacity:1;stop-color:#47d2b1"
         offset="0.4222168"
         id="stop4610" />
      <stop
         style="stop-opacity:1;stop-color:#12b56a"
         offset="1"
         id="stop4612" />
    </linearGradient>
    <clipPath
       clipPathUnits="userSpaceOnUse"
       id="clipPath4568">
      <path
         d="m 272.032,6274.747 -12.83,-15.343 0,15.343 -5.178,0 0,-31.683 5.178,0 0,16.058 13.047,-16.058 6.089,0 -13.415,16.383 12.787,15.3 -5.678,0 z"
         id="path4570"
         inkscape:connector-curvature="0" />
    </clipPath>
    <clipPath
       clipPathUnits="userSpaceOnUse"
       id="clipPath4542">
      <path
         d="m 229.033,6274.747 0,-31.683 17.92,0 0,4.398 -12.742,0 0,9.949 11.942,0 0,4.334 -11.942,0 0,8.626 12.742,0 0,4.376 -17.92,0 z"
         id="path4544"
         inkscape:connector-curvature="0" />
    </clipPath>
    <clipPath
       clipPathUnits="userSpaceOnUse"
       id="clipPath4516">
      <path
         d="m 201.503,6274.747 0,-31.683 5.181,0 0,11.854 3.293,0 c 4.003,0 7.086,0.88 9.254,2.643 l 0,0 c 2.168,1.763 3.251,4.298 3.251,7.609 l 0,0 c 0,3.148 -0.988,5.531 -2.958,7.151 l 0,0 c -1.973,1.618 -4.939,2.426 -8.897,2.426 l 0,0 -9.124,0 z m 5.181,-4.334 3.596,0 c 2.355,0 4.088,-0.447 5.203,-1.343 l 0,0 c 1.11,-0.897 1.668,-2.255 1.668,-4.075 l 0,0 c 0,-1.965 -0.623,-3.408 -1.865,-4.333 l 0,0 c -1.241,-0.925 -3.193,-1.388 -5.851,-1.388 l 0,0 -2.751,0 0,11.139 z"
         id="path4518"
         inkscape:connector-curvature="0" />
    </clipPath>
    <clipPath
       clipPathUnits="userSpaceOnUse"
       id="clipPath4490">
      <path
         d="m 656.341,6326.012 1.82,-3.813 c 1.113,0.55 2.253,1.017 3.426,1.407 l 0,0 c 1.17,0.391 2.44,0.585 3.813,0.585 l 0,0 c 1.517,0 2.68,-0.324 3.488,-0.975 l 0,0 c 0.81,-0.65 1.215,-1.58 1.215,-2.795 l 0,0 c 0,-1.04 -0.25,-1.935 -0.748,-2.688 l 0,0 c -0.5,-0.75 -1.607,-1.805 -3.328,-3.163 l 0,0 c -1.445,-1.128 -2.455,-2.218 -3.033,-3.273 l 0,0 c -0.577,-1.053 -0.867,-2.375 -0.867,-3.965 l 0,0 0,-1.386 4.248,0 0,0.975 c 0,1.17 0.227,2.1 0.682,2.796 l 0,0 c 0.456,0.692 1.356,1.568 2.698,2.62 l 0,0 c 1.576,1.23 2.683,2.226 3.328,2.991 l 0,0 c 0.641,0.767 1.123,1.572 1.441,2.418 l 0,0 c 0.317,0.845 0.477,1.81 0.477,2.893 l 0,0 c 0,2.44 -0.832,4.355 -2.493,5.743 l 0,0 c -1.662,1.388 -3.908,2.08 -6.741,2.08 l 0,0 c -3.35,0 -6.493,-0.817 -9.426,-2.45 m 4.898,-26.979 c 0,-1.055 0.275,-1.876 0.823,-2.461 l 0,0 c 0.55,-0.585 1.337,-0.877 2.363,-0.877 l 0,0 c 1.025,0 1.815,0.3 2.372,0.9 l 0,0 c 0.556,0.597 0.836,1.41 0.836,2.438 l 0,0 c 0,1.04 -0.276,1.845 -0.826,2.415 l 0,0 c -0.547,0.57 -1.342,0.858 -2.382,0.858 l 0,0 c -2.123,0 -3.186,-1.093 -3.186,-3.273"
         id="path4492"
         inkscape:connector-curvature="0" />
    </clipPath>
    <linearGradient
       x1="0"
       y1="0"
       x2="1"
       y2="0"
       gradientUnits="userSpaceOnUse"
       gradientTransform="matrix(-664.69049,0,0,664.69049,691.26855,6312.0781)"
       spreadMethod="pad"
       id="linearGradient4498">
      <stop
         style="stop-opacity:1;stop-color:#47c0b8"
         offset="0"
         id="stop4500" />
      <stop
         style="stop-opacity:1;stop-color:#47c0b8"
         offset="0.0393917"
         id="stop4502" />
      <stop
         style="stop-opacity:1;stop-color:#47d2b1"
         offset="0.348613"
         id="stop4504" />
      <stop
         style="stop-opacity:1;stop-color:#47d2b1"
         offset="0.4222168"
         id="stop4506" />
      <stop
         style="stop-opacity:1;stop-color:#12b56a"
         offset="1"
         id="stop4508" />
    </linearGradient>
    <clipPath
       clipPathUnits="userSpaceOnUse"
       id="clipPath4464">
      <path
         d="m 638.283,6328.137 -11.854,-31.815 5.461,0 3.1,8.799 12.114,0 3.163,-8.799 5.504,0 -11.852,31.815 -5.636,0 z m 1.085,-10.294 c 0.75,2.108 1.32,4.053 1.71,5.828 l 0,0 c 0.146,-0.577 0.408,-1.487 0.793,-2.73 l 0,0 c 0.38,-1.243 0.683,-2.153 0.898,-2.731 l 0,0 2.97,-8.623 -9.234,0 2.863,8.256 z"
         id="path4466"
         inkscape:connector-curvature="0" />
    </clipPath>
    <linearGradient
       x1="0"
       y1="0"
       x2="1"
       y2="0"
       gradientUnits="userSpaceOnUse"
       gradientTransform="matrix(-664.69049,0,0,664.69049,691.26855,6312.23)"
       spreadMethod="pad"
       id="linearGradient4472">
      <stop
         style="stop-opacity:1;stop-color:#47c0b8"
         offset="0"
         id="stop4474" />
      <stop
         style="stop-opacity:1;stop-color:#47c0b8"
         offset="0.0393917"
         id="stop4476" />
      <stop
         style="stop-opacity:1;stop-color:#47d2b1"
         offset="0.348613"
         id="stop4478" />
      <stop
         style="stop-opacity:1;stop-color:#47d2b1"
         offset="0.4222168"
         id="stop4480" />
      <stop
         style="stop-opacity:1;stop-color:#12b56a"
         offset="1"
         id="stop4482" />
    </linearGradient>
    <clipPath
       clipPathUnits="userSpaceOnUse"
       id="clipPath4438">
      <path
         d="m 603.518,6328.007 c -0.968,-7.528 -1.803,-13.429 -2.503,-17.705 l 0,0 c -0.703,-4.278 -1.343,-7.041 -1.928,-8.289 l 0,0 c -0.585,-1.253 -1.398,-1.875 -2.438,-1.875 l 0,0 c -0.78,0 -1.583,0.18 -2.405,0.54 l 0,0 0,-4.311 c 0.952,-0.362 1.955,-0.542 3.01,-0.542 l 0,0 c 2.053,-0.043 3.701,0.587 4.944,1.898 l 0,0 c 1.24,1.305 2.205,3.628 2.892,6.965 l 0,0 c 0.686,3.338 1.598,9.629 2.741,18.876 l 0,0 9.014,0 0,-27.242 5.181,0 0,31.685 -18.508,0 z"
         id="path4440"
         inkscape:connector-curvature="0" />
    </clipPath>
    <linearGradient
       x1="0"
       y1="0"
       x2="1"
       y2="0"
       gradientUnits="userSpaceOnUse"
       gradientTransform="matrix(-664.69049,0,0,664.69049,691.26855,6311.9146)"
       spreadMethod="pad"
       id="linearGradient4446">
      <stop
         style="stop-opacity:1;stop-color:#47c0b8"
         offset="0"
         id="stop4448" />
      <stop
         style="stop-opacity:1;stop-color:#47c0b8"
         offset="0.0393917"
         id="stop4450" />
      <stop
         style="stop-opacity:1;stop-color:#47d2b1"
         offset="0.348613"
         id="stop4452" />
      <stop
         style="stop-opacity:1;stop-color:#47d2b1"
         offset="0.4222168"
         id="stop4454" />
      <stop
         style="stop-opacity:1;stop-color:#12b56a"
         offset="1"
         id="stop4456" />
    </linearGradient>
    <clipPath
       clipPathUnits="userSpaceOnUse"
       id="clipPath4412">
      <path
         d="m 576.359,6328.137 -11.855,-31.815 5.461,0 3.101,8.799 12.114,0 3.163,-8.799 5.503,0 -11.854,31.815 -5.633,0 z m 1.082,-10.294 c 0.753,2.108 1.323,4.053 1.713,5.828 l 0,0 c 0.145,-0.577 0.408,-1.487 0.79,-2.73 l 0,0 c 0.383,-1.243 0.683,-2.153 0.9,-2.731 l 0,0 2.971,-8.623 -9.234,0 2.86,8.256 z"
         id="path4414"
         inkscape:connector-curvature="0" />
    </clipPath>
    <clipPath
       clipPathUnits="userSpaceOnUse"
       id="clipPath4386">
      <path
         d="m 554.92,6328.007 0,-12.96 -14.605,0 0,12.96 -5.18,0 0,-31.685 5.18,0 0,14.282 14.605,0 0,-14.282 5.201,0 0,31.685 -5.201,0 z"
         id="path4388"
         inkscape:connector-curvature="0" />
    </clipPath>
    <linearGradient
       x1="0"
       y1="0"
       x2="1"
       y2="0"
       gradientUnits="userSpaceOnUse"
       gradientTransform="matrix(-664.69049,0,0,664.69049,691.26855,6312.165)"
       spreadMethod="pad"
       id="linearGradient4394">
      <stop
         style="stop-opacity:1;stop-color:#47c0b8"
         offset="0"
         id="stop4396" />
      <stop
         style="stop-opacity:1;stop-color:#47c0b8"
         offset="0.0393917"
         id="stop4398" />
      <stop
         style="stop-opacity:1;stop-color:#47d2b1"
         offset="0.348613"
         id="stop4400" />
      <stop
         style="stop-opacity:1;stop-color:#47d2b1"
         offset="0.4222168"
         id="stop4402" />
      <stop
         style="stop-opacity:1;stop-color:#12b56a"
         offset="1"
         id="stop4404" />
    </linearGradient>
    <clipPath
       clipPathUnits="userSpaceOnUse"
       id="clipPath4360">
      <path
         d="m 502.287,6324.302 c -2.578,-2.803 -3.868,-6.822 -3.868,-12.05 l 0,0 c 0,-5.231 1.28,-9.266 3.846,-12.104 l 0,0 c 2.565,-2.84 6.238,-4.258 11.021,-4.258 l 0,0 c 4.724,0 8.374,1.43 10.955,4.29 l 0,0 c 2.577,2.861 3.868,6.871 3.868,12.027 l 0,0 c 0,5.173 -1.286,9.182 -3.858,12.029 l 0,0 c -2.573,2.846 -6.214,4.269 -10.922,4.269 l 0,0 c -4.783,0 -8.464,-1.401 -11.042,-4.203 m 3.998,-20.969 c -1.575,2.016 -2.363,4.974 -2.363,8.874 l 0,0 c 0,3.888 0.791,6.834 2.376,8.844 l 0,0 c 1.58,2.008 3.923,3.011 7.031,3.011 l 0,0 c 3.075,0 5.391,-1.003 6.943,-3.011 l 0,0 c 1.553,-2.01 2.331,-4.956 2.331,-8.844 l 0,0 c 0,-3.943 -0.783,-6.911 -2.351,-8.906 l 0,0 c -1.567,-1.993 -3.89,-2.99 -6.966,-2.99 l 0,0 c -3.093,0 -5.425,1.007 -7.001,3.022"
         id="path4362"
         inkscape:connector-curvature="0" />
    </clipPath>
    <linearGradient
       x1="0"
       y1="0"
       x2="1"
       y2="0"
       gradientUnits="userSpaceOnUse"
       gradientTransform="matrix(-664.69049,0,0,664.69049,691.26855,6312.1978)"
       spreadMethod="pad"
       id="linearGradient4368">
      <stop
         style="stop-opacity:1;stop-color:#47c0b8"
         offset="0"
         id="stop4370" />
      <stop
         style="stop-opacity:1;stop-color:#47c0b8"
         offset="0.0393917"
         id="stop4372" />
      <stop
         style="stop-opacity:1;stop-color:#47d2b1"
         offset="0.348613"
         id="stop4374" />
      <stop
         style="stop-opacity:1;stop-color:#47d2b1"
         offset="0.4222168"
         id="stop4376" />
      <stop
         style="stop-opacity:1;stop-color:#12b56a"
         offset="1"
         id="stop4378" />
    </linearGradient>
    <clipPath
       clipPathUnits="userSpaceOnUse"
       id="clipPath4334">
      <path
         d="m 485.41,6328.007 -16.188,-25.246 -0.195,0 c 0.043,0.62 0.108,1.807 0.195,3.563 l 0,0 c 0.088,1.758 0.13,3.493 0.13,5.213 l 0,0 0,16.47 -4.746,0 0,-31.685 6.069,0 16.252,25.444 0.173,0 c -0.273,-3.57 -0.413,-6.603 -0.413,-9.104 l 0,0 0,-16.34 4.769,0 0,31.685 -6.046,0 z"
         id="path4336"
         inkscape:connector-curvature="0" />
    </clipPath>
    <clipPath
       clipPathUnits="userSpaceOnUse"
       id="clipPath4308">
      <path
         d="m 441.738,6326.489 c -2.283,-1.315 -4.028,-3.208 -5.233,-5.678 l 0,0 c -1.208,-2.47 -1.811,-5.353 -1.811,-8.646 l 0,0 c 0,-5.231 1.243,-9.252 3.728,-12.06 l 0,0 c 2.486,-2.81 6.046,-4.215 10.685,-4.215 l 0,0 c 3.15,0 5.965,0.47 8.451,1.407 l 0,0 0,4.444 c -1.358,-0.418 -2.666,-0.763 -3.923,-1.028 l 0,0 c -1.256,-0.27 -2.556,-0.402 -3.901,-0.402 l 0,0 c -3.105,0 -5.478,0.997 -7.118,2.99 l 0,0 c -1.641,1.995 -2.461,4.933 -2.461,8.821 l 0,0 c 0,3.713 0.853,6.624 2.558,8.732 l 0,0 c 1.705,2.11 4.046,3.165 7.021,3.165 l 0,0 c 1.315,0 2.568,-0.192 3.761,-0.575 l 0,0 c 1.19,-0.382 2.323,-0.828 3.393,-1.333 l 0,0 1.862,4.313 c -2.745,1.358 -5.735,2.038 -8.971,2.038 l 0,0 c -3.078,0 -5.758,-0.657 -8.041,-1.973"
         id="path4310"
         inkscape:connector-curvature="0" />
    </clipPath>
    <linearGradient
       x1="0"
       y1="0"
       x2="1"
       y2="0"
       gradientUnits="userSpaceOnUse"
       gradientTransform="matrix(-664.69049,0,0,664.69049,691.26855,6312.1758)"
       spreadMethod="pad"
       id="linearGradient4316">
      <stop
         style="stop-opacity:1;stop-color:#47c0b8"
         offset="0"
         id="stop4318" />
      <stop
         style="stop-opacity:1;stop-color:#47c0b8"
         offset="0.0393917"
         id="stop4320" />
      <stop
         style="stop-opacity:1;stop-color:#47d2b1"
         offset="0.348613"
         id="stop4322" />
      <stop
         style="stop-opacity:1;stop-color:#47d2b1"
         offset="0.4222168"
         id="stop4324" />
      <stop
         style="stop-opacity:1;stop-color:#12b56a"
         offset="1"
         id="stop4326" />
    </linearGradient>
    <clipPath
       clipPathUnits="userSpaceOnUse"
       id="clipPath4282">
      <path
         d="m 413.386,6326.489 c -2.283,-1.315 -4.028,-3.208 -5.233,-5.678 l 0,0 c -1.208,-2.47 -1.811,-5.353 -1.811,-8.646 l 0,0 c 0,-5.231 1.243,-9.252 3.728,-12.06 l 0,0 c 2.486,-2.81 6.046,-4.215 10.685,-4.215 l 0,0 c 3.15,0 5.966,0.47 8.451,1.407 l 0,0 0,4.444 c -1.358,-0.418 -2.665,-0.763 -3.921,-1.028 l 0,0 c -1.257,-0.27 -2.558,-0.402 -3.903,-0.402 l 0,0 c -3.105,0 -5.478,0.997 -7.118,2.99 l 0,0 c -1.641,1.995 -2.458,4.933 -2.458,8.821 l 0,0 c 0,3.713 0.852,6.624 2.555,8.732 l 0,0 c 1.705,2.11 4.046,3.165 7.021,3.165 l 0,0 c 1.315,0 2.568,-0.192 3.761,-0.575 l 0,0 c 1.19,-0.382 2.323,-0.828 3.39,-1.333 l 0,0 1.866,4.313 c -2.746,1.358 -5.736,2.038 -8.972,2.038 l 0,0 c -3.078,0 -5.758,-0.657 -8.041,-1.973"
         id="path4284"
         inkscape:connector-curvature="0" />
    </clipPath>
    <clipPath
       clipPathUnits="userSpaceOnUse"
       id="clipPath4256">
      <path
         d="m 382.911,6328.007 0,-31.685 17.923,0 0,4.401 -12.742,0 0,9.946 11.939,0 0,4.333 -11.939,0 0,8.627 12.742,0 0,4.378 -17.923,0 z"
         id="path4258"
         inkscape:connector-curvature="0" />
    </clipPath>
    <clipPath
       clipPathUnits="userSpaceOnUse"
       id="clipPath4230">
      <path
         d="m 357.637,6328.462 0,-3.9 -1.277,0 c -2.543,0 -4.761,-0.511 -6.654,-1.528 l 0,0 c -1.893,-1.02 -3.345,-2.428 -4.355,-4.228 l 0,0 c -1.013,-1.798 -1.518,-3.816 -1.518,-6.056 l 0,0 c 0,-2.311 0.557,-4.414 1.67,-6.306 l 0,0 c 1.11,-1.893 2.645,-3.313 4.603,-4.258 l 0,0 c 1.958,-0.948 4.231,-1.42 6.816,-1.42 l 0,0 0.715,0 0,-4.876 4.899,0 0,4.876 0.692,0 c 2.616,0 4.894,0.469 6.839,1.41 l 0,0 c 1.943,0.937 3.47,2.345 4.583,4.225 l 0,0 c 1.113,1.878 1.668,3.994 1.668,6.349 l 0,0 c 0,2.283 -0.495,4.315 -1.483,6.101 l 0,0 c -0.99,1.782 -2.428,3.183 -4.316,4.193 l 0,0 c -1.882,1.01 -4.105,1.518 -6.661,1.518 l 0,0 -1.322,0 0,3.9 -4.899,0 z m 4.899,-8.126 1.062,0 c 2.383,0 4.259,-0.68 5.624,-2.038 l 0,0 c 1.365,-1.358 2.048,-3.193 2.048,-5.506 l 0,0 c 0,-2.482 -0.736,-4.423 -2.201,-5.818 l 0,0 c -1.468,-1.395 -3.5,-2.091 -6.101,-2.091 l 0,0 -0.432,0 0,15.453 z m -11.442,-13.339 c -1.46,1.407 -2.19,3.34 -2.19,5.795 l 0,0 c 0,2.298 0.68,4.131 2.037,5.494 l 0,0 c 1.358,1.367 3.236,2.05 5.636,2.05 l 0,0 1.06,0 0,-15.453 -0.39,0 c -2.643,0 -4.695,0.703 -6.153,2.114"
         id="path4232"
         inkscape:connector-curvature="0" />
    </clipPath>
    <clipPath
       clipPathUnits="userSpaceOnUse"
       id="clipPath4204">
      <path
         d="m 313.043,6324.302 c -2.578,-2.803 -3.868,-6.822 -3.868,-12.05 l 0,0 c 0,-5.231 1.283,-9.266 3.848,-12.104 l 0,0 c 2.563,-2.84 6.236,-4.258 11.019,-4.258 l 0,0 c 4.724,0 8.374,1.43 10.954,4.29 l 0,0 c 2.578,2.861 3.869,6.871 3.869,12.027 l 0,0 c 0,5.173 -1.286,9.182 -3.859,12.029 l 0,0 c -2.57,2.846 -6.21,4.269 -10.921,4.269 l 0,0 c -4.783,0 -8.462,-1.401 -11.042,-4.203 m 3.998,-20.969 c -1.573,2.016 -2.36,4.974 -2.36,8.874 l 0,0 c 0,3.888 0.79,6.834 2.373,8.844 l 0,0 c 1.58,2.008 3.925,3.011 7.031,3.011 l 0,0 c 3.078,0 5.391,-1.003 6.946,-3.011 l 0,0 c 1.553,-2.01 2.33,-4.956 2.33,-8.844 l 0,0 c 0,-3.943 -0.785,-6.911 -2.35,-8.906 l 0,0 c -1.57,-1.993 -3.891,-2.99 -6.969,-2.99 l 0,0 c -3.093,0 -5.426,1.007 -7.001,3.022"
         id="path4206"
         inkscape:connector-curvature="0" />
    </clipPath>
    <clipPath
       clipPathUnits="userSpaceOnUse"
       id="clipPath4178">
      <path
         d="m 283.208,6328.007 0,-31.685 5.181,0 0,11.855 3.293,0 c 4.001,0 7.086,0.882 9.254,2.645 l 0,0 c 2.168,1.763 3.251,4.298 3.251,7.606 l 0,0 c 0,3.151 -0.988,5.533 -2.958,7.151 l 0,0 c -1.973,1.618 -4.939,2.428 -8.897,2.428 l 0,0 -9.124,0 z m 5.181,-4.336 3.596,0 c 2.355,0 4.088,-0.447 5.201,-1.342 l 0,0 c 1.112,-0.895 1.67,-2.253 1.67,-4.074 l 0,0 c 0,-1.964 -0.623,-3.41 -1.865,-4.335 l 0,0 c -1.243,-0.925 -3.193,-1.388 -5.851,-1.388 l 0,0 -2.751,0 0,11.139 z"
         id="path4180"
         inkscape:connector-curvature="0" />
    </clipPath>
    <clipPath
       clipPathUnits="userSpaceOnUse"
       id="clipPath4152">
      <path
         d="m 250.283,6328.007 0,-31.685 5.181,0 0,27.242 13.977,0 0,-27.242 5.201,0 0,31.685 -24.359,0 z"
         id="path4154"
         inkscape:connector-curvature="0" />
    </clipPath>
    <clipPath
       clipPathUnits="userSpaceOnUse"
       id="clipPath4126">
      <path
         d="m 209.9,6328.007 0,-31.685 9.884,0 c 3.958,0 6.981,0.813 9.069,2.441 l 0,0 c 2.085,1.622 3.13,3.99 3.13,7.096 l 0,0 c 0,2.99 -1.065,5.283 -3.195,6.881 l 0,0 c -2.133,1.595 -5.206,2.393 -9.222,2.393 l 0,0 -4.485,0 0,12.874 -5.181,0 z m 5.181,-17.208 3.77,0 c 2.818,0 4.826,-0.397 6.024,-1.192 l 0,0 c 1.2,-0.793 1.8,-2.043 1.8,-3.748 l 0,0 c 0,-1.82 -0.625,-3.141 -1.875,-3.956 l 0,0 c -1.251,-0.818 -3.038,-1.225 -5.364,-1.225 l 0,0 -4.355,0 0,10.121 z"
         id="path4128"
         inkscape:connector-curvature="0" />
    </clipPath>
    <clipPath
       clipPathUnits="userSpaceOnUse"
       id="clipPath4100">
      <path
         d="m 196.068,6328.007 0,-27.241 -11.4,0 0,27.241 -5.243,0 0,-27.241 -11.399,0 0,27.241 -5.178,0 0,-31.685 38.465,0 0,31.685 -5.245,0 z"
         id="path4102"
         inkscape:connector-curvature="0" />
    </clipPath>
    <clipPath
       clipPathUnits="userSpaceOnUse"
       id="clipPath4074">
      <path
         d="m 137.856,6328.007 0,-31.685 17.92,0 0,4.401 -12.742,0 0,9.946 11.942,0 0,4.333 -11.942,0 0,8.627 12.742,0 0,4.378 -17.92,0 z"
         id="path4076"
         inkscape:connector-curvature="0" />
    </clipPath>
    <clipPath
       clipPathUnits="userSpaceOnUse"
       id="clipPath4048">
      <path
         d="m 115.963,6328.137 -11.855,-31.815 5.461,0 3.098,8.799 12.115,0 3.163,-8.799 5.506,0 -11.855,31.815 -5.633,0 z m 1.082,-10.294 c 0.751,2.108 1.323,4.053 1.713,5.828 l 0,0 c 0.143,-0.577 0.405,-1.487 0.79,-2.73 l 0,0 c 0.383,-1.243 0.683,-2.153 0.901,-2.731 l 0,0 2.967,-8.623 -9.231,0 2.86,8.256 z"
         id="path4050"
         inkscape:connector-curvature="0" />
    </clipPath>
    <clipPath
       clipPathUnits="userSpaceOnUse"
       id="clipPath4022">
      <path
         d="m 94.525,6328.007 0,-12.96 -14.608,0 0,12.96 -5.178,0 0,-31.685 5.178,0 0,14.282 14.608,0 0,-14.282 5.2,0 0,31.685 -5.2,0 z"
         id="path4024"
         inkscape:connector-curvature="0" />
    </clipPath>
    <clipPath
       clipPathUnits="userSpaceOnUse"
       id="clipPath3996">
      <path
         d="m 44.999,6325.082 2.363,-3.511 c 1.488,0.968 2.926,1.653 4.313,2.058 l 0,0 c 1.386,0.405 2.846,0.607 4.376,0.607 l 0,0 c 1.938,0 3.443,-0.389 4.521,-1.17 l 0,0 c 1.075,-0.78 1.613,-1.842 1.613,-3.185 l 0,0 c 0,-3.368 -3.156,-5.051 -9.469,-5.051 l 0,0 -3.576,0 0,-4.161 3.813,0 c 3.281,0 5.756,-0.44 7.421,-1.322 l 0,0 c 1.671,-0.88 2.506,-2.158 2.506,-3.836 l 0,0 c 0,-3.64 -2.783,-5.461 -8.344,-5.461 l 0,0 c -1.445,0 -3.038,0.18 -4.781,0.543 l 0,0 c -1.74,0.36 -3.31,0.872 -4.711,1.538 l 0,0 0,-4.528 c 2.528,-1.143 5.901,-1.713 10.119,-1.713 l 0,0 c 4.061,0 7.242,0.83 9.547,2.492 l 0,0 c 2.303,1.661 3.455,3.966 3.455,6.914 l 0,0 c 0,2.108 -0.725,3.816 -2.175,5.126 l 0,0 c -1.455,1.305 -3.565,2.125 -6.341,2.458 l 0,0 0,0.13 c 2.413,0.363 4.303,1.2 5.666,2.512 l 0,0 c 1.368,1.316 2.05,3.006 2.05,5.074 l 0,0 c 0,2.383 -0.975,4.291 -2.925,5.721 l 0,0 c -1.95,1.43 -4.603,2.145 -7.954,2.145 l 0,0 c -4.408,0 -8.236,-1.128 -11.487,-3.38"
         id="path3998"
         inkscape:connector-curvature="0" />
    </clipPath>
    <linearGradient
       inkscape:collect="always"
       xlink:href="#linearGradient4316"
       id="linearGradient27589"
       gradientUnits="userSpaceOnUse"
       gradientTransform="matrix(-664.69049,0,0,664.69049,691.26855,6312.1758)"
       spreadMethod="pad"
       x1="0"
       y1="0"
       x2="1"
       y2="0" />
    <linearGradient
       inkscape:collect="always"
       xlink:href="#linearGradient4394"
       id="linearGradient27591"
       gradientUnits="userSpaceOnUse"
       gradientTransform="matrix(-664.69049,0,0,664.69049,691.26855,6312.165)"
       spreadMethod="pad"
       x1="0"
       y1="0"
       x2="1"
       y2="0" />
    <linearGradient
       inkscape:collect="always"
       xlink:href="#linearGradient4472"
       id="linearGradient27593"
       gradientUnits="userSpaceOnUse"
       gradientTransform="matrix(-664.69049,0,0,664.69049,691.26855,6312.23)"
       spreadMethod="pad"
       x1="0"
       y1="0"
       x2="1"
       y2="0" />
    <linearGradient
       inkscape:collect="always"
       xlink:href="#linearGradient4394"
       id="linearGradient27595"
       gradientUnits="userSpaceOnUse"
       gradientTransform="matrix(-664.69049,0,0,664.69049,691.26855,6312.165)"
       spreadMethod="pad"
       x1="0"
       y1="0"
       x2="1"
       y2="0" />
    <linearGradient
       inkscape:collect="always"
       xlink:href="#linearGradient4394"
       id="linearGradient27597"
       gradientUnits="userSpaceOnUse"
       gradientTransform="matrix(-664.69049,0,0,664.69049,691.26855,6312.165)"
       spreadMethod="pad"
       x1="0"
       y1="0"
       x2="1"
       y2="0" />
    <linearGradient
       inkscape:collect="always"
       xlink:href="#linearGradient4394"
       id="linearGradient27599"
       gradientUnits="userSpaceOnUse"
       gradientTransform="matrix(-664.69049,0,0,664.69049,691.26855,6312.165)"
       spreadMethod="pad"
       x1="0"
       y1="0"
       x2="1"
       y2="0" />
    <linearGradient
       inkscape:collect="always"
       xlink:href="#linearGradient4394"
       id="linearGradient27601"
       gradientUnits="userSpaceOnUse"
       gradientTransform="matrix(-664.69049,0,0,664.69049,691.26855,6312.165)"
       spreadMethod="pad"
       x1="0"
       y1="0"
       x2="1"
       y2="0" />
    <linearGradient
       inkscape:collect="always"
       xlink:href="#linearGradient4394"
       id="linearGradient27603"
       gradientUnits="userSpaceOnUse"
       gradientTransform="matrix(-664.69049,0,0,664.69049,691.26855,6312.165)"
       spreadMethod="pad"
       x1="0"
       y1="0"
       x2="1"
       y2="0" />
    <linearGradient
       inkscape:collect="always"
       xlink:href="#linearGradient4368"
       id="linearGradient27605"
       gradientUnits="userSpaceOnUse"
       gradientTransform="matrix(-664.69049,0,0,664.69049,691.26855,6312.1978)"
       spreadMethod="pad"
       x1="0"
       y1="0"
       x2="1"
       y2="0" />
    <linearGradient
       inkscape:collect="always"
       xlink:href="#linearGradient4316"
       id="linearGradient27607"
       gradientUnits="userSpaceOnUse"
       gradientTransform="matrix(-664.69049,0,0,664.69049,691.26855,6312.1758)"
       spreadMethod="pad"
       x1="0"
       y1="0"
       x2="1"
       y2="0" />
    <linearGradient
       inkscape:collect="always"
       xlink:href="#linearGradient4394"
       id="linearGradient27609"
       gradientUnits="userSpaceOnUse"
       gradientTransform="matrix(-664.69049,0,0,664.69049,691.26855,6312.165)"
       spreadMethod="pad"
       x1="0"
       y1="0"
       x2="1"
       y2="0" />
    <linearGradient
       inkscape:collect="always"
       xlink:href="#linearGradient4316"
       id="linearGradient27611"
       gradientUnits="userSpaceOnUse"
       gradientTransform="matrix(-664.69049,0,0,664.69049,691.26855,6312.1758)"
       spreadMethod="pad"
       x1="0"
       y1="0"
       x2="1"
       y2="0" />
    <linearGradient
       inkscape:collect="always"
       xlink:href="#linearGradient4316"
       id="linearGradient27613"
       gradientUnits="userSpaceOnUse"
       gradientTransform="matrix(-664.69049,0,0,664.69049,691.26855,6312.1758)"
       spreadMethod="pad"
       x1="0"
       y1="0"
       x2="1"
       y2="0" />
    <linearGradient
       inkscape:collect="always"
       xlink:href="#linearGradient4394"
       id="linearGradient27615"
       gradientUnits="userSpaceOnUse"
       gradientTransform="matrix(-664.69049,0,0,664.69049,691.26855,6312.165)"
       spreadMethod="pad"
       x1="0"
       y1="0"
       x2="1"
       y2="0" />
    <linearGradient
       inkscape:collect="always"
       xlink:href="#linearGradient4368"
       id="linearGradient27617"
       gradientUnits="userSpaceOnUse"
       gradientTransform="matrix(-664.69049,0,0,664.69049,691.26855,6312.1978)"
       spreadMethod="pad"
       x1="0"
       y1="0"
       x2="1"
       y2="0" />
    <linearGradient
       inkscape:collect="always"
       xlink:href="#linearGradient4394"
       id="linearGradient27619"
       gradientUnits="userSpaceOnUse"
       gradientTransform="matrix(-664.69049,0,0,664.69049,691.26855,6312.165)"
       spreadMethod="pad"
       x1="0"
       y1="0"
       x2="1"
       y2="0" />
    <linearGradient
       inkscape:collect="always"
       xlink:href="#linearGradient4472"
       id="linearGradient27621"
       gradientUnits="userSpaceOnUse"
       gradientTransform="matrix(-664.69049,0,0,664.69049,691.26855,6312.23)"
       spreadMethod="pad"
       x1="0"
       y1="0"
       x2="1"
       y2="0" />
    <linearGradient
       inkscape:collect="always"
       xlink:href="#linearGradient4472"
       id="linearGradient27623"
       gradientUnits="userSpaceOnUse"
       gradientTransform="matrix(-664.69049,0,0,664.69049,691.26855,6312.23)"
       spreadMethod="pad"
       x1="0"
       y1="0"
       x2="1"
       y2="0" />
    <linearGradient
       inkscape:collect="always"
       xlink:href="#linearGradient4680"
       id="linearGradient27625"
       gradientUnits="userSpaceOnUse"
       gradientTransform="matrix(-664.69049,0,0,664.69049,691.26855,6258.9058)"
       spreadMethod="pad"
       x1="0"
       y1="0"
       x2="1"
       y2="0" />
    <linearGradient
       inkscape:collect="always"
       xlink:href="#linearGradient4680"
       id="linearGradient27627"
       gradientUnits="userSpaceOnUse"
       gradientTransform="matrix(-664.69049,0,0,664.69049,691.26855,6258.9058)"
       spreadMethod="pad"
       x1="0"
       y1="0"
       x2="1"
       y2="0" />
    <linearGradient
       inkscape:collect="always"
       xlink:href="#linearGradient4680"
       id="linearGradient27629"
       gradientUnits="userSpaceOnUse"
       gradientTransform="matrix(-664.69049,0,0,664.69049,691.26855,6258.9058)"
       spreadMethod="pad"
       x1="0"
       y1="0"
       x2="1"
       y2="0" />
    <linearGradient
       inkscape:collect="always"
       xlink:href="#linearGradient4680"
       id="linearGradient27631"
       gradientUnits="userSpaceOnUse"
       gradientTransform="matrix(-664.69049,0,0,664.69049,691.26855,6258.9058)"
       spreadMethod="pad"
       x1="0"
       y1="0"
       x2="1"
       y2="0" />
    <linearGradient
       inkscape:collect="always"
       xlink:href="#linearGradient4680"
       id="linearGradient27633"
       gradientUnits="userSpaceOnUse"
       gradientTransform="matrix(-664.69049,0,0,664.69049,691.26855,6258.9058)"
       spreadMethod="pad"
       x1="0"
       y1="0"
       x2="1"
       y2="0" />
    <linearGradient
       inkscape:collect="always"
       xlink:href="#linearGradient4680"
       id="linearGradient27635"
       gradientUnits="userSpaceOnUse"
       gradientTransform="matrix(-664.69049,0,0,664.69049,691.26855,6258.9058)"
       spreadMethod="pad"
       x1="0"
       y1="0"
       x2="1"
       y2="0" />
  </defs>
  <sodipodi:namedview
     id="base"
     pagecolor="#ffffff"
     bordercolor="#666666"
     borderopacity="1.0"
     inkscape:pageopacity="0.0"
     inkscape:pageshadow="2"
     inkscape:zoom="0.35"
     inkscape:cx="300.17982"
     inkscape:cy="-15.426305"
     inkscape:document-units="px"
     inkscape:current-layer="layer1"
     showgrid="false"
     inkscape:window-width="1366"
     inkscape:window-height="718"
     inkscape:window-x="0"
     inkscape:window-y="24"
     inkscape:window-maximized="1"
     fit-margin-top="0"
     fit-margin-left="0"
     fit-margin-right="0"
     fit-margin-bottom="0" />
  <metadata
     id="metadata26890">
    <rdf:RDF>
      <cc:Work
         rdf:about="">
        <dc:format>image/svg+xml</dc:format>
        <dc:type
           rdf:resource="http://purl.org/dc/dcmitype/StillImage" />
        <dc:title></dc:title>
      </cc:Work>
    </rdf:RDF>
  </metadata>
  <g
     inkscape:label="Layer 1"
     inkscape:groupmode="layer"
     id="layer1"
     transform="translate(-74.820179,-399.21715)">
    <g
       transform="matrix(1.25,0,0,-1.25,18.571429,8309.8484)"
       id="g3992">
      <g
         id="g3994"
         clip-path="url(#clipPath3996)">
        <g
           id="g4000">
          <g
             id="g4002">
            <path
               d="m 44.999,6325.082 2.363,-3.511 c 1.488,0.968 2.926,1.653 4.313,2.058 l 0,0 c 1.386,0.405 2.846,0.607 4.376,0.607 l 0,0 c 1.938,0 3.443,-0.389 4.521,-1.17 l 0,0 c 1.075,-0.78 1.613,-1.842 1.613,-3.185 l 0,0 c 0,-3.368 -3.156,-5.051 -9.469,-5.051 l 0,0 -3.576,0 0,-4.161 3.813,0 c 3.281,0 5.756,-0.44 7.421,-1.322 l 0,0 c 1.671,-0.88 2.506,-2.158 2.506,-3.836 l 0,0 c 0,-3.64 -2.783,-5.461 -8.344,-5.461 l 0,0 c -1.445,0 -3.038,0.18 -4.781,0.543 l 0,0 c -1.74,0.36 -3.31,0.872 -4.711,1.538 l 0,0 0,-4.528 c 2.528,-1.143 5.901,-1.713 10.119,-1.713 l 0,0 c 4.061,0 7.242,0.83 9.547,2.492 l 0,0 c 2.303,1.661 3.455,3.966 3.455,6.914 l 0,0 c 0,2.108 -0.725,3.816 -2.175,5.126 l 0,0 c -1.455,1.305 -3.565,2.125 -6.341,2.458 l 0,0 0,0.13 c 2.413,0.363 4.303,1.2 5.666,2.512 l 0,0 c 1.368,1.316 2.05,3.006 2.05,5.074 l 0,0 c 0,2.383 -0.975,4.291 -2.925,5.721 l 0,0 c -1.95,1.43 -4.603,2.145 -7.954,2.145 l 0,0 c -4.408,0 -8.236,-1.128 -11.487,-3.38"
               style="fill:url(#linearGradient27589);stroke:none"
               id="path4016"
               inkscape:connector-curvature="0" />
          </g>
        </g>
      </g>
    </g>
    <g
       transform="matrix(1.25,0,0,-1.25,18.571429,8309.8484)"
       id="g4018">
      <g
         id="g4020"
         clip-path="url(#clipPath4022)">
        <g
           id="g4026">
          <g
             id="g4028">
            <path
               d="m 94.525,6328.007 0,-12.96 -14.608,0 0,12.96 -5.178,0 0,-31.685 5.178,0 0,14.282 14.608,0 0,-14.282 5.2,0 0,31.685 -5.2,0 z"
               style="fill:url(#linearGradient27591);stroke:none"
               id="path4042"
               inkscape:connector-curvature="0" />
          </g>
        </g>
      </g>
    </g>
    <g
       transform="matrix(1.25,0,0,-1.25,18.571429,8309.8484)"
       id="g4044">
      <g
         id="g4046"
         clip-path="url(#clipPath4048)">
        <g
           id="g4052">
          <g
             id="g4054">
            <path
               d="m 115.963,6328.137 -11.855,-31.815 5.461,0 3.098,8.799 12.115,0 3.163,-8.799 5.506,0 -11.855,31.815 -5.633,0 z m 1.082,-10.294 c 0.751,2.108 1.323,4.053 1.713,5.828 l 0,0 c 0.143,-0.577 0.405,-1.487 0.79,-2.73 l 0,0 c 0.383,-1.243 0.683,-2.153 0.901,-2.731 l 0,0 2.967,-8.623 -9.231,0 2.86,8.256 z"
               style="fill:url(#linearGradient27593);stroke:none"
               id="path4068"
               inkscape:connector-curvature="0" />
          </g>
        </g>
      </g>
    </g>
    <g
       transform="matrix(1.25,0,0,-1.25,18.571429,8309.8484)"
       id="g4070">
      <g
         id="g4072"
         clip-path="url(#clipPath4074)">
        <g
           id="g4078">
          <g
             id="g4080">
            <path
               d="m 137.856,6328.007 0,-31.685 17.92,0 0,4.401 -12.742,0 0,9.946 11.942,0 0,4.333 -11.942,0 0,8.627 12.742,0 0,4.378 -17.92,0 z"
               style="fill:url(#linearGradient27595);stroke:none"
               id="path4094"
               inkscape:connector-curvature="0" />
          </g>
        </g>
      </g>
    </g>
    <g
       transform="matrix(1.25,0,0,-1.25,18.571429,8309.8484)"
       id="g4096">
      <g
         id="g4098"
         clip-path="url(#clipPath4100)">
        <g
           id="g4104">
          <g
             id="g4106">
            <path
               d="m 196.068,6328.007 0,-27.241 -11.4,0 0,27.241 -5.243,0 0,-27.241 -11.399,0 0,27.241 -5.178,0 0,-31.685 38.465,0 0,31.685 -5.245,0 z"
               style="fill:url(#linearGradient27597);stroke:none"
               id="path4120"
               inkscape:connector-curvature="0" />
          </g>
        </g>
      </g>
    </g>
    <g
       transform="matrix(1.25,0,0,-1.25,18.571429,8309.8484)"
       id="g4122">
      <g
         id="g4124"
         clip-path="url(#clipPath4126)">
        <g
           id="g4130">
          <g
             id="g4132">
            <path
               d="m 209.9,6328.007 0,-31.685 9.884,0 c 3.958,0 6.981,0.813 9.069,2.441 l 0,0 c 2.085,1.622 3.13,3.99 3.13,7.096 l 0,0 c 0,2.99 -1.065,5.283 -3.195,6.881 l 0,0 c -2.133,1.595 -5.206,2.393 -9.222,2.393 l 0,0 -4.485,0 0,12.874 -5.181,0 z m 5.181,-17.208 3.77,0 c 2.818,0 4.826,-0.397 6.024,-1.192 l 0,0 c 1.2,-0.793 1.8,-2.043 1.8,-3.748 l 0,0 c 0,-1.82 -0.625,-3.141 -1.875,-3.956 l 0,0 c -1.251,-0.818 -3.038,-1.225 -5.364,-1.225 l 0,0 -4.355,0 0,10.121 z"
               style="fill:url(#linearGradient27599);stroke:none"
               id="path4146"
               inkscape:connector-curvature="0" />
          </g>
        </g>
      </g>
    </g>
    <g
       transform="matrix(1.25,0,0,-1.25,18.571429,8309.8484)"
       id="g4148">
      <g
         id="g4150"
         clip-path="url(#clipPath4152)">
        <g
           id="g4156">
          <g
             id="g4158">
            <path
               d="m 250.283,6328.007 0,-31.685 5.181,0 0,27.242 13.977,0 0,-27.242 5.201,0 0,31.685 -24.359,0 z"
               style="fill:url(#linearGradient27601);stroke:none"
               id="path4172"
               inkscape:connector-curvature="0" />
          </g>
        </g>
      </g>
    </g>
    <g
       transform="matrix(1.25,0,0,-1.25,18.571429,8309.8484)"
       id="g4174">
      <g
         id="g4176"
         clip-path="url(#clipPath4178)">
        <g
           id="g4182">
          <g
             id="g4184">
            <path
               d="m 283.208,6328.007 0,-31.685 5.181,0 0,11.855 3.293,0 c 4.001,0 7.086,0.882 9.254,2.645 l 0,0 c 2.168,1.763 3.251,4.298 3.251,7.606 l 0,0 c 0,3.151 -0.988,5.533 -2.958,7.151 l 0,0 c -1.973,1.618 -4.939,2.428 -8.897,2.428 l 0,0 -9.124,0 z m 5.181,-4.336 3.596,0 c 2.355,0 4.088,-0.447 5.201,-1.342 l 0,0 c 1.112,-0.895 1.67,-2.253 1.67,-4.074 l 0,0 c 0,-1.964 -0.623,-3.41 -1.865,-4.335 l 0,0 c -1.243,-0.925 -3.193,-1.388 -5.851,-1.388 l 0,0 -2.751,0 0,11.139 z"
               style="fill:url(#linearGradient27603);stroke:none"
               id="path4198"
               inkscape:connector-curvature="0" />
          </g>
        </g>
      </g>
    </g>
    <g
       transform="matrix(1.25,0,0,-1.25,18.571429,8309.8484)"
       id="g4200">
      <g
         id="g4202"
         clip-path="url(#clipPath4204)">
        <g
           id="g4208">
          <g
             id="g4210">
            <path
               d="m 313.043,6324.302 c -2.578,-2.803 -3.868,-6.822 -3.868,-12.05 l 0,0 c 0,-5.231 1.283,-9.266 3.848,-12.104 l 0,0 c 2.563,-2.84 6.236,-4.258 11.019,-4.258 l 0,0 c 4.724,0 8.374,1.43 10.954,4.29 l 0,0 c 2.578,2.861 3.869,6.871 3.869,12.027 l 0,0 c 0,5.173 -1.286,9.182 -3.859,12.029 l 0,0 c -2.57,2.846 -6.21,4.269 -10.921,4.269 l 0,0 c -4.783,0 -8.462,-1.401 -11.042,-4.203 m 3.998,-20.969 c -1.573,2.016 -2.36,4.974 -2.36,8.874 l 0,0 c 0,3.888 0.79,6.834 2.373,8.844 l 0,0 c 1.58,2.008 3.925,3.011 7.031,3.011 l 0,0 c 3.078,0 5.391,-1.003 6.946,-3.011 l 0,0 c 1.553,-2.01 2.33,-4.956 2.33,-8.844 l 0,0 c 0,-3.943 -0.785,-6.911 -2.35,-8.906 l 0,0 c -1.57,-1.993 -3.891,-2.99 -6.969,-2.99 l 0,0 c -3.093,0 -5.426,1.007 -7.001,3.022"
               style="fill:url(#linearGradient27605);stroke:none"
               id="path4224"
               inkscape:connector-curvature="0" />
          </g>
        </g>
      </g>
    </g>
    <g
       transform="matrix(1.25,0,0,-1.25,18.571429,8309.8484)"
       id="g4226">
      <g
         id="g4228"
         clip-path="url(#clipPath4230)">
        <g
           id="g4234">
          <g
             id="g4236">
            <path
               d="m 357.637,6328.462 0,-3.9 -1.277,0 c -2.543,0 -4.761,-0.511 -6.654,-1.528 l 0,0 c -1.893,-1.02 -3.345,-2.428 -4.355,-4.228 l 0,0 c -1.013,-1.798 -1.518,-3.816 -1.518,-6.056 l 0,0 c 0,-2.311 0.557,-4.414 1.67,-6.306 l 0,0 c 1.11,-1.893 2.645,-3.313 4.603,-4.258 l 0,0 c 1.958,-0.948 4.231,-1.42 6.816,-1.42 l 0,0 0.715,0 0,-4.876 4.899,0 0,4.876 0.692,0 c 2.616,0 4.894,0.469 6.839,1.41 l 0,0 c 1.943,0.937 3.47,2.345 4.583,4.225 l 0,0 c 1.113,1.878 1.668,3.994 1.668,6.349 l 0,0 c 0,2.283 -0.495,4.315 -1.483,6.101 l 0,0 c -0.99,1.782 -2.428,3.183 -4.316,4.193 l 0,0 c -1.882,1.01 -4.105,1.518 -6.661,1.518 l 0,0 -1.322,0 0,3.9 -4.899,0 z m 4.899,-8.126 1.062,0 c 2.383,0 4.259,-0.68 5.624,-2.038 l 0,0 c 1.365,-1.358 2.048,-3.193 2.048,-5.506 l 0,0 c 0,-2.482 -0.736,-4.423 -2.201,-5.818 l 0,0 c -1.468,-1.395 -3.5,-2.091 -6.101,-2.091 l 0,0 -0.432,0 0,15.453 z m -11.442,-13.339 c -1.46,1.407 -2.19,3.34 -2.19,5.795 l 0,0 c 0,2.298 0.68,4.131 2.037,5.494 l 0,0 c 1.358,1.367 3.236,2.05 5.636,2.05 l 0,0 1.06,0 0,-15.453 -0.39,0 c -2.643,0 -4.695,0.703 -6.153,2.114"
               style="fill:url(#linearGradient27607);stroke:none"
               id="path4250"
               inkscape:connector-curvature="0" />
          </g>
        </g>
      </g>
    </g>
    <g
       transform="matrix(1.25,0,0,-1.25,18.571429,8309.8484)"
       id="g4252">
      <g
         id="g4254"
         clip-path="url(#clipPath4256)">
        <g
           id="g4260">
          <g
             id="g4262">
            <path
               d="m 382.911,6328.007 0,-31.685 17.923,0 0,4.401 -12.742,0 0,9.946 11.939,0 0,4.333 -11.939,0 0,8.627 12.742,0 0,4.378 -17.923,0 z"
               style="fill:url(#linearGradient27609);stroke:none"
               id="path4276"
               inkscape:connector-curvature="0" />
          </g>
        </g>
      </g>
    </g>
    <g
       transform="matrix(1.25,0,0,-1.25,18.571429,8309.8484)"
       id="g4278">
      <g
         id="g4280"
         clip-path="url(#clipPath4282)">
        <g
           id="g4286">
          <g
             id="g4288">
            <path
               d="m 413.386,6326.489 c -2.283,-1.315 -4.028,-3.208 -5.233,-5.678 l 0,0 c -1.208,-2.47 -1.811,-5.353 -1.811,-8.646 l 0,0 c 0,-5.231 1.243,-9.252 3.728,-12.06 l 0,0 c 2.486,-2.81 6.046,-4.215 10.685,-4.215 l 0,0 c 3.15,0 5.966,0.47 8.451,1.407 l 0,0 0,4.444 c -1.358,-0.418 -2.665,-0.763 -3.921,-1.028 l 0,0 c -1.257,-0.27 -2.558,-0.402 -3.903,-0.402 l 0,0 c -3.105,0 -5.478,0.997 -7.118,2.99 l 0,0 c -1.641,1.995 -2.458,4.933 -2.458,8.821 l 0,0 c 0,3.713 0.852,6.624 2.555,8.732 l 0,0 c 1.705,2.11 4.046,3.165 7.021,3.165 l 0,0 c 1.315,0 2.568,-0.192 3.761,-0.575 l 0,0 c 1.19,-0.382 2.323,-0.828 3.39,-1.333 l 0,0 1.866,4.313 c -2.746,1.358 -5.736,2.038 -8.972,2.038 l 0,0 c -3.078,0 -5.758,-0.657 -8.041,-1.973"
               style="fill:url(#linearGradient27611);stroke:none"
               id="path4302"
               inkscape:connector-curvature="0" />
          </g>
        </g>
      </g>
    </g>
    <g
       transform="matrix(1.25,0,0,-1.25,18.571429,8309.8484)"
       id="g4304">
      <g
         id="g4306"
         clip-path="url(#clipPath4308)">
        <g
           id="g4312">
          <g
             id="g4314">
            <path
               d="m 441.738,6326.489 c -2.283,-1.315 -4.028,-3.208 -5.233,-5.678 l 0,0 c -1.208,-2.47 -1.811,-5.353 -1.811,-8.646 l 0,0 c 0,-5.231 1.243,-9.252 3.728,-12.06 l 0,0 c 2.486,-2.81 6.046,-4.215 10.685,-4.215 l 0,0 c 3.15,0 5.965,0.47 8.451,1.407 l 0,0 0,4.444 c -1.358,-0.418 -2.666,-0.763 -3.923,-1.028 l 0,0 c -1.256,-0.27 -2.556,-0.402 -3.901,-0.402 l 0,0 c -3.105,0 -5.478,0.997 -7.118,2.99 l 0,0 c -1.641,1.995 -2.461,4.933 -2.461,8.821 l 0,0 c 0,3.713 0.853,6.624 2.558,8.732 l 0,0 c 1.705,2.11 4.046,3.165 7.021,3.165 l 0,0 c 1.315,0 2.568,-0.192 3.761,-0.575 l 0,0 c 1.19,-0.382 2.323,-0.828 3.393,-1.333 l 0,0 1.862,4.313 c -2.745,1.358 -5.735,2.038 -8.971,2.038 l 0,0 c -3.078,0 -5.758,-0.657 -8.041,-1.973"
               style="fill:url(#linearGradient27613);stroke:none"
               id="path4328"
               inkscape:connector-curvature="0" />
          </g>
        </g>
      </g>
    </g>
    <g
       transform="matrix(1.25,0,0,-1.25,18.571429,8309.8484)"
       id="g4330">
      <g
         id="g4332"
         clip-path="url(#clipPath4334)">
        <g
           id="g4338">
          <g
             id="g4340">
            <path
               d="m 485.41,6328.007 -16.188,-25.246 -0.195,0 c 0.043,0.62 0.108,1.807 0.195,3.563 l 0,0 c 0.088,1.758 0.13,3.493 0.13,5.213 l 0,0 0,16.47 -4.746,0 0,-31.685 6.069,0 16.252,25.444 0.173,0 c -0.273,-3.57 -0.413,-6.603 -0.413,-9.104 l 0,0 0,-16.34 4.769,0 0,31.685 -6.046,0 z"
               style="fill:url(#linearGradient27615);stroke:none"
               id="path4354"
               inkscape:connector-curvature="0" />
          </g>
        </g>
      </g>
    </g>
    <g
       transform="matrix(1.25,0,0,-1.25,18.571429,8309.8484)"
       id="g4356">
      <g
         id="g4358"
         clip-path="url(#clipPath4360)">
        <g
           id="g4364">
          <g
             id="g4366">
            <path
               d="m 502.287,6324.302 c -2.578,-2.803 -3.868,-6.822 -3.868,-12.05 l 0,0 c 0,-5.231 1.28,-9.266 3.846,-12.104 l 0,0 c 2.565,-2.84 6.238,-4.258 11.021,-4.258 l 0,0 c 4.724,0 8.374,1.43 10.955,4.29 l 0,0 c 2.577,2.861 3.868,6.871 3.868,12.027 l 0,0 c 0,5.173 -1.286,9.182 -3.858,12.029 l 0,0 c -2.573,2.846 -6.214,4.269 -10.922,4.269 l 0,0 c -4.783,0 -8.464,-1.401 -11.042,-4.203 m 3.998,-20.969 c -1.575,2.016 -2.363,4.974 -2.363,8.874 l 0,0 c 0,3.888 0.791,6.834 2.376,8.844 l 0,0 c 1.58,2.008 3.923,3.011 7.031,3.011 l 0,0 c 3.075,0 5.391,-1.003 6.943,-3.011 l 0,0 c 1.553,-2.01 2.331,-4.956 2.331,-8.844 l 0,0 c 0,-3.943 -0.783,-6.911 -2.351,-8.906 l 0,0 c -1.567,-1.993 -3.89,-2.99 -6.966,-2.99 l 0,0 c -3.093,0 -5.425,1.007 -7.001,3.022"
               style="fill:url(#linearGradient27617);stroke:none"
               id="path4380"
               inkscape:connector-curvature="0" />
          </g>
        </g>
      </g>
    </g>
    <g
       transform="matrix(1.25,0,0,-1.25,18.571429,8309.8484)"
       id="g4382">
      <g
         id="g4384"
         clip-path="url(#clipPath4386)">
        <g
           id="g4390">
          <g
             id="g4392">
            <path
               d="m 554.92,6328.007 0,-12.96 -14.605,0 0,12.96 -5.18,0 0,-31.685 5.18,0 0,14.282 14.605,0 0,-14.282 5.201,0 0,31.685 -5.201,0 z"
               style="fill:url(#linearGradient27619);stroke:none"
               id="path4406"
               inkscape:connector-curvature="0" />
          </g>
        </g>
      </g>
    </g>
    <g
       transform="matrix(1.25,0,0,-1.25,18.571429,8309.8484)"
       id="g4408">
      <g
         id="g4410"
         clip-path="url(#clipPath4412)">
        <g
           id="g4416">
          <g
             id="g4418">
            <path
               d="m 576.359,6328.137 -11.855,-31.815 5.461,0 3.101,8.799 12.114,0 3.163,-8.799 5.503,0 -11.854,31.815 -5.633,0 z m 1.082,-10.294 c 0.753,2.108 1.323,4.053 1.713,5.828 l 0,0 c 0.145,-0.577 0.408,-1.487 0.79,-2.73 l 0,0 c 0.383,-1.243 0.683,-2.153 0.9,-2.731 l 0,0 2.971,-8.623 -9.234,0 2.86,8.256 z"
               style="fill:url(#linearGradient27621);stroke:none"
               id="path4432"
               inkscape:connector-curvature="0" />
          </g>
        </g>
      </g>
    </g>
    <g
       transform="matrix(1.25,0,0,-1.25,18.571429,8309.8484)"
       id="g4434">
      <g
         id="g4436"
         clip-path="url(#clipPath4438)">
        <g
           id="g4442">
          <g
             id="g4444">
            <path
               d="m 603.518,6328.007 c -0.968,-7.528 -1.803,-13.429 -2.503,-17.705 l 0,0 c -0.703,-4.278 -1.343,-7.041 -1.928,-8.289 l 0,0 c -0.585,-1.253 -1.398,-1.875 -2.438,-1.875 l 0,0 c -0.78,0 -1.583,0.18 -2.405,0.54 l 0,0 0,-4.311 c 0.952,-0.362 1.955,-0.542 3.01,-0.542 l 0,0 c 2.053,-0.043 3.701,0.587 4.944,1.898 l 0,0 c 1.24,1.305 2.205,3.628 2.892,6.965 l 0,0 c 0.686,3.338 1.598,9.629 2.741,18.876 l 0,0 9.014,0 0,-27.242 5.181,0 0,31.685 -18.508,0 z"
               style="fill:url(#linearGradient4446);stroke:none"
               id="path4458"
               inkscape:connector-curvature="0" />
          </g>
        </g>
      </g>
    </g>
    <g
       transform="matrix(1.25,0,0,-1.25,18.571429,8309.8484)"
       id="g4460">
      <g
         id="g4462"
         clip-path="url(#clipPath4464)">
        <g
           id="g4468">
          <g
             id="g4470">
            <path
               d="m 638.283,6328.137 -11.854,-31.815 5.461,0 3.1,8.799 12.114,0 3.163,-8.799 5.504,0 -11.852,31.815 -5.636,0 z m 1.085,-10.294 c 0.75,2.108 1.32,4.053 1.71,5.828 l 0,0 c 0.146,-0.577 0.408,-1.487 0.793,-2.73 l 0,0 c 0.38,-1.243 0.683,-2.153 0.898,-2.731 l 0,0 2.97,-8.623 -9.234,0 2.863,8.256 z"
               style="fill:url(#linearGradient27623);stroke:none"
               id="path4484"
               inkscape:connector-curvature="0" />
          </g>
        </g>
      </g>
    </g>
    <g
       transform="matrix(1.25,0,0,-1.25,18.571429,8309.8484)"
       id="g4486">
      <g
         id="g4488"
         clip-path="url(#clipPath4490)">
        <g
           id="g4494">
          <g
             id="g4496">
            <path
               d="m 656.341,6326.012 1.82,-3.813 c 1.113,0.55 2.253,1.017 3.426,1.407 l 0,0 c 1.17,0.391 2.44,0.585 3.813,0.585 l 0,0 c 1.517,0 2.68,-0.324 3.488,-0.975 l 0,0 c 0.81,-0.65 1.215,-1.58 1.215,-2.795 l 0,0 c 0,-1.04 -0.25,-1.935 -0.748,-2.688 l 0,0 c -0.5,-0.75 -1.607,-1.805 -3.328,-3.163 l 0,0 c -1.445,-1.128 -2.455,-2.218 -3.033,-3.273 l 0,0 c -0.577,-1.053 -0.867,-2.375 -0.867,-3.965 l 0,0 0,-1.386 4.248,0 0,0.975 c 0,1.17 0.227,2.1 0.682,2.796 l 0,0 c 0.456,0.692 1.356,1.568 2.698,2.62 l 0,0 c 1.576,1.23 2.683,2.226 3.328,2.991 l 0,0 c 0.641,0.767 1.123,1.572 1.441,2.418 l 0,0 c 0.317,0.845 0.477,1.81 0.477,2.893 l 0,0 c 0,2.44 -0.832,4.355 -2.493,5.743 l 0,0 c -1.662,1.388 -3.908,2.08 -6.741,2.08 l 0,0 c -3.35,0 -6.493,-0.817 -9.426,-2.45 m 4.898,-26.979 c 0,-1.055 0.275,-1.876 0.823,-2.461 l 0,0 c 0.55,-0.585 1.337,-0.877 2.363,-0.877 l 0,0 c 1.025,0 1.815,0.3 2.372,0.9 l 0,0 c 0.556,0.597 0.836,1.41 0.836,2.438 l 0,0 c 0,1.04 -0.276,1.845 -0.826,2.415 l 0,0 c -0.547,0.57 -1.342,0.858 -2.382,0.858 l 0,0 c -2.123,0 -3.186,-1.093 -3.186,-3.273"
               style="fill:url(#linearGradient4498);stroke:none"
               id="path4510"
               inkscape:connector-curvature="0" />
          </g>
        </g>
      </g>
    </g>
    <g
       transform="matrix(1.25,0,0,-1.25,18.571429,8309.8484)"
       id="g4512">
      <g
         id="g4514"
         clip-path="url(#clipPath4516)">
        <g
           id="g4520">
          <g
             id="g4522">
            <path
               d="m 201.503,6274.747 0,-31.683 5.181,0 0,11.854 3.293,0 c 4.003,0 7.086,0.88 9.254,2.643 l 0,0 c 2.168,1.763 3.251,4.298 3.251,7.609 l 0,0 c 0,3.148 -0.988,5.531 -2.958,7.151 l 0,0 c -1.973,1.618 -4.939,2.426 -8.897,2.426 l 0,0 -9.124,0 z m 5.181,-4.334 3.596,0 c 2.355,0 4.088,-0.447 5.203,-1.343 l 0,0 c 1.11,-0.897 1.668,-2.255 1.668,-4.075 l 0,0 c 0,-1.965 -0.623,-3.408 -1.865,-4.333 l 0,0 c -1.241,-0.925 -3.193,-1.388 -5.851,-1.388 l 0,0 -2.751,0 0,11.139 z"
               style="fill:url(#linearGradient27625);stroke:none"
               id="path4536"
               inkscape:connector-curvature="0" />
          </g>
        </g>
      </g>
    </g>
    <g
       transform="matrix(1.25,0,0,-1.25,18.571429,8309.8484)"
       id="g4538">
      <g
         id="g4540"
         clip-path="url(#clipPath4542)">
        <g
           id="g4546">
          <g
             id="g4548">
            <path
               d="m 229.033,6274.747 0,-31.683 17.92,0 0,4.398 -12.742,0 0,9.949 11.942,0 0,4.334 -11.942,0 0,8.626 12.742,0 0,4.376 -17.92,0 z"
               style="fill:url(#linearGradient27627);stroke:none"
               id="path4562"
               inkscape:connector-curvature="0" />
          </g>
        </g>
      </g>
    </g>
    <g
       transform="matrix(1.25,0,0,-1.25,18.571429,8309.8484)"
       id="g4564">
      <g
         id="g4566"
         clip-path="url(#clipPath4568)">
        <g
           id="g4572">
          <g
             id="g4574">
            <path
               d="m 272.032,6274.747 -12.83,-15.343 0,15.343 -5.178,0 0,-31.683 5.178,0 0,16.058 13.047,-16.058 6.089,0 -13.415,16.383 12.787,15.3 -5.678,0 z"
               style="fill:url(#linearGradient27629);stroke:none"
               id="path4588"
               inkscape:connector-curvature="0" />
          </g>
        </g>
      </g>
    </g>
    <g
       transform="matrix(1.25,0,0,-1.25,18.571429,8309.8484)"
       id="g4590">
      <g
         id="g4592"
         clip-path="url(#clipPath4594)">
        <g
           id="g4598">
          <g
             id="g4600">
            <path
               d="m 285.051,6271.041 c -2.578,-2.803 -3.868,-6.819 -3.868,-12.049 l 0,0 c 0,-5.229 1.283,-9.264 3.848,-12.102 l 0,0 c 2.563,-2.841 6.236,-4.259 11.019,-4.259 l 0,0 c 4.724,0 8.374,1.431 10.955,4.291 l 0,0 c 2.578,2.861 3.868,6.869 3.868,12.027 l 0,0 c 0,5.173 -1.285,9.181 -3.858,12.027 l 0,0 c -2.571,2.845 -6.211,4.271 -10.922,4.271 l 0,0 c -4.781,0 -8.461,-1.403 -11.042,-4.206 m 3.998,-20.966 c -1.575,2.015 -2.362,4.973 -2.362,8.874 l 0,0 c 0,3.885 0.792,6.834 2.375,8.842 l 0,0 c 1.58,2.007 3.926,3.012 7.031,3.012 l 0,0 c 3.078,0 5.391,-1.005 6.946,-3.012 l 0,0 c 1.553,-2.008 2.328,-4.957 2.328,-8.842 l 0,0 c 0,-3.943 -0.783,-6.913 -2.35,-8.907 l 0,0 c -1.568,-1.995 -3.891,-2.99 -6.967,-2.99 l 0,0 c -3.093,0 -5.425,1.008 -7.001,3.023"
               style="fill:url(#linearGradient4602);stroke:none"
               id="path4614"
               inkscape:connector-curvature="0" />
          </g>
        </g>
      </g>
    </g>
    <g
       transform="matrix(1.25,0,0,-1.25,18.571429,8309.8484)"
       id="g4616">
      <g
         id="g4618"
         clip-path="url(#clipPath4620)">
        <g
           id="g4624">
          <g
             id="g4626">
            <path
               d="m 343.188,6274.747 -9.057,-25.205 -0.13,0 -8.799,25.205 -7.303,0 0,-31.683 4.703,0 0,15.407 c 0,3.441 -0.122,7.124 -0.37,11.054 l 0,0 0.175,0 9.189,-26.461 4.571,0 9.514,26.416 0.175,0 c -0.06,-0.535 -0.128,-2.065 -0.208,-4.593 l 0,0 c -0.08,-2.528 -0.12,-4.58 -0.12,-6.156 l 0,0 0,-15.667 4.986,0 0,31.683 -7.326,0 z"
               style="fill:url(#linearGradient27631);stroke:none"
               id="path4640"
               inkscape:connector-curvature="0" />
          </g>
        </g>
      </g>
    </g>
    <g
       transform="matrix(1.25,0,0,-1.25,18.571429,8309.8484)"
       id="g4642">
      <g
         id="g4644"
         clip-path="url(#clipPath4646)">
        <g
           id="g4650">
          <g
             id="g4652">
            <path
               d="m 359.08,6274.747 0,-31.683 17.923,0 0,4.398 -12.745,0 0,9.949 11.942,0 0,4.334 -11.942,0 0,8.626 12.745,0 0,4.376 -17.923,0 z"
               style="fill:url(#linearGradient27633);stroke:none"
               id="path4666"
               inkscape:connector-curvature="0" />
          </g>
        </g>
      </g>
    </g>
    <g
       transform="matrix(1.25,0,0,-1.25,18.571429,8309.8484)"
       id="g4668">
      <g
         id="g4670"
         clip-path="url(#clipPath4672)">
        <g
           id="g4676">
          <g
             id="g4678">
            <path
               d="m 403.86,6274.747 0,-12.96 -14.608,0 0,12.96 -5.18,0 0,-31.683 5.18,0 0,14.282 14.608,0 0,-14.282 5.2,0 0,31.683 -5.2,0 z"
               style="fill:url(#linearGradient27635);stroke:none"
               id="path4692"
               inkscape:connector-curvature="0" />
          </g>
        </g>
      </g>
    </g>
    <g
       transform="matrix(1.25,0,0,-1.25,18.571429,8309.8484)"
       id="g4694">
      <g
         id="g4696"
         clip-path="url(#clipPath4698)">
        <g
           id="g4702">
          <g
             id="g4704">
            <path
               d="m 424.148,6274.747 c -0.405,-4.796 -1.316,-9.577 -2.731,-14.345 l 0,0 c -1.417,-4.769 -3.173,-9.067 -5.266,-12.895 l 0,0 -2.45,0 0,-13.177 4.983,0 0,8.734 20.936,0 0,-8.734 4.983,0 0,13.177 -4.095,0 0,27.24 -16.36,0 z m 1.905,-15.895 c 1.303,4.325 2.11,8.131 2.428,11.409 l 0,0 6.848,0 0,-22.754 -13.717,0 c 1.661,3.236 3.141,7.016 4.441,11.345"
               style="fill:url(#linearGradient4706);stroke:none"
               id="path4718"
               inkscape:connector-curvature="0" />
          </g>
        </g>
      </g>
    </g>
    <g
       transform="matrix(1.25,0,0,-1.25,18.571429,8309.8484)"
       id="g4720">
      <g
         id="g4722"
         clip-path="url(#clipPath4724)">
        <g
           id="g4728">
          <g
             id="g4730">
            <path
               d="m 468.622,6274.747 -7.129,-17.098 c -0.347,-0.823 -0.565,-1.423 -0.652,-1.798 l 0,0 -0.215,0 c -0.16,0.505 -0.585,1.508 -1.28,3.01 l 0,0 -7.737,15.886 -5.59,0 11.681,-23.209 c -0.722,-1.675 -1.527,-2.835 -2.418,-3.478 l 0,0 c -0.887,-0.645 -1.99,-0.965 -3.303,-0.965 l 0,0 c -1.547,0 -3.028,0.282 -4.443,0.845 l 0,0 0,-4.658 c 1.43,-0.435 2.983,-0.651 4.658,-0.651 l 0,0 c 1.923,0 3.559,0.288 4.909,0.866 l 0,0 c 1.35,0.577 2.54,1.485 3.565,2.72 l 0,0 c 1.025,1.235 2.153,3.233 3.381,5.993 l 0,0 9.991,22.537 -5.418,0 z"
               style="fill:url(#linearGradient4732);stroke:none"
               id="path4744"
               inkscape:connector-curvature="0" />
          </g>
        </g>
      </g>
    </g>
    <g
       transform="matrix(1.25,0,0,-1.25,18.571429,8309.8484)"
       id="g4746">
      <g
         id="g4748"
         clip-path="url(#clipPath4750)">
        <g
           id="g4754">
          <g
             id="g4756">
            <path
               d="m 496.734,6284.478 c -0.158,-1.445 -0.608,-2.48 -1.343,-3.111 l 0,0 c -0.737,-0.627 -1.813,-0.942 -3.23,-0.942 l 0,0 c -1.198,0 -2.091,0.125 -2.676,0.377 l 0,0 c -0.585,0.256 -1.035,0.671 -1.343,1.248 l 0,0 c -0.312,0.577 -0.51,1.388 -0.597,2.428 l 0,0 -4.616,0 c 0.158,-2.585 0.95,-4.431 2.373,-5.539 l 0,0 c 1.423,-1.102 3.666,-1.657 6.729,-1.657 l 0,0 c 2.99,0 5.253,0.577 6.783,1.735 l 0,0 c 1.533,1.155 2.406,2.976 2.623,5.461 l 0,0 -4.703,0 z m 2.515,-9.731 -16.19,-25.247 -0.195,0 c 0.043,0.62 0.108,1.811 0.195,3.565 l 0,0 c 0.088,1.756 0.13,3.494 0.13,5.211 l 0,0 0,16.471 -4.745,0 0,-31.683 6.068,0 16.252,25.441 0.175,0 c -0.275,-3.567 -0.412,-6.601 -0.412,-9.101 l 0,0 0,-16.34 4.768,0 0,31.683 -6.046,0 z"
               style="fill:url(#linearGradient4758);stroke:none"
               id="path4770"
               inkscape:connector-curvature="0" />
          </g>
        </g>
      </g>
    </g>
    <g
       transform="matrix(1.25,0,0,-1.25,18.571429,8309.8484)"
       id="g4772">
      <g
         id="g4774"
         clip-path="url(#clipPath4776)">
        <g
           id="g4780">
          <g
             id="g4782">
            <path
               d="m 512.776,6274.747 1.128,-22.061 3.77,0 1.106,22.061 -6.004,0 z m 0.585,-26.537 c -0.562,-0.555 -0.845,-1.368 -0.845,-2.438 l 0,0 c 0,-1.068 0.285,-1.893 0.858,-2.47 l 0,0 c 0.567,-0.578 1.368,-0.865 2.393,-0.865 l 0,0 c 1.012,0 1.795,0.299 2.35,0.899 l 0,0 c 0.558,0.598 0.835,1.411 0.835,2.436 l 0,0 c 0,1.028 -0.275,1.828 -0.822,2.405 l 0,0 c -0.55,0.578 -1.338,0.868 -2.363,0.868 l 0,0 c -1.04,0 -1.843,-0.277 -2.406,-0.835"
               style="fill:url(#linearGradient4784);stroke:none"
               id="path4796"
               inkscape:connector-curvature="0" />
          </g>
        </g>
      </g>
    </g>
  </g>
</svg>
