<svg xmlns="http://www.w3.org/2000/svg" xmlns:xlink="http://www.w3.org/1999/xlink" viewBox="0 0 321.54 34.35"><defs><style>.cls-1{fill:url(#linear-gradient);}.cls-2{fill:url(#linear-gradient-2);}.cls-3{fill:url(#linear-gradient-3);}.cls-4{fill:url(#linear-gradient-10);}.cls-5{fill:url(#linear-gradient-11);}.cls-6{fill:url(#linear-gradient-13);}</style><linearGradient id="linear-gradient" x1="332.61" y1="12.85" x2="-12.46" y2="12.85" gradientUnits="userSpaceOnUse"><stop offset="0" stop-color="#47c0b8"/><stop offset="0.35" stop-color="#47d2b1"/><stop offset="0.59" stop-color="#36c99a"/><stop offset="1" stop-color="#12b56a"/></linearGradient><linearGradient id="linear-gradient-2" x1="332.61" y1="15.98" x2="-12.46" y2="15.98" xlink:href="#linear-gradient"/><linearGradient id="linear-gradient-3" x1="332.61" y1="19.42" x2="-12.46" y2="19.42" xlink:href="#linear-gradient"/><linearGradient id="linear-gradient-10" x1="332.61" y1="20.13" x2="-12.46" y2="20.13" xlink:href="#linear-gradient"/><linearGradient id="linear-gradient-11" x1="332.61" y1="20.3" x2="-12.46" y2="20.3" xlink:href="#linear-gradient"/><linearGradient id="linear-gradient-13" x1="332.61" y1="19.4" x2="-12.46" y2="19.4" xlink:href="#linear-gradient"/></defs><title>Asset 27</title><g id="Layer_2" data-name="Layer 2"><g id="Layer_1-2" data-name="Layer 1"><path class="cls-1" d="M0,0H7.63q5.31,0,7.67,1.55a5.41,5.41,0,0,1,2.37,4.88,6,6,0,0,1-1.16,3.75,5.25,5.25,0,0,1-3.34,1.88v.17a6.66,6.66,0,0,1,4,2,6.08,6.08,0,0,1,1.27,4.07A6.59,6.59,0,0,1,16,23.74a10.37,10.37,0,0,1-6.72,2H0ZM4.2,10.62h4a6.87,6.87,0,0,0,3.85-.84,3.19,3.19,0,0,0,1.22-2.84A2.86,2.86,0,0,0,12,4.32a8.32,8.32,0,0,0-4.16-.8H4.2ZM4.2,14v8.14H8.67a6.62,6.62,0,0,0,4-1A3.76,3.76,0,0,0,14,18a3.39,3.39,0,0,0-1.37-3,7.28,7.28,0,0,0-4.16-1Z"/><path class="cls-2" d="M27.28,6.26v10c0,1.16-.09,2.87-.28,5.12L36.76,6.26h5V25.7h-4V15.91c0-.54,0-1.41.09-2.62s.12-2.09.17-2.64L28.37,25.7h-5V6.26Z"/><path class="cls-3" d="M66.34,32.57H62.49V25.7H49.17v6.87H45.35V22.5h1.58a23.93,23.93,0,0,0,3.3-7.18,39.19,39.19,0,0,0,1.45-9.06H63.49V22.5h2.85ZM59.43,22.5V9.42H55.25a35.79,35.79,0,0,1-1.4,7.14,24.49,24.49,0,0,1-2.59,5.94Z"/><path class="cls-2" d="M78.43,26.05a9.42,9.42,0,0,1-7.09-2.64,10.09,10.09,0,0,1-2.56-7.29,11,11,0,0,1,2.38-7.49,8.17,8.17,0,0,1,6.52-2.72,8,8,0,0,1,6.08,2.33A8.94,8.94,0,0,1,86,14.68v2.23H73a6.38,6.38,0,0,0,1.53,4.35,5.33,5.33,0,0,0,4.06,1.52,15.36,15.36,0,0,0,3.2-.32A17.24,17.24,0,0,0,85,21.38v3.35a12.8,12.8,0,0,1-3.06,1A18.71,18.71,0,0,1,78.43,26.05ZM77.68,9a4.17,4.17,0,0,0-3.16,1.24,6,6,0,0,0-1.41,3.64h8.82a5.39,5.39,0,0,0-1.16-3.65A4,4,0,0,0,77.68,9Z"/><path class="cls-2" d="M107.93,15.94q0,4.77-2.44,7.44a8.77,8.77,0,0,1-6.81,2.67,9.3,9.3,0,0,1-4.81-1.23,8.12,8.12,0,0,1-3.22-3.53,12.07,12.07,0,0,1-1.12-5.35c0-3.15.8-5.61,2.42-7.38a8.8,8.8,0,0,1,6.84-2.65,8.57,8.57,0,0,1,6.68,2.71A10.49,10.49,0,0,1,107.93,15.94Zm-14.15,0q0,6.74,5,6.74t4.93-6.74c0-4.44-1.66-6.66-5-6.66A4.24,4.24,0,0,0,95,11,8.78,8.78,0,0,0,93.78,15.94Z"/><path class="cls-2" d="M116.63,6.26v10c0,1.16-.09,2.87-.28,5.12l9.76-15.08h5V25.7h-4V15.91c0-.54,0-1.41.09-2.62s.12-2.09.17-2.64L117.72,25.7h-5V6.26Z"/><path class="cls-2" d="M141.17,6.26v7.8h9.16V6.26h4.13V25.7h-4.13V17.31h-9.16V25.7H137V6.26Z"/><path class="cls-2" d="M168.21,26.05c-3,0-5.18-.86-6.71-2.57s-2.29-4.19-2.29-7.4.79-5.78,2.39-7.54,3.92-2.63,6.94-2.63a13,13,0,0,1,5.54,1.14l-1.25,3.32a12.54,12.54,0,0,0-4.33-1q-5,0-5,6.7A8,8,0,0,0,164.72,21a4.33,4.33,0,0,0,3.68,1.65,10.51,10.51,0,0,0,5.22-1.38v3.61a8.36,8.36,0,0,1-2.37.93A13.92,13.92,0,0,1,168.21,26.05Z"/><path class="cls-2" d="M192.8,6.26V9.49h-6.33V25.7h-4.15V9.49H176V6.26Z"/><path class="cls-4" d="M206.4,26.05a6.81,6.81,0,0,1-5.73-2.65h-.24c.16,1.64.24,2.63.24,3v8h-4.13V6.26h3.34c.09.36.29,1.23.58,2.6h.21a6.46,6.46,0,0,1,5.8-2.95,6.76,6.76,0,0,1,5.67,2.63c1.36,1.76,2,4.23,2,7.4s-.69,5.66-2.06,7.44A6.82,6.82,0,0,1,206.4,26.05Zm-1-16.77a4.28,4.28,0,0,0-3.59,1.44,7.45,7.45,0,0,0-1.14,4.61v.61q0,3.55,1.13,5.14a4.16,4.16,0,0,0,3.67,1.6,3.75,3.75,0,0,0,3.31-1.76,9.1,9.1,0,0,0,1.16-5A8.74,8.74,0,0,0,208.78,11,3.82,3.82,0,0,0,205.4,9.28Z"/><path class="cls-5" d="M216,6.26h4.5l3.95,11a20.89,20.89,0,0,1,1.2,4.43h.14a17.61,17.61,0,0,1,.58-2.35q.42-1.38,4.46-13.1h4.47l-8.32,22q-2.26,6.07-7.55,6.07a11.9,11.9,0,0,1-2.68-.3V30.78a9.72,9.72,0,0,0,2.13.21q3,0,4.2-3.46l.72-1.83Z"/><path class="cls-2" d="M250.33,6.26h4.54l-8,9.37,8.72,10.07H250.8l-8.4-9.86V25.7h-4.13V6.26h4.13V15.7Z"/><path class="cls-6" d="M276.06,22.5h2.82v10H275V25.7H258.75V6.26h4.13V22.43h9.05V6.26h4.13Z"/><path class="cls-2" d="M286.37,6.26v10c0,1.16-.1,2.87-.29,5.12l9.76-15.08h5V25.7h-4V15.91c0-.54,0-1.41.1-2.62s.12-2.09.17-2.64L287.46,25.7h-5V6.26Z"/><path class="cls-2" d="M308.76,25.7h-4.62l5.41-8a5.82,5.82,0,0,1-3.09-2,5.66,5.66,0,0,1-1.13-3.59,5.21,5.21,0,0,1,2-4.32,8.5,8.5,0,0,1,5.38-1.55h8.86V25.7h-4.15V18.21h-3.92Zm.6-13.54a2.53,2.53,0,0,0,1.13,2.25,5.55,5.55,0,0,0,3.05.74h3.85V9.39h-4.5a4.18,4.18,0,0,0-2.61.72A2.46,2.46,0,0,0,309.36,12.16Z"/></g></g></svg>